# Blender v3.6.3 OBJ File: 'untitled.blend'
# www.blender.org
mtllib Mesh_0162.mtl
o Mesh_0162_Mesh.137
v -6.814894 9.677491 10.926086
v -6.814894 9.114779 11.615868
v -6.814894 10.159989 12.413658
v -6.814892 8.340079 12.129272
v -6.814894 8.338733 12.413658
v -6.814901 8.188899 12.166542
v -6.814894 9.677492 -19.553917
v -6.814894 9.114779 -18.864128
v -6.814894 10.159989 -18.066338
v -6.814892 8.340079 -18.350719
v -6.814894 8.338734 -18.066338
v -6.814901 8.188899 -18.313454
v -6.814894 9.114779 13.720512
v -6.814894 9.677491 14.410301
v -6.814894 10.159989 12.922722
v -6.814894 10.067331 15.208191
v -6.814894 10.159990 15.208191
v -6.814894 9.114779 13.720512
v -6.814894 10.159989 12.922722
v -6.814892 8.340079 13.207108
v -6.814894 8.338733 12.922722
v -6.814901 8.188899 13.169846
v -6.814894 9.677491 16.016945
v -6.814894 9.114780 16.695862
v -6.814894 10.159989 17.504509
v -6.814894 8.340079 17.209290
v -6.814894 7.354356 17.504509
v -6.814894 9.114780 8.640526
v -6.814894 9.677491 9.319443
v -6.814894 10.159990 7.831871
v -6.814894 10.067331 10.128189
v -6.814894 10.159990 10.128189
v -6.814894 9.677491 21.933357
v -6.814894 9.114780 22.782310
v -6.814894 10.159989 23.788155
v -6.814894 8.340079 23.424324
v -6.814894 7.354356 23.788155
v -6.814894 9.114779 19.061806
v -6.814894 9.677490 19.910751
v -6.814894 10.159989 18.055962
v -6.814894 10.067330 20.922050
v -6.814894 10.159990 20.922050
v -6.814894 9.677491 -25.056641
v -6.814894 9.114779 -24.207680
v -6.814894 10.159990 -23.201847
v -6.814894 8.340080 -23.565674
v -6.814894 7.354356 -23.201847
v -6.814894 9.114780 -27.928192
v -6.814894 9.677492 -27.079250
v -6.814894 10.159990 -28.934036
v -6.814894 10.067331 -26.067947
v -6.814894 10.159990 -26.067947
v -6.814894 9.114780 -21.839478
v -6.814894 9.677492 -21.160557
v -6.814894 10.159990 -22.648129
v -6.814894 10.067331 -20.351807
v -6.814894 10.159990 -20.351807
v -6.814894 9.114780 -16.759483
v -6.814894 9.677492 -16.069698
v -6.814894 10.159989 -17.557274
v -6.814894 10.067331 -15.271805
v -6.814894 10.159990 -15.271805
v -6.814894 9.114780 -16.759483
v -6.814894 10.159989 -17.557274
v -6.814892 8.340080 -17.272892
v -6.814894 8.338734 -17.557274
v -6.814901 8.188900 -17.310154
v -6.814894 10.159990 -15.271805
v -6.814894 10.067331 -15.271805
v -6.814894 10.159989 -12.975487
v -6.814894 9.677492 -14.463055
v -6.814894 9.114780 -13.784130
v -6.814894 10.159990 15.208191
v -6.814894 10.067331 15.208191
v -6.814894 10.159989 17.504509
v -6.814894 9.677491 16.016945
v -6.814894 10.159990 10.128189
v -6.814894 10.067331 10.128189
v -6.814894 10.159989 12.413658
v -6.814894 9.677491 10.926086
v -6.814894 10.159990 20.922050
v -6.814894 10.067330 20.922050
v -6.814894 10.159989 23.788155
v -6.814894 9.677491 21.933357
v -6.814894 9.114779 19.061806
v -6.814894 10.159989 18.055962
v -6.814894 8.340079 18.419792
v -6.814894 7.354356 18.055962
v -6.814894 10.159990 -26.067947
v -6.814894 10.067331 -26.067947
v -6.814894 10.159990 -23.201847
v -6.814894 9.677491 -25.056641
v -6.814894 9.114780 -27.928192
v -6.814894 10.159990 -28.934036
v -6.814894 8.340080 -28.570202
v -6.814894 7.354356 -28.934036
v -6.814894 10.159990 -20.351807
v -6.814894 10.067331 -20.351807
v -6.814894 10.159989 -18.066338
v -6.814894 9.677492 -19.553917
v -6.814894 9.114780 -21.839478
v -6.814894 10.159990 -22.648129
v -6.814894 8.340080 -22.352905
v -6.814894 7.354356 -22.648129
v -6.814894 8.340080 8.127090
v -6.814894 9.114780 8.640526
v -6.814894 10.159990 7.831871
v -6.814894 8.340080 8.127090
v -6.814894 10.159990 7.831871
v -6.814894 7.354356 7.831871
v -6.814894 9.114780 -13.784130
v -6.814894 8.340079 -13.270706
v -6.814894 10.159989 -12.975487
v -6.814894 10.159989 -12.975487
v -6.814894 8.340079 -13.270706
v -6.814894 7.354356 -12.975487
vt 0.353088 -0.174622
vt 0.999939 -0.002563
vt 0.646484 -0.375549
vt 0.871216 -0.651184
vt 0.999939 -0.627563
vt 0.894714 -0.719971
vt 0.353088 -0.174622
vt 0.999939 -0.002563
vt 0.646484 -0.375549
vt 0.871216 -0.651184
vt 0.999939 -0.627563
vt 0.894714 -0.719971
vt 0.646484 -0.375549
vt 0.999939 -0.002563
vt 0.353088 -0.174622
vt 0.000000 -0.034912
vt 0.000000 -0.002563
vt 0.646484 -0.375549
vt 0.871216 -0.651184
vt 0.999939 -0.002563
vt 0.999939 -0.627563
vt 0.894714 -0.719971
vt 0.647766 -0.828064
vt 0.000000 -0.999451
vt 0.352112 -0.627502
vt 0.128540 -0.351440
vt 0.000000 -0.000061
vt 0.352112 -0.627502
vt 0.000000 -0.999451
vt 0.647766 -0.828064
vt 0.999939 -0.966980
vt 0.999939 -0.999451
vt 0.647766 -0.828064
vt 0.000000 -0.999451
vt 0.352112 -0.627502
vt 0.128540 -0.351440
vt 0.000000 -0.000061
vt 0.647766 -0.372070
vt 0.999939 -0.000061
vt 0.352112 -0.171509
vt 0.000000 -0.032593
vt 0.000000 -0.000061
vt 0.647766 -0.828064
vt 0.000000 -0.999451
vt 0.352112 -0.627502
vt 0.128540 -0.351440
vt 0.000000 -0.000061
vt 0.647766 -0.372070
vt 0.999939 -0.000061
vt 0.352112 -0.171509
vt 0.000000 -0.032593
vt 0.000000 -0.000061
vt 0.352112 -0.627502
vt 0.000000 -0.999451
vt 0.647766 -0.828064
vt 0.999939 -0.966980
vt 0.999939 -0.999451
vt 0.646484 -0.375549
vt 0.999939 -0.002563
vt 0.353088 -0.174622
vt 0.000000 -0.034912
vt 0.000000 -0.002563
vt 0.646484 -0.375549
vt 0.871216 -0.651184
vt 0.999939 -0.002563
vt 0.999939 -0.627563
vt 0.894714 -0.719971
vt 0.999939 -0.999451
vt 0.000000 -0.999451
vt 0.999939 -0.966980
vt 0.647766 -0.828064
vt 0.352112 -0.627502
vt 0.999939 -0.999451
vt 0.000000 -0.999451
vt 0.999939 -0.966980
vt 0.647766 -0.828064
vt 0.000000 -0.002563
vt 0.999939 -0.002563
vt 0.000000 -0.034912
vt 0.353088 -0.174622
vt 0.999939 -0.999451
vt 0.000000 -0.999451
vt 0.999939 -0.966980
vt 0.647766 -0.828064
vt 0.647766 -0.372070
vt 0.871338 -0.648193
vt 0.999939 -0.000061
vt 0.999939 -0.999451
vt 0.999939 -0.999451
vt 0.000000 -0.999451
vt 0.999939 -0.966980
vt 0.647766 -0.828064
vt 0.647766 -0.372070
vt 0.871338 -0.648193
vt 0.999939 -0.000061
vt 0.999939 -0.999451
vt 0.000000 -0.002563
vt 0.999939 -0.002563
vt 0.000000 -0.034912
vt 0.353088 -0.174622
vt 0.352112 -0.627502
vt 0.128540 -0.351440
vt 0.000000 -0.999451
vt 0.000000 -0.000061
vt 0.128540 -0.351440
vt 0.000000 -0.999451
vt 0.352112 -0.627502
vt 0.128540 -0.351440
vt 0.000000 -0.000061
vt 0.000000 -0.999451
vt 0.352112 -0.627502
vt 0.000000 -0.999451
vt 0.128540 -0.351440
vt 0.000000 -0.999451
vt 0.000000 -0.000061
vt 0.128540 -0.351440
vn 1.0000 -0.0000 0.0000
vn 1.0000 -0.0001 0.0000
usemtl Tex_0053_1.dds.001
s off
f 1/1/1 3/2/1 2/3/1
f 2/3/1 3/2/1 4/4/1
f 3/2/1 5/5/1 4/4/1
f 4/4/2 5/5/2 6/6/2
f 7/7/1 9/8/1 8/9/1
f 8/9/1 9/8/1 10/10/1
f 9/8/1 11/11/1 10/10/1
f 10/10/2 11/11/2 12/12/2
f 13/13/1 15/14/1 14/15/1
f 14/15/1 15/14/1 16/16/1
f 15/14/1 17/17/1 16/16/1
f 18/18/1 20/19/1 19/20/1
f 19/20/1 20/19/1 21/21/1
f 20/19/2 22/22/2 21/21/2
f 23/23/1 25/24/1 24/25/1
f 24/25/1 25/24/1 26/26/1
f 25/24/1 27/27/1 26/26/1
f 28/28/1 30/29/1 29/30/1
f 29/30/1 30/29/1 31/31/1
f 30/29/1 32/32/1 31/31/1
f 33/33/1 35/34/1 34/35/1
f 34/35/1 35/34/1 36/36/1
f 35/34/1 37/37/1 36/36/1
f 38/38/1 40/39/1 39/40/1
f 39/40/1 40/39/1 41/41/1
f 40/39/1 42/42/1 41/41/1
f 43/43/1 45/44/1 44/45/1
f 44/45/1 45/44/1 46/46/1
f 45/44/1 47/47/1 46/46/1
f 48/48/1 50/49/1 49/50/1
f 49/50/1 50/49/1 51/51/1
f 50/49/1 52/52/1 51/51/1
f 53/53/1 55/54/1 54/55/1
f 54/55/1 55/54/1 56/56/1
f 55/54/1 57/57/1 56/56/1
f 58/58/1 60/59/1 59/60/1
f 59/60/1 60/59/1 61/61/1
f 60/59/1 62/62/1 61/61/1
f 63/63/1 65/64/1 64/65/1
f 64/65/1 65/64/1 66/66/1
f 65/64/2 67/67/2 66/66/2
f 68/68/1 70/69/1 69/70/1
f 69/70/1 70/69/1 71/71/1
f 70/69/1 72/72/1 71/71/1
f 73/73/1 75/74/1 74/75/1
f 74/75/1 75/74/1 76/76/1
f 77/77/1 79/78/1 78/79/1
f 78/79/1 79/78/1 80/80/1
f 81/81/1 83/82/1 82/83/1
f 82/83/1 83/82/1 84/84/1
f 85/85/1 87/86/1 86/87/1
f 86/87/1 87/86/1 88/88/1
f 89/89/1 91/90/1 90/91/1
f 90/91/1 91/90/1 92/92/1
f 93/93/1 95/94/1 94/95/1
f 94/95/1 95/94/1 96/96/1
f 97/97/1 99/98/1 98/99/1
f 98/99/1 99/98/1 100/100/1
f 101/101/1 103/102/1 102/103/1
f 102/103/1 103/102/1 104/104/1
f 105/105/1 107/106/1 106/107/1
f 108/108/1 110/109/1 109/110/1
f 111/111/1 113/112/1 112/113/1
f 114/114/1 116/115/1 115/116/1
