# Blender v3.6.3 OBJ File: 'untitled.blend'
# www.blender.org
mtllib Mesh_0252.mtl
o Mesh_0252_Mesh.064
v 3.730410 0.000096 -29.432304
v 3.730410 0.000096 -29.051304
v 3.730410 3.333846 -29.432304
v 3.730410 3.333846 -29.051304
v 3.866758 4.286345 -29.432304
v 3.866758 4.286345 -29.051304
v 4.062487 4.921345 -29.432304
v 4.062487 4.921345 -29.051304
v 4.432745 5.556345 -29.432304
v 4.432745 5.556345 -29.051304
v 5.026682 6.191345 -29.432304
v 5.026682 6.191345 -29.051304
v 5.635408 6.667595 -29.432304
v 5.635408 6.667595 -29.051304
v 7.540407 0.000096 -29.178307
v 7.540407 0.000096 -29.305305
v 7.540407 3.333846 -29.178307
v 7.540407 3.333846 -29.305305
v 7.404058 4.286345 -29.178307
v 7.404058 4.286345 -29.305305
v 7.208326 4.921345 -29.178307
v 7.208326 4.921345 -29.305305
v 6.838076 5.556345 -29.178307
v 6.838076 5.556345 -29.305305
v 6.244131 6.191345 -29.178307
v 6.244131 6.191345 -29.305305
v 5.635408 6.667595 -29.432304
v 5.635408 6.667595 -29.432304
v 6.244131 6.191345 -29.305305
v 6.319136 6.275267 -29.432304
v 6.838076 5.556345 -29.305305
v 6.955744 5.615172 -29.432304
v 7.208326 4.921345 -29.305305
v 7.326292 4.953934 -29.432304
v 7.404058 4.286345 -29.305305
v 7.539774 4.301027 -29.432304
v 7.667410 3.333846 -29.432304
v 7.539774 4.301027 -29.051304
v 7.404058 4.286345 -29.178307
v 7.326292 4.953934 -29.051304
v 7.208326 4.921345 -29.178307
v 6.955744 5.615172 -29.051304
v 6.838076 5.556345 -29.178307
v 6.319136 6.275267 -29.051304
v 6.244131 6.191345 -29.178307
v 5.635408 6.667595 -29.051304
v 7.667410 0.000096 -29.051304
v 7.540407 3.333846 -29.178307
v 7.667410 3.333846 -29.051304
v 7.404058 4.286345 -29.178307
v 7.539774 4.301027 -29.051304
v 7.540407 0.000096 -29.305305
v 7.667410 0.000096 -29.432304
v 7.540407 3.333846 -29.305305
v 7.667410 3.333846 -29.432304
v 7.404058 4.286345 -29.305305
v 7.667410 0.000096 -29.432304
v 7.923895 0.000096 -29.432304
v 7.667410 3.333846 -29.432304
v 7.923895 3.333846 -29.432304
v 3.730410 3.333846 -29.432304
v 3.346922 3.333846 -29.432304
v 3.730410 0.000096 -29.432304
v 3.346922 0.000096 -29.432304
v 3.346922 3.333846 -29.432304
v 3.730410 3.333846 -29.432304
v 3.491777 4.321270 -29.432304
v 3.866758 4.286345 -29.432304
v 3.491777 4.321270 -29.432304
v 3.866758 4.286345 -29.432304
v 3.708189 5.037779 -29.432304
v 4.062487 4.921345 -29.432304
v 3.708189 5.037779 -29.432304
v 4.062487 4.921345 -29.432304
v 4.087038 5.734095 -29.432304
v 4.432745 5.556345 -29.432304
v 4.087038 5.734095 -29.432304
v 4.432745 5.556345 -29.432304
v 4.758371 6.445498 -29.432304
v 5.026682 6.191345 -29.432304
v 4.758371 6.445498 -29.432304
v 5.026682 6.191345 -29.432304
v 5.635408 7.106076 -29.432304
v 5.635408 6.667595 -29.432304
v 5.635408 7.106076 -29.432304
v 5.635408 6.667595 -29.432304
v 6.512449 6.445498 -29.432304
v 6.319136 6.275267 -29.432304
v 7.183783 5.734095 -29.432304
v 6.512449 6.445498 -29.432304
v 6.955744 5.615172 -29.432304
v 6.319136 6.275267 -29.432304
v 7.562624 5.037779 -29.432304
v 7.183783 5.734095 -29.432304
v 7.326292 4.953934 -29.432304
v 6.955744 5.615172 -29.432304
v 7.779043 4.321270 -29.432304
v 7.562624 5.037779 -29.432304
v 7.539774 4.301027 -29.432304
v 7.326292 4.953934 -29.432304
v 7.923895 3.333846 -29.432304
v 7.779043 4.321270 -29.432304
v 7.667410 3.333846 -29.432304
v 7.539774 4.301027 -29.432304
v 7.667410 3.333846 -29.051304
v 7.923899 3.333795 -29.051311
v 7.667410 0.000096 -29.051304
v 7.923899 0.000046 -29.051311
v 3.730410 0.000096 -29.051304
v 3.346926 0.000046 -29.051311
v 3.730410 3.333846 -29.051304
v 3.346926 3.333795 -29.051311
v 3.346926 3.333795 -29.051311
v 3.491762 4.321219 -29.051311
v 3.730410 3.333846 -29.051304
v 3.866758 4.286345 -29.051304
v 3.491762 4.321219 -29.051311
v 3.708189 5.037728 -29.051311
v 3.866758 4.286345 -29.051304
v 4.062487 4.921345 -29.051304
v 3.708189 5.037728 -29.051311
v 4.087034 5.734044 -29.051304
v 4.062487 4.921345 -29.051304
v 4.432745 5.556345 -29.051304
v 4.087034 5.734044 -29.051304
v 4.758375 6.445446 -29.051311
v 4.432745 5.556345 -29.051304
v 5.026682 6.191345 -29.051304
v 4.758375 6.445446 -29.051311
v 5.635412 7.106007 -29.051308
v 5.026682 6.191345 -29.051304
v 5.635408 6.667595 -29.051304
v 5.635412 7.106007 -29.051308
v 6.512449 6.445446 -29.051311
v 5.635408 6.667595 -29.051304
v 6.319136 6.275267 -29.051304
v 7.183790 5.734044 -29.051304
v 6.955744 5.615172 -29.051304
v 6.512449 6.445446 -29.051311
v 6.319136 6.275267 -29.051304
v 7.562635 5.037728 -29.051311
v 7.326292 4.953934 -29.051304
v 7.183790 5.734044 -29.051304
v 6.955744 5.615172 -29.051304
v 7.779058 4.321219 -29.051311
v 7.539774 4.301027 -29.051304
v 7.562635 5.037728 -29.051311
v 7.326292 4.953934 -29.051304
v 7.923899 3.333795 -29.051311
v 7.667410 3.333846 -29.051304
v 7.779058 4.321219 -29.051311
v 7.539774 4.301027 -29.051304
v 7.540407 3.333846 -29.178307
v 7.667410 0.000096 -29.051304
v 7.540407 0.000096 -29.178307
v 6.244131 6.191345 -29.178307
v 5.635408 6.667595 -29.432304
v 5.635408 6.667595 -29.051304
vt 1.694336 -4.200195
vt 1.694336 -1.596680
vt 1.537109 -4.200195
vt 1.537109 -1.596680
vt 1.694336 -0.852539
vt 1.537109 -0.852539
vt 1.694336 -0.356445
vt 1.537109 -0.356445
vt 1.694336 0.139648
vt 1.537109 0.139648
vt 1.694336 0.635742
vt 1.537109 0.635742
vt 1.694336 1.007812
vt 1.537109 1.007812
vt -1.268555 -2.298828
vt -1.268555 0.154297
vt -1.256836 -2.298828
vt -1.256836 0.154297
vt -1.268555 0.855469
vt -1.256836 0.855469
vt -1.268555 1.322266
vt -1.256836 1.322266
vt -1.268555 1.790039
vt -1.256836 1.790039
vt -1.268555 2.256836
vt -1.256836 2.256836
vt -1.430664 2.607422
vt -1.430664 2.607422
vt -1.588867 2.319336
vt -1.256836 2.256836
vt -1.256836 1.790039
vt -1.588867 1.833008
vt -1.256836 1.322266
vt -1.588867 1.346680
vt -1.256836 0.855469
vt -1.588867 0.866211
vt -1.588867 0.154297
vt -1.589844 0.866211
vt -1.589844 1.346680
vt -1.268555 0.855469
vt -1.268555 1.322266
vt -1.589844 1.833008
vt -1.268555 1.790039
vt -1.589844 2.319336
vt -1.268555 2.256836
vt -1.431641 2.607422
vt -1.589844 -2.298828
vt -1.589844 0.154297
vt -1.268555 0.154297
vt -1.268555 0.855469
vt -1.589844 0.866211
vt -1.256836 -2.298828
vt -1.256836 0.154297
vt -1.588867 -2.298828
vt -1.588867 0.154297
vt -1.256836 0.855469
vt 1.348633 1.501953
vt 1.348633 2.500977
vt 1.000000 1.501953
vt 1.000000 2.500977
vt 1.582031 1.501953
vt 1.582031 2.500977
vt 1.000000 1.501953
vt 1.000000 2.500977
vt 1.000000 2.500977
vt 1.000000 1.501953
vt 1.582031 2.500977
vt 1.582031 1.501953
vt 1.000000 2.500977
vt 1.000000 1.501953
vt 1.582031 2.500977
vt 1.582031 1.501953
vt 1.000000 2.500977
vt 1.000000 1.501953
vt 1.582031 2.500977
vt 1.582031 1.501953
vt 1.000000 2.500977
vt 1.000000 1.501953
vt 1.582031 2.500977
vt 1.582031 1.501953
vt 1.000000 2.500977
vt 1.000000 1.501953
vt 1.582031 2.500977
vt 1.582031 1.501953
vt 1.000000 2.500977
vt 1.000000 1.501953
vt 1.582031 2.500977
vt 1.348633 1.501953
vt 1.000000 1.501953
vt 1.348633 1.501953
vt 1.000000 2.500977
vt 1.348633 2.500977
vt 1.000000 1.501953
vt 1.348633 1.501953
vt 1.000000 2.500977
vt 1.348633 2.500977
vt 1.000000 1.501953
vt 1.348633 1.501953
vt 1.000000 2.500977
vt 1.348633 2.500977
vt 1.000000 1.501953
vt 1.348633 1.501953
vt 1.000000 2.500977
vt 1.348633 2.500977
vt 1.348633 1.501953
vt 1.348633 2.500977
vt 1.000000 1.501953
vt 1.000000 2.500977
vt 1.582031 1.501953
vt 1.582031 2.500977
vt 1.000000 1.501953
vt 1.000000 2.500977
vt 1.000000 1.501953
vt 1.582031 1.501953
vt 1.000000 2.500977
vt 1.582031 2.500977
vt 1.000000 1.501953
vt 1.582031 1.501953
vt 1.000000 2.500977
vt 1.582031 2.500977
vt 1.000000 1.501953
vt 1.582031 1.501953
vt 1.000000 2.500977
vt 1.582031 2.500977
vt 1.000000 1.501953
vt 1.582031 1.501953
vt 1.000000 2.500977
vt 1.582031 2.500977
vt 1.000000 1.501953
vt 1.582031 1.501953
vt 1.000000 2.500977
vt 1.582031 2.500977
vt 1.000000 1.501953
vt 1.582031 1.501953
vt 1.000000 2.500977
vt 1.348633 2.500977
vt 1.000000 2.500977
vt 1.000000 1.501953
vt 1.348633 2.500977
vt 1.348633 1.501953
vt 1.000000 2.500977
vt 1.000000 1.501953
vt 1.348633 2.500977
vt 1.348633 1.501953
vt 1.000000 2.500977
vt 1.000000 1.501953
vt 1.348633 2.500977
vt 1.348633 1.501953
vt 1.000000 2.500977
vt 1.000000 1.501953
vt 1.348633 2.500977
vt 1.348633 1.501953
vt -1.268555 0.154297
vt -1.268555 -2.298828
vt -1.589844 -2.298828
vt -1.268555 2.256836
vt -1.431641 2.607422
vt -1.430664 2.607422
vn 1.0000 0.0000 0.0000
vn 0.9912 -0.1314 0.0150
vn 0.9981 -0.0000 -0.0613
vn 0.9899 -0.1417 0.0096
vn 0.9654 -0.2567 0.0465
vn 0.9825 -0.1707 -0.0751
vn 0.9899 -0.1417 0.0000
vn 0.9869 -0.1413 -0.0783
vn 0.9552 -0.2944 0.0303
vn 0.9202 -0.3873 0.0568
vn 0.9412 -0.3309 -0.0680
vn 0.9727 -0.2287 -0.0390
vn 0.9661 -0.2384 0.0991
vn 0.9514 -0.2933 -0.0937
vn 0.8582 -0.5004 0.1142
vn 0.7746 -0.6275 0.0788
vn 0.8248 -0.5527 -0.1196
vn 0.8639 -0.5037 0.0000
vn 0.8585 -0.5006 -0.1118
vn 0.7293 -0.6822 0.0521
vn 0.6797 -0.7328 0.0311
vn 0.6951 -0.7116 -0.1024
vn 0.7957 -0.6040 -0.0449
vn 0.7494 -0.6584 0.0709
vn 0.7281 -0.6810 -0.0774
vn 0.6143 -0.7852 0.0774
vn 0.6162 -0.7876 0.0000
vn 0.5874 -0.8063 -0.0694
vn 0.6690 -0.7425 -0.0342
vn -1.0000 0.0000 0.0000
vn -0.9975 -0.0710 -0.0027
vn -0.9975 0.0027 -0.0710
vn -0.9977 0.0000 0.0679
vn -0.9874 -0.1413 -0.0710
vn -0.9593 -0.2818 -0.0189
vn -0.9858 -0.1509 0.0735
vn -0.9899 -0.1417 0.0000
vn -0.9869 -0.1413 0.0783
vn -0.9556 -0.2945 -0.0120
vn -0.9163 -0.3998 -0.0214
vn -0.9484 -0.3077 0.0770
vn -0.9754 -0.2201 0.0147
vn -0.9557 -0.2721 -0.1121
vn -0.9494 -0.2926 0.1142
vn -0.8582 -0.5004 -0.1142
vn -0.8030 -0.5957 -0.0190
vn -0.8484 -0.5172 0.1126
vn -0.9149 -0.4032 0.0194
vn -0.8680 -0.4841 -0.1102
vn -0.8585 -0.5005 0.1118
vn -0.7257 -0.6788 -0.1118
vn -0.6822 -0.7311 -0.0099
vn -0.7147 -0.6906 0.1106
vn -0.8013 -0.5980 0.0162
vn -0.7354 -0.6742 -0.0679
vn -0.7279 -0.6808 0.0812
vn -0.5927 -0.8012 -0.0818
vn -0.6162 -0.7876 0.0000
vn -0.6239 -0.7781 0.0726
vn -0.3760 -0.6553 -0.6551
vn -0.4075 -0.7178 -0.5646
vn -0.3146 -0.5985 -0.7368
vn -0.4928 -0.4609 -0.7381
vn -0.6125 -0.5394 -0.5778
vn -0.6252 -0.4776 -0.6173
vn -0.4226 -0.5535 -0.7177
vn -0.5594 -0.5339 -0.6340
vn -0.4588 -0.4687 -0.7548
vn -0.5432 -0.3129 -0.7792
vn -0.6531 -0.3637 -0.6642
vn -0.6022 -0.2676 -0.7521
vn -0.6339 -0.4423 -0.6344
vn -0.6813 -0.3864 -0.6218
vn -0.5866 -0.3437 -0.7333
vn -0.6305 -0.1984 -0.7504
vn -0.7391 -0.2041 -0.6419
vn -0.7263 -0.1653 -0.6672
vn -0.6149 -0.2745 -0.7393
vn -0.6997 -0.2288 -0.6769
vn -0.6111 -0.2198 -0.7605
vn -0.6265 -0.0656 -0.7767
vn -0.7177 -0.0947 -0.6899
vn -0.6754 -0.0891 -0.7320
vn -0.6550 -0.2142 0.7247
vn -0.6149 -0.2745 0.7393
vn -0.6535 -0.2209 0.7239
vn -0.7133 -0.2199 0.6655
vn -0.7391 -0.2041 0.6419
vn -0.6305 -0.1984 0.7504
vn -0.6813 -0.3863 0.6218
vn -0.6339 -0.4423 0.6344
vn -0.5866 -0.3437 0.7333
vn -0.6022 -0.2676 0.7521
vn -0.6531 -0.3637 0.6642
vn -0.5432 -0.3129 0.7792
vn -0.5594 -0.5339 0.6340
vn -0.4226 -0.5535 0.7177
vn -0.4588 -0.4687 0.7548
vn -0.6252 -0.4776 0.6173
vn -0.6125 -0.5394 0.5778
vn -0.4927 -0.4609 0.7381
vn -0.4075 -0.7178 0.5646
vn -0.3760 -0.6553 0.6551
vn -0.3146 -0.5986 0.7367
vn -0.7071 0.0000 0.7071
vn -0.7404 0.0025 0.6722
vn -0.6688 0.0029 0.7434
vn -0.6693 -0.0958 0.7368
vn -0.7366 -0.1174 0.6660
vn -0.7287 -0.1043 0.6769
vn -0.6630 -0.0371 0.7477
vn -0.6754 -0.0891 0.7320
vn -0.6760 -0.0843 0.7321
vn -0.7071 0.0000 -0.7071
vn -0.7042 -0.0519 -0.7081
vn -0.6694 0.0028 -0.7429
vn -0.7385 -0.0000 -0.6742
vn -0.6687 -0.0957 -0.7374
vn -0.7035 -0.1007 -0.7035
vn -0.7389 -0.1158 -0.6638
vn 0.0000 0.0000 -1.0000
vn 0.0000 0.0000 1.0000
usemtl Tex_0089_0.dds
s off
f 1/1/1 3/2/2 2/3/1
f 2/3/1 3/2/1 4/4/3
f 3/2/4 5/5/5 4/4/6
f 4/4/7 5/5/7 6/6/8
f 5/5/9 7/7/10 6/6/11
f 6/6/12 7/7/13 8/8/14
f 7/7/15 9/9/16 8/8/17
f 8/8/18 9/9/18 10/10/19
f 9/9/20 11/11/21 10/10/22
f 10/10/23 11/11/24 12/12/25
f 11/11/26 13/13/27 12/12/28
f 12/12/29 13/13/27 14/14/27
f 15/15/30 17/16/31 16/17/30
f 16/17/30 17/16/32 18/18/33
f 17/16/34 19/19/35 18/18/36
f 18/18/37 19/19/37 20/20/38
f 19/19/39 21/21/40 20/20/41
f 20/20/42 21/21/43 22/22/44
f 21/21/45 23/23/46 22/22/47
f 22/22/48 23/23/49 24/24/50
f 23/23/51 25/25/52 24/24/53
f 24/24/54 25/25/55 26/26/56
f 25/25/57 27/27/58 26/26/59
f 28/28/60 30/29/61 29/30/62
f 29/30/63 30/29/64 31/31/65
f 30/29/66 32/32/67 31/31/68
f 31/31/69 32/32/70 33/33/71
f 32/32/72 34/34/73 33/33/74
f 33/33/75 34/34/76 35/35/77
f 34/34/78 36/36/79 35/35/80
f 35/35/81 36/36/82 37/37/83
f 38/38/84 40/39/85 39/40/86
f 39/40/87 40/39/88 41/41/89
f 40/39/90 42/42/91 41/41/92
f 41/41/93 42/42/94 43/43/95
f 42/42/96 44/44/97 43/43/98
f 43/43/99 44/44/100 45/45/101
f 44/44/102 46/46/103 45/45/104
f 47/47/105 49/48/106 48/49/107
f 48/49/108 49/48/109 50/50/110
f 49/48/111 51/51/112 50/50/113
f 52/52/114 54/53/115 53/54/114
f 53/54/114 54/53/116 55/55/117
f 54/53/118 56/56/119 55/55/120
f 57/57/121 59/58/121 58/59/121
f 58/59/121 59/58/121 60/60/121
f 61/61/121 63/62/121 62/63/121
f 62/63/121 63/62/121 64/64/121
f 65/65/121 67/66/121 66/67/121
f 66/67/121 67/66/121 68/68/121
f 69/69/121 71/70/121 70/71/121
f 70/71/121 71/70/121 72/72/121
f 73/73/121 75/74/121 74/75/121
f 74/75/121 75/74/121 76/76/121
f 77/77/121 79/78/121 78/79/121
f 78/79/121 79/78/121 80/80/121
f 81/81/121 83/82/121 82/83/121
f 82/83/121 83/82/121 84/84/121
f 85/85/121 87/86/121 86/87/121
f 86/87/121 87/86/121 88/88/121
f 89/89/121 91/90/121 90/91/121
f 90/91/121 91/90/121 92/92/121
f 93/93/121 95/94/121 94/95/121
f 94/95/121 95/94/121 96/96/121
f 97/97/121 99/98/121 98/99/121
f 98/99/121 99/98/121 100/100/121
f 101/101/121 103/102/121 102/103/121
f 102/103/121 103/102/121 104/104/121
f 105/105/122 107/106/122 106/107/122
f 106/107/122 107/106/122 108/108/122
f 109/109/122 111/110/122 110/111/122
f 110/111/122 111/110/122 112/112/122
f 113/113/122 115/114/122 114/115/122
f 114/115/122 115/114/122 116/116/122
f 117/117/122 119/118/122 118/119/122
f 118/119/122 119/118/122 120/120/122
f 121/121/122 123/122/122 122/123/122
f 122/123/122 123/122/122 124/124/122
f 125/125/122 127/126/122 126/127/122
f 126/127/122 127/126/122 128/128/122
f 129/129/122 131/130/122 130/131/122
f 130/131/122 131/130/122 132/132/122
f 133/133/122 135/134/122 134/135/122
f 134/135/122 135/134/122 136/136/122
f 137/137/122 139/138/122 138/139/122
f 138/139/122 139/138/122 140/140/122
f 141/141/122 143/142/122 142/143/122
f 142/143/122 143/142/122 144/144/122
f 145/145/122 147/146/122 146/147/122
f 146/147/122 147/146/122 148/148/122
f 149/149/122 151/150/122 150/151/122
f 150/151/122 151/150/122 152/152/122
f 153/153/105 155/154/105 154/155/105
f 156/156/58 158/157/58 157/158/58
