# Blender v3.6.3 OBJ File: 'untitled.blend'
# www.blender.org
mtllib Mesh_0383.mtl
o Mesh_0383_Mesh.110
v -45.164471 17.271950 47.971390
v -45.164471 17.525888 47.717361
v -50.244469 14.986354 47.717361
v -45.164471 17.779982 48.228188
v -50.244469 15.239982 48.228188
v -45.164471 15.240912 47.843094
v -45.164471 15.493921 47.593193
v -50.244469 12.954463 47.593193
v -45.164471 15.748013 47.971390
v -50.244469 13.208478 47.971390
v -50.244469 14.732417 47.971390
v -50.244469 14.986354 47.717361
v -55.324471 12.445967 47.717361
v -50.244469 15.239982 48.228188
v -55.324471 12.699983 48.228188
v -50.244469 12.701300 47.843094
v -50.244469 12.954463 47.593193
v -55.324471 10.414000 47.593193
v -50.244469 13.208478 47.971390
v -55.324471 10.668014 47.971390
v -35.004471 22.351950 47.971390
v -35.004471 22.605886 47.717361
v -40.084473 20.065578 47.717361
v -35.004471 22.859982 48.228188
v -40.084473 20.319981 48.228188
v -35.004471 20.319981 47.843094
v -35.004471 20.573919 47.593193
v -40.084473 18.033453 47.593193
v -35.004471 20.828012 47.971153
v -40.084473 18.287546 47.971390
v -40.084473 19.811485 47.971390
v -40.084473 20.065578 47.717361
v -45.164471 17.525888 47.717361
v -40.084473 20.319981 48.228188
v -45.164471 17.779982 48.228188
v -40.084473 17.780445 47.843094
v -40.084473 18.033453 47.593193
v -45.164471 15.493921 47.593193
v -40.084473 18.287546 47.971390
v -45.164471 15.748013 47.971390
v -50.244469 12.701300 47.843094
v -50.244469 12.701300 48.228188
v -45.164471 15.240912 47.843094
v -45.164471 15.240912 48.228188
v -55.324471 10.161765 47.843094
v -55.324471 10.161765 48.228188
v -50.244469 12.701300 47.843094
v -50.244469 12.701300 48.228188
v -40.084473 17.780445 47.843094
v -40.084473 17.780445 48.228188
v -35.004471 20.319981 47.843094
v -35.004471 20.319981 48.228188
v -45.164471 15.240912 47.843094
v -45.164471 15.240912 48.228188
v -40.084473 17.780445 47.843094
v -40.084473 17.780445 48.228188
v -50.244469 14.732417 47.971390
v -45.164471 17.271950 47.971390
v -50.244469 14.986354 47.717361
v -50.244469 12.954463 47.593193
v -50.244469 12.701300 47.843094
v -45.164471 15.240912 47.843094
v -55.324471 12.191952 47.971390
v -50.244469 14.732417 47.971390
v -55.324471 12.445967 47.717361
v -55.324471 10.414000 47.593193
v -55.324471 10.161765 47.843094
v -50.244469 12.701300 47.843094
v -40.084473 19.811485 47.971390
v -35.004471 22.351950 47.971390
v -40.084473 20.065578 47.717361
v -40.084473 18.033453 47.593193
v -40.084473 17.780445 47.843094
v -35.004471 20.319981 47.843094
v -45.164471 17.271950 47.971390
v -40.084473 19.811485 47.971390
v -45.164471 17.525888 47.717361
v -45.164471 15.493921 47.593193
v -45.164471 15.240912 47.843094
v -40.084473 17.780445 47.843094
vt -0.916992 -0.177734
vt -2.915039 -0.081055
vt -0.916992 -0.081055
vt -0.915039 0.032227
vt -2.914062 0.032227
vt -0.998047 -1.184570
vt -2.996094 -1.071289
vt -0.998047 -1.071289
vt -0.998047 -0.945312
vt -2.996094 -0.945312
vt -0.916992 -0.177734
vt -2.915039 -0.081055
vt -0.916992 -0.081055
vt -0.915039 0.032227
vt -2.914062 0.032227
vt -0.998047 -1.184570
vt -2.996094 -1.071289
vt -0.998047 -1.071289
vt -0.998047 -0.945312
vt -2.996094 -0.945312
vt -0.916992 -0.177734
vt -2.915039 -0.081055
vt -0.916992 -0.081055
vt -0.915039 0.032227
vt -2.914062 0.032227
vt -0.998047 -1.184570
vt -2.996094 -1.071289
vt -0.998047 -1.071289
vt -0.998047 -0.945312
vt -2.996094 -0.945312
vt -0.916992 -0.177734
vt -2.915039 -0.081055
vt -0.916992 -0.081055
vt -0.915039 0.032227
vt -2.914062 0.032227
vt -0.998047 -1.184570
vt -2.996094 -1.071289
vt -0.998047 -1.071289
vt -0.998047 -0.945312
vt -2.996094 -0.945312
vt 2.030273 -1.087891
vt 3.029297 -1.085938
vt 2.030273 -1.137695
vt 3.029297 -1.135742
vt 2.030273 -1.087891
vt 3.029297 -1.085938
vt 2.030273 -1.137695
vt 3.029297 -1.135742
vt 2.030273 -1.087891
vt 3.029297 -1.085938
vt 2.030273 -1.137695
vt 3.029297 -1.135742
vt 2.030273 -1.087891
vt 3.029297 -1.085938
vt 2.030273 -1.137695
vt 3.029297 -1.135742
vt -2.915039 -0.177734
vt -2.915039 -0.081055
vt -0.916992 -0.177734
vt -2.996094 -1.071289
vt -0.998047 -1.184570
vt -2.996094 -1.184570
vt -2.915039 -0.177734
vt -2.915039 -0.081055
vt -0.916992 -0.177734
vt -2.996094 -1.071289
vt -0.998047 -1.184570
vt -2.996094 -1.184570
vt -2.915039 -0.177734
vt -2.915039 -0.081055
vt -0.916992 -0.177734
vt -2.996094 -1.071289
vt -0.998047 -1.184570
vt -2.996094 -1.184570
vt -2.915039 -0.177734
vt -2.915039 -0.081055
vt -0.916992 -0.177734
vt -2.996094 -1.071289
vt -0.998047 -1.184570
vt -2.996094 -1.184570
vn 0.3333 -0.6668 -0.6666
vn 0.1023 -0.3319 0.9378
vn -0.4085 0.8172 -0.4065
vn -0.4488 0.7985 -0.4012
vn -0.4087 0.8174 -0.4059
vn -0.4089 0.8177 -0.4053
vn 0.3314 -0.6630 -0.6712
vn 0.1561 -0.4432 0.8827
vn 0.9986 -0.0373 -0.0378
vn 0.2874 0.7951 -0.5341
vn -0.3961 0.7848 -0.4767
vn -0.3832 0.7667 -0.5151
vn -0.4239 0.7500 -0.5078
vn -0.3833 0.7667 -0.5150
vn 0.3334 -0.6668 -0.6665
vn 0.1027 -0.3322 0.9376
vn -0.4088 0.8174 -0.4059
vn -0.4487 0.7983 -0.4017
vn -0.4086 0.8172 -0.4064
vn -0.4085 0.8170 -0.4069
vn 0.3315 -0.6628 -0.6714
vn 0.1564 -0.4436 0.8825
vn 0.9986 -0.0372 -0.0378
vn 0.2871 0.7952 -0.5341
vn -0.3963 0.7848 -0.4764
vn -0.3834 0.7667 -0.5150
vn -0.4240 0.7499 -0.5078
vn -0.3834 0.7667 -0.5149
vn 0.1016 -0.3299 0.9385
vn 0.9996 0.0192 0.0192
vn 0.3094 0.8514 -0.4235
vn -0.4194 0.8298 -0.3681
vn -0.4086 0.8172 -0.4065
vn -0.4458 0.7995 -0.4026
vn -0.4085 0.8169 -0.4072
vn 0.3310 -0.6619 -0.6726
vn 0.1574 -0.4463 0.8809
vn 0.9985 -0.0383 -0.0390
vn 0.2864 0.7951 -0.5345
vn -0.3962 0.7846 -0.4770
vn -0.3833 0.7665 -0.5153
vn -0.4241 0.7498 -0.5079
vn -0.3834 0.7666 -0.5151
vn 0.3333 -0.6666 -0.6668
vn 0.1015 -0.3303 0.9384
vn 0.9997 0.0187 0.0187
vn 0.3093 0.8513 -0.4239
vn -0.4191 0.8294 -0.3693
vn -0.4085 0.8171 -0.4069
vn -0.4459 0.7996 -0.4022
vn -0.4087 0.8174 -0.4060
vn 0.1562 -0.4433 0.8827
vn 0.9986 -0.0373 -0.0377
vn -0.3961 0.7848 -0.4766
vn -0.3833 0.7667 -0.5151
vn -0.4238 0.7499 -0.5079
vn 0.4472 -0.8945 0.0000
vn 0.4471 -0.8945 0.0000
vn 0.3333 -0.6668 -0.6665
vn 0.3314 -0.6628 -0.6715
vn 0.3334 -0.6667 -0.6666
vn 0.3319 -0.6639 -0.6701
vn 0.3333 -0.6666 -0.6667
vn 0.3314 -0.6630 -0.6713
usemtl Tex_0052_0.dds.011
s off
f 1/1/1 3/2/2 2/3/1
f 2/3/3 3/2/3 4/4/3
f 3/2/4 5/5/5 4/4/6
f 6/6/7 8/7/8 7/8/9
f 7/8/10 8/7/11 9/9/12
f 8/7/13 10/10/14 9/9/14
f 11/11/15 13/12/16 12/13/15
f 12/13/17 13/12/17 14/14/17
f 13/12/18 15/15/19 14/14/20
f 16/16/21 18/17/22 17/18/23
f 17/18/24 18/17/25 19/19/26
f 18/17/27 20/20/28 19/19/28
f 21/21/15 23/22/29 22/23/30
f 22/23/31 23/22/32 24/24/33
f 23/22/34 25/25/20 24/24/35
f 26/26/36 28/27/37 27/28/38
f 27/28/39 28/27/40 29/29/41
f 28/27/42 30/30/43 29/29/43
f 31/31/44 33/32/45 32/33/46
f 32/33/47 33/32/48 34/34/49
f 33/32/50 35/35/33 34/34/51
f 36/36/7 38/37/52 37/38/53
f 37/38/10 38/37/54 39/39/55
f 38/37/56 40/40/55 39/39/55
f 41/41/57 43/42/57 42/43/57
f 42/43/57 43/42/57 44/44/57
f 45/45/58 47/46/58 46/47/58
f 46/47/57 47/46/57 48/48/57
f 49/49/58 51/50/58 50/51/58
f 50/51/57 51/50/57 52/52/57
f 53/53/58 55/54/58 54/55/58
f 54/55/57 55/54/57 56/56/57
f 57/57/59 59/58/59 58/59/59
f 60/60/60 62/61/60 61/62/60
f 63/63/61 65/64/61 64/65/61
f 66/66/62 68/67/62 67/68/62
f 69/69/63 71/70/63 70/71/63
f 72/72/7 74/73/7 73/74/7
f 75/75/59 77/76/59 76/77/59
f 78/78/64 80/79/64 79/80/64
