# Blender v3.6.3 OBJ File: 'untitled.blend'
# www.blender.org
mtllib Mesh_0312.mtl
o Mesh_0312_Mesh.090
v -19.514893 2.063738 7.831879
v -19.386456 1.862648 7.698280
v -19.386456 1.862648 12.558327
v -19.258064 1.693307 7.588234
v -19.258020 1.693309 12.668190
v -19.386417 1.552203 7.588234
v -19.386457 1.552199 12.668190
v -19.514893 2.063738 12.911880
v -19.386456 1.862648 12.778275
v -19.386456 1.862648 17.638329
v -19.258020 1.693309 12.668190
v -19.258091 1.693307 17.748192
v -19.386457 1.552199 12.668190
v -19.386444 1.552203 17.748192
v -19.386417 1.552203 7.588234
v -19.258064 1.693307 7.588234
v -19.256584 1.693304 5.556282
v -19.386417 1.862647 7.588234
v -19.383585 1.862646 5.429283
v -19.514904 2.063738 7.272812
v -19.514904 2.063738 5.297966
v -19.514954 -0.317827 22.514252
v -19.386440 1.862647 17.748192
v -19.386427 -0.677349 22.828194
v -19.258091 1.693307 17.748192
v -19.258160 -0.846691 22.828194
v -19.386444 1.552203 17.748192
v -19.386427 -0.987800 22.828194
v -19.764584 2.063738 12.424515
v -19.764584 2.063738 7.831879
v -19.514893 2.063738 12.424515
v -19.514893 2.063738 7.831879
v -19.129583 0.564429 12.668190
v -19.258020 0.705539 12.668190
v -19.129585 0.564428 7.588234
v -19.258064 0.705544 7.588234
v -19.258020 0.705539 12.668190
v -19.129583 0.846649 12.668190
v -19.258064 0.705544 7.588234
v -19.129585 0.846647 7.588234
v -19.129583 0.987758 12.668190
v -19.386457 1.128868 12.668190
v -19.129585 0.987763 7.588234
v -19.386417 1.128867 7.588234
v -19.764584 2.063738 17.504509
v -19.764584 2.063738 12.911880
v -19.514893 2.063738 17.504509
v -19.514893 2.063738 12.911880
v -19.129608 0.564428 17.748192
v -19.258091 0.705544 17.748192
v -19.129583 0.564429 12.668190
v -19.258020 0.705539 12.668190
v -19.258091 0.705544 17.748192
v -19.129608 0.846647 17.748192
v -19.258020 0.705539 12.668190
v -19.129583 0.846649 12.668190
v -19.129608 0.987763 17.748192
v -19.386444 1.128867 17.748192
v -19.129583 0.987758 12.668190
v -19.386457 1.128868 12.668190
v -19.514904 2.063738 7.272812
v -19.764584 2.063738 7.272812
v -19.514904 2.063738 5.297966
v -19.764584 2.063738 5.297966
v -19.256584 0.705549 5.556282
v -19.129585 0.564427 5.683281
v -19.258064 0.705544 7.588234
v -19.129585 0.564428 7.588234
v -19.256584 0.705549 5.556282
v -19.258064 0.705544 7.588234
v -19.129585 0.846646 5.683281
v -19.129585 0.846647 7.588234
v -19.383585 1.128865 5.429283
v -19.129585 0.987769 5.683281
v -19.386417 1.128867 7.588234
v -19.129585 0.987763 7.588234
v -19.514954 1.865440 18.065689
v -19.514954 -0.317827 22.514252
v -19.764633 1.865440 18.065689
v -19.764633 -0.317827 22.514252
v -19.258091 0.705544 17.748192
v -19.129608 0.564428 17.748192
v -19.258160 -1.834461 22.828194
v -19.129635 -1.975571 22.828194
v -19.129608 0.846647 17.748192
v -19.258091 0.705544 17.748192
v -19.129635 -1.693349 22.828194
v -19.258160 -1.834461 22.828194
v -19.386444 1.128867 17.748192
v -19.129608 0.987763 17.748192
v -19.386427 -1.411132 22.828194
v -19.129635 -1.552242 22.828194
v -19.386456 1.862648 12.558327
v -19.514893 2.063738 12.424515
v -19.514893 2.063738 7.831879
v -19.386456 1.862648 12.558327
v -19.258020 1.693309 12.668190
v -19.386456 1.862648 12.668190
v -19.258064 1.693307 7.588234
v -19.386456 1.862648 7.698280
v -19.386417 1.862647 7.588234
v -19.386456 1.862648 17.638329
v -19.514893 2.063738 17.504509
v -19.514893 2.063738 12.911880
v -19.386456 1.862648 17.638329
v -19.258091 1.693307 17.748192
v -19.386440 1.862647 17.748192
v -19.258020 1.693309 12.668190
v -19.386456 1.862648 12.778275
v -19.386456 1.862648 12.668190
v -19.386417 1.552203 7.588234
v -19.256584 1.693304 5.556282
v -19.383585 1.552207 5.429283
v -19.514954 1.865440 18.065689
v -19.386440 1.862647 17.748192
v -19.514954 -0.317827 22.514252
vt 1.416992 1.045898
vt -0.443359 0.830078
vt 1.453125 0.828125
vt 1.502930 0.655273
vt -0.504883 0.655273
vt 1.496094 0.794922
vt -0.498047 0.794922
vt 1.416992 1.045898
vt -0.443359 0.830078
vt 1.453125 0.828125
vt 1.502930 0.655273
vt -0.504883 0.655273
vt 1.496094 0.794922
vt -0.498047 0.794922
vt 1.467773 0.794922
vt 0.632812 0.655273
vt 1.471680 0.655273
vt 1.473633 0.799805
vt 0.619141 0.799805
vt 1.438477 1.045898
vt 0.589844 1.047852
vt -0.422852 1.047852
vt -0.498047 0.799805
vt 1.496094 0.799805
vt 1.502930 0.655273
vt -0.504883 0.655273
vt 1.496094 0.794922
vt -0.498047 0.794922
vt -1.500977 -1.000000
vt -1.500977 -1.249023
vt 0.497070 -1.000000
vt 0.497070 -1.249023
vt -1.500977 -3.003906
vt 0.497070 -3.003906
vt -1.500977 -3.352539
vt 0.497070 -3.352539
vt -1.500977 -1.694336
vt 0.497070 -1.694336
vt -1.500977 -2.070312
vt 0.497070 -2.070312
vt -1.500977 -2.196289
vt 0.497070 -2.196289
vt -1.500977 -1.770508
vt 0.497070 -1.770508
vt -1.500977 -1.000000
vt -1.500977 -1.249023
vt 0.497070 -1.000000
vt 0.497070 -1.249023
vt -1.500977 -3.003906
vt 0.497070 -3.003906
vt -1.500977 -3.352539
vt 0.497070 -3.352539
vt -1.500977 -1.694336
vt 0.497070 -1.694336
vt -1.500977 -2.070312
vt 0.497070 -2.070312
vt -1.500977 -2.196289
vt 0.497070 -2.196289
vt -1.500977 -1.770508
vt 0.497070 -1.770508
vt 1.438477 1.045898
vt 0.589844 1.047852
vt 1.433594 1.397461
vt 0.586914 1.397461
vt 0.183594 -3.352539
vt 1.009766 -3.352539
vt 0.205078 -3.003906
vt 1.009766 -3.003906
vt 0.183594 -1.694336
vt 0.207031 -2.070312
vt 1.009766 -1.694336
vt 1.009766 -2.070312
vt 0.160156 -1.770508
vt 1.009766 -1.770508
vt 0.205078 -2.196289
vt 1.009766 -2.196289
vt 1.420898 1.045898
vt 1.420898 1.397461
vt -0.422852 1.047852
vt -0.422852 1.397461
vt 0.497070 -3.352539
vt -1.500977 -3.352539
vt 0.497070 -3.003906
vt -1.500977 -3.003906
vt 0.497070 -2.070312
vt -1.500977 -2.070312
vt 0.497070 -1.694336
vt -1.500977 -1.694336
vt 0.497070 -1.770508
vt -1.500977 -1.770508
vt 0.497070 -2.196289
vt -1.500977 -2.196289
vt -0.443359 0.830078
vt 1.416992 1.045898
vt -0.422852 1.047852
vt -0.443359 0.830078
vt -0.498047 0.831055
vt -0.504883 0.655273
vt 1.502930 0.655273
vt 1.496094 0.827148
vt 1.453125 0.828125
vt -0.443359 0.830078
vt 1.416992 1.045898
vt -0.422852 1.047852
vt -0.443359 0.830078
vt -0.498047 0.831055
vt -0.504883 0.655273
vt 1.502930 0.655273
vt 1.496094 0.827148
vt 1.453125 0.828125
vt 1.467773 0.794922
vt 0.618164 0.794922
vt 0.632812 0.655273
vt 1.420898 1.045898
vt -0.422852 1.047852
vt 1.496094 0.799805
vn 0.8428 0.5383 0.0000
vn 0.8823 0.4706 -0.0040
vn 0.7969 0.6042 0.0000
vn 0.7973 0.6036 -0.0016
vn 0.3315 0.6775 0.6566
vn 0.7968 0.6043 -0.0000
vn 0.7397 -0.6729 -0.0000
vn 0.6417 -0.5573 0.5269
vn 0.7395 -0.6731 0.0000
vn 0.8620 0.5068 -0.0019
vn 0.8555 0.5157 0.0463
vn 0.8041 0.5940 0.0243
vn 0.7697 0.6384 -0.0019
vn 0.3288 0.6495 -0.6856
vn 0.7969 0.6041 0.0000
vn 0.3244 0.6755 0.6621
vn 0.6381 -0.5808 -0.5055
vn 0.2828 -0.9590 0.0195
vn 0.6454 -0.5608 0.5186
vn 0.7397 -0.6729 0.0005
vn -0.4823 -0.8713 -0.0908
vn 0.5687 -0.5173 0.6395
vn 0.6125 0.4646 0.6395
vn 0.7675 0.6410 -0.0039
vn 0.7981 0.6021 -0.0225
vn 0.8144 0.5793 -0.0333
vn 0.7848 0.6185 0.0385
vn 0.7883 0.6152 -0.0012
vn 0.8643 0.5018 -0.0325
vn 0.8576 0.5144 0.0043
vn 0.8417 0.5400 0.0014
vn 0.8300 0.5575 0.0171
vn 0.8373 0.5468 0.0000
vn 0.8328 0.5535 0.0000
vn 0.8156 0.5175 0.2588
vn 0.8493 0.4852 0.2079
vn 0.8607 0.4537 0.2308
vn 0.7622 0.5777 0.2919
vn 0.7519 0.5900 0.2943
vn 0.7827 0.5702 -0.2493
vn 0.7672 0.5804 0.2731
vn 0.2533 0.1919 0.9482
vn 0.3175 0.8562 0.4076
vn 0.2151 -0.1957 -0.9568
vn 0.2327 -0.8771 -0.4201
vn 0.7011 -0.6378 -0.3189
vn 0.7336 -0.6445 0.2155
vn 0.7014 -0.6376 -0.3188
vn 0.0000 1.0000 0.0000
vn 0.7395 0.6731 -0.0000
vn 0.7398 0.6729 -0.0000
vn 0.7394 0.6732 -0.0000
vn 0.7394 -0.6733 -0.0000
vn 0.4815 0.8765 0.0000
vn 0.4815 0.8764 0.0000
vn 0.7431 0.6692 0.0005
vn 0.7465 0.6654 0.0005
vn 0.7359 0.6770 -0.0000
vn 0.7430 -0.6693 0.0005
vn 0.7464 -0.6655 0.0005
vn 0.7359 -0.6770 0.0000
vn 0.4851 0.8744 0.0006
vn 0.4884 0.8726 0.0006
vn 0.4781 0.8783 0.0000
vn 0.4815 0.8764 -0.0003
vn 0.0000 0.8977 0.4406
vn 0.7008 0.6381 0.3190
vn 0.7004 0.6384 0.3192
vn 0.7007 0.6382 0.3191
vn 0.7008 -0.6381 -0.3190
vn 0.7007 -0.6382 -0.3191
vn 0.4410 0.8027 0.4014
vn 0.4411 0.8027 0.4014
vn 0.7969 0.6041 0.0003
vn 0.7970 0.6040 -0.0001
vn 0.7428 -0.6695 0.0010
vn 0.7424 0.6015 0.2952
usemtl Tex_0032_0.dds.011
s off
f 1/1/1 3/2/2 2/3/1
f 2/3/3 3/2/3 4/4/3
f 3/2/4 5/5/5 4/4/6
f 4/4/7 5/5/7 6/6/7
f 5/5/8 7/7/9 6/6/9
f 8/8/1 10/9/10 9/10/11
f 9/10/12 10/9/13 11/11/14
f 10/9/15 12/12/16 11/11/15
f 11/11/17 12/12/18 13/13/9
f 12/12/19 14/14/7 13/13/7
f 15/15/20 17/16/21 16/17/22
f 16/17/23 17/16/24 18/18/25
f 17/16/26 19/19/27 18/18/28
f 18/18/29 19/19/30 20/20/31
f 19/19/32 21/21/33 20/20/34
f 22/22/35 24/23/36 23/24/37
f 23/24/38 24/23/39 25/25/40
f 24/23/41 26/26/42 25/25/43
f 25/25/44 26/26/45 27/27/46
f 26/26/47 28/28/48 27/27/48
f 29/29/49 31/30/49 30/31/49
f 30/31/49 31/30/49 32/32/49
f 33/33/50 35/34/51 34/35/50
f 34/35/52 35/34/52 36/36/52
f 37/37/9 39/38/9 38/39/9
f 38/39/53 39/38/53 40/40/53
f 41/41/54 43/42/54 42/43/54
f 42/43/55 43/42/55 44/44/55
f 45/45/49 47/46/49 46/47/49
f 46/47/49 47/46/49 48/48/49
f 49/49/52 51/50/52 50/51/52
f 50/51/50 51/50/50 52/52/50
f 53/53/53 55/54/53 54/55/53
f 54/55/9 55/54/9 56/56/9
f 57/57/55 59/58/55 58/59/55
f 58/59/54 59/58/54 60/60/54
f 61/61/49 63/62/49 62/63/49
f 62/63/49 63/62/49 64/64/49
f 65/65/56 67/66/57 66/67/56
f 66/67/58 67/66/52 68/68/52
f 69/69/59 71/70/59 70/71/60
f 70/71/53 71/70/61 72/72/53
f 73/73/62 75/74/63 74/75/62
f 74/75/64 75/74/65 76/76/55
f 77/77/66 79/78/66 78/79/66
f 78/79/66 79/78/66 80/80/66
f 81/81/67 83/82/67 82/83/67
f 82/83/68 83/82/69 84/84/69
f 85/85/70 87/86/70 86/87/70
f 86/87/71 87/86/71 88/88/71
f 89/89/72 91/90/72 90/91/72
f 90/91/73 91/90/73 92/92/73
f 93/93/1 95/94/1 94/95/1
f 96/96/6 98/97/6 97/98/6
f 99/99/74 101/100/74 100/101/74
f 102/102/1 104/103/1 103/104/1
f 105/105/75 107/106/75 106/107/75
f 108/108/6 110/109/6 109/110/6
f 111/111/76 113/112/76 112/113/76
f 114/114/77 116/115/77 115/116/77
