# Blender v3.6.3 OBJ File: 'untitled.blend'
# www.blender.org
mtllib Mesh_0129.mtl
o Mesh_0129_Mesh.003
v -8.334585 35.559990 10.710365
v -10.297752 40.197014 10.075371
v -8.334585 35.559990 10.102547
v -10.297752 40.197014 9.468559
v -10.297752 40.197014 10.075371
v -14.684585 43.346359 9.440369
v -10.297752 40.197014 9.468559
v -14.684585 43.346359 8.833565
v -18.924858 40.323250 10.128204
v -18.924858 40.323250 9.468559
v -14.684585 43.346359 9.440369
v -14.684585 43.346359 8.833565
v -8.334585 35.559990 10.102547
v -10.297752 40.197014 9.468559
v -8.978987 35.559990 10.103561
v -10.874584 39.770546 9.468559
v -14.684585 43.346359 8.833565
v -14.684585 42.543972 8.936432
v -10.297752 40.197014 9.468559
v -10.874584 39.770546 9.468559
v -18.924858 40.323250 9.468559
v -21.034584 35.559990 10.128204
v -18.494585 39.770546 9.468559
v -20.082085 35.559990 10.103561
v -14.684585 43.346359 8.833565
v -18.924858 40.323250 9.468559
v -14.684585 42.543972 8.936432
v -18.494585 39.770546 9.468559
v -8.334585 35.559990 -15.853966
v -8.334585 35.559990 -15.246143
v -10.297752 40.197014 -15.218967
v -10.297752 40.197014 -14.612160
v -10.297752 40.197014 -15.218967
v -10.297752 40.197014 -14.612160
v -14.684585 43.346359 -14.583965
v -14.684585 43.346359 -13.977161
v -18.924858 40.323250 -15.271797
v -14.684585 43.346359 -14.583965
v -18.924858 40.323250 -14.612160
v -14.684585 43.346359 -13.977161
v -8.334585 35.559990 -15.246143
v -8.978987 35.559990 -15.247158
v -10.297752 40.197014 -14.612160
v -10.874584 39.770546 -14.612160
v -14.684585 43.346359 -13.977161
v -10.297752 40.197014 -14.612160
v -14.684585 42.543972 -14.080029
v -10.874584 39.770546 -14.612160
v -18.924858 40.323250 -14.612160
v -18.494585 39.770546 -14.612160
v -21.034584 35.559990 -15.271797
v -20.082085 35.559990 -15.247158
v -14.684585 43.346359 -13.977161
v -14.684585 42.543972 -14.080029
v -18.924858 40.323250 -14.612160
v -18.494585 39.770546 -14.612160
v -18.924858 40.323250 9.468559
v -18.924858 40.323250 10.128204
v -21.034584 35.559990 10.128204
v -18.924858 40.323250 -15.271797
v -18.924858 40.323250 -14.612160
v -21.034584 35.559990 -15.271797
vt 0.604492 -0.999023
vt -0.003906 -0.999023
vt 0.604492 0.000000
vt -0.003906 0.000000
vt 0.604492 -0.999023
vt -0.003906 -0.999023
vt 0.604492 0.000000
vt -0.003906 0.000000
vt 0.604492 0.000000
vt 0.604492 -0.999023
vt -0.003906 0.000000
vt -0.003906 -0.999023
vt 0.604492 -0.999023
vt -0.003906 -0.999023
vt 0.604492 0.000000
vt -0.003906 0.000000
vt 0.604492 0.000000
vt 0.604492 -0.999023
vt -0.003906 0.000000
vt -0.003906 -0.999023
vt 0.604492 -0.999023
vt -0.003906 -0.999023
vt 0.604492 0.000000
vt -0.003906 0.000000
vt 0.604492 -0.999023
vt -0.003906 -0.999023
vt 0.604492 0.000000
vt -0.003906 0.000000
vt 0.604492 -0.999023
vt 0.604492 0.000000
vt -0.003906 -0.999023
vt -0.003906 0.000000
vt 0.604492 -0.999023
vt 0.604492 0.000000
vt -0.003906 -0.999023
vt -0.003906 0.000000
vt 0.604492 0.000000
vt -0.003906 0.000000
vt 0.604492 -0.999023
vt -0.003906 -0.999023
vt 0.604492 -0.999023
vt 0.604492 0.000000
vt -0.003906 -0.999023
vt -0.003906 0.000000
vt 0.604492 0.000000
vt -0.003906 0.000000
vt 0.604492 -0.999023
vt -0.003906 -0.999023
vt 0.604492 -0.999023
vt 0.604492 0.000000
vt -0.003906 -0.999023
vt -0.003906 0.000000
vt 0.604492 -0.999023
vt 0.604492 0.000000
vt -0.003906 -0.999023
vt -0.003906 0.000000
vt -0.003906 -0.999023
vt 0.604492 0.000000
vt 0.604492 -0.999023
vt 0.604492 -0.999023
vt 0.604492 0.000000
vt -0.003906 -0.999023
vn 0.9209 0.3899 0.0000
vn 0.5832 0.8123 0.0000
vn -0.5805 0.8142 0.0000
vn -0.0016 -0.1361 -0.9907
vn 0.0828 -0.1120 -0.9902
vn 0.0522 -0.1270 -0.9905
vn 0.0326 -0.1537 -0.9876
vn 0.0545 -0.1270 -0.9904
vn 0.0904 -0.0665 -0.9937
vn 0.0676 -0.0914 -0.9935
vn 0.0699 -0.0945 -0.9931
vn -0.1122 -0.0874 -0.9898
vn -0.1055 -0.0821 -0.9910
vn -0.1937 -0.0499 -0.9798
vn -0.0256 -0.1504 -0.9883
vn 0.0611 -0.1713 -0.9833
vn -0.0256 -0.1396 -0.9899
vn -0.0578 -0.1269 -0.9902
vn -0.0621 -0.1269 -0.9900
vn -0.0226 -0.1751 -0.9843
vn -0.0840 -0.0654 -0.9943
vn -0.1246 -0.0192 -0.9920
vn -0.0886 -0.0690 -0.9937
vn -0.0016 -0.1361 0.9907
vn -0.0750 -0.1662 0.9832
vn -0.0016 -0.1298 0.9915
vn 0.1565 -0.0780 0.9846
vn 0.0876 -0.1185 0.9891
vn 0.0828 -0.1120 0.9902
vn 0.0522 -0.1270 0.9905
vn 0.0545 -0.1270 0.9904
vn 0.0326 -0.1537 0.9876
vn 0.0676 -0.0915 0.9935
vn 0.0904 -0.0665 0.9937
vn 0.0699 -0.0945 0.9931
vn -0.1122 -0.0874 0.9898
vn -0.1937 -0.0499 0.9798
vn -0.1055 -0.0821 0.9910
vn 0.0611 -0.1713 0.9833
vn -0.0256 -0.1504 0.9883
vn -0.0256 -0.1396 0.9899
vn -0.0578 -0.1269 0.9902
vn -0.0226 -0.1751 0.9843
vn -0.0621 -0.1269 0.9900
vn -0.1246 -0.0192 0.9920
vn -0.0840 -0.0654 0.9943
vn -0.0886 -0.0690 0.9937
vn -0.9143 0.4050 0.0000
usemtl Tex_0024_1.dds
s off
f 1/1/1 3/2/1 2/3/1
f 2/3/1 3/2/1 4/4/1
f 5/5/2 7/6/2 6/7/2
f 6/7/2 7/6/2 8/8/2
f 9/9/3 11/10/3 10/11/3
f 10/11/3 11/10/3 12/12/3
f 13/13/4 15/14/4 14/15/4
f 14/15/5 15/14/5 16/16/5
f 17/17/6 19/18/7 18/19/8
f 18/19/9 19/18/10 20/20/11
f 21/21/12 23/22/13 22/23/14
f 22/23/15 23/22/16 24/24/17
f 25/25/18 27/26/19 26/27/20
f 26/27/21 27/26/22 28/28/23
f 29/29/1 31/30/1 30/31/1
f 30/31/1 31/30/1 32/32/1
f 33/33/2 35/34/2 34/35/2
f 34/35/2 35/34/2 36/36/2
f 37/37/3 39/38/3 38/39/3
f 38/39/3 39/38/3 40/40/3
f 41/41/24 43/42/25 42/43/26
f 42/43/27 43/42/28 44/44/29
f 45/45/30 47/46/31 46/47/32
f 46/47/33 47/46/34 48/48/35
f 49/49/36 51/50/37 50/51/38
f 50/51/39 51/50/40 52/52/41
f 53/53/42 55/54/43 54/55/44
f 54/55/45 55/54/46 56/56/47
f 57/57/48 59/58/48 58/59/48
f 60/60/48 62/61/48 61/62/48
