# Blender v3.6.3 OBJ File: 'untitled.blend'
# www.blender.org
mtllib Mesh_0307.mtl
o Mesh_0307_Mesh.087
v -9.982698 4.925911 9.744888
v -9.604576 4.803890 9.879150
v -9.982706 3.807651 9.529259
v -9.604576 3.809988 9.690689
v -9.982704 2.063740 9.529259
v -9.604576 2.063740 9.690697
v -9.604576 1.693312 9.690704
v -8.525074 -0.000010 10.379707
v -9.604576 -0.000010 9.690704
v -9.604576 -0.000010 15.645683
v -8.525074 -0.000010 14.956680
v -9.604576 1.693312 15.645683
v -9.604576 2.063740 15.645691
v -9.982704 2.063740 15.807121
v -9.604576 3.809988 15.645699
v -9.982706 3.807651 15.807121
v -9.604576 4.803890 15.457230
v -9.982698 4.925911 15.591492
v -9.604580 -0.000011 9.042282
v -9.604584 0.564431 9.042282
v -10.239584 -0.000011 9.193802
v -9.604584 0.846651 9.042282
v -10.239580 1.693312 9.193802
v -9.604584 0.987761 9.042282
v -9.604578 1.693312 9.042282
v -9.604578 1.693312 16.294106
v -9.604584 0.987761 16.294106
v -10.239580 1.693312 16.142586
v -9.604584 0.846651 16.294106
v -10.239584 -0.000011 16.142586
v -9.604584 0.564431 16.294106
v -9.604580 -0.000011 16.294106
v -8.525074 -0.000010 10.379707
v -9.604576 2.063740 9.690697
v -8.525072 3.333738 10.379707
v -9.604576 3.809988 9.690689
v -8.525070 4.321163 10.524536
v -9.604576 4.803890 9.879150
v -9.604584 5.101477 9.425850
v -9.982704 5.101477 9.425842
v -9.604580 3.942957 9.193810
v -9.982698 3.942957 9.193802
v -9.604586 2.063739 9.193810
v -9.982704 2.063740 9.193817
v -9.982704 5.101477 9.425842
v -9.982698 4.925911 9.744888
v -9.982698 3.942957 9.193802
v -9.982706 3.807651 9.529259
v -9.982704 2.063740 9.193817
v -9.982704 2.063740 9.529259
v -9.604576 -0.000010 9.690704
v -10.239582 -0.000010 9.529266
v -9.604576 1.693312 9.690704
v -10.239580 1.693312 9.529266
v -9.982704 2.063740 9.529259
v -9.604576 2.063740 15.645691
v -8.525072 3.333738 14.956680
v -9.604576 3.809988 15.645699
v -8.525070 4.321163 14.811852
v -9.604576 4.803890 15.457230
v -9.982704 5.101476 15.910545
v -9.604580 3.942957 16.142578
v -9.982698 3.942957 16.142586
v -9.604586 2.063739 16.142578
v -9.982704 2.063740 16.142570
v -9.982704 2.063740 15.807121
v -10.239580 1.693312 15.807114
v -9.604576 1.693312 15.645683
v -10.239582 -0.000010 15.807114
v -9.604576 -0.000010 15.645683
v -9.982698 4.925911 15.591492
v -9.982698 3.942957 16.142586
v -9.982706 3.807651 15.807121
v -9.982704 2.063740 16.142570
v -9.982704 2.063740 15.807121
v -10.239580 1.693312 9.193802
v -9.604578 1.693312 9.042282
v -9.982704 2.063740 9.193817
v -9.604586 2.063739 9.193810
v -10.239580 1.693312 9.529266
v -10.239580 1.693312 9.193802
v -9.982704 2.063740 9.529259
v -9.982704 2.063740 9.193817
v -10.239582 -0.000010 9.529266
v -10.239584 -0.000011 9.193802
v -10.239580 1.693312 9.529266
v -10.239580 1.693312 9.193802
v -10.239580 1.693312 16.142586
v -9.982704 2.063740 16.142570
v -9.604578 1.693312 16.294106
v -9.604586 2.063739 16.142578
v -10.239580 1.693312 15.807114
v -9.982704 2.063740 15.807121
v -10.239580 1.693312 16.142586
v -9.982704 2.063740 16.142570
v -10.239582 -0.000010 15.807114
v -10.239580 1.693312 15.807114
v -10.239584 -0.000011 16.142586
v -10.239580 1.693312 16.142586
v -9.604576 2.063740 15.645691
v -8.525074 -0.000010 14.956680
v -8.525072 3.333738 14.956680
v -9.604580 3.942957 16.142578
v -9.982704 5.101476 15.910545
v -9.604584 5.101476 15.910538
v -9.982698 3.942957 16.142586
v -9.982698 4.925911 15.591492
v -9.982704 5.101476 15.910545
vt 2.199219 0.988281
vt 2.201172 0.774414
vt 2.390625 0.988281
vt 2.392578 0.774414
vt 2.204102 0.360352
vt 2.391602 0.382812
vt 2.391602 0.334961
vt 2.997070 0.000977
vt 2.392578 0.000977
vt 2.392578 0.000977
vt 2.391602 0.334961
vt 2.997070 0.000977
vt 2.391602 0.382812
vt 2.204102 0.360352
vt 2.392578 0.774414
vt 2.201172 0.774414
vt 2.390625 0.988281
vt 2.199219 0.988281
vt -0.999023 -0.991211
vt -0.911133 -0.991211
vt -0.999023 -0.831055
vt -0.999023 -0.778320
vt -0.911133 -0.517578
vt -0.999023 -0.717773
vt -0.999023 -0.540039
vt -0.999023 -0.540039
vt -0.911133 -0.517578
vt -0.999023 -0.717773
vt -0.999023 -0.778320
vt -0.911133 -0.991211
vt -0.999023 -0.831055
vt -0.999023 -0.991211
vt 2.997070 0.000977
vt 2.997070 0.677734
vt 2.391602 0.382812
vt 2.392578 0.774414
vt 2.997070 0.988281
vt 2.390625 0.988281
vt 1.998047 0.988281
vt 1.998047 0.773438
vt 2.098633 0.988281
vt 2.098633 0.774414
vt 1.998047 0.348633
vt 2.098633 0.342773
vt 2.098633 0.988281
vt 2.098633 0.774414
vt 2.199219 0.988281
vt 2.201172 0.774414
vt 2.098633 0.342773
vt 2.204102 0.360352
vt -0.911133 -0.991211
vt -0.911133 -0.544922
vt -0.805664 -0.991211
vt -0.805664 -0.500977
vt -0.805664 -0.437500
vt 2.391602 0.382812
vt 2.392578 0.774414
vt 2.997070 0.677734
vt 2.997070 0.988281
vt 2.390625 0.988281
vt 2.098633 0.988281
vt 2.098633 0.774414
vt 1.998047 0.773438
vt 1.998047 0.348633
vt 2.098633 0.342773
vt -0.805664 -0.437500
vt -0.911133 -0.544922
vt -0.805664 -0.500977
vt -0.805664 -0.991211
vt -0.911133 -0.991211
vt 2.199219 0.988281
vt 2.201172 0.774414
vt 2.098633 0.774414
vt 2.098633 0.342773
vt 2.204102 0.360352
vt -0.911133 -0.517578
vt -0.893555 -0.456055
vt -0.999023 -0.540039
vt -0.999023 -0.449219
vt -0.805664 -0.500977
vt -0.805664 -0.437500
vt -0.911133 -0.517578
vt -0.893555 -0.456055
vt -0.805664 -0.991211
vt -0.805664 -0.500977
vt -0.911133 -0.991211
vt -0.911133 -0.517578
vt -0.911133 -0.517578
vt -0.999023 -0.540039
vt -0.893555 -0.456055
vt -0.999023 -0.449219
vt -0.805664 -0.500977
vt -0.911133 -0.517578
vt -0.805664 -0.437500
vt -0.893555 -0.456055
vt -0.805664 -0.991211
vt -0.911133 -0.991211
vt -0.805664 -0.500977
vt -0.911133 -0.517578
vt 2.391602 0.382812
vt 2.997070 0.677734
vt 2.997070 0.000977
vt 1.998047 0.773438
vt 1.998047 0.988281
vt 2.098633 0.988281
vt 2.098633 0.774414
vt 2.098633 0.988281
vt 2.199219 0.988281
vn -0.3792 -0.1752 0.9086
vn -0.3131 -0.0552 0.9481
vn -0.3859 -0.1719 0.9064
vn -0.4559 -0.1658 0.8745
vn -0.3615 -0.0014 0.9324
vn -0.3926 -0.0000 0.9197
vn -0.4762 0.0219 0.8790
vn -0.3927 0.0000 0.9197
vn -0.3925 0.0246 0.9194
vn -0.3095 0.0963 0.9460
vn -0.3925 -0.0246 0.9194
vn -0.6326 -0.0735 0.7710
vn -0.5145 0.0209 0.8573
vn -0.5380 0.0000 0.8429
vn -0.5609 -0.0208 0.8276
vn -0.5380 0.0000 -0.8429
vn -0.5609 -0.0208 -0.8276
vn -0.5144 0.0209 -0.8573
vn -0.6326 -0.0735 -0.7710
vn -0.3095 0.0963 -0.9460
vn -0.3926 0.0000 -0.9197
vn -0.3925 -0.0246 -0.9194
vn -0.3925 0.0246 -0.9194
vn -0.4102 -0.0860 -0.9079
vn -0.3137 -0.0009 -0.9495
vn -0.4703 0.0203 -0.8823
vn -0.4620 -0.1652 -0.8714
vn -0.3083 -0.2080 -0.9283
vn -0.3916 -0.1714 -0.9040
vn -0.3353 -0.0994 -0.9368
vn -0.3792 -0.1752 -0.9086
vn -0.3795 -0.1767 -0.9082
vn -0.2321 -0.0000 -0.9727
vn -0.2321 0.0000 0.9727
vn -0.5554 -0.0465 0.8303
vn -0.5677 0.0364 0.8224
vn -0.4628 -0.0092 0.8864
vn -0.6319 -0.1125 0.7669
vn -0.5834 -0.1179 0.8036
vn -0.5494 -0.1534 0.8214
vn -0.5035 -0.1278 0.8545
vn -0.5619 -0.1761 0.8082
vn -0.5570 -0.1547 0.8160
vn 0.0000 0.1964 -0.9805
vn 0.0301 0.1033 -0.9942
vn 0.0940 0.2249 -0.9698
vn -0.0920 0.1956 -0.9764
vn 0.0987 -0.0000 -0.9951
vn 0.0000 -0.0000 -1.0000
vn -0.1032 -0.0208 -0.9944
vn -1.0000 -0.0000 0.0000
vn -0.2464 0.0000 0.9692
vn -0.2270 0.0508 0.9726
vn -0.1968 -0.0196 0.9802
vn -0.3090 -0.0000 0.9511
vn -0.1624 0.2502 0.9545
vn -0.2429 0.1684 0.9553
vn -0.3231 0.2241 0.9195
vn -0.4628 -0.0092 -0.8864
vn -0.5770 0.0482 -0.8153
vn -0.6189 -0.1140 -0.7772
vn -0.5494 -0.1534 -0.8214
vn -0.5834 -0.1179 -0.8036
vn -0.5035 -0.1278 -0.8545
vn -0.5570 -0.1547 -0.8160
vn -0.5619 -0.1761 -0.8082
vn 0.0000 0.1964 0.9805
vn -0.0986 0.1954 0.9757
vn 0.1043 0.2279 0.9681
vn 0.0879 -0.0000 0.9961
vn -0.0967 -0.0195 0.9951
vn 0.0000 -0.0000 1.0000
vn -0.0195 0.0967 0.9951
vn -0.2429 0.1684 -0.9553
vn -0.1624 0.2502 -0.9545
vn -0.3231 0.2241 -0.9195
vn -0.3090 -0.0000 -0.9511
vn -0.1968 -0.0196 -0.9802
vn -0.2464 0.0000 -0.9692
vn -0.2270 0.0508 -0.9726
vn -0.2291 0.1589 -0.9603
vn -0.3198 0.2217 -0.9212
vn -0.2321 -0.0015 -0.9727
vn 0.1588 0.3738 -0.9138
vn -0.0000 0.5579 -0.8299
vn -0.0000 0.3786 -0.9256
vn -0.8218 0.5698 0.0000
vn -0.2291 0.1589 0.9603
vn -0.2321 -0.0015 0.9727
vn -0.3198 0.2217 0.9212
vn -0.0000 0.5579 0.8299
vn 0.1589 0.3738 0.9138
vn -0.0000 0.3786 0.9256
vn -0.8217 0.5698 0.0000
usemtl Tex_0054_0.dds.004
s off
f 1/1/1 3/2/2 2/3/1
f 2/3/3 3/2/3 4/4/4
f 3/2/5 5/5/6 4/4/7
f 4/4/8 5/5/8 6/6/9
f 5/5/8 7/7/10 6/6/11
f 6/6/12 7/7/13 8/8/14
f 7/7/15 9/9/14 8/8/14
f 10/10/16 12/11/17 11/12/16
f 11/12/16 12/11/18 13/13/19
f 12/11/20 14/14/21 13/13/22
f 13/13/23 14/14/21 15/15/24
f 14/14/21 16/16/25 15/15/26
f 15/15/27 16/16/28 17/17/29
f 16/16/30 18/18/31 17/17/32
f 19/19/33 21/20/33 20/21/33
f 20/21/33 21/20/33 22/22/33
f 21/20/33 23/23/33 22/22/33
f 22/22/33 23/23/33 24/24/33
f 23/23/33 25/25/33 24/24/33
f 26/26/34 28/27/34 27/28/34
f 27/28/34 28/27/34 29/29/34
f 28/27/34 30/30/34 29/29/34
f 29/29/34 30/30/34 31/31/34
f 30/30/34 32/32/34 31/31/34
f 33/33/14 35/34/35 34/35/14
f 34/35/14 35/34/36 36/36/37
f 35/34/38 37/37/39 36/36/40
f 36/36/41 37/37/42 38/38/43
f 39/39/44 41/40/45 40/41/44
f 40/41/44 41/40/46 42/42/47
f 41/40/48 43/43/49 42/42/50
f 42/42/49 43/43/49 44/44/49
f 45/45/51 47/46/51 46/47/51
f 46/47/51 47/46/51 48/48/51
f 47/46/51 49/49/51 48/48/51
f 48/48/51 49/49/51 50/50/51
f 51/51/52 53/52/53 52/53/52
f 52/53/52 53/52/54 54/54/55
f 53/52/56 55/55/57 54/54/58
f 56/56/16 58/57/59 57/58/60
f 57/58/61 58/57/62 59/59/63
f 58/57/64 60/60/65 59/59/66
f 61/61/67 63/62/68 62/63/69
f 62/63/70 63/62/71 64/64/72
f 63/62/73 65/65/72 64/64/72
f 66/66/74 68/67/75 67/68/76
f 67/68/77 68/67/78 69/69/79
f 68/67/80 70/70/79 69/69/79
f 71/71/51 73/72/51 72/73/51
f 72/73/51 73/72/51 74/74/51
f 73/72/51 75/75/51 74/74/51
f 76/76/81 78/77/82 77/78/83
f 77/78/84 78/77/85 79/79/86
f 80/80/87 82/81/87 81/82/87
f 81/82/87 82/81/87 83/83/87
f 84/84/51 86/85/51 85/86/51
f 85/86/51 86/85/51 87/87/51
f 88/88/88 90/89/89 89/90/90
f 89/90/91 90/89/92 91/91/93
f 92/92/94 94/93/94 93/94/94
f 93/94/87 94/93/87 95/95/87
f 96/96/51 98/97/51 97/98/51
f 97/98/51 98/97/51 99/99/51
f 100/100/16 102/101/16 101/102/16
f 103/103/67 105/104/67 104/105/67
f 106/106/51 108/107/51 107/108/51
