# Blender v3.6.3 OBJ File: 'untitled.blend'
# www.blender.org
mtllib Mesh_0297.mtl
o Mesh_0297_Mesh.082
v -19.764584 4.034784 -34.104126
v -19.764584 3.260085 -33.590706
v -19.514893 3.260085 -33.590706
v -19.764584 2.274361 -33.295483
v -19.514893 2.274361 -33.295483
v -19.764584 -3.016255 -33.295483
v -19.514893 -3.016255 -33.295486
v -19.386456 5.079994 -38.021950
v -19.386457 5.079994 -38.131805
v -19.386457 -3.217343 -38.131805
v -19.386459 5.079994 -38.241657
v -19.386456 -3.217342 -38.241657
v -19.514893 2.274361 -38.375492
v -19.514893 -3.016253 -38.375492
v -19.764584 4.034784 -39.184124
v -19.764584 3.260085 -38.670715
v -19.514893 3.260085 -38.670715
v -19.764584 2.274361 -38.375492
v -19.514893 2.274361 -38.375492
v -19.764584 -3.016253 -38.375492
v -19.514893 -3.016253 -38.375492
v -19.764584 4.987334 -35.591805
v -19.764584 4.597496 -34.783054
v -19.514893 4.597496 -34.783054
v -19.764584 4.034784 -34.104126
v -19.514893 4.034784 -34.104126
v -19.514893 3.260085 -33.590706
v -19.514893 4.597496 -36.400570
v -19.514893 4.034784 -37.079483
v -19.764584 4.034784 -37.079483
v -19.514893 3.260085 -37.592892
v -19.764584 3.260085 -37.592892
v -19.764584 2.274361 -37.888119
v -19.764584 4.987335 -40.671806
v -19.764580 4.597496 -39.863041
v -19.514893 4.597496 -39.863041
v -19.764584 4.034784 -39.184124
v -19.514896 4.034784 -39.184124
v -19.514893 3.260085 -38.670715
v -19.514893 4.597496 -41.480553
v -19.514893 4.034784 -42.159477
v -19.764584 4.034784 -42.159477
v -19.514893 3.260085 -42.672905
v -19.764584 3.260085 -42.672905
v -19.764584 2.274361 -42.968124
v -19.386457 -3.217343 -33.051804
v -19.386456 5.079994 -33.161667
v -19.386456 -3.217345 -33.161667
v -19.514893 2.274361 -33.295483
v -19.514893 -3.016255 -33.295486
v -19.386457 -3.217343 -38.131805
v -19.386456 -3.217345 -38.021721
v -19.386456 5.079994 -38.021950
v -19.514893 2.274361 -37.888119
v -19.514893 5.079994 -37.888119
v -19.764584 4.034784 -37.079483
v -19.764584 4.597496 -36.400570
v -19.514893 4.597496 -36.400570
v -19.764584 4.987334 -35.591805
v -19.514893 4.987334 -35.591805
v -19.514893 3.260085 -37.592892
v -19.514893 2.274361 -37.888119
v -19.764584 2.274361 -37.888119
v -19.514893 -3.016255 -37.888119
v -19.764584 -3.016255 -37.888119
v -19.764584 4.034784 -42.159477
v -19.764584 4.597496 -41.480553
v -19.514893 4.597496 -41.480553
v -19.764584 4.987335 -40.671806
v -19.514893 4.987335 -40.671806
v -19.514893 3.260085 -42.672905
v -19.514893 2.274361 -42.962112
v -19.764584 2.274361 -42.968124
v -19.514893 -3.016253 -42.962112
v -19.764584 -3.016253 -42.968124
v -19.764584 10.020777 -23.209305
v -19.764584 1.865446 -23.209305
v -19.514893 10.020777 -23.209305
v -19.514893 1.865446 -23.209305
v -19.386459 10.159994 -22.891804
v -19.514893 10.020777 -23.209305
v -19.386459 1.862653 -22.891804
v -19.514893 1.865446 -23.209305
v -19.386459 -0.677347 -27.971806
v -19.514893 -0.317810 -27.657784
v -19.386459 7.619994 -27.971806
v -19.514893 7.782046 -27.657784
v -19.764584 7.782046 -27.657784
v -19.514893 7.782046 -27.657784
v -19.764584 -0.317810 -27.657784
v -19.514893 -0.317810 -27.657784
v -19.764584 7.480777 -28.289307
v -19.764584 -0.674553 -28.289307
v -19.514893 7.480777 -28.289307
v -19.514893 -0.674553 -28.289307
v -19.386459 7.619994 -27.971806
v -19.514893 7.480777 -28.289307
v -19.386459 -0.677347 -27.971806
v -19.514893 -0.674553 -28.289307
v -19.386457 -3.217343 -33.051804
v -19.514893 -2.857820 -32.737793
v -19.386457 5.079994 -33.051804
v -19.514893 5.242046 -32.737789
v -19.764584 5.242046 -32.737797
v -19.514893 5.242046 -32.737789
v -19.764584 -2.857820 -32.737797
v -19.514893 -2.857820 -32.737793
v -19.386456 5.079994 -33.161667
v -19.386457 -3.217343 -33.051804
v -19.386457 5.079994 -33.051804
v -19.764584 4.987334 -35.591805
v -19.514893 4.597496 -34.783054
v -19.514893 4.987334 -35.591805
v -19.386456 5.079994 -33.161667
v -19.514893 5.079994 -33.295483
v -19.514893 2.274361 -33.295483
v -19.514893 -3.016255 -37.888119
v -19.514893 2.274361 -37.888119
v -19.386456 -3.217345 -38.021721
v -19.764584 4.987335 -40.671806
v -19.514893 4.597496 -39.863041
v -19.514893 4.987335 -40.671806
v -19.386459 5.079994 -38.241657
v -19.514893 5.079994 -38.375492
v -19.514893 2.274361 -38.375492
vt -5.995117 1.964844
vt -5.807617 1.643555
vt -5.995117 1.643555
vt -5.995117 1.160156
vt -5.807617 1.164062
vt -5.995117 -1.178711
vt -5.807617 -1.178711
vt -5.357422 2.427734
vt -4.995117 -1.263672
vt -4.995117 2.427734
vt -5.357422 2.427734
vt -5.361328 -1.266602
vt -5.807617 1.167969
vt -5.807617 -1.178711
vt -5.995117 1.964844
vt -5.807617 1.643555
vt -5.995117 1.643555
vt -5.995117 1.160156
vt -5.807617 1.160156
vt -5.995117 -1.178711
vt -5.807617 -1.178711
vt -5.995117 2.801758
vt -5.807617 2.360352
vt -5.995117 2.360352
vt -5.995117 1.964844
vt -5.807617 1.964844
vt -5.807617 1.643555
vt -5.807617 2.360352
vt -5.995117 1.964844
vt -5.807617 1.964844
vt -5.807617 1.643555
vt -5.995117 1.643555
vt -5.995117 1.160156
vt -5.995117 2.801758
vt -5.807617 2.360352
vt -5.995117 2.360352
vt -5.995117 1.964844
vt -5.807617 1.964844
vt -5.807617 1.643555
vt -5.807617 2.360352
vt -5.995117 1.964844
vt -5.807617 1.964844
vt -5.807617 1.643555
vt -5.995117 1.643555
vt -5.995117 1.160156
vt -4.995117 -1.263672
vt -5.361328 -1.266602
vt -5.357422 2.427734
vt -5.807617 1.164062
vt -5.807617 -1.178711
vt -4.995117 -1.263672
vt -5.357422 2.427734
vt -5.361328 -1.266602
vt -5.807617 1.165039
vt -5.807617 2.430664
vt -5.995117 1.964844
vt -5.807617 2.360352
vt -5.995117 2.360352
vt -5.995117 2.801758
vt -5.807617 2.801758
vt -5.807617 1.643555
vt -5.995117 1.160156
vt -5.807617 1.165039
vt -5.807617 -1.178711
vt -5.995117 -1.178711
vt -5.995117 1.964844
vt -5.807617 2.360352
vt -5.995117 2.360352
vt -5.995117 2.801758
vt -5.807617 2.801758
vt -5.807617 1.643555
vt -5.995117 1.160156
vt -5.807617 1.160156
vt -5.807617 -1.178711
vt -5.995117 -1.178711
vt 5.995117 0.373047
vt 6.163086 0.373047
vt 5.995117 -3.266602
vt 6.163086 -3.266602
vt 6.994141 0.435547
vt 6.994141 -3.262695
vt 6.163086 0.373047
vt 6.163086 -3.266602
vt 4.994141 -3.258789
vt 4.994141 0.437500
vt 4.160156 -3.089844
vt 4.160156 0.512695
vt 3.995117 0.512695
vt 3.995117 -3.089844
vt 4.160156 0.512695
vt 4.160156 -3.089844
vt 5.995117 0.373047
vt 6.163086 0.373047
vt 5.995117 -3.266602
vt 6.163086 -3.266602
vt 6.994141 0.435547
vt 6.994141 -3.262695
vt 6.163086 0.373047
vt 6.163086 -3.266602
vt 4.994141 -3.258789
vt 4.994141 0.437500
vt 4.160156 -3.089844
vt 4.160156 0.512695
vt 3.995117 0.512695
vt 3.995117 -3.089844
vt 4.160156 0.512695
vt 4.160156 -3.089844
vt -5.357422 2.427734
vt -4.995117 2.427734
vt -4.995117 -1.263672
vt -5.995117 2.801758
vt -5.807617 2.801758
vt -5.807617 2.360352
vt -5.357422 2.427734
vt -5.807617 1.164062
vt -5.807617 2.430664
vt -5.807617 -1.178711
vt -5.361328 -1.266602
vt -5.807617 1.165039
vt -5.995117 2.801758
vt -5.807617 2.801758
vt -5.807617 2.360352
vt -5.357422 2.427734
vt -5.807617 1.167969
vt -5.807617 2.430664
vn 0.0000 -0.5524 -0.8336
vn -0.0434 -0.5616 -0.8263
vn 0.0000 -0.2869 -0.9580
vn -0.0582 -0.5078 -0.8595
vn -0.0083 -0.2869 -0.9579
vn 0.0000 0.0000 -1.0000
vn -0.0132 -0.2786 -0.9603
vn 1.0000 0.0000 -0.0000
vn 0.9996 0.0285 -0.0004
vn 0.9713 -0.2377 0.0000
vn 0.0706 0.0443 -0.9965
vn 0.2777 -0.0169 -0.9605
vn 0.7215 0.0000 -0.6924
vn 0.3774 -0.3520 -0.8565
vn -0.1545 -0.5799 -0.7999
vn 0.1466 -0.5465 -0.8246
vn 0.1466 -0.2838 -0.9476
vn -0.1294 -0.2543 -0.9584
vn 0.0342 -0.1489 -0.9883
vn -0.0314 -0.4084 -0.9123
vn -0.1450 -0.2839 -0.9478
vn 0.1409 -0.3166 -0.9380
vn 0.1450 0.0000 -0.9894
vn -0.1448 0.0068 -0.9894
vn -0.0068 -0.1448 -0.9894
vn 0.0000 -0.9008 -0.4342
vn -0.1277 -0.9083 -0.3984
vn 0.1211 -0.8942 -0.4310
vn 0.1211 -0.7643 -0.6334
vn -0.1055 -0.7462 -0.6573
vn 0.0362 -0.6815 -0.7309
vn -0.0299 -0.8326 -0.5530
vn -0.1462 -0.7617 -0.6313
vn 0.1278 -0.7862 -0.6046
vn 0.1541 -0.5108 -0.8458
vn -0.1462 -0.5465 -0.8246
vn 0.0000 -0.7699 0.6381
vn 0.1542 -0.7878 0.5963
vn -0.1462 -0.7616 0.6313
vn -0.1462 -0.5465 0.8246
vn 0.1276 -0.5190 0.8452
vn -0.0349 -0.4391 0.8978
vn 0.0343 -0.6539 0.7558
vn 0.1466 -0.5465 0.8246
vn -0.1300 -0.5765 0.8067
vn -0.1542 -0.2474 0.9566
vn 0.1466 -0.2838 0.9476
vn 0.0000 -0.2869 0.9580
vn 0.1212 -0.8942 -0.4310
vn 0.1212 -0.7642 -0.6334
vn -0.1462 -0.7616 -0.6313
vn 0.9713 -0.2377 0.0001
vn 0.7996 0.0080 0.6005
vn 0.6330 0.0080 -0.7741
vn 0.2775 -0.0169 -0.9606
vn 0.3773 -0.3520 -0.8566
vn 0.7215 0.0000 -0.6925
vn 0.7255 0.0091 -0.6882
vn 0.9999 -0.0147 -0.0000
vn 0.0555 -0.0230 0.9982
vn 0.7171 0.0004 0.6970
vn 0.7213 0.0000 0.6926
vn 0.7217 0.0058 0.6922
vn 0.7215 0.0000 0.6924
vn -0.1278 -0.7400 0.6604
vn 0.1212 -0.7642 0.6334
vn 0.1212 -0.8942 0.4310
vn -0.1055 -0.9081 0.4052
vn 0.0000 -0.9008 0.4342
vn -0.0293 -0.8496 0.5266
vn 0.1524 -0.3188 0.9355
vn -0.1450 -0.2839 0.9478
vn -0.1450 0.0000 0.9894
vn 0.1330 0.0063 0.9911
vn 0.0000 0.0000 1.0000
vn 0.0063 -0.1330 0.9911
vn -0.1278 -0.7400 0.6603
vn 0.1211 -0.7643 0.6334
vn 0.1211 -0.8942 0.4310
vn -0.0231 -0.2815 0.9593
vn 0.1270 -0.3140 0.9409
vn -0.1647 -0.2777 0.9465
vn -0.1662 0.0000 0.9861
vn 0.1061 0.0061 0.9943
vn -0.0241 0.0000 0.9997
vn -0.0177 -0.1300 0.9914
vn 0.9270 0.0000 -0.3750
vn 0.9256 0.0000 0.3786
vn 0.7214 0.0000 -0.6925
vn 0.7209 0.0000 0.6930
usemtl Tex_0030_0.dds.007
s off
f 1/1/1 3/2/2 2/3/1
f 2/3/3 3/2/3 4/4/3
f 3/2/4 5/5/5 4/4/3
f 4/4/6 5/5/6 6/6/6
f 5/5/7 7/7/6 6/6/6
f 8/8/8 10/9/8 9/10/8
f 9/10/8 10/9/8 11/11/9
f 10/9/8 12/12/10 11/11/8
f 11/11/11 12/12/12 13/13/13
f 12/12/14 14/14/13 13/13/13
f 15/15/1 17/16/15 16/17/16
f 16/17/17 17/16/18 18/18/19
f 17/16/20 19/19/21 18/18/22
f 18/18/23 19/19/24 20/20/6
f 19/19/25 21/21/6 20/20/6
f 22/22/26 24/23/27 23/24/28
f 23/24/29 24/23/30 25/25/31
f 24/23/32 26/26/33 25/25/34
f 25/25/35 26/26/36 27/27/1
f 28/28/37 30/29/38 29/30/39
f 29/30/40 30/29/41 31/31/42
f 30/29/43 32/32/44 31/31/45
f 31/31/46 32/32/47 33/33/48
f 34/34/26 36/35/27 35/36/49
f 35/36/50 36/35/30 37/37/31
f 36/35/32 38/38/51 37/37/34
f 37/37/35 38/38/36 39/39/1
f 40/40/37 42/41/38 41/42/39
f 41/42/40 42/41/41 43/43/42
f 42/41/43 44/44/44 43/43/45
f 43/43/46 44/44/47 45/45/48
f 46/46/8 48/47/52 47/48/53
f 47/48/54 48/47/55 49/49/13
f 48/47/56 50/50/57 49/49/57
f 51/51/8 53/52/58 52/53/59
f 52/53/60 53/52/61 54/54/62
f 53/52/63 55/55/64 54/54/64
f 56/56/37 58/57/65 57/58/66
f 57/58/67 58/57/68 59/59/69
f 58/57/70 60/60/69 59/59/69
f 61/61/48 63/62/71 62/63/72
f 62/63/73 63/62/74 64/64/75
f 63/62/76 65/65/75 64/64/75
f 66/66/37 68/67/77 67/68/78
f 67/68/79 68/67/68 69/69/69
f 68/67/70 70/70/69 69/69/69
f 71/71/80 73/72/81 72/73/82
f 72/73/83 73/72/84 74/74/85
f 73/72/86 75/75/85 74/74/85
f 76/76/6 78/77/6 77/78/6
f 77/78/6 78/77/6 79/79/6
f 80/80/87 82/81/87 81/82/87
f 81/82/87 82/81/87 83/83/87
f 84/84/88 86/85/88 85/86/88
f 85/86/88 86/85/88 87/87/88
f 88/88/75 90/89/75 89/90/75
f 89/90/75 90/89/75 91/91/75
f 92/92/6 94/93/6 93/94/6
f 93/94/6 94/93/6 95/95/6
f 96/96/87 98/97/87 97/98/87
f 97/98/87 98/97/87 99/99/87
f 100/100/88 102/101/88 101/102/88
f 101/102/88 102/101/88 103/103/88
f 104/104/75 106/105/75 105/106/75
f 105/106/75 106/105/75 107/107/75
f 108/108/8 110/109/8 109/110/8
f 111/111/26 113/112/26 112/113/26
f 114/114/89 116/115/89 115/116/89
f 117/117/90 119/118/90 118/119/90
f 120/120/26 122/121/26 121/122/26
f 123/123/13 125/124/13 124/125/13
