# Blender v3.6.3 OBJ File: 'untitled.blend'
# www.blender.org
mtllib Mesh_0187.mtl
o Mesh_0187_Mesh.155
v -22.047789 24.891987 22.193199
v -22.047789 24.891989 17.113197
v -22.047789 23.367987 22.193192
v -22.047789 23.367989 17.113190
v -22.047789 24.891989 17.113197
v -22.047789 24.891989 12.033203
v -22.047789 23.367989 17.113190
v -22.047535 23.367989 12.033195
v -22.047789 24.891989 -17.176804
v -22.047789 24.891989 -22.256805
v -22.047789 23.367989 -17.176804
v -22.047789 23.367989 -22.256805
v -22.047789 24.891989 -22.256805
v -22.047789 24.891987 -27.336803
v -22.047789 23.367989 -22.256805
v -22.047535 23.367987 -27.336803
vt -0.000977 -0.155273
vt -0.000977 -0.942383
vt 1.997070 -0.155273
vt 1.997070 -0.942383
vt -0.000977 -0.155273
vt -0.000977 -0.942383
vt 1.997070 -0.155273
vt 1.997070 -0.942383
vt -0.000977 -0.155273
vt -0.000977 -0.942383
vt 1.997070 -0.155273
vt 1.997070 -0.942383
vt -0.000977 -0.155273
vt -0.000977 -0.942383
vt 1.997070 -0.155273
vt 1.997070 -0.942383
vn 1.0000 0.0000 0.0000
vn 1.0000 0.0002 0.0000
usemtl Tex_0052_0.dds.013
s off
f 1/1/1 3/2/1 2/3/1
f 2/3/1 3/2/1 4/4/1
f 5/5/1 7/6/1 6/7/1
f 6/7/2 7/6/2 8/8/2
f 9/9/1 11/10/1 10/11/1
f 10/11/1 11/10/1 12/12/1
f 13/13/1 15/14/1 14/15/1
f 14/15/2 15/14/2 16/16/2
