# Blender v3.6.3 OBJ File: 'untitled.blend'
# www.blender.org
mtllib Mesh_0157.mtl
o Mesh_0157_Mesh.025
v -6.810509 10.481274 5.154190
v -6.807714 10.667990 5.872467
v -6.700857 10.600171 5.192131
v -6.807714 10.891713 6.318192
v -6.694988 11.183533 6.318192
v -6.807714 12.191990 8.994415
v -6.553715 12.445991 8.942368
v -6.553751 12.445978 10.128189
v -7.064587 12.699990 10.128189
v -7.064587 12.699990 -15.271805
v -6.553751 12.445978 -15.271801
v -6.553715 12.445991 -14.085976
v -6.807714 12.191990 -14.138020
v -6.694988 11.183533 -11.461807
v -6.807714 10.891713 -11.461807
v -6.700857 10.600172 -10.335747
v -6.807714 10.667991 -11.016083
v -6.810509 10.481275 -10.297802
v -6.730421 10.159990 4.906288
v -6.721304 10.346909 5.188705
v -6.556229 10.360143 4.799759
v -6.724123 10.413989 5.200012
v -6.810509 10.481274 5.154190
v -6.534285 10.413989 6.318192
v -6.807714 10.667990 5.872467
v -6.807714 10.667990 6.318192
v -4.389736 8.415035 -8.161358
v -4.385672 8.727050 -8.162628
v -5.525116 9.103452 -8.710098
v -5.527657 9.411148 -8.713676
v -6.236546 9.698930 -9.383347
v -6.253054 9.999360 -9.378521
v -6.730421 10.159990 -10.049900
v -6.556229 10.360143 -9.943371
v -6.392223 10.159990 -9.264378
v -6.253054 9.999360 -9.378521
v -5.665096 9.547494 -8.501408
v -5.527657 9.411148 -8.713676
v -4.469822 8.831901 -7.916069
v -4.385672 8.727050 -8.162628
v -3.280367 8.218110 -7.778248
v -3.270006 8.126009 -8.032173
v -4.385672 8.727050 3.019012
v -5.525116 9.103452 3.566483
v -5.527657 9.411148 3.570061
v -6.236546 9.698930 4.239738
v -6.253054 9.999360 4.234909
v -6.730421 10.159990 4.906288
v -6.556229 10.360143 4.799759
v -6.253054 9.999360 4.234909
v -5.665096 9.550250 3.357796
v -5.527657 9.411148 3.570061
v -4.469822 8.831900 2.772453
v -4.385672 8.727050 3.019012
v -3.280367 8.218110 2.634636
v -3.270006 8.126009 2.888557
v -7.064587 12.699990 10.128189
v -7.064585 12.699990 8.858192
v -6.553715 12.445991 8.942368
v -7.064585 11.429989 6.318192
v -6.694988 11.183533 6.318192
v -6.839619 10.794977 5.143883
v -6.700857 10.600171 5.192131
v -6.429585 10.413990 -21.621815
v -6.679522 10.159990 -21.621815
v -6.429585 10.413990 -15.271805
v -6.681236 10.159990 -15.274471
v -6.534285 10.413989 -11.461807
v -6.686460 10.159989 -12.733543
v -6.686455 10.159989 -11.461807
v -6.556229 10.360143 -9.943371
v -6.810509 10.481275 -10.297802
v -6.724123 10.413990 -10.343624
v -6.534285 10.413989 -11.461807
v -6.721304 10.346910 -10.332321
v -6.686455 10.159989 -11.461807
v -6.686455 10.159990 -10.539810
v -6.700857 10.600172 -10.335747
v -6.839619 10.794978 -10.287495
v -6.694988 11.183533 -11.461807
v -7.064585 11.429990 -11.461807
v -6.553715 12.445991 -14.085976
v -7.064585 12.699990 -14.001804
v -7.064587 12.699990 -15.271805
v -4.389736 8.415035 3.017738
v -4.385672 8.727050 3.019012
v -3.530809 7.982371 2.915657
v -3.270006 8.126009 2.888557
v -3.266727 7.818719 2.885719
v -3.013538 7.690399 2.901985
v -6.686455 10.159989 5.396194
v -6.917850 10.159989 5.304680
v -6.686455 10.159989 6.318192
v -7.064585 10.159990 10.124619
v -6.686460 10.159989 7.589928
v -6.681236 10.159990 10.130859
v -4.389736 8.415035 -8.161358
v -5.525116 9.103452 -8.710098
v -5.665096 9.104087 -8.501408
v -6.236546 9.698930 -9.383347
v -6.393898 9.694993 -9.259857
v -6.924122 10.159990 -9.952564
v 6.545954 2.879207 -9.092064
v 6.795481 3.085861 -9.147888
v 2.019775 5.138104 -8.398514
v 1.767881 5.625861 -8.363384
v 1.763542 5.269525 -8.361507
v 1.507328 5.404297 -8.336029
v 1.787188 5.714990 -8.111141
v 1.767881 5.625861 -8.363384
v 3.048704 5.079990 -8.258305
v 6.795481 3.085861 -9.147888
v 4.311819 4.444990 -8.431911
v 5.575750 3.809990 -8.640476
v -3.280367 8.218110 -7.778248
v -3.270006 8.126009 -8.032173
v -2.010851 7.588621 -7.839764
v 1.767881 5.625861 -8.363384
v -0.742680 6.972188 -7.910603
v 0.523182 6.349990 -7.997757
v 8.077600 2.061891 -9.423889
v 8.077600 2.445720 -9.423889
v 7.050318 2.612100 -9.194370
v 6.795481 3.085861 -9.147888
v 6.795889 2.746289 -9.147354
v 6.545954 2.879207 -9.092064
v 6.840036 3.174990 -8.894630
v 6.795481 3.085861 -9.147888
v 8.104013 2.539990 -9.161201
v 8.077600 2.445720 -9.423889
v 9.080698 2.063740 -9.407459
v 9.014830 2.063740 -9.642456
v -6.393898 9.694993 4.116241
v -6.236546 9.698930 4.239738
v -5.665096 9.104087 3.357796
v -5.525116 9.103452 3.566483
v -4.389736 8.415035 3.017738
v 6.795481 3.085861 4.004280
v 2.019775 5.138105 3.254898
v 1.767881 5.625862 3.219772
v 1.763542 5.269525 3.217896
v 1.507328 5.404297 3.192421
v 1.767881 5.625862 3.219772
v 3.048704 5.079990 3.114693
v 6.795481 3.085861 4.004280
v 4.311819 4.444990 3.288300
v 5.575750 3.809990 3.496872
v -3.270006 8.126009 2.888557
v -2.010851 7.588621 2.696152
v 1.767881 5.625862 3.219772
v -0.742680 6.972188 2.766998
v 0.523182 6.349989 2.854141
v 6.795889 2.746289 4.003746
v 6.795481 3.085861 4.004280
v 7.050318 2.612101 4.050758
v 8.077600 2.445720 4.280281
v 8.077600 2.061891 4.280281
v 6.795481 3.085861 4.004280
v 8.104013 2.539990 4.017593
v 8.077600 2.445720 4.280281
v 9.080698 2.063740 4.263840
v 9.014830 2.063740 4.498848
v -6.686455 10.159989 5.396194
v -6.686455 10.159989 6.318192
v -6.721304 10.346909 5.188705
v -6.534285 10.413989 6.318192
v -6.724123 10.413989 5.200012
v -6.700857 10.600171 5.192131
v -6.839619 10.794977 5.143883
v -6.556229 10.360143 4.799759
v -6.392223 10.159990 4.120758
v -6.253054 9.999360 4.234909
v -6.686455 10.159989 6.318192
v -6.686460 10.159989 7.589928
v -6.534285 10.413989 6.318192
v -6.681236 10.159990 10.130859
v -6.429585 10.413990 10.128189
v -7.064585 12.699990 22.828194
v -7.064585 12.699990 16.478188
v -6.553789 12.445965 22.828186
v -6.553789 12.445966 16.478188
v -6.807789 12.191990 16.478188
v -6.807789 10.667991 16.478188
v -6.429585 10.413990 16.478188
v -6.429585 10.413990 22.828186
v -6.679522 10.159990 16.478188
v -6.679522 10.159990 22.824638
v -7.064585 12.699990 16.478188
v -7.064587 12.699990 10.128189
v -6.553789 12.445966 16.478188
v -6.553751 12.445978 10.128189
v -6.807751 12.191990 10.128189
v -6.807751 10.667991 10.128189
v -6.429585 10.413990 10.128189
v -6.429585 10.413990 16.478188
v -6.681236 10.159990 10.130859
v -6.679522 10.159990 16.478188
v -7.064587 12.699990 -15.271805
v -7.064585 12.699990 -21.621815
v -6.553751 12.445978 -15.271801
v -6.553789 12.445966 -21.621811
v -6.807789 12.191990 -21.621811
v -7.064585 12.699990 -21.621815
v -7.064585 12.699990 -27.971809
v -6.553789 12.445966 -21.621811
v -6.553789 12.445966 -27.971809
v -6.807789 12.191991 -27.971809
v -6.807789 10.667991 -27.971813
v -6.429585 10.413990 -27.971813
v -6.429585 10.413990 -21.621815
v -6.679522 10.159990 -27.968254
v -6.679522 10.159990 -21.621815
v -3.266727 7.818719 -8.029324
v -3.270006 8.126009 -8.032173
v -3.530809 7.982371 -8.059273
v -4.385672 8.727050 -8.162628
v -4.389736 8.415035 -8.161358
v -6.253054 9.999360 -9.378521
v -6.392223 10.159990 -9.264378
v -6.556229 10.360143 -9.943371
v -6.839619 10.794978 -10.287495
v -6.700857 10.600172 -10.335747
v -6.917850 10.159990 -10.448296
v -6.686455 10.159989 -11.461807
v -7.064585 10.159990 -15.268223
v -6.686460 10.159989 -12.733543
v -6.681236 10.159990 -15.274471
v -3.014833 7.685141 2.653763
v -3.013538 7.690399 2.901985
v 1.532047 5.395153 2.943954
v 1.507328 5.404297 3.192421
v -3.530809 7.982371 2.915657
v -3.546583 7.955396 2.666252
v -4.389736 8.415035 3.017738
v -4.464565 8.429210 2.776039
v -3.270006 8.126009 2.888557
v 1.767881 5.625862 3.219772
v -3.013538 7.690399 2.901985
v 1.507328 5.404297 3.192421
v 2.044491 5.136149 2.995872
v 2.019775 5.138105 3.254898
v 6.597464 2.878216 3.704132
v 6.545954 2.879207 3.948456
v 7.050318 2.612101 4.050758
v 8.077600 2.061891 4.280281
v 7.101274 2.606766 3.806053
v 8.104013 2.061891 4.017586
v -6.393898 9.694993 4.116241
v -6.924122 10.159990 4.808952
v -6.236546 9.698930 4.239738
v -6.730421 10.159990 4.906288
v -6.807751 10.667991 10.128189
v -6.807714 10.667990 6.318192
v -6.429585 10.413990 10.128189
v -6.534285 10.413989 6.318192
v 9.014830 2.063740 4.498848
v 9.080698 2.063740 4.263840
v 9.909296 1.587490 4.836761
v 10.006071 1.587490 4.495583
v -6.679522 10.159990 22.824638
v -6.679522 10.159990 16.478188
v -7.064585 10.159990 22.824638
v -7.064585 10.159990 16.474640
v -6.679522 10.159990 16.478188
v -6.681236 10.159990 10.130859
v -7.064585 10.159990 16.474640
v -7.064585 10.159990 10.124619
v -6.429585 10.413990 -21.621815
v -6.429585 10.413990 -15.271805
v -6.807789 10.667991 -21.621815
v -6.807751 10.667991 -15.271805
v -6.681236 10.159990 -15.274471
v -6.679522 10.159990 -21.621815
v -7.064585 10.159990 -15.275364
v -7.064585 10.159990 -21.625366
v -6.679522 10.159990 -21.621815
v -6.679522 10.159990 -27.968254
v -7.064585 10.159990 -21.625366
v -7.064585 10.159990 -27.975368
v -3.014833 7.685141 -7.797371
v 1.532047 5.395153 -8.087566
v -3.013538 7.690399 -8.045605
v 1.507328 5.404297 -8.336029
v -3.530809 7.982371 -8.059273
v -4.389736 8.415035 -8.161358
v -3.546583 7.955396 -7.809868
v -4.464565 8.429210 -7.919647
v -3.270006 8.126009 -8.032173
v -3.013538 7.690399 -8.045605
v 1.767881 5.625861 -8.363384
v 1.507328 5.404297 -8.336029
v 2.044491 5.136149 -8.139484
v 6.597464 2.878217 -8.847740
v 2.019775 5.138104 -8.398514
v 6.545954 2.879207 -9.092064
v 7.050318 2.612100 -9.194370
v 7.101274 2.606766 -8.949665
v 8.077600 2.061891 -9.423889
v 8.104013 2.061891 -9.161201
v -6.730421 10.159990 -10.049900
v -6.556229 10.360143 -9.943371
v -6.721304 10.346910 -10.332321
v -6.724123 10.413990 -10.343624
v -6.807714 10.667990 -11.461807
v -6.534285 10.413989 -11.461807
v -6.807714 10.667991 -11.016083
v -6.810509 10.481275 -10.297802
v -6.807751 10.667991 -15.271805
v -6.429585 10.413990 -15.271805
v -6.807714 10.667990 -11.461807
v -6.534285 10.413989 -11.461807
v 9.014830 2.063740 -9.642456
v 9.909296 1.587490 -9.980377
v 9.080698 2.063740 -9.407459
v 10.006071 1.587490 -9.639202
v -5.665096 9.104087 3.357796
v -4.389736 8.415035 3.017738
v -4.464565 8.429210 2.776039
v -4.389736 8.415035 3.017738
v -5.525116 9.103452 3.566483
v -4.385672 8.727050 3.019012
v -5.665096 9.550250 3.357796
v -6.253054 9.999360 4.234909
v -6.392223 10.159990 4.120758
v 2.019775 5.138105 3.254898
v 6.795481 3.085861 4.004280
v 6.545954 2.879207 3.948456
v 3.048704 5.079990 3.114693
v 1.767881 5.625862 3.219772
v 1.787188 5.714990 2.967529
v 6.840036 3.174990 3.751022
v 6.795481 3.085861 4.004280
v 5.575750 3.809990 3.496872
v -2.010851 7.588621 2.696152
v -3.270006 8.126009 2.888557
v -3.280367 8.218110 2.634636
v 1.787188 5.714990 2.967529
v 1.767881 5.625862 3.219772
v 0.523182 6.349989 2.854141
v 6.795481 3.085861 4.004280
v 6.840036 3.174990 3.751022
v 8.104013 2.539990 4.017593
v 6.545954 2.879207 3.948456
v 6.795481 3.085861 4.004280
v 6.795889 2.746289 4.003746
v -6.810509 10.481274 5.154190
v -6.700857 10.600171 5.192131
v -6.556229 10.360143 4.799759
v -6.807751 12.191990 10.128189
v -6.553751 12.445978 10.128189
v -6.807714 12.191990 8.994415
v 9.014830 2.063740 4.498848
v 8.077600 2.061891 4.280281
v 8.077600 2.445720 4.280281
v -6.807789 12.191990 16.478188
v -6.807789 12.191990 22.828186
v -6.553789 12.445965 22.828186
v -6.429585 10.413990 22.828186
v -6.807789 10.667990 22.828186
v -6.807789 10.667991 16.478188
v -6.807751 12.191990 10.128189
v -6.807789 12.191990 16.478188
v -6.553789 12.445966 16.478188
v -6.429585 10.413990 16.478188
v -6.807789 10.667991 16.478188
v -6.807751 10.667991 10.128189
v -6.807789 12.191990 -21.621811
v -6.807751 12.191990 -15.271801
v -6.553751 12.445978 -15.271801
v -6.807789 12.191991 -27.971809
v -6.807789 12.191990 -21.621811
v -6.553789 12.445966 -21.621811
v -6.429585 10.413990 -21.621815
v -6.807789 10.667991 -21.621815
v -6.807789 10.667991 -27.971813
v -4.389736 8.415035 -8.161358
v -5.665096 9.104087 -8.501408
v -4.464565 8.429210 -7.919647
v -3.013538 7.690399 -8.045605
v -3.270006 8.126009 -8.032173
v -3.266727 7.818719 -8.029324
v 6.795481 3.085861 -9.147888
v 6.840036 3.174990 -8.894630
v 5.575750 3.809990 -8.640476
v 1.767881 5.625861 -8.363384
v 1.787188 5.714990 -8.111141
v 0.523182 6.349990 -7.997757
v -6.700857 10.600172 -10.335747
v -6.810509 10.481275 -10.297802
v -6.556229 10.360143 -9.943371
v -6.553751 12.445978 -15.271801
v -6.807751 12.191990 -15.271801
v -6.807714 12.191990 -14.138020
v -6.686455 10.159989 -11.461807
v -6.917850 10.159990 -10.448296
v -6.686455 10.159990 -10.539810
v -6.236546 9.698930 -9.383347
v -6.730421 10.159990 -10.049900
v -6.924122 10.159990 -9.952564
v 8.077600 2.061891 -9.423889
v 9.014830 2.063740 -9.642456
v 8.077600 2.445720 -9.423889
vt -0.310547 0.878906
vt -0.335938 0.909180
vt -0.541992 0.822266
vt -0.703125 0.822266
vt -0.733398 0.912109
vt -1.638672 0.822266
vt -1.622070 0.918945
vt -1.996094 0.918945
vt -1.996094 1.032227
vt -1.996094 1.032227
vt -1.622070 0.918945
vt -1.996094 0.918945
vt -1.638672 0.822266
vt -0.733398 0.912109
vt -0.703125 0.822266
vt -0.335938 0.909180
vt -0.541992 0.822266
vt -0.310547 0.878906
vt -0.342773 -0.184570
vt -0.397461 -0.071289
vt -0.509766 -0.101562
vt -0.524414 -0.071289
vt -0.486328 -0.021484
vt -0.866211 -0.071289
vt -0.658203 0.074219
vt -0.803711 0.074219
vt -0.821289 -0.184570
vt -1.348633 -0.184570
vt -0.866211 -0.071289
vt -1.442383 -0.071289
vt -1.717773 -0.184570
vt -1.790039 -0.071289
vt -1.996094 -0.184570
vt -1.996094 -0.071289
vt 2.749023 1.033203
vt 2.999023 1.033203
vt 2.749023 0.908203
vt 2.999023 0.908203
vt 3.248047 1.033203
vt 3.248047 0.908203
vt 3.498047 1.033203
vt 3.498047 0.908203
vt -0.866211 -0.071289
vt -1.442383 -0.071289
vt -1.348633 -0.184570
vt -1.717773 -0.184570
vt -1.790039 -0.071289
vt -1.996094 -0.184570
vt -1.996094 -0.071289
vt 2.749023 0.908203
vt 2.999023 0.908203
vt 2.999023 1.033203
vt 3.248047 1.033203
vt 3.248047 0.908203
vt 3.498047 1.033203
vt 3.498047 0.908203
vt -1.996094 1.032227
vt -1.622070 0.918945
vt -1.593750 1.032227
vt -0.735352 1.032227
vt -0.733398 0.912109
vt -0.313477 1.032227
vt -0.335938 0.909180
vt 0.001953 -0.071289
vt -1.996094 -0.071289
vt 0.001953 -0.184570
vt -1.996094 -0.184570
vt -0.866211 -0.071289
vt -1.219727 -0.184570
vt -0.821289 -0.184570
vt -0.397461 -0.071289
vt -0.524414 -0.071289
vt -0.486328 -0.021484
vt -0.866211 -0.071289
vt -0.509766 -0.101562
vt -0.821289 -0.184570
vt -0.515625 -0.184570
vt -0.335938 0.909180
vt -0.733398 0.912109
vt -0.313477 1.032227
vt -0.735352 1.032227
vt -1.622070 0.918945
vt -1.593750 1.032227
vt -1.996094 1.032227
vt -1.717773 -0.184570
vt -1.435547 -0.184570
vt -1.790039 -0.071289
vt -1.442383 -0.071289
vt -1.348633 -0.184570
vt -1.348633 -0.184570
vt 3.770508 -0.086914
vt 3.617188 -0.086914
vt 3.774414 -0.135742
vt 3.030273 -0.137695
vt 3.417969 -0.087891
vt 3.030273 -0.087891
vt 3.617188 -0.086914
vt 3.382812 -0.136719
vt 3.354492 -0.087891
vt 3.169922 -0.087891
vt 3.182617 -0.136719
vt 3.030273 -0.137695
vt -0.263672 -1.026367
vt -1.660156 -1.026367
vt -0.211914 -0.915039
vt -1.746094 -0.915039
vt -1.746094 -1.026367
vt -1.840820 -1.026367
vt 0.251953 -0.965820
vt 0.751953 -0.965820
vt 0.251953 -1.083984
vt 2.249023 -1.083984
vt 1.250977 -0.965820
vt 1.750977 -0.965820
vt 2.249023 -1.971680
vt 2.749023 -1.971680
vt 2.249023 -2.081055
vt 4.247070 -2.081055
vt 3.248047 -1.971680
vt 3.748047 -1.971680
vt -0.821289 -0.184570
vt -1.250977 -0.184570
vt -0.866211 -0.071289
vt -1.442383 -0.071289
vt -1.348633 -0.184570
vt -1.431641 -0.184570
vt 0.751953 1.036133
vt 1.250977 1.036133
vt 0.751953 0.908203
vt 1.250977 0.908203
vt 1.750977 1.036133
vt 1.750977 0.908203
vt 3.182617 -0.136719
vt 3.382812 -0.136719
vt 3.169922 -0.087891
vt 3.354492 -0.087891
vt 3.617188 -0.086914
vt -0.211914 -0.915039
vt -1.746094 -0.915039
vt -1.660156 -1.026367
vt -1.746094 -1.026367
vt -1.840820 -1.026367
vt 0.251953 -1.083984
vt 2.249023 -1.083984
vt 0.751953 -0.965820
vt 1.250977 -0.965820
vt 1.750977 -0.965820
vt 2.249023 -2.081055
vt 4.247070 -2.081055
vt 2.749023 -1.971680
vt 3.248047 -1.971680
vt 3.748047 -1.971680
vt -1.348633 -0.184570
vt -1.250977 -0.184570
vt -1.442383 -0.071289
vt -0.866211 -0.071289
vt -0.821289 -0.184570
vt 0.751953 0.908203
vt 1.250977 0.908203
vt 1.250977 1.036133
vt 1.750977 1.036133
vt 1.750977 0.908203
vt -0.515625 -0.184570
vt -0.509766 -0.101562
vt -0.821289 -0.184570
vt -0.866211 -0.071289
vt -0.524414 -0.071289
vt 2.000000 0.908203
vt 2.249023 0.908203
vt 2.000000 1.034180
vt 2.499023 1.034180
vt 2.499023 0.908203
vt -0.821289 -0.184570
vt -0.866211 -0.071289
vt -1.219727 -0.184570
vt -1.996094 -0.184570
vt -1.996094 -0.071289
vt -1.914062 1.032227
vt -1.915039 0.918945
vt 0.084961 1.032227
vt 0.083008 0.918945
vt 0.083008 0.822266
vt 0.001953 0.054688
vt -1.996094 -0.071289
vt 0.001953 -0.071289
vt 0.001953 -0.184570
vt -1.996094 -0.184570
vt -1.914062 1.032227
vt -1.915039 0.918945
vt 0.084961 1.032227
vt 0.083008 0.918945
vt 0.083008 0.822266
vt 0.001953 0.054688
vt -1.996094 -0.071289
vt 0.001953 -0.071289
vt 0.001953 -0.184570
vt -1.996094 -0.184570
vt -1.914062 1.032227
vt -1.915039 0.918945
vt 0.084961 1.032227
vt 0.083008 0.918945
vt 0.083008 0.822266
vt -1.914062 1.032227
vt -1.915039 0.918945
vt 0.084961 1.032227
vt 0.083008 0.918945
vt 0.083008 0.822266
vt 0.001953 0.054688
vt -1.996094 -0.071289
vt 0.001953 -0.071289
vt 0.001953 -0.184570
vt -1.996094 -0.184570
vt -1.348633 -0.184570
vt -1.435547 -0.184570
vt -1.442383 -0.071289
vt -1.790039 -0.071289
vt -1.717773 -0.184570
vt 2.499023 0.908203
vt 2.249023 0.908203
vt 2.499023 1.034180
vt 2.000000 1.034180
vt 2.000000 0.908203
vt 3.774414 -0.135742
vt 3.030273 -0.137695
vt 3.617188 -0.086914
vt 3.417969 -0.087891
vt 3.030273 -0.087891
vt 1.250977 1.861328
vt 2.499023 1.861328
vt 1.250977 1.910156
vt 2.499023 1.910156
vt 3.310547 -0.087891
vt 3.169922 -0.087891
vt 3.337891 -0.136719
vt 3.182617 -0.136719
vt -3.376953 -0.915039
vt -3.278320 -1.026367
vt -1.746094 -0.915039
vt -1.840820 -1.026367
vt 3.380859 -0.136719
vt 3.344727 -0.136719
vt 3.351562 -0.087891
vt 3.312500 -0.087891
vt 3.402344 -0.087891
vt 3.430664 -0.136719
vt 3.617188 -0.086914
vt 3.616211 -0.135742
vt 3.182617 -0.136719
vt 3.169922 -0.087891
vt 3.030273 -0.137695
vt 3.030273 -0.087891
vt 0.501953 0.056641
vt 0.501953 -0.085938
vt 1.500977 0.078125
vt 1.500977 -0.085938
vt 2.442383 0.909180
vt 2.910156 0.909180
vt 2.442383 1.031250
vt 2.910156 1.031250
vt 3.030273 -0.087891
vt 3.030273 -0.137695
vt 4.029297 -0.085938
vt 4.029297 -0.135742
vt 3.030273 -0.087891
vt 3.030273 -0.137695
vt 4.029297 -0.085938
vt 4.029297 -0.135742
vt 0.001953 -0.071289
vt 0.001953 0.054688
vt -1.996094 -0.071289
vt -1.996094 0.054688
vt 3.030273 -0.087891
vt 3.030273 -0.137695
vt 4.029297 -0.085938
vt 4.029297 -0.135742
vt 3.030273 -0.087891
vt 3.030273 -0.137695
vt 4.029297 -0.085938
vt 4.029297 -0.135742
vt 1.250977 1.861328
vt 1.250977 1.910156
vt 2.499023 1.861328
vt 2.499023 1.910156
vt 3.310547 -0.087891
vt 3.337891 -0.136719
vt 3.169922 -0.087891
vt 3.182617 -0.136719
vt -3.376953 -0.915039
vt -1.746094 -0.915039
vt -3.278320 -1.026367
vt -1.840820 -1.026367
vt 3.380859 -0.136719
vt 3.351562 -0.087891
vt 3.344727 -0.136719
vt 3.312500 -0.087891
vt 3.402344 -0.087891
vt 3.617188 -0.086914
vt 3.430664 -0.136719
vt 3.616211 -0.135742
vt -0.342773 -0.184570
vt -0.509766 -0.101562
vt -0.397461 -0.071289
vt -0.524414 -0.071289
vt -0.803711 0.074219
vt -0.658203 0.074219
vt -0.866211 -0.071289
vt -0.486328 -0.021484
vt 0.501953 0.056641
vt 1.500977 0.078125
vt 0.501953 -0.085938
vt 1.500977 -0.085938
vt 2.442383 0.909180
vt 2.442383 1.031250
vt 2.910156 0.909180
vt 2.910156 1.031250
vt 3.382812 -0.136719
vt 3.616211 -0.135742
vt 3.617188 -0.086914
vt -0.821289 -0.184570
vt -0.866211 -0.071289
vt -1.348633 -0.184570
vt 2.999023 1.033203
vt 2.749023 1.033203
vt 2.749023 0.908203
vt -1.660156 -1.026367
vt -0.263672 -1.026367
vt -0.211914 -0.915039
vt 0.751953 -0.965820
vt 0.251953 -0.965820
vt 0.251953 -1.083984
vt 2.249023 -0.965820
vt 1.750977 -0.965820
vt 2.249023 -1.083984
vt 2.749023 -1.971680
vt 2.249023 -1.971680
vt 2.249023 -2.081055
vt 4.247070 -1.971680
vt 3.748047 -1.971680
vt 4.247070 -2.081055
vt 0.751953 0.908203
vt 1.250977 1.036133
vt 0.751953 1.036133
vt -1.431641 -0.184570
vt -1.348633 -0.184570
vt -1.442383 -0.071289
vt -0.310547 0.878906
vt -0.191406 0.908203
vt -0.335938 0.909180
vt -1.996094 0.822266
vt -1.638672 0.822266
vt -1.996094 0.918945
vt -1.576172 -0.071289
vt -1.790039 -0.071289
vt -1.717773 -0.184570
vt 0.083008 0.822266
vt -1.915039 0.918945
vt -1.915039 0.822266
vt -1.996094 -0.071289
vt 0.001953 0.054688
vt -1.996094 0.054688
vt 0.083008 0.822266
vt -1.915039 0.918945
vt -1.915039 0.822266
vt -1.996094 -0.071289
vt 0.001953 0.054688
vt -1.996094 0.054688
vt 0.083008 0.822266
vt -1.915039 0.918945
vt -1.915039 0.822266
vt 0.083008 0.822266
vt -1.915039 0.918945
vt -1.915039 0.822266
vt -1.996094 -0.071289
vt 0.001953 0.054688
vt -1.996094 0.054688
vt 3.617188 -0.086914
vt 3.616211 -0.135742
vt 3.382812 -0.136719
vt -1.348633 -0.184570
vt -1.348633 -0.184570
vt -1.442383 -0.071289
vt 2.249023 -1.083984
vt 1.750977 -0.965820
vt 2.249023 -0.965820
vt 4.247070 -2.081055
vt 3.748047 -1.971680
vt 4.247070 -1.971680
vt -0.335938 0.909180
vt -0.191406 0.908203
vt -0.310547 0.878906
vt -1.996094 0.918945
vt -1.638672 0.822266
vt -1.996094 0.822266
vt 3.617188 -0.086914
vt 3.770508 -0.086914
vt 3.774414 -0.135742
vt 3.169922 -0.087891
vt 3.030273 -0.137695
vt 3.030273 -0.087891
vt -1.717773 -0.184570
vt -1.790039 -0.071289
vt -1.576172 -0.071289
vn 0.6942 -0.6972 0.1785
vn 0.7076 -0.6943 0.1313
vn 0.9164 -0.3578 0.1796
vn 0.9151 -0.3604 0.1809
vn 0.9968 -0.0730 -0.0327
vn 0.9214 -0.3615 0.1427
vn 0.9178 -0.3545 0.1789
vn 0.9188 -0.3549 0.1725
vn 0.9910 -0.0973 -0.0914
vn 0.4309 -0.8197 0.3774
vn 0.6226 -0.6402 0.4500
vn 0.7912 -0.5651 0.2336
vn 0.8053 -0.5919 -0.0354
vn 0.5717 -0.8051 -0.1580
vn -0.7595 -0.5775 0.2994
vn -0.9075 0.2958 -0.2982
vn 0.4452 0.8954 0.0000
vn 0.4368 0.8785 0.1937
vn -0.9075 0.2958 0.2982
vn 0.4368 0.8785 -0.1937
vn -0.7595 -0.5775 -0.2994
vn 0.5717 -0.8051 0.1580
vn 0.8053 -0.5919 0.0354
vn 0.6226 -0.6402 -0.4500
vn 0.4094 -0.8297 -0.3796
vn 0.7912 -0.5651 -0.2336
vn 0.9910 -0.0973 0.0914
vn 0.9154 -0.3560 -0.1877
vn 0.9205 -0.3516 -0.1705
vn 0.9178 -0.3606 -0.1662
vn 0.9954 -0.0947 0.0167
vn 0.9186 -0.3524 -0.1787
vn 0.9148 -0.3620 -0.1791
vn 0.9934 -0.0448 -0.1058
vn 0.9040 -0.3821 -0.1918
vn 0.7141 -0.6921 -0.1052
vn 0.6942 -0.6972 -0.1785
vn 0.3790 -0.8960 -0.2314
vn 0.7925 -0.5201 0.3186
vn 0.7920 -0.6075 0.0598
vn 0.9205 -0.0270 0.3898
vn 0.4150 -0.2519 0.8743
vn -0.3374 0.7366 -0.5862
vn 0.6652 0.7206 0.1956
vn 0.3653 0.8826 0.2960
vn 0.4859 0.8113 -0.3253
vn 0.7276 0.6779 -0.1051
vn 0.5875 0.8087 -0.0290
vn 0.9247 0.3807 0.0056
vn 0.7602 0.6281 -0.1662
vn 0.8729 0.4503 -0.1878
vn 0.6733 0.7344 0.0856
vn 0.5328 0.8463 -0.0000
vn 0.6806 0.7327 0.0000
vn 0.4306 -0.0093 -0.9025
vn 0.4904 -0.0836 -0.8675
vn 0.4321 -0.0051 -0.9018
vn 0.4551 0.0897 -0.8859
vn 0.3293 -0.1869 -0.9255
vn 0.7501 0.1748 -0.6378
vn 0.6937 -0.0932 -0.7142
vn 0.6643 -0.1015 -0.7405
vn 0.6558 0.1690 -0.7357
vn 0.7026 0.1095 -0.7031
vn 0.6758 -0.0748 -0.7333
vn 0.8461 0.1650 -0.5068
vn 0.8538 0.3081 -0.4196
vn 0.7894 -0.0072 -0.6139
vn 0.4917 -0.5370 -0.6855
vn 0.7580 -0.3761 -0.5328
vn 0.7342 -0.3203 -0.5987
vn 0.7083 0.6962 -0.1161
vn 0.7010 0.6746 -0.2314
vn 0.7131 0.6930 -0.1058
vn 0.6227 0.7823 0.0127
vn 0.6902 0.7163 -0.1020
vn 0.6211 0.7836 0.0152
vn 0.5866 0.7755 -0.2333
vn 0.5253 0.8307 -0.1845
vn 0.5361 0.8379 -0.1022
vn 0.6136 0.7782 -0.1338
vn 0.5798 0.7911 -0.1949
vn 0.5455 0.8325 -0.0968
vn 0.4662 0.8421 -0.2710
vn 0.4675 0.8597 -0.2060
vn 0.4572 0.8758 -0.1550
vn 0.4804 0.8306 -0.2817
vn 0.4312 -0.0069 0.9022
vn 0.3294 -0.1869 0.9255
vn 0.4568 0.0968 0.8843
vn 0.7483 0.1686 0.6416
vn 0.6643 -0.1015 0.7405
vn 0.6937 -0.0932 0.7142
vn 0.6558 0.1690 0.7358
vn 0.6758 -0.0748 0.7333
vn 0.7026 0.1095 0.7031
vn 0.8461 0.1650 0.5068
vn 0.7894 -0.0072 0.6139
vn 0.8538 0.3081 0.4196
vn 0.4916 -0.5370 0.6855
vn 0.7342 -0.3203 0.5987
vn 0.7580 -0.3762 0.5328
vn 0.6618 0.7472 0.0611
vn 0.6240 0.7813 -0.0093
vn 0.6990 0.7072 0.1065
vn 0.5832 0.7769 0.2373
vn 0.5398 0.8348 0.1084
vn 0.5297 0.8250 0.1970
vn 0.6118 0.7807 0.1273
vn 0.5483 0.8313 0.0911
vn 0.5794 0.7914 0.1951
vn 0.4666 0.8419 0.2709
vn 0.4537 0.8766 0.1605
vn 0.4667 0.8740 0.1357
vn 0.5183 0.7779 0.3554
vn 0.4804 0.8306 0.2817
vn 0.4893 0.8261 0.2796
vn 0.6188 0.7796 0.0961
vn 0.2466 0.9691 0.0000
vn 0.2739 0.8602 -0.4301
vn 0.6111 0.6923 -0.3836
vn 0.4103 0.8283 -0.3815
vn 0.5757 0.7901 -0.2106
vn 0.4694 0.7744 -0.4243
vn 0.5332 0.7469 -0.3973
vn 0.5620 0.7693 -0.3038
vn 0.5014 0.8099 -0.3045
vn 0.2209 0.8750 -0.4308
vn 0.9718 0.1899 -0.1397
vn 0.8146 0.5133 -0.2702
vn 0.8046 0.4900 -0.3354
vn 0.7128 -0.7014 0.0000
vn 0.7155 -0.6985 0.0096
vn 0.7080 -0.7062 0.0002
vn 0.7171 -0.6969 -0.0003
vn 0.7039 -0.7103 -0.0055
vn 0.7169 -0.6969 0.0196
vn 0.5336 -0.8456 0.0137
vn 0.7032 -0.7105 0.0260
vn 0.9493 -0.3142 -0.0077
vn 0.8574 -0.5146 -0.0008
vn 0.8539 -0.5204 0.0018
vn 0.8567 -0.5157 -0.0148
vn 0.8578 -0.5139 -0.0000
vn 0.8615 -0.5077 -0.0000
vn 0.5663 0.8142 -0.1280
vn 0.2337 0.9508 -0.2035
vn 0.6286 0.7533 -0.1935
vn 0.7474 0.6495 0.1398
vn 0.6273 0.7086 0.3232
vn -0.5316 0.8214 -0.2066
vn 0.7287 0.0744 0.6808
vn 0.9726 0.1211 0.1986
vn 0.8153 0.5629 0.1360
vn 0.8586 -0.5116 0.0327
vn 0.4408 -0.8903 0.1142
vn 0.8437 -0.5055 0.1809
vn 0.9304 0.3637 -0.0456
vn 0.9831 0.1833 -0.0000
vn 0.6641 0.7477 -0.0000
vn 0.8146 0.5133 0.2702
vn 0.9718 0.1899 0.1397
vn 0.8046 0.4900 0.3354
vn 0.2209 0.8750 0.4308
vn 0.5014 0.8099 0.3045
vn 0.5620 0.7693 0.3038
vn 0.4694 0.7744 0.4243
vn 0.5757 0.7901 0.2106
vn 0.5332 0.7469 0.3973
vn 0.4103 0.8283 0.3815
vn 0.6111 0.6924 0.3836
vn 0.2739 0.8602 0.4301
vn 0.6188 0.7796 -0.0961
vn 0.1153 -0.0056 0.9933
vn 0.1148 0.0008 0.9934
vn 0.1098 -0.0119 0.9939
vn 0.0731 -0.0142 0.9972
vn 0.1090 -0.0085 0.9940
vn 0.1689 0.0930 0.9812
vn 0.1229 -0.0392 0.9916
vn -0.1896 -0.0832 0.9783
vn -0.0428 0.0421 0.9982
vn -0.0691 -0.0100 0.9976
vn 0.0000 -1.0000 0.0000
vn -0.4020 -0.8758 -0.2670
vn -0.3998 -0.8835 -0.2442
vn -0.3905 -0.8742 -0.2887
vn -0.4212 -0.8527 -0.3091
vn -0.4631 -0.8404 -0.2814
vn -0.5348 -0.8315 -0.1505
vn -0.1527 -0.8596 -0.4877
vn -0.2810 -0.8691 -0.4071
vn -0.2938 -0.8756 -0.3834
vn -0.2952 -0.8782 -0.3763
vn -0.2665 -0.8822 -0.3882
vn -0.2766 -0.8824 -0.3806
vn -0.1767 -0.0522 -0.9829
vn -0.1942 -0.0944 -0.9764
vn -0.1752 -0.0540 -0.9831
vn -0.1412 0.0261 -0.9896
vn -0.1592 -0.0087 -0.9872
vn -0.1643 -0.0410 -0.9856
vn -0.1377 0.0092 -0.9904
vn -0.1377 0.0103 -0.9904
vn -0.1560 -0.0123 -0.9877
vn -0.0838 -0.0284 -0.9961
vn -0.0879 0.0213 -0.9959
vn -0.1010 -0.0040 -0.9949
vn 0.3927 0.8573 -0.3330
vn 0.3820 0.8451 -0.3740
vn 0.3979 0.8550 -0.3326
vn 0.4050 0.8792 -0.2510
vn 0.3944 0.8716 -0.2911
vn 0.3959 0.8737 -0.2825
vn 0.4134 0.8821 -0.2257
vn 0.4048 0.8765 -0.2607
vn 0.4172 0.8815 -0.2211
vn 0.3745 0.8646 -0.3349
vn 0.3674 0.8530 -0.3706
vn 0.3839 0.8678 -0.3156
vn 0.4128 0.8615 -0.2956
vn 0.4094 0.8572 -0.3125
vn 0.4150 0.8606 -0.2952
vn 0.4158 0.8720 -0.2583
vn 0.4124 0.8673 -0.2788
vn 0.4204 0.8776 -0.2303
vn 0.3811 0.8301 -0.4070
vn 0.3950 0.8521 -0.3435
vn 0.3878 0.8460 -0.3659
vn 0.3860 0.8483 -0.3624
vn 0.3957 0.8528 -0.3407
vn 0.3954 0.8524 -0.3421
vn -0.2180 0.0000 -0.9759
vn -0.2048 0.0112 -0.9787
vn -0.2214 -0.0000 -0.9752
vn -0.2302 -0.0418 -0.9723
vn -0.2182 -0.0139 -0.9758
vn -0.2357 -0.0363 -0.9712
vn -0.1682 0.0305 -0.9853
vn -0.1881 -0.0125 -0.9821
vn -0.1554 0.0057 -0.9878
vn -0.2264 -0.0004 -0.9740
vn -0.2271 -0.0221 -0.9736
vn -0.2169 -0.0018 -0.9762
vn 0.3552 0.8604 -0.3653
vn 0.3418 0.8596 -0.3799
vn 0.3572 0.8596 -0.3654
vn 0.3635 0.8708 -0.3311
vn 0.3557 0.8645 -0.3552
vn 0.3455 0.8775 -0.3327
vn 0.3355 0.8709 -0.3590
vn 0.2583 0.8055 -0.5333
vn 0.3568 0.8705 -0.3389
vn 0.4082 0.9037 0.1294
vn 0.3181 0.9439 -0.0892
vn 0.3555 0.9293 -0.0997
vn -0.2908 -0.8699 0.3983
vn -0.1527 -0.8596 0.4877
vn -0.2786 -0.8807 0.3830
vn -0.5357 -0.8279 0.1662
vn -0.4631 -0.8405 0.2814
vn -0.4212 -0.8527 0.3091
vn -0.3998 -0.8835 0.2441
vn -0.4020 -0.8758 0.2670
vn -0.3905 -0.8742 0.2888
vn -0.1598 -0.0114 0.9871
vn -0.1643 -0.0410 0.9856
vn -0.1585 -0.0083 0.9873
vn -0.1384 0.0088 0.9903
vn -0.1559 -0.0124 0.9877
vn -0.1377 0.0104 0.9904
vn -0.0838 -0.0284 0.9961
vn -0.1010 -0.0040 0.9949
vn -0.0879 0.0213 0.9959
vn 0.3953 0.8718 0.2894
vn 0.3959 0.8737 0.2825
vn 0.3953 0.8720 0.2885
vn 0.4121 0.8821 0.2282
vn 0.4172 0.8815 0.2211
vn 0.4048 0.8765 0.2607
vn 0.3745 0.8646 0.3349
vn 0.3839 0.8678 0.3156
vn 0.3674 0.8530 0.3707
vn 0.4127 0.8681 0.2760
vn 0.4204 0.8776 0.2304
vn 0.4127 0.8675 0.2777
vn 0.3806 0.8299 0.4080
vn 0.3878 0.8460 0.3659
vn 0.3950 0.8521 0.3435
vn 0.3860 0.8483 0.3624
vn 0.3954 0.8524 0.3421
vn 0.3957 0.8528 0.3407
vn -0.1826 -0.0018 0.9832
vn -0.1682 0.0306 0.9853
vn -0.1578 -0.0018 0.9875
vn -0.2302 -0.0418 0.9723
vn -0.2183 -0.0139 0.9758
vn -0.2302 -0.0418 0.9722
vn -0.2048 0.0112 0.9787
vn -0.2181 0.0000 0.9759
vn -0.2215 0.0000 0.9752
vn 0.3581 0.8668 0.3471
vn 0.3455 0.8775 0.3327
vn 0.3567 0.8638 0.3557
vn 0.3347 0.8715 0.3584
vn 0.3568 0.8706 0.3389
vn 0.2584 0.8055 0.5333
vn 0.4082 0.9037 -0.1294
vn 0.3555 0.9293 0.0996
vn 0.3181 0.9439 0.0892
vn 0.9304 0.3637 0.0456
vn 0.8437 -0.5054 -0.1809
vn 0.4408 -0.8903 -0.1142
vn 0.8545 -0.5119 -0.0884
vn 0.9726 0.1211 -0.1986
vn 0.9835 0.0695 -0.1670
vn 0.7826 0.6082 -0.1329
vn 0.8191 0.5716 -0.0478
vn 0.7660 0.6360 -0.0934
vn 0.8213 0.5642 -0.0840
vn 0.8858 0.4516 0.1070
vn 0.8444 0.5345 0.0348
vn 0.9035 0.4035 0.1446
vn 0.6782 0.7265 -0.1107
vn 0.7588 0.6513 -0.0087
vn 0.7495 0.6618 0.0176
vn 0.8567 -0.5156 0.0147
vn 0.8541 -0.5201 -0.0018
vn 0.8574 -0.5146 0.0008
vn 0.9478 -0.3189 -0.0020
vn 0.5336 -0.8456 -0.0137
vn 0.7101 -0.7038 -0.0195
vn 0.7099 -0.7036 -0.0311
vn 0.4453 0.8954 0.0000
vn 0.4478 0.8935 0.0343
vn 0.4143 0.9101 0.0031
vn 0.2599 0.5228 -0.8119
vn -0.8785 -0.4747 0.0541
vn 0.7071 -0.7071 0.0000
vn 0.4128 -0.4129 -0.8119
vn 0.5575 0.8302 0.0000
vn -0.8980 0.4344 0.0708
vn 0.3559 0.5300 -0.7697
vn 0.4550 -0.4478 -0.7697
vn 0.6802 -0.7330 0.0025
vn 0.7135 -0.6992 0.0454
vn 0.4142 0.9102 0.0031
vn 0.4128 -0.4128 -0.8119
vn 0.5576 0.8301 0.0000
vn -0.8981 0.4342 0.0706
vn 0.3564 0.5307 -0.7689
vn 0.4470 -0.4509 -0.7726
vn 0.6755 -0.7374 0.0025
vn 0.7104 -0.7038 0.0000
vn 0.7138 -0.6989 0.0447
vn 0.7128 -0.7014 -0.0002
vn 0.7151 -0.6990 -0.0002
vn 0.4477 0.8935 0.0343
vn -0.8981 0.4341 0.0708
vn 0.3575 0.5324 -0.7672
vn 0.4475 -0.4512 -0.7721
vn 0.6804 -0.7328 0.0025
vn 0.7138 -0.6989 0.0451
vn 0.1077 -0.0081 -0.9941
vn 0.1097 -0.0060 -0.9939
vn 0.1056 -0.0081 -0.9944
vn 0.1088 -0.0138 -0.9940
vn 0.1104 -0.0103 -0.9938
vn 0.1067 -0.0178 -0.9941
vn 0.1173 0.0015 -0.9931
vn 0.1153 -0.0055 -0.9933
vn 0.1170 -0.0056 -0.9931
vn 0.7588 0.6513 0.0087
vn 0.6782 0.7265 0.1107
vn 0.7495 0.6618 -0.0176
vn 0.9035 0.4035 -0.1447
vn 0.8444 0.5345 -0.0348
vn 0.8858 0.4517 -0.1070
vn 0.7660 0.6360 0.0935
vn 0.8191 0.5716 0.0478
vn 0.8213 0.5642 0.0840
vn -0.4508 -0.8924 0.0213
vn -0.4519 -0.8905 0.0533
vn -0.4499 -0.8928 0.0213
vn -0.4485 -0.8927 -0.0442
vn -0.4515 -0.8922 -0.0121
vn -0.4506 -0.8926 -0.0120
vn -0.4346 -0.8920 0.1240
vn -0.4292 -0.8893 0.1577
vn -0.4286 -0.8950 0.1239
vn -0.4529 -0.8899 0.0538
vn -0.4534 -0.8869 0.0884
vn -0.4487 -0.8895 0.0868
vn -0.0711 -0.0111 0.9974
vn -0.0624 0.0065 0.9980
vn -0.0786 -0.0306 0.9964
vn -0.0881 -0.0478 0.9950
vn -0.0791 -0.0299 0.9964
vn -0.4396 -0.8975 -0.0352
vn -0.4462 -0.8948 0.0156
vn -0.4382 -0.8982 -0.0350
vn -0.4252 -0.8945 -0.1385
vn -0.4356 -0.8958 -0.0882
vn -0.4340 -0.8966 -0.0879
vn -0.4575 -0.8859 -0.0760
vn -0.4538 -0.8879 -0.0752
vn -0.4518 -0.8862 -0.1022
vn -0.4731 -0.8797 -0.0475
vn -0.4740 -0.8803 -0.0207
vn -0.4692 -0.8818 -0.0472
vn -0.2766 -0.8824 0.3806
vn -0.2706 -0.8875 0.3730
vn -0.3318 -0.8809 0.3374
vn -0.2251 -0.8652 0.4481
vn -0.1617 -0.8636 0.4775
vn -0.2206 -0.8710 0.4390
vn 0.5575 0.8301 0.0099
vn 0.4306 0.9025 0.0000
vn 0.6803 0.7323 -0.0306
vn 0.7812 0.6239 -0.0215
vn 0.6805 0.7325 -0.0187
vn 0.4306 0.8944 0.1207
vn 0.4310 0.8944 0.1196
vn 0.4296 0.8946 0.1230
vn 0.4299 0.8946 0.1219
vn -0.4508 -0.8924 -0.0213
vn -0.4500 -0.8928 -0.0212
vn -0.4519 -0.8905 -0.0533
vn -0.4516 -0.8921 0.0121
vn -0.4486 -0.8927 0.0442
vn -0.4506 -0.8926 0.0120
vn -0.4346 -0.8920 -0.1240
vn -0.4286 -0.8950 -0.1239
vn -0.4292 -0.8893 -0.1577
vn -0.4534 -0.8869 -0.0884
vn -0.4529 -0.8899 -0.0538
vn -0.4487 -0.8895 -0.0868
vn -0.0711 -0.0111 -0.9974
vn -0.0624 0.0064 -0.9980
vn -0.0714 -0.0113 -0.9974
vn -0.0881 -0.0478 -0.9950
vn -0.0787 -0.0305 -0.9964
vn -0.0792 -0.0299 -0.9964
vn -0.4396 -0.8975 0.0352
vn -0.4383 -0.8982 0.0350
vn -0.4462 -0.8948 -0.0156
vn -0.4355 -0.8958 0.0882
vn -0.4252 -0.8944 0.1385
vn -0.4340 -0.8966 0.0879
vn -0.4575 -0.8859 0.0760
vn -0.4518 -0.8862 0.1022
vn -0.4538 -0.8879 0.0752
vn -0.4740 -0.8803 0.0207
vn -0.4731 -0.8797 0.0476
vn -0.4692 -0.8818 0.0472
vn 0.7925 -0.5201 -0.3186
vn 0.5225 -0.7186 -0.4588
vn 0.7925 -0.5542 -0.2546
vn 0.8613 0.4051 -0.3067
vn 0.8495 -0.0528 -0.5250
vn 0.9205 -0.0270 -0.3898
vn 0.6779 0.7298 -0.0885
vn 0.8732 0.4525 0.1811
vn 0.7602 0.6281 0.1662
vn 0.7962 0.5848 0.1551
vn 0.5575 0.8301 -0.0099
vn 0.7812 0.6239 0.0215
vn 0.6803 0.7323 0.0306
vn 0.6805 0.7325 0.0187
vn 0.4306 0.8944 -0.1207
vn 0.4310 0.8944 -0.1196
vn 0.4299 0.8946 -0.1219
vn 0.4296 0.8946 -0.1230
vn -0.4550 -0.8860 0.0889
vn 0.4306 -0.0093 0.9025
vn 0.7077 0.6967 0.1176
vn -0.1767 -0.0522 0.9829
vn 0.3927 0.8573 0.3330
vn 0.3581 0.8592 0.3654
vn 0.4128 0.8615 0.2956
vn 0.3994 0.8544 0.3325
vn 0.3552 0.8604 0.3653
vn -0.2169 -0.0018 0.9762
vn 0.4992 -0.6450 0.5786
vn -0.2271 0.0000 0.9739
vn -0.4550 -0.8860 -0.0889
vn -0.0692 -0.0100 -0.9976
vn 0.3581 0.8592 -0.3654
vn 0.3994 0.8544 -0.3325
vn 0.4992 -0.6450 -0.5786
vn -0.2206 -0.8710 -0.4390
vn -0.2271 0.0000 -0.9739
usemtl Tex_0052_0.dds
s off
f 1/1/1 3/2/2 2/3/1
f 2/3/3 3/2/3 4/4/4
f 3/2/5 5/5/6 4/4/7
f 4/4/8 5/5/8 6/6/9
f 5/5/10 7/7/11 6/6/12
f 6/6/13 7/7/14 8/8/15
f 7/7/16 9/9/17 8/8/18
f 10/10/17 12/11/19 11/12/20
f 11/12/21 12/11/22 13/13/23
f 12/11/24 14/14/25 13/13/26
f 13/13/27 14/14/28 15/15/29
f 14/14/30 16/16/31 15/15/32
f 15/15/33 16/16/34 17/17/35
f 16/16/36 18/18/37 17/17/38
f 19/19/39 21/20/40 20/21/39
f 20/21/41 21/20/41 22/22/42
f 21/20/43 23/23/44 22/22/45
f 22/22/46 23/23/47 24/24/48
f 23/23/49 25/25/50 24/24/51
f 24/24/52 25/25/53 26/26/54
f 27/27/55 29/28/56 28/29/55
f 28/29/57 29/28/58 30/30/59
f 29/28/60 31/31/61 30/30/62
f 30/30/63 31/31/64 32/32/65
f 31/31/66 33/33/67 32/32/68
f 32/32/69 33/33/70 34/34/71
f 35/35/72 37/36/73 36/37/74
f 36/37/75 37/36/76 38/38/77
f 37/36/78 39/39/79 38/38/80
f 38/38/81 39/39/82 40/40/83
f 39/39/84 41/41/85 40/40/86
f 40/40/87 41/41/87 42/42/87
f 43/43/88 45/44/89 44/45/90
f 44/45/91 45/44/92 46/46/93
f 45/44/94 47/47/95 46/46/96
f 46/46/97 47/47/98 48/48/99
f 47/47/100 49/49/101 48/48/102
f 50/50/103 52/51/104 51/52/105
f 51/52/106 52/51/107 53/53/108
f 52/51/109 54/54/110 53/53/111
f 53/53/112 54/54/113 55/55/114
f 54/54/115 56/56/116 55/55/117
f 57/57/17 59/58/118 58/59/119
f 58/59/120 59/58/121 60/60/122
f 59/58/123 61/61/124 60/60/125
f 60/60/126 61/61/127 62/62/128
f 61/61/129 63/63/130 62/62/131
f 64/64/132 66/65/133 65/66/132
f 65/66/134 66/65/135 67/67/136
f 66/65/137 68/68/138 67/67/139
f 67/67/140 68/68/141 69/69/142
f 68/68/143 70/70/144 69/69/145
f 71/71/146 73/72/147 72/73/148
f 72/73/149 73/72/150 74/74/151
f 73/72/152 75/75/153 74/74/154
f 74/74/155 75/75/156 76/76/157
f 75/75/158 77/77/159 76/76/160
f 78/78/161 80/79/162 79/80/163
f 79/80/164 80/79/165 81/81/166
f 80/79/167 82/82/168 81/81/169
f 81/81/170 82/82/171 83/83/172
f 82/82/173 84/84/17 83/83/119
f 85/85/174 87/86/175 86/87/174
f 86/87/176 87/86/176 88/88/177
f 87/86/178 89/89/179 88/88/180
f 88/88/181 89/89/182 90/90/183
f 91/91/184 93/92/184 92/93/184
f 92/93/184 93/92/184 94/94/184
f 93/92/184 95/95/184 94/94/184
f 94/94/184 95/95/184 96/96/184
f 97/97/185 99/98/186 98/99/187
f 98/99/188 99/98/189 100/100/190
f 99/98/191 101/101/192 100/100/193
f 100/100/194 101/101/195 102/102/196
f 103/103/197 105/104/198 104/105/199
f 104/105/200 105/104/201 106/106/202
f 105/104/203 107/107/204 106/106/205
f 106/106/206 107/107/207 108/108/208
f 109/109/209 111/110/210 110/111/211
f 110/111/212 111/110/213 112/112/214
f 111/110/215 113/113/216 112/112/217
f 112/112/218 113/113/219 114/114/220
f 115/115/221 117/116/222 116/117/223
f 116/117/224 117/116/225 118/118/226
f 117/116/227 119/119/228 118/118/229
f 118/118/230 119/119/231 120/120/232
f 121/121/233 123/122/234 122/123/235
f 122/123/236 123/122/237 124/124/238
f 123/122/239 125/125/240 124/124/241
f 124/124/242 125/125/243 126/126/244
f 127/127/245 129/128/246 128/129/247
f 128/129/248 129/128/249 130/130/250
f 129/128/251 131/131/252 130/130/253
f 130/130/254 131/131/255 132/132/256
f 133/133/257 135/134/258 134/135/259
f 134/135/260 135/134/261 136/136/262
f 135/134/263 137/137/264 136/136/265
f 138/138/266 140/139/267 139/140/268
f 139/140/269 140/139/270 141/141/271
f 140/139/272 142/142/273 141/141/274
f 143/143/275 145/144/276 144/145/277
f 144/145/278 145/144/279 146/146/280
f 145/144/281 147/147/282 146/146/283
f 148/148/284 150/149/285 149/150/286
f 149/150/287 150/149/288 151/151/289
f 150/149/290 152/152/291 151/151/292
f 153/153/293 155/154/294 154/155/295
f 154/155/296 155/154/297 156/156/298
f 155/154/299 157/157/300 156/156/301
f 158/158/302 160/159/303 159/160/304
f 159/160/305 160/159/306 161/161/307
f 160/159/308 162/162/309 161/161/310
f 163/163/159 165/164/311 164/165/160
f 164/165/312 165/164/313 166/166/314
f 165/164/315 167/167/316 166/166/317
f 168/168/318 170/169/319 169/170/320
f 169/170/321 170/169/322 171/171/323
f 170/169/324 172/172/325 171/171/326
f 173/173/144 175/174/327 174/175/145
f 174/175/328 175/174/329 176/176/330
f 175/174/331 177/177/332 176/176/333
f 178/178/334 180/179/335 179/180/334
f 179/180/334 180/179/336 181/181/337
f 180/179/338 182/182/339 181/181/340
f 183/183/341 185/184/342 184/185/343
f 184/185/344 185/184/345 186/186/132
f 185/184/346 187/187/132 186/186/132
f 188/188/334 190/189/335 189/190/334
f 189/190/17 190/189/347 191/191/337
f 190/189/338 192/192/339 191/191/348
f 193/193/349 195/194/350 194/195/351
f 194/195/352 195/194/353 196/196/354
f 195/194/355 197/197/356 196/196/357
f 198/198/17 200/199/358 199/200/17
f 199/200/334 200/199/336 201/201/337
f 200/199/338 202/202/339 201/201/340
f 203/203/334 205/204/335 204/205/334
f 204/205/334 205/204/336 206/206/337
f 205/204/338 207/207/339 206/206/340
f 208/208/341 210/209/359 209/210/360
f 209/210/361 210/209/362 211/211/132
f 210/209/363 212/212/132 211/211/132
f 213/213/364 215/214/365 214/215/366
f 214/215/367 215/214/368 216/216/369
f 215/214/370 217/217/371 216/216/372
f 218/218/373 220/219/374 219/220/375
f 219/220/376 220/219/377 221/221/378
f 220/219/379 222/222/380 221/221/381
f 223/223/184 225/224/184 224/225/184
f 224/225/184 225/224/184 226/226/184
f 225/224/184 227/227/184 226/226/184
f 228/228/382 230/229/383 229/230/384
f 229/230/385 230/229/386 231/231/387
f 232/232/388 234/233/389 233/234/390
f 233/234/391 234/233/392 235/235/393
f 236/236/394 238/237/394 237/238/395
f 237/238/396 238/237/397 239/239/398
f 240/240/399 242/241/400 241/242/401
f 241/242/402 242/241/403 243/243/404
f 244/244/405 246/245/406 245/246/407
f 245/246/408 246/245/409 247/247/410
f 248/248/411 250/249/412 249/250/413
f 249/250/414 250/249/415 251/251/416
f 252/252/349 254/253/417 253/254/418
f 253/254/419 254/253/420 255/255/421
f 256/256/422 258/257/423 257/258/422
f 257/258/424 258/257/425 259/259/425
f 260/260/184 262/261/184 261/262/184
f 261/262/184 262/261/184 263/263/184
f 264/264/184 266/265/184 265/266/184
f 265/266/184 266/265/184 267/267/184
f 268/268/341 270/269/341 269/270/341
f 269/270/349 270/269/349 271/271/349
f 272/272/184 274/273/184 273/274/184
f 273/274/184 274/273/184 275/275/184
f 276/276/184 278/277/184 277/278/184
f 277/278/184 278/277/184 279/279/184
f 280/280/426 282/281/427 281/282/428
f 281/282/429 282/281/430 283/283/431
f 284/284/432 286/285/433 285/286/434
f 285/286/435 286/285/436 287/287/437
f 288/288/438 290/289/439 289/290/440
f 289/290/441 290/289/442 291/291/443
f 292/292/444 294/293/445 293/294/446
f 293/294/447 294/293/448 295/295/449
f 296/296/450 298/297/451 297/298/452
f 297/298/453 298/297/454 299/299/455
f 300/300/456 302/301/457 301/302/458
f 301/302/459 302/301/460 303/303/461
f 304/304/54 306/305/53 305/306/462
f 305/306/463 306/305/464 307/307/465
f 308/308/349 310/309/418 309/310/466
f 309/310/467 310/309/468 311/311/469
f 312/312/470 314/313/470 313/314/471
f 313/314/472 314/313/473 315/315/472
f 316/316/474 318/317/474 317/318/474
f 319/319/475 321/320/475 320/321/475
f 322/322/476 324/323/476 323/324/476
f 325/325/477 327/326/477 326/327/477
f 328/328/478 330/329/478 329/330/478
f 331/331/479 333/332/479 332/333/479
f 334/334/480 336/335/480 335/336/480
f 337/337/481 339/338/481 338/339/481
f 340/340/482 342/341/482 341/342/482
f 343/343/483 345/344/483 344/345/483
f 346/346/484 348/347/484 347/348/484
f 349/349/339 351/350/339 350/351/339
f 352/352/485 354/353/485 353/354/485
f 355/355/339 357/356/339 356/357/339
f 358/358/341 360/359/341 359/360/341
f 361/361/339 363/362/339 362/363/339
f 364/364/341 366/365/341 365/366/341
f 367/367/339 369/368/339 368/369/339
f 370/370/339 372/371/339 371/372/339
f 373/373/341 375/374/341 374/375/341
f 376/376/486 378/377/486 377/378/486
f 379/379/487 381/380/487 380/381/487
f 382/382/488 384/383/488 383/384/488
f 385/385/489 387/386/489 386/387/489
f 388/388/490 390/389/490 389/390/490
f 391/391/339 393/392/339 392/393/339
f 394/394/184 396/395/184 395/396/184
f 397/397/491 399/398/491 398/399/491
f 400/400/492 402/401/492 401/402/492
