# Blender v3.6.3 OBJ File: 'untitled.blend'
# www.blender.org
mtllib Mesh_0201.mtl
o Mesh_0201_Mesh.039
v -21.781155 52.453526 -2.571800
v -22.304649 52.790073 -2.571800
v -21.781155 52.179966 -4.998535
v -22.304649 52.508137 -5.073441
v -21.781155 51.373520 -7.303589
v -22.304649 51.676796 -7.449638
v -21.781155 50.074306 -9.371380
v -22.304649 50.337452 -9.581253
v -21.781155 48.347366 -11.098198
v -22.304649 48.557171 -11.361366
v -21.781155 46.279552 -12.397480
v -22.304649 46.425602 -12.700764
v -21.781155 43.974503 -13.204060
v -22.304649 44.049431 -13.532227
v -21.781155 41.547787 -13.477463
v -22.304649 41.547787 -13.814095
v -21.781155 41.547787 8.333862
v -22.304649 41.547787 8.670494
v -21.781155 43.974503 8.060463
v -22.304649 44.049431 8.388626
v -21.781155 46.279552 7.253883
v -22.304649 46.425602 7.557167
v -21.781155 48.347366 5.954597
v -22.304649 48.557167 6.217766
v -21.781155 50.074310 4.227783
v -22.304649 50.337456 4.437660
v -21.781155 51.373520 2.159988
v -22.304649 51.676796 2.306038
v -21.781155 52.179966 -0.145058
v -22.304649 52.508137 -0.070152
v -21.781155 52.453526 -2.571800
v -22.304649 52.790073 -2.571800
v -21.781155 30.642038 -2.571800
v -22.304649 30.305489 -2.571800
v -21.781155 30.915598 -0.145058
v -22.304649 30.587431 -0.070152
v -21.781155 31.722048 2.159988
v -22.304649 31.534849 2.508202
v -21.781155 33.021511 4.227783
v -22.304649 32.758114 4.437660
v -21.781155 34.748203 5.954597
v -22.304649 34.538403 6.217766
v -21.781155 36.816021 7.253883
v -22.304649 36.669971 7.557167
v -21.781155 39.121071 8.060463
v -22.304649 39.046139 8.388626
v -21.781155 41.547787 8.333862
v -22.304649 41.547787 8.670494
v -21.781155 41.547787 -13.477463
v -22.304649 41.547787 -13.814095
v -21.781155 39.121071 -13.204060
v -22.304649 39.046139 -13.532227
v -21.781155 36.816021 -12.397476
v -22.304649 36.669971 -12.700760
v -21.781155 34.748203 -11.098198
v -22.304649 34.538403 -11.361366
v -21.781155 33.021511 -9.371380
v -22.304649 32.758114 -9.581253
v -21.781155 31.722048 -7.303589
v -22.304649 31.534849 -7.651798
v -21.781155 30.915598 -4.998543
v -22.304649 30.587431 -5.073448
v -21.781155 30.642038 -2.571800
v -22.304649 30.305489 -2.571800
vt 0.729492 0.998047
vt 0.729492 0.568359
vt 1.001953 0.998047
vt 1.001953 0.568359
vt 0.729492 0.138672
vt 1.001953 0.138672
vt 0.729492 -0.290039
vt 1.001953 -0.290039
vt 0.729492 -0.719727
vt 1.001953 -0.719727
vt 0.729492 -1.147461
vt 1.001953 -1.147461
vt 0.729492 -1.577148
vt 1.001953 -1.577148
vt 0.729492 -1.999023
vt 1.001953 -1.999023
vt 0.729492 0.998047
vt 0.729492 0.568359
vt 1.001953 0.998047
vt 1.001953 0.568359
vt 0.729492 0.138672
vt 1.001953 0.138672
vt 0.729492 -0.290039
vt 1.001953 -0.290039
vt 0.729492 -0.719727
vt 1.001953 -0.719727
vt 0.729492 -1.147461
vt 1.001953 -1.147461
vt 0.729492 -1.577148
vt 1.001953 -1.577148
vt 0.729492 -1.999023
vt 1.001953 -1.999023
vt 0.729492 0.998047
vt 0.729492 0.568359
vt 1.001953 0.998047
vt 1.001953 0.568359
vt 0.729492 0.138672
vt 1.001953 0.138672
vt 0.729492 -0.290039
vt 1.001953 -0.290039
vt 0.729492 -0.719727
vt 1.001953 -0.719727
vt 0.729492 -1.147461
vt 1.001953 -1.147461
vt 0.729492 -1.577148
vt 1.001953 -1.577148
vt 0.729492 -1.999023
vt 1.001953 -1.999023
vt 0.729492 0.998047
vt 0.729492 0.568359
vt 1.001953 0.998047
vt 1.001953 0.568359
vt 0.729492 0.138672
vt 1.001953 0.138672
vt 0.729492 -0.290039
vt 1.001953 -0.290039
vt 0.729492 -0.719727
vt 1.001953 -0.719727
vt 0.729492 -1.147461
vt 1.001953 -1.147461
vt 0.729492 -1.577148
vt 1.001953 -1.577148
vt 0.729492 -1.999023
vt 1.001953 -1.999023
vn 0.5384 0.8374 -0.0944
vn 0.5564 0.7921 -0.2511
vn 0.4640 0.8803 -0.0992
vn 0.5590 0.7826 -0.2738
vn 0.5565 0.7163 -0.4210
vn 0.4517 0.8336 -0.3180
vn 0.5384 0.7954 -0.2783
vn 0.4565 0.8398 -0.2938
vn 0.5590 0.7021 -0.4411
vn 0.5507 0.6530 -0.5199
vn 0.4589 0.7399 -0.4919
vn 0.5120 0.7712 -0.3783
vn 0.6131 0.6808 -0.4007
vn 0.4639 0.7501 -0.4713
vn 0.6155 0.5572 -0.5573
vn 0.5565 0.4626 -0.6901
vn 0.4516 0.6130 -0.6483
vn 0.5384 0.5959 -0.5959
vn 0.4565 0.6291 -0.6292
vn 0.5590 0.4411 -0.7021
vn 0.5505 0.3629 -0.7518
vn 0.4589 0.4531 -0.7643
vn 0.5121 0.5306 -0.6754
vn 0.6132 0.4395 -0.6564
vn 0.4565 0.4734 -0.7533
vn 0.6155 0.2603 -0.7439
vn 0.5507 0.1865 -0.8136
vn 0.4589 0.2717 -0.8459
vn 0.5121 0.3670 -0.7766
vn 0.6132 0.2824 -0.7377
vn 0.4565 0.2939 -0.8398
vn 0.6155 0.0882 -0.7832
vn 0.5384 0.0943 -0.8374
vn 0.4589 0.0767 -0.8852
vn 0.5121 0.1850 -0.8387
vn 0.5385 0.0943 -0.8374
vn 0.5385 0.0943 0.8374
vn 0.5566 0.2511 0.7919
vn 0.5384 0.0943 0.8374
vn 0.4565 0.0996 0.8841
vn 0.5590 0.2739 0.7826
vn 0.5506 0.3615 0.7524
vn 0.4589 0.3150 0.8308
vn 0.5121 0.1972 0.8360
vn 0.6132 0.2392 0.7529
vn 0.4565 0.2939 0.8398
vn 0.6155 0.4193 0.6673
vn 0.5507 0.5198 0.6530
vn 0.4589 0.4919 0.7399
vn 0.5120 0.3784 0.7712
vn 0.6131 0.4007 0.6808
vn 0.4565 0.4734 0.7533
vn 0.6155 0.5573 0.5573
vn 0.5506 0.6522 0.5210
vn 0.4589 0.6443 0.6119
vn 0.5121 0.5404 0.6676
vn 0.6132 0.5421 0.5746
vn 0.4565 0.6291 0.6292
vn 0.6155 0.6673 0.4193
vn 0.5506 0.7518 0.3628
vn 0.4588 0.7643 0.4531
vn 0.5121 0.6754 0.5307
vn 0.6132 0.6564 0.4395
vn 0.4565 0.7533 0.4733
vn 0.6155 0.7439 0.2603
vn 0.5506 0.8137 0.1865
vn 0.4589 0.8459 0.2717
vn 0.5121 0.7766 0.3670
vn 0.6131 0.7378 0.2824
vn 0.4566 0.8398 0.2938
vn 0.6155 0.7832 0.0883
vn 0.5384 0.8374 0.0944
vn 0.4590 0.8851 0.0767
vn 0.5120 0.8388 0.1850
vn 0.5384 -0.8374 0.0944
vn 0.5505 -0.8141 0.1851
vn 0.6131 -0.7873 0.0657
vn 0.4640 -0.8803 0.0992
vn 0.6155 -0.7439 0.2603
vn 0.5474 -0.7243 0.4192
vn 0.4517 -0.8336 0.3181
vn 0.4920 -0.8172 0.3003
vn 0.3865 -0.8653 0.3191
vn 0.5730 -0.6986 0.4285
vn 0.5722 -0.6420 0.5104
vn 0.4887 -0.7287 0.4797
vn 0.5297 -0.7526 0.3911
vn 0.6118 -0.6804 0.4034
vn 0.4586 -0.7505 0.4759
vn 0.6145 -0.5586 0.5571
vn 0.5511 -0.5209 0.6520
vn 0.4606 -0.6116 0.6433
vn 0.5123 -0.6665 0.5416
vn 0.6131 -0.5746 0.5422
vn 0.4565 -0.6291 0.6292
vn 0.6155 -0.4193 0.6673
vn 0.5505 -0.3629 0.7518
vn 0.4589 -0.4531 0.7643
vn 0.5121 -0.5306 0.6754
vn 0.6132 -0.4395 0.6564
vn 0.4565 -0.4734 0.7533
vn 0.6155 -0.2603 0.7439
vn 0.5507 -0.1865 0.8136
vn 0.4589 -0.2717 0.8459
vn 0.5121 -0.3670 0.7766
vn 0.6132 -0.2824 0.7377
vn 0.4565 -0.2939 0.8398
vn 0.6155 -0.0882 0.7832
vn 0.5384 -0.0943 0.8374
vn 0.4589 -0.0767 0.8852
vn 0.5121 -0.1850 0.8387
vn 0.5385 -0.0943 0.8374
vn 0.5385 -0.0943 -0.8374
vn 0.5507 -0.1850 -0.8139
vn 0.5384 -0.0943 -0.8374
vn 0.6131 -0.0656 -0.7872
vn 0.4565 -0.0996 -0.8841
vn 0.6155 -0.2603 -0.7439
vn 0.5506 -0.3615 -0.7524
vn 0.4589 -0.3150 -0.8308
vn 0.5121 -0.1972 -0.8360
vn 0.6132 -0.2392 -0.7529
vn 0.4565 -0.2939 -0.8398
vn 0.6155 -0.4193 -0.6673
vn 0.5507 -0.5199 -0.6530
vn 0.4589 -0.4920 -0.7398
vn 0.5120 -0.3784 -0.7712
vn 0.6131 -0.4007 -0.6808
vn 0.4565 -0.4734 -0.7534
vn 0.6155 -0.5573 -0.5573
vn 0.5503 -0.6523 -0.5212
vn 0.4588 -0.6443 -0.6118
vn 0.5125 -0.5402 -0.6675
vn 0.6133 -0.5420 -0.5745
vn 0.4570 -0.6282 -0.6297
vn 0.6157 -0.6672 -0.4192
vn 0.5799 -0.7414 -0.3377
vn 0.4592 -0.7647 -0.4522
vn 0.5342 -0.6618 -0.5260
vn 0.6485 -0.6251 -0.4344
vn 0.4839 -0.7372 -0.4717
vn 0.5555 -0.7852 -0.2738
vn 0.4483 -0.8714 -0.1993
vn 0.3713 -0.8864 -0.2763
vn 0.5175 -0.7617 -0.3899
vn 0.6176 -0.7287 -0.2961
vn 0.4497 -0.8384 -0.3081
vn 0.6202 -0.7800 -0.0839
vn 0.5384 -0.8374 -0.0944
vn 0.4535 -0.8881 -0.0755
vn 0.5100 -0.8387 -0.1910
usemtl Tex_0079_1.dds
s off
f 1/1/1 3/2/2 2/3/1
f 2/3/1 3/2/1 4/4/3
f 3/2/4 5/5/5 4/4/6
f 4/4/7 5/5/7 6/6/8
f 5/5/9 7/7/10 6/6/11
f 6/6/12 7/7/13 8/8/14
f 7/7/15 9/9/16 8/8/17
f 8/8/18 9/9/18 10/10/19
f 9/9/20 11/11/21 10/10/22
f 10/10/23 11/11/24 12/12/25
f 11/11/26 13/13/27 12/12/28
f 12/12/29 13/13/30 14/14/31
f 13/13/32 15/15/33 14/14/34
f 14/14/35 15/15/36 16/16/36
f 17/17/37 19/18/38 18/19/37
f 18/19/39 19/18/39 20/20/40
f 19/18/41 21/21/42 20/20/43
f 20/20/44 21/21/45 22/22/46
f 21/21/47 23/23/48 22/22/49
f 22/22/50 23/23/51 24/24/52
f 23/23/53 25/25/54 24/24/55
f 24/24/56 25/25/57 26/26/58
f 25/25/59 27/27/60 26/26/61
f 26/26/62 27/27/63 28/28/64
f 27/27/65 29/29/66 28/28/67
f 28/28/68 29/29/69 30/30/70
f 29/29/71 31/31/72 30/30/73
f 30/30/74 31/31/72 32/32/72
f 33/33/75 35/34/76 34/35/75
f 34/35/75 35/34/77 36/36/78
f 35/34/79 37/37/80 36/36/81
f 36/36/82 37/37/82 38/38/83
f 37/37/84 39/39/85 38/38/86
f 38/38/87 39/39/88 40/40/89
f 39/39/90 41/41/91 40/40/92
f 40/40/93 41/41/94 42/42/95
f 41/41/96 43/43/97 42/42/98
f 42/42/99 43/43/100 44/44/101
f 43/43/102 45/45/103 44/44/104
f 44/44/105 45/45/106 46/46/107
f 45/45/108 47/47/109 46/46/110
f 46/46/111 47/47/112 48/48/112
f 49/49/113 51/50/114 50/51/113
f 50/51/115 51/50/116 52/52/117
f 51/50/118 53/53/119 52/52/120
f 52/52/121 53/53/122 54/54/123
f 53/53/124 55/55/125 54/54/126
f 54/54/127 55/55/128 56/56/129
f 55/55/130 57/57/131 56/56/132
f 56/56/133 57/57/134 58/58/135
f 57/57/136 59/59/137 58/58/138
f 58/58/139 59/59/140 60/60/141
f 59/59/142 61/61/143 60/60/144
f 60/60/145 61/61/146 62/62/147
f 61/61/148 63/63/149 62/62/150
f 62/62/151 63/63/149 64/64/149
