# Blender v3.6.3 OBJ File: 'untitled.blend'
# www.blender.org
mtllib Mesh_0398.mtl
o Mesh_0398_Mesh.113
v 69.962753 33.497097 17.436455
v 69.962753 30.957098 17.436455
v 69.962753 33.497093 15.519958
v 69.962769 30.957098 15.519958
v 69.962814 33.497101 4.736458
v 69.962814 30.957100 4.736450
v 69.962814 33.497101 2.819962
v 69.962830 30.957100 2.819962
v 69.962814 33.497101 -7.963543
v 69.962814 30.957100 -7.963551
v 69.962814 33.497097 -9.880039
v 69.962830 30.957100 -9.880039
v 69.962753 33.497097 -20.663544
v 69.962753 30.957098 -20.663551
v 69.962753 33.497097 -22.580040
v 69.962769 30.957098 -22.580040
vt 0.999939 0.000000
vt 0.000000 0.000000
vt 0.999939 -0.999939
vt 0.000000 -0.999939
vt 0.999939 0.000000
vt 0.000000 0.000000
vt 0.999939 -0.999939
vt 0.000000 -0.999939
vt 0.999939 0.000000
vt 0.000000 0.000000
vt 0.999939 -0.999939
vt 0.000000 -0.999939
vt 0.999939 0.000000
vt 0.000000 0.000000
vt 0.999939 -0.999939
vt 0.000000 -0.999939
vn -1.0000 0.0000 0.0000
usemtl Tex_0112_0.dds
s off
f 1/1/1 3/2/1 2/3/1
f 2/3/1 3/2/1 4/4/1
f 5/5/1 7/6/1 6/7/1
f 6/7/1 7/6/1 8/8/1
f 9/9/1 11/10/1 10/11/1
f 10/11/1 11/10/1 12/12/1
f 13/13/1 15/14/1 14/15/1
f 14/15/1 15/14/1 16/16/1
