# Blender v3.6.3 OBJ File: 'untitled.blend'
# www.blender.org
mtllib Mesh_0124.mtl
o Mesh_0124_Mesh.125
v 40.577942 40.004990 21.558197
v 42.465424 35.559990 21.552864
v 41.060028 39.954952 20.610275
v 41.533234 40.004990 19.642784
v 37.450691 50.799988 11.387787
v 36.579216 48.061611 17.263565
v 40.366867 43.814983 17.102783
v 39.163925 43.830231 19.203110
v 24.620142 50.799988 11.387787
v 21.703962 43.814983 17.102783
v 25.491621 48.061611 17.263565
v 22.906908 43.830231 19.203110
v 40.577942 40.004990 -26.701797
v 41.060028 39.954952 -25.753868
v 42.465424 35.559990 -26.696465
v 41.533234 40.004990 -24.786388
v 37.450691 50.799988 -16.531387
v 40.366867 43.814991 -22.246387
v 36.579216 48.061615 -22.407166
v 39.163925 43.830231 -24.346710
v 24.620142 50.799988 -16.531387
v 25.491621 48.061615 -22.407166
v 21.703962 43.814991 -22.246387
v 22.906908 43.830231 -24.346710
v 46.892891 40.004990 21.558197
v 46.410805 39.954952 20.610275
v 45.005417 35.559990 21.552864
v 45.937599 40.004990 19.642784
v 50.020142 50.799988 11.387787
v 47.103966 43.814983 17.102783
v 50.891617 48.061611 17.263565
v 48.306915 43.830231 19.203110
v 62.850693 50.799988 11.387787
v 61.979218 48.061611 17.263565
v 65.766861 43.814983 17.102783
v 64.563927 43.830231 19.203110
v 46.892891 40.004990 -26.701797
v 45.005417 35.559990 -26.696465
v 46.410805 39.954952 -25.753868
v 45.937599 40.004990 -24.786388
v 50.020142 50.799988 -16.531387
v 50.891617 48.061615 -22.407166
v 47.103966 43.814991 -22.246387
v 48.306915 43.830231 -24.346710
v 62.850693 50.799988 -16.531387
v 65.766861 43.814991 -22.246387
v 61.979218 48.061615 -22.407166
v 64.563927 43.830231 -24.346710
v 12.050688 50.799988 11.387787
v 11.179213 48.061611 17.263565
v 14.966864 43.814983 17.102783
v 13.763922 43.830231 19.203110
v -0.779860 50.799988 11.387787
v -3.696035 43.814983 17.102783
v 0.091618 48.061611 17.263565
v -2.493095 43.830231 19.203110
v 12.050688 50.799988 -16.531387
v 14.966864 43.814991 -22.246387
v 11.179213 48.061615 -22.407166
v 13.763922 43.830231 -24.346710
v -0.779860 50.799988 -16.531387
v 0.091618 48.061615 -22.407166
v -3.696035 43.814991 -22.246387
v -2.493095 43.830231 -24.346710
v 39.163925 43.830231 19.203110
v 41.060028 39.954952 20.610275
v 40.366867 43.814983 17.102783
v 33.658981 57.784988 3.767784
v 31.035414 60.959988 -1.312210
v 31.304907 54.116722 13.345619
v 33.112625 52.323730 14.747955
v 33.658981 57.784988 3.767784
v 31.304907 54.116722 13.345619
v 37.450691 50.799988 11.387787
v 33.658981 57.784988 3.767784
v 33.112625 52.323730 14.747955
v 36.579216 48.061611 17.263565
v 37.450691 50.799988 11.387787
v 33.112625 52.323730 14.747955
v 22.906908 43.830231 19.203110
v 21.703962 43.814983 17.102783
v 21.010798 39.954952 20.610275
v 31.304907 54.116722 13.345619
v 31.035414 60.959988 -1.312210
v 28.411848 57.784988 3.767784
v 28.958208 52.323730 14.747955
v 31.304907 54.116722 13.345619
v 28.411848 57.784988 3.767784
v 28.958208 52.323730 14.747955
v 28.411848 57.784988 3.767784
v 24.620142 50.799988 11.387787
v 25.491621 48.061611 17.263565
v 28.958208 52.323730 14.747955
v 24.620142 50.799988 11.387787
v 20.537600 40.004990 19.642784
v 19.605413 35.559990 21.552864
v 21.010798 39.954952 20.610275
v 39.163925 43.830231 -24.346710
v 40.366867 43.814991 -22.246387
v 41.060028 39.954952 -25.753868
v 31.304907 54.116722 -18.489216
v 31.035414 60.959988 -3.831383
v 33.658981 57.784985 -8.911388
v 33.112625 52.323734 -19.891544
v 31.304907 54.116722 -18.489216
v 33.658981 57.784985 -8.911388
v 33.112625 52.323734 -19.891544
v 33.658981 57.784985 -8.911388
v 37.450691 50.799988 -16.531387
v 36.579216 48.061615 -22.407166
v 33.112625 52.323734 -19.891544
v 37.450691 50.799988 -16.531387
v 22.906908 43.830231 -24.346710
v 21.010798 39.954952 -25.753868
v 21.703962 43.814991 -22.246387
v 28.411848 57.784985 -8.911388
v 31.035414 60.959988 -3.831383
v 31.304907 54.116722 -18.489216
v 28.958208 52.323734 -19.891544
v 28.411848 57.784985 -8.911388
v 31.304907 54.116722 -18.489216
v 24.620142 50.799988 -16.531387
v 28.411848 57.784985 -8.911388
v 28.958208 52.323734 -19.891544
v 25.491621 48.061615 -22.407166
v 24.620142 50.799988 -16.531387
v 28.958208 52.323734 -19.891544
v 19.605413 35.559990 -26.696465
v 20.537600 40.004990 -24.786388
v 21.010798 39.954952 -25.753868
v 48.306915 43.830231 19.203110
v 47.103966 43.814983 17.102783
v 46.410805 39.954952 20.610275
v 56.165924 54.116722 13.345619
v 56.435417 60.959988 -1.312210
v 53.812111 57.784988 3.767784
v 54.358208 52.323730 14.747955
v 56.165924 54.116722 13.345619
v 53.812111 57.784988 3.767784
v 54.358208 52.323730 14.747955
v 53.812111 57.784988 3.767784
v 50.020142 50.799988 11.387787
v 50.891617 48.061611 17.263565
v 54.358208 52.323730 14.747955
v 50.020142 50.799988 11.387787
v 64.563927 43.830231 19.203110
v 66.460030 39.954952 20.610275
v 65.766861 43.814983 17.102783
v 59.058983 57.784988 3.767784
v 56.435417 60.959988 -1.312210
v 56.165924 54.116722 13.345619
v 58.512627 52.323730 14.747955
v 59.058983 57.784988 3.767784
v 56.165924 54.116722 13.345619
v 62.850693 50.799988 11.387787
v 59.058983 57.784988 3.767784
v 58.512627 52.323730 14.747955
v 61.979218 48.061611 17.263565
v 62.850693 50.799988 11.387787
v 58.512627 52.323730 14.747955
v 67.865417 35.559990 21.552864
v 66.933228 40.004990 19.642784
v 66.460030 39.954952 20.610275
v 48.306915 43.830231 -24.346710
v 46.410805 39.954952 -25.753868
v 47.103966 43.814991 -22.246387
v 53.812111 57.784985 -8.911388
v 56.435417 60.959988 -3.831383
v 56.165924 54.116722 -18.489216
v 54.358208 52.323734 -19.891544
v 53.812111 57.784985 -8.911388
v 56.165924 54.116722 -18.489216
v 50.020142 50.799988 -16.531387
v 53.812111 57.784985 -8.911388
v 54.358208 52.323734 -19.891544
v 50.891617 48.061615 -22.407166
v 50.020142 50.799988 -16.531387
v 54.358208 52.323734 -19.891544
v 64.563927 43.830231 -24.346710
v 65.766861 43.814991 -22.246387
v 66.460030 39.954952 -25.753868
v 56.165924 54.116722 -18.489216
v 56.435417 60.959988 -3.831383
v 59.058983 57.784985 -8.911388
v 58.512627 52.323734 -19.891544
v 56.165924 54.116722 -18.489216
v 59.058983 57.784985 -8.911388
v 58.512627 52.323734 -19.891544
v 59.058983 57.784985 -8.911388
v 62.850693 50.799988 -16.531387
v 61.979218 48.061615 -22.407166
v 58.512627 52.323734 -19.891544
v 62.850693 50.799988 -16.531387
v 66.933228 40.004990 -24.786388
v 67.865417 35.559990 -26.696465
v 66.460030 39.954952 -25.753868
v 13.763922 43.830231 19.203110
v 15.660028 39.954952 20.610275
v 14.966864 43.814983 17.102783
v 8.258982 57.784988 3.767784
v 5.635412 60.959988 -1.312210
v 5.365923 54.116722 13.345619
v 7.712622 52.323730 14.747955
v 8.258982 57.784988 3.767784
v 5.365923 54.116722 13.345619
v 12.050688 50.799988 11.387787
v 8.258982 57.784988 3.767784
v 7.712622 52.323730 14.747955
v 11.179213 48.061611 17.263565
v 12.050688 50.799988 11.387787
v 7.712622 52.323730 14.747955
v 17.065413 35.559990 21.552864
v 16.133226 40.004990 19.642784
v 15.660028 39.954952 20.610275
v -2.493095 43.830231 19.203110
v -3.696035 43.814983 17.102783
v -4.389200 39.954952 20.610275
v 5.365923 54.116722 13.345619
v 5.635412 60.959988 -1.312210
v 3.011847 57.784988 3.767784
v 3.558210 52.323730 14.747955
v 5.365923 54.116722 13.345619
v 3.011847 57.784988 3.767784
v 3.558210 52.323730 14.747955
v 3.011847 57.784988 3.767784
v -0.779860 50.799988 11.387787
v 0.091618 48.061611 17.263565
v 3.558210 52.323730 14.747955
v -0.779860 50.799988 11.387787
v -4.862406 40.004990 19.642784
v -5.794584 35.559990 21.552864
v -4.389200 39.954952 20.610275
v 13.763922 43.830231 -24.346710
v 14.966864 43.814991 -22.246387
v 15.660028 39.954952 -25.753868
v 5.365923 54.116722 -18.489216
v 5.635412 60.959988 -3.831383
v 8.258982 57.784985 -8.911388
v 7.712622 52.323734 -19.891544
v 5.365923 54.116722 -18.489216
v 8.258982 57.784985 -8.911388
v 7.712622 52.323734 -19.891544
v 8.258982 57.784985 -8.911388
v 12.050688 50.799988 -16.531387
v 11.179213 48.061615 -22.407166
v 7.712622 52.323734 -19.891544
v 12.050688 50.799988 -16.531387
v 16.133226 40.004990 -24.786388
v 17.065413 35.559990 -26.696465
v 15.660028 39.954952 -25.753868
v -2.493095 43.830231 -24.346710
v -4.389200 39.954952 -25.753868
v -3.696035 43.814991 -22.246387
v 3.011847 57.784985 -8.911388
v 5.635412 60.959988 -3.831383
v 5.365923 54.116722 -18.489216
v 3.558210 52.323734 -19.891544
v 3.011847 57.784985 -8.911388
v 5.365923 54.116722 -18.489216
v -0.779860 50.799988 -16.531387
v 3.011847 57.784985 -8.911388
v 3.558210 52.323734 -19.891544
v 0.091618 48.061615 -22.407166
v -0.779860 50.799988 -16.531387
v 3.558210 52.323734 -19.891544
v -5.794584 35.559990 -26.696465
v -4.862406 40.004990 -24.786388
v -4.389200 39.954952 -25.753868
vt 0.905273 -1.213867
vt 0.996094 -1.237305
vt 0.998047 -1.004883
vt 0.905273 -1.213867
vt 0.667969 -1.990234
vt 0.801758 -1.586914
vt 0.995117 -1.990234
vt 0.999023 -1.559570
vt 0.667969 -1.990234
vt 0.995117 -1.990234
vt 0.801758 -1.586914
vt 0.999023 -1.559570
vt 0.905273 -1.213867
vt 0.998047 -1.004883
vt 0.996094 -1.237305
vt 0.905273 -1.213867
vt 0.667969 -1.990234
vt 0.995117 -1.990234
vt 0.801758 -1.586914
vt 0.999023 -1.559570
vt 0.667969 -1.990234
vt 0.801758 -1.586914
vt 0.995117 -1.990234
vt 0.999023 -1.559570
vt 0.905273 -1.213867
vt 0.998047 -1.004883
vt 0.996094 -1.237305
vt 0.905273 -1.213867
vt 0.667969 -1.990234
vt 0.995117 -1.990234
vt 0.801758 -1.586914
vt 0.999023 -1.559570
vt 0.667969 -1.990234
vt 0.801758 -1.586914
vt 0.995117 -1.990234
vt 0.999023 -1.559570
vt 0.905273 -1.213867
vt 0.996094 -1.237305
vt 0.998047 -1.004883
vt 0.905273 -1.213867
vt 0.667969 -1.990234
vt 0.801758 -1.586914
vt 0.995117 -1.990234
vt 0.999023 -1.559570
vt 0.667969 -1.990234
vt 0.995117 -1.990234
vt 0.801758 -1.586914
vt 0.999023 -1.559570
vt 0.667969 -1.990234
vt 0.801758 -1.586914
vt 0.995117 -1.990234
vt 0.999023 -1.559570
vt 0.667969 -1.990234
vt 0.995117 -1.990234
vt 0.801758 -1.586914
vt 0.999023 -1.559570
vt 0.667969 -1.990234
vt 0.995117 -1.990234
vt 0.801758 -1.586914
vt 0.999023 -1.559570
vt 0.667969 -1.990234
vt 0.801758 -1.586914
vt 0.995117 -1.990234
vt 0.999023 -1.559570
vt 0.999023 -1.559570
vt 0.801758 -1.586914
vt 0.996094 -1.237305
vt 0.651367 0.579102
vt 0.014648 0.995117
vt 0.857422 0.995117
vt 0.003906 0.594727
vt 0.014648 0.995117
vt 0.651367 0.579102
vt 0.335938 0.005859
vt 0.003906 0.594727
vt 0.651367 0.579102
vt 0.000977 0.005859
vt 0.003906 0.594727
vt 0.335938 0.005859
vt 0.999023 -1.559570
vt 0.996094 -1.237305
vt 0.801758 -1.586914
vt 0.014648 0.995117
vt 0.651367 0.579102
vt 0.857422 0.995117
vt 0.003906 0.594727
vt 0.651367 0.579102
vt 0.014648 0.995117
vt 0.003906 0.594727
vt 0.335938 0.005859
vt 0.651367 0.579102
vt 0.000977 0.005859
vt 0.335938 0.005859
vt 0.003906 0.594727
vt 0.905273 -1.213867
vt 0.996094 -1.237305
vt 0.998047 -1.004883
vt 0.999023 -1.559570
vt 0.996094 -1.237305
vt 0.801758 -1.586914
vt 0.014648 0.995117
vt 0.651367 0.579102
vt 0.857422 0.995117
vt 0.003906 0.594727
vt 0.651367 0.579102
vt 0.014648 0.995117
vt 0.003906 0.594727
vt 0.335938 0.005859
vt 0.651367 0.579102
vt 0.000977 0.005859
vt 0.335938 0.005859
vt 0.003906 0.594727
vt 0.999023 -1.559570
vt 0.801758 -1.586914
vt 0.996094 -1.237305
vt 0.651367 0.579102
vt 0.014648 0.995117
vt 0.857422 0.995117
vt 0.003906 0.594727
vt 0.014648 0.995117
vt 0.651367 0.579102
vt 0.335938 0.005859
vt 0.003906 0.594727
vt 0.651367 0.579102
vt 0.000977 0.005859
vt 0.003906 0.594727
vt 0.335938 0.005859
vt 0.998047 -1.004883
vt 0.996094 -1.237305
vt 0.905273 -1.213867
vt 0.999023 -1.559570
vt 0.996094 -1.237305
vt 0.801758 -1.586914
vt 0.014648 0.995117
vt 0.651367 0.579102
vt 0.857422 0.995117
vt 0.003906 0.594727
vt 0.651367 0.579102
vt 0.014648 0.995117
vt 0.003906 0.594727
vt 0.335938 0.005859
vt 0.651367 0.579102
vt 0.000977 0.005859
vt 0.335938 0.005859
vt 0.003906 0.594727
vt 0.999023 -1.559570
vt 0.801758 -1.586914
vt 0.996094 -1.237305
vt 0.651367 0.579102
vt 0.014648 0.995117
vt 0.857422 0.995117
vt 0.003906 0.594727
vt 0.014648 0.995117
vt 0.651367 0.579102
vt 0.335938 0.005859
vt 0.003906 0.594727
vt 0.651367 0.579102
vt 0.000977 0.005859
vt 0.003906 0.594727
vt 0.335938 0.005859
vt 0.998047 -1.004883
vt 0.996094 -1.237305
vt 0.905273 -1.213867
vt 0.999023 -1.559570
vt 0.801758 -1.586914
vt 0.996094 -1.237305
vt 0.651367 0.579102
vt 0.014648 0.995117
vt 0.857422 0.995117
vt 0.003906 0.594727
vt 0.014648 0.995117
vt 0.651367 0.579102
vt 0.335938 0.005859
vt 0.003906 0.594727
vt 0.651367 0.579102
vt 0.000977 0.005859
vt 0.003906 0.594727
vt 0.335938 0.005859
vt 0.999023 -1.559570
vt 0.996094 -1.237305
vt 0.801758 -1.586914
vt 0.014648 0.995117
vt 0.651367 0.579102
vt 0.857422 0.995117
vt 0.003906 0.594727
vt 0.651367 0.579102
vt 0.014648 0.995117
vt 0.003906 0.594727
vt 0.335938 0.005859
vt 0.651367 0.579102
vt 0.000977 0.005859
vt 0.335938 0.005859
vt 0.003906 0.594727
vt 0.905273 -1.213867
vt 0.996094 -1.237305
vt 0.998047 -1.004883
vt 0.999023 -1.559570
vt 0.801758 -1.586914
vt 0.996094 -1.237305
vt 0.651367 0.579102
vt 0.014648 0.995117
vt 0.857422 0.995117
vt 0.003906 0.594727
vt 0.014648 0.995117
vt 0.651367 0.579102
vt 0.335938 0.005859
vt 0.003906 0.594727
vt 0.651367 0.579102
vt 0.000977 0.005859
vt 0.003906 0.594727
vt 0.335938 0.005859
vt 0.998047 -1.004883
vt 0.996094 -1.237305
vt 0.905273 -1.213867
vt 0.999023 -1.559570
vt 0.996094 -1.237305
vt 0.801758 -1.586914
vt 0.014648 0.995117
vt 0.651367 0.579102
vt 0.857422 0.995117
vt 0.003906 0.594727
vt 0.651367 0.579102
vt 0.014648 0.995117
vt 0.003906 0.594727
vt 0.335938 0.005859
vt 0.651367 0.579102
vt 0.000977 0.005859
vt 0.335938 0.005859
vt 0.003906 0.594727
vt 0.905273 -1.213867
vt 0.996094 -1.237305
vt 0.998047 -1.004883
vt 0.999023 -1.559570
vt 0.996094 -1.237305
vt 0.801758 -1.586914
vt 0.014648 0.995117
vt 0.651367 0.579102
vt 0.857422 0.995117
vt 0.003906 0.594727
vt 0.651367 0.579102
vt 0.014648 0.995117
vt 0.003906 0.594727
vt 0.335938 0.005859
vt 0.651367 0.579102
vt 0.000977 0.005859
vt 0.335938 0.005859
vt 0.003906 0.594727
vt 0.905273 -1.213867
vt 0.996094 -1.237305
vt 0.998047 -1.004883
vt 0.999023 -1.559570
vt 0.801758 -1.586914
vt 0.996094 -1.237305
vt 0.651367 0.579102
vt 0.014648 0.995117
vt 0.857422 0.995117
vt 0.003906 0.594727
vt 0.014648 0.995117
vt 0.651367 0.579102
vt 0.335938 0.005859
vt 0.003906 0.594727
vt 0.651367 0.579102
vt 0.000977 0.005859
vt 0.003906 0.594727
vt 0.335938 0.005859
vt 0.998047 -1.004883
vt 0.996094 -1.237305
vt 0.905273 -1.213867
vn -0.8403 -0.3563 -0.4085
vn -0.8316 -0.3571 -0.4252
vn -0.6958 -0.6060 -0.3856
vn -0.6936 -0.6038 -0.3929
vn 0.6958 -0.6060 -0.3856
vn 0.6946 -0.6071 -0.3860
vn 0.6989 -0.6045 -0.3822
vn 0.6952 -0.6014 -0.3938
vn 0.6902 -0.6042 -0.3982
vn 0.6936 -0.6038 -0.3929
vn -0.8403 -0.3563 0.4085
vn -0.8316 -0.3571 0.4252
vn -0.6958 -0.6060 0.3856
vn -0.6947 -0.6070 0.3859
vn -0.6989 -0.6045 0.3822
vn -0.6952 -0.6014 0.3938
vn -0.6902 -0.6042 0.3982
vn -0.6936 -0.6038 0.3929
vn 0.6958 -0.6060 0.3856
vn 0.6989 -0.6045 0.3822
vn 0.6947 -0.6070 0.3859
vn 0.6902 -0.6042 0.3982
vn 0.6952 -0.6014 0.3938
vn 0.6936 -0.6038 0.3929
vn 0.8403 -0.3563 -0.4085
vn 0.8438 -0.3578 -0.4000
vn 0.8431 -0.3473 -0.4105
vn 0.8347 -0.3486 -0.4263
vn 0.8267 -0.3594 -0.4329
vn 0.8316 -0.3571 -0.4252
vn -0.6989 -0.6045 -0.3822
vn -0.6947 -0.6070 -0.3859
vn -0.6902 -0.6042 -0.3982
vn -0.6952 -0.6014 -0.3938
vn 0.8403 -0.3563 0.4085
vn 0.8432 -0.3473 0.4105
vn 0.8438 -0.3578 0.4000
vn 0.8267 -0.3594 0.4329
vn 0.8347 -0.3486 0.4263
vn 0.8316 -0.3571 0.4252
vn -0.6946 -0.6071 -0.3860
vn 0.6947 -0.6070 -0.3859
vn -0.6946 -0.6071 0.3859
vn -0.7441 -0.5175 -0.4224
vn -0.2770 -0.8726 -0.4023
vn -0.4588 -0.7863 -0.4139
vn -0.5596 -0.7306 -0.3912
vn -0.5704 -0.7088 -0.4150
vn 0.7441 -0.5175 -0.4224
vn 0.2583 -0.8735 -0.4126
vn 0.3732 -0.8231 -0.4280
vn 0.5596 -0.7306 -0.3912
vn 0.5704 -0.7088 -0.4150
vn -0.7441 -0.5175 0.4224
vn -0.2770 -0.8726 0.4023
vn -0.4588 -0.7863 0.4139
vn -0.5596 -0.7306 0.3912
vn -0.5704 -0.7088 0.4150
vn 0.7441 -0.5175 0.4224
vn 0.2583 -0.8735 0.4126
vn 0.3732 -0.8231 0.4280
vn 0.5596 -0.7306 0.3912
vn 0.5704 -0.7088 0.4150
vn 0.2771 -0.8726 -0.4023
vn 0.4588 -0.7863 -0.4139
vn -0.2583 -0.8735 -0.4126
vn -0.3732 -0.8231 -0.4280
vn 0.2771 -0.8726 0.4023
vn 0.4588 -0.7863 0.4139
vn -0.2583 -0.8735 0.4126
vn -0.3732 -0.8231 0.4280
vn 0.2770 -0.8726 -0.4023
vn 0.2770 -0.8726 0.4023
usemtl Tex_0026_1.dds.001
s off
f 1/1/1 3/2/1 2/3/1
f 2/3/2 3/2/2 4/4/2
f 5/5/3 7/6/3 6/7/3
f 6/7/4 7/6/4 8/8/4
f 9/9/5 11/10/6 10/11/7
f 10/11/8 11/10/9 12/12/10
f 13/13/11 15/14/11 14/15/11
f 14/15/12 15/14/12 16/16/12
f 17/17/13 19/18/14 18/19/15
f 18/19/16 19/18/17 20/20/18
f 21/21/19 23/22/20 22/23/21
f 22/23/22 23/22/23 24/24/24
f 25/25/25 27/26/26 26/27/27
f 26/27/28 27/26/29 28/28/30
f 29/29/5 31/30/5 30/31/5
f 30/31/10 31/30/10 32/32/10
f 33/33/3 35/34/31 34/35/32
f 34/35/33 35/34/34 36/36/4
f 37/37/35 39/38/36 38/39/37
f 38/39/38 39/38/39 40/40/40
f 41/41/19 43/42/20 42/43/21
f 42/43/22 43/42/23 44/44/24
f 45/45/13 47/46/14 46/47/15
f 46/47/16 47/46/17 48/48/18
f 49/49/3 51/50/31 50/51/41
f 50/51/33 51/50/34 52/52/4
f 53/53/5 55/54/42 54/55/7
f 54/55/8 55/54/9 56/56/10
f 57/57/13 59/58/43 58/59/15
f 58/59/16 59/58/17 60/60/18
f 61/61/19 63/62/19 62/63/19
f 62/63/24 63/62/24 64/64/24
f 65/65/44 67/66/44 66/67/44
f 68/68/45 70/69/45 69/70/45
f 71/71/46 73/72/46 72/73/46
f 74/74/47 76/75/47 75/76/47
f 77/77/48 79/78/48 78/79/48
f 80/80/49 82/81/49 81/82/49
f 83/83/50 85/84/50 84/85/50
f 86/86/51 88/87/51 87/88/51
f 89/89/52 91/90/52 90/91/52
f 92/92/53 94/93/53 93/94/53
f 95/95/30 97/96/30 96/97/30
f 98/98/54 100/99/54 99/100/54
f 101/101/55 103/102/55 102/103/55
f 104/104/56 106/105/56 105/106/56
f 107/107/57 109/108/57 108/109/57
f 110/110/58 112/111/58 111/112/58
f 113/113/59 115/114/59 114/115/59
f 116/116/60 118/117/60 117/118/60
f 119/119/61 121/120/61 120/121/61
f 122/122/62 124/123/62 123/124/62
f 125/125/63 127/126/63 126/127/63
f 128/128/40 130/129/40 129/130/40
f 131/131/49 133/132/49 132/133/49
f 134/134/64 136/135/64 135/136/64
f 137/137/65 139/138/65 138/139/65
f 140/140/52 142/141/52 141/142/52
f 143/143/53 145/144/53 144/145/53
f 146/146/44 148/147/44 147/148/44
f 149/149/66 151/150/66 150/151/66
f 152/152/67 154/153/67 153/154/67
f 155/155/47 157/156/47 156/157/47
f 158/158/48 160/159/48 159/160/48
f 161/161/2 163/162/2 162/163/2
f 164/164/59 166/165/59 165/166/59
f 167/167/68 169/168/68 168/169/68
f 170/170/69 172/171/69 171/172/69
f 173/173/62 175/174/62 174/175/62
f 176/176/63 178/177/63 177/178/63
f 179/179/54 181/180/54 180/181/54
f 182/182/70 184/183/70 183/184/70
f 185/185/71 187/186/71 186/187/71
f 188/188/57 190/189/57 189/190/57
f 191/191/58 193/192/58 192/193/58
f 194/194/12 196/195/12 195/196/12
f 197/197/44 199/198/44 198/199/44
f 200/200/66 202/201/66 201/202/66
f 203/203/67 205/204/67 204/205/67
f 206/206/47 208/207/47 207/208/47
f 209/209/48 211/210/48 210/211/48
f 212/212/2 214/213/2 213/214/2
f 215/215/49 217/216/49 216/217/49
f 218/218/72 220/219/72 219/220/72
f 221/221/65 223/222/65 222/223/65
f 224/224/52 226/225/52 225/226/52
f 227/227/53 229/228/53 228/229/53
f 230/230/30 232/231/30 231/232/30
f 233/233/54 235/234/54 234/235/54
f 236/236/70 238/237/70 237/238/70
f 239/239/71 241/240/71 240/241/71
f 242/242/57 244/243/57 243/244/57
f 245/245/58 247/246/58 246/247/58
f 248/248/12 250/249/12 249/250/12
f 251/251/59 253/252/59 252/253/59
f 254/254/73 256/255/73 255/256/73
f 257/257/69 259/258/69 258/259/69
f 260/260/62 262/261/62 261/262/62
f 263/263/63 265/264/63 264/265/63
f 266/266/40 268/267/40 267/268/40
