# Blender v3.6.3 OBJ File: 'untitled.blend'
# www.blender.org
mtllib Mesh_0221.mtl
o Mesh_0221_Mesh.162
v 56.435417 15.518294 22.828194
v 56.435417 22.232960 22.828194
v 55.522163 17.661673 22.828194
v 55.236198 21.628897 22.828194
v 53.670418 20.375408 22.828194
v 52.839890 20.374849 22.828194
v 51.286224 21.629660 22.828194
v 50.998680 17.661673 22.828194
v 50.085419 22.232960 22.828194
v 50.085419 15.518294 22.828194
v 50.085419 15.518294 22.828194
v 50.085419 22.232960 22.828194
v 49.172165 17.661673 22.828194
v 48.886200 21.628897 22.828194
v 47.320419 20.375408 22.828194
v 46.489891 20.374849 22.828194
v 44.936218 21.629660 22.828194
v 44.648674 17.661673 22.828194
v 43.735420 22.232960 22.828194
v 43.735420 15.518294 22.828194
v 62.785416 15.518294 22.828194
v 62.785416 22.232960 22.828194
v 61.872162 17.661673 22.828194
v 61.586197 21.628897 22.828194
v 60.020416 20.375408 22.828194
v 59.189888 20.374849 22.828194
v 57.636223 21.629660 22.828194
v 57.348679 17.661673 22.828194
v 56.435417 22.232960 22.828194
v 56.435417 15.518294 22.828194
v 69.135422 15.518294 22.828194
v 69.135422 22.232960 22.828194
v 68.222160 17.661673 22.828194
v 67.936195 21.628897 22.828194
v 66.370415 20.375408 22.828194
v 65.539886 20.374849 22.828194
v 63.986221 21.629660 22.828194
v 63.698677 17.661673 22.828194
v 62.785416 22.232960 22.828194
v 62.785416 15.518294 22.828194
v 43.735420 15.518294 22.828194
v 43.735420 22.232960 22.828194
v 42.822166 17.661673 22.828194
v 42.536201 21.628897 22.828194
v 40.970413 20.375408 22.828194
v 40.139893 20.374849 22.828194
v 38.586220 21.629660 22.828194
v 38.298668 17.661673 22.828194
v 37.385422 22.232960 22.828194
v 37.385422 15.518294 22.828194
v 37.385422 15.518294 22.828194
v 37.385422 22.232960 22.828194
v 36.472160 17.661673 22.828194
v 36.186203 21.628897 22.828194
v 34.620422 20.375408 22.828194
v 33.789886 20.374849 22.828194
v 32.236221 21.629660 22.828194
v 31.948668 17.661673 22.828194
v 31.035414 22.232960 22.828194
v 31.035414 15.518294 22.828194
v 31.035414 15.518294 22.828194
v 31.035414 22.232960 22.828194
v 30.122164 17.661673 22.828194
v 29.836199 21.628897 22.828194
v 28.270418 20.375408 22.828194
v 27.439890 20.374849 22.828194
v 25.886225 21.629660 22.828194
v 25.598669 17.661673 22.828194
v 24.685415 22.232960 22.828194
v 24.685415 15.518294 22.828194
v 24.685415 15.518294 22.828194
v 24.685415 22.232960 22.828194
v 23.772161 17.661673 22.828194
v 23.486197 21.628897 22.828194
v 21.920420 20.375408 22.828194
v 21.089891 20.374849 22.828194
v 19.536226 21.629660 22.828194
v 19.248671 17.661673 22.828194
v 18.335413 22.232960 22.828194
v 18.335413 15.518294 22.828194
v 11.985411 15.518294 22.828194
v 11.985411 22.232960 22.828194
v 11.072165 17.661673 22.828194
v 10.786200 21.628897 22.828194
v 9.220419 20.375408 22.828194
v 8.389891 20.374849 22.828194
v 6.836226 21.629660 22.828194
v 6.548670 17.661673 22.828194
v 5.635412 22.232960 22.828194
v 5.635412 15.518294 22.828194
v 18.335413 15.518294 22.828194
v 18.335413 22.232960 22.828194
v 17.422163 17.661673 22.828194
v 17.136198 21.628897 22.828194
v 15.570421 20.375408 22.828194
v 14.739893 20.374849 22.828194
v 13.186224 21.629660 22.828194
v 12.898668 17.661673 22.828194
v 11.985411 22.232960 22.828194
v 11.985411 15.518294 22.828194
v 5.635412 15.518294 22.828194
v 5.635412 22.232960 22.828194
v 4.722162 17.661673 22.828194
v 4.436201 21.628897 22.828194
v 2.870420 20.375408 22.828194
v 2.039892 20.374849 22.828194
v 0.486225 21.629660 22.828194
v 0.198669 17.661673 22.828194
v -0.714584 22.232960 22.828194
v -0.714584 15.518294 22.828194
v -0.714584 15.518294 22.828194
v -0.714584 22.232960 22.828194
v -1.627836 17.661673 22.828194
v -1.913801 21.628897 22.828194
v -3.479580 20.375408 22.828194
v -4.310108 20.374849 22.828194
v -5.863773 21.629660 22.828194
v -6.151327 17.661673 22.828194
v -7.064585 22.232960 22.828194
v -7.064585 15.518294 22.828194
vt -0.495117 -0.999023
vt -0.327148 -0.679688
vt -0.495117 0.000000
vt -0.275391 -0.089844
vt 0.003906 -0.276367
vt 0.003906 -0.276367
vt 0.338867 -0.679688
vt 0.287109 -0.088867
vt 0.503906 0.000000
vt 0.503906 -0.999023
vt -0.495117 -0.999023
vt -0.327148 -0.679688
vt -0.495117 0.000000
vt -0.275391 -0.089844
vt 0.003906 -0.276367
vt 0.003906 -0.276367
vt 0.338867 -0.679688
vt 0.287109 -0.088867
vt 0.503906 0.000000
vt 0.503906 -0.999023
vt -0.495117 -0.999023
vt -0.327148 -0.679688
vt -0.495117 0.000000
vt -0.275391 -0.089844
vt 0.003906 -0.276367
vt 0.003906 -0.276367
vt 0.338867 -0.679688
vt 0.287109 -0.088867
vt 0.503906 0.000000
vt 0.503906 -0.999023
vt -0.495117 -0.999023
vt -0.327148 -0.679688
vt -0.495117 0.000000
vt -0.275391 -0.089844
vt 0.003906 -0.276367
vt 0.003906 -0.276367
vt 0.338867 -0.679688
vt 0.287109 -0.088867
vt 0.503906 0.000000
vt 0.503906 -0.999023
vt -0.495117 -0.999023
vt -0.327148 -0.679688
vt -0.495117 0.000000
vt -0.275391 -0.089844
vt 0.003906 -0.276367
vt 0.003906 -0.276367
vt 0.338867 -0.679688
vt 0.287109 -0.088867
vt 0.503906 0.000000
vt 0.503906 -0.999023
vt -0.495117 -0.999023
vt -0.327148 -0.679688
vt -0.495117 0.000000
vt -0.275391 -0.089844
vt 0.003906 -0.276367
vt 0.003906 -0.276367
vt 0.338867 -0.679688
vt 0.287109 -0.088867
vt 0.503906 0.000000
vt 0.503906 -0.999023
vt -0.495117 -0.999023
vt -0.327148 -0.679688
vt -0.495117 0.000000
vt -0.275391 -0.089844
vt 0.003906 -0.276367
vt 0.003906 -0.276367
vt 0.338867 -0.679688
vt 0.287109 -0.088867
vt 0.503906 0.000000
vt 0.503906 -0.999023
vt -0.495117 -0.999023
vt -0.327148 -0.679688
vt -0.495117 0.000000
vt -0.275391 -0.089844
vt 0.003906 -0.276367
vt 0.003906 -0.276367
vt 0.338867 -0.679688
vt 0.287109 -0.088867
vt 0.503906 0.000000
vt 0.503906 -0.999023
vt -0.495117 -0.999023
vt -0.327148 -0.679688
vt -0.495117 0.000000
vt -0.275391 -0.089844
vt 0.003906 -0.276367
vt 0.003906 -0.276367
vt 0.338867 -0.679688
vt 0.287109 -0.088867
vt 0.503906 0.000000
vt 0.503906 -0.999023
vt -0.495117 -0.999023
vt -0.327148 -0.679688
vt -0.495117 0.000000
vt -0.275391 -0.089844
vt 0.003906 -0.276367
vt 0.003906 -0.276367
vt 0.338867 -0.679688
vt 0.287109 -0.088867
vt 0.503906 0.000000
vt 0.503906 -0.999023
vt -0.495117 -0.999023
vt -0.327148 -0.679688
vt -0.495117 0.000000
vt -0.275391 -0.089844
vt 0.003906 -0.276367
vt 0.003906 -0.276367
vt 0.338867 -0.679688
vt 0.287109 -0.088867
vt 0.503906 0.000000
vt 0.503906 -0.999023
vt -0.495117 -0.999023
vt -0.327148 -0.679688
vt -0.495117 0.000000
vt -0.275391 -0.089844
vt 0.003906 -0.276367
vt 0.003906 -0.276367
vt 0.338867 -0.679688
vt 0.287109 -0.088867
vt 0.503906 0.000000
vt 0.503906 -0.999023
vn -0.0000 0.0000 -1.0000
usemtl Tex_0062_1.dds.001
s off
f 1/1/1 3/2/1 2/3/1
f 2/3/1 3/2/1 4/4/1
f 3/2/1 5/5/1 4/4/1
f 6/6/1 8/7/1 7/8/1
f 7/8/1 8/7/1 9/9/1
f 8/7/1 10/10/1 9/9/1
f 11/11/1 13/12/1 12/13/1
f 12/13/1 13/12/1 14/14/1
f 13/12/1 15/15/1 14/14/1
f 16/16/1 18/17/1 17/18/1
f 17/18/1 18/17/1 19/19/1
f 18/17/1 20/20/1 19/19/1
f 21/21/1 23/22/1 22/23/1
f 22/23/1 23/22/1 24/24/1
f 23/22/1 25/25/1 24/24/1
f 26/26/1 28/27/1 27/28/1
f 27/28/1 28/27/1 29/29/1
f 28/27/1 30/30/1 29/29/1
f 31/31/1 33/32/1 32/33/1
f 32/33/1 33/32/1 34/34/1
f 33/32/1 35/35/1 34/34/1
f 36/36/1 38/37/1 37/38/1
f 37/38/1 38/37/1 39/39/1
f 38/37/1 40/40/1 39/39/1
f 41/41/1 43/42/1 42/43/1
f 42/43/1 43/42/1 44/44/1
f 43/42/1 45/45/1 44/44/1
f 46/46/1 48/47/1 47/48/1
f 47/48/1 48/47/1 49/49/1
f 48/47/1 50/50/1 49/49/1
f 51/51/1 53/52/1 52/53/1
f 52/53/1 53/52/1 54/54/1
f 53/52/1 55/55/1 54/54/1
f 56/56/1 58/57/1 57/58/1
f 57/58/1 58/57/1 59/59/1
f 58/57/1 60/60/1 59/59/1
f 61/61/1 63/62/1 62/63/1
f 62/63/1 63/62/1 64/64/1
f 63/62/1 65/65/1 64/64/1
f 66/66/1 68/67/1 67/68/1
f 67/68/1 68/67/1 69/69/1
f 68/67/1 70/70/1 69/69/1
f 71/71/1 73/72/1 72/73/1
f 72/73/1 73/72/1 74/74/1
f 73/72/1 75/75/1 74/74/1
f 76/76/1 78/77/1 77/78/1
f 77/78/1 78/77/1 79/79/1
f 78/77/1 80/80/1 79/79/1
f 81/81/1 83/82/1 82/83/1
f 82/83/1 83/82/1 84/84/1
f 83/82/1 85/85/1 84/84/1
f 86/86/1 88/87/1 87/88/1
f 87/88/1 88/87/1 89/89/1
f 88/87/1 90/90/1 89/89/1
f 91/91/1 93/92/1 92/93/1
f 92/93/1 93/92/1 94/94/1
f 93/92/1 95/95/1 94/94/1
f 96/96/1 98/97/1 97/98/1
f 97/98/1 98/97/1 99/99/1
f 98/97/1 100/100/1 99/99/1
f 101/101/1 103/102/1 102/103/1
f 102/103/1 103/102/1 104/104/1
f 103/102/1 105/105/1 104/104/1
f 106/106/1 108/107/1 107/108/1
f 107/108/1 108/107/1 109/109/1
f 108/107/1 110/110/1 109/109/1
f 111/111/1 113/112/1 112/113/1
f 112/113/1 113/112/1 114/114/1
f 113/112/1 115/115/1 114/114/1
f 116/116/1 118/117/1 117/118/1
f 117/118/1 118/117/1 119/119/1
f 118/117/1 120/120/1 119/119/1
