# Blender v3.6.3 OBJ File: 'untitled.blend'
# www.blender.org
mtllib Mesh_0279.mtl
o Mesh_0279_Mesh.186
v -19.764584 9.677493 -16.080570
v -19.764584 9.114781 -16.759483
v -19.764584 9.114781 -13.784130
v -19.764584 8.340081 -17.272892
v -19.764584 8.340080 -13.270706
v -19.764584 7.354358 -17.568115
v -19.764584 7.354358 -12.975487
v -19.764584 2.063742 -17.568115
v -19.764584 2.063742 -12.975487
v -19.764584 9.677493 -21.160568
v -19.764584 9.114781 -21.839481
v -19.764584 9.114780 -18.864132
v -19.764584 8.340081 -22.352894
v -19.764584 8.340080 -18.350704
v -19.764584 7.354358 -22.648117
v -19.764584 7.354359 -18.055485
v -19.764584 2.063742 -22.648117
v -19.764584 2.063742 -18.055485
v -19.764584 9.114781 -13.784130
v -19.764584 9.677493 -14.463055
v -19.764584 9.677493 -16.080570
v -19.764584 10.067332 -15.271805
v -19.764584 2.063742 -12.416199
v -19.764584 2.063742 -10.441395
v -19.764584 10.159990 -12.416199
v -19.764584 10.159991 -10.441395
v -19.764584 9.114780 -18.864132
v -19.764584 9.677493 -19.543053
v -19.764584 9.677493 -21.160568
v -19.764584 10.067332 -20.351807
vt -0.675781 0.153320
vt -0.134766 0.051758
vt -0.836914 0.051758
vt -0.958008 -0.087891
vt 0.003906 -0.087891
vt -1.028320 -0.265625
vt 0.057617 -0.265625
vt -1.028320 -1.222656
vt 0.046875 -1.222656
vt -0.675781 0.153320
vt -0.134766 0.051758
vt -0.836914 0.051758
vt -0.958008 -0.087891
vt 0.003906 -0.087891
vt -1.028320 -0.265625
vt 0.057617 -0.265625
vt -1.028320 -1.222656
vt 0.046875 -1.222656
vt -0.134766 0.051758
vt -0.675781 0.153320
vt -0.307617 0.153320
vt -0.498047 0.223633
vt 2.872070 -0.596680
vt 2.872070 1.000000
vt 2.392578 -0.596680
vt 2.392578 1.000000
vt -0.134766 0.051758
vt -0.675781 0.153320
vt -0.307617 0.153320
vt -0.498047 0.223633
vn 1.0000 0.0000 0.0000
usemtl Tex_0031_1.dds.013
s off
f 1/1/1 3/2/1 2/3/1
f 2/3/1 3/2/1 4/4/1
f 3/2/1 5/5/1 4/4/1
f 4/4/1 5/5/1 6/6/1
f 5/5/1 7/7/1 6/6/1
f 6/6/1 7/7/1 8/8/1
f 7/7/1 9/9/1 8/8/1
f 10/10/1 12/11/1 11/12/1
f 11/12/1 12/11/1 13/13/1
f 12/11/1 14/14/1 13/13/1
f 13/13/1 14/14/1 15/15/1
f 14/14/1 16/16/1 15/15/1
f 15/15/1 16/16/1 17/17/1
f 16/16/1 18/18/1 17/17/1
f 19/19/1 21/20/1 20/21/1
f 20/21/1 21/20/1 22/22/1
f 23/23/1 25/24/1 24/25/1
f 24/25/1 25/24/1 26/26/1
f 27/27/1 29/28/1 28/29/1
f 28/29/1 29/28/1 30/30/1
