# Blender v3.6.3 OBJ File: 'untitled.blend'
# www.blender.org
mtllib Mesh_0263.mtl
o Mesh_0263_Mesh.070
v -7.064585 25.399984 22.828278
v -9.604574 25.399984 22.828217
v -7.064585 25.145985 22.317490
v -10.115376 25.146017 22.317360
v -9.861368 24.892046 22.571487
v -9.861368 23.368000 22.571480
v -10.239567 23.113953 22.193230
v -7.064585 23.113985 22.193283
v -9.982805 22.859985 22.449997
v -7.064585 22.859985 22.443214
v -9.861357 24.892107 22.828201
v -9.861368 24.892046 22.571487
v -10.115372 25.146046 22.828201
v -10.115376 25.146017 22.317360
v -9.604574 25.399984 22.828217
v -9.982805 22.859985 22.449997
v -10.239567 23.113953 22.193230
v -10.239548 23.113922 22.828194
v -9.861368 23.368000 22.571480
v -9.861368 23.368017 22.828194
v -22.304585 25.399984 22.828278
v -22.304585 25.145985 22.317490
v -19.764584 25.399984 22.828217
v -19.253788 25.146017 22.317360
v -19.253788 25.146017 22.317360
v -22.304585 25.145985 22.317490
v -19.507786 24.892046 22.571487
v -22.304585 24.891985 22.571495
v -19.129585 23.113953 22.193230
v -19.507786 23.368000 22.571480
v -22.304585 23.113985 22.193283
v -22.304585 23.367985 22.571487
v -19.129585 23.113953 22.193230
v -22.304585 23.113985 22.193283
v -19.386375 22.859985 22.449997
v -22.304585 22.859985 22.443214
v -22.304585 22.859985 22.443214
v -22.304585 22.859985 22.828278
v -19.386375 22.859985 22.449997
v -19.763351 22.859985 22.828232
v -19.507786 23.368000 22.571480
v -19.507769 23.368017 22.828194
v -19.507786 24.892046 22.571487
v -19.507782 24.892107 22.828201
v -19.253788 25.146017 22.317360
v -19.507786 24.892046 22.571487
v -19.253784 25.146046 22.828201
v -19.507782 24.892107 22.828201
v -19.129585 23.113953 22.193230
v -19.386375 22.859985 22.449997
v -19.129585 23.113922 22.828194
v -19.385899 22.859985 22.828194
v -19.129585 23.113953 22.193230
v -19.129585 23.113922 22.828194
v -19.507786 23.368000 22.571480
v -19.507769 23.368017 22.828194
v -7.064585 22.859985 22.443214
v -9.982805 22.859985 22.449997
v -7.064585 22.859985 22.828278
v -9.605799 22.859985 22.828232
v -9.861357 24.892107 22.828201
v -9.861368 23.368017 22.828194
v -9.861368 24.892046 22.571487
v -9.861368 23.368000 22.571480
v -19.253784 25.146046 22.828201
v -19.764584 25.399984 22.828217
v -19.253788 25.146017 22.317360
v -19.386375 22.859985 22.449997
v -19.763351 22.859985 22.828232
v -19.385899 22.859985 22.828194
v -9.861368 24.892046 22.571487
v -7.064585 24.891985 22.571495
v -7.064585 25.145985 22.317490
v -7.064585 23.113985 22.193283
v -7.064585 23.367985 22.571487
v -9.861368 23.368000 22.571480
v -9.982805 22.859985 22.449997
v -10.239548 23.113922 22.828194
v -9.983294 22.859985 22.828194
v -9.982805 22.859985 22.449997
v -9.983294 22.859985 22.828194
v -9.605799 22.859985 22.828232
vt -2.996094 0.032227
vt -2.996094 -0.081055
vt -1.997070 0.032227
vt -1.682617 -0.081055
vt -1.997070 -0.177734
vt -1.997070 -0.945312
vt -2.996094 -1.071289
vt -1.783203 -1.071289
vt -1.997070 -1.184570
vt -2.996094 -1.184570
vt -2.947266 -0.177734
vt -2.904297 -0.081055
vt -2.996094 -0.177734
vt -2.996094 -0.081055
vt -2.996094 0.032227
vt -2.996094 -1.184570
vt -2.884766 -1.071289
vt -2.996094 -1.071289
vt -2.996094 -0.945312
vt -2.947266 -0.945312
vt -2.996094 0.032227
vt -1.997070 0.032227
vt -2.996094 -0.081055
vt -1.682617 -0.081055
vt -1.682617 -0.081055
vt -1.997070 -0.177734
vt -2.996094 -0.081055
vt -2.996094 -0.177734
vt -1.783203 -1.071289
vt -2.996094 -1.071289
vt -1.997070 -0.945312
vt -2.996094 -0.945312
vt -1.783203 -1.071289
vt -1.997070 -1.184570
vt -2.996094 -1.071289
vt -2.996094 -1.184570
vt 2.030273 -1.087891
vt 3.029297 -1.085938
vt 2.030273 -1.137695
vt 3.029297 -1.135742
vt 1.999023 -0.942383
vt 1.999023 -0.155273
vt 2.094727 -0.942383
vt 2.094727 -0.155273
vt -2.996094 -0.081055
vt -2.904297 -0.081055
vt -2.996094 -0.177734
vt -2.947266 -0.177734
vt -2.996094 -1.071289
vt -2.884766 -1.071289
vt -2.996094 -1.184570
vt -2.926758 -1.184570
vt -2.996094 -1.071289
vt -2.996094 -0.945312
vt -2.884766 -1.071289
vt -2.947266 -0.945312
vt 2.030273 -1.087891
vt 2.030273 -1.137695
vt 3.029297 -1.085938
vt 3.029297 -1.135742
vt 2.094727 -0.155273
vt 1.999023 -0.155273
vt 2.094727 -0.942383
vt 1.999023 -0.942383
vt -2.904297 -0.081055
vt -2.996094 -0.081055
vt -2.996094 0.032227
vt 2.030273 -1.087891
vt 2.099609 -1.087891
vt 2.030273 -1.136719
vt -1.997070 -0.177734
vt -2.996094 -0.081055
vt -2.996094 -0.177734
vt -2.996094 -1.071289
vt -1.997070 -0.945312
vt -2.996094 -0.945312
vt -2.996094 -1.184570
vt -2.926758 -1.184570
vt -2.884766 -1.071289
vt 2.030273 -1.087891
vt 2.030273 -1.136719
vt 2.099609 -1.087891
vn 0.0000 0.8954 -0.4453
vn 0.0899 0.8826 -0.4614
vn 0.0000 0.8954 -0.4452
vn -0.6411 0.7117 0.2871
vn 0.1240 -0.5197 0.8453
vn 0.0000 -0.7073 -0.7069
vn -0.6182 -0.7710 -0.1527
vn 0.0000 0.8301 -0.5576
vn 0.1586 0.4786 0.8636
vn -0.6191 0.7795 0.0955
vn -0.6043 -0.7792 -0.1664
vn 0.0126 -0.7865 -0.6174
vn 0.0007 -0.7106 -0.7036
vn 0.0989 -0.6889 -0.7180
vn -0.0017 -0.7014 -0.7128
vn -0.0017 -0.6921 -0.7218
vn -0.7070 -0.7072 0.0002
vn -0.6302 0.5166 0.5796
vn -0.7071 -0.7071 0.0000
vn -0.1528 -0.7712 -0.6180
vn -0.4093 0.8231 0.3937
vn -0.4452 0.8954 -0.0000
vn 0.2871 0.7118 -0.6410
vn -0.7032 -0.7110 -0.0000
vn 0.2956 -0.6881 0.6627
vn -0.1665 -0.7792 -0.6043
vn 0.0954 0.7796 -0.6190
vn -0.3036 0.8621 0.4058
vn -0.5576 0.8301 0.0001
vn -0.8303 0.5083 0.2285
vn -0.5577 0.8300 -0.0001
vn 0.0000 -0.7071 -0.7071
vn -0.0000 0.8302 -0.5575
vn -0.0000 -0.7110 -0.7032
vn -0.0006 -0.7106 -0.7035
vn -0.0000 -0.7197 -0.6943
vn 0.0028 -0.7014 -0.7128
vn 0.0017 -0.6922 -0.7217
vn 0.0017 -0.7014 -0.7128
vn 0.0000 -1.0000 0.0000
vn 1.0000 -0.0000 -0.0001
vn 1.0000 0.0000 -0.0000
vn 0.7071 -0.7071 0.0000
vn 0.7070 -0.7072 0.0002
vn 0.7032 -0.7110 -0.0000
vn 0.7028 -0.7114 -0.0000
vn 0.7033 -0.7109 0.0002
vn 0.7043 -0.7099 -0.0009
vn 0.7038 -0.7104 -0.0015
vn 0.7038 -0.7104 -0.0009
vn 0.5576 0.8301 0.0000
vn 0.5577 0.8300 -0.0001
vn -1.0000 0.0000 0.0000
vn 0.4452 0.8955 -0.0001
vn -0.7039 -0.7103 -0.0009
usemtl Tex_0052_0.dds.004
s off
f 1/1/1 3/2/2 2/3/1
f 2/3/3 3/2/3 4/4/4
f 3/2/5 5/5/6 4/4/7
f 6/6/8 8/7/9 7/8/10
f 7/8/11 8/7/12 9/9/13
f 8/7/14 10/10/15 9/9/16
f 11/11/17 13/12/18 12/13/17
f 12/13/19 13/12/19 14/14/20
f 13/12/21 15/15/22 14/14/23
f 16/16/24 18/17/25 17/18/26
f 17/18/27 18/17/28 19/19/29
f 18/17/30 20/20/31 19/19/31
f 21/21/1 23/22/1 22/23/1
f 22/23/3 23/22/3 24/24/3
f 25/25/6 27/26/6 26/27/6
f 26/27/32 27/26/32 28/28/32
f 29/29/8 31/30/8 30/31/8
f 30/31/33 31/30/33 32/32/33
f 33/33/34 35/34/35 34/35/36
f 34/35/37 35/34/38 36/36/39
f 37/37/40 39/38/40 38/39/40
f 38/39/40 39/38/40 40/40/40
f 41/41/41 43/42/41 42/43/41
f 42/43/42 43/42/42 44/44/42
f 45/45/43 47/46/43 46/47/43
f 46/47/44 47/46/44 48/48/44
f 49/49/45 51/50/46 50/51/47
f 50/51/48 51/50/49 52/52/50
f 53/53/51 55/54/51 54/55/51
f 54/55/52 55/54/52 56/56/52
f 57/57/40 59/58/40 58/59/40
f 58/59/40 59/58/40 60/60/40
f 61/61/53 63/62/53 62/63/53
f 62/63/53 63/62/53 64/64/53
f 65/65/54 67/66/54 66/67/54
f 68/68/40 70/69/40 69/70/40
f 71/71/32 73/72/32 72/73/32
f 74/74/33 76/75/33 75/76/33
f 77/77/55 79/78/55 78/79/55
f 80/80/40 82/81/40 81/82/40
