# Blender v3.6.3 OBJ File: 'untitled.blend'
# www.blender.org
mtllib Mesh_0370.mtl
o Mesh_0370_Mesh.221
v -39.770561 9.842179 38.068192
v -39.770561 17.942036 38.068192
v -35.322083 12.025435 38.068192
v -35.322083 20.180765 38.068192
v -44.850574 7.302169 38.068192
v -44.850574 15.402035 38.068192
v -40.402084 9.485435 38.068192
v -40.402084 17.640768 38.068192
v -49.930561 4.762180 38.068192
v -49.930561 12.862035 38.068192
v -45.482082 6.945436 38.068192
v -45.482082 15.100765 38.068192
v -55.010574 2.222169 38.068192
v -55.010574 10.322036 38.068192
v -50.562080 4.405436 38.068192
v -50.562080 12.560766 38.068192
vt 0.999023 -1.666016
vt 0.000000 -1.172852
vt 0.999023 0.162109
vt 0.000000 0.666992
vt 0.999023 -1.666016
vt 0.000000 -1.172852
vt 0.999023 0.162109
vt 0.000000 0.666992
vt 0.999023 -1.666016
vt 0.000000 -1.172852
vt 0.999023 0.162109
vt 0.000000 0.666992
vt 0.999023 -1.666016
vt 0.000000 -1.172852
vt 0.999023 0.162109
vt 0.000000 0.666992
vn 0.0000 0.0000 1.0000
usemtl Tex_0031_1.dds.021
s off
f 1/1/1 3/2/1 2/3/1
f 2/3/1 3/2/1 4/4/1
f 5/5/1 7/6/1 6/7/1
f 6/7/1 7/6/1 8/8/1
f 9/9/1 11/10/1 10/11/1
f 10/11/1 11/10/1 12/12/1
f 13/13/1 15/14/1 14/15/1
f 14/15/1 15/14/1 16/16/1
