# Blender v3.6.3 OBJ File: 'untitled.blend'
# www.blender.org
mtllib Mesh_0202.mtl
o Mesh_0202_Mesh.040
v -22.949818 41.861221 5.028137
v -22.949814 41.925732 5.791473
v -22.936607 41.991776 4.304512
v -22.962513 42.248062 6.979996
v -22.936605 43.086262 4.168091
v -22.962513 43.690781 6.817436
v -22.936602 44.547268 3.656815
v -22.962513 45.726337 6.105141
v -22.936605 45.858166 2.833168
v -22.962513 47.552345 4.957779
v -22.936607 46.952904 1.738533
v -22.962515 49.077366 3.432838
v -22.949810 49.147720 -2.885155
v -22.949810 49.910984 -2.949753
v -22.936602 48.424065 -3.015892
v -22.962513 51.099709 -3.271973
v -22.936605 48.287670 -4.110146
v -22.962513 50.937149 -4.714821
v -22.936605 47.776375 -5.571335
v -22.962513 50.224678 -6.750404
v -22.936605 46.952904 -6.882126
v -22.962513 49.077358 -8.576439
v -22.936605 45.858166 -7.976765
v -22.962511 47.552341 -10.101376
v -22.949814 41.234341 -10.171730
v -22.949812 41.169838 -10.935081
v -22.936605 41.103790 -9.448109
v -22.962513 40.847763 -12.123600
v -22.936607 40.009556 -9.311691
v -22.962515 39.404789 -11.961037
v -22.936607 38.548290 -8.800411
v -22.962515 37.369232 -11.248764
v -22.936607 37.237404 -7.976788
v -22.962515 35.543221 -10.101376
v -22.936607 36.142921 -6.882133
v -22.962515 34.018204 -8.576439
v -22.949812 33.947861 -2.258438
v -22.949812 33.184586 -2.193848
v -22.936605 34.671501 -2.127708
v -22.962513 31.996111 -1.871620
v -22.936605 34.807896 -1.033447
v -22.962513 32.158676 -0.428780
v -22.936607 35.319199 0.427742
v -22.962515 32.870895 1.606804
v -22.936607 36.142921 1.738533
v -22.962513 34.018211 3.432831
v -22.936602 37.237404 2.833168
v -22.962511 35.543221 4.957779
v -22.936607 46.952904 1.738533
v -22.962515 49.077366 3.432838
v -22.936607 47.776375 0.427742
v -22.962513 50.224678 1.606804
v -22.936600 48.287670 -1.033470
v -22.962509 50.937145 -0.428780
v -22.962509 51.099709 -1.871620
v -22.936605 45.858166 -7.976765
v -22.962511 47.552341 -10.101376
v -22.936602 44.547268 -8.800411
v -22.962513 45.726337 -11.248745
v -22.936604 43.086258 -9.311691
v -22.962513 43.690781 -11.961037
v -22.962513 42.248062 -12.123600
v -22.936607 36.142921 -6.882133
v -22.962515 34.018204 -8.576439
v -22.936607 35.319199 -5.571342
v -22.962513 32.870892 -6.750404
v -22.936607 34.807892 -4.110123
v -22.962513 32.158672 -4.714828
v -22.962513 31.996111 -3.271973
v -22.936602 37.237404 2.833168
v -22.962511 35.543221 4.957779
v -22.936605 38.548298 3.656815
v -22.962509 37.369232 6.105141
v -22.936604 40.009560 4.168091
v -22.962513 39.404785 6.817436
v -22.962517 40.847763 6.979996
v -22.936600 48.287670 -1.033470
v -22.962509 51.099709 -1.871620
v -22.936602 48.423058 -2.133141
v -22.949812 49.910988 -2.193825
v -22.949814 49.147720 -2.258438
v -22.936604 43.086258 -9.311691
v -22.962513 42.248062 -12.123600
v -22.936607 41.986439 -9.446995
v -22.949818 41.925743 -10.935108
v -22.949818 41.861217 -10.171730
v -22.936607 34.807892 -4.110123
v -22.962513 31.996111 -3.271973
v -22.936607 34.672512 -3.010483
v -22.949818 33.184586 -2.949783
v -22.949825 33.947861 -2.885155
v -22.936604 40.009560 4.168091
v -22.962517 40.847763 6.979996
v -22.936607 41.109127 4.303391
v -22.949814 41.169838 5.791512
v -22.949814 41.234352 5.028137
vt 0.036377 -0.748901
vt 0.083496 -0.924011
vt 0.004944 -0.529907
vt 0.009521 -0.185059
vt 0.217102 -0.817383
vt 0.145691 -0.078918
vt 0.438965 -0.754272
vt 0.440186 -0.007507
vt 0.653687 -0.817932
vt 0.725647 -0.086060
vt 0.862488 -0.993103
vt 0.999939 -0.315674
vt 0.036377 -0.748901
vt 0.083496 -0.924011
vt 0.004944 -0.529907
vt 0.009521 -0.185059
vt 0.217102 -0.817383
vt 0.145691 -0.078918
vt 0.438965 -0.754272
vt 0.440186 -0.007507
vt 0.653687 -0.817932
vt 0.725647 -0.086060
vt 0.862488 -0.993103
vt 0.999939 -0.315674
vt 0.036377 -0.748901
vt 0.083496 -0.924011
vt 0.004944 -0.529907
vt 0.009521 -0.185059
vt 0.217102 -0.817383
vt 0.145691 -0.078918
vt 0.438965 -0.754272
vt 0.440186 -0.007507
vt 0.653687 -0.817932
vt 0.725647 -0.086060
vt 0.862488 -0.993103
vt 0.999939 -0.315674
vt 0.036377 -0.748901
vt 0.083496 -0.924011
vt 0.004944 -0.529907
vt 0.009521 -0.185059
vt 0.217102 -0.817383
vt 0.145691 -0.078918
vt 0.438965 -0.754272
vt 0.440186 -0.007507
vt 0.653687 -0.817932
vt 0.725647 -0.086060
vt 0.862488 -0.993103
vt 0.999939 -0.315674
vt 0.653687 -0.817932
vt 0.438965 -0.754272
vt 0.725647 -0.086060
vt 0.440186 -0.007507
vt 0.217102 -0.817383
vt 0.145691 -0.078918
vt 0.009521 -0.185059
vt 0.653687 -0.817932
vt 0.438965 -0.754272
vt 0.725647 -0.086060
vt 0.440186 -0.007507
vt 0.217102 -0.817383
vt 0.145691 -0.078918
vt 0.009521 -0.185059
vt 0.653687 -0.817932
vt 0.438965 -0.754272
vt 0.725647 -0.086060
vt 0.440186 -0.007507
vt 0.217102 -0.817383
vt 0.145691 -0.078918
vt 0.009521 -0.185059
vt 0.653687 -0.817932
vt 0.438965 -0.754272
vt 0.725647 -0.086060
vt 0.440186 -0.007507
vt 0.217102 -0.817383
vt 0.145691 -0.078918
vt 0.009521 -0.185059
vt 0.217102 -0.817383
vt 0.083496 -0.924011
vt 0.009521 -0.185059
vt 0.004944 -0.529907
vt 0.036377 -0.748901
vt 0.217102 -0.817383
vt 0.083496 -0.924011
vt 0.009521 -0.185059
vt 0.004944 -0.529907
vt 0.036377 -0.748901
vt 0.217102 -0.817383
vt 0.083496 -0.924011
vt 0.009521 -0.185059
vt 0.004944 -0.529907
vt 0.036377 -0.748901
vt 0.217102 -0.817383
vt 0.083496 -0.924011
vt 0.009521 -0.185059
vt 0.004944 -0.529907
vt 0.036377 -0.748901
vn 0.9976 -0.0688 0.0058
vn 0.9912 -0.1322 -0.0052
vn 0.9999 0.0057 0.0091
vn 0.9999 0.0088 0.0083
vn 1.0000 -0.0003 0.0044
vn 1.0000 0.0017 0.0084
vn 1.0000 -0.0001 0.0092
vn 1.0000 0.0011 0.0095
vn 0.9999 0.0012 0.0106
vn 1.0000 0.0029 0.0083
vn 1.0000 0.0035 0.0082
vn 0.9999 0.0042 0.0093
vn 0.9999 0.0030 0.0100
vn 1.0000 0.0023 0.0088
vn 1.0000 0.0033 0.0094
vn 1.0000 0.0046 0.0073
vn 1.0000 0.0053 0.0068
vn 0.9999 0.0067 0.0082
vn 1.0000 0.0051 0.0081
vn 0.9999 0.0056 0.0089
vn 1.0000 0.0062 0.0062
vn 1.0000 0.0068 0.0068
vn 0.9999 0.0078 0.0066
vn 0.9999 0.0071 0.0077
vn 0.9976 0.0058 0.0686
vn 0.9912 -0.0053 0.1326
vn 0.9902 0.0118 0.1392
vn 0.9999 0.0100 -0.0025
vn 0.9999 0.0088 -0.0149
vn 0.9999 0.0080 -0.0098
vn 1.0000 0.0051 0.0001
vn 1.0000 0.0087 -0.0016
vn 1.0000 0.0094 -0.0009
vn 1.0000 0.0090 -0.0012
vn 1.0000 0.0092 0.0000
vn 0.9999 0.0101 -0.0011
vn 1.0000 0.0081 -0.0029
vn 1.0000 0.0078 -0.0037
vn 0.9999 0.0095 -0.0047
vn 1.0000 0.0091 -0.0032
vn 0.9999 0.0100 -0.0035
vn 1.0000 0.0075 -0.0047
vn 1.0000 0.0071 -0.0053
vn 0.9999 0.0082 -0.0062
vn 0.9999 0.0092 -0.0052
vn 1.0000 0.0081 -0.0041
vn 0.9999 0.0089 -0.0056
vn 1.0000 0.0060 -0.0060
vn 1.0000 0.0068 -0.0068
vn 0.9999 0.0066 -0.0078
vn 0.9999 0.0078 -0.0071
vn 0.9976 0.0688 -0.0058
vn 0.9911 0.1329 0.0053
vn 0.9902 0.1394 -0.0118
vn 0.9999 -0.0026 -0.0100
vn 0.9999 -0.0149 -0.0088
vn 0.9999 -0.0097 -0.0080
vn 1.0000 0.0001 -0.0051
vn 1.0000 -0.0016 -0.0086
vn 1.0000 -0.0009 -0.0094
vn 1.0000 -0.0012 -0.0092
vn 1.0000 0.0000 -0.0092
vn 0.9999 -0.0012 -0.0105
vn 1.0000 -0.0028 -0.0081
vn 1.0000 -0.0036 -0.0081
vn 0.9999 -0.0041 -0.0093
vn 0.9999 -0.0030 -0.0100
vn 1.0000 -0.0021 -0.0088
vn 0.9999 -0.0035 -0.0101
vn 1.0000 -0.0045 -0.0072
vn 1.0000 -0.0052 -0.0072
vn 0.9999 -0.0062 -0.0082
vn 0.9999 -0.0052 -0.0092
vn 1.0000 -0.0041 -0.0081
vn 0.9999 -0.0056 -0.0089
vn 1.0000 -0.0061 -0.0061
vn 1.0000 -0.0068 -0.0068
vn 0.9999 -0.0077 -0.0066
vn 0.9999 -0.0071 -0.0078
vn 0.9976 -0.0058 -0.0686
vn 0.9912 0.0052 -0.1319
vn 0.9999 -0.0091 0.0057
vn 0.9999 -0.0080 0.0097
vn 1.0000 -0.0044 -0.0003
vn 1.0000 -0.0086 0.0016
vn 1.0000 -0.0094 0.0009
vn 1.0000 -0.0090 0.0012
vn 1.0000 -0.0092 -0.0000
vn 0.9999 -0.0107 0.0012
vn 1.0000 -0.0081 0.0028
vn 1.0000 -0.0080 0.0036
vn 0.9999 -0.0093 0.0042
vn 0.9999 -0.0101 0.0030
vn 1.0000 -0.0088 0.0022
vn 0.9999 -0.0100 0.0035
vn 1.0000 -0.0072 0.0045
vn 1.0000 -0.0070 0.0053
vn 0.9999 -0.0082 0.0062
vn 0.9999 -0.0091 0.0052
vn 1.0000 -0.0081 0.0040
vn 0.9999 -0.0089 0.0056
vn 1.0000 -0.0060 0.0060
vn 1.0000 -0.0068 0.0068
vn 0.9999 -0.0066 0.0077
vn 0.9999 -0.0077 0.0071
vn 1.0000 0.0081 0.0051
vn 1.0000 0.0079 0.0042
vn 1.0000 0.0072 0.0055
vn 0.9999 0.0090 0.0057
vn 1.0000 0.0082 0.0029
vn 1.0000 0.0091 0.0032
vn 0.9999 0.0098 0.0026
vn 0.9999 0.0098 0.0039
vn 1.0000 0.0088 0.0034
vn 0.9999 0.0101 0.0035
vn 1.0000 0.0091 -0.0005
vn 1.0000 0.0095 0.0011
vn 0.9999 0.0106 0.0012
vn 1.0000 0.0051 -0.0081
vn 1.0000 0.0041 -0.0078
vn 1.0000 0.0055 -0.0073
vn 0.9999 0.0056 -0.0089
vn 1.0000 0.0028 -0.0081
vn 1.0000 0.0027 -0.0088
vn 0.9999 0.0025 -0.0099
vn 0.9999 0.0039 -0.0098
vn 1.0000 0.0035 -0.0087
vn 0.9999 0.0035 -0.0101
vn 1.0000 -0.0005 -0.0091
vn 1.0000 0.0011 -0.0095
vn 0.9999 0.0012 -0.0106
vn 1.0000 -0.0081 -0.0051
vn 1.0000 -0.0078 -0.0041
vn 1.0000 -0.0072 -0.0055
vn 0.9999 -0.0089 -0.0056
vn 1.0000 -0.0082 -0.0029
vn 1.0000 -0.0091 -0.0032
vn 0.9999 -0.0098 -0.0026
vn 0.9999 -0.0097 -0.0038
vn 0.9999 -0.0100 -0.0035
vn 1.0000 -0.0091 0.0005
vn 1.0000 -0.0095 -0.0011
vn 0.9999 -0.0106 -0.0012
vn 1.0000 -0.0051 0.0081
vn 1.0000 -0.0040 0.0078
vn 1.0000 -0.0056 0.0071
vn 0.9999 -0.0057 0.0091
vn 1.0000 -0.0028 0.0081
vn 1.0000 -0.0028 0.0088
vn 0.9999 -0.0026 0.0098
vn 0.9999 -0.0039 0.0097
vn 1.0000 -0.0034 0.0088
vn 0.9999 -0.0035 0.0099
vn 1.0000 0.0005 0.0091
vn 1.0000 -0.0011 0.0095
vn 0.9999 -0.0012 0.0105
vn 1.0000 0.0096 0.0012
vn 1.0000 0.0051 -0.0001
vn 1.0000 0.0092 -0.0001
vn 0.9999 0.0083 0.0089
vn 0.9998 0.0088 0.0151
vn 0.9999 0.0100 0.0026
vn 0.9906 -0.0050 -0.1366
vn 0.9975 0.0060 -0.0706
vn 0.9896 0.0121 -0.1432
vn 1.0000 0.0012 -0.0096
vn 1.0000 -0.0001 -0.0050
vn 1.0000 -0.0001 -0.0092
vn 0.9999 0.0089 -0.0083
vn 0.9998 0.0151 -0.0088
vn 0.9999 0.0027 -0.0100
vn 0.9906 -0.1367 0.0050
vn 0.9975 -0.0707 -0.0060
vn 0.9896 -0.1433 -0.0121
vn 1.0000 -0.0096 -0.0012
vn 1.0000 -0.0050 0.0001
vn 1.0000 -0.0092 0.0002
vn 0.9999 -0.0083 -0.0089
vn 0.9998 -0.0088 -0.0151
vn 0.9999 -0.0100 -0.0026
vn 0.9906 0.0050 0.1367
vn 0.9975 -0.0060 0.0707
vn 0.9896 -0.0121 0.1433
vn 1.0000 -0.0012 0.0096
vn 1.0000 0.0001 0.0051
vn 1.0000 0.0002 0.0092
vn 0.9999 -0.0090 0.0083
vn 0.9998 -0.0151 0.0088
vn 0.9999 -0.0027 0.0100
vn 0.9906 0.1366 -0.0050
vn 0.9975 0.0706 0.0060
vn 0.9896 0.1433 0.0121
usemtl Tex_0080_0.dds
s off
f 1/1/1 3/2/2 2/3/1
f 2/3/3 3/2/3 4/4/4
f 3/2/5 5/5/6 4/4/7
f 4/4/8 5/5/8 6/6/9
f 5/5/10 7/7/11 6/6/12
f 6/6/13 7/7/14 8/8/15
f 7/7/16 9/9/17 8/8/18
f 8/8/19 9/9/19 10/10/20
f 9/9/21 11/11/22 10/10/23
f 10/10/24 11/11/22 12/12/22
f 13/13/25 15/14/26 14/15/27
f 14/15/28 15/14/29 16/16/30
f 15/14/31 17/17/32 16/16/33
f 16/16/34 17/17/35 18/18/36
f 17/17/37 19/19/38 18/18/39
f 18/18/40 19/19/40 20/20/41
f 19/19/42 21/21/43 20/20/44
f 20/20/45 21/21/46 22/22/47
f 21/21/48 23/23/49 22/22/50
f 22/22/51 23/23/49 24/24/49
f 25/25/52 27/26/53 26/27/54
f 26/27/55 27/26/56 28/28/57
f 27/26/58 29/29/59 28/28/60
f 28/28/61 29/29/62 30/30/63
f 29/29/64 31/31/65 30/30/66
f 30/30/67 31/31/68 32/32/69
f 31/31/70 33/33/71 32/32/72
f 32/32/73 33/33/74 34/34/75
f 33/33/76 35/35/77 34/34/78
f 34/34/79 35/35/77 36/36/77
f 37/37/80 39/38/81 38/39/80
f 38/39/82 39/38/82 40/40/83
f 39/38/84 41/41/85 40/40/86
f 40/40/87 41/41/88 42/42/89
f 41/41/90 43/43/91 42/42/92
f 42/42/93 43/43/94 44/44/95
f 43/43/96 45/45/97 44/44/98
f 44/44/99 45/45/100 46/46/101
f 45/45/102 47/47/103 46/46/104
f 46/46/105 47/47/103 48/48/103
f 49/49/106 51/50/107 50/51/106
f 50/51/106 51/50/108 52/52/109
f 51/50/110 53/53/111 52/52/112
f 52/52/113 53/53/114 54/54/115
f 53/53/116 55/55/117 54/54/118
f 56/56/119 58/57/120 57/58/119
f 57/58/119 58/57/121 59/59/122
f 58/57/123 60/60/124 59/59/125
f 59/59/126 60/60/127 61/61/128
f 60/60/129 62/62/130 61/61/131
f 63/63/132 65/64/133 64/65/132
f 64/65/132 65/64/134 66/66/135
f 65/64/136 67/67/137 66/66/138
f 66/66/139 67/67/137 68/68/140
f 67/67/141 69/69/142 68/68/143
f 70/70/144 72/71/145 71/72/144
f 71/72/144 72/71/146 73/73/147
f 72/71/148 74/74/149 73/73/150
f 73/73/151 74/74/152 75/75/153
f 74/74/154 76/76/155 75/75/156
f 77/77/157 79/78/158 78/79/159
f 78/79/160 79/78/161 80/80/162
f 79/78/163 81/81/164 80/80/165
f 82/82/166 84/83/167 83/84/168
f 83/84/169 84/83/170 85/85/171
f 84/83/172 86/86/173 85/85/174
f 87/87/175 89/88/176 88/89/177
f 88/89/178 89/88/179 90/90/180
f 89/88/181 91/91/182 90/90/183
f 92/92/184 94/93/185 93/94/186
f 93/94/187 94/93/188 95/95/189
f 94/93/190 96/96/191 95/95/192
