# Blender v3.6.3 OBJ File: 'untitled.blend'
# www.blender.org
mtllib Mesh_0399.mtl
o Mesh_0399_Mesh.114
v 69.962769 30.957098 15.519951
v 69.962753 30.957098 17.436447
v 69.962753 28.417097 15.519951
v 69.962753 28.417097 17.436447
v 69.962830 30.957100 2.819954
v 69.962814 30.957100 4.736443
v 69.962814 28.417099 2.819954
v 69.962814 28.417099 4.736450
v 69.962830 30.957100 -9.880047
v 69.962814 30.957100 -7.963558
v 69.962814 28.417099 -9.880047
v 69.962814 28.417099 -7.963558
v 69.962769 30.957098 -22.580048
v 69.962753 30.957098 -20.663559
v 69.962753 28.417097 -22.580048
v 69.962753 28.417097 -20.663555
vt 0.001953 0.001953
vt 0.001953 -0.997070
vt 1.000977 0.001953
vt 1.000977 -0.997070
vt 0.001953 0.001953
vt 0.001953 -0.997070
vt 1.000977 0.001953
vt 1.000977 -0.997070
vt 0.001953 0.001953
vt 0.001953 -0.997070
vt 1.000977 0.001953
vt 1.000977 -0.997070
vt 0.001953 0.001953
vt 0.001953 -0.997070
vt 1.000977 0.001953
vt 1.000977 -0.997070
vn -1.0000 0.0000 -0.0000
usemtl Tex_0113_0.dds
s off
f 1/1/1 3/2/1 2/3/1
f 2/3/1 3/2/1 4/4/1
f 5/5/1 7/6/1 6/7/1
f 6/7/1 7/6/1 8/8/1
f 9/9/1 11/10/1 10/11/1
f 10/11/1 11/10/1 12/12/1
f 13/13/1 15/14/1 14/15/1
f 14/15/1 15/14/1 16/16/1
