# Blender v3.6.3 OBJ File: 'untitled.blend'
# www.blender.org
mtllib Mesh_0185.mtl
o Mesh_0185_Mesh.154
v -22.304647 12.699989 9.838737
v -22.304647 22.297146 9.838737
v -22.304647 22.297226 5.337646
v -22.304647 22.859987 9.639748
v -22.304647 22.859989 5.536636
v -22.304647 12.699989 4.758736
v -22.304647 22.297148 4.758736
v -22.304647 22.297226 0.257652
v -22.304647 22.859989 4.559753
v -22.304647 22.859989 0.456635
v -22.304647 12.699988 -0.321266
v -22.304647 22.297148 -0.321266
v -22.304647 22.297226 -4.822342
v -22.304647 22.859989 -0.520248
v -22.304647 22.859989 -4.623360
v -22.304647 12.699988 -5.401260
v -22.304647 22.297148 -5.401260
v -22.304647 22.297226 -9.902348
v -22.304647 22.859989 -5.600243
v -22.304647 22.859989 -9.703365
v -22.304647 22.859989 -10.680248
v -22.304647 22.297197 -14.982349
v -22.304647 22.297148 -10.481262
v -22.304647 12.699989 -14.982349
v -22.304647 12.699989 -10.481262
v -22.304583 25.374584 17.113190
v -22.304583 25.374582 22.828194
v -22.304583 45.719982 17.113190
v -22.304583 45.719986 22.828194
v -22.304583 25.374582 10.763191
v -22.304583 25.374584 17.113190
v -22.304583 45.719986 10.763191
v -22.304583 45.719982 17.113190
v -22.304583 14.763740 22.193192
v -22.304583 22.859987 22.193192
v -22.304583 14.763740 17.113190
v -22.304583 22.859989 17.113190
v -22.304583 14.763740 17.113190
v -22.304583 22.859989 17.113190
v -22.304583 14.763739 12.033195
v -22.304583 22.859989 12.033195
v -22.304583 25.374584 -22.256805
v -22.304583 25.374582 -15.906807
v -22.304583 45.719986 -22.256805
v -22.304583 45.719986 -15.906807
v -22.304583 25.374584 -28.606804
v -22.304583 25.374584 -22.256805
v -22.304583 45.719986 -28.606804
v -22.304583 45.719986 -22.256805
v -22.304583 14.763741 -17.176804
v -22.304583 22.859989 -17.176804
v -22.304583 14.763741 -22.256805
v -22.304583 22.859989 -22.256805
v -22.304583 14.763741 -22.256805
v -22.304583 22.859989 -22.256805
v -22.304583 14.763741 -27.336803
v -22.304583 22.859987 -27.336803
v -22.304647 12.699989 9.838737
v -22.304647 22.297226 5.337646
v -22.304647 12.699988 5.337646
v -22.304647 12.699989 4.758736
v -22.304647 22.297226 0.257652
v -22.304647 12.699988 0.257652
v -22.304647 12.699988 -0.321266
v -22.304647 22.297226 -4.822342
v -22.304647 12.699989 -4.822342
v -22.304647 12.699988 -5.401260
v -22.304647 22.297226 -9.902348
v -22.304647 12.699989 -9.902348
v -22.304647 22.859987 -14.783363
v -22.304647 22.297197 -14.982349
v -22.304647 22.859989 -10.680248
vt -0.998047 -0.999023
vt 0.000977 0.889648
vt -0.998047 0.889648
vt -0.951172 0.999023
vt -0.044922 0.999023
vt -0.998047 -0.999023
vt 0.000977 0.889648
vt -0.998047 0.889648
vt -0.951172 0.999023
vt -0.044922 0.999023
vt -0.998047 -0.999023
vt 0.000977 0.889648
vt -0.998047 0.889648
vt -0.951172 0.999023
vt -0.044922 0.999023
vt -0.998047 -0.999023
vt 0.000977 0.889648
vt -0.998047 0.889648
vt -0.951172 0.999023
vt -0.044922 0.999023
vt -0.951172 0.999023
vt -0.998047 0.889648
vt 0.000977 0.889648
vt 0.000977 -0.999023
vt -0.998047 -0.999023
vt 1.999023 -2.997070
vt 1.999023 0.999023
vt 1.000000 -2.997070
vt 1.000000 0.999023
vt 1.999023 -2.997070
vt 1.999023 0.999023
vt 1.000000 -2.997070
vt 1.000000 0.999023
vt 1.000000 -0.232422
vt 1.999023 -0.232422
vt 1.000000 1.208008
vt 1.999023 1.208008
vt 1.000000 -0.232422
vt 1.999023 -0.232422
vt 1.000000 1.208008
vt 1.999023 1.208008
vt 1.999023 -2.997070
vt 1.999023 0.999023
vt 1.000000 -2.997070
vt 1.000000 0.999023
vt 1.999023 -2.997070
vt 1.999023 0.999023
vt 1.000000 -2.997070
vt 1.000000 0.999023
vt 1.000000 -0.232422
vt 1.999023 -0.232422
vt 1.000000 1.208008
vt 1.999023 1.208008
vt 1.000000 -0.232422
vt 1.999023 -0.232422
vt 1.000000 1.208008
vt 1.999023 1.208008
vt -0.998047 -0.999023
vt 0.000977 -0.999023
vt 0.000977 0.889648
vt -0.998047 -0.999023
vt 0.000977 -0.999023
vt 0.000977 0.889648
vt -0.998047 -0.999023
vt 0.000977 -0.999023
vt 0.000977 0.889648
vt -0.998047 -0.999023
vt 0.000977 -0.999023
vt 0.000977 0.889648
vt -0.044922 0.999023
vt -0.951172 0.999023
vt 0.000977 0.889648
vn 1.0000 0.0000 0.0000
usemtl Tex_0031_1.dds.007
s off
f 1/1/1 3/2/1 2/3/1
f 2/3/1 3/2/1 4/4/1
f 3/2/1 5/5/1 4/4/1
f 6/6/1 8/7/1 7/8/1
f 7/8/1 8/7/1 9/9/1
f 8/7/1 10/10/1 9/9/1
f 11/11/1 13/12/1 12/13/1
f 12/13/1 13/12/1 14/14/1
f 13/12/1 15/15/1 14/14/1
f 16/16/1 18/17/1 17/18/1
f 17/18/1 18/17/1 19/19/1
f 18/17/1 20/20/1 19/19/1
f 21/21/1 23/22/1 22/23/1
f 22/23/1 23/22/1 24/24/1
f 23/22/1 25/25/1 24/24/1
f 26/26/1 28/27/1 27/28/1
f 27/28/1 28/27/1 29/29/1
f 30/30/1 32/31/1 31/32/1
f 31/32/1 32/31/1 33/33/1
f 34/34/1 36/35/1 35/36/1
f 35/36/1 36/35/1 37/37/1
f 38/38/1 40/39/1 39/40/1
f 39/40/1 40/39/1 41/41/1
f 42/42/1 44/43/1 43/44/1
f 43/44/1 44/43/1 45/45/1
f 46/46/1 48/47/1 47/48/1
f 47/48/1 48/47/1 49/49/1
f 50/50/1 52/51/1 51/52/1
f 51/52/1 52/51/1 53/53/1
f 54/54/1 56/55/1 55/56/1
f 55/56/1 56/55/1 57/57/1
f 58/58/1 60/59/1 59/60/1
f 61/61/1 63/62/1 62/63/1
f 64/64/1 66/65/1 65/66/1
f 67/67/1 69/68/1 68/69/1
f 70/70/1 72/71/1 71/72/1
