# Blender v3.6.3 OBJ File: 'untitled.blend'
# www.blender.org
mtllib Mesh_0314.mtl
o Mesh_0314_Mesh.200
v -19.764584 9.677488 9.319435
v -19.764584 9.114778 8.640518
v -19.764584 9.114777 11.615860
v -19.764584 8.340077 8.127113
v -19.764584 8.340076 12.129295
v -19.764584 7.354354 7.831879
v -19.764584 7.354354 12.424515
v -19.764584 2.063738 7.831879
v -19.764584 2.063738 12.424515
v -19.764584 9.677488 14.399429
v -19.764584 9.114777 13.720512
v -19.764584 9.114778 16.695862
v -19.764584 8.340076 13.207108
v -19.764584 8.340076 17.209290
v -19.764584 7.354354 12.911880
v -19.764584 7.354354 17.504509
v -19.764584 2.063738 12.911880
v -19.764584 2.063738 17.504509
v -19.764584 9.114777 11.615860
v -19.764584 9.677488 10.936943
v -19.764584 9.677488 9.319435
v -19.764584 10.067328 10.128189
v -19.764584 9.114778 16.695862
v -19.764584 9.677488 16.016945
v -19.764584 9.677488 14.399429
v -19.764584 10.067328 15.208191
v -19.764584 2.063738 7.272812
v -19.764584 10.159986 7.272812
v -19.764584 2.063738 5.297966
v -19.764584 10.159986 5.297966
v -19.764633 -0.317827 22.514252
v -19.764633 7.782040 22.514252
v -19.764633 1.865440 18.065689
v -19.764633 10.020769 18.065689
vt -0.675781 0.153320
vt -0.134766 0.051758
vt -0.836914 0.051758
vt -0.958008 -0.087891
vt 0.003906 -0.087891
vt -1.028320 -0.265625
vt 0.057617 -0.265625
vt -1.028320 -1.222656
vt 0.046875 -1.222656
vt -0.675781 0.153320
vt -0.134766 0.051758
vt -0.836914 0.051758
vt -0.958008 -0.087891
vt 0.003906 -0.087891
vt -1.028320 -0.265625
vt 0.057617 -0.265625
vt -1.028320 -1.222656
vt 0.046875 -1.222656
vt -0.134766 0.051758
vt -0.675781 0.153320
vt -0.307617 0.153320
vt -0.498047 0.223633
vt -0.134766 0.051758
vt -0.675781 0.153320
vt -0.307617 0.153320
vt -0.498047 0.223633
vt 2.872070 -0.596680
vt 2.392578 -0.596680
vt 2.872070 1.000000
vt 2.392578 1.000000
vt 1.999023 -1.666016
vt 1.000000 -1.172852
vt 1.999023 0.162109
vt 1.000000 0.666992
vn 1.0000 0.0000 0.0000
usemtl Tex_0031_1.dds.016
s off
f 1/1/1 3/2/1 2/3/1
f 2/3/1 3/2/1 4/4/1
f 3/2/1 5/5/1 4/4/1
f 4/4/1 5/5/1 6/6/1
f 5/5/1 7/7/1 6/6/1
f 6/6/1 7/7/1 8/8/1
f 7/7/1 9/9/1 8/8/1
f 10/10/1 12/11/1 11/12/1
f 11/12/1 12/11/1 13/13/1
f 12/11/1 14/14/1 13/13/1
f 13/13/1 14/14/1 15/15/1
f 14/14/1 16/16/1 15/15/1
f 15/15/1 16/16/1 17/17/1
f 16/16/1 18/18/1 17/17/1
f 19/19/1 21/20/1 20/21/1
f 20/21/1 21/20/1 22/22/1
f 23/23/1 25/24/1 24/25/1
f 24/25/1 25/24/1 26/26/1
f 27/27/1 29/28/1 28/29/1
f 28/29/1 29/28/1 30/30/1
f 31/31/1 33/32/1 32/33/1
f 32/33/1 33/32/1 34/34/1
