# Blender v3.6.3 OBJ File: 'untitled.blend'
# www.blender.org
mtllib Mesh_0321.mtl
o Mesh_0321_Mesh.202
v -12.144585 12.699993 -43.211803
v -12.144585 12.699994 -44.481804
v -9.604584 12.699993 -43.211803
v -12.144585 12.699994 -47.021805
v -9.604589 12.699994 -48.291801
v -12.144590 12.699994 -48.291801
v -17.224585 12.699993 -43.211803
v -19.764584 12.699993 -43.211803
v -17.224585 12.699994 -44.481804
v -19.764587 12.699994 -48.291801
v -17.224585 12.699994 -47.021805
v -17.224588 12.699994 -48.291801
v -12.144585 12.699994 -38.131805
v -12.144585 12.699994 -39.401802
v -9.604584 12.699994 -38.131805
v -12.144585 12.699994 -41.941803
v -9.604584 12.699993 -43.211803
v -12.144585 12.699993 -43.211803
v -17.224585 12.699994 -38.131805
v -19.764584 12.699994 -38.131805
v -17.224585 12.699994 -39.401802
v -19.764584 12.699993 -43.211803
v -17.224585 12.699994 -41.941803
v -17.224585 12.699993 -43.211803
v -12.144585 12.699994 -33.051804
v -12.144585 12.699994 -34.321804
v -9.604584 12.699994 -33.051804
v -12.144585 12.699993 -36.861805
v -9.604584 12.699994 -38.131805
v -12.144585 12.699994 -38.131805
v -17.224585 12.699994 -33.051804
v -19.764584 12.699994 -33.051804
v -17.224585 12.699994 -34.321804
v -19.764584 12.699994 -38.131805
v -17.224585 12.699993 -36.861805
v -17.224585 12.699994 -38.131805
v -12.144838 12.699994 -27.971806
v -12.144585 12.699994 -29.241806
v -9.604584 12.699994 -27.971806
v -12.144585 12.699994 -31.781803
v -9.604584 12.699994 -33.051804
v -12.144585 12.699994 -33.051804
v -17.224585 12.699994 -27.971806
v -19.764584 12.699994 -27.971806
v -17.224585 12.699994 -29.241806
v -19.764584 12.699994 -33.051804
v -17.224585 12.699994 -31.781803
v -17.224585 12.699994 -33.051804
v -14.684585 12.699994 -47.021805
v -13.414585 12.699994 -47.021805
v -13.414585 12.699994 -45.751804
v -15.954585 12.699994 -45.751804
v -15.954585 12.699994 -47.021805
v -14.684585 12.699994 -47.021805
v -14.684585 12.699994 -44.481804
v -13.414585 12.699994 -45.751804
v -13.414585 12.699993 -43.211803
v -15.954585 12.699993 -43.211803
v -15.954585 12.699994 -45.751804
v -14.684585 12.699994 -44.481804
v -14.684585 12.699994 -41.941803
v -13.414585 12.699993 -43.211803
v -13.414585 12.699994 -40.671806
v -15.954585 12.699994 -40.671806
v -15.954585 12.699993 -43.211803
v -14.684585 12.699994 -41.941803
v -14.684585 12.699994 -39.401802
v -13.414585 12.699994 -40.671806
v -13.414585 12.699994 -38.131805
v -15.954585 12.699994 -38.131805
v -15.954585 12.699994 -40.671806
v -14.684585 12.699994 -39.401802
v -14.684585 12.699993 -36.861805
v -13.414585 12.699994 -38.131805
v -13.414585 12.699994 -35.591805
v -15.954585 12.699994 -35.591805
v -15.954585 12.699994 -38.131805
v -14.684585 12.699993 -36.861805
v -14.684585 12.699994 -34.321804
v -13.414585 12.699994 -35.591805
v -13.414585 12.699994 -33.051804
v -15.954585 12.699994 -33.051804
v -15.954585 12.699994 -35.591805
v -14.684585 12.699994 -34.321804
v -14.684585 12.699994 -31.781803
v -13.414585 12.699994 -33.051804
v -13.414585 12.699993 -30.511803
v -15.954585 12.699993 -30.511803
v -15.954585 12.699994 -33.051804
v -14.684585 12.699994 -31.781803
v -14.684585 12.699994 -29.241806
v -13.414585 12.699993 -30.511803
v -13.414839 12.699994 -27.971806
v -15.954585 12.699994 -27.971806
v -15.954585 12.699993 -30.511803
v -14.684585 12.699994 -29.241806
vt 1.498047 0.499023
vt 1.498047 1.498047
vt 0.999023 0.499023
vt 0.000000 0.499023
vt -0.499023 1.498047
vt -0.499023 0.499023
vt 1.498047 -1.498047
vt 0.999023 -1.498047
vt 1.498047 -2.497070
vt -0.499023 -2.497070
vt 0.000000 -1.498047
vt -0.499023 -1.498047
vt 1.498047 0.499023
vt 1.498047 1.498047
vt 0.999023 0.499023
vt 0.000000 0.499023
vt -0.499023 1.498047
vt -0.499023 0.499023
vt 1.498047 -1.498047
vt 0.999023 -1.498047
vt 1.498047 -2.497070
vt -0.499023 -2.497070
vt 0.000000 -1.498047
vt -0.499023 -1.498047
vt 1.498047 0.499023
vt 1.498047 1.498047
vt 0.999023 0.499023
vt 0.000000 0.499023
vt -0.499023 1.498047
vt -0.499023 0.499023
vt 1.498047 -1.498047
vt 0.999023 -1.498047
vt 1.498047 -2.497070
vt -0.499023 -2.497070
vt 0.000000 -1.498047
vt -0.499023 -1.498047
vt 1.498047 0.499023
vt 1.498047 1.498047
vt 0.999023 0.499023
vt 0.000000 0.499023
vt -0.499023 1.498047
vt -0.499023 0.499023
vt 1.498047 -1.498047
vt 0.999023 -1.498047
vt 1.498047 -2.497070
vt -0.499023 -2.497070
vt 0.000000 -1.498047
vt -0.499023 -1.498047
vt 0.000000 -0.499023
vt 0.499023 0.000000
vt 0.000000 0.000000
vt 0.499023 -0.999023
vt 0.000000 -0.499023
vt 0.000000 -0.998047
vt 0.999023 -0.499023
vt 1.498047 0.000000
vt 0.499023 0.000000
vt 1.498047 -0.998047
vt 0.999023 -0.499023
vt 0.499023 -0.999023
vt 0.000000 -0.499023
vt 0.499023 0.000000
vt -0.499023 0.000000
vt 0.499023 -0.999023
vt 0.000000 -0.499023
vt -0.499023 -0.998047
vt 0.999023 -0.499023
vt 1.498047 0.000000
vt 0.499023 0.000000
vt 1.498047 -0.998047
vt 0.999023 -0.499023
vt 0.499023 -0.999023
vt 0.000000 -0.499023
vt 0.499023 0.000000
vt -0.499023 0.000000
vt 0.499023 -0.999023
vt 0.000000 -0.499023
vt -0.499023 -0.998047
vt 0.999023 -0.499023
vt 1.498047 0.000000
vt 0.499023 0.000000
vt 1.498047 -0.998047
vt 0.999023 -0.499023
vt 0.499023 -0.999023
vt 0.000000 -0.499023
vt 0.499023 0.000000
vt -0.499023 0.000000
vt 0.499023 -0.999023
vt 0.000000 -0.499023
vt -0.499023 -0.998047
vt 0.999023 -0.499023
vt 1.498047 0.000000
vt 0.499023 0.000000
vt 1.498047 -0.998047
vt 0.999023 -0.499023
vt 0.499023 -0.999023
vn 0.0000 1.0000 0.0000
usemtl Tex_0056_1.dds.006
s off
f 1/1/1 3/2/1 2/3/1
f 2/3/1 3/2/1 4/4/1
f 3/2/1 5/5/1 4/4/1
f 4/4/1 5/5/1 6/6/1
f 7/7/1 9/8/1 8/9/1
f 8/9/1 9/8/1 10/10/1
f 9/8/1 11/11/1 10/10/1
f 10/10/1 11/11/1 12/12/1
f 13/13/1 15/14/1 14/15/1
f 14/15/1 15/14/1 16/16/1
f 15/14/1 17/17/1 16/16/1
f 16/16/1 17/17/1 18/18/1
f 19/19/1 21/20/1 20/21/1
f 20/21/1 21/20/1 22/22/1
f 21/20/1 23/23/1 22/22/1
f 22/22/1 23/23/1 24/24/1
f 25/25/1 27/26/1 26/27/1
f 26/27/1 27/26/1 28/28/1
f 27/26/1 29/29/1 28/28/1
f 28/28/1 29/29/1 30/30/1
f 31/31/1 33/32/1 32/33/1
f 32/33/1 33/32/1 34/34/1
f 33/32/1 35/35/1 34/34/1
f 34/34/1 35/35/1 36/36/1
f 37/37/1 39/38/1 38/39/1
f 38/39/1 39/38/1 40/40/1
f 39/38/1 41/41/1 40/40/1
f 40/40/1 41/41/1 42/42/1
f 43/43/1 45/44/1 44/45/1
f 44/45/1 45/44/1 46/46/1
f 45/44/1 47/47/1 46/46/1
f 46/46/1 47/47/1 48/48/1
f 49/49/1 51/50/1 50/51/1
f 52/52/1 54/53/1 53/54/1
f 55/55/1 57/56/1 56/57/1
f 58/58/1 60/59/1 59/60/1
f 61/61/1 63/62/1 62/63/1
f 64/64/1 66/65/1 65/66/1
f 67/67/1 69/68/1 68/69/1
f 70/70/1 72/71/1 71/72/1
f 73/73/1 75/74/1 74/75/1
f 76/76/1 78/77/1 77/78/1
f 79/79/1 81/80/1 80/81/1
f 82/82/1 84/83/1 83/84/1
f 85/85/1 87/86/1 86/87/1
f 88/88/1 90/89/1 89/90/1
f 91/91/1 93/92/1 92/93/1
f 94/94/1 96/95/1 95/96/1
