# Blender v3.6.3 OBJ File: 'untitled.blend'
# www.blender.org
mtllib Mesh_0245.mtl
o Mesh_0245_Mesh.173
v 7.377523 9.677495 -27.722115
v 6.687738 9.114783 -27.722115
v 5.889948 10.159993 -27.722115
v 6.174326 8.340083 -27.722111
v 5.889948 8.338737 -27.722115
v 6.137064 8.188903 -27.722122
v 49.075256 9.692556 -27.722118
v 48.226288 9.129846 -27.722115
v 47.220459 10.159993 -27.722118
v 47.584290 8.355145 -27.722118
v 47.220459 7.369422 -27.722118
v 51.946800 9.129846 -27.722115
v 51.097862 9.692556 -27.722118
v 52.952644 10.159993 -27.722118
v 50.086555 10.082397 -27.722118
v 50.086555 10.159993 -27.722115
v 55.425255 9.692556 -27.722118
v 54.576294 9.129846 -27.722115
v 53.570457 10.159993 -27.722118
v 53.934288 8.355145 -27.722118
v 53.570457 7.369422 -27.722118
v 58.296806 9.129846 -27.722115
v 57.447861 9.692556 -27.722118
v 59.302643 10.159993 -27.722118
v 56.436554 10.082397 -27.722118
v 56.436554 10.159993 -27.722115
v 45.594437 9.129846 -27.722122
v 44.745575 9.692556 -27.722122
v 46.600288 10.159993 -27.722122
v 43.734283 10.082396 -27.722122
v 43.734276 10.159993 -27.722122
v 61.775253 9.692556 -27.722118
v 60.926292 9.129846 -27.722115
v 59.920456 10.159993 -27.722118
v 60.284286 8.355145 -27.722118
v 59.920456 7.369422 -27.722118
v 64.646805 9.129846 -27.722115
v 63.797859 9.692556 -27.722118
v 65.652641 10.159993 -27.722118
v 62.786552 10.082397 -27.722118
v 62.786552 10.159993 -27.722115
v 68.125259 9.692556 -27.722122
v 67.276390 9.129846 -27.722122
v 66.270554 10.159993 -27.722122
v 66.634285 8.355145 -27.722122
v 66.270554 7.369422 -27.722122
v 20.500254 9.677495 -27.722118
v 19.651289 9.114783 -27.722115
v 18.645460 10.159993 -27.722118
v 19.009283 8.340083 -27.722118
v 18.645460 7.354360 -27.722118
v 23.371801 9.114783 -27.722115
v 22.522856 9.677495 -27.722118
v 24.377634 10.159993 -27.722118
v 21.511557 10.067335 -27.722118
v 21.511560 10.159993 -27.722115
v 39.550255 9.677495 -27.722118
v 38.701294 9.114783 -27.722115
v 37.695457 10.159993 -27.722118
v 38.059288 8.340083 -27.722118
v 37.695457 7.354360 -27.722118
v 42.421806 9.114783 -27.722115
v 41.572861 9.677495 -27.722118
v 43.427643 10.159993 -27.722118
v 40.561554 10.067335 -27.722118
v 40.561554 10.159993 -27.722115
v 9.663088 9.114783 -27.722115
v 8.984163 9.677495 -27.722115
v 10.471735 10.159993 -27.722115
v 8.175413 10.067334 -27.722115
v 8.175413 10.159993 -27.722115
v 12.880251 9.677495 -27.722115
v 12.031290 9.114783 -27.722115
v 11.025454 10.159993 -27.722115
v 11.389284 8.340083 -27.722115
v 11.025454 7.354360 -27.722115
v 15.751799 9.114783 -27.722115
v 14.902857 9.677495 -27.722115
v 16.757639 10.159993 -27.722115
v 13.891558 10.067334 -27.722115
v 13.891558 10.159993 -27.722115
v 4.583090 9.114783 -27.722115
v 3.893301 9.677495 -27.722115
v 5.380880 10.159993 -27.722115
v 3.095415 10.067334 -27.722115
v 3.095415 10.159993 -27.722115
v 4.583090 9.114783 -27.722115
v 5.380880 10.159993 -27.722115
v 5.096498 8.340083 -27.722111
v 5.380880 8.338737 -27.722115
v 5.133764 8.188903 -27.722122
v 2.286665 9.677495 -27.722115
v 1.607740 9.114783 -27.722115
v 0.799093 10.159993 -27.722115
v 1.094316 8.340083 -27.722115
v 0.799093 7.354360 -27.722115
v -3.629747 9.677495 -27.722115
v -4.478710 9.114783 -27.722115
v -5.484541 10.159993 -27.722115
v -5.120716 8.340083 -27.722115
v -5.484541 7.354360 -27.722115
v -0.758198 9.114783 -27.722115
v -1.607143 9.677495 -27.722115
v 0.247641 10.159993 -27.722115
v -2.618443 10.067334 -27.722115
v -2.618443 10.159993 -27.722115
v 50.086555 10.159993 -27.722115
v 50.086555 10.082397 -27.722118
v 47.220459 10.159993 -27.722118
v 49.075256 9.692556 -27.722118
v 51.946800 9.129846 -27.722115
v 52.952644 10.159993 -27.722118
v 52.588821 8.355145 -27.722118
v 52.952644 7.369422 -27.722118
v 56.436554 10.159993 -27.722115
v 56.436554 10.082397 -27.722118
v 53.570457 10.159993 -27.722118
v 55.425255 9.692556 -27.722118
v 58.296806 9.129846 -27.722115
v 59.302643 10.159993 -27.722118
v 58.938812 8.355145 -27.722118
v 59.302643 7.369422 -27.722118
v 45.594437 9.129846 -27.722122
v 46.600288 10.159993 -27.722122
v 46.236557 8.355145 -27.722122
v 46.600288 7.369422 -27.722122
v 62.786552 10.159993 -27.722115
v 62.786552 10.082397 -27.722118
v 59.920456 10.159993 -27.722118
v 61.775253 9.692556 -27.722118
v 64.646805 9.129846 -27.722115
v 65.652641 10.159993 -27.722118
v 65.288811 8.355145 -27.722118
v 65.652641 7.369422 -27.722118
v 69.136566 10.159993 -27.722122
v 69.136566 10.082396 -27.722122
v 66.270554 10.159993 -27.722122
v 68.125259 9.692556 -27.722122
v 21.511560 10.159993 -27.722115
v 21.511557 10.067335 -27.722118
v 18.645460 10.159993 -27.722118
v 20.500254 9.677495 -27.722118
v 23.371801 9.114783 -27.722115
v 24.377634 10.159993 -27.722118
v 24.013811 8.340083 -27.722118
v 24.377634 7.354360 -27.722118
v 40.561554 10.159993 -27.722115
v 40.561554 10.067335 -27.722118
v 37.695457 10.159993 -27.722118
v 39.550255 9.677495 -27.722118
v 42.421806 9.114783 -27.722115
v 43.427643 10.159993 -27.722118
v 43.063820 8.340083 -27.722118
v 43.427643 7.354360 -27.722118
v 8.175413 10.159993 -27.722115
v 8.175413 10.067334 -27.722115
v 5.889948 10.159993 -27.722115
v 7.377523 9.677495 -27.722115
v 9.663088 9.114783 -27.722115
v 10.471735 10.159993 -27.722115
v 10.176512 8.340083 -27.722115
v 10.471735 7.354360 -27.722115
v 13.891558 10.159993 -27.722115
v 13.891558 10.067334 -27.722115
v 11.025454 10.159993 -27.722115
v 12.880251 9.677495 -27.722115
v 15.751799 9.114783 -27.722115
v 16.757639 10.159993 -27.722115
v 16.393812 8.340083 -27.722115
v 16.757639 7.354360 -27.722115
v 3.095415 10.159993 -27.722115
v 3.095415 10.067334 -27.722115
v 0.799093 10.159993 -27.722115
v 2.286665 9.677495 -27.722115
v -2.618443 10.159993 -27.722115
v -2.618443 10.067334 -27.722115
v -5.484541 10.159993 -27.722115
v -3.629747 9.677495 -27.722115
v -0.758198 9.114783 -27.722115
v 0.247641 10.159993 -27.722115
v -0.116188 8.340083 -27.722115
v 0.247641 7.354360 -27.722115
vt 0.353088 -0.174622
vt 0.999939 -0.002563
vt 0.646484 -0.375549
vt 0.871216 -0.651184
vt 0.999939 -0.627563
vt 0.894714 -0.719971
vt 0.647766 -0.828064
vt 0.000000 -0.999451
vt 0.352112 -0.627502
vt 0.128540 -0.351440
vt 0.000000 -0.000061
vt 0.647766 -0.372070
vt 0.999939 -0.000061
vt 0.352112 -0.171509
vt 0.000000 -0.032593
vt 0.000000 -0.000061
vt 0.647766 -0.828064
vt 0.000000 -0.999451
vt 0.352112 -0.627502
vt 0.128540 -0.351440
vt 0.000000 -0.000061
vt 0.647766 -0.372070
vt 0.999939 -0.000061
vt 0.352112 -0.171509
vt 0.000000 -0.032593
vt 0.000000 -0.000061
vt 0.352112 -0.627502
vt 0.000000 -0.999451
vt 0.647766 -0.828064
vt 0.999939 -0.966980
vt 0.999939 -0.999451
vt 0.647766 -0.828064
vt 0.000000 -0.999451
vt 0.352112 -0.627502
vt 0.128540 -0.351440
vt 0.000000 -0.000061
vt 0.647766 -0.372070
vt 0.999939 -0.000061
vt 0.352112 -0.171509
vt 0.000000 -0.032593
vt 0.000000 -0.000061
vt 0.647766 -0.828064
vt 0.000000 -0.999451
vt 0.352112 -0.627502
vt 0.128540 -0.351440
vt 0.000000 -0.000061
vt 0.647766 -0.828064
vt 0.000000 -0.999451
vt 0.352112 -0.627502
vt 0.128540 -0.351440
vt 0.000000 -0.000061
vt 0.647766 -0.372070
vt 0.999939 -0.000061
vt 0.352112 -0.171509
vt 0.000000 -0.032593
vt 0.000000 -0.000061
vt 0.647766 -0.828064
vt 0.000000 -0.999451
vt 0.352112 -0.627502
vt 0.128540 -0.351440
vt 0.000000 -0.000061
vt 0.647766 -0.372070
vt 0.999939 -0.000061
vt 0.352112 -0.171509
vt 0.000000 -0.032593
vt 0.000000 -0.000061
vt 0.352112 -0.627502
vt 0.000000 -0.999451
vt 0.647766 -0.828064
vt 0.999939 -0.966980
vt 0.999939 -0.999451
vt 0.647766 -0.828064
vt 0.000000 -0.999451
vt 0.352112 -0.627502
vt 0.128540 -0.351440
vt 0.000000 -0.000061
vt 0.647766 -0.372070
vt 0.999939 -0.000061
vt 0.352112 -0.171509
vt 0.000000 -0.032593
vt 0.000000 -0.000061
vt 0.646484 -0.375549
vt 0.999939 -0.002563
vt 0.353088 -0.174622
vt 0.000000 -0.034912
vt 0.000000 -0.002563
vt 0.646484 -0.375549
vt 0.871216 -0.651184
vt 0.999939 -0.002563
vt 0.999939 -0.627563
vt 0.894714 -0.719971
vt 0.647766 -0.828064
vt 0.000000 -0.999451
vt 0.352112 -0.627502
vt 0.128540 -0.351440
vt 0.000000 -0.000061
vt 0.647766 -0.828064
vt 0.000000 -0.999451
vt 0.352112 -0.627502
vt 0.128540 -0.351440
vt 0.000000 -0.000061
vt 0.647766 -0.372070
vt 0.999939 -0.000061
vt 0.352112 -0.171509
vt 0.000000 -0.032593
vt 0.000000 -0.000061
vt 0.999939 -0.999451
vt 0.000000 -0.999451
vt 0.999939 -0.966980
vt 0.647766 -0.828064
vt 0.647766 -0.372070
vt 0.871338 -0.648193
vt 0.999939 -0.000061
vt 0.999939 -0.999451
vt 0.999939 -0.999451
vt 0.000000 -0.999451
vt 0.999939 -0.966980
vt 0.647766 -0.828064
vt 0.647766 -0.372070
vt 0.871338 -0.648193
vt 0.999939 -0.000061
vt 0.999939 -0.999451
vt 0.352112 -0.627502
vt 0.128540 -0.351440
vt 0.000000 -0.999451
vt 0.000000 -0.000061
vt 0.999939 -0.999451
vt 0.000000 -0.999451
vt 0.999939 -0.966980
vt 0.647766 -0.828064
vt 0.647766 -0.372070
vt 0.871338 -0.648193
vt 0.999939 -0.000061
vt 0.999939 -0.999451
vt 0.999939 -0.999451
vt 0.000000 -0.999451
vt 0.999939 -0.966980
vt 0.647766 -0.828064
vt 0.999939 -0.999451
vt 0.000000 -0.999451
vt 0.999939 -0.966980
vt 0.647766 -0.828064
vt 0.647766 -0.372070
vt 0.871338 -0.648193
vt 0.999939 -0.000061
vt 0.999939 -0.999451
vt 0.999939 -0.999451
vt 0.000000 -0.999451
vt 0.999939 -0.966980
vt 0.647766 -0.828064
vt 0.647766 -0.372070
vt 0.871338 -0.648193
vt 0.999939 -0.000061
vt 0.999939 -0.999451
vt 0.000000 -0.002563
vt 0.999939 -0.002563
vt 0.000000 -0.034912
vt 0.353088 -0.174622
vt 0.352112 -0.627502
vt 0.128540 -0.351440
vt 0.000000 -0.999451
vt 0.000000 -0.000061
vt 0.999939 -0.999451
vt 0.000000 -0.999451
vt 0.999939 -0.966980
vt 0.647766 -0.828064
vt 0.647766 -0.372070
vt 0.871338 -0.648193
vt 0.999939 -0.000061
vt 0.999939 -0.999451
vt 0.999939 -0.999451
vt 0.000000 -0.999451
vt 0.999939 -0.966980
vt 0.647766 -0.828064
vt 0.999939 -0.999451
vt 0.000000 -0.999451
vt 0.999939 -0.966980
vt 0.647766 -0.828064
vt 0.647766 -0.372070
vt 0.871338 -0.648193
vt 0.999939 -0.000061
vt 0.999939 -0.999451
vn 0.0000 0.0000 1.0000
vn 0.0000 -0.0001 1.0000
vn 0.0000 -0.0004 1.0000
usemtl Tex_0053_1.dds.003
s off
f 1/1/1 3/2/1 2/3/1
f 2/3/1 3/2/1 4/4/1
f 3/2/1 5/5/1 4/4/1
f 4/4/2 5/5/2 6/6/2
f 7/7/1 9/8/1 8/9/1
f 8/9/1 9/8/1 10/10/1
f 9/8/1 11/11/1 10/10/1
f 12/12/1 14/13/1 13/14/1
f 13/14/1 14/13/1 15/15/1
f 14/13/1 16/16/1 15/15/1
f 17/17/1 19/18/1 18/19/1
f 18/19/1 19/18/1 20/20/1
f 19/18/1 21/21/1 20/20/1
f 22/22/1 24/23/1 23/24/1
f 23/24/1 24/23/1 25/25/1
f 24/23/1 26/26/1 25/25/1
f 27/27/1 29/28/1 28/29/1
f 28/29/1 29/28/1 30/30/1
f 29/28/1 31/31/1 30/30/1
f 32/32/1 34/33/1 33/34/1
f 33/34/1 34/33/1 35/35/1
f 34/33/1 36/36/1 35/35/1
f 37/37/1 39/38/1 38/39/1
f 38/39/1 39/38/1 40/40/1
f 39/38/1 41/41/1 40/40/1
f 42/42/1 44/43/1 43/44/1
f 43/44/1 44/43/1 45/45/1
f 44/43/1 46/46/1 45/45/1
f 47/47/1 49/48/1 48/49/1
f 48/49/1 49/48/1 50/50/1
f 49/48/1 51/51/1 50/50/1
f 52/52/1 54/53/1 53/54/1
f 53/54/1 54/53/1 55/55/1
f 54/53/3 56/56/1 55/55/1
f 57/57/1 59/58/1 58/59/1
f 58/59/1 59/58/1 60/60/1
f 59/58/1 61/61/1 60/60/1
f 62/62/1 64/63/1 63/64/1
f 63/64/1 64/63/1 65/65/1
f 64/63/1 66/66/1 65/65/1
f 67/67/1 69/68/1 68/69/1
f 68/69/1 69/68/1 70/70/1
f 69/68/1 71/71/1 70/70/1
f 72/72/1 74/73/1 73/74/1
f 73/74/1 74/73/1 75/75/1
f 74/73/1 76/76/1 75/75/1
f 77/77/1 79/78/1 78/79/1
f 78/79/1 79/78/1 80/80/1
f 79/78/1 81/81/1 80/80/1
f 82/82/1 84/83/1 83/84/1
f 83/84/1 84/83/1 85/85/1
f 84/83/1 86/86/1 85/85/1
f 87/87/1 89/88/1 88/89/1
f 88/89/1 89/88/1 90/90/1
f 89/88/2 91/91/2 90/90/2
f 92/92/1 94/93/1 93/94/1
f 93/94/1 94/93/1 95/95/1
f 94/93/1 96/96/1 95/95/1
f 97/97/1 99/98/1 98/99/1
f 98/99/1 99/98/1 100/100/1
f 99/98/1 101/101/1 100/100/1
f 102/102/1 104/103/1 103/104/1
f 103/104/1 104/103/1 105/105/1
f 104/103/1 106/106/1 105/105/1
f 107/107/1 109/108/1 108/109/1
f 108/109/1 109/108/1 110/110/1
f 111/111/1 113/112/1 112/113/1
f 112/113/1 113/112/1 114/114/1
f 115/115/1 117/116/1 116/117/1
f 116/117/1 117/116/1 118/118/1
f 119/119/1 121/120/1 120/121/1
f 120/121/1 121/120/1 122/122/1
f 123/123/1 125/124/1 124/125/1
f 124/125/1 125/124/1 126/126/1
f 127/127/1 129/128/1 128/129/1
f 128/129/1 129/128/1 130/130/1
f 131/131/1 133/132/1 132/133/1
f 132/133/1 133/132/1 134/134/1
f 135/135/1 137/136/1 136/137/1
f 136/137/1 137/136/1 138/138/1
f 139/139/1 141/140/1 140/141/1
f 140/141/1 141/140/1 142/142/1
f 143/143/1 145/144/1 144/145/1
f 144/145/1 145/144/1 146/146/1
f 147/147/1 149/148/1 148/149/1
f 148/149/1 149/148/1 150/150/1
f 151/151/1 153/152/1 152/153/1
f 152/153/1 153/152/1 154/154/1
f 155/155/1 157/156/1 156/157/1
f 156/157/1 157/156/1 158/158/1
f 159/159/1 161/160/1 160/161/1
f 160/161/1 161/160/1 162/162/1
f 163/163/1 165/164/1 164/165/1
f 164/165/1 165/164/1 166/166/1
f 167/167/1 169/168/1 168/169/1
f 168/169/1 169/168/1 170/170/1
f 171/171/1 173/172/1 172/173/1
f 172/173/1 173/172/1 174/174/1
f 175/175/1 177/176/1 176/177/1
f 176/177/1 177/176/1 178/178/1
f 179/179/1 181/180/1 180/181/1
f 180/181/1 181/180/1 182/182/1
