# Blender v3.6.3 OBJ File: 'untitled.blend'
# www.blender.org
mtllib Mesh_0150.mtl
o Mesh_0150_Mesh.019
v 9.863272 1.587490 4.999046
v 9.863272 3.733053 4.999046
v 9.669794 1.049798 5.355614
v 9.669798 3.733053 5.355614
v 9.680517 1.162423 5.761116
v 9.680517 3.733053 5.761116
v 9.892557 1.477340 6.106972
v 9.892557 3.733053 6.106972
v 10.249121 1.792258 6.300461
v 10.249121 3.733053 6.300461
v 10.654657 2.107175 6.289742
v 10.654657 3.733053 6.289742
v 11.000505 2.422093 6.077667
v 11.000505 3.733053 6.077682
v 11.193972 2.737018 5.721107
v 11.193972 3.733053 5.721107
v 11.183256 3.051926 5.315613
v 11.183256 3.733053 5.315605
v 10.971224 3.379003 4.969765
v 9.863272 3.733053 -10.142658
v 9.669798 1.049798 -10.499222
v 9.669798 3.733053 -10.499222
v 9.680517 1.162423 -10.904728
v 9.680517 3.733053 -10.904728
v 9.892553 1.477340 -11.250580
v 9.892557 3.733053 -11.250580
v 10.249121 1.792260 -11.444077
v 10.249121 3.733053 -11.444077
v 10.654657 2.107177 -11.433353
v 10.654657 3.733053 -11.433353
v 11.000505 2.422093 -11.221298
v 11.000505 3.733053 -11.221291
v 11.193972 2.737018 -10.864727
v 11.193972 3.733053 -10.864727
v 11.183256 3.051926 -10.459213
v 11.183256 3.733053 -10.459221
v 10.971220 3.379003 -10.113377
v 10.971220 3.733053 -10.113346
v 10.012621 3.681542 -9.639988
v 10.000910 3.364017 -9.634991
v 9.863272 3.733053 -10.142658
v 10.000910 1.853520 -9.634960
v 9.863272 1.587490 -10.142658
v 9.909296 1.587490 -9.980377
v 9.863272 1.049737 -10.142658
v 9.909296 1.049732 -9.980381
v -7.185234 12.699990 -15.271805
v -7.064587 12.699990 -15.271805
v -7.185747 12.699990 -14.001804
v -7.064585 12.699990 -14.001804
v -7.185488 12.064989 -12.731804
v -7.064585 11.429990 -11.461807
v -7.184221 11.429990 -11.461807
v -6.839619 10.794978 -10.287495
v 9.863272 1.049736 4.999046
v 9.909296 1.587490 4.836761
v 9.863272 1.587490 4.999046
v 10.000910 1.853519 4.491348
v 9.863272 3.733053 4.999046
v 10.000910 3.364017 4.491379
v 10.012617 3.681542 4.496376
v -7.064587 12.699990 10.128189
v -7.185745 12.699990 8.858192
v -7.064585 12.699990 8.858192
v -7.185488 12.064989 7.588196
v -7.064585 11.429989 6.318192
v -7.184221 11.429989 6.318192
v -6.839619 10.794977 5.143883
v 10.619123 3.733053 4.774658
v 10.619123 3.681745 4.774658
v 10.971220 3.733053 4.969742
v 10.971224 3.379003 4.969765
v 11.183256 3.733053 5.315605
v 9.863272 3.733053 4.999046
v 10.007566 3.745245 4.494797
v 10.209116 3.733053 4.786980
v 10.619123 3.681745 4.774658
v 9.863272 3.733053 -10.142658
v 10.209116 3.733053 -9.930595
v 10.007566 3.745246 -9.638412
v 10.619120 3.681745 -9.918270
v 9.863272 1.049737 -10.142658
v 9.669798 1.049798 -10.499222
v 9.863272 1.587490 -10.142658
v 9.863272 3.733053 -10.142658
v 10.619123 3.733053 -9.918270
v 10.971220 3.733053 -10.113346
v 10.619120 3.681745 -9.918270
v 10.971220 3.379003 -10.113377
v 10.007566 3.745245 4.494797
v 9.863272 3.733053 4.999046
v 10.012617 3.681542 4.496376
v 10.619123 3.733053 4.774658
v 10.209116 3.733053 4.786980
v 10.619123 3.681745 4.774658
v 9.863272 1.587490 4.999046
v 9.669794 1.049798 5.355614
v 9.863272 1.049736 4.999046
v 9.909296 1.587490 4.836761
v 10.006071 1.587490 4.495583
v 10.000910 1.853519 4.491348
v 9.909296 1.587490 4.836761
v 9.863272 1.049736 4.999046
v 9.909296 1.049731 4.836769
v -7.064587 12.699990 10.128189
v -7.185234 12.699990 10.128189
v -7.185745 12.699990 8.858192
v 9.863272 3.733053 -10.142658
v 10.007566 3.745246 -9.638412
v 10.012621 3.681542 -9.639988
v 10.209116 3.733053 -9.930595
v 10.619123 3.733053 -9.918270
v 10.619120 3.681745 -9.918270
v 10.006071 1.587490 -9.639202
v 9.909296 1.587490 -9.980377
v 10.000910 1.853520 -9.634960
vt -0.886719 -1.158203
vt -0.532227 -1.498047
vt -0.886719 0.490234
vt -0.532227 0.490234
vt -0.210938 -1.414062
vt -0.210938 0.490234
vt 0.085938 -1.180664
vt 0.085938 0.490234
vt 0.372070 -0.947266
vt 0.372070 0.490234
vt 0.654297 -0.713867
vt 0.654297 0.490234
vt 0.941406 -0.480469
vt 0.941406 0.490234
vt 1.241211 -0.247070
vt 1.241211 0.490234
vt 1.565430 -0.013672
vt 1.565430 0.490234
vt 1.923828 0.218750
vt -0.886719 0.490234
vt -0.532227 0.490234
vt -0.532227 -1.498047
vt -0.210938 -1.414062
vt -0.210938 0.490234
vt 0.085938 -1.180664
vt 0.085938 0.490234
vt 0.372070 -0.947266
vt 0.372070 0.490234
vt 0.654297 -0.713867
vt 0.654297 0.490234
vt 0.941406 -0.480469
vt 0.941406 0.490234
vt 1.241211 -0.247070
vt 1.241211 0.490234
vt 1.565430 -0.013672
vt 1.565430 0.490234
vt 1.923828 0.218750
vt 1.923828 0.490234
vt 0.244141 -0.237305
vt -0.249023 -0.206055
vt 0.249023 -0.425781
vt 0.249023 -1.321289
vt -0.249023 -1.478516
vt -0.089844 -1.478516
vt -0.249023 -1.797852
vt -0.089844 -1.797852
vt -0.098633 0.000000
vt -0.099609 -0.508789
vt -0.029297 0.000000
vt -0.029297 -0.508789
vt -0.099609 -1.017578
vt -0.029297 -1.526367
vt -0.098633 -1.526367
vt 0.099609 -1.998047
vt -0.249023 -1.797852
vt -0.249023 -1.478516
vt -0.089844 -1.478516
vt 0.249023 -1.321289
vt -0.249023 -0.206055
vt 0.249023 -0.425781
vt 0.244141 -0.237305
vt -0.029297 0.000000
vt -0.029297 -0.508789
vt -0.099609 -0.508789
vt -0.099609 -1.017578
vt -0.029297 -1.526367
vt -0.098633 -1.526367
vt 0.099609 -1.998047
vt 2.310547 0.490234
vt 1.923828 0.490234
vt 2.310547 0.452148
vt 1.923828 0.218750
vt 1.565430 0.490234
vt -0.113281 -1.248047
vt 0.051758 -1.038086
vt -0.043945 -0.749023
vt 0.249023 -1.026367
vt -0.113281 -1.248047
vt -0.043945 -0.749023
vt 0.051758 -1.038086
vt 0.249023 -1.026367
vt -0.886719 -1.498047
vt -0.886719 -1.158203
vt -0.532227 -1.498047
vt -0.886719 0.490234
vt 2.310547 0.490234
vt 2.310547 0.452148
vt 1.923828 0.490234
vt 1.923828 0.218750
vt 0.246094 -0.199219
vt 0.244141 -0.237305
vt -0.249023 -0.206055
vt 2.310547 0.490234
vt 2.310547 0.452148
vt 2.719727 0.490234
vt -0.886719 -1.158203
vt -0.886719 -1.498047
vt -0.532227 -1.498047
vt -0.089844 -1.478516
vt 0.249023 -1.321289
vt 0.245117 -1.478516
vt -0.089844 -1.478516
vt -0.089844 -1.797852
vt -0.249023 -1.797852
vt -0.029297 0.000000
vt -0.099609 -0.508789
vt -0.098633 0.000000
vt -0.249023 -0.206055
vt 0.244141 -0.237305
vt 0.246094 -0.199219
vt 2.719727 0.490234
vt 2.310547 0.452148
vt 2.310547 0.490234
vt 0.245117 -1.478516
vt 0.249023 -1.321289
vt -0.089844 -1.478516
vn -0.8789 0.0000 -0.4769
vn -0.6918 -0.2659 -0.6713
vn -0.8780 0.0458 -0.4764
vn -0.9885 -0.1368 0.0641
vn -0.9811 -0.1648 0.1010
vn -0.8757 0.0717 0.4774
vn -0.9997 0.0000 0.0264
vn -0.9656 0.2588 0.0255
vn -0.6959 -0.2645 0.6676
vn -0.7851 -0.0997 0.6113
vn -0.6903 0.0458 0.7220
vn -0.8474 0.2547 0.4658
vn -0.9197 -0.0264 0.3917
vn -0.8511 0.0588 0.5218
vn -0.2471 -0.2886 0.9250
vn -0.3638 -0.1035 0.9257
vn -0.0407 0.0918 0.9949
vn -0.4770 0.0000 0.8789
vn -0.4607 0.2588 0.8490
vn 0.2425 -0.2806 0.9287
vn 0.1433 -0.0922 0.9854
vn 0.2766 0.0626 0.9590
vn -0.0371 0.2511 0.9672
vn -0.1185 -0.0361 0.9923
vn 0.0255 0.2589 0.9656
vn 0.6776 -0.2886 0.6765
vn 0.6210 -0.0855 0.7791
vn 0.7157 0.0765 0.6942
vn 0.4397 0.2472 0.8634
vn 0.3954 -0.0441 0.9174
vn 0.5049 0.2588 0.8235
vn 0.9250 -0.2885 0.2471
vn 0.9307 -0.0746 0.3581
vn 0.9633 0.0976 0.2500
vn 0.8025 0.2397 0.5464
vn 0.8033 -0.0562 0.5929
vn 0.8714 0.1308 0.4728
vn 0.9247 -0.2885 -0.2485
vn 0.9793 -0.0650 -0.1917
vn 0.9150 0.1957 -0.3529
vn 0.9997 -0.0000 -0.0264
vn 0.9830 0.1816 -0.0260
vn 0.6916 -0.2630 -0.6727
vn 0.8525 -0.0000 -0.5227
vn 0.6885 0.2519 -0.6800
vn -0.8789 0.0000 0.4769
vn -0.8490 0.2588 0.4607
vn -0.5691 -0.0678 0.8194
vn -0.9979 -0.0505 -0.0404
vn -0.9588 0.0403 -0.2811
vn -0.9831 -0.1553 -0.0967
vn -0.9667 0.2556 0.0148
vn -0.9656 0.2588 -0.0255
vn -0.9895 -0.0266 0.1424
vn -0.6897 -0.2725 -0.6709
vn -0.6904 0.0458 -0.7220
vn -0.7850 -0.0998 -0.6114
vn -0.8474 0.2547 -0.4658
vn -0.8235 0.2588 -0.5049
vn -0.9197 -0.0264 -0.3917
vn -0.2471 -0.2886 -0.9250
vn -0.2381 0.0530 -0.9698
vn -0.3718 -0.0966 -0.9233
vn -0.5073 0.2533 -0.8237
vn -0.4607 0.2589 -0.8490
vn -0.6000 -0.0305 -0.7995
vn 0.2485 -0.2886 -0.9246
vn 0.2766 0.0626 -0.9589
vn 0.1433 -0.0922 -0.9854
vn -0.0371 0.2512 -0.9672
vn 0.0255 0.2588 -0.9656
vn -0.1185 -0.0361 -0.9923
vn 0.6776 -0.2885 -0.6765
vn 0.7157 0.0765 -0.6942
vn 0.6210 -0.0855 -0.7791
vn 0.4397 0.2473 -0.8634
vn 0.5049 0.2588 -0.8235
vn 0.3955 -0.0441 -0.9174
vn 0.9250 -0.2886 -0.2470
vn 0.9633 0.0976 -0.2500
vn 0.9307 -0.0746 -0.3581
vn 0.8024 0.2397 -0.5465
vn 0.8714 0.1307 -0.4728
vn 0.8033 -0.0562 -0.5930
vn 0.9247 -0.2885 0.2485
vn 0.9150 0.1957 0.3528
vn 0.9793 -0.0650 0.1917
vn 0.9997 0.0000 0.0264
vn 0.9656 0.2588 0.0254
vn 0.6916 -0.2630 0.6727
vn 0.7345 0.1950 0.6500
vn 0.8525 0.0000 0.5227
vn 0.9254 0.1701 0.3386
vn 0.8525 -0.0000 0.5226
vn -0.9567 0.0398 0.2883
vn -0.9541 0.0713 0.2908
vn -0.9464 0.0399 0.3206
vn -0.9612 0.0000 0.2759
vn -0.9693 -0.0046 0.2459
vn -0.9653 -0.0019 0.2613
vn -0.9685 0.0108 0.2489
vn -0.9668 0.0052 0.2554
vn -0.9647 0.0005 0.2635
vn -0.9572 -0.0419 0.2863
vn -0.9598 -0.0422 0.2776
vn -0.9634 -0.0159 0.2677
vn -0.9611 0.0041 0.2762
vn -0.9621 0.0000 0.2728
vn -0.9656 0.0042 0.2598
vn -0.9631 -0.0134 0.2688
vn -0.9621 -0.0000 0.2729
vn 0.0000 1.0000 0.0000
vn -0.0218 0.9732 0.2287
vn -0.2287 0.9732 -0.0218
vn 0.2298 0.9732 -0.0000
vn -0.2298 0.8705 0.4353
vn 0.0000 0.8944 0.4472
vn 0.2289 0.8618 0.4527
vn 0.0195 0.9729 0.2305
vn 0.0014 0.8868 0.4622
vn -0.0146 0.8943 0.4472
vn 0.0168 0.8949 0.4459
vn 0.0150 0.8807 0.4734
vn -0.0169 0.8774 0.4794
vn 0.0000 0.8796 0.4757
vn -0.9621 0.0000 -0.2728
vn -0.9611 0.0041 -0.2761
vn -0.9659 0.0045 -0.2588
vn -0.9632 -0.0168 -0.2684
vn -0.9598 -0.0421 -0.2776
vn -0.9573 -0.0419 -0.2862
vn -0.9668 0.0052 -0.2554
vn -0.9685 0.0108 -0.2490
vn -0.9647 0.0005 -0.2634
vn -0.9653 -0.0019 -0.2613
vn -0.9693 -0.0046 -0.2459
vn -0.9612 0.0000 -0.2759
vn -0.9541 0.0712 -0.2908
vn -0.9567 0.0398 -0.2883
vn -0.9464 0.0399 -0.3206
vn -0.2358 0.9715 0.0225
vn -0.2226 0.8720 -0.4360
vn 0.2289 0.8618 -0.4527
vn 0.0000 0.8944 -0.4472
vn 0.0195 0.9729 -0.2305
vn 0.0014 0.8868 -0.4622
vn 0.0168 0.8949 -0.4459
vn -0.0146 0.8943 -0.4472
vn 0.0150 0.8807 -0.4734
vn 0.0000 0.8796 -0.4757
vn -0.0169 0.8774 -0.4794
vn 0.4846 0.0000 -0.8747
vn 0.6896 0.0322 -0.7235
vn 0.4847 -0.0001 -0.8747
vn 0.4405 0.2525 -0.8615
vn 0.3416 -0.1952 -0.9193
vn 0.8245 0.2546 -0.5054
vn 0.9131 -0.1997 -0.3554
vn 0.0180 0.9994 0.0293
vn 0.0570 0.9940 0.0930
vn -0.0287 0.9995 0.0160
vn 0.1546 0.9812 -0.1152
vn 0.1244 0.9922 0.0096
vn 0.1228 0.9915 -0.0433
vn 0.0180 0.9994 -0.0293
vn -0.0287 0.9995 -0.0160
vn 0.0570 0.9940 -0.0930
vn 0.1245 0.9922 -0.0096
vn 0.1546 0.9812 0.1152
vn 0.1228 0.9915 0.0433
vn 0.4846 -0.0000 0.8747
vn 0.4846 -0.0001 0.8747
vn -0.9576 -0.0828 -0.2760
vn -0.0300 0.0000 -0.9995
vn -0.9618 -0.0230 -0.2728
vn -0.9621 -0.0000 -0.2729
vn -0.9576 -0.0828 0.2760
vn -0.0300 0.0003 0.9995
vn -0.0300 0.0000 0.9995
vn -0.0304 0.0000 0.9995
vn -0.9618 -0.0230 0.2728
usemtl Tex_0046_0.dds
s off
f 1/1/1 3/2/2 2/3/1
f 2/3/1 3/2/1 4/4/3
f 3/2/4 5/5/5 4/4/6
f 4/4/7 5/5/7 6/6/8
f 5/5/9 7/7/10 6/6/11
f 6/6/12 7/7/13 8/8/14
f 7/7/15 9/9/16 8/8/17
f 8/8/18 9/9/18 10/10/19
f 9/9/20 11/11/21 10/10/22
f 10/10/23 11/11/24 12/12/25
f 11/11/26 13/13/27 12/12/28
f 12/12/29 13/13/30 14/14/31
f 13/13/32 15/15/33 14/14/34
f 14/14/35 15/15/36 16/16/37
f 15/15/38 17/17/39 16/16/40
f 16/16/41 17/17/41 18/18/42
f 17/17/43 19/19/44 18/18/45
f 20/20/46 22/21/47 21/22/48
f 21/22/49 22/21/50 23/23/51
f 22/21/52 24/24/53 23/23/54
f 23/23/55 24/24/56 25/25/57
f 24/24/58 26/26/59 25/25/60
f 25/25/61 26/26/62 27/27/63
f 26/26/64 28/28/65 27/27/66
f 27/27/67 28/28/68 29/29/69
f 28/28/70 30/30/71 29/29/72
f 29/29/73 30/30/74 31/31/75
f 30/30/76 32/32/77 31/31/78
f 31/31/79 32/32/80 33/33/81
f 32/32/82 34/34/83 33/33/84
f 33/33/85 34/34/86 35/35/87
f 34/34/88 36/36/89 35/35/88
f 35/35/90 36/36/91 37/37/92
f 36/36/93 38/38/94 37/37/94
f 39/39/95 41/40/96 40/41/97
f 40/41/98 41/40/99 42/42/100
f 41/40/101 43/43/102 42/42/103
f 42/42/104 43/43/105 44/44/106
f 43/43/107 45/45/108 44/44/109
f 44/44/110 45/45/111 46/46/111
f 47/47/112 49/48/113 48/49/112
f 48/49/112 49/48/114 50/50/115
f 49/48/116 51/51/117 50/50/118
f 50/50/119 51/51/117 52/52/120
f 51/51/117 53/53/121 52/52/122
f 52/52/123 53/53/124 54/54/125
f 55/55/126 57/56/127 56/57/128
f 56/57/129 57/56/130 58/58/131
f 57/56/132 59/59/133 58/58/134
f 58/58/135 59/59/136 60/60/137
f 59/59/138 61/61/139 60/60/140
f 62/62/112 64/63/115 63/64/141
f 63/64/142 64/63/143 65/65/144
f 64/63/145 66/66/146 65/65/144
f 65/65/144 66/66/147 67/67/148
f 66/66/149 68/68/150 67/67/151
f 69/69/152 71/70/153 70/71/152
f 70/71/154 71/70/155 72/72/156
f 71/70/157 73/73/44 72/72/158
f 74/74/159 76/75/160 75/76/161
f 75/76/162 76/75/163 77/77/164
f 78/78/165 80/79/166 79/80/167
f 79/80/168 80/79/169 81/81/170
f 82/82/46 84/83/46 83/84/46
f 83/84/46 84/83/46 85/85/46
f 86/86/171 88/87/171 87/88/171
f 87/88/172 88/87/172 89/89/172
f 90/90/173 92/91/173 91/92/173
f 93/93/174 95/94/174 94/95/174
f 96/96/1 98/97/1 97/98/1
f 99/99/175 101/100/175 100/101/175
f 102/102/176 104/103/176 103/104/176
f 105/105/112 107/106/112 106/107/112
f 108/108/177 110/109/177 109/110/177
f 111/111/178 113/112/179 112/113/180
f 114/114/181 116/115/181 115/116/181
