# Blender v3.6.3 OBJ File: 'untitled.blend'
# www.blender.org
mtllib Mesh_0165.mtl
o Mesh_0165_Mesh.138
v -7.064585 12.699989 -25.431805
v -9.604584 12.699990 -22.891804
v -9.604584 12.699989 -25.431805
v -12.144585 12.699990 -22.891804
v -12.144585 12.699989 -25.431805
v -14.684585 12.699990 -22.891804
v -14.684585 12.699989 -25.431805
v -17.224585 12.699990 -22.891804
v -17.224585 12.699989 -25.431805
v -19.764584 12.699990 -22.891804
v -19.764584 12.699989 -25.431805
v -22.304585 12.699990 -22.891804
v -22.304585 12.699989 -25.431805
v -7.064585 12.699989 -17.811806
v -9.604610 12.699990 -15.271805
v -9.604584 12.699989 -17.811806
v -12.144609 12.699990 -15.271805
v -12.144585 12.699989 -17.811806
v -14.684609 12.699990 -15.271805
v -14.684585 12.699989 -17.811806
v -17.224609 12.699990 -15.271805
v -17.224585 12.699989 -17.811806
v -19.764622 12.699990 -15.271805
v -19.764584 12.699989 -17.811806
v -22.304617 12.699990 -15.271805
v -22.304585 12.699989 -17.811806
v -7.064585 12.699990 -20.351807
v -9.604584 12.699989 -17.811806
v -9.604584 12.699990 -20.351807
v -12.144585 12.699989 -17.811806
v -12.144585 12.699990 -20.351807
v -14.684585 12.699989 -17.811806
v -14.684585 12.699990 -20.351807
v -17.224585 12.699989 -17.811806
v -17.224585 12.699990 -20.351807
v -19.764584 12.699989 -17.811806
v -19.764584 12.699990 -20.351807
v -22.304585 12.699989 -17.811806
v -22.304585 12.699990 -20.351807
v -7.064585 12.699990 -22.891804
v -9.604584 12.699990 -20.351807
v -9.604584 12.699990 -22.891804
v -12.144585 12.699990 -20.351807
v -12.144585 12.699990 -22.891804
v -14.684585 12.699990 -20.351807
v -14.684585 12.699990 -22.891804
v -17.224585 12.699990 -20.351807
v -17.224585 12.699990 -22.891804
v -19.764584 12.699990 -20.351807
v -19.764584 12.699990 -22.891804
v -22.304585 12.699990 -20.351807
v -22.304585 12.699990 -22.891804
v -7.064587 12.699990 10.128189
v -9.604584 12.699989 12.668190
v -9.604610 12.699990 10.128189
v -12.144585 12.699989 12.668190
v -12.144609 12.699990 10.128189
v -14.684585 12.699989 12.668190
v -14.684609 12.699990 10.128189
v -17.224585 12.699989 12.668190
v -17.224609 12.699990 10.128189
v -19.764584 12.699989 12.668190
v -19.764622 12.699990 10.128189
v -22.304585 12.699989 12.668190
v -22.304617 12.699990 10.128189
v -7.064585 12.699989 12.668190
v -9.604584 12.699990 15.208191
v -9.604584 12.699989 12.668190
v -12.144585 12.699990 15.208191
v -12.144585 12.699989 12.668190
v -14.684585 12.699990 15.208191
v -14.684585 12.699989 12.668190
v -17.224585 12.699990 15.208191
v -17.224585 12.699989 12.668190
v -19.764584 12.699990 15.208191
v -19.764584 12.699989 12.668190
v -22.304585 12.699990 15.208191
v -22.304585 12.699989 12.668190
v -7.064585 12.699990 15.208191
v -9.604584 12.699989 17.748192
v -9.604584 12.699990 15.208191
v -12.144585 12.699989 17.748192
v -12.144585 12.699990 15.208191
v -14.684585 12.699989 17.748192
v -14.684585 12.699990 15.208191
v -17.224585 12.699989 17.748192
v -17.224585 12.699990 15.208191
v -19.764584 12.699989 17.748192
v -19.764584 12.699990 15.208191
v -22.304585 12.699989 17.748192
v -22.304585 12.699990 15.208191
v -7.064585 12.699989 17.748192
v -9.604584 12.699989 20.288193
v -9.604584 12.699989 17.748192
v -12.144585 12.699989 20.288193
v -12.144585 12.699989 17.748192
v -14.684585 12.699989 20.288193
v -14.684585 12.699989 17.748192
v -17.224585 12.699989 20.288193
v -17.224585 12.699989 17.748192
v -19.764584 12.699989 20.288193
v -19.764584 12.699989 17.748192
v -22.304585 12.699989 20.288193
v -22.304585 12.699989 17.748192
v -7.064585 12.699989 20.288193
v -9.604584 12.699990 22.828194
v -9.604584 12.699989 20.288193
v -12.144585 12.699990 22.828194
v -12.144585 12.699989 20.288193
v -14.684585 12.699990 22.828194
v -14.684585 12.699989 20.288193
v -17.224585 12.699990 22.828194
v -17.224585 12.699989 20.288193
v -19.764584 12.699990 22.828194
v -19.764584 12.699989 20.288193
v -22.304585 12.699990 22.828194
v -22.304585 12.699989 20.288193
v -12.144838 12.699990 -27.971806
v -9.604584 12.699990 -27.971806
v -12.144585 12.699989 -25.431805
v -9.604584 12.699989 -25.431805
v -19.764584 12.699990 -27.971806
v -17.224585 12.699990 -27.971806
v -19.764584 12.699989 -25.431805
v -17.224585 12.699989 -25.431805
v -7.064585 12.699989 -25.431805
v -9.604584 12.699989 -25.431805
v -7.064585 12.699990 -27.971809
v -9.604584 12.699990 -27.971806
v -19.764584 12.699989 -25.431805
v -22.304585 12.699989 -25.431805
v -19.764584 12.699990 -27.971806
v -22.304585 12.699990 -27.971806
v -15.954585 12.699990 -27.971806
v -14.684585 12.699990 -26.701805
v -15.954585 12.699990 -26.701805
v -13.414585 12.699990 -26.701805
v -14.684585 12.699990 -26.701805
v -13.414839 12.699990 -27.971806
v -9.604584 12.699990 -22.891804
v -7.064585 12.699989 -25.431805
v -7.064585 12.699990 -22.891804
v -9.604610 12.699990 -15.271805
v -7.064585 12.699989 -17.811806
v -7.064587 12.699990 -15.271805
v -9.604584 12.699989 -17.811806
v -7.064585 12.699990 -20.351807
v -7.064585 12.699989 -17.811806
v -9.604584 12.699990 -20.351807
v -7.064585 12.699990 -22.891804
v -7.064585 12.699990 -20.351807
v -9.604584 12.699989 12.668190
v -7.064587 12.699990 10.128189
v -7.064585 12.699989 12.668190
v -9.604584 12.699990 15.208191
v -7.064585 12.699989 12.668190
v -7.064585 12.699990 15.208191
v -9.604584 12.699989 17.748192
v -7.064585 12.699990 15.208191
v -7.064585 12.699989 17.748192
v -9.604584 12.699989 20.288193
v -7.064585 12.699989 17.748192
v -7.064585 12.699989 20.288193
v -9.604584 12.699990 22.828194
v -7.064585 12.699989 20.288193
v -7.064585 12.699990 22.828194
vt 4.496094 0.999023
vt 3.497070 0.999023
vt 3.497070 0.000000
vt 2.498047 0.000000
vt 2.498047 0.999023
vt 1.499023 0.000000
vt 1.499023 0.999023
vt 0.500977 0.000000
vt 0.500977 0.999023
vt -0.498047 0.000000
vt -0.498047 0.999023
vt -1.497070 0.000000
vt -1.497070 0.999023
vt 4.496094 -1.998047
vt 3.497070 -1.998047
vt 3.497070 -2.997070
vt 2.498047 -2.997070
vt 2.498047 -1.998047
vt 1.499023 -2.997070
vt 1.499023 -1.998047
vt 0.500977 -2.997070
vt 0.500977 -1.998047
vt -0.498047 -2.997070
vt -0.498047 -1.998047
vt -1.497070 -2.997070
vt -1.497070 -1.998047
vt 4.496094 -0.999023
vt 3.497070 -0.999023
vt 3.497070 -1.998047
vt 2.498047 -1.998047
vt 2.498047 -0.999023
vt 1.499023 -1.998047
vt 1.499023 -0.999023
vt 0.500977 -1.998047
vt 0.500977 -0.999023
vt -0.498047 -1.998047
vt -0.498047 -0.999023
vt -1.497070 -1.998047
vt -1.497070 -0.999023
vt 4.496094 0.000000
vt 3.497070 0.000000
vt 3.497070 -0.999023
vt 2.498047 -0.999023
vt 2.498047 0.000000
vt 1.499023 -0.999023
vt 1.499023 0.000000
vt 0.500977 -0.999023
vt 0.500977 0.000000
vt -0.498047 -0.999023
vt -0.498047 0.000000
vt -1.497070 -0.999023
vt -1.497070 0.000000
vt 2.998047 -2.997070
vt 1.999023 -2.997070
vt 1.999023 -1.998047
vt 1.000000 -1.998047
vt 1.000000 -2.997070
vt 0.000977 -1.998047
vt 0.000977 -2.997070
vt -0.998047 -1.998047
vt -0.998047 -2.997070
vt -1.997070 -1.998047
vt -1.997070 -2.997070
vt -2.996094 -1.998047
vt -2.996094 -2.997070
vt 2.998047 -1.998047
vt 1.999023 -1.998047
vt 1.999023 -0.999023
vt 1.000000 -0.999023
vt 1.000000 -1.998047
vt 0.000977 -0.999023
vt 0.000977 -1.998047
vt -0.998047 -0.999023
vt -0.998047 -1.998047
vt -1.997070 -0.999023
vt -1.997070 -1.998047
vt -2.996094 -0.999023
vt -2.996094 -1.998047
vt 2.998047 -0.999023
vt 1.999023 -0.999023
vt 1.999023 0.000000
vt 1.000000 0.000000
vt 1.000000 -0.999023
vt 0.000977 0.000000
vt 0.000977 -0.999023
vt -0.998047 0.000000
vt -0.998047 -0.999023
vt -1.997070 0.000000
vt -1.997070 -0.999023
vt -2.996094 0.000000
vt -2.996094 -0.999023
vt 2.998047 0.000000
vt 1.999023 0.000000
vt 1.999023 0.999023
vt 1.000000 0.999023
vt 1.000000 0.000000
vt 0.000977 0.999023
vt 0.000977 0.000000
vt -0.998047 0.999023
vt -0.998047 0.000000
vt -1.997070 0.999023
vt -1.997070 0.000000
vt -2.996094 0.999023
vt -2.996094 0.000000
vt 2.998047 0.999023
vt 1.999023 0.999023
vt 1.999023 1.998047
vt 1.000000 1.998047
vt 1.000000 0.999023
vt 0.000977 1.998047
vt 0.000977 0.999023
vt -0.998047 1.998047
vt -0.998047 0.999023
vt -1.997070 1.998047
vt -1.997070 0.999023
vt -2.996094 1.998047
vt -2.996094 0.999023
vt 2.498047 0.000000
vt 2.499023 -0.999023
vt 3.497070 0.000000
vt 3.497070 -0.999023
vt -0.498047 0.000000
vt -0.498047 -0.999023
vt 0.500977 0.000000
vt 0.500977 -0.999023
vt 4.496094 0.999023
vt 4.496094 1.998047
vt 3.497070 0.999023
vt 3.497070 1.998047
vt -0.498047 0.999023
vt -0.497070 1.998047
vt -1.497070 0.999023
vt -1.497070 1.998047
vt 1.000000 0.000000
vt 1.000000 -0.499023
vt 1.499023 -0.499023
vt 1.998047 -0.499023
vt 1.998047 0.000000
vt 1.499023 -0.499023
vt 3.497070 0.000000
vt 4.496094 0.000000
vt 4.496094 0.999023
vt 3.497070 -2.997070
vt 4.496094 -2.997070
vt 4.496094 -1.998047
vt 3.497070 -1.998047
vt 4.496094 -1.998047
vt 4.496094 -0.999023
vt 3.497070 -0.999023
vt 4.496094 -0.999023
vt 4.496094 0.000000
vt 1.999023 -1.998047
vt 2.998047 -1.998047
vt 2.998047 -2.997070
vt 1.999023 -0.999023
vt 2.998047 -0.999023
vt 2.998047 -1.998047
vt 1.999023 0.000000
vt 2.998047 0.000000
vt 2.998047 -0.999023
vt 1.999023 0.999023
vt 2.998047 0.999023
vt 2.998047 0.000000
vt 1.999023 1.998047
vt 2.998047 1.998047
vt 2.998047 0.999023
vn 0.0000 1.0000 0.0000
usemtl Tex_0056_1.dds.003
s off
f 1/1/1 3/2/1 2/3/1
f 2/3/1 3/2/1 4/4/1
f 3/2/1 5/5/1 4/4/1
f 4/4/1 5/5/1 6/6/1
f 5/5/1 7/7/1 6/6/1
f 6/6/1 7/7/1 8/8/1
f 7/7/1 9/9/1 8/8/1
f 8/8/1 9/9/1 10/10/1
f 9/9/1 11/11/1 10/10/1
f 10/10/1 11/11/1 12/12/1
f 11/11/1 13/13/1 12/12/1
f 14/14/1 16/15/1 15/16/1
f 15/16/1 16/15/1 17/17/1
f 16/15/1 18/18/1 17/17/1
f 17/17/1 18/18/1 19/19/1
f 18/18/1 20/20/1 19/19/1
f 19/19/1 20/20/1 21/21/1
f 20/20/1 22/22/1 21/21/1
f 21/21/1 22/22/1 23/23/1
f 22/22/1 24/24/1 23/23/1
f 23/23/1 24/24/1 25/25/1
f 24/24/1 26/26/1 25/25/1
f 27/27/1 29/28/1 28/29/1
f 28/29/1 29/28/1 30/30/1
f 29/28/1 31/31/1 30/30/1
f 30/30/1 31/31/1 32/32/1
f 31/31/1 33/33/1 32/32/1
f 32/32/1 33/33/1 34/34/1
f 33/33/1 35/35/1 34/34/1
f 34/34/1 35/35/1 36/36/1
f 35/35/1 37/37/1 36/36/1
f 36/36/1 37/37/1 38/38/1
f 37/37/1 39/39/1 38/38/1
f 40/40/1 42/41/1 41/42/1
f 41/42/1 42/41/1 43/43/1
f 42/41/1 44/44/1 43/43/1
f 43/43/1 44/44/1 45/45/1
f 44/44/1 46/46/1 45/45/1
f 45/45/1 46/46/1 47/47/1
f 46/46/1 48/48/1 47/47/1
f 47/47/1 48/48/1 49/49/1
f 48/48/1 50/50/1 49/49/1
f 49/49/1 50/50/1 51/51/1
f 50/50/1 52/52/1 51/51/1
f 53/53/1 55/54/1 54/55/1
f 54/55/1 55/54/1 56/56/1
f 55/54/1 57/57/1 56/56/1
f 56/56/1 57/57/1 58/58/1
f 57/57/1 59/59/1 58/58/1
f 58/58/1 59/59/1 60/60/1
f 59/59/1 61/61/1 60/60/1
f 60/60/1 61/61/1 62/62/1
f 61/61/1 63/63/1 62/62/1
f 62/62/1 63/63/1 64/64/1
f 63/63/1 65/65/1 64/64/1
f 66/66/1 68/67/1 67/68/1
f 67/68/1 68/67/1 69/69/1
f 68/67/1 70/70/1 69/69/1
f 69/69/1 70/70/1 71/71/1
f 70/70/1 72/72/1 71/71/1
f 71/71/1 72/72/1 73/73/1
f 72/72/1 74/74/1 73/73/1
f 73/73/1 74/74/1 75/75/1
f 74/74/1 76/76/1 75/75/1
f 75/75/1 76/76/1 77/77/1
f 76/76/1 78/78/1 77/77/1
f 79/79/1 81/80/1 80/81/1
f 80/81/1 81/80/1 82/82/1
f 81/80/1 83/83/1 82/82/1
f 82/82/1 83/83/1 84/84/1
f 83/83/1 85/85/1 84/84/1
f 84/84/1 85/85/1 86/86/1
f 85/85/1 87/87/1 86/86/1
f 86/86/1 87/87/1 88/88/1
f 87/87/1 89/89/1 88/88/1
f 88/88/1 89/89/1 90/90/1
f 89/89/1 91/91/1 90/90/1
f 92/92/1 94/93/1 93/94/1
f 93/94/1 94/93/1 95/95/1
f 94/93/1 96/96/1 95/95/1
f 95/95/1 96/96/1 97/97/1
f 96/96/1 98/98/1 97/97/1
f 97/97/1 98/98/1 99/99/1
f 98/98/1 100/100/1 99/99/1
f 99/99/1 100/100/1 101/101/1
f 100/100/1 102/102/1 101/101/1
f 101/101/1 102/102/1 103/103/1
f 102/102/1 104/104/1 103/103/1
f 105/105/1 107/106/1 106/107/1
f 106/107/1 107/106/1 108/108/1
f 107/106/1 109/109/1 108/108/1
f 108/108/1 109/109/1 110/110/1
f 109/109/1 111/111/1 110/110/1
f 110/110/1 111/111/1 112/112/1
f 111/111/1 113/113/1 112/112/1
f 112/112/1 113/113/1 114/114/1
f 113/113/1 115/115/1 114/114/1
f 114/114/1 115/115/1 116/116/1
f 115/115/1 117/117/1 116/116/1
f 118/118/1 120/119/1 119/120/1
f 119/120/1 120/119/1 121/121/1
f 122/122/1 124/123/1 123/124/1
f 123/124/1 124/123/1 125/125/1
f 126/126/1 128/127/1 127/128/1
f 127/128/1 128/127/1 129/129/1
f 130/130/1 132/131/1 131/132/1
f 131/132/1 132/131/1 133/133/1
f 134/134/1 136/135/1 135/136/1
f 137/137/1 139/138/1 138/139/1
f 140/140/1 142/141/1 141/142/1
f 143/143/1 145/144/1 144/145/1
f 146/146/1 148/147/1 147/148/1
f 149/149/1 151/150/1 150/151/1
f 152/152/1 154/153/1 153/154/1
f 155/155/1 157/156/1 156/157/1
f 158/158/1 160/159/1 159/160/1
f 161/161/1 163/162/1 162/163/1
f 164/164/1 166/165/1 165/166/1
