# Blender v3.6.3 OBJ File: 'untitled.blend'
# www.blender.org
mtllib Mesh_0346.mtl
o Mesh_0346_Mesh.211
v -12.144585 12.699985 22.828194
v -9.604584 12.699985 22.828194
v -12.144585 12.699984 25.368195
v -9.604584 12.699984 25.368195
v -12.144585 12.699985 27.908195
v -9.604584 12.699985 27.908195
v -12.144585 12.699984 30.448189
v -9.604584 12.699984 30.448189
v -12.144609 12.699984 32.988190
v -9.604610 12.699984 32.988190
v -19.764584 12.699985 22.828194
v -17.224585 12.699985 22.828194
v -19.764584 12.699984 25.368195
v -17.224585 12.699984 25.368195
v -19.764584 12.699985 27.908195
v -17.224585 12.699985 27.908195
v -19.764584 12.699984 30.448189
v -17.224585 12.699984 30.448189
v -19.764612 12.699984 32.988190
v -17.224609 12.699984 32.988190
v -17.224585 12.699985 22.828194
v -14.684585 12.699985 22.828194
v -17.224585 12.699984 25.368195
v -14.684585 12.699984 25.368195
v -17.224585 12.699985 27.908195
v -14.684585 12.699985 27.908195
v -17.224585 12.699984 30.448189
v -14.684585 12.699984 30.448189
v -17.224609 12.699984 32.988190
v -14.684609 12.699984 32.988190
v -14.684585 12.699985 22.828194
v -12.144585 12.699985 22.828194
v -14.684585 12.699984 25.368195
v -12.144585 12.699984 25.368195
v -14.684585 12.699985 27.908195
v -12.144585 12.699985 27.908195
v -14.684585 12.699984 30.448189
v -12.144585 12.699984 30.448189
v -14.684609 12.699984 32.988190
v -12.144609 12.699984 32.988190
v -11.509634 12.064984 40.608192
v -20.399895 12.064983 35.528191
v -10.080883 12.064983 36.798195
v -19.764894 12.064983 32.988190
v -9.604633 12.064983 32.988190
v -17.224895 11.429984 46.323189
v -22.304640 11.429983 37.432945
v -13.890884 11.429983 43.941696
v -20.399639 11.429983 35.527946
v -11.509634 11.429984 40.608192
v -24.844633 10.794983 48.228188
v -24.844633 10.794983 38.068192
v -21.034641 10.794983 47.751938
v -22.304640 10.794983 37.433189
v -17.224634 10.794984 46.323189
v -35.004585 10.159984 38.068192
v -24.844608 10.159984 38.068192
v -35.004585 10.159984 43.148193
v -24.844608 10.159984 48.228188
v -35.004585 10.159984 48.228188
vt 1.498047 0.498047
vt 1.498047 -0.500977
vt 2.497070 0.498047
vt 2.497070 -0.500977
vt 1.498047 -1.499023
vt 2.497070 -1.499023
vt 1.498047 -2.498047
vt 2.497070 -2.498047
vt 1.498047 -3.497070
vt 2.497070 -3.497070
vt -1.498047 0.498047
vt -1.498047 -0.500977
vt -0.499023 0.498047
vt -0.499023 -0.500977
vt -1.498047 -1.499023
vt -0.499023 -1.499023
vt -1.498047 -2.498047
vt -0.499023 -2.498047
vt -1.498047 -3.497070
vt -0.499023 -3.497070
vt -0.499023 0.498047
vt -0.499023 -0.500977
vt 0.499023 0.498047
vt 0.499023 -0.500977
vt -0.499023 -1.499023
vt 0.499023 -1.499023
vt -0.499023 -2.498047
vt 0.499023 -2.498047
vt -0.499023 -3.497070
vt 0.499023 -3.497070
vt 0.499023 0.498047
vt 0.499023 -0.500977
vt 1.498047 0.498047
vt 1.498047 -0.500977
vt 0.499023 -1.499023
vt 1.498047 -1.499023
vt 0.499023 -2.498047
vt 1.498047 -2.498047
vt 0.499023 -3.497070
vt 1.498047 -3.497070
vt 3.253906 -0.000977
vt 2.902344 1.811523
vt -1.147461 -0.000977
vt -1.500000 1.132812
vt 2.264648 3.239258
vt 3.253906 -0.000977
vt 2.900391 1.809570
vt -1.146484 -0.000977
vt -1.497070 1.134766
vt 2.262695 3.238281
vt 3.253906 -0.000977
vt 2.902344 1.812500
vt -1.145508 -0.000977
vt -1.496094 1.134766
vt 2.263672 3.239258
vt -1.498047 0.498047
vt -1.498047 -1.499023
vt 2.497070 0.498047
vt 2.497070 -3.497070
vt -1.498047 -3.497070
vn 0.0000 1.0000 0.0000
usemtl Tex_0056_1.dds.007
s off
f 1/1/1 3/2/1 2/3/1
f 2/3/1 3/2/1 4/4/1
f 3/2/1 5/5/1 4/4/1
f 4/4/1 5/5/1 6/6/1
f 5/5/1 7/7/1 6/6/1
f 6/6/1 7/7/1 8/8/1
f 7/7/1 9/9/1 8/8/1
f 8/8/1 9/9/1 10/10/1
f 11/11/1 13/12/1 12/13/1
f 12/13/1 13/12/1 14/14/1
f 13/12/1 15/15/1 14/14/1
f 14/14/1 15/15/1 16/16/1
f 15/15/1 17/17/1 16/16/1
f 16/16/1 17/17/1 18/18/1
f 17/17/1 19/19/1 18/18/1
f 18/18/1 19/19/1 20/20/1
f 21/21/1 23/22/1 22/23/1
f 22/23/1 23/22/1 24/24/1
f 23/22/1 25/25/1 24/24/1
f 24/24/1 25/25/1 26/26/1
f 25/25/1 27/27/1 26/26/1
f 26/26/1 27/27/1 28/28/1
f 27/27/1 29/29/1 28/28/1
f 28/28/1 29/29/1 30/30/1
f 31/31/1 33/32/1 32/33/1
f 32/33/1 33/32/1 34/34/1
f 33/32/1 35/35/1 34/34/1
f 34/34/1 35/35/1 36/36/1
f 35/35/1 37/37/1 36/36/1
f 36/36/1 37/37/1 38/38/1
f 37/37/1 39/39/1 38/38/1
f 38/38/1 39/39/1 40/40/1
f 41/41/1 43/42/1 42/43/1
f 42/43/1 43/42/1 44/44/1
f 43/42/1 45/45/1 44/44/1
f 46/46/1 48/47/1 47/48/1
f 47/48/1 48/47/1 49/49/1
f 48/47/1 50/50/1 49/49/1
f 51/51/1 53/52/1 52/53/1
f 52/53/1 53/52/1 54/54/1
f 53/52/1 55/55/1 54/54/1
f 56/56/1 58/57/1 57/58/1
f 57/58/1 58/57/1 59/59/1
f 58/57/1 60/60/1 59/59/1
