# Blender v3.6.3 OBJ File: 'untitled.blend'
# www.blender.org
mtllib Mesh_0123.mtl
o Mesh_0123_Mesh.124
v -8.334585 43.816509 15.876732
v -8.334585 43.814991 10.075371
v -8.334585 40.004990 13.219124
v -8.334585 40.004990 10.710365
v -8.334585 35.559990 11.345367
v -8.334585 35.559990 -16.488964
v -8.334585 40.004990 -15.853966
v -8.334585 40.004990 -18.362724
v -8.334585 43.814991 -15.218967
v -8.334585 43.816513 -21.020325
v 40.577942 40.004990 21.558197
v 41.060028 39.954952 20.610275
v 38.073761 43.814987 21.558197
v 39.163925 43.830231 19.203110
v 36.579216 48.061611 17.263565
v 36.076302 46.354988 21.558197
v 39.163925 43.830231 19.203110
v 38.073761 43.814987 21.558197
v 21.492891 40.004990 21.558197
v 23.997072 43.814987 21.558197
v 21.010798 39.954952 20.610275
v 22.906908 43.830231 19.203110
v 25.491621 48.061611 17.263565
v 22.906908 43.830231 19.203110
v 25.994532 46.354988 21.558197
v 23.997072 43.814987 21.558197
v 40.577942 40.004990 -26.701797
v 38.073761 43.814991 -26.701797
v 41.060028 39.954952 -25.753868
v 39.163925 43.830231 -24.346710
v 36.579216 48.061615 -22.407166
v 39.163925 43.830231 -24.346710
v 36.076302 46.354988 -26.701797
v 38.073761 43.814991 -26.701797
v 21.492891 40.004990 -26.701797
v 21.010798 39.954952 -25.753868
v 23.997072 43.814991 -26.701797
v 22.906908 43.830231 -24.346710
v 25.491621 48.061615 -22.407166
v 25.994532 46.354988 -26.701797
v 22.906908 43.830231 -24.346710
v 23.997072 43.814991 -26.701797
v 46.892891 40.004990 21.558197
v 49.397072 43.814987 21.558197
v 46.410805 39.954952 20.610275
v 48.306915 43.830231 19.203110
v 50.891617 48.061611 17.263565
v 48.306915 43.830231 19.203110
v 51.394272 46.354988 21.558197
v 49.397072 43.814987 21.558197
v 65.977936 40.004990 21.558197
v 66.460030 39.954952 20.610275
v 63.473763 43.814987 21.558197
v 64.563927 43.830231 19.203110
v 61.979218 48.061611 17.263565
v 61.476295 46.354988 21.558197
v 64.563927 43.830231 19.203110
v 63.473763 43.814987 21.558197
v 46.892891 40.004990 -26.701797
v 46.410805 39.954952 -25.753868
v 49.397072 43.814991 -26.701797
v 48.306915 43.830231 -24.346710
v 50.891617 48.061615 -22.407166
v 51.394272 46.354988 -26.701797
v 48.306915 43.830231 -24.346710
v 49.397072 43.814991 -26.701797
v 65.977936 40.004990 -26.701797
v 63.473763 43.814991 -26.701797
v 66.460030 39.954952 -25.753868
v 64.563927 43.830231 -24.346710
v 61.979218 48.061615 -22.407166
v 64.563927 43.830231 -24.346710
v 61.476555 46.354988 -26.701797
v 63.473763 43.814991 -26.701797
v 15.177938 40.004990 21.558197
v 15.660028 39.954952 20.610275
v 12.673758 43.814987 21.558197
v 13.763922 43.830231 19.203110
v 11.179213 48.061611 17.263565
v 10.676298 46.354988 21.558197
v 13.763922 43.830231 19.203110
v 12.673758 43.814987 21.558197
v -3.907110 40.004990 21.558197
v -1.402929 43.814987 21.558197
v -4.389200 39.954952 20.610275
v -2.493095 43.830231 19.203110
v 0.091618 48.061611 17.263565
v -2.493095 43.830231 19.203110
v 0.594530 46.354988 21.558197
v -1.402929 43.814987 21.558197
v -8.334585 43.814991 10.075371
v -8.334585 43.816509 15.876732
v -8.334585 50.799988 6.900368
v -8.334585 50.799988 10.075371
v 15.177938 40.004990 -26.701797
v 12.673758 43.814991 -26.701797
v 15.660028 39.954952 -25.753868
v 13.763922 43.830231 -24.346710
v 11.179213 48.061615 -22.407166
v 13.763922 43.830231 -24.346710
v 10.676298 46.354988 -26.701797
v 12.673758 43.814991 -26.701797
v -3.907110 40.004990 -26.701797
v -4.389200 39.954952 -25.753868
v -1.402929 43.814991 -26.701797
v -2.493095 43.830231 -24.346710
v 0.091618 48.061615 -22.407166
v 0.594530 46.354988 -26.701797
v -2.493095 43.830231 -24.346710
v -1.402929 43.814991 -26.701797
v -8.334585 43.814991 -15.218967
v -8.334585 50.799988 -12.043964
v -8.334585 43.816513 -21.020325
v -8.334585 50.799988 -15.218967
v 33.112625 52.323730 14.747955
v 31.304907 54.116722 13.345619
v 31.035414 50.799988 21.558197
v 33.257912 49.212490 21.558197
v 33.112625 52.323730 14.747955
v 31.035414 50.799988 21.558197
v 36.579216 48.061611 17.263565
v 33.112625 52.323730 14.747955
v 33.257912 49.212490 21.558197
v 36.076302 46.354988 21.558197
v 36.579216 48.061611 17.263565
v 33.257912 49.212490 21.558197
v 31.035414 50.799988 21.558197
v 31.304907 54.116722 13.345619
v 28.958208 52.323730 14.747955
v 28.812914 49.212490 21.558197
v 31.035414 50.799988 21.558197
v 28.958208 52.323730 14.747955
v 28.812914 49.212490 21.558197
v 28.958208 52.323730 14.747955
v 25.491621 48.061611 17.263565
v 25.994532 46.354988 21.558197
v 28.812914 49.212490 21.558197
v 25.491621 48.061611 17.263565
v 19.605413 35.559990 21.552864
v 21.492891 40.004990 21.558197
v 21.010798 39.954952 20.610275
v 31.035414 50.799988 -26.701797
v 31.304907 54.116722 -18.489216
v 33.112625 52.323734 -19.891544
v 33.257912 49.212490 -26.701797
v 31.035414 50.799988 -26.701797
v 33.112625 52.323734 -19.891544
v 33.257912 49.212490 -26.701797
v 33.112625 52.323734 -19.891544
v 36.579216 48.061615 -22.407166
v 36.076302 46.354988 -26.701797
v 33.257912 49.212490 -26.701797
v 36.579216 48.061615 -22.407166
v 28.958208 52.323734 -19.891544
v 31.304907 54.116722 -18.489216
v 31.035414 50.799988 -26.701797
v 28.812914 49.212490 -26.701797
v 28.958208 52.323734 -19.891544
v 31.035414 50.799988 -26.701797
v 25.491621 48.061615 -22.407166
v 28.958208 52.323734 -19.891544
v 28.812914 49.212490 -26.701797
v 25.994532 46.354988 -26.701797
v 25.491621 48.061615 -22.407166
v 28.812914 49.212490 -26.701797
v 21.492891 40.004990 -26.701797
v 19.605413 35.559990 -26.696465
v 21.010798 39.954952 -25.753868
v 56.435417 50.799988 21.558197
v 56.165924 54.116722 13.345619
v 54.358208 52.323730 14.747955
v 54.212921 49.212490 21.558197
v 56.435417 50.799988 21.558197
v 54.358208 52.323730 14.747955
v 54.212921 49.212490 21.558197
v 54.358208 52.323730 14.747955
v 50.891617 48.061611 17.263565
v 51.394272 46.354988 21.558197
v 54.212921 49.212490 21.558197
v 50.891617 48.061611 17.263565
v 58.512627 52.323730 14.747955
v 56.165924 54.116722 13.345619
v 56.435417 50.799988 21.558197
v 58.657921 49.212490 21.558197
v 58.512627 52.323730 14.747955
v 56.435417 50.799988 21.558197
v 61.979218 48.061611 17.263565
v 58.512627 52.323730 14.747955
v 58.657921 49.212490 21.558197
v 61.476295 46.354988 21.558197
v 61.979218 48.061611 17.263565
v 58.657921 49.212490 21.558197
v 65.977936 40.004990 21.558197
v 67.865417 35.559990 21.552864
v 66.460030 39.954952 20.610275
v 54.358208 52.323734 -19.891544
v 56.165924 54.116722 -18.489216
v 56.435417 50.799988 -26.701797
v 54.212921 49.212490 -26.701797
v 54.358208 52.323734 -19.891544
v 56.435417 50.799988 -26.701797
v 50.891617 48.061615 -22.407166
v 54.358208 52.323734 -19.891544
v 54.212921 49.212490 -26.701797
v 51.394272 46.354988 -26.701797
v 50.891617 48.061615 -22.407166
v 54.212921 49.212490 -26.701797
v 56.435417 50.799988 -26.701797
v 56.165924 54.116722 -18.489216
v 58.512627 52.323734 -19.891544
v 58.657921 49.212490 -26.701797
v 56.435417 50.799988 -26.701797
v 58.512627 52.323734 -19.891544
v 58.657921 49.212490 -26.701797
v 58.512627 52.323734 -19.891544
v 61.979218 48.061615 -22.407166
v 61.476555 46.354988 -26.701797
v 58.657921 49.212490 -26.701797
v 61.979218 48.061615 -22.407166
v 67.865417 35.559990 -26.696465
v 65.977936 40.004990 -26.701797
v 66.460030 39.954952 -25.753868
v 7.712622 52.323730 14.747955
v 5.365923 54.116722 13.345619
v 5.635412 50.799988 21.558197
v 7.857912 49.212490 21.558197
v 7.712622 52.323730 14.747955
v 5.635412 50.799988 21.558197
v 11.179213 48.061611 17.263565
v 7.712622 52.323730 14.747955
v 7.857912 49.212490 21.558197
v 10.676298 46.354988 21.558197
v 11.179213 48.061611 17.263565
v 7.857912 49.212490 21.558197
v 15.177938 40.004990 21.558197
v 17.065413 35.559990 21.552864
v 15.660028 39.954952 20.610275
v 5.635412 50.799988 21.558197
v 5.365923 54.116722 13.345619
v 3.558210 52.323730 14.747955
v 3.412912 49.212490 21.558197
v 5.635412 50.799988 21.558197
v 3.558210 52.323730 14.747955
v 3.412912 49.212490 21.558197
v 3.558210 52.323730 14.747955
v 0.091618 48.061611 17.263565
v 0.594530 46.354988 21.558197
v 3.412912 49.212490 21.558197
v 0.091618 48.061611 17.263565
v -5.794584 35.559990 21.552864
v -3.907110 40.004990 21.558197
v -4.389200 39.954952 20.610275
v -8.334585 50.799988 10.075371
v -7.064585 57.784988 1.820366
v -8.334585 50.799988 6.900368
v 5.635412 50.799988 -26.701797
v 5.365923 54.116722 -18.489216
v 7.712622 52.323734 -19.891544
v 7.857912 49.212490 -26.701797
v 5.635412 50.799988 -26.701797
v 7.712622 52.323734 -19.891544
v 7.857912 49.212490 -26.701797
v 7.712622 52.323734 -19.891544
v 11.179213 48.061615 -22.407166
v 10.676298 46.354988 -26.701797
v 7.857912 49.212490 -26.701797
v 11.179213 48.061615 -22.407166
v 17.065413 35.559990 -26.696465
v 15.177938 40.004990 -26.701797
v 15.660028 39.954952 -25.753868
v 3.558210 52.323734 -19.891544
v 5.365923 54.116722 -18.489216
v 5.635412 50.799988 -26.701797
v 3.412912 49.212490 -26.701797
v 3.558210 52.323734 -19.891544
v 5.635412 50.799988 -26.701797
v 0.091618 48.061615 -22.407166
v 3.558210 52.323734 -19.891544
v 3.412912 49.212490 -26.701797
v 0.594530 46.354988 -26.701797
v 0.091618 48.061615 -22.407166
v 3.412912 49.212490 -26.701797
v -3.907110 40.004990 -26.701797
v -5.794584 35.559990 -26.696465
v -4.389200 39.954952 -25.753868
v -7.064585 57.784988 -6.963966
v -8.334585 50.799988 -15.218967
v -8.334585 50.799988 -12.043964
vt -0.184570 0.942383
vt -0.337891 0.593750
vt -0.546875 0.943359
vt -0.622070 0.617188
vt -0.521484 0.259766
vt -0.521484 0.259766
vt -0.337891 0.593750
vt -0.622070 0.617188
vt -0.546875 0.943359
vt -0.184570 0.942383
vt 1.905273 -1.213867
vt 1.801758 -1.586914
vt 1.996094 -1.237305
vt 1.999023 -1.559570
vt 1.995117 -1.990234
vt 1.999023 -1.559570
vt 1.667969 -1.990234
vt 1.801758 -1.586914
vt 1.905273 -1.213867
vt 1.996094 -1.237305
vt 1.801758 -1.586914
vt 1.999023 -1.559570
vt 1.995117 -1.990234
vt 1.667969 -1.990234
vt 1.999023 -1.559570
vt 1.801758 -1.586914
vt 1.905273 -1.213867
vt 1.996094 -1.237305
vt 1.801758 -1.586914
vt 1.999023 -1.559570
vt 1.995117 -1.990234
vt 1.667969 -1.990234
vt 1.999023 -1.559570
vt 1.801758 -1.586914
vt 1.905273 -1.213867
vt 1.801758 -1.586914
vt 1.996094 -1.237305
vt 1.999023 -1.559570
vt 1.995117 -1.990234
vt 1.999023 -1.559570
vt 1.667969 -1.990234
vt 1.801758 -1.586914
vt 1.905273 -1.213867
vt 1.996094 -1.237305
vt 1.801758 -1.586914
vt 1.999023 -1.559570
vt 1.995117 -1.990234
vt 1.667969 -1.990234
vt 1.999023 -1.559570
vt 1.801758 -1.586914
vt 1.905273 -1.213867
vt 1.801758 -1.586914
vt 1.996094 -1.237305
vt 1.999023 -1.559570
vt 1.995117 -1.990234
vt 1.999023 -1.559570
vt 1.667969 -1.990234
vt 1.801758 -1.586914
vt 1.905273 -1.213867
vt 1.801758 -1.586914
vt 1.996094 -1.237305
vt 1.999023 -1.559570
vt 1.995117 -1.990234
vt 1.999023 -1.559570
vt 1.667969 -1.990234
vt 1.801758 -1.586914
vt 1.905273 -1.213867
vt 1.996094 -1.237305
vt 1.801758 -1.586914
vt 1.999023 -1.559570
vt 1.995117 -1.990234
vt 1.667969 -1.990234
vt 1.999023 -1.559570
vt 1.801758 -1.586914
vt 1.905273 -1.213867
vt 1.801758 -1.586914
vt 1.996094 -1.237305
vt 1.999023 -1.559570
vt 1.995117 -1.990234
vt 1.999023 -1.559570
vt 1.667969 -1.990234
vt 1.801758 -1.586914
vt 1.905273 -1.213867
vt 1.996094 -1.237305
vt 1.801758 -1.586914
vt 1.999023 -1.559570
vt 1.995117 -1.990234
vt 1.667969 -1.990234
vt 1.999023 -1.559570
vt 1.801758 -1.586914
vt -1.611328 -0.000977
vt -1.725586 -0.583008
vt -1.964844 -0.001953
vt -1.931641 -0.571289
vt 1.905273 -1.213867
vt 1.996094 -1.237305
vt 1.801758 -1.586914
vt 1.999023 -1.559570
vt 1.995117 -1.990234
vt 1.667969 -1.990234
vt 1.999023 -1.559570
vt 1.801758 -1.586914
vt 1.905273 -1.213867
vt 1.801758 -1.586914
vt 1.996094 -1.237305
vt 1.999023 -1.559570
vt 1.995117 -1.990234
vt 1.999023 -1.559570
vt 1.667969 -1.990234
vt 1.801758 -1.586914
vt -1.611328 -0.000977
vt -1.964844 -0.001953
vt -1.725586 -0.583008
vt -1.931641 -0.571289
vt 2.008789 0.600586
vt 2.707031 1.001953
vt 2.008789 0.998047
vt 2.569336 0.603516
vt 2.707031 1.001953
vt 2.008789 0.600586
vt 1.998047 0.011719
vt 2.569336 0.603516
vt 2.008789 0.600586
vt 2.333008 0.022461
vt 2.569336 0.603516
vt 1.998047 0.011719
vt 2.707031 1.001953
vt 2.008789 0.600586
vt 2.008789 0.998047
vt 2.569336 0.603516
vt 2.008789 0.600586
vt 2.707031 1.001953
vt 2.569336 0.603516
vt 1.998047 0.011719
vt 2.008789 0.600586
vt 2.333008 0.022461
vt 1.998047 0.011719
vt 2.569336 0.603516
vt 1.998047 -1.004883
vt 1.996094 -1.237305
vt 1.905273 -1.213867
vt 2.707031 1.001953
vt 2.008789 0.600586
vt 2.008789 0.998047
vt 2.569336 0.603516
vt 2.008789 0.600586
vt 2.707031 1.001953
vt 2.569336 0.603516
vt 1.998047 0.011719
vt 2.008789 0.600586
vt 2.333008 0.022461
vt 1.998047 0.011719
vt 2.569336 0.603516
vt 2.008789 0.600586
vt 2.707031 1.001953
vt 2.008789 0.998047
vt 2.569336 0.603516
vt 2.707031 1.001953
vt 2.008789 0.600586
vt 1.998047 0.011719
vt 2.569336 0.603516
vt 2.008789 0.600586
vt 2.333008 0.022461
vt 2.569336 0.603516
vt 1.998047 0.011719
vt 1.905273 -1.213867
vt 1.996094 -1.237305
vt 1.998047 -1.004883
vt 2.707031 1.001953
vt 2.008789 0.600586
vt 2.008789 0.998047
vt 2.569336 0.603516
vt 2.008789 0.600586
vt 2.707031 1.001953
vt 2.569336 0.603516
vt 1.998047 0.011719
vt 2.008789 0.600586
vt 2.333008 0.022461
vt 1.998047 0.011719
vt 2.569336 0.603516
vt 2.008789 0.600586
vt 2.707031 1.001953
vt 2.008789 0.998047
vt 2.569336 0.603516
vt 2.707031 1.001953
vt 2.008789 0.600586
vt 1.998047 0.011719
vt 2.569336 0.603516
vt 2.008789 0.600586
vt 2.333008 0.022461
vt 2.569336 0.603516
vt 1.998047 0.011719
vt 1.905273 -1.213867
vt 1.996094 -1.237305
vt 1.998047 -1.004883
vt 2.008789 0.600586
vt 2.707031 1.001953
vt 2.008789 0.998047
vt 2.569336 0.603516
vt 2.707031 1.001953
vt 2.008789 0.600586
vt 1.998047 0.011719
vt 2.569336 0.603516
vt 2.008789 0.600586
vt 2.333008 0.022461
vt 2.569336 0.603516
vt 1.998047 0.011719
vt 2.707031 1.001953
vt 2.008789 0.600586
vt 2.008789 0.998047
vt 2.569336 0.603516
vt 2.008789 0.600586
vt 2.707031 1.001953
vt 2.569336 0.603516
vt 1.998047 0.011719
vt 2.008789 0.600586
vt 2.333008 0.022461
vt 1.998047 0.011719
vt 2.569336 0.603516
vt 1.998047 -1.004883
vt 1.996094 -1.237305
vt 1.905273 -1.213867
vt 2.008789 0.600586
vt 2.703125 0.997070
vt 2.004883 0.994141
vt 2.569336 0.603516
vt 2.703125 0.997070
vt 2.008789 0.600586
vt 1.998047 0.011719
vt 2.569336 0.603516
vt 2.008789 0.600586
vt 2.333008 0.022461
vt 2.569336 0.603516
vt 1.998047 0.011719
vt 1.905273 -1.213867
vt 1.996094 -1.237305
vt 1.998047 -1.004883
vt 2.707031 1.001953
vt 2.008789 0.600586
vt 2.008789 0.998047
vt 2.569336 0.603516
vt 2.008789 0.600586
vt 2.707031 1.001953
vt 2.569336 0.603516
vt 1.998047 0.011719
vt 2.008789 0.600586
vt 2.333008 0.022461
vt 1.998047 0.011719
vt 2.569336 0.603516
vt 1.998047 -1.004883
vt 1.996094 -1.237305
vt 1.905273 -1.213867
vt -1.541992 -0.004883
vt -1.151367 0.000977
vt -1.704102 -0.717773
vt 2.703125 0.997070
vt 2.008789 0.600586
vt 2.004883 0.994141
vt 2.569336 0.603516
vt 2.008789 0.600586
vt 2.703125 0.997070
vt 2.569336 0.603516
vt 1.998047 0.011719
vt 2.008789 0.600586
vt 2.333008 0.022461
vt 1.998047 0.011719
vt 2.569336 0.603516
vt 1.998047 -1.004883
vt 1.996094 -1.237305
vt 1.905273 -1.213867
vt 2.008789 0.600586
vt 2.707031 1.001953
vt 2.008789 0.998047
vt 2.569336 0.603516
vt 2.707031 1.001953
vt 2.008789 0.600586
vt 1.998047 0.011719
vt 2.569336 0.603516
vt 2.008789 0.600586
vt 2.333008 0.022461
vt 2.569336 0.603516
vt 1.998047 0.011719
vt 1.905273 -1.213867
vt 1.996094 -1.237305
vt 1.998047 -1.004883
vt -1.704102 -0.717773
vt -1.151367 0.000977
vt -1.541992 -0.004883
vn 1.0000 -0.0000 0.0000
vn -0.7770 -0.5107 -0.3682
vn -0.7779 -0.5126 -0.3634
vn -0.7345 -0.5968 -0.3232
vn -0.7401 -0.5954 -0.3126
vn -0.7285 -0.6031 -0.3250
vn -0.7325 -0.5760 -0.3630
vn -0.7459 -0.5673 -0.3490
vn -0.7377 -0.5801 -0.3452
vn 0.7770 -0.5107 -0.3682
vn 0.7777 -0.5092 -0.3687
vn 0.7756 -0.5098 -0.3723
vn 0.7777 -0.5131 -0.3633
vn 0.7795 -0.5123 -0.3604
vn 0.7779 -0.5126 -0.3634
vn 0.7345 -0.5968 -0.3232
vn 0.7285 -0.6031 -0.3250
vn 0.7401 -0.5954 -0.3126
vn 0.7459 -0.5673 -0.3490
vn 0.7325 -0.5760 -0.3630
vn 0.7377 -0.5801 -0.3452
vn -0.7770 -0.5107 0.3682
vn -0.7779 -0.5126 0.3634
vn -0.7345 -0.5968 0.3232
vn -0.7285 -0.6031 0.3250
vn -0.7401 -0.5954 0.3126
vn -0.7459 -0.5673 0.3490
vn -0.7325 -0.5760 0.3630
vn -0.7377 -0.5801 0.3452
vn 0.7770 -0.5107 0.3682
vn 0.7756 -0.5098 0.3723
vn 0.7777 -0.5092 0.3686
vn 0.7795 -0.5123 0.3604
vn 0.7776 -0.5132 0.3633
vn 0.7779 -0.5126 0.3634
vn 0.7345 -0.5968 0.3232
vn 0.7401 -0.5954 0.3126
vn 0.7285 -0.6031 0.3250
vn 0.7325 -0.5760 0.3630
vn 0.7459 -0.5673 0.3490
vn 0.7377 -0.5801 0.3452
vn 0.7777 -0.5091 -0.3687
vn 0.7775 -0.5133 -0.3632
vn 0.7796 -0.5123 -0.3603
vn 0.7345 -0.5968 -0.3231
vn 0.7285 -0.6031 -0.3249
vn 0.7402 -0.5954 -0.3125
vn 0.7460 -0.5672 -0.3490
vn 0.7325 -0.5759 -0.3631
vn 0.7378 -0.5801 -0.3453
vn -0.7756 -0.5098 -0.3723
vn -0.7777 -0.5092 -0.3686
vn -0.7795 -0.5123 -0.3604
vn -0.7775 -0.5133 -0.3632
vn -0.7324 -0.5760 -0.3630
vn 0.7345 -0.5968 0.3231
vn 0.7402 -0.5954 0.3125
vn 0.7285 -0.6031 0.3249
vn 0.7325 -0.5759 0.3630
vn 0.7460 -0.5672 0.3490
vn 0.7378 -0.5801 0.3453
vn -0.7777 -0.5092 0.3686
vn -0.7756 -0.5098 0.3723
vn -0.7776 -0.5132 0.3633
vn -0.7795 -0.5123 0.3604
vn -0.7345 -0.5968 0.3231
vn -0.7285 -0.6031 0.3249
vn -0.7402 -0.5954 0.3125
vn -0.7460 -0.5672 0.3490
vn -0.7325 -0.5759 0.3630
vn -0.7378 -0.5801 0.3453
vn -0.7777 -0.5092 -0.3687
vn -0.7776 -0.5132 -0.3633
vn 0.7776 -0.5132 -0.3633
vn -0.7777 -0.5131 0.3633
vn 0.7777 -0.5091 0.3687
vn -0.5201 -0.7859 -0.3345
vn -0.5470 -0.7658 -0.3382
vn -0.6412 -0.7030 -0.3075
vn -0.6694 -0.6602 -0.3407
vn 0.4453 -0.8352 -0.3227
vn 0.5470 -0.7658 -0.3382
vn 0.6412 -0.7030 -0.3075
vn 0.6694 -0.6602 -0.3407
vn 0.8403 -0.3563 -0.4086
vn -0.5201 -0.7859 0.3345
vn -0.5470 -0.7658 0.3382
vn -0.6412 -0.7030 0.3075
vn -0.6694 -0.6602 0.3407
vn 0.4453 -0.8352 0.3227
vn 0.5470 -0.7658 0.3382
vn 0.6412 -0.7030 0.3075
vn 0.6694 -0.6602 0.3407
vn 0.8403 -0.3563 0.4085
vn 0.5201 -0.7859 -0.3345
vn 0.6693 -0.6602 -0.3407
vn -0.4453 -0.8352 -0.3227
vn -0.8403 -0.3563 -0.4086
vn 0.5201 -0.7859 0.3345
vn 0.6693 -0.6602 0.3407
vn -0.4453 -0.8352 0.3227
vn -0.6693 -0.6602 0.3407
vn -0.8403 -0.3563 0.4085
vn -0.8403 -0.3563 -0.4085
vn 0.8403 -0.3563 -0.4085
vn 0.9839 -0.1789 0.0000
usemtl Tex_0025_1.dds
s off
f 1/1/1 3/2/1 2/3/1
f 2/3/1 3/2/1 4/4/1
f 3/2/1 5/5/1 4/4/1
f 6/6/1 8/7/1 7/8/1
f 7/8/1 8/7/1 9/9/1
f 8/7/1 10/10/1 9/9/1
f 11/11/2 13/12/2 12/13/2
f 12/13/3 13/12/3 14/14/3
f 15/15/4 17/16/5 16/17/6
f 16/17/7 17/16/8 18/18/9
f 19/19/10 21/20/11 20/21/12
f 20/21/13 21/20/14 22/22/15
f 23/23/16 25/24/17 24/25/18
f 24/25/19 25/24/20 26/26/21
f 27/27/22 29/28/22 28/29/22
f 28/29/23 29/28/23 30/30/23
f 31/31/24 33/32/25 32/33/26
f 32/33/27 33/32/28 34/34/29
f 35/35/30 37/36/31 36/37/32
f 36/37/33 37/36/34 38/38/35
f 39/39/36 41/40/37 40/41/38
f 40/41/39 41/40/40 42/42/41
f 43/43/10 45/44/42 44/45/12
f 44/45/43 45/44/44 46/46/15
f 47/47/45 49/48/46 48/49/47
f 48/49/48 49/48/49 50/50/50
f 51/51/2 53/52/51 52/53/52
f 52/53/53 53/52/54 54/54/3
f 55/55/4 57/56/5 56/57/6
f 56/57/55 57/56/8 58/58/9
f 59/59/30 61/60/30 60/61/30
f 60/61/35 61/60/35 62/62/35
f 63/63/56 65/64/57 64/65/58
f 64/65/59 65/64/60 66/66/61
f 67/67/22 69/68/62 68/69/63
f 68/69/64 69/68/65 70/70/23
f 71/71/66 73/72/67 72/73/68
f 72/73/69 73/72/70 74/74/71
f 75/75/2 77/76/51 76/77/72
f 76/77/53 77/76/73 78/78/3
f 79/79/4 81/80/5 80/81/6
f 80/81/7 81/80/8 82/82/9
f 83/83/10 85/84/42 84/85/12
f 84/85/74 85/84/14 86/86/15
f 87/87/16 89/88/17 88/89/18
f 88/89/19 89/88/20 90/90/21
f 91/91/1 93/92/1 92/93/1
f 92/93/1 93/92/1 94/94/1
f 95/95/22 97/96/62 96/97/63
f 96/97/75 97/96/65 98/98/23
f 99/99/24 101/100/25 100/101/68
f 100/101/27 101/100/28 102/102/29
f 103/103/30 105/104/31 104/105/76
f 104/105/33 105/104/34 106/106/35
f 107/107/36 109/108/57 108/109/38
f 108/109/39 109/108/40 110/110/41
f 111/111/1 113/112/1 112/113/1
f 112/113/1 113/112/1 114/114/1
f 115/115/77 117/116/77 116/117/77
f 118/118/78 120/119/78 119/120/78
f 121/121/79 123/122/79 122/123/79
f 124/124/80 126/125/80 125/126/80
f 127/127/81 129/128/81 128/129/81
f 130/130/82 132/131/82 131/132/82
f 133/133/83 135/134/83 134/135/83
f 136/136/84 138/137/84 137/138/84
f 139/139/85 141/140/85 140/141/85
f 142/142/86 144/143/86 143/144/86
f 145/145/87 147/146/87 146/147/87
f 148/148/88 150/149/88 149/150/88
f 151/151/89 153/152/89 152/153/89
f 154/154/90 156/155/90 155/156/90
f 157/157/91 159/158/91 158/159/91
f 160/160/92 162/161/92 161/162/92
f 163/163/93 165/164/93 164/165/93
f 166/166/94 168/167/94 167/168/94
f 169/169/95 171/170/95 170/171/95
f 172/172/82 174/173/82 173/174/82
f 175/175/83 177/176/83 176/177/83
f 178/178/96 180/179/96 179/180/96
f 181/181/97 183/182/97 182/183/97
f 184/184/78 186/185/78 185/186/78
f 187/187/79 189/188/79 188/189/79
f 190/190/80 192/191/80 191/192/80
f 193/193/98 195/194/98 194/195/98
f 196/196/99 198/197/99 197/198/99
f 199/199/91 201/200/91 200/201/91
f 202/202/92 204/203/92 203/204/92
f 205/205/100 207/206/100 206/207/100
f 208/208/101 210/209/101 209/210/101
f 211/211/87 213/212/87 212/213/87
f 214/214/88 216/215/88 215/216/88
f 217/217/102 219/218/102 218/219/102
f 220/220/103 222/221/103 221/222/103
f 223/223/97 225/224/97 224/225/97
f 226/226/78 228/227/78 227/228/78
f 229/229/79 231/230/79 230/231/79
f 232/232/80 234/233/80 233/234/80
f 235/235/104 237/236/104 236/237/104
f 238/238/95 240/239/95 239/240/95
f 241/241/82 243/242/82 242/243/82
f 244/244/83 246/245/83 245/246/83
f 247/247/84 249/248/84 248/249/84
f 250/250/105 252/251/105 251/252/105
f 253/253/106 255/254/106 254/255/106
f 256/256/101 258/257/101 257/258/101
f 259/259/87 261/260/87 260/261/87
f 262/262/88 264/263/88 263/264/88
f 265/265/89 267/266/89 266/267/89
f 268/268/103 270/269/103 269/270/103
f 271/271/99 273/272/99 272/273/99
f 274/274/91 276/275/91 275/276/91
f 277/277/92 279/278/92 278/279/92
f 280/280/93 282/281/93 281/282/93
f 283/283/94 285/284/94 284/285/94
f 286/286/106 288/287/106 287/288/106
