# Blender v3.6.3 OBJ File: 'untitled.blend'
# www.blender.org
mtllib Mesh_0132.mtl
o Mesh_0132_Mesh.005
v 68.498993 44.282627 -2.573784
v 68.498993 44.734520 -0.615387
v 69.135498 44.230610 -0.405304
v 68.499008 45.798985 1.089439
v 69.135468 45.408485 1.480469
v 69.135483 47.294537 2.659309
v 68.499008 45.798985 1.089439
v 68.498993 47.503323 2.154709
v 69.135483 47.294537 2.659309
v 68.498993 49.461411 2.607491
v 69.135483 49.461918 3.160324
v 69.135498 51.628536 2.660324
v 68.498993 49.461411 2.607491
v 68.498993 51.420002 2.155647
v 69.135498 51.628536 2.660324
v 68.498993 53.124596 1.091133
v 69.135468 53.514999 1.482376
v 69.135498 54.693810 -0.404289
v 69.135498 44.230610 -4.739792
v 69.135483 45.408485 -6.624840
v 68.498993 45.798985 -6.234558
v 69.135483 47.294537 -7.803665
v 68.498993 47.503323 -7.299847
v 68.498993 49.461411 -7.752613
v 69.135483 47.294537 -7.803665
v 69.135483 49.461914 -8.304680
v 68.498993 49.461411 -7.752613
v 69.135498 51.628536 -7.804688
v 68.498993 51.420002 -7.300762
v 68.498993 53.124596 -6.236259
v 69.135498 51.628536 -7.804688
v 69.135483 53.514999 -6.626740
v 68.498993 53.124596 -6.236259
v 69.135498 54.693810 -4.740784
v 68.498993 54.190128 -4.531967
v 68.498993 54.642754 -2.573784
v 69.135483 44.844574 -2.573654
v 69.135483 45.247444 -0.827705
v 68.498993 44.734520 -0.615387
v 69.135498 46.196445 0.692146
v 68.499008 45.798985 1.089439
v 68.498993 47.503323 2.154709
v 69.135498 46.196445 0.692146
v 69.135483 47.715919 1.641884
v 68.498993 47.503323 2.154709
v 69.135483 49.461662 2.045540
v 68.498993 49.461411 2.607491
v 68.498993 51.420002 2.155647
v 69.135483 49.461662 2.045540
v 69.135483 51.207664 1.642723
v 68.498993 51.420002 2.155647
v 69.135483 52.727337 0.693703
v 68.498993 53.124596 1.091133
v 68.498993 54.190128 -0.614449
v 68.498993 44.734520 -4.531052
v 68.498993 45.798985 -6.234558
v 69.135483 46.196445 -5.837273
v 68.498993 47.503323 -7.299847
v 69.135483 47.715919 -6.787018
v 69.135498 49.461666 -7.190655
v 68.498993 47.503323 -7.299847
v 68.498993 49.461411 -7.752613
v 69.135498 49.461666 -7.190655
v 68.498993 51.420002 -7.300762
v 69.135498 51.207664 -6.787834
v 69.135483 52.727337 -5.838829
v 68.498993 51.420002 -7.300762
v 68.498993 53.124596 -6.236259
v 69.135483 52.727337 -5.838829
v 68.498993 54.190128 -4.531967
v 69.135483 53.677048 -4.319397
v 69.135483 54.080906 -2.573654
v 68.498993 53.124596 1.091133
v 68.498993 54.190128 -0.614449
v 69.135498 54.693810 -0.404289
v 68.498993 54.642754 -2.573784
v 69.135498 55.194698 -2.572838
v 68.498993 45.798985 -6.234558
v 68.498993 44.734520 -4.531052
v 69.135498 44.230610 -4.739792
v 68.498993 44.282627 -2.573784
v 69.135483 43.730560 -2.572861
v 69.135483 52.727337 0.693703
v 69.135483 53.677048 -0.826866
v 68.498993 54.190128 -0.614449
v 69.135483 54.080906 -2.573654
v 68.498993 54.642754 -2.573784
v 69.135483 46.196445 -5.837273
v 69.135483 45.247444 -4.318581
v 68.498993 44.734520 -4.531052
v 69.135483 44.844574 -2.573654
v 68.498993 44.282627 -2.573784
v 68.498993 44.282627 -2.573784
v 69.135498 44.230610 -0.405304
v 69.135483 43.730560 -2.572861
v 68.498993 54.642754 -2.573784
v 69.135498 54.693810 -4.740784
v 69.135498 55.194698 -2.572838
v 69.135483 44.844574 -2.573654
v 68.498993 44.734520 -0.615387
v 68.498993 44.282627 -2.573784
v 69.135483 54.080906 -2.573654
v 68.498993 54.190128 -4.531967
v 68.498993 54.642754 -2.573784
vt -1.498047 -0.143555
vt -0.999023 0.000000
vt -0.999023 -0.143555
vt -0.499023 -0.143555
vt -0.499023 0.000000
vt 0.000000 0.000000
vt -0.499023 -0.143555
vt 0.000000 0.000000
vt 0.000000 -0.143555
vt 0.499023 -0.143555
vt 0.499023 0.000000
vt 0.999023 0.000000
vt 0.499023 -0.143555
vt 0.999023 0.000000
vt 0.999023 -0.143555
vt 1.498047 -0.143555
vt 1.498047 0.000000
vt 1.998047 0.000000
vt 1.998047 0.000000
vt 1.498047 -0.143555
vt 1.498047 0.000000
vt 0.999023 0.000000
vt 0.999023 -0.143555
vt 0.499023 -0.143555
vt 0.999023 0.000000
vt 0.499023 -0.143555
vt 0.499023 0.000000
vt 0.000000 0.000000
vt 0.000000 -0.143555
vt -0.499023 -0.143555
vt 0.000000 0.000000
vt -0.499023 -0.143555
vt -0.499023 0.000000
vt -0.999023 0.000000
vt -0.999023 -0.143555
vt -1.498047 -0.143555
vt -1.498047 -0.343750
vt -0.999023 -0.143555
vt -0.999023 -0.343750
vt -0.499023 -0.343750
vt -0.499023 -0.143555
vt 0.000000 -0.143555
vt -0.499023 -0.343750
vt 0.000000 -0.143555
vt 0.000000 -0.343750
vt 0.499023 -0.343750
vt 0.499023 -0.143555
vt 0.999023 -0.143555
vt 0.499023 -0.343750
vt 0.999023 -0.143555
vt 0.999023 -0.343750
vt 1.498047 -0.343750
vt 1.498047 -0.143555
vt 1.998047 -0.143555
vt 1.998047 -0.143555
vt 1.498047 -0.343750
vt 1.498047 -0.143555
vt 0.999023 -0.143555
vt 0.999023 -0.343750
vt 0.499023 -0.343750
vt 0.999023 -0.143555
vt 0.499023 -0.343750
vt 0.499023 -0.143555
vt 0.000000 -0.143555
vt 0.000000 -0.343750
vt -0.499023 -0.343750
vt 0.000000 -0.143555
vt -0.499023 -0.343750
vt -0.499023 -0.143555
vt -0.999023 -0.143555
vt -0.999023 -0.343750
vt -1.498047 -0.343750
vt 1.498047 -0.143555
vt 1.998047 0.000000
vt 1.998047 -0.143555
vt 2.497070 -0.143555
vt 2.497070 0.000000
vt 1.498047 -0.143555
vt 1.998047 0.000000
vt 1.998047 -0.143555
vt 2.497070 -0.143555
vt 2.497070 0.000000
vt 1.498047 -0.343750
vt 1.998047 -0.143555
vt 1.998047 -0.343750
vt 2.497070 -0.343750
vt 2.497070 -0.143555
vt 1.498047 -0.343750
vt 1.998047 -0.143555
vt 1.998047 -0.343750
vt 2.497070 -0.343750
vt 2.497070 -0.143555
vt -1.498047 -0.143555
vt -1.498047 0.000000
vt -0.999023 0.000000
vt -1.498047 -0.143555
vt -1.498047 0.000000
vt -0.999023 0.000000
vt -1.498047 -0.343750
vt -1.498047 -0.143555
vt -0.999023 -0.143555
vt -1.498047 -0.343750
vt -1.498047 -0.143555
vt -0.999023 -0.143555
vn -0.6457 -0.7440 0.1717
vn -0.5981 -0.7859 0.1568
vn -0.6460 -0.6475 0.4043
vn -0.5681 -0.7712 0.2873
vn -0.6458 -0.6476 0.4045
vn -0.6460 -0.4046 0.6473
vn -0.6459 -0.4046 0.6473
vn -0.5365 -0.4916 0.6859
vn -0.7369 -0.3583 0.5732
vn -0.7370 -0.1523 0.6585
vn -0.5662 -0.1470 0.8110
vn -0.6460 -0.1720 0.7437
vn -0.6039 -0.2706 0.7497
vn -0.6459 -0.1719 0.7438
vn -0.6461 0.1716 0.7437
vn -0.6460 0.1716 0.7438
vn -0.5366 0.1373 0.8326
vn -0.7370 0.1519 0.6586
vn -0.7369 0.3581 0.5734
vn -0.5660 0.4698 0.6774
vn -0.6647 0.5125 0.5436
vn -0.6041 0.3386 0.7214
vn -0.5053 0.4571 0.7320
vn -0.7455 0.3046 0.5928
vn -0.7706 0.5748 0.2752
vn -0.5049 0.7320 0.4574
vn -0.6458 0.6475 0.4045
vn -0.6455 -0.6477 -0.4047
vn -0.7704 -0.5751 -0.2753
vn -0.5047 -0.7321 -0.4575
vn -0.5047 -0.4575 -0.7321
vn -0.7450 -0.3053 -0.5931
vn -0.6455 -0.4048 -0.6477
vn -0.6643 -0.5128 -0.5439
vn -0.6455 -0.1721 -0.7441
vn -0.6454 -0.1720 -0.7442
vn -0.7703 -0.2121 -0.6014
vn -0.5044 -0.1945 -0.8413
vn -0.5048 0.1941 -0.8412
vn -0.7452 0.2036 -0.6350
vn -0.6037 0.2705 -0.7499
vn -0.6643 0.0218 -0.7471
vn -0.7366 0.1521 -0.6590
vn -0.5656 0.1466 -0.8116
vn -0.5360 0.4916 -0.6864
vn -0.7366 0.3583 -0.5737
vn -0.6455 0.4046 -0.6478
vn -0.6455 0.4045 -0.6478
vn -0.7704 0.2751 -0.5751
vn -0.5047 0.4573 -0.7323
vn -0.5047 0.7321 -0.4576
vn -0.7451 0.5931 -0.3051
vn -0.6038 0.7215 -0.3390
vn -0.6641 0.5439 -0.5130
vn -0.7365 0.5735 -0.3586
vn -0.5654 0.6775 -0.4703
vn -0.5359 0.8330 -0.1377
vn -0.7365 0.6590 -0.1523
vn -0.6454 0.7442 -0.1720
vn -0.6521 0.7387 -0.1704
vn -0.5441 0.8288 -0.1303
vn -0.7418 0.6534 -0.1508
vn -0.7418 0.5688 -0.3552
vn -0.5765 0.6697 -0.4681
vn -0.6747 0.5394 -0.5037
vn -0.6089 0.7162 -0.3411
vn -0.5132 0.7280 -0.4545
vn -0.7468 0.5935 -0.3001
vn -0.7742 0.2657 -0.5744
vn -0.5132 0.4549 -0.7278
vn -0.6522 0.4018 -0.6428
vn -0.5441 0.4940 -0.6782
vn -0.7418 0.3554 -0.5687
vn -0.7418 0.1511 -0.6534
vn -0.5765 0.1425 -0.8045
vn -0.6521 0.1708 -0.7386
vn -0.6089 0.2652 -0.7476
vn -0.6522 0.1708 -0.7386
vn -0.6521 -0.1704 -0.7387
vn -0.5441 -0.1302 -0.8289
vn -0.7418 -0.1507 -0.6534
vn -0.7418 -0.3552 -0.5688
vn -0.5765 -0.4682 -0.6697
vn -0.6748 -0.5038 -0.5393
vn -0.6088 -0.3412 -0.7162
vn -0.5132 -0.4546 -0.7280
vn -0.7468 -0.3001 -0.5935
vn -0.7742 -0.5745 -0.2656
vn -0.5131 -0.7279 -0.4548
vn -0.6521 -0.6430 -0.4017
vn -0.6522 0.6429 0.4017
vn -0.7742 0.5745 0.2657
vn -0.5134 0.7278 0.4548
vn -0.5134 0.4548 0.7277
vn -0.7467 0.3005 0.5934
vn -0.6089 0.3415 0.7160
vn -0.6747 0.5039 0.5393
vn -0.7418 0.3554 0.5687
vn -0.5766 0.4684 0.6695
vn -0.5441 0.1306 0.8288
vn -0.7418 0.1511 0.6534
vn -0.6521 0.1708 0.7386
vn -0.6522 0.1708 0.7386
vn -0.7742 0.2185 0.5940
vn -0.5133 0.1934 0.8362
vn -0.5132 -0.1930 0.8363
vn -0.7468 -0.2072 0.6320
vn -0.6088 -0.2648 0.7478
vn -0.6748 -0.0249 0.7376
vn -0.7418 -0.1507 0.6534
vn -0.5765 -0.1422 0.8046
vn -0.5441 -0.4937 0.6784
vn -0.7418 -0.3552 0.5688
vn -0.6521 -0.4016 0.6430
vn -0.7742 -0.2656 0.5745
vn -0.5133 -0.4546 0.7279
vn -0.5133 -0.7277 0.4550
vn -0.7467 -0.5934 0.3005
vn -0.6087 -0.7160 0.3417
vn -0.6750 -0.5390 0.5038
vn -0.7419 -0.5686 0.3554
vn -0.5767 -0.6694 0.4683
vn -0.5443 -0.8286 0.1307
vn -0.7419 -0.6532 0.1511
vn -0.6523 -0.7384 0.1708
vn -0.6459 0.6475 0.4045
vn -0.5367 0.6860 0.4914
vn -0.7370 0.5732 0.3581
vn -0.7365 0.6591 0.1523
vn -0.5656 0.8115 0.1468
vn -0.6456 0.7441 0.1719
vn -0.6034 0.7501 0.2707
vn -0.6455 0.7441 0.1719
vn -0.5360 -0.6862 -0.4918
vn -0.7366 -0.5735 -0.3584
vn -0.7366 -0.6590 -0.1522
vn -0.5656 -0.8115 -0.1467
vn -0.6455 -0.7442 -0.1718
vn -0.6032 -0.7503 -0.2706
vn -0.6453 -0.7443 -0.1718
vn -0.6523 -0.6429 -0.4015
vn -0.5443 -0.6783 -0.4936
vn -0.7418 -0.5688 -0.3552
vn -0.7419 -0.6533 -0.1510
vn -0.5768 -0.8044 -0.1426
vn -0.6523 -0.7385 -0.1707
vn -0.6086 -0.7479 -0.2650
vn -0.6521 -0.7387 -0.1707
vn -0.5440 0.6782 0.4940
vn -0.7419 0.5686 0.3553
vn -0.7419 0.6533 0.1508
vn -0.5765 0.8046 0.1422
vn -0.6522 0.7386 0.1705
vn -0.6089 0.7477 0.2649
vn -0.6457 -0.7441 0.1717
vn -0.6452 0.7444 -0.1720
vn -0.6521 -0.7387 0.1707
usemtl Tex_0032_0.dds
s off
f 1/1/1 3/2/2 2/3/1
f 2/3/3 3/2/3 4/4/3
f 3/2/4 5/5/5 4/4/5
f 4/4/6 5/5/6 6/6/6
f 7/7/7 9/8/8 8/9/9
f 8/9/10 9/8/11 10/10/12
f 9/8/13 11/11/14 10/10/14
f 10/10/15 11/11/15 12/12/15
f 13/13/16 15/14/17 14/15/18
f 14/15/19 15/14/20 16/16/21
f 15/14/22 17/17/23 16/16/24
f 16/16/25 17/17/26 18/18/27
f 19/19/28 21/20/29 20/21/30
f 20/21/31 21/20/32 22/22/33
f 21/20/34 23/23/33 22/22/33
f 22/22/35 23/23/35 24/24/35
f 25/25/36 27/26/37 26/27/38
f 26/27/39 27/26/40 28/28/41
f 27/26/42 29/29/43 28/28/44
f 28/28/45 29/29/46 30/30/47
f 31/31/48 33/32/49 32/33/50
f 32/33/51 33/32/52 34/34/53
f 33/32/54 35/35/55 34/34/56
f 34/34/57 35/35/58 36/36/59
f 37/37/60 39/38/61 38/39/62
f 38/39/63 39/38/64 40/40/65
f 39/38/66 41/41/67 40/40/68
f 40/40/69 41/41/70 42/42/71
f 43/43/71 45/44/72 44/45/73
f 44/45/74 45/44/75 46/46/76
f 45/44/77 47/47/78 46/46/78
f 46/46/79 47/47/79 48/48/79
f 49/49/79 51/50/80 50/51/81
f 50/51/82 51/50/83 52/52/84
f 51/50/85 53/53/86 52/52/87
f 52/52/88 53/53/89 54/54/90
f 55/55/91 57/56/92 56/57/93
f 56/57/94 57/56/95 58/58/96
f 57/56/97 59/59/98 58/58/99
f 58/58/100 59/59/101 60/60/102
f 61/61/103 63/62/104 62/63/105
f 62/63/106 63/62/107 64/64/108
f 63/62/109 65/65/110 64/64/111
f 64/64/112 65/65/113 66/66/114
f 67/67/114 69/68/115 68/69/116
f 68/69/117 69/68/118 70/70/119
f 69/68/120 71/71/121 70/70/122
f 70/70/123 71/71/124 72/72/125
f 73/73/126 75/74/127 74/75/128
f 74/75/129 75/74/130 76/76/131
f 75/74/132 77/77/133 76/76/133
f 78/78/28 80/79/134 79/80/135
f 79/80/136 80/79/137 81/81/138
f 80/79/139 82/82/140 81/81/140
f 83/83/141 85/84/142 84/85/143
f 84/85/144 85/84/145 86/86/146
f 85/84/147 87/87/148 86/86/148
f 88/88/91 90/89/149 89/90/150
f 89/90/151 90/89/152 91/91/153
f 90/89/154 92/92/153 91/91/153
f 93/93/155 95/94/155 94/95/155
f 96/96/156 98/97/156 97/98/156
f 99/99/60 101/100/60 100/101/60
f 102/102/157 104/103/157 103/104/157
