# Blender v3.6.3 OBJ File: 'untitled.blend'
# www.blender.org
mtllib Mesh_0127.mtl
o Mesh_0127_Mesh.127
v -18.924858 40.323250 10.128204
v -21.034584 40.004990 10.128204
v -21.034584 35.559990 10.128204
v -18.924858 40.323250 10.128204
v -14.684585 43.346359 9.440369
v -21.034584 43.814991 9.440369
v -21.034584 40.004990 10.128204
v -18.924858 40.323250 10.128204
v -21.034584 43.814991 9.440369
v -8.334585 40.004990 10.075371
v -10.297752 40.197014 10.075371
v -8.334585 35.559990 10.710365
v -8.334585 43.814991 9.440369
v -14.684585 43.346359 9.440369
v -10.297752 40.197014 10.075371
v -8.334585 40.004990 10.075371
v -8.334585 43.814991 9.440369
v -10.297752 40.197014 10.075371
v -8.334585 43.814991 9.440369
v -8.334585 50.799988 6.265366
v -21.034584 50.799988 6.265366
v -14.684585 43.346359 9.440369
v -8.334585 43.814991 9.440369
v -21.034584 50.799988 6.265366
v -21.034584 50.799988 6.265366
v -21.034584 43.814991 9.440369
v -14.684585 43.346359 9.440369
v -21.034584 40.004990 -15.271797
v -18.924858 40.323250 -15.271797
v -21.034584 35.559990 -15.271797
v -21.034584 43.814991 -14.583965
v -14.684585 43.346359 -14.583965
v -18.924858 40.323250 -15.271797
v -21.034584 40.004990 -15.271797
v -21.034584 43.814991 -14.583965
v -18.924858 40.323250 -15.271797
v -10.297752 40.197014 -15.218967
v -8.334585 40.004990 -15.218967
v -8.334585 35.559990 -15.853966
v -10.297752 40.197014 -15.218967
v -14.684585 43.346359 -14.583965
v -8.334585 43.814991 -14.583965
v -8.334585 40.004990 -15.218967
v -10.297752 40.197014 -15.218967
v -8.334585 43.814991 -14.583965
v -21.034584 50.799988 -11.408966
v -8.334585 50.799988 -11.408966
v -8.334585 43.814991 -14.583965
v -14.684585 43.346359 -14.583965
v -21.034584 50.799988 -11.408966
v -8.334585 43.814991 -14.583965
v -21.034584 43.814991 -14.583965
v -21.034584 50.799988 -11.408966
v -14.684585 43.346359 -14.583965
vt -0.134766 -1.058594
vt -0.319336 -1.548828
vt -0.319336 -1.090820
vt -0.134766 -1.058594
vt -0.319336 -0.698242
vt 0.236328 -0.747070
vt -0.319336 -1.090820
vt -0.319336 -0.698242
vt -0.134766 -1.058594
vt 0.792969 -1.090820
vt 0.792969 -1.548828
vt 0.621094 -1.071289
vt 0.792969 -0.698242
vt 0.621094 -1.071289
vt 0.236328 -0.747070
vt 0.792969 -1.090820
vt 0.621094 -1.071289
vt 0.792969 -0.698242
vt 0.792969 -0.698242
vt -0.319336 0.020508
vt 0.792969 0.020508
vt 0.236328 -0.747070
vt -0.319336 0.020508
vt 0.792969 -0.698242
vt -0.319336 0.020508
vt 0.236328 -0.747070
vt -0.319336 -0.698242
vt -0.319336 -1.090820
vt -0.319336 -1.548828
vt -0.134766 -1.058594
vt -0.319336 -0.698242
vt -0.134766 -1.058594
vt 0.236328 -0.747070
vt -0.319336 -1.090820
vt -0.134766 -1.058594
vt -0.319336 -0.698242
vt 0.621094 -1.071289
vt 0.792969 -1.548828
vt 0.792969 -1.090820
vt 0.621094 -1.071289
vt 0.792969 -0.698242
vt 0.236328 -0.747070
vt 0.792969 -1.090820
vt 0.792969 -0.698242
vt 0.621094 -1.071289
vt -0.319336 0.020508
vt 0.792969 -0.698242
vt 0.792969 0.020508
vt 0.236328 -0.747070
vt 0.792969 -0.698242
vt -0.319336 0.020508
vt -0.319336 -0.698242
vt 0.236328 -0.747070
vt -0.319336 0.020508
vn 0.0000 0.0000 -1.0000
vn -0.0149 -0.2019 -0.9793
vn 0.0268 -0.1776 -0.9837
vn -0.0138 -0.1414 -0.9899
vn 0.0133 -0.1798 -0.9836
vn -0.0161 -0.1644 -0.9863
vn 0.0000 -0.4138 -0.9104
vn 0.0274 -0.3719 -0.9279
vn -0.0305 -0.4136 -0.9099
vn 0.0000 0.0000 1.0000
vn -0.0149 -0.2019 0.9793
vn 0.0268 -0.1776 0.9837
vn -0.0138 -0.1414 0.9899
vn 0.0133 -0.1798 0.9836
vn -0.0161 -0.1644 0.9863
vn 0.0000 -0.4138 0.9104
vn 0.0274 -0.3719 0.9279
vn -0.0305 -0.4136 0.9099
usemtl Tex_0028_1.dds
s off
f 1/1/1 3/2/1 2/3/1
f 4/4/2 6/5/2 5/6/2
f 7/7/3 9/8/3 8/9/3
f 10/10/4 12/11/4 11/12/4
f 13/13/5 15/14/5 14/15/5
f 16/16/6 18/17/6 17/18/6
f 19/19/7 21/20/7 20/21/7
f 22/22/8 24/23/8 23/24/8
f 25/25/9 27/26/9 26/27/9
f 28/28/10 30/29/10 29/30/10
f 31/31/11 33/32/11 32/33/11
f 34/34/12 36/35/12 35/36/12
f 37/37/13 39/38/13 38/39/13
f 40/40/14 42/41/14 41/42/14
f 43/43/15 45/44/15 44/45/15
f 46/46/16 48/47/16 47/48/16
f 49/49/17 51/50/17 50/51/17
f 52/52/18 54/53/18 53/54/18
