# Blender v3.6.3 OBJ File: 'untitled.blend'
# www.blender.org
mtllib Mesh_0260.mtl
o Mesh_0260_Mesh.069
v -9.982805 13.828886 22.449997
v -10.239567 13.687799 22.193230
v -7.064585 13.687766 22.193283
v -10.239567 13.546622 22.193230
v -7.064585 13.546644 22.193283
v -10.111046 13.405537 22.321686
v -7.064585 13.405547 22.321800
v -10.111031 13.405525 22.828194
v -10.111046 13.405537 22.321686
v -10.239548 13.546601 22.828194
v -10.239567 13.546622 22.193230
v -10.239548 13.687833 22.828194
v -10.239567 13.687799 22.193230
v -9.982805 13.828886 22.449997
v -9.982805 14.252173 22.449997
v -10.111046 14.393336 22.321686
v -10.111031 14.393372 22.828194
v -9.982805 14.562654 22.449997
v -9.982821 14.562663 22.828194
v -9.854284 14.763736 22.578758
v -9.854303 14.763736 22.828194
v -19.514931 14.763736 22.828194
v -19.514917 14.763736 22.578758
v -19.386375 14.562663 22.828194
v -19.386375 14.562654 22.449997
v -19.258102 14.393372 22.828194
v -19.258106 14.393336 22.321686
v -22.304585 14.763736 22.578598
v -22.304585 14.562645 22.450073
v -19.386375 14.562654 22.449997
v -22.304585 14.393303 22.321800
v -19.258106 14.393336 22.321686
v -10.111046 14.393336 22.321686
v -7.064585 14.393303 22.321800
v -9.982805 14.562654 22.449997
v -7.064585 14.562645 22.450073
v -7.064585 14.763736 22.578598
v -22.304585 12.699986 22.193283
v -19.129585 12.699986 22.193230
v -22.304585 13.264424 22.193283
v -19.129585 13.264436 22.193230
v -19.129585 13.264436 22.193230
v -19.258106 13.405537 22.321686
v -22.304585 13.264424 22.193283
v -22.304585 13.405547 22.321800
v -19.129585 13.546622 22.193230
v -22.304585 13.546644 22.193283
v -19.258106 13.405537 22.321686
v -22.304585 13.405547 22.321800
v -22.304585 13.546644 22.193283
v -19.129585 13.546622 22.193230
v -22.304585 13.687766 22.193283
v -19.129585 13.687799 22.193230
v -19.129585 13.687799 22.193230
v -19.386375 13.828886 22.449997
v -22.304585 13.687766 22.193283
v -22.304585 13.828863 22.450073
v -22.304585 13.828863 22.450073
v -19.386375 13.828886 22.449997
v -22.304585 14.252206 22.450073
v -19.386375 14.252173 22.449997
v -19.258106 14.393336 22.321686
v -22.304585 14.393303 22.321800
v -19.386375 14.252173 22.449997
v -22.304585 14.252206 22.450073
v -19.514917 14.763736 22.578758
v -19.764584 14.763736 22.828232
v -22.304585 14.763736 22.578598
v -22.304585 14.763736 22.828278
v -19.129585 13.546622 22.193230
v -19.258106 13.405537 22.321686
v -19.129585 13.546601 22.828194
v -19.258102 13.405525 22.828194
v -19.258106 14.393336 22.321686
v -19.386375 14.252173 22.449997
v -19.258102 14.393372 22.828194
v -19.386375 14.252139 22.828194
v -19.386375 14.252173 22.449997
v -19.386375 13.828886 22.449997
v -19.386375 14.252139 22.828194
v -19.386375 13.828909 22.828194
v -19.129585 13.264447 22.828194
v -19.129585 13.264436 22.193230
v -19.129585 12.699986 22.828194
v -19.129585 12.699986 22.193230
v -19.129585 13.264436 22.193230
v -19.129585 13.264447 22.828194
v -19.258106 13.405537 22.321686
v -19.258102 13.405525 22.828194
v -19.129585 13.687833 22.828194
v -19.129585 13.687799 22.193230
v -19.129585 13.546601 22.828194
v -19.129585 13.546622 22.193230
v -19.129585 13.687799 22.193230
v -19.129585 13.687833 22.828194
v -19.386375 13.828886 22.449997
v -19.386375 13.828909 22.828194
v -7.064585 12.699986 22.193283
v -7.064585 13.264424 22.193283
v -10.239567 12.699986 22.193230
v -10.239567 13.264436 22.193230
v -10.239567 13.264436 22.193230
v -7.064585 13.264424 22.193283
v -10.111046 13.405537 22.321686
v -7.064585 13.405547 22.321800
v -7.064585 13.828863 22.450073
v -7.064585 14.252206 22.450073
v -9.982805 13.828886 22.449997
v -9.982805 14.252173 22.449997
v -10.111046 14.393336 22.321686
v -9.982805 14.252173 22.449997
v -7.064585 14.393303 22.321800
v -7.064585 14.252206 22.450073
v -9.854284 14.763736 22.578758
v -7.064585 14.763736 22.578598
v -9.604567 14.763736 22.828232
v -7.064585 14.763736 22.828278
v -10.239567 12.699986 22.193230
v -10.239567 13.264436 22.193230
v -10.239548 12.699986 22.828194
v -10.239548 13.264447 22.828194
v -10.239567 13.264436 22.193230
v -10.111046 13.405537 22.321686
v -10.239548 13.264447 22.828194
v -10.111031 13.405525 22.828194
v -9.982805 14.252173 22.449997
v -9.982821 14.252139 22.828194
v -9.982805 13.828886 22.449997
v -9.982821 13.828909 22.828194
v -19.514917 14.763736 22.578758
v -22.304585 14.763736 22.578598
v -19.386375 14.562654 22.449997
v -19.514917 14.763736 22.578758
v -19.514931 14.763736 22.828194
v -19.764584 14.763736 22.828232
v -7.064585 13.687766 22.193283
v -7.064585 13.828863 22.450073
v -9.982805 13.828886 22.449997
v -7.064585 14.763736 22.578598
v -9.854284 14.763736 22.578758
v -9.982805 14.562654 22.449997
v -9.982821 13.828909 22.828194
v -10.239548 13.687833 22.828194
v -9.982805 13.828886 22.449997
v -9.854284 14.763736 22.578758
v -9.604567 14.763736 22.828232
v -9.854303 14.763736 22.828194
v -9.982805 14.252173 22.449997
v -10.111031 14.393372 22.828194
v -9.982821 14.252139 22.828194
vt 0.416992 -1.770508
vt -0.487305 -2.196289
vt 0.498047 -2.196289
vt 0.498047 -2.070312
vt -0.487305 -2.070312
vt 0.458008 -1.694336
vt -0.487305 -1.694336
vt -0.307617 -1.694336
vt -0.266602 -2.070312
vt -0.487305 -1.694336
vt -0.487305 -2.070312
vt -0.266602 -2.196289
vt -0.487305 -2.196289
vt -0.487305 -1.770508
vt 0.520508 0.794922
vt 0.699219 0.655273
vt 0.520508 0.655273
vt 0.520508 0.799805
vt 0.657227 0.799805
vt 0.520508 1.046875
vt 0.617188 1.046875
vt 0.617188 1.046875
vt 0.657227 0.799805
vt 0.520508 1.046875
vt 0.520508 0.799805
vt 0.699219 0.655273
vt 0.520508 0.655273
vt 0.520508 1.047852
vt 1.417969 0.799805
vt 0.520508 0.799805
vt 0.520508 0.655273
vt 1.458984 0.655273
vt 1.458984 0.655273
vt 1.417969 0.799805
vt 0.520508 0.655273
vt 0.520508 0.799805
vt 0.520508 1.047852
vt -0.486328 -2.603516
vt -0.486328 -3.003906
vt 0.498047 -2.603516
vt 0.498047 -3.003906
vt 0.498047 -3.003906
vt -0.486328 -3.003906
vt 0.458008 -3.352539
vt -0.486328 -3.352539
vt 0.498047 -2.070312
vt 0.458008 -1.694336
vt -0.487305 -2.070312
vt -0.487305 -1.694336
vt -0.487305 -2.070312
vt -0.487305 -2.196289
vt 0.498047 -2.070312
vt 0.498047 -2.196289
vt 0.498047 -2.196289
vt -0.487305 -2.196289
vt 0.416992 -1.770508
vt -0.487305 -1.770508
vt -0.494141 -0.653320
vt -0.494141 -0.346680
vt 0.498047 -0.653320
vt 0.498047 -0.346680
vt 1.458984 0.655273
vt 1.418945 0.794922
vt 0.520508 0.655273
vt 0.520508 0.794922
vt 1.375000 1.046875
vt 0.520508 1.047852
vt 1.293945 1.397461
vt 0.520508 1.397461
vt -0.487305 -2.070312
vt -0.266602 -2.070312
vt -0.487305 -1.694336
vt -0.307617 -1.694336
vt 0.520508 0.655273
vt 0.699219 0.655273
vt 0.520508 0.794922
vt 0.657227 0.794922
vt -0.481445 -0.346680
vt -0.344727 -0.346680
vt -0.481445 -0.653320
vt -0.344727 -0.653320
vt -0.266602 -3.003906
vt -0.266602 -2.603516
vt -0.486328 -3.003906
vt -0.486328 -2.603516
vt -0.486328 -3.003906
vt -0.486328 -3.352539
vt -0.266602 -3.003906
vt -0.306641 -3.352539
vt -0.266602 -2.196289
vt -0.266602 -2.070312
vt -0.487305 -2.196289
vt -0.487305 -2.070312
vt -0.487305 -2.196289
vt -0.487305 -1.770508
vt -0.266602 -2.196289
vt -0.349609 -1.770508
vt -0.486328 -2.603516
vt 0.498047 -2.603516
vt -0.486328 -3.003906
vt 0.498047 -3.003906
vt 0.498047 -3.003906
vt 0.458008 -3.352539
vt -0.486328 -3.003906
vt -0.486328 -3.352539
vt -0.494141 -0.653320
vt 0.498047 -0.653320
vt -0.494141 -0.346680
vt 0.498047 -0.346680
vt 1.458984 0.655273
vt 0.520508 0.655273
vt 1.418945 0.794922
vt 0.520508 0.794922
vt 1.375000 1.046875
vt 1.293945 1.397461
vt 0.520508 1.047852
vt 0.520508 1.397461
vt -0.486328 -2.603516
vt -0.266602 -2.603516
vt -0.486328 -3.003906
vt -0.266602 -3.003906
vt -0.486328 -3.003906
vt -0.266602 -3.003906
vt -0.486328 -3.352539
vt -0.306641 -3.352539
vt -0.481445 -0.346680
vt -0.481445 -0.653320
vt -0.344727 -0.346680
vt -0.344727 -0.653320
vt 1.375000 1.046875
vt 1.417969 0.799805
vt 0.520508 1.047852
vt 0.520508 1.046875
vt 0.695312 1.397461
vt 0.617188 1.046875
vt -0.487305 -2.196289
vt 0.416992 -1.770508
vt -0.487305 -1.770508
vt 0.520508 1.047852
vt 1.417969 0.799805
vt 1.375000 1.046875
vt -0.349609 -1.770508
vt -0.487305 -1.770508
vt -0.266602 -2.196289
vt 0.520508 1.046875
vt 0.617188 1.046875
vt 0.695312 1.397461
vt 0.520508 0.794922
vt 0.657227 0.794922
vt 0.699219 0.655273
vn 0.0000 0.8764 -0.4816
vn 0.0847 0.8706 0.4847
vn 0.0000 0.0000 -1.0000
vn 0.0556 0.0025 -0.9985
vn 0.3537 0.0000 -0.9353
vn 0.0000 -0.6732 -0.7394
vn 0.3677 -0.6090 -0.7028
vn 0.0000 -0.6734 -0.7393
vn -0.7392 -0.6734 0.0000
vn -0.7393 -0.6734 -0.0000
vn -0.5143 -0.7843 -0.3469
vn -1.0000 0.0000 0.0000
vn -0.9562 0.0635 0.2856
vn -0.9531 -0.0657 -0.2954
vn -0.9563 -0.2856 0.0635
vn -0.9359 -0.0000 -0.3524
vn 0.1378 0.8937 0.4269
vn -0.4815 0.8764 -0.0000
vn 0.0100 0.8721 -0.4892
vn -0.7402 -0.6724 0.0001
vn 0.2136 -0.8893 0.4043
vn -0.3144 -0.7789 -0.5427
vn -0.4290 0.7291 -0.5333
vn -0.6276 0.7675 0.1307
vn -0.8109 0.5850 0.0132
vn -0.8472 0.4776 0.2328
vn -0.7966 0.6033 -0.0398
vn -0.7828 0.6221 0.0131
vn -0.8549 0.5168 0.0463
vn -0.8574 0.5140 -0.0275
vn -0.8426 0.5386 -0.0000
vn -0.8271 0.5613 -0.0288
vn -0.8426 0.5386 -0.0001
vn 0.8425 0.5387 0.0000
vn 0.8270 0.5614 -0.0287
vn 0.8426 0.5386 -0.0000
vn 0.8574 0.5139 -0.0275
vn 0.8549 0.5168 0.0464
vn 0.7964 0.6035 -0.0398
vn 0.7970 0.6039 -0.0000
vn 0.7826 0.6224 0.0131
vn 0.8109 0.5851 0.0132
vn 0.7971 0.6039 -0.0000
vn -0.0000 0.5385 -0.8426
vn -0.0063 0.4726 -0.8813
vn 0.0397 0.5381 -0.8419
vn 0.0397 0.6033 -0.7965
vn -0.0002 0.6060 -0.7955
vn -0.0000 0.6038 -0.7971
vn -0.0025 0.6026 -0.7980
vn -0.0000 0.6040 -0.7970
vn 0.0024 0.6026 -0.7980
vn 0.0002 0.6060 -0.7955
vn -0.0398 0.6033 -0.7965
vn 0.0063 0.4725 -0.8813
vn -0.0398 0.5381 -0.8419
vn -0.0000 0.6732 -0.7395
vn -0.0000 0.6733 -0.7394
vn -0.0000 -0.6726 -0.7400
vn -0.0000 -0.6727 -0.7399
vn 0.0000 1.0000 0.0000
vn 0.7392 -0.6734 -0.0000
vn 0.7401 -0.6725 0.0000
vn 0.7399 -0.6727 0.0000
vn 0.7406 -0.6720 -0.0001
vn 0.7403 -0.6723 -0.0001
vn 1.0000 0.0000 0.0000
vn 0.7393 0.6734 -0.0000
vn 0.4815 0.8764 -0.0000
vn 0.4815 0.8764 -0.0001
vn 0.0000 0.6736 -0.7391
vn -0.7393 0.6734 0.0000
vn 0.0000 0.5393 -0.8421
vn -0.4816 0.8764 -0.0001
vn -0.7404 -0.6721 -0.0001
usemtl Tex_0032_0.dds.005
s off
f 1/1/1 3/2/2 2/3/1
f 2/3/3 3/2/3 4/4/3
f 3/2/4 5/5/5 4/4/3
f 4/4/6 5/5/6 6/6/6
f 5/5/7 7/7/8 6/6/8
f 8/8/9 10/9/9 9/10/9
f 9/10/10 10/9/10 11/11/11
f 10/9/12 12/12/13 11/11/12
f 11/11/14 12/12/15 13/13/16
f 12/12/17 14/14/18 13/13/19
f 15/15/20 17/16/21 16/17/22
f 16/17/23 17/16/24 18/18/25
f 17/16/26 19/19/27 18/18/28
f 18/18/29 19/19/30 20/20/31
f 19/19/32 21/21/33 20/20/33
f 22/22/34 24/23/35 23/24/34
f 23/24/36 24/23/37 25/25/38
f 24/23/39 26/26/40 25/25/41
f 25/25/42 26/26/43 27/27/43
f 28/28/44 30/29/45 29/30/46
f 29/30/47 30/29/48 31/31/49
f 30/29/50 32/32/51 31/31/51
f 33/33/51 35/34/52 34/35/51
f 34/35/49 35/34/53 36/36/54
f 35/34/55 37/37/44 36/36/56
f 38/38/3 40/39/3 39/40/3
f 39/40/3 40/39/3 41/41/3
f 42/42/57 44/43/57 43/44/57
f 43/44/58 44/43/58 45/45/58
f 46/46/6 48/47/6 47/48/6
f 47/48/8 48/47/8 49/49/8
f 50/50/3 52/51/3 51/52/3
f 51/52/3 52/51/3 53/53/3
f 54/54/1 56/55/1 55/56/1
f 55/56/1 56/55/1 57/57/1
f 58/58/3 60/59/3 59/60/3
f 59/60/3 60/59/3 61/61/3
f 62/62/59 64/63/59 63/64/59
f 63/64/60 64/63/60 65/65/60
f 66/66/61 68/67/61 67/68/61
f 67/68/61 68/67/61 69/69/61
f 70/70/62 72/71/62 71/72/62
f 71/72/62 72/71/62 73/73/62
f 74/74/63 76/75/64 75/76/63
f 75/76/65 76/75/66 77/77/66
f 78/78/67 80/79/67 79/80/67
f 79/80/67 80/79/67 81/81/67
f 82/82/67 84/83/67 83/84/67
f 83/84/67 84/83/67 85/85/67
f 86/86/68 88/87/68 87/88/68
f 87/88/68 88/87/68 89/89/68
f 90/90/67 92/91/67 91/92/67
f 91/92/67 92/91/67 93/93/67
f 94/94/69 96/95/69 95/96/69
f 95/96/70 96/95/70 97/97/70
f 98/98/3 100/99/3 99/100/3
f 99/100/3 100/99/3 101/101/3
f 102/102/57 104/103/57 103/104/57
f 103/104/58 104/103/71 105/105/58
f 106/106/3 108/107/3 107/108/3
f 107/108/3 108/107/3 109/109/3
f 110/110/59 112/111/59 111/112/59
f 111/112/60 112/111/60 113/113/60
f 114/114/61 116/115/61 115/116/61
f 115/116/61 116/115/61 117/117/61
f 118/118/12 120/119/12 119/120/12
f 119/120/12 120/119/12 121/121/12
f 122/122/72 124/123/72 123/124/72
f 123/124/72 124/123/72 125/125/72
f 126/126/12 128/127/12 127/128/12
f 127/128/12 128/127/12 129/129/12
f 130/130/73 132/131/73 131/132/73
f 133/133/61 135/134/61 134/135/61
f 136/136/1 138/137/1 137/138/1
f 139/139/73 141/140/73 140/141/73
f 142/142/74 144/143/74 143/144/74
f 145/145/61 147/146/61 146/147/61
f 148/148/75 150/149/75 149/150/75
