# Blender v3.6.3 OBJ File: 'untitled.blend'
# www.blender.org
mtllib Mesh_0213.mtl
o Mesh_0213_Mesh.160
v 51.095581 9.692550 22.578499
v 51.944542 9.129839 22.578499
v 52.950371 10.159986 22.578499
v 52.586548 8.355139 22.578499
v 52.950371 7.369415 22.578499
v 48.224022 9.129839 22.578499
v 49.072968 9.692550 22.578499
v 47.218178 10.159986 22.578499
v 50.084274 10.082390 22.578499
v 50.084274 10.159986 22.578499
v 44.745575 9.692550 22.578506
v 45.594437 9.129839 22.578506
v 46.600288 10.159986 22.578506
v 46.236557 8.355139 22.578506
v 46.600288 7.369415 22.578506
v 63.795578 9.692550 22.578499
v 64.644539 9.129839 22.578499
v 65.650375 10.159986 22.578499
v 65.286552 8.355139 22.578499
v 65.650375 7.369415 22.578499
v 60.924019 9.129839 22.578499
v 61.772964 9.692550 22.578499
v 59.918182 10.159986 22.578499
v 62.784279 10.082390 22.578499
v 62.784279 10.159986 22.578499
v 67.276390 9.129839 22.578506
v 68.125259 9.692550 22.578506
v 66.270554 10.159986 22.578506
v 69.136566 10.082390 22.578506
v 69.136566 10.159986 22.578506
v 22.520582 9.677487 22.578499
v 23.369539 9.114777 22.578499
v 24.375376 10.159986 22.578499
v 24.011545 8.340076 22.578499
v 24.375376 7.354352 22.578499
v 19.649027 9.114777 22.578499
v 20.497972 9.677487 22.578499
v 18.643190 10.159986 22.578499
v 21.509272 10.067327 22.578499
v 21.509272 10.159986 22.578499
v 41.570580 9.677487 22.578499
v 42.419540 9.114777 22.578499
v 43.425377 10.159986 22.578499
v 43.061554 8.340076 22.578499
v 43.425377 7.354352 22.578499
v 38.699028 9.114777 22.578499
v 39.547966 9.677487 22.578499
v 37.693192 10.159986 22.578499
v 40.559280 10.067327 22.578499
v 40.559280 10.159986 22.578499
v -2.879425 9.677487 22.578499
v -2.030462 9.114777 22.578499
v -1.024626 10.159986 22.578499
v -1.388456 8.340076 22.578499
v -1.024626 7.354352 22.578499
v -5.750975 9.114777 22.578499
v -4.902029 9.677487 22.578499
v -6.756813 10.159986 22.578499
v -3.890730 10.067327 22.578499
v -3.890730 10.159986 22.578499
v 3.470575 9.677487 22.578499
v 4.319536 9.114777 22.578499
v 5.325373 10.159986 22.578499
v 4.961542 8.340076 22.578499
v 5.325373 7.354352 22.578499
v 0.599028 9.114777 22.578499
v 1.447971 9.677487 22.578499
v -0.406813 10.159986 22.578499
v 2.459269 10.067327 22.578499
v 2.459269 10.159986 22.578499
v 9.820574 9.677487 22.578499
v 10.669538 9.114777 22.578499
v 11.675371 10.159986 22.578499
v 11.311548 8.340076 22.578499
v 11.675371 7.354352 22.578499
v 6.949026 9.114777 22.578499
v 7.797968 9.677487 22.578499
v 5.943190 10.159986 22.578499
v 8.809275 10.067327 22.578499
v 8.809275 10.159986 22.578499
v 16.170572 9.677487 22.578499
v 17.019537 9.114777 22.578499
v 18.025370 10.159986 22.578499
v 17.661547 8.340076 22.578499
v 18.025370 7.354352 22.578499
v 13.299025 9.114777 22.578499
v 14.147966 9.677487 22.578499
v 12.293188 10.159986 22.578499
v 15.159269 10.067327 22.578499
v 15.159269 10.159986 22.578499
v 50.084274 10.159986 22.578499
v 50.084274 10.082390 22.578499
v 52.950371 10.159986 22.578499
v 51.095581 9.692550 22.578499
v 48.224022 9.129839 22.578499
v 47.218178 10.159986 22.578499
v 47.582008 8.355139 22.578499
v 47.218178 7.369415 22.578499
v 43.734276 10.159986 22.578506
v 43.734276 10.082390 22.578506
v 46.600288 10.159986 22.578506
v 44.745575 9.692550 22.578506
v 62.784279 10.159986 22.578499
v 62.784279 10.082390 22.578499
v 65.650375 10.159986 22.578499
v 63.795578 9.692550 22.578499
v 60.924019 9.129839 22.578499
v 59.918182 10.159986 22.578499
v 60.282013 8.355139 22.578499
v 59.918182 7.369415 22.578499
v 67.276390 9.129839 22.578506
v 66.270554 10.159986 22.578506
v 66.634277 8.355139 22.578506
v 66.270554 7.369415 22.578506
v 58.307968 9.116402 22.582069
v 58.919853 8.284983 22.611023
v 59.300346 10.159986 22.578506
v 59.297050 7.110944 22.578506
v 54.562988 9.116402 22.582069
v 53.568329 10.159986 22.578506
v 53.921898 8.284983 22.610771
v 53.544456 7.110944 22.578506
v 21.509272 10.159986 22.578499
v 21.509272 10.067327 22.578499
v 24.375376 10.159986 22.578499
v 22.520582 9.677487 22.578499
v 19.649027 9.114777 22.578499
v 18.643190 10.159986 22.578499
v 19.007021 8.340076 22.578499
v 18.643190 7.354352 22.578499
v 40.559280 10.159986 22.578499
v 40.559280 10.067327 22.578499
v 43.425377 10.159986 22.578499
v 41.570580 9.677487 22.578499
v 38.699028 9.114777 22.578499
v 37.693192 10.159986 22.578499
v 38.057014 8.340076 22.578499
v 37.693192 7.354352 22.578499
v -3.890730 10.159986 22.578499
v -3.890730 10.067327 22.578499
v -1.024626 10.159986 22.578499
v -2.879425 9.677487 22.578499
v -5.750975 9.114777 22.578499
v -6.756813 10.159986 22.578499
v -6.392984 8.340076 22.578499
v -6.756813 7.354352 22.578499
v 2.459269 10.159986 22.578499
v 2.459269 10.067327 22.578499
v 5.325373 10.159986 22.578499
v 3.470575 9.677487 22.578499
v 0.599028 9.114777 22.578499
v -0.406813 10.159986 22.578499
v -0.042984 8.340076 22.578499
v -0.406813 7.354352 22.578499
v 8.809275 10.159986 22.578499
v 8.809275 10.067327 22.578499
v 11.675371 10.159986 22.578499
v 9.820574 9.677487 22.578499
v 6.949026 9.114777 22.578499
v 5.943190 10.159986 22.578499
v 6.307016 8.340076 22.578499
v 5.943190 7.354352 22.578499
v 15.159269 10.159986 22.578499
v 15.159269 10.067327 22.578499
v 18.025370 10.159986 22.578499
v 16.170572 9.677487 22.578499
v 13.299025 9.114777 22.578499
v 12.293188 10.159986 22.578499
v 12.657015 8.340076 22.578499
v 12.293188 7.354352 22.578499
v 58.307968 9.116402 22.582069
v 59.300346 10.159986 22.578506
v 57.437515 9.679113 22.622452
v 53.568329 10.159986 22.578506
v 54.562988 9.116402 22.582069
v 55.433449 9.679113 22.622452
vt 0.647766 -0.828064
vt 0.000000 -0.999451
vt 0.352112 -0.627502
vt 0.128540 -0.351440
vt 0.000000 -0.000061
vt 0.647766 -0.372070
vt 0.999939 -0.000061
vt 0.352112 -0.171509
vt 0.000000 -0.032593
vt 0.000000 -0.000061
vt 0.647766 -0.828064
vt 0.000000 -0.999451
vt 0.352112 -0.627502
vt 0.128540 -0.351440
vt 0.000000 -0.000061
vt 0.647766 -0.828064
vt 0.000000 -0.999451
vt 0.352112 -0.627502
vt 0.128540 -0.351440
vt 0.000000 -0.000061
vt 0.647766 -0.372070
vt 0.999939 -0.000061
vt 0.352112 -0.171509
vt 0.000000 -0.032593
vt 0.000000 -0.000061
vt 0.352112 -0.627502
vt 0.000000 -0.999451
vt 0.647766 -0.828064
vt 0.999939 -0.966980
vt 0.999939 -0.999451
vt 0.647766 -0.828064
vt 0.000000 -0.999451
vt 0.352112 -0.627502
vt 0.128540 -0.351440
vt 0.000000 -0.000061
vt 0.647766 -0.372070
vt 0.999939 -0.000061
vt 0.352112 -0.171509
vt 0.000000 -0.032593
vt 0.000000 -0.000061
vt 0.647766 -0.828064
vt 0.000000 -0.999451
vt 0.352112 -0.627502
vt 0.128540 -0.351440
vt 0.000000 -0.000061
vt 0.647766 -0.372070
vt 0.999939 -0.000061
vt 0.352112 -0.171509
vt 0.000000 -0.032593
vt 0.000000 -0.000061
vt 0.647766 -0.828064
vt 0.000000 -0.999451
vt 0.352112 -0.627502
vt 0.128540 -0.351440
vt 0.000000 -0.000061
vt 0.647766 -0.372070
vt 0.999939 -0.000061
vt 0.352112 -0.171509
vt 0.000000 -0.032593
vt 0.000000 -0.000061
vt 0.647766 -0.828064
vt 0.000000 -0.999451
vt 0.352112 -0.627502
vt 0.128540 -0.351440
vt 0.000000 -0.000061
vt 0.647766 -0.372070
vt 0.999939 -0.000061
vt 0.352112 -0.171509
vt 0.000000 -0.032593
vt 0.000000 -0.000061
vt 0.647766 -0.828064
vt 0.000000 -0.999451
vt 0.352112 -0.627502
vt 0.128540 -0.351440
vt 0.000000 -0.000061
vt 0.647766 -0.372070
vt 0.999939 -0.000061
vt 0.352112 -0.171509
vt 0.000000 -0.032593
vt 0.000000 -0.000061
vt 0.647766 -0.828064
vt 0.000000 -0.999451
vt 0.352112 -0.627502
vt 0.128540 -0.351440
vt 0.000000 -0.000061
vt 0.647766 -0.372070
vt 0.999939 -0.000061
vt 0.352112 -0.171509
vt 0.000000 -0.032593
vt 0.000000 -0.000061
vt 0.999939 -0.999451
vt 0.000000 -0.999451
vt 0.999939 -0.966980
vt 0.647766 -0.828064
vt 0.647766 -0.372070
vt 0.871338 -0.648193
vt 0.999939 -0.000061
vt 0.999939 -0.999451
vt 0.999939 -0.999451
vt 0.000000 -0.999451
vt 0.999939 -0.966980
vt 0.647766 -0.828064
vt 0.999939 -0.999451
vt 0.000000 -0.999451
vt 0.999939 -0.966980
vt 0.647766 -0.828064
vt 0.647766 -0.372070
vt 0.871338 -0.648193
vt 0.999939 -0.000061
vt 0.999939 -0.999451
vt 0.352112 -0.627502
vt 0.128540 -0.351440
vt 0.000000 -0.999451
vt 0.000000 -0.000061
vt 0.352112 -0.627502
vt 0.000000 -0.999451
vt 0.128540 -0.351440
vt 0.000000 -0.000061
vt 0.647766 -0.372070
vt 0.871338 -0.648193
vt 0.999939 -0.000061
vt 0.999939 -0.999451
vt 0.999939 -0.999451
vt 0.000000 -0.999451
vt 0.999939 -0.966980
vt 0.647766 -0.828064
vt 0.647766 -0.372070
vt 0.871338 -0.648193
vt 0.999939 -0.000061
vt 0.999939 -0.999451
vt 0.999939 -0.999451
vt 0.000000 -0.999451
vt 0.999939 -0.966980
vt 0.647766 -0.828064
vt 0.647766 -0.372070
vt 0.871338 -0.648193
vt 0.999939 -0.000061
vt 0.999939 -0.999451
vt 0.999939 -0.999451
vt 0.000000 -0.999451
vt 0.999939 -0.966980
vt 0.647766 -0.828064
vt 0.647766 -0.372070
vt 0.871338 -0.648193
vt 0.999939 -0.000061
vt 0.999939 -0.999451
vt 0.999939 -0.999451
vt 0.000000 -0.999451
vt 0.999939 -0.966980
vt 0.647766 -0.828064
vt 0.647766 -0.372070
vt 0.871338 -0.648193
vt 0.999939 -0.000061
vt 0.999939 -0.999451
vt 0.999939 -0.999451
vt 0.000000 -0.999451
vt 0.999939 -0.966980
vt 0.647766 -0.828064
vt 0.647766 -0.372070
vt 0.871338 -0.648193
vt 0.999939 -0.000061
vt 0.999939 -0.999451
vt 0.999939 -0.999451
vt 0.000000 -0.999451
vt 0.999939 -0.966980
vt 0.647766 -0.828064
vt 0.647766 -0.372070
vt 0.871338 -0.648193
vt 0.999939 -0.000061
vt 0.999939 -0.999451
vt 0.352112 -0.627502
vt 0.647766 -0.828064
vt 0.000000 -0.999451
vt 0.999939 -0.000061
vt 0.352112 -0.171509
vt 0.647766 -0.372070
vn 0.0000 0.0000 -1.0000
vn 0.0186 -0.0211 -0.9996
vn 0.0388 -0.0404 -0.9984
vn 0.0836 0.0268 -0.9961
vn -0.0613 0.0080 -0.9981
vn -0.1635 0.0002 -0.9866
vn -0.0856 0.0001 -0.9963
vn -0.0180 -0.0206 -0.9996
vn -0.0823 0.0291 -0.9962
vn -0.0377 -0.0393 -0.9985
vn 0.1668 -0.0013 -0.9860
vn 0.0627 0.0073 -0.9980
vn 0.0873 -0.0007 -0.9962
vn -0.0301 0.0252 -0.9992
vn 0.0300 0.0252 -0.9992
usemtl Tex_0053_1.dds.002
s off
f 1/1/1 3/2/1 2/3/1
f 2/3/1 3/2/1 4/4/1
f 3/2/1 5/5/1 4/4/1
f 6/6/1 8/7/1 7/8/1
f 7/8/1 8/7/1 9/9/1
f 8/7/1 10/10/1 9/9/1
f 11/11/1 13/12/1 12/13/1
f 12/13/1 13/12/1 14/14/1
f 13/12/1 15/15/1 14/14/1
f 16/16/1 18/17/1 17/18/1
f 17/18/1 18/17/1 19/19/1
f 18/17/1 20/20/1 19/19/1
f 21/21/1 23/22/1 22/23/1
f 22/23/1 23/22/1 24/24/1
f 23/22/1 25/25/1 24/24/1
f 26/26/1 28/27/1 27/28/1
f 27/28/1 28/27/1 29/29/1
f 28/27/1 30/30/1 29/29/1
f 31/31/1 33/32/1 32/33/1
f 32/33/1 33/32/1 34/34/1
f 33/32/1 35/35/1 34/34/1
f 36/36/1 38/37/1 37/38/1
f 37/38/1 38/37/1 39/39/1
f 38/37/1 40/40/1 39/39/1
f 41/41/1 43/42/1 42/43/1
f 42/43/1 43/42/1 44/44/1
f 43/42/1 45/45/1 44/44/1
f 46/46/1 48/47/1 47/48/1
f 47/48/1 48/47/1 49/49/1
f 48/47/1 50/50/1 49/49/1
f 51/51/1 53/52/1 52/53/1
f 52/53/1 53/52/1 54/54/1
f 53/52/1 55/55/1 54/54/1
f 56/56/1 58/57/1 57/58/1
f 57/58/1 58/57/1 59/59/1
f 58/57/1 60/60/1 59/59/1
f 61/61/1 63/62/1 62/63/1
f 62/63/1 63/62/1 64/64/1
f 63/62/1 65/65/1 64/64/1
f 66/66/1 68/67/1 67/68/1
f 67/68/1 68/67/1 69/69/1
f 68/67/1 70/70/1 69/69/1
f 71/71/1 73/72/1 72/73/1
f 72/73/1 73/72/1 74/74/1
f 73/72/1 75/75/1 74/74/1
f 76/76/1 78/77/1 77/78/1
f 77/78/1 78/77/1 79/79/1
f 78/77/1 80/80/1 79/79/1
f 81/81/1 83/82/1 82/83/1
f 82/83/1 83/82/1 84/84/1
f 83/82/1 85/85/1 84/84/1
f 86/86/1 88/87/1 87/88/1
f 87/88/1 88/87/1 89/89/1
f 88/87/1 90/90/1 89/89/1
f 91/91/1 93/92/1 92/93/1
f 92/93/1 93/92/1 94/94/1
f 95/95/1 97/96/1 96/97/1
f 96/97/1 97/96/1 98/98/1
f 99/99/1 101/100/1 100/101/1
f 100/101/1 101/100/1 102/102/1
f 103/103/1 105/104/1 104/105/1
f 104/105/1 105/104/1 106/106/1
f 107/107/1 109/108/1 108/109/1
f 108/109/1 109/108/1 110/110/1
f 111/111/1 113/112/1 112/113/1
f 112/113/1 113/112/1 114/114/1
f 115/115/2 117/116/3 116/117/4
f 116/117/5 117/116/6 118/118/7
f 119/119/8 121/120/9 120/121/10
f 120/121/11 121/120/12 122/122/13
f 123/123/1 125/124/1 124/125/1
f 124/125/1 125/124/1 126/126/1
f 127/127/1 129/128/1 128/129/1
f 128/129/1 129/128/1 130/130/1
f 131/131/1 133/132/1 132/133/1
f 132/133/1 133/132/1 134/134/1
f 135/135/1 137/136/1 136/137/1
f 136/137/1 137/136/1 138/138/1
f 139/139/1 141/140/1 140/141/1
f 140/141/1 141/140/1 142/142/1
f 143/143/1 145/144/1 144/145/1
f 144/145/1 145/144/1 146/146/1
f 147/147/1 149/148/1 148/149/1
f 148/149/1 149/148/1 150/150/1
f 151/151/1 153/152/1 152/153/1
f 152/153/1 153/152/1 154/154/1
f 155/155/1 157/156/1 156/157/1
f 156/157/1 157/156/1 158/158/1
f 159/159/1 161/160/1 160/161/1
f 160/161/1 161/160/1 162/162/1
f 163/163/1 165/164/1 164/165/1
f 164/165/1 165/164/1 166/166/1
f 167/167/1 169/168/1 168/169/1
f 168/169/1 169/168/1 170/170/1
f 171/171/14 173/172/14 172/173/14
f 174/174/15 176/175/15 175/176/15
