# Blender v3.6.3 OBJ File: 'untitled.blend'
# www.blender.org
mtllib Mesh_0173.mtl
o Mesh_0173_Mesh.145
v -22.304649 52.740292 -2.182335
v -22.304649 52.508137 -0.070152
v -22.304649 55.053726 -1.211456
v -22.304649 53.715145 3.511574
v -22.304649 57.698879 0.670509
v -22.304649 57.387981 1.035995
v -22.304649 50.337452 -9.581253
v -22.304649 51.676796 -7.449638
v -22.304649 53.715141 -8.655174
v -22.304649 52.508137 -5.073441
v -22.304649 55.053726 -3.932152
v -22.304649 52.740292 -2.961258
v -22.304649 50.337456 4.437660
v -22.304649 53.715145 3.511574
v -22.304649 51.676796 2.306038
v -22.304649 52.508137 -0.070152
v -22.304649 57.387981 -6.179588
v -22.304649 53.715141 -8.655174
v -22.304649 57.698879 -5.814102
v -22.304649 55.053726 -3.932152
vt -0.003906 -1.000977
vt 0.112305 -0.501953
vt 0.323242 -1.000977
vt 0.901367 -0.501953
vt 0.510742 -0.001953
vt 0.565430 -0.041016
vt 0.995117 -1.000977
vt 0.901367 -0.501953
vt 0.737305 -1.000977
vt 0.323242 -1.000977
vt 0.112305 -0.501953
vt -0.003906 -1.000977
vt 0.995117 -1.000977
vt 0.737305 -1.000977
vt 0.901367 -0.501953
vt 0.323242 -1.000977
vt 0.565430 -0.041016
vt 0.510742 -0.001953
vt 0.901367 -0.501953
vt 0.112305 -0.501953
vn 1.0000 0.0000 0.0000
usemtl Tex_0061_1.dds
s off
f 1/1/1 3/2/1 2/3/1
f 2/3/1 3/2/1 4/4/1
f 3/2/1 5/5/1 4/4/1
f 4/4/1 5/5/1 6/6/1
f 7/7/1 9/8/1 8/9/1
f 8/9/1 9/8/1 10/10/1
f 9/8/1 11/11/1 10/10/1
f 10/10/1 11/11/1 12/12/1
f 13/13/1 15/14/1 14/15/1
f 14/15/1 15/14/1 16/16/1
f 17/17/1 19/18/1 18/19/1
f 18/19/1 19/18/1 20/20/1
