# Blender v3.6.3 OBJ File: 'untitled.blend'
# www.blender.org
mtllib Mesh_0353.mtl
o Mesh_0353_Mesh.214
v -19.507660 23.367533 32.988190
v -19.507771 24.892046 27.910057
v -19.507591 23.368000 27.910049
v -19.507782 24.892105 22.828201
v -19.507769 23.368015 22.828194
v -22.331310 23.047880 37.434433
v -22.331310 21.523943 37.434433
v -24.844610 22.351969 38.324966
v -24.844610 20.828001 38.325325
v -22.159849 21.269850 37.771774
v -24.844610 20.573954 38.703194
v -22.331310 21.523943 37.434433
v -24.844610 20.828001 38.325325
v -20.325214 24.038206 35.500900
v -20.324944 22.514112 35.500900
v -22.331310 23.047880 37.434433
v -22.331310 21.523943 37.434433
v -19.507767 24.891424 32.988197
v -19.507660 23.367533 32.988190
v -20.325214 24.038206 35.500900
v -20.324944 22.514112 35.500900
v -29.924583 22.351984 38.325058
v -24.844610 22.351969 38.324966
v -29.924583 20.827984 38.325081
v -24.844610 20.828001 38.325325
v -24.844610 20.573954 38.703194
v -29.924583 20.573984 38.703194
v -24.844610 20.828001 38.325325
v -29.924583 20.827984 38.325081
v -35.004581 22.351984 38.325096
v -29.924583 22.351984 38.325058
v -35.004581 20.827984 38.325043
v -29.924583 20.827984 38.325081
v -29.924583 20.573984 38.703194
v -35.004581 20.573984 38.703194
v -29.924583 20.827984 38.325081
v -35.004581 20.827984 38.325043
v -19.253773 25.146002 27.910057
v -19.507771 24.892046 27.910057
v -19.253765 25.145536 32.988197
v -19.507767 24.891424 32.988197
v -19.129585 23.113953 27.910049
v -19.379490 22.859985 27.910049
v -19.129604 23.113487 32.988190
v -19.379501 22.859053 32.989738
v -20.183979 22.005615 35.615631
v -19.129604 23.113487 32.988190
v -19.379501 22.859053 32.989738
v -20.325214 24.038206 35.500900
v -19.253765 25.145536 32.988197
v -19.507767 24.891424 32.988197
v -19.507771 24.892046 27.910057
v -19.507660 23.367533 32.988190
v -19.507767 24.891424 32.988197
vt 1.999023 -0.942383
vt 3.997070 -0.942383
vt 3.997070 -0.155273
vt 2.094727 -0.155273
vt 2.094727 -0.942383
vt 3.997070 -0.155273
vt 2.998047 -0.155273
vt 3.997070 -0.942383
vt 2.998047 -0.942383
vt -0.998047 -1.071289
vt -0.998047 -0.945312
vt -1.997070 -1.071289
vt -1.997070 -0.945312
vt 2.998047 -0.155273
vt 1.999023 -0.155273
vt 2.998047 -0.942383
vt 1.999023 -0.942383
vt 3.997070 -0.155273
vt 2.998047 -0.155273
vt 3.997070 -0.942383
vt 2.998047 -0.942383
vt 1.999023 -0.155273
vt 1.999023 -0.942383
vt 3.997070 -0.155273
vt 3.997070 -0.942383
vt -0.998047 -1.071289
vt -0.998047 -0.945312
vt -2.996094 -1.071289
vt -2.996094 -0.945312
vt 1.999023 -0.155273
vt 1.999023 -0.942383
vt 3.997070 -0.155273
vt 3.997070 -0.942383
vt -0.998047 -1.071289
vt -0.998047 -0.945312
vt -2.996094 -1.071289
vt -2.996094 -0.945312
vt -0.916992 -0.081055
vt -2.915039 -0.081055
vt -0.916992 -0.177734
vt -2.915039 -0.177734
vt -0.998047 -1.071289
vt -2.996094 -1.071289
vt -0.998047 -1.184570
vt -2.996094 -1.184570
vt -1.997070 -1.184570
vt -0.998047 -1.184570
vt -0.998047 -1.071289
vt -1.916016 -0.177734
vt -0.916992 -0.177734
vt -0.916992 -0.081055
vt 3.997070 -0.155273
vt 1.999023 -0.155273
vt 1.999023 -0.942383
vn 1.0000 0.0001 0.0000
vn 1.0000 0.0000 -0.0000
vn 0.3340 0.0000 0.9426
vn 0.3341 -0.0003 0.9426
vn 0.3340 0.0002 0.9426
vn 0.0014 0.7991 0.6012
vn 0.0068 0.8004 0.5994
vn 0.0231 0.7679 0.6402
vn -0.0403 0.8292 0.5575
vn -0.0553 0.8565 0.5132
vn -0.0320 0.8295 0.5577
vn 0.6939 0.0001 0.7200
vn 0.6939 0.0000 0.7201
vn 0.9509 0.0001 0.3094
vn 0.9509 0.0002 0.3094
vn 0.0000 0.0000 1.0000
vn -0.0000 0.0002 1.0000
vn -0.0001 0.0006 1.0000
vn 0.0000 0.8299 0.5579
vn 0.0000 0.8296 0.5583
vn -0.0000 0.8301 0.5576
vn 0.7070 -0.7072 -0.0001
vn 0.7073 -0.7070 -0.0001
vn 0.7128 -0.7014 -0.0001
vn 0.7121 -0.7021 -0.0001
vn 0.7140 -0.7002 -0.0001
vn 0.7134 -0.7007 -0.0001
vn 0.7134 -0.7007 -0.0092
vn 0.7072 -0.7069 -0.0100
usemtl Tex_0052_0.dds.020
s off
f 1/1/1 3/2/1 2/3/1
f 2/3/1 3/2/1 4/4/1
f 3/2/2 5/5/2 4/4/2
f 6/6/3 8/7/4 7/8/3
f 7/8/5 8/7/5 9/9/5
f 10/10/6 12/11/7 11/12/8
f 11/12/9 12/11/10 13/13/11
f 14/14/12 16/15/12 15/16/12
f 15/16/13 16/15/13 17/17/13
f 18/18/14 20/19/14 19/20/14
f 19/20/15 20/19/15 21/21/15
f 22/22/16 24/23/16 23/24/16
f 23/24/17 24/23/18 25/25/17
f 26/26/19 28/27/19 27/28/20
f 27/28/21 28/27/21 29/29/21
f 30/30/16 32/31/16 31/32/16
f 31/32/16 32/31/16 33/33/16
f 34/34/21 36/35/21 35/36/21
f 35/36/21 36/35/21 37/37/21
f 38/38/22 40/39/22 39/40/22
f 39/40/23 40/39/23 41/41/23
f 42/42/24 44/43/25 43/44/24
f 43/44/26 44/43/27 45/45/27
f 46/46/28 48/47/28 47/48/28
f 49/49/29 51/50/29 50/51/29
f 52/52/1 54/53/1 53/54/1
