# Blender v3.6.3 OBJ File: 'untitled.blend'
# www.blender.org
mtllib Mesh_0156.mtl
o Mesh_0156_Mesh.024
v -6.924122 10.159990 4.808952
v -6.739923 2.063740 4.904884
v -6.730421 10.159990 4.906288
v -6.556536 2.063740 4.989853
v -6.525749 10.177185 5.191833
v -6.525749 1.862651 5.276031
v -6.728418 2.063740 5.480408
v -7.064585 2.063741 17.504509
v -6.814892 2.063741 17.504509
v -7.064585 7.354356 17.504509
v -6.814894 7.354356 17.504509
v -7.064585 8.340079 17.209290
v -6.814894 8.340079 17.209290
v -6.814894 9.114780 16.695862
v -6.686462 10.159989 12.795471
v -6.686462 10.159989 12.668190
v -6.686468 8.484325 12.668190
v -6.686462 10.159989 12.540916
v -6.686466 8.411530 12.540916
v -6.814894 10.159989 12.413658
v -6.814894 8.338733 12.413658
v -6.814894 9.114780 8.640526
v -6.814894 8.340080 8.127090
v -7.064585 8.340080 8.127090
v -6.814894 7.354356 7.831871
v -7.064585 7.354356 7.831871
v -6.814892 2.063741 7.831871
v -7.064585 2.063741 7.831871
v -7.064585 9.114780 22.782310
v -7.064585 8.340079 23.424324
v -6.814894 8.340079 23.424324
v -7.064585 7.354356 23.788155
v -6.814894 7.354356 23.788155
v -7.064585 2.063740 23.788155
v -6.814894 2.063740 23.788147
v -7.064585 9.114779 -24.207680
v -7.064585 8.340080 -23.565674
v -6.814894 8.340080 -23.565674
v -7.064585 7.354356 -23.201847
v -6.814894 7.354356 -23.201847
v -7.064585 2.063740 -23.201847
v -6.814894 2.063740 -23.201851
v -6.814894 9.114780 -21.839478
v -6.814894 8.340080 -22.352905
v -7.064585 8.340080 -22.352905
v -6.814894 7.354356 -22.648129
v -7.064585 7.354356 -22.648129
v -6.814892 2.063741 -22.648125
v -7.064585 2.063741 -22.648129
v -6.814894 8.338734 -17.557274
v -6.814894 10.159989 -17.557274
v -6.686466 8.411530 -17.684528
v -6.686462 10.159989 -17.684528
v -6.686468 8.484325 -17.811806
v -6.686462 10.159989 -17.811806
v -6.686462 10.159989 -17.939083
v -7.064585 2.063741 -12.975487
v -6.814892 2.063741 -12.975487
v -7.064585 7.354356 -12.975487
v -6.814894 7.354356 -12.975487
v -7.064585 8.340079 -13.270706
v -6.814894 8.340079 -13.270706
v -6.814894 9.114780 -13.784130
v -6.728418 2.063740 -10.624016
v -6.525749 1.862651 -10.419643
v -6.525749 10.177186 -10.335442
v -6.556536 2.063740 -10.133465
v -6.730421 10.159990 -10.049900
v -6.739923 2.063740 -10.048500
v -6.924122 10.159990 -9.952564
v -6.686464 1.862651 17.748192
v -6.686460 10.159989 17.748192
v -6.686462 1.862651 17.638329
v -6.686462 10.159989 17.638329
v -6.814894 7.354356 17.504509
v -6.814894 10.159989 17.504509
v -6.814894 10.067331 15.208191
v -6.814894 9.677491 14.410301
v -7.064585 9.677491 14.410301
v -6.814894 9.114779 13.720512
v -7.064585 9.114779 13.720512
v -7.064585 8.340079 13.207108
v -7.064585 9.677491 10.926086
v -7.064585 9.114779 11.615868
v -6.814894 9.114779 11.615868
v -7.064585 8.340079 12.129272
v -6.814892 8.340079 12.129272
v -6.814901 8.188899 12.166542
v -6.814894 10.067331 10.128189
v -6.814894 9.677491 9.319443
v -7.064585 9.677491 9.319443
v -6.814894 9.114780 8.640526
v -7.064585 9.114780 8.640526
v -7.064585 8.340080 8.127090
v -7.064585 10.067330 20.922050
v -7.064585 9.677491 21.933357
v -6.814894 9.677491 21.933357
v -7.064585 9.114780 22.782310
v -6.814894 9.114780 22.782310
v -6.814894 8.340079 23.424324
v -6.686460 10.159989 17.748192
v -6.686464 1.862651 17.748192
v -6.686459 10.159989 17.888954
v -6.686459 1.862651 17.889214
v -6.814894 7.354356 18.055962
v -6.814894 2.063740 18.055962
v -6.814894 9.677490 19.910751
v -6.814894 9.114779 19.061806
v -7.064585 9.114779 19.061806
v -6.814894 8.340079 18.419792
v -7.064585 8.340079 18.419792
v -7.064585 7.354356 18.055962
v -7.064585 10.067331 -26.067947
v -7.064585 9.677491 -25.056641
v -6.814894 9.677491 -25.056641
v -7.064585 9.114779 -24.207680
v -6.814894 9.114779 -24.207680
v -6.814894 8.340080 -23.565674
v -6.814894 9.677492 -27.079250
v -6.814894 9.114780 -27.928192
v -7.064585 9.114780 -27.928192
v -6.814894 8.340080 -28.570202
v -7.064585 8.340080 -28.570202
v -7.064585 7.354356 -28.934036
v -7.064585 9.677492 -19.553917
v -7.064585 9.114779 -18.864128
v -6.814894 9.114779 -18.864128
v -7.064585 8.340079 -18.350719
v -6.814892 8.340079 -18.350719
v -6.814901 8.188899 -18.313454
v -6.814894 10.067331 -20.351807
v -6.814894 9.677492 -21.160557
v -7.064585 9.677492 -21.160557
v -6.814894 9.114780 -21.839478
v -7.064585 9.114780 -21.839478
v -7.064585 8.340080 -22.352905
v -6.686462 1.862652 -12.732964
v -6.686460 10.159989 -12.733543
v -6.686462 1.862651 -12.841663
v -6.686462 10.159989 -12.841671
v -6.814894 7.354356 -12.975487
v -6.814894 10.159989 -12.975487
v -6.814894 10.067331 -15.271805
v -6.814894 9.677492 -16.069698
v -7.064585 9.677492 -16.069698
v -6.814894 9.114780 -16.759483
v -7.064585 9.114780 -16.759483
v -7.064585 8.340080 -17.272892
v 7.050318 2.063740 4.050758
v 6.771635 1.862651 4.126808
v 6.771635 2.608697 4.126808
v 6.545954 2.063740 3.948456
v 6.545954 2.879207 3.948456
v 2.019775 5.138105 3.254898
v 2.019775 2.063740 3.243393
v 1.750843 5.104019 3.345703
v 1.750843 1.862651 3.345703
v 1.507328 2.063740 3.192421
v -3.013538 7.690399 2.901985
v -3.011328 2.063740 2.905396
v -3.266727 7.793192 3.047134
v -3.266727 1.862651 3.029022
v -3.530809 2.063740 2.914520
v -6.728418 2.063740 5.480408
v -6.686455 10.159989 5.396194
v -6.525749 10.177185 5.191833
v -6.721304 10.346909 5.188705
v -6.730421 10.159990 4.906288
v -6.814894 9.114779 13.720512
v -6.814892 8.340079 13.207108
v -7.064585 8.340079 13.207108
v -6.814901 8.188899 13.169846
v -7.064590 8.188899 13.169403
v -7.064585 9.114780 16.695862
v -6.814894 9.114780 16.695862
v -7.064585 9.677491 16.016945
v -6.814894 9.677491 16.016945
v -6.814894 10.067331 15.208191
v -6.686460 10.159989 7.589928
v -6.686462 1.862651 7.698059
v -6.686462 10.159989 7.698059
v -6.814894 7.354356 7.831871
v -6.814894 10.159990 7.831871
v -6.814894 9.114779 11.615868
v -6.814894 9.677491 10.926086
v -7.064585 9.677491 10.926086
v -6.814894 10.067331 10.128189
v -7.064585 10.067331 10.128189
v -6.814894 2.063740 23.788147
v -6.686459 1.862651 23.955170
v -6.814894 7.354356 23.788155
v -6.686459 10.159989 23.955170
v -6.814894 10.159989 23.788155
v -7.064585 9.114779 19.061806
v -7.064585 9.677490 19.910751
v -6.814894 9.677490 19.910751
v -7.064585 10.067330 20.922050
v -6.814894 10.067330 20.922050
v -6.814894 8.340079 18.419792
v -6.814894 7.354356 18.055962
v -7.064585 7.354356 18.055962
v -6.814894 2.063740 18.055962
v -7.064585 2.063740 18.055962
v -6.686464 1.862651 -22.891804
v -6.686459 10.159990 -23.034832
v -6.686459 1.862651 -23.034832
v -6.814894 7.354356 -23.201847
v -6.814894 2.063740 -23.201851
v -7.064585 9.114780 -27.928192
v -7.064585 9.677492 -27.079250
v -6.814894 9.677492 -27.079250
v -7.064585 10.067331 -26.067947
v -6.814894 10.067331 -26.067947
v -6.814894 8.340080 -28.570202
v -6.814894 7.354356 -28.934036
v -7.064585 7.354356 -28.934036
v -6.814894 2.063740 -28.934036
v -7.064585 2.063740 -28.934036
v -6.814894 10.159990 -28.934036
v -6.686459 10.159990 -29.101036
v -6.814894 7.354356 -28.934036
v -6.686459 1.862651 -29.100784
v -6.814894 2.063740 -28.934036
v -6.686460 10.159990 -22.891804
v -6.686462 1.862651 -22.781944
v -6.686462 10.159990 -22.781940
v -6.814894 7.354356 -22.648129
v -6.814894 10.159990 -22.648129
v -6.814894 9.114779 -18.864128
v -6.814894 9.677492 -19.553917
v -7.064585 9.677492 -19.553917
v -6.814894 10.067331 -20.351807
v -7.064585 10.067331 -20.351807
v -6.686468 8.484325 -17.811806
v -6.686462 10.159989 -17.939083
v -6.686466 8.411530 -17.939083
v -6.814894 10.159989 -18.066338
v -6.814894 8.338734 -18.066338
v -6.814894 9.114780 -16.759483
v -6.814892 8.340080 -17.272892
v -7.064585 8.340080 -17.272892
v -6.814901 8.188900 -17.310154
v -7.064590 8.188900 -17.310589
v -7.064585 9.114780 -13.784130
v -6.814894 9.114780 -13.784130
v -7.064585 9.677492 -14.463055
v -6.814894 9.677492 -14.463055
v -6.814894 10.067331 -15.271805
v 6.545954 2.063740 -9.092064
v 6.771635 1.862651 -9.270424
v 6.771635 2.608697 -9.270424
v 7.050318 2.063740 -9.194370
v 7.050318 2.612100 -9.194370
v 1.507328 5.404297 -8.336029
v 1.507328 2.063740 -8.336029
v 1.750843 5.104018 -8.489319
v 1.750843 1.862651 -8.489319
v 2.019775 2.063740 -8.387009
v -3.530809 7.982371 -8.059273
v -3.530809 2.063740 -8.058132
v -3.266727 7.793192 -8.190742
v -3.266727 1.862651 -8.172630
v -3.011328 2.063740 -8.049011
v -6.730421 10.159990 -10.049900
v -6.721304 10.346910 -10.332321
v -6.525749 10.177186 -10.335442
v -6.686455 10.159990 -10.539810
v -6.728418 2.063740 -10.624016
v 7.050318 2.063740 4.050758
v 7.050318 2.612101 4.050758
v 7.101274 2.063740 3.806053
v 7.101274 2.606766 3.806053
v 6.545954 2.063740 3.948456
v 6.597464 2.063740 3.704132
v 6.545954 2.879207 3.948456
v 6.597464 2.878216 3.704132
v 2.019775 5.138105 3.254898
v 2.044491 5.136149 2.995872
v 2.019775 2.063740 3.243393
v 2.044491 2.063740 2.994911
v 1.507328 5.404297 3.192421
v 1.507328 2.063740 3.192421
v 1.532047 5.395153 2.943954
v 1.532047 2.063740 2.943954
v -3.011328 2.063740 2.905396
v -3.013538 7.690399 2.901985
v -3.010975 2.063740 2.656044
v -3.014833 7.685141 2.653763
v -3.530809 7.982371 2.915657
v -3.530809 2.063740 2.914520
v -3.546583 7.955396 2.666252
v -3.548668 2.063740 2.665466
v -6.728418 2.063740 5.480408
v -6.917850 2.063740 5.412628
v -6.686455 10.159989 5.396194
v -6.917850 10.159989 5.304680
v -6.686464 1.862652 7.589355
v -6.686460 10.159989 7.589928
v -6.814903 2.063740 7.274170
v -6.814903 10.159989 7.274170
v -6.814903 2.063740 7.274170
v -6.814903 10.159989 7.274170
v -7.064585 2.063740 7.274170
v -7.095827 10.159989 7.281845
v -6.814894 8.338733 12.922722
v -6.814894 10.159989 12.922722
v -6.686466 8.411530 12.795471
v -6.686462 10.159989 12.795471
v -6.686459 10.159989 24.098190
v -6.686459 10.159989 23.955170
v -6.686459 1.862651 24.098190
v -6.686459 1.862651 23.955170
v -6.686459 1.862651 -29.100784
v -6.686459 10.159990 -29.101036
v -6.686459 1.862651 -29.241806
v -6.686459 10.159990 -29.241806
v 7.050318 2.063740 -9.194370
v 7.101274 2.063740 -8.949665
v 7.050318 2.612100 -9.194370
v 7.101274 2.606766 -8.949665
v 6.545954 2.063740 -9.092064
v 6.545954 2.879207 -9.092064
v 6.597464 2.063740 -8.847740
v 6.597464 2.878217 -8.847740
v 2.019775 5.138104 -8.398514
v 2.019775 2.063740 -8.387009
v 2.044491 5.136149 -8.139484
v 2.044491 2.063740 -8.138527
v 1.507328 5.404297 -8.336029
v 1.532047 5.395153 -8.087566
v 1.507328 2.063740 -8.336029
v 1.532047 2.063740 -8.087566
v -3.011328 2.063740 -8.049011
v -3.010975 2.063740 -7.799664
v -3.013538 7.690399 -8.045605
v -3.014833 7.685141 -7.797371
v -3.530809 7.982371 -8.059273
v -3.546583 7.955396 -7.809868
v -3.530809 2.063740 -8.058132
v -3.548668 2.063740 -7.809078
v -6.728418 2.063740 -10.624016
v -6.686455 10.159990 -10.539810
v -6.917850 2.063740 -10.556244
v -6.917850 10.159990 -10.448296
v -6.686462 1.862652 -12.732964
v -6.814903 2.063740 -12.417786
v -6.686460 10.159989 -12.733543
v -6.814903 10.159989 -12.417786
v -6.814903 2.063740 -12.417786
v -7.064585 2.063740 -12.417786
v -6.814903 10.159989 -12.417786
v -7.095827 10.159989 -12.425453
v 6.771635 2.608697 4.126808
v 7.050318 2.612101 4.050758
v 7.050318 2.063740 4.050758
v 1.507328 2.063740 3.192421
v 1.507328 5.404297 3.192421
v 1.750843 5.104019 3.345703
v -3.530809 2.063740 2.914520
v -3.530809 7.982371 2.915657
v -3.266727 7.793192 3.047134
v -7.064585 9.677491 14.410301
v -7.064585 10.067331 15.208191
v -6.814894 10.067331 15.208191
v -6.814894 10.067331 15.208191
v -7.064585 10.067331 15.208191
v -7.064585 9.677491 16.016945
v -6.814894 9.114780 16.695862
v -7.064585 9.114780 16.695862
v -7.064585 8.340079 17.209290
v -6.686462 1.862651 17.638329
v -6.814894 7.354356 17.504509
v -6.814892 2.063741 17.504509
v -6.686462 10.159989 12.795471
v -6.686468 8.484325 12.668190
v -6.686466 8.411530 12.795471
v -6.686462 1.862651 7.698059
v -6.686460 10.159989 7.589928
v -6.686464 1.862652 7.589355
v -7.064585 10.067331 10.128189
v -6.814894 10.067331 10.128189
v -7.064585 9.677491 9.319443
v -6.814894 7.354356 7.831871
v -6.686462 1.862651 7.698059
v -6.814892 2.063741 7.831871
v -6.814901 8.188899 12.166542
v -7.064585 8.340079 12.129272
v -7.064590 8.188899 12.166977
v -7.064585 10.067330 20.922050
v -6.814894 9.677491 21.933357
v -6.814894 10.067330 20.922050
v -6.814894 7.354356 18.055962
v -6.814894 10.159989 18.055962
v -6.686459 10.159989 17.888954
v -6.686459 10.159990 -23.034832
v -6.686464 1.862651 -22.891804
v -6.686460 10.159990 -22.891804
v -7.064585 10.067331 -26.067947
v -6.814894 9.677491 -25.056641
v -6.814894 10.067331 -26.067947
v -6.686459 10.159990 -23.034832
v -6.814894 10.159990 -23.201847
v -6.814894 7.354356 -23.201847
v -6.686462 1.862651 -22.781944
v -6.686460 10.159990 -22.891804
v -6.686464 1.862651 -22.891804
v -7.064585 10.067331 -20.351807
v -6.814894 10.067331 -20.351807
v -7.064585 9.677492 -21.160557
v -6.814894 7.354356 -22.648129
v -6.686462 1.862651 -22.781944
v -6.814892 2.063741 -22.648125
v -6.814901 8.188899 -18.313454
v -7.064585 8.340079 -18.350719
v -7.064590 8.188899 -18.313023
v -7.064585 9.677492 -16.069698
v -7.064585 10.067331 -15.271805
v -6.814894 10.067331 -15.271805
v -6.814894 10.067331 -15.271805
v -7.064585 10.067331 -15.271805
v -7.064585 9.677492 -14.463055
v -6.814894 9.114780 -13.784130
v -7.064585 9.114780 -13.784130
v -7.064585 8.340079 -13.270706
v -6.686462 1.862651 -12.841663
v -6.814894 7.354356 -12.975487
v -6.814892 2.063741 -12.975487
v 6.771635 2.608697 -9.270424
v 6.545954 2.879207 -9.092064
v 6.545954 2.063740 -9.092064
v 2.019775 2.063740 -8.387009
v 2.019775 5.138104 -8.398514
v 1.750843 5.104018 -8.489319
v -3.011328 2.063740 -8.049011
v -3.013538 7.690399 -8.045605
v -3.266727 7.793192 -8.190742
vt 4.000000 0.434570
vt 4.234375 0.434570
vt 4.000000 -3.171875
vt 4.235352 -3.171875
vt 4.992188 0.434570
vt 4.992188 -3.258789
vt 4.235352 -3.171875
vt -3.995117 -1.178711
vt -3.995117 1.160156
vt -3.807617 -1.178711
vt -3.807617 1.160156
vt -3.995117 1.643555
vt -3.807617 1.643555
vt -3.807617 1.964844
vt 4.613281 0.434570
vt 4.992188 -0.310547
vt 4.992188 0.434570
vt 4.613281 0.434570
vt 4.613281 -0.342773
vt 4.235352 0.434570
vt 4.235352 -0.375000
vt -3.807617 1.964844
vt -3.995117 1.643555
vt -3.807617 1.643555
vt -3.807617 1.160156
vt -3.995117 1.160156
vt -3.807617 -1.178711
vt -3.995117 -1.178711
vt -3.995117 1.964844
vt -3.807617 1.643555
vt -3.995117 1.643555
vt -3.995117 1.160156
vt -3.807617 1.160156
vt -3.995117 -1.178711
vt -3.807617 -1.178711
vt -3.995117 1.964844
vt -3.807617 1.643555
vt -3.995117 1.643555
vt -3.995117 1.160156
vt -3.807617 1.160156
vt -3.995117 -1.178711
vt -3.807617 -1.178711
vt -3.807617 1.964844
vt -3.995117 1.643555
vt -3.807617 1.643555
vt -3.807617 1.160156
vt -3.995117 1.160156
vt -3.807617 -1.178711
vt -3.995117 -1.178711
vt 4.235352 -0.375000
vt 4.613281 -0.342773
vt 4.235352 0.434570
vt 4.613281 0.434570
vt 4.992188 -0.310547
vt 4.992188 0.434570
vt 4.613281 0.434570
vt -3.995117 -1.178711
vt -3.995117 1.160156
vt -3.807617 -1.178711
vt -3.807617 1.160156
vt -3.995117 1.643555
vt -3.807617 1.643555
vt -3.807617 1.964844
vt 4.235352 -3.171875
vt 4.992188 0.434570
vt 4.992188 -3.258789
vt 4.235352 -3.171875
vt 4.234375 0.434570
vt 4.000000 -3.171875
vt 4.000000 0.434570
vt -2.995117 -1.275391
vt -3.361328 -1.274414
vt -2.995117 2.439453
vt -3.357422 2.439453
vt -3.807617 1.167969
vt -3.807617 2.436523
vt -0.807617 1.723633
vt -0.998047 1.450195
vt -0.807617 1.450195
vt -0.807617 1.054688
vt -0.998047 1.054688
vt -0.998047 0.511719
vt -0.998047 1.450195
vt -0.807617 1.054688
vt -0.998047 1.054688
vt -0.998047 0.511719
vt -0.807617 0.511719
vt -0.807617 0.405273
vt -3.807617 2.801758
vt -3.995117 2.360352
vt -3.807617 2.360352
vt -3.807617 1.964844
vt -3.995117 1.964844
vt -3.995117 1.643555
vt -3.995117 2.801758
vt -3.807617 2.360352
vt -3.995117 2.360352
vt -3.995117 1.964844
vt -3.807617 1.964844
vt -3.807617 1.643555
vt -2.995117 2.427734
vt -3.357422 2.427734
vt -2.995117 -1.263672
vt -3.361328 -1.266602
vt -3.807617 1.167969
vt -3.807617 -1.178711
vt -3.807617 2.360352
vt -3.995117 1.964844
vt -3.807617 1.964844
vt -3.807617 1.643555
vt -3.995117 1.643555
vt -3.995117 1.160156
vt -3.995117 2.801758
vt -3.807617 2.360352
vt -3.995117 2.360352
vt -3.995117 1.964844
vt -3.807617 1.964844
vt -3.807617 1.643555
vt -3.807617 2.360352
vt -3.995117 1.964844
vt -3.807617 1.964844
vt -3.807617 1.643555
vt -3.995117 1.643555
vt -3.995117 1.160156
vt -0.998047 1.450195
vt -0.807617 1.054688
vt -0.998047 1.054688
vt -0.998047 0.511719
vt -0.807617 0.511719
vt -0.807617 0.405273
vt -3.807617 2.801758
vt -3.995117 2.360352
vt -3.807617 2.360352
vt -3.807617 1.964844
vt -3.995117 1.964844
vt -3.995117 1.643555
vt -2.995117 -1.275391
vt -3.361328 -1.274414
vt -2.995117 2.439453
vt -3.357422 2.439453
vt -3.807617 1.167969
vt -3.807617 2.436523
vt -0.807617 1.723633
vt -0.998047 1.450195
vt -0.807617 1.450195
vt -0.807617 1.054688
vt -0.998047 1.054688
vt -0.998047 0.511719
vt 4.235352 -3.171875
vt 4.992188 -2.926758
vt 4.992188 -3.258789
vt 4.235352 -3.171875
vt 4.235352 -2.807617
vt 4.235352 -1.803711
vt 4.992188 -1.815430
vt 4.235352 -3.171875
vt 4.992188 -3.258789
vt 4.235352 -3.171875
vt 4.235352 -0.664062
vt 4.992188 -0.620117
vt 4.235352 -3.171875
vt 4.992188 -3.258789
vt 4.235352 -3.171875
vt 4.235352 -3.171875
vt 4.992188 0.434570
vt 4.236328 0.435547
vt 4.432617 0.496094
vt 4.234375 0.434570
vt -0.807617 1.054688
vt -0.998047 0.511719
vt -0.807617 0.511719
vt -0.807617 0.405273
vt -0.998047 0.405273
vt -3.995117 1.964844
vt -3.995117 2.360352
vt -3.807617 1.964844
vt -3.807617 2.360352
vt -3.807617 2.801758
vt -2.995117 2.439453
vt -3.357422 2.439453
vt -3.361328 -1.274414
vt -3.807617 1.167969
vt -3.807617 2.436523
vt -0.807617 1.054688
vt -0.998047 1.450195
vt -0.807617 1.450195
vt -0.807617 1.723633
vt -0.998047 1.723633
vt -3.807617 -1.178711
vt -3.807617 1.167969
vt -3.361328 -1.266602
vt -3.357422 2.427734
vt -3.807617 2.430664
vt -3.995117 1.964844
vt -3.807617 2.360352
vt -3.995117 2.360352
vt -3.995117 2.801758
vt -3.807617 2.801758
vt -3.807617 1.643555
vt -3.995117 1.160156
vt -3.807617 1.160156
vt -3.807617 -1.178711
vt -3.995117 -1.178711
vt -2.995117 -1.263672
vt -3.361328 -1.266602
vt -3.357422 2.427734
vt -3.807617 1.167969
vt -3.807617 -1.178711
vt -3.995117 1.964844
vt -3.807617 2.360352
vt -3.995117 2.360352
vt -3.995117 2.801758
vt -3.807617 2.801758
vt -3.807617 1.643555
vt -3.995117 1.160156
vt -3.807617 1.160156
vt -3.807617 -1.178711
vt -3.995117 -1.178711
vt -3.807617 2.430664
vt -3.807617 1.167969
vt -3.357422 2.427734
vt -3.361328 -1.266602
vt -3.807617 -1.178711
vt -2.995117 2.439453
vt -3.357422 2.439453
vt -3.361328 -1.274414
vt -3.807617 1.167969
vt -3.807617 2.436523
vt -0.807617 1.054688
vt -0.998047 1.450195
vt -0.807617 1.450195
vt -0.807617 1.723633
vt -0.998047 1.723633
vt 4.992188 -0.310547
vt 4.613281 -0.342773
vt 4.613281 0.434570
vt 4.235352 0.434570
vt 4.235352 -0.375000
vt -0.807617 1.054688
vt -0.998047 0.511719
vt -0.807617 0.511719
vt -0.807617 0.405273
vt -0.998047 0.405273
vt -3.995117 1.964844
vt -3.995117 2.360352
vt -3.807617 1.964844
vt -3.807617 2.360352
vt -3.807617 2.801758
vt 4.235352 -3.171875
vt 4.992188 -2.926758
vt 4.992188 -3.258789
vt 4.235352 -3.171875
vt 4.235352 -2.927734
vt 4.235352 -1.683594
vt 4.992188 -1.815430
vt 4.235352 -3.171875
vt 4.992188 -3.258789
vt 4.235352 -3.171875
vt 4.235352 -0.533203
vt 4.992188 -0.620117
vt 4.235352 -3.171875
vt 4.992188 -3.258789
vt 4.235352 -3.171875
vt 4.234375 0.434570
vt 4.992188 0.434570
vt 4.432617 0.496094
vt 4.236328 0.435547
vt 4.235352 -3.171875
vt 4.235352 -3.171875
vt 4.000000 -3.171875
vt 4.235352 -2.927734
vt 4.000000 -2.930664
vt 4.235352 -3.171875
vt 4.235352 -2.807617
vt 4.000000 -3.171875
vt 4.000000 -2.808594
vt 4.235352 -1.803711
vt 4.235352 -3.171875
vt 4.000000 -1.803711
vt 4.000000 -3.171875
vt 4.235352 -1.683594
vt 4.000000 -1.687500
vt 4.235352 -3.171875
vt 4.000000 -3.171875
vt 4.235352 -3.171875
vt 4.000000 -3.171875
vt 4.235352 -0.664062
vt 4.000000 -0.666992
vt 4.235352 -0.533203
vt 4.000000 -0.548828
vt 4.235352 -3.171875
vt 4.000000 -3.171875
vt 4.235352 -3.171875
vt 4.236328 0.435547
vt 4.000000 -3.171875
vt 4.000000 0.434570
vt 4.992188 -3.258789
vt 4.235352 -3.171875
vt 4.992188 0.434570
vt 4.235352 0.434570
vt 4.235352 -3.171875
vt 4.000000 -3.171875
vt 4.235352 0.434570
vt 4.000000 0.434570
vt 4.235352 -0.375000
vt 4.613281 -0.342773
vt 4.235352 0.434570
vt 4.613281 0.434570
vt -2.995117 2.427734
vt -2.995117 -1.263672
vt -3.357422 2.427734
vt -3.361328 -1.266602
vt -3.361328 -1.266602
vt -2.995117 -1.263672
vt -3.357422 2.427734
vt -2.995117 2.427734
vt 4.235352 -3.171875
vt 4.235352 -2.927734
vt 4.000000 -3.171875
vt 4.000000 -2.930664
vt 4.235352 -3.171875
vt 4.000000 -3.171875
vt 4.235352 -2.807617
vt 4.000000 -2.808594
vt 4.235352 -1.803711
vt 4.000000 -1.803711
vt 4.235352 -3.171875
vt 4.000000 -3.171875
vt 4.235352 -1.683594
vt 4.235352 -3.171875
vt 4.000000 -1.687500
vt 4.000000 -3.171875
vt 4.235352 -3.171875
vt 4.235352 -0.664062
vt 4.000000 -3.171875
vt 4.000000 -0.666992
vt 4.235352 -0.533203
vt 4.235352 -3.171875
vt 4.000000 -0.548828
vt 4.000000 -3.171875
vt 4.235352 -3.171875
vt 4.000000 -3.171875
vt 4.236328 0.435547
vt 4.000000 0.434570
vt 4.992188 -3.258789
vt 4.992188 0.434570
vt 4.235352 -3.171875
vt 4.235352 0.434570
vt 4.235352 -3.171875
vt 4.235352 0.434570
vt 4.000000 -3.171875
vt 4.000000 0.434570
vt 4.992188 -2.926758
vt 4.235352 -3.171875
vt 4.235352 -2.927734
vt 4.235352 -3.171875
vt 4.992188 -1.815430
vt 4.235352 -1.683594
vt 4.235352 -3.171875
vt 4.992188 -0.620117
vt 4.235352 -0.533203
vt -0.998047 1.450195
vt -0.807617 1.723633
vt -0.998047 1.723633
vt -3.807617 2.801758
vt -3.995117 2.360352
vt -3.995117 2.801758
vt -3.807617 1.964844
vt -3.995117 1.643555
vt -3.995117 1.964844
vt -3.361328 -1.274414
vt -3.807617 -1.178711
vt -3.807617 1.167969
vt 4.613281 0.434570
vt 4.613281 -0.342773
vt 4.992188 -0.310547
vt -3.361328 -1.274414
vt -2.995117 -1.275391
vt -2.995117 2.439453
vt -3.995117 2.801758
vt -3.995117 2.360352
vt -3.807617 2.801758
vt -3.807617 1.167969
vt -3.807617 -1.178711
vt -3.361328 -1.274414
vt -0.807617 0.405273
vt -0.998047 0.405273
vt -0.998047 0.511719
vt -3.995117 2.801758
vt -3.807617 2.801758
vt -3.807617 2.360352
vt -3.807617 1.167969
vt -3.357422 2.427734
vt -3.807617 2.430664
vt -3.357422 2.427734
vt -2.995117 2.427734
vt -2.995117 -1.263672
vt -3.995117 2.801758
vt -3.807617 2.801758
vt -3.807617 2.360352
vt -3.357422 2.427734
vt -3.807617 1.167969
vt -3.807617 2.430664
vt -3.361328 -1.274414
vt -2.995117 -1.275391
vt -2.995117 2.439453
vt -3.995117 2.801758
vt -3.995117 2.360352
vt -3.807617 2.801758
vt -3.807617 1.167969
vt -3.807617 -1.178711
vt -3.361328 -1.274414
vt -0.807617 0.405273
vt -0.998047 0.405273
vt -0.998047 0.511719
vt -0.998047 1.450195
vt -0.807617 1.723633
vt -0.998047 1.723633
vt -3.807617 2.801758
vt -3.995117 2.360352
vt -3.995117 2.801758
vt -3.807617 1.964844
vt -3.995117 1.643555
vt -3.995117 1.964844
vt -3.361328 -1.274414
vt -3.807617 -1.178711
vt -3.807617 1.167969
vt 4.992188 -2.926758
vt 4.235352 -3.171875
vt 4.235352 -2.807617
vt 4.235352 -3.171875
vt 4.992188 -1.815430
vt 4.235352 -1.803711
vt 4.235352 -3.171875
vt 4.992188 -0.620117
vt 4.235352 -0.664062
vn 0.4490 -0.0004 -0.8935
vn 0.4415 0.2408 -0.8643
vn 0.4204 -0.0003 -0.9073
vn 0.4204 -0.0138 -0.9073
vn 0.7806 0.2477 -0.5739
vn 0.8117 0.0347 -0.5831
vn 0.9926 -0.0008 -0.1212
vn 0.9942 -0.0011 -0.1077
vn 0.8698 -0.3549 -0.3429
vn -0.5477 0.0607 0.8344
vn 0.7135 0.0071 0.7006
vn 0.4779 -0.3411 0.8095
vn 0.0000 0.0000 -1.0000
vn -0.0380 0.0000 -0.9993
vn 0.0000 -0.2869 -0.9580
vn 0.0314 -0.4084 -0.9123
vn -0.0590 -0.0447 -0.9973
vn 0.1295 -0.2542 -0.9584
vn -0.1466 -0.2838 -0.9476
vn 0.1545 -0.5799 -0.7999
vn 0.0000 -0.5524 -0.8336
vn -0.1466 -0.5465 -0.8246
vn 1.0000 -0.0000 0.0000
vn 0.9230 0.3837 -0.0291
vn 0.8680 -0.4310 0.2465
vn 0.9230 0.0292 0.3838
vn 0.6496 0.3848 -0.6557
vn 0.4895 -0.0275 -0.8716
vn 0.7039 -0.0000 -0.7103
vn 0.7669 -0.2363 -0.5967
vn 0.0000 -0.5524 0.8336
vn 0.1545 -0.5799 0.7999
vn -0.1466 -0.5465 0.8245
vn -0.1466 -0.2838 0.9476
vn 0.1294 -0.2543 0.9584
vn -0.0342 -0.1489 0.9883
vn 0.0314 -0.4084 0.9123
vn 0.1450 -0.2839 0.9478
vn -0.1409 -0.3166 0.9380
vn -0.1450 0.0000 0.9894
vn 0.1448 0.0068 0.9894
vn 0.0000 0.0000 1.0000
vn 0.0068 -0.1448 0.9894
vn 0.0000 -0.6381 -0.7700
vn -0.1772 -0.6612 -0.7290
vn 0.1684 -0.6290 -0.7590
vn 0.1684 -0.3413 -0.9247
vn -0.1501 -0.3087 -0.9393
vn 0.0407 -0.1803 -0.9828
vn -0.0357 -0.4829 -0.8749
vn -0.1759 -0.3409 -0.9235
vn 0.1711 -0.3790 -0.9094
vn 0.1759 0.0000 -0.9844
vn -0.1757 0.0083 -0.9844
vn -0.0083 -0.1757 -0.9844
vn -0.0357 -0.4829 -0.8750
vn 0.0434 -0.5616 0.8263
vn 0.0000 -0.2869 0.9580
vn 0.0582 -0.5078 0.8595
vn 0.7039 0.0000 0.7103
vn 0.7669 -0.2363 0.5967
vn 0.7038 -0.0000 0.7104
vn 0.4895 -0.0275 0.8716
vn 0.6496 0.3848 0.6557
vn 0.8680 -0.4310 -0.2465
vn 0.9230 0.0292 -0.3838
vn 0.9230 0.3837 0.0291
vn 0.0068 -0.1448 -0.9894
vn 0.1448 0.0068 -0.9894
vn -0.1450 0.0000 -0.9894
vn 0.1450 -0.2839 -0.9478
vn -0.1409 -0.3166 -0.9380
vn -0.0342 -0.1489 -0.9883
vn 0.7135 0.0071 -0.7006
vn -0.5387 0.0603 -0.8404
vn 0.4778 -0.3411 -0.8095
vn 0.8698 -0.3549 0.3429
vn 0.9314 0.0043 -0.3641
vn 0.8799 -0.3317 0.3401
vn 0.8110 0.0455 0.5833
vn 0.7801 0.2498 0.5737
vn 0.7558 -0.0006 0.6548
vn 0.3582 -0.5696 0.7398
vn 0.1599 -0.0004 0.9871
vn 0.4204 -0.0003 0.9073
vn 0.4417 0.2387 0.8648
vn 0.4490 -0.0004 0.8935
vn 0.4767 0.0004 0.8791
vn 0.9999 -0.0147 -0.0002
vn 0.9999 -0.0002 0.0146
vn 0.9278 0.3732 0.0000
vn 0.0559 -0.0230 -0.9982
vn 0.7215 0.0000 -0.6924
vn 0.4115 0.0246 -0.9111
vn 0.6864 0.3724 -0.6246
vn 0.0000 -0.8985 0.4390
vn 0.1209 -0.9063 0.4050
vn -0.1147 -0.8926 0.4361
vn -0.1147 -0.7698 0.6280
vn 0.0998 -0.7530 0.6504
vn -0.0368 -0.6846 0.7280
vn 0.0280 -0.8338 0.5513
vn 0.1501 -0.7661 0.6250
vn -0.1313 -0.7909 0.5977
vn -0.1581 -0.5096 0.8458
vn 0.1501 -0.5462 0.8241
vn 0.0000 -0.7749 -0.6321
vn -0.1582 -0.7924 -0.5891
vn 0.1501 -0.7661 -0.6250
vn 0.1501 -0.5462 -0.8241
vn -0.1311 -0.5179 -0.8453
vn 0.0232 -0.4783 -0.8779
vn -0.0352 -0.6566 -0.7534
vn -0.1709 -0.5443 -0.8213
vn 0.0862 -0.5695 -0.8174
vn 0.1331 -0.0245 -0.9908
vn -0.1710 -0.2358 -0.9566
vn 0.0000 -0.2394 -0.9709
vn 0.0000 -0.9008 0.4342
vn 0.0408 -0.9049 0.4236
vn 0.0000 -0.7699 0.6381
vn -0.0362 -0.6815 0.7309
vn 0.0543 -0.8768 0.4778
vn 0.1462 -0.7616 0.6313
vn -0.1278 -0.7862 0.6046
vn -0.1540 -0.5109 0.8457
vn 0.1462 -0.5465 0.8246
vn 0.0000 -0.9331 -0.3597
vn -0.1139 -0.9361 -0.3327
vn 0.1085 -0.9276 -0.3576
vn 0.1085 -0.8286 -0.5492
vn -0.0972 -0.8162 -0.5696
vn 0.0319 -0.7542 -0.6559
vn -0.0238 -0.8830 -0.4687
vn -0.1462 -0.8246 -0.5465
vn 0.1301 -0.8436 -0.5209
vn 0.1538 -0.6007 -0.7846
vn -0.1462 -0.6312 -0.7617
vn 0.9996 0.0280 0.0005
vn 0.9996 0.0005 -0.0281
vn 0.9760 -0.2177 -0.0000
vn 0.2842 0.0440 0.9577
vn 0.7925 0.0000 0.6098
vn 0.4607 -0.0162 0.8874
vn 0.5467 -0.3169 0.7750
vn 0.7920 -0.0000 0.6105
vn 0.7922 0.0000 0.6102
vn 0.0000 -0.8335 0.5525
vn 0.1537 -0.8438 0.5141
vn -0.1462 -0.8246 0.5466
vn -0.1462 -0.6312 0.7617
vn 0.1301 -0.6075 0.7836
vn -0.0373 -0.5146 0.8566
vn 0.0323 -0.7325 0.6800
vn 0.1684 -0.6290 0.7590
vn -0.1503 -0.6591 0.7369
vn -0.1770 -0.3010 0.9370
vn 0.1684 -0.3413 0.9247
vn 0.0000 -0.3463 0.9381
vn 0.1538 -0.6006 -0.7846
vn -0.1709 -0.2358 -0.9566
vn 0.0000 -0.2393 -0.9709
vn 0.1277 -0.9083 0.3984
vn -0.1212 -0.8942 0.4310
vn -0.1211 -0.7643 0.6334
vn 0.1055 -0.7462 0.6573
vn 0.0299 -0.8326 0.5530
vn -0.1541 -0.5109 0.8458
vn 0.0560 -0.0230 -0.9982
vn 0.6864 0.3724 -0.6247
vn -0.0368 -0.6847 0.7279
vn 0.0280 -0.8338 0.5514
vn 0.2633 0.0000 0.9647
vn 0.7892 0.3315 0.5169
vn 0.4832 -0.3695 0.7937
vn -0.7562 -0.3698 0.5399
vn -0.7161 0.0692 0.6945
vn -0.6200 0.0000 0.7846
vn -0.5031 0.0481 0.8629
vn 0.3203 -0.0035 0.9473
vn 0.3118 0.0353 0.9495
vn 0.2860 -0.0036 0.9582
vn 0.3547 0.0013 0.9350
vn 0.4266 0.0041 0.9044
vn 0.5571 -0.3659 0.7455
vn -0.9845 0.0675 0.1618
vn -0.5327 0.0000 0.8463
vn -0.6931 -0.3659 0.6211
vn 0.4976 0.0007 0.8674
vn 0.5060 0.0339 0.8619
vn 0.5541 0.0007 0.8324
vn 0.4382 -0.0040 0.8989
vn 0.4071 -0.0013 0.9134
vn 0.6150 -0.3452 0.7090
vn -0.9647 0.0416 0.2601
vn -0.3996 -0.0028 0.9167
vn -0.5818 -0.3445 0.7368
vn 0.7860 0.0024 0.6183
vn 0.9550 0.2681 0.1269
vn 0.5954 0.0053 0.8034
vn 0.1502 0.7470 0.6477
vn 0.8086 0.4994 0.3111
vn 0.0473 0.7461 0.6642
vn 0.9457 -0.0578 -0.3199
vn 0.5861 0.6668 -0.4603
vn 0.1814 0.8173 -0.5468
vn 0.1790 -0.5834 0.7922
vn -0.1709 -0.5443 0.8213
vn -0.1710 -0.2358 0.9566
vn 0.0822 -0.1072 0.9908
vn 0.0011 -0.2393 0.9709
vn 0.1280 -0.3189 0.9391
vn -0.0017 -0.2420 0.9703
vn -0.0018 -0.2440 0.9698
vn 0.0000 -0.7699 -0.6381
vn 0.0299 -0.8326 -0.5530
vn 0.1055 -0.7462 -0.6573
vn -0.1212 -0.7642 -0.6334
vn 0.1277 -0.9083 -0.3984
vn 0.0000 -0.9008 -0.4342
vn -0.1212 -0.8942 -0.4310
vn 0.8479 -0.0069 -0.5301
vn 0.5647 -0.0069 0.8253
vn 0.4115 0.0246 0.9111
vn 0.7215 0.0000 0.6925
vn 0.6864 0.3723 0.6247
vn 0.1209 -0.7473 -0.6534
vn -0.1147 -0.7698 -0.6280
vn -0.1147 -0.8926 -0.4361
vn 0.0999 -0.9060 -0.4114
vn 0.0000 -0.8985 -0.4390
vn 0.0281 -0.8498 -0.5263
vn 0.7927 0.0000 -0.6096
vn -0.1141 -0.8123 0.5720
vn 0.1085 -0.8286 0.5492
vn 0.1085 -0.9276 0.3576
vn -0.0970 -0.9365 0.3371
vn 0.0000 -0.9331 0.3597
vn -0.0223 -0.8936 0.4484
vn 0.1848 -0.3812 0.9058
vn -0.1759 -0.3409 0.9235
vn -0.1759 0.0000 0.9844
vn 0.1616 0.0076 0.9868
vn 0.0076 -0.1616 0.9868
vn 0.9760 -0.2176 0.0000
vn 0.8589 0.0088 0.5120
vn 0.7156 0.0088 -0.6984
vn 0.4610 -0.0162 -0.8872
vn 0.5479 -0.3166 -0.7743
vn 0.7927 0.0000 0.6096
vn 0.8493 -0.0070 -0.5279
vn 0.5625 -0.0070 0.8268
vn 0.7215 -0.0000 0.6924
vn 0.0998 -0.9060 -0.4114
vn 0.7270 0.0520 0.6847
vn 0.7035 0.0331 -0.7100
vn 0.7038 -0.0000 -0.7104
vn 0.1791 -0.5834 0.7922
vn -0.1710 -0.5443 0.8213
vn 0.0822 -0.1073 0.9908
vn 0.1282 -0.3189 0.9391
vn -0.0017 -0.2419 0.9703
vn -0.0017 -0.2439 0.9698
vn -0.1211 -0.7643 -0.6334
vn -0.6201 0.0000 -0.7846
vn -0.9247 0.3111 -0.2196
vn -0.7562 -0.3698 -0.5398
vn 0.4832 -0.3695 -0.7937
vn 0.4320 0.0958 -0.8968
vn 0.2633 0.0000 -0.9647
vn 0.1633 0.1795 -0.9701
vn -0.5327 0.0000 -0.8463
vn -0.5119 0.0192 -0.8588
vn -0.5586 0.0029 -0.8295
vn -0.6931 -0.3659 -0.6211
vn 0.9482 0.0735 -0.3090
vn 0.3556 0.0000 -0.9346
vn 0.5571 -0.3659 -0.7455
vn -0.4458 -0.0002 -0.8952
vn -0.4357 0.0156 -0.8999
vn -0.4898 -0.0002 -0.8718
vn -0.4002 -0.0037 -0.9164
vn -0.3703 -0.0020 -0.9289
vn -0.5818 -0.3445 -0.7368
vn 0.9744 0.0404 -0.2213
vn 0.4374 -0.0027 -0.8993
vn 0.6150 -0.3452 -0.7090
vn 0.5861 0.6668 0.4603
vn 0.9457 -0.0578 0.3199
vn 0.1814 0.8174 0.5468
vn 0.0474 0.7461 -0.6642
vn 0.8087 0.4993 -0.3110
vn 0.1503 0.7470 -0.6476
vn 0.9550 0.2681 -0.1268
vn 0.7860 0.0024 -0.6183
vn 0.5955 0.0053 -0.8034
vn 0.9790 0.0000 0.2039
vn -0.9785 0.0000 -0.2063
vn 0.9955 -0.0004 0.0950
vn 0.9958 -0.0003 0.0912
vn 0.9947 -0.0000 0.1027
vn 0.9951 -0.0000 0.0990
vn -0.9951 0.0000 -0.0990
vn 1.0000 0.0004 0.0014
vn 1.0000 0.0004 0.0079
vn 1.0000 0.0012 -0.0052
vn 0.9999 0.0007 -0.0117
vn 1.0000 0.0007 -0.0052
vn -0.9980 -0.0000 0.0631
vn -0.9985 -0.0000 0.0549
vn -0.9974 0.0003 0.0715
vn -0.9968 0.0003 0.0797
vn -0.3369 0.0115 0.9415
vn -0.3061 0.0115 0.9519
vn -0.3369 0.0111 0.9415
vn -0.3977 0.0122 0.9174
vn -0.3677 0.0129 0.9298
vn -0.3677 0.0124 0.9298
vn 0.9261 0.0000 -0.3774
vn 0.9259 0.0000 -0.3777
vn 0.9263 0.0000 -0.3768
vn 0.9265 -0.0000 -0.3764
vn 0.0000 -0.0006 -1.0000
vn 0.0268 -0.0000 -0.9996
vn -0.0273 0.0014 -0.9996
vn -0.0540 0.0007 -0.9985
vn -0.0273 0.0008 -0.9996
vn 0.9790 0.0000 -0.2039
vn -0.9785 0.0000 0.2063
vn 0.9955 -0.0004 -0.0950
vn 0.9958 -0.0003 -0.0912
vn 0.9951 -0.0000 -0.0990
vn 0.9947 -0.0000 -0.1027
vn -0.9951 0.0000 0.0990
vn 1.0000 0.0004 -0.0014
vn 1.0000 0.0004 -0.0078
vn 0.9999 0.0007 0.0117
vn 1.0000 0.0007 0.0052
vn -0.9980 -0.0000 -0.0631
vn -0.9985 -0.0000 -0.0549
vn -0.9968 0.0003 -0.0797
vn -0.9974 0.0007 -0.0715
vn -0.9974 0.0003 -0.0715
vn -0.3368 0.0115 -0.9415
vn -0.3368 0.0110 -0.9415
vn -0.3060 0.0115 -0.9520
vn -0.3677 0.0129 -0.9298
vn -0.3977 0.0122 -0.9174
vn -0.3677 0.0124 -0.9298
vn 0.9261 0.0000 0.3774
vn 0.9258 0.0000 0.3780
vn 0.9264 -0.0000 0.3765
vn 0.9263 0.0000 0.3768
vn 0.0267 -0.0000 0.9996
vn 0.0000 -0.0006 1.0000
vn -0.0540 0.0007 0.9985
vn -0.0273 0.0012 0.9996
vn -0.0273 0.0008 0.9996
vn -0.4458 -0.0002 0.8951
vn -0.0017 -0.2420 -0.9703
vn -0.0017 -0.2419 -0.9703
vn 0.3203 -0.0035 -0.9473
vn 0.4975 0.0007 -0.8674
usemtl Tex_0030_0.dds.001
s off
f 1/1/1 3/2/2 2/3/1
f 2/3/3 3/2/3 4/4/4
f 3/2/5 5/5/6 4/4/7
f 4/4/8 5/5/8 6/6/9
f 5/5/10 7/7/11 6/6/12
f 8/8/13 10/9/13 9/10/13
f 9/10/13 10/9/13 11/11/14
f 10/9/15 12/12/16 11/11/15
f 11/11/17 12/12/18 13/13/19
f 12/12/20 14/14/21 13/13/22
f 15/15/23 17/16/23 16/17/23
f 16/17/23 17/16/23 18/18/24
f 17/16/23 19/19/25 18/18/26
f 18/18/27 19/19/28 20/20/29
f 19/19/30 21/21/29 20/20/29
f 22/22/31 24/23/32 23/24/33
f 23/24/34 24/23/35 25/25/36
f 24/23/37 26/26/38 25/25/39
f 25/25/40 26/26/41 27/27/42
f 26/26/43 28/28/42 27/27/42
f 29/29/44 31/30/45 30/31/46
f 30/31/47 31/30/48 32/32/49
f 31/30/50 33/33/51 32/32/52
f 32/32/53 33/33/54 34/34/13
f 33/33/55 35/35/13 34/34/13
f 36/36/44 38/37/45 37/38/46
f 37/38/47 38/37/48 39/39/49
f 38/37/56 40/40/51 39/39/52
f 39/39/53 40/40/54 41/41/13
f 40/40/55 42/42/13 41/41/13
f 43/43/31 45/44/57 44/45/31
f 44/45/58 45/44/58 46/46/36
f 45/44/59 47/47/38 46/46/39
f 46/46/40 47/47/41 48/48/42
f 47/47/43 49/49/42 48/48/42
f 50/50/60 52/51/61 51/52/60
f 51/52/62 52/51/63 53/53/64
f 52/51/65 54/54/23 53/53/66
f 53/53/67 54/54/23 55/55/23
f 54/54/23 56/56/23 55/55/23
f 57/57/13 59/58/68 58/59/13
f 58/59/13 59/58/69 60/60/70
f 59/58/71 61/61/16 60/60/72
f 60/60/73 61/61/18 62/62/19
f 61/61/20 63/63/21 62/62/22
f 64/64/74 66/65/75 65/66/76
f 65/66/77 66/65/78 67/67/79
f 66/65/80 68/68/81 67/67/82
f 67/67/83 68/68/84 69/69/85
f 68/68/86 70/70/87 69/69/88
f 71/71/23 73/72/89 72/73/23
f 72/73/23 73/72/90 74/74/91
f 73/72/92 75/75/93 74/74/94
f 74/74/95 75/75/93 76/76/93
f 77/77/96 79/78/97 78/79/98
f 78/79/99 79/78/100 80/80/101
f 79/78/102 81/81/103 80/80/104
f 80/80/105 81/81/106 82/82/31
f 83/83/107 85/84/108 84/85/109
f 84/85/110 85/84/111 86/86/112
f 85/84/113 87/87/114 86/86/115
f 86/86/116 87/87/117 88/88/118
f 89/89/119 91/90/120 90/91/119
f 90/91/121 91/90/121 92/92/122
f 91/90/123 93/93/124 92/92/125
f 92/92/126 93/93/127 94/94/31
f 95/95/128 97/96/129 96/97/130
f 96/97/131 97/96/132 98/98/133
f 97/96/134 99/99/135 98/98/136
f 98/98/137 99/99/138 100/100/44
f 101/101/23 103/102/139 102/103/23
f 102/103/23 103/102/140 104/104/141
f 103/102/142 105/105/143 104/104/144
f 104/104/145 105/105/146 106/106/147
f 107/107/148 109/108/149 108/109/150
f 108/109/151 109/108/152 110/110/153
f 109/108/154 111/111/155 110/110/156
f 110/110/157 111/111/158 112/112/159
f 113/113/128 115/114/129 114/115/130
f 114/115/131 115/114/132 116/116/133
f 115/114/134 117/117/135 116/116/136
f 116/116/160 117/117/138 118/118/44
f 119/119/148 121/120/149 120/121/150
f 120/121/151 121/120/152 122/122/153
f 121/120/154 123/123/155 122/122/156
f 122/122/157 123/123/158 124/124/159
f 125/125/107 127/126/108 126/127/109
f 126/127/110 127/126/111 128/128/112
f 127/126/113 129/129/114 128/128/115
f 128/128/116 129/129/161 130/130/162
f 131/131/119 133/132/163 132/133/164
f 132/133/165 133/132/166 134/134/122
f 133/132/167 135/135/124 134/134/125
f 134/134/168 135/135/127 136/136/31
f 137/137/23 139/138/89 138/139/23
f 138/139/23 139/138/90 140/140/91
f 139/138/169 141/141/93 140/140/94
f 140/140/170 141/141/93 142/142/93
f 143/143/96 145/144/97 144/145/98
f 144/145/99 145/144/100 146/146/171
f 145/144/172 147/147/103 146/146/104
f 146/146/105 147/147/106 148/148/31
f 149/149/173 151/150/174 150/151/175
f 150/151/176 151/150/177 152/152/178
f 151/150/179 153/153/178 152/152/178
f 154/154/180 156/155/181 155/156/182
f 155/156/183 156/155/184 157/157/185
f 156/155/186 158/158/187 157/157/188
f 159/159/189 161/160/190 160/161/191
f 160/161/192 161/160/193 162/162/194
f 161/160/195 163/163/196 162/162/197
f 164/164/198 166/165/199 165/166/200
f 165/166/201 166/165/202 167/167/203
f 166/165/204 168/168/205 167/167/206
f 169/169/31 171/170/207 170/171/208
f 170/171/209 171/170/210 172/172/211
f 171/170/212 173/173/213 172/172/214
f 174/174/215 176/175/216 175/176/215
f 175/176/215 176/175/217 177/177/218
f 176/175/219 178/178/220 177/177/221
f 179/179/23 181/180/91 180/181/222
f 180/181/223 181/180/224 182/182/225
f 181/180/226 183/183/225 182/182/225
f 184/184/107 186/185/227 185/186/228
f 185/186/229 186/185/230 187/187/231
f 186/185/232 188/188/231 187/187/231
f 189/189/233 191/190/233 190/191/233
f 190/191/233 191/190/233 192/192/233
f 191/190/233 193/193/233 192/192/233
f 194/194/148 196/195/234 195/196/235
f 195/196/236 196/195/237 197/197/238
f 196/195/239 198/198/238 197/197/238
f 199/199/159 201/200/240 200/201/241
f 200/201/242 201/200/243 202/202/42
f 201/200/244 203/203/42 202/202/42
f 204/204/23 206/205/245 205/206/246
f 205/206/247 206/205/248 207/207/233
f 206/205/249 208/208/233 207/207/233
f 209/209/148 211/210/234 210/211/235
f 210/211/236 211/210/237 212/212/238
f 211/210/239 213/213/238 212/212/238
f 214/214/159 216/215/240 215/216/241
f 215/216/242 216/215/243 217/217/42
f 216/215/244 218/218/42 217/217/42
f 219/219/250 221/220/250 220/221/250
f 220/221/143 221/220/143 222/222/143
f 221/220/147 223/223/147 222/222/147
f 224/224/23 226/225/91 225/226/251
f 225/226/252 226/225/224 227/227/253
f 226/225/226 228/228/225 227/227/225
f 229/229/107 231/230/227 230/231/228
f 230/231/229 231/230/254 232/232/231
f 231/230/232 233/233/231 232/232/231
f 234/234/23 236/235/25 235/236/255
f 235/236/256 236/235/28 237/237/257
f 236/235/30 238/238/257 237/237/257
f 239/239/31 241/240/258 240/241/259
f 240/241/209 241/240/260 242/242/211
f 241/240/261 243/243/262 242/242/263
f 244/244/215 246/245/216 245/246/215
f 245/246/215 246/245/217 247/247/264
f 246/245/219 248/248/220 247/247/221
f 249/249/265 251/250/266 250/251/267
f 250/251/268 251/250/269 252/252/270
f 251/250/271 253/253/270 252/252/270
f 254/254/272 256/255/273 255/256/272
f 255/256/272 256/255/274 257/257/275
f 256/255/276 258/258/277 257/257/278
f 259/259/279 261/260/280 260/261/281
f 260/261/282 261/260/283 262/262/284
f 261/260/285 263/263/286 262/262/287
f 264/264/288 266/265/289 265/266/290
f 265/266/291 266/265/292 267/267/293
f 266/265/294 268/268/295 267/267/296
f 269/269/297 271/270/297 270/271/297
f 270/271/297 271/270/297 272/272/297
f 273/273/298 275/274/298 274/275/298
f 274/275/298 275/274/298 276/276/298
f 277/277/299 279/278/300 278/279/299
f 278/279/301 279/278/302 280/280/302
f 281/281/303 283/282/303 282/283/303
f 282/283/303 283/282/303 284/284/303
f 285/285/304 287/286/304 286/287/305
f 286/287/306 287/286/307 288/288/308
f 289/289/309 291/290/309 290/291/310
f 290/291/311 291/290/312 292/292/311
f 293/293/313 295/294/314 294/295/315
f 294/295/316 295/294/317 296/296/318
f 297/297/319 299/298/319 298/299/320
f 298/299/321 299/298/322 300/300/321
f 301/301/13 303/302/323 302/303/324
f 302/303/325 303/302/326 304/304/327
f 305/305/62 307/306/62 306/307/62
f 306/307/62 307/306/62 308/308/62
f 309/309/23 311/310/23 310/311/23
f 310/311/23 311/310/23 312/312/23
f 313/313/23 315/314/23 314/315/23
f 314/315/23 315/314/23 316/316/23
f 317/317/328 319/318/328 318/319/328
f 318/319/328 319/318/328 320/320/328
f 321/321/329 323/322/329 322/323/329
f 322/323/329 323/322/329 324/324/329
f 325/325/330 327/326/330 326/327/331
f 326/327/332 327/326/333 328/328/332
f 329/329/334 331/330/334 330/331/334
f 330/331/334 331/330/334 332/332/334
f 333/333/335 335/334/336 334/335/335
f 334/335/337 335/334/338 336/336/338
f 337/337/339 339/338/340 338/339/339
f 338/339/341 339/338/342 340/340/343
f 341/341/344 343/342/345 342/343/346
f 342/343/347 343/342/348 344/344/349
f 345/345/350 347/346/351 346/347/350
f 346/347/352 347/346/353 348/348/353
f 349/349/42 351/350/354 350/351/355
f 350/351/356 351/350/357 352/352/358
f 353/353/173 355/354/173 354/355/173
f 356/356/187 358/357/187 357/358/187
f 359/359/359 361/360/359 360/361/359
f 362/362/96 364/363/96 363/364/96
f 365/365/220 367/366/220 366/367/220
f 368/368/21 370/369/21 369/370/21
f 371/371/93 373/372/93 372/373/93
f 374/374/23 376/375/23 375/376/23
f 377/377/23 379/378/23 378/379/23
f 380/380/119 382/381/119 381/382/119
f 383/383/225 385/384/225 384/385/225
f 386/386/360 388/387/360 387/388/360
f 389/389/128 391/390/128 390/391/128
f 392/392/250 394/393/250 393/394/250
f 395/395/23 397/396/23 396/397/23
f 398/398/128 400/399/128 399/400/128
f 401/401/233 403/402/233 402/403/233
f 404/404/23 406/405/23 405/406/23
f 407/407/119 409/408/119 408/409/119
f 410/410/253 412/411/253 411/412/253
f 413/413/361 415/414/361 414/415/361
f 416/416/96 418/417/96 417/418/96
f 419/419/220 421/420/220 420/421/220
f 422/422/21 424/423/21 423/424/21
f 425/425/93 427/426/93 426/427/93
f 428/428/265 430/429/265 429/430/265
f 431/431/362 433/432/362 432/433/362
f 434/434/363 436/435/363 435/436/363
