# Blender v3.6.3 OBJ File: 'untitled.blend'
# www.blender.org
mtllib Mesh_0351.mtl
o Mesh_0351_Mesh.099
v -28.872261 19.274775 38.068192
v -29.385683 18.500074 38.068192
v -29.385683 18.500074 38.317886
v -29.680906 17.514353 38.068192
v -29.680906 17.514353 38.317886
v -29.680906 12.223734 38.068192
v -29.680904 12.223734 38.317886
v -33.952259 19.274775 38.068192
v -34.465683 18.500074 38.068192
v -34.465683 18.500074 38.317886
v -34.760906 17.514353 38.068192
v -34.760906 17.514353 38.317886
v -34.760906 12.223734 38.068192
v -34.760902 12.223734 38.317886
v -30.034439 20.319984 38.446320
v -29.924585 20.319984 38.446320
v -29.924585 12.022645 38.446320
v -29.814720 20.319984 38.446320
v -29.814720 12.022645 38.446320
v -29.680906 17.514353 38.317886
v -29.680904 12.223734 38.317886
v -19.764585 21.814775 31.935860
v -19.764585 21.040073 32.449287
v -19.514894 21.040073 32.449287
v -19.764585 20.054350 32.744507
v -19.514894 20.054350 32.744507
v -19.764585 14.763734 32.744507
v -19.514894 14.763734 32.744507
v -21.396076 13.265066 36.666100
v -21.396076 21.443327 36.666100
v -21.117455 13.197628 36.478836
v -21.117455 21.576963 36.478836
v -20.981567 13.509703 36.170639
v -20.981567 21.687962 36.170639
v -27.384584 20.227324 38.068192
v -28.193336 19.837488 38.068192
v -28.193336 19.837488 38.317886
v -28.872261 19.274775 38.068192
v -28.872261 19.274775 38.317886
v -29.385683 18.500074 38.317886
v -24.844612 20.319984 38.446388
v -24.844612 12.022654 38.446388
v -24.954441 20.319984 38.446320
v -24.954668 12.022645 38.446320
v -25.088272 17.514353 38.317886
v -25.088272 12.223734 38.317886
v -26.575823 19.837488 38.317886
v -25.896908 19.274775 38.317886
v -25.896908 19.274775 38.068192
v -25.383497 18.500074 38.317886
v -25.383497 18.500074 38.068192
v -25.088272 17.514353 38.068192
v -32.464584 20.227324 38.068192
v -33.273335 19.837488 38.068192
v -33.273335 19.837488 38.317886
v -33.952259 19.274775 38.068192
v -33.952259 19.274775 38.317886
v -34.465683 18.500074 38.317886
v -31.655823 19.837488 38.317886
v -30.976906 19.274775 38.317886
v -30.976906 19.274775 38.068192
v -30.463497 18.500074 38.317886
v -30.463497 18.500074 38.068192
v -30.168272 17.514353 38.068192
v -19.764585 22.767324 30.448189
v -19.764585 22.377487 31.256943
v -19.514894 22.377487 31.256943
v -19.764585 21.814775 31.935860
v -19.514894 21.814775 31.935860
v -19.514894 21.040073 32.449287
v -19.386417 22.859985 27.908195
v -19.386417 14.562654 27.908195
v -19.386459 22.859985 28.018044
v -19.386459 14.562647 28.018280
v -19.514894 20.054352 28.151878
v -19.514894 14.763735 28.151878
v -19.514894 22.377487 29.639435
v -19.514894 21.814775 28.960510
v -19.764585 21.814775 28.960510
v -19.514894 21.040075 28.447105
v -19.764585 21.040075 28.447105
v -19.764585 20.054352 28.151878
v -25.896908 19.274775 38.068192
v -26.575823 19.837488 38.068192
v -26.575823 19.837488 38.317886
v -27.384584 20.227324 38.068192
v -27.384584 20.227324 38.317886
v -25.383497 18.500074 38.317886
v -25.088272 17.514353 38.317886
v -25.088272 17.514353 38.068192
v -25.088272 12.223734 38.317886
v -25.088272 12.223734 38.068192
v -35.004585 12.022645 38.446320
v -34.894722 20.319984 38.446320
v -34.894722 12.022645 38.446320
v -34.760906 17.514353 38.317886
v -34.760902 12.223734 38.317886
v -29.924585 12.022645 38.446320
v -30.034668 12.022645 38.446320
v -30.034439 20.319984 38.446320
v -30.168272 17.514353 38.317886
v -30.168272 20.319984 38.317886
v -30.976906 19.274775 38.068192
v -31.655823 19.837488 38.068192
v -31.655823 19.837488 38.317886
v -32.464584 20.227324 38.068192
v -32.464584 20.227324 38.317886
v -30.463497 18.500074 38.317886
v -30.168272 17.514353 38.317886
v -30.168272 17.514353 38.068192
v -30.168272 12.223734 38.317886
v -30.168272 12.223734 38.068192
v -19.386444 14.562654 32.986336
v -19.386459 22.859983 32.878326
v -19.386459 14.562646 32.878326
v -19.514894 20.054350 32.744507
v -19.514894 14.763734 32.744507
v -19.764585 21.814775 28.960510
v -19.764585 22.377487 29.639435
v -19.514894 22.377487 29.639435
v -19.764585 22.767324 30.448189
v -19.514894 22.767324 30.448189
v -19.514894 21.040075 28.447105
v -19.514894 20.054352 28.151878
v -19.764585 20.054352 28.151878
v -19.514894 14.763735 28.151878
v -19.764585 14.763735 28.151878
v -24.731098 12.223734 37.981369
v -24.652359 12.223734 38.218254
v -24.731098 20.388042 38.024780
v -24.652359 20.388042 38.218254
v -24.844612 12.022654 38.446388
v -24.844612 20.319984 38.446388
v -24.652359 12.223734 38.218254
v -24.652359 20.388042 38.218254
v -21.396076 13.265066 36.666100
v -21.573879 13.265066 36.490616
v -21.396076 21.443327 36.666100
v -21.573879 21.443327 36.490616
v -20.981567 13.509703 36.170639
v -20.981567 21.687962 36.170639
v -21.185276 13.509703 36.026146
v -21.185276 21.687962 36.026146
v -19.386444 14.562654 32.986336
v -19.527897 14.763735 33.309418
v -19.386444 22.859983 32.986336
v -19.527897 22.859983 33.309418
v -19.527897 14.763735 33.309418
v -19.776833 14.763735 33.289574
v -19.527897 22.859983 33.309418
v -19.776833 22.859983 33.289574
v -19.514935 14.763735 27.590691
v -19.514935 22.859985 27.590691
v -19.764587 14.763735 27.590691
v -19.764587 22.859985 27.590691
v -19.386417 14.562654 27.908195
v -19.386417 22.859985 27.908195
v -19.514935 14.763735 27.590691
v -19.514935 22.859985 27.590691
v -27.384584 20.227324 38.068192
v -28.193336 19.837488 38.317886
v -27.384584 20.227324 38.317886
v -29.814720 20.319984 38.446320
v -29.680906 20.319984 38.317886
v -29.680906 17.514353 38.317886
v -25.088272 17.514353 38.317886
v -25.088272 20.319984 38.317886
v -24.954441 20.319984 38.446320
v -34.894722 20.319984 38.446320
v -35.004585 12.022645 38.446320
v -35.004585 20.319984 38.446320
v -32.464584 20.227324 38.068192
v -33.273335 19.837488 38.317886
v -32.464584 20.227324 38.317886
v -34.894722 20.319984 38.446320
v -34.760906 20.319984 38.317886
v -34.760906 17.514353 38.317886
v -30.168272 12.223734 38.317886
v -30.168272 17.514353 38.317886
v -30.034668 12.022645 38.446320
v -19.386459 22.859983 32.878326
v -19.386444 14.562654 32.986336
v -19.386444 22.859983 32.986336
v -19.764585 22.767324 30.448189
v -19.514894 22.377487 31.256943
v -19.514894 22.767324 30.448189
v -19.386459 22.859983 32.878326
v -19.514894 22.859983 32.744507
v -19.514894 20.054350 32.744507
v -19.514894 20.054352 28.151878
v -19.514894 22.859985 28.151878
v -19.386459 22.859985 28.018044
vt -3.995117 1.964844
vt -3.807617 1.643555
vt -3.995117 1.643555
vt -3.995117 1.160156
vt -3.807617 1.160156
vt -3.995117 -1.178711
vt -3.807617 -1.178711
vt -3.995117 1.964844
vt -3.807617 1.643555
vt -3.995117 1.643555
vt -3.995117 1.160156
vt -3.807617 1.160156
vt -3.995117 -1.178711
vt -3.807617 -1.178711
vt -3.357422 2.427734
vt -2.995117 -1.263672
vt -2.995117 2.427734
vt -3.357422 2.427734
vt -3.361328 -1.266602
vt -3.807617 1.167969
vt -3.807617 -1.178711
vt -3.995117 1.964844
vt -3.807617 1.643555
vt -3.995117 1.643555
vt -3.995117 1.160156
vt -3.807617 1.160156
vt -3.995117 -1.178711
vt -3.807617 -1.178711
vt 4.235352 -3.171875
vt 4.992188 -3.258789
vt 4.235352 0.434570
vt 4.992188 0.434570
vt 4.235352 -3.171875
vt 4.235352 0.434570
vt -3.995117 2.801758
vt -3.807617 2.360352
vt -3.995117 2.360352
vt -3.995117 1.964844
vt -3.807617 1.964844
vt -3.807617 1.643555
vt -2.995117 2.427734
vt -3.357422 2.427734
vt -2.995117 -1.263672
vt -3.361328 -1.266602
vt -3.807617 1.167969
vt -3.807617 -1.178711
vt -3.807617 2.360352
vt -3.995117 1.964844
vt -3.807617 1.964844
vt -3.807617 1.643555
vt -3.995117 1.643555
vt -3.995117 1.160156
vt -3.995117 2.801758
vt -3.807617 2.360352
vt -3.995117 2.360352
vt -3.995117 1.964844
vt -3.807617 1.964844
vt -3.807617 1.643555
vt -3.807617 2.360352
vt -3.995117 1.964844
vt -3.807617 1.964844
vt -3.807617 1.643555
vt -3.995117 1.643555
vt -3.995117 1.160156
vt -3.995117 2.801758
vt -3.807617 2.360352
vt -3.995117 2.360352
vt -3.995117 1.964844
vt -3.807617 1.964844
vt -3.807617 1.643555
vt -2.995117 2.427734
vt -3.357422 2.427734
vt -2.995117 -1.263672
vt -3.361328 -1.266602
vt -3.807617 1.167969
vt -3.807617 -1.178711
vt -3.807617 2.360352
vt -3.995117 1.964844
vt -3.807617 1.964844
vt -3.807617 1.643555
vt -3.995117 1.643555
vt -3.995117 1.160156
vt -3.995117 1.964844
vt -3.807617 2.360352
vt -3.995117 2.360352
vt -3.995117 2.801758
vt -3.807617 2.801758
vt -3.807617 1.643555
vt -3.995117 1.160156
vt -3.807617 1.160156
vt -3.807617 -1.178711
vt -3.995117 -1.178711
vt -2.995117 -1.263672
vt -3.361328 -1.266602
vt -3.357422 2.427734
vt -3.807617 1.167969
vt -3.807617 -1.178711
vt -2.995117 -1.263672
vt -3.357422 2.427734
vt -3.361328 -1.266602
vt -3.807617 1.167969
vt -3.807617 2.430664
vt -3.995117 1.964844
vt -3.807617 2.360352
vt -3.995117 2.360352
vt -3.995117 2.801758
vt -3.807617 2.801758
vt -3.807617 1.643555
vt -3.995117 1.160156
vt -3.807617 1.160156
vt -3.807617 -1.178711
vt -3.995117 -1.178711
vt -2.995117 -1.263672
vt -3.361328 -1.266602
vt -3.357422 2.427734
vt -3.807617 1.167969
vt -3.807617 -1.178711
vt -3.995117 1.964844
vt -3.807617 2.360352
vt -3.995117 2.360352
vt -3.995117 2.801758
vt -3.807617 2.801758
vt -3.807617 1.643555
vt -3.995117 1.160156
vt -3.807617 1.160156
vt -3.807617 -1.178711
vt -3.995117 -1.178711
vt 4.000000 -3.171875
vt 4.000000 0.434570
vt 4.235352 -3.171875
vt 4.235352 0.434570
vt 4.992188 -3.258789
vt 4.235352 -3.171875
vt 4.992188 0.434570
vt 4.235352 0.434570
vt 4.235352 -3.171875
vt 4.235352 0.434570
vt 4.000000 -3.171875
vt 4.000000 0.434570
vt 4.235352 -3.171875
vt 4.000000 -3.171875
vt 4.235352 0.434570
vt 4.000000 0.434570
vt 4.992188 -3.258789
vt 4.992188 0.434570
vt 4.235352 -3.171875
vt 4.235352 0.434570
vt 4.235352 -3.171875
vt 4.235352 0.434570
vt 4.000000 -3.171875
vt 4.000000 0.434570
vt 4.235352 -3.171875
vt 4.000000 -3.171875
vt 4.235352 0.434570
vt 4.000000 0.434570
vt 4.992188 -3.258789
vt 4.235352 -3.171875
vt 4.992188 0.434570
vt 4.235352 0.434570
vt -3.995117 2.801758
vt -3.807617 2.801758
vt -3.807617 2.360352
vt -3.357422 2.427734
vt -3.807617 1.167969
vt -3.807617 2.430664
vt -3.807617 1.167969
vt -3.357422 2.427734
vt -3.807617 2.430664
vt -3.357422 2.427734
vt -2.995117 2.427734
vt -2.995117 -1.263672
vt -3.995117 2.801758
vt -3.807617 2.801758
vt -3.807617 2.360352
vt -3.357422 2.427734
vt -3.807617 1.167969
vt -3.807617 2.430664
vt -3.807617 -1.178711
vt -3.361328 -1.266602
vt -3.807617 1.167969
vt -3.357422 2.427734
vt -2.995117 2.427734
vt -2.995117 -1.263672
vt -3.995117 2.801758
vt -3.807617 2.801758
vt -3.807617 2.360352
vt -3.357422 2.427734
vt -3.807617 1.167969
vt -3.807617 2.430664
vt -3.807617 1.167969
vt -3.357422 2.427734
vt -3.807617 2.430664
vn 0.8336 -0.5524 0.0000
vn 0.8263 -0.5616 -0.0434
vn 0.9580 -0.2869 0.0000
vn 0.8595 -0.5078 -0.0582
vn 0.9579 -0.2869 -0.0084
vn 1.0000 0.0000 0.0000
vn 0.9603 -0.2786 -0.0132
vn 0.8032 -0.5784 -0.1429
vn 0.8245 -0.5465 0.1466
vn 0.9476 -0.2838 0.1466
vn 0.9576 -0.2511 -0.1412
vn 0.9973 -0.0447 0.0590
vn 0.9478 -0.2839 -0.1450
vn 0.9993 0.0000 0.0380
vn 0.9894 0.0068 -0.1448
vn 0.9894 -0.1448 -0.0068
vn 0.0000 0.0000 1.0000
vn 0.0004 0.0282 0.9996
vn -0.0000 -0.2377 0.9713
vn -0.0282 0.0004 0.9996
vn 0.9965 0.0443 0.0702
vn 0.9606 -0.0169 0.2775
vn 0.6925 0.0000 0.7215
vn 0.8566 -0.3520 0.3774
vn 0.0000 -0.5524 -0.8336
vn -0.1545 -0.5799 -0.7999
vn 0.1466 -0.5465 -0.8246
vn 0.1466 -0.2838 -0.9476
vn -0.1294 -0.2542 -0.9584
vn 0.0342 -0.1489 -0.9883
vn -0.0314 -0.4084 -0.9123
vn -0.1450 -0.2839 -0.9478
vn 0.1409 -0.3166 -0.9380
vn 0.1450 0.0000 -0.9894
vn -0.1448 0.0068 -0.9894
vn 0.0000 0.0000 -1.0000
vn -0.0068 -0.1448 -0.9894
vn 0.5578 0.0000 0.8300
vn 0.5185 -0.2055 0.8300
vn 0.3731 -0.0085 0.9278
vn 0.4201 0.3162 0.8506
vn 0.9533 -0.2544 0.1627
vn 0.9150 0.0000 0.4034
vn 0.9802 0.0090 0.1977
vn 0.8631 0.2010 0.4633
vn 0.4342 -0.9008 0.0000
vn 0.3984 -0.9083 -0.1277
vn 0.4310 -0.8942 0.1212
vn 0.6334 -0.7643 0.1212
vn 0.6573 -0.7462 -0.1055
vn 0.7309 -0.6815 0.0362
vn 0.5530 -0.8326 -0.0299
vn 0.6313 -0.7617 -0.1462
vn 0.6046 -0.7862 0.1278
vn 0.8458 -0.5109 0.1540
vn 0.8246 -0.5465 -0.1462
vn -0.0007 0.0000 1.0000
vn -0.0010 0.0282 0.9996
vn -0.0006 0.0000 1.0000
vn 0.0276 0.0004 0.9996
vn -0.0006 -0.0146 0.9999
vn -0.9965 0.0443 0.0704
vn -0.6926 0.0000 0.7213
vn -0.9982 -0.0230 0.0561
vn -0.6930 0.0000 0.7209
vn -0.6381 -0.7699 0.0000
vn -0.5963 -0.7878 0.1542
vn -0.6313 -0.7616 -0.1462
vn -0.8246 -0.5465 -0.1462
vn -0.8452 -0.5190 0.1276
vn -0.8978 -0.4391 -0.0349
vn -0.7558 -0.6539 0.0343
vn -0.8246 -0.5464 0.1466
vn -0.8067 -0.5765 -0.1300
vn -0.9566 -0.2474 -0.1542
vn -0.9476 -0.2838 0.1466
vn -0.9580 -0.2869 0.0000
vn 0.6334 -0.7642 0.1212
vn 0.8458 -0.5108 0.1541
vn -0.8246 -0.5465 0.1466
vn 0.0000 -0.9008 -0.4342
vn -0.1277 -0.9083 -0.3984
vn 0.1212 -0.8942 -0.4310
vn 0.1211 -0.7643 -0.6334
vn -0.1055 -0.7462 -0.6573
vn 0.0362 -0.6815 -0.7309
vn -0.0299 -0.8326 -0.5530
vn -0.1462 -0.7616 -0.6313
vn 0.1278 -0.7862 -0.6046
vn 0.1541 -0.5109 -0.8458
vn -0.1462 -0.5465 -0.8246
vn 1.0000 0.0000 0.0004
vn 0.9996 0.0282 0.0008
vn 0.9996 0.0004 -0.0278
vn 0.9713 -0.2377 0.0004
vn 0.0701 0.0444 0.9966
vn 0.7213 0.0000 0.6926
vn 0.2775 -0.0169 0.9606
vn 0.3763 -0.3521 0.8570
vn 0.7207 0.0000 0.6933
vn 0.7209 0.0000 0.6930
vn 0.0000 -0.7699 0.6381
vn 0.1542 -0.7878 0.5963
vn -0.1462 -0.7617 0.6313
vn -0.1462 -0.5465 0.8246
vn 0.1276 -0.5190 0.8452
vn -0.0349 -0.4391 0.8978
vn 0.0343 -0.6539 0.7558
vn 0.1466 -0.5465 0.8246
vn -0.1300 -0.5765 0.8067
vn -0.1542 -0.2474 0.9566
vn 0.1466 -0.2838 0.9476
vn 0.0000 -0.2869 0.9580
vn -0.6604 -0.7400 -0.1278
vn -0.6334 -0.7642 0.1212
vn -0.4310 -0.8942 0.1212
vn -0.4052 -0.9081 -0.1055
vn -0.4342 -0.9008 0.0000
vn -0.5266 -0.8496 -0.0293
vn -0.9355 -0.3188 0.1524
vn -0.9478 -0.2839 -0.1450
vn -0.9894 0.0000 -0.1450
vn -0.9911 0.0063 0.1330
vn -1.0000 0.0000 0.0000
vn -0.9911 -0.1330 0.0063
vn -0.0000 -0.2300 0.9732
vn 0.8573 -0.3568 0.3711
vn 0.6924 0.0000 0.7215
vn 0.6881 0.0091 0.7255
vn -0.0000 -0.0147 0.9999
vn -0.9982 -0.0230 0.0555
vn -0.6970 0.0004 0.7171
vn -0.6921 0.0058 0.7218
vn -0.6924 0.0000 0.7215
vn 1.0000 0.0000 -0.0001
vn 0.9714 -0.2376 -0.0001
vn 0.7987 0.0079 0.6017
vn 0.6344 0.0078 -0.7730
vn 0.2777 -0.0169 -0.9605
vn 0.7215 0.0000 -0.6924
vn 0.3774 -0.3520 -0.8566
vn -0.1278 -0.7400 0.6603
vn 0.1211 -0.7643 0.6334
vn 0.1212 -0.8942 0.4310
vn -0.1055 -0.9081 0.4052
vn 0.0000 -0.9008 0.4342
vn -0.0293 -0.8496 0.5266
vn 0.1524 -0.3188 0.9355
vn -0.1450 -0.2839 0.9478
vn -0.1450 0.0000 0.9894
vn 0.1330 0.0063 0.9911
vn 0.0063 -0.1330 0.9911
vn 0.9489 0.0017 -0.3154
vn 0.9673 0.0014 -0.2538
vn 0.9489 0.0028 -0.3154
vn 0.9000 0.0000 -0.4359
vn 0.9262 -0.0012 -0.3770
vn 0.9262 0.0000 -0.3770
vn 0.7647 0.0000 0.6444
vn -0.7025 0.0000 0.7117
vn -0.7024 0.0000 0.7117
vn 0.5785 0.0000 -0.8156
vn 0.9160 0.0000 0.4011
vn 0.9161 0.0000 0.4011
vn -0.0795 0.0000 0.9968
vn 0.9269 0.0000 -0.3752
vn 0.7215 0.0000 0.6924
usemtl Tex_0030_0.dds.012
s off
f 1/1/1 3/2/2 2/3/1
f 2/3/3 3/2/3 4/4/3
f 3/2/4 5/5/5 4/4/3
f 4/4/6 5/5/6 6/6/6
f 5/5/7 7/7/6 6/6/6
f 8/8/1 10/9/8 9/10/9
f 9/10/10 10/9/11 11/11/12
f 10/9/3 12/12/13 11/11/3
f 11/11/14 12/12/15 13/13/6
f 12/12/16 14/14/6 13/13/6
f 15/15/17 17/16/17 16/17/17
f 16/17/17 17/16/17 18/18/18
f 17/16/17 19/19/19 18/18/20
f 18/18/21 19/19/22 20/20/23
f 19/19/24 21/21/23 20/20/23
f 22/22/25 24/23/26 23/24/27
f 23/24/28 24/23/29 25/25/30
f 24/23/31 26/26/32 25/25/33
f 25/25/34 26/26/35 27/27/36
f 26/26/37 28/28/36 27/27/36
f 29/29/38 31/30/39 30/31/38
f 30/31/38 31/30/40 32/32/41
f 31/30/42 33/33/43 32/32/44
f 32/32/45 33/33/43 34/34/43
f 35/35/46 37/36/47 36/37/48
f 36/37/49 37/36/50 38/38/51
f 37/36/52 39/39/53 38/38/54
f 38/38/55 39/39/56 40/40/1
f 41/41/57 43/42/58 42/43/57
f 42/43/59 43/42/60 44/44/61
f 43/42/62 45/45/63 44/44/64
f 44/44/65 45/45/65 46/46/65
f 47/47/66 49/48/67 48/49/68
f 48/49/69 49/48/70 50/50/71
f 49/48/72 51/51/73 50/50/74
f 50/50/75 51/51/76 52/52/77
f 53/53/46 55/54/47 54/55/48
f 54/55/78 55/54/50 56/56/51
f 55/54/52 57/57/53 56/56/54
f 56/56/79 57/57/56 58/58/1
f 59/59/66 61/60/67 60/61/68
f 60/61/69 61/60/70 62/62/71
f 61/60/72 63/63/80 62/62/74
f 62/62/75 63/63/76 64/64/77
f 65/65/81 67/66/82 66/67/83
f 66/67/84 67/66/85 68/68/86
f 67/66/87 69/69/88 68/68/89
f 68/68/90 69/69/91 70/70/25
f 71/71/92 73/72/93 72/73/92
f 72/73/92 73/72/94 74/74/95
f 73/72/96 75/75/97 74/74/98
f 74/74/99 75/75/100 76/76/101
f 77/77/102 79/78/103 78/79/104
f 78/79/105 79/78/106 80/80/107
f 79/78/108 81/81/109 80/80/110
f 80/80/111 81/81/112 82/82/113
f 83/83/66 85/84/114 84/85/115
f 84/85/116 85/84/117 86/86/118
f 85/84/119 87/87/118 86/86/118
f 88/88/77 90/89/120 89/90/121
f 89/90/122 90/89/123 91/91/124
f 90/89/125 92/92/124 91/91/124
f 93/93/17 95/94/126 94/95/17
f 94/95/23 95/94/23 96/96/23
f 95/94/127 97/97/128 96/96/128
f 98/98/17 100/99/129 99/100/130
f 99/100/131 100/99/132 101/101/63
f 100/99/133 102/102/134 101/101/134
f 103/103/66 105/104/114 104/105/115
f 104/105/116 105/104/117 106/106/118
f 105/104/119 107/107/118 106/106/118
f 108/108/77 110/109/120 109/110/121
f 109/110/122 110/109/123 111/111/124
f 110/109/125 112/112/124 111/111/124
f 113/113/135 115/114/136 114/115/137
f 114/115/138 115/114/139 116/116/140
f 115/114/141 117/117/140 116/116/140
f 118/118/102 120/119/142 119/120/143
f 119/120/144 120/119/145 121/121/146
f 120/119/147 122/122/146 121/121/146
f 123/123/113 125/124/148 124/125/149
f 124/125/150 125/124/151 126/126/17
f 125/124/152 127/127/17 126/126/17
f 128/128/153 130/129/154 129/130/155
f 129/130/156 130/129/157 131/131/158
f 132/132/159 134/133/159 133/134/159
f 133/134/159 134/133/159 135/135/159
f 136/136/160 138/137/160 137/138/160
f 137/138/161 138/137/161 139/139/161
f 140/140/162 142/141/162 141/142/162
f 141/142/162 142/141/162 143/143/162
f 144/144/163 146/145/163 145/146/163
f 145/146/164 146/145/164 147/147/164
f 148/148/165 150/149/165 149/150/165
f 149/150/165 150/149/165 151/151/165
f 152/152/36 154/153/36 153/154/36
f 153/154/36 154/153/36 155/155/36
f 156/156/166 158/157/166 157/158/166
f 157/158/166 158/157/166 159/159/166
f 160/160/46 162/161/46 161/162/46
f 163/163/23 165/164/23 164/165/23
f 166/166/134 168/167/134 167/168/134
f 169/169/17 171/170/17 170/171/17
f 172/172/46 174/173/46 173/174/46
f 175/175/128 177/176/128 176/177/128
f 178/178/65 180/179/65 179/180/65
f 181/181/135 183/182/135 182/183/135
f 184/184/81 186/185/81 185/186/81
f 187/187/140 189/188/140 188/189/140
f 190/190/167 192/191/167 191/192/167
