# Blender v3.6.3 OBJ File: 'untitled.blend'
# www.blender.org
mtllib Mesh_0131.mtl
o Mesh_0131_Mesh.129
v 69.135445 38.447308 -10.420628
v 69.135445 37.987797 -10.659744
v 69.135422 37.861588 -11.890064
v 69.135445 37.368187 -10.798580
v 69.135422 33.019989 -13.790188
v 69.135445 30.957100 -10.798584
v 69.135422 26.799780 -14.954296
v 69.135445 25.064018 -10.798584
v 69.135445 22.859989 -8.921799
v 69.135452 25.064020 -7.045013
v 69.135475 26.799780 -2.889297
v 69.135475 30.957100 -7.045021
v 69.135475 33.019989 -4.053429
v 69.135475 37.368187 -7.045021
v 69.135475 37.861534 -5.953529
v 69.135475 37.987797 -7.183838
v 69.135475 38.447308 -7.422981
v 69.135422 38.447308 -23.120628
v 69.135422 37.987793 -23.359745
v 69.135422 37.861588 -24.590065
v 69.135422 37.368187 -23.498577
v 69.135422 33.019989 -26.490189
v 69.135422 30.957100 -23.498581
v 69.135422 26.799780 -27.654297
v 69.135422 25.064018 -23.498581
v 69.135422 22.859987 -21.621796
v 69.135422 25.064016 -19.745014
v 69.135422 26.799780 -15.589298
v 69.135422 30.957100 -19.745018
v 69.135422 33.019989 -16.753429
v 69.135422 37.368187 -19.745014
v 69.135422 37.861588 -18.653522
v 69.135422 37.987793 -19.883839
v 69.135422 38.447308 -20.122978
v 69.135475 38.447308 2.279373
v 69.135475 37.987797 2.040253
v 69.135475 37.861534 0.809959
v 69.135475 37.368187 1.901421
v 69.135475 33.019989 -1.090218
v 69.135475 30.957100 1.901421
v 69.135475 26.799780 -2.254295
v 69.135475 25.064020 1.901428
v 69.135445 22.859989 3.778198
v 69.135452 25.064020 5.654991
v 69.135422 26.799780 9.810699
v 69.135445 30.957100 5.654984
v 69.135422 33.019989 8.646568
v 69.135445 37.368187 5.654984
v 69.135422 37.861588 6.746468
v 69.135445 37.987797 5.516159
v 69.135445 38.447308 5.277023
v 69.135422 38.447304 14.979370
v 69.135422 37.987789 14.740250
v 69.135422 37.861588 13.509933
v 69.135422 37.368183 14.601418
v 69.135422 33.019989 11.609810
v 69.135422 30.957100 14.601418
v 69.135422 26.799780 10.445702
v 69.135422 25.064018 14.601425
v 69.135422 22.859987 16.478203
v 69.135422 25.064016 18.354988
v 69.135422 26.799780 22.510696
v 69.135422 30.957100 18.354980
v 69.135422 33.019989 21.346573
v 69.135422 37.368187 18.354980
v 69.135422 37.861588 19.446465
v 69.135422 37.987793 18.216156
v 69.135422 38.447308 17.977020
v 31.035414 28.121115 -27.971798
v 30.141386 33.019989 -27.971798
v 31.929445 33.019989 -27.971798
v 28.180681 38.242405 -27.971798
v 33.890152 38.242405 -27.971798
v 26.177774 41.534576 -27.971798
v 35.893066 41.534576 -27.971798
v 24.685415 43.179989 -27.971798
v 37.385422 43.179989 -27.971798
v 24.685415 50.799988 -27.971798
v 37.385422 50.799988 -27.971798
v 56.435417 28.121115 -27.971798
v 55.541389 33.019989 -27.971798
v 57.329445 33.019989 -27.971798
v 53.580681 38.242405 -27.971798
v 59.290146 38.242405 -27.971798
v 51.577774 41.534576 -27.971798
v 61.293068 41.534576 -27.971798
v 50.085419 43.179989 -27.971798
v 62.785416 43.179989 -27.971798
v 50.085419 50.799988 -27.971798
v 62.785416 50.799988 -27.971798
v 5.635408 28.121115 -27.971798
v 4.741381 33.019989 -27.971798
v 6.529436 33.019989 -27.971798
v 2.780676 38.242405 -27.971798
v 8.490137 38.242405 -27.971798
v 0.777763 41.534576 -27.971798
v 10.493055 41.534576 -27.971798
v -0.714588 43.179989 -27.971798
v 11.985411 43.179989 -27.971798
v -0.714590 50.799988 -27.971798
v 11.985407 50.799988 -27.971798
v 5.635412 28.121115 22.828201
v 6.529444 33.019989 22.828201
v 4.741385 33.019989 22.828201
v 8.490145 38.242405 22.828201
v 2.780684 38.242405 22.828201
v 10.493059 41.534576 22.828201
v 0.777767 41.534576 22.828201
v 11.985411 43.179989 22.828201
v -0.714584 43.179989 22.828201
v 11.985411 50.799988 22.828201
v -0.714584 50.799988 22.828201
v 31.035414 28.121115 22.828201
v 31.929438 33.019989 22.828201
v 30.141378 33.019989 22.828201
v 33.890144 38.242405 22.828201
v 28.180681 38.242405 22.828201
v 35.893066 41.534576 22.828201
v 26.177763 41.534576 22.828201
v 37.385422 43.179989 22.828201
v 24.685415 43.179989 22.828201
v 37.385422 50.799988 22.828201
v 24.685415 50.799988 22.828201
v 56.435417 28.121115 22.828201
v 57.329437 33.019989 22.828201
v 55.541382 33.019989 22.828201
v 59.290138 38.242405 22.828201
v 53.580681 38.242405 22.828201
v 61.293060 41.534576 22.828201
v 51.577766 41.534576 22.828201
v 62.785416 43.179989 22.828201
v 50.085419 43.179989 22.828201
v 62.785416 50.799988 22.828201
v 50.085419 50.799988 22.828201
v 69.135422 28.121115 -15.271797
v 69.135422 33.019989 -16.165825
v 69.135422 33.019989 -14.377769
v 69.135422 38.242405 -18.126530
v 69.135422 38.242405 -12.417065
v 69.135422 41.534576 -20.129440
v 69.135422 41.534576 -10.414146
v 69.135422 43.179989 -21.621796
v 69.135445 43.179985 -8.921799
v 69.135445 50.799988 -21.621796
v 69.135445 50.799984 -8.921799
v 69.135422 28.121115 10.128204
v 69.135422 33.019989 9.234169
v 69.135422 33.019989 11.022232
v 69.135422 38.242405 7.273460
v 69.135422 38.242405 12.982941
v 69.135422 41.534576 5.270554
v 69.135422 41.534573 14.985855
v 69.135445 43.179989 3.778198
v 69.135422 43.179985 16.478203
v 69.135445 50.799988 3.778198
v 69.135445 50.799984 16.478203
v 69.135475 28.121088 -2.571800
v 69.135475 33.019989 -3.465828
v 69.135475 33.019989 -1.677719
v 69.135475 38.242485 -5.426529
v 69.135475 38.242485 0.282906
v 69.135475 41.534576 -7.429447
v 69.135475 41.534576 2.285950
v 69.135445 43.179985 -8.921799
v 69.135445 43.179989 3.778198
v 25.761858 41.107628 -27.971798
v 27.653688 37.861588 -27.971794
v 24.685415 33.019989 -27.971798
v 29.553782 33.019989 -27.971798
v 24.685415 22.859987 -27.971798
v 30.717916 26.799780 -27.971798
v 31.035414 22.859985 -27.971798
v 31.035414 22.859985 -27.971798
v 31.352915 26.799780 -27.971798
v 37.385422 22.859987 -27.971798
v 32.517021 33.019989 -27.971798
v 37.385422 33.019989 -27.971798
v 34.417145 37.861588 -27.971794
v 36.308968 41.107628 -27.971798
v 24.685415 43.179989 -27.971798
v 24.685415 42.326866 -27.971798
v 18.335413 43.179989 -27.971798
v 24.685415 33.019989 -27.971798
v 18.335413 33.019989 -27.971798
v 24.685415 22.859987 -27.971798
v 18.335413 22.859987 -27.971798
v 43.735420 22.859987 -27.971798
v 37.385422 22.859987 -27.971798
v 43.735420 33.019989 -27.971798
v 37.385422 33.019989 -27.971798
v 43.735420 43.179989 -27.971798
v 37.385422 42.326992 -27.971798
v 37.385422 43.179989 -27.971798
v 51.161858 41.107628 -27.971798
v 53.053688 37.861588 -27.971794
v 50.085419 33.019989 -27.971798
v 54.953781 33.019989 -27.971798
v 50.085419 22.859987 -27.971798
v 56.117920 26.799780 -27.971798
v 56.435417 22.859985 -27.971798
v 56.435417 22.859985 -27.971798
v 56.752922 26.799780 -27.971798
v 62.785416 22.859987 -27.971798
v 57.917023 33.019989 -27.971798
v 62.785416 33.019989 -27.971798
v 59.817146 37.861588 -27.971794
v 61.708969 41.107628 -27.971798
v 50.085419 43.179989 -27.971798
v 50.085419 42.326866 -27.971798
v 43.735420 43.179989 -27.971798
v 50.085419 33.019989 -27.971798
v 43.735420 33.019989 -27.971798
v 50.085419 22.859987 -27.971798
v 43.735420 22.859987 -27.971798
v 69.135422 22.859987 -27.971798
v 62.785416 22.859987 -27.971798
v 69.135422 33.019989 -27.971798
v 62.785416 33.019989 -27.971798
v 69.135422 43.179989 -27.971798
v 62.785416 42.326992 -27.971798
v 62.785416 43.179989 -27.971798
v 0.361851 41.107628 -27.971798
v 2.253675 37.861588 -27.971794
v -0.714588 33.019989 -27.971798
v 4.153776 33.019989 -27.971798
v -0.714588 22.859987 -27.971798
v 5.317907 26.799780 -27.971798
v 5.635408 22.859985 -27.971798
v 5.635408 22.859985 -27.971798
v 5.952909 26.799780 -27.971798
v 11.985411 22.859987 -27.971798
v 7.117014 33.019989 -27.971798
v 11.985411 33.019989 -27.971798
v 9.017141 37.861588 -27.971794
v 10.908957 41.107628 -27.971798
v -0.714588 43.179989 -27.971798
v -0.714588 42.326866 -27.971798
v -7.064585 43.179989 -27.971798
v -0.714588 33.019989 -27.971798
v -7.064585 33.019989 -27.971798
v -0.714588 22.859987 -27.971798
v -7.064585 22.859987 -27.971798
v 18.335413 22.859987 -27.971798
v 11.985411 22.859987 -27.971798
v 18.335413 33.019989 -27.971798
v 11.985411 33.019989 -27.971798
v 18.335413 43.179989 -27.971798
v 11.985411 42.326992 -27.971798
v 11.985411 43.179989 -27.971798
v 10.908972 41.107628 22.828201
v 9.017145 37.861588 22.828201
v 11.985411 33.019989 22.828201
v 7.117044 33.019989 22.828201
v 11.985411 22.859987 22.828201
v 5.952913 26.799780 22.828201
v 5.635412 22.859985 22.828201
v 5.635412 22.859985 22.828201
v 5.317911 26.799780 22.828201
v -0.714584 22.859987 22.828201
v 4.153807 33.019989 22.828201
v -0.714584 33.019989 22.828201
v 2.253683 37.861588 22.828201
v 0.361868 41.107628 22.828201
v 11.985411 43.179989 22.828201
v 11.985411 42.326866 22.828201
v 18.335413 43.179989 22.828201
v 11.985411 33.019989 22.828201
v 18.335413 33.019989 22.828201
v 11.985411 22.859987 22.828201
v 18.335413 22.859987 22.828201
v -7.064585 22.859987 22.828201
v -0.714584 22.859987 22.828201
v -7.064585 33.019989 22.828201
v -0.714584 33.019989 22.828201
v -7.064585 43.179989 22.828201
v -0.714584 42.326992 22.828201
v -0.714584 43.179989 22.828201
v 37.385422 43.179989 22.828201
v 37.385422 42.326866 22.828201
v 43.735420 43.179989 22.828201
v 37.385422 33.019989 22.828201
v 43.735420 33.019989 22.828201
v 37.385422 22.859987 22.828201
v 43.735420 22.859987 22.828201
v 18.335413 22.859987 22.828201
v 24.685415 22.859987 22.828201
v 18.335413 33.019989 22.828201
v 24.685415 33.019989 22.828201
v 18.335413 43.179989 22.828201
v 24.685415 42.326992 22.828201
v 24.685415 43.179989 22.828201
v 36.308968 41.107628 22.828201
v 34.417145 37.861588 22.828201
v 37.385422 33.019989 22.828201
v 32.517052 33.019989 22.828201
v 37.385422 22.859987 22.828201
v 31.352915 26.799780 22.828201
v 31.035414 22.859985 22.828201
v 31.035414 22.859985 22.828201
v 30.717916 26.799780 22.828201
v 24.685415 22.859987 22.828201
v 29.553804 33.019989 22.828201
v 24.685415 33.019989 22.828201
v 27.653681 37.861588 22.828201
v 25.761862 41.107628 22.828201
v 62.785416 43.179989 22.828201
v 62.785416 42.326866 22.828201
v 69.135422 43.179989 22.828201
v 62.785416 33.019989 22.828201
v 69.135422 33.019989 22.828201
v 62.785416 22.859987 22.828201
v 69.135422 22.859987 22.828201
v 43.735420 22.859987 22.828201
v 50.085419 22.859987 22.828201
v 43.735420 33.019989 22.828201
v 50.085419 33.019989 22.828201
v 43.735420 43.179989 22.828201
v 50.085419 42.326992 22.828201
v 50.085419 43.179989 22.828201
v 61.708977 41.107628 22.828201
v 59.817139 37.861588 22.828201
v 62.785416 33.019989 22.828201
v 57.917046 33.019989 22.828201
v 62.785416 22.859987 22.828201
v 56.752922 26.799780 22.828201
v 56.435417 22.859985 22.828201
v 56.435417 22.859985 22.828201
v 56.117920 26.799780 22.828201
v 50.085419 22.859987 22.828201
v 54.953804 33.019989 22.828201
v 50.085419 33.019989 22.828201
v 53.053680 37.861588 22.828201
v 51.161865 41.107628 22.828201
v 69.135483 45.408485 -6.624840
v 69.135498 44.230610 -4.739792
v 69.135445 43.179985 -8.921799
v 69.135483 43.730560 -2.572861
v 69.135445 43.179989 3.778198
v 69.135498 44.230610 -0.405304
v 69.135475 45.408485 1.480469
v 69.135475 53.514999 1.482376
v 69.135498 54.693810 -0.404289
v 69.135475 63.499989 3.778198
v 69.135498 55.194698 -2.572838
v 69.135475 63.499985 -8.921791
v 69.135498 54.693810 -4.740784
v 69.135483 53.514999 -6.626740
v 69.135422 41.107624 -9.998245
v 69.135445 42.326965 -8.921799
v 69.135452 39.745193 -8.921799
v 69.135475 41.107601 -7.845348
v 69.135475 39.067219 -8.016350
v 69.135475 38.447308 -7.422981
v 69.135422 38.447308 -20.122978
v 69.135422 39.067223 -20.716351
v 69.135422 41.107628 -20.545353
v 69.135422 39.745197 -21.621796
v 69.135422 42.326931 -21.621796
v 69.135422 41.107628 -22.698250
v 69.135475 41.107601 2.701752
v 69.135445 42.326969 3.778198
v 69.135452 39.745197 3.778198
v 69.135422 41.107628 4.854645
v 69.135445 39.067223 4.683647
v 69.135445 38.447308 5.277023
v 69.135422 41.107624 15.401749
v 69.135422 42.326927 16.478203
v 69.135422 39.745190 16.478203
v 69.135422 41.107628 17.554642
v 69.135422 39.067223 17.383644
v 69.135422 38.447308 17.977020
v 69.135483 53.514999 -6.626740
v 69.135498 51.628536 -7.804688
v 69.135475 63.499985 -8.921791
v 69.135483 49.461914 -8.304680
v 69.135445 50.799984 -8.921799
v 69.135475 45.408485 1.480469
v 69.135483 47.294537 2.659309
v 69.135445 43.179989 3.778198
v 69.135483 49.461918 3.160324
v 69.135445 50.799988 3.778198
v 69.135445 50.799984 -8.921799
v 69.135483 49.461914 -8.304680
v 69.135445 43.179985 -8.921799
v 69.135483 47.294537 -7.803665
v 69.135483 45.408485 -6.624840
v 69.135445 50.799988 3.778198
v 69.135483 49.461918 3.160324
v 69.135475 63.499989 3.778198
v 69.135498 51.628536 2.660324
v 69.135475 53.514999 1.482376
v 69.135452 39.745193 -8.921799
v 69.135445 39.067219 -9.827232
v 69.135422 41.107624 -9.998245
v 69.135445 38.447308 -10.420628
v 69.135422 37.861588 -11.890064
v 69.135422 39.745197 -21.621796
v 69.135422 39.067223 -22.527233
v 69.135422 41.107628 -22.698250
v 69.135422 38.447308 -23.120628
v 69.135422 37.861588 -24.590065
v 69.135452 39.745197 3.778198
v 69.135475 39.067223 2.872772
v 69.135475 41.107601 2.701752
v 69.135475 38.447308 2.279373
v 69.135475 37.861534 0.809959
v 69.135422 39.745190 16.478203
v 69.135422 39.067219 15.572769
v 69.135422 41.107624 15.401749
v 69.135422 38.447304 14.979370
v 69.135422 37.861588 13.509933
v 69.135445 50.799988 -21.621796
v 69.135475 63.499989 -21.621796
v 69.135445 50.799984 -8.921799
v 69.135475 63.499985 -8.921791
v 69.135445 50.799988 3.778198
v 69.135475 63.499989 3.778198
v 69.135445 50.799984 16.478203
v 69.135475 63.499985 16.478203
v 69.135422 25.686827 17.828758
v 69.135422 25.686827 15.127632
v 69.135422 27.211052 17.828758
v 69.135422 27.222559 15.127632
v 69.135475 25.686829 5.128761
v 69.135475 25.686829 2.427628
v 69.135475 27.211056 5.128761
v 69.135475 27.222561 2.427628
v 69.135475 25.686829 -7.571239
v 69.135475 25.686829 -10.272373
v 69.135475 27.211056 -7.571239
v 69.135475 27.222561 -10.272373
v 69.135422 25.686827 -20.271240
v 69.135422 25.686827 -22.972370
v 69.135422 27.211056 -20.271240
v 69.135422 27.222561 -22.972370
v 25.761858 41.107628 -27.971798
v 24.685415 33.019989 -27.971798
v 24.685415 42.326866 -27.971798
v 37.385422 33.019989 -27.971798
v 36.308968 41.107628 -27.971798
v 37.385422 42.326992 -27.971798
v 51.161858 41.107628 -27.971798
v 50.085419 33.019989 -27.971798
v 50.085419 42.326866 -27.971798
v 62.785416 33.019989 -27.971798
v 61.708969 41.107628 -27.971798
v 62.785416 42.326992 -27.971798
v 0.361851 41.107628 -27.971798
v -0.714588 33.019989 -27.971798
v -0.714588 42.326866 -27.971798
v 11.985411 33.019989 -27.971798
v 10.908957 41.107628 -27.971798
v 11.985411 42.326992 -27.971798
v 10.908972 41.107628 22.828201
v 11.985411 33.019989 22.828201
v 11.985411 42.326866 22.828201
v -0.714584 33.019989 22.828201
v 0.361868 41.107628 22.828201
v -0.714584 42.326992 22.828201
v 36.308968 41.107628 22.828201
v 37.385422 33.019989 22.828201
v 37.385422 42.326866 22.828201
v 24.685415 33.019989 22.828201
v 25.761862 41.107628 22.828201
v 24.685415 42.326992 22.828201
v 61.708977 41.107628 22.828201
v 62.785416 33.019989 22.828201
v 62.785416 42.326866 22.828201
v 50.085419 33.019989 22.828201
v 51.161865 41.107628 22.828201
v 50.085419 42.326992 22.828201
v 69.135422 26.799780 -14.954296
v 69.135445 22.859989 -8.921799
v 69.135422 22.859985 -15.271797
v 69.135422 26.799780 -15.589298
v 69.135422 22.859985 -15.271797
v 69.135422 22.859987 -21.621796
v 69.135422 38.447308 -20.122978
v 69.135422 41.107628 -20.545353
v 69.135422 37.861588 -18.653522
v 69.135422 26.799780 -27.654297
v 69.135422 22.859987 -21.621796
v 69.135422 22.859987 -27.971798
v 69.135475 26.799780 -2.254295
v 69.135445 22.859989 3.778198
v 69.135223 25.244261 -2.254288
v 69.135475 26.799780 -2.889297
v 69.135223 25.244261 -2.889290
v 69.135445 22.859989 -8.921799
v 69.135475 38.447308 -7.422981
v 69.135475 41.107601 -7.845348
v 69.135475 37.861534 -5.953529
v 69.135422 26.799780 10.445702
v 69.135422 22.859987 16.478203
v 69.135422 22.859985 10.128197
v 69.135422 26.799780 9.810699
v 69.135422 22.859985 10.128197
v 69.135445 22.859989 3.778198
v 69.135445 38.447308 5.277023
v 69.135422 41.107628 4.854645
v 69.135422 37.861588 6.746468
v 69.135422 26.799780 22.510696
v 69.135422 22.859987 22.828201
v 69.135422 22.859987 16.478203
v 69.135422 38.447308 17.977020
v 69.135422 41.107628 17.554642
v 69.135422 37.861588 19.446465
vt 0.734375 -3.939453
vt 0.965820 -4.053711
vt 0.772461 -4.029297
vt 0.793945 -4.150391
vt 1.264648 -5.001953
vt 0.793945 -5.406250
vt 1.448242 -6.219727
vt 0.793945 -6.559570
vt 0.499023 -6.992188
vt 0.204102 -6.559570
vt -0.449219 -6.219727
vt 0.204102 -5.406250
vt -0.265625 -5.001953
vt 0.204102 -4.150391
vt 0.032227 -4.053711
vt 0.225586 -4.029297
vt 0.263672 -3.939453
vt 0.734375 -3.939453
vt 0.965820 -4.053711
vt 0.772461 -4.029297
vt 0.793945 -4.150391
vt 1.264648 -5.001953
vt 0.793945 -5.406250
vt 1.448242 -6.219727
vt 0.793945 -6.559570
vt 0.499023 -6.992188
vt 0.204102 -6.559570
vt -0.449219 -6.219727
vt 0.204102 -5.406250
vt -0.265625 -5.001953
vt 0.204102 -4.150391
vt 0.032227 -4.053711
vt 0.225586 -4.029297
vt 0.263672 -3.939453
vt 0.734375 -3.939453
vt 0.965820 -4.053711
vt 0.772461 -4.029297
vt 0.793945 -4.150391
vt 1.264648 -5.001953
vt 0.793945 -5.406250
vt 1.448242 -6.219727
vt 0.793945 -6.559570
vt 0.499023 -6.992188
vt 0.204102 -6.559570
vt -0.449219 -6.219727
vt 0.204102 -5.406250
vt -0.265625 -5.001953
vt 0.204102 -4.150391
vt 0.032227 -4.053711
vt 0.225586 -4.029297
vt 0.263672 -3.939453
vt 0.734375 -3.939453
vt 0.965820 -4.053711
vt 0.772461 -4.029297
vt 0.793945 -4.150391
vt 1.264648 -5.001953
vt 0.793945 -5.406250
vt 1.448242 -6.219727
vt 0.793945 -6.559570
vt 0.499023 -6.992188
vt 0.204102 -6.559570
vt -0.449219 -6.219727
vt 0.204102 -5.406250
vt -0.265625 -5.001953
vt 0.204102 -4.150391
vt 0.032227 -4.053711
vt 0.225586 -4.029297
vt 0.263672 -3.939453
vt -1.998047 -0.961914
vt -1.854492 0.041016
vt -2.146484 0.041016
vt -2.447266 1.027344
vt -1.553711 1.027344
vt -2.762695 1.674805
vt -1.238281 1.674805
vt -2.997070 1.999023
vt -0.999023 1.999023
vt -2.997070 3.592773
vt -0.999023 3.592773
vt -1.998047 -0.961914
vt -1.854492 0.041016
vt -2.146484 0.041016
vt -2.447266 1.027344
vt -1.553711 1.027344
vt -2.762695 1.674805
vt -1.238281 1.674805
vt -2.997070 1.999023
vt -0.999023 1.999023
vt -2.997070 3.592773
vt -0.999023 3.592773
vt -1.998047 -0.961914
vt -1.854492 0.041016
vt -2.146484 0.041016
vt -2.447266 1.027344
vt -1.553711 1.027344
vt -2.762695 1.674805
vt -1.238281 1.674805
vt -2.997070 1.999023
vt -0.999023 1.999023
vt -2.997070 3.592773
vt -0.999023 3.592773
vt -1.998047 -0.961914
vt -1.854492 0.041016
vt -2.146484 0.041016
vt -2.447266 1.027344
vt -1.553711 1.027344
vt -2.762695 1.674805
vt -1.238281 1.674805
vt -2.997070 1.999023
vt -0.999023 1.999023
vt -2.997070 3.592773
vt -0.999023 3.592773
vt -1.998047 -0.961914
vt -1.854492 0.041016
vt -2.146484 0.041016
vt -2.447266 1.027344
vt -1.553711 1.027344
vt -2.762695 1.674805
vt -1.238281 1.674805
vt -2.997070 1.999023
vt -0.999023 1.999023
vt -2.997070 3.592773
vt -0.999023 3.592773
vt -1.998047 -0.961914
vt -1.854492 0.041016
vt -2.146484 0.041016
vt -2.447266 1.027344
vt -1.553711 1.027344
vt -2.762695 1.674805
vt -1.238281 1.674805
vt -2.997070 1.999023
vt -0.999023 1.999023
vt -2.997070 3.592773
vt -0.999023 3.592773
vt -1.998047 -0.961914
vt -1.854492 0.041016
vt -2.146484 0.041016
vt -2.447266 1.027344
vt -1.553711 1.027344
vt -2.762695 1.674805
vt -1.238281 1.674805
vt -2.997070 1.999023
vt -0.999023 1.999023
vt -2.997070 3.592773
vt -0.999023 3.592773
vt -1.998047 -0.961914
vt -1.854492 0.041016
vt -2.146484 0.041016
vt -2.447266 1.027344
vt -1.553711 1.027344
vt -2.762695 1.674805
vt -1.238281 1.674805
vt -2.997070 1.999023
vt -0.999023 1.999023
vt -2.997070 3.592773
vt -0.999023 3.592773
vt -1.998047 -1.011719
vt -1.854492 0.041016
vt -2.146484 0.041016
vt -2.447266 1.027344
vt -1.553711 1.027344
vt -2.762695 1.674805
vt -1.238281 1.674805
vt -2.997070 1.999023
vt -0.999023 1.999023
vt -2.828125 1.590820
vt -2.997070 0.001953
vt -2.530273 0.953125
vt -2.231445 0.000977
vt -2.997070 -1.997070
vt -2.047852 -1.221680
vt -1.998047 -1.997070
vt -1.998047 -1.997070
vt -0.999023 -1.997070
vt -1.938477 -1.221680
vt -1.754883 0.000977
vt -0.999023 0.001953
vt -1.456055 0.953125
vt -1.158203 1.590820
vt 0.999023 1.999023
vt 0.000000 1.999023
vt 0.999023 1.831055
vt 0.999023 0.000977
vt 0.000000 0.000977
vt 0.999023 -1.997070
vt 0.000000 -1.997070
vt 0.999023 -1.997070
vt 0.999023 0.000977
vt 0.000000 -1.997070
vt 0.000000 0.000977
vt 0.999023 1.999023
vt 0.000000 1.831055
vt 0.000000 1.999023
vt -2.828125 1.590820
vt -2.997070 0.001953
vt -2.530273 0.953125
vt -2.231445 0.000977
vt -2.997070 -1.997070
vt -2.047852 -1.221680
vt -1.998047 -1.997070
vt -1.998047 -1.997070
vt -0.999023 -1.997070
vt -1.938477 -1.221680
vt -1.754883 0.000977
vt -0.999023 0.001953
vt -1.456055 0.953125
vt -1.158203 1.590820
vt 0.999023 1.999023
vt 0.000000 1.999023
vt 0.999023 1.831055
vt 0.999023 0.000977
vt 0.000000 0.000977
vt 0.999023 -1.997070
vt 0.000000 -1.997070
vt 0.999023 -1.997070
vt 0.999023 0.000977
vt 0.000000 -1.997070
vt 0.000000 0.000977
vt 0.999023 1.999023
vt 0.000000 1.831055
vt 0.000000 1.999023
vt -2.828125 1.590820
vt -2.997070 0.001953
vt -2.530273 0.953125
vt -2.231445 0.000977
vt -2.997070 -1.997070
vt -2.047852 -1.221680
vt -1.998047 -1.997070
vt -1.998047 -1.997070
vt -0.999023 -1.997070
vt -1.938477 -1.221680
vt -1.754883 0.000977
vt -0.999023 0.001953
vt -1.456055 0.953125
vt -1.158203 1.590820
vt 0.999023 1.999023
vt 0.000000 1.999023
vt 0.999023 1.831055
vt 0.999023 0.000977
vt 0.000000 0.000977
vt 0.999023 -1.997070
vt 0.000000 -1.997070
vt 0.999023 -1.997070
vt 0.999023 0.000977
vt 0.000000 -1.997070
vt 0.000000 0.000977
vt 0.999023 1.999023
vt 0.000000 1.831055
vt 0.000000 1.999023
vt -2.828125 1.590820
vt -2.997070 0.001953
vt -2.530273 0.953125
vt -2.231445 0.000977
vt -2.997070 -1.997070
vt -2.047852 -1.221680
vt -1.998047 -1.997070
vt -1.998047 -1.997070
vt -0.999023 -1.997070
vt -1.938477 -1.221680
vt -1.754883 0.000977
vt -0.999023 0.001953
vt -1.456055 0.953125
vt -1.158203 1.590820
vt 0.999023 1.999023
vt 0.000000 1.999023
vt 0.999023 1.831055
vt 0.999023 0.000977
vt 0.000000 0.000977
vt 0.999023 -1.997070
vt 0.000000 -1.997070
vt 0.999023 -1.997070
vt 0.999023 0.000977
vt 0.000000 -1.997070
vt 0.000000 0.000977
vt 0.999023 1.999023
vt 0.000000 1.831055
vt 0.000000 1.999023
vt 0.999023 1.999023
vt 0.000000 1.999023
vt 0.999023 1.831055
vt 0.999023 0.000977
vt 0.000000 0.000977
vt 0.999023 -1.997070
vt 0.000000 -1.997070
vt 0.999023 -1.997070
vt 0.999023 0.000977
vt 0.000000 -1.997070
vt 0.000000 0.000977
vt 0.999023 1.999023
vt 0.000000 1.831055
vt 0.000000 1.999023
vt -2.828125 1.590820
vt -2.997070 0.001953
vt -2.530273 0.953125
vt -2.231445 0.000977
vt -2.997070 -1.997070
vt -2.047852 -1.221680
vt -1.998047 -1.997070
vt -1.998047 -1.997070
vt -0.999023 -1.997070
vt -1.938477 -1.221680
vt -1.754883 0.000977
vt -0.999023 0.001953
vt -1.456055 0.953125
vt -1.158203 1.590820
vt 0.999023 1.999023
vt 0.000000 1.999023
vt 0.999023 1.831055
vt 0.999023 0.000977
vt 0.000000 0.000977
vt 0.999023 -1.997070
vt 0.000000 -1.997070
vt 0.999023 -1.997070
vt 0.999023 0.000977
vt 0.000000 -1.997070
vt 0.000000 0.000977
vt 0.999023 1.999023
vt 0.000000 1.831055
vt 0.000000 1.999023
vt -2.828125 1.590820
vt -2.997070 0.001953
vt -2.530273 0.953125
vt -2.231445 0.000977
vt -2.997070 -1.997070
vt -2.047852 -1.221680
vt -1.998047 -1.997070
vt -1.998047 -1.997070
vt -0.999023 -1.997070
vt -1.938477 -1.221680
vt -1.754883 0.000977
vt -0.999023 0.001953
vt -1.456055 0.953125
vt -1.158203 1.590820
vt 0.361328 4.464844
vt 0.000000 3.998047
vt 0.658203 4.218750
vt 0.999023 4.113281
vt 1.998047 3.998047
vt 1.339844 4.218750
vt 1.636719 4.464844
vt 1.642578 1.655273
vt 2.003906 3.994141
vt 1.345703 1.930664
vt 1.004883 2.048828
vt 0.005859 3.994141
vt 0.664062 1.930664
vt 0.367188 1.655273
vt 0.667969 -3.417969
vt 0.499023 -3.684570
vt 0.499023 -3.179688
vt 0.330078 -3.417969
vt 0.356445 -3.817383
vt 0.263672 -3.939453
vt 0.263672 -3.939453
vt 0.330078 -3.417969
vt 0.356445 -3.817383
vt 0.499023 -3.684570
vt 0.499023 -3.179688
vt 0.667969 -3.417969
vt 0.667969 -3.417969
vt 0.499023 -3.684570
vt 0.499023 -3.179688
vt 0.330078 -3.417969
vt 0.356445 -3.817383
vt 0.263672 -3.939453
vt 0.667969 -3.417969
vt 0.499023 -3.684570
vt 0.499023 -3.179688
vt 0.330078 -3.417969
vt 0.356445 -3.817383
vt 0.263672 -3.939453
vt 0.367188 1.655273
vt 0.005859 3.994141
vt 0.181641 1.212891
vt 0.103516 0.707031
vt 0.005859 1.018555
vt 1.636719 4.464844
vt 1.998047 3.998047
vt 1.822266 4.860352
vt 1.900391 5.314453
vt 1.998047 5.594727
vt 0.000000 5.594727
vt 0.000000 3.998047
vt 0.096680 5.314453
vt 0.175781 4.860352
vt 0.361328 4.464844
vt 2.003906 1.018555
vt 2.003906 3.994141
vt 1.907227 0.707031
vt 1.828125 1.212891
vt 1.642578 1.655273
vt 0.499023 -3.684570
vt 0.667969 -3.417969
vt 0.641602 -3.817383
vt 0.734375 -3.939453
vt 0.965820 -4.053711
vt 0.499023 -3.684570
vt 0.667969 -3.417969
vt 0.641602 -3.817383
vt 0.734375 -3.939453
vt 0.965820 -4.053711
vt 0.499023 -3.684570
vt 0.667969 -3.417969
vt 0.641602 -3.817383
vt 0.734375 -3.939453
vt 0.965820 -4.053711
vt 0.499023 -3.684570
vt 0.667969 -3.417969
vt 0.641602 -3.817383
vt 0.734375 -3.939453
vt 0.965820 -4.053711
vt -0.999023 -1.997070
vt 0.999023 -1.997070
vt -0.999023 1.000000
vt 0.999023 1.000000
vt -0.999023 -1.997070
vt 0.999023 -1.997070
vt -0.999023 1.000000
vt 0.999023 1.000000
vt 4.760742 -0.986328
vt 4.760742 -0.597656
vt 4.229492 -0.993164
vt 4.229492 -0.588867
vt 4.760742 -0.986328
vt 4.760742 -0.597656
vt 4.229492 -0.993164
vt 4.229492 -0.588867
vt 4.760742 -0.986328
vt 4.760742 -0.597656
vt 4.229492 -0.993164
vt 4.229492 -0.588867
vt 4.760742 -0.986328
vt 4.760742 -0.597656
vt 4.229492 -0.993164
vt 4.229492 -0.588867
vt -2.828125 1.590820
vt -2.997070 1.831055
vt -2.997070 0.001953
vt -0.999023 0.001953
vt -0.999023 1.831055
vt -1.158203 1.590820
vt -2.828125 1.590820
vt -2.997070 1.831055
vt -2.997070 0.001953
vt -0.999023 0.001953
vt -0.999023 1.831055
vt -1.158203 1.590820
vt -2.828125 1.590820
vt -2.997070 1.831055
vt -2.997070 0.001953
vt -0.999023 0.001953
vt -0.999023 1.831055
vt -1.158203 1.590820
vt -2.828125 1.590820
vt -2.997070 1.831055
vt -2.997070 0.001953
vt -0.999023 0.001953
vt -0.999023 1.831055
vt -1.158203 1.590820
vt -2.828125 1.590820
vt -2.997070 1.831055
vt -2.997070 0.001953
vt -0.999023 0.001953
vt -0.999023 1.831055
vt -1.158203 1.590820
vt -2.828125 1.590820
vt -2.997070 1.831055
vt -2.997070 0.001953
vt -0.999023 0.001953
vt -0.999023 1.831055
vt -1.158203 1.590820
vt 1.448242 -6.219727
vt 1.498047 -6.992188
vt 0.499023 -6.992188
vt -0.449219 -6.219727
vt 0.499023 -6.992188
vt -0.499023 -6.992188
vt 0.263672 -3.939453
vt 0.032227 -4.053711
vt 0.330078 -3.417969
vt 1.448242 -6.219727
vt 1.498047 -6.992188
vt 0.499023 -6.992188
vt 1.448242 -6.219727
vt 1.426758 -6.527344
vt 0.499023 -6.992188
vt -0.449219 -6.219727
vt 0.499023 -6.992188
vt -0.457031 -6.521484
vt 0.263672 -3.939453
vt 0.032227 -4.053711
vt 0.330078 -3.417969
vt 1.448242 -6.219727
vt 1.498047 -6.992188
vt 0.499023 -6.992188
vt -0.449219 -6.219727
vt 0.499023 -6.992188
vt -0.499023 -6.992188
vt 0.263672 -3.939453
vt 0.032227 -4.053711
vt 0.330078 -3.417969
vt -0.449219 -6.219727
vt 0.499023 -6.992188
vt -0.499023 -6.992188
vt 0.263672 -3.939453
vt 0.032227 -4.053711
vt 0.330078 -3.417969
vn -1.0000 -0.0000 0.0000
vn 0.0000 0.0000 1.0000
vn 0.0000 0.0000 -1.0000
vn -1.0000 0.0001 -0.0000
vn -1.0000 0.0000 0.0001
vn -1.0000 0.0000 -0.0001
vn -1.0000 0.0002 0.0001
vn -1.0000 0.0002 -0.0001
usemtl Tex_0031_1.dds.005
s off
f 1/1/1 3/2/1 2/3/1
f 2/3/1 3/2/1 4/4/1
f 3/2/1 5/5/1 4/4/1
f 4/4/1 5/5/1 6/6/1
f 5/5/1 7/7/1 6/6/1
f 6/6/1 7/7/1 8/8/1
f 7/7/1 9/9/1 8/8/1
f 8/8/1 9/9/1 10/10/1
f 9/9/1 11/11/1 10/10/1
f 10/10/1 11/11/1 12/12/1
f 11/11/1 13/13/1 12/12/1
f 12/12/1 13/13/1 14/14/1
f 13/13/1 15/15/1 14/14/1
f 14/14/1 15/15/1 16/16/1
f 15/15/1 17/17/1 16/16/1
f 18/18/1 20/19/1 19/20/1
f 19/20/1 20/19/1 21/21/1
f 20/19/1 22/22/1 21/21/1
f 21/21/1 22/22/1 23/23/1
f 22/22/1 24/24/1 23/23/1
f 23/23/1 24/24/1 25/25/1
f 24/24/1 26/26/1 25/25/1
f 25/25/1 26/26/1 27/27/1
f 26/26/1 28/28/1 27/27/1
f 27/27/1 28/28/1 29/29/1
f 28/28/1 30/30/1 29/29/1
f 29/29/1 30/30/1 31/31/1
f 30/30/1 32/32/1 31/31/1
f 31/31/1 32/32/1 33/33/1
f 32/32/1 34/34/1 33/33/1
f 35/35/1 37/36/1 36/37/1
f 36/37/1 37/36/1 38/38/1
f 37/36/1 39/39/1 38/38/1
f 38/38/1 39/39/1 40/40/1
f 39/39/1 41/41/1 40/40/1
f 40/40/1 41/41/1 42/42/1
f 41/41/1 43/43/1 42/42/1
f 42/42/1 43/43/1 44/44/1
f 43/43/1 45/45/1 44/44/1
f 44/44/1 45/45/1 46/46/1
f 45/45/1 47/47/1 46/46/1
f 46/46/1 47/47/1 48/48/1
f 47/47/1 49/49/1 48/48/1
f 48/48/1 49/49/1 50/50/1
f 49/49/1 51/51/1 50/50/1
f 52/52/1 54/53/1 53/54/1
f 53/54/1 54/53/1 55/55/1
f 54/53/1 56/56/1 55/55/1
f 55/55/1 56/56/1 57/57/1
f 56/56/1 58/58/1 57/57/1
f 57/57/1 58/58/1 59/59/1
f 58/58/1 60/60/1 59/59/1
f 59/59/1 60/60/1 61/61/1
f 60/60/1 62/62/1 61/61/1
f 61/61/1 62/62/1 63/63/1
f 62/62/1 64/64/1 63/63/1
f 63/63/1 64/64/1 65/65/1
f 64/64/1 66/66/1 65/65/1
f 65/65/1 66/66/1 67/67/1
f 66/66/1 68/68/1 67/67/1
f 69/69/2 71/70/2 70/71/2
f 70/71/2 71/70/2 72/72/2
f 71/70/2 73/73/2 72/72/2
f 72/72/2 73/73/2 74/74/2
f 73/73/2 75/75/2 74/74/2
f 74/74/2 75/75/2 76/76/2
f 75/75/2 77/77/2 76/76/2
f 76/76/2 77/77/2 78/78/2
f 77/77/2 79/79/2 78/78/2
f 80/80/2 82/81/2 81/82/2
f 81/82/2 82/81/2 83/83/2
f 82/81/2 84/84/2 83/83/2
f 83/83/2 84/84/2 85/85/2
f 84/84/2 86/86/2 85/85/2
f 85/85/2 86/86/2 87/87/2
f 86/86/2 88/88/2 87/87/2
f 87/87/2 88/88/2 89/89/2
f 88/88/2 90/90/2 89/89/2
f 91/91/2 93/92/2 92/93/2
f 92/93/2 93/92/2 94/94/2
f 93/92/2 95/95/2 94/94/2
f 94/94/2 95/95/2 96/96/2
f 95/95/2 97/97/2 96/96/2
f 96/96/2 97/97/2 98/98/2
f 97/97/2 99/99/2 98/98/2
f 98/98/2 99/99/2 100/100/2
f 99/99/2 101/101/2 100/100/2
f 102/102/3 104/103/3 103/104/3
f 103/104/3 104/103/3 105/105/3
f 104/103/3 106/106/3 105/105/3
f 105/105/3 106/106/3 107/107/3
f 106/106/3 108/108/3 107/107/3
f 107/107/3 108/108/3 109/109/3
f 108/108/3 110/110/3 109/109/3
f 109/109/3 110/110/3 111/111/3
f 110/110/3 112/112/3 111/111/3
f 113/113/3 115/114/3 114/115/3
f 114/115/3 115/114/3 116/116/3
f 115/114/3 117/117/3 116/116/3
f 116/116/3 117/117/3 118/118/3
f 117/117/3 119/119/3 118/118/3
f 118/118/3 119/119/3 120/120/3
f 119/119/3 121/121/3 120/120/3
f 120/120/3 121/121/3 122/122/3
f 121/121/3 123/123/3 122/122/3
f 124/124/3 126/125/3 125/126/3
f 125/126/3 126/125/3 127/127/3
f 126/125/3 128/128/3 127/127/3
f 127/127/3 128/128/3 129/129/3
f 128/128/3 130/130/3 129/129/3
f 129/129/3 130/130/3 131/131/3
f 130/130/3 132/132/3 131/131/3
f 131/131/3 132/132/3 133/133/3
f 132/132/3 134/134/3 133/133/3
f 135/135/1 137/136/1 136/137/1
f 136/137/1 137/136/1 138/138/1
f 137/136/1 139/139/1 138/138/1
f 138/138/1 139/139/1 140/140/1
f 139/139/1 141/141/1 140/140/1
f 140/140/1 141/141/1 142/142/1
f 141/141/1 143/143/1 142/142/1
f 142/142/1 143/143/1 144/144/1
f 143/143/1 145/145/1 144/144/1
f 146/146/1 148/147/1 147/148/1
f 147/148/1 148/147/1 149/149/1
f 148/147/1 150/150/1 149/149/1
f 149/149/1 150/150/1 151/151/1
f 150/150/1 152/152/1 151/151/1
f 151/151/1 152/152/1 153/153/1
f 152/152/1 154/154/1 153/153/1
f 153/153/1 154/154/1 155/155/1
f 154/154/1 156/156/1 155/155/1
f 157/157/1 159/158/1 158/159/1
f 158/159/1 159/158/1 160/160/1
f 159/158/1 161/161/1 160/160/1
f 160/160/1 161/161/1 162/162/1
f 161/161/1 163/163/1 162/162/1
f 162/162/1 163/163/1 164/164/1
f 163/163/1 165/165/1 164/164/1
f 166/166/2 168/167/2 167/168/2
f 167/168/2 168/167/2 169/169/2
f 168/167/2 170/170/2 169/169/2
f 169/169/2 170/170/2 171/171/2
f 170/170/2 172/172/2 171/171/2
f 173/173/2 175/174/2 174/175/2
f 174/175/2 175/174/2 176/176/2
f 175/174/2 177/177/2 176/176/2
f 176/176/2 177/177/2 178/178/2
f 177/177/2 179/179/2 178/178/2
f 180/180/2 182/181/2 181/182/2
f 181/182/2 182/181/2 183/183/2
f 182/181/2 184/184/2 183/183/2
f 183/183/2 184/184/2 185/185/2
f 184/184/2 186/186/2 185/185/2
f 187/187/2 189/188/2 188/189/2
f 188/189/2 189/188/2 190/190/2
f 189/188/2 191/191/2 190/190/2
f 190/190/2 191/191/2 192/192/2
f 191/191/2 193/193/2 192/192/2
f 194/194/2 196/195/2 195/196/2
f 195/196/2 196/195/2 197/197/2
f 196/195/2 198/198/2 197/197/2
f 197/197/2 198/198/2 199/199/2
f 198/198/2 200/200/2 199/199/2
f 201/201/2 203/202/2 202/203/2
f 202/203/2 203/202/2 204/204/2
f 203/202/2 205/205/2 204/204/2
f 204/204/2 205/205/2 206/206/2
f 205/205/2 207/207/2 206/206/2
f 208/208/2 210/209/2 209/210/2
f 209/210/2 210/209/2 211/211/2
f 210/209/2 212/212/2 211/211/2
f 211/211/2 212/212/2 213/213/2
f 212/212/2 214/214/2 213/213/2
f 215/215/2 217/216/2 216/217/2
f 216/217/2 217/216/2 218/218/2
f 217/216/2 219/219/2 218/218/2
f 218/218/2 219/219/2 220/220/2
f 219/219/2 221/221/2 220/220/2
f 222/222/2 224/223/2 223/224/2
f 223/224/2 224/223/2 225/225/2
f 224/223/2 226/226/2 225/225/2
f 225/225/2 226/226/2 227/227/2
f 226/226/2 228/228/2 227/227/2
f 229/229/2 231/230/2 230/231/2
f 230/231/2 231/230/2 232/232/2
f 231/230/2 233/233/2 232/232/2
f 232/232/2 233/233/2 234/234/2
f 233/233/2 235/235/2 234/234/2
f 236/236/2 238/237/2 237/238/2
f 237/238/2 238/237/2 239/239/2
f 238/237/2 240/240/2 239/239/2
f 239/239/2 240/240/2 241/241/2
f 240/240/2 242/242/2 241/241/2
f 243/243/2 245/244/2 244/245/2
f 244/245/2 245/244/2 246/246/2
f 245/244/2 247/247/2 246/246/2
f 246/246/2 247/247/2 248/248/2
f 247/247/2 249/249/2 248/248/2
f 250/250/3 252/251/3 251/252/3
f 251/252/3 252/251/3 253/253/3
f 252/251/3 254/254/3 253/253/3
f 253/253/3 254/254/3 255/255/3
f 254/254/3 256/256/3 255/255/3
f 257/257/3 259/258/3 258/259/3
f 258/259/3 259/258/3 260/260/3
f 259/258/3 261/261/3 260/260/3
f 260/260/3 261/261/3 262/262/3
f 261/261/3 263/263/3 262/262/3
f 264/264/3 266/265/3 265/266/3
f 265/266/3 266/265/3 267/267/3
f 266/265/3 268/268/3 267/267/3
f 267/267/3 268/268/3 269/269/3
f 268/268/3 270/270/3 269/269/3
f 271/271/3 273/272/3 272/273/3
f 272/273/3 273/272/3 274/274/3
f 273/272/3 275/275/3 274/274/3
f 274/274/3 275/275/3 276/276/3
f 275/275/3 277/277/3 276/276/3
f 278/278/3 280/279/3 279/280/3
f 279/280/3 280/279/3 281/281/3
f 280/279/3 282/282/3 281/281/3
f 281/281/3 282/282/3 283/283/3
f 282/282/3 284/284/3 283/283/3
f 285/285/3 287/286/3 286/287/3
f 286/287/3 287/286/3 288/288/3
f 287/286/3 289/289/3 288/288/3
f 288/288/3 289/289/3 290/290/3
f 289/289/3 291/291/3 290/290/3
f 292/292/3 294/293/3 293/294/3
f 293/294/3 294/293/3 295/295/3
f 294/293/3 296/296/3 295/295/3
f 295/295/3 296/296/3 297/297/3
f 296/296/3 298/298/3 297/297/3
f 299/299/3 301/300/3 300/301/3
f 300/301/3 301/300/3 302/302/3
f 301/300/3 303/303/3 302/302/3
f 302/302/3 303/303/3 304/304/3
f 303/303/3 305/305/3 304/304/3
f 306/306/3 308/307/3 307/308/3
f 307/308/3 308/307/3 309/309/3
f 308/307/3 310/310/3 309/309/3
f 309/309/3 310/310/3 311/311/3
f 310/310/3 312/312/3 311/311/3
f 313/313/3 315/314/3 314/315/3
f 314/315/3 315/314/3 316/316/3
f 315/314/3 317/317/3 316/316/3
f 316/316/3 317/317/3 318/318/3
f 317/317/3 319/319/3 318/318/3
f 320/320/3 322/321/3 321/322/3
f 321/322/3 322/321/3 323/323/3
f 322/321/3 324/324/3 323/323/3
f 323/323/3 324/324/3 325/325/3
f 324/324/3 326/326/3 325/325/3
f 327/327/3 329/328/3 328/329/3
f 328/329/3 329/328/3 330/330/3
f 329/328/3 331/331/3 330/330/3
f 330/330/3 331/331/3 332/332/3
f 331/331/3 333/333/3 332/332/3
f 334/334/1 336/335/1 335/336/1
f 335/336/1 336/335/1 337/337/1
f 336/335/4 338/338/4 337/337/4
f 337/337/1 338/338/1 339/339/1
f 338/338/1 340/340/1 339/339/1
f 341/341/1 343/342/1 342/343/1
f 342/343/1 343/342/1 344/344/1
f 343/342/1 345/345/1 344/344/1
f 344/344/1 345/345/1 346/346/1
f 345/345/1 347/347/1 346/346/1
f 348/348/1 350/349/1 349/350/1
f 349/350/1 350/349/1 351/351/1
f 350/349/1 352/352/1 351/351/1
f 351/351/1 352/352/1 353/353/1
f 354/354/1 356/355/1 355/356/1
f 355/356/1 356/355/1 357/357/1
f 356/355/1 358/358/1 357/357/1
f 357/357/1 358/358/1 359/359/1
f 360/360/1 362/361/1 361/362/1
f 361/362/1 362/361/1 363/363/1
f 362/361/1 364/364/1 363/363/1
f 363/363/1 364/364/1 365/365/1
f 366/366/1 368/367/1 367/368/1
f 367/368/1 368/367/1 369/369/1
f 368/367/1 370/370/1 369/369/1
f 369/369/1 370/370/1 371/371/1
f 372/372/1 374/373/1 373/374/1
f 373/374/1 374/373/1 375/375/1
f 374/373/5 376/376/5 375/375/5
f 377/377/1 379/378/1 378/379/1
f 378/379/1 379/378/1 380/380/1
f 379/378/6 381/381/6 380/380/6
f 382/382/5 384/383/5 383/384/5
f 383/384/1 384/383/1 385/385/1
f 384/383/1 386/386/1 385/385/1
f 387/387/6 389/388/6 388/389/6
f 388/389/1 389/388/1 390/390/1
f 389/388/1 391/391/1 390/390/1
f 392/392/1 394/393/1 393/394/1
f 393/394/1 394/393/1 395/395/1
f 394/393/1 396/396/1 395/395/1
f 397/397/1 399/398/1 398/399/1
f 398/399/1 399/398/1 400/400/1
f 399/398/1 401/401/1 400/400/1
f 402/402/1 404/403/1 403/404/1
f 403/404/1 404/403/1 405/405/1
f 404/403/1 406/406/1 405/405/1
f 407/407/1 409/408/1 408/409/1
f 408/409/1 409/408/1 410/410/1
f 409/408/1 411/411/1 410/410/1
f 412/412/1 414/413/1 413/414/1
f 413/414/1 414/413/1 415/415/1
f 416/416/1 418/417/1 417/418/1
f 417/418/1 418/417/1 419/419/1
f 420/420/1 422/421/1 421/422/1
f 421/422/1 422/421/1 423/423/1
f 424/424/1 426/425/1 425/426/1
f 425/426/1 426/425/1 427/427/1
f 428/428/1 430/429/1 429/430/1
f 429/430/1 430/429/1 431/431/1
f 432/432/1 434/433/1 433/434/1
f 433/434/1 434/433/1 435/435/1
f 436/436/2 438/437/2 437/438/2
f 439/439/2 441/440/2 440/441/2
f 442/442/2 444/443/2 443/444/2
f 445/445/2 447/446/2 446/447/2
f 448/448/2 450/449/2 449/450/2
f 451/451/2 453/452/2 452/453/2
f 454/454/3 456/455/3 455/456/3
f 457/457/3 459/458/3 458/459/3
f 460/460/3 462/461/3 461/462/3
f 463/463/3 465/464/3 464/465/3
f 466/466/3 468/467/3 467/468/3
f 469/469/3 471/470/3 470/471/3
f 472/472/1 474/473/1 473/474/1
f 475/475/1 477/476/1 476/477/1
f 478/478/1 480/479/1 479/480/1
f 481/481/1 483/482/1 482/483/1
f 484/484/7 486/485/7 485/486/7
f 487/487/8 489/488/8 488/489/8
f 490/490/1 492/491/1 491/492/1
f 493/493/1 495/494/1 494/495/1
f 496/496/1 498/497/1 497/498/1
f 499/499/1 501/500/1 500/501/1
f 502/502/1 504/503/1 503/504/1
f 505/505/1 507/506/1 506/507/1
