# Blender v3.6.3 OBJ File: 'untitled.blend'
# www.blender.org
mtllib Mesh_0304.mtl
o Mesh_0304_Mesh.196
v -9.604580 5.977674 9.732208
v -9.604584 5.101477 9.425850
v -9.604584 7.354354 7.831871
v -9.604580 3.942956 9.193810
v -9.604586 2.063739 8.659424
v -9.604586 2.063739 9.193810
v -9.604589 1.862651 8.787849
v -9.604584 1.693312 8.916290
v -9.604584 7.354354 7.831871
v -9.604584 8.340077 8.127090
v -9.604584 6.835509 10.343483
v -9.604584 9.114778 8.640526
v -9.604584 7.675562 11.317146
v -9.604584 9.677488 9.319443
v -9.604584 9.114777 11.615868
v -9.604584 9.677488 10.926086
v -9.604584 5.101476 15.910538
v -9.604584 7.354354 17.504509
v -9.604580 3.942956 16.142578
v -9.604586 2.063739 16.676964
v -9.604586 2.063739 16.142578
v -9.604589 1.862651 16.548538
v -9.604584 1.693312 16.420097
v -9.604584 8.340076 17.209290
v -9.604584 6.835509 14.992905
v -9.604584 9.114778 16.695862
v -9.604584 7.675562 14.019241
v -9.604584 9.677488 16.016945
v -9.604584 9.114777 13.720512
v -9.604584 9.677488 14.410301
v -9.604584 0.987761 9.042282
v -9.604588 1.128870 8.787865
v -9.604578 1.693312 9.042282
v -9.604584 1.552199 8.787857
v -9.604584 1.693312 8.916290
v -9.604584 5.101476 15.910538
v -9.604580 5.977674 15.604179
v -9.604584 7.354354 17.504509
v -9.604584 6.835509 14.992905
v -9.604584 8.340076 17.209290
v -9.604584 1.693312 16.420097
v -9.604584 1.552199 16.548523
v -9.604578 1.693312 16.294106
v -9.604588 1.128870 16.548515
v -9.604584 0.987761 16.294106
v -9.604584 9.114777 11.615868
v -9.604584 8.340076 12.129272
v -9.604584 7.675562 11.317146
v -9.604580 8.188896 12.166977
v -9.604584 2.063738 7.272812
v -9.604584 2.063738 5.297966
v -9.604584 10.159986 7.272812
v -9.604584 10.159986 5.297966
v -9.604584 9.114777 13.720512
v -9.604584 7.675562 14.019241
v -9.604584 8.340076 13.207108
v -9.604580 8.188896 13.169403
v -9.604584 -0.317827 22.514252
v -9.604584 1.865440 18.065689
v -9.604584 7.782040 22.514252
v -9.604584 10.020769 18.065689
v -9.604584 7.354354 7.831871
v -9.604586 2.063739 8.659424
v -9.604586 2.063739 7.831871
v -9.604584 7.354354 7.831871
v -9.604584 6.835509 10.343483
v -9.604580 5.977674 9.732208
v -9.604584 9.677488 9.319443
v -9.604584 10.067328 10.128189
v -9.604584 9.677488 10.926086
v -9.604584 1.693312 8.916290
v -9.604586 2.063739 9.193810
v -9.604578 1.693312 9.042282
v -9.604586 2.063739 16.676964
v -9.604584 7.354354 17.504509
v -9.604586 2.063739 17.504509
v -9.604584 10.067328 15.208191
v -9.604584 9.677488 16.016945
v -9.604584 9.677488 14.410301
v -9.604586 2.063739 16.142578
v -9.604584 1.693312 16.420097
v -9.604578 1.693312 16.294106
vt -2.213867 -0.537109
vt -2.632812 -0.291992
vt -2.287109 -0.695312
vt -2.341797 -0.904297
vt -2.469727 -1.243164
vt -2.341797 -1.243164
vt -2.438477 -1.279297
vt -2.408203 -1.309570
vt -2.632812 -0.291992
vt -2.068359 -0.382812
vt -2.561523 -0.111328
vt -2.457031 0.027344
vt -1.835938 -0.231445
vt -2.312500 0.128906
vt -1.784180 0.027344
vt -1.928711 0.128906
vt -2.287109 -0.695312
vt -2.341797 -0.904297
vt -2.632812 -0.291992
vt -2.469727 -1.243164
vt -2.341797 -1.243164
vt -2.438477 -1.279297
vt -2.408203 -1.309570
vt -2.561523 -0.111328
vt -2.457031 0.027344
vt -2.068359 -0.382812
vt -1.835938 -0.231445
vt -2.312500 0.128906
vt -1.784180 0.027344
vt -1.928711 0.128906
vt -2.377930 -1.437500
vt -2.377930 -1.309570
vt -2.438477 -1.412109
vt -2.438477 -1.335938
vt -2.408203 -1.309570
vt -2.287109 -0.695312
vt -2.632812 -0.291992
vt -2.213867 -0.537109
vt -2.068359 -0.382812
vt -2.561523 -0.111328
vt -2.408203 -1.309570
vt -2.377930 -1.309570
vt -2.438477 -1.335938
vt -2.438477 -1.412109
vt -2.377930 -1.437500
vt -1.784180 0.027344
vt -1.835938 -0.231445
vt -1.684570 -0.111328
vt -1.667969 -0.154297
vt 2.872070 -0.596680
vt 2.872070 1.000000
vt 2.392578 -0.596680
vt 2.392578 1.000000
vt -1.784180 0.027344
vt -1.684570 -0.111328
vt -1.835938 -0.231445
vt -1.667969 -0.154297
vt 1.999023 -1.666016
vt 1.999023 0.162109
vt 1.000000 -1.172852
vt 1.000000 0.666992
vt -2.632812 -0.291992
vt -2.666992 -1.243164
vt -2.469727 -1.243164
vt -2.632812 -0.291992
vt -2.213867 -0.537109
vt -2.068359 -0.382812
vt -2.312500 0.128906
vt -1.928711 0.128906
vt -2.119141 0.199219
vt -2.408203 -1.309570
vt -2.377930 -1.309570
vt -2.341797 -1.243164
vt -2.469727 -1.243164
vt -2.666992 -1.243164
vt -2.632812 -0.291992
vt -2.119141 0.199219
vt -1.928711 0.128906
vt -2.312500 0.128906
vt -2.341797 -1.243164
vt -2.377930 -1.309570
vt -2.408203 -1.309570
vn -1.0000 0.0000 0.0000
usemtl Tex_0031_1.dds.015
s off
f 1/1/1 3/2/1 2/3/1
f 2/3/1 3/2/1 4/4/1
f 3/2/1 5/5/1 4/4/1
f 4/4/1 5/5/1 6/6/1
f 5/5/1 7/7/1 6/6/1
f 6/6/1 7/7/1 8/8/1
f 9/9/1 11/10/1 10/11/1
f 10/11/1 11/10/1 12/12/1
f 11/10/1 13/13/1 12/12/1
f 12/12/1 13/13/1 14/14/1
f 13/13/1 15/15/1 14/14/1
f 14/14/1 15/15/1 16/16/1
f 17/17/1 19/18/1 18/19/1
f 18/19/1 19/18/1 20/20/1
f 19/18/1 21/21/1 20/20/1
f 20/20/1 21/21/1 22/22/1
f 21/21/1 23/23/1 22/22/1
f 24/24/1 26/25/1 25/26/1
f 25/26/1 26/25/1 27/27/1
f 26/25/1 28/28/1 27/27/1
f 27/27/1 28/28/1 29/29/1
f 28/28/1 30/30/1 29/29/1
f 31/31/1 33/32/1 32/33/1
f 32/33/1 33/32/1 34/34/1
f 33/32/1 35/35/1 34/34/1
f 36/36/1 38/37/1 37/38/1
f 37/38/1 38/37/1 39/39/1
f 38/37/1 40/40/1 39/39/1
f 41/41/1 43/42/1 42/43/1
f 42/43/1 43/42/1 44/44/1
f 43/42/1 45/45/1 44/44/1
f 46/46/1 48/47/1 47/48/1
f 47/48/1 48/47/1 49/49/1
f 50/50/1 52/51/1 51/52/1
f 51/52/1 52/51/1 53/53/1
f 54/54/1 56/55/1 55/56/1
f 55/56/1 56/55/1 57/57/1
f 58/58/1 60/59/1 59/60/1
f 59/60/1 60/59/1 61/61/1
f 62/62/1 64/63/1 63/64/1
f 65/65/1 67/66/1 66/67/1
f 68/68/1 70/69/1 69/70/1
f 71/71/1 73/72/1 72/73/1
f 74/74/1 76/75/1 75/76/1
f 77/77/1 79/78/1 78/79/1
f 80/80/1 82/81/1 81/82/1
