# Blender v3.6.3 OBJ File: 'untitled.blend'
# www.blender.org
mtllib Mesh_0259.mtl
o Mesh_0259_Mesh.177
v -8.016100 14.603747 -17.811806
v -8.016100 19.366245 -17.811806
v -8.651100 14.603747 -17.811806
v -8.651100 19.366245 -17.811806
v -8.965595 14.603747 -17.811806
v -8.965595 19.366245 -17.811806
v -7.381100 19.366245 -17.173798
v -7.381100 14.603748 -17.173798
v -7.381100 19.366245 -16.859306
v -7.381100 14.603748 -16.859306
v -7.381100 19.366243 -16.224304
v -7.381100 14.603748 -16.224304
v -8.019104 19.366243 -15.589306
v -8.019104 14.603748 -15.589306
v -8.333601 19.366243 -15.589306
v -8.333601 14.603748 -15.589306
v -8.968599 19.366243 -15.589306
v -8.968599 14.603748 -15.589306
v -9.603600 14.603748 -17.176804
v -9.603600 19.366245 -17.176804
v -9.603600 14.603748 -16.541805
v -9.603600 19.366245 -16.541805
v -9.603600 14.603748 -16.227314
v -9.603600 19.366243 -16.227314
v -8.021645 14.603747 10.442589
v -8.021645 19.366243 10.442589
v -8.656645 14.603747 10.442589
v -8.656645 19.366243 10.442589
v -8.971140 14.603747 10.442589
v -8.971140 19.366243 10.442589
v -7.386644 19.366245 11.080597
v -7.386644 14.603746 11.080597
v -7.386644 19.366245 11.395088
v -7.386644 14.603746 11.395088
v -7.386644 19.366245 12.030090
v -7.386644 14.603746 12.030090
v -8.024649 19.366245 12.665092
v -8.024649 14.603746 12.665092
v -8.339144 19.366245 12.665092
v -8.339144 14.603746 12.665092
v -8.974144 19.366245 12.665092
v -8.974144 14.603746 12.665092
v -9.609144 14.603746 11.077591
v -9.609144 19.366245 11.077591
v -9.609144 14.603746 11.712585
v -9.609144 19.366245 11.712585
v -9.609144 14.603746 12.027084
v -9.609144 19.366245 12.027084
v -8.016100 28.891243 -17.811806
v -8.016100 33.653744 -17.811806
v -8.651100 28.891243 -17.811806
v -8.651100 33.653744 -17.811806
v -8.965595 33.653744 -17.811806
v -7.381100 28.891241 -16.224304
v -7.381100 33.653744 -16.224304
v -7.381100 28.891243 -16.859306
v -7.381100 33.653744 -16.859306
v -7.381100 33.653744 -17.173798
v -9.603600 28.891243 -17.176804
v -9.603600 33.653744 -17.176804
v -9.603600 28.891243 -16.541805
v -9.603600 33.653744 -16.541805
v -9.603600 33.653744 -16.227314
v -8.968599 28.891241 -15.589306
v -8.968599 33.653744 -15.589306
v -8.333601 28.891241 -15.589306
v -8.333601 33.653744 -15.589306
v -8.019104 33.653744 -15.589306
v -8.021645 28.891239 10.442589
v -8.021645 33.653744 10.442589
v -8.656645 28.891239 10.442589
v -8.656645 33.653744 10.442589
v -8.971140 33.653744 10.442589
v -7.386644 28.891241 12.030090
v -7.386644 33.653744 12.030090
v -7.386644 28.891241 11.395088
v -7.386644 33.653744 11.395088
v -7.386644 33.653744 11.080597
v -9.609144 28.891241 11.077591
v -9.609144 33.653744 11.077591
v -9.609144 28.891241 11.712593
v -9.609144 33.653744 11.712593
v -9.609144 33.653744 12.027084
v -8.974144 28.891241 12.665092
v -8.974144 33.653744 12.665092
v -8.339144 28.891241 12.665092
v -8.339144 33.653744 12.665092
v -8.024649 33.653744 12.665092
v -8.016100 28.891243 -17.811806
v -8.651100 28.891243 -17.811806
v -8.016100 24.128744 -17.811806
v -8.651100 24.128744 -17.811806
v -7.381100 28.891243 -16.859306
v -7.381100 28.891243 -17.173798
v -7.381100 24.128744 -16.859306
v -7.381100 24.128744 -17.173798
v -8.016100 24.128744 -17.811806
v -8.651100 24.128744 -17.811806
v -8.016100 19.366245 -17.811806
v -8.651100 19.366245 -17.811806
v -7.381100 24.128744 -16.859306
v -7.381100 24.128744 -17.173798
v -7.381100 19.366245 -16.859306
v -7.381100 19.366245 -17.173798
v -7.381100 28.891241 -16.224304
v -7.381100 28.891243 -16.859306
v -7.381100 24.128742 -16.224304
v -7.381100 24.128744 -16.859306
v -8.333601 28.891241 -15.589306
v -8.019104 28.891241 -15.589306
v -8.333601 24.128742 -15.589306
v -8.019104 24.128742 -15.589306
v -7.381100 24.128742 -16.224304
v -7.381100 24.128744 -16.859306
v -7.381100 19.366243 -16.224304
v -7.381100 19.366245 -16.859306
v -8.333601 24.128742 -15.589306
v -8.019104 24.128742 -15.589306
v -8.333601 19.366243 -15.589306
v -8.019104 19.366243 -15.589306
v -9.603600 28.891243 -17.176804
v -9.603600 28.891243 -16.541805
v -9.603600 24.128744 -17.176804
v -9.603600 24.128744 -16.541805
v -8.651100 28.891243 -17.811806
v -8.965595 28.891243 -17.811806
v -8.651100 24.128744 -17.811806
v -8.965595 24.128744 -17.811806
v -9.603600 24.128744 -17.176804
v -9.603600 24.128744 -16.541805
v -9.603600 19.366245 -17.176804
v -9.603600 19.366245 -16.541805
v -8.651100 24.128744 -17.811806
v -8.965595 24.128744 -17.811806
v -8.651100 19.366245 -17.811806
v -8.965595 19.366245 -17.811806
v -8.968599 28.891241 -15.589306
v -8.333601 28.891241 -15.589306
v -8.968599 24.128742 -15.589306
v -8.333601 24.128742 -15.589306
v -8.968599 34.288742 -15.589306
v -9.286100 34.288742 -15.906807
v -9.921101 34.923744 -15.271805
v -9.603600 34.288742 -16.227314
v -9.603600 28.891243 -16.541805
v -9.603600 28.891241 -16.227314
v -9.603600 24.128744 -16.541805
v -9.603600 24.128742 -16.227314
v -8.968599 24.128742 -15.589306
v -8.333601 24.128742 -15.589306
v -8.968599 19.366243 -15.589306
v -8.333601 19.366243 -15.589306
v -9.603600 24.128744 -16.541805
v -9.603600 24.128742 -16.227314
v -9.603600 19.366245 -16.541805
v -9.603600 19.366243 -16.227314
v -8.021645 28.891239 10.442589
v -8.656645 28.891239 10.442589
v -8.021645 24.128742 10.442589
v -8.656645 24.128742 10.442589
v -7.386644 28.891241 11.395088
v -7.386644 28.891241 11.080597
v -7.386644 24.128744 11.395088
v -7.386644 24.128744 11.080597
v -8.021645 24.128742 10.442589
v -8.656645 24.128742 10.442589
v -8.021645 19.366243 10.442589
v -8.656645 19.366243 10.442589
v -7.386644 24.128744 11.395088
v -7.386644 24.128744 11.080597
v -7.386644 19.366245 11.395088
v -7.386644 19.366245 11.080597
v -7.386644 28.891241 12.030090
v -7.386644 28.891241 11.395088
v -7.386644 24.128744 12.030090
v -7.386644 24.128744 11.395088
v -8.339144 28.891241 12.665092
v -8.024649 28.891241 12.665092
v -8.339144 24.128744 12.665092
v -8.024649 24.128744 12.665092
v -7.386644 24.128744 12.030090
v -7.386644 24.128744 11.395088
v -7.386644 19.366245 12.030090
v -7.386644 19.366245 11.395088
v -8.339144 24.128744 12.665092
v -8.024649 24.128744 12.665092
v -8.339144 19.366245 12.665092
v -8.024649 19.366245 12.665092
v -9.609144 28.891241 11.077591
v -9.609144 28.891241 11.712593
v -9.609144 24.128744 11.077591
v -9.609144 24.128744 11.712585
v -8.656645 28.891239 10.442589
v -8.971140 28.891239 10.442589
v -8.656645 24.128742 10.442589
v -8.971140 24.128742 10.442589
v -9.609144 24.128744 11.077591
v -9.609144 24.128744 11.712585
v -9.609144 19.366245 11.077591
v -9.609144 19.366245 11.712585
v -8.656645 24.128742 10.442589
v -8.971140 24.128742 10.442589
v -8.656645 19.366243 10.442589
v -8.971140 19.366243 10.442589
v -8.974144 28.891241 12.665092
v -8.339144 28.891241 12.665092
v -8.974144 24.128744 12.665092
v -8.339144 24.128744 12.665092
v -9.609144 28.891241 11.712593
v -9.609144 28.891241 12.027084
v -9.609144 24.128744 11.712585
v -9.609144 24.128744 12.027084
v -8.974144 24.128744 12.665092
v -8.339144 24.128744 12.665092
v -8.974144 19.366245 12.665092
v -8.339144 19.366245 12.665092
v -9.609144 24.128744 11.712585
v -9.609144 24.128744 12.027084
v -9.609144 19.366245 11.712585
v -9.609144 19.366245 12.027084
v -7.381100 33.653744 -17.173798
v -7.381100 28.891243 -17.173798
v -7.381100 28.891243 -16.859306
v -8.019104 33.653744 -15.589306
v -8.019104 28.891241 -15.589306
v -8.333601 28.891241 -15.589306
v -8.965595 33.653744 -17.811806
v -8.965595 28.891243 -17.811806
v -8.651100 28.891243 -17.811806
v -9.603600 33.653744 -16.227314
v -9.603600 28.891241 -16.227314
v -9.603600 28.891243 -16.541805
v -7.386644 33.653744 11.080597
v -7.386644 28.891241 11.080597
v -7.386644 28.891241 11.395088
v -8.024649 33.653744 12.665092
v -8.024649 28.891241 12.665092
v -8.339144 28.891241 12.665092
v -8.971140 33.653744 10.442589
v -8.971140 28.891239 10.442589
v -8.656645 28.891239 10.442589
v -9.609144 33.653744 12.027084
v -9.609144 28.891241 12.027084
v -9.609144 28.891241 11.712593
vt -0.310547 -0.003906
vt -0.498047 -0.003906
vt -0.310547 0.991211
vt -0.498047 0.991211
vt -0.388672 -0.003906
vt -0.388672 0.991211
vt -0.388672 0.991211
vt -0.498047 0.991211
vt -0.388672 -0.003906
vt -0.498047 -0.003906
vt -0.310547 0.991211
vt -0.310547 -0.003906
vt -0.388672 0.991211
vt -0.498047 0.991211
vt -0.388672 -0.003906
vt -0.498047 -0.003906
vt -0.310547 0.991211
vt -0.310547 -0.003906
vt -0.310547 -0.003906
vt -0.498047 -0.003906
vt -0.310547 0.991211
vt -0.498047 0.991211
vt -0.388672 -0.003906
vt -0.388672 0.991211
vt -0.310547 -0.003906
vt -0.498047 -0.003906
vt -0.310547 0.991211
vt -0.498047 0.991211
vt -0.388672 -0.003906
vt -0.388672 0.991211
vt -0.388672 0.991211
vt -0.498047 0.991211
vt -0.388672 -0.003906
vt -0.498047 -0.003906
vt -0.310547 0.991211
vt -0.310547 -0.003906
vt -0.388672 0.991211
vt -0.498047 0.991211
vt -0.388672 -0.003906
vt -0.498047 -0.003906
vt -0.310547 0.991211
vt -0.310547 -0.003906
vt -0.310547 -0.003906
vt -0.498047 -0.003906
vt -0.310547 0.991211
vt -0.498047 0.991211
vt -0.388672 -0.003906
vt -0.388672 0.991211
vt -0.810547 -0.003906
vt -0.998047 -0.003906
vt -0.810547 0.995117
vt -0.998047 0.995117
vt -0.888672 0.995117
vt -0.810547 -0.003906
vt -0.998047 -0.003906
vt -0.810547 0.995117
vt -0.998047 0.995117
vt -0.888672 0.995117
vt -0.810547 -0.003906
vt -0.998047 -0.003906
vt -0.810547 0.995117
vt -0.998047 0.995117
vt -0.888672 0.995117
vt -0.810547 -0.003906
vt -0.998047 -0.003906
vt -0.810547 0.995117
vt -0.998047 0.995117
vt -0.888672 0.995117
vt -0.810547 -0.003906
vt -0.998047 -0.003906
vt -0.810547 0.995117
vt -0.998047 0.995117
vt -0.888672 0.995117
vt -0.810547 -0.003906
vt -0.998047 -0.003906
vt -0.810547 0.995117
vt -0.998047 0.995117
vt -0.888672 0.995117
vt -0.810547 -0.003906
vt -0.998047 -0.003906
vt -0.810547 0.995117
vt -0.998047 0.995117
vt -0.888672 0.995117
vt -0.810547 -0.003906
vt -0.998047 -0.003906
vt -0.810547 0.995117
vt -0.998047 0.995117
vt -0.888672 0.995117
vt 0.440430 0.999023
vt 0.440430 0.000000
vt 0.253906 0.999023
vt 0.253906 0.000000
vt 0.251953 0.999023
vt 0.251953 0.000000
vt 0.365234 0.999023
vt 0.365234 0.000000
vt 0.939453 0.995117
vt 0.939453 -0.003906
vt 0.753906 0.995117
vt 0.753906 -0.003906
vt 0.752930 0.995117
vt 0.752930 -0.003906
vt 0.863281 0.995117
vt 0.863281 -0.003906
vt 0.440430 0.999023
vt 0.440430 0.000000
vt 0.253906 0.999023
vt 0.253906 0.000000
vt 0.251953 0.999023
vt 0.251953 0.000000
vt 0.365234 0.999023
vt 0.365234 0.000000
vt 0.939453 0.995117
vt 0.939453 -0.003906
vt 0.753906 0.995117
vt 0.753906 -0.003906
vt 0.752930 0.995117
vt 0.752930 -0.003906
vt 0.863281 0.995117
vt 0.863281 -0.003906
vt 0.440430 0.999023
vt 0.440430 0.000000
vt 0.253906 0.999023
vt 0.253906 0.000000
vt 0.251953 0.999023
vt 0.251953 0.000000
vt 0.365234 0.999023
vt 0.365234 0.000000
vt 0.939453 0.995117
vt 0.939453 -0.003906
vt 0.753906 0.995117
vt 0.753906 -0.003906
vt 0.752930 0.995117
vt 0.752930 -0.003906
vt 0.863281 0.995117
vt 0.863281 -0.003906
vt 0.440430 0.999023
vt 0.440430 0.000000
vt 0.253906 0.999023
vt 0.253906 0.000000
vt 2.231445 -1.127930
vt 2.449219 -1.252930
vt 2.231445 -1.377930
vt 2.231445 -1.627930
vt 0.251953 0.999023
vt 0.251953 0.000000
vt 0.365234 0.999023
vt 0.365234 0.000000
vt 0.939453 0.995117
vt 0.939453 -0.003906
vt 0.753906 0.995117
vt 0.753906 -0.003906
vt 0.752930 0.995117
vt 0.752930 -0.003906
vt 0.863281 0.995117
vt 0.863281 -0.003906
vt 0.440430 0.999023
vt 0.440430 0.000000
vt 0.253906 0.999023
vt 0.253906 0.000000
vt 0.251953 0.999023
vt 0.251953 0.000000
vt 0.365234 0.999023
vt 0.365234 0.000000
vt 0.939453 0.995117
vt 0.939453 -0.003906
vt 0.753906 0.995117
vt 0.753906 -0.003906
vt 0.752930 0.995117
vt 0.752930 -0.003906
vt 0.863281 0.995117
vt 0.863281 -0.003906
vt 0.440430 0.999023
vt 0.440430 0.000000
vt 0.253906 0.999023
vt 0.253906 0.000000
vt 0.251953 0.999023
vt 0.251953 0.000000
vt 0.365234 0.999023
vt 0.365234 0.000000
vt 0.939453 0.995117
vt 0.939453 -0.003906
vt 0.753906 0.995117
vt 0.753906 -0.003906
vt 0.752930 0.995117
vt 0.752930 -0.003906
vt 0.863281 0.995117
vt 0.863281 -0.003906
vt 0.440430 0.999023
vt 0.440430 0.000000
vt 0.253906 0.999023
vt 0.253906 0.000000
vt 0.251953 0.999023
vt 0.251953 0.000000
vt 0.365234 0.999023
vt 0.365234 0.000000
vt 0.939453 0.995117
vt 0.939453 -0.003906
vt 0.753906 0.995117
vt 0.753906 -0.003906
vt 0.752930 0.995117
vt 0.752930 -0.003906
vt 0.863281 0.995117
vt 0.863281 -0.003906
vt 0.440430 0.999023
vt 0.440430 0.000000
vt 0.253906 0.999023
vt 0.253906 0.000000
vt 0.251953 0.999023
vt 0.251953 0.000000
vt 0.365234 0.999023
vt 0.365234 0.000000
vt 0.939453 0.995117
vt 0.939453 -0.003906
vt 0.753906 0.995117
vt 0.753906 -0.003906
vt 0.752930 0.995117
vt 0.752930 -0.003906
vt 0.863281 0.995117
vt 0.863281 -0.003906
vt -0.888672 0.995117
vt -0.998047 -0.003906
vt -0.888672 -0.003906
vt -0.888672 0.995117
vt -0.998047 -0.003906
vt -0.888672 -0.003906
vt -0.888672 0.995117
vt -0.998047 -0.003906
vt -0.888672 -0.003906
vt -0.888672 0.995117
vt -0.998047 -0.003906
vt -0.888672 -0.003906
vt -0.888672 0.995117
vt -0.998047 -0.003906
vt -0.888672 -0.003906
vt -0.888672 0.995117
vt -0.998047 -0.003906
vt -0.888672 -0.003906
vt -0.888672 0.995117
vt -0.998047 -0.003906
vt -0.888672 -0.003906
vt -0.888672 0.995117
vt -0.998047 -0.003906
vt -0.888672 -0.003906
vn 0.0000 0.0000 -1.0000
vn 1.0000 0.0000 0.0000
vn 0.0000 0.0000 1.0000
vn -1.0000 0.0000 0.0000
vn -0.4082 -0.8165 0.4082
vn -0.4077 -0.8162 0.4094
vn -0.4075 -0.8173 0.4075
vn -0.4094 -0.8173 0.4056
vn -0.4113 -0.8162 0.4057
vn -0.4102 -0.8165 0.4063
usemtl Tex_0073_0.dds.005
s off
f 1/1/1 3/2/1 2/3/1
f 2/3/1 3/2/1 4/4/1
f 3/2/1 5/5/1 4/4/1
f 4/4/1 5/5/1 6/6/1
f 7/7/2 9/8/2 8/9/2
f 8/9/2 9/8/2 10/10/2
f 9/8/2 11/11/2 10/10/2
f 10/10/2 11/11/2 12/12/2
f 13/13/3 15/14/3 14/15/3
f 14/15/3 15/14/3 16/16/3
f 15/14/3 17/17/3 16/16/3
f 16/16/3 17/17/3 18/18/3
f 19/19/4 21/20/4 20/21/4
f 20/21/4 21/20/4 22/22/4
f 21/20/4 23/23/4 22/22/4
f 22/22/4 23/23/4 24/24/4
f 25/25/1 27/26/1 26/27/1
f 26/27/1 27/26/1 28/28/1
f 27/26/1 29/29/1 28/28/1
f 28/28/1 29/29/1 30/30/1
f 31/31/2 33/32/2 32/33/2
f 32/33/2 33/32/2 34/34/2
f 33/32/2 35/35/2 34/34/2
f 34/34/2 35/35/2 36/36/2
f 37/37/3 39/38/3 38/39/3
f 38/39/3 39/38/3 40/40/3
f 39/38/3 41/41/3 40/40/3
f 40/40/3 41/41/3 42/42/3
f 43/43/4 45/44/4 44/45/4
f 44/45/4 45/44/4 46/46/4
f 45/44/4 47/47/4 46/46/4
f 46/46/4 47/47/4 48/48/4
f 49/49/1 51/50/1 50/51/1
f 50/51/1 51/50/1 52/52/1
f 51/50/1 53/53/1 52/52/1
f 54/54/2 56/55/2 55/56/2
f 55/56/2 56/55/2 57/57/2
f 56/55/2 58/58/2 57/57/2
f 59/59/4 61/60/4 60/61/4
f 60/61/4 61/60/4 62/62/4
f 61/60/4 63/63/4 62/62/4
f 64/64/3 66/65/3 65/66/3
f 65/66/3 66/65/3 67/67/3
f 66/65/3 68/68/3 67/67/3
f 69/69/1 71/70/1 70/71/1
f 70/71/1 71/70/1 72/72/1
f 71/70/1 73/73/1 72/72/1
f 74/74/2 76/75/2 75/76/2
f 75/76/2 76/75/2 77/77/2
f 76/75/2 78/78/2 77/77/2
f 79/79/4 81/80/4 80/81/4
f 80/81/4 81/80/4 82/82/4
f 81/80/4 83/83/4 82/82/4
f 84/84/3 86/85/3 85/86/3
f 85/86/3 86/85/3 87/87/3
f 86/85/3 88/88/3 87/87/3
f 89/89/1 91/90/1 90/91/1
f 90/91/1 91/90/1 92/92/1
f 93/93/2 95/94/2 94/95/2
f 94/95/2 95/94/2 96/96/2
f 97/97/1 99/98/1 98/99/1
f 98/99/1 99/98/1 100/100/1
f 101/101/2 103/102/2 102/103/2
f 102/103/2 103/102/2 104/104/2
f 105/105/2 107/106/2 106/107/2
f 106/107/2 107/106/2 108/108/2
f 109/109/3 111/110/3 110/111/3
f 110/111/3 111/110/3 112/112/3
f 113/113/2 115/114/2 114/115/2
f 114/115/2 115/114/2 116/116/2
f 117/117/3 119/118/3 118/119/3
f 118/119/3 119/118/3 120/120/3
f 121/121/4 123/122/4 122/123/4
f 122/123/4 123/122/4 124/124/4
f 125/125/1 127/126/1 126/127/1
f 126/127/1 127/126/1 128/128/1
f 129/129/4 131/130/4 130/131/4
f 130/131/4 131/130/4 132/132/4
f 133/133/1 135/134/1 134/135/1
f 134/135/1 135/134/1 136/136/1
f 137/137/3 139/138/3 138/139/3
f 138/139/3 139/138/3 140/140/3
f 141/141/5 143/142/6 142/143/7
f 142/143/8 143/142/9 144/144/10
f 145/145/4 147/146/4 146/147/4
f 146/147/4 147/146/4 148/148/4
f 149/149/3 151/150/3 150/151/3
f 150/151/3 151/150/3 152/152/3
f 153/153/4 155/154/4 154/155/4
f 154/155/4 155/154/4 156/156/4
f 157/157/1 159/158/1 158/159/1
f 158/159/1 159/158/1 160/160/1
f 161/161/2 163/162/2 162/163/2
f 162/163/2 163/162/2 164/164/2
f 165/165/1 167/166/1 166/167/1
f 166/167/1 167/166/1 168/168/1
f 169/169/2 171/170/2 170/171/2
f 170/171/2 171/170/2 172/172/2
f 173/173/2 175/174/2 174/175/2
f 174/175/2 175/174/2 176/176/2
f 177/177/3 179/178/3 178/179/3
f 178/179/3 179/178/3 180/180/3
f 181/181/2 183/182/2 182/183/2
f 182/183/2 183/182/2 184/184/2
f 185/185/3 187/186/3 186/187/3
f 186/187/3 187/186/3 188/188/3
f 189/189/4 191/190/4 190/191/4
f 190/191/4 191/190/4 192/192/4
f 193/193/1 195/194/1 194/195/1
f 194/195/1 195/194/1 196/196/1
f 197/197/4 199/198/4 198/199/4
f 198/199/4 199/198/4 200/200/4
f 201/201/1 203/202/1 202/203/1
f 202/203/1 203/202/1 204/204/1
f 205/205/3 207/206/3 206/207/3
f 206/207/3 207/206/3 208/208/3
f 209/209/4 211/210/4 210/211/4
f 210/211/4 211/210/4 212/212/4
f 213/213/3 215/214/3 214/215/3
f 214/215/3 215/214/3 216/216/3
f 217/217/4 219/218/4 218/219/4
f 218/219/4 219/218/4 220/220/4
f 221/221/2 223/222/2 222/223/2
f 224/224/3 226/225/3 225/226/3
f 227/227/1 229/228/1 228/229/1
f 230/230/4 232/231/4 231/232/4
f 233/233/2 235/234/2 234/235/2
f 236/236/3 238/237/3 237/238/3
f 239/239/1 241/240/1 240/241/1
f 242/242/4 244/243/4 243/244/4
