# Blender v3.6.3 OBJ File: 'untitled.blend'
# www.blender.org
mtllib Mesh_0345.mtl
o Mesh_0345_Mesh.096
v -9.604584 25.399994 -38.131805
v -9.604584 25.399994 -33.053665
v -10.115446 25.145971 -38.131805
v -10.115393 25.145983 -33.053665
v -9.861395 24.891994 -33.053665
v -9.861574 23.367994 -33.053665
v -10.239584 23.113995 -33.053665
v -10.239584 23.113995 -38.131805
v -9.989676 22.859995 -33.053665
v -9.989721 22.859995 -38.131805
v -9.604584 25.399994 -43.209942
v -9.604584 25.399994 -38.131805
v -10.115433 25.145983 -43.209942
v -10.115446 25.145971 -38.131805
v -9.861448 24.891994 -38.131805
v -9.861475 23.367994 -38.131805
v -10.239584 23.113995 -38.131805
v -10.239584 23.113993 -43.209938
v -9.989721 22.859995 -38.131805
v -9.989695 22.859995 -43.209942
v -9.604584 25.399994 -48.291885
v -9.604584 25.399994 -43.209942
v -10.074026 25.145994 -47.822449
v -10.115433 25.145983 -43.209942
v -9.861431 24.891994 -43.209942
v -9.861534 23.367994 -43.209942
v -10.239584 23.113993 -43.209938
v -10.186144 23.113991 -47.710327
v -9.989695 22.859995 -43.209942
v -9.947956 22.859999 -47.948517
v -9.861376 24.891991 -27.971806
v -9.861395 24.891994 -33.053665
v -10.115377 25.145992 -27.971806
v -10.115393 25.145983 -33.053665
v -9.604584 25.399994 -33.053665
v -9.983267 22.859993 -27.971806
v -9.989676 22.859995 -33.053665
v -10.239584 23.113993 -27.971806
v -10.239584 23.113995 -33.053665
v -9.861574 23.367994 -33.053665
v -9.861395 24.891994 -33.053665
v -9.861448 24.891994 -38.131805
v -10.115446 25.145971 -38.131805
v -10.239584 23.113995 -38.131805
v -9.861475 23.367994 -38.131805
v -9.861574 23.367994 -33.053665
v -9.861448 24.891994 -38.131805
v -9.861431 24.891994 -43.209942
v -10.115433 25.145983 -43.209942
v -10.239584 23.113993 -43.209938
v -9.861534 23.367994 -43.209942
v -9.861475 23.367994 -38.131805
v -9.861431 24.891994 -43.209942
v -9.814777 24.891994 -48.081703
v -10.074026 25.145994 -47.822449
v -10.186144 23.113991 -47.710327
v -9.814754 23.367994 -48.081726
v -9.861534 23.367994 -43.209942
v -9.861391 23.367992 -27.971806
v -10.239584 23.113993 -27.971806
v -9.861574 23.367994 -33.053665
v -10.115377 25.145992 -27.971806
v -9.604584 25.399994 -33.053665
v -9.604584 25.399992 -27.971760
vt -0.914062 0.032227
vt -0.915039 -0.081055
vt 1.084961 0.032227
vt 1.083008 -0.081055
vt 1.083008 -0.177734
vt 1.001953 -0.945312
vt -0.996094 -1.071289
vt 1.001953 -1.071289
vt 1.001953 -1.184570
vt -0.996094 -1.184570
vt -0.914062 0.032227
vt -0.915039 -0.081055
vt 1.084961 0.032227
vt 1.083008 -0.081055
vt 1.083008 -0.177734
vt 1.001953 -0.945312
vt -0.996094 -1.071289
vt 1.001953 -1.071289
vt 1.001953 -1.184570
vt -0.996094 -1.184570
vt -0.996094 0.032227
vt -0.996094 -0.081055
vt 0.002930 0.032227
vt 0.002930 -0.081055
vt 0.002930 -0.177734
vt 0.002930 -0.945312
vt -0.996094 -1.071289
vt 0.002930 -1.071289
vt 0.002930 -1.184570
vt -0.996094 -1.184570
vt -0.947266 -0.177734
vt -0.904297 -0.081055
vt 0.002930 -0.177734
vt 0.002930 -0.081055
vt 0.002930 0.032227
vt -0.926758 -1.184570
vt -0.884766 -1.071289
vt 0.002930 -1.184570
vt 0.002930 -1.071289
vt 0.002930 -0.945312
vt 1.083008 -0.177734
vt -0.915039 -0.081055
vt -0.915039 -0.177734
vt -0.996094 -1.071289
vt 1.001953 -0.945312
vt -0.996094 -0.945312
vt 1.083008 -0.177734
vt -0.915039 -0.081055
vt -0.915039 -0.177734
vt -0.996094 -1.071289
vt 1.001953 -0.945312
vt -0.996094 -0.945312
vt 0.002930 -0.177734
vt -0.996094 -0.081055
vt -0.996094 -0.177734
vt -0.996094 -1.071289
vt 0.002930 -0.945312
vt -0.996094 -0.945312
vt -0.947266 -0.945312
vt 0.002930 -0.945312
vt -0.884766 -1.071289
vt -0.904297 -0.081055
vt -0.995117 0.032227
vt 0.002930 0.032227
vn -0.4452 0.8954 0.0000
vn -0.4494 0.8921 -0.0462
vn -0.4453 0.8954 0.0000
vn -0.2599 0.5228 0.8119
vn 0.8720 -0.4847 -0.0679
vn -0.7071 -0.7071 0.0000
vn -0.4128 -0.4129 0.8119
vn -0.5577 0.8300 0.0000
vn 0.8916 0.4441 -0.0886
vn -0.3561 0.5300 0.7696
vn -0.4551 -0.4478 0.7696
vn -0.6721 -0.7404 -0.0040
vn -0.7128 -0.7013 0.0000
vn -0.7145 -0.6973 -0.0563
vn -0.7129 -0.7013 0.0000
vn -0.2599 0.5227 0.8119
vn 0.8721 -0.4847 -0.0679
vn -0.4128 -0.4128 0.8119
vn -0.5576 0.8301 0.0000
vn 0.8917 0.4439 -0.0886
vn -0.3560 0.5300 0.7696
vn -0.4552 -0.4478 0.7696
vn -0.6723 -0.7403 -0.0039
vn -0.7145 -0.6974 -0.0564
vn -0.4759 0.8795 0.0000
vn -0.4960 0.8681 -0.0203
vn -0.5040 0.8637 0.0000
vn -0.4452 0.8954 -0.0065
vn -0.3858 0.9226 -0.0074
vn -0.2611 0.5251 0.8100
vn 0.8632 -0.5009 -0.0633
vn -0.7071 -0.7071 -0.0063
vn -0.4169 -0.4169 0.8077
vn -0.5577 0.8300 -0.0066
vn 0.8843 0.4586 -0.0875
vn -0.3587 0.5339 0.7657
vn -0.4601 -0.4527 0.7638
vn -0.6595 -0.7516 -0.0114
vn -0.7128 -0.7013 -0.0099
vn -0.7508 -0.6592 -0.0414
vn -0.7324 -0.6808 -0.0065
vn -0.7506 -0.6608 -0.0066
vn -0.7089 -0.7020 0.0687
vn -0.6568 -0.7540 0.0049
vn -0.4128 -0.4129 -0.8119
vn 0.9734 0.2023 0.1079
vn -0.2597 0.5228 -0.8119
vn -0.7039 -0.7103 0.0009
vn -0.7055 -0.7063 0.0577
vn -0.6952 -0.7188 0.0009
vn -0.7128 -0.7013 -0.0003
vn -0.6812 -0.7321 0.0039
vn -0.4551 -0.4478 -0.7696
vn 0.8970 0.4330 0.0893
vn -0.3561 0.5300 -0.7696
vn -0.5577 0.8301 0.0000
vn -0.7033 -0.7109 -0.0067
vn -0.5682 0.8229 -0.0055
vn -0.5575 0.8301 0.0000
usemtl Tex_0052_0.dds.007
s off
f 1/1/1 3/2/2 2/3/1
f 2/3/3 3/2/3 4/4/4
f 3/2/5 5/5/6 4/4/7
f 6/6/8 8/7/9 7/8/10
f 7/8/11 8/7/12 9/9/13
f 8/7/14 10/10/15 9/9/15
f 11/11/1 13/12/2 12/13/1
f 12/13/1 13/12/1 14/14/16
f 13/12/17 15/15/6 14/14/18
f 16/16/19 18/17/20 17/18/21
f 17/18/22 18/17/23 19/19/15
f 18/17/24 20/20/13 19/19/13
f 21/21/25 23/22/26 22/23/27
f 22/23/28 23/22/29 24/24/30
f 23/22/31 25/25/32 24/24/33
f 26/26/34 28/27/35 27/28/36
f 27/28/37 28/27/38 29/29/39
f 28/27/40 30/30/41 29/29/42
f 31/31/6 33/32/43 32/33/6
f 32/33/6 33/32/44 34/34/45
f 33/32/46 35/35/3 34/34/47
f 36/36/48 38/37/49 37/38/50
f 37/38/51 38/37/52 39/39/53
f 38/37/54 40/40/8 39/39/55
f 41/41/6 43/42/6 42/43/6
f 44/44/19 46/45/19 45/46/19
f 47/47/6 49/48/6 48/49/6
f 50/50/56 52/51/56 51/52/56
f 53/53/57 55/54/57 54/55/57
f 56/56/58 58/57/58 57/58/58
f 59/59/59 61/60/59 60/61/59
f 62/62/3 64/63/3 63/64/3
