# Blender v3.6.3 OBJ File: 'untitled.blend'
# www.blender.org
mtllib Mesh_0140.mtl
o Mesh_0140_Mesh.010
v 18.443289 30.678995 -2.907433
v 18.329855 30.678995 -2.788025
v 18.473738 31.113083 -2.575356
v 18.335413 30.895277 -2.571800
v 18.473738 31.113083 -2.575356
v 18.335413 30.895277 -2.571800
v 18.460390 30.678995 -2.242149
v 18.340971 30.678995 -2.355576
v 18.460390 30.678995 -2.242149
v 18.340971 30.678995 -2.355576
v 18.471182 30.231295 -2.577080
v 18.335413 30.462688 -2.571800
v 18.471182 30.231295 -2.577080
v 18.335413 30.462688 -2.571800
v 18.443289 30.678995 -2.907433
v 18.329855 30.678995 -2.788025
v 18.323866 30.678995 -3.020882
v 18.443289 30.678995 -2.907433
v 18.335413 31.229567 -2.571800
v 18.473738 31.113083 -2.575356
v 18.335413 31.229567 -2.571800
v 18.473738 31.113083 -2.575356
v 18.346960 30.678995 -2.122719
v 18.460390 30.678995 -2.242149
v 18.346960 30.678995 -2.122719
v 18.460390 30.678995 -2.242149
v 18.316885 30.126112 -2.573112
v 18.471182 30.231295 -2.577080
v 18.316885 30.126112 -2.573112
v 18.471182 30.231295 -2.577080
v 18.323866 30.678995 -3.020882
v 18.443289 30.678995 -2.907433
v 18.335413 31.229567 -2.571800
v 18.197084 31.113083 -2.568245
v 18.323866 30.678995 -3.020882
v 18.210436 30.678995 -2.901451
v 18.346960 30.678995 -2.122719
v 18.227537 30.678995 -2.236160
v 18.335413 31.229567 -2.571800
v 18.197084 31.113083 -2.568245
v 18.316885 30.126112 -2.573112
v 18.162584 30.231295 -2.569145
v 18.346960 30.678995 -2.122719
v 18.227537 30.678995 -2.236160
v 18.323866 30.678995 -3.020882
v 18.210436 30.678995 -2.901451
v 18.316885 30.126112 -2.573112
v 18.162584 30.231295 -2.569145
v 18.197084 31.113083 -2.568245
v 18.335413 30.895277 -2.571800
v 18.210436 30.678995 -2.901451
v 18.329855 30.678995 -2.788025
v 18.227537 30.678995 -2.236160
v 18.340971 30.678995 -2.355576
v 18.197084 31.113083 -2.568245
v 18.335413 30.895277 -2.571800
v 18.162584 30.231295 -2.569145
v 18.335413 30.462688 -2.571800
v 18.227537 30.678995 -2.236160
v 18.340971 30.678995 -2.355576
v 18.210436 30.678995 -2.901451
v 18.329855 30.678995 -2.788025
v 18.162584 30.231295 -2.569145
v 18.335413 30.462688 -2.571800
v 19.122484 28.663000 -4.235954
v 19.046957 28.158401 -4.080063
v 18.321222 28.661095 -4.420815
v 18.320814 28.158403 -4.247589
v 17.519106 28.661095 -4.239716
v 17.593893 28.158401 -4.083481
v 16.874994 28.661093 -3.728523
v 17.010176 28.158401 -3.620209
v 16.516474 28.661093 -2.988495
v 16.685263 28.158401 -2.949554
v 16.514547 28.661093 -2.166183
v 16.683516 28.158401 -2.204330
v 16.869589 28.661095 -1.424469
v 17.005274 28.158403 -1.532158
v 17.511293 28.661095 -0.910263
v 17.586817 28.158403 -1.066154
v 18.312548 28.661095 -0.725410
v 18.312956 28.158403 -0.898628
v 19.114668 28.661095 -0.906502
v 19.039877 28.158403 -1.062752
v 19.758776 28.661095 -1.417702
v 19.623598 28.158403 -1.526016
v 20.117296 28.661093 -2.157730
v 19.948511 28.158401 -2.196671
v 20.119230 28.661093 -2.980042
v 19.950258 28.158401 -2.941887
v 19.764185 28.662998 -3.721741
v 19.628504 28.158401 -3.614067
v 18.321222 28.162342 -4.420815
v 19.122484 28.162342 -4.235954
v 18.321222 28.661095 -4.420815
v 19.122484 28.663000 -4.235954
v 16.874994 28.159569 -3.728523
v 17.519106 28.162342 -4.239716
v 16.874994 28.661093 -3.728523
v 17.519106 28.661095 -4.239716
v 16.514547 28.159569 -2.166183
v 16.516474 28.159569 -2.988495
v 16.514547 28.661093 -2.166183
v 16.516474 28.661093 -2.988495
v 17.511293 28.159571 -0.910263
v 16.869589 28.159571 -1.424469
v 17.511293 28.661095 -0.910263
v 16.869589 28.661095 -1.424469
v 19.114668 28.159571 -0.906502
v 18.312548 28.159571 -0.725410
v 19.114668 28.661095 -0.906502
v 18.312548 28.661095 -0.725410
v 20.117296 28.159569 -2.157730
v 19.758776 28.159571 -1.417702
v 20.117296 28.661093 -2.157730
v 19.758776 28.661095 -1.417702
v 19.764185 28.662998 -3.721741
v 19.764185 28.162340 -3.721741
v 20.119230 28.661093 -2.980042
v 20.119230 28.159569 -2.980042
v 19.122484 28.162342 -4.235954
v 19.046957 28.158401 -4.080063
v 19.764185 28.162340 -3.721741
v 19.628504 28.158401 -3.614067
v 18.321222 28.162342 -4.420815
v 18.320814 28.158403 -4.247589
v 19.122484 28.162342 -4.235954
v 19.046957 28.158401 -4.080063
v 17.519106 28.162342 -4.239716
v 17.593893 28.158401 -4.083481
v 18.321222 28.162342 -4.420815
v 18.320814 28.158403 -4.247589
v 16.874994 28.159569 -3.728523
v 17.010176 28.158401 -3.620209
v 17.519106 28.162342 -4.239716
v 17.593893 28.158401 -4.083481
v 16.516474 28.159569 -2.988495
v 16.685263 28.158401 -2.949554
v 16.874994 28.159569 -3.728523
v 17.010176 28.158401 -3.620209
v 16.514547 28.159569 -2.166183
v 16.683516 28.158401 -2.204330
v 16.516474 28.159569 -2.988495
v 16.685263 28.158401 -2.949554
v 16.869589 28.159571 -1.424469
v 17.005274 28.158403 -1.532158
v 16.514547 28.159569 -2.166183
v 16.683516 28.158401 -2.204330
v 17.511293 28.159571 -0.910263
v 17.586817 28.158403 -1.066154
v 16.869589 28.159571 -1.424469
v 17.005274 28.158403 -1.532158
v 18.312548 28.159571 -0.725410
v 18.312956 28.158403 -0.898628
v 17.511293 28.159571 -0.910263
v 17.586817 28.158403 -1.066154
v 19.114668 28.159571 -0.906502
v 19.039877 28.158403 -1.062752
v 18.312548 28.159571 -0.725410
v 18.312956 28.158403 -0.898628
v 19.758776 28.159571 -1.417702
v 19.623598 28.158403 -1.526016
v 19.114668 28.159571 -0.906502
v 19.039877 28.158403 -1.062752
v 20.117296 28.159569 -2.157730
v 19.948511 28.158401 -2.196671
v 19.758776 28.159571 -1.417702
v 19.623598 28.158403 -1.526016
v 20.119230 28.159569 -2.980042
v 19.950258 28.158401 -2.941887
v 20.117296 28.159569 -2.157730
v 19.948511 28.158401 -2.196671
v 19.764185 28.162340 -3.721741
v 19.628504 28.158401 -3.614067
v 20.119230 28.159569 -2.980042
v 19.950258 28.158401 -2.941887
v 16.511835 26.142786 1.192276
v 15.059244 26.142790 0.028297
v 16.511835 26.713350 1.192276
v 15.059244 26.713350 0.028297
v 15.059244 26.142790 0.028297
v 14.255564 26.142790 -1.650665
v 15.059244 26.713350 0.028297
v 14.255564 26.713350 -1.650665
v 14.255564 26.142790 -1.650665
v 14.259932 26.142788 -3.512077
v 14.255564 26.713350 -1.650665
v 14.259932 26.713348 -3.512077
v 14.259932 26.142788 -3.512077
v 15.071489 26.142790 -5.187241
v 14.259932 26.713348 -3.512077
v 15.071489 26.713350 -5.187241
v 15.071489 26.142790 -5.187241
v 16.529524 26.145847 -6.344391
v 15.071489 26.713350 -5.187241
v 16.529524 26.713350 -6.344391
v 16.529524 26.145847 -6.344391
v 18.345232 26.145847 -6.754341
v 16.529524 26.713350 -6.344391
v 18.345232 26.713350 -6.754341
v 18.345232 26.145847 -6.754341
v 20.158995 26.145847 -6.335876
v 18.345232 26.713350 -6.754341
v 20.158995 26.715452 -6.335876
v 20.158995 26.145847 -6.335876
v 21.611582 26.145847 -5.171898
v 20.158995 26.715452 -6.335876
v 21.611582 26.715452 -5.171898
v 22.415289 26.142788 -3.492928
v 22.415289 26.713348 -3.492928
v 21.611582 26.145847 -5.171898
v 21.611582 26.715452 -5.171898
v 22.415289 26.142788 -3.492928
v 22.410894 26.142790 -1.631531
v 22.415289 26.713348 -3.492928
v 22.410894 26.713350 -1.631531
v 22.410894 26.142790 -1.631531
v 21.599340 26.142790 0.043640
v 22.410894 26.713350 -1.631531
v 21.599340 26.713350 0.043640
v 21.599340 26.142790 0.043640
v 20.141306 26.142790 1.200790
v 21.599340 26.713350 0.043640
v 20.141306 26.713350 1.200790
v 20.141306 26.142790 1.200790
v 18.325598 26.142790 1.610741
v 20.141306 26.713350 1.200790
v 18.325598 26.713350 1.610741
v 18.325598 26.142790 1.610741
v 16.511835 26.142786 1.192276
v 18.325598 26.713350 1.610741
v 16.511835 26.713350 1.192276
v 16.511835 26.713350 1.192276
v 15.059244 26.713350 0.028297
v 16.595083 26.142786 1.020447
v 15.208826 26.141497 -0.090393
v 15.059244 26.713350 0.028297
v 14.255564 26.713350 -1.650665
v 15.208826 26.141497 -0.090393
v 14.441797 26.141495 -1.692711
v 14.255564 26.713350 -1.650665
v 14.259932 26.713348 -3.512077
v 14.441797 26.141495 -1.692711
v 14.445963 26.141495 -3.469147
v 14.259932 26.713348 -3.512077
v 15.071489 26.713350 -5.187241
v 14.445963 26.141495 -3.469147
v 15.220484 26.141497 -5.067856
v 15.071489 26.713350 -5.187241
v 16.529524 26.713350 -6.344391
v 15.220484 26.141497 -5.067856
v 16.611967 26.141497 -6.172180
v 16.529524 26.713350 -6.344391
v 18.345232 26.713350 -6.754341
v 16.611967 26.141497 -6.172180
v 18.344782 26.141497 -6.563385
v 18.345232 26.713350 -6.754341
v 20.158995 26.715452 -6.335876
v 18.344782 26.141497 -6.563385
v 20.075743 26.141497 -6.164047
v 20.158995 26.715452 -6.335876
v 21.611582 26.715452 -5.171898
v 20.075743 26.141497 -6.164047
v 21.462000 26.141497 -5.053207
v 21.611582 26.715452 -5.171898
v 22.415289 26.713348 -3.492928
v 21.462000 26.141497 -5.053207
v 22.229033 26.141495 -3.450882
v 22.415289 26.713348 -3.492928
v 22.410894 26.713350 -1.631531
v 22.229033 26.141495 -3.450882
v 22.224867 26.141497 -1.674446
v 22.410894 26.713350 -1.631531
v 21.599340 26.713350 0.043640
v 22.224867 26.141497 -1.674446
v 21.450342 26.141497 -0.075752
v 21.599340 26.713350 0.043640
v 20.141306 26.713350 1.200790
v 21.450342 26.141497 -0.075752
v 20.058867 26.141497 1.028580
v 20.141306 26.713350 1.200790
v 18.325598 26.713350 1.610741
v 20.058867 26.141497 1.028580
v 18.326044 26.141497 1.419785
v 18.325598 26.713350 1.610741
v 16.511835 26.713350 1.192276
v 18.326044 26.141497 1.419785
v 16.595083 26.142786 1.020447
v 18.158941 31.509953 -2.780762
v 18.230314 31.727882 -2.680580
v 18.144205 31.509953 -2.380569
v 18.235907 31.727882 -2.457756
v 18.526735 31.509953 -2.763031
v 18.435038 31.727882 -2.685844
v 18.158941 31.509953 -2.780762
v 18.230314 31.727882 -2.680580
v 18.511999 31.509953 -2.362846
v 18.440622 31.727882 -2.463013
v 18.526735 31.509953 -2.763031
v 18.435038 31.727882 -2.685844
v 18.144205 31.509953 -2.380569
v 18.235907 31.727882 -2.457756
v 18.511999 31.509953 -2.362846
v 18.440622 31.727882 -2.463013
v 18.608019 60.426102 -2.894135
v 18.435038 60.196987 -2.685844
v 18.630629 60.426102 -2.276810
v 18.440622 60.196987 -2.463013
v 18.040323 60.426102 -2.866798
v 18.230314 60.196987 -2.680580
v 18.608019 60.426102 -2.894135
v 18.435038 60.196987 -2.685844
v 18.063185 60.426102 -2.249466
v 18.235907 60.196987 -2.457756
v 18.040323 60.426102 -2.866798
v 18.230314 60.196987 -2.680580
v 18.630629 60.426102 -2.276810
v 18.440622 60.196987 -2.463013
v 18.063185 60.426102 -2.249466
v 18.235907 60.196987 -2.457756
v 18.335474 31.195498 -2.571800
v 18.158941 31.509953 -2.780762
v 18.144205 31.509953 -2.380569
v 18.335474 31.195498 -2.571800
v 18.526735 31.509953 -2.763031
v 18.158941 31.509953 -2.780762
v 18.335474 31.195498 -2.571800
v 18.511999 31.509953 -2.362846
v 18.526735 31.509953 -2.763031
v 18.335474 31.195498 -2.571800
v 18.144205 31.509953 -2.380569
v 18.511999 31.509953 -2.362846
vt 0.013672 -1.665039
vt 0.013672 -1.562500
vt -0.012695 -1.665039
vt -0.012695 -1.597656
vt 0.013672 -1.562500
vt 0.013672 -1.665039
vt -0.012695 -1.597656
vt -0.012695 -1.665039
vt 0.013672 -1.665039
vt 0.013672 -1.767578
vt -0.012695 -1.665039
vt -0.012695 -1.731445
vt 0.013672 -1.767578
vt 0.013672 -1.665039
vt -0.012695 -1.731445
vt -0.012695 -1.665039
vt -0.012695 -1.665039
vt -0.012695 -1.526367
vt 0.013672 -1.665039
vt 0.013672 -1.562500
vt -0.012695 -1.526367
vt -0.012695 -1.665039
vt 0.013672 -1.562500
vt 0.013672 -1.665039
vt -0.012695 -1.665039
vt -0.012695 -1.803711
vt 0.013672 -1.665039
vt 0.013672 -1.767578
vt -0.012695 -1.803711
vt -0.012695 -1.665039
vt 0.013672 -1.767578
vt 0.013672 -1.665039
vt -0.012695 -1.526367
vt -0.012695 -1.665039
vt -0.040039 -1.562500
vt -0.040039 -1.665039
vt -0.012695 -1.665039
vt -0.012695 -1.526367
vt -0.040039 -1.665039
vt -0.040039 -1.562500
vt -0.012695 -1.803711
vt -0.012695 -1.665039
vt -0.040039 -1.767578
vt -0.040039 -1.665039
vt -0.012695 -1.665039
vt -0.012695 -1.803711
vt -0.040039 -1.665039
vt -0.040039 -1.767578
vt -0.040039 -1.562500
vt -0.040039 -1.665039
vt -0.012695 -1.597656
vt -0.012695 -1.665039
vt -0.040039 -1.665039
vt -0.040039 -1.562500
vt -0.012695 -1.665039
vt -0.012695 -1.597656
vt -0.040039 -1.767578
vt -0.040039 -1.665039
vt -0.012695 -1.731445
vt -0.012695 -1.665039
vt -0.040039 -1.665039
vt -0.040039 -1.767578
vt -0.012695 -1.665039
vt -0.012695 -1.731445
vt 0.000000 -2.015625
vt -0.999023 -2.015625
vt 0.000000 -2.980469
vt -0.999023 -2.980469
vt 0.000000 -2.015625
vt -0.999023 -2.015625
vt 0.000000 -2.980469
vt -0.999023 -2.980469
vt 0.000000 -2.015625
vt -0.999023 -2.015625
vt 0.000000 -2.980469
vt -0.999023 -2.980469
vt -0.999023 -2.015625
vt 0.000000 -2.015625
vt -0.999023 -2.980469
vt 0.000000 -2.980469
vt -0.999023 -2.015625
vt 0.000000 -2.015625
vt -0.999023 -2.980469
vt 0.000000 -2.980469
vt -0.999023 -2.015625
vt 0.000000 -2.015625
vt -0.999023 -2.980469
vt 0.000000 -2.980469
vt -0.999023 -2.015625
vt 0.000000 -2.015625
vt -0.999023 -2.980469
vt 0.000000 -2.980469
vt -0.999023 -2.980469
vt -0.999023 -2.015625
vt 0.000000 -2.980469
vt 0.000000 -2.015625
vt -0.999023 -2.980469
vt -0.999023 -2.015625
vt 0.000000 -2.980469
vt 0.000000 -2.015625
vt -0.999023 -2.980469
vt -0.999023 -2.015625
vt 0.000000 -2.980469
vt 0.000000 -2.015625
vt 0.000000 -2.980469
vt 0.000000 -2.015625
vt -0.999023 -2.980469
vt -0.999023 -2.015625
vt 0.000000 -2.980469
vt 0.000000 -2.015625
vt -0.999023 -2.980469
vt -0.999023 -2.015625
vt 0.000000 -2.980469
vt 0.000000 -2.015625
vt -0.999023 -2.980469
vt -0.999023 -2.015625
vt 0.000000 -2.015625
vt -0.999023 -2.015625
vt 0.000000 -2.980469
vt -0.999023 -2.980469
vt -1.206055 1.250977
vt -1.206055 1.791016
vt -0.818359 1.250977
vt -0.818359 1.791016
vt -0.818359 1.250977
vt -0.818359 1.791016
vt -1.206055 1.250977
vt -1.206055 1.791016
vt -1.206055 1.250977
vt -1.206055 1.791016
vt -0.818359 1.250977
vt -0.818359 1.791016
vt -1.206055 1.250977
vt -1.206055 1.791016
vt -0.818359 1.250977
vt -0.818359 1.791016
vt -1.206055 1.250977
vt -1.206055 1.791016
vt -0.818359 1.250977
vt -0.818359 1.791016
vt -1.206055 1.250977
vt -1.206055 1.791016
vt -0.818359 1.250977
vt -0.818359 1.791016
vt -1.206055 1.250977
vt -1.206055 1.791016
vt -0.818359 1.250977
vt -0.818359 1.791016
vt -1.206055 1.250977
vt -1.206055 1.791016
vt -0.818359 1.250977
vt -0.818359 1.791016
vt -1.206055 1.250977
vt -1.206055 1.791016
vt -0.818359 1.250977
vt -0.818359 1.791016
vt -0.818359 1.791016
vt -0.818359 1.250977
vt -1.206055 1.791016
vt -1.206055 1.250977
vt -0.818359 1.791016
vt -0.818359 1.250977
vt -1.206055 1.791016
vt -1.206055 1.250977
vt -0.818359 1.791016
vt -0.818359 1.250977
vt -1.206055 1.791016
vt -1.206055 1.250977
vt -0.818359 1.791016
vt -0.818359 1.250977
vt -1.206055 1.791016
vt -1.206055 1.250977
vt -0.818359 1.791016
vt -0.818359 1.250977
vt -1.206055 1.791016
vt -1.206055 1.250977
vt 0.000000 -1.987305
vt 0.000000 -1.014648
vt 1.998047 -1.987305
vt 1.998047 -1.014648
vt 0.000000 -1.987305
vt 0.000000 -1.014648
vt 1.998047 -1.987305
vt 1.998047 -1.014648
vt 0.000000 -1.987305
vt 0.000000 -1.014648
vt 1.998047 -1.987305
vt 1.998047 -1.014648
vt 0.000000 -1.987305
vt 0.000000 -1.014648
vt 1.998047 -1.987305
vt 1.998047 -1.014648
vt 0.000000 -1.987305
vt 0.000000 -1.014648
vt 1.998047 -1.987305
vt 1.998047 -1.014648
vt 0.000000 -1.987305
vt 0.000000 -1.014648
vt 1.998047 -1.987305
vt 1.998047 -1.014648
vt 0.000000 -1.987305
vt 0.000000 -1.014648
vt 1.998047 -1.987305
vt 1.998047 -1.014648
vt 0.000000 -1.987305
vt 0.000000 -1.014648
vt 1.998047 -1.987305
vt 1.998047 -1.014648
vt 1.998047 -1.987305
vt 0.000000 -1.987305
vt 1.998047 -1.014648
vt 0.000000 -1.014648
vt 0.000000 -1.987305
vt 0.000000 -1.014648
vt 1.998047 -1.987305
vt 1.998047 -1.014648
vt 0.000000 -1.987305
vt 0.000000 -1.014648
vt 1.998047 -1.987305
vt 1.998047 -1.014648
vt 0.000000 -1.987305
vt 0.000000 -1.014648
vt 1.998047 -1.987305
vt 1.998047 -1.014648
vt 0.000000 -1.987305
vt 0.000000 -1.014648
vt 1.998047 -1.987305
vt 1.998047 -1.014648
vt 0.000000 -1.987305
vt 0.000000 -1.014648
vt 1.998047 -1.987305
vt 1.998047 -1.014648
vt 0.000000 -1.014648
vt 0.000000 -1.987305
vt 1.998047 -1.014648
vt 1.998047 -1.987305
vt 0.000000 -1.014648
vt 0.000000 -1.987305
vt 1.998047 -1.014648
vt 1.998047 -1.987305
vt 0.000000 -1.014648
vt 0.000000 -1.987305
vt 1.998047 -1.014648
vt 1.998047 -1.987305
vt 0.000000 -1.014648
vt 0.000000 -1.987305
vt 1.998047 -1.014648
vt 1.998047 -1.987305
vt 0.000000 -1.014648
vt 0.000000 -1.987305
vt 1.998047 -1.014648
vt 1.998047 -1.987305
vt 0.000000 -1.014648
vt 0.000000 -1.987305
vt 1.998047 -1.014648
vt 1.998047 -1.987305
vt 0.000000 -1.014648
vt 0.000000 -1.987305
vt 1.998047 -1.014648
vt 1.998047 -1.987305
vt 0.000000 -1.014648
vt 0.000000 -1.987305
vt 1.998047 -1.014648
vt 1.998047 -1.987305
vt 0.000000 -1.014648
vt 0.000000 -1.987305
vt 1.998047 -1.014648
vt 1.998047 -1.987305
vt 0.000000 -1.014648
vt 0.000000 -1.987305
vt 1.998047 -1.014648
vt 1.998047 -1.987305
vt 0.000000 -1.014648
vt 0.000000 -1.987305
vt 1.998047 -1.014648
vt 1.998047 -1.987305
vt 0.000000 -1.014648
vt 0.000000 -1.987305
vt 1.998047 -1.014648
vt 1.998047 -1.987305
vt 0.000000 -1.014648
vt 0.000000 -1.987305
vt 1.998047 -1.014648
vt 1.998047 -1.987305
vt 0.000000 -1.014648
vt 0.000000 -1.987305
vt 1.998047 -1.014648
vt 1.998047 -1.987305
vt -0.046875 -1.560547
vt -0.051758 -1.560547
vt -0.030273 -1.499023
vt -0.030273 -1.499023
vt 0.025391 -1.560547
vt -0.046875 -1.560547
vt 0.003906 -1.499023
vt -0.030273 -1.499023
vt 0.019531 -1.560547
vt 0.025391 -1.560547
vt 0.003906 -1.499023
vt 0.003906 -1.499023
vt -0.051758 -1.560547
vt 0.019531 -1.560547
vt -0.030273 -1.499023
vt 0.003906 -1.499023
vt -0.046875 -1.560547
vt -0.051758 -1.560547
vt -0.030273 -1.499023
vt -0.030273 -1.499023
vt 0.025391 -1.560547
vt -0.046875 -1.560547
vt 0.003906 -1.499023
vt -0.030273 -1.499023
vt 0.019531 -1.560547
vt 0.025391 -1.560547
vt 0.003906 -1.499023
vt 0.003906 -1.499023
vt -0.051758 -1.560547
vt 0.019531 -1.560547
vt -0.030273 -1.499023
vt 0.003906 -1.499023
vt -0.012695 -1.660156
vt -0.051758 -1.560547
vt -0.046875 -1.560547
vt -0.012695 -1.660156
vt -0.046875 -1.560547
vt 0.025391 -1.560547
vt -0.012695 -1.660156
vt 0.025391 -1.560547
vt 0.019531 -1.560547
vt -0.012695 -1.660156
vt 0.019531 -1.560547
vt -0.051758 -1.560547
vn 0.6278 -0.5003 0.5964
vn 0.7558 -0.4726 0.4533
vn 0.6955 -0.4508 -0.5595
vn 0.5623 -0.5774 -0.5920
vn 0.6011 0.4880 -0.6329
vn 0.4841 0.5316 -0.6950
vn 0.6156 0.4483 -0.6481
vn 0.8600 0.3495 -0.3717
vn 0.7877 0.4712 -0.3969
vn 0.7550 0.4538 -0.4734
vn 0.7451 0.4255 0.5137
vn 0.5920 0.5773 0.5624
vn 0.5966 0.4997 -0.6280
vn 0.7153 0.4326 -0.5488
vn 0.5882 0.5203 -0.6192
vn 0.2618 0.5747 -0.7753
vn 0.4063 0.5057 -0.7610
vn 0.4276 0.5301 -0.7322
vn 0.4872 0.5581 0.6717
vn 0.3456 0.5975 0.7236
vn 0.4964 0.5696 0.6551
vn 0.7719 0.3720 0.5156
vn 0.6608 0.4116 0.6276
vn 0.6469 0.4517 0.6144
vn 0.6216 -0.5148 0.5904
vn 0.7782 -0.4215 0.4655
vn 0.6082 -0.5445 0.5776
vn 0.1574 -0.5891 0.7926
vn 0.3670 -0.5090 0.7786
vn 0.3908 -0.5453 0.7415
vn 0.3803 -0.5850 -0.7163
vn 0.6180 -0.4415 -0.6505
vn -0.4872 0.5581 -0.6717
vn -0.3456 0.5975 -0.7236
vn -0.4964 0.5696 -0.6551
vn -0.7719 0.3720 -0.5156
vn -0.6608 0.4116 -0.6276
vn -0.6469 0.4517 -0.6144
vn -0.5966 0.4997 0.6280
vn -0.7153 0.4326 0.5488
vn -0.5881 0.5203 0.6191
vn -0.2618 0.5748 0.7753
vn -0.4063 0.5058 0.7610
vn -0.4276 0.5301 0.7322
vn -0.3724 -0.5739 0.7293
vn -0.1384 -0.6210 0.7715
vn -0.3871 -0.5945 0.7048
vn -0.8197 -0.2605 0.5101
vn -0.6496 -0.3324 0.6838
vn -0.6305 -0.4022 0.6638
vn -0.6357 -0.4810 -0.6038
vn -0.8054 -0.3669 -0.4656
vn -0.6216 -0.5149 -0.5904
vn -0.1201 -0.5834 -0.8033
vn -0.3521 -0.4864 -0.7996
vn -0.3778 -0.5255 -0.7623
vn -0.6955 -0.4508 0.5595
vn -0.7712 -0.4024 0.4933
vn -0.6811 -0.4420 0.5837
vn -0.4258 -0.6342 0.6453
vn -0.5308 -0.6370 0.5589
vn -0.5623 -0.5774 0.5920
vn -0.6278 -0.5003 -0.5963
vn -0.5289 -0.5388 -0.6557
vn -0.6414 -0.4661 -0.6093
vn -0.8480 -0.3855 -0.3638
vn -0.7811 -0.4897 -0.3874
vn -0.7558 -0.4726 -0.4533
vn -0.6774 0.4998 -0.5398
vn -0.7247 0.4758 -0.4984
vn -0.6692 0.4934 -0.5556
vn -0.5097 0.6147 -0.6019
vn -0.5702 0.6177 -0.5416
vn -0.5920 0.5773 -0.5623
vn -0.5875 0.5219 0.6185
vn -0.6769 0.5116 0.5292
vn -0.2139 0.3174 0.9238
vn -0.2140 0.3167 0.9241
vn -0.2144 0.3175 0.9237
vn -0.2130 0.3192 0.9234
vn -0.2128 0.3185 0.9237
vn -0.2131 0.3185 0.9237
vn 0.5893 0.3184 0.7425
vn 0.5893 0.3185 0.7425
vn 0.9479 0.3185 0.0022
vn 0.5928 0.3185 -0.7397
vn -0.2088 0.3185 -0.9247
vn -0.8531 0.3185 -0.4133
vn -0.8547 0.3184 0.4100
vn -0.8545 0.3191 0.4099
vn -0.8556 0.3167 0.4095
vn -0.8556 0.3173 0.4089
vn -0.8554 0.3174 0.4094
vn 0.2248 0.0000 -0.9744
vn -0.6217 0.0000 -0.7833
vn -0.6216 0.0000 -0.7833
vn -1.0000 0.0000 -0.0023
vn -0.6253 0.0000 0.7804
vn 0.2202 0.0000 0.9754
vn 0.8999 0.0000 0.4360
vn 0.9020 0.0000 -0.4318
vn 0.0146 -0.9997 -0.0182
vn 0.0052 -0.9997 -0.0227
vn -0.0051 -0.9997 -0.0227
vn -0.0051 -0.9997 -0.0228
vn -0.0021 -1.0000 -0.0081
vn 0.0063 -1.0000 0.0025
vn -0.0010 -1.0000 -0.0096
vn -0.0233 -0.9993 -0.0293
vn -0.0168 -0.9997 -0.0172
vn -0.0145 -0.9997 -0.0183
vn -0.0062 -1.0000 -0.0030
vn -0.0069 -1.0000 -0.0000
vn -0.0062 -1.0000 0.0030
vn -0.0043 -1.0000 0.0054
vn -0.0016 -1.0000 0.0067
vn -0.0016 -1.0000 0.0068
vn 0.0015 -1.0000 0.0067
vn 0.0015 -1.0000 0.0068
vn 0.0043 -1.0000 0.0054
vn 0.0062 -1.0000 0.0030
vn 0.0069 -1.0000 0.0000
vn 0.0189 -0.9997 -0.0128
vn 0.0310 -0.9993 -0.0186
vn 0.0177 -0.9997 -0.0143
vn -0.0065 -1.0000 0.0031
vn 0.0068 -1.0000 -0.0005
vn 0.0062 -1.0000 -0.0030
vn -0.9020 0.0000 0.4318
vn -0.8999 0.0000 -0.4360
vn -0.9000 0.0000 -0.4360
vn -0.2202 0.0000 -0.9754
vn 0.6253 0.0000 -0.7804
vn 1.0000 0.0000 0.0024
vn 0.9000 0.0000 0.4360
vn 0.6216 0.0000 0.7833
vn 0.6217 0.0000 0.7833
vn -0.2248 0.0000 0.9744
vn 0.5945 0.3102 -0.7419
vn 0.5944 0.3106 -0.7418
vn 0.5944 0.3095 -0.7422
vn 0.5945 0.3091 -0.7423
vn 0.8577 0.3096 -0.4106
vn 0.8577 0.3095 -0.4106
vn 0.9509 0.3095 0.0022
vn 0.8558 0.3095 0.4146
vn 0.5911 0.3095 0.7448
vn 0.2094 0.3095 0.9275
vn 0.2094 0.3096 0.9275
vn -0.2141 0.3095 0.9265
vn -0.2141 0.3104 0.9262
vn -0.2138 0.3085 0.9269
vn -0.2139 0.3077 0.9271
vn -0.5948 0.3085 0.7423
vn -0.8578 0.3086 0.4110
vn -0.8580 0.3078 0.4111
vn -0.8577 0.3095 0.4106
vn -0.8574 0.3104 0.4105
vn -0.9509 0.3095 -0.0022
vn -0.8558 0.3095 -0.4146
vn -0.5911 0.3095 -0.7448
vn -0.2094 0.3095 -0.9275
vn -0.2094 0.3096 -0.9275
vn 0.2138 0.3096 -0.9265
vn 0.2138 0.3091 -0.9267
vn 0.2139 0.3102 -0.9263
vn 0.2139 0.3105 -0.9262
vn -0.9449 0.3255 -0.0348
vn -0.9585 0.2828 -0.0353
vn -0.9393 0.3370 -0.0638
vn -0.8922 0.4511 0.0224
vn -0.9104 0.4078 0.0697
vn -0.9185 0.3947 0.0230
vn 0.0451 0.3503 -0.9355
vn 0.0458 0.3056 -0.9511
vn 0.0809 0.3628 -0.9283
vn -0.0225 0.4829 -0.8754
vn -0.0783 0.4375 -0.8958
vn -0.0233 0.4239 -0.9054
vn 0.9449 0.3255 0.0348
vn 0.9585 0.2828 0.0353
vn 0.9394 0.3370 0.0638
vn 0.8922 0.4511 -0.0224
vn 0.9104 0.4078 -0.0697
vn 0.9185 0.3947 -0.0230
vn -0.0451 0.3503 0.9355
vn -0.0458 0.3056 0.9510
vn -0.0808 0.3628 0.9284
vn 0.0225 0.4829 0.8754
vn 0.0783 0.4374 0.8959
vn 0.0233 0.4238 0.9055
vn 0.7850 -0.6188 -0.0288
vn 0.7887 -0.6141 -0.0289
vn 0.7833 -0.6208 -0.0323
vn 0.7702 -0.6375 -0.0193
vn 0.7742 -0.6329 -0.0113
vn 0.7773 -0.6288 -0.0195
vn -0.0366 -0.6484 -0.7604
vn -0.0369 -0.6409 -0.7667
vn -0.0439 -0.6518 -0.7572
vn -0.0189 -0.6784 -0.7345
vn -0.0039 -0.6711 -0.7414
vn -0.0192 -0.6646 -0.7470
vn -0.7853 -0.6184 0.0291
vn -0.7891 -0.6136 0.0292
vn -0.7835 -0.6205 0.0328
vn -0.7700 -0.6377 0.0193
vn -0.7741 -0.6330 0.0111
vn -0.7773 -0.6288 0.0195
vn 0.0366 -0.6484 0.7604
vn 0.0369 -0.6409 0.7667
vn 0.0439 -0.6518 0.7571
vn 0.0189 -0.6784 0.7344
vn 0.0039 -0.6711 0.7414
vn 0.0192 -0.6646 0.7470
vn -0.8624 -0.5052 -0.0318
vn 0.0406 -0.5371 -0.8425
vn 0.8624 -0.5052 0.0318
vn -0.0406 -0.5371 0.8426
usemtl Tex_0038_0.dds
s off
f 1/1/1 3/2/1 2/3/1
f 2/3/2 3/2/2 4/4/2
f 5/5/3 7/6/3 6/7/3
f 6/7/4 7/6/4 8/8/4
f 9/9/5 11/10/6 10/11/7
f 10/11/8 11/10/9 12/12/10
f 13/13/11 15/14/11 14/15/11
f 14/15/12 15/14/12 16/16/12
f 17/17/13 19/18/14 18/19/15
f 18/19/16 19/18/17 20/20/18
f 21/21/19 23/22/20 22/23/21
f 22/23/22 23/22/23 24/24/24
f 25/25/25 27/26/26 26/27/27
f 26/27/28 27/26/29 28/28/30
f 29/29/31 31/30/31 30/31/31
f 30/31/32 31/30/32 32/32/32
f 33/33/33 35/34/34 34/35/35
f 34/35/36 35/34/37 36/36/38
f 37/37/39 39/38/40 38/39/41
f 38/39/42 39/38/43 40/40/44
f 41/41/45 43/42/46 42/43/47
f 42/43/48 43/42/49 44/44/50
f 45/45/51 47/46/52 46/47/53
f 46/47/54 47/46/55 48/48/56
f 49/49/57 51/50/58 50/51/59
f 50/51/60 51/50/61 52/52/62
f 53/53/63 55/54/64 54/55/65
f 54/55/66 55/54/67 56/56/68
f 57/57/69 59/58/70 58/59/71
f 58/59/72 59/58/73 60/60/74
f 61/61/75 63/62/75 62/63/75
f 62/63/76 63/62/76 64/64/76
f 65/65/77 67/66/78 66/67/79
f 66/67/80 67/66/81 68/68/82
f 69/69/83 71/70/83 70/71/83
f 70/71/84 71/70/84 72/72/84
f 73/73/85 75/74/85 74/75/85
f 74/75/85 75/74/85 76/76/85
f 77/77/86 79/78/86 78/79/86
f 78/79/86 79/78/86 80/80/86
f 81/81/87 83/82/87 82/83/87
f 82/83/87 83/82/87 84/84/87
f 85/85/88 87/86/88 86/87/88
f 86/87/88 87/86/88 88/88/88
f 89/89/89 91/90/90 90/91/89
f 90/91/91 91/90/92 92/92/93
f 93/93/94 95/94/94 94/95/94
f 94/95/94 95/94/94 96/96/94
f 97/97/95 99/98/95 98/99/95
f 98/99/96 99/98/96 100/100/96
f 101/101/97 103/102/97 102/103/97
f 102/103/97 103/102/97 104/104/97
f 105/105/98 107/106/98 106/107/98
f 106/107/98 107/106/98 108/108/98
f 109/109/99 111/110/99 110/111/99
f 110/111/99 111/110/99 112/112/99
f 113/113/100 115/114/100 114/115/100
f 114/115/100 115/114/100 116/116/100
f 117/117/101 119/118/101 118/119/101
f 118/119/101 119/118/101 120/120/101
f 121/121/102 123/122/102 122/123/102
f 122/123/102 123/122/102 124/124/102
f 125/125/103 127/126/103 126/127/103
f 126/127/103 127/126/103 128/128/103
f 129/129/104 131/130/104 130/131/104
f 130/131/105 131/130/105 132/132/105
f 133/133/106 135/134/107 134/135/108
f 134/135/109 135/134/110 136/136/111
f 137/137/112 139/138/112 138/139/112
f 138/139/112 139/138/112 140/140/112
f 141/141/113 143/142/113 142/143/113
f 142/143/113 143/142/113 144/144/113
f 145/145/114 147/146/114 146/147/114
f 146/147/114 147/146/114 148/148/114
f 149/149/115 151/150/115 150/151/115
f 150/151/115 151/150/115 152/152/115
f 153/153/116 155/154/116 154/155/116
f 154/155/117 155/154/117 156/156/117
f 157/157/118 159/158/118 158/159/118
f 158/159/119 159/158/119 160/160/119
f 161/161/120 163/162/120 162/163/120
f 162/163/120 163/162/120 164/164/120
f 165/165/121 167/166/121 166/167/121
f 166/167/121 167/166/121 168/168/121
f 169/169/122 171/170/122 170/171/122
f 170/171/122 171/170/122 172/172/122
f 173/173/123 175/174/124 174/175/125
f 174/175/126 175/174/127 176/176/128
f 177/177/98 179/178/98 178/179/98
f 178/179/98 179/178/98 180/180/98
f 181/181/129 183/182/129 182/183/129
f 182/183/129 183/182/129 184/184/129
f 185/185/97 187/186/97 186/187/97
f 186/187/97 187/186/97 188/188/97
f 189/189/130 191/190/130 190/191/130
f 190/191/131 191/190/131 192/192/131
f 193/193/96 195/194/96 194/195/96
f 194/195/95 195/194/95 196/196/95
f 197/197/132 199/198/132 198/199/132
f 198/199/132 199/198/132 200/200/132
f 201/201/94 203/202/94 202/203/94
f 202/203/94 203/202/94 204/204/94
f 205/205/133 207/206/133 206/207/133
f 206/207/133 207/206/133 208/208/133
f 209/209/101 211/210/101 210/211/101
f 210/211/101 211/210/101 212/212/101
f 213/213/134 215/214/134 214/215/134
f 214/215/134 215/214/134 216/216/134
f 217/217/135 219/218/135 218/219/135
f 218/219/135 219/218/135 220/220/135
f 221/221/136 223/222/136 222/223/136
f 222/223/137 223/222/137 224/224/137
f 225/225/99 227/226/99 226/227/99
f 226/227/99 227/226/99 228/228/99
f 229/229/138 231/230/138 230/231/138
f 230/231/138 231/230/138 232/232/138
f 233/233/139 235/234/139 234/235/140
f 234/235/141 235/234/142 236/236/141
f 237/237/143 239/238/143 238/239/143
f 238/239/144 239/238/144 240/240/144
f 241/241/145 243/242/145 242/243/145
f 242/243/145 243/242/145 244/244/145
f 245/245/146 247/246/146 246/247/146
f 246/247/146 247/246/146 248/248/146
f 249/249/147 251/250/147 250/251/147
f 250/251/147 251/250/147 252/252/147
f 253/253/148 255/254/148 254/255/148
f 254/255/149 255/254/149 256/256/149
f 257/257/150 259/258/150 258/259/151
f 258/259/152 259/258/153 260/260/152
f 261/261/154 263/262/154 262/263/154
f 262/263/154 263/262/154 264/264/154
f 265/265/155 267/266/155 266/267/156
f 266/267/157 267/266/158 268/268/157
f 269/269/159 271/270/159 270/271/159
f 270/271/159 271/270/159 272/272/159
f 273/273/160 275/274/160 274/275/160
f 274/275/160 275/274/160 276/276/160
f 277/277/161 279/278/161 278/279/161
f 278/279/161 279/278/161 280/280/161
f 281/281/162 283/282/162 282/283/162
f 282/283/163 283/282/163 284/284/163
f 285/285/164 287/286/164 286/287/165
f 286/287/166 287/286/167 288/288/166
f 289/289/168 291/290/169 290/291/170
f 290/291/171 291/290/172 292/292/173
f 293/293/174 295/294/175 294/295/176
f 294/295/177 295/294/178 296/296/179
f 297/297/180 299/298/181 298/299/182
f 298/299/183 299/298/184 300/300/185
f 301/301/186 303/302/187 302/303/188
f 302/303/189 303/302/190 304/304/191
f 305/305/192 307/306/193 306/307/194
f 306/307/195 307/306/196 308/308/197
f 309/309/198 311/310/199 310/311/200
f 310/311/201 311/310/202 312/312/203
f 313/313/204 315/314/205 314/315/206
f 314/315/207 315/314/208 316/316/209
f 317/317/210 319/318/211 318/319/212
f 318/319/213 319/318/214 320/320/215
f 321/321/216 323/322/216 322/323/216
f 324/324/217 326/325/217 325/326/217
f 327/327/218 329/328/218 328/329/218
f 330/330/219 332/331/219 331/332/219
