# Blender v3.6.3 OBJ File: 'untitled.blend'
# www.blender.org
mtllib Mesh_0361.mtl
o Mesh_0361_Mesh.218
v -9.854273 22.377485 29.639442
v -9.854273 21.814774 28.960518
v -9.854273 22.859983 28.151871
v -9.854273 21.040073 28.447090
v -9.854273 20.054350 28.151871
v -9.854273 21.814774 31.935867
v -9.854273 22.377485 31.256950
v -9.854273 22.859982 32.744499
v -9.854273 22.767323 30.448189
v -9.854273 22.859983 30.448189
v -31.655830 19.837484 47.978508
v -30.976908 19.274771 47.978508
v -30.168262 20.319981 47.978508
v -30.463486 18.500071 47.978508
v -30.168261 17.514349 47.978508
v -33.952263 19.274771 47.978508
v -33.273346 19.837484 47.978508
v -34.760895 20.319981 47.978508
v -32.464581 20.227320 47.978508
v -32.464581 20.319981 47.978508
v -26.575832 19.837484 47.978508
v -25.896908 19.274771 47.978508
v -25.088263 20.319981 47.978508
v -25.383486 18.500071 47.978508
v -25.088261 17.514349 47.978508
v -28.872261 19.274771 47.978508
v -28.193344 19.837484 47.978508
v -29.680895 20.319981 47.978508
v -27.384583 20.227320 47.978508
v -27.384583 20.319981 47.978508
v -9.854273 22.859983 30.448189
v -9.854273 22.767323 30.448189
v -9.854273 22.859983 28.151871
v -9.854273 22.377485 29.639442
v -9.854273 21.814774 31.935867
v -9.854273 22.859982 32.744499
v -9.854273 21.040071 32.449272
v -9.854273 20.054348 32.744499
v -32.464581 20.319981 47.978508
v -32.464581 20.227320 47.978508
v -30.168262 20.319981 47.978508
v -31.655830 19.837484 47.978508
v -33.952263 19.274771 47.978508
v -34.760895 20.319981 47.978508
v -34.465668 18.500071 47.978508
v -34.760895 17.514349 47.978508
v -27.384583 20.319981 47.978508
v -27.384583 20.227320 47.978508
v -25.088263 20.319981 47.978508
v -26.575832 19.837484 47.978508
v -28.872261 19.274771 47.978508
v -29.680895 20.319981 47.978508
v -29.385670 18.500071 47.978508
v -29.680895 17.514349 47.978508
vt 0.647766 -0.828064
vt 0.000000 -0.999451
vt 0.352112 -0.627502
vt 0.128540 -0.351440
vt 0.000000 -0.000061
vt 0.647766 -0.372070
vt 0.999939 -0.000061
vt 0.352112 -0.171509
vt 0.000000 -0.032593
vt 0.000000 -0.000061
vt 0.647766 -0.828064
vt 0.000000 -0.999451
vt 0.352112 -0.627502
vt 0.128540 -0.351440
vt 0.000000 -0.000061
vt 0.647766 -0.372070
vt 0.999939 -0.000061
vt 0.352112 -0.171509
vt 0.000000 -0.032593
vt 0.000000 -0.000061
vt 0.647766 -0.828064
vt 0.000000 -0.999451
vt 0.352112 -0.627502
vt 0.128540 -0.351440
vt 0.000000 -0.000061
vt 0.647766 -0.372070
vt 0.999939 -0.000061
vt 0.352112 -0.171509
vt 0.000000 -0.032593
vt 0.000000 -0.000061
vt 0.999939 -0.999451
vt 0.000000 -0.999451
vt 0.999939 -0.966980
vt 0.647766 -0.828064
vt 0.647766 -0.372070
vt 0.871338 -0.648193
vt 0.999939 -0.000061
vt 0.999939 -0.999451
vt 0.999939 -0.999451
vt 0.000000 -0.999451
vt 0.999939 -0.966980
vt 0.647766 -0.828064
vt 0.647766 -0.372070
vt 0.871338 -0.648193
vt 0.999939 -0.000061
vt 0.999939 -0.999451
vt 0.999939 -0.999451
vt 0.000000 -0.999451
vt 0.999939 -0.966980
vt 0.647766 -0.828064
vt 0.647766 -0.372070
vt 0.871338 -0.648193
vt 0.999939 -0.000061
vt 0.999939 -0.999451
vn -1.0000 0.0000 0.0000
vn 0.0000 0.0000 -1.0000
usemtl Tex_0053_1.dds.012
s off
f 1/1/1 3/2/1 2/3/1
f 2/3/1 3/2/1 4/4/1
f 3/2/1 5/5/1 4/4/1
f 6/6/1 8/7/1 7/8/1
f 7/8/1 8/7/1 9/9/1
f 8/7/1 10/10/1 9/9/1
f 11/11/2 13/12/2 12/13/2
f 12/13/2 13/12/2 14/14/2
f 13/12/2 15/15/2 14/14/2
f 16/16/2 18/17/2 17/18/2
f 17/18/2 18/17/2 19/19/2
f 18/17/2 20/20/2 19/19/2
f 21/21/2 23/22/2 22/23/2
f 22/23/2 23/22/2 24/24/2
f 23/22/2 25/25/2 24/24/2
f 26/26/2 28/27/2 27/28/2
f 27/28/2 28/27/2 29/29/2
f 28/27/2 30/30/2 29/29/2
f 31/31/1 33/32/1 32/33/1
f 32/33/1 33/32/1 34/34/1
f 35/35/1 37/36/1 36/37/1
f 36/37/1 37/36/1 38/38/1
f 39/39/2 41/40/2 40/41/2
f 40/41/2 41/40/2 42/42/2
f 43/43/2 45/44/2 44/45/2
f 44/45/2 45/44/2 46/46/2
f 47/47/2 49/48/2 48/49/2
f 48/49/2 49/48/2 50/50/2
f 51/51/2 53/52/2 52/53/2
f 52/53/2 53/52/2 54/54/2
