# Blender v3.6.3 OBJ File: 'untitled.blend'
# www.blender.org
mtllib Mesh_0285.mtl
o Mesh_0285_Mesh.187
v -9.604584 -0.000006 -24.161781
v -9.604584 -0.000006 -22.891804
v -14.684585 -0.000006 -23.526806
v -14.684585 -0.000006 -22.891804
v -19.764584 -0.000006 -22.891804
v -9.604584 -2.540006 -29.241779
v -9.604584 -2.540006 -27.971806
v -14.684585 -2.540006 -28.606804
v -14.684585 -2.540006 -27.971806
v -19.764584 -2.540006 -27.971806
v -19.764584 -0.000006 -24.161804
v -14.684585 -0.000006 -23.526806
v -19.764584 -0.000006 -22.891804
v -14.684585 -0.678237 -24.779816
v -9.604584 -0.635006 -25.431782
v -9.604584 -0.635006 -24.127819
v -19.764584 -0.635006 -25.431805
v -14.684585 -0.678237 -24.779816
v -19.764584 -0.635006 -24.127819
v -14.684585 -1.313237 -26.049816
v -9.604584 -1.270006 -26.701782
v -9.604584 -1.270006 -25.397820
v -19.764584 -1.270006 -26.701805
v -14.684585 -1.313237 -26.049816
v -19.764584 -1.270006 -25.397820
v -14.684585 -1.948237 -27.319813
v -9.604584 -1.905006 -27.971783
v -9.604584 -1.905006 -26.667820
v -19.764584 -1.905006 -27.971806
v -14.684585 -1.948237 -27.319813
v -19.764584 -1.905006 -26.667820
v -19.764584 -2.540006 -29.241806
v -14.684585 -2.540006 -28.606804
v -19.764584 -2.540006 -27.971806
v -14.684585 -3.218229 -29.859810
v -9.604584 -3.175006 -30.511780
v -9.604584 -3.175006 -29.207821
v -19.764584 -3.175006 -30.511806
v -14.684585 -3.218229 -29.859810
v -19.764584 -3.175006 -29.207821
v -14.684585 -3.853229 -31.129818
v -9.604584 -3.810006 -31.781773
v -9.604584 -3.810006 -30.477821
v -19.764584 -3.810006 -31.781803
v -14.684585 -3.853229 -31.129818
v -19.764584 -3.810006 -30.477821
v -14.684585 -4.488229 -32.399818
v -9.604584 -4.445006 -33.051781
v -9.604584 -4.445006 -31.747807
v -19.764584 -4.445006 -33.051804
v -14.684585 -4.488229 -32.399818
v -19.764584 -4.445006 -31.747822
vt 3.976562 -0.992188
vt 1.979492 -1.250000
vt 3.966797 -1.499023
vt 1.977539 -1.500000
vt -0.010742 -1.501953
vt 3.976562 -0.992188
vt 1.979492 -1.250000
vt 3.966797 -1.499023
vt 1.977539 -1.500000
vt -0.010742 -1.501953
vt -0.005859 -0.995117
vt -0.010742 -1.501953
vt 1.979492 -1.250000
vt 0.970703 -1.240234
vt 2.966797 -1.499023
vt 2.966797 -1.000000
vt -1.031250 -1.000000
vt -1.031250 -1.499023
vt 0.970703 -1.240234
vt 2.025391 0.706055
vt 4.002930 0.498047
vt 4.002930 0.998047
vt -0.030273 0.998047
vt -0.030273 0.498047
vt 2.025391 0.706055
vt -0.012695 -1.764648
vt 1.975586 -1.998047
vt 1.975586 -1.499023
vt -2.023438 -1.499023
vt -2.023438 -1.998047
vt -0.012695 -1.764648
vt -0.005859 -0.995117
vt -0.010742 -1.501953
vt 1.979492 -1.250000
vt 0.970703 -1.240234
vt 2.966797 -1.499023
vt 2.966797 -1.000000
vt -1.031250 -1.000000
vt -1.031250 -1.499023
vt 0.970703 -1.240234
vt 2.025391 0.706055
vt 4.002930 0.498047
vt 4.002930 0.998047
vt -0.030273 0.998047
vt -0.030273 0.498047
vt 2.025391 0.706055
vt -0.012695 -1.764648
vt 1.975586 -1.998047
vt 1.975586 -1.499023
vt -2.023438 -1.499023
vt -2.023438 -1.998047
vt -0.012695 -1.764648
vn 0.0000 1.0000 0.0000
vn -0.0085 1.0000 0.0000
vn 0.0085 1.0000 0.0000
usemtl Tex_0056_1.dds.004
s off
f 1/1/1 3/2/1 2/3/1
f 2/3/1 3/2/1 4/4/1
f 3/2/1 5/5/1 4/4/1
f 6/6/1 8/7/1 7/8/1
f 7/8/1 8/7/1 9/9/1
f 8/7/1 10/10/1 9/9/1
f 11/11/1 13/12/1 12/13/1
f 14/14/2 16/15/2 15/16/2
f 17/17/3 19/18/3 18/19/3
f 20/20/2 22/21/2 21/22/2
f 23/23/3 25/24/3 24/25/3
f 26/26/2 28/27/2 27/28/2
f 29/29/3 31/30/3 30/31/3
f 32/32/1 34/33/1 33/34/1
f 35/35/2 37/36/2 36/37/2
f 38/38/3 40/39/3 39/40/3
f 41/41/2 43/42/2 42/43/2
f 44/44/3 46/45/3 45/46/3
f 47/47/2 49/48/2 48/49/2
f 50/50/3 52/51/3 51/52/3
