# Blender v3.6.3 OBJ File: 'untitled.blend'
# www.blender.org
mtllib Mesh_0380.mtl
o Mesh_0380_Mesh.223
v -39.770561 9.842177 48.228188
v -35.322083 12.025434 48.228188
v -39.770561 17.942034 48.228188
v -35.322083 20.180763 48.228188
v -44.850574 7.302168 48.228188
v -40.402084 9.485435 48.228188
v -44.850574 15.402034 48.228188
v -40.402084 17.640764 48.228188
v -49.930561 4.762178 48.228188
v -45.482082 6.945435 48.228188
v -49.930561 12.862034 48.228188
v -45.482082 15.100764 48.228188
v -55.010574 2.222168 48.228188
v -50.562080 4.405435 48.228188
v -55.010574 10.322035 48.228188
v -50.562080 12.560765 48.228188
vt 0.999023 -1.666016
vt 0.999023 0.162109
vt 0.000000 -1.172852
vt 0.000000 0.666992
vt 0.999023 -1.666016
vt 0.999023 0.162109
vt 0.000000 -1.172852
vt 0.000000 0.666992
vt 0.999023 -1.666016
vt 0.999023 0.162109
vt 0.000000 -1.172852
vt 0.000000 0.666992
vt 0.999023 -1.666016
vt 0.999023 0.162109
vt 0.000000 -1.172852
vt 0.000000 0.666992
vn 0.0000 0.0000 -1.0000
usemtl Tex_0031_1.dds.022
s off
f 1/1/1 3/2/1 2/3/1
f 2/3/1 3/2/1 4/4/1
f 5/5/1 7/6/1 6/7/1
f 6/7/1 7/6/1 8/8/1
f 9/9/1 11/10/1 10/11/1
f 10/11/1 11/10/1 12/12/1
f 13/13/1 15/14/1 14/15/1
f 14/15/1 15/14/1 16/16/1
