# Blender v3.6.3 OBJ File: 'untitled.blend'
# www.blender.org
mtllib Mesh_0254.mtl
o Mesh_0254_Mesh.066
v 67.960556 3.655648 -26.806499
v 67.984474 3.663049 -26.155724
v 67.865410 3.114130 -26.711349
v 67.865410 3.114130 -25.441349
v 67.865410 2.539993 -26.711349
v 67.865410 2.539993 -25.441349
v 66.714493 3.663049 -26.830414
v 67.309792 3.663049 -26.830414
v 66.595421 3.114130 -26.711349
v 67.865410 3.114130 -26.711349
v 66.595421 2.539993 -26.711349
v 67.865410 2.539993 -26.711349
v 67.984474 3.663049 -25.560413
v 68.579788 3.663049 -25.560413
v 67.865410 3.114130 -25.441349
v 69.135422 3.114130 -25.441349
v 67.865410 2.539993 -25.441349
v 69.135422 2.539993 -25.441349
v 42.584480 3.663049 -25.550873
v 43.179787 3.663049 -25.550873
v 42.465424 3.114130 -25.431812
v 45.005409 3.114130 -25.431805
v 42.465424 2.539993 -25.431808
v 45.005417 2.539993 -25.431805
v 46.156357 3.663049 -26.820858
v 46.156349 3.663049 -27.416176
v 46.275421 3.114130 -26.701797
v 46.275421 3.114130 -27.971806
v 46.275421 2.539993 -26.701797
v 46.275421 2.539993 -27.971806
v 17.184473 1.123049 -25.550880
v 17.779787 1.123049 -25.550880
v 17.065413 0.574130 -25.431805
v 19.605413 0.574130 -25.431805
v 17.065413 -0.000006 -25.431805
v 19.605413 -0.000006 -25.431805
v 20.756350 1.123049 -26.820854
v 20.756350 1.123049 -27.416180
v 20.875410 0.574130 -26.701805
v 20.875410 0.574130 -27.971806
v 20.875410 -0.000006 -26.701805
v 20.875410 -0.000006 -27.971806
v -4.643646 1.123049 -26.820881
v -4.643646 1.123049 -27.416180
v -4.524584 0.574130 -26.701805
v -4.524584 0.574130 -27.971806
v -4.524584 -0.000006 -26.701805
v -4.524584 -0.000006 -27.971806
v 66.714493 3.663049 -26.830414
v 66.595421 3.114130 -26.711349
v 66.714493 3.663049 -27.425724
v 66.595421 3.114130 -27.971806
v 66.714478 3.663049 -27.971806
v 42.547546 3.655648 -26.783939
v 42.584473 3.663049 -26.146183
v 42.465416 3.114130 -26.701805
v 42.584480 3.663049 -25.550873
v 42.465424 3.114130 -25.431812
v 44.910271 3.655648 -26.796940
v 45.561035 3.663049 -26.820862
v 45.005409 3.114130 -26.701797
v 46.156357 3.663049 -26.820858
v 46.275421 3.114130 -26.701797
v 41.195419 3.114130 -26.701813
v 41.314484 3.663049 -26.820869
v 42.465416 3.114130 -26.701805
v 41.909790 3.663049 -26.820869
v 42.547546 3.655648 -26.783939
v 45.005409 3.114130 -25.431805
v 44.886360 3.663049 -25.550877
v 45.005409 3.114130 -26.701797
v 44.886353 3.663049 -26.146175
v 44.910271 3.655648 -26.796940
v 41.314484 3.663049 -26.820869
v 41.195419 3.114130 -26.701813
v 41.314476 3.663049 -27.416183
v 41.195419 3.114130 -27.971806
v 41.314484 3.663049 -27.971806
v 17.147543 1.115648 -26.783951
v 17.184473 1.123049 -26.146179
v 17.065413 0.574130 -26.701805
v 17.184473 1.123049 -25.550880
v 17.065413 0.574130 -25.431805
v 19.510267 1.115648 -26.796928
v 20.161036 1.123049 -26.820854
v 19.605413 0.574130 -26.701805
v 20.756350 1.123049 -26.820854
v 20.875410 0.574130 -26.701805
v 15.795412 0.574130 -26.701805
v 15.914476 1.123049 -26.820881
v 17.065413 0.574130 -26.701805
v 16.509787 1.123049 -26.820881
v 17.147543 1.115648 -26.783951
v 19.605413 0.574130 -25.431805
v 19.486349 1.123049 -25.550880
v 19.605413 0.574130 -26.701805
v 19.486349 1.123049 -26.146179
v 19.510267 1.115648 -26.796928
v 15.914476 1.123049 -26.820881
v 15.795412 0.574130 -26.701805
v 15.914476 1.123049 -27.416180
v 15.795412 0.574130 -27.971806
v 15.914476 1.123049 -27.971806
v -5.876715 1.115648 -26.783951
v -5.238960 1.123049 -26.820881
v -5.794584 0.574130 -26.701805
v -4.643646 1.123049 -26.820881
v -4.524584 0.574130 -26.701805
v -5.913647 1.123049 -25.550880
v -5.794584 0.574130 -25.431805
v -6.508959 1.123049 -25.550880
v -8.334585 0.574130 -25.431805
v -7.620209 1.123049 -25.550880
v -5.794584 0.574130 -25.431805
v -5.913647 1.123049 -25.550880
v -5.794584 0.574130 -26.701805
v -5.913647 1.123049 -26.146179
v -5.876715 1.115648 -26.783951
v 69.135422 34.924992 -25.123852
v 67.547920 34.924992 -25.123852
v 69.135422 35.559990 -25.123852
v 67.547920 35.559990 -25.123852
v 67.547920 34.924992 -26.393848
v 67.547920 35.559990 -26.393848
v 67.547920 34.924992 -25.123852
v 67.547920 35.559990 -25.123852
v 67.547920 35.559990 -26.393848
v 67.547920 34.924992 -26.393848
v 66.277916 35.559990 -26.393848
v 66.277916 34.924992 -26.393848
v 66.595421 2.539993 -27.971806
v 66.595421 3.114130 -27.971806
v 66.595421 2.539993 -26.711349
v 66.595421 3.114130 -26.711349
v 66.277916 34.924992 -27.971806
v 66.277916 35.559990 -27.971806
v 66.277916 34.924992 -26.393848
v 66.277916 35.559990 -26.393848
v 44.886360 3.663049 -25.550877
v 45.005409 3.114130 -25.431805
v 44.291046 3.663049 -25.550877
v 43.179787 3.663049 -25.550873
v 45.322922 35.559990 -25.114304
v 45.322922 34.917370 -25.114304
v 42.147911 35.559990 -25.114304
v 42.147919 34.917370 -25.114304
v 42.147919 35.559990 -26.384304
v 42.147911 35.559990 -25.114304
v 42.147911 34.917370 -26.384304
v 42.147919 34.917370 -25.114304
v 45.322922 35.559990 -26.384304
v 45.322914 34.917370 -26.384304
v 45.322922 35.559990 -25.114304
v 45.322922 34.917370 -25.114304
v 42.147919 35.559990 -26.384304
v 42.147911 34.917370 -26.384304
v 40.877914 35.559990 -26.384304
v 40.877922 34.917370 -26.384304
v 42.465424 2.539993 -26.701805
v 41.195419 2.539993 -26.701809
v 42.465416 3.114130 -26.701805
v 41.195419 3.114130 -26.701813
v 42.465424 2.539993 -26.701805
v 42.465416 3.114130 -26.701805
v 42.465424 2.539993 -25.431808
v 42.465424 3.114130 -25.431812
v 45.005409 3.114130 -25.431805
v 45.005409 3.114130 -26.701797
v 45.005417 2.539993 -25.431805
v 45.005417 2.539993 -26.701797
v 45.005417 2.539993 -26.701797
v 45.005409 3.114130 -26.701797
v 46.275421 2.539993 -26.701797
v 46.275421 3.114130 -26.701797
v 45.322914 34.917370 -26.384304
v 45.322922 35.559990 -26.384304
v 46.592911 34.917370 -26.384304
v 46.592918 35.559990 -26.384304
v 40.877922 35.559990 -27.971806
v 40.877914 35.559990 -26.384304
v 40.877922 34.917366 -27.971806
v 40.877922 34.917370 -26.384304
v 41.195419 2.539993 -27.971806
v 41.195419 3.114130 -27.971806
v 41.195419 2.539993 -26.701809
v 41.195419 3.114130 -26.701813
v 46.592918 35.559990 -27.971806
v 46.592918 34.917366 -27.971806
v 46.592918 35.559990 -26.384304
v 46.592911 34.917370 -26.384304
v 19.486349 1.123049 -25.550880
v 19.605413 0.574130 -25.431805
v 18.891035 1.123049 -25.550880
v 17.779787 1.123049 -25.550880
v 19.922911 35.559990 -25.114304
v 19.922911 34.924992 -25.114304
v 16.747911 35.559990 -25.114304
v 16.747911 34.924992 -25.114304
v 16.747911 35.559990 -26.384304
v 16.747911 35.559990 -25.114304
v 16.747911 34.924992 -26.384304
v 16.747911 34.924992 -25.114304
v 19.922911 35.559990 -26.384304
v 19.922911 34.924992 -26.384304
v 19.922911 35.559990 -25.114304
v 19.922911 34.924992 -25.114304
v 16.747911 35.559990 -26.384304
v 16.747911 34.924992 -26.384304
v 15.477911 35.559990 -26.384304
v 15.477911 34.924992 -26.384304
v 17.065413 -0.000006 -26.701805
v 15.795412 -0.000006 -26.701805
v 17.065413 0.574130 -26.701805
v 15.795412 0.574130 -26.701805
v 17.065413 -0.000006 -26.701805
v 17.065413 0.574130 -26.701805
v 17.065413 -0.000006 -25.431805
v 17.065413 0.574130 -25.431805
v 19.605413 0.574130 -25.431805
v 19.605413 0.574130 -26.701805
v 19.605413 -0.000006 -25.431805
v 19.605413 -0.000006 -26.701805
v 19.605413 -0.000006 -26.701805
v 19.605413 0.574130 -26.701805
v 20.875410 -0.000006 -26.701805
v 20.875410 0.574130 -26.701805
v 19.922911 34.924992 -26.384304
v 19.922911 35.559990 -26.384304
v 21.192911 34.924992 -26.384304
v 21.192911 35.559990 -26.384304
v 15.477911 35.559990 -27.971806
v 15.477911 35.559990 -26.384304
v 15.477911 34.924992 -27.971806
v 15.477911 34.924992 -26.384304
v 15.795412 -0.000006 -27.971806
v 15.795412 0.574130 -27.971806
v 15.795412 -0.000006 -26.701805
v 15.795412 0.574130 -26.701805
v 21.192911 35.559990 -27.971806
v 21.192911 34.924992 -27.971806
v 21.192911 35.559990 -26.384304
v 21.192911 34.924992 -26.384304
v -8.652084 35.559990 -25.114304
v -5.477085 35.559990 -25.114304
v -8.652084 34.924992 -25.114304
v -5.477085 34.924992 -25.114304
v -5.477085 35.559990 -26.384304
v -5.477085 34.924992 -26.384304
v -5.477085 35.559990 -25.114304
v -5.477085 34.924992 -25.114304
v -8.652084 35.559990 -26.384304
v -8.652084 35.559990 -25.114304
v -8.652084 34.924992 -26.384304
v -8.652084 34.924992 -25.114304
v -5.477085 35.559990 -26.384304
v -4.207085 35.559990 -26.384304
v -5.477085 34.924992 -26.384304
v -4.207085 34.924992 -26.384304
v -5.794584 -0.000006 -26.701805
v -5.794584 0.574130 -26.701805
v -4.524584 -0.000006 -26.701805
v -4.524584 0.574130 -26.701805
v -5.794584 -0.000006 -26.701805
v -5.794584 -0.000006 -25.431805
v -5.794584 0.574130 -26.701805
v -5.794584 0.574130 -25.431805
v -8.334585 -0.000006 -25.431805
v -8.334585 0.574130 -25.431805
v -5.794584 -0.000006 -25.431805
v -5.794584 0.574130 -25.431805
v -8.652084 34.924992 -26.384304
v -9.922085 34.924992 -26.384304
v -8.652084 35.559990 -26.384304
v -9.922085 35.559990 -26.384304
v -4.207085 35.559990 -27.971806
v -4.207085 34.924992 -27.971806
v -4.207085 35.559990 -26.384304
v -4.207085 34.924992 -26.384304
v -9.922085 35.559990 -27.971806
v -9.922085 35.559990 -26.384304
v -9.922085 34.924992 -27.971806
v -9.922085 34.924992 -26.384304
v 67.960556 3.655648 -26.806499
v 67.865410 3.114130 -26.711349
v 67.309792 3.663049 -26.830414
v 67.984474 3.663049 -26.155724
v 68.579788 3.663049 -25.560413
v 67.984474 3.663049 -25.560413
v 66.714493 3.663049 -26.830414
v 66.714493 3.663049 -27.425724
v 67.309792 3.663049 -26.830414
v 67.984474 3.663049 -26.155724
v 67.984474 3.663049 -25.560413
v 67.865410 3.114130 -25.441349
v 68.579788 3.663049 -25.560413
v 69.135422 3.663049 -25.560413
v 69.135422 3.114130 -25.441349
v 43.179787 3.663049 -25.550873
v 42.584480 3.663049 -25.550873
v 42.584473 3.663049 -26.146183
v 44.886360 3.663049 -25.550877
v 44.291046 3.663049 -25.550877
v 44.886353 3.663049 -26.146175
v 41.909790 3.663049 -26.820869
v 41.314484 3.663049 -26.820869
v 41.314476 3.663049 -27.416183
v 45.561035 3.663049 -26.820862
v 46.156349 3.663049 -27.416176
v 46.156357 3.663049 -26.820858
v 46.156349 3.663049 -27.416176
v 46.156357 3.663049 -27.971806
v 46.275421 3.114130 -27.971806
v 17.779787 1.123049 -25.550880
v 17.184473 1.123049 -25.550880
v 17.184473 1.123049 -26.146179
v 19.486349 1.123049 -25.550880
v 18.891035 1.123049 -25.550880
v 19.486349 1.123049 -26.146179
v 16.509787 1.123049 -26.820881
v 15.914476 1.123049 -26.820881
v 15.914476 1.123049 -27.416180
v 20.161036 1.123049 -26.820854
v 20.756350 1.123049 -27.416180
v 20.756350 1.123049 -26.820854
v 20.756350 1.123049 -27.416180
v 20.756350 1.123049 -27.971806
v 20.875410 0.574130 -27.971806
v -5.913647 1.123049 -25.550880
v -6.508959 1.123049 -25.550880
v -5.913647 1.123049 -26.146179
v -4.643646 1.123049 -26.820881
v -5.238960 1.123049 -26.820881
v -4.643646 1.123049 -27.416180
v -4.524584 0.574130 -27.971806
v -4.643646 1.123049 -27.416180
v -4.643646 1.123049 -27.971806
vt 1.399414 2.245117
vt 1.477539 1.746094
vt 1.774414 2.245117
vt 1.993164 1.746094
vt 1.487305 0.994141
vt 1.990234 0.994141
vt -0.020508 2.245117
vt -0.020508 1.746094
vt 0.197266 2.245117
vt 0.478516 1.746094
vt -0.021484 0.996094
vt 0.481445 0.995117
vt -2.034180 2.245117
vt -2.034180 1.746094
vt -1.816406 2.245117
vt -1.535156 1.746094
vt -2.033203 0.998047
vt -1.530273 0.997070
vt -1.035156 2.245117
vt -1.035156 1.746094
vt -0.817383 2.245117
vt -0.020508 1.746094
vt -1.027344 0.997070
vt -0.021484 0.996094
vt -2.034180 2.245117
vt -2.034180 1.746094
vt -1.816406 2.245117
vt -1.535156 1.746094
vt -2.033203 0.998047
vt -1.530273 0.997070
vt -1.035156 2.245117
vt -1.035156 1.746094
vt -0.817383 2.245117
vt -0.020508 1.746094
vt -1.027344 0.997070
vt -0.021484 0.996094
vt -2.034180 2.245117
vt -2.034180 1.746094
vt -1.816406 2.245117
vt -1.535156 1.746094
vt -2.033203 0.998047
vt -1.530273 0.997070
vt -1.035156 2.245117
vt -1.035156 1.746094
vt -1.238281 2.245117
vt -1.535156 1.746094
vt -1.027344 0.997070
vt -1.530273 0.997070
vt -0.020508 2.245117
vt -0.239258 2.245117
vt -0.020508 1.746094
vt -0.524414 1.746094
vt -0.523438 2.245117
vt -1.582031 2.245117
vt -1.535156 1.746094
vt -1.238281 2.245117
vt -1.035156 2.245117
vt -1.035156 1.746094
vt 1.399414 2.245117
vt 1.477539 1.746094
vt 1.774414 2.245117
vt 1.993164 2.245117
vt 1.993164 1.746094
vt -1.035156 1.746094
vt -0.536133 1.746094
vt -1.035156 2.245117
vt -0.817383 2.245117
vt -0.536133 2.245117
vt -0.020508 1.746094
vt 0.478516 1.746094
vt -0.020508 2.245117
vt 0.197266 2.245117
vt 0.462891 2.245117
vt -1.035156 2.245117
vt -1.238281 2.245117
vt -1.035156 1.746094
vt -1.535156 1.746094
vt -1.597656 2.245117
vt -1.582031 2.245117
vt -1.535156 1.746094
vt -1.238281 2.245117
vt -1.035156 2.245117
vt -1.035156 1.746094
vt 1.399414 2.245117
vt 1.477539 1.746094
vt 1.774414 2.245117
vt 1.993164 2.245117
vt 1.993164 1.746094
vt -1.035156 1.746094
vt -0.536133 1.746094
vt -1.035156 2.245117
vt -0.817383 2.245117
vt -0.536133 2.245117
vt -0.020508 1.746094
vt 0.478516 1.746094
vt -0.020508 2.245117
vt 0.197266 2.245117
vt 0.462891 2.245117
vt -1.035156 2.245117
vt -1.238281 2.245117
vt -1.035156 1.746094
vt -1.535156 1.746094
vt -1.597656 2.245117
vt -0.536133 2.245117
vt -0.536133 1.746094
vt -0.817383 2.245117
vt -1.035156 2.245117
vt -1.035156 1.746094
vt -1.035156 2.245117
vt -0.817383 2.245117
vt -1.035156 1.746094
vt -0.020508 1.746094
vt -0.239258 2.245117
vt -1.035156 1.746094
vt -1.535156 1.746094
vt -1.035156 2.245117
vt -1.238281 2.245117
vt -1.582031 2.245117
vt 2.489258 -2.121094
vt 2.491211 -3.102539
vt 1.989258 -2.122070
vt 1.991211 -3.104492
vt 1.490234 -2.123047
vt 1.989258 -2.122070
vt 1.492188 -3.105469
vt 1.991211 -3.104492
vt 1.492188 -3.105469
vt 1.991211 -3.104492
vt 1.490234 -2.123047
vt 1.989258 -2.122070
vt -0.521484 0.996094
vt -0.021484 0.996094
vt -0.524414 1.746094
vt -0.020508 1.746094
vt 2.486328 -2.121094
vt 1.989258 -2.122070
vt 2.488281 -3.102539
vt 1.991211 -3.104492
vt -0.020508 2.245117
vt -0.239258 2.245117
vt -0.020508 1.746094
vt -0.817383 2.245117
vt 1.991211 -3.104492
vt 2.990234 -3.101562
vt 1.989258 -2.122070
vt 2.988281 -2.119141
vt 2.491211 -3.102539
vt 2.489258 -2.121094
vt 2.990234 -3.101562
vt 2.988281 -2.119141
vt 1.492188 -3.105469
vt 1.991211 -3.104492
vt 1.490234 -2.123047
vt 1.989258 -2.122070
vt 2.490234 -3.102539
vt 2.990234 -3.101562
vt 2.489258 -2.121094
vt 2.988281 -2.119141
vt -0.524414 0.996094
vt -0.536133 1.746094
vt -1.027344 0.997070
vt -1.035156 1.746094
vt -1.530273 0.997070
vt -1.027344 0.997070
vt -1.535156 1.746094
vt -1.035156 1.746094
vt -0.020508 1.746094
vt -0.021484 0.996094
vt 0.478516 1.746094
vt 0.481445 0.995117
vt 1.487305 0.994141
vt 1.990234 0.994141
vt 1.477539 1.746094
vt 1.993164 1.746094
vt 1.490234 -2.123047
vt 1.989258 -2.122070
vt 1.492188 -3.105469
vt 1.991211 -3.104492
vt 2.491211 -3.102539
vt 2.489258 -2.121094
vt 2.990234 -3.101562
vt 2.988281 -2.119141
vt -1.530273 0.997070
vt -1.027344 0.997070
vt -1.535156 1.746094
vt -1.035156 1.746094
vt 2.491211 -3.102539
vt 1.991211 -3.104492
vt 2.489258 -2.121094
vt 1.989258 -2.122070
vt -0.020508 2.245117
vt -0.239258 2.245117
vt -0.020508 1.746094
vt -0.817383 2.245117
vt 1.991211 -3.104492
vt 2.990234 -3.101562
vt 1.989258 -2.122070
vt 2.988281 -2.119141
vt 2.491211 -3.102539
vt 2.489258 -2.121094
vt 2.990234 -3.101562
vt 2.988281 -2.119141
vt 1.492188 -3.105469
vt 1.991211 -3.104492
vt 1.490234 -2.123047
vt 1.989258 -2.122070
vt 2.490234 -3.102539
vt 2.990234 -3.101562
vt 2.489258 -2.121094
vt 2.988281 -2.119141
vt -0.524414 0.996094
vt -0.536133 1.746094
vt -1.027344 0.997070
vt -1.035156 1.746094
vt -1.530273 0.997070
vt -1.027344 0.997070
vt -1.535156 1.746094
vt -1.035156 1.746094
vt -0.020508 1.746094
vt -0.021484 0.996094
vt 0.478516 1.746094
vt 0.481445 0.995117
vt 1.487305 0.994141
vt 1.990234 0.994141
vt 1.477539 1.746094
vt 1.993164 1.746094
vt 1.490234 -2.123047
vt 1.989258 -2.122070
vt 1.492188 -3.105469
vt 1.991211 -3.104492
vt 2.491211 -3.102539
vt 2.489258 -2.121094
vt 2.990234 -3.101562
vt 2.988281 -2.119141
vt -1.530273 0.997070
vt -1.027344 0.997070
vt -1.535156 1.746094
vt -1.035156 1.746094
vt 2.491211 -3.102539
vt 1.991211 -3.104492
vt 2.489258 -2.121094
vt 1.989258 -2.122070
vt 1.991211 -3.104492
vt 1.989258 -2.122070
vt 2.990234 -3.101562
vt 2.988281 -2.119141
vt 2.491211 -3.102539
vt 2.990234 -3.101562
vt 2.489258 -2.121094
vt 2.988281 -2.119141
vt 1.492188 -3.105469
vt 1.490234 -2.123047
vt 1.991211 -3.104492
vt 1.989258 -2.122070
vt 2.490234 -3.102539
vt 2.489258 -2.121094
vt 2.990234 -3.101562
vt 2.988281 -2.119141
vt -0.524414 0.996094
vt -1.027344 0.997070
vt -0.536133 1.746094
vt -1.035156 1.746094
vt -1.530273 0.997070
vt -1.535156 1.746094
vt -1.027344 0.997070
vt -1.035156 1.746094
vt -0.021484 0.996094
vt -1.027344 0.997070
vt -0.020508 1.746094
vt -1.035156 1.746094
vt 1.490234 -2.123047
vt 1.492188 -3.105469
vt 1.989258 -2.122070
vt 1.991211 -3.104492
vt 2.491211 -3.102539
vt 2.990234 -3.101562
vt 2.489258 -2.121094
vt 2.988281 -2.119141
vt 2.491211 -3.102539
vt 2.489258 -2.121094
vt 1.991211 -3.104492
vt 1.989258 -2.122070
vt 0.462891 2.245117
vt 0.197266 2.245117
vt 0.478516 1.746094
vt -2.112305 1.011719
vt -2.362305 1.511719
vt -2.612305 1.011719
vt -2.362305 1.511719
vt -2.612305 1.011719
vt -2.112305 1.011719
vt 1.774414 2.245117
vt 1.993164 1.746094
vt 1.993164 2.245117
vt -1.816406 2.245117
vt -1.535156 1.746094
vt -1.597656 2.245117
vt -2.612305 1.011719
vt -2.112305 1.011719
vt -2.362305 1.511719
vt -2.362305 1.511719
vt -2.612305 1.011719
vt -2.112305 1.011719
vt -2.612305 1.011719
vt -2.112305 1.011719
vt -2.362305 1.511719
vt -2.112305 1.011719
vt -2.362305 1.511719
vt -2.612305 1.011719
vt -1.816406 2.245117
vt -1.535156 1.746094
vt -1.597656 2.245117
vt -2.612305 1.011719
vt -2.112305 1.011719
vt -2.362305 1.511719
vt -2.362305 1.511719
vt -2.612305 1.011719
vt -2.112305 1.011719
vt -2.612305 1.011719
vt -2.112305 1.011719
vt -2.362305 1.511719
vt -2.112305 1.011719
vt -2.362305 1.511719
vt -2.612305 1.011719
vt -1.816406 2.245117
vt -1.535156 1.746094
vt -1.597656 2.245117
vt -2.362305 1.511719
vt -2.112305 1.011719
vt -2.612305 1.011719
vt -2.362305 1.511719
vt -2.112305 1.011719
vt -2.612305 1.011719
vt -1.535156 1.746094
vt -1.597656 2.245117
vt -1.238281 2.245117
vn -0.9833 0.1788 0.0341
vn -0.9970 0.0759 -0.0128
vn -0.9773 0.2120 0.0000
vn -0.9601 0.2750 0.0513
vn -0.9976 -0.0129 -0.0677
vn -1.0000 0.0000 0.0000
vn -0.9915 -0.1186 0.0536
vn 0.0000 0.2120 0.9773
vn -0.1024 0.1613 0.9816
vn -0.0706 0.2983 0.9519
vn 0.0529 0.2625 0.9635
vn -0.0990 -0.0000 0.9951
vn 0.0000 0.0000 1.0000
vn 0.0571 -0.1263 0.9903
vn 0.1007 0.3072 0.9463
vn 0.0294 -0.0650 0.9975
vn 0.0650 0.0294 0.9975
vn 0.0268 0.2961 0.9548
vn 0.0269 -0.1192 0.9925
vn 0.9773 0.2120 -0.0000
vn 0.9816 0.1613 0.1024
vn 0.9519 0.2983 0.0706
vn 0.9463 0.3072 -0.1008
vn 0.9951 0.0000 0.0990
vn 1.0000 0.0000 0.0000
vn 0.9975 -0.0650 -0.0294
vn 0.9975 0.0294 -0.0650
vn -0.0706 0.2984 0.9518
vn 0.0525 0.3755 0.9253
vn 0.0075 -0.0331 0.9994
vn 0.0331 0.0075 0.9994
vn 0.9463 0.3072 -0.1007
vn 0.9635 0.2625 -0.0529
vn 0.9903 -0.1263 -0.0571
vn -0.9859 0.1579 0.0553
vn -0.9825 0.1627 0.0905
vn -0.9934 0.0998 0.0563
vn -0.9812 0.1932 0.0000
vn -0.9684 0.2487 -0.0184
vn -0.9773 0.2119 0.0000
vn -0.9680 0.2505 0.0139
vn 0.0341 0.1788 0.9833
vn 0.0555 0.1822 0.9817
vn 0.0347 0.1431 0.9891
vn -0.0000 0.2004 0.9797
vn -0.0115 0.2349 0.9719
vn 0.0087 0.2361 0.9717
vn -0.0139 0.2505 0.9680
vn 0.0184 0.2487 0.9684
vn 0.0000 0.1932 0.9812
vn -0.0905 0.1627 0.9825
vn -0.0553 0.1579 0.9859
vn -0.0564 0.0998 0.9934
vn 0.9717 0.2361 0.0087
vn 0.9719 0.2349 -0.0115
vn 0.9797 0.2003 -0.0000
vn 0.9817 0.1822 0.0555
vn 0.9833 0.1788 0.0341
vn 0.9891 0.1431 0.0347
vn -0.9934 0.0998 0.0564
vn 0.0341 0.1787 0.9833
vn 0.0556 0.1822 0.9817
vn 0.0000 0.2003 0.9797
vn -0.0115 0.2349 0.9720
vn -0.0139 0.2506 0.9680
vn -0.0905 0.1628 0.9825
vn 0.0553 0.1579 0.9859
vn 0.0905 0.1628 0.9825
vn 0.0564 0.0998 0.9934
vn -0.0184 0.2487 0.9684
vn 0.0139 0.2506 0.9680
vn 0.9680 0.2506 0.0139
vn 0.9684 0.2487 -0.0184
vn 0.9812 0.1932 0.0000
vn 0.9825 0.1627 0.0905
vn 0.9859 0.1579 0.0553
vn 0.9934 0.0998 0.0564
vn -0.0341 0.1788 0.9833
vn 0.0000 1.0000 -0.0000
usemtl Tex_0072_1.dds.002
s off
f 1/1/1 3/2/2 2/3/1
f 2/3/3 3/2/3 4/4/4
f 3/2/5 5/5/6 4/4/7
f 4/4/6 5/5/6 6/6/6
f 7/7/8 9/8/9 8/9/8
f 8/9/8 9/8/10 10/10/11
f 9/8/12 11/11/13 10/10/14
f 10/10/13 11/11/13 12/12/13
f 13/13/8 15/14/9 14/15/8
f 14/15/8 15/14/10 16/16/15
f 15/14/12 17/17/13 16/16/16
f 16/16/17 17/17/13 18/18/13
f 19/19/8 21/20/9 20/21/8
f 20/21/8 21/20/10 22/22/18
f 21/20/12 23/23/13 22/22/19
f 22/22/13 23/23/13 24/24/13
f 25/25/20 27/26/21 26/27/20
f 26/27/20 27/26/22 28/28/23
f 27/26/24 29/29/25 28/28/26
f 28/28/27 29/29/25 30/30/25
f 31/31/8 33/32/9 32/33/8
f 32/33/8 33/32/28 34/34/29
f 33/32/12 35/35/13 34/34/30
f 34/34/31 35/35/13 36/36/13
f 37/37/20 39/38/21 38/39/20
f 38/39/20 39/38/22 40/40/32
f 39/38/24 41/41/25 40/40/26
f 40/40/27 41/41/25 42/42/25
f 43/43/20 45/44/21 44/45/20
f 44/45/20 45/44/22 46/46/33
f 45/44/24 47/47/25 46/46/34
f 46/46/25 47/47/25 48/48/25
f 49/49/3 51/50/3 50/51/3
f 50/51/3 51/50/3 52/52/3
f 51/50/3 53/53/3 52/52/3
f 54/54/35 56/55/36 55/56/37
f 55/56/38 56/55/39 57/57/40
f 56/55/41 58/58/3 57/57/3
f 59/59/42 61/60/43 60/61/44
f 60/61/45 61/60/46 62/62/8
f 61/60/47 63/63/8 62/62/8
f 64/64/8 66/65/48 65/66/8
f 65/66/8 66/65/49 67/67/50
f 66/65/51 68/68/52 67/67/53
f 69/69/20 71/70/54 70/71/20
f 70/71/20 71/70/55 72/72/56
f 71/70/57 73/73/58 72/72/59
f 74/74/3 76/75/3 75/76/3
f 75/76/3 76/75/3 77/77/3
f 76/75/3 78/78/3 77/77/3
f 79/79/35 81/80/36 80/81/60
f 80/81/38 81/80/39 82/82/3
f 81/80/41 83/83/3 82/82/3
f 84/84/61 86/85/62 85/86/44
f 85/86/63 86/85/64 87/87/8
f 86/85/47 88/88/8 87/87/8
f 89/89/8 91/90/65 90/91/8
f 90/91/8 91/90/49 92/92/50
f 91/90/66 93/93/52 92/92/53
f 94/94/20 96/95/54 95/96/20
f 95/96/20 96/95/55 97/97/56
f 96/95/57 98/98/58 97/97/59
f 99/99/3 101/100/3 100/101/3
f 100/101/3 101/100/3 102/102/3
f 101/100/3 103/103/3 102/102/3
f 104/104/67 106/105/68 105/106/69
f 105/106/50 106/105/70 107/107/8
f 106/105/71 108/108/8 107/107/8
f 109/109/8 111/110/8 110/111/8
f 110/111/8 111/110/8 112/112/8
f 111/110/8 113/113/8 112/112/8
f 114/114/20 116/115/72 115/116/20
f 115/116/20 116/115/73 117/117/74
f 116/115/75 118/118/76 117/117/77
f 119/119/13 121/120/13 120/121/13
f 120/121/13 121/120/13 122/122/13
f 123/123/6 125/124/6 124/125/6
f 124/125/6 125/124/6 126/126/6
f 127/127/13 129/128/13 128/129/13
f 128/129/13 129/128/13 130/130/13
f 131/131/6 133/132/6 132/133/6
f 132/133/6 133/132/6 134/134/6
f 135/135/6 137/136/6 136/137/6
f 136/137/6 137/136/6 138/138/6
f 139/139/8 141/140/8 140/141/8
f 140/141/8 141/140/8 142/142/8
f 143/143/13 145/144/13 144/145/13
f 144/145/13 145/144/13 146/146/13
f 147/147/6 149/148/6 148/149/6
f 148/149/6 149/148/6 150/150/6
f 151/151/25 153/152/25 152/153/25
f 152/153/25 153/152/25 154/154/25
f 155/155/13 157/156/13 156/157/13
f 156/157/13 157/156/13 158/158/13
f 159/159/13 161/160/13 160/161/13
f 160/161/13 161/160/13 162/162/13
f 163/163/6 165/164/6 164/165/6
f 164/165/6 165/164/6 166/166/6
f 167/167/25 169/168/25 168/169/25
f 168/169/25 169/168/25 170/170/25
f 171/171/13 173/172/13 172/173/13
f 172/173/13 173/172/13 174/174/13
f 175/175/13 177/176/13 176/177/13
f 176/177/13 177/176/13 178/178/13
f 179/179/6 181/180/6 180/181/6
f 180/181/6 181/180/6 182/182/6
f 183/183/6 185/184/6 184/185/6
f 184/185/6 185/184/6 186/186/6
f 187/187/25 189/188/25 188/189/25
f 188/189/25 189/188/25 190/190/25
f 191/191/8 193/192/8 192/193/8
f 192/193/8 193/192/8 194/194/8
f 195/195/13 197/196/13 196/197/13
f 196/197/13 197/196/13 198/198/13
f 199/199/6 201/200/6 200/201/6
f 200/201/6 201/200/6 202/202/6
f 203/203/25 205/204/25 204/205/25
f 204/205/25 205/204/25 206/206/25
f 207/207/13 209/208/13 208/209/13
f 208/209/13 209/208/13 210/210/13
f 211/211/13 213/212/13 212/213/13
f 212/213/13 213/212/13 214/214/13
f 215/215/6 217/216/6 216/217/6
f 216/217/6 217/216/6 218/218/6
f 219/219/25 221/220/25 220/221/25
f 220/221/25 221/220/25 222/222/25
f 223/223/13 225/224/13 224/225/13
f 224/225/13 225/224/13 226/226/13
f 227/227/13 229/228/13 228/229/13
f 228/229/13 229/228/13 230/230/13
f 231/231/6 233/232/6 232/233/6
f 232/233/6 233/232/6 234/234/6
f 235/235/6 237/236/6 236/237/6
f 236/237/6 237/236/6 238/238/6
f 239/239/25 241/240/25 240/241/25
f 240/241/25 241/240/25 242/242/25
f 243/243/13 245/244/13 244/245/13
f 244/245/13 245/244/13 246/246/13
f 247/247/25 249/248/25 248/249/25
f 248/249/25 249/248/25 250/250/25
f 251/251/6 253/252/6 252/253/6
f 252/253/6 253/252/6 254/254/6
f 255/255/13 257/256/13 256/257/13
f 256/257/13 257/256/13 258/258/13
f 259/259/13 261/260/13 260/261/13
f 260/261/13 261/260/13 262/262/13
f 263/263/25 265/264/25 264/265/25
f 264/265/25 265/264/25 266/266/25
f 267/267/13 269/268/13 268/269/13
f 268/269/13 269/268/13 270/270/13
f 271/271/13 273/272/13 272/273/13
f 272/273/13 273/272/13 274/274/13
f 275/275/25 277/276/25 276/277/25
f 276/277/25 277/276/25 278/278/25
f 279/279/6 281/280/6 280/281/6
f 280/281/6 281/280/6 282/282/6
f 283/283/78 285/284/78 284/285/78
f 286/286/79 288/287/79 287/288/79
f 289/289/79 291/290/79 290/291/79
f 292/292/3 294/293/3 293/294/3
f 295/295/8 297/296/8 296/297/8
f 298/298/79 300/299/79 299/300/79
f 301/301/79 303/302/79 302/303/79
f 304/304/79 306/305/79 305/306/79
f 307/307/79 309/308/79 308/309/79
f 310/310/20 312/311/20 311/312/20
f 313/313/79 315/314/79 314/315/79
f 316/316/79 318/317/79 317/318/79
f 319/319/79 321/320/79 320/321/79
f 322/322/79 324/323/79 323/324/79
f 325/325/20 327/326/20 326/327/20
f 328/328/79 330/329/79 329/330/79
f 331/331/79 333/332/79 332/333/79
f 334/334/20 336/335/20 335/336/20
