# Blender v3.6.3 OBJ File: 'untitled.blend'
# www.blender.org
mtllib Mesh_0179.mtl
o Mesh_0179_Mesh.150
v -22.304649 22.859987 9.639748
v -22.304649 24.119621 9.875465
v -22.304649 22.859989 5.536636
v -22.304649 24.129988 5.300926
v -22.304649 22.859989 5.300926
v -22.304649 22.859989 -10.680248
v -22.304649 24.124807 -10.444534
v -22.304649 22.859987 -14.783363
v -22.304649 24.129986 -15.019077
v -22.304649 22.859987 -15.019077
v -22.304649 24.119621 9.875465
v -22.304649 22.859987 9.639748
v -22.304649 22.859987 9.875465
v -22.304649 24.124807 -10.444534
v -22.304649 22.859989 -10.680248
v -22.304649 22.859989 -10.444534
vt 0.050781 -1.000977
vt 0.949219 -1.000977
vt 0.003906 -0.001953
vt 1.002930 -0.001953
vt 1.002930 -1.000977
vt 0.050781 -1.000977
vt 0.949219 -1.000977
vt 0.003906 -0.001953
vt 1.002930 -0.001953
vt 1.002930 -1.000977
vt 0.003906 -0.001953
vt 0.003906 -1.000977
vt 0.050781 -1.000977
vt 0.003906 -0.001953
vt 0.003906 -1.000977
vt 0.050781 -1.000977
vn 1.0000 0.0000 0.0000
usemtl Tex_0066_1.dds
s off
f 1/1/1 3/2/1 2/3/1
f 2/3/1 3/2/1 4/4/1
f 3/2/1 5/5/1 4/4/1
f 6/6/1 8/7/1 7/8/1
f 7/8/1 8/7/1 9/9/1
f 8/7/1 10/10/1 9/9/1
f 11/11/1 13/12/1 12/13/1
f 14/14/1 16/15/1 15/16/1
