# Blender v3.6.3 OBJ File: 'untitled.blend'
# www.blender.org
mtllib Mesh_0152.mtl
o Mesh_0152_Mesh.021
v 10.209116 3.733053 4.786980
v 10.185774 3.812911 4.708260
v 9.863272 3.733053 4.999046
v 9.803679 3.812911 4.942528
v 9.669798 3.733053 5.355614
v 9.589457 3.812911 5.336334
v 9.680517 3.733053 5.761116
v 9.601801 3.812911 5.784470
v 9.892557 3.733053 6.106972
v 9.836042 3.812911 6.166557
v 10.249121 3.733053 6.300461
v 10.229841 3.812911 6.380775
v 10.654657 3.733053 6.289742
v 10.677977 3.812911 6.368439
v 11.000505 3.733053 6.077682
v 11.060068 3.812911 6.134201
v 11.193972 3.733053 5.721107
v 11.274317 3.812911 5.740387
v 11.183256 3.733053 5.315605
v 10.185774 3.812911 4.708260
v 10.213507 3.909533 4.801788
v 9.803679 3.812911 4.942528
v 9.874472 3.909533 5.009659
v 9.589457 3.812911 5.336334
v 9.684809 3.909533 5.359184
v 9.601801 3.812911 5.784470
v 9.695299 3.909532 5.756752
v 9.836042 3.812911 6.166557
v 9.903173 3.909532 6.095764
v 10.229841 3.812911 6.380775
v 10.252729 3.909532 6.285454
v 10.677977 3.812911 6.368439
v 10.650263 3.909532 6.274933
v 11.060068 3.812911 6.134201
v 10.989302 3.909532 6.067070
v 11.274317 3.812911 5.740387
v 11.178961 3.909533 5.717537
v 11.261969 3.812911 5.292259
v 10.185774 3.812911 -9.851875
v 9.863272 3.733053 -10.142658
v 9.803679 3.812911 -10.086147
v 9.669798 3.733053 -10.499222
v 9.589457 3.812911 -10.479946
v 9.680517 3.733053 -10.904728
v 9.601801 3.812911 -10.928078
v 9.892557 3.733053 -11.250580
v 9.836042 3.812911 -11.310169
v 10.249121 3.733053 -11.444077
v 10.229841 3.812911 -11.524387
v 10.654657 3.733053 -11.433353
v 10.677977 3.812911 -11.512047
v 11.000505 3.733053 -11.221291
v 11.060068 3.812911 -11.277809
v 11.193972 3.733053 -10.864727
v 11.274317 3.812911 -10.884003
v 11.183256 3.733053 -10.459221
v 11.261969 3.812911 -10.435871
v 10.213507 3.909533 -9.945400
v 9.803679 3.812911 -10.086147
v 9.874472 3.909533 -10.153275
v 9.589457 3.812911 -10.479946
v 9.684809 3.909533 -10.502800
v 9.601801 3.812911 -10.928078
v 9.695299 3.909533 -10.900364
v 9.836042 3.812911 -11.310169
v 9.903173 3.909533 -11.239376
v 10.229841 3.812911 -11.524387
v 10.252729 3.909533 -11.429062
v 10.677977 3.812911 -11.512047
v 10.650263 3.909533 -11.418545
v 11.060068 3.812911 -11.277809
v 10.989302 3.909533 -11.210674
v 11.274317 3.812911 -10.884003
v 11.178961 3.909533 -10.861149
v 11.261969 3.812911 -10.435871
v 11.168447 3.909533 -10.463585
v 10.185774 3.812911 4.708260
v 10.209116 3.733053 4.786980
v 10.633905 3.812911 4.695953
v 10.619123 3.733053 4.774658
v 11.027708 3.812911 4.910172
v 10.971220 3.733053 4.969742
v 11.261969 3.812911 5.292259
v 11.183256 3.733053 5.315605
v 11.274317 3.812911 5.740387
v 10.213507 3.909533 4.801788
v 10.185774 3.812911 4.708260
v 10.611048 3.909533 4.791275
v 10.633905 3.812911 4.695953
v 10.960573 3.909533 4.980965
v 11.027708 3.812911 4.910172
v 11.168447 3.909533 5.319977
v 11.261969 3.812911 5.292259
v 11.178961 3.909533 5.717537
v 11.261969 3.812911 -10.435871
v 10.971220 3.733053 -10.113346
v 11.027708 3.812911 -10.053780
v 10.619123 3.733053 -9.918270
v 10.633905 3.812911 -9.839558
v 10.209116 3.733053 -9.930595
v 10.185774 3.812911 -9.851875
v 11.168447 3.909533 -10.463585
v 11.027708 3.812911 -10.053780
v 10.960573 3.909533 -10.124573
v 10.633905 3.812911 -9.839558
v 10.611048 3.909533 -9.934883
v 10.185774 3.812911 -9.851875
v 10.213507 3.909533 -9.945400
v 9.863272 3.733053 -10.142658
v 10.185774 3.812911 -9.851875
v 10.209116 3.733053 -9.930595
v 10.971220 3.733053 -10.113346
v 11.261969 3.812911 -10.435871
v 11.183256 3.733053 -10.459221
v 9.803679 3.812911 -10.086147
v 10.213507 3.909533 -9.945400
v 10.185774 3.812911 -9.851875
v 11.027708 3.812911 -10.053780
v 11.168447 3.909533 -10.463585
v 11.261969 3.812911 -10.435871
vt -0.996094 -0.726562
vt -0.822266 -0.726562
vt -0.996094 -0.398438
vt -0.822266 -0.398438
vt -0.655273 -0.726562
vt -0.655273 -0.398438
vt -0.489258 -0.726562
vt -0.489258 -0.398438
vt -0.323242 -0.726562
vt -0.323242 -0.398438
vt -0.157227 -0.726562
vt -0.157227 -0.398438
vt 0.002930 -0.726562
vt 0.002930 -0.398438
vt 0.175781 -0.726562
vt 0.175781 -0.398438
vt 0.341797 -0.726562
vt 0.341797 -0.398438
vt 0.508789 -0.726562
vt -0.996094 -0.398438
vt -0.822266 -0.398438
vt -0.996094 -0.250000
vt -0.822266 -0.250000
vt -0.655273 -0.398438
vt -0.655273 -0.250000
vt -0.489258 -0.398438
vt -0.489258 -0.250000
vt -0.323242 -0.398438
vt -0.323242 -0.250000
vt -0.157227 -0.398438
vt -0.157227 -0.250000
vt 0.002930 -0.398438
vt 0.002930 -0.250000
vt 0.175781 -0.398438
vt 0.175781 -0.250000
vt 0.341797 -0.398438
vt 0.341797 -0.250000
vt 0.508789 -0.398438
vt -0.996094 -0.398438
vt -0.822266 -0.398438
vt -0.822266 -0.726562
vt -0.655273 -0.726562
vt -0.655273 -0.398438
vt -0.489258 -0.726562
vt -0.489258 -0.398438
vt -0.323242 -0.726562
vt -0.323242 -0.398438
vt -0.157227 -0.726562
vt -0.157227 -0.398438
vt 0.002930 -0.726562
vt 0.002930 -0.398438
vt 0.175781 -0.726562
vt 0.175781 -0.398438
vt 0.341797 -0.726562
vt 0.341797 -0.398438
vt 0.508789 -0.726562
vt 0.508789 -0.398438
vt -0.996094 -0.250000
vt -0.822266 -0.250000
vt -0.822266 -0.398438
vt -0.655273 -0.398438
vt -0.655273 -0.250000
vt -0.489258 -0.398438
vt -0.489258 -0.250000
vt -0.323242 -0.398438
vt -0.323242 -0.250000
vt -0.157227 -0.398438
vt -0.157227 -0.250000
vt 0.002930 -0.398438
vt 0.002930 -0.250000
vt 0.175781 -0.398438
vt 0.175781 -0.250000
vt 0.341797 -0.398438
vt 0.341797 -0.250000
vt 0.508789 -0.398438
vt 0.508789 -0.250000
vt 1.001953 -0.398438
vt 0.840820 -0.398438
vt 1.001953 -0.726562
vt 0.840820 -0.726562
vt 0.674805 -0.398438
vt 0.674805 -0.726562
vt 0.508789 -0.398438
vt 0.508789 -0.726562
vt 0.341797 -0.398438
vt 1.001953 -0.250000
vt 0.840820 -0.250000
vt 1.001953 -0.398438
vt 0.840820 -0.398438
vt 0.674805 -0.250000
vt 0.674805 -0.398438
vt 0.508789 -0.250000
vt 0.508789 -0.398438
vt 0.341797 -0.250000
vt 0.508789 -0.398438
vt 0.674805 -0.398438
vt 0.674805 -0.726562
vt 0.840820 -0.726562
vt 0.840820 -0.398438
vt 1.001953 -0.726562
vt 1.001953 -0.398438
vt 0.508789 -0.250000
vt 0.674805 -0.250000
vt 0.674805 -0.398438
vt 0.840820 -0.398438
vt 0.840820 -0.250000
vt 1.001953 -0.398438
vt 1.001953 -0.250000
vt -0.822266 -0.726562
vt -0.996094 -0.726562
vt -0.996094 -0.398438
vt 0.674805 -0.726562
vt 0.508789 -0.726562
vt 0.508789 -0.398438
vt -0.822266 -0.398438
vt -0.996094 -0.398438
vt -0.996094 -0.250000
vt 0.674805 -0.398438
vt 0.508789 -0.398438
vt 0.508789 -0.250000
vn -0.3709 -0.7047 -0.6049
vn -0.6132 -0.6842 -0.3948
vn -0.3708 -0.7048 -0.6048
vn -0.4264 -0.5782 -0.6956
vn -0.5941 -0.7370 -0.3223
vn -0.7298 -0.6827 -0.0363
vn -0.7565 -0.5513 -0.3518
vn -0.6214 -0.7068 -0.3380
vn -0.7250 -0.5649 -0.3940
vn -0.6735 -0.7390 0.0182
vn -0.6790 -0.7061 0.2007
vn -0.8192 -0.5694 0.0683
vn -0.7592 -0.6346 -0.1447
vn -0.5736 -0.8186 -0.0307
vn -0.8153 -0.5786 0.0225
vn -0.4847 -0.8228 0.2968
vn -0.3948 -0.6842 0.6132
vn -0.6828 -0.5515 0.4791
vn -0.6049 -0.7047 0.3708
vn -0.7050 -0.5625 0.4319
vn -0.3224 -0.7370 0.5941
vn -0.1683 -0.7002 0.6939
vn -0.3509 -0.5668 0.7454
vn -0.5038 -0.6408 0.5793
vn -0.3138 -0.8202 0.4783
vn -0.3941 -0.5648 0.7250
vn 0.0152 -0.8245 0.5656
vn 0.2008 -0.7060 0.6791
vn 0.0683 -0.5693 0.8193
vn -0.1447 -0.6345 0.7593
vn -0.0307 -0.8186 0.5736
vn 0.0227 -0.5627 0.8263
vn 0.2969 -0.8227 0.4848
vn 0.5162 -0.7015 0.4913
vn 0.4699 -0.5668 0.6767
vn 0.2523 -0.6371 0.7284
vn 0.2591 -0.8187 0.5124
vn 0.4265 -0.5782 0.6956
vn 0.4993 -0.8230 0.2709
vn 0.7301 -0.6824 0.0364
vn 0.7566 -0.5511 0.3518
vn 0.6214 -0.7068 0.3381
vn 0.7151 -0.5808 0.3890
vn 0.6735 -0.7390 -0.0182
vn 0.7071 -0.7069 -0.0187
vn 0.8293 -0.5539 -0.0736
vn -0.3742 0.6982 -0.6103
vn -0.5386 0.6233 -0.5669
vn -0.3841 0.5600 -0.7341
vn -0.3004 0.8186 -0.4896
vn -0.7313 0.5540 -0.3978
vn -0.7509 0.6216 -0.2230
vn -0.5366 0.8124 -0.2281
vn -0.5138 0.7058 -0.4876
vn -0.6986 0.5619 -0.4430
vn -0.5028 0.8201 -0.2731
vn -0.8312 0.5554 0.0226
vn -0.7570 0.6269 0.1841
vn -0.5766 0.8138 0.0726
vn -0.6940 0.7006 -0.1656
vn -0.8281 0.5596 -0.0348
vn -0.5741 0.8187 0.0152
vn -0.7100 0.5534 0.4356
vn -0.5671 0.6231 0.5387
vn -0.4654 0.8124 0.3514
vn -0.6821 0.7026 0.2025
vn -0.7340 0.5600 0.3842
vn -0.4896 0.8186 0.3005
vn -0.3979 0.5540 0.7313
vn -0.2229 0.6217 0.7509
vn -0.2281 0.8124 0.5366
vn -0.4876 0.7058 0.5139
vn -0.4430 0.5619 0.6986
vn -0.2731 0.8202 0.5028
vn 0.0226 0.5552 0.8314
vn 0.1840 0.6267 0.7572
vn 0.0726 0.8137 0.5768
vn -0.1655 0.7007 0.6939
vn -0.0347 0.5596 0.8280
vn 0.0152 0.8187 0.5740
vn 0.4355 0.5534 0.7100
vn 0.3742 0.6981 0.6104
vn 0.3514 0.8124 0.4654
vn 0.2026 0.7026 0.6822
vn 0.3742 0.6982 0.6104
vn 0.3539 0.7365 0.5765
vn 0.6288 0.6982 0.3421
vn 0.7511 0.6214 0.2231
vn 0.4238 0.6942 0.5818
vn 0.6986 0.5619 0.4429
vn 0.5159 0.8096 0.2799
vn 0.8313 0.5554 -0.0227
vn 0.7139 0.6999 -0.0197
vn 0.5621 0.8235 -0.0774
vn -0.3708 -0.7047 0.6048
vn -0.4320 -0.5625 0.7050
vn -0.2498 -0.8267 0.5042
vn -0.5099 -0.8146 0.2766
vn -0.7454 -0.5668 0.3509
vn -0.6939 -0.7001 0.1683
vn -0.5792 -0.6410 0.5037
vn -0.7250 -0.5649 0.3941
vn -0.4783 -0.8202 0.3138
vn -0.5655 -0.8246 -0.0152
vn -0.8192 -0.5694 -0.0683
vn -0.6790 -0.7061 -0.2007
vn -0.7592 -0.6346 0.1447
vn -0.8262 -0.5629 -0.0228
vn -0.5736 -0.8186 0.0307
vn -0.4847 -0.8228 -0.2969
vn -0.6767 -0.5670 -0.4697
vn -0.4911 -0.7019 -0.5159
vn -0.7284 -0.6369 -0.2525
vn -0.7050 -0.5625 -0.4319
vn -0.5123 -0.8187 -0.2592
vn -0.2709 -0.8231 -0.4991
vn -0.3509 -0.5668 -0.7454
vn -0.1683 -0.7001 -0.6939
vn -0.5038 -0.6407 -0.5793
vn -0.3941 -0.5648 -0.7251
vn -0.3138 -0.8202 -0.4784
vn 0.0152 -0.8245 -0.5656
vn 0.0683 -0.5693 -0.8193
vn 0.2008 -0.7060 -0.6791
vn -0.1447 -0.6345 -0.7593
vn 0.0227 -0.5627 -0.8263
vn -0.0307 -0.8185 -0.5737
vn 0.2970 -0.8227 -0.4848
vn 0.4698 -0.5667 -0.6768
vn 0.5161 -0.7017 -0.4912
vn 0.2524 -0.6370 -0.7284
vn 0.4319 -0.5624 -0.7051
vn 0.2592 -0.8187 -0.5124
vn 0.4993 -0.8230 -0.2709
vn 0.7455 -0.5666 -0.3510
vn 0.6941 -0.6999 -0.1684
vn 0.5790 -0.6410 -0.5038
vn 0.7249 -0.5649 -0.3941
vn 0.4782 -0.8202 -0.3139
vn 0.5655 -0.8246 0.0152
vn 0.8192 -0.5695 0.0683
vn 0.7052 -0.7087 0.0186
vn 0.7592 -0.6345 -0.1447
vn 0.7092 -0.7047 0.0195
vn -0.3742 0.6982 0.6103
vn -0.3005 0.8185 0.4896
vn -0.3844 0.5410 0.7480
vn -0.7196 0.5735 0.3915
vn -0.5366 0.8124 0.2281
vn -0.7509 0.6216 0.2230
vn -0.5138 0.7059 0.4876
vn -0.5028 0.8201 0.2731
vn -0.6986 0.5620 0.4429
vn -0.8313 0.5554 -0.0227
vn -0.5766 0.8138 -0.0726
vn -0.7570 0.6269 -0.1841
vn -0.6941 0.7006 0.1656
vn -0.5741 0.8187 -0.0152
vn -0.8281 0.5595 0.0348
vn -0.7100 0.5533 -0.4356
vn -0.4654 0.8124 -0.3513
vn -0.5671 0.6231 -0.5387
vn -0.6821 0.7027 -0.2025
vn -0.4896 0.8186 -0.3005
vn -0.7340 0.5600 -0.3842
vn -0.3978 0.5540 -0.7313
vn -0.2282 0.8124 -0.5366
vn -0.2229 0.6216 -0.7509
vn -0.4876 0.7058 -0.5138
vn -0.2731 0.8202 -0.5027
vn -0.4430 0.5619 -0.6986
vn 0.0227 0.5552 -0.8314
vn 0.0725 0.8137 -0.5767
vn 0.1840 0.6267 -0.7572
vn -0.1655 0.7007 -0.6940
vn 0.0156 0.8081 -0.5888
vn -0.0347 0.5596 -0.8280
vn 0.4356 0.5534 -0.7100
vn 0.3484 0.8221 -0.4503
vn 0.6344 0.5638 -0.5288
vn 0.3742 0.6982 -0.6103
vn 0.3005 0.8185 -0.4896
vn 0.6684 0.6488 -0.3637
vn 0.5366 0.8124 -0.2282
vn 0.7510 0.6214 -0.2231
vn 0.5137 0.7060 -0.4875
vn 0.5028 0.8201 -0.2731
vn 0.6986 0.5619 -0.4429
vn 0.8313 0.5554 0.0226
vn 0.5766 0.8138 0.0726
vn 0.7125 0.7014 0.0196
vn 0.6939 0.7008 -0.1656
vn 0.7157 0.6982 0.0189
vn 0.7158 0.6981 0.0185
vn -0.0195 -0.7048 -0.7092
vn 0.1476 -0.6462 -0.7488
vn -0.0184 -0.7046 -0.7093
vn -0.0216 -0.6954 -0.7183
vn -0.0718 -0.5613 -0.8245
vn -0.0154 -0.8237 -0.5668
vn 0.4033 -0.5384 -0.7399
vn 0.5147 -0.6081 -0.6045
vn 0.3203 -0.8076 -0.4952
vn 0.1678 -0.7118 -0.6820
vn 0.3586 -0.5706 -0.7388
vn 0.2759 -0.8220 -0.4982
vn 0.7030 -0.5642 -0.4331
vn 0.7286 -0.6367 -0.2526
vn 0.5144 -0.8167 -0.2615
vn 0.4933 -0.7022 -0.5133
vn 0.6767 -0.5670 -0.4696
vn 0.4949 -0.8143 -0.3034
vn 0.8262 -0.5628 -0.0228
vn 0.7092 -0.7047 -0.0195
vn 0.5619 -0.8265 0.0349
vn -0.0189 0.6982 -0.7157
vn 0.1656 0.7009 -0.6938
vn -0.0196 0.7011 -0.7127
vn -0.0726 0.8137 -0.5768
vn -0.0225 0.5553 -0.8314
vn 0.2732 0.8201 -0.5028
vn 0.4877 0.7057 -0.5140
vn 0.4430 0.5618 -0.6986
vn 0.2229 0.6217 -0.7509
vn 0.2282 0.8124 -0.5366
vn 0.3978 0.5540 -0.7313
vn 0.4896 0.8186 -0.3005
vn 0.6822 0.7026 -0.2026
vn 0.7341 0.5600 -0.3841
vn 0.5670 0.6232 -0.5387
vn 0.4653 0.8124 -0.3513
vn 0.6987 0.5729 -0.4284
vn 0.5740 0.8187 -0.0152
vn 0.7157 0.6982 -0.0189
vn 0.8402 0.5406 0.0411
vn 0.6050 -0.7046 0.3709
vn 0.7030 -0.5642 0.4331
vn 0.5063 -0.8246 0.2523
vn 0.2818 -0.8136 0.5085
vn 0.3585 -0.5706 0.7389
vn 0.1678 -0.7117 0.6821
vn 0.5147 -0.6082 0.6044
vn 0.4032 -0.5384 0.7399
vn 0.3203 -0.8076 0.4951
vn -0.0154 -0.8238 0.5667
vn -0.0718 -0.5613 0.8245
vn -0.0216 -0.6954 0.7183
vn 0.1475 -0.6462 0.7488
vn -0.0195 -0.7048 0.7092
vn -0.0185 -0.7046 0.7093
vn 0.6103 0.6982 0.3742
vn 0.4896 0.8186 0.3004
vn 0.7480 0.5410 0.3844
vn 0.3915 0.5735 0.7196
vn 0.2281 0.8124 0.5366
vn 0.2229 0.6217 0.7509
vn 0.4877 0.7057 0.5140
vn 0.2731 0.8201 0.5028
vn 0.4430 0.5618 0.6986
vn -0.0226 0.5553 0.8313
vn -0.0725 0.8137 0.5767
vn -0.0196 0.7012 0.7127
vn 0.1655 0.7009 0.6938
vn -0.0189 0.6982 0.7157
vn -0.0184 0.6981 0.7158
vn -0.3709 -0.7047 0.6049
vn 0.6049 -0.7047 0.3708
vn 0.6104 0.6981 0.3742
usemtl Tex_0048_0.dds
s off
f 1/1/1 3/2/2 2/3/1
f 2/3/3 3/2/3 4/4/4
f 3/2/5 5/5/6 4/4/7
f 4/4/8 5/5/8 6/6/9
f 5/5/10 7/7/11 6/6/12
f 6/6/13 7/7/14 8/8/15
f 7/7/16 9/9/17 8/8/18
f 8/8/19 9/9/19 10/10/20
f 9/9/21 11/11/22 10/10/23
f 10/10/24 11/11/25 12/12/26
f 11/11/27 13/13/28 12/12/29
f 12/12/30 13/13/31 14/14/32
f 13/13/33 15/15/34 14/14/35
f 14/14/36 15/15/37 16/16/38
f 15/15/39 17/17/40 16/16/41
f 16/16/42 17/17/42 18/18/43
f 17/17/44 19/19/45 18/18/46
f 20/20/47 22/21/48 21/22/47
f 21/22/47 22/21/49 23/23/50
f 22/21/51 24/24/52 23/23/53
f 23/23/54 24/24/55 25/25/56
f 24/24/57 26/26/58 25/25/59
f 25/25/60 26/26/61 27/27/62
f 26/26/63 28/28/64 27/27/65
f 27/27/66 28/28/67 29/29/68
f 28/28/69 30/30/70 29/29/71
f 29/29/72 30/30/73 31/31/74
f 30/30/75 32/32/76 31/31/77
f 31/31/78 32/32/79 33/33/80
f 32/32/81 34/34/82 33/33/83
f 33/33/84 34/34/85 35/35/86
f 34/34/87 36/36/88 35/35/87
f 35/35/89 36/36/90 37/37/91
f 36/36/92 38/38/93 37/37/94
f 39/39/95 41/40/96 40/41/97
f 40/41/98 41/40/99 42/42/100
f 41/40/101 43/43/102 42/42/103
f 42/42/104 43/43/105 44/44/106
f 43/43/107 45/45/108 44/44/109
f 44/44/110 45/45/111 46/46/112
f 45/45/113 47/47/114 46/46/115
f 46/46/116 47/47/117 48/48/118
f 47/47/119 49/49/120 48/48/121
f 48/48/122 49/49/123 50/50/124
f 49/49/125 51/51/126 50/50/127
f 50/50/128 51/51/129 52/52/130
f 51/51/131 53/53/132 52/52/133
f 52/52/134 53/53/135 54/54/136
f 53/53/137 55/55/138 54/54/139
f 54/54/140 55/55/141 56/56/142
f 55/55/143 57/57/144 56/56/144
f 58/58/145 60/59/146 59/60/147
f 59/60/148 60/59/149 61/61/150
f 60/59/151 62/62/152 61/61/153
f 61/61/154 62/62/155 63/63/156
f 62/62/157 64/64/158 63/63/159
f 63/63/160 64/64/161 65/65/162
f 64/64/163 66/66/164 65/65/165
f 65/65/166 66/66/167 67/67/168
f 66/66/169 68/68/170 67/67/171
f 67/67/172 68/68/173 69/69/174
f 68/68/175 70/70/176 69/69/177
f 69/69/178 70/70/179 71/71/180
f 70/70/181 72/72/182 71/71/181
f 71/71/183 72/72/184 73/73/185
f 72/72/186 74/74/187 73/73/188
f 73/73/189 74/74/190 75/75/191
f 74/74/192 76/76/193 75/75/194
f 77/77/195 79/78/196 78/79/197
f 78/79/198 79/78/199 80/80/200
f 79/78/201 81/81/202 80/80/203
f 80/80/204 81/81/205 82/82/206
f 81/81/207 83/83/208 82/82/209
f 82/82/210 83/83/211 84/84/212
f 83/83/213 85/85/214 84/84/215
f 86/86/216 88/87/217 87/88/216
f 87/88/218 88/87/219 89/89/220
f 88/87/221 90/90/222 89/89/223
f 89/89/224 90/90/225 91/91/226
f 90/90/227 92/92/228 91/91/229
f 91/91/230 92/92/231 93/93/232
f 92/92/233 94/94/234 93/93/235
f 95/95/236 97/96/237 96/97/238
f 96/97/239 97/96/240 98/98/241
f 97/96/242 99/99/243 98/98/244
f 98/98/245 99/99/246 100/100/247
f 99/99/248 101/101/249 100/100/250
f 102/102/251 104/103/252 103/104/253
f 103/104/254 104/103/255 105/105/256
f 104/103/257 106/106/258 105/105/259
f 105/105/260 106/106/261 107/107/262
f 106/106/263 108/108/264 107/107/265
f 109/109/266 111/110/266 110/111/266
f 112/112/267 114/113/267 113/114/267
f 115/115/145 117/116/145 116/117/145
f 118/118/268 120/119/268 119/120/268
