# Blender v3.6.3 OBJ File: 'untitled.blend'
# www.blender.org
mtllib Mesh_0153.mtl
o Mesh_0153_Mesh.134
v 9.695299 3.909532 5.756752
v 9.684809 3.909533 5.359184
v 10.611048 3.909533 4.791275
v 9.874472 3.909533 5.009659
v 10.213507 3.909533 4.801788
v 10.650263 3.909532 6.274933
v 10.252729 3.909532 6.285454
v 10.611048 3.909533 4.791275
v 9.903173 3.909532 6.095764
v 9.695299 3.909532 5.756752
v 11.168447 3.909533 5.319977
v 11.178961 3.909533 5.717537
v 10.611048 3.909533 4.791275
v 10.989302 3.909532 6.067070
v 10.650263 3.909532 6.274933
v 10.213507 3.909533 -9.945400
v 9.874472 3.909533 -10.153275
v 10.611048 3.909533 -9.934883
v 9.684809 3.909533 -10.502800
v 9.695299 3.909533 -10.900364
v 9.695299 3.909533 -10.900364
v 9.903173 3.909533 -11.239376
v 10.611048 3.909533 -9.934883
v 10.252729 3.909533 -11.429062
v 10.650263 3.909533 -11.418545
v 10.650263 3.909533 -11.418545
v 10.989302 3.909533 -11.210674
v 10.611048 3.909533 -9.934883
v 11.178961 3.909533 -10.861149
v 11.168447 3.909533 -10.463585
v 10.611048 3.909533 4.791275
v 10.960573 3.909533 4.980965
v 11.168447 3.909533 5.319977
v 10.960573 3.909533 -10.124573
v 10.611048 3.909533 -9.934883
v 11.168447 3.909533 -10.463585
vt 0.249939 -0.066956
vt 0.999939 -0.499939
vt 0.499939 0.000000
vt 0.749939 -0.066956
vt 0.932922 -0.249939
vt 0.066956 -0.749939
vt 0.999939 -0.499939
vt 0.000000 -0.499939
vt 0.066956 -0.249939
vt 0.249939 -0.066956
vt 0.749939 -0.932922
vt 0.999939 -0.499939
vt 0.499939 -0.999939
vt 0.249939 -0.932922
vt 0.066956 -0.749939
vt 0.932922 -0.249939
vt 0.999939 -0.499939
vt 0.749939 -0.066956
vt 0.499939 0.000000
vt 0.249939 -0.066956
vt 0.249939 -0.066956
vt 0.999939 -0.499939
vt 0.066956 -0.249939
vt 0.000000 -0.499939
vt 0.066956 -0.749939
vt 0.066956 -0.749939
vt 0.999939 -0.499939
vt 0.249939 -0.932922
vt 0.499939 -0.999939
vt 0.749939 -0.932922
vt 0.999939 -0.499939
vt 0.749939 -0.932922
vt 0.932922 -0.749939
vt 0.932922 -0.749939
vt 0.749939 -0.932922
vt 0.999939 -0.499939
vn 0.0000 1.0000 0.0000
usemtl Tex_0049_1.dds
s off
f 1/1/1 3/2/1 2/3/1
f 2/3/1 3/2/1 4/4/1
f 3/2/1 5/5/1 4/4/1
f 6/6/1 8/7/1 7/8/1
f 7/8/1 8/7/1 9/9/1
f 8/7/1 10/10/1 9/9/1
f 11/11/1 13/12/1 12/13/1
f 12/13/1 13/12/1 14/14/1
f 13/12/1 15/15/1 14/14/1
f 16/16/1 18/17/1 17/18/1
f 17/18/1 18/17/1 19/19/1
f 18/17/1 20/20/1 19/19/1
f 21/21/1 23/22/1 22/23/1
f 22/23/1 23/22/1 24/24/1
f 23/22/1 25/25/1 24/24/1
f 26/26/1 28/27/1 27/28/1
f 27/28/1 28/27/1 29/29/1
f 28/27/1 30/30/1 29/29/1
f 31/31/1 33/32/1 32/33/1
f 34/34/1 36/35/1 35/36/1
