# Blender v3.6.3 OBJ File: 'untitled.blend'
# www.blender.org
mtllib Mesh_0205.mtl
o Mesh_0205_Mesh.043
v -22.936600 35.130981 -2.571800
v -22.936598 35.291767 -1.143883
v -22.934566 41.547787 -2.571800
v -22.936600 35.766235 0.212425
v -22.936602 36.530777 1.429108
v -22.936602 36.530777 1.429108
v -22.936602 37.547031 2.445160
v -22.934566 41.547787 -2.571800
v -22.936598 38.763691 3.209648
v -22.936596 40.119793 3.684242
v -22.936596 40.119793 3.684242
v -22.936598 41.547787 3.845100
v -22.934566 41.547787 -2.571800
vt 1.000000 -1.000977
vt 1.000000 -0.001953
vt 0.778320 -0.975586
vt 0.567383 -0.902344
vt 0.377930 -0.783203
vt 0.377930 -0.783203
vt 1.000000 -0.001953
vt 0.219727 -0.625000
vt 0.100586 -0.435547
vt 0.027344 -0.224609
vt 0.027344 -0.224609
vt 1.000000 -0.001953
vt 0.000977 -0.001953
vn 1.0000 -0.0003 0.0000
vn 1.0000 -0.0003 0.0001
vn 1.0000 -0.0003 0.0002
vn 1.0000 -0.0002 0.0002
vn 1.0000 -0.0002 0.0003
vn 1.0000 -0.0001 0.0003
vn 1.0000 -0.0000 0.0003
usemtl Tex_0083_0.dds
s off
f 1/1/1 3/2/1 2/3/1
f 2/3/2 3/2/2 4/4/2
f 3/2/3 5/5/3 4/4/3
f 6/6/4 8/7/4 7/8/4
f 7/8/5 8/7/5 9/9/5
f 8/7/6 10/10/6 9/9/6
f 11/11/7 13/12/7 12/13/7
