# Blender v3.6.3 OBJ File: 'untitled.blend'
# www.blender.org
mtllib Mesh_0143.mtl
o Mesh_0143_Mesh.013
v 15.107355 27.912504 1.535019
v 14.859552 27.912523 1.634079
v 14.897726 27.919794 1.370125
v 17.208899 27.912504 2.528915
v 17.028601 27.912523 2.725700
v 16.948484 27.919794 2.471313
v 19.533548 27.912504 2.512558
v 19.456488 27.912523 2.768082
v 19.273932 27.919794 2.573647
v 21.620901 27.912504 1.489227
v 21.662329 27.912523 1.752869
v 21.413488 27.919794 1.656883
v 23.057531 27.912504 -0.338448
v 23.209265 27.912523 -0.118881
v 22.943434 27.919794 -0.097389
v 23.558920 27.912502 -2.608444
v 23.790880 27.912521 -2.476463
v 23.560705 27.919792 -2.341743
v 23.025751 27.912504 -4.871193
v 23.291994 27.912523 -4.852913
v 23.143072 27.919794 -4.631668
v 21.563601 27.912504 -6.678535
v 21.811426 27.912523 -6.777596
v 21.773226 27.919794 -6.513634
v 19.462107 27.912504 -7.672478
v 19.642408 27.912523 -7.869259
v 19.722517 27.919794 -7.614872
v 17.137453 27.912504 -7.656227
v 17.214521 27.912523 -7.911747
v 17.397074 27.919794 -7.717289
v 15.050077 27.912504 -6.632942
v 15.008646 27.912523 -6.896591
v 15.257467 27.919794 -6.800629
v 13.613379 27.912504 -4.805336
v 13.461637 27.912523 -5.024902
v 13.727499 27.919794 -5.046394
v 13.111902 27.912502 -2.535347
v 12.879953 27.912521 -2.667351
v 13.110128 27.919792 -2.802048
v 13.645002 27.912504 -0.272583
v 13.378729 27.912523 -0.290871
v 13.527700 27.919794 -0.512115
v 16.137869 29.911663 -1.305000
v 15.871599 29.911688 -1.323288
v 16.020552 29.918951 -1.544525
v 17.955671 29.911663 -0.063858
v 17.775358 29.911688 0.132912
v 17.695261 29.918951 -0.121483
v 20.059420 29.911663 -0.711220
v 20.100840 29.911688 -0.447548
v 19.852003 29.918951 -0.543541
v 20.864988 29.911661 -2.759598
v 21.096952 29.911686 -2.627594
v 20.866751 29.918949 -2.492897
v 19.765772 29.911663 -4.666580
v 20.013605 29.911688 -4.765625
v 19.975386 29.918951 -4.501671
v 17.589491 29.911663 -4.996185
v 17.666578 29.911688 -5.251717
v 17.849112 29.918951 -5.057251
v 15.974890 29.911661 -3.500221
v 15.823187 29.911686 -3.719803
v 16.089029 29.918949 -3.741272
vt 0.371704 0.008789
vt 1.285889 -0.396423
vt -0.035095 -0.896423
vt 0.371704 0.008789
vt 1.285889 -0.396423
vt -0.035095 -0.896423
vt 0.371704 0.008789
vt 1.285889 -0.396423
vt -0.035095 -0.896423
vt 0.371704 0.008789
vt 1.285889 -0.396423
vt -0.035095 -0.896423
vt 0.371704 0.008789
vt 1.285889 -0.396423
vt -0.035095 -0.896423
vt 0.371704 0.008789
vt 1.285889 -0.396423
vt -0.035095 -0.896423
vt 0.371704 0.008789
vt 1.285889 -0.396423
vt -0.035095 -0.896423
vt 0.371704 0.008789
vt 1.285889 -0.396423
vt -0.035095 -0.896423
vt 0.371704 0.008789
vt 1.285889 -0.396423
vt -0.035095 -0.896423
vt 0.371704 0.008789
vt 1.285889 -0.396423
vt -0.035095 -0.896423
vt 0.371704 0.008789
vt 1.285889 -0.396423
vt -0.035095 -0.896423
vt 0.371704 0.008789
vt 1.285889 -0.396423
vt -0.035095 -0.896423
vt 0.371704 0.008789
vt 1.285889 -0.396423
vt -0.035095 -0.896423
vt 0.371704 0.008789
vt 1.285889 -0.396423
vt -0.035095 -0.896423
vt 0.371704 0.008789
vt 1.285889 -0.396423
vt -0.035095 -0.896423
vt 0.371704 0.008789
vt 1.285889 -0.396423
vt -0.035095 -0.896423
vt 0.371704 0.008789
vt 1.285889 -0.396423
vt -0.035095 -0.896423
vt 0.371704 0.008789
vt 1.285889 -0.396423
vt -0.035095 -0.896423
vt 0.371704 0.008789
vt 1.285889 -0.396423
vt -0.035095 -0.896423
vt 0.371704 0.008789
vt 1.285889 -0.396423
vt -0.035095 -0.896423
vt 0.371704 0.008789
vt 1.285889 -0.396423
vt -0.035095 -0.896423
vn 0.0118 0.9995 0.0292
vn 0.0233 0.9995 0.0212
vn 0.0302 0.9995 0.0090
vn 0.0311 0.9995 -0.0050
vn 0.0259 0.9995 -0.0180
vn 0.0155 0.9995 -0.0274
vn 0.0021 0.9995 -0.0314
vn -0.0118 0.9995 -0.0292
vn -0.0233 0.9995 -0.0212
vn -0.0302 0.9995 -0.0090
vn -0.0311 0.9995 0.0049
vn -0.0259 0.9995 0.0180
vn -0.0155 0.9995 0.0274
vn -0.0021 0.9995 0.0314
usemtl Tex_0041_0.dds
s off
f 1/1/1 3/2/1 2/3/1
f 4/4/2 6/5/2 5/6/2
f 7/7/3 9/8/3 8/9/3
f 10/10/4 12/11/4 11/12/4
f 13/13/5 15/14/5 14/15/5
f 16/16/6 18/17/6 17/18/6
f 19/19/7 21/20/7 20/21/7
f 22/22/8 24/23/8 23/24/8
f 25/25/9 27/26/9 26/27/9
f 28/28/10 30/29/10 29/30/10
f 31/31/11 33/32/11 32/33/11
f 34/34/12 36/35/12 35/36/12
f 37/37/13 39/38/13 38/39/13
f 40/40/14 42/41/14 41/42/14
f 43/43/14 45/44/14 44/45/14
f 46/46/2 48/47/2 47/48/2
f 49/49/4 51/50/4 50/51/4
f 52/52/6 54/53/6 53/54/6
f 55/55/8 57/56/8 56/57/8
f 58/58/10 60/59/10 59/60/10
f 61/61/12 63/62/12 62/63/12
