# Blender v3.6.3 OBJ File: 'untitled.blend'
# www.blender.org
mtllib Mesh_0255.mtl
o Mesh_0255_Mesh.175
v 45.322922 35.559990 -26.384296
v 45.322922 35.559990 -25.114296
v 43.735413 35.559990 -27.971798
v 42.147911 35.559990 -25.114296
v 42.147919 35.559990 -26.384296
v 19.922911 35.559990 -26.384296
v 19.922911 35.559990 -25.114296
v 18.335413 35.559990 -27.971798
v 16.747911 35.559990 -25.114296
v 16.747911 35.559990 -26.384296
v -5.477085 35.559990 -26.384296
v -5.477085 35.559990 -25.114296
v -7.064585 35.559990 -27.971798
v -8.652084 35.559990 -25.114296
v -8.652084 35.559990 -26.384296
v 45.322922 35.559990 -26.384296
v 43.735413 35.559990 -27.971798
v 46.592918 35.559990 -26.384296
v 46.592918 35.559990 -27.971798
v 42.147919 35.559990 -26.384296
v 40.877914 35.559990 -26.384296
v 43.735413 35.559990 -27.971798
v 40.877922 35.559990 -27.971798
v 19.922911 35.559990 -26.384296
v 18.335413 35.559990 -27.971798
v 21.192911 35.559990 -26.384296
v 21.192911 35.559990 -27.971798
v 16.747911 35.559990 -26.384296
v 15.477911 35.559990 -26.384296
v 18.335413 35.559990 -27.971798
v 15.477911 35.559990 -27.971798
v -8.652084 35.559990 -26.384296
v -9.922085 35.559990 -26.384296
v -7.064585 35.559990 -27.971798
v -9.922085 35.559990 -27.971798
v -5.477085 35.559990 -26.384296
v -7.064585 35.559990 -27.971798
v -4.207085 35.559990 -26.384296
v -4.207085 35.559990 -27.971798
v 69.135422 35.559990 -25.123844
v 67.547920 35.559990 -25.123844
v 69.127403 35.559990 -27.971798
v 67.547920 35.559990 -25.123844
v 67.547920 35.559990 -26.393841
v 69.127403 35.559990 -27.971798
v 67.547920 35.559990 -26.393841
v 66.277916 35.559990 -26.393841
v 69.127403 35.559990 -27.971798
v 69.127403 35.559990 -27.971798
v 66.277916 35.559990 -26.393841
v 66.277916 35.559990 -27.971798
vt 0.000000 -0.973633
vt 0.499023 -1.472656
vt 0.000000 -0.473633
vt 0.999023 -0.473633
vt 0.999023 -0.973633
vt 0.000000 -0.973633
vt 0.499023 -1.472656
vt 0.000000 -0.473633
vt 0.999023 -0.473633
vt 0.999023 -0.973633
vt 0.999023 -0.973633
vt 0.499023 -1.472656
vt 0.999023 -0.473633
vt 0.000000 -0.473633
vt 0.000000 -0.973633
vt 0.999023 -0.973633
vt 0.999023 -0.473633
vt 0.499023 -1.472656
vt 0.499023 -0.473633
vt 0.000000 -0.973633
vt 0.499023 -1.472656
vt 0.000000 -0.473633
vt 0.499023 -0.473633
vt 0.999023 -0.973633
vt 0.999023 -0.473633
vt 0.499023 -1.472656
vt 0.499023 -0.473633
vt 0.000000 -0.973633
vt 0.499023 -1.472656
vt 0.000000 -0.473633
vt 0.499023 -0.473633
vt 0.999023 -0.973633
vt 0.499023 -1.472656
vt 0.999023 -0.473633
vt 0.499023 -0.473633
vt 0.000000 -0.973633
vt 0.000000 -0.473633
vt 0.499023 -1.472656
vt 0.499023 -0.473633
vt 0.499023 -0.473633
vt 0.500000 -1.469727
vt 0.999023 -0.473633
vt 0.999023 -0.473633
vt 0.500977 -1.469727
vt 0.999023 -0.973633
vt 0.000000 -0.973633
vt 0.496094 -1.467773
vt 0.000000 -0.473633
vt 0.496094 -1.466797
vt 0.496094 -0.473633
vt 0.000000 -0.473633
vn 0.0000 1.0000 0.0000
usemtl Tex_0072_1.dds.006
s off
f 1/1/1 3/2/1 2/3/1
f 2/3/1 3/2/1 4/4/1
f 3/2/1 5/5/1 4/4/1
f 6/6/1 8/7/1 7/8/1
f 7/8/1 8/7/1 9/9/1
f 8/7/1 10/10/1 9/9/1
f 11/11/1 13/12/1 12/13/1
f 12/13/1 13/12/1 14/14/1
f 13/12/1 15/15/1 14/14/1
f 16/16/1 18/17/1 17/18/1
f 17/18/1 18/17/1 19/19/1
f 20/20/1 22/21/1 21/22/1
f 21/22/1 22/21/1 23/23/1
f 24/24/1 26/25/1 25/26/1
f 25/26/1 26/25/1 27/27/1
f 28/28/1 30/29/1 29/30/1
f 29/30/1 30/29/1 31/31/1
f 32/32/1 34/33/1 33/34/1
f 33/34/1 34/33/1 35/35/1
f 36/36/1 38/37/1 37/38/1
f 37/38/1 38/37/1 39/39/1
f 40/40/1 42/41/1 41/42/1
f 43/43/1 45/44/1 44/45/1
f 46/46/1 48/47/1 47/48/1
f 49/49/1 51/50/1 50/51/1
