# Blender v3.6.3 OBJ File: 'untitled.blend'
# www.blender.org
mtllib Mesh_0216.mtl
o Mesh_0216_Mesh.047
v 53.779400 5.841985 22.301651
v 53.779400 2.539986 22.301651
v 55.108334 5.841985 23.184044
v 55.108334 2.539986 23.184044
v 55.230305 2.539987 23.272690
v 57.640514 2.539986 23.184044
v 59.121777 2.539986 22.301651
v 57.640514 5.841986 23.184044
v 59.121777 5.841985 22.301651
v 57.640514 2.539986 23.184044
v 57.640514 5.841986 23.184044
v 57.640514 2.539986 23.488594
v 57.640514 5.841986 23.488594
v 55.230305 5.841986 23.272690
v 55.230305 2.539987 23.272690
v 55.230305 5.841986 23.399948
v 55.230305 2.539987 23.399948
v 55.108334 5.841985 23.488594
v 55.230305 5.841986 23.399948
v 55.108334 2.539986 23.488594
v 55.230305 2.539987 23.399948
v 55.230305 2.539987 23.272690
v 55.230305 5.841986 23.272690
v 55.108334 5.841985 23.184044
vt 0.101562 -0.013672
vt 1.013672 -0.013672
vt 0.101562 -1.002930
vt 1.013672 -1.002930
vt 1.087891 -1.002930
vt 1.013672 -1.002930
vt 1.013672 -0.013672
vt 0.101562 -1.002930
vt 0.101562 -0.013672
vt 1.013672 -1.002930
vt 1.060547 -1.002930
vt 1.013672 -0.013672
vt 1.060547 -0.013672
vt 1.087891 -0.013672
vt 1.195312 -0.013672
vt 1.087891 -1.002930
vt 1.195312 -1.002930
vt 1.060547 -0.013672
vt 1.060547 -1.002930
vt 1.195312 -0.013672
vt 1.195312 -1.002930
vt 1.087891 -1.002930
vt 1.013672 -0.013672
vt 1.087891 -0.013672
vn 0.5532 0.0000 -0.8331
vn 0.5538 0.0015 -0.8327
vn 0.5530 -0.0212 -0.8329
vn 0.6203 0.0019 -0.7844
vn 0.5879 0.0000 -0.8089
vn 0.5878 -0.0211 -0.8087
vn -0.5118 0.0000 -0.8591
vn -1.0000 0.0000 0.0000
vn 1.0000 0.0000 0.0000
vn 0.5879 0.0000 0.8089
usemtl Tex_0054_0.dds.001
s off
f 1/1/1 3/2/2 2/3/1
f 2/3/1 3/2/1 4/4/3
f 3/2/4 5/5/5 4/4/6
f 6/6/7 8/7/7 7/8/7
f 7/8/7 8/7/7 9/9/7
f 10/10/8 12/11/8 11/12/8
f 11/12/8 12/11/8 13/13/8
f 14/14/9 16/15/9 15/16/9
f 15/16/9 16/15/9 17/17/9
f 18/18/10 20/19/10 19/20/10
f 19/20/10 20/19/10 21/21/10
f 22/22/5 24/23/5 23/24/5
