# Blender v3.6.3 OBJ File: 'untitled.blend'
# www.blender.org
mtllib Mesh_0342.mtl
o Mesh_0342_Mesh.095
v -9.982750 13.828873 -33.051762
v -9.982792 13.828872 -27.971806
v -10.239584 13.687769 -33.051762
v -10.239584 13.687775 -27.971806
v -10.239584 13.546655 -33.051762
v -10.239584 13.546653 -27.971806
v -10.111103 13.405551 -33.051762
v -10.111061 13.405556 -27.971806
v -9.854275 14.763744 -33.295494
v -9.982712 14.562655 -33.161888
v -9.982714 14.562655 -38.021942
v -10.111103 14.393313 -33.051762
v -10.111147 14.393316 -38.131805
v -9.982750 14.252210 -33.051762
v -9.982712 14.252206 -38.131805
v -10.111103 13.405551 -33.051762
v -10.239584 13.546656 -38.131805
v -10.239584 13.546655 -33.051762
v -10.239584 13.687764 -38.131805
v -10.239584 13.687769 -33.051762
v -9.982712 13.828875 -38.131805
v -9.982750 13.828873 -33.051762
v -9.854275 14.763744 -38.375492
v -9.982712 14.562655 -38.241894
v -9.982714 14.562654 -43.101940
v -10.111147 14.393316 -38.131805
v -10.111101 14.393313 -43.211845
v -9.982712 14.252206 -38.131805
v -9.982748 14.252209 -43.211845
v -10.111147 13.405544 -38.131805
v -10.239584 13.546654 -43.211845
v -10.239584 13.546656 -38.131805
v -10.239584 13.687769 -43.211845
v -10.239584 13.687764 -38.131805
v -9.982750 13.828872 -43.211845
v -9.982712 13.828875 -38.131805
v -10.074001 13.405558 -47.822479
v -10.186144 13.546653 -47.710335
v -10.239584 13.546654 -43.211845
v -10.186144 13.687773 -47.710327
v -10.239584 13.687769 -43.211845
v -9.947956 13.828872 -47.948524
v -9.982750 13.828872 -43.211845
v -9.982792 14.252213 -27.971806
v -9.982750 14.252210 -33.051762
v -10.111061 14.393311 -27.971806
v -10.111103 14.393313 -33.051762
v -9.982792 14.562653 -27.971806
v -9.982750 14.562654 -33.051762
v -9.854267 14.763744 -32.734215
v -10.239584 12.699994 -38.131805
v -10.239584 13.264436 -38.131805
v -10.239584 12.699994 -33.051762
v -10.239584 13.264434 -33.051762
v -10.239584 12.699994 -27.971806
v -10.239584 13.264433 -27.971806
v -10.239584 13.264436 -38.131805
v -10.111147 13.405544 -38.131805
v -10.239584 13.264434 -33.051762
v -10.111103 13.405551 -33.051762
v -10.239584 13.264433 -27.971806
v -10.111061 13.405556 -27.971806
v -9.854273 14.763745 -43.529396
v -9.982752 14.562654 -43.211845
v -9.947966 14.562655 -47.948528
v -10.111101 14.393313 -43.211845
v -10.073994 14.393308 -47.822475
v -9.947952 14.252214 -47.948524
v -9.982712 13.828875 -38.131805
v -9.982712 14.252206 -38.131805
v -9.982750 13.828873 -33.051762
v -9.982750 14.252210 -33.051762
v -9.982792 14.252213 -27.971806
v -9.604584 14.763744 -37.888130
v -9.604584 14.763744 -33.295494
v -9.854275 14.763744 -37.888126
v -9.854275 14.763744 -33.295494
v -9.604584 14.763743 -42.968124
v -9.604584 14.763744 -38.375492
v -9.854275 14.763743 -42.968124
v -9.854275 14.763744 -38.375492
v -10.239584 12.699992 -43.211845
v -10.239586 13.264433 -43.211845
v -10.239584 12.699994 -38.131805
v -10.239584 13.264436 -38.131805
v -10.239586 13.264433 -43.211845
v -10.111107 13.405550 -43.211853
v -10.239584 13.264436 -38.131805
v -10.111147 13.405544 -38.131805
v -9.982750 13.828872 -43.211845
v -9.982748 14.252209 -43.211845
v -9.982712 13.828875 -38.131805
v -9.982712 14.252206 -38.131805
v -10.186148 12.699992 -47.710335
v -10.186148 13.264433 -47.710335
v -10.239584 12.699992 -43.211845
v -10.239586 13.264433 -43.211845
v -10.186148 13.264433 -47.710335
v -10.074001 13.405558 -47.822479
v -10.239586 13.264433 -43.211845
v -10.111107 13.405550 -43.211853
v -9.814798 14.763750 -48.081703
v -9.604584 14.763744 -48.291893
v -9.854273 14.763745 -43.529396
v -9.604584 14.763743 -43.529392
v -9.982748 14.252209 -43.211845
v -9.982750 13.828872 -43.211845
v -9.947952 14.252214 -47.948524
v -9.947956 13.828872 -47.948524
v -9.854267 14.763744 -32.734215
v -9.604584 14.763744 -32.734215
v -9.854267 14.763744 -27.971806
v -9.604584 14.763744 -27.971760
v -9.982714 14.562655 -38.021942
v -9.854275 14.763744 -37.888126
v -9.854275 14.763744 -33.295494
v -9.982714 14.562655 -38.021942
v -10.111147 14.393316 -38.131805
v -9.982712 14.562655 -38.131805
v -10.111103 14.393313 -33.051762
v -9.982712 14.562655 -33.161888
v -9.982750 14.562654 -33.051762
v -10.239584 13.546656 -38.131805
v -10.111103 13.405551 -33.051762
v -10.111147 13.405544 -38.131805
v -9.982714 14.562654 -43.101940
v -9.854275 14.763743 -42.968124
v -9.854275 14.763744 -38.375492
v -9.982714 14.562654 -43.101940
v -10.111101 14.393313 -43.211845
v -9.982752 14.562654 -43.211845
v -10.111147 14.393316 -38.131805
v -9.982712 14.562655 -38.241894
v -9.982712 14.562655 -38.131805
v -10.239584 13.546654 -43.211845
v -10.111147 13.405544 -38.131805
v -10.111107 13.405550 -43.211853
v -10.111107 13.405550 -43.211853
v -10.074001 13.405558 -47.822479
v -10.239584 13.546654 -43.211845
v -9.814798 14.763750 -48.081703
v -9.854273 14.763745 -43.529396
v -9.947966 14.562655 -47.948528
v -9.982748 14.252209 -43.211845
v -9.947952 14.252214 -47.948524
v -10.111101 14.393313 -43.211845
v -9.854267 14.763744 -27.971806
v -9.982792 14.562653 -27.971806
v -9.854267 14.763744 -32.734215
v -9.982750 13.828873 -33.051762
v -9.982792 14.252213 -27.971806
v -9.982792 13.828872 -27.971806
vt 0.497070 -1.770508
vt 0.497070 -2.196289
vt -1.349609 -1.770508
vt -1.266602 -2.196289
vt 0.497070 -2.070312
vt -1.266602 -2.070312
vt 0.497070 -1.694336
vt -1.307617 -1.694336
vt 1.416992 1.045898
vt -0.443359 0.830078
vt 1.453125 0.828125
vt 1.502930 0.655273
vt -0.504883 0.655273
vt 1.496094 0.794922
vt -0.498047 0.794922
vt 0.497070 -1.694336
vt 0.497070 -2.070312
vt -1.500977 -2.070312
vt -1.500977 -2.196289
vt 0.497070 -2.196289
vt -1.500977 -1.770508
vt 0.497070 -1.770508
vt 1.416992 1.045898
vt -0.443359 0.830078
vt 1.453125 0.828125
vt 1.502930 0.655273
vt -0.504883 0.655273
vt 1.496094 0.794922
vt -0.498047 0.794922
vt 0.497070 -1.694336
vt 0.497070 -2.070312
vt -1.500977 -2.070312
vt -1.500977 -2.196289
vt 0.497070 -2.196289
vt -1.500977 -1.770508
vt 0.497070 -1.770508
vt -1.487305 -1.694336
vt 0.497070 -2.070312
vt -1.487305 -2.070312
vt -1.487305 -2.196289
vt 0.497070 -2.196289
vt -1.487305 -1.770508
vt 0.497070 -1.770508
vt -0.342773 0.794922
vt -0.300781 0.655273
vt 1.496094 0.794922
vt 1.496094 0.655273
vt -0.342773 0.799805
vt 1.496094 0.799805
vt 1.476562 1.041992
vt -1.500977 -2.603516
vt 0.497070 -2.603516
vt -1.500977 -3.003906
vt 0.497070 -3.003906
vt -1.266602 -2.603516
vt -1.266602 -3.003906
vt -1.500977 -3.003906
vt 0.497070 -3.003906
vt -1.500977 -3.352539
vt 0.497070 -3.352539
vt -1.266602 -3.003906
vt -1.306641 -3.352539
vt 1.476562 1.041992
vt -0.479492 0.799805
vt 1.496094 0.799805
vt 1.496094 0.655273
vt -0.479492 0.655273
vt -0.479492 0.794922
vt -1.500977 -0.653320
vt 0.497070 -0.653320
vt -1.500977 -0.346680
vt 0.497070 -0.346680
vt -1.344727 -0.346680
vt -1.500977 -1.000000
vt -1.500977 -1.249023
vt 0.497070 -1.000000
vt 0.497070 -1.249023
vt -1.500977 -1.000000
vt -1.500977 -1.249023
vt 0.497070 -1.000000
vt 0.497070 -1.249023
vt -1.500977 -2.603516
vt 0.497070 -2.603516
vt -1.500977 -3.003906
vt 0.497070 -3.003906
vt -1.500977 -3.003906
vt 0.497070 -3.003906
vt -1.500977 -3.352539
vt 0.497070 -3.352539
vt -1.500977 -0.653320
vt 0.497070 -0.653320
vt -1.500977 -0.346680
vt 0.497070 -0.346680
vt -1.486328 -2.603516
vt 0.497070 -2.603516
vt -1.486328 -3.003906
vt 0.497070 -3.003906
vt -1.486328 -3.003906
vt 0.497070 -3.003906
vt -1.486328 -3.352539
vt 0.497070 -3.352539
vt -0.479492 1.046875
vt 1.476562 1.041992
vt -0.304688 1.397461
vt 1.500000 1.397461
vt 0.497070 -0.346680
vt -1.481445 -0.346680
vt 0.497070 -0.653320
vt -1.481445 -0.653320
vt 1.476562 1.041992
vt -0.382812 1.046875
vt 1.500000 1.397461
vt -0.304688 1.397461
vt -0.443359 0.830078
vt 1.416992 1.045898
vt -0.422852 1.047852
vt -0.443359 0.830078
vt -0.498047 0.831055
vt -0.504883 0.655273
vt 1.502930 0.655273
vt 1.496094 0.827148
vt 1.453125 0.828125
vt -1.500977 -2.070312
vt -1.500977 -1.694336
vt 0.497070 -1.694336
vt -0.443359 0.830078
vt 1.416992 1.045898
vt -0.422852 1.047852
vt -0.443359 0.830078
vt -0.498047 0.831055
vt -0.504883 0.655273
vt 1.502930 0.655273
vt 1.496094 0.827148
vt 1.453125 0.828125
vt -1.500977 -2.070312
vt -1.500977 -1.694336
vt 0.497070 -1.694336
vt 0.497070 -1.694336
vt 0.497070 -2.070312
vt -1.487305 -1.694336
vt -0.479492 1.046875
vt -0.479492 0.799805
vt 1.476562 1.041992
vt 1.496094 0.794922
vt 1.496094 0.655273
vt -0.479492 0.794922
vt -0.382812 1.046875
vt 1.476562 1.041992
vt -0.342773 0.799805
vt 0.497070 -0.653320
vt -1.344727 -0.653320
vt -1.344727 -0.346680
vn -0.4815 0.8764 -0.0000
vn -0.4379 0.7350 -0.5178
vn -0.4816 0.8764 -0.0000
vn -0.4815 0.8763 0.0153
vn -0.8662 -0.0000 -0.4996
vn -0.9313 -0.0103 -0.3641
vn -0.4950 -0.8686 0.0241
vn -1.0000 0.0000 0.0000
vn -0.9325 0.0000 0.3611
vn -0.6905 -0.6287 -0.3578
vn -0.7394 -0.6733 -0.0000
vn -0.4468 -0.8945 0.0135
vn -0.6985 -0.6179 0.3608
vn -0.7393 -0.6734 0.0000
vn -0.8428 0.5383 0.0000
vn -0.8823 0.4706 0.0040
vn -0.7969 0.6042 0.0000
vn -0.3410 0.6532 0.6761
vn -0.7974 0.6035 0.0017
vn -0.3240 0.6755 -0.6623
vn -0.0806 0.9962 0.0319
vn -0.6324 -0.5753 0.5187
vn -0.2835 -0.9588 -0.0195
vn -0.7397 -0.6729 0.0000
vn -0.6452 -0.5609 -0.5188
vn -0.7395 -0.6731 -0.0000
vn -0.6895 -0.6279 0.3610
vn -0.1095 -0.9937 -0.0248
vn -0.9999 0.0000 -0.0158
vn -0.9326 0.3608 0.0100
vn -0.8607 0.0141 -0.5090
vn -0.9326 -0.0100 0.3608
vn -0.9995 -0.0000 0.0316
vn -0.8607 -0.5090 -0.0141
vn -0.4144 0.7543 -0.5092
vn 0.5082 0.8598 0.0496
vn -0.4815 0.8765 -0.0000
vn -0.8823 0.4707 0.0039
vn -0.8555 0.5157 -0.0463
vn -0.8041 0.5940 -0.0243
vn -0.7955 0.6059 0.0001
vn -0.3407 0.6531 0.6763
vn -0.7975 0.6034 0.0017
vn -0.3243 0.6756 -0.6622
vn -0.0809 0.9962 0.0319
vn -0.6322 -0.5754 0.5189
vn -0.2828 -0.9590 -0.0195
vn -0.6455 -0.5608 -0.5185
vn -0.7401 -0.6725 0.0000
vn -0.6897 -0.6278 0.3609
vn -0.1099 -0.9936 -0.0248
vn -0.8607 -0.0000 0.5092
vn -0.4147 0.7542 -0.5092
vn 0.0311 0.9991 0.0294
vn -0.4401 0.7402 0.5083
vn -0.7864 -0.6176 -0.0093
vn -0.2522 -0.9675 0.0206
vn -0.8443 -0.4772 -0.2438
vn -0.9221 0.0000 -0.3869
vn -0.9998 0.0150 -0.0114
vn -0.8065 0.0183 -0.5909
vn -1.0000 -0.0005 0.0031
vn -0.8680 0.0012 0.4966
vn -0.8132 -0.5813 -0.0279
vn -0.6936 0.6513 -0.3078
vn -0.0420 0.9987 0.0284
vn -0.5157 0.8567 -0.0082
vn -0.4400 0.7408 0.5076
vn -0.4815 0.8764 -0.0035
vn -0.4505 0.8928 -0.0033
vn -0.7399 -0.6727 -0.0000
vn -0.5854 -0.4997 0.6384
vn -0.1392 -0.9900 0.0240
vn -0.5689 -0.5176 -0.6391
vn -0.6132 0.4645 0.6389
vn -0.7972 0.6037 -0.0024
vn -0.2278 0.9733 -0.0267
vn -0.6291 0.4433 -0.6386
vn -0.7953 0.6062 -0.0001
vn -0.7967 0.6039 0.0232
vn -0.8817 0.4719 -0.0039
vn -0.8427 0.5384 -0.0000
vn -0.8657 0.4993 0.0341
vn -0.7395 0.6731 0.0000
vn -0.7398 0.6729 -0.0000
vn -0.7392 0.6735 0.0000
vn -0.7394 0.6732 0.0000
vn -0.7397 0.6730 -0.0000
vn -0.7391 0.6736 0.0000
vn -0.7393 0.6733 0.0000
vn -0.8471 0.5314 -0.0062
vn -0.8833 0.4688 -0.0031
vn -0.8719 0.4877 -0.0439
vn -0.7965 0.6038 -0.0314
vn -0.7873 0.6166 -0.0056
vn -0.7975 0.6031 0.0192
vn -0.8036 0.5951 -0.0036
vn -0.8115 0.1934 -0.5515
vn -0.7971 0.6038 -0.0053
vn 0.4810 -0.8756 0.0432
vn -0.8125 -0.2593 -0.5222
vn -0.7484 -0.6632 -0.0060
vn 0.0000 1.0000 0.0000
vn -0.9999 0.0000 -0.0119
vn -0.7865 0.6176 -0.0093
vn -0.8284 0.5601 -0.0098
vn -0.7874 0.6163 -0.0119
vn -0.6905 0.7233 -0.0056
vn -0.7394 0.6732 -0.0041
vn -0.7394 0.6732 -0.0059
vn -1.0000 0.0000 -0.0073
vn -0.7968 0.6043 -0.0000
vn -0.7970 0.6040 -0.0003
vn -0.7970 0.6040 0.0003
vn -0.7394 -0.6732 -0.0060
vn -0.8359 0.5488 -0.0072
vn -0.7397 -0.6729 -0.0054
vn -0.8426 0.5385 0.0000
usemtl Tex_0032_0.dds.013
s off
f 1/1/1 3/2/2 2/3/1
f 2/3/3 3/2/3 4/4/4
f 3/2/5 5/5/6 4/4/7
f 4/4/8 5/5/8 6/6/9
f 5/5/10 7/7/11 6/6/12
f 6/6/13 7/7/14 8/8/14
f 9/9/15 11/10/16 10/11/15
f 10/11/17 11/10/17 12/12/18
f 11/10/19 13/13/20 12/12/21
f 12/12/22 13/13/23 14/14/24
f 13/13/25 15/15/26 14/14/26
f 16/16/11 18/17/27 17/18/28
f 17/18/29 18/17/30 19/19/31
f 18/17/32 20/20/33 19/19/34
f 19/19/35 20/20/36 21/21/37
f 20/20/1 22/22/1 21/21/1
f 23/23/15 25/24/38 24/25/39
f 24/25/40 25/24/41 26/26/42
f 25/24/43 27/27/44 26/26/45
f 26/26/46 27/27/47 28/28/26
f 27/27/48 29/29/24 28/28/49
f 30/30/26 32/31/50 31/32/51
f 31/32/29 32/31/30 33/33/31
f 32/31/32 34/34/52 33/33/34
f 33/33/53 34/34/54 35/35/1
f 34/34/55 36/36/37 35/35/37
f 37/37/56 39/38/57 38/39/58
f 38/39/59 39/38/60 40/40/61
f 39/38/62 41/41/63 40/40/64
f 40/40/65 41/41/66 42/42/67
f 41/41/68 43/43/69 42/42/70
f 44/44/71 46/45/72 45/46/71
f 45/46/24 46/45/73 47/47/74
f 46/45/75 48/48/76 47/47/77
f 47/47/78 48/48/79 49/49/80
f 48/48/81 50/50/82 49/49/83
f 51/51/8 53/52/8 52/53/8
f 52/53/8 53/52/8 54/54/8
f 53/52/8 55/55/8 54/54/8
f 54/54/8 55/55/8 56/56/8
f 57/57/84 59/58/85 58/59/84
f 58/59/86 59/58/87 60/60/87
f 59/58/87 61/61/88 60/60/87
f 60/60/89 61/61/90 62/62/90
f 63/63/91 65/64/92 64/65/93
f 64/65/94 65/64/95 66/66/96
f 65/64/97 67/67/98 66/66/99
f 66/66/100 67/67/101 68/68/102
f 69/69/8 71/70/8 70/71/8
f 70/71/8 71/70/8 72/72/8
f 71/70/8 73/73/8 72/72/8
f 74/74/103 76/75/103 75/76/103
f 75/76/103 76/75/103 77/77/103
f 78/78/103 80/79/103 79/80/103
f 79/80/103 80/79/103 81/81/103
f 82/82/8 84/83/8 83/84/8
f 83/84/8 84/83/8 85/85/8
f 86/86/87 88/87/87 87/88/87
f 87/88/84 88/87/84 89/89/84
f 90/90/8 92/91/8 91/92/8
f 91/92/8 92/91/8 93/93/8
f 94/94/104 96/95/104 95/96/104
f 95/96/104 96/95/104 97/97/104
f 98/98/105 100/99/106 99/100/107
f 99/100/108 100/99/109 101/101/110
f 102/102/103 104/103/103 103/104/103
f 103/104/103 104/103/103 105/105/103
f 106/106/111 108/107/111 107/108/111
f 107/108/111 108/107/111 109/109/111
f 110/110/103 112/111/103 111/112/103
f 111/112/103 112/111/103 113/113/103
f 114/114/15 116/115/15 115/116/15
f 117/117/112 119/118/112 118/119/112
f 120/120/113 122/121/113 121/122/113
f 123/123/26 125/124/26 124/125/26
f 126/126/15 128/127/15 127/128/15
f 129/129/114 131/130/114 130/131/114
f 132/132/112 134/133/112 133/134/112
f 135/135/11 137/136/11 136/137/11
f 138/138/115 140/139/115 139/140/115
f 141/141/116 143/142/116 142/143/116
f 144/144/117 146/145/117 145/146/117
f 147/147/118 149/148/118 148/149/118
f 150/150/8 152/151/8 151/152/8
