# Blender v3.6.3 OBJ File: 'untitled.blend'
# www.blender.org
mtllib Mesh_0188.mtl
o Mesh_0188_Mesh.035
v -22.304585 25.399986 22.193192
v -22.304585 25.399988 17.113190
v -21.793791 25.145962 22.193199
v -21.793791 25.145964 17.113197
v -22.047791 24.891989 17.113197
v -22.047791 23.367989 17.113190
v -21.669584 23.113989 17.113190
v -21.669584 23.113987 22.193192
v -21.919519 22.859989 17.113190
v -21.919519 22.859987 22.193192
v -22.304585 25.399988 17.113190
v -22.304585 25.399988 12.033195
v -21.793791 25.145964 17.113197
v -21.793791 25.145964 12.033203
v -22.047791 24.891989 12.033203
v -22.047537 23.367989 12.033195
v -21.669584 23.113989 12.033195
v -21.669584 23.113989 17.113190
v -21.919519 22.859989 12.033195
v -21.919519 22.859989 17.113190
v -22.304585 25.399988 -17.176804
v -22.304585 25.399988 -22.256805
v -21.793791 25.145966 -17.176804
v -21.793791 25.145966 -22.256805
v -22.047791 24.891989 -22.256805
v -22.047791 23.367989 -22.256805
v -21.669584 23.113989 -22.256805
v -21.669584 23.113989 -17.176804
v -21.919519 22.859989 -22.256805
v -21.919519 22.859989 -17.176804
v -22.304585 25.399988 -22.256805
v -22.304585 25.399986 -27.336803
v -21.793791 25.145966 -22.256805
v -21.793791 25.145964 -27.336803
v -22.047791 24.891987 -27.336803
v -22.047537 23.367987 -27.336803
v -21.669584 23.113987 -27.336803
v -21.669584 23.113989 -22.256805
v -21.919519 22.859987 -27.336803
v -21.919519 22.859989 -22.256805
v -21.919519 22.859987 22.193192
v -21.919519 22.859989 17.113190
v -22.304585 22.859987 22.193192
v -22.304585 22.859989 17.113190
v -21.919519 22.859989 17.113190
v -21.919519 22.859989 12.033195
v -22.304585 22.859989 17.113190
v -22.304585 22.859989 12.033195
v -21.919519 22.859989 -17.176804
v -21.919519 22.859989 -22.256805
v -22.304585 22.859989 -17.176804
v -22.304585 22.859989 -22.256805
v -21.919519 22.859989 -22.256805
v -21.919519 22.859987 -27.336803
v -22.304585 22.859989 -22.256805
v -22.304585 22.859987 -27.336803
v -22.047791 24.891989 17.113197
v -22.047791 24.891987 22.193199
v -21.793791 25.145962 22.193199
v -21.669584 23.113987 22.193192
v -22.047791 23.367987 22.193192
v -22.047791 23.367989 17.113190
v -22.047791 24.891989 12.033203
v -22.047791 24.891989 17.113197
v -21.793791 25.145964 17.113197
v -21.669584 23.113989 17.113190
v -22.047791 23.367989 17.113190
v -22.047537 23.367989 12.033195
v -22.047791 24.891989 -22.256805
v -22.047791 24.891989 -17.176804
v -21.793791 25.145966 -17.176804
v -21.669584 23.113989 -17.176804
v -22.047791 23.367989 -17.176804
v -22.047791 23.367989 -22.256805
v -22.047791 24.891987 -27.336803
v -22.047791 24.891989 -22.256805
v -21.793791 25.145966 -22.256805
v -21.669584 23.113989 -22.256805
v -22.047791 23.367989 -22.256805
v -22.047537 23.367987 -27.336803
vt -2.914062 0.032227
vt -2.915039 -0.081055
vt -0.915039 0.032227
vt -0.916992 -0.081055
vt -0.916992 -0.177734
vt -0.998047 -0.945312
vt -2.996094 -1.071289
vt -0.998047 -1.071289
vt -0.998047 -1.184570
vt -2.996094 -1.184570
vt -2.914062 0.032227
vt -2.915039 -0.081055
vt -0.915039 0.032227
vt -0.916992 -0.081055
vt -0.916992 -0.177734
vt -0.998047 -0.945312
vt -2.996094 -1.071289
vt -0.998047 -1.071289
vt -0.998047 -1.184570
vt -2.996094 -1.184570
vt -2.914062 0.032227
vt -2.915039 -0.081055
vt -0.915039 0.032227
vt -0.916992 -0.081055
vt -0.916992 -0.177734
vt -0.998047 -0.945312
vt -2.996094 -1.071289
vt -0.998047 -1.071289
vt -0.998047 -1.184570
vt -2.996094 -1.184570
vt -2.914062 0.032227
vt -2.915039 -0.081055
vt -0.915039 0.032227
vt -0.916992 -0.081055
vt -0.916992 -0.177734
vt -0.998047 -0.945312
vt -2.996094 -1.071289
vt -0.998047 -1.071289
vt -0.998047 -1.184570
vt -2.996094 -1.184570
vt 2.030273 -1.087891
vt 2.030273 -1.137695
vt 3.029297 -1.085938
vt 3.029297 -1.135742
vt 2.030273 -1.087891
vt 2.030273 -1.137695
vt 3.029297 -1.085938
vt 3.029297 -1.135742
vt 2.030273 -1.087891
vt 2.030273 -1.137695
vt 3.029297 -1.085938
vt 3.029297 -1.135742
vt 2.030273 -1.087891
vt 2.030273 -1.137695
vt 3.029297 -1.085938
vt 3.029297 -1.135742
vt -0.916992 -0.177734
vt -2.915039 -0.081055
vt -2.915039 -0.177734
vt -2.996094 -1.071289
vt -0.998047 -0.945312
vt -2.996094 -0.945312
vt -0.916992 -0.177734
vt -2.915039 -0.081055
vt -2.915039 -0.177734
vt -2.996094 -1.071289
vt -0.998047 -0.945312
vt -2.996094 -0.945312
vt -0.916992 -0.177734
vt -2.915039 -0.081055
vt -2.915039 -0.177734
vt -2.996094 -1.071289
vt -0.998047 -0.945312
vt -2.996094 -0.945312
vt -0.916992 -0.177734
vt -2.915039 -0.081055
vt -2.915039 -0.177734
vt -2.996094 -1.071289
vt -0.998047 -0.945312
vt -2.996094 -0.945312
vn 0.4453 0.8954 0.0000
vn 0.4495 0.8921 0.0462
vn 0.2599 0.5228 -0.8119
vn -0.8721 -0.4847 0.0679
vn 0.7071 -0.7071 -0.0000
vn 0.4125 -0.4131 -0.8119
vn 0.5575 0.8302 0.0000
vn -0.8919 0.4435 0.0886
vn 0.3559 0.5300 -0.7697
vn 0.4550 -0.4478 -0.7697
vn 0.6722 -0.7404 0.0039
vn 0.7128 -0.7014 0.0000
vn 0.7144 -0.6974 0.0564
vn 0.4128 -0.4129 -0.8119
vn 0.5578 0.8300 0.0000
vn -0.8916 0.4440 0.0885
vn 0.3561 0.5300 -0.7696
vn 0.4551 -0.4479 -0.7696
vn 0.7144 -0.6974 0.0563
vn 0.4492 0.8924 0.0429
vn 0.4064 0.9137 0.0048
vn -0.8737 -0.4818 0.0678
vn 0.4065 0.9137 0.0048
vn 0.0000 -1.0000 -0.0000
usemtl Tex_0052_0.dds.001
s off
f 1/1/1 3/2/2 2/3/1
f 2/3/1 3/2/1 4/4/3
f 3/2/4 5/5/5 4/4/6
f 6/6/7 8/7/8 7/8/9
f 7/8/10 8/7/11 9/9/12
f 8/7/13 10/10/12 9/9/12
f 11/11/1 13/12/2 12/13/1
f 12/13/1 13/12/1 14/14/3
f 13/12/4 15/15/5 14/14/14
f 16/16/15 18/17/16 17/18/17
f 17/18/18 18/17/11 19/19/12
f 18/17/19 20/20/12 19/19/12
f 21/21/1 23/22/20 22/23/1
f 22/23/1 23/22/21 24/24/3
f 23/22/22 25/25/5 24/24/14
f 26/26/7 28/27/8 27/28/9
f 27/28/10 28/27/11 29/29/12
f 28/27/19 30/30/12 29/29/12
f 31/31/1 33/32/20 32/33/1
f 32/33/1 33/32/23 34/34/3
f 33/32/22 35/35/5 34/34/14
f 36/36/15 38/37/16 37/38/17
f 37/38/18 38/37/11 39/39/12
f 38/37/19 40/40/12 39/39/12
f 41/41/24 43/42/24 42/43/24
f 42/43/24 43/42/24 44/44/24
f 45/45/24 47/46/24 46/47/24
f 46/47/24 47/46/24 48/48/24
f 49/49/24 51/50/24 50/51/24
f 50/51/24 51/50/24 52/52/24
f 53/53/24 55/54/24 54/55/24
f 54/55/24 55/54/24 56/56/24
f 57/57/5 59/58/5 58/59/5
f 60/60/7 62/61/7 61/62/7
f 63/63/5 65/64/5 64/65/5
f 66/66/7 68/67/7 67/68/7
f 69/69/5 71/70/5 70/71/5
f 72/72/7 74/73/7 73/74/7
f 75/75/5 77/76/5 76/77/5
f 78/78/7 80/79/7 79/80/7
