# Blender v3.6.3 OBJ File: 'untitled.blend'
# www.blender.org
mtllib Mesh_0134.mtl
o Mesh_0134_Mesh.007
v 70.017929 33.497089 -22.894440
v 70.017929 38.582935 -22.894444
v 70.017929 33.497097 -20.328114
v 70.017929 38.582939 -20.328114
v 70.017944 28.417091 -22.894440
v 70.017929 33.497089 -22.894440
v 70.017929 28.417097 -20.328110
v 70.017929 33.497097 -20.328114
v 70.017929 33.497089 -10.194443
v 70.017929 38.582935 -10.194443
v 70.017929 33.497097 -7.628109
v 70.017929 38.582943 -7.628109
v 70.017944 28.417093 -10.194443
v 70.017929 33.497089 -10.194443
v 70.017929 28.417099 -7.628109
v 70.017929 33.497097 -7.628109
v 70.017929 33.497093 2.505562
v 70.017929 38.582939 2.505562
v 70.017929 33.497097 5.071884
v 70.017929 38.582943 5.071884
v 70.017944 28.417093 2.505562
v 70.017929 33.497093 2.505562
v 70.017929 28.417099 5.071884
v 70.017929 33.497097 5.071884
v 70.017929 33.497089 15.205559
v 70.017929 38.582935 15.205559
v 70.017929 33.497097 17.771889
v 70.017944 38.582943 17.771889
v 70.017944 28.417093 15.205559
v 70.017929 33.497089 15.205559
v 70.017944 28.417099 17.771889
v 70.017929 33.497097 17.771889
vt 0.000000 -1.998047
vt 0.999023 -1.998047
vt 0.000000 0.000000
vt 0.999023 0.000000
vt 0.000000 -1.998047
vt 0.999023 -1.998047
vt 0.000000 0.000000
vt 0.999023 0.000000
vt 0.000000 -1.998047
vt 0.999023 -1.998047
vt 0.000000 0.000000
vt 0.999023 0.000000
vt 0.000000 -1.998047
vt 0.999023 -1.998047
vt 0.000000 0.000000
vt 0.999023 0.000000
vt 0.000000 -1.998047
vt 0.999023 -1.998047
vt 0.000000 0.000000
vt 0.999023 0.000000
vt 0.000000 -1.998047
vt 0.999023 -1.998047
vt 0.000000 0.000000
vt 0.999023 0.000000
vt 0.000000 -1.998047
vt 0.999023 -1.998047
vt 0.000000 0.000000
vt 0.999023 0.000000
vt 0.000000 -1.998047
vt 0.999023 -1.998047
vt 0.000000 0.000000
vt 0.999023 0.000000
vn -1.0000 -0.0000 0.0000
usemtl Tex_0034_0.dds
s off
f 1/1/1 3/2/1 2/3/1
f 2/3/1 3/2/1 4/4/1
f 5/5/1 7/6/1 6/7/1
f 6/7/1 7/6/1 8/8/1
f 9/9/1 11/10/1 10/11/1
f 10/11/1 11/10/1 12/12/1
f 13/13/1 15/14/1 14/15/1
f 14/15/1 15/14/1 16/16/1
f 17/17/1 19/18/1 18/19/1
f 18/19/1 19/18/1 20/20/1
f 21/21/1 23/22/1 22/23/1
f 22/23/1 23/22/1 24/24/1
f 25/25/1 27/26/1 26/27/1
f 26/27/1 27/26/1 28/28/1
f 29/29/1 31/30/1 30/31/1
f 30/31/1 31/30/1 32/32/1
