# Blender v3.6.3 OBJ File: 'untitled.blend'
# www.blender.org
mtllib Mesh_0149.mtl
o Mesh_0149_Mesh.018
v 6.891569 5.332747 3.499176
v 8.160501 4.697745 3.772301
v 6.917456 5.586745 3.374809
v 8.189409 4.951743 3.648598
v 6.865713 5.714989 3.623497
v 8.131620 5.079988 3.895973
v 6.814077 5.586744 3.872200
v 8.073969 4.951744 4.143341
v 6.839884 5.332745 3.747864
v 8.102770 4.697745 4.019653
v 5.620554 5.967745 3.250961
v 6.891569 5.332747 3.499176
v 5.643419 6.221745 3.126045
v 6.917456 5.586745 3.374809
v 5.606226 6.349988 3.378036
v 6.865713 5.714989 3.623497
v 5.552153 6.221744 3.625793
v 6.814077 5.586744 3.872200
v 5.574930 5.967744 3.500847
v 6.839884 5.332745 3.747864
v 4.350145 6.602744 3.039558
v 5.620554 5.967745 3.250961
v 4.369986 6.856745 2.914108
v 5.643419 6.221745 3.126045
v 4.330362 6.984992 3.165039
v 5.606226 6.349988 3.378036
v 4.290892 6.856745 3.415962
v 5.552153 6.221744 3.625793
v 4.310629 6.602746 3.290512
v 5.574930 5.967744 3.500847
v 3.079184 7.237745 2.861305
v 4.350145 6.602744 3.039558
v 3.095945 7.491745 2.735420
v 4.369986 6.856745 2.914108
v 3.062445 7.619989 2.987213
v 4.330362 6.984992 3.165039
v 3.029100 7.491747 3.239021
v 4.290892 6.856745 3.415962
v 3.045759 7.237745 3.113121
v 4.310629 6.602746 3.290512
v 1.812284 7.872746 2.712463
v 3.079184 7.237745 2.861305
v 1.825974 8.126746 2.586205
v 3.095945 7.491745 2.735420
v 1.798616 8.254991 2.838745
v 3.062445 7.619989 2.987213
v 1.771387 8.126744 3.091301
v 3.029100 7.491747 3.239021
v 1.784979 7.872745 2.965012
v 3.045759 7.237745 3.113121
v 0.542435 8.507745 2.597099
v 1.812284 7.872746 2.712463
v 0.553051 8.761746 2.470551
v 1.825974 8.126746 2.586205
v 0.531872 8.889991 2.723656
v 1.798616 8.254991 2.838745
v 0.510788 8.761746 2.976791
v 1.771387 8.126744 3.091301
v 0.521301 8.507745 2.850227
v 1.784979 7.872745 2.965012
v -0.717913 9.129942 2.511467
v 0.542435 8.507745 2.597099
v -0.710367 9.383943 2.384666
v 0.553051 8.761746 2.470551
v -0.725405 9.512186 2.638275
v 0.531872 8.889991 2.723656
v -0.740316 9.383943 2.891838
v 0.510788 8.761746 2.976791
v -0.732872 9.129945 2.765045
v 0.521301 8.507745 2.850227
v -3.266596 10.412745 2.382889
v -1.998150 9.777745 2.446365
v -3.260378 10.666745 2.256050
v -1.991800 10.031745 2.319534
v -3.272827 10.794982 2.509766
v -2.004499 10.159990 2.573219
v -3.285271 10.666739 2.763443
v -2.017200 10.031743 2.826881
v -3.279047 10.412745 2.636589
v -2.010851 9.777745 2.700066
v -4.535835 11.018588 2.525948
v -3.266596 10.412745 2.382889
v -4.570126 11.272586 2.403671
v -3.260378 10.666745 2.256050
v -4.501522 11.400849 2.648232
v -3.272827 10.794982 2.509766
v -4.432920 11.272575 2.892784
v -3.285271 10.666739 2.763443
v -4.467222 11.018589 2.770454
v -3.279047 10.412745 2.636589
v -5.812870 11.705250 3.145630
v -4.535835 11.018588 2.525948
v -5.884172 11.936744 3.040520
v -4.570126 11.272586 2.403671
v -5.741573 12.087493 3.250732
v -4.501522 11.400849 2.648232
v -5.598955 11.959243 3.460930
v -4.432920 11.272575 2.892784
v -5.670292 11.705251 3.355797
v -4.467222 11.018589 2.770454
v -6.594051 12.317744 3.957214
v -5.812870 11.705250 3.145630
v -6.723286 12.571745 3.864395
v -5.884172 11.936744 3.040520
v -6.493111 12.699988 4.034271
v -5.741573 12.087493 3.250732
v -6.319553 12.571746 4.172707
v -5.598955 11.959243 3.460930
v -6.392172 12.317743 4.111359
v -5.670292 11.705251 3.355797
v -7.104210 12.952744 5.055237
v -6.594051 12.317744 3.957214
v -7.224352 13.206744 5.014160
v -6.723286 12.571745 3.864395
v -6.984039 13.334990 5.096352
v -6.493111 12.699988 4.034271
v -6.743706 13.206744 5.178551
v -6.319553 12.571746 4.172707
v -6.863874 12.952744 5.137451
v -6.392172 12.317743 4.111359
v -7.438221 13.587744 6.318192
v -7.104210 12.952744 5.055237
v -7.565220 13.841746 6.318199
v -7.224352 13.206744 5.014160
v -7.311220 13.982234 6.318192
v -6.984039 13.334990 5.096352
v -7.057320 13.841743 6.318192
v -6.743706 13.206744 5.178551
v -7.184219 13.587746 6.318199
v -6.863874 12.952744 5.137451
v -7.439489 14.222744 7.588196
v -7.438221 13.587744 6.318192
v -7.566488 14.476746 7.588203
v -7.565220 13.841746 6.318199
v -7.312489 14.616724 7.588196
v -7.311220 13.982234 6.318192
v -7.058390 14.476743 7.588196
v -7.057320 13.841743 6.318192
v -7.185488 14.222744 7.588196
v -7.184219 13.587746 6.318199
v -7.439238 14.857744 -25.431808
v -7.439234 14.857745 -26.701809
v -7.566235 15.111744 -25.431805
v -7.566233 15.111747 -26.701801
v -7.312235 15.239989 -25.431805
v -7.312235 15.239990 -26.701805
v -7.058159 15.111744 -25.431805
v -7.058159 15.111747 -26.701801
v -7.185234 14.857744 -25.431805
v -7.185234 14.857745 -26.701805
v -7.439234 14.857744 -24.161804
v -7.439238 14.857744 -25.431808
v -7.566236 15.111744 -24.161800
v -7.566235 15.111744 -25.431805
v -7.312235 15.239989 -24.161804
v -7.312235 15.239989 -25.431805
v -7.058159 15.111744 -24.161804
v -7.058159 15.111744 -25.431805
v -7.185234 14.857744 -24.161800
v -7.185234 14.857744 -25.431805
v -7.439234 14.857745 -22.891804
v -7.439234 14.857744 -24.161804
v -7.566235 15.111747 -22.891800
v -7.566236 15.111744 -24.161800
v -7.312235 15.239990 -22.891800
v -7.312235 15.239989 -24.161804
v -7.058159 15.111745 -22.891804
v -7.058159 15.111744 -24.161804
v -7.185234 14.857745 -22.891800
v -7.185234 14.857744 -24.161800
v -7.439234 14.857745 -21.621803
v -7.439234 14.857745 -22.891804
v -7.566235 15.111747 -21.621807
v -7.566235 15.111747 -22.891800
v -7.312235 15.239990 -21.621799
v -7.312235 15.239990 -22.891800
v -7.058159 15.111745 -21.621799
v -7.058159 15.111745 -22.891804
v -7.185234 14.857745 -21.621803
v -7.185234 14.857745 -22.891800
v -7.439234 14.857745 -20.351807
v -7.439234 14.857745 -21.621803
v -7.566233 15.111747 -20.351803
v -7.566235 15.111747 -21.621807
v -7.312233 15.239990 -20.351803
v -7.312235 15.239990 -21.621799
v -7.058157 15.111747 -20.351803
v -7.058159 15.111745 -21.621799
v -7.185234 14.857745 -20.351803
v -7.185234 14.857745 -21.621803
v -7.439232 14.857746 -19.081806
v -7.439234 14.857745 -20.351807
v -7.566235 15.111744 -19.081806
v -7.566233 15.111747 -20.351803
v -7.312235 15.239989 -19.081806
v -7.312233 15.239990 -20.351803
v -7.058157 15.111744 -19.081806
v -7.058157 15.111747 -20.351803
v -7.185234 14.857744 -19.081806
v -7.185234 14.857745 -20.351803
v -7.439234 14.857746 -17.811806
v -7.439232 14.857746 -19.081806
v -7.566235 15.111746 -17.811806
v -7.566235 15.111744 -19.081806
v -7.312235 15.239989 -17.811806
v -7.312235 15.239989 -19.081806
v -7.058157 15.111744 -17.811806
v -7.058157 15.111744 -19.081806
v -7.185234 14.857744 -17.811806
v -7.185234 14.857744 -19.081806
v -7.439234 14.857747 -16.541805
v -7.439234 14.857746 -17.811806
v -7.566235 15.111745 -16.541805
v -7.566235 15.111746 -17.811806
v -7.312235 15.239988 -16.541805
v -7.312235 15.239989 -17.811806
v -7.058157 15.111745 -16.541805
v -7.058157 15.111744 -17.811806
v -7.185234 14.857745 -16.541805
v -7.185234 14.857744 -17.811806
v -7.439234 14.857747 -15.271805
v -7.439234 14.857747 -16.541805
v -7.566233 15.111745 -15.271805
v -7.566235 15.111745 -16.541805
v -7.312235 15.239990 -15.271805
v -7.312235 15.239988 -16.541805
v -7.058157 15.111745 -15.271805
v -7.058157 15.111745 -16.541805
v -7.185234 14.857745 -15.271805
v -7.185234 14.857745 -16.541805
v 9.368883 4.062745 4.331429
v 8.102770 4.697745 4.019653
v 9.337461 4.316743 4.454468
v 8.073969 4.951744 4.143341
v 9.400305 4.444989 4.208389
v 8.131620 5.079988 3.895973
v 9.463140 4.316744 3.962273
v 8.189409 4.951743 3.648598
v 8.160501 4.697745 3.772301
v -0.732872 9.129945 2.765045
v -2.010851 9.777745 2.700066
v -0.740316 9.383943 2.891838
v -2.017200 10.031743 2.826881
v -0.725405 9.512186 2.638275
v -2.004499 10.159990 2.573219
v -0.710367 9.383943 2.384666
v -1.991800 10.031745 2.319534
v -1.998150 9.777745 2.446365
v -7.439234 14.857745 21.558189
v -7.566236 15.111743 20.288177
v -7.566235 15.111745 21.558174
v -7.312235 15.239989 20.288185
v -7.312235 15.239990 21.558189
v -7.058161 15.111744 20.288193
v -7.058161 15.111745 21.558182
v -7.185234 14.857744 20.288193
v -7.185234 14.857745 21.558189
v -7.439234 14.857744 20.288185
v -7.566235 15.111744 19.018181
v -7.566236 15.111743 20.288177
v -7.312235 15.239989 19.018196
v -7.312235 15.239989 20.288185
v -7.058159 15.111743 19.018196
v -7.058161 15.111744 20.288193
v -7.185234 14.857744 19.018196
v -7.185234 14.857744 20.288193
v -7.439234 14.857742 19.018196
v -7.566235 15.111744 17.748184
v -7.566235 15.111744 19.018181
v -7.312235 15.239989 17.748192
v -7.312235 15.239989 19.018196
v -7.058161 15.111743 17.748192
v -7.058159 15.111743 19.018196
v -7.185234 14.857744 17.748192
v -7.185234 14.857744 19.018196
v -7.439234 14.857744 17.748192
v -7.566235 15.111747 16.478203
v -7.566235 15.111744 17.748184
v -7.312235 15.239990 16.478195
v -7.312235 15.239989 17.748192
v -7.058161 15.111745 16.478203
v -7.058161 15.111743 17.748192
v -7.185234 14.857745 16.478203
v -7.185234 14.857744 17.748192
v -7.439234 14.857745 16.478195
v -7.566235 15.111745 15.208191
v -7.566235 15.111747 16.478203
v -7.312237 15.239990 15.208191
v -7.312235 15.239990 16.478195
v -7.058159 15.111745 15.208191
v -7.058161 15.111745 16.478203
v -7.185234 14.857745 15.208191
v -7.185234 14.857745 16.478203
v -7.439234 14.857745 15.208191
v -7.566236 15.111743 13.938202
v -7.566235 15.111745 15.208191
v -7.312235 15.239989 13.938194
v -7.312237 15.239990 15.208191
v -7.058159 15.111744 13.938194
v -7.058159 15.111745 15.208191
v -7.185234 14.857744 13.938194
v -7.185234 14.857745 15.208191
v -7.439234 14.857744 13.938194
v -7.566235 15.111744 12.668198
v -7.566236 15.111743 13.938202
v -7.312235 15.239989 12.668190
v -7.312235 15.239989 13.938194
v -7.058159 15.111744 12.668182
v -7.058159 15.111744 13.938194
v -7.185234 14.857744 12.668190
v -7.185234 14.857744 13.938194
v -7.439234 14.857744 12.668198
v -7.566235 15.111744 11.398201
v -7.566235 15.111744 12.668198
v -7.312235 15.239989 11.398193
v -7.312235 15.239989 12.668190
v -7.058159 15.111744 11.398193
v -7.058159 15.111744 12.668182
v -7.185234 14.857744 11.398193
v -7.185234 14.857744 12.668190
v -7.439236 14.857744 11.398186
v -7.566240 15.111744 10.128189
v -7.566235 15.111744 11.398201
v -7.312235 15.239990 10.128189
v -7.312235 15.239989 11.398193
v -7.058161 15.111747 10.128189
v -7.058159 15.111744 11.398193
v -7.185236 14.857745 10.128181
v -7.185234 14.857744 11.398193
v 8.160501 4.697745 -8.915916
v 8.189402 4.951744 -8.792213
v 9.463140 4.316745 -9.105881
v 8.131624 5.079990 -9.039585
v 9.400305 4.444991 -9.352005
v 8.073969 4.951747 -9.286953
v 9.337461 4.316745 -9.598080
v 8.102770 4.697746 -9.163258
v 9.368883 4.062746 -9.475040
v 8.160501 4.697745 -8.915916
v 6.917448 5.586744 -8.518429
v 8.189402 4.951744 -8.792213
v 6.865713 5.714991 -8.767117
v 8.131624 5.079990 -9.039585
v 6.814077 5.586746 -9.015808
v 8.073969 4.951747 -9.286953
v 6.839884 5.332747 -8.891476
v 8.102770 4.697746 -9.163258
v 6.891569 5.332745 -8.642784
v 5.643419 6.221744 -8.269661
v 6.917448 5.586744 -8.518429
v 5.606226 6.349988 -8.521656
v 6.865713 5.714991 -8.767117
v 5.552153 6.221745 -8.769413
v 6.814077 5.586746 -9.015808
v 5.574930 5.967745 -8.644466
v 6.839884 5.332747 -8.891476
v 5.620558 5.967746 -8.394577
v 4.369989 6.856745 -8.057720
v 5.643419 6.221744 -8.269661
v 4.330362 6.984988 -8.308655
v 5.606226 6.349988 -8.521656
v 4.290892 6.856745 -8.559578
v 5.552153 6.221745 -8.769413
v 4.310629 6.602746 -8.434128
v 5.574930 5.967745 -8.644466
v 4.350149 6.602744 -8.183174
v 3.095945 7.491744 -7.879036
v 4.369989 6.856745 -8.057720
v 3.062441 7.619988 -8.130821
v 4.330362 6.984988 -8.308655
v 3.029093 7.491745 -8.382641
v 4.290892 6.856745 -8.559578
v 3.045759 7.237745 -8.256729
v 4.310629 6.602746 -8.434128
v 3.079184 7.237744 -8.004917
v 1.825974 8.126746 -7.729816
v 3.095945 7.491744 -7.879036
v 1.798613 8.254990 -7.982368
v 3.062441 7.619988 -8.130821
v 1.771385 8.126745 -8.234913
v 3.029093 7.491745 -8.382641
v 1.784979 7.872744 -8.108627
v 3.045759 7.237745 -8.256729
v 1.812284 7.872745 -7.856075
v 0.553051 8.761745 -7.614166
v 1.825974 8.126746 -7.729816
v 0.531868 8.889990 -7.867279
v 1.798613 8.254990 -7.982368
v 0.510788 8.761746 -8.120407
v 1.771385 8.126745 -8.234913
v 0.521301 8.507746 -7.993843
v 1.784979 7.872744 -8.108627
v 0.542435 8.507746 -7.740715
v -0.710367 9.383945 -7.528286
v 0.553051 8.761745 -7.614166
v -0.725405 9.512188 -7.781883
v 0.531868 8.889990 -7.867279
v -0.740316 9.383946 -8.035450
v 0.510788 8.761746 -8.120407
v -0.732868 9.129946 -7.908653
v 0.521301 8.507746 -7.993843
v -1.998154 9.777745 -7.589973
v -1.991804 10.031746 -7.463169
v -0.710367 9.383945 -7.528286
v -2.004499 10.159992 -7.716831
v -0.725405 9.512188 -7.781883
v -2.017200 10.031745 -7.970497
v -0.740316 9.383946 -8.035450
v -2.010851 9.777747 -7.843674
v -0.732868 9.129946 -7.908653
v -1.998154 9.777745 -7.589973
v -3.260378 10.666745 -7.399658
v -1.991804 10.031746 -7.463169
v -3.272820 10.794991 -7.653385
v -2.004499 10.159992 -7.716831
v -3.285269 10.666746 -7.907051
v -2.017200 10.031745 -7.970497
v -3.279047 10.412746 -7.780205
v -2.010851 9.777747 -7.843674
v -3.266600 10.412745 -7.526505
v -4.570127 11.272589 -7.547283
v -3.260378 10.666745 -7.399658
v -4.501520 11.400859 -7.791828
v -3.272820 10.794991 -7.653385
v -4.432917 11.272586 -8.036396
v -3.285269 10.666746 -7.907051
v -4.467207 11.018588 -7.914108
v -3.279047 10.412746 -7.780205
v -4.535837 11.018586 -7.669559
v -5.884171 11.936745 -8.184139
v -4.570127 11.272589 -7.547283
v -5.741573 12.087496 -8.394348
v -4.501520 11.400859 -7.791828
v -5.598953 11.959249 -8.604538
v -4.432917 11.272586 -8.036396
v -5.670277 11.705250 -8.499454
v -4.467207 11.018588 -7.914108
v -5.812870 11.705250 -8.289242
v -6.723286 12.571745 -9.008003
v -5.884171 11.936745 -8.184139
v -6.493107 12.699992 -9.177883
v -5.741573 12.087496 -8.394348
v -6.319551 12.571747 -9.316315
v -5.598953 11.959249 -8.604538
v -6.392172 12.317745 -9.254971
v -5.670277 11.705250 -8.499454
v -6.594049 12.317745 -9.100822
v -7.224352 13.206744 -10.157772
v -6.723286 12.571745 -9.008003
v -6.984041 13.334991 -10.239952
v -6.493107 12.699992 -9.177883
v -6.743704 13.206747 -10.322155
v -6.319551 12.571747 -9.316315
v -6.863874 12.952745 -10.281059
v -6.392172 12.317745 -9.254971
v -7.104212 12.952744 -10.198841
v -7.565220 13.841744 -11.461807
v -7.224352 13.206744 -10.157772
v -7.311220 13.982231 -11.461807
v -6.984041 13.334991 -10.239952
v -7.057320 13.841743 -11.461796
v -6.743704 13.206747 -10.322155
v -7.184221 13.587744 -11.461807
v -6.863874 12.952745 -10.281059
v -7.438215 13.587747 -11.461796
v -7.566488 14.476744 -12.731804
v -7.565220 13.841744 -11.461807
v -7.312490 14.616722 -12.731804
v -7.311220 13.982231 -11.461807
v -7.058390 14.476743 -12.731804
v -7.057320 13.841743 -11.461796
v -7.185490 14.222744 -12.731804
v -7.184221 13.587744 -11.461807
v 9.669794 1.049798 5.355614
v 9.680517 1.162423 5.761116
v 9.462458 1.141888 5.306259
v 9.448645 1.316083 5.827744
v 9.255114 1.049788 5.256935
v 9.210062 1.162400 5.900360
v 9.301470 0.923839 5.267265
v 9.317373 0.923902 5.868797
v 11.546396 2.800035 5.207939
v 11.660730 3.051900 5.175629
v 11.327173 3.378977 4.599777
v 11.424383 3.230081 5.243675
v 11.143938 3.531301 4.787407
v 10.971224 3.379003 4.969765
v 10.677671 3.809989 4.535118
v 10.619123 3.681745 4.774658
v 11.275305 2.170195 6.338333
v 11.369364 2.422071 6.427559
v 11.690264 2.736993 5.840652
v 11.172255 2.552334 6.241051
v 11.428316 2.893660 5.776642
v 11.193972 2.737018 5.721107
v 11.424383 3.230081 5.243675
v 11.183256 3.051926 5.315613
v 10.160780 1.540361 6.668762
v 10.130579 1.792237 6.807838
v 10.805075 2.107153 6.786446
v 10.188005 1.930633 6.544304
v 10.724047 2.240070 6.519104
v 10.654657 2.107175 6.289742
v 11.172255 2.552334 6.241051
v 11.000505 2.422093 6.077667
v 9.317373 0.923902 5.868797
v 9.210062 1.162400 5.900360
v 9.516256 1.477320 6.501762
v 9.448645 1.316083 5.827744
v 9.722353 1.625822 6.286118
v 9.892557 1.477340 6.106972
v 10.188005 1.930633 6.544304
v 10.249121 1.792258 6.300461
v -7.439999 14.857744 8.858185
v -7.567005 15.111742 8.858192
v -7.566240 15.111744 10.128189
v -7.312998 15.239990 8.858192
v -7.312235 15.239990 10.128189
v -7.061689 15.111745 8.858192
v -7.058161 15.111747 10.128189
v -7.185236 14.857745 10.128181
v 10.702406 3.427746 -9.553688
v 10.738878 3.681745 -9.423504
v 11.327166 3.378980 -9.743393
v 10.677671 3.809989 -9.678722
v 11.143938 3.531302 -9.931023
v 10.971220 3.379003 -10.113377
v 11.424379 3.230083 -10.387287
v 11.183256 3.051926 -10.459213
v 11.546400 2.800036 -10.351547
v 11.660727 3.051901 -10.319237
v 11.690264 2.736992 -10.984257
v 11.424379 3.230083 -10.387287
v 11.428316 2.893660 -10.920250
v 11.193972 2.737018 -10.864727
v 11.172255 2.552334 -11.384663
v 11.000505 2.422093 -11.221298
v 11.275305 2.170194 -11.481949
v 11.369364 2.422070 -11.571178
v 10.805075 2.107154 -11.930054
v 11.172255 2.552334 -11.384663
v 10.724043 2.240072 -11.662716
v 10.654657 2.107177 -11.433353
v 10.188005 1.930635 -11.687916
v 10.249121 1.792260 -11.444077
v 10.160776 1.540361 -11.812378
v 10.130575 1.792238 -11.951443
v 9.516253 1.477320 -11.645370
v 10.188005 1.930635 -11.687916
v 9.722345 1.625822 -11.429726
v 9.892553 1.477340 -11.250580
v 9.448641 1.316083 -10.971355
v 9.680517 1.162423 -10.904728
v -7.185488 14.222744 7.588196
v -7.185745 14.857745 8.858185
v -7.058390 14.476743 7.588196
v -7.061689 15.111745 8.858192
v -7.312489 14.616724 7.588196
v -7.312998 15.239990 8.858192
v -7.567005 15.111742 8.858192
v 9.337461 4.316743 4.454468
v 9.400305 4.444989 4.208389
v 10.677671 3.809989 4.535118
v 9.463140 4.316744 3.962273
v 10.738874 3.681745 4.279884
v 9.431723 4.062745 4.085335
v 10.702406 3.427746 4.410057
v -7.058161 15.111747 22.828186
v -7.312235 15.239993 22.828194
v -7.312235 15.239990 21.558189
v -7.566235 15.111747 22.828186
v -7.566235 15.111745 21.558174
v -7.439230 14.857747 22.828194
v -7.439234 14.857745 21.558189
v -7.439491 14.222744 -12.731804
v -7.439999 14.857745 -14.001804
v -7.566488 14.476744 -12.731804
v -7.566996 15.111747 -14.001797
v -7.312490 14.616722 -12.731804
v -7.312998 15.239988 -14.001804
v -7.061691 15.111744 -14.001804
v 9.301474 0.923839 -10.410881
v 9.210058 1.162400 -11.043976
v 9.255114 1.049787 -10.400543
v 9.448641 1.316083 -10.971355
v 9.462454 1.141888 -10.449867
v 9.680517 1.162423 -10.904728
v 9.669798 1.049798 -10.499222
v 10.702406 3.427746 -9.553688
v 9.431723 4.062746 -9.228943
v 10.738878 3.681745 -9.423504
v 9.463140 4.316745 -9.105881
v 10.677671 3.809989 -9.678722
v 9.400305 4.444991 -9.352005
v 9.337461 4.316745 -9.598080
v -7.566996 15.111747 -14.001797
v -7.566233 15.111745 -15.271805
v -7.312998 15.239988 -14.001804
v -7.312235 15.239990 -15.271805
v -7.061691 15.111744 -14.001804
v -7.058157 15.111745 -15.271805
v -7.185234 14.857745 -15.271805
v 9.669798 1.049798 -10.499222
v 9.863272 1.049737 -10.142658
v 9.462454 1.141888 -10.449867
v 9.581278 1.049727 -9.902298
v 9.255114 1.049787 -10.400543
v 9.301474 0.923839 -10.410881
v -7.439234 14.857745 -26.701809
v -7.439234 14.857747 -27.971809
v -7.566233 15.111747 -26.701801
v -7.566235 15.111745 -27.971802
v -7.312235 15.239990 -26.701805
v -7.312235 15.239992 -27.971802
v -7.312489 14.616724 7.588196
v -7.567005 15.111742 8.858192
v -7.566488 14.476746 7.588203
v -7.439999 14.857744 8.858185
v -7.439489 14.222744 7.588196
v 10.738874 3.681745 4.279884
v 10.702406 3.427746 4.410057
v 11.327173 3.378977 4.599777
v 11.231874 3.114944 4.694931
v 11.546396 2.800035 5.207939
v 11.660730 3.051900 5.175629
v 11.546396 2.800035 5.207939
v 11.690264 2.736993 5.840652
v 11.562296 2.485113 5.809448
v 11.275305 2.170195 6.338333
v 11.369364 2.422071 6.427559
v 11.275305 2.170195 6.338333
v 10.805075 2.107153 6.786446
v 10.762300 1.855276 6.652855
v 10.160780 1.540361 6.668762
v 10.130579 1.792237 6.807838
v 10.160780 1.540361 6.668762
v 9.516256 1.477320 6.501762
v 9.631899 1.225441 6.381767
v 9.317373 0.923902 5.868797
v 9.863272 1.049736 4.999046
v 9.462458 1.141888 5.306259
v 9.581278 1.049726 4.758690
v 9.255114 1.049788 5.256935
v 9.301470 0.923839 5.267265
v 10.677671 3.809989 4.535118
v 10.619123 3.681745 4.774658
v 9.337461 4.316743 4.454468
v 10.007566 3.745245 4.494797
v 9.368883 4.062745 4.331429
v -7.312235 15.239990 21.558189
v -7.058161 15.111745 21.558182
v -7.058161 15.111747 22.828186
v -7.185234 14.857745 21.558189
v -7.185234 14.857747 22.828209
v -7.312490 14.616722 -12.731804
v -7.061691 15.111744 -14.001804
v -7.058390 14.476743 -12.731804
v -7.185745 14.857745 -14.001804
v -7.185490 14.222744 -12.731804
v 11.660727 3.051901 -10.319237
v 11.546400 2.800036 -10.351547
v 11.327166 3.378980 -9.743393
v 11.231871 3.114946 -9.838551
v 10.702406 3.427746 -9.553688
v 11.369364 2.422070 -11.571178
v 11.275305 2.170194 -11.481949
v 11.690264 2.736992 -10.984257
v 11.562304 2.485110 -10.953068
v 11.546400 2.800036 -10.351547
v 10.130575 1.792238 -11.951443
v 10.160776 1.540361 -11.812378
v 10.805075 2.107154 -11.930054
v 10.762304 1.855278 -11.796478
v 11.275305 2.170194 -11.481949
v 9.210058 1.162400 -11.043976
v 9.317373 0.923902 -11.012409
v 9.516253 1.477320 -11.645370
v 9.631895 1.225442 -11.525387
v 10.160776 1.540361 -11.812378
v 9.368883 4.062746 -9.475040
v 10.007566 3.745246 -9.638412
v 9.337461 4.316745 -9.598080
v 10.619120 3.681745 -9.918270
v 10.677671 3.809989 -9.678722
v -7.185234 14.857745 -27.971806
v -7.185234 14.857745 -26.701805
v -7.058159 15.111745 -27.971806
v -7.058159 15.111747 -26.701801
v -7.312235 15.239990 -26.701805
v 10.738874 3.681745 4.279884
v 11.327173 3.378977 4.599777
v 10.677671 3.809989 4.535118
v 11.143938 3.531301 4.787407
v 11.660730 3.051900 5.175629
v 11.690264 2.736993 5.840652
v 11.424383 3.230081 5.243675
v 11.428316 2.893660 5.776642
v 11.369364 2.422071 6.427559
v 10.805075 2.107153 6.786446
v 11.172255 2.552334 6.241051
v 10.724047 2.240070 6.519104
v 10.130579 1.792237 6.807838
v 9.516256 1.477320 6.501762
v 10.188005 1.930633 6.544304
v 9.722353 1.625822 6.286118
v 11.143938 3.531302 -9.931023
v 11.424379 3.230083 -10.387287
v 11.327166 3.378980 -9.743393
v 11.660727 3.051901 -10.319237
v 11.428316 2.893660 -10.920250
v 11.172255 2.552334 -11.384663
v 11.690264 2.736992 -10.984257
v 11.369364 2.422070 -11.571178
v 10.724043 2.240072 -11.662716
v 10.188005 1.930635 -11.687916
v 10.805075 2.107154 -11.930054
v 10.130575 1.792238 -11.951443
v 9.722345 1.625822 -11.429726
v 9.448641 1.316083 -10.971355
v 9.516253 1.477320 -11.645370
v 9.210058 1.162400 -11.043976
v -7.439234 14.857747 -15.271805
v -7.566233 15.111745 -15.271805
v -7.439999 14.857745 -14.001804
v -7.566996 15.111747 -14.001797
v 9.431723 4.062745 4.085335
v 9.463140 4.316744 3.962273
v 8.160501 4.697745 3.772301
v -0.717913 9.129942 2.511467
v -0.710367 9.383943 2.384666
v -1.998150 9.777745 2.446365
v 9.863272 1.049736 4.999046
v 9.581278 1.049726 4.758690
v 9.909296 1.049731 4.836769
v 10.971224 3.379003 4.969765
v 11.424383 3.230081 5.243675
v 11.183256 3.051926 5.315613
v 11.193972 2.737018 5.721107
v 11.172255 2.552334 6.241051
v 11.000505 2.422093 6.077667
v 10.654657 2.107175 6.289742
v 10.188005 1.930633 6.544304
v 10.249121 1.792258 6.300461
v 9.892557 1.477340 6.106972
v 9.448645 1.316083 5.827744
v 9.680517 1.162423 5.761116
v 9.669794 1.049798 5.355614
v 9.462458 1.141888 5.306259
v 9.863272 1.049736 4.999046
v 9.581278 1.049726 4.758690
v 9.301470 0.923839 5.267265
v 9.588465 0.923778 4.738396
v -7.566236 15.111743 20.288177
v -7.439234 14.857745 21.558189
v -7.439234 14.857744 20.288185
v -7.566235 15.111744 19.018181
v -7.439234 14.857744 20.288185
v -7.439234 14.857742 19.018196
v -7.566235 15.111744 17.748184
v -7.439234 14.857742 19.018196
v -7.439234 14.857744 17.748192
v -7.566235 15.111747 16.478203
v -7.439234 14.857744 17.748192
v -7.439234 14.857745 16.478195
v -7.566235 15.111745 15.208191
v -7.439234 14.857745 16.478195
v -7.439234 14.857745 15.208191
v -7.566236 15.111743 13.938202
v -7.439234 14.857745 15.208191
v -7.439234 14.857744 13.938194
v -7.566235 15.111744 12.668198
v -7.439234 14.857744 13.938194
v -7.439234 14.857744 12.668198
v -7.566235 15.111744 11.398201
v -7.439234 14.857744 12.668198
v -7.439236 14.857744 11.398186
v -7.566240 15.111744 10.128189
v -7.439236 14.857744 11.398186
v -7.439236 14.857744 10.128174
v -7.439999 14.857744 8.858185
v -7.566240 15.111744 10.128189
v -7.439236 14.857744 10.128174
v -7.185236 14.857745 10.128181
v -7.061689 15.111745 8.858192
v -7.185745 14.857745 8.858185
v 9.463140 4.316745 -9.105881
v 9.431723 4.062746 -9.228943
v 8.160501 4.697745 -8.915916
v 6.917448 5.586744 -8.518429
v 8.160501 4.697745 -8.915916
v 6.891569 5.332745 -8.642784
v 5.643419 6.221744 -8.269661
v 6.891569 5.332745 -8.642784
v 5.620558 5.967746 -8.394577
v 4.369989 6.856745 -8.057720
v 5.620558 5.967746 -8.394577
v 4.350149 6.602744 -8.183174
v 3.095945 7.491744 -7.879036
v 4.350149 6.602744 -8.183174
v 3.079184 7.237744 -8.004917
v 1.825974 8.126746 -7.729816
v 3.079184 7.237744 -8.004917
v 1.812284 7.872745 -7.856075
v 0.553051 8.761745 -7.614166
v 1.812284 7.872745 -7.856075
v 0.542435 8.507746 -7.740715
v -0.710367 9.383945 -7.528286
v 0.542435 8.507746 -7.740715
v -0.717913 9.129944 -7.655079
v -0.710367 9.383945 -7.528286
v -0.717913 9.129944 -7.655079
v -1.998154 9.777745 -7.589973
v -3.260378 10.666745 -7.399658
v -1.998154 9.777745 -7.589973
v -3.266600 10.412745 -7.526505
v -4.570127 11.272589 -7.547283
v -3.266600 10.412745 -7.526505
v -4.535837 11.018586 -7.669559
v -5.884171 11.936745 -8.184139
v -4.535837 11.018586 -7.669559
v -5.812870 11.705250 -8.289242
v -6.723286 12.571745 -9.008003
v -5.812870 11.705250 -8.289242
v -6.594049 12.317745 -9.100822
v -7.224352 13.206744 -10.157772
v -6.594049 12.317745 -9.100822
v -7.104212 12.952744 -10.198841
v -7.565220 13.841744 -11.461807
v -7.104212 12.952744 -10.198841
v -7.438215 13.587747 -11.461796
v -7.566488 14.476744 -12.731804
v -7.438215 13.587747 -11.461796
v -7.439491 14.222744 -12.731804
v 9.581278 1.049727 -9.902298
v 9.863272 1.049737 -10.142658
v 9.909296 1.049732 -9.980381
v 10.971220 3.379003 -10.113377
v 10.677671 3.809989 -9.678722
v 10.619120 3.681745 -9.918270
v 11.193972 2.737018 -10.864727
v 11.424379 3.230083 -10.387287
v 11.183256 3.051926 -10.459213
v 10.654657 2.107177 -11.433353
v 11.172255 2.552334 -11.384663
v 11.000505 2.422093 -11.221298
v 9.892553 1.477340 -11.250580
v 10.188005 1.930635 -11.687916
v 10.249121 1.792260 -11.444077
v 9.301474 0.923839 -10.410881
v 9.317373 0.923902 -11.012409
v 9.210058 1.162400 -11.043976
v 9.301474 0.923839 -10.410881
v 9.581278 1.049727 -9.902298
v 9.588469 0.923778 -9.882000
v -7.312235 15.239990 -26.701805
v -7.312235 15.239990 -27.971806
v -7.058159 15.111745 -27.971806
v -7.061691 15.111744 -14.001804
v -7.185234 14.857745 -15.271805
v -7.185745 14.857745 -14.001804
vt 0.999939 -0.999939
vt 0.999939 -0.399963
vt 0.000000 -0.999939
vt 0.000000 -0.399963
vt 0.999939 0.000000
vt 0.000000 0.000000
vt 0.999939 -0.399963
vt 0.000000 -0.399963
vt 0.999939 -0.999939
vt 0.000000 -0.999939
vt 0.999939 -0.999939
vt 0.999939 -0.399963
vt 0.000000 -0.999939
vt 0.000000 -0.399963
vt 0.999939 0.000000
vt 0.000000 0.000000
vt 0.999939 -0.399963
vt 0.000000 -0.399963
vt 0.999939 -0.999939
vt 0.000000 -0.999939
vt 0.999939 -0.999939
vt 0.999939 -0.399963
vt 0.000000 -0.999939
vt 0.000000 -0.399963
vt 0.999939 0.000000
vt 0.000000 0.000000
vt 0.999939 -0.399963
vt 0.000000 -0.399963
vt 0.999939 -0.999939
vt 0.000000 -0.999939
vt 0.999939 -0.999939
vt 0.999939 -0.399963
vt 0.000000 -0.999939
vt 0.000000 -0.399963
vt 0.999939 0.000000
vt 0.000000 0.000000
vt 0.999939 -0.399963
vt 0.000000 -0.399963
vt 0.999939 -0.999939
vt 0.000000 -0.999939
vt 0.999939 -0.999939
vt 0.999939 -0.399963
vt 0.000000 -0.999939
vt 0.000000 -0.399963
vt 0.999939 0.000000
vt 0.000000 0.000000
vt 0.999939 -0.399963
vt 0.000000 -0.399963
vt 0.999939 -0.999939
vt 0.000000 -0.999939
vt 0.999939 -0.999939
vt 0.999939 -0.399963
vt 0.000000 -0.999939
vt 0.000000 -0.399963
vt 0.999939 0.000000
vt 0.000000 0.000000
vt 0.999939 -0.399963
vt 0.000000 -0.399963
vt 0.999939 -0.999939
vt 0.000000 -0.999939
vt 0.999939 -0.999939
vt 0.999939 -0.399963
vt 0.000000 -0.999939
vt 0.000000 -0.399963
vt 0.999939 0.000000
vt 0.000000 0.000000
vt 0.999939 -0.399963
vt 0.000000 -0.399963
vt 0.999939 -0.999939
vt 0.000000 -0.999939
vt 0.999939 -0.999939
vt 0.999939 -0.399963
vt 0.000000 -0.999939
vt 0.000000 -0.399963
vt 0.999939 0.000000
vt 0.000000 0.000000
vt 0.999939 -0.399963
vt 0.000000 -0.399963
vt 0.999939 -0.999939
vt 0.000000 -0.999939
vt 0.999939 -0.999939
vt 0.999939 -0.399963
vt 0.000000 -0.999939
vt 0.000000 -0.399963
vt 0.999939 0.000000
vt 0.000000 0.000000
vt 0.999939 -0.399963
vt 0.000000 -0.399963
vt 0.999939 -0.999939
vt 0.000000 -0.999939
vt 0.999939 -0.999939
vt 0.999939 -0.399963
vt 0.000000 -0.999939
vt 0.000000 -0.399963
vt 0.999939 0.000000
vt 0.000000 0.000000
vt 0.999939 -0.399963
vt 0.000000 -0.399963
vt 0.999939 -0.999939
vt 0.000000 -0.999939
vt 0.999939 -0.999939
vt 0.999939 -0.399963
vt 0.000000 -0.999939
vt 0.000000 -0.399963
vt 0.999939 0.000000
vt 0.000000 0.000000
vt 0.999939 -0.399963
vt 0.000000 -0.399963
vt 0.999939 -0.999939
vt 0.000000 -0.999939
vt 0.999939 -0.999939
vt 0.999939 -0.399963
vt 0.000000 -0.999939
vt 0.000000 -0.399963
vt 0.999939 0.000000
vt 0.000000 0.000000
vt 0.999939 -0.399963
vt 0.000000 -0.399963
vt 0.999939 -0.999939
vt 0.000000 -0.999939
vt 0.999939 -0.999939
vt 0.999939 -0.399963
vt 0.000000 -0.999939
vt 0.000000 -0.399963
vt 0.999939 0.000000
vt 0.000000 0.000000
vt 0.999939 -0.399963
vt 0.000000 -0.399963
vt 0.999939 -0.999939
vt 0.000000 -0.999939
vt 0.999939 -0.999939
vt 0.999939 -0.399963
vt 0.000000 -0.999939
vt 0.000000 -0.399963
vt 0.999939 0.000000
vt 0.000000 0.000000
vt 0.999939 -0.399963
vt 0.000000 -0.399963
vt 0.999939 -0.999939
vt 0.000000 -0.999939
vt 0.499939 -0.999939
vt 0.499939 -0.397034
vt -0.499939 -1.002869
vt -0.499939 -0.397034
vt 0.499939 -0.091125
vt -0.499939 -0.091125
vt 0.499939 -0.397034
vt -0.499939 -0.397034
vt 0.499939 -0.999939
vt -0.499939 -1.002869
vt 0.499939 -0.999939
vt 0.499939 -0.397034
vt -0.499939 -1.002869
vt -0.499939 -0.397034
vt 0.499939 -0.091125
vt -0.499939 -0.091125
vt 0.499939 -0.397034
vt -0.499939 -0.397034
vt 0.499939 -0.999939
vt -0.499939 -1.002869
vt 0.499939 -0.999939
vt 0.499939 -0.397034
vt -0.499939 -1.002869
vt -0.499939 -0.397034
vt 0.499939 -0.091125
vt -0.499939 -0.091125
vt 0.499939 -0.397034
vt -0.499939 -0.397034
vt 0.499939 -0.999939
vt -0.499939 -1.002869
vt 0.499939 -0.999939
vt 0.499939 -0.397034
vt -0.499939 -1.002869
vt -0.499939 -0.397034
vt 0.499939 -0.091125
vt -0.499939 -0.091125
vt 0.499939 -0.397034
vt -0.499939 -0.397034
vt 0.499939 -0.999939
vt -0.499939 -1.002869
vt 0.499939 -0.999939
vt 0.499939 -0.397034
vt -0.499939 -1.002869
vt -0.499939 -0.397034
vt 0.499939 -0.091125
vt -0.499939 -0.091125
vt 0.499939 -0.397034
vt -0.499939 -0.397034
vt 0.499939 -0.999939
vt -0.499939 -1.002869
vt 0.499939 -0.999939
vt 0.499939 -0.397034
vt -0.499939 -1.002869
vt -0.499939 -0.397034
vt 0.499939 -0.091125
vt -0.499939 -0.091125
vt 0.499939 -0.397034
vt -0.499939 -0.397034
vt 0.499939 -0.999939
vt -0.499939 -1.002869
vt 0.499939 -0.999939
vt 0.499939 -0.397034
vt -0.499939 -1.002869
vt -0.499939 -0.397034
vt 0.499939 -0.091125
vt -0.499939 -0.091125
vt 0.499939 -0.397034
vt -0.499939 -0.397034
vt 0.499939 -0.999939
vt -0.499939 -1.002869
vt 0.499939 -0.999939
vt 0.499939 -0.397034
vt -0.499939 -1.002869
vt -0.499939 -0.397034
vt 0.499939 -0.091125
vt -0.499939 -0.091125
vt 0.499939 -0.397034
vt -0.499939 -0.397034
vt 0.499939 -0.999939
vt -0.499939 -1.002869
vt 0.499939 -0.999939
vt 0.499939 -0.397034
vt -0.499939 -1.002869
vt -0.499939 -0.397034
vt 0.499939 -0.091125
vt -0.499939 -0.091125
vt 0.499939 -0.397034
vt -0.499939 -0.397034
vt 0.499939 -0.999939
vt -0.499939 -1.002869
vt 0.000000 -0.999939
vt 0.000000 -0.399963
vt 0.999939 -0.999939
vt 0.999939 -0.399963
vt 0.000000 0.000000
vt 0.999939 0.000000
vt 0.000000 -0.399963
vt 0.999939 -0.399963
vt 0.999939 -0.999939
vt 0.000000 -0.999939
vt 0.000000 -0.399963
vt 0.999939 -0.999939
vt 0.999939 -0.399963
vt 0.000000 0.000000
vt 0.999939 0.000000
vt 0.000000 -0.399963
vt 0.999939 -0.399963
vt 0.999939 -0.999939
vt -0.499939 -1.002869
vt -0.499939 -0.397034
vt 0.499939 -0.397034
vt 0.499939 -0.091125
vt -0.499939 -0.091125
vt 0.499939 -0.397034
vt -0.499939 -0.397034
vt 0.499939 -0.999939
vt -0.499939 -1.002869
vt -0.499939 -1.002869
vt -0.499939 -0.397034
vt 0.499939 -0.397034
vt 0.499939 -0.091125
vt -0.499939 -0.091125
vt 0.499939 -0.397034
vt -0.499939 -0.397034
vt 0.499939 -0.999939
vt -0.499939 -1.002869
vt -0.499939 -1.002869
vt -0.499939 -0.397034
vt 0.499939 -0.397034
vt 0.499939 -0.091125
vt -0.499939 -0.091125
vt 0.499939 -0.397034
vt -0.499939 -0.397034
vt 0.499939 -0.999939
vt -0.499939 -1.002869
vt -0.499939 -1.002869
vt -0.499939 -0.397034
vt 0.499939 -0.397034
vt 0.499939 -0.091125
vt -0.499939 -0.091125
vt 0.499939 -0.397034
vt -0.499939 -0.397034
vt 0.499939 -0.999939
vt -0.499939 -1.002869
vt -0.499939 -1.002869
vt -0.499939 -0.397034
vt 0.499939 -0.397034
vt 0.499939 -0.091125
vt -0.499939 -0.091125
vt 0.499939 -0.397034
vt -0.499939 -0.397034
vt 0.499939 -0.999939
vt -0.499939 -1.002869
vt -0.499939 -1.002869
vt -0.499939 -0.397034
vt 0.499939 -0.397034
vt 0.499939 -0.091125
vt -0.499939 -0.091125
vt 0.499939 -0.397034
vt -0.499939 -0.397034
vt 0.499939 -0.999939
vt -0.499939 -1.002869
vt -0.499939 -1.002869
vt -0.499939 -0.397034
vt 0.499939 -0.397034
vt 0.499939 -0.091125
vt -0.499939 -0.091125
vt 0.499939 -0.397034
vt -0.499939 -0.397034
vt 0.499939 -0.999939
vt -0.499939 -1.002869
vt -0.499939 -1.002869
vt -0.499939 -0.397034
vt 0.499939 -0.397034
vt 0.499939 -0.091125
vt -0.499939 -0.091125
vt 0.499939 -0.397034
vt -0.499939 -0.397034
vt 0.499939 -0.999939
vt -0.499939 -1.002869
vt -0.499939 -1.002869
vt -0.499939 -0.397034
vt 0.499939 -0.397034
vt 0.499939 -0.091125
vt -0.499939 -0.091125
vt 0.499939 -0.397034
vt -0.499939 -0.397034
vt 0.499939 -0.999939
vt -0.499939 -1.002869
vt 0.999939 -0.999939
vt 0.000000 -0.399963
vt 0.999939 -0.399963
vt 0.999939 0.000000
vt 0.000000 0.000000
vt 0.999939 -0.399963
vt 0.000000 -0.399963
vt 0.999939 -0.999939
vt 0.000000 -0.999939
vt 0.000000 -0.999939
vt 0.000000 -0.399963
vt 0.999939 -0.399963
vt 0.999939 0.000000
vt 0.000000 0.000000
vt 0.999939 -0.399963
vt 0.000000 -0.399963
vt 0.999939 -0.999939
vt 0.000000 -0.999939
vt 0.000000 -0.999939
vt 0.000000 -0.399963
vt 0.999939 -0.399963
vt 0.999939 0.000000
vt 0.000000 0.000000
vt 0.999939 -0.399963
vt 0.000000 -0.399963
vt 0.999939 -0.999939
vt 0.000000 -0.999939
vt 0.000000 -0.999939
vt 0.000000 -0.399963
vt 0.999939 -0.399963
vt 0.999939 0.000000
vt 0.000000 0.000000
vt 0.999939 -0.399963
vt 0.000000 -0.399963
vt 0.999939 -0.999939
vt 0.000000 -0.999939
vt 0.000000 -0.999939
vt 0.000000 -0.399963
vt 0.999939 -0.399963
vt 0.999939 0.000000
vt 0.000000 0.000000
vt 0.999939 -0.399963
vt 0.000000 -0.399963
vt 0.999939 -0.999939
vt 0.000000 -0.999939
vt 0.000000 -0.999939
vt 0.000000 -0.399963
vt 0.999939 -0.399963
vt 0.999939 0.000000
vt 0.000000 0.000000
vt 0.999939 -0.399963
vt 0.000000 -0.399963
vt 0.999939 -0.999939
vt 0.000000 -0.999939
vt 0.000000 -0.999939
vt 0.000000 -0.399963
vt 0.999939 -0.399963
vt 0.999939 0.000000
vt 0.000000 0.000000
vt 0.999939 -0.399963
vt 0.000000 -0.399963
vt 0.999939 -0.999939
vt 0.000000 -0.999939
vt 0.000000 -0.999939
vt 0.000000 -0.399963
vt 0.999939 -0.399963
vt 0.999939 0.000000
vt 0.000000 0.000000
vt 0.999939 -0.399963
vt 0.000000 -0.399963
vt 0.999939 -0.999939
vt 0.000000 -0.999939
vt 0.999939 -0.999939
vt 0.000000 -0.399963
vt 0.999939 -0.399963
vt 0.999939 0.000000
vt 0.000000 0.000000
vt 0.999939 -0.399963
vt 0.000000 -0.399963
vt 0.999939 -0.999939
vt 0.000000 -0.999939
vt 0.000000 -0.999939
vt 0.000000 -0.399963
vt 0.999939 -0.399963
vt 0.999939 0.000000
vt 0.000000 0.000000
vt 0.999939 -0.399963
vt 0.000000 -0.399963
vt 0.999939 -0.999939
vt 0.000000 -0.999939
vt 0.000000 -0.999939
vt 0.000000 -0.399963
vt 0.999939 -0.399963
vt 0.999939 0.000000
vt 0.000000 0.000000
vt 0.999939 -0.399963
vt 0.000000 -0.399963
vt 0.999939 -0.999939
vt 0.000000 -0.999939
vt 0.000000 -0.999939
vt 0.000000 -0.399963
vt 0.999939 -0.399963
vt 0.999939 0.000000
vt 0.000000 0.000000
vt 0.999939 -0.399963
vt 0.000000 -0.399963
vt 0.999939 -0.999939
vt 0.000000 -0.999939
vt 0.000000 -0.999939
vt 0.000000 -0.399963
vt 0.999939 -0.399963
vt 0.999939 0.000000
vt 0.000000 0.000000
vt 0.999939 -0.399963
vt 0.000000 -0.399963
vt 0.999939 -0.999939
vt 0.000000 -0.999939
vt 0.000000 -0.999939
vt 0.000000 -0.399963
vt 0.999939 -0.399963
vt 0.999939 0.000000
vt 0.000000 0.000000
vt 0.999939 -0.399963
vt 0.000000 -0.399963
vt 0.999939 -0.999939
vt 0.000000 -0.999939
vt 0.000000 -0.999939
vt 0.000000 -0.399963
vt 0.999939 -0.399963
vt 0.999939 0.000000
vt 0.000000 0.000000
vt 0.999939 -0.399963
vt 0.000000 -0.399963
vt 0.999939 -0.999939
vt 0.000000 -0.999939
vt 0.000000 -0.999939
vt 0.000000 -0.399963
vt 0.999939 -0.399963
vt 0.999939 0.000000
vt 0.000000 0.000000
vt 0.999939 -0.399963
vt 0.000000 -0.399963
vt 0.999939 -0.999939
vt 0.000000 -0.999939
vt 0.499939 -0.399963
vt 0.499939 -0.199951
vt 0.999939 -0.399963
vt 0.999939 0.000000
vt 0.499939 0.000000
vt 0.999939 -0.399963
vt 0.499939 -0.399963
vt 0.999939 -0.999939
vt 0.000000 -0.999939
vt 0.499939 -0.399963
vt 0.000000 -0.399963
vt 0.000000 0.000000
vt 0.499939 0.000000
vt 0.499939 -0.399963
vt 0.999939 0.000000
vt 0.999939 -0.399963
vt 0.000000 -0.999939
vt 0.499939 -0.399963
vt 0.000000 -0.399963
vt 0.000000 0.000000
vt 0.499939 0.000000
vt 0.499939 -0.399963
vt 0.999939 0.000000
vt 0.999939 -0.399963
vt 0.000000 -0.999939
vt 0.499939 -0.399963
vt 0.000000 -0.399963
vt 0.000000 0.000000
vt 0.499939 0.000000
vt 0.499939 -0.399963
vt 0.999939 0.000000
vt 0.999939 -0.399963
vt 0.000000 -0.999939
vt 0.499939 -0.399963
vt 0.000000 -0.399963
vt 0.000000 0.000000
vt 0.499939 0.000000
vt 0.499939 -0.399963
vt 0.999939 0.000000
vt 0.999939 -0.399963
vt 0.499939 -0.999939
vt -0.499939 -0.397034
vt 0.499939 -0.397034
vt 0.499939 -0.091125
vt -0.499939 -0.091125
vt 0.499939 -0.397034
vt -0.499939 -0.397034
vt -0.499939 -1.002869
vt 0.999939 -0.999939
vt 0.499939 -0.399963
vt 0.999939 -0.399963
vt 0.999939 0.000000
vt 0.499939 0.000000
vt 0.499939 -0.399963
vt 0.000000 0.000000
vt 0.000000 -0.399963
vt 0.999939 -0.999939
vt 0.499939 -0.399963
vt 0.999939 -0.399963
vt 0.999939 0.000000
vt 0.499939 0.000000
vt 0.499939 -0.399963
vt 0.000000 0.000000
vt 0.000000 -0.399963
vt 0.999939 -0.999939
vt 0.499939 -0.399963
vt 0.999939 -0.399963
vt 0.999939 0.000000
vt 0.499939 0.000000
vt 0.499939 -0.399963
vt 0.000000 0.000000
vt 0.000000 -0.399963
vt 0.999939 -0.999939
vt 0.499939 -0.399963
vt 0.999939 -0.399963
vt 0.999939 0.000000
vt 0.499939 0.000000
vt 0.499939 -0.399963
vt 0.000000 0.000000
vt 0.000000 -0.399963
vt 0.000000 -0.999939
vt 0.000000 -0.399963
vt 0.999939 -0.999939
vt 0.999939 -0.399963
vt 0.000000 0.000000
vt 0.999939 0.000000
vt 0.999939 -0.399963
vt 0.999939 -0.399963
vt 0.000000 0.000000
vt 0.999939 0.000000
vt 0.999939 -0.399963
vt 0.000000 -0.399963
vt 0.999939 -0.999939
vt 0.000000 -0.999939
vt -0.499939 -0.397034
vt 0.499939 -0.091125
vt -0.499939 -0.091125
vt -0.499939 -0.397034
vt 0.499939 -0.397034
vt -0.499939 -1.002869
vt 0.499939 -0.999939
vt 0.000000 -0.999939
vt 0.000000 -0.399963
vt 0.999939 -0.999939
vt 0.999939 -0.399963
vt 0.000000 0.000000
vt 0.999939 0.000000
vt 0.999939 -0.399963
vt 0.499939 -0.399963
vt 0.499939 0.000000
vt 0.999939 -0.399963
vt 0.999939 0.000000
vt 0.499939 -0.199951
vt 0.999939 -0.399963
vt 0.499939 -0.399963
vt 0.000000 -0.999939
vt 0.000000 -0.399963
vt 0.999939 -0.999939
vt 0.999939 -0.399963
vt 0.000000 0.000000
vt 0.999939 0.000000
vt 0.999939 -0.399963
vt 0.499939 -0.397034
vt 0.499939 -0.091125
vt -0.499939 -0.397034
vt -0.499939 -0.091125
vt 0.499939 -0.397034
vt -0.499939 -0.397034
vt -0.499939 -1.002869
vt 0.999939 -0.399963
vt 0.999939 -0.199951
vt 0.499939 -0.399963
vt 0.499939 0.000000
vt 0.999939 0.000000
vt 0.999939 -0.399963
vt 0.499939 -0.999939
vt 0.499939 -0.397034
vt -0.499939 -1.002869
vt -0.499939 -0.397034
vt 0.499939 -0.091125
vt -0.499939 -0.091125
vt 0.000000 0.000000
vt 0.000000 -0.399963
vt 0.999939 -0.399963
vt 0.999939 -0.999939
vt 0.000000 -0.999939
vt 0.999939 -0.399963
vt 0.499939 -0.399963
vt 0.999939 -0.999939
vt 0.499939 -0.999939
vt 0.000000 -0.999939
vt 0.999939 -0.399963
vt 0.499939 -0.399963
vt 0.999939 -0.999939
vt 0.499939 -0.999939
vt 0.000000 -0.999939
vt 0.999939 -0.399963
vt 0.499939 -0.399963
vt 0.999939 -0.999939
vt 0.499939 -0.999939
vt 0.000000 -0.999939
vt 0.999939 -0.399963
vt 0.499939 -0.399963
vt 0.999939 -0.999939
vt 0.499939 -0.999939
vt 0.000000 -0.999939
vt 0.499939 -0.399963
vt 0.499939 0.000000
vt 0.999939 -0.199951
vt 0.999939 0.000000
vt 0.999939 -0.399963
vt 0.000000 0.000000
vt 0.999939 -0.399963
vt 0.000000 -0.399963
vt 0.499939 -0.999939
vt 0.999939 -0.999939
vt 0.499939 -0.091125
vt -0.499939 -0.397034
vt 0.499939 -0.397034
vt 0.499939 -0.999939
vt -0.499939 -1.002869
vt 0.000000 0.000000
vt 0.000000 -0.399963
vt 0.999939 -0.399963
vt 0.999939 -0.999939
vt 0.000000 -0.999939
vt 0.000000 -0.399963
vt 0.499939 -0.399963
vt 0.000000 -0.999939
vt 0.499939 -0.999939
vt 0.999939 -0.999939
vt 0.000000 -0.399963
vt 0.499939 -0.399963
vt 0.000000 -0.999939
vt 0.499939 -0.999939
vt 0.999939 -0.999939
vt 0.000000 -0.399963
vt 0.499939 -0.399963
vt 0.000000 -0.999939
vt 0.499939 -0.999939
vt 0.999939 -0.999939
vt 0.000000 -0.399963
vt 0.499939 -0.399963
vt 0.000000 -0.999939
vt 0.499939 -0.999939
vt 0.999939 -0.999939
vt 0.999939 -0.999939
vt 0.999939 -0.399963
vt 0.499939 -0.999939
vt 0.000000 -0.399963
vt 0.000000 0.000000
vt -0.499939 -1.002869
vt -0.499939 -0.397034
vt 0.499939 -0.999939
vt 0.499939 -0.397034
vt 0.499939 -0.091125
vt 0.999939 -0.399963
vt 0.999939 0.000000
vt 0.499939 -0.399963
vt 0.499939 0.000000
vt 0.999939 -0.399963
vt 0.999939 0.000000
vt 0.499939 -0.399963
vt 0.499939 0.000000
vt 0.999939 -0.399963
vt 0.999939 0.000000
vt 0.499939 -0.399963
vt 0.499939 0.000000
vt 0.999939 -0.399963
vt 0.999939 0.000000
vt 0.499939 -0.399963
vt 0.499939 0.000000
vt 0.499939 0.000000
vt 0.499939 -0.399963
vt 0.000000 0.000000
vt 0.000000 -0.399963
vt 0.499939 0.000000
vt 0.499939 -0.399963
vt 0.000000 0.000000
vt 0.000000 -0.399963
vt 0.499939 0.000000
vt 0.499939 -0.399963
vt 0.000000 0.000000
vt 0.000000 -0.399963
vt 0.499939 0.000000
vt 0.499939 -0.399963
vt 0.000000 0.000000
vt 0.000000 -0.399963
vt -0.499939 -1.002869
vt 0.499939 -0.999939
vt -0.499939 -0.397034
vt 0.499939 -0.397034
vt 0.000000 -0.999939
vt 0.999939 -0.999939
vt 0.000000 -0.399963
vt 0.000000 -0.999939
vt 0.999939 -0.999939
vt 0.000000 -0.399963
vt 0.312561 -0.398376
vt 0.052734 -0.399841
vt 0.184021 -0.024780
vt 0.499939 -0.399963
vt 0.000000 -0.399963
vt 0.000000 0.000000
vt 0.499939 -0.399963
vt 0.000000 -0.399963
vt 0.000000 0.000000
vt 0.499939 -0.399963
vt 0.000000 -0.399963
vt 0.000000 0.000000
vt 0.499939 -0.399963
vt 0.000000 -0.399963
vt 0.000000 0.000000
vt 0.999939 -0.399963
vt 0.499939 -0.399963
vt 0.999939 -0.199951
vt 0.499939 0.000000
vt 0.499939 -0.399963
vt 0.999939 -0.399963
vt 0.499939 -0.397034
vt 0.499939 -0.999939
vt -0.499939 -1.002869
vt 0.499939 -0.397034
vt 0.499939 -0.999939
vt -0.499939 -1.002869
vt 0.499939 -0.397034
vt 0.499939 -0.999939
vt -0.499939 -1.002869
vt 0.499939 -0.397034
vt 0.499939 -0.999939
vt -0.499939 -1.002869
vt 0.499939 -0.397034
vt 0.499939 -0.999939
vt -0.499939 -1.002869
vt 0.499939 -0.397034
vt 0.499939 -0.999939
vt -0.499939 -1.002869
vt 0.499939 -0.397034
vt 0.499939 -0.999939
vt -0.499939 -1.002869
vt 0.499939 -0.397034
vt 0.499939 -0.999939
vt -0.499939 -1.002869
vt 0.499939 -0.397034
vt 0.499939 -0.999939
vt -0.499939 -1.002869
vt 0.499939 -0.999939
vt -0.499939 -1.002869
vt -0.499939 -0.397034
vt -0.499939 -1.002869
vt 0.499939 -0.999939
vt 0.499939 -0.397034
vt 0.000000 -0.399963
vt 0.999939 -0.999939
vt 0.000000 -0.999939
vt 0.999939 -0.399963
vt 0.999939 -0.999939
vt 0.000000 -0.999939
vt 0.999939 -0.399963
vt 0.999939 -0.999939
vt 0.000000 -0.999939
vt 0.999939 -0.399963
vt 0.999939 -0.999939
vt 0.000000 -0.999939
vt 0.999939 -0.399963
vt 0.999939 -0.999939
vt 0.000000 -0.999939
vt 0.999939 -0.399963
vt 0.999939 -0.999939
vt 0.000000 -0.999939
vt 0.999939 -0.399963
vt 0.999939 -0.999939
vt 0.000000 -0.999939
vt 0.999939 -0.399963
vt 0.999939 -0.999939
vt 0.000000 -0.999939
vt 0.000000 -0.399963
vt 0.999939 -0.999939
vt 0.000000 -0.999939
vt 0.999939 -0.399963
vt 0.999939 -0.999939
vt 0.000000 -0.999939
vt 0.999939 -0.399963
vt 0.999939 -0.999939
vt 0.000000 -0.999939
vt 0.999939 -0.399963
vt 0.999939 -0.999939
vt 0.000000 -0.999939
vt 0.999939 -0.399963
vt 0.999939 -0.999939
vt 0.000000 -0.999939
vt 0.999939 -0.399963
vt 0.999939 -0.999939
vt 0.000000 -0.999939
vt 0.999939 -0.399963
vt 0.999939 -0.999939
vt 0.000000 -0.999939
vt 0.999939 -0.399963
vt 0.999939 -0.999939
vt 0.000000 -0.999939
vt 0.184021 -0.024780
vt 0.052734 -0.399841
vt 0.312561 -0.398376
vt 0.499939 -0.399963
vt 0.999939 -0.399963
vt 0.999939 0.000000
vt 0.499939 -0.399963
vt 0.999939 -0.399963
vt 0.999939 0.000000
vt 0.499939 -0.399963
vt 0.999939 -0.399963
vt 0.999939 0.000000
vt 0.499939 -0.399963
vt 0.999939 -0.399963
vt 0.999939 0.000000
vt 0.499939 -0.399963
vt 0.999939 -0.399963
vt 0.999939 -0.999939
vt 0.999939 -0.399963
vt 0.499939 -0.399963
vt 0.499939 0.000000
vt 0.499939 -0.091125
vt -0.499939 -0.397034
vt -0.499939 -0.091125
vt 0.499939 -0.397034
vt 0.499939 -0.999939
vt -0.499939 -1.002869
vn -0.0255 -0.4375 -0.8989
vn -0.8801 0.0245 -0.4741
vn -0.0237 -0.4355 -0.8999
vn 0.0693 -0.4432 -0.8938
vn -0.0260 0.8862 -0.4627
vn 0.0418 0.9251 -0.3774
vn 0.1552 0.3000 0.9412
vn 0.4788 0.8201 -0.3133
vn 0.7861 0.6046 -0.1288
vn -0.0772 0.8930 0.4434
vn -0.2913 0.8206 0.4917
vn 0.2033 0.5639 0.8004
vn 0.6734 0.6286 0.3892
vn 0.3578 0.9302 -0.0821
vn 0.4321 0.7555 0.4924
vn -0.9894 -0.1305 0.0642
vn -0.3939 -0.4361 0.8091
vn -0.1257 -0.8810 -0.4562
vn -0.3942 -0.4381 0.8079
vn -0.0433 -0.4378 -0.8980
vn -0.8513 -0.0224 -0.5242
vn -0.0444 -0.4395 -0.8971
vn -0.0417 -0.4359 -0.8990
vn -0.5429 -0.8259 -0.1523
vn 0.5536 -0.4092 -0.7253
vn -0.1140 0.8784 -0.4641
vn 0.0556 0.9247 -0.3767
vn 0.4023 0.6844 0.6081
vn 0.9986 0.0529 -0.0009
vn 0.3674 0.6379 -0.6768
vn 0.7868 0.5997 -0.1461
vn -0.1108 0.8931 0.4359
vn -0.2857 0.8216 0.4933
vn 0.2122 0.5475 0.8094
vn 0.6803 0.6314 0.3723
vn 0.3583 0.9275 -0.1064
vn 0.4436 0.7557 0.4818
vn -0.9861 -0.1362 0.0955
vn -0.3787 -0.4357 0.8166
vn -0.1347 -0.8806 -0.4543
vn -0.3789 -0.4376 0.8154
vn -0.0694 -0.4374 -0.8966
vn -0.8738 -0.0107 -0.4861
vn -0.0706 -0.4394 -0.8955
vn -0.0677 -0.4354 -0.8977
vn -0.5538 -0.8240 -0.1196
vn 0.5377 -0.4108 -0.7363
vn -0.1166 0.8767 -0.4667
vn 0.0602 0.9243 -0.3768
vn 0.4103 0.6752 0.6130
vn 0.9963 0.0618 -0.0604
vn 0.3420 0.6239 -0.7027
vn 0.7884 0.5881 -0.1805
vn -0.0884 0.8924 0.4425
vn -0.2672 0.8204 0.5056
vn 0.2424 0.5642 0.7893
vn 0.6989 0.6100 0.3735
vn 0.3535 0.9326 -0.0726
vn 0.9548 0.1211 0.2714
vn -0.9859 -0.1269 0.1094
vn -0.3569 -0.4358 0.8263
vn -0.3613 -0.8583 0.3644
vn 0.2484 -0.3009 0.9207
vn -0.3578 -0.4395 0.8239
vn -0.3572 -0.4379 0.8250
vn -0.0930 -0.4372 -0.8945
vn -0.8866 -0.0090 -0.4624
vn -0.0941 -0.4391 -0.8935
vn -0.0913 -0.4352 -0.8957
vn -0.5584 -0.8230 -0.1041
vn 0.5116 -0.4115 -0.7543
vn -0.1266 0.8769 -0.4637
vn 0.0509 0.9238 -0.3795
vn 0.4255 0.6688 0.6097
vn 0.9976 0.0511 -0.0474
vn 0.3330 0.6386 -0.6938
vn 0.7767 0.6023 -0.1842
vn -0.0712 0.8930 0.4444
vn -0.2491 0.8211 0.5136
vn 0.2648 0.5634 0.7826
vn 0.7022 0.6268 0.3378
vn 0.3543 0.9291 -0.1063
vn 0.4716 0.7529 0.4590
vn -0.9832 -0.1278 0.1307
vn -0.3364 -0.4358 0.8348
vn -0.1605 -0.8799 -0.4472
vn -0.3367 -0.4379 0.8336
vn -0.1144 -0.4373 -0.8920
vn -0.8979 -0.0082 -0.4400
vn -0.1154 -0.4392 -0.8910
vn -0.1120 -0.4353 -0.8933
vn -0.5632 -0.8214 -0.0898
vn 0.4930 -0.4114 -0.7666
vn -0.1339 0.8775 -0.4604
vn 0.0456 0.9239 -0.3799
vn 0.4411 0.6669 0.6006
vn 0.9964 0.0474 -0.0709
vn 0.3190 0.6386 -0.7003
vn 0.7739 0.6003 -0.2018
vn -0.0589 0.8930 0.4462
vn -0.2343 0.8212 0.5203
vn 0.2847 0.5637 0.7753
vn 0.7106 0.6265 0.3202
vn 0.3537 0.9283 -0.1143
vn 0.9764 0.1103 0.1859
vn -0.9807 -0.1254 0.1499
vn -0.3188 -0.4356 0.8418
vn -0.3465 -0.8548 0.3863
vn 0.2839 -0.3028 0.9098
vn -0.3198 -0.4391 0.8396
vn -0.3192 -0.4376 0.8406
vn -0.1378 -0.4371 -0.8888
vn -0.9092 -0.0070 -0.4162
vn -0.1388 -0.4389 -0.8877
vn -0.1362 -0.4351 -0.8900
vn -0.5658 -0.8212 -0.0747
vn 0.4724 -0.4118 -0.7793
vn -0.1457 0.8774 -0.4571
vn 0.0352 0.9239 -0.3810
vn 0.4565 0.6661 0.5899
vn 0.9944 0.0470 -0.0950
vn 0.3005 0.6388 -0.7083
vn 0.7681 0.6010 -0.2211
vn -0.0466 0.8930 0.4476
vn -0.2205 0.8214 0.5260
vn 0.3048 0.5629 0.7683
vn 0.7191 0.6256 0.3025
vn 0.3506 0.9284 -0.1227
vn 0.9806 0.1100 0.1620
vn -0.9763 -0.1263 0.1755
vn -0.2967 -0.4357 0.8498
vn -0.3363 -0.8549 0.3951
vn 0.3076 -0.3025 0.9021
vn -0.2978 -0.4394 0.8475
vn -0.2971 -0.4378 0.8486
vn -0.1558 -0.4375 -0.8856
vn -0.9162 -0.0088 -0.4007
vn -0.1568 -0.4394 -0.8845
vn -0.1538 -0.4355 -0.8870
vn -0.5646 -0.8227 -0.0661
vn 0.4578 -0.4109 -0.7884
vn -0.1618 0.8766 -0.4532
vn 0.0223 0.9243 -0.3810
vn 0.4696 0.6697 0.5753
vn 0.9909 0.0527 -0.1239
vn 0.2800 0.6389 -0.7165
vn 0.7609 0.6025 -0.2407
vn -0.0416 0.8929 0.4483
vn -0.2137 0.8195 0.5317
vn 0.3204 0.5635 0.7614
vn 0.7233 0.6289 0.2851
vn 0.3422 0.9303 -0.1322
vn 0.9832 0.1162 0.1411
vn -0.9708 -0.1282 0.2027
vn -0.2750 -0.4359 0.8570
vn -0.3219 -0.8567 0.4031
vn 0.3311 -0.3006 0.8944
vn -0.2761 -0.4395 0.8548
vn -0.2753 -0.4378 0.8558
vn -0.1743 -0.4365 -0.8827
vn -0.9262 -0.0031 -0.3769
vn -0.1743 -0.4364 -0.8827
vn -0.5709 -0.8199 -0.0435
vn 0.4400 -0.4099 -0.7990
vn -0.1607 0.8777 -0.4515
vn 0.0214 0.9245 -0.3807
vn 0.4798 0.6615 0.5763
vn 0.9874 0.0458 -0.1515
vn 0.2659 0.6285 -0.7309
vn 0.7613 0.5932 -0.2617
vn -0.0270 0.8927 0.4499
vn -0.1991 0.8221 0.5335
vn 0.3337 0.5580 0.7598
vn 0.7275 0.6333 0.2641
vn 0.3442 0.9267 -0.1508
vn 0.5149 0.7544 0.4072
vn -0.9679 -0.1309 0.2146
vn -0.2616 -0.4364 0.8609
vn -0.1989 -0.8772 -0.4370
vn -0.3077 -0.4461 -0.8404
vn -0.9634 -0.0904 -0.2523
vn -0.3170 -0.4694 -0.8241
vn -0.2875 -0.4223 -0.8597
vn -0.5523 -0.8301 -0.0765
vn 0.3111 -0.4206 -0.8523
vn -0.2677 0.8809 -0.3903
vn -0.0441 0.9162 -0.3983
vn 0.5662 0.7368 0.3695
vn 0.9840 0.0597 -0.1679
vn 0.2305 0.7467 -0.6240
vn 0.6906 0.6629 -0.2891
vn 0.0109 0.8922 0.4515
vn -0.0823 0.8053 0.5871
vn 0.4751 0.6410 0.6028
vn 0.8084 0.5444 0.2237
vn 0.3521 0.9355 -0.0307
vn 0.9914 0.0868 0.0983
vn -0.9243 -0.0355 0.3800
vn -0.1225 -0.4172 0.9005
vn -0.2406 -0.8362 0.4929
vn 0.4716 -0.2655 0.8409
vn -0.1403 -0.4680 0.8725
vn -0.1274 -0.4457 0.8861
vn -0.5780 -0.4783 -0.6612
vn -0.9884 -0.1051 0.1096
vn -0.5838 -0.5325 -0.6129
vn -0.5513 -0.4211 -0.7202
vn -0.5517 -0.8319 0.0596
vn 0.0090 -0.4181 -0.9083
vn -0.4157 0.8461 -0.3336
vn -0.2517 0.8869 -0.3874
vn 0.6174 0.7836 0.0685
vn 0.8869 0.0574 -0.4583
vn 0.0354 0.7589 -0.6502
vn 0.5609 0.6642 -0.4941
vn 0.1453 0.8934 0.4252
vn 0.1115 0.8153 0.5682
vn 0.6465 0.6400 0.4152
vn 0.8470 0.5298 -0.0444
vn 0.3407 0.9290 -0.1443
vn 0.9711 0.0813 -0.2246
vn -0.7492 -0.0421 0.6610
vn 0.1828 -0.4194 0.8892
vn -0.0809 -0.8323 0.5483
vn 0.7234 -0.2762 0.6328
vn 0.1563 -0.4678 0.8699
vn 0.1725 -0.4462 0.8781
vn -0.7760 -0.5234 -0.3519
vn -0.7992 -0.0015 0.6010
vn -0.7540 -0.5961 -0.2759
vn -0.7652 -0.4463 -0.4639
vn -0.4516 -0.7940 0.4070
vn -0.3369 -0.4707 -0.8155
vn -0.4035 0.9019 -0.1542
vn -0.1988 0.9326 -0.3013
vn 0.7943 0.6073 0.0162
vn 0.6786 -0.0099 -0.7345
vn -0.2939 0.6649 -0.6867
vn 0.3736 0.6208 -0.6892
vn 0.3593 0.8664 0.3468
vn 0.4095 0.7985 0.4412
vn 0.8197 0.5248 0.2295
vn 0.7962 0.4747 -0.3751
vn 0.3350 0.9085 -0.2497
vn 0.8441 0.0131 -0.5360
vn -0.4478 -0.0728 0.8912
vn 0.4902 -0.3345 0.8048
vn 0.2323 -0.7255 0.6479
vn 0.8809 -0.2669 0.3909
vn 0.3586 -0.5274 0.7702
vn 0.4383 -0.4461 0.7803
vn -0.8833 -0.4427 -0.1543
vn -0.6940 -0.0303 0.7193
vn -0.8969 -0.4021 -0.1842
vn -0.8705 -0.4810 -0.1043
vn -0.1608 -0.8040 0.5725
vn -0.5578 -0.5045 -0.6590
vn -0.4639 0.8859 -0.0074
vn -0.3541 0.9181 -0.1779
vn 0.7095 0.6498 -0.2728
vn 0.4619 -0.1095 -0.8801
vn -0.3039 0.7896 -0.5331
vn 0.1961 0.6565 -0.7284
vn 0.4050 0.9000 0.1610
vn 0.4551 0.8250 0.3351
vn 0.7416 0.6544 -0.1472
vn 0.6794 0.4597 -0.5719
vn 0.3274 0.8987 -0.2920
vn 0.6575 0.1122 -0.7450
vn -0.1694 -0.0448 0.9845
vn 0.7107 -0.4267 0.5593
vn 0.2410 -0.8411 0.4842
vn 0.9795 -0.1771 0.0960
vn 0.7912 -0.2859 0.5406
vn 0.7499 -0.3500 0.5613
vn -0.8944 -0.4472 -0.0117
vn -0.5893 -0.1453 0.7948
vn -0.8865 -0.4627 -0.0018
vn -0.9018 -0.4312 -0.0289
vn -0.2842 -0.8289 0.4819
vn -0.6896 -0.4052 -0.6002
vn -0.4842 0.8717 0.0751
vn -0.4288 0.8969 -0.1079
vn 0.4309 0.7800 -0.4539
vn 0.1262 0.0364 -0.9913
vn -0.4819 0.7479 -0.4566
vn -0.0550 0.6204 -0.7823
vn 0.4581 0.8638 0.2096
vn 0.5672 0.7848 0.2497
vn 0.7450 0.6284 -0.2238
vn 0.4509 0.5858 -0.6735
vn 0.0443 0.9287 -0.3683
vn 0.3656 0.0737 -0.9278
vn 0.0255 0.0019 0.9997
vn 0.7997 -0.3995 0.4482
vn 0.4006 -0.8149 0.4188
vn 0.9483 -0.2896 -0.1295
vn 0.7529 -0.4723 0.4583
vn 0.7780 -0.4405 0.4480
vn -0.8730 -0.4365 0.2174
vn -0.3475 -0.0132 0.9376
vn -0.0353 -0.8204 0.5707
vn -0.8253 -0.4128 -0.3853
vn -0.4751 0.8621 0.1761
vn -0.4079 0.9123 0.0371
vn 0.5091 0.6860 -0.5198
vn -0.2150 0.0612 -0.9747
vn -0.7877 0.5830 -0.1992
vn -0.3111 0.5629 -0.7658
vn 0.4821 0.8749 0.0462
vn 0.5723 0.8030 0.1667
vn 0.7847 0.5086 -0.3544
vn 0.2343 0.6103 -0.7567
vn -0.1184 0.9331 -0.3395
vn 0.0733 0.1326 -0.9885
vn 0.2792 -0.1394 0.9501
vn 0.8726 -0.4366 0.2190
vn 0.4365 -0.8487 0.2987
vn 0.8743 -0.3109 -0.3726
vn 0.8732 -0.4356 0.2187
vn 0.8729 -0.4361 0.2189
vn -0.8944 -0.4472 -0.0000
vn -0.7024 -0.1794 0.6888
vn -0.3257 -0.9329 0.1540
vn -0.6337 -0.3169 -0.7057
vn -0.3193 0.6325 0.7057
vn -0.3144 0.8413 0.4398
vn 0.2954 0.9428 -0.1543
vn -0.4570 0.5629 -0.6887
vn -0.7949 0.5987 0.0986
vn -0.4024 0.7969 -0.4507
vn 0.4023 0.7969 0.4507
vn 0.4570 0.5628 0.6888
vn 0.7948 0.5988 -0.0986
vn 0.3143 0.8414 -0.4397
vn -0.2957 0.9427 0.1544
vn 0.3192 0.6324 -0.7058
vn 0.6335 -0.3170 0.7058
vn 0.8943 -0.4474 -0.0000
vn 0.3253 -0.9330 -0.1540
vn 0.7024 -0.1791 -0.6888
vn -0.7026 -0.1791 0.6887
vn -0.3257 -0.9328 0.1540
vn -0.4570 0.5629 -0.6886
vn 0.4570 0.5628 0.6887
vn 0.4462 0.8841 -0.1387
vn -0.3051 -0.9275 -0.2160
vn 0.2954 0.9428 -0.1544
vn 0.7023 -0.1794 -0.6889
vn -0.3143 0.8413 0.4398
vn 0.3191 0.6324 -0.7059
vn 0.6335 -0.3170 0.7059
vn 0.7024 -0.1792 -0.6888
vn -0.4571 0.5629 -0.6886
vn 0.7025 -0.1790 -0.6888
vn 0.3253 -0.9330 -0.1541
vn 0.7025 -0.1792 -0.6888
vn 0.3144 0.8413 -0.4398
vn 0.3192 0.6324 -0.7059
vn 0.3142 0.8414 -0.4397
vn -0.4158 -0.4376 0.7972
vn 0.1776 -0.3042 0.9359
vn -0.4163 -0.4391 0.7962
vn -0.4156 -0.4359 0.7983
vn -0.3847 -0.8573 0.3421
vn -0.9907 -0.1303 0.0395
vn 0.9436 0.1253 0.3066
vn 0.6593 0.6335 0.4051
vn 0.3581 0.9305 -0.0774
vn -0.3095 0.8197 0.4820
vn 0.1776 0.5662 0.8049
vn -0.1260 0.8927 0.4326
vn 0.7901 0.6027 -0.1115
vn 0.6033 0.7515 -0.2670
vn 0.3966 0.6358 -0.6621
vn 0.0825 0.9235 -0.3745
vn 0.4969 0.8487 -0.1813
vn -0.0889 0.8756 -0.4747
vn -0.3088 -0.8785 0.3645
vn 0.0029 -0.4381 -0.8989
vn -0.8564 -0.1440 -0.4958
vn -0.2651 -0.4369 0.8596
vn 0.3404 -0.3064 0.8890
vn -0.2655 -0.4376 0.8591
vn -0.2650 -0.4360 0.8600
vn -0.3258 -0.8535 0.4068
vn -0.9696 -0.1278 0.2084
vn 0.9883 0.1043 0.1111
vn 0.7311 0.6271 0.2687
vn 0.3507 0.9254 -0.1440
vn -0.1939 0.8237 0.5328
vn 0.3357 0.5586 0.7585
vn -0.0221 0.8928 0.4499
vn 0.7626 0.5945 -0.2550
vn 0.5558 0.7433 -0.3722
vn 0.2730 0.6320 -0.7253
vn 0.0257 0.9239 -0.3817
vn 0.4692 0.8443 -0.2589
vn -0.1552 0.8785 -0.4518
vn -0.2462 -0.8731 0.4207
vn -0.1757 -0.4363 -0.8825
vn -0.9429 -0.1296 -0.3068
vn -0.6337 -0.3169 0.7057
vn 0.3045 -0.9277 -0.2160
vn -0.4464 0.8841 -0.1386
vn 0.2954 0.9428 0.1543
vn -0.3144 0.8413 -0.4398
vn -0.4571 0.5629 0.6886
vn -0.4023 0.7969 0.4507
vn -0.7949 0.5987 -0.0986
vn 0.4023 0.7969 -0.4507
vn 0.7948 0.5988 0.0986
vn 0.4570 0.5628 -0.6887
vn 0.3143 0.8413 0.4397
vn 0.3192 0.6324 0.7058
vn -0.2957 0.9427 -0.1544
vn 0.6335 -0.3170 -0.7058
vn 0.3253 -0.9330 0.1540
vn 0.7025 -0.1791 0.6888
vn -0.4463 0.8841 -0.1386
vn 0.2954 0.9428 0.1544
vn -0.4570 0.5629 0.6887
vn -0.4024 0.7969 0.4507
vn 0.4570 0.5628 -0.6888
vn 0.3143 0.8414 0.4397
vn 0.3191 0.6324 0.7059
vn 0.7025 -0.1792 0.6888
vn -0.6337 -0.3168 0.7057
vn 0.6335 -0.3170 -0.7059
vn 0.3046 -0.9277 -0.2160
vn 0.3192 0.6324 0.7059
vn 0.3190 0.6325 0.7059
vn 0.7024 -0.1791 0.6888
vn -0.4464 0.8840 -0.1386
vn 0.3253 -0.9330 0.1541
vn -0.6792 -0.3396 0.6506
vn -0.4507 0.8927 0.0000
vn -0.4422 0.5089 0.7386
vn 0.0029 -0.4381 0.8989
vn -0.3088 -0.8785 -0.3645
vn -0.8564 -0.1440 0.4958
vn -0.0889 0.8756 0.4747
vn 0.4969 0.8486 0.1814
vn 0.0825 0.9235 0.3745
vn 0.6033 0.7515 0.2670
vn 0.7901 0.6027 0.1115
vn 0.3966 0.6358 0.6621
vn -0.1260 0.8927 -0.4327
vn 0.1776 0.5662 -0.8049
vn -0.3095 0.8198 -0.4819
vn 0.6593 0.6334 -0.4051
vn 0.9435 0.1253 -0.3066
vn 0.3581 0.9305 0.0773
vn -0.9907 -0.1303 -0.0395
vn -0.3847 -0.8573 -0.3420
vn -0.4159 -0.4358 -0.7981
vn 0.1775 -0.3042 -0.9359
vn -0.4158 -0.4376 -0.7972
vn -0.4163 -0.4391 -0.7962
vn -0.0237 -0.4355 0.8999
vn 0.5678 -0.4110 0.7132
vn -0.6165 -0.7097 -0.3408
vn 0.3940 0.8477 0.3552
vn 0.3773 0.6735 -0.6357
vn 0.0734 0.9236 0.3762
vn 0.9981 0.0579 -0.0233
vn 0.7861 0.6045 0.1289
vn 0.3798 0.6382 0.6697
vn -0.1083 0.8929 -0.4371
vn 0.2033 0.5639 -0.8004
vn -0.2913 0.8206 -0.4917
vn 0.6734 0.6286 -0.3892
vn 0.9512 0.1200 -0.2843
vn 0.3578 0.9302 0.0821
vn -0.9894 -0.1305 -0.0643
vn -0.3769 -0.8568 -0.3520
vn -0.3939 -0.4361 -0.8091
vn 0.2021 -0.3026 -0.9315
vn -0.3942 -0.4381 -0.8079
vn -0.3948 -0.4398 -0.8067
vn -0.0417 -0.4359 0.8990
vn 0.5537 -0.4092 0.7253
vn -0.6109 -0.7150 -0.3399
vn 0.3857 0.8440 0.3726
vn 0.4023 0.6844 -0.6080
vn 0.0556 0.9247 0.3766
vn 0.9986 0.0529 0.0009
vn 0.7867 0.5998 0.1461
vn 0.3675 0.6379 0.6768
vn -0.1109 0.8931 -0.4359
vn 0.2122 0.5476 -0.8094
vn -0.2856 0.8216 -0.4933
vn 0.6803 0.6314 -0.3723
vn 0.9581 0.1188 -0.2606
vn 0.3583 0.9275 0.1064
vn -0.9861 -0.1362 -0.0955
vn -0.3708 -0.8561 -0.3599
vn -0.3790 -0.4356 -0.8165
vn 0.2191 -0.3034 -0.9273
vn -0.3789 -0.4376 -0.8154
vn -0.3795 -0.4393 -0.8143
vn -0.0677 -0.4354 0.8977
vn 0.5377 -0.4108 0.7363
vn -0.6024 -0.7073 -0.3698
vn 0.3792 0.8468 0.3729
vn 0.4103 0.6752 -0.6130
vn 0.0602 0.9243 0.3768
vn 0.9963 0.0617 0.0604
vn 0.7884 0.5881 0.1805
vn 0.3420 0.6239 0.7027
vn -0.0884 0.8924 -0.4425
vn 0.2424 0.5642 -0.7893
vn -0.2672 0.8204 -0.5056
vn 0.6989 0.6100 -0.3735
vn 0.9548 0.1210 -0.2714
vn 0.3535 0.9326 0.0727
vn -0.9859 -0.1269 -0.1094
vn -0.3615 -0.8583 -0.3643
vn -0.3572 -0.4358 -0.8261
vn 0.2484 -0.3009 -0.9207
vn -0.3572 -0.4379 -0.8250
vn -0.3578 -0.4395 -0.8239
vn -0.0913 -0.4352 0.8957
vn 0.5116 -0.4115 0.7543
vn -0.5939 -0.7060 -0.3858
vn 0.3706 0.8467 0.3819
vn 0.4255 0.6688 -0.6097
vn 0.0510 0.9238 0.3795
vn 0.9976 0.0511 0.0474
vn 0.7767 0.6023 0.1842
vn 0.3330 0.6386 0.6937
vn -0.0712 0.8930 -0.4444
vn 0.2648 0.5634 -0.7826
vn -0.2492 0.8211 -0.5136
vn 0.7021 0.6268 -0.3378
vn 0.9708 0.1137 -0.2112
vn 0.3543 0.9291 0.1063
vn -0.9832 -0.1278 -0.1306
vn -0.3534 -0.8556 -0.3782
vn -0.3364 -0.4359 -0.8348
vn 0.2654 -0.3025 -0.9154
vn -0.3367 -0.4379 -0.8336
vn -0.3374 -0.4395 -0.8325
vn -0.1127 -0.4352 0.8932
vn 0.4930 -0.4114 0.7666
vn -0.5871 -0.7041 -0.3993
vn 0.3637 0.8459 0.3901
vn 0.4411 0.6669 -0.6006
vn 0.0456 0.9239 0.3799
vn 0.9964 0.0474 0.0709
vn 0.7739 0.6003 0.2018
vn 0.3189 0.6386 0.7004
vn -0.0589 0.8930 -0.4462
vn 0.2847 0.5637 -0.7753
vn -0.2342 0.8212 -0.5203
vn 0.7106 0.6265 -0.3202
vn 0.9764 0.1103 -0.1859
vn 0.3537 0.9283 0.1143
vn -0.9807 -0.1254 -0.1500
vn -0.3464 -0.8548 -0.3863
vn -0.3188 -0.4356 -0.8418
vn 0.2839 -0.3028 -0.9098
vn -0.3192 -0.4376 -0.8406
vn -0.3198 -0.4393 -0.8395
vn -0.1362 -0.4351 0.8900
vn 0.4724 -0.4118 0.7793
vn -0.5766 -0.7038 -0.4150
vn 0.3535 0.8460 0.3991
vn 0.4565 0.6660 -0.5900
vn 0.0352 0.9239 0.3810
vn 0.9944 0.0470 0.0950
vn 0.7681 0.6010 0.2210
vn 0.3005 0.6388 0.7082
vn -0.0466 0.8930 -0.4476
vn 0.3047 0.5629 -0.7683
vn -0.2205 0.8214 -0.5260
vn 0.7191 0.6257 -0.3025
vn 0.9806 0.1100 -0.1620
vn 0.3507 0.9284 0.1227
vn -0.9763 -0.1263 -0.1755
vn -0.3363 -0.8549 -0.3951
vn -0.2967 -0.4357 -0.8498
vn 0.3077 -0.3025 -0.9021
vn -0.2971 -0.4378 -0.8486
vn -0.2978 -0.4395 -0.8474
vn -0.1542 -0.4354 0.8869
vn 0.4578 -0.4109 0.7884
vn -0.5662 -0.7067 -0.4242
vn 0.3392 0.8474 0.4084
vn 0.4697 0.6696 -0.5753
vn 0.0223 0.9243 0.3810
vn 0.9909 0.0527 0.1239
vn 0.7609 0.6025 0.2407
vn 0.2801 0.6389 0.7165
vn -0.0416 0.8929 -0.4482
vn 0.3204 0.5635 -0.7614
vn -0.2136 0.8196 -0.5317
vn 0.7233 0.6289 -0.2851
vn 0.9832 0.1161 -0.1412
vn 0.3422 0.9303 0.1323
vn -0.9708 -0.1281 -0.2026
vn -0.3219 -0.8567 -0.4030
vn -0.2750 -0.4359 -0.8570
vn 0.3310 -0.3006 -0.8945
vn -0.2754 -0.4378 -0.8558
vn -0.2761 -0.4394 -0.8548
vn -0.1757 -0.4362 0.8825
vn -0.2462 -0.8732 -0.4206
vn -0.9429 -0.1296 0.3069
vn -0.1552 0.8785 0.4519
vn 0.4692 0.8443 0.2590
vn 0.0257 0.9239 0.3818
vn 0.5558 0.7433 0.3723
vn 0.7626 0.5945 0.2550
vn 0.2730 0.6320 0.7253
vn -0.0221 0.8928 -0.4499
vn 0.3357 0.5586 -0.7585
vn -0.1939 0.8237 -0.5328
vn 0.7312 0.6271 -0.2687
vn 0.9883 0.1043 -0.1111
vn 0.3506 0.9254 0.1440
vn -0.9697 -0.1278 -0.2084
vn -0.3258 -0.8535 -0.4067
vn -0.2650 -0.4360 -0.8600
vn 0.3404 -0.3064 -0.8890
vn -0.2651 -0.4369 -0.8596
vn -0.2655 -0.4376 -0.8591
vn -0.1742 -0.4363 0.8828
vn 0.4400 -0.4098 0.7990
vn -0.5596 -0.6992 -0.4449
vn 0.3401 0.8459 0.4109
vn 0.4799 0.6616 -0.5762
vn 0.0214 0.9245 0.3807
vn 0.9874 0.0458 0.1516
vn 0.7613 0.5932 0.2617
vn 0.2659 0.6285 0.7310
vn -0.0271 0.8926 -0.4499
vn 0.3337 0.5580 -0.7598
vn -0.1991 0.8220 -0.5335
vn 0.7275 0.6333 -0.2641
vn 0.9881 0.1117 -0.1059
vn 0.3442 0.9267 0.1508
vn -0.9679 -0.1309 -0.2147
vn -0.3197 -0.8556 -0.4072
vn -0.2616 -0.4363 -0.8609
vn 0.3444 -0.3057 -0.8877
vn -0.2616 -0.4364 -0.8609
vn -0.2918 -0.4216 0.8586
vn 0.3111 -0.4206 0.8523
vn -0.4971 -0.7635 -0.4122
vn 0.2144 0.8389 0.5002
vn 0.5662 0.7368 -0.3694
vn -0.0441 0.9162 0.3983
vn 0.9840 0.0597 0.1679
vn 0.6906 0.6630 0.2891
vn 0.2306 0.7467 0.6240
vn 0.0109 0.8922 -0.4515
vn 0.4751 0.6410 -0.6028
vn -0.0823 0.8054 -0.5870
vn 0.8084 0.5445 -0.2238
vn 0.9914 0.0868 -0.0983
vn 0.3521 0.9355 0.0306
vn -0.9243 -0.0355 -0.3800
vn -0.2405 -0.8361 -0.4931
vn -0.1223 -0.4171 -0.9006
vn 0.4716 -0.2655 -0.8409
vn -0.1274 -0.4456 -0.8861
vn -0.1403 -0.4680 -0.8725
vn -0.5588 -0.4197 0.7152
vn 0.0090 -0.4181 0.9083
vn -0.3435 -0.7894 -0.5088
vn 0.0101 0.8093 0.5873
vn 0.6174 0.7837 -0.0685
vn -0.2517 0.8869 0.3873
vn 0.8869 0.0575 0.4583
vn 0.5609 0.6642 0.4941
vn 0.0354 0.7589 0.6503
vn 0.1453 0.8934 -0.4252
vn 0.6465 0.6400 -0.4152
vn 0.1115 0.8153 -0.5682
vn 0.8470 0.5298 0.0444
vn 0.9711 0.0814 0.2245
vn 0.3407 0.9290 0.1443
vn -0.7491 -0.0422 -0.6611
vn -0.0808 -0.8322 -0.5485
vn 0.1829 -0.4193 -0.8892
vn 0.7234 -0.2761 -0.6328
vn 0.1727 -0.4461 -0.8782
vn 0.1563 -0.4677 -0.8700
vn -0.7760 -0.4429 0.4490
vn -0.3369 -0.4706 0.8155
vn -0.0658 -0.6771 -0.7330
vn -0.0661 0.8374 0.5426
vn 0.7943 0.6073 -0.0162
vn -0.1988 0.9326 0.3012
vn 0.6786 -0.0099 0.7345
vn 0.3736 0.6208 0.6892
vn -0.2939 0.6649 0.6867
vn 0.3593 0.8664 -0.3468
vn 0.8197 0.5248 -0.2295
vn 0.4095 0.7985 -0.4412
vn 0.7962 0.4747 0.3752
vn 0.8441 0.0133 0.5361
vn 0.3349 0.9085 0.2497
vn -0.4478 -0.0728 -0.8912
vn 0.2322 -0.7256 -0.6478
vn 0.4902 -0.3345 -0.8048
vn 0.8809 -0.2668 -0.3909
vn 0.4384 -0.4459 -0.7804
vn 0.3589 -0.5272 -0.7703
vn -0.8686 -0.4828 0.1119
vn -0.5578 -0.5045 0.6590
vn 0.2754 -0.6485 -0.7097
vn -0.2923 0.8403 0.4566
vn 0.7094 0.6498 0.2729
vn -0.3541 0.9181 0.1779
vn 0.4619 -0.1095 0.8801
vn 0.1961 0.6565 0.7284
vn -0.3039 0.7896 0.5331
vn 0.4050 0.9000 -0.1610
vn 0.7416 0.6544 0.1472
vn 0.4551 0.8250 -0.3351
vn 0.6794 0.4597 0.5719
vn 0.6575 0.1122 0.7450
vn 0.3274 0.8987 0.2920
vn -0.1695 -0.0448 -0.9845
vn 0.2410 -0.8411 -0.4842
vn 0.7107 -0.4267 -0.5592
vn 0.9795 -0.1771 -0.0960
vn 0.7499 -0.3500 -0.5613
vn 0.7912 -0.2859 -0.5406
vn -0.9020 -0.4309 0.0260
vn -0.6896 -0.4052 0.6002
vn 0.1674 -0.7764 -0.6077
vn -0.4456 0.8056 0.3904
vn 0.4309 0.7800 0.4539
vn -0.4288 0.8969 0.1079
vn 0.1261 0.0363 0.9914
vn -0.0550 0.6204 0.7823
vn -0.4819 0.7478 0.4567
vn 0.4581 0.8638 -0.2096
vn 0.7450 0.6284 0.2238
vn 0.5672 0.7848 -0.2497
vn 0.4509 0.5857 0.6735
vn 0.3656 0.0737 0.9278
vn 0.0443 0.9287 0.3683
vn 0.0255 0.0020 -0.9997
vn 0.4007 -0.8149 -0.4188
vn 0.7997 -0.3995 -0.4482
vn 0.9483 -0.2896 0.1295
vn 0.7780 -0.4405 -0.4480
vn 0.7529 -0.4723 -0.4583
vn -0.8730 -0.4365 -0.2174
vn -0.8253 -0.4128 0.3853
vn 0.4431 -0.7128 -0.5437
vn -0.4583 0.8316 0.3137
vn 0.5092 0.6860 0.5198
vn -0.4079 0.9123 -0.0371
vn -0.2150 0.0611 0.9747
vn -0.3111 0.5629 0.7657
vn -0.7877 0.5830 0.1992
vn 0.4821 0.8749 -0.0462
vn 0.7847 0.5086 0.3544
vn 0.5722 0.8030 -0.1667
vn 0.2343 0.6104 0.7567
vn 0.0733 0.1326 0.9885
vn -0.1184 0.9331 0.3394
vn 0.2791 -0.1394 -0.9501
vn 0.4365 -0.8487 -0.2987
vn 0.8726 -0.4366 -0.2190
vn 0.8743 -0.3109 0.3726
vn 0.8729 -0.4361 -0.2189
vn 0.8732 -0.4356 -0.2187
vn 0.4422 0.8611 -0.2509
vn 0.2265 0.7603 -0.6088
vn 0.4108 0.8756 -0.2541
vn 0.4740 0.8356 -0.2775
vn 0.7768 0.4971 -0.3866
vn 0.5417 0.7655 0.3472
vn -0.2017 0.7637 -0.6133
vn -0.2446 0.2591 -0.9344
vn -0.4791 0.8596 -0.1774
vn -0.3663 0.9006 0.2341
vn 0.0083 0.8809 -0.4732
vn -0.3951 0.8062 0.4405
vn -0.7484 -0.2701 -0.6057
vn -0.9376 -0.3470 -0.0237
vn -0.5539 -0.8001 0.2302
vn -0.6846 -0.2582 0.6817
vn -0.8842 -0.4665 0.0234
vn -0.9105 -0.4129 0.0241
vn 0.6836 -0.3895 -0.6172
vn -0.4416 -0.7384 -0.5098
vn 0.8933 -0.4245 -0.1479
vn 0.4422 0.2584 0.8589
vn 0.4141 0.8944 0.1691
vn 0.5644 0.7939 0.2263
vn 0.6520 0.7518 -0.0980
vn 0.3703 0.8242 -0.4285
vn 0.8153 0.5788 -0.0151
vn -0.4663 0.2393 0.8517
vn -0.4192 0.8135 0.4031
vn 0.0079 0.8495 0.5275
vn 0.3193 0.5844 0.7460
vn -0.0688 0.6038 0.7941
vn 0.1272 0.7740 0.6203
vn 0.5072 0.8462 0.1630
vn 0.5030 0.7048 0.5003
vn 0.3830 0.7722 0.5070
vn 0.8731 -0.4161 0.2541
vn 0.0927 -0.7578 -0.6459
vn 0.5151 -0.4506 0.7291
vn -0.6376 0.1240 0.7604
vn -0.2239 0.9340 0.2785
vn -0.0045 0.8708 0.4915
vn 0.3762 0.7126 0.5922
vn 0.5486 0.8216 0.1550
vn 0.5003 0.4726 0.7255
vn -0.9444 0.3285 -0.0101
vn -0.5969 0.7920 -0.1282
vn -0.4842 0.8221 0.2995
vn -0.5026 0.5390 0.6759
vn -0.6860 0.6130 0.3920
vn -0.4847 0.7305 0.4810
vn -0.1064 0.8393 0.5332
vn -0.3184 0.6924 0.6475
vn -0.3673 0.7299 0.5765
vn 0.2364 -0.4478 0.8623
vn 0.6177 -0.7065 -0.3453
vn -0.3612 -0.4836 0.7973
vn -0.9807 0.1315 -0.1447
vn -0.3430 0.9380 0.0495
vn -0.4372 0.8553 0.2781
vn -0.2578 0.7834 0.5655
vn 0.0924 0.8660 0.4913
vn -0.3902 0.6008 0.6977
vn -0.5077 0.4003 -0.7629
vn -0.1973 0.8341 -0.5152
vn -0.4763 0.8536 -0.2112
vn -0.8165 0.5708 -0.0868
vn -0.6766 0.6263 -0.3872
vn -0.6290 0.7651 -0.1376
vn -0.4355 0.8450 0.3104
vn -0.6886 0.7072 0.1603
vn -0.6463 0.7595 0.0739
vn -0.7162 -0.3981 0.5731
vn 0.4357 -0.7592 0.4835
vn -0.9086 -0.4151 0.0473
vn -0.4142 0.2264 -0.8816
vn -0.3313 0.9177 -0.2192
vn -0.5115 0.8210 -0.2536
vn -0.6312 0.7743 0.0457
vn -0.3826 0.8567 0.3459
vn -0.8041 0.5940 -0.0250
vn 0.4569 0.3075 -0.8347
vn 0.4045 0.8139 -0.4170
vn -0.0211 0.8488 -0.5283
vn -0.3187 0.5690 -0.7581
vn 0.0445 0.6053 -0.7948
vn -0.1587 0.7635 -0.6261
vn -0.4977 0.8446 -0.1976
vn -0.4936 0.6975 -0.5195
vn -0.3840 0.7584 -0.5266
vn -0.8944 -0.4472 0.0005
vn 0.3048 -0.9277 0.2158
vn -0.6341 -0.3170 -0.7053
vn -0.3194 0.6326 -0.7056
vn -0.3256 0.9450 0.0305
vn -0.3136 0.8408 -0.4413
vn -0.4734 0.8704 0.1355
vn -0.4026 0.7964 0.4513
vn -0.7961 0.5971 -0.0985
vn 0.4050 0.7942 -0.4530
vn 0.8000 0.5920 0.0975
vn 0.4772 0.8684 -0.1347
vn 0.3151 0.8418 0.4383
vn 0.3195 0.6329 0.7052
vn 0.3220 0.9462 -0.0312
vn -0.3024 -0.9288 -0.2142
vn 0.6353 -0.3179 0.7038
vn 0.8943 -0.4474 -0.0025
vn 0.2227 -0.4698 0.8542
vn -0.1078 -0.9676 -0.2282
vn -0.6698 -0.2603 0.6954
vn -0.0257 0.8908 0.4537
vn 0.5826 0.8128 0.0062
vn 0.3280 0.8985 0.2918
vn 0.7990 0.5946 -0.0893
vn 0.8066 0.5200 -0.2811
vn 0.5253 0.8177 0.2355
vn -0.6542 0.3055 -0.6919
vn 0.3562 0.4654 -0.8103
vn 0.2080 0.7243 -0.6573
vn -0.3955 0.8750 -0.2793
vn 0.0862 0.8550 -0.5115
vn -0.0931 0.8521 -0.5150
vn -0.4061 0.4627 -0.7880
vn -0.1937 0.5812 -0.7904
vn -0.2419 0.6265 -0.7409
vn 0.8718 -0.4266 0.2407
vn -0.1508 -0.9884 -0.0191
vn 0.3518 -0.2745 0.8949
vn 0.5542 0.8093 0.1945
vn 0.5614 0.7010 -0.4398
vn 0.5496 0.8348 -0.0334
vn 0.2494 0.5136 -0.8209
vn 0.1199 0.4575 -0.8811
vn 0.3152 0.8384 -0.4447
vn -0.9190 0.2469 0.3074
vn -0.5236 0.4273 -0.7371
vn -0.4655 0.7005 -0.5409
vn -0.4939 0.8508 0.1792
vn -0.4871 0.8099 -0.3267
vn -0.5203 0.8196 -0.2399
vn -0.8129 0.5616 -0.1540
vn -0.7237 0.6444 -0.2470
vn -0.7095 0.6729 -0.2094
vn 0.6448 -0.4577 -0.6122
vn -0.1921 -0.9506 0.2439
vn 0.9303 -0.2535 0.2650
vn 0.3879 0.8961 -0.2159
vn -0.2457 0.7859 -0.5675
vn 0.0905 0.8968 -0.4332
vn -0.5697 0.5614 -0.6002
vn -0.6611 0.5332 -0.5279
vn -0.2283 0.8572 -0.4616
vn -0.3247 0.3716 0.8697
vn -0.8671 0.4906 0.0864
vn -0.6844 0.7235 0.0897
vn -0.1291 0.8761 0.4645
vn -0.4993 0.8523 0.1559
vn -0.4293 0.8584 0.2810
vn -0.5193 0.5278 0.6721
vn -0.5896 0.6301 0.5053
vn -0.5344 0.6706 0.5145
vn -0.1730 -0.4919 -0.8533
vn 0.1122 -0.9321 0.3444
vn 0.7273 -0.2629 -0.6339
vn 0.0250 0.8828 -0.4691
vn -0.6139 0.7823 -0.1056
vn -0.3044 0.8954 -0.3250
vn -0.8087 0.5575 0.1876
vn -0.7931 0.5213 0.3152
vn -0.5067 0.8599 -0.0617
vn 0.6552 0.3280 0.6805
vn -0.3448 0.4758 0.8092
vn -0.2352 0.7189 0.6541
vn 0.3854 0.8648 0.3219
vn -0.0798 0.8474 0.5250
vn 0.0714 0.8506 0.5209
vn 0.3677 0.4975 0.7857
vn 0.1815 0.6087 0.7724
vn 0.2215 0.6496 0.7273
vn 0.8727 -0.4367 0.2185
vn 0.8734 -0.3116 -0.3743
vn 0.8684 -0.4434 0.2219
vn 0.8771 -0.4284 0.2174
vn 0.4531 -0.8408 0.2961
vn 0.2772 -0.1303 0.9519
vn 0.0741 0.1317 -0.9885
vn 0.4107 0.7784 -0.4748
vn -0.1031 0.9351 -0.3392
vn 0.5468 0.8184 0.1767
vn 0.4650 0.7877 -0.4041
vn 0.4545 0.8906 0.0160
vn -0.9263 0.2447 -0.2863
vn -0.4128 0.8176 -0.4014
vn -0.4507 0.8926 0.0141
vn 0.2801 0.8201 0.4989
vn 0.0453 0.2757 0.9602
vn -0.1320 0.8925 0.4314
vn 0.0915 0.8925 -0.4417
vn 0.5011 0.7798 -0.3752
vn -0.0505 0.8188 -0.5719
vn 0.5434 0.8001 -0.2543
vn 0.9782 0.1163 0.1723
vn 0.2670 0.9285 0.2580
vn -0.8560 -0.1368 -0.4986
vn -0.1754 -0.8592 -0.4806
vn 0.0044 -0.4365 -0.8997
vn 0.6077 -0.3269 -0.7238
vn -0.0005 -0.4560 -0.8900
vn -0.0105 -0.4719 -0.8816
vn 0.4506 0.8927 -0.0000
vn 0.9472 0.2769 -0.1616
vn -0.5386 0.8422 -0.0227
vn -0.4280 0.8981 -0.1011
vn -0.3190 0.6326 -0.7057
vn -0.3257 -0.9329 -0.1540
vn -0.7025 -0.1792 -0.6887
vn -0.8729 -0.4365 -0.2179
vn -0.8736 -0.3107 0.3745
vn -0.4367 -0.8487 -0.2982
vn -0.2687 -0.1285 -0.9546
vn -0.0724 0.1314 0.9887
vn -0.4105 0.7778 0.4760
vn 0.1042 0.9354 0.3380
vn -0.5437 0.8196 -0.1809
vn -0.4578 0.7909 0.4060
vn -0.4506 0.8926 -0.0141
vn 0.9292 0.2384 0.2824
vn 0.4165 0.8162 0.4004
vn 0.4545 0.8906 -0.0160
vn -0.9383 -0.3458 0.0052
vn -0.7484 -0.2701 0.6057
vn -0.0685 -0.9368 -0.3431
vn -0.5518 0.8324 0.0512
vn 0.0082 0.8809 0.4732
vn -0.3663 0.9006 -0.2341
vn -0.2446 0.2591 0.9344
vn -0.2017 0.7637 0.6133
vn -0.4792 0.8596 0.1774
vn 0.5417 0.7655 -0.3472
vn 0.7768 0.4971 0.3866
vn 0.4740 0.8356 0.2775
vn 0.2266 0.7603 0.6088
vn 0.4422 0.8611 0.2509
vn 0.4108 0.8756 0.2541
vn -0.0005 -0.4561 0.8899
vn 0.6077 -0.3269 0.7238
vn -0.0105 -0.4719 0.8816
vn 0.0044 -0.4364 0.8997
vn -0.1754 -0.8592 0.4806
vn -0.8560 -0.1369 0.4986
vn 0.9782 0.1163 -0.1723
vn 0.5434 0.8001 0.2543
vn 0.2670 0.9285 -0.2580
vn -0.0505 0.8188 0.5719
vn 0.5011 0.7799 0.3752
vn 0.0915 0.8925 0.4417
vn 0.0453 0.2757 -0.9602
vn 0.2801 0.8201 -0.4989
vn -0.1320 0.8925 -0.4314
vn -0.4507 0.8927 -0.0003
vn -0.3139 0.8407 0.4413
vn -0.7961 0.5970 0.0985
vn -0.4026 0.7964 -0.4513
vn 0.4052 0.7941 0.4530
vn 0.4772 0.8684 0.1347
vn 0.8000 0.5920 -0.0975
vn 0.3151 0.8418 -0.4383
vn 0.3219 0.9463 0.0312
vn 0.3195 0.6329 -0.7053
vn -0.3024 -0.9288 0.2142
vn 0.8943 -0.4474 0.0025
vn 0.6353 -0.3179 -0.7038
vn 0.3591 0.9128 -0.1947
vn 0.0495 0.8150 -0.5774
vn 0.5910 0.7402 -0.3205
vn 0.1846 0.9587 0.2166
vn 0.1456 0.9890 -0.0272
vn 0.2386 0.8955 0.3757
vn -0.3506 0.9293 -0.1159
vn -0.4467 0.7239 -0.5258
vn -0.4680 0.7976 0.3806
vn 0.5195 -0.8500 0.0876
vn -0.9339 -0.3331 -0.1297
vn -0.7890 -0.3328 0.5165
vn -0.4421 0.8022 -0.4013
vn -0.0725 0.1314 -0.9887
vn 0.8158 0.5751 -0.0607
vn -0.8250 -0.4125 0.3863
vn -0.4366 -0.8488 0.2982
vn -0.8729 -0.4365 0.2179
vn -0.8736 -0.3107 -0.3745
vn 0.2227 -0.4698 -0.8542
vn 0.2974 -0.5504 -0.7801
vn 0.2379 -0.4698 -0.8501
vn 0.2697 -0.3576 -0.8941
vn 0.2473 -0.2826 -0.9268
vn 0.0694 -0.6049 -0.7933
vn 0.8142 -0.2562 -0.5209
vn 0.6078 -0.4541 -0.6514
vn 0.4925 -0.5740 -0.6542
vn 0.8718 -0.4266 -0.2407
vn 0.8724 -0.4726 -0.1248
vn 0.8724 -0.4266 -0.2384
vn 0.8816 -0.4082 -0.2370
vn 0.9232 -0.2988 -0.2416
vn 0.7127 -0.6136 -0.3401
vn 0.8650 -0.2582 0.4303
vn 0.8648 -0.4633 0.1934
vn 0.8090 -0.5804 0.0934
vn 0.6448 -0.4577 0.6122
vn 0.5478 -0.5073 0.6653
vn 0.6418 -0.4576 0.6153
vn 0.6484 -0.4266 0.6305
vn 0.6769 -0.3264 0.6597
vn 0.6485 -0.6303 0.4267
vn 0.0749 -0.2882 0.9546
vn 0.2766 -0.4865 0.8287
vn 0.3328 -0.5988 0.7284
vn -0.1730 -0.4919 0.8533
vn -0.2799 -0.5237 0.8046
vn -0.1742 -0.4919 0.8531
vn -0.1765 -0.4845 0.8568
vn -0.1967 -0.3775 0.9049
vn -0.0146 -0.6600 0.7511
vn -0.7431 -0.3711 0.5569
vn -0.5276 -0.5505 0.6470
vn -0.4074 -0.6560 0.6354
vn 0.1190 0.9830 -0.1396
vn 0.2387 0.8955 -0.3757
vn 0.3135 0.9411 0.1267
vn -0.3884 0.9179 -0.0811
vn -0.4679 0.7976 -0.3806
vn -0.4467 0.7239 0.5258
vn 0.5195 -0.8500 -0.0877
vn -0.7890 -0.3328 -0.5165
vn -0.9339 -0.3331 0.1298
vn 0.2784 0.8168 0.5053
vn 0.2464 0.5325 -0.8098
vn 0.5314 0.6859 0.4971
vn 0.0050 -0.9728 -0.2316
vn -0.4863 -0.5149 0.7060
vn -0.4124 -0.4285 0.8040
vn -0.5634 -0.3732 0.7371
vn -0.4206 -0.4371 0.7950
vn -0.4242 -0.4485 0.7867
vn -0.7980 0.5624 0.2165
vn 0.6334 -0.3172 -0.7058
vn 0.8250 -0.5643 0.0303
vn 0.8992 -0.4160 0.1356
vn 0.4422 0.8027 0.4002
vn 0.0741 0.1317 0.9885
vn -0.8114 0.5808 0.0662
vn 0.8293 -0.4050 -0.3850
vn 0.4532 -0.8408 -0.2961
vn 0.8771 -0.4284 -0.2174
vn 0.8734 -0.3116 0.3743
vn 0.8727 -0.4367 -0.2185
vn 0.8684 -0.4434 -0.2219
vn 0.6836 -0.3895 0.6172
vn 0.7277 -0.0706 0.6822
vn 0.6986 -0.3938 0.5974
vn 0.5542 -0.5136 0.6551
vn 0.7708 -0.2902 0.5672
vn 0.4924 -0.5740 0.6543
vn 0.2768 -0.2176 0.9360
vn 0.2368 -0.4039 0.8836
vn 0.0694 -0.6050 0.7932
vn 0.8731 -0.4161 -0.2541
vn 0.9617 -0.1228 -0.2450
vn 0.8667 -0.4194 -0.2702
vn 0.8471 -0.5076 -0.1574
vn 0.8762 -0.2993 -0.3778
vn 0.8090 -0.5804 -0.0934
vn 0.9441 -0.2351 0.2310
vn 0.8770 -0.4157 0.2408
vn 0.7126 -0.6136 0.3401
vn 0.2364 -0.4478 -0.8623
vn 0.2203 -0.4119 -0.8842
vn 0.2221 -0.4507 -0.8646
vn 0.2950 -0.5231 -0.7996
vn 0.2957 -0.4863 -0.8222
vn 0.2766 -0.4865 -0.8288
vn 0.6499 -0.4393 -0.6202
vn -0.7162 -0.3981 -0.5731
vn -0.8016 0.0205 -0.5975
vn -0.7497 -0.4065 -0.5222
vn -0.3820 -0.6751 -0.6311
vn -0.6867 -0.4081 -0.6017
vn -0.4074 -0.6560 -0.6354
vn -0.2314 -0.3066 -0.9233
vn -0.1740 -0.4875 -0.8556
vn -0.0146 -0.6600 -0.7512
vn -0.4207 -0.4371 -0.7950
vn -0.5634 -0.3732 -0.7371
vn -0.4242 -0.4484 -0.7867
vn -0.4124 -0.4286 -0.8039
vn -0.4863 -0.5149 -0.7060
vn 0.0050 -0.9728 0.2316
vn 0.2464 0.5325 0.8098
vn 0.2784 0.8168 -0.5053
vn 0.5314 0.6859 -0.4971
vn 0.8992 -0.4160 -0.1356
vn 0.8250 -0.5643 -0.0303
vn -0.7980 0.5624 -0.2165
vn 0.5513 0.7910 -0.2652
vn 0.5245 0.8046 -0.2785
vn 0.5715 0.7434 -0.3474
vn 0.5845 0.8070 -0.0844
vn 0.5210 0.8533 -0.0203
vn 0.5572 0.8213 -0.1226
vn 0.6276 0.7140 0.3102
vn 0.6273 0.7427 0.2342
vn 0.7883 0.5689 0.2344
vn 0.3032 0.7481 0.5902
vn 0.0974 0.8419 0.5307
vn 0.3524 0.7925 0.4977
vn -0.0539 0.7910 0.6094
vn -0.0104 0.8146 0.5800
vn 0.0533 0.7076 0.7046
vn -0.3460 0.7941 0.4997
vn -0.3845 0.8571 0.3428
vn -0.2703 0.8270 0.4931
vn -0.5476 0.7840 0.2924
vn -0.4949 0.8091 0.3171
vn -0.5733 0.6920 0.4386
vn -0.6068 0.7942 -0.0331
vn -0.4837 0.8629 -0.1463
vn -0.5605 0.8274 0.0341
vn 0.6776 0.7324 -0.0671
vn 0.6866 0.7221 -0.0843
vn 0.7130 0.7007 -0.0244
vn 0.6133 0.7868 -0.0699
vn 0.5753 0.8082 -0.1258
vn 0.6157 0.7830 -0.0881
vn 0.2597 0.7042 -0.6608
vn 0.2244 0.6659 -0.7115
vn 0.4396 0.5908 -0.6766
vn 0.1350 0.8736 -0.4675
vn -0.0984 0.8983 -0.4282
vn 0.0865 0.8574 -0.5074
vn -0.4143 0.7587 -0.5028
vn -0.4540 0.7353 -0.5032
vn -0.3740 0.6977 -0.6110
vn -0.3491 0.8588 -0.3749
vn -0.4039 0.8817 -0.2440
vn -0.3849 0.8490 -0.3620
vn -0.6558 0.7464 0.1128
vn -0.6690 0.7307 0.1361
vn -0.7063 0.7058 0.0552
vn -0.5618 0.8199 0.1106
vn -0.5038 0.8437 0.1853
vn -0.5657 0.8131 0.1378
vn -0.8944 -0.4472 -0.0005
vn 0.0036 -0.4364 -0.8998
vn -0.1755 -0.4355 -0.8829
vn -0.0000 1.0000 -0.0000
vn -0.2419 0.6266 0.7409
vn -0.7095 0.6729 0.2094
vn -0.5344 0.6706 -0.5145
vn 0.2215 0.6496 -0.7273
vn 0.3591 0.9128 0.1947
vn -0.8786 0.0267 -0.4768
vn 0.8986 -0.4389 -0.0004
vn 0.0036 -0.4364 0.8998
vn -0.0255 -0.4375 0.8989
vn -0.0433 -0.4378 0.8980
vn -0.0694 -0.4374 0.8966
vn -0.0930 -0.4372 0.8945
vn -0.1144 -0.4373 0.8920
vn -0.1378 -0.4371 0.8888
vn -0.1558 -0.4375 0.8856
vn -0.1755 -0.4355 0.8829
vn -0.1744 -0.4365 0.8826
vn -0.3077 -0.4461 0.8404
vn -0.5780 -0.4782 0.6612
vn -0.7760 -0.5234 0.3519
vn -0.8833 -0.4427 0.1543
vn -0.8944 -0.4472 0.0117
vn 0.3830 0.7722 -0.5070
vn -0.3673 0.7299 -0.5765
vn -0.6463 0.7595 -0.0739
vn -0.3840 0.7584 0.5266
vn -0.9105 -0.4129 -0.0241
vn -0.8786 0.0267 0.4768
vn 0.8986 -0.4389 0.0004
usemtl Tex_0045_0.dds
s off
f 1/1/1 3/2/2 2/3/1
f 2/3/3 3/2/3 4/4/4
f 3/2/5 5/5/6 4/4/7
f 4/4/8 5/5/8 6/6/9
f 5/5/10 7/7/11 6/6/12
f 6/6/13 7/7/14 8/8/15
f 7/7/16 9/9/17 8/8/18
f 8/8/19 9/9/19 10/10/19
f 11/11/20 13/12/21 12/13/22
f 12/13/23 13/12/24 14/14/25
f 13/12/26 15/15/27 14/14/28
f 14/14/29 15/15/30 16/16/31
f 15/15/32 17/17/33 16/16/34
f 16/16/35 17/17/36 18/18/37
f 17/17/38 19/19/39 18/18/40
f 18/18/41 19/19/41 20/20/41
f 21/21/42 23/22/43 22/23/44
f 22/23/45 23/22/46 24/24/47
f 23/22/48 25/25/49 24/24/50
f 24/24/51 25/25/52 26/26/53
f 25/25/54 27/27/55 26/26/56
f 26/26/57 27/27/58 28/28/59
f 27/27/60 29/29/61 28/28/62
f 28/28/63 29/29/64 30/30/65
f 31/31/66 33/32/67 32/33/68
f 32/33/69 33/32/70 34/34/71
f 33/32/72 35/35/73 34/34/74
f 34/34/75 35/35/76 36/36/77
f 35/35/78 37/37/79 36/36/80
f 36/36/81 37/37/82 38/38/83
f 37/37/84 39/39/85 38/38/86
f 38/38/87 39/39/87 40/40/87
f 41/41/88 43/42/89 42/43/90
f 42/43/91 43/42/92 44/44/93
f 43/42/94 45/45/95 44/44/96
f 44/44/97 45/45/98 46/46/99
f 45/45/100 47/47/101 46/46/102
f 46/46/103 47/47/104 48/48/105
f 47/47/106 49/49/107 48/48/108
f 48/48/109 49/49/110 50/50/111
f 51/51/112 53/52/113 52/53/114
f 52/53/115 53/52/116 54/54/117
f 53/52/118 55/55/119 54/54/120
f 54/54/121 55/55/122 56/56/123
f 55/55/124 57/57/125 56/56/126
f 56/56/127 57/57/128 58/58/129
f 57/57/130 59/59/131 58/58/132
f 58/58/133 59/59/134 60/60/135
f 61/61/136 63/62/137 62/63/138
f 62/63/139 63/62/140 64/64/141
f 63/62/142 65/65/143 64/64/144
f 64/64/145 65/65/146 66/66/147
f 65/65/148 67/67/149 66/66/150
f 66/66/151 67/67/152 68/68/153
f 67/67/154 69/69/155 68/68/156
f 68/68/157 69/69/158 70/70/159
f 71/71/160 73/72/161 72/73/160
f 72/73/162 73/72/163 74/74/164
f 73/72/165 75/75/166 74/74/167
f 74/74/168 75/75/169 76/76/170
f 75/75/171 77/77/172 76/76/173
f 76/76/174 77/77/175 78/78/176
f 77/77/177 79/79/178 78/78/179
f 78/78/178 79/79/178 80/80/178
f 81/81/180 83/82/181 82/83/182
f 82/83/183 83/82/184 84/84/185
f 83/82/186 85/85/187 84/84/188
f 84/84/189 85/85/190 86/86/191
f 85/85/192 87/87/193 86/86/194
f 86/86/195 87/87/196 88/88/197
f 87/87/198 89/89/199 88/88/200
f 88/88/201 89/89/202 90/90/203
f 91/91/204 93/92/205 92/93/206
f 92/93/207 93/92/208 94/94/209
f 93/92/210 95/95/211 94/94/212
f 94/94/213 95/95/214 96/96/215
f 95/95/216 97/97/217 96/96/218
f 96/96/219 97/97/220 98/98/221
f 97/97/222 99/99/223 98/98/224
f 98/98/225 99/99/226 100/100/227
f 101/101/228 103/102/229 102/103/230
f 102/103/231 103/102/232 104/104/233
f 103/102/234 105/105/235 104/104/236
f 104/104/237 105/105/238 106/106/239
f 105/105/240 107/107/241 106/106/242
f 106/106/243 107/107/244 108/108/245
f 107/107/246 109/109/247 108/108/248
f 108/108/249 109/109/250 110/110/251
f 111/111/252 113/112/253 112/113/254
f 112/113/255 113/112/256 114/114/257
f 113/112/258 115/115/259 114/114/260
f 114/114/261 115/115/262 116/116/263
f 115/115/264 117/117/265 116/116/266
f 116/116/267 117/117/268 118/118/269
f 117/117/270 119/119/271 118/118/272
f 118/118/273 119/119/274 120/120/275
f 121/121/276 123/122/277 122/123/278
f 122/123/279 123/122/280 124/124/281
f 123/122/282 125/125/283 124/124/284
f 124/124/285 125/125/286 126/126/287
f 125/125/288 127/127/289 126/126/290
f 126/126/291 127/127/292 128/128/293
f 127/127/294 129/129/295 128/128/296
f 128/128/297 129/129/298 130/130/299
f 131/131/300 133/132/301 132/133/300
f 132/133/300 133/132/302 134/134/303
f 133/132/304 135/135/305 134/134/306
f 134/134/307 135/135/308 136/136/309
f 135/135/310 137/137/311 136/136/312
f 136/136/313 137/137/314 138/138/315
f 137/137/316 139/139/317 138/138/318
f 138/138/319 139/139/320 140/140/321
f 141/141/322 143/142/323 142/143/322
f 142/143/322 143/142/324 144/144/325
f 143/142/326 145/145/327 144/144/328
f 144/144/329 145/145/330 146/146/331
f 145/145/332 147/147/333 146/146/334
f 146/146/335 147/147/336 148/148/337
f 147/147/338 149/149/339 148/148/340
f 148/148/341 149/149/339 150/150/339
f 151/151/322 153/152/342 152/153/322
f 152/153/322 153/152/343 154/154/325
f 153/152/326 155/155/327 154/154/328
f 154/154/344 155/155/330 156/156/331
f 155/155/332 157/157/345 156/156/334
f 156/156/335 157/157/336 158/158/346
f 157/157/338 159/159/339 158/158/347
f 158/158/339 159/159/339 160/160/339
f 161/161/322 163/162/342 162/163/322
f 162/163/322 163/162/324 164/164/325
f 163/162/326 165/165/327 164/164/348
f 164/164/329 165/165/330 166/166/331
f 165/165/332 167/167/345 166/166/334
f 166/166/335 167/167/336 168/168/337
f 167/167/338 169/169/339 168/168/340
f 168/168/349 169/169/339 170/170/339
f 171/171/322 173/172/342 172/173/322
f 172/173/322 173/172/324 174/174/325
f 173/172/326 175/175/350 174/174/328
f 174/174/329 175/175/330 176/176/331
f 175/175/332 177/177/345 176/176/334
f 176/176/335 177/177/336 178/178/351
f 177/177/352 179/179/339 178/178/340
f 178/178/353 179/179/339 180/180/339
f 181/181/322 183/182/342 182/183/322
f 182/183/322 183/182/324 184/184/325
f 183/182/326 185/185/327 184/184/328
f 184/184/354 185/185/330 186/186/331
f 185/185/332 187/187/333 186/186/334
f 186/186/335 187/187/336 188/188/337
f 187/187/338 189/189/339 188/188/340
f 188/188/355 189/189/339 190/190/339
f 191/191/322 193/192/342 192/193/322
f 192/193/322 193/192/343 194/194/325
f 193/192/326 195/195/327 194/194/328
f 194/194/329 195/195/330 196/196/331
f 195/195/332 197/197/345 196/196/334
f 196/196/335 197/197/336 198/198/351
f 197/197/338 199/199/339 198/198/356
f 198/198/357 199/199/339 200/200/339
f 201/201/322 203/202/342 202/203/322
f 202/203/322 203/202/324 204/204/325
f 203/202/326 205/205/327 204/204/328
f 204/204/329 205/205/330 206/206/331
f 205/205/332 207/207/345 206/206/334
f 206/206/358 207/207/336 208/208/359
f 207/207/338 209/209/339 208/208/340
f 208/208/349 209/209/339 210/210/339
f 211/211/322 213/212/342 212/213/322
f 212/213/322 213/212/324 214/214/325
f 213/212/326 215/215/327 214/214/328
f 214/214/329 215/215/330 216/216/331
f 215/215/332 217/217/345 216/216/334
f 216/216/335 217/217/336 218/218/351
f 217/217/352 219/219/339 218/218/340
f 218/218/349 219/219/339 220/220/339
f 221/221/322 223/222/342 222/223/322
f 222/223/322 223/222/324 224/224/325
f 223/222/326 225/225/327 224/224/328
f 224/224/329 225/225/330 226/226/331
f 225/225/332 227/227/345 226/226/334
f 226/226/360 227/227/336 228/228/351
f 227/227/338 229/229/339 228/228/356
f 228/228/341 229/229/339 230/230/339
f 231/231/361 233/232/362 232/233/363
f 232/233/364 233/232/365 234/234/366
f 233/232/367 235/235/368 234/234/369
f 234/234/370 235/235/371 236/236/372
f 235/235/373 237/237/374 236/236/375
f 236/236/376 237/237/377 238/238/378
f 237/237/379 239/239/380 238/238/381
f 240/240/382 242/241/383 241/242/384
f 241/242/385 242/241/386 243/243/387
f 242/241/388 244/244/389 243/243/390
f 243/243/391 244/244/392 245/245/393
f 244/244/394 246/246/395 245/245/396
f 245/245/397 246/246/398 247/247/399
f 246/246/400 248/248/401 247/247/402
f 249/249/322 251/250/403 250/251/404
f 250/251/405 251/250/406 252/252/407
f 251/250/408 253/253/409 252/252/410
f 252/252/411 253/253/412 254/254/413
f 253/253/414 255/255/415 254/254/416
f 254/254/417 255/255/418 256/256/339
f 255/255/419 257/257/339 256/256/339
f 258/258/322 260/259/403 259/260/404
f 259/260/420 260/259/421 261/261/407
f 260/259/422 262/262/423 261/261/410
f 261/261/411 262/262/412 263/263/424
f 262/262/425 264/264/426 263/263/416
f 263/263/417 264/264/418 265/265/339
f 264/264/427 266/266/339 265/265/339
f 267/267/322 269/268/428 268/269/404
f 268/269/405 269/268/406 270/270/407
f 269/268/422 271/271/423 270/270/410
f 270/270/411 271/271/412 272/272/413
f 271/271/425 273/273/415 272/272/416
f 272/272/429 273/273/418 274/274/339
f 273/273/427 275/275/339 274/274/339
f 276/276/322 278/277/403 277/278/430
f 277/278/405 278/277/421 279/279/407
f 278/277/422 280/280/423 279/279/410
f 279/279/411 280/280/412 281/281/413
f 280/280/414 282/282/431 281/281/416
f 281/281/417 282/282/418 283/283/339
f 282/282/427 284/284/339 283/283/339
f 285/285/322 287/286/403 286/287/404
f 286/287/405 287/286/406 288/288/407
f 287/286/422 289/289/423 288/288/410
f 288/288/411 289/289/412 290/290/424
f 289/289/425 291/291/432 290/290/416
f 290/290/417 291/291/418 292/292/339
f 291/291/427 293/293/339 292/292/339
f 294/294/322 296/295/403 295/296/404
f 295/296/405 296/295/406 297/297/407
f 296/295/422 298/298/423 297/297/410
f 297/297/411 298/298/412 299/299/424
f 298/298/425 300/300/415 299/299/416
f 299/299/417 300/300/418 301/301/339
f 300/300/433 302/302/339 301/301/339
f 303/303/322 305/304/403 304/305/430
f 304/305/434 305/304/406 306/306/407
f 305/304/422 307/307/423 306/306/410
f 306/306/411 307/307/412 308/308/424
f 307/307/425 309/309/431 308/308/416
f 308/308/417 309/309/418 310/310/339
f 309/309/427 311/311/339 310/310/339
f 312/312/322 314/313/403 313/314/404
f 313/314/405 314/313/406 315/315/407
f 314/313/422 316/316/423 315/315/410
f 315/315/411 316/316/412 317/317/424
f 316/316/414 318/318/415 317/317/416
f 317/317/429 318/318/435 319/319/339
f 318/318/419 320/320/339 319/319/339
f 321/321/322 323/322/436 322/323/322
f 322/323/437 323/322/437 324/324/407
f 323/322/438 325/325/423 324/324/410
f 324/324/411 325/325/412 326/326/424
f 325/325/425 327/327/415 326/326/416
f 326/326/417 327/327/418 328/328/339
f 327/327/427 329/329/339 328/328/339
f 330/330/439 332/331/440 331/332/441
f 331/332/442 332/331/443 333/333/444
f 332/331/445 334/334/446 333/333/447
f 333/333/448 334/334/449 335/335/450
f 334/334/451 336/336/452 335/335/453
f 335/335/454 336/336/455 337/337/456
f 336/336/457 338/338/458 337/337/459
f 339/339/460 341/340/461 340/341/462
f 340/341/463 341/340/464 342/342/465
f 341/340/466 343/343/467 342/342/468
f 342/342/469 343/343/470 344/344/471
f 343/343/472 345/345/473 344/344/474
f 344/344/475 345/345/476 346/346/477
f 345/345/478 347/347/479 346/346/480
f 348/348/481 350/349/482 349/350/483
f 349/350/484 350/349/485 351/351/486
f 350/349/487 352/352/488 351/351/489
f 351/351/490 352/352/491 353/353/492
f 352/352/493 354/354/494 353/353/495
f 353/353/496 354/354/497 355/355/498
f 354/354/499 356/356/500 355/355/501
f 357/357/502 359/358/503 358/359/504
f 358/359/505 359/358/506 360/360/507
f 359/358/508 361/361/509 360/360/510
f 360/360/511 361/361/512 362/362/513
f 361/361/514 363/363/515 362/362/516
f 362/362/517 363/363/518 364/364/519
f 363/363/520 365/365/521 364/364/522
f 366/366/523 368/367/524 367/368/525
f 367/368/526 368/367/527 369/369/528
f 368/367/529 370/370/530 369/369/531
f 369/369/532 370/370/533 371/371/534
f 370/370/535 372/372/536 371/371/537
f 371/371/538 372/372/539 373/373/540
f 372/372/541 374/374/542 373/373/543
f 375/375/544 377/376/545 376/377/546
f 376/377/547 377/376/548 378/378/549
f 377/376/550 379/379/551 378/378/552
f 378/378/553 379/379/554 380/380/555
f 379/379/556 381/381/557 380/380/558
f 380/380/559 381/381/560 382/382/561
f 381/381/562 383/383/563 382/382/564
f 384/384/565 386/385/566 385/386/567
f 385/386/568 386/385/569 387/387/570
f 386/385/571 388/388/572 387/387/573
f 387/387/574 388/388/575 389/389/576
f 388/388/577 390/390/578 389/389/579
f 389/389/580 390/390/581 391/391/582
f 390/390/583 392/392/584 391/391/585
f 393/393/586 395/394/587 394/395/588
f 394/395/589 395/394/590 396/396/591
f 395/394/592 397/397/593 396/396/594
f 396/396/595 397/397/596 398/398/597
f 397/397/598 399/399/599 398/398/600
f 398/398/601 399/399/602 400/400/603
f 399/399/604 401/401/605 400/400/606
f 402/402/607 404/403/608 403/404/609
f 403/404/610 404/403/611 405/405/612
f 404/403/613 406/406/614 405/405/615
f 405/405/616 406/406/617 407/407/618
f 406/406/619 408/408/620 407/407/621
f 407/407/622 408/408/623 409/409/624
f 408/408/625 410/410/626 409/409/627
f 411/411/628 413/412/629 412/413/630
f 412/413/631 413/412/632 414/414/633
f 413/412/634 415/415/635 414/414/636
f 414/414/637 415/415/638 416/416/639
f 415/415/640 417/417/641 416/416/642
f 416/416/643 417/417/644 418/418/645
f 417/417/646 419/419/647 418/418/647
f 420/420/648 422/421/649 421/422/650
f 421/422/651 422/421/652 423/423/653
f 422/421/654 424/424/655 423/423/656
f 423/423/657 424/424/658 425/425/659
f 424/424/660 426/426/661 425/425/662
f 425/425/663 426/426/664 427/427/665
f 426/426/666 428/428/667 427/427/668
f 429/429/669 431/430/670 430/431/671
f 430/431/672 431/430/673 432/432/674
f 431/430/675 433/433/676 432/432/677
f 432/432/678 433/433/679 434/434/680
f 433/433/681 435/435/682 434/434/683
f 434/434/684 435/435/685 436/436/686
f 435/435/687 437/437/688 436/436/689
f 438/438/690 440/439/691 439/440/692
f 439/440/693 440/439/694 441/441/695
f 440/439/696 442/442/697 441/441/698
f 441/441/699 442/442/700 443/443/701
f 442/442/702 444/444/703 443/443/704
f 443/443/705 444/444/706 445/445/707
f 444/444/708 446/446/709 445/445/710
f 447/447/711 449/448/712 448/449/713
f 448/449/714 449/448/715 450/450/716
f 449/448/717 451/451/718 450/450/719
f 450/450/720 451/451/721 452/452/722
f 451/451/723 453/453/724 452/452/725
f 452/452/726 453/453/727 454/454/728
f 453/453/729 455/455/730 454/454/731
f 456/456/732 458/457/733 457/458/734
f 457/458/735 458/457/736 459/459/737
f 458/457/738 460/460/739 459/459/740
f 459/459/741 460/460/742 461/461/743
f 460/460/744 462/462/745 461/461/746
f 461/461/747 462/462/748 463/463/749
f 462/462/750 464/464/751 463/463/752
f 465/465/753 467/466/754 466/467/755
f 466/467/756 467/466/757 468/468/758
f 467/466/759 469/469/760 468/468/761
f 468/468/762 469/469/763 470/470/764
f 469/469/765 471/471/766 470/470/767
f 470/470/768 471/471/769 472/472/770
f 471/471/771 473/473/772 472/472/773
f 474/474/774 476/475/775 475/476/776
f 475/476/777 476/475/778 477/477/779
f 476/475/780 478/478/781 477/477/782
f 477/477/783 478/478/784 479/479/785
f 478/478/786 480/480/787 479/479/788
f 479/479/789 480/480/790 481/481/791
f 482/482/792 484/483/793 483/484/794
f 483/484/795 484/483/796 485/485/797
f 484/483/798 486/486/799 485/485/800
f 485/485/801 486/486/802 487/487/803
f 486/486/804 488/488/805 487/487/806
f 487/487/807 488/488/808 489/489/809
f 490/490/810 492/491/811 491/492/812
f 491/492/813 492/491/814 493/493/815
f 492/491/816 494/494/817 493/493/818
f 493/493/819 494/494/820 495/495/821
f 494/494/822 496/496/823 495/495/824
f 495/495/825 496/496/826 497/497/827
f 498/498/828 500/499/829 499/500/830
f 499/500/831 500/499/832 501/501/833
f 500/499/834 502/502/835 501/501/836
f 501/501/837 502/502/838 503/503/839
f 502/502/840 504/504/841 503/503/842
f 503/503/843 504/504/844 505/505/845
f 506/506/846 508/507/847 507/508/848
f 507/508/849 508/507/850 509/509/851
f 508/507/852 510/510/853 509/509/854
f 509/509/855 510/510/856 511/511/857
f 510/510/858 512/512/859 511/511/860
f 511/511/861 512/512/862 513/513/863
f 514/514/864 516/515/865 515/516/866
f 515/516/867 516/515/868 517/517/869
f 516/515/870 518/518/871 517/517/872
f 517/517/873 518/518/874 519/519/875
f 518/518/876 520/520/877 519/519/878
f 519/519/879 520/520/880 521/521/881
f 522/522/882 524/523/883 523/524/884
f 523/524/885 524/523/886 525/525/887
f 524/523/888 526/526/889 525/525/890
f 525/525/891 526/526/892 527/527/893
f 526/526/894 528/528/895 527/527/896
f 527/527/897 528/528/898 529/529/899
f 530/530/900 532/531/901 531/532/902
f 531/532/903 532/531/904 533/533/905
f 532/531/906 534/534/907 533/533/908
f 533/533/909 534/534/910 535/535/911
f 534/534/912 536/536/913 535/535/914
f 535/535/915 536/536/916 537/537/917
f 538/538/918 540/539/919 539/540/920
f 539/540/921 540/539/922 541/541/923
f 540/539/924 542/542/925 541/541/926
f 541/541/927 542/542/928 543/543/929
f 542/542/930 544/544/931 543/543/932
f 543/543/933 544/544/934 545/545/935
f 546/546/936 548/547/937 547/548/938
f 547/548/939 548/547/940 549/549/941
f 548/547/942 550/550/943 549/549/944
f 549/549/945 550/550/946 551/551/947
f 550/550/948 552/552/949 551/551/950
f 551/551/951 552/552/952 553/553/953
f 554/554/954 556/555/955 555/556/956
f 555/556/957 556/555/958 557/557/959
f 556/555/960 558/558/961 557/557/962
f 557/557/963 558/558/964 559/559/965
f 558/558/966 560/560/967 559/559/968
f 561/561/969 563/562/970 562/563/971
f 562/563/972 563/562/973 564/564/974
f 563/562/975 565/565/976 564/564/977
f 564/564/978 565/565/979 566/566/980
f 565/565/981 567/567/982 566/566/983
f 568/568/984 570/569/985 569/570/332
f 569/570/423 570/569/986 571/571/422
f 570/569/987 572/572/988 571/571/406
f 571/571/403 572/572/989 573/573/322
f 572/572/990 574/574/322 573/573/322
f 575/575/991 577/576/992 576/577/991
f 576/577/991 577/576/993 578/578/994
f 577/576/995 579/579/996 578/578/997
f 578/578/998 579/579/999 580/580/1000
f 579/579/1001 581/581/1002 580/580/1003
f 582/582/1004 584/583/1005 583/584/1006
f 583/584/1007 584/583/1008 585/585/1009
f 584/583/1010 586/586/1011 585/585/1012
f 585/585/1013 586/586/1014 587/587/1015
f 586/586/1016 588/588/1017 587/587/1018
f 589/589/1019 591/590/1020 590/591/1021
f 590/591/1022 591/590/1023 592/592/1024
f 591/590/1025 593/593/1026 592/592/1027
f 592/592/1028 593/593/1029 594/594/1030
f 593/593/1031 595/595/1032 594/594/1033
f 596/596/1034 598/597/1035 597/598/1034
f 597/598/1034 598/597/1036 599/599/1037
f 598/597/1038 600/600/1039 599/599/1040
f 599/599/1041 600/600/1042 601/601/1043
f 600/600/1044 602/602/1045 601/601/1046
f 603/603/1047 605/604/1048 604/605/1049
f 604/605/1050 605/604/1051 606/606/1052
f 605/604/1053 607/607/1054 606/606/1055
f 606/606/1056 607/607/1057 608/608/1058
f 609/609/322 611/610/342 610/611/322
f 610/611/322 611/610/324 612/612/325
f 611/610/326 613/613/437 612/612/348
f 612/612/329 613/613/437 614/614/437
f 615/615/1059 617/616/1060 616/617/1061
f 616/617/1062 617/616/1063 618/618/1064
f 617/616/1065 619/619/1064 618/618/1064
f 620/620/1066 622/621/1067 621/622/1068
f 621/622/1069 622/621/1070 623/623/1071
f 622/621/1072 624/624/1073 623/623/1074
f 625/625/1075 627/626/1076 626/627/1077
f 626/627/1078 627/626/1079 628/628/1080
f 627/626/1081 629/629/1082 628/628/1083
f 630/630/1084 632/631/1085 631/632/1086
f 631/632/1087 632/631/1088 633/633/1089
f 632/631/1090 634/634/1091 633/633/1092
f 635/635/1093 637/636/1094 636/637/1095
f 636/637/1096 637/636/1097 638/638/1098
f 637/636/1099 639/639/1100 638/638/1101
f 640/640/1102 642/641/1103 641/642/1104
f 641/642/1105 642/641/1106 643/643/1107
f 642/641/1108 644/644/1109 643/643/1110
f 645/645/1111 647/646/1112 646/647/1113
f 646/647/1114 647/646/1115 648/648/1116
f 647/646/1117 649/649/1118 648/648/1119
f 650/650/984 652/651/1120 651/652/337
f 651/652/1121 652/651/1122 653/653/339
f 652/651/1123 654/654/339 653/653/339
f 655/655/1124 657/656/1125 656/657/1126
f 656/657/1127 657/656/1128 658/658/1129
f 657/656/1130 659/659/1131 658/658/1132
f 660/660/1133 662/661/1134 661/662/1135
f 661/662/1136 662/661/1137 663/663/1138
f 662/661/1139 664/664/1140 663/663/1141
f 665/665/1142 667/666/1143 666/667/1144
f 666/667/1145 667/666/1146 668/668/1147
f 667/666/1148 669/669/1149 668/668/1150
f 670/670/1151 672/671/1152 671/672/1153
f 671/672/1154 672/671/1155 673/673/1156
f 672/671/1157 674/674/1157 673/673/1157
f 675/675/1158 677/676/1159 676/677/1160
f 676/677/1161 677/676/1162 678/678/1163
f 677/676/1164 679/679/1165 678/678/1166
f 680/680/1167 682/681/1168 681/682/1169
f 681/682/1170 682/681/1171 683/683/1172
f 682/681/1173 684/684/1174 683/683/1175
f 685/685/339 687/686/1176 686/687/339
f 686/687/339 687/686/1177 688/688/352
f 687/686/1178 689/689/984 688/688/415
f 690/690/1179 692/691/1180 691/692/1181
f 691/692/1182 692/691/1183 693/693/1184
f 694/694/1185 696/695/1186 695/696/1187
f 695/696/1188 696/695/1189 697/697/1190
f 698/698/1191 700/699/1192 699/700/1193
f 699/700/1194 700/699/1195 701/701/1196
f 702/702/1197 704/703/1198 703/704/1199
f 703/704/1200 704/703/1201 705/705/1202
f 706/706/1203 708/707/1204 707/708/1205
f 707/708/1206 708/707/1207 709/709/1208
f 710/710/1209 712/711/1210 711/712/1211
f 711/712/1212 712/711/1213 713/713/1214
f 714/714/1215 716/715/1216 715/716/1217
f 715/716/1218 716/715/1219 717/717/1220
f 718/718/1221 720/719/1222 719/720/1223
f 719/720/1224 720/719/1225 721/721/1226
f 722/722/1227 724/723/1227 723/724/1227
f 723/724/1227 724/723/1227 725/725/1227
f 726/726/1228 728/727/1228 727/728/1228
f 729/729/1229 731/730/1229 730/731/1229
f 732/732/1230 734/733/1230 733/734/1230
f 735/735/1231 737/736/1231 736/737/1231
f 738/738/1232 740/739/1232 739/740/1232
f 741/741/1233 743/742/1233 742/743/1233
f 744/744/1234 746/745/1234 745/746/1234
f 747/747/1235 749/748/1235 748/749/1235
f 750/750/1236 752/751/1236 751/752/1236
f 753/753/322 755/754/322 754/755/322
f 756/756/322 758/757/322 757/758/322
f 759/759/322 761/760/322 760/761/322
f 762/762/322 764/763/322 763/764/322
f 765/765/322 767/766/322 766/767/322
f 768/768/322 770/769/322 769/770/322
f 771/771/322 773/772/322 772/773/322
f 774/774/322 776/775/322 775/776/322
f 777/777/322 779/778/322 778/779/322
f 780/780/864 782/781/864 781/782/864
f 783/783/1237 785/784/1237 784/785/1237
f 786/786/1238 788/787/1238 787/788/1238
f 789/789/1239 791/790/1239 790/791/1239
f 792/792/1240 794/793/1240 793/794/1240
f 795/795/1241 797/796/1241 796/797/1241
f 798/798/1242 800/799/1242 799/800/1242
f 801/801/1243 803/802/1243 802/803/1243
f 804/804/1244 806/805/1244 805/806/1244
f 807/807/1245 809/808/1245 808/809/1245
f 810/810/1246 812/811/1246 811/812/1246
f 813/813/1247 815/814/1247 814/815/1247
f 816/816/1248 818/817/1248 817/818/1248
f 819/819/1249 821/820/1249 820/821/1249
f 822/822/1250 824/823/1250 823/824/1250
f 825/825/1251 827/826/1251 826/827/1251
f 828/828/1252 830/829/1252 829/830/1252
f 831/831/753 833/832/753 832/833/753
f 834/834/1230 836/835/1230 835/836/1230
f 837/837/1253 839/838/1253 838/839/1253
f 840/840/1254 842/841/1254 841/842/1254
f 843/843/1255 845/844/1255 844/845/1255
f 846/846/1256 848/847/1256 847/848/1256
f 849/849/1257 851/850/1257 850/851/1257
f 852/852/1258 854/853/1258 853/854/1258
f 855/855/984 857/856/984 856/857/984
f 858/858/1259 860/859/1259 859/860/1259
