# Blender v3.6.3 OBJ File: 'untitled.blend'
# www.blender.org
mtllib Mesh_0121.mtl
o Mesh_0121_Mesh.001
v 31.035414 60.959988 -2.571800
v 31.035414 60.959988 -1.312210
v 33.658981 57.219330 3.139648
v 33.658981 57.784988 3.767784
v 37.450691 50.326534 10.562286
v 24.620142 50.326534 10.562286
v 28.411848 57.784988 3.767784
v 28.411848 57.219330 3.139648
v 31.035414 60.959988 -1.312210
v 31.035414 60.959988 -2.571800
v 37.450691 50.326534 -15.705887
v 33.658981 57.784985 -8.911388
v 33.658981 57.219326 -8.283245
v 31.035414 60.959988 -3.831383
v 31.035414 60.959988 -2.571800
v 31.035414 60.959988 -2.571800
v 31.035414 60.959988 -3.831383
v 28.411848 57.219326 -8.283245
v 28.411848 57.784985 -8.911388
v 24.620142 50.326534 -15.705887
v 50.020142 50.326534 10.562286
v 53.812111 57.784988 3.767784
v 53.812111 57.219330 3.139648
v 56.435417 60.959988 -1.312210
v 56.435417 60.959988 -2.571800
v 56.435417 60.959988 -2.571800
v 56.435417 60.959988 -1.312210
v 59.058983 57.219330 3.139648
v 59.058983 57.784988 3.767784
v 62.850693 50.326534 10.562286
v 56.435417 60.959988 -2.571800
v 56.435417 60.959988 -3.831383
v 53.812111 57.219326 -8.283245
v 53.812111 57.784985 -8.911388
v 50.020142 50.326534 -15.705887
v 62.850693 50.326534 -15.705887
v 59.058983 57.784985 -8.911388
v 59.058983 57.219326 -8.283245
v 56.435417 60.959988 -3.831383
v 56.435417 60.959988 -2.571800
v 5.635412 60.959988 -2.571800
v 5.635412 60.959988 -1.312210
v 8.258982 57.222382 3.119576
v 8.258982 57.784988 3.767784
v 12.050688 50.335167 10.543999
v -0.779860 50.335167 10.564575
v 3.011847 57.784988 3.767784
v 3.011847 57.247017 3.164536
v 5.635412 60.959988 -1.312210
v 5.635412 60.959988 -2.571800
v 12.050688 50.335171 -15.687599
v 8.258982 57.784985 -8.911388
v 8.258982 57.222378 -8.263176
v 5.635412 60.959988 -3.831383
v 5.635412 60.959988 -2.571800
v 5.635412 60.959988 -2.571800
v 5.635412 60.959988 -3.831383
v 3.011847 57.247013 -8.308140
v 3.011847 57.784985 -8.911388
v -0.779860 50.335171 -15.708168
v 43.100418 35.559990 20.288200
v 43.100418 39.584110 18.023285
v 42.465424 35.559990 20.288200
v 43.100418 39.584110 -23.166878
v 43.100418 35.559990 -25.431797
v 42.465424 35.559990 -25.431797
v 44.370422 39.584110 18.023285
v 44.370422 35.559990 20.288200
v 45.005417 35.559990 20.288200
v 44.370422 35.559990 -25.431797
v 44.370422 39.584110 -23.166878
v 45.005417 35.559990 -25.431797
v -5.822783 35.559990 20.870369
v -5.794584 35.559990 21.552864
v -4.862406 40.004990 19.642784
v -4.862406 40.004990 -24.786388
v -5.794584 35.559990 -26.696465
v -5.822783 35.559990 -26.013966
vt -0.079102 -0.010742
vt -0.285156 -0.443359
vt -0.137695 -0.007812
vt -0.343750 -0.418945
vt -0.588867 -0.986328
vt -0.588867 -0.986328
vt -0.285156 -0.443359
vt -0.343750 -0.418945
vt -0.137695 -0.007812
vt -0.079102 -0.010742
vt -0.588867 -0.986328
vt -0.285156 -0.443359
vt -0.343750 -0.418945
vt -0.137695 -0.007812
vt -0.079102 -0.010742
vt -0.079102 -0.010742
vt -0.285156 -0.443359
vt -0.137695 -0.007812
vt -0.343750 -0.418945
vt -0.588867 -0.986328
vt -0.588867 -0.986328
vt -0.285156 -0.443359
vt -0.343750 -0.418945
vt -0.137695 -0.007812
vt -0.079102 -0.010742
vt -0.079102 -0.010742
vt -0.285156 -0.443359
vt -0.137695 -0.007812
vt -0.343750 -0.418945
vt -0.588867 -0.986328
vt -0.079102 -0.010742
vt -0.285156 -0.443359
vt -0.137695 -0.007812
vt -0.343750 -0.418945
vt -0.588867 -0.986328
vt -0.588867 -0.986328
vt -0.285156 -0.443359
vt -0.343750 -0.418945
vt -0.137695 -0.007812
vt -0.079102 -0.010742
vt -0.079102 -0.010742
vt -0.285156 -0.443359
vt -0.137695 -0.007812
vt -0.343750 -0.418945
vt -0.588867 -0.986328
vt -0.592773 -1.008789
vt -0.278320 -0.439453
vt -0.320312 -0.418945
vt -0.125000 -0.007812
vt -0.079102 -0.010742
vt -0.588867 -0.986328
vt -0.285156 -0.443359
vt -0.343750 -0.418945
vt -0.137695 -0.007812
vt -0.079102 -0.010742
vt -0.079102 -0.010742
vt -0.278320 -0.439453
vt -0.125000 -0.007812
vt -0.320312 -0.418945
vt -0.592773 -1.008789
vt 1.998047 -1.004883
vt 1.907227 -1.007812
vt 1.998047 -1.347656
vt 1.998047 -1.347656
vt 1.907227 -1.007812
vt 1.998047 -1.004883
vt 1.998047 -1.347656
vt 1.907227 -1.007812
vt 1.998047 -1.004883
vt 1.998047 -1.004883
vt 1.907227 -1.007812
vt 1.998047 -1.347656
vt -0.174805 0.628906
vt -0.148438 0.709961
vt -0.183594 0.525391
vt -0.148438 0.709961
vt -0.174805 0.628906
vt -0.183594 0.525391
vn -0.8187 -0.5742 0.0000
vn -0.6183 -0.7352 -0.2776
vn -0.9100 -0.3081 0.2774
vn -0.9055 -0.3382 0.2563
vn -0.9463 -0.2361 0.2209
vn -0.9361 -0.2614 0.2354
vn -0.9356 -0.2820 0.2123
vn 0.9361 -0.2614 0.2354
vn 0.9415 -0.2236 0.2523
vn 0.9356 -0.2821 0.2124
vn 0.9055 -0.3382 0.2563
vn 0.9051 -0.2948 0.3064
vn 0.8845 0.0152 0.4663
vn 0.5995 -0.7572 -0.2594
vn 0.8187 -0.5742 0.0000
vn 0.8302 -0.5575 -0.0000
vn -0.9361 -0.2614 -0.2354
vn -0.9463 -0.2361 -0.2209
vn -0.9100 -0.3081 -0.2774
vn -0.8845 0.0152 -0.4663
vn -0.6183 -0.7352 0.2776
vn -0.8302 -0.5575 -0.0000
vn 0.5995 -0.7571 0.2595
vn 0.8845 0.0152 -0.4663
vn 0.9051 -0.2948 -0.3064
vn 0.9055 -0.3382 -0.2563
vn 0.9415 -0.2236 -0.2523
vn 0.9361 -0.2614 -0.2354
vn 0.9356 -0.2820 -0.2123
vn 0.9415 -0.2237 0.2523
vn 0.9055 -0.3381 0.2563
vn 0.9051 -0.2948 0.3063
vn 0.5995 -0.7571 -0.2594
vn -0.5995 -0.7572 -0.2594
vn -0.8845 0.0152 0.4663
vn -0.9051 -0.2948 0.3064
vn -0.9415 -0.2236 0.2523
vn 0.5995 -0.7571 0.2594
vn 0.9051 -0.2948 -0.3063
vn 0.9055 -0.3381 -0.2563
vn 0.9415 -0.2237 -0.2523
vn -0.9415 -0.2236 -0.2523
vn -0.9356 -0.2821 -0.2124
vn -0.9055 -0.3382 -0.2563
vn -0.9051 -0.2948 -0.3064
vn -0.5995 -0.7571 0.2595
vn -0.8185 -0.5745 0.0000
vn -0.6044 -0.7544 -0.2560
vn -0.8299 -0.5579 -0.0000
vn -0.8880 0.0018 0.4598
vn -0.9045 -0.3012 0.3019
vn -0.9042 -0.3454 0.2511
vn -0.9414 -0.2276 0.2489
vn -0.9358 -0.2662 0.2310
vn -0.9351 -0.2869 0.2078
vn 0.9360 -0.2627 0.2343
vn 0.9414 -0.2247 0.2516
vn 0.9355 -0.2834 0.2112
vn 0.9052 -0.3401 0.2549
vn 0.9051 -0.2963 0.3050
vn 0.8847 0.0145 0.4660
vn 0.5956 -0.7605 -0.2587
vn 0.8167 -0.5771 0.0000
vn 0.8277 -0.5612 0.0000
vn -0.9358 -0.2662 -0.2310
vn -0.9461 -0.2406 -0.2170
vn -0.9092 -0.3145 -0.2730
vn -0.8880 0.0018 -0.4598
vn -0.6231 -0.7321 0.2752
vn 0.5956 -0.7605 0.2587
vn 0.8847 0.0145 -0.4660
vn 0.9051 -0.2963 -0.3050
vn 0.9052 -0.3401 -0.2549
vn 0.9414 -0.2247 -0.2516
vn 0.9360 -0.2627 -0.2343
vn 0.9356 -0.2832 -0.2110
vn 0.0000 -0.4905 -0.8714
vn 0.0000 -0.4905 0.8715
vn 0.0000 -0.4905 0.8714
vn 0.9743 -0.2216 -0.0403
vn 0.9743 -0.2216 0.0403
usemtl Tex_0023_1.dds
s off
f 1/1/1 3/2/2 2/3/1
f 2/3/3 3/2/3 4/4/4
f 3/2/5 5/5/6 4/4/7
f 6/6/8 8/7/9 7/8/10
f 7/8/11 8/7/12 9/9/13
f 8/7/14 10/10/15 9/9/16
f 11/11/17 13/12/18 12/13/17
f 12/13/19 13/12/19 14/14/20
f 13/12/21 15/15/1 14/14/22
f 16/16/15 18/17/23 17/18/16
f 17/18/24 18/17/25 19/19/26
f 18/17/27 20/20/28 19/19/29
f 21/21/8 23/22/30 22/23/10
f 22/23/31 23/22/32 24/24/13
f 23/22/33 25/25/15 24/24/16
f 26/26/1 28/27/34 27/28/22
f 27/28/35 28/27/36 29/29/4
f 28/27/37 30/30/6 29/29/7
f 31/31/15 33/32/38 32/33/16
f 32/33/24 33/32/39 34/34/40
f 33/32/41 35/35/28 34/34/29
f 36/36/17 38/37/42 37/38/43
f 37/38/44 38/37/45 39/39/20
f 38/37/46 40/40/1 39/39/22
f 41/41/47 43/42/48 42/43/49
f 42/43/50 43/42/51 44/44/52
f 43/42/53 45/45/54 44/44/55
f 46/46/56 48/47/57 47/48/58
f 47/48/59 48/47/60 49/49/61
f 48/47/62 50/50/63 49/49/64
f 51/51/65 53/52/66 52/53/65
f 52/53/67 53/52/67 54/54/68
f 53/52/69 55/55/47 54/54/49
f 56/56/63 58/57/70 57/58/64
f 57/58/71 58/57/72 59/59/73
f 58/57/74 60/60/75 59/59/76
f 61/61/77 63/62/77 62/63/77
f 64/64/78 66/65/78 65/66/78
f 67/67/77 69/68/77 68/69/77
f 70/70/79 72/71/79 71/72/79
f 73/73/80 75/74/80 74/75/80
f 76/76/81 78/77/81 77/78/81
