# Blender v3.6.3 OBJ File: 'untitled.blend'
# www.blender.org
mtllib Mesh_0164.mtl
o Mesh_0164_Mesh.029
v -6.686470 4.925913 15.591492
v -6.686466 5.101478 15.910545
v -6.686470 5.771937 15.313202
v -6.686470 5.977676 15.604179
v -6.686478 6.532234 14.781013
v -6.686476 6.835511 14.992905
v -6.686470 7.352502 13.855667
v -6.686468 7.675564 14.019241
v -6.686468 8.108050 12.668190
v -6.686466 8.411530 12.795471
v -6.686468 8.484325 12.668190
v -6.686468 8.484325 12.668190
v -6.686466 8.411530 12.540916
v -6.686468 8.108050 12.668190
v -6.686468 7.675564 11.317146
v -6.686470 7.352502 11.480721
v -6.686476 6.835511 10.343483
v -6.686478 6.532234 10.555374
v -6.686470 5.977676 9.732208
v -6.686470 5.771937 10.023178
v -6.686466 5.101479 9.425842
v -6.686470 4.925913 9.744888
v -6.686468 8.484325 -17.811806
v -6.686466 8.411530 -17.939083
v -6.686468 8.108050 -17.811806
v -6.686468 7.675565 -19.162861
v -6.686470 7.352502 -18.999279
v -6.686476 6.835511 -20.136517
v -6.686478 6.532234 -19.924629
v -6.686470 5.977676 -20.747791
v -6.686470 5.771937 -20.456814
v -6.686466 5.101479 -21.054153
v -6.686470 4.925913 -20.735104
v -6.686470 4.925914 -14.888504
v -6.686466 5.101478 -14.569454
v -6.686470 5.771937 -15.166798
v -6.686470 5.977677 -14.875816
v -6.686478 6.532235 -15.698986
v -6.686476 6.835511 -15.487099
v -6.686470 7.352502 -16.624332
v -6.686468 7.675565 -16.460754
v -6.686468 8.108050 -17.811806
v -6.686466 8.411530 -17.684528
v -6.686468 8.484325 -17.811806
v -8.144093 4.321165 14.811844
v -7.064594 4.803892 15.457230
v -8.144091 5.037673 14.595421
v -7.064594 5.600461 15.175659
v -8.144087 5.733989 14.216576
v -7.064594 6.374577 14.682747
v -8.144091 6.445392 13.545227
v -7.064598 7.165431 13.809288
v -8.144089 7.105970 12.668190
v -7.064585 7.899821 12.668190
v -6.686466 5.101478 15.910545
v -7.064585 5.101478 15.910538
v -6.686470 5.977676 15.604179
v -7.064590 5.977676 15.604179
v -6.686476 6.835511 14.992905
v -7.064585 6.835511 14.992905
v -6.686468 7.675564 14.019241
v -7.064587 7.675564 14.019241
v -6.814901 8.188899 13.169846
v -7.064590 8.188899 13.169403
v -6.686468 8.108050 12.668190
v -7.064585 7.899821 12.668190
v -6.686470 7.352502 13.855667
v -7.064598 7.165431 13.809288
v -6.686478 6.532234 14.781013
v -7.064594 6.374577 14.682747
v -6.686470 5.771937 15.313202
v -7.064594 5.600461 15.175659
v -6.686470 4.925913 15.591492
v -7.064594 4.803892 15.457230
v -8.144093 4.321166 -15.668159
v -7.064594 4.803892 -15.022766
v -8.144091 5.037674 -15.884579
v -7.064594 5.600461 -15.304340
v -8.144087 5.733989 -16.263420
v -7.064594 6.374578 -15.797256
v -8.144091 6.445392 -16.934769
v -7.064598 7.165431 -16.670712
v -8.144089 7.105970 -17.811806
v -7.064585 7.899821 -17.811806
v -6.686466 5.101478 -14.569454
v -7.064585 5.101478 -14.569458
v -6.686470 5.977677 -14.875816
v -7.064590 5.977677 -14.875824
v -6.686476 6.835511 -15.487099
v -7.064585 6.835511 -15.487099
v -6.686468 7.675565 -16.460754
v -7.064587 7.675565 -16.460754
v -6.814901 8.188900 -17.310154
v -7.064590 8.188900 -17.310589
v -6.686468 8.108050 -17.811806
v -7.064585 7.899821 -17.811806
v -6.686470 7.352502 -16.624332
v -7.064598 7.165431 -16.670712
v -6.686478 6.532235 -15.698986
v -7.064594 6.374578 -15.797256
v -6.686470 5.771937 -15.166798
v -7.064594 5.600461 -15.304340
v -6.686470 4.925914 -14.888504
v -7.064594 4.803892 -15.022766
v -7.064594 4.803892 9.879150
v -8.144091 5.037673 10.740967
v -7.064594 5.600461 10.160728
v -8.144087 5.733989 11.119812
v -7.064594 6.374577 10.653641
v -8.144091 6.445392 11.791153
v -7.064598 7.165431 11.527100
v -8.144089 7.105970 12.668190
v -7.064585 7.899821 12.668190
v -7.064585 5.101479 9.425850
v -6.686470 5.977676 9.732208
v -7.064590 5.977676 9.732208
v -6.686476 6.835511 10.343483
v -7.064585 6.835511 10.343483
v -6.686468 7.675564 11.317146
v -7.064587 7.675564 11.317146
v -6.814901 8.188899 12.166542
v -7.064590 8.188899 12.166977
v -7.064585 7.899821 12.668190
v -6.686470 7.352502 11.480721
v -7.064598 7.165431 11.527100
v -6.686478 6.532234 10.555374
v -7.064594 6.374577 10.653641
v -6.686470 5.771937 10.023178
v -7.064594 5.600461 10.160728
v -6.686470 4.925913 9.744888
v -7.064594 4.803892 9.879150
v -7.064594 4.803892 -20.600842
v -8.144091 5.037673 -19.739029
v -7.064594 5.600461 -20.319271
v -8.144087 5.733989 -19.360188
v -7.064594 6.374577 -19.826355
v -8.144091 6.445393 -18.688843
v -7.064598 7.165432 -18.952900
v -8.144089 7.105970 -17.811806
v -7.064585 7.899821 -17.811806
v -7.064585 5.101479 -21.054150
v -6.686470 5.977676 -20.747791
v -7.064590 5.977676 -20.747787
v -6.686476 6.835511 -20.136517
v -7.064585 6.835511 -20.136517
v -6.686468 7.675565 -19.162861
v -7.064587 7.675565 -19.162861
v -6.814901 8.188899 -18.313454
v -7.064590 8.188899 -18.313023
v -7.064585 7.899821 -17.811806
v -6.686470 7.352502 -18.999279
v -7.064598 7.165432 -18.952900
v -6.686478 6.532234 -19.924629
v -7.064594 6.374577 -19.826355
v -6.686470 5.771937 -20.456814
v -7.064594 5.600461 -20.319271
v -6.686470 4.925913 -20.735104
v -7.064594 4.803892 -20.600842
v -8.144091 5.037673 10.740967
v -8.525084 5.733989 11.119812
v -8.144087 5.733989 11.119812
v -8.525084 6.445392 11.791153
v -8.144091 6.445392 11.791153
v -8.525084 7.105970 12.668190
v -8.144089 7.105970 12.668190
v -8.525084 5.037673 14.595421
v -8.144087 5.733989 14.216576
v -8.525084 5.733989 14.216576
v -8.144091 6.445392 13.545227
v -8.525084 6.445392 13.545227
v -8.144089 7.105970 12.668190
v -8.525084 7.105970 12.668190
v -8.144091 5.037673 -19.739029
v -8.525084 5.733989 -19.360188
v -8.144087 5.733989 -19.360188
v -8.525084 6.445393 -18.688843
v -8.144091 6.445393 -18.688843
v -8.525084 7.105970 -17.811806
v -8.144089 7.105970 -17.811806
v -8.525084 5.037674 -15.884579
v -8.144087 5.733989 -16.263420
v -8.525084 5.733989 -16.263420
v -8.144091 6.445392 -16.934769
v -8.525084 6.445392 -16.934769
v -8.144089 7.105970 -17.811806
v -8.525084 7.105970 -17.811806
v -6.686468 7.675564 14.019241
v -6.814901 8.188899 13.169846
v -6.686466 8.411530 12.795471
v -6.814894 8.338733 12.922722
v -6.686468 7.675564 11.317146
v -6.686466 8.411530 12.540916
v -6.814901 8.188899 12.166542
v -6.814894 8.338733 12.413658
v -6.686468 7.675565 -19.162861
v -6.686466 8.411530 -17.939083
v -6.814901 8.188899 -18.313454
v -6.814894 8.338734 -18.066338
v -6.686468 7.675565 -16.460754
v -6.814901 8.188900 -17.310154
v -6.686466 8.411530 -17.684528
v -6.814894 8.338734 -17.557274
v -8.144093 4.321165 10.524544
v -8.144091 5.037673 10.740967
v -7.064594 4.803892 9.879150
v -6.686466 5.101479 9.425842
v -6.686470 5.977676 9.732208
v -7.064585 5.101479 9.425850
v -6.686470 7.352502 11.480721
v -7.064585 7.899821 12.668190
v -6.686468 8.108050 12.668190
v -8.144091 5.037673 10.740967
v -8.525084 5.037673 10.740967
v -8.525084 5.733989 11.119812
v -8.525084 5.037673 14.595421
v -8.144091 5.037673 14.595421
v -8.144087 5.733989 14.216576
v -8.144093 4.321165 -19.955452
v -8.144091 5.037673 -19.739029
v -7.064594 4.803892 -20.600842
v -6.686466 5.101479 -21.054153
v -6.686470 5.977676 -20.747791
v -7.064585 5.101479 -21.054150
v -6.686470 7.352502 -18.999279
v -7.064585 7.899821 -17.811806
v -6.686468 8.108050 -17.811806
v -8.144091 5.037673 -19.739029
v -8.525084 5.037673 -19.739029
v -8.525084 5.733989 -19.360188
v -8.525084 5.037674 -15.884579
v -8.144091 5.037674 -15.884579
v -8.144087 5.733989 -16.263420
vt 1.196289 0.010742
vt 1.196289 0.193359
vt 1.083984 0.010742
vt 1.083984 0.193359
vt 1.196289 0.427734
vt 1.083984 0.427734
vt 1.196289 0.706055
vt 1.083984 0.706055
vt 1.196289 0.998047
vt 1.083984 0.970703
vt 1.083984 0.998047
vt 1.083984 0.998047
vt 1.196289 0.998047
vt 1.083984 0.970703
vt 1.083984 0.706055
vt 1.196289 0.706055
vt 1.083984 0.427734
vt 1.196289 0.427734
vt 1.083984 0.193359
vt 1.196289 0.193359
vt 1.083984 0.010742
vt 1.196289 0.010742
vt 1.083984 0.998047
vt 1.196289 0.998047
vt 1.083984 0.970703
vt 1.083984 0.706055
vt 1.196289 0.706055
vt 1.083984 0.427734
vt 1.196289 0.427734
vt 1.083984 0.193359
vt 1.196289 0.193359
vt 1.083984 0.010742
vt 1.196289 0.010742
vt 1.196289 0.010742
vt 1.196289 0.193359
vt 1.083984 0.010742
vt 1.083984 0.193359
vt 1.196289 0.427734
vt 1.083984 0.427734
vt 1.196289 0.706055
vt 1.083984 0.706055
vt 1.196289 0.998047
vt 1.083984 0.970703
vt 1.083984 0.998047
vt 1.997070 0.010742
vt 1.997070 0.193359
vt 1.380859 0.010742
vt 1.380859 0.193359
vt 1.997070 0.427734
vt 1.380859 0.427734
vt 1.997070 0.706055
vt 1.380859 0.706055
vt 1.997070 0.998047
vt 1.380859 0.998047
vt 1.083984 0.010742
vt 1.083984 0.193359
vt 0.998047 0.010742
vt 0.998047 0.193359
vt 1.083984 0.427734
vt 0.998047 0.427734
vt 1.083984 0.706055
vt 0.998047 0.706055
vt 1.029297 0.859375
vt 0.998047 0.859375
vt 1.196289 0.998047
vt 1.196289 0.706055
vt 1.380859 0.998047
vt 1.380859 0.706055
vt 1.196289 0.427734
vt 1.380859 0.427734
vt 1.196289 0.193359
vt 1.380859 0.193359
vt 1.196289 0.010742
vt 1.380859 0.010742
vt 1.997070 0.010742
vt 1.997070 0.193359
vt 1.380859 0.010742
vt 1.380859 0.193359
vt 1.997070 0.427734
vt 1.380859 0.427734
vt 1.997070 0.706055
vt 1.380859 0.706055
vt 1.997070 0.998047
vt 1.380859 0.998047
vt 1.083984 0.010742
vt 1.083984 0.193359
vt 0.998047 0.010742
vt 0.998047 0.193359
vt 1.083984 0.427734
vt 0.998047 0.427734
vt 1.083984 0.706055
vt 0.998047 0.706055
vt 1.029297 0.859375
vt 0.998047 0.859375
vt 1.196289 0.998047
vt 1.196289 0.706055
vt 1.380859 0.998047
vt 1.380859 0.706055
vt 1.196289 0.427734
vt 1.380859 0.427734
vt 1.196289 0.193359
vt 1.380859 0.193359
vt 1.196289 0.010742
vt 1.380859 0.010742
vt 1.380859 0.010742
vt 1.380859 0.193359
vt 1.997070 0.193359
vt 1.997070 0.427734
vt 1.380859 0.427734
vt 1.997070 0.706055
vt 1.380859 0.706055
vt 1.997070 0.998047
vt 1.380859 0.998047
vt 0.998047 0.010742
vt 0.998047 0.193359
vt 1.083984 0.193359
vt 1.083984 0.427734
vt 0.998047 0.427734
vt 1.083984 0.706055
vt 0.998047 0.706055
vt 1.029297 0.859375
vt 0.998047 0.859375
vt 1.380859 0.998047
vt 1.380859 0.706055
vt 1.196289 0.706055
vt 1.196289 0.427734
vt 1.380859 0.427734
vt 1.196289 0.193359
vt 1.380859 0.193359
vt 1.196289 0.010742
vt 1.380859 0.010742
vt 1.380859 0.010742
vt 1.380859 0.193359
vt 1.997070 0.193359
vt 1.997070 0.427734
vt 1.380859 0.427734
vt 1.997070 0.706055
vt 1.380859 0.706055
vt 1.997070 0.998047
vt 1.380859 0.998047
vt 0.998047 0.010742
vt 0.998047 0.193359
vt 1.083984 0.193359
vt 1.083984 0.427734
vt 0.998047 0.427734
vt 1.083984 0.706055
vt 0.998047 0.706055
vt 1.029297 0.859375
vt 0.998047 0.859375
vt 1.380859 0.998047
vt 1.380859 0.706055
vt 1.196289 0.706055
vt 1.196289 0.427734
vt 1.380859 0.427734
vt 1.196289 0.193359
vt 1.380859 0.193359
vt 1.196289 0.010742
vt 1.380859 0.010742
vt -0.353516 -0.999023
vt -0.353516 -0.662109
vt -0.456055 -0.662109
vt -0.456055 -0.319336
vt -0.353516 -0.319336
vt -0.456055 -0.012695
vt -0.353516 -0.012695
vt -0.456055 -0.999023
vt -0.456055 -0.662109
vt -0.354492 -0.662109
vt -0.354492 -0.319336
vt -0.456055 -0.319336
vt -0.354492 -0.012695
vt -0.456055 -0.012695
vt -0.353516 -0.999023
vt -0.353516 -0.662109
vt -0.456055 -0.662109
vt -0.456055 -0.319336
vt -0.353516 -0.319336
vt -0.456055 -0.012695
vt -0.353516 -0.012695
vt -0.456055 -0.999023
vt -0.456055 -0.662109
vt -0.354492 -0.662109
vt -0.354492 -0.319336
vt -0.456055 -0.319336
vt -0.354492 -0.012695
vt -0.456055 -0.012695
vt 1.083984 0.706055
vt 1.083984 0.970703
vt 1.029297 0.859375
vt 1.060547 0.951172
vt 1.083984 0.706055
vt 1.029297 0.859375
vt 1.083984 0.970703
vt 1.060547 0.951172
vt 1.083984 0.706055
vt 1.029297 0.859375
vt 1.083984 0.970703
vt 1.060547 0.951172
vt 1.083984 0.706055
vt 1.083984 0.970703
vt 1.029297 0.859375
vt 1.060547 0.951172
vt 1.997070 0.010742
vt 1.380859 0.010742
vt 1.997070 0.193359
vt 1.083984 0.010742
vt 0.998047 0.010742
vt 1.083984 0.193359
vt 1.196289 0.706055
vt 1.196289 0.998047
vt 1.380859 0.998047
vt -0.353516 -0.999023
vt -0.456055 -0.662109
vt -0.456055 -0.999023
vt -0.456055 -0.999023
vt -0.354492 -0.662109
vt -0.354492 -0.999023
vt 1.997070 0.010742
vt 1.380859 0.010742
vt 1.997070 0.193359
vt 1.083984 0.010742
vt 0.998047 0.010742
vt 1.083984 0.193359
vt 1.196289 0.706055
vt 1.196289 0.998047
vt 1.380859 0.998047
vt -0.353516 -0.999023
vt -0.456055 -0.662109
vt -0.456055 -0.999023
vt -0.456055 -0.999023
vt -0.354492 -0.662109
vt -0.354492 -0.999023
vn 1.0000 -0.0000 -0.0000
vn 0.5744 -0.2367 -0.7836
vn 0.6314 -0.2561 -0.7320
vn 0.5694 -0.2113 -0.7944
vn 0.5519 -0.2779 -0.7862
vn 0.5824 -0.2343 -0.7784
vn 0.4825 -0.3036 -0.8216
vn 0.6538 -0.3537 -0.6689
vn 0.6585 -0.3970 -0.6393
vn 0.5628 -0.4216 -0.7110
vn 0.4893 -0.4417 -0.7520
vn 0.5920 -0.3973 -0.7012
vn 0.4737 -0.4861 -0.7344
vn 0.6663 -0.5018 -0.5515
vn 0.6445 -0.5422 -0.5391
vn 0.5514 -0.5978 -0.5820
vn 0.4562 -0.6292 -0.6292
vn 0.5700 -0.6066 -0.5542
vn 0.4994 -0.6528 -0.5695
vn 0.6106 -0.6218 -0.4905
vn 0.5927 -0.6433 -0.4846
vn 0.5433 -0.6737 -0.5009
vn 0.4590 -0.7342 -0.5003
vn 0.5360 -0.7288 -0.4261
vn 0.5259 -0.7152 -0.4603
vn -0.0000 0.3301 0.9440
vn 0.0531 0.4499 0.8915
vn 0.1305 0.2766 0.9521
vn -0.1409 0.3268 0.9345
vn 0.1409 0.5745 0.8063
vn 0.0404 0.6678 0.7432
vn -0.1326 0.6133 0.7786
vn -0.0476 0.4665 0.8832
vn 0.1126 0.5432 0.8320
vn -0.1196 0.5761 0.8085
vn 0.1196 0.7517 0.6486
vn 0.0227 0.8051 0.5927
vn -0.1147 0.7738 0.6230
vn -0.0337 0.6768 0.7354
vn 0.0772 0.7399 0.6683
vn -0.0840 0.7545 0.6509
vn 0.0869 0.8584 0.5056
vn 0.0007 0.8559 0.5172
vn -0.0815 0.8634 0.4979
vn -0.0223 0.8108 0.5850
vn -0.0009 0.8562 0.5166
vn -0.0009 0.8560 0.5170
vn 0.4214 -0.7651 -0.4868
vn 0.3987 -0.7390 -0.5431
vn 0.4220 -0.7662 -0.4846
vn 0.4458 -0.7527 -0.4844
vn 0.3800 -0.7873 -0.4856
vn 0.5042 -0.7245 -0.4699
vn 0.3382 -0.7052 -0.6231
vn 0.3639 -0.6338 -0.6826
vn 0.4650 -0.6502 -0.6008
vn 0.4641 -0.6966 -0.5471
vn 0.3538 -0.7125 -0.6059
vn 0.5351 -0.6179 -0.5760
vn 0.3079 -0.5481 -0.7777
vn 0.3135 -0.4660 -0.8274
vn 0.4890 -0.4767 -0.7305
vn 0.5656 -0.5163 -0.6431
vn 0.4022 -0.5177 -0.7551
vn 0.5892 -0.4392 -0.6782
vn 0.3147 -0.3086 -0.8976
vn 0.4648 -0.2767 -0.8411
vn 0.5116 -0.2175 -0.8312
vn 0.3900 -0.3954 -0.8316
vn 0.4063 -0.3156 -0.8575
vn 0.4045 -0.3048 -0.8622
vn 0.5695 -0.2114 -0.7944
vn 0.5520 -0.2779 -0.7862
vn 0.5291 -0.2828 -0.8000
vn 0.6645 -0.4037 -0.6288
vn 0.5527 -0.4708 -0.6877
vn 0.5640 -0.4435 -0.6966
vn 0.6562 -0.5054 -0.5603
vn 0.4563 -0.6292 -0.6292
vn 0.4994 -0.6529 -0.5695
vn 0.5260 -0.7152 -0.4603
vn -0.0337 0.6767 0.7354
vn -0.0222 0.8108 0.5849
vn 0.3539 -0.7125 -0.6059
vn 0.3148 -0.3086 -0.8976
vn 0.4647 -0.2767 -0.8411
vn 0.5626 -0.2755 0.7795
vn 0.4825 -0.3036 0.8216
vn 0.5877 -0.1874 0.7870
vn 0.6175 -0.3759 0.6909
vn 0.5628 -0.4216 0.7110
vn 0.6586 -0.3969 0.6393
vn 0.4893 -0.4417 0.7520
vn 0.4737 -0.4861 0.7344
vn 0.5920 -0.3973 0.7012
vn 0.6663 -0.5018 0.5515
vn 0.5514 -0.5978 0.5820
vn 0.6445 -0.5422 0.5391
vn 0.4562 -0.6292 0.6292
vn 0.4994 -0.6528 0.5695
vn 0.5700 -0.6066 0.5542
vn 0.6106 -0.6218 0.4905
vn 0.5433 -0.6737 0.5009
vn 0.5927 -0.6433 0.4846
vn 0.4590 -0.7342 0.5003
vn 0.5259 -0.7152 0.4603
vn 0.5360 -0.7288 0.4261
vn 0.0000 0.3301 -0.9440
vn -0.1409 0.3268 -0.9345
vn 0.1488 0.2686 -0.9517
vn 0.1211 0.5761 -0.8084
vn -0.1326 0.6133 -0.7786
vn 0.0404 0.6678 -0.7432
vn -0.0476 0.4665 -0.8832
vn -0.1196 0.5761 -0.8085
vn 0.1126 0.5432 -0.8320
vn 0.1196 0.7517 -0.6486
vn -0.1147 0.7738 -0.6230
vn 0.0227 0.8051 -0.5927
vn -0.0337 0.6768 -0.7354
vn -0.0840 0.7545 -0.6509
vn 0.0772 0.7399 -0.6683
vn 0.0869 0.8584 -0.5056
vn -0.0815 0.8634 -0.4979
vn 0.0007 0.8559 -0.5172
vn -0.0223 0.8108 -0.5849
vn -0.0009 0.8560 -0.5170
vn -0.0009 0.8562 -0.5166
vn 0.4345 -0.7574 0.4874
vn 0.5042 -0.7245 0.4699
vn 0.3740 -0.7913 0.4838
vn 0.3451 -0.7023 0.6226
vn 0.4650 -0.6502 0.6008
vn 0.3639 -0.6338 0.6826
vn 0.4641 -0.6966 0.5471
vn 0.5351 -0.6179 0.5760
vn 0.3538 -0.7125 0.6059
vn 0.3079 -0.5481 0.7777
vn 0.4890 -0.4767 0.7305
vn 0.3135 -0.4660 0.8274
vn 0.5656 -0.5163 0.6431
vn 0.5893 -0.4392 0.6782
vn 0.4022 -0.5177 0.7551
vn 0.3147 -0.3086 0.8976
vn 0.5116 -0.2175 0.8312
vn 0.4648 -0.2767 0.8411
vn 0.3900 -0.3954 0.8316
vn 0.4045 -0.3048 0.8622
vn 0.4063 -0.3156 0.8575
vn 0.6664 -0.5018 0.5515
vn 0.4563 -0.6292 0.6292
vn 0.4994 -0.6529 0.5695
vn -0.0337 0.6767 -0.7354
vn -0.0222 0.8108 -0.5849
vn 0.5352 -0.6179 0.5760
vn 0.3539 -0.7125 0.6059
vn 0.5892 -0.4392 0.6782
vn 0.4647 -0.2767 0.8411
vn 0.0000 -0.4779 0.8784
vn -0.0491 -0.4773 0.8773
vn 0.0000 -0.6863 0.7273
vn 0.0306 -0.7410 0.6708
vn -0.0753 -0.5307 0.8442
vn -0.0843 -0.6839 0.7247
vn 0.0786 -0.6616 0.7457
vn 0.0843 -0.7959 0.5995
vn -0.0797 -0.8126 0.5774
vn 0.0000 -0.7988 0.6016
vn -0.0276 -0.7480 0.6631
vn 0.0000 -0.4779 -0.8784
vn 0.1287 -0.4739 -0.8711
vn -0.1353 -0.4154 -0.8995
vn -0.1073 -0.6824 -0.7231
vn 0.1200 -0.7146 -0.6892
vn -0.0306 -0.7410 -0.6708
vn 0.0467 -0.5934 -0.8036
vn 0.0843 -0.6839 -0.7247
vn -0.0786 -0.6616 -0.7457
vn -0.0843 -0.7959 -0.5995
vn 0.0797 -0.8126 -0.5774
vn 0.0000 -0.7988 -0.6016
vn 0.0276 -0.7480 -0.6631
vn -0.1287 -0.4739 0.8711
vn 0.1353 -0.4154 0.8995
vn 0.1073 -0.6824 0.7231
vn -0.1200 -0.7146 0.6892
vn -0.0467 -0.5934 0.8036
vn 0.0168 0.8568 0.5153
vn 0.0091 0.8569 0.5154
vn 0.0180 0.8569 0.5152
vn 0.0405 0.8544 0.5180
vn 0.0328 0.8529 0.5210
vn 0.0290 0.8547 0.5182
vn 0.0168 0.8568 -0.5153
vn 0.0181 0.8569 -0.5151
vn 0.0091 0.8569 -0.5154
vn 0.0329 0.8529 -0.5210
vn 0.0406 0.8544 -0.5180
vn 0.0290 0.8547 -0.5183
vn 0.0178 0.8569 -0.5152
vn 0.0090 0.8569 -0.5154
vn 0.0329 0.8529 -0.5211
vn 0.0291 0.8547 -0.5183
vn 0.0180 0.8569 0.5151
vn 0.0406 0.8544 0.5180
vn 0.5744 -0.2367 0.7836
vn 0.4214 -0.7651 0.4868
usemtl Tex_0055_0.dds
s off
f 1/1/1 3/2/1 2/3/1
f 2/3/1 3/2/1 4/4/1
f 3/2/1 5/5/1 4/4/1
f 4/4/1 5/5/1 6/6/1
f 5/5/1 7/7/1 6/6/1
f 6/6/1 7/7/1 8/8/1
f 7/7/1 9/9/1 8/8/1
f 8/8/1 9/9/1 10/10/1
f 9/9/1 11/11/1 10/10/1
f 12/12/1 14/13/1 13/14/1
f 13/14/1 14/13/1 15/15/1
f 14/13/1 16/16/1 15/15/1
f 15/15/1 16/16/1 17/17/1
f 16/16/1 18/18/1 17/17/1
f 17/17/1 18/18/1 19/19/1
f 18/18/1 20/20/1 19/19/1
f 19/19/1 20/20/1 21/21/1
f 20/20/1 22/22/1 21/21/1
f 23/23/1 25/24/1 24/25/1
f 24/25/1 25/24/1 26/26/1
f 25/24/1 27/27/1 26/26/1
f 26/26/1 27/27/1 28/28/1
f 27/27/1 29/29/1 28/28/1
f 28/28/1 29/29/1 30/30/1
f 29/29/1 31/31/1 30/30/1
f 30/30/1 31/31/1 32/32/1
f 31/31/1 33/33/1 32/32/1
f 34/34/1 36/35/1 35/36/1
f 35/36/1 36/35/1 37/37/1
f 36/35/1 38/38/1 37/37/1
f 37/37/1 38/38/1 39/39/1
f 38/38/1 40/40/1 39/39/1
f 39/39/1 40/40/1 41/41/1
f 40/40/1 42/42/1 41/41/1
f 41/41/1 42/42/1 43/43/1
f 42/42/1 44/44/1 43/43/1
f 45/45/2 47/46/3 46/47/4
f 46/47/5 47/46/6 48/48/7
f 47/46/8 49/49/9 48/48/10
f 48/48/11 49/49/12 50/50/13
f 49/49/14 51/51/15 50/50/16
f 50/50/17 51/51/18 52/52/19
f 51/51/20 53/53/21 52/52/22
f 52/52/23 53/53/24 54/54/25
f 55/55/26 57/56/27 56/57/26
f 56/57/26 57/56/28 58/58/29
f 57/56/30 59/59/31 58/58/32
f 58/58/33 59/59/34 60/60/35
f 59/59/36 61/61/37 60/60/38
f 60/60/39 61/61/40 62/62/41
f 61/61/42 63/63/43 62/62/44
f 62/62/45 63/63/46 64/64/47
f 65/65/48 67/66/49 66/67/50
f 66/67/51 67/66/52 68/68/53
f 67/66/54 69/69/55 68/68/56
f 68/68/57 69/69/58 70/70/59
f 69/69/60 71/71/61 70/70/62
f 70/70/63 71/71/64 72/72/65
f 71/71/66 73/73/67 72/72/68
f 72/72/69 73/73/70 74/74/71
f 75/75/2 77/76/3 76/77/72
f 76/77/73 77/76/6 78/78/74
f 77/76/8 79/79/75 78/78/76
f 78/78/77 79/79/77 80/80/13
f 79/79/78 81/81/15 80/80/16
f 80/80/79 81/81/18 82/82/80
f 81/81/20 83/83/21 82/82/22
f 82/82/23 83/83/24 84/84/81
f 85/85/26 87/86/27 86/87/26
f 86/87/26 87/86/28 88/88/29
f 87/86/30 89/89/31 88/88/32
f 88/88/33 89/89/34 90/90/35
f 89/89/36 91/91/37 90/90/38
f 90/90/82 91/91/40 92/92/41
f 91/91/42 93/93/43 92/92/44
f 92/92/83 93/93/47 94/94/47
f 95/95/48 97/96/49 96/97/50
f 96/97/51 97/96/52 98/98/53
f 97/96/54 99/99/55 98/98/56
f 98/98/57 99/99/84 100/100/59
f 99/99/60 101/101/61 100/100/62
f 100/100/63 101/101/64 102/102/65
f 101/101/85 103/103/86 102/102/68
f 102/102/69 103/103/70 104/104/71
f 105/105/87 107/106/88 106/107/89
f 106/107/90 107/106/91 108/108/92
f 107/106/93 109/109/94 108/108/95
f 108/108/96 109/109/97 110/110/98
f 109/109/99 111/111/100 110/110/101
f 110/110/102 111/111/103 112/112/104
f 111/111/105 113/113/106 112/112/107
f 114/114/108 116/115/109 115/116/110
f 115/116/111 116/115/112 117/117/113
f 116/115/114 118/118/115 117/117/116
f 117/117/117 118/118/118 119/119/119
f 118/118/120 120/120/121 119/119/122
f 119/119/123 120/120/124 121/121/125
f 120/120/126 122/122/127 121/121/128
f 123/123/129 125/124/130 124/125/131
f 124/125/132 125/124/133 126/126/134
f 125/124/135 127/127/136 126/126/137
f 126/126/138 127/127/139 128/128/140
f 127/127/141 129/129/142 128/128/143
f 128/128/144 129/129/145 130/130/146
f 129/129/147 131/131/148 130/130/149
f 132/132/87 134/133/88 133/134/89
f 133/134/90 134/133/91 135/135/92
f 134/133/93 136/136/94 135/135/95
f 135/135/150 136/136/97 137/137/98
f 136/136/151 138/138/152 137/137/101
f 137/137/102 138/138/103 139/139/104
f 138/138/105 140/140/106 139/139/107
f 141/141/108 143/142/109 142/143/110
f 142/143/111 143/142/112 144/144/113
f 143/142/114 145/145/115 144/144/116
f 144/144/117 145/145/118 146/146/119
f 145/145/153 147/147/121 146/146/122
f 146/146/123 147/147/124 148/148/125
f 147/147/154 149/149/127 148/148/127
f 150/150/129 152/151/130 151/152/131
f 151/152/132 152/151/133 153/153/134
f 152/151/135 154/154/155 153/153/156
f 153/153/138 154/154/139 155/155/140
f 154/154/141 156/156/157 155/155/143
f 155/155/144 156/156/145 157/157/158
f 156/156/147 158/158/148 157/157/149
f 159/159/159 161/160/160 160/161/159
f 160/161/161 161/160/161 162/162/162
f 161/160/163 163/163/164 162/162/165
f 162/162/166 163/163/167 164/164/168
f 163/163/169 165/165/168 164/164/168
f 166/166/170 168/167/171 167/168/172
f 167/168/173 168/167/174 169/169/175
f 168/167/176 170/170/177 169/169/178
f 169/169/179 170/170/180 171/171/181
f 170/170/182 172/172/181 171/171/181
f 173/173/159 175/174/183 174/175/184
f 174/175/185 175/174/186 176/176/162
f 175/174/187 177/177/164 176/176/165
f 176/176/166 177/177/167 178/178/168
f 177/177/169 179/179/168 178/178/168
f 180/180/170 182/181/171 181/182/172
f 181/182/173 182/181/174 183/183/175
f 182/181/176 184/184/177 183/183/178
f 183/183/179 184/184/180 185/185/181
f 184/184/182 186/186/181 185/185/181
f 187/187/188 189/188/189 188/189/190
f 188/189/191 189/188/192 190/190/193
f 191/191/194 193/192/195 192/193/196
f 192/193/197 193/192/198 194/194/199
f 195/195/194 197/196/200 196/197/201
f 196/197/202 197/196/198 198/198/203
f 199/199/188 201/200/189 200/201/204
f 200/201/205 201/200/192 202/202/193
f 203/203/206 205/204/206 204/205/206
f 206/206/108 208/207/108 207/208/108
f 209/209/207 211/210/207 210/211/207
f 212/212/159 214/213/159 213/214/159
f 215/215/170 217/216/170 216/217/170
f 218/218/206 220/219/206 219/220/206
f 221/221/108 223/222/108 222/223/108
f 224/224/207 226/225/207 225/226/207
f 227/227/159 229/228/159 228/229/159
f 230/230/170 232/231/170 231/232/170
