# Blender v3.6.3 OBJ File: 'untitled.blend'
# www.blender.org
mtllib Mesh_0126.mtl
o Mesh_0126_Mesh.126
v -14.684585 43.035458 16.425369
v -22.304585 43.035458 16.425369
v -18.494585 39.774357 18.500549
v -22.304585 39.774357 18.500549
v -22.304585 35.559990 21.240700
v -22.304585 35.559990 -26.384296
v -22.304585 39.774357 -23.644150
v -18.494585 39.774357 -23.644150
v -22.304585 43.035465 -21.568966
v -14.684585 43.035465 -21.568966
v -18.494585 39.774357 14.032692
v -18.494585 39.770546 9.468559
v -20.082085 35.559990 11.980370
v -20.082085 35.559990 10.103561
v -10.874584 39.774357 14.032692
v -7.064585 39.774357 14.032692
v -8.978987 35.559990 11.980370
v -7.064585 35.559990 11.980370
v -14.684585 43.035458 16.425369
v -18.494585 39.774357 14.032692
v -22.304585 43.035458 16.425369
v -22.304585 39.774357 14.032692
v -18.494585 39.774357 14.032692
v -20.082085 35.559990 11.980370
v -22.304585 39.774357 14.032692
v -22.304585 35.559990 11.980370
v -14.684585 43.035458 16.425369
v -7.064585 43.035458 16.425369
v -10.874584 39.774357 14.032692
v -7.064585 39.774357 14.032692
v -10.874584 39.774357 14.032692
v -8.978987 35.559990 11.980370
v -10.874584 39.770546 9.468559
v -8.978987 35.559990 10.103561
v -18.494585 39.774357 -19.176285
v -20.082085 35.559990 -17.123966
v -18.494585 39.770546 -14.612160
v -20.082085 35.559990 -15.247158
v -10.874584 39.774357 -19.176285
v -8.978987 35.559990 -17.123966
v -7.064585 39.774357 -19.176285
v -7.064585 35.559990 -17.123966
v -14.684585 43.035465 -21.568966
v -22.304585 43.035465 -21.568966
v -18.494585 39.774357 -19.176285
v -22.304585 39.774357 -19.176285
v -18.494585 39.774357 -19.176285
v -22.304585 39.774357 -19.176285
v -20.082085 35.559990 -17.123966
v -22.304585 35.559990 -17.123966
v -14.684585 43.035465 -21.568966
v -10.874584 39.774357 -19.176285
v -7.064585 43.035465 -21.568966
v -7.064585 39.774357 -19.176285
v -10.874584 39.774357 -19.176285
v -10.874584 39.770546 -14.612160
v -8.978987 35.559990 -17.123966
v -8.978987 35.559990 -15.247158
v -18.494585 39.774357 14.032692
v -14.684585 43.035458 16.425369
v -14.684585 42.543972 8.936432
v -18.494585 39.770546 9.468559
v -18.494585 39.774357 14.032692
v -14.684585 42.543972 8.936432
v -18.924858 40.323250 22.828201
v -18.494585 39.774357 18.500549
v -21.034584 35.558720 21.240700
v -21.034584 35.559990 22.828201
v -18.924858 40.323250 22.828201
v -21.034584 35.558720 21.240700
v -14.684585 42.543972 22.828201
v -14.684585 43.035458 16.425369
v -18.494585 39.774357 18.500549
v -18.924858 40.323250 22.828201
v -14.684585 42.543972 22.828201
v -18.494585 39.774357 18.500549
v -8.307150 35.559990 20.870369
v -10.874584 39.774357 18.500549
v -10.297752 40.197014 22.828201
v -8.279469 35.559990 22.828201
v -8.307150 35.559990 20.870369
v -10.297752 40.197014 22.828201
v -10.874584 39.774357 18.500549
v -14.684585 43.035458 16.425369
v -14.684585 42.543972 22.828201
v -10.297752 40.197014 22.828201
v -10.874584 39.774357 18.500549
v -14.684585 42.543972 22.828201
v -21.034584 35.558720 21.240700
v -18.494585 39.774357 18.500549
v -22.304585 35.559990 21.240700
v -8.307150 35.559990 20.870369
v -7.064838 35.559990 20.870369
v -7.057219 39.774357 18.500549
v -10.874584 39.774357 18.500549
v -8.307150 35.559990 20.870369
v -7.057219 39.774357 18.500549
v -7.064585 43.035458 16.425369
v -14.684585 43.035458 16.425369
v -10.874584 39.774357 18.500549
v -7.057219 39.774357 18.500549
v -7.064585 43.035458 16.425369
v -10.874584 39.774357 18.500549
v -14.684585 42.543972 8.936432
v -14.684585 43.035458 16.425369
v -10.874584 39.774357 14.032692
v -10.874584 39.770546 9.468559
v -14.684585 42.543972 8.936432
v -10.874584 39.774357 14.032692
v -14.684585 42.543972 -14.080029
v -14.684585 43.035465 -21.568966
v -18.494585 39.774357 -19.176285
v -18.494585 39.770546 -14.612160
v -14.684585 42.543972 -14.080029
v -18.494585 39.774357 -19.176285
v -21.034584 35.558720 -26.384296
v -18.494585 39.774357 -23.644150
v -18.924858 40.323250 -27.971798
v -21.034584 35.559990 -27.971798
v -21.034584 35.558720 -26.384296
v -18.924858 40.323250 -27.971798
v -18.494585 39.774357 -23.644150
v -14.684585 43.035465 -21.568966
v -14.684585 42.543972 -27.971798
v -18.924858 40.323250 -27.971798
v -18.494585 39.774357 -23.644150
v -14.684585 42.543972 -27.971798
v -10.297752 40.197014 -27.971798
v -10.874584 39.774357 -23.644150
v -8.307150 35.559990 -26.013966
v -8.279469 35.559990 -27.971798
v -10.297752 40.197014 -27.971798
v -8.307150 35.559990 -26.013966
v -14.684585 42.543972 -27.971798
v -14.684585 43.035465 -21.568966
v -10.874584 39.774357 -23.644150
v -10.297752 40.197014 -27.971798
v -14.684585 42.543972 -27.971798
v -10.874584 39.774357 -23.644150
v -21.034584 35.558720 -26.384296
v -22.304585 35.559990 -26.384296
v -18.494585 39.774357 -23.644150
v -7.057219 39.774357 -23.644150
v -7.064838 35.559990 -26.013966
v -8.307150 35.559990 -26.013966
v -10.874584 39.774357 -23.644150
v -7.057219 39.774357 -23.644150
v -8.307150 35.559990 -26.013966
v -10.874584 39.774357 -23.644150
v -14.684585 43.035465 -21.568966
v -7.064585 43.035465 -21.568966
v -7.057219 39.774357 -23.644150
v -10.874584 39.774357 -23.644150
v -7.064585 43.035465 -21.568966
v -10.874584 39.774357 -19.176285
v -14.684585 43.035465 -21.568966
v -14.684585 42.543972 -14.080029
v -10.874584 39.770546 -14.612160
v -10.874584 39.774357 -19.176285
v -14.684585 42.543972 -14.080029
vt 3.975586 -1.005859
vt 3.683594 -1.411133
vt 3.000977 -1.001953
vt 2.997070 -1.419922
vt 3.008789 -1.997070
vt 3.008789 -1.997070
vt 3.683594 -1.411133
vt 2.997070 -1.419922
vt 3.000977 -1.001953
vt 3.975586 -1.005859
vt 1.693359 1.578125
vt 1.384766 1.003906
vt 1.007812 1.604492
vt 1.006836 1.003906
vt 0.680664 3.576172
vt 0.400391 2.998047
vt 0.006836 3.629883
vt 0.006836 2.998047
vt -1.020508 -2.996094
vt -1.998047 -2.996094
vt -1.307617 -3.409180
vt -1.998047 -3.415039
vt -1.307617 -3.409180
vt -1.998047 -3.415039
vt -1.611328 -3.995117
vt -1.994141 -3.995117
vt 0.979492 3.997070
vt 0.680664 3.576172
vt 0.000000 3.997070
vt 0.006836 3.629883
vt 1.693359 1.578125
vt 1.007812 1.604492
vt 1.384766 1.003906
vt 1.006836 1.003906
vt 1.693359 1.578125
vt 1.007812 1.604492
vt 1.384766 1.003906
vt 1.006836 1.003906
vt 0.680664 3.576172
vt 0.006836 3.629883
vt 0.400391 2.998047
vt 0.006836 2.998047
vt -1.020508 -2.996094
vt -1.307617 -3.409180
vt -1.998047 -2.996094
vt -1.998047 -3.415039
vt -1.307617 -3.409180
vt -1.611328 -3.995117
vt -1.998047 -3.415039
vt -1.994141 -3.995117
vt 0.979492 3.997070
vt 0.000000 3.997070
vt 0.680664 3.576172
vt 0.006836 3.629883
vt 1.693359 1.578125
vt 1.384766 1.003906
vt 1.007812 1.604492
vt 1.006836 1.003906
vt 1.693359 1.578125
vt 1.002930 1.994141
vt 1.979492 1.989258
vt 1.007812 1.604492
vt 1.002930 1.994141
vt 1.693359 1.578125
vt 1.003906 -0.380859
vt 1.393555 -0.994141
vt 1.690430 -0.411133
vt 1.001953 -0.987305
vt 1.393555 -0.994141
vt 1.003906 -0.380859
vt 0.999023 -0.001953
vt 1.690430 -0.411133
vt 1.980469 -0.001953
vt 1.003906 -0.380859
vt 1.690430 -0.411133
vt 0.999023 -0.001953
vt 0.389648 -3.990234
vt 0.016602 -3.387695
vt 0.684570 -3.417969
vt 0.007812 -3.986328
vt 0.016602 -3.387695
vt 0.389648 -3.990234
vt 0.684570 -3.417969
vt 0.007812 -3.003906
vt 0.978516 -3.000000
vt 0.016602 -3.387695
vt 0.007812 -3.003906
vt 0.684570 -3.417969
vt 3.385742 -1.997070
vt 3.008789 -1.997070
vt 3.683594 -1.411133
vt -1.606445 -5.993164
vt -1.998047 -5.315430
vt -1.998047 -5.993164
vt -1.313477 -5.414062
vt -1.998047 -5.315430
vt -1.606445 -5.993164
vt -1.998047 -4.996094
vt -1.313477 -5.414062
vt -1.018555 -4.996094
vt -1.998047 -5.315430
vt -1.313477 -5.414062
vt -1.998047 -4.996094
vt 1.002930 1.994141
vt 1.693359 1.578125
vt 1.979492 1.989258
vt 1.007812 1.604492
vt 1.693359 1.578125
vt 1.002930 1.994141
vt 1.002930 1.994141
vt 1.693359 1.578125
vt 1.979492 1.989258
vt 1.007812 1.604492
vt 1.693359 1.578125
vt 1.002930 1.994141
vt 1.393555 -0.994141
vt 1.003906 -0.380859
vt 1.690430 -0.411133
vt 1.001953 -0.987305
vt 1.003906 -0.380859
vt 1.393555 -0.994141
vt 1.690430 -0.411133
vt 0.999023 -0.001953
vt 1.980469 -0.001953
vt 1.003906 -0.380859
vt 0.999023 -0.001953
vt 1.690430 -0.411133
vt 0.016602 -3.387695
vt 0.389648 -3.990234
vt 0.684570 -3.417969
vt 0.007812 -3.986328
vt 0.389648 -3.990234
vt 0.016602 -3.387695
vt 0.007812 -3.003906
vt 0.684570 -3.417969
vt 0.978516 -3.000000
vt 0.016602 -3.387695
vt 0.684570 -3.417969
vt 0.007812 -3.003906
vt 3.385742 -1.997070
vt 3.683594 -1.411133
vt 3.008789 -1.997070
vt -1.998047 -5.315430
vt -1.606445 -5.993164
vt -1.998047 -5.993164
vt -1.313477 -5.414062
vt -1.606445 -5.993164
vt -1.998047 -5.315430
vt -1.313477 -5.414062
vt -1.998047 -4.996094
vt -1.018555 -4.996094
vt -1.998047 -5.315430
vt -1.998047 -4.996094
vt -1.313477 -5.414062
vt 1.693359 1.578125
vt 1.002930 1.994141
vt 1.979492 1.989258
vt 1.007812 1.604492
vt 1.002930 1.994141
vt 1.693359 1.578125
vn 0.0000 -0.5369 -0.8437
vn -0.0000 -0.5399 -0.8417
vn -0.0049 -0.5369 -0.8437
vn 0.0049 -0.5482 -0.8363
vn 0.0000 -0.5451 -0.8384
vn -0.0049 -0.5451 -0.8384
vn 0.0000 -0.5451 0.8384
vn 0.0056 -0.5487 0.8360
vn -0.0048 -0.5451 0.8384
vn -0.0049 -0.5369 0.8437
vn 0.0019 -0.5352 0.8447
vn 0.0000 -0.5369 0.8437
vn 0.0000 -0.5392 0.8422
vn 0.9358 -0.3526 0.0003
vn 0.9357 -0.3528 0.0000
vn 0.0000 -0.4378 0.8991
vn 0.0000 -0.5916 0.8063
vn -0.9119 -0.4103 0.0003
vn -0.9119 -0.4105 0.0000
vn 0.9358 -0.3526 -0.0003
vn 0.9357 -0.3528 0.0003
vn 0.0000 -0.4378 -0.8991
vn 0.0000 -0.5916 -0.8063
vn -0.9119 -0.4103 -0.0003
vn 0.6308 -0.7743 0.0508
vn 0.5886 -0.8084 0.0007
vn 0.8862 -0.4404 0.1440
vn 0.9143 -0.4050 0.0003
vn 0.6302 -0.7741 -0.0594
vn 0.4582 -0.8749 0.1565
vn -0.8805 -0.4459 0.1609
vn -0.9168 -0.3991 0.0130
vn -0.6302 -0.7741 -0.0594
vn -0.4666 -0.8721 0.1474
vn -0.0005 -0.5448 -0.8386
vn 0.0000 -0.4901 -0.8716
vn -0.6308 -0.7743 0.0508
vn -0.5886 -0.8084 0.0007
vn 0.6308 -0.7743 -0.0508
vn 0.5886 -0.8084 -0.0007
vn 0.8862 -0.4404 -0.1440
vn 0.9143 -0.4050 -0.0003
vn 0.6302 -0.7741 0.0594
vn 0.4582 -0.8749 -0.1565
vn -0.8805 -0.4459 -0.1609
vn -0.9168 -0.3991 -0.0130
vn -0.6302 -0.7741 0.0594
vn -0.4666 -0.8721 -0.1474
vn -0.0005 -0.5448 0.8386
vn 0.0000 -0.4901 0.8716
vn -0.6308 -0.7743 -0.0508
vn -0.5886 -0.8084 -0.0007
usemtl Tex_0027_1.dds
s off
f 1/1/1 3/2/2 2/3/1
f 2/3/1 3/2/1 4/4/3
f 3/2/4 5/5/5 4/4/6
f 6/6/7 8/7/8 7/8/9
f 7/8/10 8/7/11 9/9/12
f 8/7/13 10/10/12 9/9/12
f 11/11/14 13/12/14 12/13/14
f 12/13/15 13/12/15 14/14/15
f 15/15/16 17/16/16 16/17/16
f 16/17/16 17/16/16 18/18/16
f 19/19/17 21/20/17 20/21/17
f 20/21/17 21/20/17 22/22/17
f 23/23/16 25/24/16 24/25/16
f 24/25/16 25/24/16 26/26/16
f 27/27/17 29/28/17 28/29/17
f 28/29/17 29/28/17 30/30/17
f 31/31/18 33/32/18 32/33/18
f 32/33/19 33/32/19 34/34/19
f 35/35/20 37/36/20 36/37/20
f 36/37/15 37/36/21 38/38/15
f 39/39/22 41/40/22 40/41/22
f 40/41/22 41/40/22 42/42/22
f 43/43/23 45/44/23 44/45/23
f 44/45/23 45/44/23 46/46/23
f 47/47/22 49/48/22 48/49/22
f 48/49/22 49/48/22 50/50/22
f 51/51/23 53/52/23 52/53/23
f 52/53/23 53/52/23 54/54/23
f 55/55/24 57/56/24 56/57/24
f 56/57/19 57/56/19 58/58/19
f 59/59/25 61/60/25 60/61/25
f 62/62/26 64/63/26 63/64/26
f 65/65/27 67/66/27 66/67/27
f 68/68/28 70/69/28 69/70/28
f 71/71/29 73/72/29 72/73/29
f 74/74/30 76/75/30 75/76/30
f 77/77/31 79/78/31 78/79/31
f 80/80/32 82/81/32 81/82/32
f 83/83/33 85/84/33 84/85/33
f 86/86/34 88/87/34 87/88/34
f 89/89/35 91/90/35 90/91/35
f 92/92/36 94/93/36 93/94/36
f 95/95/36 97/96/36 96/97/36
f 98/98/1 100/99/1 99/100/1
f 101/101/1 103/102/1 102/103/1
f 104/104/37 106/105/37 105/106/37
f 107/107/38 109/108/38 108/109/38
f 110/110/39 112/111/39 111/112/39
f 113/113/40 115/114/40 114/115/40
f 116/116/41 118/117/41 117/118/41
f 119/119/42 121/120/42 120/121/42
f 122/122/43 124/123/43 123/124/43
f 125/125/44 127/126/44 126/127/44
f 128/128/45 130/129/45 129/130/45
f 131/131/46 133/132/46 132/133/46
f 134/134/47 136/135/47 135/136/47
f 137/137/48 139/138/48 138/139/48
f 140/140/49 142/141/49 141/142/49
f 143/143/50 145/144/50 144/145/50
f 146/146/50 148/147/50 147/148/50
f 149/149/12 151/150/12 150/151/12
f 152/152/12 154/153/12 153/154/12
f 155/155/51 157/156/51 156/157/51
f 158/158/52 160/159/52 159/160/52
