# Blender v3.6.3 OBJ File: 'untitled.blend'
# www.blender.org
mtllib Mesh_0331.mtl
o Mesh_0331_Mesh.092
v -19.258064 13.405551 -33.051762
v -19.258108 13.405556 -27.971806
v -19.129581 13.546655 -33.051762
v -19.129581 13.546653 -27.971806
v -19.129581 13.687769 -33.051762
v -19.129581 13.687775 -27.971806
v -19.386417 13.828873 -33.051762
v -19.386375 13.828872 -27.971806
v -19.386417 13.828872 -43.211845
v -19.422482 13.828872 -47.947250
v -19.129581 13.687769 -43.211845
v -19.184292 13.687775 -47.709061
v -19.129581 13.546654 -43.211845
v -19.184292 13.546653 -47.709061
v -19.296440 13.405556 -47.821205
v -19.514893 14.763744 -37.888119
v -19.386454 14.562655 -38.021721
v -19.386457 14.562655 -33.161671
v -19.258018 14.393316 -38.131805
v -19.258064 14.393313 -33.051762
v -19.386457 14.252206 -38.131805
v -19.386417 14.252210 -33.051762
v -19.258018 13.405544 -38.131805
v -19.129581 13.546655 -33.051762
v -19.129581 13.546656 -38.131805
v -19.129581 13.687769 -33.051762
v -19.129581 13.687764 -38.131805
v -19.386417 13.828873 -33.051762
v -19.386457 13.828875 -38.131805
v -19.514893 14.763743 -42.968117
v -19.386454 14.562654 -43.101723
v -19.386457 14.562655 -38.241673
v -19.258064 14.393313 -43.211845
v -19.258018 14.393316 -38.131805
v -19.386417 14.252209 -43.211845
v -19.386457 14.252206 -38.131805
v -19.258064 13.405550 -43.211845
v -19.129581 13.546656 -38.131805
v -19.129581 13.546654 -43.211845
v -19.129581 13.687764 -38.131805
v -19.129581 13.687769 -43.211845
v -19.386457 13.828875 -38.131805
v -19.386417 13.828872 -43.211845
v -19.514902 14.763744 -32.734215
v -19.386417 14.562654 -33.051762
v -19.386375 14.562653 -27.971806
v -19.258064 14.393313 -33.051762
v -19.258108 14.393311 -27.971806
v -19.386417 14.252210 -33.051762
v -19.386375 14.252213 -27.971806
v -19.296440 14.393311 -47.821205
v -19.258064 14.393313 -43.211845
v -19.422482 14.562653 -47.947250
v -19.386417 14.562654 -43.211845
v -19.514902 14.763743 -43.529392
v -19.129581 12.699994 -38.131805
v -19.129581 13.264436 -38.131805
v -19.129581 12.699993 -43.211845
v -19.129581 13.264433 -43.211845
v -19.184292 13.264433 -47.709061
v -19.129581 13.264436 -38.131805
v -19.258018 13.405544 -38.131805
v -19.129581 13.264433 -43.211845
v -19.258064 13.405550 -43.211845
v -19.296440 13.405556 -47.821205
v -19.386457 13.828875 -38.131805
v -19.386457 14.252206 -38.131805
v -19.386417 13.828872 -43.211845
v -19.386417 14.252209 -43.211845
v -19.422482 14.252214 -47.947250
v -19.555649 14.763744 -48.080418
v -19.514902 14.763743 -43.529392
v -19.764584 14.763744 -48.291893
v -19.764584 14.763743 -43.529392
v -19.296440 14.393311 -47.821205
v -19.422482 14.252214 -47.947250
v -19.258064 14.393313 -43.211845
v -19.386417 14.252209 -43.211845
v -19.764584 14.763744 -33.295483
v -19.764584 14.763744 -37.888119
v -19.514893 14.763744 -33.295486
v -19.514893 14.763744 -37.888119
v -19.129581 12.699994 -33.051762
v -19.129581 13.264434 -33.051762
v -19.129581 12.699994 -38.131805
v -19.129581 13.264436 -38.131805
v -19.129581 13.264434 -33.051762
v -19.258064 13.405551 -33.051762
v -19.129581 13.264436 -38.131805
v -19.258018 13.405544 -38.131805
v -19.386417 13.828873 -33.051762
v -19.386417 14.252210 -33.051762
v -19.386457 13.828875 -38.131805
v -19.386457 14.252206 -38.131805
v -19.764584 14.763744 -38.375484
v -19.764584 14.763743 -42.968117
v -19.514893 14.763744 -38.375488
v -19.514893 14.763743 -42.968117
v -19.386417 13.828873 -33.051762
v -19.386375 13.828872 -27.971806
v -19.386417 14.252210 -33.051762
v -19.386375 14.252213 -27.971806
v -19.129581 13.264433 -27.971806
v -19.129581 13.264434 -33.051762
v -19.129581 12.699994 -27.971806
v -19.129581 12.699994 -33.051762
v -19.258108 13.405556 -27.971806
v -19.258064 13.405551 -33.051762
v -19.129581 13.264433 -27.971806
v -19.129581 13.264434 -33.051762
v -19.764584 14.763744 -27.971756
v -19.764584 14.763744 -32.734215
v -19.514902 14.763744 -27.971806
v -19.514902 14.763744 -32.734215
v -19.258108 14.393311 -27.971806
v -19.386375 14.252213 -27.971806
v -19.258108 14.393311 -27.465160
v -19.386375 14.252213 -27.593586
v -19.129581 12.699993 -43.211845
v -19.184292 13.264433 -47.709061
v -19.184292 12.699994 -47.709061
v -19.129581 13.264433 -43.211845
v -19.296440 13.405556 -47.821205
v -19.184292 13.264433 -47.709061
v -19.296440 13.405556 -47.821205
v -19.258064 13.405550 -43.211845
v -19.129581 13.546654 -43.211845
v -19.514902 14.763743 -43.529392
v -19.555649 14.763744 -48.080418
v -19.422482 14.562653 -47.947250
v -19.422482 14.252214 -47.947250
v -19.422482 13.828872 -47.947250
v -19.386417 13.828872 -43.211845
v -19.386457 14.562655 -33.161671
v -19.514893 14.763744 -33.295486
v -19.514893 14.763744 -37.888119
v -19.386457 14.562655 -33.161671
v -19.258064 14.393313 -33.051762
v -19.386417 14.562654 -33.051762
v -19.258018 14.393316 -38.131805
v -19.386454 14.562655 -38.021721
v -19.386457 14.562655 -38.131805
v -19.129581 13.546655 -33.051762
v -19.258018 13.405544 -38.131805
v -19.258064 13.405551 -33.051762
v -19.386457 14.562655 -38.241673
v -19.514893 14.763744 -38.375488
v -19.514893 14.763743 -42.968117
v -19.386457 14.562655 -38.241673
v -19.258018 14.393316 -38.131805
v -19.386457 14.562655 -38.131805
v -19.258064 14.393313 -43.211845
v -19.386454 14.562654 -43.101723
v -19.386417 14.562654 -43.211845
v -19.129581 13.546656 -38.131805
v -19.258064 13.405550 -43.211845
v -19.258018 13.405544 -38.131805
v -19.514902 14.763744 -32.734215
v -19.386375 14.562653 -27.971806
v -19.514902 14.763744 -27.971806
vt 0.497070 -1.694336
vt 0.497070 -2.070312
vt -1.307617 -1.694336
vt -1.266602 -2.070312
vt 0.497070 -2.196289
vt -1.266602 -2.196289
vt 0.497070 -1.770508
vt -1.349609 -1.770508
vt 0.497070 -1.770508
vt 0.497070 -2.196289
vt -1.487305 -1.770508
vt -1.487305 -2.196289
vt 0.497070 -2.070312
vt -1.487305 -2.070312
vt -1.487305 -1.694336
vt 1.416992 1.045898
vt -0.443359 0.830078
vt 1.453125 0.828125
vt 1.502930 0.655273
vt -0.504883 0.655273
vt 1.496094 0.794922
vt -0.498047 0.794922
vt 0.497070 -1.694336
vt 0.497070 -2.070312
vt -1.500977 -2.070312
vt -1.500977 -2.196289
vt 0.497070 -2.196289
vt -1.500977 -1.770508
vt 0.497070 -1.770508
vt 1.416992 1.045898
vt -0.443359 0.830078
vt 1.453125 0.828125
vt 1.502930 0.655273
vt -0.504883 0.655273
vt 1.496094 0.794922
vt -0.498047 0.794922
vt 0.497070 -1.694336
vt 0.497070 -2.070312
vt -1.500977 -2.070312
vt -1.500977 -2.196289
vt 0.497070 -2.196289
vt -1.500977 -1.770508
vt 0.497070 -1.770508
vt 1.476562 1.041992
vt -0.342773 0.799805
vt 1.496094 0.799805
vt 1.496094 0.655273
vt -0.300781 0.655273
vt 1.496094 0.794922
vt -0.342773 0.794922
vt -0.479492 0.655273
vt -0.479492 0.799805
vt 1.496094 0.655273
vt 1.496094 0.799805
vt 1.476562 1.041992
vt -1.500977 -2.603516
vt 0.497070 -2.603516
vt -1.500977 -3.003906
vt 0.497070 -3.003906
vt -1.486328 -3.003906
vt -1.500977 -3.003906
vt 0.497070 -3.003906
vt -1.500977 -3.352539
vt 0.497070 -3.352539
vt -1.486328 -3.352539
vt -1.500977 -0.653320
vt 0.497070 -0.653320
vt -1.500977 -0.346680
vt 0.497070 -0.346680
vt -1.481445 -0.346680
vt -0.479492 1.046875
vt -0.304688 1.397461
vt 1.476562 1.041992
vt 1.500000 1.397461
vt -0.479492 0.655273
vt 1.496094 0.655273
vt -0.479492 0.794922
vt 1.496094 0.794922
vt -1.500977 -1.000000
vt -1.500977 -1.249023
vt 0.497070 -1.000000
vt 0.497070 -1.249023
vt -1.500977 -2.603516
vt 0.497070 -2.603516
vt -1.500977 -3.003906
vt 0.497070 -3.003906
vt -1.500977 -3.003906
vt 0.497070 -3.003906
vt -1.500977 -3.352539
vt 0.497070 -3.352539
vt -1.500977 -0.653320
vt 0.497070 -0.653320
vt -1.500977 -0.346680
vt 0.497070 -0.346680
vt -1.500977 -1.000000
vt -1.500977 -1.249023
vt 0.497070 -1.000000
vt 0.497070 -1.249023
vt 0.497070 -0.653320
vt 0.497070 -0.346680
vt -1.344727 -0.653320
vt -1.344727 -0.346680
vt -1.266602 -3.003906
vt -1.266602 -2.603516
vt 0.497070 -3.003906
vt 0.497070 -2.603516
vt -1.306641 -3.352539
vt -1.266602 -3.003906
vt 0.497070 -3.352539
vt 0.497070 -3.003906
vt -0.304688 1.397461
vt -0.382812 1.046875
vt 1.500000 1.397461
vt 1.476562 1.041992
vt -0.300781 0.655273
vt -0.479492 0.655273
vt -0.342773 0.794922
vt -0.479492 0.794922
vt 0.497070 -2.603516
vt -1.486328 -2.603516
vt -1.486328 -3.003906
vt 0.497070 -3.003906
vt -1.486328 -3.003906
vt -1.486328 -3.352539
vt -1.487305 -1.694336
vt 0.497070 -2.070312
vt 0.497070 -1.694336
vt 1.476562 1.041992
vt -0.479492 0.799805
vt -0.479492 1.046875
vt -1.481445 -0.346680
vt 0.497070 -0.653320
vt -1.481445 -0.653320
vt -0.443359 0.830078
vt 1.416992 1.045898
vt -0.422852 1.047852
vt -0.443359 0.830078
vt -0.498047 0.831055
vt -0.504883 0.655273
vt 1.502930 0.655273
vt 1.496094 0.827148
vt 1.453125 0.828125
vt -1.500977 -2.070312
vt -1.500977 -1.694336
vt 0.497070 -1.694336
vt -0.443359 0.830078
vt 1.416992 1.045898
vt -0.422852 1.047852
vt -0.443359 0.830078
vt -0.498047 0.831055
vt -0.504883 0.655273
vt 1.502930 0.655273
vt 1.496094 0.827148
vt 1.453125 0.828125
vt -1.500977 -2.070312
vt -1.500977 -1.694336
vt 0.497070 -1.694336
vt 1.476562 1.041992
vt -0.382812 1.046875
vt -0.342773 0.799805
vn 0.7394 -0.6733 0.0000
vn 0.6975 -0.6166 -0.3650
vn 0.7393 -0.6734 0.0000
vn 0.7392 -0.6734 0.0117
vn 0.9343 0.0000 -0.3566
vn 0.8580 0.0142 -0.5135
vn 0.7471 0.6644 0.0184
vn 1.0000 0.0000 0.0000
vn 0.8607 -0.0000 0.5091
vn 0.4157 0.7567 -0.5046
vn 0.4815 0.8764 -0.0000
vn -0.0311 0.9991 0.0294
vn 0.4402 0.7402 0.5083
vn 0.4816 0.8764 -0.0000
vn 0.4815 0.8764 -0.0037
vn 0.4379 0.7359 0.5165
vn 0.5143 0.8576 -0.0063
vn 0.6936 0.6512 -0.3079
vn 0.8733 0.0013 0.4872
vn 1.0000 -0.0005 0.0028
vn 0.8132 -0.5812 -0.0281
vn 0.8064 0.0183 -0.5911
vn 0.9998 0.0150 -0.0117
vn 0.9220 0.0000 -0.3872
vn 0.2524 -0.9674 0.0205
vn 0.7865 -0.6175 -0.0096
vn 0.8443 -0.4771 -0.2440
vn 0.8428 0.5383 0.0000
vn 0.8823 0.4707 -0.0039
vn 0.8555 0.5157 0.0462
vn 0.8041 0.5940 0.0243
vn 0.7955 0.6059 -0.0001
vn 0.3408 0.6531 -0.6763
vn 0.7974 0.6034 -0.0017
vn 0.7871 0.6161 0.0298
vn 0.0808 0.9962 -0.0319
vn 0.6322 -0.5754 -0.5189
vn -0.4975 -0.8667 0.0366
vn 0.7395 -0.6731 0.0000
vn 0.7397 -0.6729 -0.0000
vn 0.6897 -0.6278 -0.3609
vn 0.1099 -0.9936 0.0248
vn 0.9999 0.0000 0.0158
vn 0.9326 0.3608 -0.0100
vn 0.8607 0.0141 0.5090
vn 0.9326 -0.0100 -0.3608
vn 0.8607 -0.0000 -0.5092
vn 0.8607 -0.5090 0.0141
vn 0.4144 0.7543 0.5092
vn -0.0311 0.9991 -0.0294
vn 0.4401 0.7402 -0.5083
vn 0.4815 0.8765 -0.0000
vn 0.8824 0.4706 -0.0040
vn 0.8555 0.5158 0.0462
vn 0.8042 0.5939 0.0243
vn 0.7958 0.6056 -0.0001
vn 0.3410 0.6532 -0.6761
vn 0.7973 0.6035 -0.0017
vn 0.3240 0.6755 0.6623
vn 0.0805 0.9962 -0.0319
vn 0.6324 -0.5753 -0.5187
vn 0.2835 -0.9588 0.0195
vn 0.6452 -0.5609 0.5188
vn 0.7392 -0.6735 0.0000
vn 0.6895 -0.6279 -0.3610
vn 0.1095 -0.9937 0.0248
vn 0.4142 0.7544 0.5092
vn -0.0312 0.9991 -0.0294
vn 0.8427 0.5384 -0.0000
vn 0.8816 0.4719 -0.0039
vn 0.8657 0.4993 0.0341
vn 0.7967 0.6039 0.0232
vn 0.7953 0.6062 -0.0001
vn 0.6291 0.4433 -0.6386
vn 0.7972 0.6037 -0.0024
vn 0.6132 0.4645 0.6389
vn 0.2278 0.9733 -0.0267
vn 0.5689 -0.5176 -0.6391
vn 0.1392 -0.9900 0.0240
vn 0.5854 -0.4997 0.6384
vn 0.7399 -0.6727 -0.0000
vn 0.7402 -0.6724 -0.0000
vn 0.8046 0.5938 -0.0067
vn 0.8037 0.5950 -0.0038
vn 0.8118 0.5838 -0.0068
vn 0.7969 0.6040 -0.0061
vn 0.7872 0.6167 -0.0058
vn 0.7965 0.6037 -0.0317
vn 0.8835 0.4684 -0.0034
vn 0.8472 0.5312 -0.0065
vn 0.8721 0.4873 -0.0443
vn 1.0000 -0.0006 -0.0058
vn 1.0000 -0.0058 0.0006
vn 1.0000 0.0061 0.0000
vn 0.9999 -0.0063 -0.0130
vn 0.9999 0.0000 -0.0122
vn 0.9999 0.0061 -0.0122
vn 0.7395 0.6731 -0.0000
vn 0.7397 0.6729 -0.0031
vn 0.7394 0.6732 -0.0000
vn 0.7415 0.6710 0.0001
vn 0.7374 0.6755 -0.0000
vn 0.7415 0.6709 -0.0063
vn 0.7394 0.6732 -0.0062
vn 0.7373 0.6755 -0.0061
vn 1.0000 -0.0003 -0.0037
vn 1.0000 -0.0037 0.0003
vn 1.0000 0.0038 0.0000
vn 1.0000 -0.0039 -0.0080
vn 1.0000 0.0000 -0.0076
vn 1.0000 0.0038 -0.0076
vn -0.0000 1.0000 0.0000
vn 0.7485 -0.6631 -0.0062
vn 0.7570 -0.6534 -0.0063
vn 0.7487 -0.6629 -0.0066
vn 0.7312 -0.6822 -0.0056
vn 0.7397 -0.6729 -0.0056
vn 0.7393 0.6733 0.0000
vn 0.7866 0.6174 -0.0096
vn 0.7394 -0.6733 -0.0062
vn 0.8360 0.5487 -0.0075
vn 0.7970 0.6040 -0.0003
vn 0.7967 0.6043 -0.0000
vn 0.7969 0.6041 0.0003
vn 0.8426 0.5385 0.0000
usemtl Tex_0032_0.dds.012
s off
f 1/1/1 3/2/2 2/3/1
f 2/3/3 3/2/3 4/4/4
f 3/2/5 5/5/6 4/4/7
f 4/4/8 5/5/8 6/6/9
f 5/5/10 7/7/11 6/6/12
f 6/6/13 7/7/14 8/8/14
f 9/9/15 11/10/16 10/11/15
f 10/11/17 11/10/17 12/12/18
f 11/10/19 13/13/20 12/12/21
f 12/12/22 13/13/23 14/14/24
f 13/13/25 15/15/26 14/14/27
f 16/16/28 18/17/29 17/18/30
f 17/18/31 18/17/32 19/19/33
f 18/17/34 20/20/35 19/19/36
f 19/19/37 20/20/38 21/21/39
f 20/20/40 22/22/40 21/21/40
f 23/23/39 25/24/41 24/25/42
f 24/25/43 25/24/44 26/26/45
f 25/24/46 27/27/47 26/26/48
f 26/26/49 27/27/50 28/28/11
f 27/27/51 29/29/52 28/28/52
f 30/30/28 32/31/53 31/32/54
f 31/32/55 32/31/56 33/33/57
f 32/31/58 34/34/59 33/33/60
f 33/33/61 34/34/62 35/35/40
f 34/34/63 36/36/39 35/35/64
f 37/37/1 39/38/65 38/39/66
f 38/39/43 39/38/44 40/40/45
f 39/38/46 41/41/47 40/40/48
f 40/40/67 41/41/68 42/42/52
f 41/41/51 43/43/11 42/42/11
f 44/44/69 46/45/70 45/46/71
f 45/46/72 46/45/73 47/47/74
f 46/45/75 48/48/76 47/47/77
f 47/47/78 48/48/79 49/49/40
f 48/48/80 50/50/81 49/49/82
f 51/51/83 53/52/84 52/53/85
f 52/53/86 53/52/87 54/54/88
f 53/52/89 55/55/90 54/54/91
f 56/56/8 58/57/92 57/58/8
f 57/58/8 58/57/93 59/59/94
f 58/57/95 60/60/96 59/59/97
f 61/61/98 63/62/99 62/63/98
f 62/63/100 63/62/101 64/64/102
f 63/62/103 65/65/104 64/64/105
f 66/66/8 68/67/106 67/68/8
f 67/68/8 68/67/107 69/69/108
f 68/67/109 70/70/110 69/69/111
f 71/71/112 73/72/112 72/73/112
f 72/73/112 73/72/112 74/74/112
f 75/75/113 77/76/114 76/77/115
f 76/77/116 77/76/117 78/78/117
f 79/79/112 81/80/112 80/81/112
f 80/81/112 81/80/112 82/82/112
f 83/83/8 85/84/8 84/85/8
f 84/85/8 85/84/8 86/86/8
f 87/87/100 89/88/100 88/89/100
f 88/89/98 89/88/98 90/90/98
f 91/91/8 93/92/8 92/93/8
f 92/93/8 93/92/8 94/94/8
f 95/95/112 97/96/112 96/97/112
f 96/97/112 97/96/112 98/98/112
f 99/99/8 101/100/8 100/101/8
f 100/101/8 101/100/8 102/102/8
f 103/103/8 105/104/8 104/105/8
f 104/105/8 105/104/8 106/106/8
f 107/107/118 109/108/118 108/109/118
f 108/109/100 109/108/100 110/110/100
f 111/111/112 113/112/112 112/113/112
f 112/113/112 113/112/112 114/114/112
f 115/115/81 117/116/81 116/117/81
f 116/117/81 117/116/81 118/118/81
f 119/119/96 121/120/96 120/121/96
f 122/122/119 124/123/119 123/124/119
f 125/125/120 127/126/120 126/127/120
f 128/128/121 130/129/121 129/130/121
f 131/131/110 133/132/110 132/133/110
f 134/134/28 136/135/28 135/136/28
f 137/137/122 139/138/122 138/139/122
f 140/140/123 142/141/123 141/142/123
f 143/143/1 145/144/1 144/145/1
f 146/146/28 148/147/28 147/148/28
f 149/149/123 151/150/123 150/151/123
f 152/152/124 154/153/124 153/154/124
f 155/155/39 157/156/39 156/157/39
f 158/158/125 160/159/125 159/160/125
