# Blender v3.6.3 OBJ File: 'untitled.blend'
# www.blender.org
mtllib Mesh_0169.mtl
o Mesh_0169_Mesh.142
v -22.304617 12.699990 -15.271805
v -19.764622 12.699990 -15.271805
v -22.304649 12.699989 -14.982349
v -21.034649 12.699989 -10.191807
v -22.304649 12.699989 -10.481262
v -22.304649 12.699989 -10.191807
v -19.764648 12.699989 -10.191807
v -19.764622 12.699990 -15.271805
v -19.764648 11.429989 -10.191807
v -19.764648 10.159989 -15.271805
v -19.764641 10.159990 -10.191807
v -19.764648 12.699988 5.048195
v -19.764622 12.699990 10.128189
v -21.034649 12.699988 5.048195
v -22.304649 12.699989 9.838737
v -22.304649 12.699988 5.337646
v -19.764641 10.159989 5.048195
v -19.764648 10.159989 10.128189
v -19.764648 11.429988 5.048195
v -19.764622 12.699990 10.128189
v -19.764648 12.699988 5.048195
v -19.764622 12.699990 -15.271805
v -19.764648 12.699989 -10.191807
v -21.034649 12.699989 -10.191807
v -22.304649 12.699988 5.337646
v -22.304649 12.699988 5.048195
v -21.034649 12.699988 5.048195
v -22.304617 12.699990 10.128189
v -22.304649 12.699989 9.838737
v -19.764622 12.699990 10.128189
vt -0.000977 0.005859
vt 0.055664 0.005859
vt -0.000977 -0.493164
vt 0.998047 -0.243164
vt 0.940430 0.005859
vt 0.998047 0.005859
vt 0.998047 -0.493164
vt 0.998047 -0.743164
vt -0.000977 -0.493164
vt -0.000977 -0.993164
vt 0.998047 -0.993164
vt 0.998047 -0.493164
vt 0.998047 -0.243164
vt -0.000977 -0.493164
vt 0.060547 0.005859
vt 0.940430 0.005859
vt 0.998047 -0.993164
vt 0.998047 -0.743164
vt -0.000977 -0.993164
vt -0.000977 -0.493164
vt 0.998047 -0.493164
vt -0.000977 -0.493164
vt 0.998047 -0.243164
vt 0.998047 -0.493164
vt 0.940430 0.005859
vt 0.998047 -0.243164
vt 0.998047 0.005859
vt -0.000977 0.005859
vt -0.000977 -0.493164
vt 0.060547 0.005859
vn 0.0000 1.0000 0.0000
vn 1.0000 0.0000 0.0000
usemtl Tex_0012_1.dds.001
s off
f 1/1/1 3/2/1 2/3/1
f 2/3/1 3/2/1 4/4/1
f 3/2/1 5/5/1 4/4/1
f 4/4/1 5/5/1 6/6/1
f 7/7/2 9/8/2 8/9/2
f 8/9/2 9/8/2 10/10/2
f 9/8/2 11/11/2 10/10/2
f 12/12/1 14/13/1 13/14/1
f 13/14/1 14/13/1 15/15/1
f 14/13/1 16/16/1 15/15/1
f 17/17/2 19/18/2 18/19/2
f 18/19/2 19/18/2 20/20/2
f 19/18/2 21/21/2 20/20/2
f 22/22/1 24/23/1 23/24/1
f 25/25/1 27/26/1 26/27/1
f 28/28/1 30/29/1 29/30/1
