# Blender v3.6.3 OBJ File: 'untitled.blend'
# www.blender.org
mtllib Mesh_0250.mtl
o Mesh_0250_Mesh.062
v 8.612909 -0.000005 -27.971813
v 7.923899 0.000046 -29.051311
v 8.612913 1.693318 -27.971813
v 8.612913 2.063746 -27.971813
v 8.774343 2.063746 -27.593685
v 8.612917 3.809994 -27.971813
v 8.774343 3.807657 -27.593681
v 8.424452 4.803895 -27.971813
v 8.558710 4.925918 -27.593689
v 2.712118 4.925918 -27.593689
v 2.846376 4.803895 -27.971813
v 2.496485 3.807657 -27.593681
v 2.657911 3.809994 -27.971813
v 2.496485 2.063746 -27.593685
v 2.657915 2.063746 -27.971813
v 2.657919 1.693318 -27.971813
v 3.346926 0.000046 -29.051311
v 2.657923 -0.000005 -27.971813
v 9.261324 1.693318 -27.971813
v 9.261324 0.987767 -27.971806
v 9.109804 1.693318 -27.336811
v 9.261324 0.846657 -27.971806
v 9.109804 -0.000005 -27.336803
v 9.261324 0.564436 -27.971806
v 9.261324 -0.000005 -27.971813
v 2.009506 -0.000005 -27.971813
v 2.009506 0.564436 -27.971806
v 2.161024 -0.000005 -27.336803
v 2.009506 0.846657 -27.971806
v 2.161024 1.693318 -27.336811
v 2.009506 0.987767 -27.971806
v 2.009506 1.693318 -27.971813
v 3.346926 0.000046 -29.051311
v 2.657915 2.063746 -27.971813
v 3.346926 3.333795 -29.051311
v 2.657911 3.809994 -27.971813
v 3.491762 4.321219 -29.051311
v 2.846376 4.803895 -27.971813
v 2.393068 5.101482 -27.971806
v 2.393068 5.101482 -27.593685
v 2.161024 3.942962 -27.971813
v 2.161024 3.942962 -27.593689
v 2.161028 2.063745 -27.971806
v 2.161032 2.063746 -27.593685
v 2.393068 5.101482 -27.593685
v 2.712118 4.925918 -27.593689
v 2.161024 3.942962 -27.593689
v 2.496485 3.807657 -27.593681
v 2.161032 2.063746 -27.593685
v 2.496485 2.063746 -27.593685
v 8.612913 2.063746 -27.971813
v 7.923899 3.333795 -29.051311
v 8.612917 3.809994 -27.971813
v 7.779058 4.321219 -29.051311
v 8.424452 4.803895 -27.971813
v 8.877764 5.101482 -27.593685
v 9.109804 3.942962 -27.971813
v 9.109804 3.942962 -27.593689
v 9.109800 2.063745 -27.971806
v 9.109800 2.063746 -27.593685
v 8.774343 2.063746 -27.593685
v 8.774340 1.693318 -27.336811
v 8.612913 1.693318 -27.971813
v 8.774336 -0.000005 -27.336807
v 8.612909 -0.000005 -27.971813
v 8.558710 4.925918 -27.593689
v 9.109804 3.942962 -27.593689
v 8.774343 3.807657 -27.593681
v 9.109800 2.063746 -27.593685
v 8.774343 2.063746 -27.593685
v 2.657923 -0.000005 -27.971813
v 2.496492 -0.000005 -27.336807
v 2.657919 1.693318 -27.971813
v 2.496489 1.693318 -27.336811
v 2.496485 2.063746 -27.593685
v 9.109804 1.693318 -27.336811
v 9.109800 2.063746 -27.593685
v 9.261324 1.693318 -27.971813
v 9.109800 2.063745 -27.971806
v 8.774340 1.693318 -27.336811
v 8.774343 2.063746 -27.593685
v 9.109804 1.693318 -27.336811
v 9.109800 2.063746 -27.593685
v 8.774336 -0.000005 -27.336807
v 8.774340 1.693318 -27.336811
v 9.109804 -0.000005 -27.336803
v 9.109804 1.693318 -27.336811
v 2.161024 1.693318 -27.336811
v 2.009506 1.693318 -27.971813
v 2.161032 2.063746 -27.593685
v 2.161028 2.063745 -27.971806
v 2.496489 1.693318 -27.336811
v 2.161024 1.693318 -27.336811
v 2.496485 2.063746 -27.593685
v 2.161032 2.063746 -27.593685
v 2.496492 -0.000005 -27.336807
v 2.161024 -0.000005 -27.336803
v 2.496489 1.693318 -27.336811
v 2.161024 1.693318 -27.336811
v 8.612913 2.063746 -27.971813
v 7.923899 0.000046 -29.051311
v 7.923899 3.333795 -29.051311
v 9.109804 3.942962 -27.971813
v 8.877764 5.101482 -27.593685
v 8.877764 5.101482 -27.971806
v 9.109804 3.942962 -27.593689
v 8.558710 4.925918 -27.593689
v 8.877764 5.101482 -27.593685
vt 2.392578 0.000977
vt 2.391602 0.334961
vt 2.997070 0.000977
vt 2.391602 0.382812
vt 2.204102 0.360352
vt 2.392578 0.774414
vt 2.201172 0.774414
vt 2.390625 0.988281
vt 2.199219 0.988281
vt 2.199219 0.988281
vt 2.201172 0.774414
vt 2.390625 0.988281
vt 2.392578 0.774414
vt 2.204102 0.360352
vt 2.391602 0.382812
vt 2.391602 0.334961
vt 2.997070 0.000977
vt 2.392578 0.000977
vt -0.999023 -0.540039
vt -0.911133 -0.517578
vt -0.999023 -0.717773
vt -0.999023 -0.778320
vt -0.911133 -0.991211
vt -0.999023 -0.831055
vt -0.999023 -0.991211
vt -0.999023 -0.991211
vt -0.911133 -0.991211
vt -0.999023 -0.831055
vt -0.999023 -0.778320
vt -0.911133 -0.517578
vt -0.999023 -0.717773
vt -0.999023 -0.540039
vt 2.997070 0.000977
vt 2.997070 0.677734
vt 2.391602 0.382812
vt 2.392578 0.774414
vt 2.997070 0.988281
vt 2.390625 0.988281
vt 1.998047 0.988281
vt 1.998047 0.773438
vt 2.098633 0.988281
vt 2.098633 0.774414
vt 1.998047 0.348633
vt 2.098633 0.342773
vt 2.098633 0.988281
vt 2.098633 0.774414
vt 2.199219 0.988281
vt 2.201172 0.774414
vt 2.098633 0.342773
vt 2.204102 0.360352
vt 2.391602 0.382812
vt 2.392578 0.774414
vt 2.997070 0.677734
vt 2.997070 0.988281
vt 2.390625 0.988281
vt 2.098633 0.988281
vt 2.098633 0.774414
vt 1.998047 0.773438
vt 1.998047 0.348633
vt 2.098633 0.342773
vt -0.805664 -0.437500
vt -0.911133 -0.544922
vt -0.805664 -0.500977
vt -0.805664 -0.991211
vt -0.911133 -0.991211
vt 2.199219 0.988281
vt 2.201172 0.774414
vt 2.098633 0.774414
vt 2.098633 0.342773
vt 2.204102 0.360352
vt -0.911133 -0.991211
vt -0.911133 -0.544922
vt -0.805664 -0.991211
vt -0.805664 -0.500977
vt -0.805664 -0.437500
vt -0.911133 -0.517578
vt -0.999023 -0.540039
vt -0.893555 -0.456055
vt -0.999023 -0.449219
vt -0.805664 -0.500977
vt -0.911133 -0.517578
vt -0.805664 -0.437500
vt -0.893555 -0.456055
vt -0.805664 -0.991211
vt -0.911133 -0.991211
vt -0.805664 -0.500977
vt -0.911133 -0.517578
vt -0.911133 -0.517578
vt -0.893555 -0.456055
vt -0.999023 -0.540039
vt -0.999023 -0.449219
vt -0.805664 -0.500977
vt -0.805664 -0.437500
vt -0.911133 -0.517578
vt -0.893555 -0.456055
vt -0.805664 -0.991211
vt -0.805664 -0.500977
vt -0.911133 -0.991211
vt -0.911133 -0.517578
vt 2.391602 0.382812
vt 2.997070 0.677734
vt 2.997070 0.000977
vt 1.998047 0.773438
vt 1.998047 0.988281
vt 2.098633 0.988281
vt 2.098633 0.774414
vt 2.098633 0.988281
vt 2.199219 0.988281
vn -0.8429 0.0000 0.5380
vn -0.7995 -0.0559 0.5980
vn -0.7812 -0.0640 0.6210
vn -0.9362 0.0532 0.3475
vn -0.9197 0.0000 0.3926
vn -0.9188 -0.0429 0.3923
vn -0.9079 -0.0860 0.4102
vn -0.9495 -0.0009 0.3137
vn -0.8823 0.0203 0.4703
vn -0.8714 -0.1652 0.4620
vn -0.9283 -0.2080 0.3083
vn -0.9040 -0.1714 0.3916
vn -0.9368 -0.0995 0.3353
vn -0.9086 -0.1752 0.3791
vn -0.9082 -0.1767 0.3795
vn 0.9086 -0.1752 0.3791
vn 0.9368 -0.0995 0.3353
vn 0.9082 -0.1767 0.3795
vn 0.9040 -0.1714 0.3916
vn 0.9283 -0.2080 0.3083
vn 0.8714 -0.1652 0.4620
vn 0.9495 -0.0008 0.3137
vn 0.9197 -0.0000 0.3926
vn 0.8823 0.0203 0.4703
vn 0.9081 -0.0862 0.4097
vn 0.9194 0.0246 0.3925
vn 0.9460 0.0963 0.3095
vn 0.9194 -0.0246 0.3925
vn 0.7709 -0.0735 0.6326
vn 0.8573 0.0209 0.5145
vn 0.8429 0.0000 0.5380
vn 0.8276 -0.0208 0.5609
vn 0.9727 0.0000 0.2321
vn -0.9727 -0.0000 0.2321
vn 0.8303 -0.0465 0.5554
vn 0.8224 0.0364 0.5677
vn 0.8865 -0.0092 0.4627
vn 0.7669 -0.1125 0.6319
vn 0.8036 -0.1179 0.5834
vn 0.8214 -0.1534 0.5494
vn 0.8545 -0.1278 0.5035
vn 0.8082 -0.1761 0.5619
vn 0.8160 -0.1547 0.5570
vn -0.9805 0.1964 0.0000
vn -0.9942 0.1033 -0.0301
vn -0.9698 0.2249 -0.0940
vn -0.9764 0.1955 0.0920
vn -0.9951 -0.0000 -0.0987
vn -1.0000 -0.0000 0.0000
vn -0.9944 -0.0208 0.1032
vn 0.0000 -0.0000 1.0000
vn -0.8865 -0.0092 0.4627
vn -0.8153 0.0482 0.5770
vn -0.7772 -0.1140 0.6189
vn -0.8214 -0.1534 0.5494
vn -0.8036 -0.1179 0.5834
vn -0.8545 -0.1278 0.5035
vn -0.8160 -0.1547 0.5570
vn -0.8082 -0.1761 0.5619
vn 0.9805 0.1964 0.0000
vn 0.9757 0.1954 0.0987
vn 0.9681 0.2279 -0.1043
vn 0.9961 -0.0000 -0.0879
vn 0.9951 -0.0195 0.0967
vn 1.0000 -0.0000 0.0000
vn 0.9951 0.0968 0.0194
vn -0.9553 0.1684 0.2429
vn -0.9545 0.2502 0.1624
vn -0.9195 0.2240 0.3231
vn -0.9511 -0.0000 0.3090
vn -0.9802 -0.0196 0.1968
vn -0.9692 0.0000 0.2464
vn -0.9726 0.0508 0.2270
vn 0.9692 0.0000 0.2464
vn 0.9726 0.0508 0.2270
vn 0.9802 -0.0196 0.1968
vn 0.9511 -0.0000 0.3090
vn 0.9545 0.2502 0.1624
vn 0.9553 0.1684 0.2429
vn 0.9195 0.2240 0.3231
vn 0.9603 0.1589 0.2291
vn 0.9727 -0.0016 0.2321
vn 0.9212 0.2218 0.3198
vn 0.8299 0.5580 0.0000
vn 0.9138 0.3738 -0.1589
vn 0.9256 0.3786 -0.0000
vn 0.0000 0.5698 0.8218
vn -0.9603 0.1589 0.2291
vn -0.9212 0.2218 0.3198
vn -0.9727 -0.0015 0.2321
vn -0.9138 0.3738 -0.1589
vn -0.8299 0.5579 0.0000
vn -0.9256 0.3786 0.0000
usemtl Tex_0054_0.dds.002
s off
f 1/1/1 3/2/2 2/3/1
f 2/3/1 3/2/1 4/4/3
f 3/2/4 5/5/5 4/4/6
f 4/4/5 5/5/5 6/6/7
f 5/5/5 7/7/8 6/6/9
f 6/6/10 7/7/11 8/8/12
f 7/7/13 9/9/14 8/8/15
f 10/10/16 12/11/17 11/12/18
f 11/12/19 12/11/20 13/13/21
f 12/11/22 14/14/23 13/13/24
f 13/13/25 14/14/23 15/15/26
f 14/14/23 16/16/27 15/15/28
f 15/15/29 16/16/30 17/17/31
f 16/16/32 18/18/31 17/17/31
f 19/19/33 21/20/33 20/21/33
f 20/21/33 21/20/33 22/22/33
f 21/20/33 23/23/33 22/22/33
f 22/22/33 23/23/33 24/24/33
f 23/23/33 25/25/33 24/24/33
f 26/26/34 28/27/34 27/28/34
f 27/28/34 28/27/34 29/29/34
f 28/27/34 30/30/34 29/29/34
f 29/29/34 30/30/34 31/31/34
f 30/30/34 32/32/34 31/31/34
f 33/33/31 35/34/35 34/35/31
f 34/35/31 35/34/36 36/36/37
f 35/34/38 37/37/39 36/36/40
f 36/36/41 37/37/42 38/38/43
f 39/39/44 41/40/45 40/41/44
f 40/41/44 41/40/46 42/42/47
f 41/40/48 43/43/49 42/42/50
f 42/42/49 43/43/49 44/44/49
f 45/45/51 47/46/51 46/47/51
f 46/47/51 47/46/51 48/48/51
f 47/46/51 49/49/51 48/48/51
f 48/48/51 49/49/51 50/50/51
f 51/51/1 53/52/52 52/53/53
f 52/53/54 53/52/55 54/54/56
f 53/52/57 55/55/58 54/54/59
f 56/56/60 58/57/61 57/58/62
f 57/58/63 58/57/64 59/59/65
f 58/57/66 60/60/65 59/59/65
f 61/61/67 63/62/68 62/63/69
f 62/63/70 63/62/71 64/64/72
f 63/62/73 65/65/72 64/64/72
f 66/66/51 68/67/51 67/68/51
f 67/68/51 68/67/51 69/69/51
f 68/67/51 70/70/51 69/69/51
f 71/71/74 73/72/75 72/73/74
f 72/73/74 73/72/76 74/74/77
f 73/72/78 75/75/79 74/74/80
f 76/76/81 78/77/82 77/78/83
f 77/78/84 78/77/85 79/79/86
f 80/80/87 82/81/87 81/82/87
f 81/82/87 82/81/87 83/83/87
f 84/84/51 86/85/51 85/86/51
f 85/86/51 86/85/51 87/87/51
f 88/88/88 90/89/89 89/90/90
f 89/90/91 90/89/92 91/91/93
f 92/92/87 94/93/87 93/94/87
f 93/94/87 94/93/87 95/95/87
f 96/96/51 98/97/51 97/98/51
f 97/98/51 98/97/51 99/99/51
f 100/100/1 102/101/1 101/102/1
f 103/103/60 105/104/60 104/105/60
f 106/106/51 108/107/51 107/108/51
