# Blender v3.6.3 OBJ File: 'untitled.blend'
# www.blender.org
mtllib Mesh_0161.mtl
o Mesh_0161_Mesh.136
v -7.064585 9.677490 19.910751
v -7.064585 9.114779 19.061806
v -7.064585 9.114780 22.782310
v -7.064585 8.340079 18.419792
v -7.064585 8.340079 23.424324
v -7.064585 7.354356 18.055962
v -7.064585 7.354356 23.788155
v -7.064585 2.063740 18.055962
v -7.064585 2.063740 23.788155
v -7.064585 9.677492 -27.079250
v -7.064585 9.114780 -27.928192
v -7.064585 9.114779 -24.207680
v -7.064585 8.340080 -28.570202
v -7.064585 8.340080 -23.565674
v -7.064585 7.354356 -28.934036
v -7.064585 7.354356 -23.201847
v -7.064585 2.063740 -28.934036
v -7.064585 2.063740 -23.201847
v -7.064590 5.977676 15.604179
v -7.064585 5.101478 15.910538
v -7.064585 7.354356 17.504509
v -7.064590 3.942959 16.142578
v -7.064585 2.063741 16.676964
v -7.064587 2.063741 16.142578
v -7.064579 1.862653 16.548538
v -7.064585 1.693314 16.420097
v -7.064585 7.354356 17.504509
v -7.064585 8.340079 17.209290
v -7.064585 6.835511 14.992905
v -7.064585 9.114780 16.695862
v -7.064587 7.675564 14.019241
v -7.064585 9.677491 16.016945
v -7.064585 9.114779 13.720512
v -7.064585 9.677491 14.410301
v -7.064590 5.977677 -14.875824
v -7.064585 5.101478 -14.569458
v -7.064585 7.354356 -12.975487
v -7.064590 3.942959 -14.337418
v -7.064585 2.063741 -13.803036
v -7.064587 2.063742 -14.337418
v -7.064579 1.862653 -13.931469
v -7.064585 1.693314 -14.059898
v -7.064585 7.354356 -12.975487
v -7.064585 8.340079 -13.270706
v -7.064585 6.835511 -15.487099
v -7.064585 9.114780 -13.784130
v -7.064587 7.675565 -16.460754
v -7.064585 9.677492 -14.463055
v -7.064585 9.114780 -16.759483
v -7.064585 9.677492 -16.069698
v -7.064585 5.101479 9.425850
v -7.064585 7.354356 7.831871
v -7.064590 3.942959 9.193810
v -7.064585 2.063741 8.659424
v -7.064587 2.063741 9.193810
v -7.064579 1.862653 8.787849
v -7.064585 1.693314 8.916290
v -7.064585 8.340080 8.127090
v -7.064585 6.835511 10.343483
v -7.064585 9.114780 8.640526
v -7.064587 7.675564 11.317146
v -7.064585 9.677491 9.319443
v -7.064585 9.114779 11.615868
v -7.064585 9.677491 10.926086
v -7.064585 5.101479 -21.054150
v -7.064585 7.354356 -22.648129
v -7.064590 3.942959 -21.286190
v -7.064585 2.063741 -21.820576
v -7.064587 2.063742 -21.286186
v -7.064579 1.862654 -21.692142
v -7.064585 1.693314 -21.563709
v -7.064585 8.340080 -22.352905
v -7.064585 6.835511 -20.136517
v -7.064585 9.114780 -21.839478
v -7.064587 7.675565 -19.162861
v -7.064585 9.677492 -21.160557
v -7.064585 9.114779 -18.864128
v -7.064585 9.677492 -19.553917
v -7.064587 0.987763 16.294106
v -7.064583 1.128873 16.548515
v -7.064590 1.693314 16.294106
v -7.064585 1.552202 16.548523
v -7.064585 1.693314 16.420097
v -7.064585 5.101479 9.425850
v -7.064590 5.977676 9.732208
v -7.064585 7.354356 7.831871
v -7.064585 6.835511 10.343483
v -7.064585 8.340080 8.127090
v -7.064585 1.693314 8.916290
v -7.064585 1.552202 8.787857
v -7.064590 1.693314 9.042282
v -7.064583 1.128873 8.787865
v -7.064587 0.987763 9.042282
v -7.064585 5.101479 -21.054150
v -7.064590 5.977676 -20.747787
v -7.064585 7.354356 -22.648129
v -7.064585 6.835511 -20.136517
v -7.064585 8.340080 -22.352905
v -7.064585 1.693314 -21.563709
v -7.064585 1.552202 -21.692139
v -7.064590 1.693314 -21.437717
v -7.064583 1.128873 -21.692135
v -7.064587 0.987763 -21.437714
v -7.064587 0.987763 -14.185894
v -7.064583 1.128873 -13.931480
v -7.064590 1.693314 -14.185894
v -7.064585 1.552202 -13.931473
v -7.064585 1.693314 -14.059898
v -5.665096 9.104087 3.357796
v -4.464565 8.429210 2.776039
v -5.661007 2.063740 3.350990
v -4.470430 2.063740 2.774406
v -4.464565 8.429210 2.776039
v -3.546583 7.955396 2.666252
v -4.470430 2.063740 2.774406
v -3.548668 2.063740 2.665466
v -3.014833 7.685141 2.653763
v 1.532047 5.395153 2.943954
v -3.010975 2.063740 2.656044
v 1.532047 2.063740 2.943954
v 2.044491 5.136149 2.995872
v 6.597464 2.878216 3.704132
v 2.044491 2.063740 2.994911
v 6.597464 2.063740 3.704132
v -7.064585 9.114779 13.720512
v -7.064585 8.340079 13.207108
v -7.064587 7.675564 14.019241
v -7.064590 8.188899 13.169403
v -7.064585 9.114779 11.615868
v -7.064587 7.675564 11.317146
v -7.064585 8.340079 12.129272
v -7.064590 8.188899 12.166977
v -7.064585 9.114780 22.782310
v -7.064585 9.677491 21.933357
v -7.064585 9.677490 19.910751
v -7.064585 10.067330 20.922050
v -7.064585 9.114779 -24.207680
v -7.064585 9.677491 -25.056641
v -7.064585 9.677492 -27.079250
v -7.064585 10.067331 -26.067947
v -7.064585 9.114779 -18.864128
v -7.064587 7.675565 -19.162861
v -7.064585 8.340079 -18.350719
v -7.064590 8.188899 -18.313023
v -7.064585 9.114780 -16.759483
v -7.064585 8.340080 -17.272892
v -7.064587 7.675565 -16.460754
v -7.064590 8.188900 -17.310589
v -5.665096 9.104087 -8.501408
v -5.661007 2.063740 -8.494602
v -4.464565 8.429210 -7.919647
v -4.470430 2.063740 -7.918022
v -4.464565 8.429210 -7.919647
v -4.470430 2.063740 -7.918022
v -3.546583 7.955396 -7.809868
v -3.548668 2.063740 -7.809078
v -3.014833 7.685141 -7.797371
v -3.010975 2.063740 -7.799664
v 1.532047 5.395153 -8.087566
v 1.532047 2.063740 -8.087566
v 2.044491 5.136149 -8.139484
v 2.044491 2.063740 -8.138527
v 6.597464 2.878217 -8.847740
v 6.597464 2.063740 -8.847740
v -6.307209 2.063740 4.186676
v -6.393898 9.694993 4.116241
v -5.665096 9.104087 3.357796
v -5.665096 9.104087 3.357796
v -5.661007 2.063740 3.350990
v -6.307209 2.063740 4.186676
v -6.917850 10.159989 5.304680
v -6.962858 2.063740 7.274170
v -6.962858 10.159989 7.281845
v -6.917850 10.159989 5.304680
v -7.012592 2.063740 6.315346
v -6.962858 2.063740 7.274170
v -6.917850 10.159989 5.304680
v -6.917850 2.063740 5.412628
v -7.012592 2.063740 6.315346
v -7.064585 7.354356 17.504509
v -7.064585 2.063741 16.676964
v -7.064585 2.063741 17.504509
v -7.064585 7.354356 17.504509
v -7.064585 6.835511 14.992905
v -7.064590 5.977676 15.604179
v -7.064585 9.677491 16.016945
v -7.064585 10.067331 15.208191
v -7.064585 9.677491 14.410301
v -7.064585 1.693314 16.420097
v -7.064587 2.063741 16.142578
v -7.064590 1.693314 16.294106
v -7.064585 2.063741 8.659424
v -7.064585 7.354356 7.831871
v -7.064585 2.063741 7.831871
v -7.064585 10.067331 10.128189
v -7.064585 9.677491 9.319443
v -7.064585 9.677491 10.926086
v -7.064587 2.063741 9.193810
v -7.064585 1.693314 8.916290
v -7.064590 1.693314 9.042282
v -7.064585 2.063741 -21.820576
v -7.064585 7.354356 -22.648129
v -7.064585 2.063741 -22.648129
v -7.064585 10.067331 -20.351807
v -7.064585 9.677492 -21.160557
v -7.064585 9.677492 -19.553917
v -7.064587 2.063742 -21.286186
v -7.064585 1.693314 -21.563709
v -7.064590 1.693314 -21.437717
v -7.064585 7.354356 -12.975487
v -7.064585 2.063741 -13.803036
v -7.064585 2.063741 -12.975487
v -7.064585 7.354356 -12.975487
v -7.064585 6.835511 -15.487099
v -7.064590 5.977677 -14.875824
v -7.064585 9.677492 -14.463055
v -7.064585 10.067331 -15.271805
v -7.064585 9.677492 -16.069698
v -7.064585 1.693314 -14.059898
v -7.064587 2.063742 -14.337418
v -7.064590 1.693314 -14.185894
v -6.393898 9.694993 -9.259857
v -6.307209 2.063740 -9.330288
v -5.665096 9.104087 -8.501408
v -5.661007 2.063740 -8.494602
v -5.665096 9.104087 -8.501408
v -6.307209 2.063740 -9.330288
v -6.962858 2.063740 -12.417786
v -6.917850 10.159990 -10.448296
v -6.962858 10.159989 -12.425453
v -7.012592 2.063740 -11.458961
v -6.917850 10.159990 -10.448296
v -6.962858 2.063740 -12.417786
v -6.917850 2.063740 -10.556244
v -6.917850 10.159990 -10.448296
v -7.012592 2.063740 -11.458961
vt -0.675781 0.153320
vt -0.134766 0.051758
vt -0.836914 0.051758
vt -0.958008 -0.087891
vt 0.003906 -0.087891
vt -1.028320 -0.265625
vt 0.057617 -0.265625
vt -1.028320 -1.222656
vt 0.046875 -1.222656
vt -0.675781 0.153320
vt -0.134766 0.051758
vt -0.836914 0.051758
vt -0.958008 -0.087891
vt 0.003906 -0.087891
vt -1.028320 -0.265625
vt 0.057617 -0.265625
vt -1.028320 -1.222656
vt 0.046875 -1.222656
vt -2.213867 -0.537109
vt -2.632812 -0.291992
vt -2.287109 -0.695312
vt -2.341797 -0.904297
vt -2.469727 -1.243164
vt -2.341797 -1.243164
vt -2.438477 -1.279297
vt -2.408203 -1.309570
vt -2.632812 -0.291992
vt -2.068359 -0.382812
vt -2.561523 -0.111328
vt -2.457031 0.027344
vt -1.835938 -0.231445
vt -2.312500 0.128906
vt -1.784180 0.027344
vt -1.928711 0.128906
vt -2.213867 -0.537109
vt -2.632812 -0.291992
vt -2.287109 -0.695312
vt -2.341797 -0.904297
vt -2.469727 -1.243164
vt -2.341797 -1.243164
vt -2.438477 -1.279297
vt -2.408203 -1.309570
vt -2.632812 -0.291992
vt -2.068359 -0.382812
vt -2.561523 -0.111328
vt -2.457031 0.027344
vt -1.835938 -0.231445
vt -2.312500 0.128906
vt -1.784180 0.027344
vt -1.928711 0.128906
vt -2.287109 -0.695312
vt -2.341797 -0.904297
vt -2.632812 -0.291992
vt -2.469727 -1.243164
vt -2.341797 -1.243164
vt -2.438477 -1.279297
vt -2.408203 -1.309570
vt -2.561523 -0.111328
vt -2.457031 0.027344
vt -2.068359 -0.382812
vt -1.835938 -0.231445
vt -2.312500 0.128906
vt -1.784180 0.027344
vt -1.928711 0.128906
vt -2.287109 -0.695312
vt -2.341797 -0.904297
vt -2.632812 -0.291992
vt -2.469727 -1.243164
vt -2.341797 -1.243164
vt -2.438477 -1.279297
vt -2.408203 -1.309570
vt -2.561523 -0.111328
vt -2.457031 0.027344
vt -2.068359 -0.382812
vt -1.835938 -0.231445
vt -2.312500 0.128906
vt -1.784180 0.027344
vt -1.928711 0.128906
vt -2.377930 -1.437500
vt -2.377930 -1.309570
vt -2.438477 -1.412109
vt -2.438477 -1.335938
vt -2.408203 -1.309570
vt -2.287109 -0.695312
vt -2.632812 -0.291992
vt -2.213867 -0.537109
vt -2.068359 -0.382812
vt -2.561523 -0.111328
vt -2.408203 -1.309570
vt -2.377930 -1.309570
vt -2.438477 -1.335938
vt -2.438477 -1.412109
vt -2.377930 -1.437500
vt -2.287109 -0.695312
vt -2.632812 -0.291992
vt -2.213867 -0.537109
vt -2.068359 -0.382812
vt -2.561523 -0.111328
vt -2.408203 -1.309570
vt -2.377930 -1.309570
vt -2.438477 -1.335938
vt -2.438477 -1.412109
vt -2.377930 -1.437500
vt -2.377930 -1.437500
vt -2.377930 -1.309570
vt -2.438477 -1.412109
vt -2.438477 -1.335938
vt -2.408203 -1.309570
vt 2.518555 0.769531
vt 2.498047 -0.598633
vt 2.787109 0.640625
vt 2.748047 -0.598633
vt 2.787109 0.640625
vt 2.748047 -0.598633
vt 2.998047 0.559570
vt 2.998047 -0.598633
vt 1.999023 0.502930
vt 1.999023 -0.598633
vt 2.998047 0.073242
vt 2.998047 -0.598633
vt 1.999023 0.000977
vt 1.999023 -0.598633
vt 2.998047 -0.447266
vt 2.998047 -0.598633
vt -1.784180 0.027344
vt -1.835938 -0.231445
vt -1.684570 -0.111328
vt -1.667969 -0.154297
vt -1.784180 0.027344
vt -1.684570 -0.111328
vt -1.835938 -0.231445
vt -1.667969 -0.154297
vt -0.134766 0.051758
vt -0.675781 0.153320
vt -0.307617 0.153320
vt -0.498047 0.223633
vt -0.134766 0.051758
vt -0.675781 0.153320
vt -0.307617 0.153320
vt -0.498047 0.223633
vt -1.784180 0.027344
vt -1.684570 -0.111328
vt -1.835938 -0.231445
vt -1.667969 -0.154297
vt -1.784180 0.027344
vt -1.835938 -0.231445
vt -1.684570 -0.111328
vt -1.667969 -0.154297
vt 2.518555 0.769531
vt 2.787109 0.640625
vt 2.498047 -0.598633
vt 2.748047 -0.598633
vt 2.787109 0.640625
vt 2.998047 0.559570
vt 2.748047 -0.598633
vt 2.998047 -0.598633
vt 1.999023 0.502930
vt 2.998047 0.073242
vt 1.999023 -0.598633
vt 2.998047 -0.598633
vt 1.999023 0.000977
vt 2.998047 -0.447266
vt 1.999023 -0.598633
vt 2.998047 -0.598633
vt 2.248047 -0.598633
vt 2.518555 0.769531
vt 2.248047 0.903320
vt 2.518555 0.769531
vt 2.248047 -0.598633
vt 2.498047 -0.598633
vt 2.998047 0.999023
vt 2.559570 0.999023
vt 2.541992 -0.598633
vt 2.998047 0.999023
vt 2.541992 -0.598633
vt 2.748047 -0.598633
vt 2.998047 0.999023
vt 2.748047 -0.598633
vt 2.998047 -0.598633
vt -2.632812 -0.291992
vt -2.666992 -1.243164
vt -2.469727 -1.243164
vt -2.632812 -0.291992
vt -2.213867 -0.537109
vt -2.068359 -0.382812
vt -2.312500 0.128906
vt -1.928711 0.128906
vt -2.119141 0.199219
vt -2.408203 -1.309570
vt -2.377930 -1.309570
vt -2.341797 -1.243164
vt -2.469727 -1.243164
vt -2.666992 -1.243164
vt -2.632812 -0.291992
vt -2.119141 0.199219
vt -1.928711 0.128906
vt -2.312500 0.128906
vt -2.341797 -1.243164
vt -2.377930 -1.309570
vt -2.408203 -1.309570
vt -2.469727 -1.243164
vt -2.666992 -1.243164
vt -2.632812 -0.291992
vt -2.119141 0.199219
vt -1.928711 0.128906
vt -2.312500 0.128906
vt -2.341797 -1.243164
vt -2.377930 -1.309570
vt -2.408203 -1.309570
vt -2.632812 -0.291992
vt -2.666992 -1.243164
vt -2.469727 -1.243164
vt -2.632812 -0.291992
vt -2.213867 -0.537109
vt -2.068359 -0.382812
vt -2.312500 0.128906
vt -1.928711 0.128906
vt -2.119141 0.199219
vt -2.408203 -1.309570
vt -2.377930 -1.309570
vt -2.341797 -1.243164
vt 2.248047 0.903320
vt 2.518555 0.769531
vt 2.248047 -0.598633
vt 2.498047 -0.598633
vt 2.248047 -0.598633
vt 2.518555 0.769531
vt 2.541992 -0.598633
vt 2.559570 0.999023
vt 2.998047 0.999023
vt 2.748047 -0.598633
vt 2.541992 -0.598633
vt 2.998047 0.999023
vt 2.998047 -0.598633
vt 2.748047 -0.598633
vt 2.998047 0.999023
vn 1.0000 0.0000 0.0000
vn 0.4358 -0.0006 0.9000
vn 0.4359 -0.0006 0.9000
vn 0.1186 -0.0004 0.9929
vn 0.1196 -0.0004 0.9928
vn 0.1164 -0.0002 0.9932
vn 0.1174 -0.0002 0.9931
vn -0.0635 0.0004 0.9980
vn -0.0632 0.0000 0.9980
vn -0.1539 -0.0003 0.9881
vn -0.1539 0.0000 0.9881
vn 0.4358 -0.0006 -0.9000
vn 0.4359 -0.0006 -0.9000
vn 0.1186 -0.0004 -0.9929
vn 0.1196 -0.0004 -0.9928
vn 0.1174 -0.0002 -0.9931
vn 0.1163 -0.0002 -0.9932
vn -0.0635 0.0004 -0.9980
vn -0.0638 0.0004 -0.9980
vn -0.0632 -0.0003 -0.9980
vn -0.0632 0.0000 -0.9980
vn -0.1539 -0.0003 -0.9881
vn -0.1540 -0.0006 -0.9881
vn -0.1539 0.0000 -0.9881
vn 0.7266 0.0146 0.6869
vn 0.7911 -0.0001 0.6117
vn 0.9997 -0.0000 0.0228
vn 0.9985 -0.0181 -0.0518
vn 0.9945 0.0014 0.1044
vn 0.7266 0.0146 -0.6869
vn 0.7911 -0.0001 -0.6117
vn 0.9997 -0.0000 -0.0228
vn 0.9985 -0.0181 0.0518
vn 0.9945 0.0014 -0.1044
usemtl Tex_0031_1.dds.006
s off
f 1/1/1 3/2/1 2/3/1
f 2/3/1 3/2/1 4/4/1
f 3/2/1 5/5/1 4/4/1
f 4/4/1 5/5/1 6/6/1
f 5/5/1 7/7/1 6/6/1
f 6/6/1 7/7/1 8/8/1
f 7/7/1 9/9/1 8/8/1
f 10/10/1 12/11/1 11/12/1
f 11/12/1 12/11/1 13/13/1
f 12/11/1 14/14/1 13/13/1
f 13/13/1 14/14/1 15/15/1
f 14/14/1 16/16/1 15/15/1
f 15/15/1 16/16/1 17/17/1
f 16/16/1 18/18/1 17/17/1
f 19/19/1 21/20/1 20/21/1
f 20/21/1 21/20/1 22/22/1
f 21/20/1 23/23/1 22/22/1
f 22/22/1 23/23/1 24/24/1
f 23/23/1 25/25/1 24/24/1
f 24/24/1 25/25/1 26/26/1
f 27/27/1 29/28/1 28/29/1
f 28/29/1 29/28/1 30/30/1
f 29/28/1 31/31/1 30/30/1
f 30/30/1 31/31/1 32/32/1
f 31/31/1 33/33/1 32/32/1
f 32/32/1 33/33/1 34/34/1
f 35/35/1 37/36/1 36/37/1
f 36/37/1 37/36/1 38/38/1
f 37/36/1 39/39/1 38/38/1
f 38/38/1 39/39/1 40/40/1
f 39/39/1 41/41/1 40/40/1
f 40/40/1 41/41/1 42/42/1
f 43/43/1 45/44/1 44/45/1
f 44/45/1 45/44/1 46/46/1
f 45/44/1 47/47/1 46/46/1
f 46/46/1 47/47/1 48/48/1
f 47/47/1 49/49/1 48/48/1
f 48/48/1 49/49/1 50/50/1
f 51/51/1 53/52/1 52/53/1
f 52/53/1 53/52/1 54/54/1
f 53/52/1 55/55/1 54/54/1
f 54/54/1 55/55/1 56/56/1
f 55/55/1 57/57/1 56/56/1
f 58/58/1 60/59/1 59/60/1
f 59/60/1 60/59/1 61/61/1
f 60/59/1 62/62/1 61/61/1
f 61/61/1 62/62/1 63/63/1
f 62/62/1 64/64/1 63/63/1
f 65/65/1 67/66/1 66/67/1
f 66/67/1 67/66/1 68/68/1
f 67/66/1 69/69/1 68/68/1
f 68/68/1 69/69/1 70/70/1
f 69/69/1 71/71/1 70/70/1
f 72/72/1 74/73/1 73/74/1
f 73/74/1 74/73/1 75/75/1
f 74/73/1 76/76/1 75/75/1
f 75/75/1 76/76/1 77/77/1
f 76/76/1 78/78/1 77/77/1
f 79/79/1 81/80/1 80/81/1
f 80/81/1 81/80/1 82/82/1
f 81/80/1 83/83/1 82/82/1
f 84/84/1 86/85/1 85/86/1
f 85/86/1 86/85/1 87/87/1
f 86/85/1 88/88/1 87/87/1
f 89/89/1 91/90/1 90/91/1
f 90/91/1 91/90/1 92/92/1
f 91/90/1 93/93/1 92/92/1
f 94/94/1 96/95/1 95/96/1
f 95/96/1 96/95/1 97/97/1
f 96/95/1 98/98/1 97/97/1
f 99/99/1 101/100/1 100/101/1
f 100/101/1 101/100/1 102/102/1
f 101/100/1 103/103/1 102/102/1
f 104/104/1 106/105/1 105/106/1
f 105/106/1 106/105/1 107/107/1
f 106/105/1 108/108/1 107/107/1
f 109/109/2 111/110/2 110/111/2
f 110/111/3 111/110/3 112/112/3
f 113/113/4 115/114/5 114/115/4
f 114/115/6 115/114/7 116/116/7
f 117/117/8 119/118/8 118/119/8
f 118/119/9 119/118/9 120/120/9
f 121/121/10 123/122/10 122/123/10
f 122/123/11 123/122/11 124/124/11
f 125/125/1 127/126/1 126/127/1
f 126/127/1 127/126/1 128/128/1
f 129/129/1 131/130/1 130/131/1
f 130/131/1 131/130/1 132/132/1
f 133/133/1 135/134/1 134/135/1
f 134/135/1 135/134/1 136/136/1
f 137/137/1 139/138/1 138/139/1
f 138/139/1 139/138/1 140/140/1
f 141/141/1 143/142/1 142/143/1
f 142/143/1 143/142/1 144/144/1
f 145/145/1 147/146/1 146/147/1
f 146/147/1 147/146/1 148/148/1
f 149/149/12 151/150/12 150/151/12
f 150/151/13 151/150/13 152/152/13
f 153/153/14 155/154/14 154/155/15
f 154/155/16 155/154/17 156/156/16
f 157/157/18 159/158/18 158/159/19
f 158/159/20 159/158/21 160/160/21
f 161/161/22 163/162/23 162/163/22
f 162/163/24 163/162/24 164/164/24
f 165/165/25 167/166/25 166/167/25
f 168/168/26 170/169/26 169/170/26
f 171/171/27 173/172/27 172/173/27
f 174/174/28 176/175/28 175/176/28
f 177/177/29 179/178/29 178/179/29
f 180/180/1 182/181/1 181/182/1
f 183/183/1 185/184/1 184/185/1
f 186/186/1 188/187/1 187/188/1
f 189/189/1 191/190/1 190/191/1
f 192/192/1 194/193/1 193/194/1
f 195/195/1 197/196/1 196/197/1
f 198/198/1 200/199/1 199/200/1
f 201/201/1 203/202/1 202/203/1
f 204/204/1 206/205/1 205/206/1
f 207/207/1 209/208/1 208/209/1
f 210/210/1 212/211/1 211/212/1
f 213/213/1 215/214/1 214/215/1
f 216/216/1 218/217/1 217/218/1
f 219/219/1 221/220/1 220/221/1
f 222/222/30 224/223/30 223/224/30
f 225/225/31 227/226/31 226/227/31
f 228/228/32 230/229/32 229/230/32
f 231/231/33 233/232/33 232/233/33
f 234/234/34 236/235/34 235/236/34
