# Blender v3.6.3 OBJ File: 'untitled.blend'
# www.blender.org
mtllib Mesh_0160.mtl
o Mesh_0160_Mesh.027
v -6.924122 10.159990 4.808952
v -6.393898 9.694993 4.116241
v -6.739923 2.063740 4.904884
v -6.307209 2.063740 4.186676
v -6.924122 10.159990 -9.952564
v -6.739923 2.063740 -10.048500
v -6.393898 9.694993 -9.259857
v -6.307209 2.063740 -9.330288
v 8.104013 2.061891 4.017586
v 7.101274 2.063740 3.806053
v 7.101274 2.606766 3.806053
v -7.064585 0.564433 16.294106
v -7.064579 0.705544 16.420097
v -7.064585 0.846653 16.294106
v -7.064579 0.705544 8.916290
v -7.064585 0.564433 9.042282
v -7.064585 0.846653 9.042282
v -7.064579 0.705544 -21.563709
v -7.064585 0.564433 -21.437717
v -7.064585 0.846654 -21.437717
v -7.064585 0.564433 -14.185894
v -7.064579 0.705544 -14.059898
v -7.064585 0.846653 -14.185894
v 7.101274 2.063740 -8.949665
v 8.104013 2.061891 -9.161201
v 7.101274 2.606766 -8.949665
vt 2.999023 0.999023
vt 2.999023 -0.598633
vt 3.248047 0.903320
vt 3.248047 -0.598633
vt 2.999023 0.999023
vt 3.248047 0.903320
vt 2.999023 -0.598633
vt 3.248047 -0.598633
vt 3.216797 -0.598633
vt 2.999023 -0.497070
vt 2.999023 -0.598633
vt -1.377930 -1.553711
vt -1.378906 -1.487305
vt -1.410156 -1.519531
vt -1.410156 -1.519531
vt -1.378906 -1.487305
vt -1.377930 -1.553711
vt -1.410156 -1.519531
vt -1.378906 -1.487305
vt -1.377930 -1.553711
vt -1.377930 -1.553711
vt -1.378906 -1.487305
vt -1.410156 -1.519531
vt 2.999023 -0.598633
vt 2.999023 -0.497070
vt 3.216797 -0.598633
vn 0.8020 0.0253 0.5968
vn 0.8565 0.0145 0.5160
vn 0.8020 0.0253 -0.5968
vn 0.8565 0.0145 -0.5160
vn -0.2064 0.0000 0.9785
vn 1.0000 0.0000 -0.0000
vn -0.2064 0.0000 -0.9785
usemtl Tex_0031_1.dds
s off
f 1/1/1 3/2/1 2/3/1
f 2/3/2 3/2/2 4/4/2
f 5/5/3 7/6/3 6/7/3
f 6/7/4 7/6/4 8/8/4
f 9/9/5 11/10/5 10/11/5
f 12/12/6 14/13/6 13/14/6
f 15/15/6 17/16/6 16/17/6
f 18/18/6 20/19/6 19/20/6
f 21/21/6 23/22/6 22/23/6
f 24/24/7 26/25/7 25/26/7
