# Blender v3.6.3 OBJ File: 'untitled.blend'
# www.blender.org
mtllib Mesh_0358.mtl
o Mesh_0358_Mesh.102
v -9.986153 25.039698 36.364738
v -11.111044 24.679718 39.571365
v -10.483953 24.785759 36.250641
v -11.571171 24.425779 39.348740
v -10.236370 24.531820 36.307686
v -11.342196 24.171534 39.459114
v -10.236528 23.007881 36.307678
v -11.342506 22.647594 39.459114
v -10.605188 22.753788 36.223343
v -11.682793 22.393656 39.294785
v -10.361792 22.499540 36.280396
v -11.457848 22.139717 39.403923
v -11.111044 24.679718 39.571365
v -12.922876 24.319431 42.445595
v -11.571171 24.425779 39.348740
v -13.321688 24.065493 42.126854
v -11.342196 24.171534 39.459114
v -13.123562 23.811554 42.285606
v -11.342506 22.647594 39.459114
v -13.123562 22.287460 42.284988
v -11.682793 22.393656 39.294785
v -13.418736 22.033524 42.048721
v -11.457848 22.139717 39.403923
v -13.222391 21.779741 42.203758
v -9.604607 25.399982 32.988190
v -9.986153 25.039698 36.364738
v -10.115425 25.146000 32.988197
v -10.483953 24.785759 36.250641
v -9.861382 24.892044 32.988197
v -10.236370 24.531820 36.307686
v -9.861439 23.367998 32.988190
v -10.236528 23.007881 36.307678
v -10.239607 23.113951 32.988190
v -10.605188 22.753788 36.223343
v -9.989712 22.859751 32.988190
v -10.361792 22.499540 36.280396
v -15.569845 21.419296 44.542213
v -13.222391 21.779741 42.203758
v -15.725259 21.673235 44.346260
v -13.418736 22.033524 42.048721
v -15.490080 21.927326 44.642670
v -13.123562 22.287460 42.284988
v -15.490080 23.451420 44.642670
v -13.123562 23.811554 42.285606
v -15.648054 23.705360 44.443611
v -13.321688 24.065493 42.126854
v -15.330555 23.959450 44.843590
v -12.922876 24.319431 42.445595
v -18.212166 23.599007 46.644417
v -21.423012 23.238874 47.756279
v -18.432655 23.345070 46.183044
v -21.535019 22.984936 47.258324
v -18.322929 23.091131 46.412491
v -21.479404 22.730999 47.506371
v -18.322929 21.567039 46.412491
v -21.479404 21.206905 47.505753
v -18.485987 21.313101 46.071419
v -21.562189 20.952967 47.136787
v -18.380098 21.058853 46.297768
v -21.507309 20.698875 47.381111
v -21.423012 23.238874 47.756279
v -24.844610 22.859983 48.228188
v -21.535019 22.984936 47.258324
v -24.844610 22.605923 47.717255
v -21.479404 22.730999 47.506371
v -24.844610 22.351967 47.971375
v -21.479404 21.206905 47.505753
v -24.844610 20.827999 47.971397
v -21.562189 20.952967 47.136787
v -24.844610 20.573952 47.593193
v -21.507309 20.698875 47.381111
v -24.844620 20.319983 47.849968
v -15.330555 23.959450 44.843590
v -18.212166 23.599007 46.644417
v -15.648054 23.705360 44.443611
v -18.432655 23.345070 46.183044
v -15.490080 23.451420 44.642670
v -18.322929 23.091131 46.412491
v -15.490080 21.927326 44.642670
v -18.322929 21.567039 46.412491
v -15.725259 21.673235 44.346260
v -18.485987 21.313101 46.071419
v -15.569845 21.419296 44.542213
v -18.380098 21.058853 46.297768
v -9.861422 24.892046 27.910057
v -9.861357 24.892105 22.828201
v -10.115427 25.146002 27.910057
v -10.115372 25.146044 22.828201
v -9.604549 25.399982 22.828194
v -9.861368 23.368015 22.828194
v -9.861553 23.368000 27.910049
v -10.239548 23.113920 22.828194
v -10.239567 23.113953 27.910049
v -9.989693 22.859985 27.910049
v -9.604567 25.399984 27.910049
v -9.604607 25.399982 32.988190
v -10.115427 25.146002 27.910057
v -10.115425 25.146000 32.988197
v -9.861382 24.892044 32.988197
v -9.861439 23.367998 32.988190
v -10.239607 23.113951 32.988190
v -10.239567 23.113953 27.910049
v -9.989712 22.859751 32.988190
v -9.989693 22.859985 27.910049
v -29.924583 22.859983 48.228188
v -35.004585 22.859983 48.228188
v -29.924583 22.605959 47.717323
v -35.004585 22.605959 47.717361
v -35.004585 22.351982 47.971367
v -35.004585 20.827982 47.971260
v -35.004585 20.573982 47.593193
v -29.924583 20.573982 47.593193
v -35.004585 20.319983 47.843071
v -29.924583 20.319983 47.843048
v -24.844610 22.859983 48.228188
v -29.924583 22.859983 48.228188
v -24.844610 22.605923 47.717255
v -29.924583 22.605959 47.717323
v -29.924583 22.351982 47.971329
v -29.924583 20.827982 47.971298
v -29.924583 20.573982 47.593193
v -24.844610 20.573952 47.593193
v -29.924583 20.319983 47.843048
v -24.844620 20.319983 47.849968
v -9.989693 22.859985 27.910049
v -9.604567 22.859985 27.910049
v -9.983294 22.859983 22.828194
v -9.605370 22.859983 22.829018
v -9.989693 22.859985 27.910049
v -9.989712 22.859751 32.988190
v -9.604567 22.859985 27.910049
v -9.604607 22.859751 32.988190
v -29.924583 20.319983 47.843048
v -35.004585 20.319983 47.843071
v -29.924583 20.319983 48.228188
v -35.004585 20.319983 48.228188
v -24.844620 20.319983 47.849968
v -29.924583 20.319983 47.843048
v -24.844610 20.319983 48.228188
v -29.924583 20.319983 48.228188
v -24.844610 20.319983 48.228188
v -21.412319 20.698565 47.886505
v -24.844620 20.319983 47.849968
v -21.507309 20.698875 47.381111
v -10.115427 25.146002 27.910057
v -9.604549 25.399982 22.828194
v -9.604567 25.399984 27.910049
v -9.983294 22.859983 22.828194
v -10.239548 23.113920 22.828194
v -9.989693 22.859985 27.910049
v -9.861382 24.892044 32.988197
v -9.861422 24.892046 27.910057
v -10.115427 25.146002 27.910057
v -10.239567 23.113953 27.910049
v -9.861553 23.368000 27.910049
v -9.861439 23.367998 32.988190
v -35.004585 22.351982 47.971367
v -29.924583 22.351982 47.971329
v -29.924583 22.605959 47.717323
v -29.924583 20.573982 47.593193
v -29.924583 20.827982 47.971298
v -35.004585 20.827982 47.971260
v -29.924583 22.351982 47.971329
v -24.844610 22.351967 47.971375
v -24.844610 22.605923 47.717255
v -24.844610 20.573952 47.593193
v -24.844610 20.827999 47.971397
v -29.924583 20.827982 47.971298
vt -1.915039 0.032227
vt -1.916016 -0.081055
vt -0.915039 0.032227
vt -0.916992 -0.081055
vt -1.916016 -0.177734
vt -0.916992 -0.177734
vt -1.997070 -0.945312
vt -1.997070 -1.071289
vt -0.998047 -0.945312
vt -0.998047 -1.071289
vt -1.997070 -1.184570
vt -0.998047 -1.184570
vt -2.914062 0.032227
vt -2.915039 -0.081055
vt -1.915039 0.032227
vt -1.916016 -0.081055
vt -2.915039 -0.177734
vt -1.916016 -0.177734
vt -2.996094 -0.945312
vt -2.996094 -1.071289
vt -1.997070 -0.945312
vt -1.997070 -1.071289
vt -2.996094 -1.184570
vt -1.997070 -1.184570
vt -2.914062 0.032227
vt -2.915039 -0.081055
vt -1.915039 0.032227
vt -1.916016 -0.081055
vt -2.915039 -0.177734
vt -1.916016 -0.177734
vt -2.996094 -0.945312
vt -2.996094 -1.071289
vt -1.997070 -0.945312
vt -1.997070 -1.071289
vt -2.996094 -1.184570
vt -1.997070 -1.184570
vt -0.998047 -1.184570
vt -0.998047 -1.071289
vt -1.997070 -1.184570
vt -1.997070 -1.071289
vt -0.998047 -0.945312
vt -1.997070 -0.945312
vt -0.916992 -0.177734
vt -0.916992 -0.081055
vt -1.916016 -0.177734
vt -1.916016 -0.081055
vt -0.915039 0.032227
vt -1.915039 0.032227
vt -1.915039 0.032227
vt -1.916016 -0.081055
vt -0.915039 0.032227
vt -0.916992 -0.081055
vt -1.916016 -0.177734
vt -0.916992 -0.177734
vt -1.997070 -0.945312
vt -1.997070 -1.071289
vt -0.998047 -0.945312
vt -0.998047 -1.071289
vt -1.997070 -1.184570
vt -0.998047 -1.184570
vt -2.914062 0.032227
vt -2.915039 -0.081055
vt -1.915039 0.032227
vt -1.916016 -0.081055
vt -2.915039 -0.177734
vt -1.916016 -0.177734
vt -2.996094 -0.945312
vt -2.996094 -1.071289
vt -1.997070 -0.945312
vt -1.997070 -1.071289
vt -2.996094 -1.184570
vt -1.997070 -1.184570
vt -2.914062 0.032227
vt -2.915039 -0.081055
vt -1.915039 0.032227
vt -1.916016 -0.081055
vt -2.915039 -0.177734
vt -1.916016 -0.177734
vt -2.996094 -0.945312
vt -2.996094 -1.071289
vt -1.997070 -0.945312
vt -1.997070 -1.071289
vt -2.996094 -1.184570
vt -1.997070 -1.184570
vt -1.997070 -0.177734
vt -1.997070 -0.081055
vt -2.947266 -0.177734
vt -2.904297 -0.081055
vt -2.996094 0.032227
vt -2.947266 -0.945312
vt -2.884766 -1.071289
vt -1.997070 -0.945312
vt -1.997070 -1.071289
vt -1.997070 -1.184570
vt -2.914062 0.032227
vt -2.915039 -0.081055
vt -0.915039 0.032227
vt -0.916992 -0.081055
vt -0.916992 -0.177734
vt -0.998047 -0.945312
vt -2.996094 -1.071289
vt -0.998047 -1.071289
vt -0.998047 -1.184570
vt -2.996094 -1.184570
vt -2.914062 0.032227
vt -2.915039 -0.081055
vt -0.915039 0.032227
vt -0.916992 -0.081055
vt -0.916992 -0.177734
vt -0.998047 -0.945312
vt -2.996094 -1.071289
vt -0.998047 -1.071289
vt -0.998047 -1.184570
vt -2.996094 -1.184570
vt -2.914062 0.032227
vt -2.915039 -0.081055
vt -0.915039 0.032227
vt -0.916992 -0.081055
vt -0.916992 -0.177734
vt -0.998047 -0.945312
vt -2.996094 -1.071289
vt -0.998047 -1.071289
vt -0.998047 -1.184570
vt -2.996094 -1.184570
vt 3.029297 -1.085938
vt 2.099609 -1.087891
vt 3.029297 -1.135742
vt 2.030273 -1.136719
vt 2.030273 -1.087891
vt 2.030273 -1.137695
vt 3.029297 -1.085938
vt 3.029297 -1.135742
vt 2.030273 -1.087891
vt 2.030273 -1.137695
vt 3.029297 -1.085938
vt 3.029297 -1.135742
vt 2.030273 -1.087891
vt 2.030273 -1.137695
vt 3.029297 -1.085938
vt 3.029297 -1.135742
vt 2.530273 -1.136719
vt 2.530273 -1.086914
vt 2.030273 -1.137695
vt 2.030273 -1.087891
vt -1.997070 -0.081055
vt -1.997070 0.032227
vt -2.996094 0.032227
vt -2.926758 -1.184570
vt -1.997070 -1.184570
vt -2.884766 -1.071289
vt -0.916992 -0.177734
vt -2.915039 -0.081055
vt -2.915039 -0.177734
vt -2.996094 -1.071289
vt -0.998047 -0.945312
vt -2.996094 -0.945312
vt -0.916992 -0.177734
vt -2.915039 -0.081055
vt -2.915039 -0.177734
vt -2.996094 -1.071289
vt -0.998047 -0.945312
vt -2.996094 -0.945312
vt -0.916992 -0.177734
vt -2.915039 -0.081055
vt -2.915039 -0.177734
vt -2.996094 -1.071289
vt -0.998047 -0.945312
vt -2.996094 -0.945312
vn -0.4436 0.8945 -0.0552
vn -0.2119 0.4848 -0.8485
vn -0.4604 0.8857 -0.0587
vn -0.4835 0.8753 0.0010
vn -0.1178 -0.3220 -0.9394
vn -0.6458 -0.6987 -0.3078
vn 0.7860 -0.5250 0.3266
vn -0.6382 -0.7070 -0.3048
vn -0.5495 0.8297 -0.0980
vn -0.3043 0.5251 -0.7948
vn -0.5375 0.8381 -0.0928
vn -0.5636 0.8200 -0.1001
vn 0.1841 0.9803 0.0723
vn -0.5855 0.8097 -0.0387
vn -0.1198 -0.3228 -0.9388
vn -0.6512 -0.6929 -0.3097
vn 0.7082 -0.6448 0.2877
vn -0.6433 -0.7016 -0.3065
vn -0.4199 0.8946 -0.1526
vn -0.0520 0.5371 -0.8419
vn -0.4068 0.9022 -0.1434
vn -0.4373 0.8853 -0.1582
vn 0.3349 0.9259 0.1751
vn -0.7135 0.3762 0.5911
vn 0.1471 -0.2760 -0.9498
vn -0.5608 -0.6982 -0.4450
vn 0.0923 -0.9953 0.0303
vn -0.8767 -0.3763 0.2996
vn -0.5468 -0.7150 -0.4357
vn -0.5542 -0.7070 -0.4393
vn -0.5138 0.8297 -0.2181
vn -0.1188 0.5244 -0.8432
vn -0.5035 0.8379 -0.2106
vn -0.5269 0.8201 -0.2232
vn 0.1647 0.9799 0.1122
vn -0.5619 0.8099 -0.1684
vn 0.0909 -0.3221 -0.9423
vn -0.5655 -0.6931 -0.4471
vn 0.6265 -0.6442 0.4387
vn -0.5583 -0.7020 -0.4421
vn -0.4448 0.8945 0.0452
vn -0.4136 0.5371 -0.7351
vn -0.4292 0.9020 0.0477
vn -0.4625 0.8853 0.0477
vn 0.3775 0.9259 0.0121
vn -0.3861 0.3758 0.8424
vn -0.2797 -0.2761 -0.9195
vn -0.6983 -0.6985 -0.1567
vn 0.0969 -0.9952 -0.0128
vn -0.6593 -0.3761 0.6511
vn -0.6816 -0.7152 -0.1546
vn -0.6898 -0.7073 -0.1547
vn -0.5574 0.8298 0.0270
vn -0.4735 0.5243 -0.7077
vn -0.5447 0.8381 0.0294
vn -0.5716 0.8200 0.0282
vn 0.1968 0.9800 0.0294
vn -0.4548 0.3928 0.7993
vn -0.3296 -0.3216 -0.8876
vn -0.7042 -0.6923 -0.1576
vn 0.0183 -0.9994 -0.0282
vn -0.6877 -0.4121 0.5977
vn -0.6879 -0.7090 -0.1553
vn -0.6959 -0.7011 -0.1554
vn -0.4459 -0.7017 -0.5557
vn -0.9097 -0.4134 0.0402
vn -0.4395 -0.7098 -0.5506
vn -0.4511 -0.6928 -0.5627
vn 0.0335 -0.9994 -0.0090
vn 0.2942 -0.3200 -0.9006
vn -0.8545 0.3932 0.3394
vn -0.4639 0.8201 -0.3350
vn 0.1371 0.9795 0.1474
vn 0.0739 0.5231 -0.8491
vn -0.4436 0.8382 -0.3173
vn -0.4521 0.8298 -0.3271
vn -0.4419 -0.7074 -0.5517
vn -0.9213 -0.3766 0.0971
vn -0.4353 -0.7155 -0.5464
vn -0.4473 -0.6983 -0.5588
vn 0.0834 -0.9952 0.0504
vn -0.3711 -0.6829 -0.6292
vn -0.8277 0.3762 0.4164
vn -0.3894 0.8855 -0.2534
vn 0.7675 0.2768 0.5782
vn -0.3755 0.8945 -0.2428
vn -0.2324 0.8947 -0.3814
vn 0.4855 0.5369 -0.6900
vn -0.2279 0.9024 -0.3658
vn -0.2427 0.8852 -0.3968
vn 0.1521 0.9260 0.3456
vn -0.9265 0.3760 0.0155
vn 0.7091 -0.2760 -0.6488
vn -0.1596 -0.6989 -0.6972
vn 0.0536 -0.9951 0.0829
vn -0.8718 -0.3765 -0.3133
vn -0.1546 -0.7152 -0.6816
vn -0.1580 -0.7075 -0.6889
vn -0.2648 0.8298 -0.4912
vn 0.4329 0.5256 -0.7324
vn -0.2614 0.8381 -0.4788
vn -0.2719 0.8201 -0.5035
vn 0.0577 0.9803 0.1889
vn -0.9171 0.3932 -0.0662
vn 0.6621 -0.3235 -0.6760
vn -0.1614 -0.6929 -0.7028
vn 0.0340 -0.9994 0.0068
vn -0.8367 -0.4135 -0.3592
vn -0.1561 -0.7101 -0.6866
vn -0.1597 -0.7019 -0.6941
vn -0.1569 0.8936 -0.4204
vn 0.6165 0.5480 -0.5654
vn -0.1554 0.9020 -0.4027
vn -0.1645 0.8832 -0.4392
vn 0.0749 0.9280 0.3650
vn -0.9124 0.3662 -0.1830
vn 0.8271 -0.2868 -0.4834
vn -0.0181 -0.7007 -0.7133
vn 0.0421 -0.9945 0.0959
vn -0.7907 -0.3698 -0.4879
vn -0.0165 -0.7132 -0.7008
vn -0.0180 -0.7072 -0.7068
vn -0.1672 0.8293 -0.5332
vn 0.5733 0.5362 -0.6195
vn -0.1661 0.8392 -0.5178
vn -0.1725 0.8177 -0.5492
vn 0.0139 0.9810 0.1935
vn -0.8908 0.3762 -0.2549
vn 0.7846 -0.3315 -0.5239
vn -0.0183 -0.6951 -0.7187
vn 0.0362 -0.9993 0.0110
vn -0.7502 -0.4109 -0.5180
vn -0.0144 -0.7251 -0.6885
vn -0.0181 -0.7109 -0.7031
vn -0.3121 0.8944 -0.3204
vn 0.3184 0.5371 -0.7811
vn -0.3047 0.9015 -0.3072
vn -0.3246 0.8856 -0.3323
vn 0.2260 0.9255 0.3041
vn -0.8997 0.3759 0.2217
vn 0.5464 -0.2762 -0.7907
vn -0.3111 -0.6986 -0.6443
vn 0.0706 -0.9951 0.0686
vn -0.9199 -0.3764 -0.1102
vn -0.3022 -0.7158 -0.6295
vn -0.3074 -0.7076 -0.6362
vn -0.3677 0.8299 -0.4196
vn 0.2604 0.5242 -0.8108
vn -0.3616 0.8383 -0.4081
vn -0.3775 0.8201 -0.4301
vn 0.0996 0.9799 0.1728
vn -0.9089 0.3924 0.1413
vn 0.4910 -0.3217 -0.8096
vn -0.3143 -0.6930 -0.6488
vn 0.0343 -0.9994 -0.0021
vn -0.8957 -0.4113 -0.1688
vn -0.3065 -0.7081 -0.6361
vn -0.3110 -0.7009 -0.6418
vn -0.7070 -0.7072 -0.0000
vn -0.7088 -0.7021 0.0686
vn -0.6567 -0.7541 0.0048
vn -0.4127 -0.4128 -0.8120
vn 0.9734 0.2019 0.1079
vn -0.4451 0.8955 0.0000
vn -0.2598 0.5227 -0.8120
vn -0.5577 0.8300 -0.0000
vn -0.5604 0.8270 -0.0440
vn -0.5578 0.8300 -0.0000
vn -0.5209 0.8536 -0.0039
vn -0.3562 0.5300 0.7696
vn 0.7932 -0.6051 -0.0692
vn -0.7128 -0.7013 0.0000
vn -0.4552 -0.4479 0.7696
vn -0.4452 0.8954 -0.0000
vn -0.4494 0.8922 -0.0462
vn -0.2599 0.5227 0.8119
vn 0.8722 -0.4844 -0.0679
vn -0.4126 -0.4128 0.8120
vn -0.5576 0.8301 -0.0000
vn 0.8917 0.4439 -0.0886
vn -0.3561 0.5302 0.7695
vn -0.4554 -0.4478 0.7695
vn -0.6728 -0.7398 -0.0040
vn -0.7131 -0.7010 -0.0000
vn -0.7145 -0.6974 -0.0564
vn -0.7125 -0.7017 -0.0000
vn 0.0000 0.8954 -0.4452
vn 0.0429 0.8924 -0.4491
vn -0.0000 0.8954 -0.4453
vn 0.0048 0.9136 -0.4065
vn -0.8119 0.5227 -0.2599
vn 0.0678 -0.4817 0.8737
vn -0.0000 -0.7071 -0.7071
vn -0.8119 -0.4129 -0.4127
vn 0.0000 0.8301 -0.5577
vn 0.0886 0.4439 0.8917
vn -0.7696 0.5300 -0.3560
vn -0.7696 -0.4478 -0.4551
vn 0.0040 -0.7404 -0.6722
vn 0.0000 -0.7013 -0.7129
vn 0.0563 -0.6973 -0.7145
vn 0.0048 0.9137 -0.4064
vn -0.8119 0.5228 -0.2599
vn -0.8119 -0.4128 -0.4127
vn 0.0000 0.8301 -0.5576
vn 0.0893 0.4319 0.8975
vn -0.7696 -0.4478 -0.4552
vn 0.0039 -0.7313 -0.6820
vn 0.0578 -0.7070 -0.7048
vn 0.0010 -0.7110 -0.7032
vn 0.0009 -0.7202 -0.6938
vn 0.0000 -1.0000 -0.0000
vn 0.1096 -0.9940 0.0000
vn 0.1078 -0.9942 -0.0000
vn 0.1115 -0.9936 0.0196
vn 0.1113 -0.9935 -0.0215
vn 0.1071 -0.9934 -0.0405
vn 0.1098 -0.9937 -0.0213
vn -0.7039 -0.7103 -0.0009
vn 0.0000 -0.7073 -0.7069
usemtl Tex_0052_0.dds.009
s off
f 1/1/1 3/2/2 2/3/1
f 2/3/3 3/2/3 4/4/4
f 3/2/5 5/5/6 4/4/7
f 4/4/8 5/5/8 6/6/8
f 7/7/9 9/8/10 8/9/11
f 8/9/12 9/8/13 10/10/14
f 9/8/15 11/11/16 10/10/17
f 10/10/18 11/11/18 12/12/18
f 13/13/19 15/14/20 14/15/21
f 14/15/22 15/14/23 16/16/24
f 15/14/25 17/17/26 16/16/27
f 16/16/28 17/17/29 18/18/30
f 19/19/31 21/20/32 20/21/33
f 20/21/34 21/20/35 22/22/36
f 21/20/37 23/23/38 22/22/39
f 22/22/40 23/23/40 24/24/40
f 25/25/41 27/26/42 26/27/43
f 26/27/44 27/26/45 28/28/46
f 27/26/47 29/29/48 28/28/49
f 28/28/50 29/29/51 30/30/52
f 31/31/53 33/32/54 32/33/55
f 32/33/56 33/32/57 34/34/58
f 33/32/59 35/35/60 34/34/61
f 34/34/62 35/35/63 36/36/64
f 37/37/65 39/38/66 38/39/67
f 38/39/68 39/38/69 40/40/70
f 39/38/71 41/41/72 40/40/73
f 40/40/74 41/41/75 42/42/76
f 43/43/77 45/44/78 44/45/79
f 44/45/80 45/44/81 46/46/82
f 45/44/83 47/47/84 46/46/85
f 46/46/86 47/47/86 48/48/86
f 49/49/87 51/50/88 50/51/89
f 50/51/90 51/50/91 52/52/92
f 51/50/93 53/53/94 52/52/95
f 52/52/96 53/53/97 54/54/98
f 55/55/99 57/56/100 56/57/101
f 56/57/102 57/56/103 58/58/104
f 57/56/105 59/59/106 58/58/107
f 58/58/108 59/59/109 60/60/110
f 61/61/111 63/62/112 62/63/113
f 62/63/114 63/62/115 64/64/116
f 63/62/117 65/65/118 64/64/119
f 64/64/120 65/65/121 66/66/122
f 67/67/123 69/68/124 68/69/125
f 68/69/126 69/68/127 70/70/128
f 69/68/129 71/71/130 70/70/131
f 70/70/132 71/71/133 72/72/134
f 73/73/135 75/74/136 74/75/137
f 74/75/138 75/74/139 76/76/140
f 75/74/141 77/77/142 76/76/143
f 76/76/144 77/77/145 78/78/146
f 79/79/147 81/80/148 80/81/149
f 80/81/150 81/80/151 82/82/152
f 81/80/153 83/83/154 82/82/155
f 82/82/156 83/83/157 84/84/158
f 85/85/159 87/86/160 86/87/159
f 86/87/159 87/86/161 88/88/162
f 87/86/163 89/89/164 88/88/165
f 90/90/166 92/91/167 91/92/166
f 91/92/168 92/91/169 93/93/170
f 92/91/171 94/94/172 93/93/173
f 95/95/174 97/96/175 96/97/174
f 96/97/174 97/96/174 98/98/176
f 97/96/177 99/99/159 98/98/178
f 100/100/179 102/101/180 101/102/181
f 101/102/182 102/101/183 103/103/184
f 102/101/185 104/104/172 103/103/186
f 105/105/187 107/106/188 106/107/187
f 106/107/189 107/106/190 108/108/191
f 107/106/192 109/109/193 108/108/194
f 110/110/195 112/111/196 111/112/197
f 111/112/198 112/111/199 113/113/200
f 112/111/201 114/114/200 113/113/200
f 115/115/187 117/116/188 116/117/187
f 116/117/187 117/116/202 118/118/203
f 117/116/192 119/119/193 118/118/204
f 120/120/205 122/121/206 121/122/197
f 121/122/207 122/121/208 123/123/200
f 122/121/209 124/124/210 123/123/211
f 125/125/212 127/126/212 126/127/212
f 126/127/212 127/126/212 128/128/212
f 129/129/212 131/130/212 130/131/212
f 130/131/212 131/130/212 132/132/212
f 133/133/212 135/134/212 134/135/212
f 134/135/212 135/134/212 136/136/212
f 137/137/212 139/138/212 138/139/212
f 138/139/212 139/138/212 140/140/212
f 141/141/213 143/142/214 142/143/215
f 142/143/216 143/142/217 144/144/218
f 145/145/174 147/146/174 146/147/174
f 148/148/219 150/149/219 149/150/219
f 151/151/159 153/152/159 152/153/159
f 154/154/168 156/155/168 155/156/168
f 157/157/193 159/158/193 158/159/193
f 160/160/205 162/161/205 161/162/205
f 163/163/220 165/164/220 164/165/220
f 166/166/205 168/167/205 167/168/205
