# Blender v3.6.3 OBJ File: 'untitled.blend'
# www.blender.org
mtllib Mesh_0357.mtl
o Mesh_0357_Mesh.217
v -10.999115 22.139254 39.619728
v -9.858410 22.499386 36.368446
v -10.361794 22.499540 36.280396
v -9.604609 22.859751 32.988190
v -9.989714 22.859751 32.988190
v -21.412321 20.698565 47.886505
v -18.100929 21.058699 46.803780
v -18.380100 21.058853 46.297768
v -15.283815 21.418831 44.895676
v -15.569847 21.419296 44.542213
v -9.861423 24.892046 27.910057
v -9.861555 23.368000 27.910049
v -9.861359 24.892105 22.828201
v -9.861370 23.368015 22.828194
v -9.861423 24.892046 27.910057
v -9.861383 24.892044 32.988197
v -9.861555 23.368000 27.910049
v -9.861441 23.367998 32.988190
v -29.924585 22.351982 47.971329
v -35.004585 22.351982 47.971367
v -29.924585 20.827982 47.971298
v -35.004585 20.827982 47.971260
v -24.844612 22.351967 47.971375
v -29.924585 22.351982 47.971329
v -24.844612 20.827999 47.971397
v -29.924585 20.827982 47.971298
v -10.236372 24.531820 36.307686
v -11.342197 24.171534 39.459114
v -10.236530 23.007881 36.307678
v -11.342508 22.647594 39.459114
v -11.342197 24.171534 39.459114
v -13.123564 23.811554 42.285606
v -11.342508 22.647594 39.459114
v -13.123564 22.287460 42.284988
v -10.999115 22.139254 39.619728
v -11.457850 22.139717 39.403923
v -12.867996 21.779119 42.503265
v -13.222393 21.779741 42.203758
v -10.236530 23.007881 36.307678
v -9.861441 23.367998 32.988190
v -10.236372 24.531820 36.307686
v -9.861383 24.892044 32.988197
v -15.283815 21.418831 44.895676
v -12.867996 21.779119 42.503265
v -15.569847 21.419296 44.542213
v -13.222393 21.779741 42.203758
v -13.123564 23.811554 42.285606
v -15.490082 23.451420 44.642670
v -13.123564 22.287460 42.284988
v -15.490082 21.927326 44.642670
v -18.322931 23.091131 46.412491
v -21.479404 22.730999 47.506371
v -18.322931 21.567039 46.412491
v -21.479404 21.206905 47.505753
v -21.479404 22.730999 47.506371
v -24.844612 22.351967 47.971375
v -21.479404 21.206905 47.505753
v -24.844612 20.827999 47.971397
v -18.322931 21.567039 46.412491
v -15.490082 21.927326 44.642670
v -18.322931 23.091131 46.412491
v -15.490082 23.451420 44.642670
v -10.999115 22.139254 39.619728
v -10.361794 22.499540 36.280396
v -11.457850 22.139717 39.403923
v -21.412321 20.698565 47.886505
v -18.380100 21.058853 46.297768
v -21.507311 20.698875 47.381111
vt 1.029297 -1.135742
vt 0.530273 -1.086914
vt 0.530273 -1.136719
vt 0.030273 -1.137695
vt 0.030273 -1.087891
vt 1.029297 -1.135742
vt 0.530273 -1.086914
vt 0.530273 -1.136719
vt 0.030273 -1.137695
vt 0.030273 -1.087891
vt 1.997070 -0.155273
vt 0.094727 -0.155273
vt 1.997070 -0.942383
vt 0.094727 -0.942383
vt -0.000977 -0.155273
vt -0.000977 -0.942383
vt 1.997070 -0.155273
vt 1.997070 -0.942383
vt -0.000977 -0.155273
vt -0.000977 -0.942383
vt 1.997070 -0.155273
vt 1.997070 -0.942383
vt -0.000977 -0.155273
vt -0.000977 -0.942383
vt 1.997070 -0.155273
vt 1.997070 -0.942383
vt 0.998047 -0.155273
vt 0.998047 -0.942383
vt 1.997070 -0.155273
vt 1.997070 -0.942383
vt -0.000977 -0.155273
vt -0.000977 -0.942383
vt 0.998047 -0.155273
vt 0.998047 -0.942383
vt 0.030273 -1.137695
vt 0.530273 -1.136719
vt 0.030273 -1.087891
vt 0.530273 -1.086914
vt 0.998047 -0.942383
vt 0.998047 -0.155273
vt -0.000977 -0.942383
vt -0.000977 -0.155273
vt 1.029297 -1.135742
vt 1.029297 -1.085938
vt 0.530273 -1.136719
vt 0.530273 -1.086914
vt 0.998047 -0.155273
vt 0.998047 -0.942383
vt 1.997070 -0.155273
vt 1.997070 -0.942383
vt 0.998047 -0.155273
vt 0.998047 -0.942383
vt 1.997070 -0.155273
vt 1.997070 -0.942383
vt -0.000977 -0.155273
vt -0.000977 -0.942383
vt 0.998047 -0.155273
vt 0.998047 -0.942383
vt 0.998047 -0.942383
vt 0.998047 -0.155273
vt -0.000977 -0.942383
vt -0.000977 -0.155273
vt 1.029297 -1.135742
vt 1.029297 -1.085938
vt 0.530273 -1.086914
vt 1.029297 -1.135742
vt 1.029297 -1.085938
vt 0.530273 -1.086914
vn 0.0179 -0.9944 -0.1039
vn 0.0180 -0.9943 -0.1051
vn 0.0180 -0.9943 -0.1047
vn 0.0346 -0.9940 -0.1034
vn -0.0173 -0.9938 -0.1099
vn 0.0000 -0.9941 -0.1088
vn -0.0000 -0.9939 -0.1106
vn 0.0915 -0.9945 -0.0508
vn 0.0920 -0.9944 -0.0516
vn 0.0917 -0.9945 -0.0505
vn 0.0924 -0.9944 -0.0513
vn 0.0916 -0.9945 -0.0513
vn 0.1023 -0.9941 -0.0367
vn 0.0736 -0.9936 -0.0853
vn 0.0841 -0.9940 -0.0694
vn 0.0859 -0.9938 -0.0708
vn -1.0000 0.0001 -0.0000
vn -1.0000 0.0000 -0.0000
vn -0.0000 0.0000 -1.0000
vn 0.0000 0.0001 -1.0000
vn -0.9436 0.0001 -0.3311
vn -0.9436 0.0002 -0.3311
vn -0.8460 0.0002 -0.5332
vn 0.0440 -0.9944 -0.0957
vn 0.0230 -0.9938 -0.1092
vn 0.0431 -0.9947 -0.0937
vn 0.0910 -0.9934 -0.0704
vn 0.0711 -0.9937 -0.0863
vn 0.0693 -0.9940 -0.0841
vn -0.9937 0.0001 -0.1123
vn -0.9937 0.0000 -0.1122
vn 0.0816 -0.9944 -0.0673
vn 0.0803 -0.9946 -0.0663
vn 0.0948 -0.9940 -0.0539
vn 0.0703 -0.9939 -0.0853
vn 0.0557 -0.9937 -0.0973
vn 0.0691 -0.9941 -0.0838
vn -0.7057 0.0003 -0.7085
vn -0.7058 0.0000 -0.7084
vn -0.7058 -0.0003 -0.7085
vn -0.3274 0.0000 -0.9449
vn -0.3273 0.0004 -0.9449
vn -0.1369 0.0004 -0.9906
vn -0.1371 -0.0000 -0.9906
vn -0.1370 -0.0003 -0.9906
vn -0.5298 0.0000 -0.8481
vn 0.0454 -0.9941 -0.0986
vn 0.1072 -0.9940 -0.0208
usemtl Tex_0052_0.dds.021
s off
f 1/1/1 3/2/2 2/3/1
f 2/3/3 3/2/3 4/4/4
f 3/2/5 5/5/6 4/4/7
f 6/6/8 8/7/9 7/8/10
f 7/8/11 8/7/12 9/9/13
f 8/7/14 10/10/15 9/9/16
f 11/11/17 13/12/17 12/13/17
f 12/13/18 13/12/18 14/14/18
f 15/15/17 17/16/17 16/17/17
f 16/17/18 17/16/18 18/18/18
f 19/19/19 21/20/19 20/21/19
f 20/21/20 21/20/20 22/22/20
f 23/23/19 25/24/19 24/25/19
f 24/25/19 25/24/19 26/26/19
f 27/27/21 29/28/21 28/29/21
f 28/29/22 29/28/22 30/30/22
f 31/31/23 33/32/23 32/33/23
f 32/33/23 33/32/23 34/34/23
f 35/35/24 37/36/25 36/37/26
f 36/37/27 37/36/28 38/38/29
f 39/39/30 41/40/30 40/41/30
f 40/41/31 41/40/31 42/42/31
f 43/43/32 45/44/33 44/45/34
f 44/45/35 45/44/36 46/46/37
f 47/47/38 49/48/38 48/49/38
f 48/49/39 49/48/40 50/50/39
f 51/51/41 53/52/41 52/53/41
f 52/53/42 53/52/42 54/54/42
f 55/55/43 57/56/43 56/57/43
f 56/57/44 57/56/45 58/58/44
f 59/59/46 61/60/46 60/61/46
f 60/61/46 61/60/46 62/62/46
f 63/63/47 65/64/47 64/65/47
f 66/66/48 68/67/48 67/68/48
