# Blender v3.6.3 OBJ File: 'untitled.blend'
# www.blender.org
mtllib Mesh_0288.mtl
o Mesh_0288_Mesh.189
v -9.604584 5.079995 -43.211803
v -12.144585 5.079995 -43.211803
v -9.604584 5.079995 -40.671806
v -12.144585 5.079995 -40.671806
v -12.144585 5.079995 -43.211803
v -14.684585 5.079995 -43.211803
v -12.144585 5.079995 -40.671806
v -14.684585 5.079995 -40.671806
v -14.684585 5.079995 -43.211803
v -17.224585 5.079995 -43.211803
v -14.684585 5.079995 -40.671806
v -17.224585 5.079995 -40.671806
v -17.224585 5.079995 -43.211803
v -19.764584 5.079995 -43.211803
v -17.224585 5.079995 -40.671806
v -19.764584 5.079995 -40.671806
v -9.604584 5.079995 -40.671806
v -12.144585 5.079995 -40.671806
v -9.604584 5.079994 -38.131805
v -12.144585 5.079994 -38.131805
v -12.144585 5.079995 -40.671806
v -14.684585 5.079995 -40.671806
v -12.144585 5.079994 -38.131805
v -14.684585 5.079994 -38.131805
v -14.684585 5.079995 -40.671806
v -17.224585 5.079995 -40.671806
v -14.684585 5.079994 -38.131805
v -17.224585 5.079994 -38.131805
v -17.224585 5.079995 -40.671806
v -19.764584 5.079995 -40.671806
v -17.224585 5.079994 -38.131805
v -19.764584 5.079994 -38.131805
v -9.604584 5.079994 -38.131805
v -12.144585 5.079994 -38.131805
v -9.604584 5.079994 -35.591805
v -12.144585 5.079994 -35.591805
v -12.144585 5.079994 -38.131805
v -14.684585 5.079994 -38.131805
v -12.144585 5.079994 -35.591805
v -14.684585 5.079994 -35.591805
v -14.684585 5.079994 -38.131805
v -17.224585 5.079994 -38.131805
v -14.684585 5.079994 -35.591805
v -17.224585 5.079994 -35.591805
v -17.224585 5.079994 -38.131805
v -19.764584 5.079994 -38.131805
v -17.224585 5.079994 -35.591805
v -19.764584 5.079994 -35.591805
v -9.604584 5.079994 -35.591805
v -12.144585 5.079994 -35.591805
v -9.604584 5.079994 -33.051804
v -12.144585 5.079994 -33.051804
v -12.144585 5.079994 -35.591805
v -14.684585 5.079994 -35.591805
v -12.144585 5.079994 -33.051804
v -14.684585 5.079994 -33.051804
v -14.684585 5.079994 -35.591805
v -17.224585 5.079994 -35.591805
v -14.684585 5.079994 -33.051804
v -17.224585 5.079994 -33.051804
v -17.224585 5.079994 -35.591805
v -19.764584 5.079994 -35.591805
v -17.224585 5.079994 -33.051804
v -19.764584 5.079994 -33.051804
v -9.604584 5.079994 -33.051804
v -12.144585 5.079994 -33.051804
v -9.604584 6.349995 -30.511806
v -12.144585 6.349995 -30.511806
v -12.144585 5.079994 -33.051804
v -14.684585 5.079994 -33.051804
v -12.144585 6.349995 -30.511806
v -14.684585 6.349995 -30.511806
v -14.684585 5.079994 -33.051804
v -17.224585 5.079994 -33.051804
v -14.684585 6.349995 -30.511806
v -17.224585 6.349995 -30.511806
v -17.224585 5.079994 -33.051804
v -19.764584 5.079994 -33.051804
v -17.224585 6.349995 -30.511806
v -19.764584 6.349995 -30.511806
v -9.604584 6.349995 -30.511806
v -12.144585 6.349995 -30.511806
v -9.604584 7.619995 -27.971806
v -12.144585 7.619995 -27.971806
v -12.144585 6.349995 -30.511806
v -14.684585 6.349995 -30.511806
v -12.144585 7.619995 -27.971806
v -14.684585 7.619995 -27.971806
v -14.684585 6.349995 -30.511806
v -17.224585 6.349995 -30.511806
v -14.684585 7.619995 -27.971806
v -17.224585 7.619995 -27.971806
v -17.224585 6.349995 -30.511806
v -19.764584 6.349995 -30.511806
v -17.224585 7.619995 -27.971806
v -19.764584 7.619995 -27.971806
v -9.604584 7.619995 -27.971806
v -12.144585 7.619995 -27.971806
v -9.604584 8.889994 -25.431805
v -12.144585 8.889994 -25.431805
v -12.144585 7.619995 -27.971806
v -14.684585 7.619995 -27.971806
v -12.144585 8.889994 -25.431805
v -14.684585 8.889994 -25.431805
v -14.684585 7.619995 -27.971806
v -17.224585 7.619995 -27.971806
v -14.684585 8.889994 -25.431805
v -17.224585 8.889994 -25.431805
v -17.224585 7.619995 -27.971806
v -19.764584 7.619995 -27.971806
v -17.224585 8.889994 -25.431805
v -19.764584 8.889994 -25.431805
v -9.604584 8.889994 -25.431805
v -12.144585 8.889994 -25.431805
v -9.604584 10.159994 -22.891804
v -12.144585 10.159994 -22.891804
v -12.144585 8.889994 -25.431805
v -14.684585 8.889994 -25.431805
v -12.144585 10.159994 -22.891804
v -14.684585 10.159994 -22.891804
v -14.684585 8.889994 -25.431805
v -17.224585 8.889994 -25.431805
v -14.684585 10.159994 -22.891804
v -17.224585 10.159994 -22.891804
v -17.224585 8.889994 -25.431805
v -19.764584 8.889994 -25.431805
v -17.224585 10.159994 -22.891804
v -19.764584 10.159994 -22.891804
vt 0.000000 -0.999939
vt 0.000000 0.000000
vt 0.999939 -0.999939
vt 0.999939 0.000000
vt 0.000000 -0.999939
vt 0.000000 0.000000
vt 0.999939 -0.999939
vt 0.999939 0.000000
vt 0.000000 -0.999939
vt 0.000000 0.000000
vt 0.999939 -0.999939
vt 0.999939 0.000000
vt 0.000000 -0.999939
vt 0.000000 0.000000
vt 0.999939 -0.999939
vt 0.999939 0.000000
vt 0.000000 -0.999939
vt 0.000000 0.000000
vt 0.999939 -0.999939
vt 0.999939 0.000000
vt 0.000000 -0.999939
vt 0.000000 0.000000
vt 0.999939 -0.999939
vt 0.999939 0.000000
vt 0.000000 -0.999939
vt 0.000000 0.000000
vt 0.999939 -0.999939
vt 0.999939 0.000000
vt 0.000000 -0.999939
vt 0.000000 0.000000
vt 0.999939 -0.999939
vt 0.999939 0.000000
vt 0.000000 -0.999939
vt 0.000000 0.000000
vt 0.999939 -0.999939
vt 0.999939 0.000000
vt 0.000000 -0.999939
vt 0.000000 0.000000
vt 0.999939 -0.999939
vt 0.999939 0.000000
vt 0.000000 -0.999939
vt 0.000000 0.000000
vt 0.999939 -0.999939
vt 0.999939 0.000000
vt 0.000000 -0.999939
vt 0.000000 0.000000
vt 0.999939 -0.999939
vt 0.999939 0.000000
vt 0.000000 -0.999939
vt 0.000000 0.000000
vt 0.999939 -0.999939
vt 0.999939 0.000000
vt 0.000000 -0.999939
vt 0.000000 0.000000
vt 0.999939 -0.999939
vt 0.999939 0.000000
vt 0.000000 -0.999939
vt 0.000000 0.000000
vt 0.999939 -0.999939
vt 0.999939 0.000000
vt 0.000000 -0.999939
vt 0.000000 0.000000
vt 0.999939 -0.999939
vt 0.999939 0.000000
vt 0.000000 -0.999939
vt 0.000000 0.000000
vt 0.999939 -0.999939
vt 0.999939 0.000000
vt 0.000000 -0.999939
vt 0.000000 0.000000
vt 0.999939 -0.999939
vt 0.999939 0.000000
vt 0.000000 -0.999939
vt 0.000000 0.000000
vt 0.999939 -0.999939
vt 0.999939 0.000000
vt 0.000000 -0.999939
vt 0.000000 0.000000
vt 0.999939 -0.999939
vt 0.999939 0.000000
vt 0.000000 -0.999939
vt 0.000000 0.000000
vt 0.999939 -0.999939
vt 0.999939 0.000000
vt 0.000000 -0.999939
vt 0.000000 0.000000
vt 0.999939 -0.999939
vt 0.999939 0.000000
vt 0.000000 -0.999939
vt 0.000000 0.000000
vt 0.999939 -0.999939
vt 0.999939 0.000000
vt 0.000000 -0.999939
vt 0.000000 0.000000
vt 0.999939 -0.999939
vt 0.999939 0.000000
vt 0.000000 -0.999939
vt 0.000000 0.000000
vt 0.999939 -0.999939
vt 0.999939 0.000000
vt 0.000000 -0.999939
vt 0.000000 0.000000
vt 0.999939 -0.999939
vt 0.999939 0.000000
vt 0.000000 -0.999939
vt 0.000000 0.000000
vt 0.999939 -0.999939
vt 0.999939 0.000000
vt 0.000000 -0.999939
vt 0.000000 0.000000
vt 0.999939 -0.999939
vt 0.999939 0.000000
vt 0.000000 -0.999939
vt 0.000000 0.000000
vt 0.999939 -0.999939
vt 0.999939 0.000000
vt 0.000000 -0.999939
vt 0.000000 0.000000
vt 0.999939 -0.999939
vt 0.999939 0.000000
vt 0.000000 -0.999939
vt 0.000000 0.000000
vt 0.999939 -0.999939
vt 0.999939 0.000000
vt 0.000000 -0.999939
vt 0.000000 0.000000
vt 0.999939 -0.999939
vt 0.999939 0.000000
vn 0.0000 -1.0000 0.0000
vn 0.0000 -0.8944 0.4472
usemtl Tex_0092_1.dds
s off
f 1/1/1 3/2/1 2/3/1
f 2/3/1 3/2/1 4/4/1
f 5/5/1 7/6/1 6/7/1
f 6/7/1 7/6/1 8/8/1
f 9/9/1 11/10/1 10/11/1
f 10/11/1 11/10/1 12/12/1
f 13/13/1 15/14/1 14/15/1
f 14/15/1 15/14/1 16/16/1
f 17/17/1 19/18/1 18/19/1
f 18/19/1 19/18/1 20/20/1
f 21/21/1 23/22/1 22/23/1
f 22/23/1 23/22/1 24/24/1
f 25/25/1 27/26/1 26/27/1
f 26/27/1 27/26/1 28/28/1
f 29/29/1 31/30/1 30/31/1
f 30/31/1 31/30/1 32/32/1
f 33/33/1 35/34/1 34/35/1
f 34/35/1 35/34/1 36/36/1
f 37/37/1 39/38/1 38/39/1
f 38/39/1 39/38/1 40/40/1
f 41/41/1 43/42/1 42/43/1
f 42/43/1 43/42/1 44/44/1
f 45/45/1 47/46/1 46/47/1
f 46/47/1 47/46/1 48/48/1
f 49/49/1 51/50/1 50/51/1
f 50/51/1 51/50/1 52/52/1
f 53/53/1 55/54/1 54/55/1
f 54/55/1 55/54/1 56/56/1
f 57/57/1 59/58/1 58/59/1
f 58/59/1 59/58/1 60/60/1
f 61/61/1 63/62/1 62/63/1
f 62/63/1 63/62/1 64/64/1
f 65/65/2 67/66/2 66/67/2
f 66/67/2 67/66/2 68/68/2
f 69/69/2 71/70/2 70/71/2
f 70/71/2 71/70/2 72/72/2
f 73/73/2 75/74/2 74/75/2
f 74/75/2 75/74/2 76/76/2
f 77/77/2 79/78/2 78/79/2
f 78/79/2 79/78/2 80/80/2
f 81/81/2 83/82/2 82/83/2
f 82/83/2 83/82/2 84/84/2
f 85/85/2 87/86/2 86/87/2
f 86/87/2 87/86/2 88/88/2
f 89/89/2 91/90/2 90/91/2
f 90/91/2 91/90/2 92/92/2
f 93/93/2 95/94/2 94/95/2
f 94/95/2 95/94/2 96/96/2
f 97/97/2 99/98/2 98/99/2
f 98/99/2 99/98/2 100/100/2
f 101/101/2 103/102/2 102/103/2
f 102/103/2 103/102/2 104/104/2
f 105/105/2 107/106/2 106/107/2
f 106/107/2 107/106/2 108/108/2
f 109/109/2 111/110/2 110/111/2
f 110/111/2 111/110/2 112/112/2
f 113/113/2 115/114/2 114/115/2
f 114/115/2 115/114/2 116/116/2
f 117/117/2 119/118/2 118/119/2
f 118/119/2 119/118/2 120/120/2
f 121/121/2 123/122/2 122/123/2
f 122/123/2 123/122/2 124/124/2
f 125/125/2 127/126/2 126/127/2
f 126/127/2 127/126/2 128/128/2
