# Blender v3.6.3 OBJ File: 'untitled.blend'
# www.blender.org
mtllib Mesh_0286.mtl
o Mesh_0286_Mesh.080
v -9.604584 -1.905006 -26.667820
v -9.604584 -1.397006 -26.701756
v -14.684585 -1.598479 -26.701782
v -14.684585 -1.473866 -26.701805
v -19.764584 -1.397006 -26.701805
v -19.764584 -1.270006 -26.701805
v -9.604584 -2.540006 -27.971806
v -9.604584 -2.032006 -27.971756
v -14.684585 -2.233479 -27.971783
v -14.684585 -2.108866 -27.971806
v -19.764584 -2.032006 -27.971806
v -19.764584 -1.905006 -27.971806
v -9.604584 -4.445006 -31.747807
v -9.604584 -3.937006 -31.781761
v -14.684585 -4.138486 -31.781784
v -14.684585 -4.013872 -31.781792
v -19.764584 -3.937006 -31.781803
v -19.764584 -3.810006 -31.781803
v -9.604584 -5.080006 -33.051804
v -9.604584 -4.572006 -33.051758
v -14.684585 -4.773487 -33.051785
v -14.684585 -4.648871 -33.051792
v -19.764584 -4.572006 -33.051804
v -19.764584 -4.445006 -33.051804
v -19.764584 -0.127006 -24.161804
v -19.764584 -0.635006 -24.127819
v -14.684585 -0.328479 -24.161781
v -14.684585 -0.635006 -24.127819
v -9.604584 -0.635006 -24.127819
v -19.764584 -0.000006 -24.161804
v -19.764584 -0.127006 -24.161804
v -14.684585 -0.201479 -24.161781
v -14.684585 -0.328479 -24.161781
v -9.604584 -0.127006 -24.161758
v -19.764584 -0.762006 -25.431805
v -19.764584 -1.270006 -25.397820
v -14.684585 -0.963479 -25.431782
v -14.684585 -1.270006 -25.397820
v -9.604584 -1.270006 -25.397820
v -19.764584 -0.635006 -25.431805
v -19.764584 -0.762006 -25.431805
v -14.684585 -0.838867 -25.431805
v -14.684585 -0.963479 -25.431782
v -9.604584 -0.762006 -25.431759
v -19.764584 -1.397006 -26.701805
v -19.764584 -1.905006 -26.667820
v -14.684585 -1.598479 -26.701782
v -14.684585 -1.905006 -26.667820
v -9.604584 -1.905006 -26.667820
v -19.764584 -2.032006 -27.971806
v -19.764584 -2.540006 -27.971806
v -14.684585 -2.233479 -27.971783
v -14.684585 -2.540006 -27.971806
v -9.604584 -2.540006 -27.971806
v -19.764584 -2.667006 -29.241806
v -19.764584 -3.175006 -29.207821
v -14.684585 -2.868486 -29.241779
v -14.684585 -3.175006 -29.207821
v -9.604584 -3.175006 -29.207821
v -19.764584 -2.540006 -29.241806
v -19.764584 -2.667006 -29.241806
v -14.684585 -2.741486 -29.241779
v -14.684585 -2.868486 -29.241779
v -9.604584 -2.667006 -29.241753
v -19.764584 -3.302006 -30.511806
v -19.764584 -3.810006 -30.477821
v -14.684585 -3.503486 -30.511780
v -14.684585 -3.810006 -30.477821
v -9.604584 -3.810006 -30.477821
v -19.764584 -3.175006 -30.511806
v -19.764584 -3.302006 -30.511806
v -14.684585 -3.378871 -30.511806
v -14.684585 -3.503486 -30.511780
v -9.604584 -3.302006 -30.511753
v -19.764584 -3.937006 -31.781803
v -19.764584 -4.445006 -31.747822
v -14.684585 -4.138486 -31.781784
v -14.684585 -4.445006 -31.747822
v -9.604584 -4.445006 -31.747807
v -19.764584 -4.572006 -33.051804
v -19.764584 -5.080006 -33.051807
v -14.684585 -4.773487 -33.051785
v -14.684585 -5.080006 -33.051811
v -9.604584 -5.080006 -33.051804
v -9.604584 -0.000006 -24.161781
v -14.684585 -0.000006 -23.526806
v -14.684585 -0.201479 -24.161781
v -19.764584 -0.000006 -24.161804
v -19.764584 -0.635006 -24.127819
v -14.684585 -0.678237 -24.779816
v -14.684585 -0.635006 -24.127819
v -9.604584 -0.635006 -24.127819
v -9.604584 -0.635006 -25.431782
v -14.684585 -0.678237 -24.779816
v -14.684585 -0.838867 -25.431805
v -19.764584 -0.635006 -25.431805
v -19.764584 -1.270006 -25.397820
v -14.684585 -1.313237 -26.049816
v -14.684585 -1.270006 -25.397820
v -9.604584 -1.270006 -25.397820
v -9.604584 -1.270006 -26.701782
v -14.684585 -1.313237 -26.049816
v -14.684585 -1.473866 -26.701805
v -19.764584 -1.270006 -26.701805
v -19.764584 -1.905006 -26.667820
v -14.684585 -1.948237 -27.319813
v -14.684585 -1.905006 -26.667820
v -9.604584 -1.905006 -26.667820
v -9.604584 -1.905006 -27.971783
v -14.684585 -1.948237 -27.319813
v -14.684585 -2.108866 -27.971806
v -19.764584 -1.905006 -27.971806
v -9.604584 -2.540006 -29.241779
v -14.684585 -2.540006 -28.606804
v -14.684585 -2.741486 -29.241779
v -19.764584 -2.540006 -29.241806
v -19.764584 -3.175006 -29.207821
v -14.684585 -3.218229 -29.859810
v -14.684585 -3.175006 -29.207821
v -9.604584 -3.175006 -29.207821
v -9.604584 -3.175006 -30.511780
v -14.684585 -3.218229 -29.859810
v -14.684585 -3.378871 -30.511806
v -19.764584 -3.175006 -30.511806
v -19.764584 -3.810006 -30.477821
v -14.684585 -3.853229 -31.129818
v -14.684585 -3.810006 -30.477821
v -9.604584 -3.810006 -30.477821
v -9.604584 -3.810006 -31.781773
v -14.684585 -3.853229 -31.129818
v -14.684585 -4.013872 -31.781792
v -19.764584 -3.810006 -31.781803
v -19.764584 -4.445006 -31.747822
v -14.684585 -4.488229 -32.399818
v -14.684585 -4.445006 -31.747822
v -9.604584 -4.445006 -31.747807
v -9.604584 -4.445006 -33.051781
v -14.684585 -4.488229 -32.399818
v -14.684585 -4.648871 -33.051792
v -19.764584 -4.445006 -33.051804
v -14.684585 -0.328479 -24.161781
v -9.604584 -0.635006 -24.127819
v -9.604584 -0.127006 -24.161758
v -9.604584 -0.127006 -24.161758
v -9.604584 -0.000006 -24.161781
v -14.684585 -0.201479 -24.161781
v -14.684585 -0.963479 -25.431782
v -9.604584 -1.270006 -25.397820
v -9.604584 -0.762006 -25.431759
v -9.604584 -0.762006 -25.431759
v -9.604584 -0.635006 -25.431782
v -14.684585 -0.838867 -25.431805
v -9.604584 -1.397006 -26.701756
v -9.604584 -1.270006 -26.701782
v -14.684585 -1.473866 -26.701805
v -9.604584 -2.032006 -27.971756
v -9.604584 -1.905006 -27.971783
v -14.684585 -2.108866 -27.971806
v -14.684585 -2.868486 -29.241779
v -9.604584 -3.175006 -29.207821
v -9.604584 -2.667006 -29.241753
v -9.604584 -2.667006 -29.241753
v -9.604584 -2.540006 -29.241779
v -14.684585 -2.741486 -29.241779
v -14.684585 -3.503486 -30.511780
v -9.604584 -3.810006 -30.477821
v -9.604584 -3.302006 -30.511753
v -9.604584 -3.302006 -30.511753
v -9.604584 -3.175006 -30.511780
v -14.684585 -3.378871 -30.511806
v -9.604584 -3.937006 -31.781761
v -9.604584 -3.810006 -31.781773
v -14.684585 -4.013872 -31.781792
v -9.604584 -4.572006 -33.051758
v -9.604584 -4.445006 -33.051781
v -14.684585 -4.648871 -33.051792
vt 2.966797 -1.999023
vt 0.956055 -1.499023
vt 2.966797 -1.499023
vt 0.981445 -1.000000
vt -1.039062 -1.499023
vt -1.005859 -1.000000
vt 1.973633 -1.999023
vt -0.012695 -1.499023
vt 1.973633 -1.499023
vt -0.012695 -1.000000
vt -1.999023 -1.499023
vt -1.999023 -1.000000
vt 2.966797 -1.999023
vt 0.969727 -1.499023
vt 2.966797 -1.499023
vt 0.981445 -1.000000
vt -1.039062 -1.499023
vt -1.005859 -1.000000
vt 1.973633 -1.999023
vt -0.012695 -1.499023
vt 1.973633 -1.499023
vt -0.012695 -1.000000
vt -1.999023 -1.499023
vt -1.999023 -1.000000
vt -1.009766 -1.499023
vt 0.990234 -1.499023
vt -1.005859 -1.999023
vt 0.981445 -1.999023
vt 2.966797 -1.999023
vt -1.005859 -1.000000
vt 0.981445 -1.000000
vt -1.031250 -1.499023
vt 1.000000 -1.499023
vt 2.977539 -1.499023
vt -1.005859 -1.000000
vt 1.001953 -1.000000
vt -1.049805 -1.499023
vt 0.981445 -1.499023
vt 2.977539 -1.499023
vt -1.005859 -1.000000
vt 0.981445 -1.000000
vt -1.049805 -1.499023
vt 1.001953 -1.499023
vt 2.900391 -1.499023
vt -1.039062 -1.499023
vt 0.956055 -1.499023
vt -1.031250 -1.999023
vt 0.981445 -1.999023
vt 2.966797 -1.999023
vt -1.999023 -1.499023
vt -0.012695 -1.499023
vt -1.999023 -1.999023
vt -0.012695 -1.999023
vt 1.973633 -1.999023
vt -0.995117 -1.499023
vt 0.977539 -1.499023
vt -1.005859 -1.999023
vt 0.981445 -1.999023
vt 2.966797 -1.999023
vt -1.005859 -1.000000
vt 0.981445 -1.000000
vt -1.017578 -1.499023
vt 0.988281 -1.499023
vt 2.977539 -1.499023
vt -1.005859 -1.000000
vt 0.989258 -1.000000
vt -1.049805 -1.499023
vt 0.981445 -1.499023
vt 2.977539 -1.499023
vt -1.005859 -1.000000
vt 0.981445 -1.000000
vt -1.020508 -1.499023
vt 0.974609 -1.499023
vt 2.958984 -1.499023
vt -1.039062 -1.499023
vt 0.969727 -1.499023
vt -1.031250 -1.999023
vt 0.981445 -1.999023
vt 2.966797 -1.999023
vt -1.999023 -1.499023
vt -0.012695 -1.499023
vt -1.999023 -1.999023
vt -0.012695 -1.999023
vt 1.973633 -1.999023
vt 3.976562 -0.992188
vt 1.979492 -1.000000
vt 1.979492 -1.250000
vt -0.005859 -0.995117
vt -1.031250 -1.499023
vt 0.981445 -1.489258
vt 0.970703 -1.240234
vt 2.966797 -1.499023
vt 2.966797 -1.000000
vt 0.981445 -1.000000
vt 0.970703 -1.240234
vt -1.031250 -1.000000
vt -0.030273 0.498047
vt 2.024414 0.498047
vt 2.025391 0.706055
vt 4.002930 0.498047
vt 4.002930 0.998047
vt 2.024414 0.998047
vt 2.025391 0.706055
vt -0.030273 0.998047
vt -2.023438 -1.998047
vt -0.009766 -1.998047
vt -0.012695 -1.764648
vt 1.975586 -1.998047
vt 1.975586 -1.499023
vt -0.009766 -1.499023
vt -0.012695 -1.764648
vt -2.023438 -1.499023
vt 3.976562 -0.992188
vt 1.979492 -1.000000
vt 1.979492 -1.250000
vt -0.005859 -0.995117
vt -1.031250 -1.499023
vt 0.981445 -1.489258
vt 0.970703 -1.240234
vt 2.966797 -1.499023
vt 2.966797 -1.000000
vt 0.981445 -1.000000
vt 0.970703 -1.240234
vt -1.031250 -1.000000
vt -0.030273 0.498047
vt 2.024414 0.498047
vt 2.025391 0.706055
vt 4.002930 0.498047
vt 4.002930 0.998047
vt 2.024414 0.998047
vt 2.025391 0.706055
vt -0.030273 0.998047
vt -2.023438 -1.998047
vt -0.009766 -1.998047
vt -0.012695 -1.764648
vt 1.975586 -1.998047
vt 1.975586 -1.499023
vt -0.009766 -1.499023
vt -0.012695 -1.764648
vt -2.023438 -1.499023
vt 0.990234 -1.499023
vt 2.988281 -1.499023
vt 2.966797 -1.999023
vt 2.977539 -1.499023
vt 0.981445 -1.000000
vt 2.966797 -1.000000
vt 1.001953 -1.000000
vt 2.966797 -1.000000
vt 2.977539 -1.499023
vt 2.900391 -1.499023
vt 0.981445 -1.000000
vt 2.966797 -1.000000
vt 2.966797 -1.499023
vt 0.981445 -1.000000
vt 2.966797 -1.000000
vt 1.973633 -1.499023
vt -0.012695 -1.000000
vt 1.973633 -1.000000
vt 0.977539 -1.499023
vt 2.988281 -1.499023
vt 2.966797 -1.999023
vt 2.977539 -1.499023
vt 0.981445 -1.000000
vt 2.966797 -1.000000
vt 0.989258 -1.000000
vt 2.966797 -1.000000
vt 2.977539 -1.499023
vt 2.958984 -1.499023
vt 0.981445 -1.000000
vt 2.966797 -1.000000
vt 2.966797 -1.499023
vt 0.981445 -1.000000
vt 2.966797 -1.000000
vt 1.973633 -1.499023
vt -0.012695 -1.000000
vt 1.973633 -1.000000
vn 0.0026 -0.0667 -0.9978
vn -0.0012 -0.1287 -0.9917
vn 0.0000 -0.0002 -1.0000
vn 0.0040 -0.0005 -1.0000
vn -0.0000 0.0000 -1.0000
vn 0.0000 0.0001 -1.0000
vn -0.0013 -0.1309 -0.9914
vn 0.0036 -0.0667 -0.9978
vn -0.0010 0.0656 -0.9978
vn -0.0021 -0.0001 -1.0000
vn 0.0000 -0.0001 -1.0000
vn 0.0022 -0.0002 -1.0000
vn -0.0026 -0.0668 -0.9978
vn -0.0010 -0.0246 -0.9997
vn -0.0043 -0.0668 -0.9978
vn 0.0000 -0.1517 -0.9884
vn 0.0013 -0.1101 -0.9939
vn 0.0000 -0.1101 -0.9939
vn -0.0013 -0.1100 -0.9939
vn 0.0000 0.0003 -1.0000
vn 0.0014 -0.1101 -0.9939
vn -0.0014 -0.1099 -0.9939
vn -0.0026 -0.0667 -0.9978
vn -0.0043 -0.0667 -0.9978
vn -0.0378 0.9525 -0.3022
vn -0.0377 0.9632 -0.2660
vn -0.0422 0.9403 -0.3377
vn 0.0422 0.9403 -0.3377
vn 0.0382 0.9632 -0.2660
vn 0.0378 0.9525 -0.3022
vn 0.0000 0.9978 -0.0662
vn -0.0389 0.9702 -0.2390
vn -0.0389 0.9788 -0.2011
vn -0.0436 0.9601 -0.2763
vn 0.0436 0.9601 -0.2763
vn 0.0393 0.9788 -0.2011
vn 0.0389 0.9702 -0.2390
vn -0.0378 0.9632 -0.2660
vn 0.0000 0.9978 -0.0661
vn -0.0389 0.9702 -0.2391
vn 0.0389 0.9702 -0.2391
vn 0.0026 -0.0666 -0.9978
usemtl Tex_0056_1.dds
s off
f 1/1/1 3/2/2 2/3/1
f 2/3/3 3/2/3 4/4/3
f 3/2/4 5/5/3 4/4/3
f 4/4/5 5/5/5 6/6/5
f 7/7/6 9/8/6 8/9/6
f 8/9/3 9/8/3 10/10/3
f 9/8/3 11/11/3 10/10/3
f 10/10/5 11/11/5 12/12/5
f 13/13/1 15/14/7 14/15/8
f 14/15/9 15/14/10 16/16/11
f 15/14/12 17/17/11 16/16/11
f 16/16/5 17/17/5 18/18/5
f 19/19/6 21/20/6 20/21/6
f 20/21/11 21/20/11 22/22/11
f 21/20/11 23/23/11 22/22/11
f 22/22/5 23/23/5 24/24/5
f 25/25/13 27/26/14 26/27/15
f 26/27/16 27/26/17 28/28/18
f 27/26/19 29/29/18 28/28/18
f 30/30/5 32/31/5 31/32/5
f 31/32/5 32/31/5 33/33/5
f 32/31/5 34/34/5 33/33/5
f 35/35/13 37/36/14 36/37/15
f 36/37/16 37/36/17 38/38/18
f 37/36/19 39/39/18 38/38/18
f 40/40/5 42/41/20 41/42/5
f 41/42/3 42/41/3 43/43/3
f 42/41/3 44/44/3 43/43/3
f 45/45/13 47/46/14 46/47/15
f 46/47/16 47/46/17 48/48/18
f 47/46/19 49/49/18 48/48/18
f 50/50/5 52/51/5 51/52/5
f 51/52/6 52/51/6 53/53/6
f 52/51/6 54/54/6 53/53/6
f 55/55/13 57/56/14 56/57/15
f 56/57/16 57/56/21 58/58/18
f 57/56/22 59/59/18 58/58/18
f 60/60/5 62/61/5 61/62/5
f 61/62/5 62/61/5 63/63/5
f 62/61/5 64/64/5 63/63/5
f 65/65/13 67/66/14 66/67/15
f 66/67/16 67/66/21 68/68/18
f 67/66/22 69/69/18 68/68/18
f 70/70/5 72/71/5 71/72/5
f 71/72/3 72/71/3 73/73/3
f 72/71/3 74/74/3 73/73/3
f 75/75/23 77/76/14 76/77/24
f 76/77/16 77/76/21 78/78/18
f 77/76/19 79/79/18 78/78/18
f 80/80/5 82/81/5 81/82/5
f 81/82/6 82/81/6 83/83/6
f 82/81/6 84/84/6 83/83/6
f 85/85/25 87/86/26 86/87/27
f 86/87/28 87/86/29 88/88/30
f 89/89/31 91/90/31 90/91/31
f 90/91/31 91/90/31 92/92/31
f 93/93/32 95/94/33 94/95/34
f 94/95/35 95/94/36 96/96/37
f 97/97/31 99/98/31 98/99/31
f 98/99/31 99/98/31 100/100/31
f 101/101/32 103/102/33 102/103/34
f 102/103/35 103/102/36 104/104/37
f 105/105/31 107/106/31 106/107/31
f 106/107/31 107/106/31 108/108/31
f 109/109/32 111/110/33 110/111/34
f 110/111/35 111/110/36 112/112/37
f 113/113/25 115/114/38 114/115/27
f 114/115/28 115/114/29 116/116/30
f 117/117/39 119/118/39 118/119/39
f 118/119/31 119/118/31 120/120/31
f 121/121/32 123/122/33 122/123/34
f 122/123/35 123/122/36 124/124/37
f 125/125/39 127/126/39 126/127/39
f 126/127/39 127/126/39 128/128/39
f 129/129/40 131/130/33 130/131/34
f 130/131/35 131/130/36 132/132/41
f 133/133/39 135/134/39 134/135/39
f 134/135/39 135/134/39 136/136/39
f 137/137/40 139/138/33 138/139/34
f 138/139/35 139/138/36 140/140/41
f 141/141/1 143/142/1 142/143/1
f 144/144/3 146/145/3 145/146/3
f 147/147/1 149/148/1 148/149/1
f 150/150/3 152/151/3 151/152/3
f 153/153/3 155/154/3 154/155/3
f 156/156/3 158/157/3 157/158/3
f 159/159/42 161/160/42 160/161/42
f 162/162/3 164/163/3 163/164/3
f 165/165/42 167/166/42 166/167/42
f 168/168/3 170/169/3 169/170/3
f 171/171/11 173/172/11 172/173/11
f 174/174/3 176/175/3 175/176/3
