# Blender v3.6.3 OBJ File: 'untitled.blend'
# www.blender.org
mtllib Mesh_0139.mtl
o Mesh_0139_Mesh.132
v 69.135422 27.211052 17.828751
v 69.135422 27.222559 15.127625
v 69.135422 27.911104 17.828751
v 69.135422 27.911104 15.127625
v 69.135422 27.911104 15.127625
v 69.962753 28.417097 15.519951
v 69.135422 27.911104 17.828751
v 69.962753 28.417097 17.436447
v 69.135468 27.211056 5.128754
v 69.135468 27.222561 2.427620
v 69.135468 27.911106 5.128754
v 69.135468 27.911106 2.427620
v 69.135468 27.911106 2.427620
v 69.962814 28.417099 2.819954
v 69.135468 27.911106 5.128754
v 69.962814 28.417099 4.736450
v 69.135468 27.211056 -7.571247
v 69.135468 27.222561 -10.272381
v 69.135468 27.911106 -7.571247
v 69.135468 27.911106 -10.272381
v 69.135468 27.911106 -10.272381
v 69.962814 28.417099 -9.880047
v 69.135468 27.911106 -7.571247
v 69.962814 28.417099 -7.963558
v 69.135422 27.211056 -20.271248
v 69.135422 27.222561 -22.972378
v 69.135422 27.911104 -20.271248
v 69.135422 27.911104 -22.972378
v 69.135422 27.911104 -22.972378
v 69.962753 28.417097 -22.580048
v 69.135422 27.911104 -20.271248
v 69.962753 28.417097 -20.663555
vt 0.681641 0.488281
vt 0.342773 0.488281
vt 0.681641 -0.497070
vt 0.342773 -0.497070
vt 0.342773 -0.497070
vt 0.342773 0.488281
vt -0.012695 -0.497070
vt -0.012695 0.488281
vt 0.681641 0.488281
vt 0.342773 0.488281
vt 0.681641 -0.497070
vt 0.342773 -0.497070
vt 0.342773 -0.497070
vt 0.342773 0.488281
vt -0.012695 -0.497070
vt -0.012695 0.488281
vt 0.681641 0.488281
vt 0.342773 0.488281
vt 0.681641 -0.497070
vt 0.342773 -0.497070
vt 0.342773 -0.497070
vt 0.342773 0.488281
vt -0.012695 -0.497070
vt -0.012695 0.488281
vt 0.681641 0.488281
vt 0.342773 0.488281
vt 0.681641 -0.497070
vt 0.342773 -0.497070
vt 0.342773 -0.497070
vt 0.342773 0.488281
vt -0.012695 -0.497070
vt -0.012695 0.488281
vn -1.0000 0.0000 0.0000
vn -0.5217 0.8531 0.0000
vn -0.5218 0.8531 0.0000
usemtl Tex_0037_1.dds
s off
f 1/1/1 3/2/1 2/3/1
f 2/3/1 3/2/1 4/4/1
f 5/5/2 7/6/2 6/7/2
f 6/7/3 7/6/3 8/8/3
f 9/9/1 11/10/1 10/11/1
f 10/11/1 11/10/1 12/12/1
f 13/13/2 15/14/2 14/15/2
f 14/15/3 15/14/3 16/16/3
f 17/17/1 19/18/1 18/19/1
f 18/19/1 19/18/1 20/20/1
f 21/21/2 23/22/2 22/23/2
f 22/23/2 23/22/2 24/24/2
f 25/25/1 27/26/1 26/27/1
f 26/27/1 27/26/1 28/28/1
f 29/29/2 31/30/2 30/31/2
f 30/31/3 31/30/3 32/32/3
