# Blender v3.6.3 OBJ File: 'untitled.blend'
# www.blender.org
mtllib Mesh_0323.mtl
o Mesh_0323_Mesh.204
v -14.684585 32.184082 -33.051804
v -12.144585 30.479994 -35.591805
v -14.684585 32.184078 -38.131802
v -12.144585 30.479994 -38.131802
v -12.144585 30.479992 -40.671803
v -12.144585 30.479994 -35.591805
v -10.557085 27.939995 -37.179302
v -12.144585 30.479994 -38.131802
v -10.557085 27.939995 -38.131805
v -10.557085 27.939995 -39.084305
v -14.684585 32.184078 -43.211803
v -17.224585 30.479992 -40.671803
v -14.684585 32.184078 -38.131802
v -17.224585 30.479994 -38.131802
v -17.224585 30.479994 -35.591805
v -17.224585 30.479992 -40.671803
v -18.812084 27.939995 -39.084305
v -17.224585 30.479994 -38.131802
v -18.812084 27.939995 -38.131805
v -18.812084 27.939995 -37.179302
v -14.684585 32.184082 -33.051804
v -19.764584 32.184082 -33.051804
v -17.224585 30.479994 -30.511803
v -19.764584 30.479994 -30.511803
v -19.764584 27.939995 -28.924305
v -18.812084 27.939995 -28.924305
v -19.764584 30.479994 -30.511803
v -17.224585 30.479994 -30.511803
v -14.684585 32.184082 -33.051804
v -17.224585 30.479994 -30.511803
v -14.684585 32.184078 -27.971806
v -17.224585 30.479992 -27.971806
v -17.224585 30.479994 -30.511803
v -18.812084 27.939995 -28.924305
v -17.224585 30.479992 -27.971806
v -18.812084 27.939993 -27.971806
v -14.684585 32.184082 -33.051804
v -17.224585 30.479994 -35.591805
v -19.764584 32.184082 -33.051804
v -19.764584 30.479994 -35.591805
v -19.764584 27.939995 -37.179302
v -19.764584 30.479994 -35.591805
v -18.812084 27.939995 -37.179302
v -17.224585 30.479994 -35.591805
v -18.812084 27.939995 -37.179302
v -18.812084 27.939995 -38.131805
v -19.764584 25.399994 -38.131805
v -18.812084 27.939995 -39.084305
v -14.684585 32.184082 -33.051804
v -9.604584 32.184082 -33.051804
v -12.144585 30.479994 -35.591805
v -9.604584 30.479994 -35.591805
v -9.604584 27.939995 -37.179302
v -10.557085 27.939995 -37.179302
v -9.604584 30.479994 -35.591805
v -12.144585 30.479994 -35.591805
v -10.557085 27.939995 -37.179302
v -9.604584 25.399994 -38.131805
v -10.557085 27.939995 -38.131805
v -10.557085 27.939995 -39.084305
v -14.684585 32.184082 -33.051804
v -12.144585 30.479994 -30.511803
v -9.604584 32.184082 -33.051804
v -9.604584 30.479994 -30.511803
v -9.604584 27.939995 -28.924305
v -9.604584 30.479994 -30.511803
v -10.557085 27.939995 -28.924305
v -12.144585 30.479994 -30.511803
v -14.684585 32.184082 -33.051804
v -14.684585 32.184078 -27.971806
v -12.144585 30.479994 -30.511803
v -12.144585 30.479992 -27.971806
v -12.144585 30.479994 -30.511803
v -12.144585 30.479992 -27.971806
v -10.557085 27.939995 -28.924305
v -10.557085 27.939993 -27.971806
v -14.684585 32.184078 -43.211803
v -19.764584 32.184078 -43.211803
v -17.224585 30.479992 -40.671803
v -19.764584 30.479992 -40.671803
v -19.764584 27.939995 -39.084305
v -18.812084 27.939995 -39.084305
v -19.764584 30.479992 -40.671803
v -17.224585 30.479992 -40.671803
v -14.684585 32.184078 -43.211803
v -17.224585 30.479994 -45.751801
v -19.764584 32.184078 -43.211803
v -19.764584 30.479994 -45.751801
v -19.764584 27.939995 -47.339302
v -19.764584 30.479994 -45.751801
v -18.812084 27.939995 -47.339302
v -17.224585 30.479994 -45.751801
v -14.684585 32.184078 -43.211803
v -14.684585 32.184078 -48.291801
v -17.224585 30.479994 -45.751801
v -17.224585 30.479994 -48.291801
v -17.224585 30.479994 -45.751801
v -17.224585 30.479994 -48.291801
v -18.812084 27.939995 -47.339302
v -18.812084 27.939995 -48.291801
v -14.684585 32.184078 -43.211803
v -9.604584 32.184078 -43.211803
v -12.144585 30.479994 -45.751801
v -9.604584 30.479994 -45.751801
v -9.604584 27.939995 -47.339302
v -10.557085 27.939995 -47.339302
v -9.604584 30.479994 -45.751801
v -12.144585 30.479994 -45.751801
v -14.684585 32.184078 -43.211803
v -12.144585 30.479994 -45.751801
v -14.684585 32.184078 -48.291801
v -12.144585 30.479994 -48.291801
v -12.144585 30.479994 -45.751801
v -10.557085 27.939995 -47.339302
v -12.144585 30.479994 -48.291801
v -10.557085 27.939995 -48.291801
v -14.684585 32.184078 -43.211803
v -12.144585 30.479992 -40.671803
v -9.604584 32.184078 -43.211803
v -9.604584 30.479992 -40.671803
v -9.604584 27.939995 -39.084305
v -9.604584 30.479992 -40.671803
v -10.557085 27.939995 -39.084305
v -12.144585 30.479992 -40.671803
v -19.764584 25.399992 -27.971806
v -18.812084 27.939993 -27.971806
v -18.812084 27.939995 -28.924305
v -19.764584 25.399992 -27.971806
v -18.812084 27.939995 -28.924305
v -19.764584 27.939995 -28.924305
v -14.684585 32.184078 -38.131802
v -17.224585 30.479994 -35.591805
v -14.684585 32.184082 -33.051804
v -17.224585 30.479994 -38.131802
v -18.812084 27.939995 -37.179302
v -17.224585 30.479994 -35.591805
v -18.812084 27.939995 -37.179302
v -19.764584 25.399994 -38.131805
v -19.764584 27.939995 -37.179302
v -9.604584 25.399994 -38.131805
v -10.557085 27.939995 -37.179302
v -9.604584 27.939995 -37.179302
v -10.557085 27.939993 -27.971806
v -9.604584 25.399992 -27.971806
v -10.557085 27.939995 -28.924305
v -10.557085 27.939995 -28.924305
v -9.604584 25.399992 -27.971806
v -9.604584 27.939995 -28.924305
v -19.764584 25.399994 -38.131805
v -18.812084 27.939995 -39.084305
v -19.764584 27.939995 -39.084305
v -18.812084 27.939995 -48.291801
v -19.764584 25.399994 -48.291801
v -18.812084 27.939995 -47.339302
v -18.812084 27.939995 -47.339302
v -19.764584 25.399994 -48.291801
v -19.764584 27.939995 -47.339302
v -9.604584 25.399994 -48.291801
v -10.557085 27.939995 -48.291801
v -10.557085 27.939995 -47.339302
v -9.604584 25.399994 -48.291801
v -10.557085 27.939995 -47.339302
v -9.604584 27.939995 -47.339302
v -14.684585 32.184078 -38.131802
v -12.144585 30.479992 -40.671803
v -14.684585 32.184078 -43.211803
v -12.144585 30.479994 -38.131802
v -10.557085 27.939995 -39.084305
v -12.144585 30.479992 -40.671803
v -10.557085 27.939995 -39.084305
v -9.604584 25.399994 -38.131805
v -9.604584 27.939995 -39.084305
vt 0.000000 0.000000
vt 0.999939 -0.001343
vt 0.000000 -0.999939
vt 0.999939 -0.999939
vt 0.000000 -0.999939
vt 0.000000 -0.000366
vt 0.998413 0.000000
vt 0.000000 -0.999939
vt 0.999939 -0.999939
vt 0.000000 -0.999939
vt 0.000000 0.000000
vt 0.999939 -0.001343
vt 0.000000 -0.999939
vt 0.999939 -0.999939
vt 0.000000 -0.999939
vt 0.000000 -0.000366
vt 0.998413 0.000000
vt 0.000000 -0.999939
vt 0.999939 -0.999939
vt 0.000000 -0.999939
vt 0.999939 -0.999939
vt 0.000000 -0.999939
vt 0.999939 0.000000
vt 0.000000 0.000000
vt 0.999939 -0.999939
vt 0.000183 -0.999939
vt 0.999939 0.000000
vt 0.000000 0.000000
vt 0.000000 0.000000
vt 0.999939 -0.001343
vt 0.000000 -0.999939
vt 0.999939 -0.999939
vt 0.000000 -0.000366
vt 0.998413 0.000000
vt 0.000000 -0.999939
vt 0.999939 -0.999939
vt 0.999939 -0.999939
vt 0.999939 0.000000
vt 0.000000 -0.999939
vt 0.000000 0.000000
vt 0.999939 -0.999939
vt 0.999939 0.000000
vt 0.000183 -0.999939
vt 0.000000 0.000000
vt 0.000000 0.000000
vt 0.000000 -0.999939
vt 0.999939 0.000000
vt 0.000000 0.000000
vt 0.999939 -0.999939
vt 0.000000 -0.999939
vt 0.999939 0.000000
vt 0.000000 0.000000
vt 0.999939 -0.999939
vt 0.000183 -0.999939
vt 0.999939 0.000000
vt 0.000000 0.000000
vt 0.000000 0.000000
vt 0.999939 0.000000
vt 0.000000 -0.999939
vt 0.000000 0.000000
vt 0.999939 -0.999939
vt 0.999939 0.000000
vt 0.000000 -0.999939
vt 0.000000 0.000000
vt 0.999939 -0.999939
vt 0.999939 0.000000
vt 0.000183 -0.999939
vt 0.000000 0.000000
vt 0.000000 0.000000
vt 0.000000 -0.999939
vt 0.999939 -0.001343
vt 0.999939 -0.999939
vt 0.000000 -0.000366
vt 0.000000 -0.999939
vt 0.998413 0.000000
vt 0.999939 -0.999939
vt 0.999939 -0.999939
vt 0.000000 -0.999939
vt 0.999939 0.000000
vt 0.000000 0.000000
vt 0.999939 -0.999939
vt 0.000183 -0.999939
vt 0.999939 0.000000
vt 0.000000 0.000000
vt 0.999939 -0.999939
vt 0.999939 0.000000
vt 0.000000 -0.999939
vt 0.000000 0.000000
vt 0.999939 -0.999939
vt 0.999939 0.000000
vt 0.000183 -0.999939
vt 0.000000 0.000000
vt 0.000000 0.000000
vt 0.000000 -0.999939
vt 0.999939 -0.001343
vt 0.999939 -0.999939
vt 0.000000 -0.000366
vt 0.000000 -0.999939
vt 0.998413 0.000000
vt 0.999939 -0.999939
vt 0.999939 -0.999939
vt 0.000000 -0.999939
vt 0.999939 0.000000
vt 0.000000 0.000000
vt 0.999939 -0.999939
vt 0.000183 -0.999939
vt 0.999939 0.000000
vt 0.000000 0.000000
vt 0.000000 0.000000
vt 0.999939 -0.001343
vt 0.000000 -0.999939
vt 0.999939 -0.999939
vt 0.000000 -0.000366
vt 0.998413 0.000000
vt 0.000000 -0.999939
vt 0.999939 -0.999939
vt 0.999939 -0.999939
vt 0.999939 0.000000
vt 0.000000 -0.999939
vt 0.000000 0.000000
vt 0.999939 -0.999939
vt 0.999939 0.000000
vt 0.000183 -0.999939
vt 0.000000 0.000000
vt 0.000000 -0.999939
vt 0.000000 0.000000
vt 0.999939 0.000000
vt 0.000000 0.000000
vt 0.999939 0.000000
vt 0.999939 -0.999939
vt 0.999939 -0.001343
vt 0.000000 0.000000
vt 0.000000 -0.999939
vt 0.998413 0.000000
vt 0.000000 -0.000366
vt 0.000000 -0.999939
vt 0.999939 -0.999939
vt 0.999939 0.000000
vt 0.000000 0.000000
vt 0.000000 0.000000
vt 0.999939 0.000000
vt 0.999939 -0.999939
vt 0.999939 0.000000
vt 0.000000 0.000000
vt 0.000000 -0.999939
vt 0.999939 -0.999939
vt 0.999939 0.000000
vt 0.000000 0.000000
vt 0.000000 0.000000
vt 0.999939 0.000000
vt 0.999939 -0.999939
vt 0.999939 0.000000
vt 0.000000 0.000000
vt 0.000000 -0.999939
vt 0.999939 -0.999939
vt 0.999939 0.000000
vt 0.000000 0.000000
vt 0.000000 -0.999939
vt 0.000000 0.000000
vt 0.999939 0.000000
vt 0.000000 0.000000
vt 0.999939 0.000000
vt 0.999939 -0.999939
vt 0.999939 -0.001343
vt 0.000000 0.000000
vt 0.000000 -0.999939
vt 0.998413 0.000000
vt 0.000000 -0.000366
vt 0.000000 -0.999939
vt 0.999939 -0.999939
vt 0.999939 0.000000
vt 0.000000 0.000000
vn -0.5571 -0.8304 0.0000
vn -0.8480 -0.5300 0.0000
vn 0.5571 -0.8304 0.0000
vn 0.8480 -0.5300 0.0000
vn 0.0000 -0.8304 -0.5571
vn 0.0000 -0.5300 -0.8480
vn 0.0000 -0.8304 0.5571
vn 0.0000 -0.5300 0.8480
vn 0.9363 -0.3511 0.0000
vn -0.9363 -0.3511 0.0000
vn 0.0000 -0.3511 -0.9363
vn 0.0000 -0.3511 0.9363
usemtl Tex_0092_1.dds.002
s off
f 1/1/1 3/2/1 2/3/1
f 2/3/1 3/2/1 4/4/1
f 3/2/1 5/5/1 4/4/1
f 6/6/2 8/7/2 7/8/2
f 7/8/2 8/7/2 9/9/2
f 8/7/2 10/10/2 9/9/2
f 11/11/3 13/12/3 12/13/3
f 12/13/3 13/12/3 14/14/3
f 13/12/3 15/15/3 14/14/3
f 16/16/4 18/17/4 17/18/4
f 17/18/4 18/17/4 19/19/4
f 18/17/4 20/20/4 19/19/4
f 21/21/5 23/22/5 22/23/5
f 22/23/5 23/22/5 24/24/5
f 25/25/6 27/26/6 26/27/6
f 26/27/6 27/26/6 28/28/6
f 29/29/3 31/30/3 30/31/3
f 30/31/3 31/30/3 32/32/3
f 33/33/4 35/34/4 34/35/4
f 34/35/4 35/34/4 36/36/4
f 37/37/7 39/38/7 38/39/7
f 38/39/7 39/38/7 40/40/7
f 41/41/8 43/42/8 42/43/8
f 42/43/8 43/42/8 44/44/8
f 45/45/9 47/46/9 46/47/9
f 46/47/9 47/46/9 48/48/9
f 49/49/7 51/50/7 50/51/7
f 50/51/7 51/50/7 52/52/7
f 53/53/8 55/54/8 54/55/8
f 54/55/8 55/54/8 56/56/8
f 57/57/10 59/58/10 58/59/10
f 58/59/10 59/58/10 60/60/10
f 61/61/5 63/62/5 62/63/5
f 62/63/5 63/62/5 64/64/5
f 65/65/6 67/66/6 66/67/6
f 66/67/6 67/66/6 68/68/6
f 69/69/1 71/70/1 70/71/1
f 70/71/1 71/70/1 72/72/1
f 73/73/2 75/74/2 74/75/2
f 74/75/2 75/74/2 76/76/2
f 77/77/5 79/78/5 78/79/5
f 78/79/5 79/78/5 80/80/5
f 81/81/6 83/82/6 82/83/6
f 82/83/6 83/82/6 84/84/6
f 85/85/7 87/86/7 86/87/7
f 86/87/7 87/86/7 88/88/7
f 89/89/8 91/90/8 90/91/8
f 90/91/8 91/90/8 92/92/8
f 93/93/3 95/94/3 94/95/3
f 94/95/3 95/94/3 96/96/3
f 97/97/4 99/98/4 98/99/4
f 98/99/4 99/98/4 100/100/4
f 101/101/7 103/102/7 102/103/7
f 102/103/7 103/102/7 104/104/7
f 105/105/8 107/106/8 106/107/8
f 106/107/8 107/106/8 108/108/8
f 109/109/1 111/110/1 110/111/1
f 110/111/1 111/110/1 112/112/1
f 113/113/2 115/114/2 114/115/2
f 114/115/2 115/114/2 116/116/2
f 117/117/5 119/118/5 118/119/5
f 118/119/5 119/118/5 120/120/5
f 121/121/6 123/122/6 122/123/6
f 122/123/6 123/122/6 124/124/6
f 125/125/9 127/126/9 126/127/9
f 128/128/11 130/129/11 129/130/11
f 131/131/3 133/132/3 132/133/3
f 134/134/4 136/135/4 135/136/4
f 137/137/12 139/138/12 138/139/12
f 140/140/12 142/141/12 141/142/12
f 143/143/10 145/144/10 144/145/10
f 146/146/11 148/147/11 147/148/11
f 149/149/11 151/150/11 150/151/11
f 152/152/9 154/153/9 153/154/9
f 155/155/12 157/156/12 156/157/12
f 158/158/10 160/159/10 159/160/10
f 161/161/12 163/162/12 162/163/12
f 164/164/1 166/165/1 165/166/1
f 167/167/2 169/168/2 168/169/2
f 170/170/11 172/171/11 171/172/11
