# Blender v3.6.3 OBJ File: 'untitled.blend'
# www.blender.org
mtllib Mesh_0302.mtl
o Mesh_0302_Mesh.084
v -9.854275 8.338730 12.413658
v -9.854275 10.159986 12.413658
v -9.982704 8.411527 12.540916
v -9.982706 10.159986 12.540916
v -9.982700 8.484323 12.668190
v -9.982706 10.159986 12.668190
v -9.982706 10.159986 12.795471
v -9.604586 2.063739 7.831871
v -9.854277 2.063739 7.831871
v -9.604584 7.354354 7.831871
v -9.854275 7.354354 7.831871
v -9.604584 8.340077 8.127090
v -9.854275 8.340077 8.127090
v -9.854275 9.114778 8.640526
v -9.854275 9.114778 16.695862
v -9.854275 8.340076 17.209290
v -9.604584 8.340076 17.209290
v -9.854275 7.354354 17.504509
v -9.604584 7.354354 17.504509
v -9.854277 2.063739 17.504509
v -9.604586 2.063739 17.504509
v -9.982735 1.862648 7.588226
v -9.982748 10.159986 7.588234
v -9.982706 1.862648 7.698059
v -9.982706 10.159986 7.698059
v -9.854275 7.354354 7.831871
v -9.854275 10.159987 7.831871
v -9.854275 10.067328 10.128189
v -9.854275 9.677488 10.926086
v -9.604584 9.677488 10.926086
v -9.854275 9.114777 11.615868
v -9.604584 9.114777 11.615868
v -9.604584 8.340076 12.129272
v -9.604584 9.677488 14.410301
v -9.604584 9.114777 13.720512
v -9.854275 9.114777 13.720512
v -9.604584 8.340076 13.207108
v -9.854279 8.340076 13.207108
v -9.854271 8.188896 13.169846
v -9.854275 10.067328 15.208191
v -9.854275 9.677488 16.016945
v -9.604584 9.677488 16.016945
v -9.854275 9.114778 16.695862
v -9.604584 9.114778 16.695862
v -9.604584 8.340076 17.209290
v -9.854275 9.114777 11.615868
v -9.854279 8.340076 12.129272
v -9.604584 8.340076 12.129272
v -9.854271 8.188896 12.166542
v -9.604580 8.188896 12.166977
v -9.604584 9.114778 8.640526
v -9.854275 9.114778 8.640526
v -9.604584 9.677488 9.319443
v -9.854275 9.677488 9.319443
v -9.854275 10.067328 10.128189
v -9.982712 10.159986 17.748192
v -9.982706 1.862648 17.638329
v -9.982706 10.159986 17.638329
v -9.854275 7.354354 17.504509
v -9.854275 10.159986 17.504509
v -9.854275 9.114777 13.720512
v -9.854275 9.677488 14.410301
v -9.604584 9.677488 14.410301
v -9.854275 10.067328 15.208191
v -9.604584 10.067328 15.208191
v -9.982700 8.484323 12.668190
v -9.982706 10.159986 12.795471
v -9.982704 8.411527 12.795471
v -9.854275 10.159986 12.922722
v -9.854275 8.338730 12.922722
v -9.604584 2.063738 7.272812
v -9.604584 10.159986 7.272812
v -9.854267 2.063738 7.272812
v -9.854267 10.159986 7.272812
v -9.982735 1.862648 7.588226
v -9.854267 2.063738 7.272812
v -9.982748 10.159986 7.588234
v -9.854267 10.159986 7.272812
v -9.604584 10.159986 5.297966
v -9.604584 2.063738 5.297966
v -9.854267 10.159986 5.297966
v -9.854267 2.063738 5.297966
v -9.604584 10.020769 18.065689
v -9.604584 1.865440 18.065689
v -9.854267 10.020769 18.065689
v -9.854267 1.865440 18.065689
v -9.982712 10.159986 17.748192
v -9.854267 10.020769 18.065689
v -9.982710 1.862647 17.748192
v -9.854267 1.865440 18.065689
v -9.982714 -0.677349 22.828194
v -9.854267 -0.317827 22.514252
v -9.982714 7.619987 22.828194
v -9.854267 7.782040 22.514252
v -9.604584 7.782040 22.514252
v -9.854267 7.782040 22.514252
v -9.604584 -0.317827 22.514252
v -9.854267 -0.317827 22.514252
v -9.604584 9.677488 10.926086
v -9.604584 10.067328 10.128189
v -9.854275 10.067328 10.128189
v -9.854275 10.067328 10.128189
v -9.604584 10.067328 10.128189
v -9.604584 9.677488 9.319443
v -9.854275 9.114778 8.640526
v -9.604584 9.114778 8.640526
v -9.604584 8.340077 8.127090
v -9.982706 1.862648 7.698059
v -9.854275 7.354354 7.831871
v -9.854277 2.063739 7.831871
v -9.982706 1.862648 17.638329
v -9.982712 10.159986 17.748192
v -9.982710 1.862647 17.748192
v -9.604584 10.067328 15.208191
v -9.854275 10.067328 15.208191
v -9.604584 9.677488 16.016945
v -9.854275 7.354354 17.504509
v -9.982706 1.862648 17.638329
v -9.854277 2.063739 17.504509
v -9.854271 8.188896 13.169846
v -9.604584 8.340076 13.207108
v -9.604580 8.188896 13.169403
vt 2.235352 -0.375000
vt 2.613281 -0.342773
vt 2.235352 0.434570
vt 2.613281 0.434570
vt 2.992188 -0.310547
vt 2.992188 0.434570
vt 2.613281 0.434570
vt -5.995117 -1.178711
vt -5.995117 1.160156
vt -5.807617 -1.178711
vt -5.807617 1.160156
vt -5.995117 1.643555
vt -5.807617 1.643555
vt -5.807617 1.964844
vt -5.807617 1.964844
vt -5.995117 1.643555
vt -5.807617 1.643555
vt -5.807617 1.160156
vt -5.995117 1.160156
vt -5.807617 -1.178711
vt -5.995117 -1.178711
vt -4.995117 -1.275391
vt -5.361328 -1.274414
vt -4.995117 2.439453
vt -5.357422 2.439453
vt -5.807617 1.167969
vt -5.807617 2.436523
vt -2.807617 1.723633
vt -2.998047 1.450195
vt -2.807617 1.450195
vt -2.807617 1.054688
vt -2.998047 1.054688
vt -2.998047 0.511719
vt -2.998047 1.450195
vt -2.807617 1.054688
vt -2.998047 1.054688
vt -2.998047 0.511719
vt -2.807617 0.511719
vt -2.807617 0.405273
vt -5.807617 2.801758
vt -5.995117 2.360352
vt -5.807617 2.360352
vt -5.807617 1.964844
vt -5.995117 1.964844
vt -5.995117 1.643555
vt -2.807617 1.054688
vt -2.998047 0.511719
vt -2.807617 0.511719
vt -2.807617 0.405273
vt -2.998047 0.405273
vt -5.995117 1.964844
vt -5.995117 2.360352
vt -5.807617 1.964844
vt -5.807617 2.360352
vt -5.807617 2.801758
vt -4.995117 2.439453
vt -5.357422 2.439453
vt -5.361328 -1.274414
vt -5.807617 1.167969
vt -5.807617 2.436523
vt -2.807617 1.054688
vt -2.998047 1.450195
vt -2.807617 1.450195
vt -2.807617 1.723633
vt -2.998047 1.723633
vt 2.992188 -0.310547
vt 2.613281 -0.342773
vt 2.613281 0.434570
vt 2.235352 0.434570
vt 2.235352 -0.375000
vt 2.000000 -3.171875
vt 2.235352 -3.171875
vt 2.000000 0.434570
vt 2.235352 0.434570
vt 2.992188 -3.258789
vt 2.992188 0.434570
vt 2.235352 -3.171875
vt 2.235352 0.434570
vt 2.000000 0.434570
vt 2.235352 0.434570
vt 2.000000 -3.171875
vt 2.235352 -3.171875
vt 5.995117 0.373047
vt 6.163086 0.373047
vt 5.995117 -3.266602
vt 6.163086 -3.266602
vt 6.994141 0.435547
vt 6.994141 -3.262695
vt 6.163086 0.373047
vt 6.163086 -3.266602
vt 4.994141 -3.258789
vt 4.994141 0.437500
vt 4.160156 -3.089844
vt 4.160156 0.512695
vt 3.995117 0.512695
vt 3.995117 -3.089844
vt 4.160156 0.512695
vt 4.160156 -3.089844
vt -2.998047 1.450195
vt -2.807617 1.723633
vt -2.998047 1.723633
vt -5.807617 2.801758
vt -5.995117 2.360352
vt -5.995117 2.801758
vt -5.807617 1.964844
vt -5.995117 1.643555
vt -5.995117 1.964844
vt -5.361328 -1.274414
vt -5.807617 -1.178711
vt -5.807617 1.167969
vt -5.361328 -1.274414
vt -4.995117 -1.275391
vt -4.995117 2.439453
vt -5.995117 2.801758
vt -5.995117 2.360352
vt -5.807617 2.801758
vt -5.807617 1.167969
vt -5.807617 -1.178711
vt -5.361328 -1.274414
vt -2.807617 0.405273
vt -2.998047 0.405273
vt -2.998047 0.511719
vn -0.7039 0.0000 -0.7103
vn -0.7682 -0.2450 -0.5915
vn -0.7035 0.0331 -0.7100
vn -0.8731 -0.4232 0.2421
vn -1.0000 -0.0000 0.0000
vn -0.7270 0.0520 0.6847
vn 0.0000 0.0000 1.0000
vn 0.0380 0.0000 0.9993
vn 0.0000 -0.2869 0.9580
vn -0.0314 -0.4084 0.9123
vn 0.0590 -0.0447 0.9973
vn -0.1294 -0.2543 0.9584
vn 0.1466 -0.2838 0.9476
vn -0.1545 -0.5799 0.7999
vn 0.0000 -0.5524 0.8336
vn 0.1466 -0.5465 0.8245
vn 0.0000 -0.5524 -0.8336
vn -0.1545 -0.5799 -0.7999
vn 0.1466 -0.5465 -0.8246
vn 0.1466 -0.2838 -0.9476
vn -0.1294 -0.2543 -0.9584
vn 0.0342 -0.1489 -0.9883
vn -0.0314 -0.4084 -0.9123
vn -0.1450 -0.2839 -0.9478
vn 0.1409 -0.3166 -0.9380
vn 0.1450 0.0000 -0.9894
vn -0.1448 0.0068 -0.9894
vn 0.0000 0.0000 -1.0000
vn -0.0068 -0.1448 -0.9894
vn -1.0000 -0.0000 0.0003
vn -0.9999 -0.0147 0.0005
vn -1.0000 -0.0000 -0.0002
vn -1.0000 0.0000 0.0004
vn -0.9999 -0.0002 -0.0141
vn -0.9278 0.3730 0.0003
vn -0.0562 -0.0230 0.9982
vn -0.7215 0.0000 0.6925
vn -0.4117 0.0246 0.9110
vn -0.6864 0.3722 0.6247
vn 0.0000 -0.8985 -0.4390
vn -0.1209 -0.9063 -0.4050
vn 0.1147 -0.8926 -0.4361
vn 0.1147 -0.7698 -0.6280
vn -0.0998 -0.7530 -0.6504
vn 0.0368 -0.6846 -0.7279
vn -0.0280 -0.8338 -0.5514
vn -0.1501 -0.7661 -0.6250
vn 0.1313 -0.7909 -0.5977
vn 0.1581 -0.5095 -0.8458
vn -0.1501 -0.5462 -0.8241
vn 0.0000 -0.7749 0.6321
vn 0.1582 -0.7924 0.5891
vn -0.1501 -0.7661 0.6250
vn -0.1501 -0.5462 0.8241
vn 0.1311 -0.5179 0.8453
vn -0.0232 -0.4783 0.8779
vn 0.0352 -0.6566 0.7534
vn 0.1709 -0.5443 0.8213
vn -0.0862 -0.5695 0.8174
vn -0.1331 -0.0245 0.9908
vn 0.1709 -0.2358 0.9567
vn 0.0000 -0.2393 0.9709
vn 0.0000 -0.9008 -0.4342
vn -0.1277 -0.9083 -0.3984
vn 0.1212 -0.8942 -0.4310
vn 0.1212 -0.7642 -0.6334
vn -0.1055 -0.7462 -0.6573
vn 0.0362 -0.6815 -0.7309
vn -0.0299 -0.8326 -0.5530
vn -0.1462 -0.7616 -0.6313
vn 0.1278 -0.7862 -0.6046
vn 0.1541 -0.5109 -0.8458
vn -0.1462 -0.5465 -0.8246
vn -0.1790 -0.5834 -0.7922
vn 0.1709 -0.5443 -0.8213
vn 0.1710 -0.2358 -0.9566
vn -0.0822 -0.1073 -0.9908
vn -0.0011 -0.2394 -0.9709
vn -0.1280 -0.3189 -0.9391
vn 0.0017 -0.2420 -0.9703
vn 0.0017 -0.2440 -0.9698
vn 0.0000 -0.7699 0.6381
vn -0.0299 -0.8326 0.5530
vn -0.1055 -0.7462 0.6573
vn 0.1212 -0.7642 0.6334
vn -0.1277 -0.9083 0.3984
vn 0.0000 -0.9008 0.4342
vn 0.1212 -0.8942 0.4310
vn -1.0000 0.0000 -0.0001
vn -0.9278 0.3732 -0.0000
vn -0.8493 -0.0070 0.5279
vn -0.5625 -0.0070 -0.8268
vn -0.4116 0.0246 -0.9111
vn -0.7215 0.0000 -0.6924
vn -0.6864 0.3723 -0.6247
vn -0.1209 -0.7473 0.6534
vn 0.1147 -0.7698 0.6280
vn 0.1147 -0.8926 0.4361
vn -0.0998 -0.9060 0.4114
vn 0.0000 -0.8985 0.4390
vn -0.0281 -0.8498 0.5263
vn -0.8681 -0.4310 -0.2465
vn -0.7270 0.0520 -0.6847
vn -0.7034 0.0331 0.7100
vn -0.4895 -0.0275 0.8716
vn -0.7038 -0.0000 0.7104
vn -0.7669 -0.2363 0.5967
vn -0.9261 -0.0000 -0.3772
vn -0.9270 -0.0000 0.3750
vn -0.9255 0.0000 -0.3787
vn 0.0017 -0.2420 0.9703
usemtl Tex_0030_0.dds.008
s off
f 1/1/1 3/2/2 2/3/1
f 2/3/1 3/2/1 4/4/3
f 3/2/4 5/5/5 4/4/6
f 4/4/5 5/5/5 6/6/5
f 5/5/5 7/7/5 6/6/5
f 8/8/7 10/9/7 9/10/7
f 9/10/7 10/9/7 11/11/8
f 10/9/9 12/12/10 11/11/9
f 11/11/11 12/12/12 13/13/13
f 12/12/14 14/14/15 13/13/16
f 15/15/17 17/16/18 16/17/19
f 16/17/20 17/16/21 18/18/22
f 17/16/23 19/19/24 18/18/25
f 18/18/26 19/19/27 20/20/28
f 19/19/29 21/21/28 20/20/28
f 22/22/30 24/23/31 23/24/32
f 23/24/33 24/23/34 25/25/35
f 24/23/36 26/26/37 25/25/38
f 25/25/39 26/26/37 27/27/37
f 28/28/40 30/29/41 29/30/42
f 29/30/43 30/29/44 31/31/45
f 30/29/46 32/32/47 31/31/48
f 31/31/49 32/32/50 33/33/17
f 34/34/51 36/35/52 35/36/53
f 35/36/54 36/35/55 37/37/56
f 36/35/57 38/38/58 37/37/59
f 37/37/60 38/38/61 39/39/62
f 40/40/63 42/41/64 41/42/65
f 41/42/66 42/41/67 43/43/68
f 42/41/69 44/44/70 43/43/71
f 43/43/72 44/44/73 45/45/17
f 46/46/17 48/47/74 47/48/75
f 47/48/76 48/47/77 49/49/78
f 48/47/79 50/50/80 49/49/81
f 51/51/82 53/52/83 52/53/82
f 52/53/82 53/52/84 54/54/85
f 53/52/86 55/55/87 54/54/88
f 56/56/89 58/57/90 57/58/91
f 57/58/92 58/57/93 59/59/94
f 58/57/95 60/60/94 59/59/94
f 61/61/51 63/62/96 62/63/97
f 62/63/98 63/62/99 64/64/100
f 63/62/101 65/65/100 64/64/100
f 66/66/5 68/67/102 67/68/103
f 67/68/104 68/67/105 69/69/106
f 68/67/107 70/70/106 69/69/106
f 71/71/28 73/72/28 72/73/28
f 72/73/28 73/72/28 74/74/28
f 75/75/108 77/76/108 76/77/108
f 76/77/108 77/76/108 78/78/108
f 79/79/7 81/80/7 80/81/7
f 80/81/7 81/80/7 82/82/7
f 83/83/7 85/84/7 84/85/7
f 84/85/7 85/84/7 86/86/7
f 87/87/109 89/88/109 88/89/109
f 88/89/109 89/88/109 90/90/109
f 91/91/110 93/92/110 92/93/110
f 92/93/110 93/92/110 94/94/110
f 95/95/28 97/96/28 96/97/28
f 96/97/28 97/96/28 98/98/28
f 99/99/40 101/100/40 100/101/40
f 102/102/87 104/103/87 103/104/87
f 105/105/15 107/106/15 106/107/15
f 108/108/37 110/109/37 109/110/37
f 111/111/5 113/112/5 112/113/5
f 114/114/63 116/115/63 115/116/63
f 117/117/94 119/118/94 118/119/94
f 120/120/111 122/121/111 121/122/111
