# Blender v3.6.3 OBJ File: 'untitled.blend'
# www.blender.org
mtllib Mesh_0300.mtl
o Mesh_0300_Mesh.194
v -19.764633 0.001816 19.018196
v -19.764610 0.000901 17.748192
v -14.684634 0.001816 18.383194
v -9.604610 0.000901 17.748192
v -9.604633 0.001816 19.018196
v -14.684634 -0.676407 19.636177
v -19.764633 -0.633184 20.288193
v -19.764633 -0.633184 18.984154
v -9.604633 -0.633184 20.288193
v -14.684634 -0.676407 19.636177
v -9.604633 -0.633184 18.984154
v -14.684634 -1.311407 20.906174
v -19.764633 -1.268184 21.558189
v -19.764633 -1.268184 20.254158
v -9.604633 -1.268184 21.558189
v -14.684634 -1.311407 20.906174
v -9.604633 -1.268184 20.254158
v -14.684634 -1.946407 22.176170
v -19.764633 -1.903184 22.828194
v -19.764633 -1.903184 21.524155
v -9.604633 -1.903184 22.828194
v -14.684634 -1.946407 22.176170
v -9.604633 -1.903184 21.524155
vt 3.976562 -0.992188
vt 1.979492 -1.250000
vt 3.966797 -1.499023
vt -0.010742 -1.501953
vt -0.005859 -0.995117
vt 1.056641 -1.240234
vt 2.966797 -1.499023
vt 2.966797 -1.000000
vt -1.031250 -1.000000
vt -1.031250 -1.499023
vt 1.056641 -1.240234
vt 1.966797 0.706055
vt 4.002930 0.498047
vt 4.002930 0.998047
vt -0.030273 0.998047
vt -0.030273 0.498047
vt 1.966797 0.706055
vt 0.016602 -1.764648
vt 1.975586 -1.998047
vt 1.975586 -1.499023
vt -2.023438 -1.499023
vt -2.023438 -1.998047
vt 0.016602 -1.764648
vn -0.0001 1.0000 -0.0007
vn 0.0000 1.0000 -0.0014
vn -0.0000 1.0000 -0.0021
vn 0.0001 1.0000 -0.0007
vn 0.0085 1.0000 -0.0000
vn -0.0085 1.0000 -0.0000
usemtl Tex_0056_1.dds.005
s off
f 1/1/1 3/2/1 2/3/1
f 2/3/2 3/2/2 4/4/3
f 3/2/4 5/5/4 4/4/4
f 6/6/5 8/7/5 7/8/5
f 9/9/6 11/10/6 10/11/6
f 12/12/5 14/13/5 13/14/5
f 15/15/6 17/16/6 16/17/6
f 18/18/5 20/19/5 19/20/5
f 21/21/6 23/22/6 22/23/6
