# Blender v3.6.3 OBJ File: 'untitled.blend'
# www.blender.org
mtllib Mesh_0232.mtl
o Mesh_0232_Mesh.057
v -5.913647 1.123043 20.407272
v -6.508959 1.123043 20.407272
v -5.794584 0.574123 20.288193
v -8.334585 0.574123 20.288193
v -5.794584 -0.000013 20.288193
v -8.334585 -0.000013 20.288193
v 19.486349 1.123043 20.407272
v 18.891035 1.123043 20.407272
v 19.605413 0.574123 20.288193
v 17.065413 0.574123 20.288193
v 19.605413 -0.000013 20.288193
v 17.065413 -0.000013 20.288193
v 15.914476 1.123043 21.677238
v 15.914476 1.123042 22.272568
v 15.795412 0.574123 21.558189
v 15.795412 0.574123 22.828194
v 15.795412 -0.000013 21.558189
v 15.795412 -0.000013 22.828194
v 44.886360 3.663042 20.407257
v 44.291046 3.663042 20.407257
v 45.005417 3.114123 20.288193
v 42.465424 3.114123 20.288193
v 45.005417 2.539987 20.288193
v 42.465424 2.539987 20.288193
v 41.314484 3.663042 21.677246
v 41.314484 3.663042 22.272560
v 41.195419 3.114123 21.558182
v 41.195419 3.114123 22.828194
v 41.195419 2.539987 21.558182
v 41.195419 2.539987 22.828194
v 67.970108 3.655641 21.653328
v 67.319344 3.663042 21.677246
v 67.874969 3.114123 21.558182
v 66.604965 3.114123 21.558182
v 67.874969 2.539987 21.558182
v 66.604965 2.539987 21.558182
v 67.994034 3.663042 20.407272
v 67.994034 3.663042 21.002563
v 67.874969 3.114123 20.288193
v 67.874969 3.114123 21.558182
v 67.874969 2.539987 20.288193
v 67.874969 2.539987 21.558182
v 66.724030 3.663042 21.677246
v 66.724030 3.663042 22.272560
v 66.604965 3.114123 21.558182
v 66.604965 3.114123 22.828194
v 66.604965 2.539987 21.558182
v 66.604965 2.539987 22.828194
v -5.876715 1.115641 21.640327
v -5.913647 1.123043 21.002563
v -5.794584 0.574123 21.558189
v -5.913647 1.123043 20.407272
v -5.794584 0.574123 20.288193
v -4.524584 0.574123 21.558189
v -4.643646 1.123043 21.677269
v -5.794584 0.574123 21.558189
v -5.238960 1.123043 21.677269
v -5.876715 1.115641 21.640327
v -4.643646 1.123043 21.677269
v -4.524584 0.574123 21.558189
v -4.643646 1.123042 22.272568
v -4.524584 0.574123 22.828194
v -4.643646 1.123043 22.828194
v 19.523287 1.115641 21.640327
v 19.486349 1.123043 21.002563
v 19.605413 0.574123 21.558189
v 19.486349 1.123043 20.407272
v 19.605413 0.574123 20.288193
v 17.160559 1.115641 21.653313
v 16.509787 1.123043 21.677238
v 17.065413 0.574123 21.558189
v 15.914476 1.123043 21.677238
v 15.795412 0.574123 21.558189
v 20.875410 0.574123 21.558189
v 20.756350 1.123043 21.677269
v 19.605413 0.574123 21.558189
v 20.161036 1.123043 21.677269
v 19.523287 1.115641 21.640327
v 17.065413 0.574123 20.288193
v 17.184473 1.123043 20.407272
v 17.065413 0.574123 21.558189
v 17.184473 1.123043 21.002563
v 17.160559 1.115641 21.653313
v 20.756350 1.123043 21.677269
v 20.875410 0.574123 21.558189
v 20.756350 1.123042 22.272568
v 20.875410 0.574123 22.828194
v 20.756350 1.123043 22.828194
v 44.923294 3.655641 21.640320
v 44.886360 3.663042 21.002563
v 45.005417 3.114123 21.558189
v 44.886360 3.663042 20.407257
v 45.005417 3.114123 20.288193
v 42.560562 3.655641 21.653328
v 41.909798 3.663042 21.677246
v 42.465424 3.114123 21.558182
v 41.314484 3.663042 21.677246
v 41.195419 3.114123 21.558182
v 46.275421 3.114123 21.558189
v 46.156357 3.663042 21.677254
v 45.005417 3.114123 21.558189
v 45.561043 3.663042 21.677254
v 44.923294 3.655641 21.640320
v 42.465424 3.114123 20.288193
v 42.584480 3.663042 20.407272
v 42.465424 3.114123 21.558182
v 42.584480 3.663042 21.002563
v 42.560562 3.655641 21.653328
v 46.156357 3.663042 21.677254
v 46.275421 3.114123 21.558189
v 46.156357 3.663042 22.272568
v 46.275421 3.114123 22.828194
v 46.156357 3.663042 22.828194
v 67.994034 3.663042 20.407272
v 67.874969 3.114123 20.288193
v 68.589340 3.663042 20.407272
v 69.135422 3.114123 20.288193
v 69.135422 3.663042 20.407265
v -8.652084 35.559986 19.970695
v -8.652084 34.924984 19.970695
v -5.477085 35.559986 19.970695
v -5.477085 34.924984 19.970695
v -5.477085 35.559986 21.240692
v -5.477085 35.559986 19.970695
v -5.477085 34.924984 21.240692
v -5.477085 34.924984 19.970695
v -8.652084 35.559986 21.240692
v -8.652084 34.924984 21.240692
v -8.652084 35.559986 19.970695
v -8.652084 34.924984 19.970695
v -5.477085 35.559986 21.240692
v -5.477085 34.924984 21.240692
v -4.207085 35.559986 21.240692
v -4.207085 34.924984 21.240692
v -5.794584 -0.000013 21.558189
v -4.524584 -0.000013 21.558189
v -5.794584 0.574123 21.558189
v -4.524584 0.574123 21.558189
v -5.794584 -0.000013 21.558189
v -5.794584 0.574123 21.558189
v -5.794584 -0.000013 20.288193
v -5.794584 0.574123 20.288193
v -8.652084 34.924984 21.240692
v -8.652084 35.559986 21.240692
v -9.922085 34.924984 21.240692
v -9.922085 35.559986 21.240692
v -4.207085 35.559986 22.828194
v -4.207085 35.559986 21.240692
v -4.207085 34.924984 22.828194
v -4.207085 34.924984 21.240692
v -4.524584 -0.000013 22.828194
v -4.524584 0.574123 22.828194
v -4.524584 -0.000013 21.558189
v -4.524584 0.574123 21.558189
v -9.922085 35.559986 22.828194
v -9.922085 34.924984 22.828194
v -9.922085 35.559986 21.240692
v -9.922085 34.924984 21.240692
v 17.184473 1.123043 20.407272
v 17.065413 0.574123 20.288193
v 17.779787 1.123043 20.407272
v 18.891035 1.123043 20.407272
v 16.747911 35.559986 19.970695
v 16.747911 34.924984 19.970695
v 19.922911 35.559986 19.970695
v 19.922911 34.924984 19.970695
v 19.922911 35.559986 21.240692
v 19.922911 35.559986 19.970695
v 19.922911 34.924984 21.240692
v 19.922911 34.924984 19.970695
v 16.747911 35.559986 21.240692
v 16.747911 34.924984 21.240692
v 16.747911 35.559986 19.970695
v 16.747911 34.924984 19.970695
v 19.922911 35.559986 21.240692
v 19.922911 34.924984 21.240692
v 21.192911 35.559986 21.240692
v 21.192911 34.924984 21.240692
v 19.605413 -0.000013 21.558189
v 20.875410 -0.000013 21.558189
v 19.605413 0.574123 21.558189
v 20.875410 0.574123 21.558189
v 19.605413 -0.000013 21.558189
v 19.605413 0.574123 21.558189
v 19.605413 -0.000013 20.288193
v 19.605413 0.574123 20.288193
v 17.065413 0.574123 20.288193
v 17.065413 0.574123 21.558189
v 17.065413 -0.000013 20.288193
v 17.065413 -0.000013 21.558189
v 17.065413 -0.000013 21.558189
v 17.065413 0.574123 21.558189
v 15.795412 -0.000013 21.558189
v 15.795412 0.574123 21.558189
v 16.747911 34.924984 21.240692
v 16.747911 35.559986 21.240692
v 15.477911 34.924984 21.240692
v 15.477911 35.559986 21.240692
v 21.192911 35.559986 22.828194
v 21.192911 35.559986 21.240692
v 21.192911 34.924984 22.828194
v 21.192911 34.924984 21.240692
v 20.875410 -0.000013 22.828194
v 20.875410 0.574123 22.828194
v 20.875410 -0.000013 21.558189
v 20.875410 0.574123 21.558189
v 15.477911 35.559986 22.828194
v 15.477911 34.924984 22.828194
v 15.477911 35.559986 21.240692
v 15.477911 34.924984 21.240692
v 42.584480 3.663042 20.407272
v 42.465424 3.114123 20.288193
v 43.179794 3.663042 20.407272
v 44.291046 3.663042 20.407257
v 42.147919 35.559986 19.970695
v 42.147919 34.917366 19.970695
v 45.322922 35.559986 19.970695
v 45.322922 34.917366 19.970695
v 45.322922 35.559986 21.240692
v 45.322922 35.559986 19.970695
v 45.322922 34.917366 21.240692
v 45.322922 34.917366 19.970695
v 42.147919 35.559986 21.240692
v 42.147919 34.917366 21.240692
v 42.147919 35.559986 19.970695
v 42.147919 34.917366 19.970695
v 45.322922 35.559986 21.240692
v 45.322922 34.917366 21.240692
v 46.592918 35.559986 21.240692
v 46.592918 34.917366 21.240692
v 45.005417 2.539987 21.558189
v 46.275421 2.539987 21.558189
v 45.005417 3.114123 21.558189
v 46.275421 3.114123 21.558189
v 45.005417 2.539987 21.558189
v 45.005417 3.114123 21.558189
v 45.005417 2.539987 20.288193
v 45.005417 3.114123 20.288193
v 42.465424 3.114123 20.288193
v 42.465424 3.114123 21.558182
v 42.465424 2.539987 20.288193
v 42.465424 2.539987 21.558182
v 42.465424 2.539987 21.558182
v 42.465424 3.114123 21.558182
v 41.195419 2.539987 21.558182
v 41.195419 3.114123 21.558182
v 42.147919 34.917366 21.240692
v 42.147919 35.559986 21.240692
v 40.877922 34.917366 21.240692
v 40.877922 35.559986 21.240692
v 46.592918 35.559986 22.828194
v 46.592918 35.559986 21.240692
v 46.592918 34.917366 22.828194
v 46.592918 34.917366 21.240692
v 46.275421 2.539987 22.828194
v 46.275421 3.114123 22.828194
v 46.275421 2.539987 21.558189
v 46.275421 3.114123 21.558189
v 40.877922 35.559986 22.828194
v 40.877922 34.917366 22.828194
v 40.877922 35.559986 21.240692
v 40.877922 34.917366 21.240692
v 66.287468 34.924984 22.828194
v 66.287468 34.924984 21.240692
v 66.287468 35.559986 22.828194
v 66.287468 35.559986 21.240692
v 67.557465 34.924984 21.240692
v 67.557465 35.559986 21.240692
v 66.287468 34.924984 21.240692
v 66.287468 35.559986 21.240692
v 67.557465 35.559986 21.240692
v 67.557465 34.924984 21.240692
v 67.557465 35.559986 19.970695
v 67.557465 34.924984 19.970695
v 69.135422 2.539987 20.288193
v 69.135422 3.114123 20.288193
v 67.874969 2.539987 20.288193
v 67.874969 3.114123 20.288193
v 69.135422 34.924984 19.970695
v 69.135422 35.559986 19.970695
v 67.557465 34.924984 19.970695
v 67.557465 35.559986 19.970695
v -6.508959 1.123043 20.407272
v -5.913647 1.123043 20.407272
v -5.913647 1.123043 21.002563
v -5.238960 1.123043 21.677269
v -4.643646 1.123043 21.677269
v -4.643646 1.123042 22.272568
v -7.620209 1.123043 20.407272
v -8.334585 0.574123 20.288193
v -6.508959 1.123043 20.407272
v 18.891035 1.123043 20.407272
v 19.486349 1.123043 20.407272
v 19.486349 1.123043 21.002563
v 17.184473 1.123043 20.407272
v 17.779787 1.123043 20.407272
v 17.184473 1.123043 21.002563
v 20.161036 1.123043 21.677269
v 20.756350 1.123043 21.677269
v 20.756350 1.123042 22.272568
v 16.509787 1.123043 21.677238
v 15.914476 1.123042 22.272568
v 15.914476 1.123043 21.677238
v 15.914476 1.123042 22.272568
v 15.914476 1.123043 22.828194
v 15.795412 0.574123 22.828194
v 44.291046 3.663042 20.407257
v 44.886360 3.663042 20.407257
v 44.886360 3.663042 21.002563
v 42.584480 3.663042 20.407272
v 43.179794 3.663042 20.407272
v 42.584480 3.663042 21.002563
v 45.561043 3.663042 21.677254
v 46.156357 3.663042 21.677254
v 46.156357 3.663042 22.272568
v 41.909798 3.663042 21.677246
v 41.314484 3.663042 22.272560
v 41.314484 3.663042 21.677246
v 41.314484 3.663042 22.272560
v 41.314484 3.663042 22.828194
v 41.195419 3.114123 22.828194
v 67.970108 3.655641 21.653328
v 67.874969 3.114123 21.558182
v 67.994034 3.663042 21.002563
v 67.319344 3.663042 21.677246
v 66.724030 3.663042 22.272560
v 66.724030 3.663042 21.677246
v 67.994034 3.663042 20.407272
v 68.589340 3.663042 20.407272
v 67.994034 3.663042 21.002563
v 67.319344 3.663042 21.677246
v 66.724030 3.663042 21.677246
v 66.604965 3.114123 21.558182
v 66.724030 3.663042 22.272560
v 66.724030 3.663042 22.828194
v 66.604965 3.114123 22.828194
vt -1.035156 2.245117
vt -1.035156 1.746094
vt -0.817383 2.245117
vt -0.020508 1.746094
vt -1.027344 0.997070
vt -0.021484 0.996094
vt -1.035156 2.245117
vt -1.035156 1.746094
vt -0.817383 2.245117
vt -0.020508 1.746094
vt -1.027344 0.997070
vt -0.021484 0.996094
vt -2.034180 2.245117
vt -2.034180 1.746094
vt -1.816406 2.245117
vt -1.535156 1.746094
vt -2.033203 0.998047
vt -1.530273 0.997070
vt -1.035156 2.245117
vt -1.035156 1.746094
vt -0.817383 2.245117
vt -0.020508 1.746094
vt -1.027344 0.997070
vt -0.021484 0.996094
vt -2.034180 2.245117
vt -2.034180 1.746094
vt -1.816406 2.245117
vt -1.535156 1.746094
vt -2.033203 0.998047
vt -1.530273 0.997070
vt 1.399414 2.245117
vt 1.477539 1.746094
vt 1.774414 2.245117
vt 1.993164 1.746094
vt 1.487305 0.994141
vt 1.990234 0.994141
vt -0.020508 2.245117
vt -0.020508 1.746094
vt 0.197266 2.245117
vt 0.478516 1.746094
vt -0.021484 0.996094
vt 0.481445 0.995117
vt -2.034180 2.245117
vt -2.034180 1.746094
vt -1.816406 2.245117
vt -1.535156 1.746094
vt -2.033203 0.998047
vt -1.530273 0.997070
vt -1.582031 2.245117
vt -1.535156 1.746094
vt -1.238281 2.245117
vt -1.035156 2.245117
vt -1.035156 1.746094
vt -1.035156 1.746094
vt -0.536133 1.746094
vt -1.035156 2.245117
vt -0.817383 2.245117
vt -0.536133 2.245117
vt -1.035156 2.245117
vt -1.238281 2.245117
vt -1.035156 1.746094
vt -1.535156 1.746094
vt -1.597656 2.245117
vt -1.582031 2.245117
vt -1.535156 1.746094
vt -1.238281 2.245117
vt -1.035156 2.245117
vt -1.035156 1.746094
vt 1.399414 2.245117
vt 1.477539 1.746094
vt 1.774414 2.245117
vt 1.993164 2.245117
vt 1.993164 1.746094
vt -1.035156 1.746094
vt -0.536133 1.746094
vt -1.035156 2.245117
vt -0.817383 2.245117
vt -0.536133 2.245117
vt -0.020508 1.746094
vt 0.478516 1.746094
vt -0.020508 2.245117
vt 0.197266 2.245117
vt 0.462891 2.245117
vt -1.035156 2.245117
vt -1.238281 2.245117
vt -1.035156 1.746094
vt -1.535156 1.746094
vt -1.597656 2.245117
vt -1.582031 2.245117
vt -1.535156 1.746094
vt -1.238281 2.245117
vt -1.035156 2.245117
vt -1.035156 1.746094
vt 1.399414 2.245117
vt 1.477539 1.746094
vt 1.774414 2.245117
vt 1.993164 2.245117
vt 1.993164 1.746094
vt -1.035156 1.746094
vt -0.536133 1.746094
vt -1.035156 2.245117
vt -0.817383 2.245117
vt -0.536133 2.245117
vt -0.020508 1.746094
vt 0.478516 1.746094
vt -0.020508 2.245117
vt 0.197266 2.245117
vt 0.462891 2.245117
vt -1.035156 2.245117
vt -1.238281 2.245117
vt -1.035156 1.746094
vt -1.535156 1.746094
vt -1.597656 2.245117
vt -0.020508 2.245117
vt -0.239258 2.245117
vt -0.020508 1.746094
vt -0.524414 1.746094
vt -0.523438 2.245117
vt 1.991211 -3.104492
vt 2.990234 -3.101562
vt 1.989258 -2.122070
vt 2.988281 -2.119141
vt 2.491211 -3.102539
vt 2.489258 -2.121094
vt 2.990234 -3.101562
vt 2.988281 -2.119141
vt 1.492188 -3.105469
vt 1.991211 -3.104492
vt 1.490234 -2.123047
vt 1.989258 -2.122070
vt 2.490234 -3.102539
vt 2.990234 -3.101562
vt 2.489258 -2.121094
vt 2.988281 -2.119141
vt -0.524414 0.996094
vt -0.536133 1.746094
vt -1.027344 0.997070
vt -1.035156 1.746094
vt -1.530273 0.997070
vt -1.027344 0.997070
vt -1.535156 1.746094
vt -1.035156 1.746094
vt 1.490234 -2.123047
vt 1.989258 -2.122070
vt 1.492188 -3.105469
vt 1.991211 -3.104492
vt 2.491211 -3.102539
vt 2.489258 -2.121094
vt 2.990234 -3.101562
vt 2.988281 -2.119141
vt -1.530273 0.997070
vt -1.027344 0.997070
vt -1.535156 1.746094
vt -1.035156 1.746094
vt 2.491211 -3.102539
vt 1.991211 -3.104492
vt 2.489258 -2.121094
vt 1.989258 -2.122070
vt -0.020508 2.245117
vt -0.239258 2.245117
vt -0.020508 1.746094
vt -0.817383 2.245117
vt 1.991211 -3.104492
vt 2.990234 -3.101562
vt 1.989258 -2.122070
vt 2.988281 -2.119141
vt 2.491211 -3.102539
vt 2.489258 -2.121094
vt 2.990234 -3.101562
vt 2.988281 -2.119141
vt 1.492188 -3.105469
vt 1.991211 -3.104492
vt 1.490234 -2.123047
vt 1.989258 -2.122070
vt 2.490234 -3.102539
vt 2.990234 -3.101562
vt 2.489258 -2.121094
vt 2.988281 -2.119141
vt -0.524414 0.996094
vt -0.536133 1.746094
vt -1.027344 0.997070
vt -1.035156 1.746094
vt -1.530273 0.997070
vt -1.027344 0.997070
vt -1.535156 1.746094
vt -1.035156 1.746094
vt -0.020508 1.746094
vt -0.021484 0.996094
vt 0.478516 1.746094
vt 0.481445 0.995117
vt 1.487305 0.994141
vt 1.990234 0.994141
vt 1.477539 1.746094
vt 1.993164 1.746094
vt 1.490234 -2.123047
vt 1.989258 -2.122070
vt 1.492188 -3.105469
vt 1.991211 -3.104492
vt 2.491211 -3.102539
vt 2.489258 -2.121094
vt 2.990234 -3.101562
vt 2.988281 -2.119141
vt -1.530273 0.997070
vt -1.027344 0.997070
vt -1.535156 1.746094
vt -1.035156 1.746094
vt 2.491211 -3.102539
vt 1.991211 -3.104492
vt 2.489258 -2.121094
vt 1.989258 -2.122070
vt -0.020508 2.245117
vt -0.239258 2.245117
vt -0.020508 1.746094
vt -0.817383 2.245117
vt 1.991211 -3.104492
vt 2.990234 -3.101562
vt 1.989258 -2.122070
vt 2.988281 -2.119141
vt 2.491211 -3.102539
vt 2.489258 -2.121094
vt 2.990234 -3.101562
vt 2.988281 -2.119141
vt 1.492188 -3.105469
vt 1.991211 -3.104492
vt 1.490234 -2.123047
vt 1.989258 -2.122070
vt 2.490234 -3.102539
vt 2.990234 -3.101562
vt 2.489258 -2.121094
vt 2.988281 -2.119141
vt -0.524414 0.996094
vt -0.536133 1.746094
vt -1.027344 0.997070
vt -1.035156 1.746094
vt -1.530273 0.997070
vt -1.027344 0.997070
vt -1.535156 1.746094
vt -1.035156 1.746094
vt -0.020508 1.746094
vt -0.021484 0.996094
vt 0.478516 1.746094
vt 0.481445 0.995117
vt 1.487305 0.994141
vt 1.990234 0.994141
vt 1.477539 1.746094
vt 1.993164 1.746094
vt 1.490234 -2.123047
vt 1.989258 -2.122070
vt 1.492188 -3.105469
vt 1.991211 -3.104492
vt 2.491211 -3.102539
vt 2.489258 -2.121094
vt 2.990234 -3.101562
vt 2.988281 -2.119141
vt -1.530273 0.997070
vt -1.027344 0.997070
vt -1.535156 1.746094
vt -1.035156 1.746094
vt 2.491211 -3.102539
vt 1.991211 -3.104492
vt 2.489258 -2.121094
vt 1.989258 -2.122070
vt 2.489258 -2.121094
vt 2.491211 -3.102539
vt 1.989258 -2.122070
vt 1.991211 -3.104492
vt 1.490234 -2.123047
vt 1.989258 -2.122070
vt 1.492188 -3.105469
vt 1.991211 -3.104492
vt 1.492188 -3.105469
vt 1.991211 -3.104492
vt 1.490234 -2.123047
vt 1.989258 -2.122070
vt -0.521484 0.996094
vt -0.021484 0.996094
vt -0.524414 1.746094
vt -0.020508 1.746094
vt 2.486328 -2.121094
vt 1.989258 -2.122070
vt 2.488281 -3.102539
vt 1.991211 -3.104492
vt -2.612305 1.011719
vt -2.112305 1.011719
vt -2.362305 1.511719
vt -2.612305 1.011719
vt -2.112305 1.011719
vt -2.362305 1.511719
vt -0.239258 2.245117
vt -0.817383 2.245117
vt -0.020508 1.746094
vt -2.612305 1.011719
vt -2.112305 1.011719
vt -2.362305 1.511719
vt -2.362305 1.511719
vt -2.612305 1.011719
vt -2.112305 1.011719
vt -2.612305 1.011719
vt -2.112305 1.011719
vt -2.362305 1.511719
vt -2.112305 1.011719
vt -2.362305 1.511719
vt -2.612305 1.011719
vt -1.816406 2.245117
vt -1.535156 1.746094
vt -1.597656 2.245117
vt -2.612305 1.011719
vt -2.112305 1.011719
vt -2.362305 1.511719
vt -2.362305 1.511719
vt -2.612305 1.011719
vt -2.112305 1.011719
vt -2.612305 1.011719
vt -2.112305 1.011719
vt -2.362305 1.511719
vt -2.112305 1.011719
vt -2.362305 1.511719
vt -2.612305 1.011719
vt -1.816406 2.245117
vt -1.535156 1.746094
vt -1.597656 2.245117
vt 0.462891 2.245117
vt 0.197266 2.245117
vt 0.478516 1.746094
vt -2.112305 1.011719
vt -2.362305 1.511719
vt -2.612305 1.011719
vt -2.362305 1.511719
vt -2.612305 1.011719
vt -2.112305 1.011719
vt 1.774414 2.245117
vt 1.993164 1.746094
vt 1.993164 2.245117
vt -1.816406 2.245117
vt -1.535156 1.746094
vt -1.597656 2.245117
vn 0.0000 0.2120 -0.9773
vn 0.1325 0.1460 -0.9804
vn -0.0268 0.2961 -0.9548
vn 0.0654 -0.0000 -0.9979
vn 0.0000 0.0000 -1.0000
vn -0.0269 -0.1192 -0.9925
vn 0.1024 0.1613 -0.9816
vn 0.0706 0.2983 -0.9519
vn 0.0990 -0.0000 -0.9951
vn -0.9773 0.2120 0.0000
vn -0.9816 0.1613 -0.1024
vn -0.9519 0.2983 -0.0706
vn -0.9463 0.3072 0.1007
vn -0.9951 -0.0000 -0.0990
vn -1.0000 0.0000 0.0000
vn -0.9975 -0.0650 0.0294
vn -0.9975 0.0294 0.0650
vn -0.0341 0.1788 -0.9833
vn -0.0097 0.1025 -0.9947
vn -0.0347 0.1463 -0.9886
vn 0.0093 0.2004 -0.9797
vn 0.0718 0.2936 -0.9532
vn -0.0924 0.3245 -0.9414
vn 0.1025 -0.0098 -0.9947
vn -0.0261 -0.0578 -0.9980
vn -0.0578 0.0261 -0.9980
vn -0.9635 0.2625 0.0529
vn -0.9903 -0.1263 0.0571
vn 0.9859 0.1579 -0.0553
vn 0.9825 0.1627 -0.0905
vn 0.9934 0.0998 -0.0564
vn 0.9812 0.1932 0.0000
vn 0.9684 0.2487 0.0184
vn 0.9773 0.2120 0.0000
vn 0.9680 0.2506 -0.0139
vn 0.0139 0.2506 -0.9680
vn -0.0184 0.2488 -0.9684
vn -0.0000 0.1932 -0.9812
vn 0.0905 0.1628 -0.9825
vn 0.0553 0.1579 -0.9859
vn 0.0564 0.0998 -0.9934
vn 0.9934 0.0997 -0.0564
vn 0.9684 0.2487 0.0185
vn -0.0341 0.1787 -0.9833
vn -0.0556 0.1822 -0.9817
vn -0.0348 0.1431 -0.9891
vn -0.0000 0.2003 -0.9797
vn 0.0116 0.2349 -0.9719
vn -0.0087 0.2361 -0.9717
vn -0.0185 0.2488 -0.9684
vn -0.9717 0.2361 -0.0087
vn -0.9719 0.2349 0.0115
vn -0.9797 0.2004 0.0000
vn -0.9817 0.1822 -0.0555
vn -0.9833 0.1788 -0.0341
vn -0.9891 0.1431 -0.0347
vn -0.0556 0.1823 -0.9817
vn -0.0347 0.1431 -0.9891
vn 0.0115 0.2349 -0.9719
vn 0.0173 0.2599 -0.9655
vn 0.0804 0.1614 -0.9836
vn -0.9797 0.2003 -0.0000
vn -0.9833 0.1787 -0.0341
vn 1.0000 0.0000 0.0000
vn 0.0000 1.0000 0.0000
usemtl Tex_0072_1.dds.001
s off
f 1/1/1 3/2/2 2/3/1
f 2/3/1 3/2/1 4/4/3
f 3/2/4 5/5/5 4/4/6
f 4/4/5 5/5/5 6/6/5
f 7/7/1 9/8/7 8/9/1
f 8/9/1 9/8/8 10/10/3
f 9/8/9 11/11/5 10/10/6
f 10/10/5 11/11/5 12/12/5
f 13/13/10 15/14/11 14/15/10
f 14/15/10 15/14/12 16/16/13
f 15/14/14 17/17/15 16/16/16
f 16/16/17 17/17/15 18/18/15
f 19/19/1 21/20/7 20/21/1
f 20/21/1 21/20/8 22/22/3
f 21/20/9 23/23/5 22/22/6
f 22/22/5 23/23/5 24/24/5
f 25/25/10 27/26/11 26/27/10
f 26/27/10 27/26/12 28/28/13
f 27/26/14 29/29/15 28/28/16
f 28/28/17 29/29/15 30/30/15
f 31/31/18 33/32/19 32/33/20
f 32/33/21 33/32/22 34/34/23
f 33/32/24 35/35/5 34/34/25
f 34/34/26 35/35/5 36/36/5
f 37/37/10 39/38/11 38/39/10
f 38/39/10 39/38/12 40/40/13
f 39/38/14 41/41/15 40/40/16
f 40/40/17 41/41/15 42/42/15
f 43/43/10 45/44/11 44/45/10
f 44/45/10 45/44/12 46/46/27
f 45/44/14 47/47/15 46/46/28
f 46/46/15 47/47/15 48/48/15
f 49/49/29 51/50/30 50/51/31
f 50/51/32 51/50/33 52/52/34
f 51/50/35 53/53/34 52/52/34
f 54/54/1 56/55/36 55/56/1
f 55/56/1 56/55/37 57/57/38
f 56/55/39 58/58/40 57/57/41
f 59/59/34 61/60/34 60/61/34
f 60/61/34 61/60/34 62/62/34
f 61/60/34 63/63/34 62/62/34
f 64/64/29 66/65/30 65/66/42
f 65/66/32 66/65/43 67/67/34
f 66/65/35 68/68/34 67/67/34
f 69/69/44 71/70/45 70/71/46
f 70/71/47 71/70/48 72/72/1
f 71/70/49 73/73/1 72/72/1
f 74/74/1 76/75/36 75/76/1
f 75/76/1 76/75/50 77/77/38
f 76/75/39 78/78/40 77/77/41
f 79/79/10 81/80/51 80/81/10
f 80/81/10 81/80/52 82/82/53
f 81/80/54 83/83/55 82/82/56
f 84/84/34 86/85/34 85/86/34
f 85/86/34 86/85/34 87/87/34
f 86/85/34 88/88/34 87/87/34
f 89/89/29 91/90/30 90/91/31
f 90/91/32 91/90/33 92/92/34
f 91/90/35 93/93/34 92/92/34
f 94/94/18 96/95/57 95/96/58
f 95/96/47 96/95/59 97/97/1
f 96/95/49 98/98/1 97/97/1
f 99/99/1 101/100/60 100/101/1
f 100/101/1 101/100/1 102/102/38
f 101/100/61 103/103/40 102/102/41
f 104/104/10 106/105/51 105/106/10
f 105/106/10 106/105/52 107/107/62
f 106/105/54 108/108/63 107/107/56
f 109/109/34 111/110/34 110/111/34
f 110/111/34 111/110/34 112/112/34
f 111/110/34 113/113/34 112/112/34
f 114/114/1 116/115/1 115/116/1
f 115/116/1 116/115/1 117/117/1
f 116/115/1 118/118/1 117/117/1
f 119/119/5 121/120/5 120/121/5
f 120/121/5 121/120/5 122/122/5
f 123/123/64 125/124/64 124/125/64
f 124/125/64 125/124/64 126/126/64
f 127/127/15 129/128/15 128/129/15
f 128/129/15 129/128/15 130/130/15
f 131/131/5 133/132/5 132/133/5
f 132/133/5 133/132/5 134/134/5
f 135/135/5 137/136/5 136/137/5
f 136/137/5 137/136/5 138/138/5
f 139/139/64 141/140/64 140/141/64
f 140/141/64 141/140/64 142/142/64
f 143/143/5 145/144/5 144/145/5
f 144/145/5 145/144/5 146/146/5
f 147/147/64 149/148/64 148/149/64
f 148/149/64 149/148/64 150/150/64
f 151/151/64 153/152/64 152/153/64
f 152/153/64 153/152/64 154/154/64
f 155/155/15 157/156/15 156/157/15
f 156/157/15 157/156/15 158/158/15
f 159/159/1 161/160/1 160/161/1
f 160/161/1 161/160/1 162/162/1
f 163/163/5 165/164/5 164/165/5
f 164/165/5 165/164/5 166/166/5
f 167/167/64 169/168/64 168/169/64
f 168/169/64 169/168/64 170/170/64
f 171/171/15 173/172/15 172/173/15
f 172/173/15 173/172/15 174/174/15
f 175/175/5 177/176/5 176/177/5
f 176/177/5 177/176/5 178/178/5
f 179/179/5 181/180/5 180/181/5
f 180/181/5 181/180/5 182/182/5
f 183/183/64 185/184/64 184/185/64
f 184/185/64 185/184/64 186/186/64
f 187/187/15 189/188/15 188/189/15
f 188/189/15 189/188/15 190/190/15
f 191/191/5 193/192/5 192/193/5
f 192/193/5 193/192/5 194/194/5
f 195/195/5 197/196/5 196/197/5
f 196/197/5 197/196/5 198/198/5
f 199/199/64 201/200/64 200/201/64
f 200/201/64 201/200/64 202/202/64
f 203/203/64 205/204/64 204/205/64
f 204/205/64 205/204/64 206/206/64
f 207/207/15 209/208/15 208/209/15
f 208/209/15 209/208/15 210/210/15
f 211/211/1 213/212/1 212/213/1
f 212/213/1 213/212/1 214/214/1
f 215/215/5 217/216/5 216/217/5
f 216/217/5 217/216/5 218/218/5
f 219/219/64 221/220/64 220/221/64
f 220/221/64 221/220/64 222/222/64
f 223/223/15 225/224/15 224/225/15
f 224/225/15 225/224/15 226/226/15
f 227/227/5 229/228/5 228/229/5
f 228/229/5 229/228/5 230/230/5
f 231/231/5 233/232/5 232/233/5
f 232/233/5 233/232/5 234/234/5
f 235/235/64 237/236/64 236/237/64
f 236/237/64 237/236/64 238/238/64
f 239/239/15 241/240/15 240/241/15
f 240/241/15 241/240/15 242/242/15
f 243/243/5 245/244/5 244/245/5
f 244/245/5 245/244/5 246/246/5
f 247/247/5 249/248/5 248/249/5
f 248/249/5 249/248/5 250/250/5
f 251/251/64 253/252/64 252/253/64
f 252/253/64 253/252/64 254/254/64
f 255/255/64 257/256/64 256/257/64
f 256/257/64 257/256/64 258/258/64
f 259/259/15 261/260/15 260/261/15
f 260/261/15 261/260/15 262/262/15
f 263/263/15 265/264/15 264/265/15
f 264/265/15 265/264/15 266/266/15
f 267/267/5 269/268/5 268/269/5
f 268/269/5 269/268/5 270/270/5
f 271/271/15 273/272/15 272/273/15
f 272/273/15 273/272/15 274/274/15
f 275/275/5 277/276/5 276/277/5
f 276/277/5 277/276/5 278/278/5
f 279/279/5 281/280/5 280/281/5
f 280/281/5 281/280/5 282/282/5
f 283/283/65 285/284/65 284/285/65
f 286/286/65 288/287/65 287/288/65
f 289/289/1 291/290/1 290/291/1
f 292/292/65 294/293/65 293/294/65
f 295/295/65 297/296/65 296/297/65
f 298/298/65 300/299/65 299/300/65
f 301/301/65 303/302/65 302/303/65
f 304/304/10 306/305/10 305/306/10
f 307/307/65 309/308/65 308/309/65
f 310/310/65 312/311/65 311/312/65
f 313/313/65 315/314/65 314/315/65
f 316/316/65 318/317/65 317/318/65
f 319/319/10 321/320/10 320/321/10
f 322/322/63 324/323/63 323/324/63
f 325/325/65 327/326/65 326/327/65
f 328/328/65 330/329/65 329/330/65
f 331/331/1 333/332/1 332/333/1
f 334/334/10 336/335/10 335/336/10
