# Blender v3.6.3 OBJ File: 'untitled.blend'
# www.blender.org
mtllib Mesh_0191.mtl
o Mesh_0191_Mesh.037
v -21.193335 14.444998 22.034439
v -21.510834 14.444998 21.716942
v -21.352085 14.286247 22.193192
v -21.669584 14.286247 21.875694
v -21.510834 14.444998 21.716942
v -22.304585 14.444998 21.716942
v -21.669584 14.286247 21.875694
v -22.304585 14.286247 21.875694
v -22.304585 14.444998 21.716942
v -21.510834 14.444998 21.716942
v -22.304585 14.603747 21.875694
v -21.669584 14.603747 21.875694
v -21.669584 14.603747 21.875694
v -21.510834 14.603747 22.351944
v -21.669584 19.366243 21.875694
v -21.510834 19.366243 22.351944
v -21.669584 14.603747 21.875694
v -21.669584 19.366243 21.875694
v -22.304585 14.603747 21.875694
v -22.304585 19.366243 21.875694
v -21.510834 28.891239 22.351944
v -21.669584 28.891239 21.875694
v -21.510834 24.128742 22.351944
v -21.669584 24.128742 21.875694
v -21.669584 28.891239 21.875694
v -22.304585 28.891239 21.875694
v -21.669584 24.128742 21.875694
v -22.304585 24.128742 21.875694
v -21.034584 33.971245 21.875694
v -21.493347 33.971245 21.558189
v -21.272709 33.653744 22.113815
v -21.669584 33.653744 21.875694
v -21.493347 33.971245 21.558189
v -22.304585 33.971245 21.558189
v -21.669584 33.653744 21.875694
v -22.304585 33.653744 21.875694
v -21.034584 33.971245 21.875694
v -21.352085 34.288742 22.193192
v -21.493347 33.971245 21.558189
v -21.669584 34.288742 21.875694
v -21.493347 33.971245 21.558189
v -21.669584 34.288742 21.875694
v -22.304585 33.971245 21.558189
v -22.304585 34.288742 21.875694
v -20.717085 34.923744 21.558189
v -20.717085 35.241245 20.923195
v -22.304585 34.923744 21.558189
v -22.304585 35.241245 20.923195
v -22.304585 34.923744 21.558189
v -22.304585 34.288742 21.875694
v -20.717085 34.923744 21.558189
v -21.669584 34.288742 21.875694
v -21.034584 33.971245 21.875694
v -20.717085 33.971245 22.443878
v -21.352085 34.288742 22.193192
v -21.034584 34.288742 22.513695
v -21.034584 33.971245 21.875694
v -21.272709 33.653744 22.113815
v -20.717085 33.971245 22.443878
v -21.034584 33.653744 22.513695
v -21.034584 28.891239 22.513695
v -21.510834 28.891239 22.351944
v -21.034584 24.128742 22.513695
v -21.510834 24.128742 22.351944
v -21.510834 14.603747 22.351944
v -21.034584 14.603747 22.513695
v -21.510834 19.366243 22.351944
v -21.034584 19.366243 22.513695
v -21.193335 14.444998 22.034439
v -21.352085 14.286247 22.193192
v -20.875835 14.444998 22.510689
v -21.034584 14.286247 22.513695
v -20.875835 14.444998 22.828194
v -20.875835 14.444998 22.510689
v -21.034584 14.286247 22.828194
v -21.034584 14.286247 22.513695
v -20.875835 14.444998 22.828194
v -21.034584 14.603747 22.828194
v -20.875835 14.444998 22.510689
v -21.034584 14.603747 22.513695
v -21.034584 14.603747 22.828194
v -21.034584 19.366243 22.828194
v -21.034584 14.603747 22.513695
v -21.034584 19.366243 22.513695
v -21.034584 28.891239 22.828194
v -21.034584 28.891239 22.513695
v -21.034584 24.128742 22.828194
v -21.034584 24.128742 22.513695
v -20.717085 33.971245 22.443878
v -21.034584 33.653744 22.513695
v -20.717085 33.971245 22.828194
v -21.034584 33.653744 22.828194
v -20.717085 33.971245 22.828194
v -21.034584 34.288742 22.828194
v -20.717085 33.971245 22.443878
v -21.034584 34.288742 22.513695
v -21.034584 34.288742 22.828194
v -20.717085 34.923744 22.828194
v -21.034584 34.288742 22.513695
v -20.717085 34.923744 21.558189
v -20.082085 35.241245 22.828194
v -20.082085 35.241245 21.558189
v -20.717085 34.923744 22.828194
v -20.717085 34.923744 21.558189
v -21.669584 24.128742 21.875694
v -22.304585 24.128742 21.875694
v -21.669584 19.366243 21.875694
v -22.304585 19.366243 21.875694
v -21.510834 19.366243 22.351944
v -21.510834 24.128742 22.351944
v -21.669584 19.366243 21.875694
v -21.669584 24.128742 21.875694
v -21.034584 19.366243 22.513695
v -21.034584 24.128742 22.513695
v -21.510834 19.366243 22.351944
v -21.510834 24.128742 22.351944
v -21.034584 24.128742 22.828194
v -21.034584 24.128742 22.513695
v -21.034584 19.366243 22.828194
v -21.034584 19.366243 22.513695
v -21.669584 28.891239 21.875694
v -21.669584 33.653744 21.875694
v -22.304585 28.891239 21.875694
v -22.304585 33.653744 21.875694
v -21.510834 28.891239 22.351944
v -21.510834 33.653744 22.351944
v -21.669584 28.891239 21.875694
v -21.669584 33.653744 21.875694
v -21.034584 28.891239 22.513695
v -21.034584 33.653744 22.513695
v -21.510834 28.891239 22.351944
v -21.510834 33.653744 22.351944
v -21.034584 33.653744 22.828194
v -21.034584 33.653744 22.513695
v -21.034584 28.891239 22.828194
v -21.034584 28.891239 22.513695
v -21.193335 14.444998 22.034439
v -20.875835 14.444998 22.510689
v -21.352085 14.603747 22.193192
v -21.034584 14.603747 22.513695
v -21.352085 14.603747 22.193192
v -21.669584 14.603747 21.875694
v -21.193335 14.444998 22.034439
v -21.510834 14.444998 21.716942
v -21.193333 14.444998 10.286942
v -21.510834 14.444998 9.969444
v -21.352083 14.286248 10.445694
v -21.669582 14.286248 10.128189
v -21.510834 14.444998 9.969444
v -22.304585 14.444998 9.969444
v -21.669582 14.286248 10.128189
v -22.304585 14.286248 10.128189
v -22.304585 14.444998 9.969444
v -21.510834 14.444998 9.969444
v -22.304585 14.603747 10.128189
v -21.669582 14.603747 10.128189
v -21.669582 14.603747 10.128189
v -21.510834 14.603747 10.604446
v -21.669582 19.366243 10.128189
v -21.510834 19.366243 10.604446
v -21.510834 28.891239 10.604446
v -21.669582 28.891239 10.128197
v -21.510834 24.128742 10.604446
v -21.669582 24.128742 10.128189
v -21.034584 33.971245 10.128197
v -21.493345 33.971245 9.810692
v -21.272709 33.653744 10.366318
v -21.669582 33.653744 10.128197
v -21.493345 33.971245 9.810692
v -22.304585 33.971245 9.810692
v -21.669582 33.653744 10.128197
v -22.304585 33.653744 10.128197
v -21.034584 33.971245 10.128197
v -21.352083 34.288742 10.445694
v -21.493345 33.971245 9.810692
v -21.669582 34.288742 10.128197
v -21.493345 33.971245 9.810692
v -21.669582 34.288742 10.128197
v -22.304585 33.971245 9.810692
v -22.304585 34.288742 10.128197
v -20.717083 34.923744 9.810692
v -20.717083 35.241245 9.175690
v -22.304585 34.923744 9.810692
v -22.304585 35.241245 9.175690
v -21.669582 34.288742 10.128197
v -21.352083 34.288742 10.445694
v -20.717083 34.923744 9.810692
v -21.034584 34.288742 10.766205
v -22.304585 34.923744 9.810692
v -22.304585 34.288742 10.128197
v -20.717083 34.923744 9.810692
v -21.669582 34.288742 10.128197
v -21.034584 33.971245 10.128197
v -20.717083 33.971245 10.696373
v -21.352083 34.288742 10.445694
v -21.034584 34.288742 10.766205
v -21.034584 33.971245 10.128197
v -21.272709 33.653744 10.366318
v -20.717083 33.971245 10.696373
v -21.034584 33.653744 10.766205
v -21.034584 28.891239 10.766205
v -21.510834 28.891239 10.604446
v -21.034584 24.128742 10.766205
v -21.510834 24.128742 10.604446
v -21.510834 14.603747 10.604446
v -21.034584 14.603747 10.766205
v -21.510834 19.366243 10.604446
v -21.034584 19.366243 10.766205
v -21.193333 14.444998 10.286942
v -21.352083 14.286248 10.445694
v -20.875834 14.444998 10.763191
v -21.034584 14.286248 10.766205
v -20.875834 14.444997 11.080696
v -20.875834 14.444998 10.763191
v -21.034584 14.286247 11.080696
v -21.034584 14.286248 10.766205
v -20.875834 14.444997 11.080696
v -21.034584 14.603746 11.080696
v -20.875834 14.444998 10.763191
v -21.034584 14.603747 10.766205
v -20.717083 33.971245 10.696373
v -21.034584 33.653744 10.766205
v -20.717083 33.971245 11.080696
v -21.034584 33.653744 11.080696
v -20.717083 33.971245 11.080696
v -21.034584 34.288742 11.080696
v -20.717083 33.971245 10.696373
v -21.034584 34.288742 10.766205
v -21.034584 34.288742 11.080696
v -20.717083 34.923744 11.080696
v -21.034584 34.288742 10.766205
v -20.717083 34.923744 9.810692
v -20.082085 35.241245 11.080696
v -20.082085 35.241245 9.810692
v -20.717083 34.923744 11.080696
v -20.717083 34.923744 9.810692
v -21.510834 19.366243 10.604446
v -21.510834 24.128742 10.604446
v -21.669582 19.366243 10.128189
v -21.669582 24.128742 10.128189
v -21.034584 19.366243 10.766205
v -21.034584 24.128742 10.766205
v -21.510834 19.366243 10.604446
v -21.510834 24.128742 10.604446
v -21.510834 28.891239 10.604446
v -21.510834 33.653744 10.604446
v -21.669582 28.891239 10.128197
v -21.669582 33.653744 10.128197
v -21.034584 28.891239 10.766205
v -21.034584 33.653744 10.766205
v -21.510834 28.891239 10.604446
v -21.510834 33.653744 10.604446
v -21.193333 14.444998 10.286942
v -20.875834 14.444998 10.763191
v -21.352083 14.603747 10.445694
v -21.034584 14.603747 10.766205
v -21.352083 14.603747 10.445694
v -21.669582 14.603747 10.128189
v -21.193333 14.444998 10.286942
v -21.510834 14.444998 9.969444
v -21.193333 14.444997 12.191940
v -20.875834 14.444997 11.874443
v -21.352083 14.286247 12.033195
v -21.034584 14.286247 11.715691
v -20.875834 14.444997 11.874443
v -20.875834 14.444997 11.080696
v -21.034584 14.286247 11.715691
v -21.034584 14.286247 11.080696
v -20.875834 14.444997 11.080696
v -20.875834 14.444997 11.874443
v -21.034584 14.603746 11.080696
v -21.034584 14.603746 11.715691
v -21.034584 14.603746 11.715691
v -21.510834 14.603746 11.874443
v -21.034584 19.366245 11.715691
v -21.510834 19.366245 11.874443
v -21.510834 28.891241 11.874443
v -21.034584 28.891241 11.715691
v -21.510834 24.128744 11.874443
v -21.034584 24.128744 11.715691
v -21.034584 33.971245 12.350693
v -20.717083 33.971245 11.891930
v -21.272709 33.653744 12.112572
v -21.034584 33.653744 11.715691
v -20.717083 33.971245 11.891930
v -20.717083 33.971245 11.080696
v -21.034584 33.653744 11.715691
v -21.034584 33.653744 11.080696
v -21.034584 33.971245 12.350693
v -21.352083 34.288742 12.033195
v -20.717083 33.971245 11.891930
v -21.034584 34.288742 11.715691
v -20.717083 33.971245 11.891930
v -21.034584 34.288742 11.715691
v -20.717083 33.971245 11.080696
v -21.034584 34.288742 11.080696
v -20.717083 34.923744 12.668190
v -20.082085 35.241245 12.668190
v -20.717083 34.923744 11.080696
v -20.082085 35.241245 11.080696
v -21.034584 34.288742 11.715691
v -21.352083 34.288742 12.033195
v -20.717083 34.923744 12.668190
v -21.672588 34.288742 12.350693
v -20.717083 34.923744 11.080696
v -21.034584 34.288742 11.080696
v -20.717083 34.923744 12.668190
v -21.034584 34.288742 11.715691
v -21.034584 33.971245 12.350693
v -21.602764 33.971245 12.668190
v -21.352083 34.288742 12.033195
v -21.672588 34.288742 12.350693
v -21.034584 33.971245 12.350693
v -21.272709 33.653744 12.112572
v -21.602764 33.971245 12.668190
v -21.672588 33.653744 12.350693
v -21.672588 28.891241 12.350693
v -21.510834 28.891241 11.874443
v -21.672588 24.128744 12.350693
v -21.510834 24.128744 11.874443
v -21.510834 14.603746 11.874443
v -21.672588 14.603746 12.350693
v -21.510834 19.366245 11.874443
v -21.672588 19.366245 12.350693
v -21.193333 14.444997 12.191940
v -21.352083 14.286247 12.033195
v -21.669582 14.444997 12.509445
v -21.672588 14.286247 12.350693
v -22.304585 14.444997 12.509445
v -21.669582 14.444997 12.509445
v -22.304585 14.286247 12.350693
v -21.672588 14.286247 12.350693
v -22.304585 14.444997 12.509445
v -22.304585 14.603746 12.350693
v -21.669582 14.444997 12.509445
v -21.672588 14.603746 12.350693
v -22.304585 14.603746 12.350693
v -22.304585 19.366245 12.350693
v -21.672588 14.603746 12.350693
v -21.672588 19.366245 12.350693
v -22.304585 28.891241 12.350693
v -21.672588 28.891241 12.350693
v -22.304585 24.128744 12.350693
v -21.672588 24.128744 12.350693
v -21.602764 33.971245 12.668190
v -21.672588 33.653744 12.350693
v -22.304585 33.971245 12.668190
v -22.304585 33.653744 12.350693
v -22.304585 33.971245 12.668190
v -22.304585 34.288742 12.350693
v -21.602764 33.971245 12.668190
v -21.672588 34.288742 12.350693
v -22.304585 34.288742 12.350693
v -22.304585 34.923744 12.668190
v -21.672588 34.288742 12.350693
v -20.717083 34.923744 12.668190
v -22.304585 35.241245 13.303192
v -20.717083 35.241245 13.303192
v -22.304585 34.923744 12.668190
v -20.717083 34.923744 12.668190
v -21.510834 19.366245 11.874443
v -21.510834 24.128744 11.874443
v -21.034584 19.366245 11.715691
v -21.034584 24.128744 11.715691
v -21.672588 19.366245 12.350693
v -21.672588 24.128744 12.350693
v -21.510834 19.366245 11.874443
v -21.510834 24.128744 11.874443
v -22.304585 24.128744 12.350693
v -21.672588 24.128744 12.350693
v -22.304585 19.366245 12.350693
v -21.672588 19.366245 12.350693
v -21.510834 28.891241 11.874443
v -21.510834 33.653744 11.874443
v -21.034584 28.891241 11.715691
v -21.034584 33.653744 11.715691
v -21.672588 28.891241 12.350693
v -21.672588 33.653744 12.350693
v -21.510834 28.891241 11.874443
v -21.510834 33.653744 11.874443
v -22.304585 33.653744 12.350693
v -21.672588 33.653744 12.350693
v -22.304585 28.891241 12.350693
v -21.672588 28.891241 12.350693
v -21.193333 14.444997 12.191940
v -21.669582 14.444997 12.509445
v -21.352083 14.603746 12.033195
v -21.672588 14.603746 12.350693
v -21.352083 14.603746 12.033195
v -21.034584 14.603746 11.715691
v -21.193333 14.444997 12.191940
v -20.875834 14.444997 11.874443
v -23.098333 14.444998 10.286942
v -23.415833 14.444998 10.604446
v -22.939583 14.286248 10.445694
v -23.257084 14.286248 10.763191
v -23.415833 14.444998 10.604446
v -23.415833 14.444997 11.398193
v -23.257084 14.286248 10.763191
v -23.257084 14.286247 11.398193
v -23.415833 14.444997 11.398193
v -23.415833 14.444998 10.604446
v -23.257084 14.603746 11.398193
v -23.257084 14.603747 10.763191
v -23.257084 14.603747 10.763191
v -22.780834 14.603747 10.604446
v -23.257084 19.366243 10.763191
v -22.780834 19.366243 10.604446
v -23.257084 14.603747 10.763191
v -23.257084 19.366243 10.763191
v -23.257084 14.603746 11.398193
v -23.257084 19.366245 11.398193
v -22.780834 28.891239 10.604446
v -23.257084 28.891239 10.763191
v -22.780834 24.128742 10.604446
v -23.257084 24.128742 10.763191
v -23.257084 28.891239 10.763191
v -23.257084 28.891241 11.398193
v -23.257084 24.128742 10.763191
v -23.257084 24.128744 11.398193
v -23.257084 33.971245 10.128197
v -23.574583 33.971245 10.586960
v -23.018959 33.653744 10.366318
v -23.257084 33.653744 10.763191
v -23.574583 33.971245 10.586960
v -23.574583 33.971245 11.398193
v -23.257084 33.653744 10.763191
v -23.257084 33.653744 11.398193
v -23.257084 33.971245 10.128197
v -22.939583 34.288742 10.445694
v -23.574583 33.971245 10.586960
v -23.257084 34.288742 10.763191
v -23.574583 33.971245 10.586960
v -23.257084 34.288742 10.763191
v -23.574583 33.971245 11.398193
v -23.257084 34.288742 11.398193
v -23.574583 34.923744 9.810692
v -24.209583 35.241245 9.810692
v -23.574583 34.923744 11.398193
v -24.209583 35.241245 11.398193
v -23.574583 34.923744 11.398193
v -23.257084 34.288742 11.398193
v -23.574583 34.923744 9.810692
v -23.257084 34.288742 10.763191
v -23.257084 33.971245 10.128197
v -22.688904 33.971245 9.810692
v -22.939583 34.288742 10.445694
v -22.619080 34.288742 10.128197
v -23.257084 33.971245 10.128197
v -23.018959 33.653744 10.366318
v -22.688904 33.971245 9.810692
v -22.619080 33.653744 10.128197
v -22.619080 28.891239 10.128197
v -22.780834 28.891239 10.604446
v -22.619080 24.128742 10.128189
v -22.780834 24.128742 10.604446
v -22.780834 14.603747 10.604446
v -22.619080 14.603747 10.128189
v -22.780834 19.366243 10.604446
v -22.619080 19.366243 10.128189
v -23.098333 14.444998 10.286942
v -22.939583 14.286248 10.445694
v -22.622084 14.444998 9.969444
v -22.619080 14.286248 10.128189
v -22.304585 14.444998 9.969444
v -22.622084 14.444998 9.969444
v -22.304585 14.286248 10.128189
v -22.619080 14.286248 10.128189
v -22.304585 14.444998 9.969444
v -22.304585 14.603747 10.128189
v -22.622084 14.444998 9.969444
v -22.619080 14.603747 10.128189
v -22.688904 33.971245 9.810692
v -22.619080 33.653744 10.128197
v -22.304585 33.971245 9.810692
v -22.304585 33.653744 10.128197
v -22.304585 33.971245 9.810692
v -22.304585 34.288742 10.128197
v -22.688904 33.971245 9.810692
v -22.619080 34.288742 10.128197
v -22.304585 34.288742 10.128197
v -22.304585 34.923744 9.810692
v -22.619080 34.288742 10.128197
v -23.574583 34.923744 9.810692
v -22.304585 35.241245 9.175690
v -23.574585 35.241245 9.175690
v -22.304585 34.923744 9.810692
v -23.574583 34.923744 9.810692
v -23.257084 24.128742 10.763191
v -23.257084 24.128744 11.398193
v -23.257084 19.366243 10.763191
v -23.257084 19.366245 11.398193
v -22.780834 19.366243 10.604446
v -22.780834 24.128742 10.604446
v -23.257084 19.366243 10.763191
v -23.257084 24.128742 10.763191
v -22.619080 19.366243 10.128189
v -22.619080 24.128742 10.128189
v -22.780834 19.366243 10.604446
v -22.780834 24.128742 10.604446
v -23.257084 28.891239 10.763191
v -23.257084 33.653744 10.763191
v -23.257084 28.891241 11.398193
v -23.257084 33.653744 11.398193
v -22.780834 28.891239 10.604446
v -22.780834 33.653744 10.604446
v -23.257084 28.891239 10.763191
v -23.257084 33.653744 10.763191
v -22.619080 28.891239 10.128197
v -22.619080 33.653744 10.128197
v -22.780834 28.891239 10.604446
v -22.780834 33.653744 10.604446
v -23.098333 14.444998 10.286942
v -22.622084 14.444998 9.969444
v -22.939583 14.603747 10.445694
v -22.619080 14.603747 10.128189
v -22.939583 14.603747 10.445694
v -23.257084 14.603747 10.763191
v -23.098333 14.444998 10.286942
v -23.415833 14.444998 10.604446
v -21.193335 14.444998 -15.430557
v -20.875835 14.444998 -15.748055
v -21.352085 14.286248 -15.589306
v -21.034584 14.286248 -15.906807
v -20.875835 14.444998 -15.748055
v -20.875835 14.444998 -16.541805
v -21.034584 14.286248 -15.906807
v -21.034584 14.286248 -16.541805
v -20.875835 14.444998 -16.541805
v -20.875835 14.444998 -15.748055
v -21.034584 14.603748 -16.541805
v -21.034584 14.603748 -15.906807
v -21.034584 14.603748 -15.906807
v -21.510834 14.603748 -15.748055
v -21.034584 19.366243 -15.906807
v -21.510834 19.366243 -15.748055
v -21.510834 28.891241 -15.748055
v -21.034584 28.891241 -15.906807
v -21.510834 24.128742 -15.748055
v -21.034584 24.128742 -15.906807
v -21.034584 33.971245 -15.271805
v -20.717085 33.971245 -15.730568
v -21.272709 33.653744 -15.509930
v -21.034584 33.653744 -15.906807
v -20.717085 33.971245 -15.730568
v -20.717085 33.971245 -16.541805
v -21.034584 33.653744 -15.906807
v -21.034584 33.653744 -16.541805
v -21.034584 33.971245 -15.271805
v -21.352085 34.288742 -15.589306
v -20.717085 33.971245 -15.730568
v -21.034584 34.288742 -15.906807
v -20.717085 33.971245 -15.730568
v -21.034584 34.288742 -15.906807
v -20.717085 33.971245 -16.541805
v -21.034584 34.288742 -16.541805
v -20.717085 34.923744 -14.954304
v -20.082085 35.241245 -14.954304
v -20.717085 34.923744 -16.541805
v -20.082085 35.241245 -16.541805
v -21.034584 34.288742 -15.906807
v -21.352085 34.288742 -15.589306
v -20.717085 34.923744 -14.954304
v -21.672588 34.288742 -15.271805
v -20.717085 34.923744 -16.541805
v -21.034584 34.288742 -16.541805
v -20.717085 34.923744 -14.954304
v -21.034584 34.288742 -15.906807
v -21.034584 33.971245 -15.271805
v -21.602764 33.971245 -14.954304
v -21.352085 34.288742 -15.589306
v -21.672588 34.288742 -15.271805
v -21.034584 33.971245 -15.271805
v -21.272709 33.653744 -15.509930
v -21.602764 33.971245 -14.954304
v -21.672588 33.653744 -15.271805
v -21.672588 28.891241 -15.271805
v -21.510834 28.891241 -15.748055
v -21.672588 24.128742 -15.271805
v -21.510834 24.128742 -15.748055
v -21.510834 14.603748 -15.748055
v -21.672588 14.603748 -15.271805
v -21.510834 19.366243 -15.748055
v -21.672588 19.366243 -15.271805
v -21.193335 14.444998 -15.430557
v -21.352085 14.286248 -15.589306
v -21.669584 14.444998 -15.113056
v -21.672588 14.286248 -15.271805
v -21.987083 14.444998 -15.113056
v -21.669584 14.444998 -15.113056
v -21.987083 14.286248 -15.271805
v -21.672588 14.286248 -15.271805
v -21.987083 14.444998 -15.113056
v -21.987083 14.603748 -15.271805
v -21.669584 14.444998 -15.113056
v -21.672588 14.603748 -15.271805
v -21.602764 33.971245 -14.954304
v -21.672588 33.653744 -15.271805
v -21.987083 33.971245 -14.954304
v -21.987083 33.653744 -15.271805
v -21.987083 33.971245 -14.954304
v -21.987083 34.288742 -15.271805
v -21.602764 33.971245 -14.954304
v -21.672588 34.288742 -15.271805
v -21.987083 34.288742 -15.271805
v -21.987083 34.923744 -14.954304
v -21.672588 34.288742 -15.271805
v -20.717085 34.923744 -14.954304
v -21.987083 35.241245 -14.319305
v -20.717083 35.241245 -14.319305
v -21.987083 34.923744 -14.954304
v -20.717085 34.923744 -14.954304
v -21.510834 19.366243 -15.748055
v -21.510834 24.128742 -15.748055
v -21.034584 19.366243 -15.906807
v -21.034584 24.128742 -15.906807
v -21.672588 19.366243 -15.271805
v -21.672588 24.128742 -15.271805
v -21.510834 19.366243 -15.748055
v -21.510834 24.128742 -15.748055
v -21.510834 28.891241 -15.748055
v -21.510834 33.653744 -15.748055
v -21.034584 28.891241 -15.906807
v -21.034584 33.653744 -15.906807
v -21.672588 28.891241 -15.271805
v -21.672588 33.653744 -15.271805
v -21.510834 28.891241 -15.748055
v -21.510834 33.653744 -15.748055
v -21.193335 14.444998 -15.430557
v -21.669584 14.444998 -15.113056
v -21.352085 14.603748 -15.589306
v -21.672588 14.603748 -15.271805
v -21.352085 14.603748 -15.589306
v -21.034584 14.603748 -15.906807
v -21.193335 14.444998 -15.430557
v -20.875835 14.444998 -15.748055
v -23.098333 14.444998 -15.430557
v -22.780834 14.444998 -15.113056
v -22.939583 14.286248 -15.589306
v -22.622084 14.286248 -15.271805
v -22.780834 14.444998 -15.113056
v -21.987083 14.444998 -15.113056
v -22.622084 14.286248 -15.271805
v -21.987083 14.286248 -15.271805
v -21.987083 14.444998 -15.113056
v -22.780834 14.444998 -15.113056
v -21.987083 14.603748 -15.271805
v -22.622084 14.603748 -15.271805
v -22.622084 14.603748 -15.271805
v -22.780834 14.603748 -15.748055
v -22.622084 19.366243 -15.271805
v -22.780834 19.366243 -15.748055
v -22.780834 28.891241 -15.748055
v -22.622084 28.891241 -15.271805
v -22.780834 24.128742 -15.748055
v -22.622084 24.128742 -15.271805
v -23.257084 33.971245 -15.271805
v -22.798321 33.971245 -14.954304
v -23.018959 33.653744 -15.509930
v -22.622084 33.653744 -15.271805
v -22.798321 33.971245 -14.954304
v -21.987083 33.971245 -14.954304
v -22.622084 33.653744 -15.271805
v -21.987083 33.653744 -15.271805
v -23.257084 33.971245 -15.271805
v -22.939583 34.288742 -15.589306
v -22.798321 33.971245 -14.954304
v -22.622084 34.288742 -15.271805
v -22.798321 33.971245 -14.954304
v -22.622084 34.288742 -15.271805
v -21.987083 33.971245 -14.954304
v -21.987083 34.288742 -15.271805
v -23.574585 34.923744 -14.954304
v -23.574585 35.241245 -14.319305
v -21.987083 34.923744 -14.954304
v -21.987083 35.241245 -14.319305
v -22.622084 34.288742 -15.271805
v -22.939583 34.288742 -15.589306
v -23.574585 34.923744 -14.954304
v -23.257084 34.288742 -15.909805
v -21.987083 34.923744 -14.954304
v -21.987083 34.288742 -15.271805
v -23.574585 34.923744 -14.954304
v -22.622084 34.288742 -15.271805
v -23.257084 33.971245 -15.271805
v -23.574585 33.971245 -15.839989
v -22.939583 34.288742 -15.589306
v -23.257084 34.288742 -15.909805
v -23.257084 33.971245 -15.271805
v -23.018959 33.653744 -15.509930
v -23.574585 33.971245 -15.839989
v -23.257084 33.653744 -15.909805
v -23.257084 28.891241 -15.909805
v -22.780834 28.891241 -15.748055
v -23.257084 24.128742 -15.909805
v -22.780834 24.128742 -15.748055
v -22.780834 14.603748 -15.748055
v -23.257084 14.603748 -15.909805
v -22.780834 19.366243 -15.748055
v -23.257084 19.366243 -15.909805
v -23.098333 14.444998 -15.430557
v -22.939583 14.286248 -15.589306
v -23.415834 14.444998 -15.906807
v -23.257084 14.286248 -15.909805
v -23.415834 14.444998 -16.541805
v -23.415834 14.444998 -15.906807
v -23.257084 14.286248 -16.541805
v -23.257084 14.286248 -15.909805
v -23.415834 14.444998 -16.541805
v -23.257084 14.603748 -16.541805
v -23.415834 14.444998 -15.906807
v -23.257084 14.603748 -15.909805
v -23.257084 14.603748 -16.541805
v -23.257084 19.366245 -16.541805
v -23.257084 14.603748 -15.909805
v -23.257084 19.366243 -15.909805
v -23.257084 28.891243 -16.541805
v -23.257084 28.891241 -15.909805
v -23.257084 24.128744 -16.541805
v -23.257084 24.128742 -15.909805
v -23.574585 33.971245 -15.839989
v -23.257084 33.653744 -15.909805
v -23.574585 33.971245 -16.541805
v -23.257084 33.653744 -16.541805
v -23.574585 33.971245 -16.541805
v -23.257084 34.288742 -16.541805
v -23.574585 33.971245 -15.839989
v -23.257084 34.288742 -15.909805
v -23.257084 34.288742 -16.541805
v -23.574585 34.923744 -16.541805
v -23.257084 34.288742 -15.909805
v -23.574585 34.923744 -14.954304
v -24.209583 35.241245 -16.541805
v -24.209583 35.241245 -14.954304
v -23.574585 34.923744 -16.541805
v -23.574585 34.923744 -14.954304
v -22.780834 19.366243 -15.748055
v -22.780834 24.128742 -15.748055
v -22.622084 19.366243 -15.271805
v -22.622084 24.128742 -15.271805
v -23.257084 19.366243 -15.909805
v -23.257084 24.128742 -15.909805
v -22.780834 19.366243 -15.748055
v -22.780834 24.128742 -15.748055
v -23.257084 24.128744 -16.541805
v -23.257084 24.128742 -15.909805
v -23.257084 19.366245 -16.541805
v -23.257084 19.366243 -15.909805
v -22.780834 28.891241 -15.748055
v -22.780834 33.653744 -15.748055
v -22.622084 28.891241 -15.271805
v -22.622084 33.653744 -15.271805
v -23.257084 28.891241 -15.909805
v -23.257084 33.653744 -15.909805
v -22.780834 28.891241 -15.748055
v -22.780834 33.653744 -15.748055
v -23.257084 33.653744 -16.541805
v -23.257084 33.653744 -15.909805
v -23.257084 28.891243 -16.541805
v -23.257084 28.891241 -15.909805
v -23.098333 14.444998 -15.430557
v -23.415834 14.444998 -15.906807
v -22.939583 14.603748 -15.589306
v -23.257084 14.603748 -15.909805
v -22.939583 14.603748 -15.589306
v -22.622084 14.603748 -15.271805
v -23.098333 14.444998 -15.430557
v -22.780834 14.444998 -15.113056
v -21.193335 14.444998 -17.335556
v -21.510834 14.444997 -17.653057
v -21.352085 14.286248 -17.176804
v -21.669584 14.286247 -17.494305
v -21.510834 14.444997 -17.653057
v -22.304585 14.444997 -17.653057
v -21.669584 14.286247 -17.494305
v -22.304585 14.286247 -17.494305
v -22.304585 14.444997 -17.653057
v -21.510834 14.444997 -17.653057
v -22.304585 14.603747 -17.494305
v -21.669584 14.603747 -17.494305
v -21.669584 14.603747 -17.494305
v -21.510834 14.603748 -17.018055
v -21.669584 19.366245 -17.494305
v -21.510834 19.366245 -17.018055
v -21.669584 14.603747 -17.494305
v -21.669584 19.366245 -17.494305
v -22.304585 14.603747 -17.494305
v -22.304585 19.366245 -17.494305
v -21.510834 28.891243 -17.018055
v -21.669584 28.891243 -17.494305
v -21.510834 24.128744 -17.018055
v -21.669584 24.128744 -17.494305
v -21.669584 28.891243 -17.494305
v -22.304585 28.891243 -17.494305
v -21.669584 24.128744 -17.494305
v -22.304585 24.128744 -17.494305
v -21.034584 33.971245 -17.494305
v -21.493347 33.971245 -17.811806
v -21.272709 33.653744 -17.256180
v -21.669584 33.653744 -17.494305
v -21.493347 33.971245 -17.811806
v -22.304585 33.971245 -17.811806
v -21.669584 33.653744 -17.494305
v -22.304585 33.653744 -17.494305
v -21.034584 33.971245 -17.494305
v -21.352085 34.288742 -17.176804
v -21.493347 33.971245 -17.811806
v -21.669584 34.288742 -17.494305
v -21.493347 33.971245 -17.811806
v -21.669584 34.288742 -17.494305
v -22.304585 33.971245 -17.811806
v -22.304585 34.288742 -17.494305
v -20.717085 34.923744 -17.811806
v -20.717085 35.241245 -18.446804
v -22.304585 34.923744 -17.811806
v -22.304585 35.241245 -18.446804
v -21.669584 34.288742 -17.494305
v -21.352085 34.288742 -17.176804
v -20.717085 34.923744 -17.811806
v -21.034584 34.288742 -16.856304
v -22.304585 34.923744 -17.811806
v -22.304585 34.288742 -17.494305
v -20.717085 34.923744 -17.811806
v -21.669584 34.288742 -17.494305
v -21.034584 33.971245 -17.494305
v -20.717085 33.971245 -16.926132
v -21.352085 34.288742 -17.176804
v -21.034584 34.288742 -16.856304
v -21.034584 33.971245 -17.494305
v -21.272709 33.653744 -17.256180
v -20.717085 33.971245 -16.926132
v -21.034584 33.653744 -16.856304
v -21.034584 28.891243 -16.856304
v -21.510834 28.891243 -17.018055
v -21.034584 24.128744 -16.856304
v -21.510834 24.128744 -17.018055
v -21.510834 14.603748 -17.018055
v -21.034584 14.603748 -16.856304
v -21.510834 19.366245 -17.018055
v -21.034584 19.366245 -16.856304
v -21.193335 14.444998 -17.335556
v -21.352085 14.286248 -17.176804
v -20.875835 14.444998 -16.859306
v -21.034584 14.286248 -16.856304
v -20.875835 14.444998 -16.541805
v -20.875835 14.444998 -16.859306
v -21.034584 14.286248 -16.541805
v -21.034584 14.286248 -16.856304
v -20.875835 14.444998 -16.541805
v -21.034584 14.603748 -16.541805
v -20.875835 14.444998 -16.859306
v -21.034584 14.603748 -16.856304
v -20.717085 33.971245 -16.926132
v -21.034584 33.653744 -16.856304
v -20.717085 33.971245 -16.541805
v -21.034584 33.653744 -16.541805
v -20.717085 33.971245 -16.541805
v -21.034584 34.288742 -16.541805
v -20.717085 33.971245 -16.926132
v -21.034584 34.288742 -16.856304
v -21.034584 34.288742 -16.541805
v -20.717085 34.923744 -16.541805
v -21.034584 34.288742 -16.856304
v -20.717085 34.923744 -17.811806
v -20.082085 35.241245 -16.541805
v -20.082085 35.241245 -17.811806
v -20.717085 34.923744 -16.541805
v -20.717085 34.923744 -17.811806
v -21.669584 24.128744 -17.494305
v -22.304585 24.128744 -17.494305
v -21.669584 19.366245 -17.494305
v -22.304585 19.366245 -17.494305
v -21.510834 19.366245 -17.018055
v -21.510834 24.128744 -17.018055
v -21.669584 19.366245 -17.494305
v -21.669584 24.128744 -17.494305
v -21.034584 19.366245 -16.856304
v -21.034584 24.128744 -16.856304
v -21.510834 19.366245 -17.018055
v -21.510834 24.128744 -17.018055
v -21.669584 28.891243 -17.494305
v -21.669584 33.653744 -17.494305
v -22.304585 28.891243 -17.494305
v -22.304585 33.653744 -17.494305
v -21.510834 28.891243 -17.018055
v -21.510834 33.653744 -17.018055
v -21.669584 28.891243 -17.494305
v -21.669584 33.653744 -17.494305
v -21.034584 28.891243 -16.856304
v -21.034584 33.653744 -16.856304
v -21.510834 28.891243 -17.018055
v -21.510834 33.653744 -17.018055
v -21.193335 14.444998 -17.335556
v -20.875835 14.444998 -16.859306
v -21.352085 14.603748 -17.176804
v -21.034584 14.603748 -16.856304
v -21.352085 14.603748 -17.176804
v -21.669584 14.603747 -17.494305
v -21.193335 14.444998 -17.335556
v -21.510834 14.444997 -17.653057
v -21.193335 14.444998 -27.178055
v -21.352085 14.286248 -27.336803
v -21.510834 14.444998 -26.860554
v -21.669584 14.286248 -27.019306
v -21.510834 14.444998 -26.860554
v -21.669584 14.286248 -27.019306
v -22.304585 14.444998 -26.860554
v -22.304585 14.286248 -27.019306
v -22.304585 14.444998 -26.860554
v -22.304585 14.603748 -27.019306
v -21.510834 14.444998 -26.860554
v -21.669584 14.603748 -27.019306
v -21.669584 14.603748 -27.019306
v -21.669584 19.366243 -27.019306
v -21.510834 14.603748 -27.495556
v -21.510834 19.366243 -27.495556
v -21.669584 14.603748 -27.019306
v -22.304585 14.603748 -27.019306
v -21.669584 19.366243 -27.019306
v -22.304585 19.366243 -27.019306
v -21.510834 28.891241 -27.495556
v -21.510834 24.128742 -27.495556
v -21.669584 28.891241 -27.019306
v -21.669584 24.128742 -27.019306
v -21.669584 28.891241 -27.019306
v -21.669584 24.128742 -27.019306
v -22.304585 28.891241 -27.019306
v -22.304585 24.128742 -27.019306
v -21.034584 33.971245 -27.019306
v -21.272709 33.653744 -27.257431
v -21.493347 33.971245 -26.701805
v -21.669584 33.653744 -27.019306
v -21.493347 33.971245 -26.701805
v -21.669584 33.653744 -27.019306
v -22.304585 33.971245 -26.701805
v -22.304585 33.653744 -27.019306
v -21.034584 33.971245 -27.019306
v -21.493347 33.971245 -26.701805
v -21.352085 34.288742 -27.336803
v -21.669584 34.288742 -27.019306
v -21.493347 33.971245 -26.701805
v -22.304585 33.971245 -26.701805
v -21.669584 34.288742 -27.019306
v -22.304585 34.288742 -27.019306
v -20.717085 34.923744 -26.701805
v -22.304585 34.923744 -26.701805
v -20.717085 35.241245 -26.066803
v -22.304585 35.241245 -26.066803
v -22.304585 34.923744 -26.701805
v -20.717085 34.923744 -26.701805
v -22.304585 34.288742 -27.019306
v -21.669584 34.288742 -27.019306
v -21.034584 33.971245 -27.019306
v -21.352085 34.288742 -27.336803
v -20.717085 33.971245 -27.587486
v -21.034584 34.288742 -27.657310
v -21.034584 33.971245 -27.019306
v -20.717085 33.971245 -27.587486
v -21.272709 33.653744 -27.257431
v -21.034584 33.653744 -27.657310
v -21.034584 28.891241 -27.657310
v -21.034584 24.128742 -27.657310
v -21.510834 28.891241 -27.495556
v -21.510834 24.128742 -27.495556
v -21.510834 14.603748 -27.495556
v -21.510834 19.366243 -27.495556
v -21.034584 14.603748 -27.657310
v -21.034584 19.366243 -27.657310
v -21.193335 14.444998 -27.178055
v -20.875835 14.444998 -27.654305
v -21.352085 14.286248 -27.336803
v -21.034584 14.286248 -27.657310
v -20.875835 14.444998 -27.971806
v -21.034584 14.286248 -27.971806
v -20.875835 14.444998 -27.654305
v -21.034584 14.286248 -27.657310
v -20.875835 14.444998 -27.971806
v -20.875835 14.444998 -27.654305
v -21.034584 14.603748 -27.971806
v -21.034584 14.603748 -27.657310
v -21.034584 14.603748 -27.971806
v -21.034584 14.603748 -27.657310
v -21.034584 19.366243 -27.971806
v -21.034584 19.366243 -27.657310
v -21.034584 28.891241 -27.971806
v -21.034584 24.128742 -27.971806
v -21.034584 28.891241 -27.657310
v -21.034584 24.128742 -27.657310
v -20.717085 33.971245 -27.587486
v -20.717085 33.971245 -27.971806
v -21.034584 33.653744 -27.657310
v -21.034584 33.653744 -27.971806
v -20.717085 33.971245 -27.971806
v -20.717085 33.971245 -27.587486
v -21.034584 34.288742 -27.971806
v -21.034584 34.288742 -27.657310
v -21.034584 34.288742 -27.971806
v -21.034584 34.288742 -27.657310
v -20.717085 34.923744 -27.971806
v -20.717085 34.923744 -26.701805
v -20.082085 35.241245 -27.971806
v -20.717085 34.923744 -27.971806
v -20.082085 35.241245 -26.701801
v -20.717085 34.923744 -26.701805
v -21.669584 24.128742 -27.019306
v -21.669584 19.366243 -27.019306
v -22.304585 24.128742 -27.019306
v -22.304585 19.366243 -27.019306
v -21.510834 19.366243 -27.495556
v -21.669584 19.366243 -27.019306
v -21.510834 24.128742 -27.495556
v -21.669584 24.128742 -27.019306
v -21.034584 19.366243 -27.657310
v -21.510834 19.366243 -27.495556
v -21.034584 24.128742 -27.657310
v -21.510834 24.128742 -27.495556
v -21.034584 24.128742 -27.971806
v -21.034584 19.366243 -27.971806
v -21.034584 24.128742 -27.657310
v -21.034584 19.366243 -27.657310
v -21.669584 28.891241 -27.019306
v -22.304585 28.891241 -27.019306
v -21.669584 33.653744 -27.019306
v -22.304585 33.653744 -27.019306
v -21.510834 28.891241 -27.495556
v -21.669584 28.891241 -27.019306
v -21.510834 33.653744 -27.495556
v -21.669584 33.653744 -27.019306
v -21.034584 28.891241 -27.657310
v -21.510834 28.891241 -27.495556
v -21.034584 33.653744 -27.657310
v -21.510834 33.653744 -27.495556
v -21.034584 33.653744 -27.971806
v -21.034584 28.891241 -27.971806
v -21.034584 33.653744 -27.657310
v -21.034584 28.891241 -27.657310
v -21.193335 14.444998 -27.178055
v -21.352085 14.603748 -27.336803
v -20.875835 14.444998 -27.654305
v -21.034584 14.603748 -27.657310
v -21.352085 14.603748 -27.336803
v -21.193335 14.444998 -27.178055
v -21.669584 14.603748 -27.019306
v -21.510834 14.444998 -26.860554
v -21.669584 14.603747 21.875694
v -21.352085 14.603747 22.193192
v -21.510834 14.603747 22.351944
v -21.510834 14.603747 22.351944
v -21.352085 14.603747 22.193192
v -21.034584 14.603747 22.513695
v -20.082085 35.241245 21.558189
v -20.717085 35.241245 21.558189
v -20.717085 34.923744 21.558189
v -20.717085 35.241245 20.923195
v -20.717085 34.923744 21.558189
v -20.717085 35.241245 21.558189
v -21.034584 33.653744 22.513695
v -21.272709 33.653744 22.113815
v -21.510834 33.653744 22.351944
v -21.510834 33.653744 22.351944
v -21.272709 33.653744 22.113815
v -21.669584 33.653744 21.875694
v -21.669582 14.603747 10.128189
v -21.352083 14.603747 10.445694
v -21.510834 14.603747 10.604446
v -21.510834 14.603747 10.604446
v -21.352083 14.603747 10.445694
v -21.034584 14.603747 10.766205
v -20.082085 35.241245 9.810692
v -20.717083 35.241245 9.810692
v -20.717083 34.923744 9.810692
v -20.717083 35.241245 9.175690
v -20.717083 34.923744 9.810692
v -20.717083 35.241245 9.810692
v -21.034584 33.653744 10.766205
v -21.272709 33.653744 10.366318
v -21.510834 33.653744 10.604446
v -21.510834 33.653744 10.604446
v -21.272709 33.653744 10.366318
v -21.669582 33.653744 10.128197
v -21.034584 14.603746 11.715691
v -21.352083 14.603746 12.033195
v -21.510834 14.603746 11.874443
v -21.510834 14.603746 11.874443
v -21.352083 14.603746 12.033195
v -21.672588 14.603746 12.350693
v -20.717083 35.241245 13.303192
v -20.717083 35.241245 12.668190
v -20.717083 34.923744 12.668190
v -20.082085 35.241245 12.668190
v -20.717083 34.923744 12.668190
v -20.717083 35.241245 12.668190
v -21.672588 33.653744 12.350693
v -21.272709 33.653744 12.112572
v -21.510834 33.653744 11.874443
v -21.510834 33.653744 11.874443
v -21.272709 33.653744 12.112572
v -21.034584 33.653744 11.715691
v -23.257084 14.603747 10.763191
v -22.939583 14.603747 10.445694
v -22.780834 14.603747 10.604446
v -22.780834 14.603747 10.604446
v -22.939583 14.603747 10.445694
v -22.619080 14.603747 10.128189
v -23.574585 35.241245 9.175690
v -23.574585 35.241245 9.810692
v -23.574583 34.923744 9.810692
v -24.209583 35.241245 9.810692
v -23.574583 34.923744 9.810692
v -23.574585 35.241245 9.810692
v -22.619080 33.653744 10.128197
v -23.018959 33.653744 10.366318
v -22.780834 33.653744 10.604446
v -22.780834 33.653744 10.604446
v -23.018959 33.653744 10.366318
v -23.257084 33.653744 10.763191
v -21.034584 14.603748 -15.906807
v -21.352085 14.603748 -15.589306
v -21.510834 14.603748 -15.748055
v -21.510834 14.603748 -15.748055
v -21.352085 14.603748 -15.589306
v -21.672588 14.603748 -15.271805
v -20.717083 35.241245 -14.319305
v -20.717083 35.241245 -14.954304
v -20.717085 34.923744 -14.954304
v -20.082085 35.241245 -14.954304
v -20.717085 34.923744 -14.954304
v -20.717083 35.241245 -14.954304
v -21.672588 33.653744 -15.271805
v -21.272709 33.653744 -15.509930
v -21.510834 33.653744 -15.748055
v -21.510834 33.653744 -15.748055
v -21.272709 33.653744 -15.509930
v -21.034584 33.653744 -15.906807
v -22.622084 14.603748 -15.271805
v -22.939583 14.603748 -15.589306
v -22.780834 14.603748 -15.748055
v -22.780834 14.603748 -15.748055
v -22.939583 14.603748 -15.589306
v -23.257084 14.603748 -15.909805
v -24.209583 35.241245 -14.954304
v -23.574585 35.241245 -14.954304
v -23.574585 34.923744 -14.954304
v -23.574585 35.241245 -14.319305
v -23.574585 34.923744 -14.954304
v -23.574585 35.241245 -14.954304
v -23.257084 33.653744 -15.909805
v -23.018959 33.653744 -15.509930
v -22.780834 33.653744 -15.748055
v -22.780834 33.653744 -15.748055
v -23.018959 33.653744 -15.509930
v -22.622084 33.653744 -15.271805
v -21.669584 14.603747 -17.494305
v -21.352085 14.603748 -17.176804
v -21.510834 14.603748 -17.018055
v -21.510834 14.603748 -17.018055
v -21.352085 14.603748 -17.176804
v -21.034584 14.603748 -16.856304
v -20.082085 35.241245 -17.811806
v -20.717085 35.241245 -17.811806
v -20.717085 34.923744 -17.811806
v -20.717085 35.241245 -18.446804
v -20.717085 34.923744 -17.811806
v -20.717085 35.241245 -17.811806
v -21.034584 33.653744 -16.856304
v -21.272709 33.653744 -17.256180
v -21.510834 33.653744 -17.018055
v -21.510834 33.653744 -17.018055
v -21.272709 33.653744 -17.256180
v -21.669584 33.653744 -17.494305
v -21.352085 14.603748 -27.336803
v -21.669584 14.603748 -27.019306
v -21.510834 14.603748 -27.495556
v -21.352085 14.603748 -27.336803
v -21.510834 14.603748 -27.495556
v -21.034584 14.603748 -27.657310
v -20.717085 35.241245 -26.701801
v -20.082085 35.241245 -26.701801
v -20.717085 34.923744 -26.701805
v -20.717085 34.923744 -26.701805
v -20.717085 35.241245 -26.066803
v -20.717085 35.241245 -26.701801
v -21.272709 33.653744 -27.257431
v -21.034584 33.653744 -27.657310
v -21.510834 33.653744 -27.495556
v -21.272709 33.653744 -27.257431
v -21.510834 33.653744 -27.495556
v -21.669584 33.653744 -27.019306
vt 2.871094 -1.000000
vt 3.245117 -1.000000
vt 2.871094 -0.000977
vt 3.245117 -0.000977
vt 2.871094 -1.000000
vt 3.245117 -1.000000
vt 2.871094 -0.000977
vt 3.245117 -0.000977
vt 2.871094 -0.000977
vt 3.245117 -0.000977
vt 2.871094 -1.000000
vt 3.245117 -1.000000
vt -2.310547 -0.003906
vt -2.310547 0.991211
vt -2.248047 -0.003906
vt -2.248047 0.991211
vt -2.310547 -0.003906
vt -2.498047 -0.003906
vt -2.310547 0.991211
vt -2.498047 0.991211
vt -1.500000 0.999023
vt -1.500000 0.000000
vt -1.559570 0.999023
vt -1.559570 0.000000
vt -1.559570 0.999023
vt -1.559570 0.000000
vt -1.746094 0.999023
vt -1.746094 0.000000
vt 2.871094 -0.000977
vt 3.245117 -0.000977
vt 2.871094 -1.000000
vt 3.245117 -1.000000
vt 2.871094 -0.000977
vt 3.245117 -0.000977
vt 2.871094 -1.000000
vt 3.245117 -1.000000
vt 2.871094 -1.000000
vt 2.871094 -0.000977
vt 3.245117 -1.000000
vt 3.245117 -0.000977
vt 2.871094 -1.000000
vt 2.871094 -0.000977
vt 3.245117 -1.000000
vt 3.245117 -0.000977
vt -1.623047 -1.396484
vt -1.623047 -1.094727
vt -1.762695 -1.290039
vt -1.762695 -1.094727
vt 0.449219 -1.002930
vt 0.449219 -1.252930
vt 0.231445 -1.002930
vt 0.231445 -1.127930
vt 2.871094 -0.000977
vt 3.245117 -0.000977
vt 2.871094 -1.000000
vt 3.245117 -1.000000
vt 2.871094 -1.000000
vt 2.871094 -0.000977
vt 3.245117 -1.000000
vt 3.245117 -0.000977
vt -1.634766 0.999023
vt -1.634766 0.000000
vt -1.500000 0.999023
vt -1.500000 0.000000
vt -2.248047 -0.003906
vt -2.248047 0.991211
vt -2.388672 -0.003906
vt -2.388672 0.991211
vt 2.871094 -0.000977
vt 2.871094 -1.000000
vt 3.245117 -0.000977
vt 3.245117 -1.000000
vt 2.871094 -1.000000
vt 3.245117 -1.000000
vt 2.871094 -0.000977
vt 3.245117 -0.000977
vt 2.871094 -1.000000
vt 2.871094 -0.000977
vt 3.245117 -1.000000
vt 3.245117 -0.000977
vt -2.498047 -0.003906
vt -2.388672 -0.003906
vt -2.498047 0.991211
vt -2.388672 0.991211
vt -1.748047 0.999023
vt -1.748047 0.000000
vt -1.634766 0.999023
vt -1.634766 0.000000
vt 2.871094 -1.000000
vt 2.871094 -0.000977
vt 3.245117 -1.000000
vt 3.245117 -0.000977
vt 2.871094 -1.000000
vt 2.871094 -0.000977
vt 3.245117 -1.000000
vt 3.245117 -0.000977
vt 0.231445 -1.752930
vt 0.231445 -1.627930
vt 0.449219 -1.752930
vt 0.449219 -1.252930
vt -1.762695 -1.752930
vt -1.623047 -1.752930
vt -1.762695 -1.502930
vt -1.623047 -1.396484
vt -1.060547 0.995117
vt -1.060547 -0.003906
vt -1.246094 0.995117
vt -1.246094 -0.003906
vt -1.000000 -0.003906
vt -1.060547 -0.003906
vt -1.000000 0.995117
vt -1.060547 0.995117
vt -1.136719 -0.003906
vt -1.000000 -0.003906
vt -1.136719 0.995117
vt -1.000000 0.995117
vt -1.247070 0.995117
vt -1.247070 -0.003906
vt -1.136719 0.995117
vt -1.136719 -0.003906
vt -2.810547 -0.003906
vt -2.998047 -0.003906
vt -2.810547 0.995117
vt -2.998047 0.995117
vt -2.748047 -0.003906
vt -2.810547 -0.003906
vt -2.748047 0.995117
vt -2.810547 0.995117
vt -2.888672 -0.003906
vt -2.748047 -0.003906
vt -2.888672 0.995117
vt -2.748047 0.995117
vt -2.998047 0.995117
vt -2.998047 -0.003906
vt -2.888672 0.995117
vt -2.888672 -0.003906
vt 2.871094 -0.000977
vt 3.245117 -0.000977
vt 2.871094 -1.000000
vt 3.245117 -1.000000
vt 3.245117 -1.000000
vt 2.871094 -1.000000
vt 3.245117 -0.000977
vt 2.871094 -0.000977
vt 2.871094 -1.000000
vt 3.245117 -1.000000
vt 2.871094 -0.000977
vt 3.245117 -0.000977
vt 2.871094 -1.000000
vt 3.245117 -1.000000
vt 2.871094 -0.000977
vt 3.245117 -0.000977
vt 2.871094 -0.000977
vt 3.245117 -0.000977
vt 2.871094 -1.000000
vt 3.245117 -1.000000
vt -2.310547 -0.003906
vt -2.310547 0.991211
vt -2.248047 -0.003906
vt -2.248047 0.991211
vt -1.500000 0.999023
vt -1.500000 0.000000
vt -1.559570 0.999023
vt -1.559570 0.000000
vt 2.871094 -0.000977
vt 3.245117 -0.000977
vt 2.871094 -1.000000
vt 3.245117 -1.000000
vt 2.871094 -0.000977
vt 3.245117 -0.000977
vt 2.871094 -1.000000
vt 3.245117 -1.000000
vt 2.871094 -1.000000
vt 2.871094 -0.000977
vt 3.245117 -1.000000
vt 3.245117 -0.000977
vt 2.871094 -1.000000
vt 2.871094 -0.000977
vt 3.245117 -1.000000
vt 3.245117 -0.000977
vt -1.623047 -1.396484
vt -1.623047 -1.094727
vt -1.762695 -1.290039
vt -1.762695 -1.094727
vt 0.231445 -1.127930
vt 0.449219 -1.252930
vt 0.231445 -1.377930
vt 0.231445 -1.627930
vt 0.449219 -1.002930
vt 0.449219 -1.252930
vt 0.231445 -1.002930
vt 0.231445 -1.127930
vt 2.871094 -0.000977
vt 3.245117 -0.000977
vt 2.871094 -1.000000
vt 3.245117 -1.000000
vt 2.871094 -1.000000
vt 2.871094 -0.000977
vt 3.245117 -1.000000
vt 3.245117 -0.000977
vt -1.634766 0.999023
vt -1.634766 0.000000
vt -1.500000 0.999023
vt -1.500000 0.000000
vt -2.248047 -0.003906
vt -2.248047 0.991211
vt -2.388672 -0.003906
vt -2.388672 0.991211
vt 2.871094 -0.000977
vt 2.871094 -1.000000
vt 3.245117 -0.000977
vt 3.245117 -1.000000
vt 2.871094 -1.000000
vt 3.245117 -1.000000
vt 2.871094 -0.000977
vt 3.245117 -0.000977
vt 2.871094 -1.000000
vt 2.871094 -0.000977
vt 3.245117 -1.000000
vt 3.245117 -0.000977
vt 2.871094 -1.000000
vt 2.871094 -0.000977
vt 3.245117 -1.000000
vt 3.245117 -0.000977
vt 2.871094 -1.000000
vt 2.871094 -0.000977
vt 3.245117 -1.000000
vt 3.245117 -0.000977
vt 0.231445 -1.752930
vt 0.231445 -1.627930
vt 0.449219 -1.752930
vt 0.449219 -1.252930
vt -1.762695 -1.752930
vt -1.623047 -1.752930
vt -1.762695 -1.502930
vt -1.623047 -1.396484
vt -1.000000 -0.003906
vt -1.060547 -0.003906
vt -1.000000 0.995117
vt -1.060547 0.995117
vt -1.136719 -0.003906
vt -1.000000 -0.003906
vt -1.136719 0.995117
vt -1.000000 0.995117
vt -2.748047 -0.003906
vt -2.810547 -0.003906
vt -2.748047 0.995117
vt -2.810547 0.995117
vt -2.888672 -0.003906
vt -2.748047 -0.003906
vt -2.888672 0.995117
vt -2.748047 0.995117
vt 2.871094 -0.000977
vt 3.245117 -0.000977
vt 2.871094 -1.000000
vt 3.245117 -1.000000
vt 3.245117 -1.000000
vt 2.871094 -1.000000
vt 3.245117 -0.000977
vt 2.871094 -0.000977
vt 2.871094 -1.000000
vt 3.245117 -1.000000
vt 2.871094 -0.000977
vt 3.245117 -0.000977
vt 2.871094 -1.000000
vt 3.245117 -1.000000
vt 2.871094 -0.000977
vt 3.245117 -0.000977
vt 2.871094 -0.000977
vt 3.245117 -0.000977
vt 2.871094 -1.000000
vt 3.245117 -1.000000
vt -2.310547 -0.003906
vt -2.310547 0.991211
vt -2.248047 -0.003906
vt -2.248047 0.991211
vt -1.500000 0.999023
vt -1.500000 0.000000
vt -1.559570 0.999023
vt -1.559570 0.000000
vt 2.871094 -0.000977
vt 3.245117 -0.000977
vt 2.871094 -1.000000
vt 3.245117 -1.000000
vt 2.871094 -0.000977
vt 3.245117 -0.000977
vt 2.871094 -1.000000
vt 3.245117 -1.000000
vt 2.871094 -1.000000
vt 2.871094 -0.000977
vt 3.245117 -1.000000
vt 3.245117 -0.000977
vt 2.871094 -1.000000
vt 2.871094 -0.000977
vt 3.245117 -1.000000
vt 3.245117 -0.000977
vt -1.623047 -1.396484
vt -1.623047 -1.094727
vt -1.762695 -1.290039
vt -1.762695 -1.094727
vt 0.231445 -1.127930
vt 0.449219 -1.252930
vt 0.231445 -1.377930
vt 0.231445 -1.627930
vt 0.449219 -1.002930
vt 0.449219 -1.252930
vt 0.231445 -1.002930
vt 0.231445 -1.127930
vt 2.871094 -0.000977
vt 3.245117 -0.000977
vt 2.871094 -1.000000
vt 3.245117 -1.000000
vt 2.871094 -1.000000
vt 2.871094 -0.000977
vt 3.245117 -1.000000
vt 3.245117 -0.000977
vt -1.634766 0.999023
vt -1.634766 0.000000
vt -1.500000 0.999023
vt -1.500000 0.000000
vt -2.248047 -0.003906
vt -2.248047 0.991211
vt -2.388672 -0.003906
vt -2.388672 0.991211
vt 2.871094 -0.000977
vt 2.871094 -1.000000
vt 3.245117 -0.000977
vt 3.245117 -1.000000
vt 2.871094 -1.000000
vt 3.245117 -1.000000
vt 2.871094 -0.000977
vt 3.245117 -0.000977
vt 2.871094 -1.000000
vt 2.871094 -0.000977
vt 3.245117 -1.000000
vt 3.245117 -0.000977
vt -2.498047 -0.003906
vt -2.388672 -0.003906
vt -2.498047 0.991211
vt -2.388672 0.991211
vt -1.748047 0.999023
vt -1.748047 0.000000
vt -1.634766 0.999023
vt -1.634766 0.000000
vt 2.871094 -1.000000
vt 2.871094 -0.000977
vt 3.245117 -1.000000
vt 3.245117 -0.000977
vt 2.871094 -1.000000
vt 2.871094 -0.000977
vt 3.245117 -1.000000
vt 3.245117 -0.000977
vt 0.231445 -1.752930
vt 0.231445 -1.627930
vt 0.449219 -1.752930
vt 0.449219 -1.252930
vt -1.762695 -1.752930
vt -1.623047 -1.752930
vt -1.762695 -1.502930
vt -1.623047 -1.396484
vt -1.000000 -0.003906
vt -1.060547 -0.003906
vt -1.000000 0.995117
vt -1.060547 0.995117
vt -1.136719 -0.003906
vt -1.000000 -0.003906
vt -1.136719 0.995117
vt -1.000000 0.995117
vt -1.247070 0.995117
vt -1.247070 -0.003906
vt -1.136719 0.995117
vt -1.136719 -0.003906
vt -2.748047 -0.003906
vt -2.810547 -0.003906
vt -2.748047 0.995117
vt -2.810547 0.995117
vt -2.888672 -0.003906
vt -2.748047 -0.003906
vt -2.888672 0.995117
vt -2.748047 0.995117
vt -2.998047 0.995117
vt -2.998047 -0.003906
vt -2.888672 0.995117
vt -2.888672 -0.003906
vt 2.871094 -0.000977
vt 3.245117 -0.000977
vt 2.871094 -1.000000
vt 3.245117 -1.000000
vt 3.245117 -1.000000
vt 2.871094 -1.000000
vt 3.245117 -0.000977
vt 2.871094 -0.000977
vt 2.871094 -1.000000
vt 3.245117 -1.000000
vt 2.871094 -0.000977
vt 3.245117 -0.000977
vt 2.871094 -1.000000
vt 3.245117 -1.000000
vt 2.871094 -0.000977
vt 3.245117 -0.000977
vt 2.871094 -0.000977
vt 3.245117 -0.000977
vt 2.871094 -1.000000
vt 3.245117 -1.000000
vt -2.310547 -0.003906
vt -2.310547 0.991211
vt -2.248047 -0.003906
vt -2.248047 0.991211
vt -2.310547 -0.003906
vt -2.498047 -0.003906
vt -2.310547 0.991211
vt -2.498047 0.991211
vt -1.500000 0.999023
vt -1.500000 0.000000
vt -1.559570 0.999023
vt -1.559570 0.000000
vt -1.559570 0.999023
vt -1.559570 0.000000
vt -1.746094 0.999023
vt -1.746094 0.000000
vt 2.871094 -0.000977
vt 3.245117 -0.000977
vt 2.871094 -1.000000
vt 3.245117 -1.000000
vt 2.871094 -0.000977
vt 3.245117 -0.000977
vt 2.871094 -1.000000
vt 3.245117 -1.000000
vt 2.871094 -1.000000
vt 2.871094 -0.000977
vt 3.245117 -1.000000
vt 3.245117 -0.000977
vt 2.871094 -1.000000
vt 2.871094 -0.000977
vt 3.245117 -1.000000
vt 3.245117 -0.000977
vt -1.623047 -1.396484
vt -1.623047 -1.094727
vt -1.762695 -1.290039
vt -1.762695 -1.094727
vt 0.449219 -1.002930
vt 0.449219 -1.252930
vt 0.231445 -1.002930
vt 0.231445 -1.127930
vt 2.871094 -0.000977
vt 3.245117 -0.000977
vt 2.871094 -1.000000
vt 3.245117 -1.000000
vt 2.871094 -1.000000
vt 2.871094 -0.000977
vt 3.245117 -1.000000
vt 3.245117 -0.000977
vt -1.634766 0.999023
vt -1.634766 0.000000
vt -1.500000 0.999023
vt -1.500000 0.000000
vt -2.248047 -0.003906
vt -2.248047 0.991211
vt -2.388672 -0.003906
vt -2.388672 0.991211
vt 2.871094 -0.000977
vt 2.871094 -1.000000
vt 3.245117 -0.000977
vt 3.245117 -1.000000
vt 2.871094 -1.000000
vt 3.245117 -1.000000
vt 2.871094 -0.000977
vt 3.245117 -0.000977
vt 2.871094 -1.000000
vt 2.871094 -0.000977
vt 3.245117 -1.000000
vt 3.245117 -0.000977
vt 2.871094 -1.000000
vt 2.871094 -0.000977
vt 3.245117 -1.000000
vt 3.245117 -0.000977
vt 2.871094 -1.000000
vt 2.871094 -0.000977
vt 3.245117 -1.000000
vt 3.245117 -0.000977
vt 0.231445 -1.752930
vt 0.231445 -1.627930
vt 0.449219 -1.752930
vt 0.449219 -1.252930
vt -1.762695 -1.752930
vt -1.623047 -1.752930
vt -1.762695 -1.502930
vt -1.623047 -1.396484
vt -1.060547 0.995117
vt -1.060547 -0.003906
vt -1.246094 0.995117
vt -1.246094 -0.003906
vt -1.000000 -0.003906
vt -1.060547 -0.003906
vt -1.000000 0.995117
vt -1.060547 0.995117
vt -1.136719 -0.003906
vt -1.000000 -0.003906
vt -1.136719 0.995117
vt -1.000000 0.995117
vt -2.810547 -0.003906
vt -2.998047 -0.003906
vt -2.810547 0.995117
vt -2.998047 0.995117
vt -2.748047 -0.003906
vt -2.810547 -0.003906
vt -2.748047 0.995117
vt -2.810547 0.995117
vt -2.888672 -0.003906
vt -2.748047 -0.003906
vt -2.888672 0.995117
vt -2.748047 0.995117
vt 2.871094 -0.000977
vt 3.245117 -0.000977
vt 2.871094 -1.000000
vt 3.245117 -1.000000
vt 3.245117 -1.000000
vt 2.871094 -1.000000
vt 3.245117 -0.000977
vt 2.871094 -0.000977
vt 2.871094 -1.000000
vt 3.245117 -1.000000
vt 2.871094 -0.000977
vt 3.245117 -0.000977
vt 2.871094 -1.000000
vt 3.245117 -1.000000
vt 2.871094 -0.000977
vt 3.245117 -0.000977
vt 2.871094 -0.000977
vt 3.245117 -0.000977
vt 2.871094 -1.000000
vt 3.245117 -1.000000
vt -2.310547 -0.003906
vt -2.310547 0.991211
vt -2.248047 -0.003906
vt -2.248047 0.991211
vt -1.500000 0.999023
vt -1.500000 0.000000
vt -1.559570 0.999023
vt -1.559570 0.000000
vt 2.871094 -0.000977
vt 3.245117 -0.000977
vt 2.871094 -1.000000
vt 3.245117 -1.000000
vt 2.871094 -0.000977
vt 3.245117 -0.000977
vt 2.871094 -1.000000
vt 3.245117 -1.000000
vt 2.871094 -1.000000
vt 2.871094 -0.000977
vt 3.245117 -1.000000
vt 3.245117 -0.000977
vt 2.871094 -1.000000
vt 2.871094 -0.000977
vt 3.245117 -1.000000
vt 3.245117 -0.000977
vt -1.623047 -1.396484
vt -1.623047 -1.094727
vt -1.762695 -1.290039
vt -1.762695 -1.094727
vt 0.231445 -1.127930
vt 0.449219 -1.252930
vt 0.231445 -1.377930
vt 0.231445 -1.627930
vt 0.449219 -1.002930
vt 0.449219 -1.252930
vt 0.231445 -1.002930
vt 0.231445 -1.127930
vt 2.871094 -0.000977
vt 3.245117 -0.000977
vt 2.871094 -1.000000
vt 3.245117 -1.000000
vt 2.871094 -1.000000
vt 2.871094 -0.000977
vt 3.245117 -1.000000
vt 3.245117 -0.000977
vt -1.634766 0.999023
vt -1.634766 0.000000
vt -1.500000 0.999023
vt -1.500000 0.000000
vt -2.248047 -0.003906
vt -2.248047 0.991211
vt -2.388672 -0.003906
vt -2.388672 0.991211
vt 2.871094 -0.000977
vt 2.871094 -1.000000
vt 3.245117 -0.000977
vt 3.245117 -1.000000
vt 2.871094 -1.000000
vt 3.245117 -1.000000
vt 2.871094 -0.000977
vt 3.245117 -0.000977
vt 2.871094 -1.000000
vt 2.871094 -0.000977
vt 3.245117 -1.000000
vt 3.245117 -0.000977
vt 2.871094 -1.000000
vt 2.871094 -0.000977
vt 3.245117 -1.000000
vt 3.245117 -0.000977
vt 2.871094 -1.000000
vt 2.871094 -0.000977
vt 3.245117 -1.000000
vt 3.245117 -0.000977
vt 0.231445 -1.752930
vt 0.231445 -1.627930
vt 0.449219 -1.752930
vt 0.449219 -1.252930
vt -1.762695 -1.752930
vt -1.623047 -1.752930
vt -1.762695 -1.502930
vt -1.623047 -1.396484
vt -1.000000 -0.003906
vt -1.060547 -0.003906
vt -1.000000 0.995117
vt -1.060547 0.995117
vt -1.136719 -0.003906
vt -1.000000 -0.003906
vt -1.136719 0.995117
vt -1.000000 0.995117
vt -2.748047 -0.003906
vt -2.810547 -0.003906
vt -2.748047 0.995117
vt -2.810547 0.995117
vt -2.888672 -0.003906
vt -2.748047 -0.003906
vt -2.888672 0.995117
vt -2.748047 0.995117
vt 2.871094 -0.000977
vt 3.245117 -0.000977
vt 2.871094 -1.000000
vt 3.245117 -1.000000
vt 3.245117 -1.000000
vt 2.871094 -1.000000
vt 3.245117 -0.000977
vt 2.871094 -0.000977
vt 2.871094 -1.000000
vt 3.245117 -1.000000
vt 2.871094 -0.000977
vt 3.245117 -0.000977
vt 2.871094 -1.000000
vt 3.245117 -1.000000
vt 2.871094 -0.000977
vt 3.245117 -0.000977
vt 2.871094 -0.000977
vt 3.245117 -0.000977
vt 2.871094 -1.000000
vt 3.245117 -1.000000
vt -2.310547 -0.003906
vt -2.310547 0.991211
vt -2.248047 -0.003906
vt -2.248047 0.991211
vt -1.500000 0.999023
vt -1.500000 0.000000
vt -1.559570 0.999023
vt -1.559570 0.000000
vt 2.871094 -0.000977
vt 3.245117 -0.000977
vt 2.871094 -1.000000
vt 3.245117 -1.000000
vt 2.871094 -0.000977
vt 3.245117 -0.000977
vt 2.871094 -1.000000
vt 3.245117 -1.000000
vt 2.871094 -1.000000
vt 2.871094 -0.000977
vt 3.245117 -1.000000
vt 3.245117 -0.000977
vt 2.871094 -1.000000
vt 2.871094 -0.000977
vt 3.245117 -1.000000
vt 3.245117 -0.000977
vt -1.623047 -1.396484
vt -1.623047 -1.094727
vt -1.762695 -1.290039
vt -1.762695 -1.094727
vt 0.231445 -1.127930
vt 0.449219 -1.252930
vt 0.231445 -1.377930
vt 0.231445 -1.627930
vt 0.449219 -1.002930
vt 0.449219 -1.252930
vt 0.231445 -1.002930
vt 0.231445 -1.127930
vt 2.871094 -0.000977
vt 3.245117 -0.000977
vt 2.871094 -1.000000
vt 3.245117 -1.000000
vt 2.871094 -1.000000
vt 2.871094 -0.000977
vt 3.245117 -1.000000
vt 3.245117 -0.000977
vt -1.634766 0.999023
vt -1.634766 0.000000
vt -1.500000 0.999023
vt -1.500000 0.000000
vt -2.248047 -0.003906
vt -2.248047 0.991211
vt -2.388672 -0.003906
vt -2.388672 0.991211
vt 2.871094 -0.000977
vt 2.871094 -1.000000
vt 3.245117 -0.000977
vt 3.245117 -1.000000
vt 2.871094 -1.000000
vt 3.245117 -1.000000
vt 2.871094 -0.000977
vt 3.245117 -0.000977
vt 2.871094 -1.000000
vt 2.871094 -0.000977
vt 3.245117 -1.000000
vt 3.245117 -0.000977
vt -2.498047 -0.003906
vt -2.388672 -0.003906
vt -2.498047 0.991211
vt -2.388672 0.991211
vt -1.748047 0.999023
vt -1.748047 0.000000
vt -1.634766 0.999023
vt -1.634766 0.000000
vt 2.871094 -1.000000
vt 2.871094 -0.000977
vt 3.245117 -1.000000
vt 3.245117 -0.000977
vt 2.871094 -1.000000
vt 2.871094 -0.000977
vt 3.245117 -1.000000
vt 3.245117 -0.000977
vt 0.231445 -1.752930
vt 0.231445 -1.627930
vt 0.449219 -1.752930
vt 0.449219 -1.252930
vt -1.762695 -1.752930
vt -1.623047 -1.752930
vt -1.762695 -1.502930
vt -1.623047 -1.396484
vt -1.000000 -0.003906
vt -1.060547 -0.003906
vt -1.000000 0.995117
vt -1.060547 0.995117
vt -1.136719 -0.003906
vt -1.000000 -0.003906
vt -1.136719 0.995117
vt -1.000000 0.995117
vt -1.247070 0.995117
vt -1.247070 -0.003906
vt -1.136719 0.995117
vt -1.136719 -0.003906
vt -2.748047 -0.003906
vt -2.810547 -0.003906
vt -2.748047 0.995117
vt -2.810547 0.995117
vt -2.888672 -0.003906
vt -2.748047 -0.003906
vt -2.888672 0.995117
vt -2.748047 0.995117
vt -2.998047 0.995117
vt -2.998047 -0.003906
vt -2.888672 0.995117
vt -2.888672 -0.003906
vt 2.871094 -0.000977
vt 3.245117 -0.000977
vt 2.871094 -1.000000
vt 3.245117 -1.000000
vt 3.245117 -1.000000
vt 2.871094 -1.000000
vt 3.245117 -0.000977
vt 2.871094 -0.000977
vt 2.871094 -1.000000
vt 3.245117 -1.000000
vt 2.871094 -0.000977
vt 3.245117 -0.000977
vt 2.871094 -1.000000
vt 3.245117 -1.000000
vt 2.871094 -0.000977
vt 3.245117 -0.000977
vt 2.871094 -0.000977
vt 3.245117 -0.000977
vt 2.871094 -1.000000
vt 3.245117 -1.000000
vt -2.310547 -0.003906
vt -2.310547 0.991211
vt -2.248047 -0.003906
vt -2.248047 0.991211
vt -2.310547 -0.003906
vt -2.498047 -0.003906
vt -2.310547 0.991211
vt -2.498047 0.991211
vt -1.500000 0.999023
vt -1.500000 0.000000
vt -1.559570 0.999023
vt -1.559570 0.000000
vt -1.559570 0.999023
vt -1.559570 0.000000
vt -1.746094 0.999023
vt -1.746094 0.000000
vt 2.871094 -0.000977
vt 3.245117 -0.000977
vt 2.871094 -1.000000
vt 3.245117 -1.000000
vt 2.871094 -0.000977
vt 3.245117 -0.000977
vt 2.871094 -1.000000
vt 3.245117 -1.000000
vt 2.871094 -1.000000
vt 2.871094 -0.000977
vt 3.245117 -1.000000
vt 3.245117 -0.000977
vt 2.871094 -1.000000
vt 2.871094 -0.000977
vt 3.245117 -1.000000
vt 3.245117 -0.000977
vt -1.623047 -1.396484
vt -1.623047 -1.094727
vt -1.762695 -1.290039
vt -1.762695 -1.094727
vt 0.231445 -1.127930
vt 0.449219 -1.252930
vt 0.231445 -1.377930
vt 0.231445 -1.627930
vt 0.449219 -1.002930
vt 0.449219 -1.252930
vt 0.231445 -1.002930
vt 0.231445 -1.127930
vt 2.871094 -0.000977
vt 3.245117 -0.000977
vt 2.871094 -1.000000
vt 3.245117 -1.000000
vt 2.871094 -1.000000
vt 2.871094 -0.000977
vt 3.245117 -1.000000
vt 3.245117 -0.000977
vt -1.634766 0.999023
vt -1.634766 0.000000
vt -1.500000 0.999023
vt -1.500000 0.000000
vt -2.248047 -0.003906
vt -2.248047 0.991211
vt -2.388672 -0.003906
vt -2.388672 0.991211
vt 2.871094 -0.000977
vt 2.871094 -1.000000
vt 3.245117 -0.000977
vt 3.245117 -1.000000
vt 2.871094 -1.000000
vt 3.245117 -1.000000
vt 2.871094 -0.000977
vt 3.245117 -0.000977
vt 2.871094 -1.000000
vt 2.871094 -0.000977
vt 3.245117 -1.000000
vt 3.245117 -0.000977
vt 2.871094 -1.000000
vt 2.871094 -0.000977
vt 3.245117 -1.000000
vt 3.245117 -0.000977
vt 2.871094 -1.000000
vt 2.871094 -0.000977
vt 3.245117 -1.000000
vt 3.245117 -0.000977
vt 0.231445 -1.752930
vt 0.231445 -1.627930
vt 0.449219 -1.752930
vt 0.449219 -1.252930
vt -1.762695 -1.752930
vt -1.623047 -1.752930
vt -1.762695 -1.502930
vt -1.623047 -1.396484
vt -1.060547 0.995117
vt -1.060547 -0.003906
vt -1.246094 0.995117
vt -1.246094 -0.003906
vt -1.000000 -0.003906
vt -1.060547 -0.003906
vt -1.000000 0.995117
vt -1.060547 0.995117
vt -1.136719 -0.003906
vt -1.000000 -0.003906
vt -1.136719 0.995117
vt -1.000000 0.995117
vt -2.810547 -0.003906
vt -2.998047 -0.003906
vt -2.810547 0.995117
vt -2.998047 0.995117
vt -2.748047 -0.003906
vt -2.810547 -0.003906
vt -2.748047 0.995117
vt -2.810547 0.995117
vt -2.888672 -0.003906
vt -2.748047 -0.003906
vt -2.888672 0.995117
vt -2.748047 0.995117
vt 2.871094 -0.000977
vt 3.245117 -0.000977
vt 2.871094 -1.000000
vt 3.245117 -1.000000
vt 3.245117 -1.000000
vt 2.871094 -1.000000
vt 3.245117 -0.000977
vt 2.871094 -0.000977
vt 2.871094 -1.000000
vt 2.871094 -0.000977
vt 3.245117 -1.000000
vt 3.245117 -0.000977
vt 2.871094 -1.000000
vt 2.871094 -0.000977
vt 3.245117 -1.000000
vt 3.245117 -0.000977
vt 2.871094 -0.000977
vt 2.871094 -1.000000
vt 3.245117 -0.000977
vt 3.245117 -1.000000
vt -2.310547 -0.003906
vt -2.248047 -0.003906
vt -2.310547 0.991211
vt -2.248047 0.991211
vt -2.310547 -0.003906
vt -2.310547 0.991211
vt -2.498047 -0.003906
vt -2.498047 0.991211
vt -1.500000 0.999023
vt -1.559570 0.999023
vt -1.500000 0.000000
vt -1.559570 0.000000
vt -1.559570 0.999023
vt -1.746094 0.999023
vt -1.559570 0.000000
vt -1.746094 0.000000
vt 2.871094 -0.000977
vt 2.871094 -1.000000
vt 3.245117 -0.000977
vt 3.245117 -1.000000
vt 2.871094 -0.000977
vt 2.871094 -1.000000
vt 3.245117 -0.000977
vt 3.245117 -1.000000
vt 2.871094 -1.000000
vt 3.245117 -1.000000
vt 2.871094 -0.000977
vt 3.245117 -0.000977
vt 2.871094 -1.000000
vt 3.245117 -1.000000
vt 2.871094 -0.000977
vt 3.245117 -0.000977
vt -1.623047 -1.396484
vt -1.762695 -1.290039
vt -1.623047 -1.094727
vt -1.762695 -1.094727
vt 0.449219 -1.002930
vt 0.231445 -1.002930
vt 0.449219 -1.252930
vt 0.231445 -1.127930
vt 2.871094 -0.000977
vt 2.871094 -1.000000
vt 3.245117 -0.000977
vt 3.245117 -1.000000
vt 2.871094 -1.000000
vt 3.245117 -1.000000
vt 2.871094 -0.000977
vt 3.245117 -0.000977
vt -1.634766 0.999023
vt -1.500000 0.999023
vt -1.634766 0.000000
vt -1.500000 0.000000
vt -2.248047 -0.003906
vt -2.388672 -0.003906
vt -2.248047 0.991211
vt -2.388672 0.991211
vt 2.871094 -0.000977
vt 3.245117 -0.000977
vt 2.871094 -1.000000
vt 3.245117 -1.000000
vt 2.871094 -1.000000
vt 2.871094 -0.000977
vt 3.245117 -1.000000
vt 3.245117 -0.000977
vt 2.871094 -1.000000
vt 3.245117 -1.000000
vt 2.871094 -0.000977
vt 3.245117 -0.000977
vt -2.498047 -0.003906
vt -2.498047 0.991211
vt -2.388672 -0.003906
vt -2.388672 0.991211
vt -1.748047 0.999023
vt -1.634766 0.999023
vt -1.748047 0.000000
vt -1.634766 0.000000
vt 2.871094 -1.000000
vt 3.245117 -1.000000
vt 2.871094 -0.000977
vt 3.245117 -0.000977
vt 2.871094 -1.000000
vt 3.245117 -1.000000
vt 2.871094 -0.000977
vt 3.245117 -0.000977
vt 0.231445 -1.752930
vt 0.449219 -1.752930
vt 0.231445 -1.627930
vt 0.449219 -1.252930
vt -1.762695 -1.752930
vt -1.762695 -1.502930
vt -1.623047 -1.752930
vt -1.623047 -1.396484
vt -1.060547 0.995117
vt -1.246094 0.995117
vt -1.060547 -0.003906
vt -1.246094 -0.003906
vt -1.000000 -0.003906
vt -1.000000 0.995117
vt -1.060547 -0.003906
vt -1.060547 0.995117
vt -1.136719 -0.003906
vt -1.136719 0.995117
vt -1.000000 -0.003906
vt -1.000000 0.995117
vt -1.247070 0.995117
vt -1.136719 0.995117
vt -1.247070 -0.003906
vt -1.136719 -0.003906
vt -2.810547 -0.003906
vt -2.810547 0.995117
vt -2.998047 -0.003906
vt -2.998047 0.995117
vt -2.748047 -0.003906
vt -2.748047 0.995117
vt -2.810547 -0.003906
vt -2.810547 0.995117
vt -2.888672 -0.003906
vt -2.888672 0.995117
vt -2.748047 -0.003906
vt -2.748047 0.995117
vt -2.998047 0.995117
vt -2.888672 0.995117
vt -2.998047 -0.003906
vt -2.888672 -0.003906
vt 2.871094 -0.000977
vt 2.871094 -1.000000
vt 3.245117 -0.000977
vt 3.245117 -1.000000
vt 3.245117 -1.000000
vt 3.245117 -0.000977
vt 2.871094 -1.000000
vt 2.871094 -0.000977
vt 3.245117 -0.000977
vt 3.069336 -1.000000
vt 3.245117 -1.000000
vt 3.069336 -0.000977
vt 3.245117 -1.000000
vt 3.245117 -0.000977
vt -1.762695 -1.502930
vt -1.623047 -1.396484
vt -1.762695 -1.361328
vt -1.762695 -1.290039
vt -1.762695 -1.361328
vt -1.623047 -1.396484
vt 3.245117 -0.000977
vt 3.056641 -1.000000
vt 3.245117 -1.000000
vt 3.056641 -0.000977
vt 3.245117 -1.000000
vt 3.245117 -0.000977
vt 3.245117 -0.000977
vt 3.069336 -1.000000
vt 3.245117 -1.000000
vt 3.069336 -0.000977
vt 3.245117 -1.000000
vt 3.245117 -0.000977
vt -1.762695 -1.502930
vt -1.623047 -1.396484
vt -1.762695 -1.361328
vt -1.762695 -1.290039
vt -1.762695 -1.361328
vt -1.623047 -1.396484
vt 3.245117 -0.000977
vt 3.056641 -1.000000
vt 3.245117 -1.000000
vt 3.056641 -0.000977
vt 3.245117 -1.000000
vt 3.245117 -0.000977
vt 3.245117 -0.000977
vt 3.069336 -1.000000
vt 3.245117 -1.000000
vt 3.069336 -0.000977
vt 3.245117 -1.000000
vt 3.245117 -0.000977
vt -1.762695 -1.502930
vt -1.623047 -1.396484
vt -1.762695 -1.361328
vt -1.762695 -1.290039
vt -1.762695 -1.361328
vt -1.623047 -1.396484
vt 3.245117 -0.000977
vt 3.056641 -1.000000
vt 3.245117 -1.000000
vt 3.056641 -0.000977
vt 3.245117 -1.000000
vt 3.245117 -0.000977
vt 3.245117 -0.000977
vt 3.069336 -1.000000
vt 3.245117 -1.000000
vt 3.069336 -0.000977
vt 3.245117 -1.000000
vt 3.245117 -0.000977
vt -1.762695 -1.502930
vt -1.623047 -1.396484
vt -1.762695 -1.361328
vt -1.762695 -1.290039
vt -1.762695 -1.361328
vt -1.623047 -1.396484
vt 3.245117 -0.000977
vt 3.056641 -1.000000
vt 3.245117 -1.000000
vt 3.056641 -0.000977
vt 3.245117 -1.000000
vt 3.245117 -0.000977
vt 3.245117 -0.000977
vt 3.069336 -1.000000
vt 3.245117 -1.000000
vt 3.069336 -0.000977
vt 3.245117 -1.000000
vt 3.245117 -0.000977
vt -1.762695 -1.502930
vt -1.623047 -1.396484
vt -1.762695 -1.361328
vt -1.762695 -1.290039
vt -1.762695 -1.361328
vt -1.623047 -1.396484
vt 3.245117 -0.000977
vt 3.056641 -1.000000
vt 3.245117 -1.000000
vt 3.056641 -0.000977
vt 3.245117 -1.000000
vt 3.245117 -0.000977
vt 3.245117 -0.000977
vt 3.069336 -1.000000
vt 3.245117 -1.000000
vt 3.069336 -0.000977
vt 3.245117 -1.000000
vt 3.245117 -0.000977
vt -1.762695 -1.502930
vt -1.623047 -1.396484
vt -1.762695 -1.361328
vt -1.762695 -1.290039
vt -1.762695 -1.361328
vt -1.623047 -1.396484
vt 3.245117 -0.000977
vt 3.056641 -1.000000
vt 3.245117 -1.000000
vt 3.056641 -0.000977
vt 3.245117 -1.000000
vt 3.245117 -0.000977
vt 3.245117 -0.000977
vt 3.069336 -1.000000
vt 3.245117 -1.000000
vt 3.069336 -0.000977
vt 3.245117 -1.000000
vt 3.245117 -0.000977
vt -1.762695 -1.502930
vt -1.623047 -1.396484
vt -1.762695 -1.361328
vt -1.762695 -1.290039
vt -1.762695 -1.361328
vt -1.623047 -1.396484
vt 3.245117 -0.000977
vt 3.056641 -1.000000
vt 3.245117 -1.000000
vt 3.056641 -0.000977
vt 3.245117 -1.000000
vt 3.245117 -0.000977
vt 3.245117 -1.000000
vt 3.069336 -1.000000
vt 3.245117 -0.000977
vt 3.245117 -0.000977
vt 3.245117 -1.000000
vt 3.069336 -0.000977
vt -1.762695 -1.361328
vt -1.623047 -1.396484
vt -1.762695 -1.502930
vt -1.623047 -1.396484
vt -1.762695 -1.361328
vt -1.762695 -1.290039
vt 3.245117 -1.000000
vt 3.056641 -1.000000
vt 3.245117 -0.000977
vt 3.245117 -0.000977
vt 3.245117 -1.000000
vt 3.056641 -0.000977
vn 0.4082 -0.8165 -0.4082
vn 0.0000 -0.7071 -0.7071
vn 0.0000 0.7071 -0.7071
vn 0.9487 0.0000 -0.3162
vn 0.0000 0.0000 -1.0000
vn 0.3937 -0.7220 -0.5689
vn 0.3388 -0.7526 -0.5646
vn 0.3321 0.8120 -0.4799
vn 0.2991 0.8508 -0.4321
vn 0.2773 0.8037 -0.5264
vn 0.5201 0.6775 -0.5201
vn 0.5466 0.7241 -0.4207
vn 0.4757 0.7398 -0.4757
vn 0.0000 -0.8944 -0.4472
vn 0.0000 -0.4472 -0.8944
vn 0.5169 0.8058 -0.2889
vn 0.5813 0.7872 -0.2058
vn 0.4271 0.8721 -0.2387
vn 0.4519 0.5975 -0.6624
vn 0.6124 0.5070 -0.6066
vn 0.5373 0.6543 -0.5322
vn 0.6110 -0.7143 -0.3414
vn 0.6011 -0.7251 -0.3359
vn 0.6180 -0.7126 -0.3321
vn 0.6277 -0.6828 -0.3738
vn 0.6104 -0.6943 -0.3813
vn 0.6162 -0.6969 -0.3669
vn 0.3216 0.0000 -0.9469
vn 0.4867 -0.8111 -0.3244
vn 0.3356 -0.9151 -0.2237
vn 0.5328 -0.8022 -0.2694
vn 0.6667 -0.3453 -0.6605
vn 0.5142 -0.5269 -0.6767
vn 0.5755 -0.5863 -0.5701
vn 0.7071 -0.7071 0.0000
vn 0.7071 0.7071 0.0000
vn 1.0000 0.0000 0.0000
vn 0.8944 -0.4472 0.0000
vn 0.4472 -0.8944 0.0000
vn 0.4867 0.8111 -0.3244
vn 0.5328 0.8022 -0.2694
vn 0.3356 0.9151 -0.2237
vn 0.5142 0.5269 -0.6767
vn 0.6667 0.3453 -0.6605
vn 0.5755 0.5863 -0.5701
vn 0.4082 0.8165 -0.4083
vn 0.4082 0.8165 -0.4082
vn 0.3938 -0.7220 -0.5689
vn 0.4154 -0.7243 -0.5503
vn 0.4066 -0.6997 -0.5875
vn 0.3114 -0.7528 -0.5799
vn 0.3252 -0.7749 -0.5420
vn 0.3388 -0.7527 -0.5646
vn 0.4082 -0.8165 -0.4083
vn 0.4077 -0.8162 -0.4094
vn 0.4075 -0.8173 -0.4075
vn 0.4094 -0.8172 -0.4056
vn 0.4113 -0.8162 -0.4057
vn 0.4102 -0.8165 -0.4063
vn 0.4519 0.5976 -0.6624
vn 0.6181 -0.7126 -0.3320
vn 0.6278 -0.6828 -0.3738
vn 0.3355 -0.9151 -0.2237
vn 0.5141 -0.5270 -0.6767
vn 0.4082 -0.8165 0.4083
vn 0.4083 -0.8165 0.4082
vn 0.3162 0.0000 0.9487
vn 0.5689 -0.7220 0.3937
vn 0.5503 -0.7243 0.4154
vn 0.5875 -0.6997 0.4066
vn 0.5799 -0.7528 0.3114
vn 0.5420 -0.7749 0.3252
vn 0.5646 -0.7526 0.3388
vn 0.4799 0.8120 0.3321
vn 0.4321 0.8508 0.2991
vn 0.5264 0.8037 0.2773
vn 0.5201 0.6774 0.5201
vn 0.4207 0.7241 0.5466
vn 0.4757 0.7398 0.4757
vn 0.4094 -0.8162 0.4077
vn 0.4075 -0.8173 0.4075
vn 0.4056 -0.8172 0.4094
vn 0.4058 -0.8162 0.4113
vn 0.4063 -0.8165 0.4102
vn 0.2889 0.8058 0.5169
vn 0.2058 0.7872 0.5813
vn 0.2387 0.8721 0.4271
vn 0.6624 0.5976 0.4519
vn 0.6066 0.5069 0.6124
vn 0.5322 0.6543 0.5373
vn 0.3414 -0.7143 0.6110
vn 0.3359 -0.7251 0.6011
vn 0.3321 -0.7126 0.6180
vn 0.3738 -0.6828 0.6277
vn 0.3813 -0.6943 0.6104
vn 0.3669 -0.6969 0.6162
vn 0.9469 0.0000 0.3216
vn 0.3244 -0.8111 0.4867
vn 0.2237 -0.9151 0.3355
vn 0.2694 -0.8022 0.5328
vn 0.6605 -0.3453 0.6668
vn 0.6768 -0.5270 0.5141
vn 0.5701 -0.5863 0.5755
vn 0.0000 -0.7071 0.7071
vn 0.0000 0.7071 0.7071
vn 0.0000 0.0000 1.0000
vn 0.0000 -0.4472 0.8944
vn 0.0000 -0.8944 0.4472
vn 0.3244 0.8111 0.4867
vn 0.2694 0.8022 0.5328
vn 0.2237 0.9151 0.3355
vn 0.6768 0.5269 0.5141
vn 0.6605 0.3453 0.6668
vn 0.5701 0.5863 0.5755
vn 0.4083 0.8165 0.4082
vn 0.4082 0.8165 0.4083
vn -0.4082 -0.8165 -0.4082
vn -0.4082 -0.8165 -0.4083
vn -0.7071 -0.7071 -0.0000
vn -0.7071 0.7071 0.0000
vn -0.3162 0.0000 -0.9487
vn -1.0000 0.0000 0.0000
vn -0.5689 -0.7220 -0.3937
vn -0.5503 -0.7243 -0.4154
vn -0.5875 -0.6997 -0.4066
vn -0.5800 -0.7528 -0.3114
vn -0.5420 -0.7749 -0.3252
vn -0.5646 -0.7526 -0.3388
vn -0.4799 0.8120 -0.3321
vn -0.4321 0.8508 -0.2991
vn -0.5265 0.8037 -0.2772
vn -0.5201 0.6774 -0.5201
vn -0.4207 0.7241 -0.5466
vn -0.4757 0.7398 -0.4757
vn -0.4472 -0.8944 0.0000
vn -0.8944 -0.4472 0.0000
vn -0.2889 0.8058 -0.5169
vn -0.2058 0.7872 -0.5813
vn -0.2387 0.8721 -0.4271
vn -0.6624 0.5976 -0.4519
vn -0.6066 0.5070 -0.6124
vn -0.5322 0.6543 -0.5372
vn -0.3414 -0.7143 -0.6110
vn -0.3359 -0.7251 -0.6011
vn -0.3321 -0.7126 -0.6180
vn -0.3738 -0.6828 -0.6277
vn -0.3813 -0.6943 -0.6104
vn -0.3669 -0.6969 -0.6162
vn -0.9469 0.0000 -0.3216
vn -0.3244 -0.8111 -0.4867
vn -0.2237 -0.9151 -0.3356
vn -0.2694 -0.8022 -0.5328
vn -0.6605 -0.3453 -0.6668
vn -0.6768 -0.5269 -0.5141
vn -0.5701 -0.5863 -0.5755
vn -0.3244 0.8111 -0.4867
vn -0.2694 0.8022 -0.5328
vn -0.2237 0.9151 -0.3356
vn -0.6768 0.5269 -0.5141
vn -0.6605 0.3452 -0.6668
vn -0.5701 0.5863 -0.5755
vn -0.4082 0.8165 -0.4083
vn -0.4082 0.8165 -0.4082
vn 0.4082 -0.8165 0.4082
vn 0.5800 -0.7528 0.3114
vn 0.5265 0.8037 0.2772
vn 0.5201 0.6775 0.5201
vn 0.2386 0.8721 0.4271
vn 0.6624 0.5975 0.4519
vn 0.6066 0.5070 0.6123
vn 0.5322 0.6543 0.5372
vn 0.2237 -0.9151 0.3356
vn 0.6768 -0.5269 0.5141
vn 0.2237 0.9151 0.3356
vn 0.6768 0.5270 0.5141
vn 0.6605 0.3453 0.6667
vn 0.4083 0.8165 0.4083
vn 0.4082 0.8165 0.4082
vn -0.4082 -0.8165 0.4082
vn -0.4083 -0.8165 0.4083
vn -0.9487 0.0000 0.3162
vn -0.3937 -0.7220 0.5689
vn -0.4154 -0.7243 0.5503
vn -0.4066 -0.6997 0.5875
vn -0.3114 -0.7528 0.5800
vn -0.3252 -0.7749 0.5420
vn -0.3388 -0.7526 0.5646
vn -0.3321 0.8120 0.4799
vn -0.2991 0.8508 0.4321
vn -0.2773 0.8037 0.5264
vn -0.5201 0.6775 0.5201
vn -0.5466 0.7241 0.4207
vn -0.4757 0.7398 0.4757
vn -0.4083 -0.8165 0.4082
vn -0.4076 -0.8162 0.4095
vn -0.4075 -0.8173 0.4074
vn -0.4094 -0.8173 0.4056
vn -0.4113 -0.8162 0.4057
vn -0.4102 -0.8165 0.4063
vn -0.5169 0.8058 0.2889
vn -0.5813 0.7872 0.2059
vn -0.4271 0.8721 0.2387
vn -0.4519 0.5976 0.6624
vn -0.6124 0.5069 0.6067
vn -0.5372 0.6543 0.5322
vn -0.6110 -0.7143 0.3414
vn -0.6011 -0.7251 0.3359
vn -0.6180 -0.7126 0.3321
vn -0.6278 -0.6828 0.3738
vn -0.6104 -0.6943 0.3813
vn -0.6162 -0.6969 0.3669
vn -0.3216 0.0000 0.9469
vn -0.4867 -0.8111 0.3244
vn -0.3355 -0.9151 0.2237
vn -0.5328 -0.8022 0.2694
vn -0.6668 -0.3452 0.6605
vn -0.5141 -0.5269 0.6768
vn -0.5755 -0.5863 0.5701
vn -0.4867 0.8111 0.3244
vn -0.5328 0.8022 0.2694
vn -0.3355 0.9151 0.2237
vn -0.5141 0.5269 0.6768
vn -0.6668 0.3452 0.6605
vn -0.5755 0.5863 0.5701
vn -0.4083 0.8165 0.4082
vn 0.2772 0.8037 -0.5265
vn 0.4075 -0.8172 -0.4075
vn 0.5813 0.7872 -0.2059
vn 0.6124 0.5069 -0.6067
vn 0.5372 0.6543 -0.5322
vn 0.5141 -0.5269 -0.6768
vn 0.3355 0.9151 -0.2237
vn 0.5141 0.5269 -0.6768
vn 0.6668 0.3452 -0.6605
vn 0.9487 0.0000 0.3162
vn 0.3937 -0.7220 0.5689
vn 0.4066 -0.6997 0.5875
vn 0.4154 -0.7243 0.5503
vn 0.3252 -0.7749 0.5420
vn 0.3114 -0.7528 0.5799
vn 0.3388 -0.7526 0.5646
vn 0.3321 0.8120 0.4799
vn 0.2773 0.8037 0.5265
vn 0.2991 0.8508 0.4321
vn 0.5466 0.7241 0.4207
vn 0.5169 0.8058 0.2889
vn 0.4271 0.8721 0.2387
vn 0.5813 0.7872 0.2059
vn 0.6124 0.5070 0.6066
vn 0.4519 0.5975 0.6624
vn 0.5373 0.6543 0.5322
vn 0.6110 -0.7143 0.3414
vn 0.6180 -0.7126 0.3321
vn 0.6011 -0.7251 0.3359
vn 0.6104 -0.6943 0.3813
vn 0.6277 -0.6828 0.3738
vn 0.6162 -0.6969 0.3669
vn 0.3216 0.0000 0.9469
vn 0.4867 -0.8111 0.3244
vn 0.5328 -0.8022 0.2694
vn 0.3355 -0.9151 0.2237
vn 0.5142 -0.5270 0.6767
vn 0.6667 -0.3453 0.6605
vn 0.5755 -0.5863 0.5701
vn 0.4867 0.8111 0.3244
vn 0.3355 0.9151 0.2237
vn 0.5328 0.8022 0.2694
vn 0.6667 0.3453 0.6605
vn 0.5142 0.5270 0.6767
vn 0.5755 0.5863 0.5701
vn 0.0000 1.0000 0.0000
vn 0.0000 -1.0000 0.0000
usemtl Tex_0073_0.dds
s off
f 1/1/1 3/2/1 2/3/1
f 2/3/1 3/2/1 4/4/1
f 5/5/2 7/6/2 6/7/2
f 6/7/2 7/6/2 8/8/2
f 9/9/3 11/10/3 10/11/3
f 10/11/3 11/10/3 12/12/3
f 13/13/4 15/14/4 14/15/4
f 14/15/4 15/14/4 16/16/4
f 17/17/5 19/18/5 18/19/5
f 18/19/5 19/18/5 20/20/5
f 21/21/4 23/22/4 22/23/4
f 22/23/4 23/22/4 24/24/4
f 25/25/5 27/26/5 26/27/5
f 26/27/5 27/26/5 28/28/5
f 29/29/6 31/30/6 30/31/6
f 30/31/7 31/30/7 32/32/7
f 33/33/2 35/34/2 34/35/2
f 34/35/2 35/34/2 36/36/2
f 37/37/8 39/38/9 38/39/10
f 38/39/11 39/38/12 40/40/13
f 41/41/3 43/42/3 42/43/3
f 42/43/3 43/42/3 44/44/3
f 45/45/14 47/46/14 46/47/14
f 46/47/14 47/46/14 48/48/14
f 49/49/15 51/50/15 50/51/15
f 50/51/15 51/50/15 52/52/15
f 53/53/16 55/54/17 54/55/18
f 54/55/19 55/54/20 56/56/21
f 57/57/22 59/58/23 58/59/24
f 58/59/25 59/58/26 60/60/27
f 61/61/28 63/62/28 62/63/28
f 62/63/28 63/62/28 64/64/28
f 65/65/28 67/66/28 66/67/28
f 66/67/28 67/66/28 68/68/28
f 69/69/29 71/70/30 70/71/31
f 70/71/32 71/70/33 72/72/34
f 73/73/35 75/74/35 74/75/35
f 74/75/35 75/74/35 76/76/35
f 77/77/36 79/78/36 78/79/36
f 78/79/36 79/78/36 80/80/36
f 81/81/37 83/82/37 82/83/37
f 82/83/37 83/82/37 84/84/37
f 85/85/37 87/86/37 86/87/37
f 86/87/37 87/86/37 88/88/37
f 89/89/35 91/90/35 90/91/35
f 90/91/35 91/90/35 92/92/35
f 93/93/36 95/94/36 94/95/36
f 94/95/36 95/94/36 96/96/36
f 97/97/38 99/98/38 98/99/38
f 98/99/38 99/98/38 100/100/38
f 101/101/39 103/102/39 102/103/39
f 102/103/39 103/102/39 104/104/39
f 105/105/5 107/106/5 106/107/5
f 106/107/5 107/106/5 108/108/5
f 109/109/4 111/110/4 110/111/4
f 110/111/4 111/110/4 112/112/4
f 113/113/28 115/114/28 114/115/28
f 114/115/28 115/114/28 116/116/28
f 117/117/37 119/118/37 118/119/37
f 118/119/37 119/118/37 120/120/37
f 121/121/5 123/122/5 122/123/5
f 122/123/5 123/122/5 124/124/5
f 125/125/4 127/126/4 126/127/4
f 126/127/4 127/126/4 128/128/4
f 129/129/28 131/130/28 130/131/28
f 130/131/28 131/130/28 132/132/28
f 133/133/37 135/134/37 134/135/37
f 134/135/37 135/134/37 136/136/37
f 137/137/40 139/138/41 138/139/42
f 138/139/43 139/138/44 140/140/45
f 141/141/46 143/142/46 142/143/46
f 142/143/47 143/142/47 144/144/47
f 145/145/1 147/146/1 146/147/1
f 146/147/1 147/146/1 148/148/1
f 149/149/2 151/150/2 150/151/2
f 150/151/2 151/150/2 152/152/2
f 153/153/3 155/154/3 154/155/3
f 154/155/3 155/154/3 156/156/3
f 157/157/4 159/158/4 158/159/4
f 158/159/4 159/158/4 160/160/4
f 161/161/4 163/162/4 162/163/4
f 162/163/4 163/162/4 164/164/4
f 165/165/48 167/166/49 166/167/50
f 166/167/51 167/166/52 168/168/53
f 169/169/2 171/170/2 170/171/2
f 170/171/2 171/170/2 172/172/2
f 173/173/8 175/174/9 174/175/10
f 174/175/11 175/174/12 176/176/13
f 177/177/3 179/178/3 178/179/3
f 178/179/3 179/178/3 180/180/3
f 181/181/14 183/182/14 182/183/14
f 182/183/14 183/182/14 184/184/14
f 185/185/54 187/186/55 186/187/56
f 186/187/57 187/186/58 188/188/59
f 189/189/15 191/190/15 190/191/15
f 190/191/15 191/190/15 192/192/15
f 193/193/16 195/194/17 194/195/18
f 194/195/60 195/194/20 196/196/21
f 197/197/22 199/198/23 198/199/61
f 198/199/62 199/198/26 200/200/27
f 201/201/28 203/202/28 202/203/28
f 202/203/28 203/202/28 204/204/28
f 205/205/28 207/206/28 206/207/28
f 206/207/28 207/206/28 208/208/28
f 209/209/29 211/210/63 210/211/31
f 210/211/32 211/210/64 212/212/34
f 213/213/35 215/214/35 214/215/35
f 214/215/35 215/214/35 216/216/35
f 217/217/36 219/218/36 218/219/36
f 218/219/36 219/218/36 220/220/36
f 221/221/35 223/222/35 222/223/35
f 222/223/35 223/222/35 224/224/35
f 225/225/36 227/226/36 226/227/36
f 226/227/36 227/226/36 228/228/36
f 229/229/38 231/230/38 230/231/38
f 230/231/38 231/230/38 232/232/38
f 233/233/39 235/234/39 234/235/39
f 234/235/39 235/234/39 236/236/39
f 237/237/4 239/238/4 238/239/4
f 238/239/4 239/238/4 240/240/4
f 241/241/28 243/242/28 242/243/28
f 242/243/28 243/242/28 244/244/28
f 245/245/4 247/246/4 246/247/4
f 246/247/4 247/246/4 248/248/4
f 249/249/28 251/250/28 250/251/28
f 250/251/28 251/250/28 252/252/28
f 253/253/40 255/254/40 254/255/40
f 254/255/45 255/254/45 256/256/45
f 257/257/47 259/258/47 258/259/47
f 258/259/46 259/258/46 260/260/46
f 261/261/65 263/262/65 262/263/65
f 262/263/66 263/262/66 264/264/66
f 265/265/35 267/266/35 266/267/35
f 266/267/35 267/266/35 268/268/35
f 269/269/36 271/270/36 270/271/36
f 270/271/36 271/270/36 272/272/36
f 273/273/67 275/274/67 274/275/67
f 274/275/67 275/274/67 276/276/67
f 277/277/67 279/278/67 278/279/67
f 278/279/67 279/278/67 280/280/67
f 281/281/68 283/282/69 282/283/70
f 282/283/71 283/282/72 284/284/73
f 285/285/35 287/286/35 286/287/35
f 286/287/35 287/286/35 288/288/35
f 289/289/74 291/290/75 290/291/76
f 290/291/77 291/290/78 292/292/79
f 293/293/36 295/294/36 294/295/36
f 294/295/36 295/294/36 296/296/36
f 297/297/39 299/298/39 298/299/39
f 298/299/39 299/298/39 300/300/39
f 301/301/66 303/302/80 302/303/81
f 302/303/82 303/302/83 304/304/84
f 305/305/38 307/306/38 306/307/38
f 306/307/38 307/306/38 308/308/38
f 309/309/85 311/310/86 310/311/87
f 310/311/88 311/310/89 312/312/90
f 313/313/91 315/314/92 314/315/93
f 314/315/94 315/314/95 316/316/96
f 317/317/97 319/318/97 318/319/97
f 318/319/97 319/318/97 320/320/97
f 321/321/97 323/322/97 322/323/97
f 322/323/97 323/322/97 324/324/97
f 325/325/98 327/326/99 326/327/100
f 326/327/101 327/326/102 328/328/103
f 329/329/104 331/330/104 330/331/104
f 330/331/104 331/330/104 332/332/104
f 333/333/105 335/334/105 334/335/105
f 334/335/105 335/334/105 336/336/105
f 337/337/106 339/338/106 338/339/106
f 338/339/106 339/338/106 340/340/106
f 341/341/106 343/342/106 342/343/106
f 342/343/106 343/342/106 344/344/106
f 345/345/104 347/346/104 346/347/104
f 346/347/104 347/346/104 348/348/104
f 349/349/105 351/350/105 350/351/105
f 350/351/105 351/350/105 352/352/105
f 353/353/107 355/354/107 354/355/107
f 354/355/107 355/354/107 356/356/107
f 357/357/108 359/358/108 358/359/108
f 358/359/108 359/358/108 360/360/108
f 361/361/67 363/362/67 362/363/67
f 362/363/67 363/362/67 364/364/67
f 365/365/97 367/366/97 366/367/97
f 366/367/97 367/366/97 368/368/97
f 369/369/106 371/370/106 370/371/106
f 370/371/106 371/370/106 372/372/106
f 373/373/67 375/374/67 374/375/67
f 374/375/67 375/374/67 376/376/67
f 377/377/97 379/378/97 378/379/97
f 378/379/97 379/378/97 380/380/97
f 381/381/106 383/382/106 382/383/106
f 382/383/106 383/382/106 384/384/106
f 385/385/109 387/386/110 386/387/111
f 386/387/112 387/386/113 388/388/114
f 389/389/115 391/390/115 390/391/115
f 390/391/116 391/390/116 392/392/116
f 393/393/117 395/394/117 394/395/117
f 394/395/118 395/394/118 396/396/118
f 397/397/119 399/398/119 398/399/119
f 398/399/119 399/398/119 400/400/119
f 401/401/120 403/402/120 402/403/120
f 402/403/120 403/402/120 404/404/120
f 405/405/121 407/406/121 406/407/121
f 406/407/121 407/406/121 408/408/121
f 409/409/122 411/410/122 410/411/122
f 410/411/122 411/410/122 412/412/122
f 413/413/121 415/414/121 414/415/121
f 414/415/121 415/414/121 416/416/121
f 417/417/122 419/418/122 418/419/122
f 418/419/122 419/418/122 420/420/122
f 421/421/123 423/422/124 422/423/125
f 422/423/126 423/422/127 424/424/128
f 425/425/119 427/426/119 426/427/119
f 426/427/119 427/426/119 428/428/119
f 429/429/129 431/430/130 430/431/131
f 430/431/132 431/430/133 432/432/134
f 433/433/120 435/434/120 434/435/120
f 434/435/120 435/434/120 436/436/120
f 437/437/135 439/438/135 438/439/135
f 438/439/135 439/438/135 440/440/135
f 441/441/136 443/442/136 442/443/136
f 442/443/136 443/442/136 444/444/136
f 445/445/137 447/446/138 446/447/139
f 446/447/140 447/446/141 448/448/142
f 449/449/143 451/450/144 450/451/145
f 450/451/146 451/450/147 452/452/148
f 453/453/149 455/454/149 454/455/149
f 454/455/149 455/454/149 456/456/149
f 457/457/149 459/458/149 458/459/149
f 458/459/149 459/458/149 460/460/149
f 461/461/150 463/462/151 462/463/152
f 462/463/153 463/462/154 464/464/155
f 465/465/2 467/466/2 466/467/2
f 466/467/2 467/466/2 468/468/2
f 469/469/3 471/470/3 470/471/3
f 470/471/3 471/470/3 472/472/3
f 473/473/2 475/474/2 474/475/2
f 474/475/2 475/474/2 476/476/2
f 477/477/3 479/478/3 478/479/3
f 478/479/3 479/478/3 480/480/3
f 481/481/15 483/482/15 482/483/15
f 482/483/15 483/482/15 484/484/15
f 485/485/14 487/486/14 486/487/14
f 486/487/14 487/486/14 488/488/14
f 489/489/122 491/490/122 490/491/122
f 490/491/122 491/490/122 492/492/122
f 493/493/121 495/494/121 494/495/121
f 494/495/121 495/494/121 496/496/121
f 497/497/149 499/498/149 498/499/149
f 498/499/149 499/498/149 500/500/149
f 501/501/122 503/502/122 502/503/122
f 502/503/122 503/502/122 504/504/122
f 505/505/121 507/506/121 506/507/121
f 506/507/121 507/506/121 508/508/121
f 509/509/149 511/510/149 510/511/149
f 510/511/149 511/510/149 512/512/149
f 513/513/156 515/514/157 514/515/158
f 514/515/159 515/514/160 516/516/161
f 517/517/162 519/518/162 518/519/162
f 518/519/163 519/518/163 520/520/163
f 521/521/164 523/522/164 522/523/164
f 522/523/65 523/522/65 524/524/65
f 525/525/35 527/526/35 526/527/35
f 526/527/35 527/526/35 528/528/35
f 529/529/36 531/530/36 530/531/36
f 530/531/36 531/530/36 532/532/36
f 533/533/67 535/534/67 534/535/67
f 534/535/67 535/534/67 536/536/67
f 537/537/67 539/538/67 538/539/67
f 538/539/67 539/538/67 540/540/67
f 541/541/68 543/542/69 542/543/70
f 542/543/165 543/542/72 544/544/73
f 545/545/35 547/546/35 546/547/35
f 546/547/35 547/546/35 548/548/35
f 549/549/74 551/550/75 550/551/166
f 550/551/167 551/550/78 552/552/79
f 553/553/36 555/554/36 554/555/36
f 554/555/36 555/554/36 556/556/36
f 557/557/39 559/558/39 558/559/39
f 558/559/39 559/558/39 560/560/39
f 561/561/65 563/562/80 562/563/81
f 562/563/82 563/562/83 564/564/84
f 565/565/38 567/566/38 566/567/38
f 566/567/38 567/566/38 568/568/38
f 569/569/85 571/570/86 570/571/168
f 570/571/169 571/570/170 572/572/171
f 573/573/91 575/574/92 574/575/93
f 574/575/94 575/574/95 576/576/96
f 577/577/97 579/578/97 578/579/97
f 578/579/97 579/578/97 580/580/97
f 581/581/97 583/582/97 582/583/97
f 582/583/97 583/582/97 584/584/97
f 585/585/98 587/586/172 586/587/100
f 586/587/101 587/586/173 588/588/103
f 589/589/104 591/590/104 590/591/104
f 590/591/104 591/590/104 592/592/104
f 593/593/105 595/594/105 594/595/105
f 594/595/105 595/594/105 596/596/105
f 597/597/104 599/598/104 598/599/104
f 598/599/104 599/598/104 600/600/104
f 601/601/105 603/602/105 602/603/105
f 602/603/105 603/602/105 604/604/105
f 605/605/107 607/606/107 606/607/107
f 606/607/107 607/606/107 608/608/107
f 609/609/108 611/610/108 610/611/108
f 610/611/108 611/610/108 612/612/108
f 613/613/67 615/614/67 614/615/67
f 614/615/67 615/614/67 616/616/67
f 617/617/97 619/618/97 618/619/97
f 618/619/97 619/618/97 620/620/97
f 621/621/67 623/622/67 622/623/67
f 622/623/67 623/622/67 624/624/67
f 625/625/97 627/626/97 626/627/97
f 626/627/97 627/626/97 628/628/97
f 629/629/109 631/630/110 630/631/174
f 630/631/175 631/630/176 632/632/114
f 633/633/177 635/634/177 634/635/177
f 634/635/178 635/634/178 636/636/178
f 637/637/179 639/638/179 638/639/179
f 638/639/180 639/638/180 640/640/180
f 641/641/104 643/642/104 642/643/104
f 642/643/104 643/642/104 644/644/104
f 645/645/105 647/646/105 646/647/105
f 646/647/105 647/646/105 648/648/105
f 649/649/181 651/650/181 650/651/181
f 650/651/181 651/650/181 652/652/181
f 653/653/181 655/654/181 654/655/181
f 654/655/181 655/654/181 656/656/181
f 657/657/182 659/658/183 658/659/184
f 658/659/185 659/658/186 660/660/187
f 661/661/104 663/662/104 662/663/104
f 662/663/104 663/662/104 664/664/104
f 665/665/188 667/666/189 666/667/190
f 666/667/191 667/666/192 668/668/193
f 669/669/105 671/670/105 670/671/105
f 670/671/105 671/670/105 672/672/105
f 673/673/108 675/674/108 674/675/108
f 674/675/108 675/674/108 676/676/108
f 677/677/194 679/678/195 678/679/196
f 678/679/197 679/678/198 680/680/199
f 681/681/107 683/682/107 682/683/107
f 682/683/107 683/682/107 684/684/107
f 685/685/200 687/686/201 686/687/202
f 686/687/203 687/686/204 688/688/205
f 689/689/206 691/690/207 690/691/208
f 690/691/209 691/690/210 692/692/211
f 693/693/212 695/694/212 694/695/212
f 694/695/212 695/694/212 696/696/212
f 697/697/212 699/698/212 698/699/212
f 698/699/212 699/698/212 700/700/212
f 701/701/213 703/702/214 702/703/215
f 702/703/216 703/702/217 704/704/218
f 705/705/119 707/706/119 706/707/119
f 706/707/119 707/706/119 708/708/119
f 709/709/120 711/710/120 710/711/120
f 710/711/120 711/710/120 712/712/120
f 713/713/122 715/714/122 714/715/122
f 714/715/122 715/714/122 716/716/122
f 717/717/122 719/718/122 718/719/122
f 718/719/122 719/718/122 720/720/122
f 721/721/119 723/722/119 722/723/119
f 722/723/119 723/722/119 724/724/119
f 725/725/120 727/726/120 726/727/120
f 726/727/120 727/726/120 728/728/120
f 729/729/136 731/730/136 730/731/136
f 730/731/136 731/730/136 732/732/136
f 733/733/135 735/734/135 734/735/135
f 734/735/135 735/734/135 736/736/135
f 737/737/181 739/738/181 738/739/181
f 738/739/181 739/738/181 740/740/181
f 741/741/212 743/742/212 742/743/212
f 742/743/212 743/742/212 744/744/212
f 745/745/122 747/746/122 746/747/122
f 746/747/122 747/746/122 748/748/122
f 749/749/181 751/750/181 750/751/181
f 750/751/181 751/750/181 752/752/181
f 753/753/212 755/754/212 754/755/212
f 754/755/212 755/754/212 756/756/212
f 757/757/122 759/758/122 758/759/122
f 758/759/122 759/758/122 760/760/122
f 761/761/219 763/762/220 762/763/221
f 762/763/222 763/762/223 764/764/224
f 765/765/225 767/766/225 766/767/225
f 766/767/225 767/766/225 768/768/225
f 769/769/1 771/770/1 770/771/1
f 770/771/1 771/770/1 772/772/1
f 773/773/2 775/774/2 774/775/2
f 774/775/2 775/774/2 776/776/2
f 777/777/3 779/778/3 778/779/3
f 778/779/3 779/778/3 780/780/3
f 781/781/4 783/782/4 782/783/4
f 782/783/4 783/782/4 784/784/4
f 785/785/5 787/786/5 786/787/5
f 786/787/5 787/786/5 788/788/5
f 789/789/4 791/790/4 790/791/4
f 790/791/4 791/790/4 792/792/4
f 793/793/5 795/794/5 794/795/5
f 794/795/5 795/794/5 796/796/5
f 797/797/6 799/798/49 798/799/50
f 798/799/51 799/798/52 800/800/7
f 801/801/2 803/802/2 802/803/2
f 802/803/2 803/802/2 804/804/2
f 805/805/8 807/806/9 806/807/226
f 806/807/11 807/806/12 808/808/13
f 809/809/3 811/810/3 810/811/3
f 810/811/3 811/810/3 812/812/3
f 813/813/14 815/814/14 814/815/14
f 814/815/14 815/814/14 816/816/14
f 817/817/54 819/818/55 818/819/227
f 818/819/57 819/818/58 820/820/59
f 821/821/15 823/822/15 822/823/15
f 822/823/15 823/822/15 824/824/15
f 825/825/16 827/826/228 826/827/18
f 826/827/60 827/826/229 828/828/230
f 829/829/22 831/830/23 830/831/24
f 830/831/25 831/830/26 832/832/27
f 833/833/28 835/834/28 834/835/28
f 834/835/28 835/834/28 836/836/28
f 837/837/28 839/838/28 838/839/28
f 838/839/28 839/838/28 840/840/28
f 841/841/29 843/842/63 842/843/31
f 842/843/32 843/842/231 844/844/34
f 845/845/35 847/846/35 846/847/35
f 846/847/35 847/846/35 848/848/35
f 849/849/36 851/850/36 850/851/36
f 850/851/36 851/850/36 852/852/36
f 853/853/35 855/854/35 854/855/35
f 854/855/35 855/854/35 856/856/35
f 857/857/36 859/858/36 858/859/36
f 858/859/36 859/858/36 860/860/36
f 861/861/38 863/862/38 862/863/38
f 862/863/38 863/862/38 864/864/38
f 865/865/39 867/866/39 866/867/39
f 866/867/39 867/866/39 868/868/39
f 869/869/5 871/870/5 870/871/5
f 870/871/5 871/870/5 872/872/5
f 873/873/4 875/874/4 874/875/4
f 874/875/4 875/874/4 876/876/4
f 877/877/28 879/878/28 878/879/28
f 878/879/28 879/878/28 880/880/28
f 881/881/5 883/882/5 882/883/5
f 882/883/5 883/882/5 884/884/5
f 885/885/4 887/886/4 886/887/4
f 886/887/4 887/886/4 888/888/4
f 889/889/28 891/890/28 890/891/28
f 890/891/28 891/890/28 892/892/28
f 893/893/40 895/894/41 894/895/232
f 894/895/233 895/894/234 896/896/45
f 897/897/47 899/898/47 898/899/47
f 898/899/47 899/898/47 900/900/47
f 901/901/66 903/902/66 902/903/66
f 902/903/164 903/902/164 904/904/164
f 905/905/104 907/906/104 906/907/104
f 906/907/104 907/906/104 908/908/104
f 909/909/105 911/910/105 910/911/105
f 910/911/105 911/910/105 912/912/105
f 913/913/235 915/914/235 914/915/235
f 914/915/235 915/914/235 916/916/235
f 917/917/106 919/918/106 918/919/106
f 918/919/106 919/918/106 920/920/106
f 921/921/235 923/922/235 922/923/235
f 922/923/235 923/922/235 924/924/235
f 925/925/106 927/926/106 926/927/106
f 926/927/106 927/926/106 928/928/106
f 929/929/236 931/930/237 930/931/238
f 930/931/239 931/930/240 932/932/241
f 933/933/104 935/934/104 934/935/104
f 934/935/104 935/934/104 936/936/104
f 937/937/242 939/938/243 938/939/244
f 938/939/245 939/938/167 940/940/79
f 941/941/105 943/942/105 942/943/105
f 942/943/105 943/942/105 944/944/105
f 945/945/108 947/946/108 946/947/108
f 946/947/108 947/946/108 948/948/108
f 949/949/107 951/950/107 950/951/107
f 950/951/107 951/950/107 952/952/107
f 953/953/246 955/954/247 954/955/248
f 954/955/249 955/954/250 956/956/251
f 957/957/252 959/958/253 958/959/254
f 958/959/255 959/958/256 960/960/257
f 961/961/258 963/962/258 962/963/258
f 962/963/258 963/962/258 964/964/258
f 965/965/258 967/966/258 966/967/258
f 966/967/258 967/966/258 968/968/258
f 969/969/259 971/970/260 970/971/261
f 970/971/262 971/970/263 972/972/264
f 973/973/35 975/974/35 974/975/35
f 974/975/35 975/974/35 976/976/35
f 977/977/36 979/978/36 978/979/36
f 978/979/36 979/978/36 980/980/36
f 981/981/37 983/982/37 982/983/37
f 982/983/37 983/982/37 984/984/37
f 985/985/37 987/986/37 986/987/37
f 986/987/37 987/986/37 988/988/37
f 989/989/35 991/990/35 990/991/35
f 990/991/35 991/990/35 992/992/35
f 993/993/36 995/994/36 994/995/36
f 994/995/36 995/994/36 996/996/36
f 997/997/38 999/998/38 998/999/38
f 998/999/38 999/998/38 1000/1000/38
f 1001/1001/39 1003/1002/39 1002/1003/39
f 1002/1003/39 1003/1002/39 1004/1004/39
f 1005/1005/106 1007/1006/106 1006/1007/106
f 1006/1007/106 1007/1006/106 1008/1008/106
f 1009/1009/235 1011/1010/235 1010/1011/235
f 1010/1011/235 1011/1010/235 1012/1012/235
f 1013/1013/258 1015/1014/258 1014/1015/258
f 1014/1015/258 1015/1014/258 1016/1016/258
f 1017/1017/37 1019/1018/37 1018/1019/37
f 1018/1019/37 1019/1018/37 1020/1020/37
f 1021/1021/106 1023/1022/106 1022/1023/106
f 1022/1023/106 1023/1022/106 1024/1024/106
f 1025/1025/235 1027/1026/235 1026/1027/235
f 1026/1027/235 1027/1026/235 1028/1028/235
f 1029/1029/258 1031/1030/258 1030/1031/258
f 1030/1031/258 1031/1030/258 1032/1032/258
f 1033/1033/37 1035/1034/37 1034/1035/37
f 1034/1035/37 1035/1034/37 1036/1036/37
f 1037/1037/265 1039/1038/266 1038/1039/267
f 1038/1039/268 1039/1038/269 1040/1040/270
f 1041/1041/178 1043/1042/178 1042/1043/178
f 1042/1043/178 1043/1042/178 1044/1044/178
f 1045/1045/271 1047/1046/271 1046/1047/271
f 1048/1048/271 1050/1049/271 1049/1050/271
f 1051/1051/5 1053/1052/5 1052/1053/5
f 1054/1054/37 1056/1055/37 1055/1056/37
f 1057/1057/272 1059/1058/272 1058/1059/272
f 1060/1060/272 1062/1061/272 1061/1062/272
f 1063/1063/271 1065/1064/271 1064/1065/271
f 1066/1066/271 1068/1067/271 1067/1068/271
f 1069/1069/5 1071/1070/5 1070/1071/5
f 1072/1072/37 1074/1073/37 1073/1074/37
f 1075/1075/272 1077/1076/272 1076/1077/272
f 1078/1078/272 1080/1079/272 1079/1080/272
f 1081/1081/271 1083/1082/271 1082/1083/271
f 1084/1084/271 1086/1085/271 1085/1086/271
f 1087/1087/37 1089/1088/37 1088/1089/37
f 1090/1090/106 1092/1091/106 1091/1092/106
f 1093/1093/272 1095/1094/272 1094/1095/272
f 1096/1096/272 1098/1097/272 1097/1098/272
f 1099/1099/271 1101/1100/271 1100/1101/271
f 1102/1102/271 1104/1103/271 1103/1104/271
f 1105/1105/122 1107/1106/122 1106/1107/122
f 1108/1108/5 1110/1109/5 1109/1110/5
f 1111/1111/272 1113/1112/272 1112/1113/272
f 1114/1114/272 1116/1115/272 1115/1116/272
f 1117/1117/271 1119/1118/271 1118/1119/271
f 1120/1120/271 1122/1121/271 1121/1122/271
f 1123/1123/37 1125/1124/37 1124/1125/37
f 1126/1126/106 1128/1127/106 1127/1128/106
f 1129/1129/272 1131/1130/272 1130/1131/272
f 1132/1132/272 1134/1133/272 1133/1134/272
f 1135/1135/271 1137/1136/271 1136/1137/271
f 1138/1138/271 1140/1139/271 1139/1140/271
f 1141/1141/106 1143/1142/106 1142/1143/106
f 1144/1144/122 1146/1145/122 1145/1146/122
f 1147/1147/272 1149/1148/272 1148/1149/272
f 1150/1150/272 1152/1151/272 1151/1152/272
f 1153/1153/271 1155/1154/271 1154/1155/271
f 1156/1156/271 1158/1157/271 1157/1158/271
f 1159/1159/5 1161/1160/5 1160/1161/5
f 1162/1162/37 1164/1163/37 1163/1164/37
f 1165/1165/272 1167/1166/272 1166/1167/272
f 1168/1168/272 1170/1169/272 1169/1170/272
f 1171/1171/271 1173/1172/271 1172/1173/271
f 1174/1174/271 1176/1175/271 1175/1176/271
f 1177/1177/106 1179/1178/106 1178/1179/106
f 1180/1180/37 1182/1181/37 1181/1182/37
f 1183/1183/272 1185/1184/272 1184/1185/272
f 1186/1186/272 1188/1187/272 1187/1188/272
