# Blender v3.6.3 OBJ File: 'untitled.blend'
# www.blender.org
mtllib Mesh_0130.mtl
o Mesh_0130_Mesh.004
v 24.685413 42.326866 -27.971798
v 24.685413 42.758148 -27.726669
v 25.761856 41.107628 -27.971798
v 25.977661 41.349007 -27.726669
v 27.653687 37.861588 -27.971794
v 27.942024 38.052010 -27.726669
v 29.553780 33.019989 -27.971798
v 29.824768 33.019989 -27.726669
v 31.035412 26.799780 -27.726677
v 31.035412 28.121115 -27.971798
v 32.246056 33.019989 -27.726669
v 31.929443 33.019989 -27.971798
v 34.128811 38.052010 -27.726669
v 33.890148 38.242405 -27.971798
v 36.093166 41.349007 -27.726669
v 35.893063 41.534576 -27.971798
v 37.385418 42.758148 -27.726669
v 37.385418 43.179989 -27.971798
v 50.085415 42.326866 -27.971798
v 50.085415 42.758148 -27.726669
v 51.161854 41.107628 -27.971798
v 51.377666 41.349007 -27.726669
v 53.053684 37.861588 -27.971794
v 53.342022 38.052010 -27.726669
v 54.953777 33.019989 -27.971798
v 55.224773 33.019989 -27.726669
v 56.435413 26.799780 -27.726677
v 56.435413 28.121115 -27.971798
v 57.646053 33.019989 -27.726669
v 57.329441 33.019989 -27.971798
v 59.528805 38.052010 -27.726669
v 59.290142 38.242405 -27.971798
v 61.493160 41.349007 -27.726669
v 61.293064 41.534576 -27.971798
v 62.785412 42.758148 -27.726669
v 62.785412 43.179989 -27.971798
v -0.714590 42.326866 -27.971798
v -0.714592 42.758148 -27.726669
v 0.361849 41.107628 -27.971798
v 0.577652 41.349007 -27.726669
v 2.253674 37.861588 -27.971794
v 2.542015 38.052010 -27.726669
v 4.153774 33.019989 -27.971798
v 4.424767 33.019989 -27.726669
v 5.635406 26.799780 -27.726677
v 5.635406 28.121115 -27.971798
v 6.846046 33.019989 -27.726669
v 6.529434 33.019989 -27.971798
v 8.728798 38.052010 -27.726669
v 8.490135 38.242405 -27.971798
v 10.693157 41.349007 -27.726669
v 10.493053 41.534576 -27.971798
v 11.985405 42.758148 -27.726669
v 11.985409 43.179989 -27.971798
v 11.985409 42.326866 22.828201
v 11.985409 42.758148 22.583076
v 10.908970 41.107628 22.828201
v 10.693165 41.349007 22.583076
v 9.017143 37.861588 22.828201
v 8.728802 38.052010 22.583076
v 7.117043 33.019989 22.828201
v 6.846050 33.019989 22.583076
v 5.635410 26.799780 22.583076
v 5.635410 28.121115 22.828201
v 4.424770 33.019989 22.583076
v 4.741383 33.019989 22.828201
v 2.542023 38.052010 22.583076
v 2.780682 38.242405 22.828201
v 0.577662 41.349007 22.583076
v 0.777765 41.534576 22.828201
v -0.714586 42.758148 22.583076
v -0.714586 43.179989 22.828201
v 37.385418 42.326866 22.828201
v 37.385418 42.758148 22.583076
v 36.308964 41.107628 22.828201
v 36.093166 41.349007 22.583076
v 34.417141 37.861588 22.828201
v 34.128803 38.052010 22.583076
v 32.517048 33.019989 22.828201
v 32.246048 33.019989 22.583076
v 31.035412 26.799780 22.583076
v 31.035412 28.121115 22.828201
v 29.824768 33.019989 22.583076
v 30.141376 33.019989 22.828201
v 27.942024 38.052010 22.583076
v 28.180679 38.242405 22.828201
v 25.977661 41.349007 22.583076
v 26.177761 41.534576 22.828201
v 24.685413 42.758148 22.583076
v 24.685413 43.179989 22.828201
v 62.785412 42.326866 22.828201
v 62.785412 42.758148 22.583076
v 61.708973 41.107628 22.828201
v 61.493160 41.349007 22.583076
v 59.817135 37.861588 22.828201
v 59.528805 38.052010 22.583076
v 57.917042 33.019989 22.828201
v 57.646053 33.019989 22.583076
v 56.435413 26.799780 22.583076
v 56.435413 28.121115 22.828201
v 55.224773 33.019989 22.583076
v 55.541378 33.019989 22.828201
v 53.342022 38.052010 22.583076
v 53.580677 38.242405 22.828201
v 51.377666 41.349007 22.583076
v 51.577763 41.534576 22.828201
v 50.085415 42.758148 22.583076
v 50.085415 43.179989 22.828201
v 69.135422 42.326931 -21.621796
v 68.890289 42.758148 -21.621796
v 69.135422 41.107628 -20.545353
v 68.890289 41.349007 -20.329552
v 69.135422 37.861588 -18.653522
v 68.890289 38.052010 -18.365192
v 69.135422 33.019989 -16.753429
v 68.890289 33.019989 -16.482441
v 68.890289 26.799780 -15.271797
v 69.135422 28.121115 -15.271797
v 68.890289 33.019989 -14.061153
v 69.135422 33.019989 -14.377769
v 68.890289 38.052010 -12.178402
v 69.135422 38.242405 -12.417065
v 68.890289 41.349003 -10.214046
v 69.135422 41.534576 -10.414146
v 68.890335 42.758118 -8.921799
v 69.135437 43.179985 -8.921799
v 69.135437 42.326965 -8.921799
v 68.890335 42.758118 -8.921799
v 69.135468 41.107601 -7.845348
v 68.890366 41.348900 -7.629551
v 69.135468 37.861534 -5.953529
v 68.890366 38.051983 -5.665192
v 69.135468 33.019989 -4.053429
v 68.890366 33.019989 -3.782440
v 68.890366 26.799780 -2.571800
v 69.135468 28.121088 -2.571800
v 68.890366 33.019989 -1.361237
v 69.135468 33.019989 -1.677719
v 68.890366 38.051983 0.521667
v 69.135468 38.242485 0.282906
v 68.890366 41.348900 2.485847
v 69.135468 41.534576 2.285950
v 68.890274 42.758148 3.778198
v 69.135437 43.179989 3.778198
v 69.135437 42.326969 3.778198
v 68.890274 42.758148 3.778198
v 69.135422 41.107628 4.854645
v 68.890289 41.349007 5.070450
v 69.135422 37.861588 6.746468
v 68.890289 38.052010 7.034805
v 69.135422 33.019989 8.646568
v 68.890289 33.019989 8.917557
v 68.890289 26.799780 10.128204
v 69.135422 28.121115 10.128204
v 68.890289 33.019989 11.338844
v 69.135422 33.019989 11.022232
v 68.890289 38.052010 13.221596
v 69.135422 38.242405 12.982941
v 68.890289 41.349003 15.185951
v 69.135422 41.534573 14.985855
v 68.890289 42.758144 16.478203
v 69.135422 43.179985 16.478203
v 31.035412 28.121115 -27.971798
v 29.824768 33.019989 -27.726669
v 30.141384 33.019989 -27.971798
v 27.942024 38.052010 -27.726669
v 28.180679 38.242405 -27.971798
v 25.977661 41.349007 -27.726669
v 26.177773 41.534576 -27.971798
v 24.685413 42.758148 -27.726669
v 24.685413 43.179989 -27.971798
v 31.035412 26.799780 -27.726677
v 32.246056 33.019989 -27.726669
v 32.517021 33.019989 -27.971798
v 34.128811 38.052010 -27.726669
v 34.417141 37.861588 -27.971794
v 36.093166 41.349007 -27.726669
v 36.308964 41.107628 -27.971798
v 37.385418 42.758148 -27.726669
v 37.385418 42.326992 -27.971798
v 56.435413 28.121115 -27.971798
v 55.224773 33.019989 -27.726669
v 55.541386 33.019989 -27.971798
v 53.342022 38.052010 -27.726669
v 53.580677 38.242405 -27.971798
v 51.377666 41.349007 -27.726669
v 51.577770 41.534576 -27.971798
v 50.085415 42.758148 -27.726669
v 50.085415 43.179989 -27.971798
v 56.435413 26.799780 -27.726677
v 57.646053 33.019989 -27.726669
v 57.917019 33.019989 -27.971798
v 59.528805 38.052010 -27.726669
v 59.817142 37.861588 -27.971794
v 61.493160 41.349007 -27.726669
v 61.708965 41.107628 -27.971798
v 62.785412 42.758148 -27.726669
v 62.785412 42.326992 -27.971798
v 5.635406 28.121115 -27.971798
v 4.424767 33.019989 -27.726669
v 4.741379 33.019989 -27.971798
v 2.542015 38.052010 -27.726669
v 2.780674 38.242405 -27.971798
v 0.577652 41.349007 -27.726669
v 0.777761 41.534576 -27.971798
v -0.714592 42.758148 -27.726669
v -0.714590 43.179989 -27.971798
v 5.635406 26.799780 -27.726677
v 6.846046 33.019989 -27.726669
v 7.117012 33.019989 -27.971798
v 8.728798 38.052010 -27.726669
v 9.017139 37.861588 -27.971794
v 10.693157 41.349007 -27.726669
v 10.908955 41.107628 -27.971798
v 11.985405 42.758148 -27.726669
v 11.985409 42.326992 -27.971798
v 5.635410 28.121115 22.828201
v 6.846050 33.019989 22.583076
v 6.529442 33.019989 22.828201
v 8.728802 38.052010 22.583076
v 8.490143 38.242405 22.828201
v 10.693165 41.349007 22.583076
v 10.493057 41.534576 22.828201
v 11.985409 42.758148 22.583076
v 11.985409 43.179989 22.828201
v 5.635410 26.799780 22.583076
v 4.424770 33.019989 22.583076
v 4.153805 33.019989 22.828201
v 2.542023 38.052010 22.583076
v 2.253681 37.861588 22.828201
v 0.577662 41.349007 22.583076
v 0.361866 41.107628 22.828201
v -0.714586 42.758148 22.583076
v -0.714586 42.326992 22.828201
v 31.035412 28.121115 22.828201
v 32.246048 33.019989 22.583076
v 31.929436 33.019989 22.828201
v 34.128803 38.052010 22.583076
v 33.890144 38.242405 22.828201
v 36.093166 41.349007 22.583076
v 35.893063 41.534576 22.828201
v 37.385418 42.758148 22.583076
v 37.385418 43.179989 22.828201
v 31.035412 26.799780 22.583076
v 29.824768 33.019989 22.583076
v 29.553802 33.019989 22.828201
v 27.942024 38.052010 22.583076
v 27.653679 37.861588 22.828201
v 25.977661 41.349007 22.583076
v 25.761860 41.107628 22.828201
v 24.685413 42.758148 22.583076
v 24.685413 42.326992 22.828201
v 56.435413 28.121115 22.828201
v 57.646053 33.019989 22.583076
v 57.329433 33.019989 22.828201
v 59.528805 38.052010 22.583076
v 59.290134 38.242405 22.828201
v 61.493160 41.349007 22.583076
v 61.293056 41.534576 22.828201
v 62.785412 42.758148 22.583076
v 62.785412 43.179989 22.828201
v 56.435413 26.799780 22.583076
v 55.224773 33.019989 22.583076
v 54.953800 33.019989 22.828201
v 53.342022 38.052010 22.583076
v 53.053677 37.861588 22.828201
v 51.377666 41.349007 22.583076
v 51.161861 41.107628 22.828201
v 50.085415 42.758148 22.583076
v 50.085415 42.326992 22.828201
v 69.135422 28.121115 -15.271797
v 68.890289 33.019989 -16.482441
v 69.135422 33.019989 -16.165825
v 68.890289 38.052010 -18.365192
v 69.135422 38.242405 -18.126530
v 68.890289 41.349007 -20.329552
v 69.135422 41.534576 -20.129440
v 68.890289 42.758148 -21.621796
v 69.135422 43.179989 -21.621796
v 68.890289 26.799780 -15.271797
v 68.890289 33.019989 -14.061153
v 69.135422 33.019989 -13.790188
v 68.890289 38.052010 -12.178402
v 69.135422 37.861588 -11.890064
v 68.890289 41.349003 -10.214046
v 69.135422 41.107624 -9.998245
v 68.890335 42.758118 -8.921799
v 69.135437 42.326965 -8.921799
v 69.135468 28.121088 -2.571800
v 68.890366 33.019989 -3.782440
v 69.135468 33.019989 -3.465828
v 68.890366 38.051983 -5.665192
v 69.135468 38.242485 -5.426529
v 68.890366 41.348900 -7.629551
v 69.135468 41.534576 -7.429447
v 68.890335 42.758118 -8.921799
v 69.135437 43.179985 -8.921799
v 68.890366 26.799780 -2.571800
v 68.890366 33.019989 -1.361237
v 69.135468 33.019989 -1.090218
v 68.890366 38.051983 0.521667
v 69.135468 37.861534 0.809959
v 68.890366 41.348900 2.485847
v 69.135468 41.107601 2.701752
v 68.890274 42.758148 3.778198
v 69.135437 42.326969 3.778198
v 69.135422 28.121115 10.128204
v 68.890289 33.019989 8.917557
v 69.135422 33.019989 9.234169
v 68.890289 38.052010 7.034805
v 69.135422 38.242405 7.273460
v 68.890289 41.349007 5.070450
v 69.135422 41.534576 5.270554
v 68.890274 42.758148 3.778198
v 69.135437 43.179989 3.778198
v 68.890289 26.799780 10.128204
v 68.890289 33.019989 11.338844
v 69.135422 33.019989 11.609810
v 68.890289 38.052010 13.221596
v 69.135422 37.861588 13.509933
v 68.890289 41.349003 15.185951
v 69.135422 41.107624 15.401749
v 68.890289 42.758144 16.478203
v 69.135422 42.326927 16.478203
v 69.135468 33.019989 -1.090218
v 69.135468 26.799780 -2.254295
v 68.890366 26.799780 -2.571800
v 69.135223 25.244261 -2.254288
v 68.890366 25.399986 -2.571800
v 68.890366 25.088484 -2.571793
v 69.135223 25.244261 -2.889290
v 30.717915 22.702362 -27.971798
v 30.717915 22.859985 -27.971798
v 31.035412 22.548473 -27.726669
v 30.717915 26.799780 -27.971798
v 31.035412 26.799780 -27.726677
v 29.553780 33.019989 -27.971798
v 56.117916 22.702362 -27.971798
v 56.117916 22.859985 -27.971798
v 56.435413 22.548473 -27.726669
v 56.117916 26.799780 -27.971798
v 56.435413 26.799780 -27.726677
v 54.953777 33.019989 -27.971798
v 5.317905 22.702362 -27.971798
v 5.317905 22.859985 -27.971798
v 5.635406 22.548473 -27.726669
v 5.317905 26.799780 -27.971798
v 5.635406 26.799780 -27.726677
v 4.153774 33.019989 -27.971798
v 5.952911 22.702362 22.828201
v 5.952911 22.859985 22.828201
v 5.635410 22.548473 22.583076
v 5.952911 26.799780 22.828201
v 5.635410 26.799780 22.583076
v 7.117043 33.019989 22.828201
v 31.352913 22.702362 22.828201
v 31.352913 22.859985 22.828201
v 31.035412 22.548473 22.583076
v 31.352913 26.799780 22.828201
v 31.035412 26.799780 22.583076
v 32.517048 33.019989 22.828201
v 56.752918 22.702362 22.828201
v 56.752918 22.859985 22.828201
v 56.435413 22.548473 22.583076
v 56.752918 26.799780 22.828201
v 56.435413 26.799780 22.583076
v 57.917042 33.019989 22.828201
v 69.135422 33.019989 -16.753429
v 68.890289 26.799780 -15.271797
v 69.135422 26.799780 -15.589298
v 68.890289 22.548473 -15.271797
v 69.135422 22.859987 -15.589298
v 69.135422 22.702362 -15.589298
v 69.135422 33.019989 8.646568
v 68.890289 26.799780 10.128204
v 69.135422 26.799780 9.810699
v 68.890289 22.548473 10.128197
v 69.135422 22.859987 9.810699
v 69.135422 22.702362 9.810699
v 31.352913 22.859987 -27.971798
v 31.035412 22.548473 -27.726669
v 31.352913 26.799780 -27.971798
v 31.035412 26.799780 -27.726677
v 32.517021 33.019989 -27.971798
v 56.752918 22.859987 -27.971798
v 56.435413 22.548473 -27.726669
v 56.752918 26.799780 -27.971798
v 56.435413 26.799780 -27.726677
v 57.917019 33.019989 -27.971798
v 5.952908 22.859987 -27.971798
v 5.635406 22.548473 -27.726669
v 5.952908 26.799780 -27.971798
v 5.635406 26.799780 -27.726677
v 7.117012 33.019989 -27.971798
v 5.317909 22.859987 22.828201
v 5.635410 22.548473 22.583076
v 5.317909 26.799780 22.828201
v 5.635410 26.799780 22.583076
v 4.153805 33.019989 22.828201
v 30.717915 22.859987 22.828201
v 31.035412 22.548473 22.583076
v 30.717915 26.799780 22.828201
v 31.035412 26.799780 22.583076
v 29.553802 33.019989 22.828201
v 56.117916 22.859987 22.828201
v 56.435413 22.548473 22.583076
v 56.117916 26.799780 22.828201
v 56.435413 26.799780 22.583076
v 54.953800 33.019989 22.828201
v 69.135422 22.859987 -14.954296
v 68.890289 22.548473 -15.271797
v 69.135422 26.799780 -14.954296
v 68.890289 26.799780 -15.271797
v 69.135422 33.019989 -13.790188
v 68.890366 25.399986 -2.571800
v 69.135223 25.244261 -2.889290
v 68.890366 26.799780 -2.571800
v 69.135468 26.799780 -2.889297
v 69.135468 33.019989 -4.053429
v 69.135422 22.859987 10.445702
v 68.890289 22.548473 10.128197
v 69.135422 26.799780 10.445702
v 68.890289 26.799780 10.128204
v 69.135422 33.019989 11.609810
v 31.352913 22.702364 -27.971798
v 31.035412 22.548473 -27.726669
v 31.352913 22.859987 -27.971798
v 56.752918 22.702364 -27.971798
v 56.435413 22.548473 -27.726669
v 56.752918 22.859987 -27.971798
v 5.952908 22.702364 -27.971798
v 5.635406 22.548473 -27.726669
v 5.952908 22.859987 -27.971798
v 5.317909 22.702364 22.828201
v 5.635410 22.548473 22.583076
v 5.317909 22.859987 22.828201
v 30.717915 22.702364 22.828201
v 31.035412 22.548473 22.583076
v 30.717915 22.859987 22.828201
v 56.117916 22.702364 22.828201
v 56.435413 22.548473 22.583076
v 56.117916 22.859987 22.828201
v 69.135422 22.702362 -14.954296
v 68.890289 22.548473 -15.271797
v 69.135422 22.859987 -14.954296
v 69.135422 22.702362 10.445702
v 68.890289 22.548473 10.128197
v 69.135422 22.859987 10.445702
vt -0.001953 2.997070
vt -0.001953 2.560547
vt 0.997070 2.997070
vt 0.997070 2.560547
vt -0.001953 1.114258
vt 0.997070 1.114258
vt -0.001953 -0.984375
vt 0.997070 -0.984375
vt 0.997070 -3.110352
vt -0.001953 -2.675781
vt 0.997070 -0.984375
vt -0.001953 -0.984375
vt 0.997070 1.114258
vt -0.001953 1.114258
vt 0.997070 2.560547
vt -0.001953 2.560547
vt 0.997070 2.997070
vt -0.001953 2.997070
vt -0.001953 2.997070
vt -0.001953 2.560547
vt 0.997070 2.997070
vt 0.997070 2.560547
vt -0.001953 1.114258
vt 0.997070 1.114258
vt -0.001953 -0.984375
vt 0.997070 -0.984375
vt 0.997070 -3.110352
vt -0.001953 -2.675781
vt 0.997070 -0.984375
vt -0.001953 -0.984375
vt 0.997070 1.114258
vt -0.001953 1.114258
vt 0.997070 2.560547
vt -0.001953 2.560547
vt 0.997070 2.997070
vt -0.001953 2.997070
vt -0.001953 2.997070
vt -0.001953 2.560547
vt 0.997070 2.997070
vt 0.997070 2.560547
vt -0.001953 1.114258
vt 0.997070 1.114258
vt -0.001953 -0.984375
vt 0.997070 -0.984375
vt 0.997070 -3.110352
vt -0.001953 -2.675781
vt 0.997070 -0.984375
vt -0.001953 -0.984375
vt 0.997070 1.114258
vt -0.001953 1.114258
vt 0.997070 2.560547
vt -0.001953 2.560547
vt 0.997070 2.997070
vt -0.001953 2.997070
vt -0.001953 2.997070
vt -0.001953 2.560547
vt 0.997070 2.997070
vt 0.997070 2.560547
vt -0.001953 1.114258
vt 0.997070 1.114258
vt -0.001953 -0.984375
vt 0.997070 -0.984375
vt 0.997070 -3.110352
vt -0.001953 -2.675781
vt 0.997070 -0.984375
vt -0.001953 -0.984375
vt 0.997070 1.114258
vt -0.001953 1.114258
vt 0.997070 2.560547
vt -0.001953 2.560547
vt 0.997070 2.997070
vt -0.001953 2.997070
vt -0.001953 2.997070
vt -0.001953 2.560547
vt 0.997070 2.997070
vt 0.997070 2.560547
vt -0.001953 1.114258
vt 0.997070 1.114258
vt -0.001953 -0.984375
vt 0.997070 -0.984375
vt 0.997070 -3.110352
vt -0.001953 -2.675781
vt 0.997070 -0.984375
vt -0.001953 -0.984375
vt 0.997070 1.114258
vt -0.001953 1.114258
vt 0.997070 2.560547
vt -0.001953 2.560547
vt 0.997070 2.997070
vt -0.001953 2.997070
vt -0.001953 2.997070
vt -0.001953 2.560547
vt 0.997070 2.997070
vt 0.997070 2.560547
vt -0.001953 1.114258
vt 0.997070 1.114258
vt -0.001953 -0.984375
vt 0.997070 -0.984375
vt 0.997070 -3.110352
vt -0.001953 -2.675781
vt 0.997070 -0.984375
vt -0.001953 -0.984375
vt 0.997070 1.114258
vt -0.001953 1.114258
vt 0.997070 2.560547
vt -0.001953 2.560547
vt 0.997070 2.997070
vt -0.001953 2.997070
vt -0.001953 2.997070
vt -0.001953 2.560547
vt 0.997070 2.997070
vt 0.997070 2.560547
vt -0.001953 1.114258
vt 0.997070 1.114258
vt -0.001953 -0.984375
vt 0.997070 -0.984375
vt 0.997070 -3.110352
vt -0.001953 -2.675781
vt 0.997070 -0.984375
vt -0.001953 -0.984375
vt 0.997070 1.114258
vt -0.001953 1.114258
vt 0.997070 2.560547
vt -0.001953 2.560547
vt 0.997070 2.997070
vt -0.001953 2.997070
vt -0.001953 2.997070
vt -0.001953 2.560547
vt 0.997070 2.997070
vt 0.997070 2.560547
vt -0.001953 1.114258
vt 0.997070 1.114258
vt -0.001953 -0.984375
vt 0.997070 -0.984375
vt 0.997070 -3.110352
vt -0.001953 -2.675781
vt 0.997070 -0.984375
vt -0.001953 -0.984375
vt 0.997070 1.114258
vt -0.001953 1.114258
vt 0.997070 2.560547
vt -0.001953 2.560547
vt 0.997070 2.997070
vt -0.001953 2.997070
vt -0.001953 2.997070
vt -0.001953 2.560547
vt 0.997070 2.997070
vt 0.997070 2.560547
vt -0.001953 1.114258
vt 0.997070 1.114258
vt -0.001953 -0.984375
vt 0.997070 -0.984375
vt 0.997070 -3.110352
vt -0.001953 -2.675781
vt 0.997070 -0.984375
vt -0.001953 -0.984375
vt 0.997070 1.114258
vt -0.001953 1.114258
vt 0.997070 2.560547
vt -0.001953 2.560547
vt 0.997070 2.997070
vt -0.001953 2.997070
vt -0.001953 -2.675781
vt -0.001953 -0.984375
vt 0.997070 -0.984375
vt 0.997070 1.114258
vt -0.001953 1.114258
vt 0.997070 2.560547
vt -0.001953 2.560547
vt 0.997070 2.997070
vt -0.001953 2.997070
vt 0.997070 -3.110352
vt -0.001953 -0.984375
vt 0.997070 -0.984375
vt 0.997070 1.114258
vt -0.001953 1.114258
vt 0.997070 2.560547
vt -0.001953 2.560547
vt 0.997070 2.997070
vt -0.001953 2.997070
vt -0.001953 -2.675781
vt -0.001953 -0.984375
vt 0.997070 -0.984375
vt 0.997070 1.114258
vt -0.001953 1.114258
vt 0.997070 2.560547
vt -0.001953 2.560547
vt 0.997070 2.997070
vt -0.001953 2.997070
vt 0.997070 -3.110352
vt -0.001953 -0.984375
vt 0.997070 -0.984375
vt 0.997070 1.114258
vt -0.001953 1.114258
vt 0.997070 2.560547
vt -0.001953 2.560547
vt 0.997070 2.997070
vt -0.001953 2.997070
vt -0.001953 -2.675781
vt -0.001953 -0.984375
vt 0.997070 -0.984375
vt 0.997070 1.114258
vt -0.001953 1.114258
vt 0.997070 2.560547
vt -0.001953 2.560547
vt 0.997070 2.997070
vt -0.001953 2.997070
vt 0.997070 -3.110352
vt -0.001953 -0.984375
vt 0.997070 -0.984375
vt 0.997070 1.114258
vt -0.001953 1.114258
vt 0.997070 2.560547
vt -0.001953 2.560547
vt 0.997070 2.997070
vt -0.001953 2.997070
vt -0.001953 -2.675781
vt -0.001953 -0.984375
vt 0.997070 -0.984375
vt 0.997070 1.114258
vt -0.001953 1.114258
vt 0.997070 2.560547
vt -0.001953 2.560547
vt 0.997070 2.997070
vt -0.001953 2.997070
vt 0.997070 -3.110352
vt -0.001953 -0.984375
vt 0.997070 -0.984375
vt 0.997070 1.114258
vt -0.001953 1.114258
vt 0.997070 2.560547
vt -0.001953 2.560547
vt 0.997070 2.997070
vt -0.001953 2.997070
vt -0.001953 -2.675781
vt -0.001953 -0.984375
vt 0.997070 -0.984375
vt 0.997070 1.114258
vt -0.001953 1.114258
vt 0.997070 2.560547
vt -0.001953 2.560547
vt 0.997070 2.997070
vt -0.001953 2.997070
vt 0.997070 -3.110352
vt -0.001953 -0.984375
vt 0.997070 -0.984375
vt 0.997070 1.114258
vt -0.001953 1.114258
vt 0.997070 2.560547
vt -0.001953 2.560547
vt 0.997070 2.997070
vt -0.001953 2.997070
vt -0.001953 -2.675781
vt -0.001953 -0.984375
vt 0.997070 -0.984375
vt 0.997070 1.114258
vt -0.001953 1.114258
vt 0.997070 2.560547
vt -0.001953 2.560547
vt 0.997070 2.997070
vt -0.001953 2.997070
vt 0.997070 -3.110352
vt -0.001953 -0.984375
vt 0.997070 -0.984375
vt 0.997070 1.114258
vt -0.001953 1.114258
vt 0.997070 2.560547
vt -0.001953 2.560547
vt 0.997070 2.997070
vt -0.001953 2.997070
vt -0.001953 -2.675781
vt -0.001953 -0.984375
vt 0.997070 -0.984375
vt 0.997070 1.114258
vt -0.001953 1.114258
vt 0.997070 2.560547
vt -0.001953 2.560547
vt 0.997070 2.997070
vt -0.001953 2.997070
vt 0.997070 -3.110352
vt -0.001953 -0.984375
vt 0.997070 -0.984375
vt 0.997070 1.114258
vt -0.001953 1.114258
vt 0.997070 2.560547
vt -0.001953 2.560547
vt 0.997070 2.997070
vt -0.001953 2.997070
vt -0.001953 -2.675781
vt -0.001953 -0.984375
vt 0.997070 -0.984375
vt 0.997070 1.114258
vt -0.001953 1.114258
vt 0.997070 2.560547
vt -0.001953 2.560547
vt 0.997070 2.997070
vt -0.001953 2.997070
vt 0.997070 -3.110352
vt -0.001953 -0.984375
vt 0.997070 -0.984375
vt 0.997070 1.114258
vt -0.001953 1.114258
vt 0.997070 2.560547
vt -0.001953 2.560547
vt 0.997070 2.997070
vt -0.001953 2.997070
vt -0.001953 -2.675781
vt -0.001953 -0.984375
vt 0.997070 -0.984375
vt 0.997070 1.114258
vt -0.001953 1.114258
vt 0.997070 2.560547
vt -0.001953 2.560547
vt 0.997070 2.997070
vt -0.001953 2.997070
vt 0.997070 -3.110352
vt -0.001953 -0.984375
vt 0.997070 -0.984375
vt 0.997070 1.114258
vt -0.001953 1.114258
vt 0.997070 2.560547
vt -0.001953 2.560547
vt 0.997070 2.997070
vt -0.001953 2.997070
vt -0.001953 -0.984375
vt 0.997070 -3.110352
vt -0.001953 -3.110352
vt -0.016602 -3.863281
vt 0.997070 -3.734375
vt 0.997070 -4.191406
vt -0.000977 -3.863281
vt -0.001953 -4.995117
vt 0.997070 -4.995117
vt -0.001953 -4.837891
vt -0.001953 -3.110352
vt 0.997070 -3.110352
vt -0.001953 -0.984375
vt -0.001953 -4.995117
vt 0.997070 -4.995117
vt -0.001953 -4.837891
vt -0.001953 -3.110352
vt 0.997070 -3.110352
vt -0.001953 -0.984375
vt -0.001953 -4.995117
vt 0.997070 -4.995117
vt -0.001953 -4.837891
vt -0.001953 -3.110352
vt 0.997070 -3.110352
vt -0.001953 -0.984375
vt -0.001953 -4.995117
vt 0.997070 -4.995117
vt -0.001953 -4.837891
vt -0.001953 -3.110352
vt 0.997070 -3.110352
vt -0.001953 -0.984375
vt -0.001953 -4.995117
vt 0.997070 -4.995117
vt -0.001953 -4.837891
vt -0.001953 -3.110352
vt 0.997070 -3.110352
vt -0.001953 -0.984375
vt -0.001953 -4.995117
vt 0.997070 -4.995117
vt -0.001953 -4.837891
vt -0.001953 -3.110352
vt 0.997070 -3.110352
vt -0.001953 -0.984375
vt -0.001953 -0.984375
vt -0.001953 -3.110352
vt 0.997070 -3.110352
vt 0.997070 -4.995117
vt -0.001953 -4.837891
vt -0.001953 -4.995117
vt -0.001953 -0.984375
vt -0.001953 -3.110352
vt 0.997070 -3.110352
vt 0.997070 -4.995117
vt -0.001953 -4.837891
vt -0.001953 -4.995117
vt -0.001953 -4.837891
vt -0.001953 -3.110352
vt 0.997070 -4.995117
vt 0.997070 -3.110352
vt -0.001953 -0.984375
vt -0.001953 -4.837891
vt -0.001953 -3.110352
vt 0.997070 -4.995117
vt 0.997070 -3.110352
vt -0.001953 -0.984375
vt -0.001953 -4.837891
vt -0.001953 -3.110352
vt 0.997070 -4.995117
vt 0.997070 -3.110352
vt -0.001953 -0.984375
vt -0.001953 -4.837891
vt -0.001953 -3.110352
vt 0.997070 -4.995117
vt 0.997070 -3.110352
vt -0.001953 -0.984375
vt -0.001953 -4.837891
vt -0.001953 -3.110352
vt 0.997070 -4.995117
vt 0.997070 -3.110352
vt -0.001953 -0.984375
vt -0.001953 -4.837891
vt -0.001953 -3.110352
vt 0.997070 -4.995117
vt 0.997070 -3.110352
vt -0.001953 -0.984375
vt -0.001953 -4.837891
vt -0.001953 -3.110352
vt 0.997070 -4.995117
vt 0.997070 -3.110352
vt -0.001953 -0.984375
vt 0.997070 -3.734375
vt 0.997070 -3.110352
vt -0.000977 -3.863281
vt -0.001953 -3.110352
vt -0.001953 -0.984375
vt -0.001953 -4.837891
vt -0.001953 -3.110352
vt 0.997070 -4.995117
vt 0.997070 -3.110352
vt -0.001953 -0.984375
vt -0.001953 -4.995117
vt -0.001953 -4.837891
vt 0.997070 -4.995117
vt -0.001953 -4.995117
vt -0.001953 -4.837891
vt 0.997070 -4.995117
vt -0.001953 -4.995117
vt -0.001953 -4.837891
vt 0.997070 -4.995117
vt -0.001953 -4.995117
vt -0.001953 -4.837891
vt 0.997070 -4.995117
vt -0.001953 -4.995117
vt -0.001953 -4.837891
vt 0.997070 -4.995117
vt -0.001953 -4.995117
vt -0.001953 -4.837891
vt 0.997070 -4.995117
vt -0.001953 -4.995117
vt -0.001953 -4.837891
vt 0.997070 -4.995117
vt -0.001953 -4.995117
vt -0.001953 -4.837891
vt 0.997070 -4.995117
vn -0.4884 -0.4312 0.7586
vn -0.5731 -0.3518 0.7401
vn -0.4463 -0.4092 0.7959
vn -0.4788 -0.4391 0.7603
vn -0.5333 -0.3044 0.7892
vn -0.6065 -0.2501 0.7547
vn -0.5919 -0.3359 0.7327
vn -0.4974 -0.2964 0.8153
vn -0.5300 -0.3123 0.7884
vn -0.5440 -0.2103 0.8123
vn -0.4632 -0.1297 0.8767
vn -0.5843 -0.2283 0.7787
vn -0.7259 -0.3248 0.6063
vn -0.6160 -0.2304 0.7533
vn -0.6935 -0.2595 0.6720
vn -0.6162 -0.1196 0.7785
vn -0.7061 0.0821 0.7033
vn -0.7006 -0.1364 0.7004
vn 0.6838 0.1331 0.7174
vn 0.0164 -0.0453 0.9988
vn -0.6910 0.0874 0.7175
vn -0.7295 0.2060 0.6522
vn -0.0387 -0.0397 0.9985
vn -0.8782 0.3851 0.2835
vn -0.5585 0.0946 0.8241
vn -0.6455 0.1180 0.7546
vn -0.5599 0.2118 0.8010
vn -0.5773 0.2701 0.7706
vn -0.6407 0.2443 0.7279
vn -0.6472 0.1778 0.7413
vn -0.5676 0.2095 0.7962
vn -0.6479 0.2453 0.7211
vn -0.4974 0.2961 0.8154
vn -0.4697 0.3527 0.8093
vn -0.5725 0.3449 0.7438
vn -0.6392 0.3292 0.6951
vn -0.5388 0.3230 0.7780
vn -0.6170 0.3754 0.6917
vn -0.4548 0.4145 0.7882
vn -0.4925 0.4516 0.7440
vn -0.5188 0.4928 0.6986
vn -0.4846 0.4395 0.7563
vn -0.5541 -0.3950 0.7328
vn -0.5007 -0.4277 0.7526
vn -0.4187 -0.3839 0.8230
vn -0.3901 -0.3828 0.8374
vn -0.4787 -0.4415 0.7589
vn -0.4991 -0.2870 0.8176
vn -0.5931 -0.2873 0.7522
vn -0.5912 -0.3337 0.7343
vn -0.4413 -0.3436 0.8290
vn -0.4575 -0.2810 0.8436
vn -0.5132 -0.1996 0.8348
vn -0.4633 -0.1297 0.8767
vn -0.5844 -0.2283 0.7787
vn -0.7259 -0.3247 0.6063
vn -0.6875 -0.2816 0.6694
vn -0.9891 -0.0641 0.1327
vn -0.7025 -0.1135 0.7026
vn 0.7472 0.1657 -0.6436
vn 0.9868 0.1569 -0.0409
vn -0.9787 0.1552 0.1347
vn -0.6471 0.1778 0.7414
vn -0.6392 0.3292 0.6950
vn -0.5388 0.3231 0.7780
vn -0.4925 0.4517 0.7439
vn -0.5188 0.4928 0.6985
vn -0.4991 -0.2870 0.8177
vn -0.5931 -0.2873 0.7521
vn -0.5912 -0.3336 0.7343
vn -0.8782 0.3852 0.2835
vn -0.5773 0.2701 0.7705
vn -0.4697 0.3526 0.8093
vn -0.6200 0.3758 0.6887
vn -0.5020 0.4603 0.7322
vn -0.5163 0.4911 0.7016
vn -0.5213 0.3901 0.7590
vn -0.4860 0.4391 0.7557
vn 0.4884 -0.4312 -0.7587
vn 0.5541 -0.3950 -0.7328
vn 0.5007 -0.4277 -0.7526
vn 0.4187 -0.3840 -0.8230
vn 0.3901 -0.3828 -0.8374
vn 0.4787 -0.4415 -0.7589
vn 0.4991 -0.2870 -0.8176
vn 0.5931 -0.2873 -0.7521
vn 0.5912 -0.3336 -0.7343
vn 0.4413 -0.3436 -0.8290
vn 0.4575 -0.2810 -0.8436
vn 0.5300 -0.3122 -0.7884
vn 0.5132 -0.1996 -0.8348
vn 0.4633 -0.1297 -0.8767
vn 0.5844 -0.2283 -0.7787
vn 0.7259 -0.3247 -0.6063
vn 0.6160 -0.2304 -0.7533
vn 0.6875 -0.2816 -0.6694
vn 0.6162 -0.1196 -0.7785
vn 0.9891 -0.0641 -0.1327
vn 0.7025 -0.1135 -0.7026
vn -0.7472 0.1657 0.6436
vn -0.9868 0.1569 0.0409
vn -0.0164 -0.0453 -0.9988
vn 0.9787 0.1552 -0.1347
vn 0.7295 0.2060 -0.6522
vn 0.0386 -0.0397 -0.9985
vn 0.8782 0.3851 -0.2835
vn 0.5585 0.0945 -0.8241
vn 0.6455 0.1180 -0.7546
vn 0.5600 0.2118 -0.8010
vn 0.5773 0.2701 -0.7706
vn 0.6407 0.2443 -0.7279
vn 0.6471 0.1778 -0.7414
vn 0.5676 0.2095 -0.7962
vn 0.6479 0.2453 -0.7211
vn 0.4974 0.2961 -0.8155
vn 0.4698 0.3526 -0.8093
vn 0.5725 0.3449 -0.7438
vn 0.6392 0.3292 -0.6950
vn 0.5388 0.3231 -0.7780
vn 0.6170 0.3754 -0.6917
vn 0.4548 0.4145 -0.7882
vn 0.4925 0.4516 -0.7440
vn 0.5188 0.4928 -0.6986
vn 0.4846 0.4395 -0.7563
vn 0.3902 -0.3829 -0.8374
vn 0.4991 -0.2870 -0.8177
vn 0.5300 -0.3123 -0.7884
vn 0.7295 0.2060 -0.6523
vn 0.0387 -0.0398 -0.9985
vn 0.8782 0.3852 -0.2835
vn 0.5585 0.0946 -0.8241
vn 0.6472 0.1778 -0.7413
vn 0.4974 0.2961 -0.8154
vn 0.4697 0.3527 -0.8093
vn 0.6392 0.3292 -0.6951
vn 0.5389 0.3231 -0.7780
vn 0.6200 0.3758 -0.6887
vn 0.5020 0.4604 -0.7321
vn 0.5163 0.4911 -0.7016
vn 0.5213 0.3901 -0.7590
vn 0.4860 0.4391 -0.7557
vn 0.4187 -0.3839 -0.8230
vn 0.4990 -0.2870 -0.8177
vn 0.7259 -0.3248 -0.6063
vn 0.0387 -0.0397 -0.9985
vn 0.5773 0.2701 -0.7705
vn 0.4697 0.3526 -0.8093
vn 0.5020 0.4604 -0.7322
vn 0.4859 0.4391 -0.7557
vn -0.7586 -0.4312 -0.4885
vn -0.7327 -0.3951 -0.5542
vn -0.7525 -0.4278 -0.5007
vn -0.8230 -0.3839 -0.4187
vn -0.8374 -0.3828 -0.3902
vn -0.7589 -0.4415 -0.4787
vn -0.8177 -0.2870 -0.4991
vn -0.7521 -0.2873 -0.5931
vn -0.7343 -0.3336 -0.5912
vn -0.8290 -0.3436 -0.4413
vn -0.8436 -0.2811 -0.4575
vn -0.7884 -0.3123 -0.5301
vn -0.8348 -0.1996 -0.5132
vn -0.8767 -0.1297 -0.4633
vn -0.7787 -0.2283 -0.5844
vn -0.6063 -0.3248 -0.7259
vn -0.7533 -0.2304 -0.6160
vn -0.6694 -0.2816 -0.6875
vn -0.7785 -0.1196 -0.6162
vn -0.1326 -0.0641 -0.9891
vn -0.7026 -0.1135 -0.7025
vn 0.6436 0.1656 0.7472
vn 0.0409 0.1569 0.9868
vn -0.9988 -0.0453 0.0164
vn -0.1347 0.1552 -0.9787
vn -0.6522 0.2060 -0.7295
vn -0.9985 -0.0397 -0.0387
vn -0.2835 0.3852 -0.8782
vn -0.8241 0.0946 -0.5585
vn -0.7546 0.1180 -0.6455
vn -0.8010 0.2118 -0.5599
vn -0.7705 0.2701 -0.5773
vn -0.7279 0.2443 -0.6407
vn -0.7413 0.1778 -0.6472
vn -0.7962 0.2095 -0.5676
vn -0.7211 0.2453 -0.6479
vn -0.8154 0.2961 -0.4974
vn -0.8093 0.3527 -0.4697
vn -0.7438 0.3449 -0.5725
vn -0.6951 0.3291 -0.6392
vn -0.7780 0.3231 -0.5389
vn -0.6887 0.3758 -0.6200
vn -0.7882 0.4145 -0.4548
vn -0.7321 0.4604 -0.5020
vn -0.7016 0.4911 -0.5163
vn -0.7591 0.3900 -0.5212
vn -0.7557 0.4391 -0.4859
vn -0.7564 0.4395 -0.4845
vn -0.7326 -0.3951 -0.5542
vn -0.7525 -0.4278 -0.5008
vn -0.8374 -0.3829 -0.3901
vn -0.7588 -0.4416 -0.4787
vn -0.8176 -0.2870 -0.4991
vn -0.7521 -0.2873 -0.5932
vn -0.7342 -0.3336 -0.5912
vn -0.8291 -0.3435 -0.4411
vn -0.8437 -0.2810 -0.4574
vn -0.7884 -0.3122 -0.5300
vn -0.8348 -0.1995 -0.5131
vn -0.8767 -0.1296 -0.4632
vn -0.7788 -0.2283 -0.5843
vn -0.6694 -0.2816 -0.6874
vn -0.7785 -0.1196 -0.6161
vn -0.1327 -0.0641 -0.9891
vn -0.7026 -0.1135 -0.7024
vn 0.6435 0.1657 0.7473
vn 0.0408 0.1569 0.9868
vn -0.9988 -0.0453 0.0163
vn -0.1346 0.1552 -0.9787
vn -0.6523 0.2060 -0.7294
vn -0.2832 0.3851 -0.8783
vn -0.8240 0.0946 -0.5586
vn -0.7545 0.1181 -0.6456
vn -0.8009 0.2119 -0.5601
vn -0.7702 0.2703 -0.5777
vn -0.7278 0.2444 -0.6408
vn -0.7418 0.1776 -0.6467
vn -0.7964 0.2094 -0.5674
vn -0.7214 0.2453 -0.6477
vn -0.8156 0.2960 -0.4973
vn -0.8097 0.3524 -0.4693
vn -0.7441 0.3448 -0.5723
vn -0.6947 0.3294 -0.6395
vn -0.7778 0.3232 -0.5390
vn -0.6916 0.3755 -0.6171
vn -0.7882 0.4145 -0.4549
vn -0.7439 0.4517 -0.4926
vn -0.6985 0.4928 -0.5188
vn -0.7563 0.4395 -0.4846
vn -0.7585 -0.4313 -0.4885
vn -0.7324 -0.3953 -0.5543
vn -0.7524 -0.4278 -0.5009
vn -0.8231 -0.3838 -0.4186
vn -0.7589 -0.4416 -0.4787
vn -0.8093 0.3526 -0.4697
vn -0.7882 0.4146 -0.4548
vn -0.7590 0.3901 -0.5213
vn -0.7557 0.4391 -0.4860
vn 0.6084 0.1110 0.7858
vn 0.6455 0.1180 0.7546
vn 0.5573 0.0965 0.8247
vn 0.5614 0.2101 0.8005
vn 0.6407 0.2443 0.7279
vn 0.5773 0.2701 0.7706
vn 0.6472 0.1778 0.7413
vn 0.6479 0.2453 0.7211
vn 0.5676 0.2095 0.7962
vn 0.4974 0.2961 0.8154
vn 0.5725 0.3449 0.7438
vn 0.4698 0.3527 0.8093
vn 0.6392 0.3292 0.6951
vn 0.6200 0.3758 0.6888
vn 0.5389 0.3231 0.7780
vn 0.4548 0.4145 0.7882
vn 0.5163 0.4911 0.7016
vn 0.5020 0.4603 0.7322
vn 0.5213 0.3901 0.7590
vn 0.4846 0.4395 0.7563
vn 0.4859 0.4391 0.7557
vn 0.6652 -0.1295 0.7353
vn 0.6162 -0.1196 0.7784
vn 0.7006 -0.1364 0.7004
vn 0.6936 -0.2595 0.6720
vn 0.6160 -0.2305 0.7533
vn 0.7259 -0.3248 0.6062
vn 0.4632 -0.1297 0.8767
vn 0.5132 -0.1996 0.8348
vn 0.5844 -0.2283 0.7787
vn 0.5300 -0.3123 0.7884
vn 0.4575 -0.2810 0.8436
vn 0.4413 -0.3436 0.8290
vn 0.5931 -0.2873 0.7521
vn 0.4991 -0.2870 0.8177
vn 0.5912 -0.3336 0.7342
vn 0.4787 -0.4415 0.7589
vn 0.3901 -0.3828 0.8374
vn 0.4186 -0.3839 0.8231
vn 0.5543 -0.3952 0.7325
vn 0.4885 -0.4313 0.7585
vn 0.5008 -0.4278 0.7524
vn 0.5614 0.2100 0.8005
vn 0.6200 0.3758 0.6887
vn 0.5388 0.3231 0.7780
vn 0.5020 0.4604 0.7321
vn 0.4860 0.4391 0.7556
vn 0.6160 -0.2304 0.7533
vn 0.7260 -0.3248 0.6062
vn 0.5843 -0.2283 0.7787
vn 0.5912 -0.3336 0.7343
vn 0.5573 0.0964 0.8247
vn 0.4698 0.3526 0.8093
vn 0.7260 -0.3247 0.6062
vn 0.4412 -0.3435 0.8290
vn 0.4787 -0.4416 0.7589
vn 0.4186 -0.3839 0.8230
vn 0.5543 -0.3951 0.7326
vn 0.4885 -0.4312 0.7585
vn 0.5008 -0.4278 0.7525
vn -0.6084 0.1110 -0.7858
vn -0.6455 0.1180 -0.7546
vn -0.5573 0.0964 -0.8247
vn -0.5614 0.2100 -0.8005
vn -0.6407 0.2443 -0.7279
vn -0.5773 0.2701 -0.7706
vn -0.6472 0.1778 -0.7413
vn -0.6479 0.2453 -0.7211
vn -0.5676 0.2095 -0.7962
vn -0.4974 0.2961 -0.8154
vn -0.5725 0.3449 -0.7438
vn -0.4697 0.3527 -0.8093
vn -0.6392 0.3292 -0.6951
vn -0.6200 0.3758 -0.6887
vn -0.5388 0.3230 -0.7780
vn -0.4548 0.4145 -0.7882
vn -0.5163 0.4911 -0.7016
vn -0.5020 0.4604 -0.7322
vn -0.5213 0.3901 -0.7590
vn -0.4846 0.4395 -0.7563
vn -0.4859 0.4391 -0.7557
vn -0.6652 -0.1295 -0.7353
vn -0.6162 -0.1196 -0.7784
vn -0.7006 -0.1364 -0.7004
vn -0.6936 -0.2595 -0.6720
vn -0.6160 -0.2304 -0.7533
vn -0.7260 -0.3248 -0.6062
vn -0.4632 -0.1297 -0.8767
vn -0.5132 -0.1996 -0.8348
vn -0.5844 -0.2283 -0.7787
vn -0.5300 -0.3123 -0.7884
vn -0.4575 -0.2810 -0.8436
vn -0.4413 -0.3436 -0.8290
vn -0.5931 -0.2873 -0.7521
vn -0.4991 -0.2870 -0.8177
vn -0.5912 -0.3336 -0.7343
vn -0.4787 -0.4415 -0.7589
vn -0.3901 -0.3829 -0.8374
vn -0.4186 -0.3839 -0.8231
vn -0.5543 -0.3952 -0.7325
vn -0.4885 -0.4312 -0.7585
vn -0.5008 -0.4278 -0.7525
vn -0.5614 0.2101 -0.8004
vn -0.4697 0.3526 -0.8093
vn -0.6392 0.3292 -0.6950
vn -0.5388 0.3231 -0.7780
vn -0.5020 0.4603 -0.7322
vn -0.5843 -0.2283 -0.7787
vn -0.5300 -0.3122 -0.7884
vn -0.4575 -0.2811 -0.8436
vn -0.4412 -0.3435 -0.8290
vn -0.4991 -0.2870 -0.8176
vn -0.4885 -0.4313 -0.7585
vn -0.5573 0.0965 -0.8247
vn -0.6471 0.1778 -0.7414
vn -0.6479 0.2453 -0.7212
vn -0.5725 0.3449 -0.7439
vn -0.4860 0.4391 -0.7556
vn -0.6160 -0.2305 -0.7533
vn -0.7259 -0.3248 -0.6063
vn -0.3901 -0.3828 -0.8374
vn -0.5008 -0.4278 -0.7524
vn -0.7858 0.1110 0.6084
vn -0.7546 0.1180 0.6455
vn -0.8247 0.0965 0.5573
vn -0.8005 0.2100 0.5614
vn -0.7279 0.2443 0.6407
vn -0.7705 0.2701 0.5773
vn -0.7413 0.1778 0.6472
vn -0.7211 0.2453 0.6479
vn -0.7962 0.2095 0.5676
vn -0.8155 0.2961 0.4974
vn -0.7438 0.3449 0.5725
vn -0.8093 0.3526 0.4698
vn -0.6951 0.3291 0.6392
vn -0.6887 0.3758 0.6200
vn -0.7780 0.3231 0.5389
vn -0.7882 0.4145 0.4548
vn -0.7016 0.4911 0.5163
vn -0.7322 0.4604 0.5020
vn -0.7590 0.3901 0.5213
vn -0.7563 0.4395 0.4846
vn -0.7557 0.4391 0.4859
vn -0.7353 -0.1295 0.6652
vn -0.7784 -0.1196 0.6162
vn -0.7004 -0.1364 0.7006
vn -0.6720 -0.2595 0.6936
vn -0.7533 -0.2304 0.6160
vn -0.6062 -0.3248 0.7260
vn -0.8767 -0.1297 0.4632
vn -0.8348 -0.1996 0.5132
vn -0.7787 -0.2283 0.5844
vn -0.7884 -0.3123 0.5300
vn -0.8436 -0.2811 0.4575
vn -0.8290 -0.3436 0.4413
vn -0.7521 -0.2873 0.5931
vn -0.8176 -0.2870 0.4991
vn -0.7342 -0.3336 0.5912
vn -0.7589 -0.4415 0.4787
vn -0.8374 -0.3828 0.3902
vn -0.8230 -0.3839 0.4186
vn -0.7326 -0.3951 0.5543
vn -0.7586 -0.4312 0.4885
vn -0.7525 -0.4278 0.5008
vn -0.7859 0.1110 0.6084
vn -0.7546 0.1180 0.6454
vn -0.8247 0.0964 0.5573
vn -0.7279 0.2443 0.6406
vn -0.7705 0.2701 0.5774
vn -0.7415 0.1777 0.6470
vn -0.7212 0.2453 0.6478
vn -0.7963 0.2095 0.5675
vn -0.8155 0.2960 0.4973
vn -0.7440 0.3449 0.5723
vn -0.8094 0.3526 0.4697
vn -0.6952 0.3291 0.6390
vn -0.6889 0.3757 0.6199
vn -0.7780 0.3230 0.5388
vn -0.7883 0.4144 0.4548
vn -0.7018 0.4910 0.5162
vn -0.7324 0.4602 0.5019
vn -0.7564 0.4395 0.4845
vn -0.7354 -0.1294 0.6651
vn -0.7785 -0.1196 0.6161
vn -0.7005 -0.1363 0.7005
vn -0.6721 -0.2595 0.6935
vn -0.7534 -0.2304 0.6159
vn -0.6064 -0.3247 0.7258
vn -0.8766 -0.1297 0.4633
vn -0.7787 -0.2283 0.5843
vn -0.7884 -0.3122 0.5300
vn -0.8436 -0.2810 0.4575
vn -0.7523 -0.2872 0.5930
vn -0.8157 -0.2913 0.4998
vn -0.7343 -0.3336 0.5912
vn -0.7590 -0.4415 0.4786
vn -0.8397 -0.3786 0.3893
vn -0.7959 -0.4092 0.4462
vn -0.7585 -0.4313 0.4885
vn -0.8154 0.2961 0.4974
vn -0.8093 0.3527 0.4698
vn -0.7780 0.3230 0.5389
vn -0.7882 0.4146 0.4548
vn -0.7015 0.4911 0.5164
vn -0.7322 0.4603 0.5020
vn -0.7589 0.3902 0.5213
vn -0.7556 0.4392 0.4859
vn -0.7589 -0.4416 0.4787
vn -0.8374 -0.3829 0.3901
vn -0.8230 -0.3840 0.4187
vn -0.7327 -0.3951 0.5542
vn -0.7525 -0.4278 0.5007
vn -0.7865 -0.1136 0.6071
vn -0.7474 -0.1259 0.6523
vn -0.8189 -0.1056 0.5641
vn -0.8265 0.0001 0.5629
vn -0.7591 0.0134 0.6508
vn -0.7914 0.0001 0.6113
vn -0.7830 -0.0512 0.6199
vn -0.8210 -0.2975 0.4872
vn -0.7919 0.0000 0.6107
vn -0.6799 0.2975 0.6703
vn -0.4920 -0.5692 0.6587
vn -0.2504 0.7788 -0.5752
vn -0.7919 0.0000 -0.6107
vn -0.4920 -0.5692 -0.6587
vn -0.6111 0.0000 0.7915
vn -0.6056 -0.0592 0.7935
vn -0.6521 0.0000 0.7581
vn -0.5632 0.0056 0.8263
vn -0.5642 -0.1056 0.8189
vn -0.6523 -0.1259 0.7474
vn -0.6071 -0.1136 0.7864
vn -0.6111 0.0000 0.7916
vn -0.6056 -0.0592 0.7936
vn 0.6111 0.0000 -0.7915
vn 0.6056 -0.0592 -0.7936
vn 0.6521 0.0000 -0.7581
vn 0.5632 0.0056 -0.8263
vn 0.5642 -0.1056 -0.8188
vn 0.6523 -0.1259 -0.7474
vn 0.6071 -0.1136 -0.7864
vn 0.6111 0.0000 -0.7916
vn 0.5642 -0.1056 -0.8189
vn -0.7864 -0.1136 -0.6072
vn -0.8188 -0.1056 -0.5642
vn -0.7474 -0.1259 -0.6524
vn -0.7581 0.0000 -0.6521
vn -0.8263 0.0056 -0.5632
vn -0.7915 0.0000 -0.6111
vn -0.7936 -0.0592 -0.6056
vn -0.7474 -0.1259 -0.6523
vn 0.6111 0.0000 0.7915
vn 0.6056 -0.0592 0.7936
vn 0.6111 0.0000 0.7916
vn 0.5632 0.0056 0.8263
vn 0.6521 0.0000 0.7581
vn 0.5642 -0.1056 0.8189
vn 0.6071 -0.1136 0.7864
vn 0.6523 -0.1259 0.7474
vn 0.6056 -0.0591 0.7936
vn 0.6521 -0.0000 0.7582
vn -0.6111 0.0000 -0.7915
vn -0.6056 -0.0592 -0.7936
vn -0.5632 0.0056 -0.8263
vn -0.6521 -0.0000 -0.7581
vn -0.5642 -0.1056 -0.8189
vn -0.6071 -0.1136 -0.7864
vn -0.6523 -0.1259 -0.7474
vn -0.5642 -0.1056 -0.8188
vn -0.6072 -0.1136 -0.7864
vn -0.7915 0.0000 0.6111
vn -0.7935 -0.0592 0.6056
vn -0.8263 0.0056 0.5632
vn -0.7581 -0.0000 0.6521
vn -0.8188 -0.1056 0.5642
vn -0.7864 -0.1136 0.6072
vn -0.7474 -0.1259 0.6524
vn -0.7827 -0.0511 -0.6203
vn -0.7916 0.0001 -0.6111
vn -0.7591 0.0134 -0.6508
vn -0.8265 0.0001 -0.5629
vn -0.7864 -0.1136 -0.6071
vn -0.8189 -0.1056 -0.5641
vn -0.7936 -0.0592 0.6056
vn -0.6111 0.0000 -0.7916
usemtl Tex_0030_0.dds
s off
f 1/1/1 3/2/2 2/3/1
f 2/3/3 3/2/3 4/4/4
f 3/2/5 5/5/6 4/4/7
f 4/4/8 5/5/8 6/6/9
f 5/5/10 7/7/11 6/6/12
f 6/6/13 7/7/14 8/8/15
f 7/7/16 9/9/17 8/8/18
f 8/8/19 9/9/19 10/10/20
f 9/9/21 11/11/22 10/10/23
f 10/10/24 11/11/25 12/12/26
f 11/11/27 13/13/28 12/12/29
f 12/12/30 13/13/31 14/14/32
f 13/13/33 15/15/34 14/14/35
f 14/14/36 15/15/37 16/16/38
f 15/15/39 17/17/40 16/16/41
f 16/16/42 17/17/42 18/18/42
f 19/19/1 21/20/43 20/21/44
f 20/21/45 21/20/46 22/22/47
f 21/20/48 23/23/49 22/22/50
f 22/22/51 23/23/52 24/24/9
f 23/23/53 25/25/54 24/24/55
f 24/24/56 25/25/14 26/26/57
f 25/25/16 27/27/58 26/26/59
f 26/26/60 27/27/61 28/28/20
f 27/27/62 29/29/22 28/28/23
f 28/28/24 29/29/25 30/30/26
f 29/29/27 31/31/28 30/30/29
f 30/30/63 31/31/31 32/32/32
f 31/31/33 33/33/34 32/32/35
f 32/32/64 33/33/65 34/34/38
f 33/33/39 35/35/66 34/34/67
f 34/34/42 35/35/42 36/36/42
f 37/37/1 39/38/43 38/39/44
f 38/39/45 39/38/46 40/40/47
f 39/38/68 41/41/69 40/40/70
f 40/40/51 41/41/52 42/42/9
f 41/41/53 43/43/54 42/42/55
f 42/42/13 43/43/14 44/44/57
f 43/43/16 45/45/58 44/44/59
f 44/44/60 45/45/61 46/46/20
f 45/45/62 47/47/22 46/46/23
f 46/46/71 47/47/25 48/48/26
f 47/47/27 49/49/72 48/48/29
f 48/48/30 49/49/31 50/50/32
f 49/49/33 51/51/73 50/50/35
f 50/50/36 51/51/65 52/52/74
f 51/51/39 53/53/75 52/52/76
f 52/52/77 53/53/78 54/54/42
f 55/55/79 57/56/80 56/57/81
f 56/57/82 57/56/83 58/58/84
f 57/56/85 59/59/86 58/58/87
f 58/58/88 59/59/89 60/60/90
f 59/59/91 61/61/92 60/60/93
f 60/60/94 61/61/95 62/62/96
f 61/61/97 63/63/98 62/62/99
f 62/62/100 63/63/101 64/64/102
f 63/63/103 65/65/104 64/64/105
f 64/64/106 65/65/107 66/66/108
f 65/65/109 67/67/110 66/66/111
f 66/66/112 67/67/113 68/68/114
f 67/67/115 69/69/116 68/68/117
f 68/68/118 69/69/119 70/70/120
f 69/69/121 71/71/122 70/70/123
f 70/70/124 71/71/124 72/72/124
f 73/73/79 75/74/80 74/75/81
f 74/75/82 75/74/125 76/76/84
f 75/74/126 77/77/86 76/76/87
f 76/76/88 77/77/89 78/78/127
f 77/77/91 79/79/92 78/78/93
f 78/78/94 79/79/95 80/80/96
f 79/79/97 81/81/98 80/80/99
f 80/80/100 81/81/101 82/82/102
f 81/81/103 83/83/128 82/82/129
f 82/82/130 83/83/131 84/84/108
f 83/83/109 85/85/110 84/84/111
f 84/84/132 85/85/113 86/86/114
f 85/85/133 87/87/134 86/86/117
f 86/86/135 87/87/136 88/88/137
f 87/87/121 89/89/138 88/88/139
f 88/88/140 89/89/141 90/90/124
f 91/91/79 93/92/80 92/93/81
f 92/93/142 93/92/83 94/94/84
f 93/92/143 95/95/86 94/94/87
f 94/94/88 95/95/89 96/96/127
f 95/95/91 97/97/92 96/96/93
f 96/96/144 97/97/95 98/98/96
f 97/97/97 99/99/98 98/98/99
f 98/98/100 99/99/101 100/100/102
f 99/99/103 101/101/104 100/100/145
f 100/100/130 101/101/131 102/102/108
f 101/101/109 103/103/146 102/102/111
f 102/102/132 103/103/113 104/104/114
f 103/103/133 105/105/147 104/104/117
f 104/104/118 105/105/119 106/106/137
f 105/105/121 107/107/148 106/106/139
f 106/106/140 107/107/149 108/108/124
f 109/109/150 111/110/151 110/111/152
f 110/111/153 111/110/154 112/112/155
f 111/110/156 113/113/157 112/112/158
f 112/112/159 113/113/160 114/114/161
f 113/113/162 115/115/163 114/114/164
f 114/114/165 115/115/166 116/116/167
f 115/115/168 117/117/169 116/116/170
f 116/116/171 117/117/172 118/118/173
f 117/117/174 119/119/175 118/118/176
f 118/118/177 119/119/178 120/120/179
f 119/119/180 121/121/181 120/120/182
f 120/120/183 121/121/184 122/122/185
f 121/121/186 123/123/187 122/122/188
f 122/122/189 123/123/190 124/124/191
f 123/123/192 125/125/193 124/124/194
f 124/124/195 125/125/196 126/126/197
f 127/127/150 129/128/198 128/129/199
f 128/129/153 129/128/200 130/130/201
f 129/128/202 131/131/203 130/130/204
f 130/130/205 131/131/206 132/132/207
f 131/131/208 133/133/209 132/132/210
f 132/132/165 133/133/166 134/134/211
f 133/133/212 135/135/213 134/134/214
f 134/134/215 135/135/216 136/136/217
f 135/135/218 137/137/219 136/136/176
f 136/136/220 137/137/221 138/138/222
f 137/137/223 139/139/224 138/138/225
f 138/138/226 139/139/227 140/140/228
f 139/139/229 141/141/230 140/140/231
f 140/140/232 141/141/233 142/142/234
f 141/141/235 143/143/236 142/142/237
f 142/142/238 143/143/238 144/144/238
f 145/145/239 147/146/240 146/147/241
f 146/147/242 147/146/200 148/148/243
f 147/146/156 149/149/157 148/148/158
f 148/148/159 149/149/160 150/150/161
f 149/149/162 151/151/163 150/150/164
f 150/150/165 151/151/166 152/152/167
f 151/151/168 153/153/169 152/152/170
f 152/152/171 153/153/172 154/154/173
f 153/153/174 155/155/175 154/154/176
f 154/154/177 155/155/178 156/156/179
f 155/155/180 157/157/181 156/156/182
f 156/156/183 157/157/184 158/158/185
f 157/157/186 159/159/244 158/158/188
f 158/158/189 159/159/190 160/160/191
f 159/159/245 161/161/193 160/160/194
f 160/160/246 161/161/247 162/162/238
f 163/163/248 165/164/249 164/165/250
f 164/165/251 165/164/252 166/166/253
f 165/164/254 167/167/255 166/166/256
f 166/166/257 167/167/258 168/168/259
f 167/167/260 169/169/261 168/168/262
f 168/168/263 169/169/264 170/170/265
f 169/169/266 171/171/267 170/170/268
f 172/172/269 174/173/270 173/174/271
f 173/174/272 174/173/273 175/175/274
f 174/173/275 176/176/276 175/175/277
f 175/175/278 176/176/279 177/177/280
f 176/176/281 178/178/282 177/177/283
f 177/177/284 178/178/285 179/179/286
f 178/178/287 180/180/288 179/179/289
f 181/181/248 183/182/249 182/183/250
f 182/183/290 183/182/252 184/184/253
f 183/182/254 185/185/255 184/184/256
f 184/184/257 185/185/258 186/186/259
f 185/185/260 187/187/291 186/186/292
f 186/186/263 187/187/264 188/188/293
f 187/187/266 189/189/267 188/188/294
f 190/190/269 192/191/270 191/192/271
f 191/192/272 192/191/295 193/193/296
f 192/191/275 194/194/276 193/193/297
f 193/193/278 194/194/279 195/195/280
f 194/194/281 196/196/282 195/195/298
f 195/195/284 196/196/285 197/197/286
f 196/196/287 198/198/288 197/197/289
f 199/199/248 201/200/249 200/201/299
f 200/201/290 201/200/252 202/202/253
f 201/200/254 203/203/255 202/202/256
f 202/202/257 203/203/258 204/204/300
f 203/203/260 205/205/291 204/204/292
f 204/204/263 205/205/264 206/206/293
f 205/205/266 207/207/267 206/206/268
f 208/208/269 210/209/270 209/210/271
f 209/210/272 210/209/295 211/211/301
f 210/209/275 212/212/276 211/211/297
f 211/211/278 212/212/279 213/213/302
f 212/212/281 214/214/282 213/213/298
f 213/213/303 214/214/285 215/215/304
f 214/214/305 216/216/306 215/215/307
f 217/217/308 219/218/309 218/219/310
f 218/219/311 219/218/312 220/220/313
f 219/218/314 221/221/315 220/220/316
f 220/220/317 221/221/318 222/222/319
f 221/221/320 223/223/321 222/222/322
f 222/222/323 223/223/324 224/224/325
f 223/223/326 225/225/327 224/224/328
f 226/226/329 228/227/330 227/228/331
f 227/228/332 228/227/333 229/229/334
f 228/227/335 230/230/336 229/229/337
f 229/229/338 230/230/339 231/231/340
f 230/230/341 232/232/342 231/231/343
f 231/231/344 232/232/345 233/233/346
f 232/232/347 234/234/348 233/233/349
f 235/235/308 237/236/309 236/237/310
f 236/237/350 237/236/312 238/238/313
f 237/236/314 239/239/315 238/238/316
f 238/238/317 239/239/318 240/240/351
f 239/239/352 241/241/321 240/240/353
f 240/240/323 241/241/324 242/242/354
f 241/241/326 243/243/327 242/242/328
f 244/244/329 246/245/330 245/246/331
f 245/246/332 246/245/333 247/247/334
f 246/245/335 248/248/336 247/247/355
f 247/247/356 248/248/357 249/249/358
f 248/248/341 250/250/359 249/249/343
f 249/249/344 250/250/345 251/251/346
f 250/250/347 252/252/360 251/251/349
f 253/253/308 255/254/309 254/255/361
f 254/255/311 255/254/312 256/256/313
f 255/254/362 257/257/363 256/256/316
f 256/256/317 257/257/364 258/258/351
f 257/257/352 259/259/321 258/258/353
f 258/258/323 259/259/324 260/260/325
f 259/259/326 261/261/327 260/260/365
f 262/262/329 264/263/330 263/264/331
f 263/264/332 264/263/366 265/265/367
f 264/263/335 266/266/336 265/265/355
f 265/265/356 266/266/339 267/267/340
f 266/266/341 268/268/359 267/267/343
f 267/267/344 268/268/368 269/269/346
f 268/268/347 270/270/360 269/269/369
f 271/271/370 273/272/371 272/273/372
f 272/273/373 273/272/374 274/274/375
f 273/272/376 275/275/377 274/274/378
f 274/274/379 275/275/380 276/276/381
f 275/275/382 277/277/383 276/276/384
f 276/276/385 277/277/386 278/278/387
f 277/277/388 279/279/389 278/278/390
f 280/280/391 282/281/392 281/282/393
f 281/282/394 282/281/395 283/283/396
f 282/281/397 284/284/398 283/283/399
f 283/283/400 284/284/401 285/285/402
f 284/284/403 286/286/404 285/285/405
f 285/285/406 286/286/407 287/287/408
f 286/286/409 288/288/410 287/287/411
f 289/289/412 291/290/413 290/291/414
f 290/291/373 291/290/415 292/292/416
f 291/290/417 293/293/418 292/292/419
f 292/292/420 293/293/421 294/294/422
f 293/293/423 295/295/424 294/294/425
f 294/294/426 295/295/427 296/296/428
f 295/295/388 297/297/429 296/296/390
f 298/298/430 300/299/431 299/300/432
f 299/300/433 300/299/434 301/301/435
f 300/299/436 302/302/398 301/301/437
f 301/301/438 302/302/439 303/303/402
f 302/302/440 304/304/441 303/303/442
f 303/303/443 304/304/444 305/305/445
f 304/304/446 306/306/446 305/305/446
f 307/307/370 309/308/371 308/309/372
f 308/309/373 309/308/374 310/310/375
f 309/308/376 311/311/377 310/310/378
f 310/310/447 311/311/380 312/312/448
f 311/311/382 313/313/383 312/312/449
f 312/312/450 313/313/451 314/314/452
f 313/313/453 315/315/389 314/314/454
f 316/316/391 318/317/392 317/318/393
f 317/318/394 318/317/395 319/319/396
f 318/317/397 320/320/398 319/319/399
f 319/319/400 320/320/401 321/321/402
f 320/320/403 322/322/404 321/321/405
f 321/321/455 322/322/456 323/323/457
f 322/322/458 324/324/410 323/323/459
f 325/325/460 327/326/461 326/327/462
f 326/327/463 327/326/464 328/328/465
f 327/326/466 329/329/467 328/328/468
f 328/328/468 329/329/469 330/330/470
f 329/329/471 331/331/472 330/330/473
f 332/332/474 334/333/474 333/334/474
f 333/334/474 334/333/474 335/335/475
f 334/333/474 336/336/476 335/335/477
f 335/335/478 336/336/479 337/337/480
f 338/338/474 340/339/474 339/340/474
f 339/340/474 340/339/474 341/341/475
f 340/339/474 342/342/476 341/341/477
f 341/341/478 342/342/479 343/343/480
f 344/344/481 346/345/481 345/346/481
f 345/346/474 346/345/474 347/347/482
f 346/345/481 348/348/476 347/347/477
f 347/347/478 348/348/479 349/349/480
f 350/350/483 352/351/483 351/352/483
f 351/352/483 352/351/483 353/353/484
f 352/351/483 354/354/485 353/353/486
f 353/353/487 354/354/488 355/355/489
f 356/356/483 358/357/483 357/358/483
f 357/358/483 358/357/483 359/359/484
f 358/357/483 360/360/485 359/359/486
f 359/359/487 360/360/488 361/361/489
f 362/362/483 364/363/483 363/364/483
f 363/364/483 364/363/483 365/365/484
f 364/363/490 366/366/485 365/365/486
f 365/365/491 366/366/488 367/367/489
f 368/368/492 370/369/493 369/370/494
f 369/370/495 370/369/496 371/371/497
f 370/369/498 372/372/497 371/371/497
f 371/371/497 372/372/497 373/373/497
f 374/374/492 376/375/493 375/376/499
f 375/376/495 376/375/496 377/377/497
f 376/375/498 378/378/497 377/377/497
f 377/377/497 378/378/497 379/379/497
f 380/380/500 382/381/501 381/382/500
f 381/382/502 382/381/503 383/383/504
f 382/381/505 384/384/506 383/383/507
f 385/385/500 387/386/508 386/387/500
f 386/387/502 387/386/503 388/388/509
f 387/386/505 389/389/506 388/388/507
f 390/390/500 392/391/508 391/392/500
f 391/392/502 392/391/503 393/393/504
f 392/391/505 394/394/506 393/393/507
f 395/395/510 397/396/511 396/397/510
f 396/397/510 397/396/512 398/398/513
f 397/396/514 399/399/515 398/398/516
f 400/400/510 402/401/511 401/402/510
f 401/402/510 402/401/512 403/403/513
f 402/401/517 404/404/518 403/403/516
f 405/405/510 407/406/511 406/407/510
f 406/407/510 407/406/512 408/408/513
f 407/406/517 409/409/518 408/408/516
f 410/410/519 412/411/520 411/412/519
f 411/412/519 412/411/521 413/413/522
f 412/411/523 414/414/524 413/413/525
f 415/415/472 417/416/526 416/417/472
f 416/417/527 417/416/528 418/418/529
f 417/416/499 419/419/530 418/418/531
f 420/420/519 422/421/532 421/422/519
f 421/422/519 422/421/521 423/423/522
f 422/421/523 424/424/524 423/423/525
f 425/425/502 427/426/502 426/427/502
f 428/428/502 430/429/502 429/430/502
f 431/431/502 433/432/502 432/433/502
f 434/434/533 436/435/533 435/436/533
f 437/437/510 439/438/510 438/439/510
f 440/440/510 442/441/510 441/442/510
f 443/443/519 445/444/519 444/445/519
f 446/446/519 448/447/519 447/448/519
