# Blender v3.6.3 OBJ File: 'untitled.blend'
# www.blender.org
mtllib Mesh_0369.mtl
o Mesh_0369_Mesh.105
v -39.770561 9.842179 38.317871
v -35.004585 12.022642 38.446320
v -40.084583 9.482642 38.446320
v -35.004585 11.853299 38.574753
v -40.084583 9.313300 38.574753
v -35.004585 11.712202 38.446320
v -40.084583 9.172202 38.446320
v -35.004585 10.865544 38.574753
v -40.084583 8.466642 38.703194
v -35.004585 11.006641 38.703194
v -40.084583 8.607764 38.703194
v -35.004585 11.147764 38.703194
v -40.084583 8.748860 38.446320
v -35.004585 11.288860 38.446320
v -44.850574 7.302169 38.317871
v -40.084583 9.482642 38.446320
v -45.164581 6.942645 38.446320
v -40.084583 9.313300 38.574753
v -45.164581 6.773303 38.574753
v -40.084583 9.172202 38.446320
v -45.164581 6.632199 38.446320
v -40.084583 8.325545 38.574753
v -45.164581 5.926645 38.703194
v -40.084583 8.466642 38.703194
v -45.164581 6.067760 38.703194
v -40.084583 8.607764 38.703194
v -45.164581 6.208863 38.446320
v -40.084583 8.748860 38.446320
v -49.930561 4.762180 38.317871
v -45.164581 6.942645 38.446320
v -50.244583 4.402642 38.446320
v -45.164581 6.773303 38.574753
v -50.244583 4.233301 38.574753
v -45.164581 6.632199 38.446320
v -50.244583 4.092204 38.446320
v -45.164581 5.785540 38.574753
v -50.244583 3.386642 38.703194
v -45.164581 5.926645 38.703194
v -50.244583 3.527765 38.703194
v -45.164581 6.067760 38.703194
v -50.244583 3.668862 38.446320
v -45.164581 6.208863 38.446320
v -55.010574 2.222169 38.317871
v -50.244583 4.402642 38.446320
v -55.324581 1.862648 38.446320
v -50.244583 4.233301 38.574753
v -55.324581 1.693306 38.574753
v -50.244583 4.092204 38.446320
v -55.324581 1.552196 38.446320
v -50.244583 3.245545 38.574753
v -55.324581 0.846647 38.703194
v -50.244583 3.386642 38.703194
v -55.324581 0.987755 38.703194
v -50.244583 3.527765 38.703194
v -55.324581 1.128865 38.446320
v -50.244583 3.668862 38.446320
v -35.322083 12.025435 38.317871
v -39.770561 9.842179 38.317871
v -35.322083 12.025435 38.068192
v -39.770561 9.842179 38.068192
v -35.004585 10.724422 38.703194
v -35.004585 10.159984 38.703194
v -40.084583 8.184422 38.703194
v -40.084583 7.619984 38.703194
v -35.004585 10.865544 38.574753
v -35.004585 10.724422 38.703194
v -40.084583 8.325545 38.574753
v -40.084583 8.184422 38.703194
v -35.004585 11.712202 38.446320
v -35.004585 11.288860 38.446320
v -40.084583 9.172202 38.446320
v -40.084583 8.748860 38.446320
v -40.402084 9.485435 38.317871
v -44.850574 7.302169 38.317871
v -40.402084 9.485435 38.068192
v -44.850574 7.302169 38.068192
v -40.084583 8.184422 38.703194
v -40.084583 7.619984 38.703194
v -45.164581 5.644424 38.703194
v -45.164581 5.079984 38.703194
v -40.084583 8.325545 38.574753
v -40.084583 8.184422 38.703194
v -45.164581 5.785540 38.574753
v -45.164581 5.644424 38.703194
v -40.084583 9.172202 38.446320
v -40.084583 8.748860 38.446320
v -45.164581 6.632199 38.446320
v -45.164581 6.208863 38.446320
v -45.482082 6.945436 38.317871
v -49.930561 4.762180 38.317871
v -45.482082 6.945436 38.068192
v -49.930561 4.762180 38.068192
v -45.164581 5.644424 38.703194
v -45.164581 5.079984 38.703194
v -50.244583 3.104423 38.703194
v -50.244583 2.539984 38.703194
v -45.164581 5.785540 38.574753
v -45.164581 5.644424 38.703194
v -50.244583 3.245545 38.574753
v -50.244583 3.104423 38.703194
v -45.164581 6.632199 38.446320
v -45.164581 6.208863 38.446320
v -50.244583 4.092204 38.446320
v -50.244583 3.668862 38.446320
v -50.562080 4.405436 38.317871
v -55.010574 2.222169 38.317871
v -50.562080 4.405436 38.068192
v -55.010574 2.222169 38.068192
v -50.244583 3.104423 38.703194
v -50.244583 2.539984 38.703194
v -55.324581 0.564426 38.703194
v -55.324581 -0.000016 38.703194
v -50.244583 3.245545 38.574753
v -50.244583 3.104423 38.703194
v -55.324581 0.705535 38.574753
v -55.324581 0.564426 38.703194
v -50.244583 4.092204 38.446320
v -50.244583 3.668862 38.446320
v -55.324581 1.552196 38.446320
v -55.324581 1.128865 38.446320
v -35.322083 12.025435 38.317871
v -35.004585 12.022642 38.446320
v -39.770561 9.842179 38.317871
v -35.004585 10.865544 38.574753
v -40.084583 8.325545 38.574753
v -40.084583 8.466642 38.703194
v -40.402084 9.485435 38.317871
v -40.084583 9.482642 38.446320
v -44.850574 7.302169 38.317871
v -40.084583 8.325545 38.574753
v -45.164581 5.785540 38.574753
v -45.164581 5.926645 38.703194
v -45.482082 6.945436 38.317871
v -45.164581 6.942645 38.446320
v -49.930561 4.762180 38.317871
v -45.164581 5.785540 38.574753
v -50.244583 3.245545 38.574753
v -50.244583 3.386642 38.703194
v -50.562080 4.405436 38.317871
v -50.244583 4.402642 38.446320
v -55.010574 2.222169 38.317871
v -50.244583 3.245545 38.574753
v -55.324581 0.705535 38.574753
v -55.324581 0.846647 38.703194
vt -0.422852 1.047852
vt -0.498047 0.799805
vt 1.496094 0.799805
vt 1.502930 0.655273
vt -0.504883 0.655273
vt 1.496094 0.794922
vt -0.498047 0.794922
vt 0.497070 -1.694336
vt 0.497070 -2.070312
vt -1.500977 -2.070312
vt -1.500977 -2.196289
vt 0.497070 -2.196289
vt -1.500977 -1.770508
vt 0.497070 -1.770508
vt -0.422852 1.047852
vt -0.498047 0.799805
vt 1.496094 0.799805
vt 1.502930 0.655273
vt -0.504883 0.655273
vt 1.496094 0.794922
vt -0.498047 0.794922
vt 0.497070 -1.694336
vt 0.497070 -2.070312
vt -1.500977 -2.070312
vt -1.500977 -2.196289
vt 0.497070 -2.196289
vt -1.500977 -1.770508
vt 0.497070 -1.770508
vt -0.422852 1.047852
vt -0.498047 0.799805
vt 1.496094 0.799805
vt 1.502930 0.655273
vt -0.504883 0.655273
vt 1.496094 0.794922
vt -0.498047 0.794922
vt 0.497070 -1.694336
vt 0.497070 -2.070312
vt -1.500977 -2.070312
vt -1.500977 -2.196289
vt 0.497070 -2.196289
vt -1.500977 -1.770508
vt 0.497070 -1.770508
vt -0.422852 1.047852
vt -0.498047 0.799805
vt 1.496094 0.799805
vt 1.502930 0.655273
vt -0.504883 0.655273
vt 1.496094 0.794922
vt -0.498047 0.794922
vt 0.497070 -1.694336
vt 0.497070 -2.070312
vt -1.500977 -2.070312
vt -1.500977 -2.196289
vt 0.497070 -2.196289
vt -1.500977 -1.770508
vt 0.497070 -1.770508
vt 1.420898 1.045898
vt 1.420898 1.397461
vt -0.422852 1.047852
vt -0.422852 1.397461
vt 0.497070 -3.003906
vt -1.500977 -3.003906
vt 0.497070 -2.603516
vt -1.500977 -2.603516
vt 0.497070 -3.352539
vt -1.500977 -3.352539
vt 0.497070 -3.003906
vt -1.500977 -3.003906
vt 0.497070 -0.346680
vt -1.500977 -0.346680
vt 0.497070 -0.653320
vt -1.500977 -0.653320
vt 1.420898 1.045898
vt 1.420898 1.397461
vt -0.422852 1.047852
vt -0.422852 1.397461
vt 0.497070 -3.003906
vt -1.500977 -3.003906
vt 0.497070 -2.603516
vt -1.500977 -2.603516
vt 0.497070 -3.352539
vt -1.500977 -3.352539
vt 0.497070 -3.003906
vt -1.500977 -3.003906
vt 0.497070 -0.346680
vt -1.500977 -0.346680
vt 0.497070 -0.653320
vt -1.500977 -0.653320
vt 1.420898 1.045898
vt 1.420898 1.397461
vt -0.422852 1.047852
vt -0.422852 1.397461
vt 0.497070 -3.003906
vt -1.500977 -3.003906
vt 0.497070 -2.603516
vt -1.500977 -2.603516
vt 0.497070 -3.352539
vt -1.500977 -3.352539
vt 0.497070 -3.003906
vt -1.500977 -3.003906
vt 0.497070 -0.346680
vt -1.500977 -0.346680
vt 0.497070 -0.653320
vt -1.500977 -0.653320
vt 1.420898 1.045898
vt 1.420898 1.397461
vt -0.422852 1.047852
vt -0.422852 1.397461
vt 0.497070 -3.003906
vt -1.500977 -3.003906
vt 0.497070 -2.603516
vt -1.500977 -2.603516
vt 0.497070 -3.352539
vt -1.500977 -3.352539
vt 0.497070 -3.003906
vt -1.500977 -3.003906
vt 0.497070 -0.346680
vt -1.500977 -0.346680
vt 0.497070 -0.653320
vt -1.500977 -0.653320
vt 1.420898 1.045898
vt -0.422852 1.047852
vt 1.496094 0.799805
vt 0.497070 -1.694336
vt -1.500977 -2.070312
vt -1.500977 -1.694336
vt 1.420898 1.045898
vt -0.422852 1.047852
vt 1.496094 0.799805
vt 0.497070 -1.694336
vt -1.500977 -2.070312
vt -1.500977 -1.694336
vt 1.420898 1.045898
vt -0.422852 1.047852
vt 1.496094 0.799805
vt 0.497070 -1.694336
vt -1.500977 -2.070312
vt -1.500977 -1.694336
vt 1.420898 1.045898
vt -0.422852 1.047852
vt 1.496094 0.799805
vt 0.497070 -1.694336
vt -1.500977 -2.070312
vt -1.500977 -1.694336
vn -0.2587 0.5174 0.8157
vn -0.2075 0.4848 0.8497
vn -0.2892 0.5785 0.7627
vn -0.2729 0.5809 0.7669
vn -0.9462 0.1956 0.2578
vn 0.3190 -0.6380 0.7009
vn -0.2228 -0.6437 0.7321
vn 0.3311 -0.6353 0.6977
vn 0.4270 -0.9042 0.0030
vn -0.0202 -0.0000 0.9998
vn -0.3007 0.6368 0.7100
vn -0.4221 0.0095 0.9065
vn 0.0000 0.0000 1.0000
vn 0.6461 0.0000 0.7632
vn -0.8872 0.4044 0.2221
vn -0.4284 0.9024 0.0455
vn -0.4014 0.8028 0.4410
vn -0.0019 0.8665 0.4992
vn -0.4014 0.8028 0.4409
vn -0.2073 0.4847 0.8498
vn -0.2305 0.4531 0.8611
vn -0.2920 0.5779 0.7620
vn -0.2944 0.5901 0.7518
vn 0.2495 0.5704 0.7826
vn -0.2731 0.5809 0.7668
vn -0.9485 0.1913 0.2523
vn -0.4078 0.8566 0.3162
vn 0.9570 -0.1954 0.2146
vn 0.4202 -0.8772 0.2322
vn -0.2158 -0.6449 0.7332
vn 0.7340 -0.4572 0.5023
vn 0.4270 -0.9042 0.0029
vn -0.1240 0.2627 0.9569
vn -0.4191 0.0094 0.9079
vn 0.2904 -0.0065 0.9569
vn 0.1790 -0.3791 0.9079
vn -0.8887 0.4018 0.2207
vn -0.0018 0.8665 0.4992
vn -0.2074 0.4847 0.8498
vn -0.2306 0.4531 0.8611
vn -0.2731 0.5808 0.7668
vn -0.9485 0.1915 0.2524
vn -0.4077 0.8566 0.3163
vn 0.9569 -0.1954 0.2147
vn 0.4201 -0.8772 0.2323
vn -0.2158 -0.6449 0.7331
vn -0.1240 0.2626 0.9569
vn -0.2075 0.4848 0.8496
vn -0.2728 0.5809 0.7669
vn -0.9485 0.1913 0.2524
vn 0.3190 -0.6379 0.7009
vn 0.7340 -0.4572 0.5022
vn 0.1790 -0.3790 0.9079
vn -0.4406 0.8977 0.0000
vn -0.3190 0.6379 0.7009
vn -0.3190 0.6380 0.7009
vn -0.2951 0.6013 0.7425
usemtl Tex_0032_0.dds.016
s off
f 1/1/1 3/2/2 2/3/1
f 2/3/3 3/2/3 4/4/3
f 3/2/4 5/5/5 4/4/3
f 4/4/6 5/5/6 6/6/6
f 5/5/7 7/7/6 6/6/6
f 8/8/6 10/9/8 9/10/9
f 9/10/10 10/9/11 11/11/12
f 10/9/13 12/12/14 11/11/13
f 11/11/15 12/12/16 13/13/17
f 12/12/18 14/14/19 13/13/19
f 15/15/1 17/16/20 16/17/21
f 16/17/22 17/16/23 18/18/24
f 17/16/25 19/19/26 18/18/27
f 18/18/28 19/19/29 20/20/6
f 19/19/30 21/21/6 20/20/6
f 22/22/6 24/23/31 23/24/32
f 23/24/10 24/23/33 25/25/34
f 24/23/35 26/26/14 25/25/36
f 25/25/37 26/26/16 27/27/17
f 26/26/38 28/28/19 27/27/19
f 29/29/1 31/30/39 30/31/40
f 30/31/22 31/30/23 32/32/24
f 31/30/41 33/33/42 32/32/43
f 32/32/44 33/33/45 34/34/6
f 33/33/46 35/35/6 34/34/6
f 36/36/6 38/37/31 37/38/9
f 37/38/10 38/37/47 39/39/34
f 38/37/35 40/40/14 39/39/36
f 39/39/37 40/40/16 41/41/17
f 40/40/18 42/42/17 41/41/17
f 43/43/1 45/44/48 44/45/1
f 44/45/3 45/44/3 46/46/24
f 45/44/49 47/47/50 46/46/27
f 46/46/28 47/47/29 48/48/6
f 47/47/30 49/49/51 48/48/51
f 50/50/6 52/51/52 51/52/32
f 51/52/10 52/51/33 53/53/34
f 52/51/35 54/54/14 53/53/53
f 53/53/37 54/54/16 55/55/17
f 54/54/38 56/56/17 55/55/17
f 57/57/54 59/58/54 58/59/54
f 58/59/54 59/58/54 60/60/54
f 61/61/13 63/62/13 62/63/13
f 62/63/13 63/62/13 64/64/13
f 65/65/55 67/66/55 66/67/55
f 66/67/55 67/66/55 68/68/55
f 69/69/13 71/70/13 70/71/13
f 70/71/13 71/70/13 72/72/13
f 73/73/54 75/74/54 74/75/54
f 74/75/54 75/74/54 76/76/54
f 77/77/13 79/78/13 78/79/13
f 78/79/13 79/78/13 80/80/13
f 81/81/55 83/82/55 82/83/55
f 82/83/56 83/82/56 84/84/56
f 85/85/13 87/86/13 86/87/13
f 86/87/13 87/86/13 88/88/13
f 89/89/54 91/90/54 90/91/54
f 90/91/54 91/90/54 92/92/54
f 93/93/13 95/94/13 94/95/13
f 94/95/13 95/94/13 96/96/13
f 97/97/56 99/98/56 98/99/56
f 98/99/55 99/98/55 100/100/55
f 101/101/13 103/102/13 102/103/13
f 102/103/13 103/102/13 104/104/13
f 105/105/54 107/106/54 106/107/54
f 106/107/54 107/106/54 108/108/54
f 109/109/13 111/110/13 110/111/13
f 110/111/13 111/110/13 112/112/13
f 113/113/55 115/114/55 114/115/55
f 114/115/56 115/114/56 116/116/56
f 117/117/13 119/118/13 118/119/13
f 118/119/13 119/118/13 120/120/13
f 121/121/57 123/122/57 122/123/57
f 124/124/6 126/125/6 125/126/6
f 127/127/57 129/128/57 128/129/57
f 130/130/6 132/131/6 131/132/6
f 133/133/57 135/134/57 134/135/57
f 136/136/6 138/137/6 137/138/6
f 139/139/57 141/140/57 140/141/57
f 142/142/6 144/143/6 143/144/6
