# Blender v3.6.3 OBJ File: 'untitled.blend'
# www.blender.org
mtllib Mesh_0106.mtl
o Mesh_0106_Mesh.119
v 47.545361 1.904990 -2.571808
v 46.275364 1.904990 -2.571808
v 47.545361 1.904990 -15.271805
v 46.275364 1.904990 -15.271805
v 47.545361 1.904990 -24.796806
v 46.275364 1.904990 -24.796806
v 43.735363 0.634990 -24.796806
v 45.005360 0.634990 -24.796806
v 43.735363 0.634990 -15.271805
v 45.005360 0.634990 -15.271805
v 45.005360 0.634990 -2.571808
v 46.275364 1.269990 -2.571808
v 45.005360 1.269990 -2.571808
v 46.275364 1.269990 -15.271805
v 45.005360 1.269990 -15.271805
v 45.005360 1.269990 -24.796806
v 46.275364 1.269990 -24.796806
v 45.005360 1.269990 -15.271805
v 46.275364 1.269990 -15.271805
v 45.005360 0.634990 -2.571808
v 45.005360 0.634990 10.128189
v 43.735363 0.634990 -2.571808
v 43.735363 0.634990 10.128189
v 46.275364 1.269990 10.128189
v 45.005360 1.269990 10.128189
v 46.275364 1.269990 -2.571808
v 45.005360 1.269990 -2.571808
v 47.545361 1.904990 10.128189
v 46.275364 1.904990 10.128189
v 47.545361 1.904990 -2.571808
v 46.275364 1.904990 -2.571808
v 46.275364 1.904990 19.653191
v 46.275364 1.904990 10.128189
v 47.545361 1.904990 19.653191
v 47.545361 1.904990 10.128189
v 45.005360 1.269990 19.653191
v 45.005360 1.269990 10.128189
v 46.275364 1.269990 19.653191
v 46.275364 1.269990 10.128189
v 43.735363 0.634990 19.653191
v 43.735363 0.634990 10.128189
v 45.005360 0.634990 19.653191
v 45.005360 0.634990 10.128189
v 45.005360 0.634990 -2.571808
v 43.735363 0.634990 -2.571808
v 43.735363 0.634990 -15.271805
vt 1.496094 0.000000
vt -0.501953 0.000000
vt 1.496094 -0.999023
vt -0.501953 -0.999023
vt -2.751953 0.000000
vt -2.751953 -0.999023
vt -2.747070 -0.999023
vt -0.501953 -0.999023
vt -2.753906 0.000000
vt -0.501953 0.000000
vt 1.496094 0.000000
vt 4.993164 0.000000
vt 2.995117 0.000000
vt 4.993164 -0.999023
vt 2.995117 -0.999023
vt -2.999023 -0.999023
vt -0.752930 -0.999023
vt -2.999023 0.000000
vt -0.752930 0.000000
vt -0.501953 0.000000
vt -0.501953 -0.999023
vt 1.496094 0.000000
vt 1.496094 -0.999023
vt 4.993164 0.000000
vt 2.995117 0.000000
vt 4.993164 -0.999023
vt 2.995117 -0.999023
vt 1.496094 0.000000
vt -0.501953 0.000000
vt 1.496094 -0.999023
vt -0.501953 -0.999023
vt -0.001953 -0.999023
vt -0.001953 0.000000
vt -2.244141 -0.999023
vt -2.244141 0.000000
vt 0.251953 -0.999023
vt 0.254883 0.000000
vt -1.995117 -0.999023
vt -1.995117 0.000000
vt -0.001953 -0.999023
vt -0.001953 0.000000
vt -2.244141 -0.999023
vt -2.244141 0.000000
vt 1.496094 0.000000
vt -0.501953 -0.999023
vt 1.496094 -0.999023
vn 0.0000 1.0000 0.0000
usemtl Tex_0010_1.dds
s off
f 1/1/1 3/2/1 2/3/1
f 2/3/1 3/2/1 4/4/1
f 3/2/1 5/5/1 4/4/1
f 4/4/1 5/5/1 6/6/1
f 7/7/1 9/8/1 8/9/1
f 8/9/1 9/8/1 10/10/1
f 9/8/1 11/11/1 10/10/1
f 12/12/1 14/13/1 13/14/1
f 13/14/1 14/13/1 15/15/1
f 16/16/1 18/17/1 17/18/1
f 17/18/1 18/17/1 19/19/1
f 20/20/1 22/21/1 21/22/1
f 21/22/1 22/21/1 23/23/1
f 24/24/1 26/25/1 25/26/1
f 25/26/1 26/25/1 27/27/1
f 28/28/1 30/29/1 29/30/1
f 29/30/1 30/29/1 31/31/1
f 32/32/1 34/33/1 33/34/1
f 33/34/1 34/33/1 35/35/1
f 36/36/1 38/37/1 37/38/1
f 37/38/1 38/37/1 39/39/1
f 40/40/1 42/41/1 41/42/1
f 41/42/1 42/41/1 43/43/1
f 44/44/1 46/45/1 45/46/1
