# Blender v3.6.3 OBJ File: 'untitled.blend'
# www.blender.org
mtllib Mesh_0347.mtl
o Mesh_0347_Mesh.097
v -19.764612 12.699984 32.988190
v -17.224609 12.699984 32.988190
v -19.764894 12.064983 32.988190
v -14.684609 12.699984 32.988190
v -9.604633 12.064983 32.988190
v -12.144609 12.699984 32.988190
v -9.604610 12.699984 32.988190
v -22.304640 11.429983 37.432945
v -17.224895 11.429984 46.323189
v -22.304640 10.794983 37.433189
v -17.224634 10.794984 46.323189
v -11.509634 12.064984 40.608192
v -11.509634 11.429984 40.608192
v -20.399895 12.064983 35.528191
v -20.399639 11.429983 35.527946
v -24.844633 10.794983 48.228188
v -24.844608 10.159984 48.228188
v -24.844633 10.794983 38.068192
v -24.844608 10.159984 38.068192
vt 2.232422 -0.494141
vt 2.232422 0.007812
vt 1.133789 -0.494141
vt 0.035156 -0.494141
vt -2.160156 0.007812
vt -1.062500 -0.494141
vt -2.160156 -0.494141
vt 2.640625 -0.501953
vt 2.640625 0.000000
vt -1.768555 -0.501953
vt -1.768555 0.000000
vt 2.752930 0.000000
vt -1.656250 0.000000
vt 2.752930 -0.501953
vt -1.656250 -0.501953
vt -1.768555 0.000000
vt 2.640625 0.000000
vt -1.768555 -0.501953
vt 2.640625 -0.501953
vn 0.0000 0.0000 1.0000
vn -0.8683 0.0002 0.4961
vn -0.8683 0.0005 0.4961
vn -0.8682 -0.0004 0.4961
vn -0.8682 -0.0008 0.4961
vn -0.4961 0.0000 0.8682
vn -0.4961 0.0005 0.8682
vn -0.4962 -0.0010 0.8682
vn -0.4962 -0.0005 0.8682
vn -1.0000 -0.0000 0.0000
usemtl Tex_0056_1.dds.002
s off
f 1/1/1 3/2/1 2/3/1
f 2/3/1 3/2/1 4/4/1
f 3/2/1 5/5/1 4/4/1
f 4/4/1 5/5/1 6/6/1
f 5/5/1 7/7/1 6/6/1
f 8/8/2 10/9/2 9/10/3
f 9/10/4 10/9/5 11/11/4
f 12/12/6 14/13/7 13/14/6
f 13/14/8 14/13/9 15/15/9
f 16/16/10 18/17/10 17/18/10
f 17/18/10 18/17/10 19/19/10
