# Blender v3.6.3 OBJ File: 'untitled.blend'
# www.blender.org
mtllib Mesh_0360.mtl
o Mesh_0360_Mesh.104
v -9.604584 21.814775 28.960518
v -9.604584 21.040075 28.447090
v -9.854275 21.040075 28.447090
v -9.604584 20.054352 28.151871
v -9.854275 20.054352 28.151871
v -9.604584 14.763734 28.151871
v -9.854275 14.763734 28.151871
v -30.976910 19.274773 48.228188
v -30.463488 18.500072 48.228188
v -30.463488 18.500072 47.978508
v -30.168262 17.514351 48.228188
v -30.168262 17.514351 47.978508
v -30.168262 12.223733 48.228188
v -30.168264 12.223733 47.978508
v -25.896910 19.274773 48.228188
v -25.383488 18.500072 48.228188
v -25.383488 18.500072 47.978508
v -25.088263 17.514351 48.228188
v -25.088263 17.514351 47.978508
v -25.088263 12.223733 48.228188
v -25.088264 12.223733 47.978508
v -9.604584 22.767324 30.448189
v -9.604584 22.377487 29.639442
v -9.854275 22.377487 29.639442
v -9.604584 21.814775 28.960518
v -9.854275 21.814775 28.960518
v -9.854275 21.040075 28.447090
v -9.854275 22.377487 31.256950
v -9.854275 21.814775 31.935867
v -9.604584 21.814775 31.935867
v -9.854275 21.040073 32.449272
v -9.604584 21.040073 32.449272
v -9.604584 20.054350 32.744499
v -32.464584 20.227322 48.228188
v -31.655832 19.837486 48.228188
v -31.655832 19.837486 47.978508
v -30.976910 19.274773 48.228188
v -30.976910 19.274773 47.978508
v -30.463488 18.500072 47.978508
v -33.273346 19.837486 47.978508
v -33.952263 19.274773 47.978508
v -33.952263 19.274773 48.228188
v -34.465672 18.500072 47.978508
v -34.465672 18.500072 48.228188
v -34.760895 17.514351 48.228188
v -27.384584 20.227322 48.228188
v -26.575832 19.837486 48.228188
v -26.575832 19.837486 47.978508
v -25.896910 19.274773 48.228188
v -25.896910 19.274773 47.978508
v -25.383488 18.500072 47.978508
v -28.193346 19.837486 47.978508
v -28.872263 19.274773 47.978508
v -28.872263 19.274773 48.228188
v -29.385672 18.500072 47.978508
v -29.385672 18.500072 48.228188
v -29.680897 17.514351 48.228188
v -9.854275 14.763734 28.151871
v -9.982714 14.562646 28.018051
v -9.854275 20.054352 28.151871
v -9.982714 22.859985 28.018051
v -9.854275 22.859985 28.151871
v -9.604584 21.814775 31.935867
v -9.604584 22.377487 31.256950
v -9.854275 22.377487 31.256950
v -9.604584 22.767324 30.448189
v -9.854275 22.767324 30.448189
v -9.854275 21.040073 32.449272
v -9.854275 20.054350 32.744499
v -9.604584 20.054350 32.744499
v -9.854275 14.763733 32.744499
v -9.604584 14.763733 32.744499
v -9.854275 22.859983 32.744499
v -9.982714 22.859983 32.878334
v -9.854275 20.054350 32.744499
v -9.982714 14.562645 32.878105
v -9.854275 14.763733 32.744499
v -30.168264 12.223733 47.978508
v -30.034451 12.022644 47.850067
v -30.168262 17.514351 47.978508
v -30.034451 20.319983 47.850067
v -30.168264 20.319983 47.978508
v -33.952263 19.274773 48.228188
v -33.273346 19.837486 48.228188
v -33.273346 19.837486 47.978508
v -32.464584 20.227322 48.228188
v -32.464584 20.227322 47.978508
v -34.465672 18.500072 47.978508
v -34.760895 17.514351 47.978508
v -34.760895 17.514351 48.228188
v -34.760895 12.223733 47.978508
v -34.760895 12.223733 48.228188
v -34.760895 20.319983 47.978508
v -34.894730 20.319983 47.850067
v -34.760895 17.514351 47.978508
v -34.894501 12.022644 47.850067
v -34.760895 12.223733 47.978508
v -25.088264 12.223733 47.978508
v -24.954451 12.022644 47.850067
v -25.088263 17.514351 47.978508
v -24.954451 20.319983 47.850067
v -25.088264 20.319983 47.978508
v -29.814501 12.022644 47.850067
v -29.814730 20.319983 47.850067
v -29.924583 12.022644 47.850067
v -29.924583 20.319983 47.850067
v -30.034451 20.319983 47.850067
v -28.872263 19.274773 48.228188
v -28.193346 19.837486 48.228188
v -28.193346 19.837486 47.978508
v -27.384584 20.227322 48.228188
v -27.384584 20.227322 47.978508
v -29.385672 18.500072 47.978508
v -29.680897 17.514351 47.978508
v -29.680897 17.514351 48.228188
v -29.680897 12.223733 47.978508
v -29.680897 12.223733 48.228188
v -29.680897 20.319983 47.978508
v -29.814730 20.319983 47.850067
v -29.680897 17.514351 47.978508
v -29.814501 12.022644 47.850067
v -29.680897 12.223733 47.978508
v -9.854303 14.763734 27.590691
v -9.604549 14.763734 27.590691
v -9.854303 22.859985 27.590691
v -9.604549 22.859985 27.590691
v -9.982767 14.562654 27.908195
v -9.854303 14.763734 27.590691
v -9.982767 22.859985 27.908195
v -9.854303 22.859985 27.590691
v -9.982767 22.859985 27.908195
v -9.982714 22.859985 28.018051
v -9.982767 14.562654 27.908195
v -9.982714 14.562646 28.018051
v -9.982714 14.562645 32.878105
v -9.982714 22.859983 32.878334
v -9.982805 14.562653 32.988190
v -9.982805 22.859983 32.988190
v -34.894501 12.022644 47.850067
v -34.894730 20.319983 47.850067
v -35.004585 12.022644 47.850067
v -35.004585 20.319983 47.850067
v -24.844620 20.319983 47.849968
v -24.954451 20.319983 47.850067
v -24.844610 12.022653 47.849991
v -24.954451 12.022644 47.850067
v -9.607729 14.763425 33.286469
v -9.857168 14.764355 33.281509
v -9.607729 22.859983 33.286469
v -9.857168 22.859983 33.281509
v -9.982805 14.562653 32.988190
v -9.982805 22.859983 32.988190
v -9.857168 14.764355 33.281509
v -9.857168 22.859983 33.281509
v -10.709829 13.834488 37.569618
v -10.499767 14.076488 37.329010
v -10.709208 22.421251 37.567757
v -10.499767 22.461870 37.329010
v -10.499767 22.461870 37.329010
v -10.499767 14.076488 37.329010
v -10.260712 22.449467 37.402184
v -10.260712 14.064086 37.402184
v -20.399120 12.345277 47.515671
v -20.471252 12.385896 47.276932
v -20.399120 20.855299 47.515671
v -20.471252 20.895916 47.276932
v -20.232235 12.220323 47.067947
v -20.232235 20.931574 47.067947
v -20.471252 12.385896 47.276932
v -20.471252 20.895916 47.276932
v -24.844610 12.022653 47.849991
v -24.601303 12.212881 47.983246
v -24.844620 20.319983 47.849968
v -24.601303 20.399357 47.983246
v -24.601303 20.399357 47.983246
v -24.601303 12.212881 47.983246
v -24.601303 20.399357 48.130829
v -24.601303 12.170712 48.130829
v -16.118725 12.696728 45.448212
v -16.261196 12.731609 45.242943
v -16.118725 21.310154 45.448212
v -16.261196 21.345036 45.242943
v -16.098648 12.576890 44.970093
v -16.098648 21.391390 44.970093
v -16.261196 12.731609 45.242943
v -16.261196 21.345036 45.242943
v -20.232235 12.220323 47.067947
v -19.915779 12.416436 47.097717
v -20.232235 20.931574 47.067947
v -19.915779 20.926456 47.097717
v -19.915779 20.926456 47.097717
v -19.915779 12.416436 47.097717
v -19.834465 20.886305 47.333366
v -19.834465 12.376283 47.333366
v -12.688160 13.255918 42.157242
v -12.887060 13.281653 42.005936
v -12.688160 21.849348 42.157242
v -12.887060 21.875084 42.005936
v -12.816988 13.133135 41.696495
v -12.816988 21.927637 41.696495
v -12.887060 13.281653 42.005936
v -12.887060 21.875084 42.005936
v -16.098648 12.576890 44.970093
v -15.788510 12.789745 44.900642
v -16.098648 21.391390 44.970093
v -15.788510 21.403172 44.900642
v -15.788510 21.403172 44.900642
v -15.788510 12.789745 44.900642
v -15.638133 21.369375 45.099693
v -15.638133 12.755794 45.099693
v -10.444420 13.968278 37.965866
v -10.680374 13.982076 37.884018
v -10.444420 22.353659 37.965866
v -10.680374 22.367456 37.884018
v -10.709829 13.834488 37.569618
v -10.709208 22.421251 37.567757
v -10.680374 13.982076 37.884018
v -10.680374 22.367456 37.884018
v -12.816988 13.133135 41.696495
v -12.543674 13.361803 41.534027
v -12.816988 21.927637 41.696495
v -12.543674 21.955233 41.534027
v -12.543674 21.955233 41.534027
v -12.543674 13.361803 41.534027
v -12.338953 21.930895 41.677277
v -12.338953 13.337463 41.677277
v -9.604584 22.767324 30.448189
v -9.854275 22.377487 29.639442
v -9.854275 22.767324 30.448189
v -30.034451 20.319983 47.850067
v -30.034451 12.022644 47.850067
v -29.924583 12.022644 47.850067
v -32.464584 20.227322 48.228188
v -31.655832 19.837486 47.978508
v -32.464584 20.227322 47.978508
v -27.384584 20.227322 48.228188
v -26.575832 19.837486 47.978508
v -27.384584 20.227322 47.978508
vt -3.995117 1.964844
vt -3.807617 1.643555
vt -3.995117 1.643555
vt -3.995117 1.160156
vt -3.807617 1.160156
vt -3.995117 -1.178711
vt -3.807617 -1.178711
vt -3.995117 1.964844
vt -3.807617 1.643555
vt -3.995117 1.643555
vt -3.995117 1.160156
vt -3.807617 1.160156
vt -3.995117 -1.178711
vt -3.807617 -1.178711
vt -3.995117 1.964844
vt -3.807617 1.643555
vt -3.995117 1.643555
vt -3.995117 1.160156
vt -3.807617 1.160156
vt -3.995117 -1.178711
vt -3.807617 -1.178711
vt -3.995117 2.801758
vt -3.807617 2.360352
vt -3.995117 2.360352
vt -3.995117 1.964844
vt -3.807617 1.964844
vt -3.807617 1.643555
vt -3.807617 2.360352
vt -3.995117 1.964844
vt -3.807617 1.964844
vt -3.807617 1.643555
vt -3.995117 1.643555
vt -3.995117 1.160156
vt -3.995117 2.801758
vt -3.807617 2.360352
vt -3.995117 2.360352
vt -3.995117 1.964844
vt -3.807617 1.964844
vt -3.807617 1.643555
vt -3.807617 2.360352
vt -3.995117 1.964844
vt -3.807617 1.964844
vt -3.807617 1.643555
vt -3.995117 1.643555
vt -3.995117 1.160156
vt -3.995117 2.801758
vt -3.807617 2.360352
vt -3.995117 2.360352
vt -3.995117 1.964844
vt -3.807617 1.964844
vt -3.807617 1.643555
vt -3.807617 2.360352
vt -3.995117 1.964844
vt -3.807617 1.964844
vt -3.807617 1.643555
vt -3.995117 1.643555
vt -3.995117 1.160156
vt -3.807617 -1.178711
vt -3.807617 1.167969
vt -3.361328 -1.266602
vt -3.357422 2.427734
vt -3.807617 2.430664
vt -3.995117 1.964844
vt -3.807617 2.360352
vt -3.995117 2.360352
vt -3.995117 2.801758
vt -3.807617 2.801758
vt -3.807617 1.643555
vt -3.995117 1.160156
vt -3.807617 1.160156
vt -3.807617 -1.178711
vt -3.995117 -1.178711
vt -3.807617 2.430664
vt -3.807617 1.167969
vt -3.357422 2.427734
vt -3.361328 -1.266602
vt -3.807617 -1.178711
vt -3.807617 -1.178711
vt -3.807617 1.167969
vt -3.361328 -1.266602
vt -3.357422 2.427734
vt -3.807617 2.430664
vt -3.995117 1.964844
vt -3.807617 2.360352
vt -3.995117 2.360352
vt -3.995117 2.801758
vt -3.807617 2.801758
vt -3.807617 1.643555
vt -3.995117 1.160156
vt -3.807617 1.160156
vt -3.807617 -1.178711
vt -3.995117 -1.178711
vt -3.807617 2.430664
vt -3.807617 1.167969
vt -3.357422 2.427734
vt -3.361328 -1.266602
vt -3.807617 -1.178711
vt -3.807617 -1.178711
vt -3.807617 1.167969
vt -3.361328 -1.266602
vt -3.357422 2.427734
vt -3.807617 2.430664
vt -3.361328 -1.266602
vt -2.995117 -1.263672
vt -3.357422 2.427734
vt -2.995117 2.427734
vt -3.357422 2.427734
vt -3.995117 1.964844
vt -3.807617 2.360352
vt -3.995117 2.360352
vt -3.995117 2.801758
vt -3.807617 2.801758
vt -3.807617 1.643555
vt -3.995117 1.160156
vt -3.807617 1.160156
vt -3.807617 -1.178711
vt -3.995117 -1.178711
vt -3.807617 2.430664
vt -3.807617 1.167969
vt -3.357422 2.427734
vt -3.361328 -1.266602
vt -3.807617 -1.178711
vt 4.235352 -3.171875
vt 4.235352 0.434570
vt 4.000000 -3.171875
vt 4.000000 0.434570
vt 4.992188 -3.258789
vt 4.992188 0.434570
vt 4.235352 -3.171875
vt 4.235352 0.434570
vt -2.995117 2.427734
vt -2.995117 -1.263672
vt -3.357422 2.427734
vt -3.361328 -1.266602
vt -3.361328 -1.266602
vt -2.995117 -1.263672
vt -3.357422 2.427734
vt -2.995117 2.427734
vt -3.361328 -1.266602
vt -2.995117 -1.263672
vt -3.357422 2.427734
vt -2.995117 2.427734
vt -2.995117 2.427734
vt -2.995117 -1.263672
vt -3.357422 2.427734
vt -3.361328 -1.266602
vt 4.000000 -3.171875
vt 4.000000 0.434570
vt 4.235352 -3.171875
vt 4.235352 0.434570
vt 4.992188 -3.258789
vt 4.235352 -3.171875
vt 4.992188 0.434570
vt 4.235352 0.434570
vt 4.992188 -3.258789
vt 4.992188 0.434570
vt 4.235352 -3.171875
vt 4.235352 0.434570
vt 4.235352 0.434570
vt 4.000000 0.434570
vt 4.235352 -3.171875
vt 4.000000 -3.171875
vt 4.000000 -3.171875
vt 4.000000 0.434570
vt 4.235352 -3.171875
vt 4.235352 0.434570
vt 4.992188 -3.258789
vt 4.235352 -3.171875
vt 4.992188 0.434570
vt 4.235352 0.434570
vt 4.992188 -3.258789
vt 4.992188 0.434570
vt 4.235352 -3.171875
vt 4.235352 0.434570
vt 4.235352 0.434570
vt 4.000000 0.434570
vt 4.235352 -3.171875
vt 4.000000 -3.171875
vt 4.000000 -3.171875
vt 4.000000 0.434570
vt 4.235352 -3.171875
vt 4.235352 0.434570
vt 4.992188 -3.258789
vt 4.235352 -3.171875
vt 4.992188 0.434570
vt 4.235352 0.434570
vt 4.992188 -3.258789
vt 4.992188 0.434570
vt 4.235352 -3.171875
vt 4.235352 0.434570
vt 4.235352 0.434570
vt 4.000000 0.434570
vt 4.235352 -3.171875
vt 4.000000 -3.171875
vt 4.000000 -3.171875
vt 4.000000 0.434570
vt 4.235352 -3.171875
vt 4.235352 0.434570
vt 4.992188 -3.258789
vt 4.235352 -3.171875
vt 4.992188 0.434570
vt 4.235352 0.434570
vt 4.992188 -3.258789
vt 4.992188 0.434570
vt 4.235352 -3.171875
vt 4.235352 0.434570
vt 4.235352 0.434570
vt 4.000000 0.434570
vt 4.235352 -3.171875
vt 4.000000 -3.171875
vt 4.000000 -3.171875
vt 4.000000 0.434570
vt 4.235352 -3.171875
vt 4.235352 0.434570
vt 4.992188 -3.258789
vt 4.235352 -3.171875
vt 4.992188 0.434570
vt 4.235352 0.434570
vt 4.992188 -3.258789
vt 4.992188 0.434570
vt 4.235352 -3.171875
vt 4.235352 0.434570
vt 4.235352 0.434570
vt 4.000000 0.434570
vt 4.235352 -3.171875
vt 4.000000 -3.171875
vt -3.995117 2.801758
vt -3.807617 2.801758
vt -3.807617 2.360352
vt -3.357422 2.427734
vt -2.995117 -1.263672
vt -3.361328 -1.266602
vt -3.995117 2.801758
vt -3.807617 2.801758
vt -3.807617 2.360352
vt -3.995117 2.801758
vt -3.807617 2.801758
vt -3.807617 2.360352
vn 0.0000 -0.5524 0.8336
vn 0.0434 -0.5616 0.8263
vn 0.0000 -0.2869 0.9580
vn 0.0582 -0.5078 0.8595
vn 0.0083 -0.2869 0.9579
vn 0.0000 0.0000 1.0000
vn 0.0131 -0.2786 0.9603
vn -0.8336 -0.5524 0.0000
vn -0.8032 -0.5784 0.1429
vn -0.8245 -0.5465 -0.1466
vn -0.9476 -0.2838 -0.1466
vn -0.9576 -0.2510 0.1412
vn -0.9973 -0.0447 -0.0590
vn -0.9580 -0.2869 0.0000
vn -0.9478 -0.2839 0.1450
vn -0.9993 0.0000 -0.0380
vn -0.9894 0.0068 0.1448
vn -1.0000 0.0000 0.0000
vn -0.9894 -0.1448 0.0068
vn -0.7999 -0.5799 0.1545
vn -0.8246 -0.5465 -0.1466
vn -0.9584 -0.2542 0.1295
vn -0.9883 -0.1489 -0.0342
vn -0.9123 -0.4084 0.0314
vn -0.9380 -0.3166 -0.1409
vn -0.9894 0.0000 -0.1450
vn 0.0000 -0.9008 0.4342
vn 0.1277 -0.9083 0.3984
vn -0.1212 -0.8942 0.4310
vn -0.1212 -0.7643 0.6334
vn 0.1055 -0.7462 0.6573
vn -0.0362 -0.6815 0.7309
vn 0.0299 -0.8326 0.5530
vn 0.1462 -0.7617 0.6313
vn -0.1278 -0.7862 0.6046
vn -0.1541 -0.5109 0.8458
vn 0.1462 -0.5465 0.8246
vn 0.0000 -0.7699 -0.6381
vn -0.1542 -0.7878 -0.5963
vn 0.1462 -0.7616 -0.6313
vn 0.1462 -0.5465 -0.8246
vn -0.1276 -0.5190 -0.8452
vn 0.0349 -0.4390 -0.8978
vn -0.0343 -0.6539 -0.7558
vn -0.1466 -0.5464 -0.8246
vn 0.1300 -0.5765 -0.8067
vn 0.1542 -0.2474 -0.9566
vn -0.1466 -0.2838 -0.9476
vn 0.0000 -0.2869 -0.9580
vn -0.4342 -0.9008 0.0000
vn -0.3984 -0.9083 0.1278
vn -0.4310 -0.8942 -0.1212
vn -0.6334 -0.7643 -0.1211
vn -0.6573 -0.7462 0.1056
vn -0.7309 -0.6815 -0.0362
vn -0.5530 -0.8327 0.0299
vn -0.6313 -0.7617 0.1462
vn -0.6046 -0.7862 -0.1278
vn -0.8458 -0.5108 -0.1541
vn -0.8246 -0.5465 0.1462
vn 0.6381 -0.7699 0.0000
vn 0.5963 -0.7878 -0.1542
vn 0.6313 -0.7616 0.1462
vn 0.8246 -0.5465 0.1462
vn 0.8452 -0.5190 -0.1276
vn 0.8978 -0.4391 0.0349
vn 0.7558 -0.6539 -0.0343
vn 0.8246 -0.5464 -0.1466
vn 0.8067 -0.5765 0.1300
vn 0.9566 -0.2474 0.1542
vn 0.9476 -0.2838 -0.1466
vn 0.9580 -0.2869 0.0000
vn -0.3984 -0.9083 0.1277
vn -0.4310 -0.8942 -0.1211
vn -0.6334 -0.7642 -0.1212
vn -0.5530 -0.8326 0.0299
vn -0.6313 -0.7616 0.1462
vn -0.6046 -0.7862 -0.1279
vn 0.8978 -0.4390 0.0349
vn 0.8246 -0.5465 -0.1466
vn -0.7215 0.0000 0.6924
vn -0.7215 0.0000 0.6925
vn 0.1278 -0.7400 -0.6604
vn -0.1212 -0.7642 -0.6334
vn -0.1212 -0.8942 -0.4310
vn 0.1055 -0.9081 -0.4052
vn 0.0000 -0.9008 -0.4342
vn 0.0293 -0.8496 -0.5266
vn -0.1524 -0.3188 -0.9355
vn 0.1450 -0.2839 -0.9478
vn 0.1450 0.0000 -0.9894
vn -0.1330 0.0063 -0.9911
vn 0.0000 0.0000 -1.0000
vn -0.0063 -0.1330 -0.9911
vn -0.7215 0.0000 -0.6924
vn -0.7213 0.0000 -0.6926
vn -0.7216 0.0000 -0.6923
vn -0.7205 -0.0000 -0.6934
vn -0.7209 0.0000 -0.6930
vn -0.6925 0.0000 -0.7215
vn -0.6925 0.0000 -0.7214
vn 0.6603 -0.7400 0.1278
vn 0.6334 -0.7642 -0.1212
vn 0.4310 -0.8942 -0.1211
vn 0.4052 -0.9081 0.1055
vn 0.4342 -0.9008 0.0000
vn 0.5266 -0.8496 0.0293
vn 0.9355 -0.3188 -0.1524
vn 0.9478 -0.2839 0.1450
vn 0.9894 0.0000 0.1450
vn 0.9911 0.0063 -0.1330
vn 1.0000 0.0000 0.0000
vn 0.9911 -0.1330 -0.0063
vn 0.6924 0.0000 -0.7215
vn 0.6929 0.0000 -0.7211
vn 0.6926 0.0000 -0.7213
vn 0.6923 0.0000 -0.7216
vn 0.6934 -0.0000 -0.7206
vn 0.6930 0.0000 -0.7209
vn 0.4310 -0.8942 -0.1212
vn 0.6922 -0.0000 -0.7217
vn -0.9270 0.0000 -0.3751
vn -1.0000 0.0000 0.0005
vn -1.0000 0.0000 -0.0008
vn -0.0009 -0.0000 -1.0000
vn -0.0004 0.0000 -1.0000
vn -0.0007 0.0000 -1.0000
vn -0.0199 0.0000 0.9998
vn -0.9192 0.0000 0.3937
vn -0.7533 -0.0001 -0.6577
vn -0.7548 -0.0001 -0.6560
vn -0.7502 0.0000 -0.6612
vn -0.7517 0.0000 -0.6595
vn 0.2927 0.0000 -0.9562
vn -0.9573 0.0000 0.2892
vn -0.6582 0.0000 -0.7528
vn 0.4804 -0.0000 -0.8771
vn 0.4804 0.0000 -0.8770
vn -0.8215 0.0000 0.5702
vn -0.8591 0.0000 -0.5118
vn 0.0937 0.0000 -0.9956
vn 0.0936 0.0000 -0.9956
vn 0.9453 0.0000 -0.3262
vn -0.6054 0.0000 0.7959
vn -0.9753 0.0000 -0.2209
vn -0.2185 0.0000 -0.9758
vn 0.7979 0.0000 -0.6028
vn -0.3277 0.0000 0.9448
vn -0.9956 0.0001 0.0932
vn -0.9954 0.0001 0.0956
vn -0.9959 0.0000 0.0908
vn -0.9961 -0.0000 0.0885
vn -0.5110 0.0000 -0.8596
vn 0.5733 0.0000 -0.8193
usemtl Tex_0030_0.dds.013
s off
f 1/1/1 3/2/2 2/3/1
f 2/3/3 3/2/3 4/4/3
f 3/2/4 5/5/5 4/4/3
f 4/4/6 5/5/6 6/6/6
f 5/5/7 7/7/6 6/6/6
f 8/8/8 10/9/9 9/10/10
f 9/10/11 10/9/12 11/11/13
f 10/9/14 12/12/15 11/11/14
f 11/11/16 12/12/17 13/13/18
f 12/12/19 14/14/18 13/13/18
f 15/15/8 17/16/20 16/17/21
f 16/17/11 17/16/22 18/18/23
f 17/16/24 19/19/15 18/18/25
f 18/18/26 19/19/17 20/20/18
f 19/19/19 21/21/18 20/20/18
f 22/22/27 24/23/28 23/24/29
f 23/24/30 24/23/31 25/25/32
f 24/23/33 26/26/34 25/25/35
f 25/25/36 26/26/37 27/27/1
f 28/28/38 30/29/39 29/30/40
f 29/30/41 30/29/42 31/31/43
f 30/29/44 32/32/45 31/31/46
f 31/31/47 32/32/48 33/33/49
f 34/34/50 36/35/51 35/36/52
f 35/36/53 36/35/54 37/37/55
f 36/35/56 38/38/57 37/37/58
f 37/37/59 38/38/60 39/39/8
f 40/40/61 42/41/62 41/42/63
f 41/42/64 42/41/65 43/43/66
f 42/41/67 44/44/68 43/43/69
f 43/43/70 44/44/71 45/45/72
f 46/46/50 48/47/73 47/48/74
f 47/48/75 48/47/54 49/49/55
f 48/47/76 50/50/77 49/49/78
f 49/49/59 50/50/60 51/51/8
f 52/52/61 54/53/62 53/54/63
f 53/54/64 54/53/65 55/55/79
f 54/53/67 56/56/80 55/55/69
f 55/55/70 56/56/71 57/57/72
f 58/58/81 60/59/81 59/60/81
f 59/60/82 60/59/82 61/61/82
f 60/59/82 62/62/82 61/61/82
f 63/63/38 65/64/83 64/65/84
f 64/65/85 65/64/86 66/66/87
f 65/64/88 67/67/87 66/66/87
f 68/68/49 70/69/89 69/70/90
f 69/70/91 70/69/92 71/71/93
f 70/69/94 72/72/93 71/71/93
f 73/73/95 75/74/95 74/75/95
f 74/75/96 75/74/96 76/76/97
f 75/74/98 77/77/99 76/76/99
f 78/78/100 80/79/100 79/80/100
f 79/80/101 80/79/101 81/81/101
f 80/79/101 82/82/101 81/81/101
f 83/83/61 85/84/102 84/85/103
f 84/85/104 85/84/105 86/86/106
f 85/84/107 87/87/106 86/86/106
f 88/88/72 90/89/108 89/90/109
f 89/90/110 90/89/111 91/91/112
f 90/89/113 92/92/112 91/91/112
f 93/93/114 95/94/114 94/95/114
f 94/95/115 95/94/116 96/96/117
f 95/94/118 97/97/119 96/96/119
f 98/98/100 100/99/100 99/100/100
f 99/100/101 100/99/101 101/101/101
f 100/99/101 102/102/101 101/101/101
f 103/103/93 105/104/93 104/105/93
f 104/105/93 105/104/93 106/106/93
f 105/104/93 107/107/93 106/106/93
f 108/108/61 110/109/102 109/110/103
f 109/110/120 110/109/105 111/111/106
f 110/109/107 112/112/106 111/111/106
f 113/113/72 115/114/108 114/115/109
f 114/115/110 115/114/111 116/116/112
f 115/114/113 117/117/112 116/116/112
f 118/118/114 120/119/121 119/120/114
f 119/120/116 120/119/116 121/121/117
f 120/119/118 122/122/119 121/121/119
f 123/123/93 125/124/93 124/125/93
f 124/125/93 125/124/93 126/126/93
f 127/127/122 129/128/122 128/129/122
f 128/129/122 129/128/122 130/130/122
f 131/131/123 133/132/123 132/133/123
f 132/133/123 133/132/123 134/134/123
f 135/135/124 137/136/124 136/137/124
f 136/137/124 137/136/124 138/138/124
f 139/139/93 141/140/93 140/141/93
f 140/141/93 141/140/93 142/142/93
f 143/143/125 145/144/125 144/145/125
f 144/145/126 145/144/127 146/146/127
f 147/147/128 149/148/128 148/149/128
f 148/149/128 149/148/128 150/150/128
f 151/151/129 153/152/129 152/153/129
f 152/153/129 153/152/129 154/154/129
f 155/155/130 157/156/131 156/157/130
f 156/157/132 157/156/133 158/158/133
f 159/159/134 161/160/134 160/161/134
f 160/161/134 161/160/134 162/162/134
f 163/163/135 165/164/135 164/165/135
f 164/165/135 165/164/135 166/166/135
f 167/167/136 169/168/136 168/169/136
f 168/169/136 169/168/136 170/170/136
f 171/171/137 173/172/137 172/173/137
f 172/173/138 173/172/138 174/174/138
f 175/175/112 177/176/112 176/177/112
f 176/177/112 177/176/112 178/178/112
f 179/179/139 181/180/139 180/181/139
f 180/181/139 181/180/139 182/182/139
f 183/183/140 185/184/140 184/185/140
f 184/185/140 185/184/140 186/186/140
f 187/187/141 189/188/141 188/189/141
f 188/189/142 189/188/142 190/190/142
f 191/191/143 193/192/143 192/193/143
f 192/193/143 193/192/143 194/194/143
f 195/195/144 197/196/144 196/197/144
f 196/197/144 197/196/144 198/198/144
f 199/199/145 201/200/145 200/201/145
f 200/201/145 201/200/145 202/202/145
f 203/203/146 205/204/146 204/205/146
f 204/205/146 205/204/146 206/206/146
f 207/207/147 209/208/147 208/209/147
f 208/209/147 209/208/147 210/210/147
f 211/211/148 213/212/148 212/213/148
f 212/213/148 213/212/148 214/214/148
f 215/215/149 217/216/149 216/217/150
f 216/217/151 217/216/152 218/218/151
f 219/219/153 221/220/153 220/221/153
f 220/221/153 221/220/153 222/222/153
f 223/223/154 225/224/154 224/225/154
f 224/225/154 225/224/154 226/226/154
f 227/227/27 229/228/27 228/229/27
f 230/230/93 232/231/93 231/232/93
f 233/233/50 235/234/50 234/235/50
f 236/236/50 238/237/50 237/238/50
