# Blender v3.6.3 OBJ File: 'untitled.blend'
# www.blender.org
mtllib Mesh_0373.mtl
o Mesh_0373_Mesh.107
v -50.244469 15.239984 38.068192
v -45.164471 17.779984 38.068192
v -50.244469 14.986355 38.578987
v -45.164471 17.525890 38.578987
v -45.164471 17.271952 38.324989
v -45.164471 15.748013 38.324989
v -45.164471 15.493921 38.703194
v -50.244469 12.954463 38.703194
v -45.164471 15.240913 38.453255
v -50.244469 12.701301 38.453255
v -55.324471 12.699984 38.068192
v -50.244469 15.239984 38.068192
v -55.324471 12.445968 38.578987
v -50.244469 14.986355 38.578987
v -50.244469 14.732418 38.324989
v -50.244469 13.208479 38.324989
v -50.244469 12.954463 38.703194
v -55.324471 10.414000 38.703194
v -50.244469 12.701301 38.453255
v -55.324471 10.161766 38.453255
v -40.084473 20.319983 38.068192
v -35.004471 22.859983 38.068192
v -40.084473 20.065580 38.578987
v -35.004471 22.605890 38.578987
v -35.004471 22.351952 38.324989
v -35.004471 20.828014 38.325241
v -35.004471 20.573921 38.703194
v -40.084473 18.033455 38.703194
v -35.004471 20.319983 38.453255
v -40.084473 17.780447 38.453255
v -45.164471 17.779984 38.068192
v -40.084473 20.319983 38.068192
v -45.164471 17.525890 38.578987
v -40.084473 20.065580 38.578987
v -40.084473 19.811487 38.324989
v -40.084473 18.287548 38.324989
v -40.084473 18.033455 38.703194
v -45.164471 15.493921 38.703194
v -40.084473 17.780447 38.453255
v -45.164471 15.240913 38.453255
v -50.244469 12.701301 38.453255
v -45.164471 15.240913 38.453255
v -50.244469 12.701301 38.068192
v -45.164471 15.240913 38.068192
v -55.324471 10.161766 38.453255
v -50.244469 12.701301 38.453255
v -55.324471 10.161766 38.068192
v -50.244469 12.701301 38.068192
v -40.084473 17.780447 38.453255
v -35.004471 20.319983 38.453255
v -40.084473 17.780447 38.068192
v -35.004471 20.319983 38.068192
v -45.164471 15.240913 38.453255
v -40.084473 17.780447 38.453255
v -45.164471 15.240913 38.068192
v -40.084473 17.780447 38.068192
v -45.164471 17.271952 38.324989
v -50.244469 14.732418 38.324989
v -50.244469 14.986355 38.578987
v -50.244469 12.954463 38.703194
v -50.244469 13.208479 38.324989
v -45.164471 15.748013 38.324989
v -50.244469 14.732418 38.324989
v -55.324471 12.191953 38.324989
v -55.324471 12.445968 38.578987
v -55.324471 10.414000 38.703194
v -55.324471 10.668015 38.324989
v -50.244469 13.208479 38.324989
v -35.004471 22.351952 38.324989
v -40.084473 19.811487 38.324989
v -40.084473 20.065580 38.578987
v -40.084473 18.033455 38.703194
v -40.084473 18.287548 38.324989
v -35.004471 20.828014 38.325241
v -40.084473 19.811487 38.324989
v -45.164471 17.271952 38.324989
v -45.164471 17.525890 38.578987
v -45.164471 15.493921 38.703194
v -45.164471 15.748013 38.324989
v -40.084473 18.287548 38.324989
vt -2.914062 0.032227
vt -2.915039 -0.081055
vt -0.915039 0.032227
vt -0.916992 -0.081055
vt -0.916992 -0.177734
vt -0.998047 -0.945312
vt -2.996094 -1.071289
vt -0.998047 -1.071289
vt -0.998047 -1.184570
vt -2.996094 -1.184570
vt -2.914062 0.032227
vt -2.915039 -0.081055
vt -0.915039 0.032227
vt -0.916992 -0.081055
vt -0.916992 -0.177734
vt -0.998047 -0.945312
vt -2.996094 -1.071289
vt -0.998047 -1.071289
vt -0.998047 -1.184570
vt -2.996094 -1.184570
vt -2.914062 0.032227
vt -2.915039 -0.081055
vt -0.915039 0.032227
vt -0.916992 -0.081055
vt -0.916992 -0.177734
vt -0.998047 -0.945312
vt -2.996094 -1.071289
vt -0.998047 -1.071289
vt -0.998047 -1.184570
vt -2.996094 -1.184570
vt -2.914062 0.032227
vt -2.915039 -0.081055
vt -0.915039 0.032227
vt -0.916992 -0.081055
vt -0.916992 -0.177734
vt -0.998047 -0.945312
vt -2.996094 -1.071289
vt -0.998047 -1.071289
vt -0.998047 -1.184570
vt -2.996094 -1.184570
vt 2.030273 -1.087891
vt 2.030273 -1.137695
vt 3.029297 -1.085938
vt 3.029297 -1.135742
vt 2.030273 -1.087891
vt 2.030273 -1.137695
vt 3.029297 -1.085938
vt 3.029297 -1.135742
vt 2.030273 -1.087891
vt 2.030273 -1.137695
vt 3.029297 -1.085938
vt 3.029297 -1.135742
vt 2.030273 -1.087891
vt 2.030273 -1.137695
vt 3.029297 -1.085938
vt 3.029297 -1.135742
vt -0.916992 -0.177734
vt -2.915039 -0.081055
vt -2.915039 -0.177734
vt -2.996094 -1.071289
vt -0.998047 -0.945312
vt -2.996094 -0.945312
vt -0.916992 -0.177734
vt -2.915039 -0.081055
vt -2.915039 -0.177734
vt -2.996094 -1.071289
vt -0.998047 -0.945312
vt -2.996094 -0.945312
vt -0.916992 -0.177734
vt -2.915039 -0.081055
vt -2.915039 -0.177734
vt -2.996094 -1.071289
vt -0.998047 -0.945312
vt -2.996094 -0.945312
vt -0.916992 -0.177734
vt -2.915039 -0.081055
vt -2.915039 -0.177734
vt -2.996094 -1.071289
vt -0.998047 -0.945312
vt -2.996094 -0.945312
vn -0.4087 0.8174 0.4059
vn -0.4488 0.7985 0.4012
vn -0.4085 0.8172 0.4065
vn 0.3095 0.8514 0.4235
vn 0.1023 -0.3319 -0.9377
vn 0.3333 -0.6668 0.6666
vn 0.9996 0.0190 -0.0190
vn -0.3833 0.7667 0.5151
vn -0.1914 0.2185 -0.9569
vn 0.2874 0.7951 0.5341
vn 0.9986 -0.0373 0.0377
vn 0.3408 -0.6871 0.6417
vn 0.3315 -0.6631 0.6712
vn 0.2946 -0.6697 0.6817
vn 0.3314 -0.6629 0.6714
vn -0.4086 0.8172 0.4064
vn -0.4487 0.7983 0.4018
vn -0.4088 0.8174 0.4059
vn 0.3094 0.8517 0.4229
vn 0.1027 -0.3323 -0.9376
vn 0.3334 -0.6667 0.6666
vn 0.9996 0.0194 -0.0195
vn -0.3834 0.7667 0.5149
vn -0.1906 0.2166 -0.9575
vn 0.2871 0.7952 0.5340
vn 0.9986 -0.0372 0.0377
vn 0.3403 -0.6857 0.6435
vn 0.3315 -0.6628 0.6714
vn 0.2951 -0.6708 0.6804
vn 0.3319 -0.6640 0.6701
vn 0.3324 -0.6650 0.6687
vn -0.4085 0.8170 0.4069
vn -0.4458 0.7995 0.4026
vn -0.4084 0.8169 0.4072
vn -0.4086 0.8172 0.4065
vn -0.4194 0.8298 0.3680
vn 0.3093 0.8514 0.4236
vn 0.1017 -0.3301 -0.9385
vn 0.9996 0.0191 -0.0192
vn -0.3833 0.7665 0.5153
vn -0.1916 0.2186 -0.9568
vn 0.2864 0.7951 0.5346
vn 0.9985 -0.0383 0.0389
vn 0.3398 -0.6848 0.6447
vn 0.3310 -0.6619 0.6725
vn 0.2946 -0.6699 0.6815
vn 0.3315 -0.6630 0.6712
vn 0.3320 -0.6641 0.6699
vn -0.4459 0.7996 0.4022
vn -0.4191 0.8294 0.3693
vn 0.3093 0.8513 0.4239
vn 0.1016 -0.3303 -0.9384
vn 0.3332 -0.6666 0.6668
vn 0.9997 0.0186 -0.0187
vn -0.1913 0.2183 -0.9570
vn 0.3408 -0.6869 0.6419
vn 0.2947 -0.6699 0.6815
vn 0.4472 -0.8945 0.0000
vn 0.4471 -0.8945 0.0000
vn 0.3333 -0.6667 0.6666
vn -0.3833 0.7667 0.5150
vn 0.3334 -0.6666 0.6667
vn 0.3333 -0.6665 0.6668
vn -0.3834 0.7666 0.5151
usemtl Tex_0052_0.dds.010
s off
f 1/1/1 3/2/2 2/3/1
f 2/3/3 3/2/3 4/4/4
f 3/2/5 5/5/6 4/4/7
f 6/6/8 8/7/9 7/8/10
f 7/8/11 8/7/12 9/9/13
f 8/7/14 10/10/15 9/9/15
f 11/11/16 13/12/17 12/13/16
f 12/13/18 13/12/18 14/14/19
f 13/12/20 15/15/21 14/14/22
f 16/16/23 18/17/24 17/18/25
f 17/18/26 18/17/27 19/19/28
f 18/17/29 20/20/30 19/19/31
f 21/21/32 23/22/33 22/23/34
f 22/23/35 23/22/36 24/24/37
f 23/22/38 25/25/21 24/24/39
f 26/26/40 28/27/41 27/28/42
f 27/28/43 28/27/44 29/29/45
f 28/27/46 30/30/47 29/29/48
f 31/31/35 33/32/49 32/33/35
f 32/33/32 33/32/50 34/34/51
f 33/32/52 35/35/53 34/34/54
f 36/36/8 38/37/55 37/38/10
f 37/38/11 38/37/56 39/39/47
f 38/37/57 40/40/13 39/39/13
f 41/41/58 43/42/58 42/43/58
f 42/43/58 43/42/58 44/44/58
f 45/45/59 47/46/59 46/47/59
f 46/47/59 47/46/59 48/48/59
f 49/49/59 51/50/59 50/51/59
f 50/51/58 51/50/58 52/52/58
f 53/53/58 55/54/58 54/55/58
f 54/55/59 55/54/59 56/56/59
f 57/57/60 59/58/60 58/59/60
f 60/60/61 62/61/61 61/62/61
f 63/63/62 65/64/62 64/65/62
f 66/66/23 68/67/23 67/68/23
f 69/69/63 71/70/63 70/71/63
f 72/72/64 74/73/64 73/74/64
f 75/75/60 77/76/60 76/77/60
f 78/78/8 80/79/8 79/80/8
