# Blender v3.6.3 OBJ File: 'untitled.blend'
# www.blender.org
mtllib Mesh_0166.mtl
o Mesh_0166_Mesh.139
v -13.414839 12.699993 -27.971806
v -12.144838 12.699993 -27.971806
v -13.414585 12.699993 -26.701805
v -12.144585 12.699992 -25.431805
v -14.684585 12.699993 -26.701805
v -14.684585 12.699992 -25.431805
v -17.224585 12.699992 -25.431805
v -14.684585 12.699993 -26.701805
v -17.224585 12.699992 -25.431805
v -15.954585 12.699993 -26.701805
v -17.224585 12.699993 -27.971806
v -15.954585 12.699993 -27.971806
v -15.954585 12.699993 -27.971806
v -13.414839 12.699993 -27.971806
v -14.684585 12.699993 -26.701805
vt 0.998047 0.000000
vt 0.998047 -0.499023
vt 1.498047 0.000000
vt 1.499023 -0.999023
vt 0.499023 -0.499023
vt 0.499023 -0.999023
vt -0.499023 -0.999023
vt 0.499023 -0.499023
vt 0.000000 -0.499023
vt -0.499023 -0.999023
vt -0.499023 0.000000
vt 0.000000 0.000000
vt 0.000000 0.000000
vt 0.000000 -0.999023
vt 0.999023 -0.999023
vn 0.0000 1.0000 0.0000
usemtl Tex_0057_1.dds
s off
f 1/1/1 3/2/1 2/3/1
f 2/3/1 3/2/1 4/4/1
f 3/2/1 5/5/1 4/4/1
f 4/4/1 5/5/1 6/6/1
f 5/5/1 7/7/1 6/6/1
f 8/8/1 10/9/1 9/10/1
f 9/10/1 10/9/1 11/11/1
f 10/9/1 12/12/1 11/11/1
f 13/13/1 15/14/1 14/15/1
