# Blender v3.6.3 OBJ File: 'untitled.blend'
# www.blender.org
mtllib Mesh_0322.mtl
o Mesh_0322_Mesh.203
v -12.144585 12.699993 -43.211803
v -13.414585 12.699993 -43.211803
v -12.144585 12.699994 -44.481804
v -13.414585 12.699994 -45.751804
v -12.144585 12.699994 -47.021805
v -13.414585 12.699994 -47.021805
v -13.414585 12.699994 -48.291801
v -14.684585 12.699994 -47.021805
v -15.954585 12.699994 -48.291801
v -15.954585 12.699994 -47.021805
v -17.224585 12.699994 -47.021805
v -15.954585 12.699994 -45.751804
v -17.224585 12.699994 -44.481804
v -15.954585 12.699993 -43.211803
v -17.224585 12.699993 -43.211803
v -12.144585 12.699994 -38.131805
v -13.414585 12.699994 -38.131805
v -12.144585 12.699994 -39.401802
v -13.414585 12.699994 -40.671806
v -12.144585 12.699994 -41.941803
v -13.414585 12.699993 -43.211803
v -12.144585 12.699993 -43.211803
v -17.224585 12.699993 -43.211803
v -15.954585 12.699993 -43.211803
v -17.224585 12.699994 -41.941803
v -15.954585 12.699994 -40.671806
v -17.224585 12.699994 -39.401802
v -15.954585 12.699994 -38.131805
v -17.224585 12.699994 -38.131805
v -12.144585 12.699994 -33.051804
v -13.414585 12.699994 -33.051804
v -12.144585 12.699994 -34.321804
v -13.414585 12.699994 -35.591805
v -12.144585 12.699993 -36.861805
v -13.414585 12.699994 -38.131805
v -12.144585 12.699994 -38.131805
v -17.224585 12.699994 -38.131805
v -15.954585 12.699994 -38.131805
v -17.224585 12.699993 -36.861805
v -15.954585 12.699994 -35.591805
v -17.224585 12.699994 -34.321804
v -15.954585 12.699994 -33.051804
v -17.224585 12.699994 -33.051804
v -12.144838 12.699994 -27.971806
v -13.414839 12.699994 -27.971806
v -12.144585 12.699994 -29.241806
v -13.414585 12.699993 -30.511803
v -12.144585 12.699994 -31.781803
v -13.414585 12.699994 -33.051804
v -12.144585 12.699994 -33.051804
v -17.224585 12.699994 -33.051804
v -15.954585 12.699994 -33.051804
v -17.224585 12.699994 -31.781803
v -15.954585 12.699993 -30.511803
v -17.224585 12.699994 -29.241806
v -15.954585 12.699994 -27.971806
v -17.224585 12.699994 -27.971806
v -14.684585 12.699994 -44.481804
v -15.954585 12.699994 -45.751804
v -13.414585 12.699994 -45.751804
v -14.684585 12.699994 -47.021805
v -14.684585 12.699994 -44.481804
v -13.414585 12.699993 -43.211803
v -15.954585 12.699993 -43.211803
v -14.684585 12.699994 -41.941803
v -14.684585 12.699994 -39.401802
v -15.954585 12.699994 -40.671806
v -13.414585 12.699994 -40.671806
v -14.684585 12.699994 -41.941803
v -14.684585 12.699994 -39.401802
v -13.414585 12.699994 -38.131805
v -15.954585 12.699994 -38.131805
v -14.684585 12.699993 -36.861805
v -14.684585 12.699994 -34.321804
v -15.954585 12.699994 -35.591805
v -13.414585 12.699994 -35.591805
v -14.684585 12.699993 -36.861805
v -14.684585 12.699994 -34.321804
v -13.414585 12.699994 -33.051804
v -15.954585 12.699994 -33.051804
v -14.684585 12.699994 -31.781803
v -14.684585 12.699994 -29.241806
v -15.954585 12.699993 -30.511803
v -13.414585 12.699993 -30.511803
v -14.684585 12.699994 -31.781803
v -12.144590 12.699994 -48.291801
v -12.144585 12.699994 -47.021805
v -13.414585 12.699994 -48.291801
v -15.954585 12.699994 -48.291801
v -13.414585 12.699994 -48.291801
v -14.684585 12.699994 -47.021805
v -14.684585 12.699994 -47.021805
v -15.954585 12.699994 -47.021805
v -15.954585 12.699994 -48.291801
v -15.954585 12.699994 -48.291801
v -17.224585 12.699994 -47.021805
v -17.224588 12.699994 -48.291801
v -14.684585 12.699994 -29.241806
v -13.414839 12.699994 -27.971806
v -15.954585 12.699994 -27.971806
vt 1.499878 0.499939
vt 0.999939 0.499939
vt 1.499878 0.000000
vt 0.499939 0.000000
vt 0.000000 0.499939
vt 0.000000 0.000000
vt -0.499939 0.000000
vt 0.000000 -0.499939
vt -0.499939 -0.999878
vt 0.000000 -1.499878
vt 0.000000 -0.999878
vt 0.499939 -0.999939
vt 0.999939 -1.499878
vt 1.499878 -0.999878
vt 1.499878 -1.499878
vt 1.499878 0.499939
vt 0.999939 0.499939
vt 1.499878 0.000000
vt 0.499939 0.000000
vt 0.000000 0.499939
vt -0.499939 0.000000
vt -0.499939 0.499939
vt -0.499939 -1.499878
vt 0.000000 -1.499878
vt -0.499939 -0.999878
vt 0.499939 -0.999939
vt 0.999939 -1.499878
vt 1.499878 -0.999878
vt 1.499878 -1.499878
vt 1.499878 0.499939
vt 0.999939 0.499939
vt 1.499878 0.000000
vt 0.499939 0.000000
vt 0.000000 0.499939
vt -0.499939 0.000000
vt -0.499939 0.499939
vt -0.499939 -1.499878
vt 0.000000 -1.499878
vt -0.499939 -0.999878
vt 0.499939 -0.999939
vt 0.999939 -1.499878
vt 1.499878 -0.999878
vt 1.499878 -1.499878
vt 1.499878 0.499939
vt 0.999939 0.499939
vt 1.499878 0.000000
vt 0.499939 0.000000
vt 0.000000 0.499939
vt -0.499939 0.000000
vt -0.499939 0.499939
vt -0.499939 -1.499878
vt 0.000000 -1.499878
vt -0.499939 -0.999878
vt 0.499939 -0.999939
vt 0.999939 -1.499878
vt 1.499878 -0.999878
vt 1.499878 -1.499878
vt 0.999939 -0.999939
vt 0.999939 0.000000
vt 0.000000 -0.999939
vt 0.000000 0.000000
vt 0.999939 0.000000
vt 0.000000 0.000000
vt 0.999939 -0.999939
vt 0.000000 -0.999939
vt 0.999939 -0.999939
vt 0.999939 0.000000
vt 0.000000 -0.999939
vt 0.000000 0.000000
vt 0.999939 0.000000
vt 0.000000 0.000000
vt 0.999939 -0.999939
vt 0.000000 -0.999939
vt 0.999939 -0.999939
vt 0.999939 0.000000
vt 0.000000 -0.999939
vt 0.000000 0.000000
vt 0.999939 0.000000
vt 0.000000 0.000000
vt 0.999939 -0.999939
vt 0.000000 -0.999939
vt 0.999939 -0.999939
vt 0.999939 0.000000
vt 0.000000 -0.999939
vt 0.000000 0.000000
vt -0.499939 0.499939
vt -0.499939 0.000000
vt 0.000000 0.499939
vt 0.000000 0.000000
vt 0.000000 -0.999939
vt 0.999939 -0.999939
vt 0.000000 -0.499939
vt -0.499939 -0.999878
vt 0.000000 -0.999878
vt -0.499939 -0.999878
vt -0.499939 -1.499878
vt 0.000000 -1.499878
vt 0.999939 0.000000
vt 0.000000 0.000000
vt 0.999939 -0.999939
vn 0.0000 1.0000 0.0000
usemtl Tex_0057_1.dds.001
s off
f 1/1/1 3/2/1 2/3/1
f 2/3/1 3/2/1 4/4/1
f 3/2/1 5/5/1 4/4/1
f 4/4/1 5/5/1 6/6/1
f 5/5/1 7/7/1 6/6/1
f 6/6/1 7/7/1 8/8/1
f 9/9/1 11/10/1 10/11/1
f 10/11/1 11/10/1 12/12/1
f 11/10/1 13/13/1 12/12/1
f 12/12/1 13/13/1 14/14/1
f 13/13/1 15/15/1 14/14/1
f 16/16/1 18/17/1 17/18/1
f 17/18/1 18/17/1 19/19/1
f 18/17/1 20/20/1 19/19/1
f 19/19/1 20/20/1 21/21/1
f 20/20/1 22/22/1 21/21/1
f 23/23/1 25/24/1 24/25/1
f 24/25/1 25/24/1 26/26/1
f 25/24/1 27/27/1 26/26/1
f 26/26/1 27/27/1 28/28/1
f 27/27/1 29/29/1 28/28/1
f 30/30/1 32/31/1 31/32/1
f 31/32/1 32/31/1 33/33/1
f 32/31/1 34/34/1 33/33/1
f 33/33/1 34/34/1 35/35/1
f 34/34/1 36/36/1 35/35/1
f 37/37/1 39/38/1 38/39/1
f 38/39/1 39/38/1 40/40/1
f 39/38/1 41/41/1 40/40/1
f 40/40/1 41/41/1 42/42/1
f 41/41/1 43/43/1 42/42/1
f 44/44/1 46/45/1 45/46/1
f 45/46/1 46/45/1 47/47/1
f 46/45/1 48/48/1 47/47/1
f 47/47/1 48/48/1 49/49/1
f 48/48/1 50/50/1 49/49/1
f 51/51/1 53/52/1 52/53/1
f 52/53/1 53/52/1 54/54/1
f 53/52/1 55/55/1 54/54/1
f 54/54/1 55/55/1 56/56/1
f 55/55/1 57/57/1 56/56/1
f 58/58/1 60/59/1 59/60/1
f 59/60/1 60/59/1 61/61/1
f 62/62/1 64/63/1 63/64/1
f 63/64/1 64/63/1 65/65/1
f 66/66/1 68/67/1 67/68/1
f 67/68/1 68/67/1 69/69/1
f 70/70/1 72/71/1 71/72/1
f 71/72/1 72/71/1 73/73/1
f 74/74/1 76/75/1 75/76/1
f 75/76/1 76/75/1 77/77/1
f 78/78/1 80/79/1 79/80/1
f 79/80/1 80/79/1 81/81/1
f 82/82/1 84/83/1 83/84/1
f 83/84/1 84/83/1 85/85/1
f 86/86/1 88/87/1 87/88/1
f 89/89/1 91/90/1 90/91/1
f 92/92/1 94/93/1 93/94/1
f 95/95/1 97/96/1 96/97/1
f 98/98/1 100/99/1 99/100/1
