# Blender v3.6.3 OBJ File: 'untitled.blend'
# www.blender.org
mtllib Mesh_0294.mtl
o Mesh_0294_Mesh.081
v -19.514893 1.865446 -23.209305
v -19.514893 -0.317810 -27.657784
v -19.386459 1.862653 -22.891804
v -19.386459 -0.677347 -27.971806
v -19.258022 1.693310 -22.891804
v -19.258022 -0.846689 -27.971806
v -19.386459 1.552214 -22.891804
v -19.386459 -0.987786 -27.971806
v -19.514893 -0.674553 -28.289307
v -19.514893 -2.857820 -32.737793
v -19.386459 -0.677347 -27.971806
v -19.386457 -3.217343 -33.051804
v -19.258022 -0.846689 -27.971806
v -19.258022 -3.386684 -33.051804
v -19.386459 -0.987786 -27.971806
v -19.386459 -3.527793 -33.051804
v -19.514893 -3.016255 -37.888119
v -19.386456 -3.217345 -38.021721
v -19.386456 -3.217345 -33.161667
v -19.258018 -3.386683 -38.131805
v -19.258022 -3.386684 -33.051804
v -19.386457 -3.527792 -38.131805
v -19.386459 -3.527793 -33.051804
v -19.386459 -3.527791 -42.833679
v -19.386457 -3.527792 -38.131805
v -19.258022 -3.386682 -42.705242
v -19.258018 -3.386683 -38.131805
v -19.386459 -3.217342 -42.833679
v -19.386456 -3.217342 -38.241657
v -19.514893 -3.016253 -38.375492
v -19.129583 -4.515563 -38.131805
v -19.129583 -4.515564 -33.051804
v -19.258022 -4.374454 -33.051804
v -19.129583 -1.975567 -27.971806
v -19.258022 -1.834444 -27.971806
v -19.258020 -4.374453 -38.131805
v -19.258022 -4.374454 -33.051804
v -19.129583 -4.233344 -33.051804
v -19.258022 -1.834444 -27.971806
v -19.129583 -1.693347 -27.971806
v -19.129583 -4.092236 -38.131805
v -19.129583 -4.092235 -33.051804
v -19.386459 -3.951125 -33.051804
v -19.129583 -1.552225 -27.971806
v -19.386459 -1.411128 -27.971806
v -19.514893 1.865446 -23.209305
v -19.764584 1.865446 -23.209305
v -19.514893 -0.317810 -27.657784
v -19.764584 -0.317810 -27.657784
v -19.258022 0.705556 -22.891804
v -19.258022 -1.834444 -27.971806
v -19.129583 0.564433 -22.891804
v -19.129583 -1.975567 -27.971806
v -19.129583 0.846652 -22.891804
v -19.129583 -1.693347 -27.971806
v -19.258022 0.705556 -22.891804
v -19.258022 -1.834444 -27.971806
v -19.386459 1.128872 -22.891804
v -19.386459 -1.411128 -27.971806
v -19.129583 0.987775 -22.891804
v -19.129583 -1.552225 -27.971806
v -19.514893 -0.674553 -28.289307
v -19.764584 -0.674553 -28.289307
v -19.514893 -2.857820 -32.737793
v -19.764584 -2.857820 -32.737797
v -19.764584 -3.016255 -33.295483
v -19.764584 -3.016255 -37.888119
v -19.514893 -3.016255 -33.295486
v -19.514893 -3.016255 -37.888119
v -19.764584 -3.016253 -38.375492
v -19.764584 -3.016253 -42.968124
v -19.514893 -3.016253 -38.375492
v -19.514893 -3.016253 -42.962112
v -19.386456 -3.951123 -42.833679
v -19.129583 -4.092235 -42.576805
v -19.386457 -3.951124 -38.131805
v -19.129583 -4.092236 -38.131805
v -19.258022 -4.374452 -42.705242
v -19.258020 -4.374453 -38.131805
v -19.129583 -4.233342 -42.576805
v -19.129583 -4.233344 -38.131805
v -19.258022 -4.374452 -42.705242
v -19.129583 -4.515561 -42.576805
v -19.258020 -4.374453 -38.131805
v -19.129583 -4.515563 -38.131805
v -19.386456 -3.217345 -33.161667
v -19.514893 -3.016255 -33.295486
v -19.514893 -3.016255 -37.888119
v -19.386456 -3.217345 -33.161667
v -19.258022 -3.386684 -33.051804
v -19.386457 -3.217343 -33.051804
v -19.258018 -3.386683 -38.131805
v -19.386456 -3.217345 -38.021721
v -19.386457 -3.217343 -38.131805
v -19.258022 -4.374454 -33.051804
v -19.258020 -4.374453 -38.131805
v -19.129583 -4.515563 -38.131805
v -19.129583 -4.233344 -33.051804
v -19.129583 -4.233344 -38.131805
v -19.258020 -4.374453 -38.131805
v -19.386459 -3.951125 -33.051804
v -19.386457 -3.951124 -38.131805
v -19.129583 -4.092236 -38.131805
v -19.386456 -3.217342 -38.241657
v -19.258018 -3.386683 -38.131805
v -19.386457 -3.217343 -38.131805
v -19.514893 -3.016253 -38.375492
v -19.514893 -3.016253 -42.962112
v -19.386459 -3.217342 -42.833679
vt 1.420898 1.045898
vt 1.496094 0.799805
vt -0.422852 1.047852
vt -0.498047 0.799805
vt 1.502930 0.655273
vt -0.504883 0.655273
vt 1.496094 0.794922
vt -0.498047 0.794922
vt 1.420898 1.045898
vt 1.496094 0.799805
vt -0.422852 1.047852
vt -0.498047 0.799805
vt 1.502930 0.655273
vt -0.504883 0.655273
vt 1.496094 0.794922
vt -0.498047 0.794922
vt 1.416992 1.045898
vt -0.443359 0.830078
vt 1.453125 0.828125
vt 1.502930 0.655273
vt -0.504883 0.655273
vt 1.496094 0.794922
vt -0.498047 0.794922
vt 1.350586 0.794922
vt 1.302734 0.655273
vt -0.498047 0.794922
vt -0.504883 0.655273
vt 1.347656 0.828125
vt -0.443359 0.830078
vt -0.422852 1.047852
vt 0.497070 -3.003906
vt -1.500977 -3.352539
vt -1.500977 -3.003906
vt 0.497070 -3.003906
vt 0.497070 -3.352539
vt 0.497070 -1.694336
vt -1.500977 -2.070312
vt -1.500977 -1.694336
vt 0.497070 -1.694336
vt 0.497070 -2.070312
vt 0.497070 -2.196289
vt -1.500977 -1.770508
vt -1.500977 -2.196289
vt 0.497070 -2.196289
vt 0.497070 -1.770508
vt 1.420898 1.045898
vt -0.422852 1.047852
vt 1.420898 1.397461
vt -0.422852 1.397461
vt 0.497070 -3.352539
vt 0.497070 -3.003906
vt -1.500977 -3.352539
vt -1.500977 -3.003906
vt 0.497070 -2.070312
vt 0.497070 -1.694336
vt -1.500977 -2.070312
vt -1.500977 -1.694336
vt 0.497070 -1.770508
vt 0.497070 -2.196289
vt -1.500977 -1.770508
vt -1.500977 -2.196289
vt 1.420898 1.045898
vt -0.422852 1.047852
vt 1.420898 1.397461
vt -0.422852 1.397461
vt -1.500977 -1.000000
vt -1.500977 -1.249023
vt 0.497070 -1.000000
vt 0.497070 -1.249023
vt -1.500977 -1.000000
vt -1.500977 -1.249023
vt 0.497070 -1.000000
vt 0.497070 -1.249023
vt 0.347656 -1.770508
vt -1.500977 -1.770508
vt 0.245117 -2.196289
vt -1.500977 -2.196289
vt 0.299805 -1.694336
vt 0.248047 -2.070312
vt -1.500977 -1.694336
vt -1.500977 -2.070312
vt 0.299805 -3.352539
vt -1.500977 -3.352539
vt 0.248047 -3.003906
vt -1.500977 -3.003906
vt -0.443359 0.830078
vt 1.416992 1.045898
vt -0.422852 1.047852
vt -0.443359 0.830078
vt -0.498047 0.831055
vt -0.504883 0.655273
vt 1.502930 0.655273
vt 1.496094 0.827148
vt 1.453125 0.828125
vt -1.500977 -3.352539
vt 0.497070 -3.003906
vt 0.497070 -3.352539
vt -1.500977 -2.070312
vt 0.497070 -1.694336
vt 0.497070 -2.070312
vt -1.500977 -1.770508
vt 0.497070 -2.196289
vt 0.497070 -1.770508
vt -0.443359 0.830078
vt -0.498047 0.831055
vt -0.504883 0.655273
vt -0.422852 1.047852
vt 1.347656 0.828125
vt 1.416992 1.045898
vn 0.7426 0.6013 -0.2951
vn 0.7298 0.6179 -0.2925
vn 0.8158 0.5173 -0.2587
vn 0.8189 0.5146 -0.2542
vn 0.7639 0.5814 -0.2800
vn 0.7811 0.5690 0.2571
vn 0.7083 0.6327 -0.3131
vn 0.7627 0.5785 -0.2892
vn 0.2523 0.1915 -0.9485
vn 0.2202 -0.2005 0.9546
vn 0.7009 -0.6380 0.3190
vn 0.2322 -0.8773 0.4201
vn 0.7331 -0.6450 -0.2158
vn 0.8498 0.4846 -0.2073
vn 0.7825 0.5704 0.2495
vn 0.7517 0.5901 -0.2944
vn 0.7668 0.5808 -0.2731
vn 0.3163 0.8566 -0.4077
vn 0.2524 0.1915 -0.9485
vn 0.2146 -0.1954 0.9569
vn 0.8428 0.5383 0.0000
vn 0.8824 0.4706 -0.0040
vn 0.8555 0.5157 0.0463
vn 0.8041 0.5940 0.0244
vn 0.7956 0.6059 -0.0001
vn 0.7967 0.6043 0.0000
vn 0.7974 0.6035 -0.0017
vn 0.3315 0.6775 0.6566
vn 0.7968 0.6043 0.0000
vn 0.7395 -0.6731 0.0000
vn 0.6417 -0.5573 0.5269
vn 0.8252 -0.2447 -0.5092
vn 0.1480 -0.9886 -0.0263
vn 0.6320 -0.5753 0.5192
vn 0.8098 0.1945 -0.5534
vn 0.7956 0.6058 0.0035
vn 0.0808 0.9962 0.0337
vn 0.3423 0.6514 0.6771
vn 0.7944 0.6074 0.0002
vn 0.8041 0.5940 -0.0244
vn 0.8814 0.4724 0.0041
vn 0.8555 0.5157 -0.0462
vn 0.7395 0.6731 0.0000
vn 0.8481 0.5298 0.0067
vn 0.6363 0.7714 0.0000
vn 0.5602 0.7409 -0.3704
vn 0.7962 0.5390 -0.2747
vn 0.7009 0.6380 -0.3190
vn 0.6628 0.7198 -0.2063
vn 0.7009 0.6379 -0.3190
vn 0.8481 -0.5298 -0.0067
vn 0.6363 -0.7714 -0.0000
vn 0.5602 -0.7409 0.3705
vn 0.7962 -0.5390 0.2747
vn 0.6627 -0.7199 0.2064
vn 0.4815 0.8765 0.0000
vn 0.6637 0.7478 0.0128
vn 0.3063 0.9519 -0.0000
vn 0.2325 0.8699 -0.4350
vn 0.6016 0.7101 -0.3658
vn 0.4410 0.8028 -0.4014
vn 0.4052 0.8836 -0.2346
vn 0.4409 0.8028 -0.4014
vn 0.0000 0.8977 -0.4406
vn 0.0000 1.0000 0.0000
usemtl Tex_0032_0.dds.009
s off
f 1/1/1 3/2/2 2/3/1
f 2/3/3 3/2/3 4/4/4
f 3/2/5 5/5/6 4/4/7
f 4/4/8 5/5/8 6/6/9
f 5/5/10 7/7/11 6/6/12
f 6/6/13 7/7/11 8/8/11
f 9/9/1 11/10/2 10/11/1
f 10/11/3 11/10/3 12/12/14
f 11/10/5 13/13/15 12/12/16
f 12/12/17 13/13/18 14/14/19
f 13/13/20 15/15/11 14/14/12
f 14/14/13 15/15/11 16/16/11
f 17/17/21 19/18/22 18/19/23
f 18/19/24 19/18/25 20/20/26
f 19/18/27 21/21/28 20/20/29
f 20/20/30 21/21/30 22/22/30
f 21/21/31 23/23/30 22/22/30
f 24/24/30 26/25/32 25/26/30
f 25/26/30 26/25/33 27/27/34
f 26/25/35 28/28/36 27/27/37
f 27/27/38 28/28/39 29/29/40
f 28/28/41 30/30/21 29/29/42
f 31/31/43 33/32/44 32/33/45
f 32/33/46 33/32/47 34/34/48
f 33/32/49 35/35/50 34/34/50
f 36/36/30 38/37/51 37/38/52
f 37/38/53 38/37/54 39/39/11
f 38/37/55 40/40/11 39/39/11
f 41/41/56 43/42/57 42/43/58
f 42/43/59 43/42/60 44/44/61
f 43/42/62 45/45/63 44/44/63
f 46/46/64 48/47/64 47/48/64
f 47/48/64 48/47/64 49/49/64
f 50/50/50 52/51/50 51/52/50
f 51/52/50 52/51/50 53/53/50
f 54/54/11 56/55/11 55/56/11
f 55/56/11 56/55/11 57/57/11
f 58/58/61 60/59/61 59/60/61
f 59/60/63 60/59/63 61/61/63
f 62/62/64 64/63/64 63/64/64
f 63/64/64 64/63/64 65/65/64
f 66/66/65 68/67/65 67/68/65
f 67/68/65 68/67/65 69/69/65
f 70/70/65 72/71/65 71/72/65
f 71/72/65 72/71/65 73/73/65
f 74/74/56 76/75/56 75/76/56
f 75/76/56 76/75/56 77/77/56
f 78/78/30 80/79/30 79/80/30
f 79/80/30 80/79/30 81/81/30
f 82/82/43 84/83/43 83/84/43
f 83/84/43 84/83/43 85/85/43
f 86/86/21 88/87/21 87/88/21
f 89/89/26 91/90/26 90/91/26
f 92/92/29 94/93/29 93/94/29
f 95/95/43 97/96/43 96/97/43
f 98/98/30 100/99/30 99/100/30
f 101/101/56 103/102/56 102/103/56
f 104/104/26 106/105/26 105/106/26
f 107/107/21 109/108/21 108/109/21
