# Blender v3.6.3 OBJ File: 'untitled.blend'
# www.blender.org
mtllib Mesh_0330.mtl
o Mesh_0330_Mesh.091
v -19.507772 24.891994 -43.209942
v -19.253775 25.145983 -43.209942
v -19.296413 25.145994 -47.821182
v -19.764584 25.399994 -43.209942
v -19.764584 25.399994 -48.291893
v -19.379490 22.859995 -43.209942
v -19.129581 23.113995 -43.209942
v -19.184292 23.113995 -47.709061
v -19.507593 23.367994 -43.209942
v -19.555687 23.367994 -48.080456
v -19.764584 25.399994 -33.053665
v -19.764584 25.399994 -38.131805
v -19.253736 25.145983 -33.053665
v -19.253723 25.145971 -38.131805
v -19.507719 24.891994 -38.131805
v -19.507690 23.367994 -38.131805
v -19.129581 23.113995 -38.131805
v -19.129581 23.113995 -33.053665
v -19.379444 22.859995 -38.131805
v -19.379471 22.859995 -33.053665
v -19.764584 25.399994 -38.131805
v -19.764584 25.399994 -43.209942
v -19.253723 25.145971 -38.131805
v -19.253775 25.145983 -43.209942
v -19.507772 24.891994 -43.209942
v -19.507593 23.367994 -43.209942
v -19.129581 23.113995 -43.209942
v -19.129581 23.113995 -38.131805
v -19.379490 22.859995 -43.209942
v -19.379444 22.859995 -38.131805
v -19.507734 24.891994 -33.053665
v -19.507790 24.891993 -27.971806
v -19.253736 25.145983 -33.053665
v -19.253788 25.145992 -27.971806
v -19.764584 25.399992 -27.971760
v -19.507772 23.367992 -27.971806
v -19.507633 23.367994 -33.053665
v -19.129581 23.113993 -27.971806
v -19.129581 23.113995 -33.053665
v -19.379471 22.859995 -33.053665
v -19.555662 24.891994 -48.080429
v -19.507772 24.891994 -43.209942
v -19.296413 25.145994 -47.821182
v -19.184292 23.113995 -47.709061
v -19.422482 22.859995 -47.947250
v -19.379490 22.859995 -43.209942
v -19.507719 24.891994 -38.131805
v -19.507734 24.891994 -33.053665
v -19.253736 25.145983 -33.053665
v -19.129581 23.113995 -33.053665
v -19.507633 23.367994 -33.053665
v -19.507690 23.367994 -38.131805
v -19.507772 24.891994 -43.209942
v -19.507719 24.891994 -38.131805
v -19.253723 25.145971 -38.131805
v -19.129581 23.113995 -38.131805
v -19.507690 23.367994 -38.131805
v -19.507593 23.367994 -43.209942
v -19.253736 25.145983 -33.053665
v -19.764584 25.399992 -27.971760
v -19.764584 25.399994 -33.053665
v -19.385902 22.859993 -27.971806
v -19.129581 23.113993 -27.971806
v -19.379471 22.859995 -33.053665
vt 0.002930 -0.177734
vt -0.996094 -0.081055
vt 0.002930 -0.081055
vt 0.002930 0.032227
vt -0.996094 0.032227
vt 0.002930 -1.184570
vt -0.996094 -1.071289
vt 0.002930 -1.071289
vt 0.002930 -0.945312
vt -0.996094 -0.945312
vt -0.914062 0.032227
vt -0.915039 -0.081055
vt 1.084961 0.032227
vt 1.083008 -0.081055
vt 1.083008 -0.177734
vt 1.001953 -0.945312
vt -0.996094 -1.071289
vt 1.001953 -1.071289
vt 1.001953 -1.184570
vt -0.996094 -1.184570
vt -0.914062 0.032227
vt -0.915039 -0.081055
vt 1.084961 0.032227
vt 1.083008 -0.081055
vt 1.083008 -0.177734
vt 1.001953 -0.945312
vt -0.996094 -1.071289
vt 1.001953 -1.071289
vt 1.001953 -1.184570
vt -0.996094 -1.184570
vt 0.002930 -0.177734
vt 0.002930 -0.081055
vt -0.947266 -0.177734
vt -0.904297 -0.081055
vt -0.995117 0.032227
vt -0.947266 -0.945312
vt -0.884766 -1.071289
vt 0.002930 -0.945312
vt 0.002930 -1.071289
vt 0.002930 -1.184570
vt -0.996094 -0.177734
vt -0.996094 -0.081055
vt 0.002930 -0.177734
vt -0.996094 -1.071289
vt 0.002930 -1.184570
vt -0.996094 -1.184570
vt 1.083008 -0.177734
vt -0.915039 -0.081055
vt -0.915039 -0.177734
vt -0.996094 -1.071289
vt 1.001953 -0.945312
vt -0.996094 -0.945312
vt 1.083008 -0.177734
vt -0.915039 -0.081055
vt -0.915039 -0.177734
vt -0.996094 -1.071289
vt 1.001953 -0.945312
vt -0.996094 -0.945312
vt 0.002930 -0.081055
vt 0.002930 0.032227
vt -0.995117 0.032227
vt -0.926758 -1.184570
vt 0.002930 -1.184570
vt -0.884766 -1.071289
vn 0.7071 -0.7071 -0.0065
vn -0.8608 -0.5051 -0.0628
vn 0.4453 0.8954 -0.0041
vn 0.4452 0.8954 -0.0068
vn 0.4993 0.8661 -0.0229
vn 0.4769 0.8790 0.0000
vn 0.5058 0.8626 -0.0000
vn 0.7128 -0.7013 -0.0087
vn -0.7920 -0.6068 -0.0675
vn 0.4603 -0.4528 0.7636
vn 0.3588 0.5340 0.7656
vn 0.5184 0.8551 -0.0098
vn 0.5577 0.8300 -0.0075
vn 0.5878 0.8085 -0.0294
vn 0.5683 0.8228 -0.0056
vn 0.5782 0.8159 -0.0057
vn 0.4452 0.8954 0.0000
vn 0.4494 0.8921 0.0462
vn 0.2599 0.5227 -0.8119
vn -0.8720 -0.4847 0.0679
vn 0.7071 -0.7071 0.0000
vn 0.4128 -0.4128 -0.8119
vn 0.5576 0.8301 0.0000
vn -0.8917 0.4439 0.0886
vn 0.3560 0.5300 -0.7696
vn 0.4552 -0.4478 -0.7696
vn 0.6723 -0.7403 0.0039
vn 0.7129 -0.7013 0.0000
vn 0.7145 -0.6974 0.0564
vn 0.7128 -0.7013 0.0000
vn 0.4491 0.8924 0.0429
vn 0.4453 0.8954 -0.0000
vn 0.4064 0.9137 0.0048
vn 0.2599 0.5228 -0.8119
vn -0.8736 -0.4818 0.0678
vn 0.5577 0.8300 0.0000
vn -0.8916 0.4441 0.0886
vn 0.3561 0.5300 -0.7696
vn 0.4551 -0.4478 -0.7696
vn 0.6721 -0.7404 0.0040
vn 0.7145 -0.6973 0.0563
vn 0.7088 -0.7020 -0.0687
vn 0.6569 -0.7540 -0.0048
vn 0.4128 -0.4128 0.8119
vn -0.9734 0.2023 -0.1079
vn 0.2600 0.5228 0.8118
vn 0.5575 0.8301 0.0000
vn 0.5603 0.8271 0.0440
vn 0.5577 0.8301 0.0000
vn 0.5208 0.8537 0.0039
vn -0.7932 -0.6050 0.0692
vn 0.7033 -0.7108 -0.0069
vn 0.7325 -0.6807 -0.0066
vn 0.7039 -0.7103 0.0009
usemtl Tex_0052_0.dds.006
s off
f 1/1/1 3/2/2 2/3/1
f 2/3/3 3/2/3 4/4/4
f 3/2/5 5/5/6 4/4/7
f 6/6/8 8/7/9 7/8/10
f 7/8/11 8/7/12 9/9/13
f 8/7/14 10/10/15 9/9/16
f 11/11/17 13/12/18 12/13/17
f 12/13/17 13/12/17 14/14/19
f 13/12/20 15/15/21 14/14/22
f 16/16/23 18/17/24 17/18/25
f 17/18/26 18/17/27 19/19/28
f 18/17/29 20/20/30 19/19/30
f 21/21/17 23/22/31 22/23/17
f 22/23/32 23/22/33 24/24/34
f 23/22/35 25/25/21 24/24/22
f 26/26/36 28/27/37 27/28/38
f 27/28/39 28/27/40 29/29/30
f 28/27/41 30/30/28 29/29/28
f 31/31/21 33/32/42 32/33/21
f 32/33/21 33/32/43 34/34/44
f 33/32/45 35/35/32 34/34/46
f 36/36/47 38/37/48 37/38/47
f 37/38/49 38/37/50 39/39/38
f 38/37/51 40/40/30 39/39/39
f 41/41/52 43/42/52 42/43/52
f 44/44/53 46/45/53 45/46/53
f 47/47/21 49/48/21 48/49/21
f 50/50/49 52/51/49 51/52/49
f 53/53/21 55/54/21 54/55/21
f 56/56/23 58/57/23 57/58/23
f 59/59/17 61/60/17 60/61/17
f 62/62/54 64/63/54 63/64/54
