# Blender v3.6.3 OBJ File: 'untitled.blend'
# www.blender.org
mtllib Mesh_0296.mtl
o Mesh_0296_Mesh.191
v -19.764584 4.597497 -36.400570
v -19.764584 4.034785 -37.079483
v -19.764584 4.034785 -34.104126
v -19.764584 3.260085 -37.592892
v -19.764584 3.260085 -33.590706
v -19.764584 2.274361 -37.888119
v -19.764584 2.274361 -33.295483
v -19.764584 -3.016255 -37.888119
v -19.764584 -3.016255 -33.295483
v -19.764584 4.597496 -41.480553
v -19.764584 4.034785 -42.159477
v -19.764584 4.034785 -39.184124
v -19.764584 3.260085 -42.672905
v -19.764584 3.260085 -38.670715
v -19.764584 2.274361 -42.968124
v -19.764584 2.274361 -38.375492
v -19.764584 -3.016253 -42.968124
v -19.764584 -3.016253 -38.375492
v -19.764584 -0.317810 -27.657784
v -19.764584 1.865446 -23.209305
v -19.764584 7.782046 -27.657784
v -19.764584 10.020777 -23.209305
v -19.764584 -2.857820 -32.737797
v -19.764584 -0.674553 -28.289307
v -19.764584 5.242046 -32.737797
v -19.764584 7.480777 -28.289307
v -19.764584 4.034785 -34.104126
v -19.764584 4.597497 -34.783054
v -19.764584 4.597497 -36.400570
v -19.764584 4.987335 -35.591805
v -19.764584 4.034785 -39.184124
v -19.764580 4.597497 -39.863041
v -19.764584 4.597496 -41.480553
v -19.764584 4.987335 -40.671806
vt -0.675781 0.153320
vt -0.134766 0.051758
vt -0.836914 0.051758
vt -0.958008 -0.087891
vt 0.003906 -0.087891
vt -1.028320 -0.265625
vt 0.057617 -0.265625
vt -1.028320 -1.222656
vt 0.046875 -1.222656
vt -0.675781 0.153320
vt -0.134766 0.051758
vt -0.836914 0.051758
vt -0.958008 -0.087891
vt 0.003906 -0.087891
vt -1.028320 -0.265625
vt 0.057617 -0.265625
vt -1.028320 -1.222656
vt 0.046875 -1.222656
vt 1.999023 -1.666016
vt 1.999023 0.162109
vt 1.000000 -1.172852
vt 1.000000 0.666992
vt 1.999023 -1.666016
vt 1.999023 0.162109
vt 1.000000 -1.172852
vt 1.000000 0.666992
vt -0.134766 0.051758
vt -0.675781 0.153320
vt -0.307617 0.153320
vt -0.498047 0.223633
vt -0.134766 0.051758
vt -0.675781 0.153320
vt -0.307617 0.153320
vt -0.498047 0.223633
vn 1.0000 0.0000 0.0000
usemtl Tex_0031_1.dds.014
s off
f 1/1/1 3/2/1 2/3/1
f 2/3/1 3/2/1 4/4/1
f 3/2/1 5/5/1 4/4/1
f 4/4/1 5/5/1 6/6/1
f 5/5/1 7/7/1 6/6/1
f 6/6/1 7/7/1 8/8/1
f 7/7/1 9/9/1 8/8/1
f 10/10/1 12/11/1 11/12/1
f 11/12/1 12/11/1 13/13/1
f 12/11/1 14/14/1 13/13/1
f 13/13/1 14/14/1 15/15/1
f 14/14/1 16/16/1 15/15/1
f 15/15/1 16/16/1 17/17/1
f 16/16/1 18/18/1 17/17/1
f 19/19/1 21/20/1 20/21/1
f 20/21/1 21/20/1 22/22/1
f 23/23/1 25/24/1 24/25/1
f 24/25/1 25/24/1 26/26/1
f 27/27/1 29/28/1 28/29/1
f 28/29/1 29/28/1 30/30/1
f 31/31/1 33/32/1 32/33/1
f 32/33/1 33/32/1 34/34/1
