# Blender v3.6.3 OBJ File: 'untitled.blend'
# www.blender.org
mtllib Mesh_0223.mtl
o Mesh_0223_Mesh.164
v 56.435417 12.191978 22.571320
v 50.085419 12.191978 22.571320
v 56.435417 10.667986 22.571320
v 50.085419 10.667986 22.571320
v 50.085419 12.191978 22.571320
v 43.735420 12.191978 22.571320
v 50.085419 10.667986 22.571320
v 43.735420 10.667986 22.571320
v 62.785416 12.191978 22.571320
v 56.435417 12.191978 22.571320
v 62.785416 10.667986 22.571320
v 56.435417 10.667986 22.571320
v 69.135422 12.191978 22.571320
v 62.785416 12.191978 22.571320
v 69.135422 10.667986 22.571320
v 62.785416 10.667986 22.571320
v 43.735420 12.191978 22.571320
v 37.385422 12.191978 22.571320
v 43.735420 10.667986 22.571320
v 37.385422 10.667986 22.571320
v 37.385422 12.191978 22.571320
v 31.035414 12.191978 22.571320
v 37.385422 10.667986 22.571320
v 31.035414 10.667986 22.571320
v 31.035414 12.191978 22.571320
v 24.685415 12.191978 22.571320
v 31.035414 10.667986 22.571320
v 24.685415 10.667986 22.571320
v 24.685415 12.191978 22.571320
v 18.335413 12.191978 22.571320
v 24.685415 10.667986 22.571320
v 18.335413 10.667986 22.571320
v 11.985411 12.191978 22.571320
v 5.635412 12.191978 22.571320
v 11.985411 10.667986 22.571320
v 5.635412 10.667986 22.571320
v 18.335413 12.191978 22.571320
v 11.985411 12.191978 22.571320
v 18.335413 10.667986 22.571320
v 11.985411 10.667986 22.571320
v 5.635412 12.191978 22.571320
v -0.714584 12.191978 22.571320
v 5.635412 10.667986 22.571320
v -0.714584 10.667986 22.571320
v -0.714584 12.191978 22.571320
v -7.064585 12.191978 22.571320
v -0.714584 10.667986 22.571320
v -7.064585 10.667986 22.571320
vt -0.000977 -0.155273
vt -0.000977 -0.942383
vt 1.997070 -0.155273
vt 1.997070 -0.942383
vt -0.000977 -0.155273
vt -0.000977 -0.942383
vt 1.997070 -0.155273
vt 1.997070 -0.942383
vt -0.000977 -0.155273
vt -0.000977 -0.942383
vt 1.997070 -0.155273
vt 1.997070 -0.942383
vt -0.000977 -0.155273
vt -0.000977 -0.942383
vt 1.997070 -0.155273
vt 1.997070 -0.942383
vt -0.000977 -0.155273
vt -0.000977 -0.942383
vt 1.997070 -0.155273
vt 1.997070 -0.942383
vt -0.000977 -0.155273
vt -0.000977 -0.942383
vt 1.997070 -0.155273
vt 1.997070 -0.942383
vt -0.000977 -0.155273
vt -0.000977 -0.942383
vt 1.997070 -0.155273
vt 1.997070 -0.942383
vt -0.000977 -0.155273
vt -0.000977 -0.942383
vt 1.997070 -0.155273
vt 1.997070 -0.942383
vt -0.000977 -0.155273
vt -0.000977 -0.942383
vt 1.997070 -0.155273
vt 1.997070 -0.942383
vt -0.000977 -0.155273
vt -0.000977 -0.942383
vt 1.997070 -0.155273
vt 1.997070 -0.942383
vt -0.000977 -0.155273
vt -0.000977 -0.942383
vt 1.997070 -0.155273
vt 1.997070 -0.942383
vt -0.000977 -0.155273
vt -0.000977 -0.942383
vt 1.997070 -0.155273
vt 1.997070 -0.942383
vn 0.0000 0.0000 -1.0000
usemtl Tex_0052_0.dds.014
s off
f 1/1/1 3/2/1 2/3/1
f 2/3/1 3/2/1 4/4/1
f 5/5/1 7/6/1 6/7/1
f 6/7/1 7/6/1 8/8/1
f 9/9/1 11/10/1 10/11/1
f 10/11/1 11/10/1 12/12/1
f 13/13/1 15/14/1 14/15/1
f 14/15/1 15/14/1 16/16/1
f 17/17/1 19/18/1 18/19/1
f 18/19/1 19/18/1 20/20/1
f 21/21/1 23/22/1 22/23/1
f 22/23/1 23/22/1 24/24/1
f 25/25/1 27/26/1 26/27/1
f 26/27/1 27/26/1 28/28/1
f 29/29/1 31/30/1 30/31/1
f 30/31/1 31/30/1 32/32/1
f 33/33/1 35/34/1 34/35/1
f 34/35/1 35/34/1 36/36/1
f 37/37/1 39/38/1 38/39/1
f 38/39/1 39/38/1 40/40/1
f 41/41/1 43/42/1 42/43/1
f 42/43/1 43/42/1 44/44/1
f 45/45/1 47/46/1 46/47/1
f 46/47/1 47/46/1 48/48/1
