# Blender v3.6.3 OBJ File: 'untitled.blend'
# www.blender.org
mtllib Mesh_0265.mtl
o Mesh_0265_Mesh.071
v -19.386377 13.828871 -27.593586
v -19.129585 13.687774 -27.336712
v -22.304585 13.687774 -27.336712
v -19.129585 13.546652 -27.336712
v -22.304585 13.546652 -27.336712
v -19.258110 13.405555 -27.465160
v -22.304585 13.405555 -27.465160
v -19.258110 13.405555 -27.971806
v -19.258110 13.405555 -27.465160
v -19.129585 13.546652 -27.971806
v -19.129585 13.546652 -27.336712
v -19.129585 13.687774 -27.971806
v -19.129585 13.687774 -27.336712
v -19.386377 13.828871 -27.593586
v -7.064585 13.405555 -27.465160
v -10.111061 13.405555 -27.465160
v -7.064585 13.546652 -27.336712
v -10.239584 13.546652 -27.336712
v -7.064585 13.687774 -27.336712
v -10.239584 13.687774 -27.336712
v -9.982792 13.828871 -27.593586
v -9.982792 13.828871 -27.971806
v -9.982792 13.828871 -27.593586
v -10.239584 13.687774 -27.971806
v -10.239584 13.687774 -27.336712
v -10.239584 13.546652 -27.971806
v -10.239584 13.546652 -27.336712
v -10.111061 13.405555 -27.465160
v -9.854267 14.763743 -27.971806
v -9.854267 14.763743 -27.722034
v -9.982792 14.562652 -27.971806
v -9.982792 14.562652 -27.593586
v -10.111061 14.393310 -27.971806
v -10.111061 14.393310 -27.465160
v -9.982792 14.252213 -27.593586
v -9.982792 14.252213 -27.593586
v -10.111061 14.393310 -27.465160
v -7.064585 14.393310 -27.465160
v -9.982792 14.562652 -27.593586
v -7.064585 14.562652 -27.593586
v -7.064585 14.763743 -27.722034
v -19.258110 14.393310 -27.465160
v -22.304585 14.393310 -27.465160
v -19.386377 14.562652 -27.593586
v -22.304585 14.562652 -27.593586
v -22.304585 14.763743 -27.722034
v -19.514904 14.763743 -27.722034
v -19.386377 14.562652 -27.971806
v -19.386377 14.562652 -27.593586
v -19.258110 14.393310 -27.971806
v -19.258110 14.393310 -27.465160
v -22.304585 12.699993 -27.336712
v -22.304585 13.264432 -27.336712
v -19.129585 12.699993 -27.336712
v -19.129585 13.264432 -27.336712
v -19.129585 13.264432 -27.336712
v -22.304585 13.264432 -27.336712
v -19.258110 13.405555 -27.465160
v -22.304585 13.405555 -27.465160
v -22.304585 13.828871 -27.593586
v -22.304585 14.252213 -27.593586
v -19.386377 13.828871 -27.593586
v -19.386377 14.252213 -27.593586
v -19.258110 14.393310 -27.465160
v -19.386377 14.252213 -27.593586
v -22.304585 14.393310 -27.465160
v -22.304585 14.252213 -27.593586
v -19.514904 14.763743 -27.722034
v -22.304585 14.763743 -27.722034
v -19.764584 14.763743 -27.971737
v -22.304585 14.763743 -27.971714
v -19.129585 13.264432 -27.336712
v -19.129585 13.264432 -27.971806
v -19.129585 12.699993 -27.336712
v -19.129585 12.699993 -27.971806
v -19.129585 13.264432 -27.336712
v -19.258110 13.405555 -27.465160
v -19.129585 13.264432 -27.971806
v -19.258110 13.405555 -27.971806
v -19.386377 13.828871 -27.971806
v -19.386377 13.828871 -27.593586
v -19.386377 14.252213 -27.971806
v -19.386377 14.252213 -27.593586
v -7.064585 12.699993 -27.336712
v -10.239584 12.699993 -27.336712
v -7.064585 13.264432 -27.336712
v -10.239584 13.264432 -27.336712
v -10.239584 13.264432 -27.336712
v -10.111061 13.405555 -27.465160
v -7.064585 13.264432 -27.336712
v -7.064585 13.405555 -27.465160
v -7.064585 13.828871 -27.593586
v -9.982792 13.828871 -27.593586
v -7.064585 14.252213 -27.593586
v -9.982792 14.252213 -27.593586
v -9.854267 14.763743 -27.722034
v -9.604584 14.763743 -27.971737
v -7.064585 14.763743 -27.722034
v -7.064585 14.763743 -27.971714
v -9.982792 14.252213 -27.593586
v -9.982792 13.828871 -27.593586
v -9.982792 14.252213 -27.971806
v -9.982792 13.828871 -27.971806
v -10.239584 13.264432 -27.971806
v -10.239584 13.264432 -27.336712
v -10.239584 12.699993 -27.971806
v -10.239584 12.699993 -27.336712
v -10.239584 13.264432 -27.336712
v -10.239584 13.264432 -27.971806
v -10.111061 13.405555 -27.465160
v -10.111061 13.405555 -27.971806
v -22.304585 13.687774 -27.336712
v -22.304585 13.828871 -27.593586
v -19.386377 13.828871 -27.593586
v -22.304585 14.763743 -27.722034
v -19.514904 14.763743 -27.722034
v -19.386377 14.562652 -27.593586
v -19.386377 13.828871 -27.971806
v -19.129585 13.687774 -27.971806
v -19.386377 13.828871 -27.593586
v -19.514904 14.763743 -27.971806
v -19.514904 14.763743 -27.722034
v -19.764584 14.763743 -27.971737
v -19.514904 14.763743 -27.722034
v -19.514904 14.763743 -27.971806
v -19.386377 14.562652 -27.971806
v -7.064585 13.828871 -27.593586
v -7.064585 13.687774 -27.336712
v -9.982792 13.828871 -27.593586
v -7.064585 14.393310 -27.465160
v -7.064585 14.252213 -27.593586
v -9.982792 14.252213 -27.593586
v -9.854267 14.763743 -27.722034
v -7.064585 14.763743 -27.722034
v -9.982792 14.562652 -27.593586
v -10.111061 13.405555 -27.971806
v -10.239584 13.546652 -27.971806
v -10.111061 13.405555 -27.465160
v -9.982792 14.252213 -27.971806
v -10.111061 14.393310 -27.971806
v -9.982792 14.252213 -27.593586
v -9.854267 14.763743 -27.722034
v -9.854267 14.763743 -27.971806
v -9.604584 14.763743 -27.971737
vt 0.416992 -1.770508
vt -0.487305 -2.196289
vt 0.498047 -2.196289
vt 0.498047 -2.070312
vt -0.487305 -2.070312
vt 0.458008 -1.694336
vt -0.487305 -1.694336
vt -0.307617 -1.694336
vt -0.266602 -2.070312
vt -0.487305 -1.694336
vt -0.487305 -2.070312
vt -0.266602 -2.196289
vt -0.487305 -2.196289
vt -0.487305 -1.770508
vt -0.487305 -1.694336
vt -0.487305 -2.070312
vt 0.458008 -1.694336
vt 0.498047 -2.070312
vt -0.487305 -2.196289
vt 0.498047 -2.196289
vt 0.416992 -1.770508
vt -0.349609 -1.770508
vt -0.266602 -2.196289
vt -0.487305 -1.770508
vt -0.487305 -2.196289
vt -0.266602 -2.070312
vt -0.487305 -2.070312
vt -0.487305 -1.694336
vt 0.617188 1.046875
vt 0.657227 0.799805
vt 0.520508 1.046875
vt 0.520508 0.799805
vt 0.699219 0.655273
vt 0.520508 0.655273
vt 0.520508 0.794922
vt 1.418945 0.794922
vt 0.520508 0.655273
vt 1.458984 0.655273
vt 1.417969 0.799805
vt 0.520508 0.799805
vt 0.520508 1.047852
vt 1.458984 0.655273
vt 1.417969 0.799805
vt 0.520508 0.655273
vt 0.520508 0.799805
vt 0.520508 1.047852
vt 0.520508 1.046875
vt 0.520508 0.799805
vt 0.657227 0.799805
vt 0.699219 0.655273
vt 0.520508 0.655273
vt -0.486328 -2.603516
vt 0.498047 -2.603516
vt -0.486328 -3.003906
vt 0.498047 -3.003906
vt 0.498047 -3.003906
vt 0.458008 -3.352539
vt -0.486328 -3.003906
vt -0.486328 -3.352539
vt -0.494141 -0.653320
vt 0.498047 -0.653320
vt -0.494141 -0.346680
vt 0.498047 -0.346680
vt 1.458984 0.655273
vt 0.520508 0.655273
vt 1.418945 0.794922
vt 0.520508 0.794922
vt 1.375000 1.046875
vt 1.293945 1.397461
vt 0.520508 1.047852
vt 0.520508 1.397461
vt -0.486328 -3.003906
vt -0.486328 -2.603516
vt -0.266602 -3.003906
vt -0.266602 -2.603516
vt -0.486328 -3.003906
vt -0.266602 -3.003906
vt -0.486328 -3.352539
vt -0.306641 -3.352539
vt -0.344727 -0.653320
vt -0.344727 -0.346680
vt -0.481445 -0.653320
vt -0.481445 -0.346680
vt -0.486328 -2.603516
vt -0.486328 -3.003906
vt 0.498047 -2.603516
vt 0.498047 -3.003906
vt 0.498047 -3.003906
vt -0.486328 -3.003906
vt 0.458008 -3.352539
vt -0.486328 -3.352539
vt -0.494141 -0.653320
vt -0.494141 -0.346680
vt 0.498047 -0.653320
vt 0.498047 -0.346680
vt 1.375000 1.046875
vt 0.520508 1.047852
vt 1.293945 1.397461
vt 0.520508 1.397461
vt -0.481445 -0.346680
vt -0.344727 -0.346680
vt -0.481445 -0.653320
vt -0.344727 -0.653320
vt -0.266602 -3.003906
vt -0.266602 -2.603516
vt -0.486328 -3.003906
vt -0.486328 -2.603516
vt -0.486328 -3.003906
vt -0.486328 -3.352539
vt -0.266602 -3.003906
vt -0.306641 -3.352539
vt -0.487305 -2.196289
vt 0.416992 -1.770508
vt -0.487305 -1.770508
vt 0.520508 1.047852
vt 1.417969 0.799805
vt 1.375000 1.046875
vt -0.349609 -1.770508
vt -0.487305 -1.770508
vt -0.266602 -2.196289
vt 0.617188 1.046875
vt 0.695312 1.397461
vt 0.520508 1.046875
vt 0.520508 1.046875
vt 0.657227 0.799805
vt 0.617188 1.046875
vt -0.487305 -1.770508
vt 0.416992 -1.770508
vt -0.487305 -2.196289
vt 0.520508 0.655273
vt 1.418945 0.794922
vt 0.520508 0.794922
vt 1.375000 1.046875
vt 1.417969 0.799805
vt 0.520508 1.047852
vt -0.307617 -1.694336
vt -0.487305 -1.694336
vt -0.266602 -2.070312
vt 0.657227 0.794922
vt 0.520508 0.794922
vt 0.699219 0.655273
vt 0.520508 1.046875
vt 0.695312 1.397461
vt 0.617188 1.046875
vn 0.0000 0.8765 0.4814
vn -0.0847 0.8704 -0.4849
vn 0.0000 0.0000 1.0000
vn -0.0556 0.0025 0.9985
vn -0.3536 0.0001 0.9354
vn 0.0000 -0.6732 0.7395
vn -0.3675 -0.6089 0.7030
vn 0.7393 -0.6734 0.0000
vn 0.5143 -0.7843 0.3469
vn 1.0000 0.0000 0.0000
vn 0.9563 0.0634 -0.2856
vn 0.9531 -0.0656 0.2954
vn 0.9563 -0.2856 -0.0635
vn 0.9358 -0.0000 0.3524
vn -0.1378 0.8937 -0.4270
vn 0.4816 0.8764 0.0000
vn -0.0101 0.8722 0.4891
vn 0.3602 -0.6111 0.7048
vn 0.0226 -0.8942 0.4472
vn -0.3675 -0.7865 0.4963
vn 0.3609 0.0000 0.9326
vn 0.0540 0.0024 0.9985
vn -0.0122 0.2756 0.9612
vn -0.2756 -0.0122 0.9612
vn 0.0024 -0.0540 0.9985
vn -0.3525 -0.0000 0.9358
vn 0.0848 0.8697 -0.4863
vn -0.4893 0.8721 -0.0101
vn -0.4816 0.8764 0.0000
vn -0.6877 0.6042 -0.4025
vn -0.0617 0.9481 -0.3118
vn 0.0101 0.8722 0.4891
vn -0.8607 -0.0000 -0.5091
vn -0.9914 -0.0284 -0.1278
vn -0.9358 -0.3440 0.0764
vn -0.9358 0.0764 0.3440
vn -0.9914 0.1278 -0.0284
vn -0.9611 0.0000 0.2760
vn -0.2473 -0.9478 -0.2012
vn -0.7393 -0.6734 0.0000
vn -0.4961 -0.7866 0.3677
vn -0.8426 0.5385 0.0000
vn -0.8272 0.5612 0.0287
vn -0.8574 0.5139 0.0275
vn -0.8549 0.5167 -0.0464
vn -0.7965 0.6033 0.0398
vn -0.8471 0.4776 -0.2328
vn -0.7827 0.6222 -0.0131
vn -0.8110 0.5850 -0.0132
vn -0.6276 0.7675 -0.1308
vn -0.4288 0.7292 0.5333
vn 0.2144 -0.8891 -0.4043
vn -0.7399 -0.6727 0.0000
vn -0.3137 -0.7791 0.5427
vn 0.0000 -0.6731 0.7395
vn 0.0637 -0.8691 -0.4906
vn -0.5434 -0.7789 0.3131
vn -0.5339 0.7291 0.4282
vn 0.0029 0.6359 0.7717
vn 0.0024 0.6029 0.7978
vn 0.0404 0.6014 0.7979
vn -0.0402 0.6038 0.7961
vn 0.0002 0.6066 0.7950
vn 0.0063 0.4717 0.8817
vn -0.0402 0.5379 0.8421
vn 0.0000 0.5383 0.8427
vn 0.0000 0.6043 0.7968
vn 0.8426 0.5386 0.0000
vn 0.8549 0.5168 -0.0464
vn 0.8622 0.5052 0.0370
vn 0.7969 0.6036 0.0260
vn 0.7827 0.6222 -0.0131
vn 0.7971 0.6038 0.0000
vn 0.8110 0.5850 -0.0132
vn 0.0000 0.6731 0.7395
vn 0.0000 1.0000 0.0000
vn 0.7393 0.6733 0.0000
vn -1.0000 0.0000 0.0000
vn -0.7393 0.6733 0.0000
vn 0.8426 0.5385 0.0000
usemtl Tex_0032_0.dds.006
s off
f 1/1/1 3/2/2 2/3/1
f 2/3/3 3/2/3 4/4/3
f 3/2/4 5/5/5 4/4/3
f 4/4/6 5/5/6 6/6/6
f 5/5/7 7/7/6 6/6/6
f 8/8/8 10/9/8 9/10/8
f 9/10/8 10/9/8 11/11/9
f 10/9/10 12/12/11 11/11/10
f 11/11/12 12/12/13 13/13/14
f 12/12/15 14/14/16 13/13/17
f 15/15/6 17/16/18 16/17/6
f 16/17/6 17/16/19 18/18/20
f 17/16/21 19/19/22 18/18/23
f 18/18/24 19/19/25 20/20/26
f 19/19/27 21/21/1 20/20/28
f 22/22/29 24/23/30 23/24/29
f 23/24/29 24/23/31 25/25/32
f 24/23/33 26/26/34 25/25/35
f 25/25/36 26/26/37 27/27/38
f 26/26/39 28/28/40 27/27/41
f 29/29/42 31/30/43 30/31/42
f 30/31/42 31/30/44 32/32/45
f 31/30/46 33/33/47 32/32/48
f 32/32/49 33/33/50 34/34/51
f 33/33/52 35/35/53 34/34/54
f 36/36/55 38/37/56 37/38/57
f 37/38/58 38/37/59 39/39/60
f 38/37/61 40/40/62 39/39/63
f 39/39/64 40/40/65 41/41/66
f 42/42/67 44/43/67 43/44/67
f 43/44/67 44/43/67 45/45/67
f 44/43/66 46/46/66 45/45/66
f 47/47/68 49/48/69 48/49/70
f 48/49/71 49/48/72 50/50/73
f 49/48/74 51/51/73 50/50/73
f 52/52/3 54/53/3 53/54/3
f 53/54/3 54/53/3 55/55/3
f 56/56/75 58/57/75 57/58/75
f 57/58/75 58/57/75 59/59/75
f 60/60/3 62/61/3 61/62/3
f 61/62/3 62/61/3 63/63/3
f 64/64/55 66/65/55 65/66/55
f 65/66/55 66/65/55 67/67/55
f 68/68/76 70/69/76 69/70/76
f 69/70/76 70/69/76 71/71/76
f 72/72/10 74/73/10 73/74/10
f 73/74/10 74/73/10 75/75/10
f 76/76/77 78/77/77 77/78/77
f 77/78/77 78/77/77 79/79/77
f 80/80/10 82/81/10 81/82/10
f 81/82/10 82/81/10 83/83/10
f 84/84/3 86/85/3 85/86/3
f 85/86/3 86/85/3 87/87/3
f 88/88/75 90/89/75 89/90/75
f 89/90/75 90/89/75 91/91/75
f 92/92/3 94/93/3 93/94/3
f 93/94/3 94/93/3 95/95/3
f 96/96/76 98/97/76 97/98/76
f 97/98/76 98/97/76 99/99/76
f 100/100/78 102/101/78 101/102/78
f 101/102/78 102/101/78 103/103/78
f 104/104/78 106/105/78 105/106/78
f 105/106/78 106/105/78 107/107/78
f 108/108/79 110/109/79 109/110/79
f 109/110/79 110/109/79 111/111/79
f 112/112/1 114/113/1 113/114/1
f 115/115/66 117/116/66 116/117/66
f 118/118/16 120/119/16 119/120/16
f 121/121/76 123/122/76 122/123/76
f 124/124/80 126/125/80 125/126/80
f 127/127/1 129/128/1 128/129/1
f 130/130/55 132/131/55 131/132/55
f 133/133/66 135/134/66 134/135/66
f 136/136/40 138/137/40 137/138/40
f 139/139/53 141/140/53 140/141/53
f 142/142/76 144/143/76 143/144/76
