# Blender v3.6.3 OBJ File: 'untitled.blend'
# www.blender.org
mtllib Mesh_0214.mtl
o Mesh_0214_Mesh.046
v 46.910423 3.668865 22.450020
v 43.735420 3.668864 22.449989
v 46.910423 3.527762 22.193192
v 43.735420 3.527767 22.193192
v 46.910423 3.386646 22.193192
v 43.735420 3.386645 22.193192
v 46.910423 3.245543 22.321671
v 43.735420 3.245548 22.321716
v -5.913647 1.561010 21.677269
v -5.876715 1.115641 21.640327
v -5.238960 1.561010 21.677269
v -5.238960 1.123043 21.677269
v -4.643646 1.561010 22.272568
v -4.643646 1.123042 22.272568
v -4.643646 1.561010 22.828194
v -4.643646 1.123043 22.828194
v -5.993023 33.654987 21.756645
v -5.993023 33.337486 21.756645
v -5.318335 33.654987 21.756645
v -5.318335 33.337486 21.756645
v -4.723019 33.654987 22.351944
v -4.723019 33.337486 22.351944
v -4.723021 33.337486 22.828194
v -4.842085 33.019985 22.828194
v 19.486349 1.561010 21.677269
v 19.523287 1.115641 21.640327
v 20.161036 1.561010 21.677269
v 20.161036 1.123043 21.677269
v 20.756350 1.561010 22.272568
v 20.756350 1.123042 22.272568
v 20.756350 1.561010 22.828194
v 20.756350 1.123043 22.828194
v 19.406973 33.654987 21.756645
v 19.406973 33.337486 21.756645
v 20.081663 33.654987 21.756645
v 20.081663 33.337486 21.756645
v 20.676981 33.654987 22.351944
v 20.676981 33.337486 22.351944
v 20.676977 33.337486 22.828194
v 20.557913 33.019985 22.828194
v 44.886360 4.101009 21.677261
v 44.923294 3.655641 21.640320
v 45.561043 4.101009 21.677254
v 45.561043 3.663042 21.677254
v 46.156357 4.101009 22.272568
v 46.156357 3.663042 22.272568
v 46.156357 4.101009 22.828194
v 46.156357 3.663042 22.828194
v 44.806984 33.647366 21.756645
v 44.806984 33.329865 21.756638
v 45.481667 33.647366 21.756630
v 45.481667 33.329865 21.756645
v 46.076981 33.647366 22.351944
v 46.076981 33.329865 22.351944
v 46.076981 33.329865 22.828194
v 45.957916 33.012363 22.828194
v 67.994034 4.101009 21.677246
v 67.970108 3.655641 21.653328
v 67.994034 4.101009 21.002563
v 67.994034 3.663042 21.002563
v 68.589340 4.101009 20.407272
v 68.589340 3.663042 20.407272
v 69.135422 4.101009 20.407265
v 69.135422 3.663042 20.407265
v 47.218178 4.603736 22.578499
v 47.051430 4.402647 22.450066
v 53.117393 4.402647 22.450066
v 46.910423 4.233305 22.321671
v 53.260445 4.233305 22.321678
v 46.910423 4.092202 22.450020
v 53.260445 4.092202 22.450035
v 46.910423 3.245543 22.321671
v 53.260445 3.386646 22.193192
v 46.910423 3.386646 22.193192
v 53.260445 3.527762 22.193192
v 46.910423 3.527762 22.193192
v 53.260445 3.668865 22.450035
v 46.910423 3.668865 22.450020
v 43.735420 4.092206 22.449989
v 46.910423 4.092202 22.450020
v 43.735420 4.233303 22.321716
v 46.910423 4.233305 22.321671
v 43.734428 4.402645 22.449989
v 46.767418 4.402645 22.449989
v 46.600288 4.603736 22.578506
v 59.918182 4.603736 22.578499
v 59.751427 4.402647 22.450066
v 65.817390 4.402647 22.450066
v 59.610443 4.233305 22.321671
v 65.960419 4.233305 22.321678
v 59.610443 4.092202 22.450027
v 65.960419 4.092202 22.450027
v 59.610443 3.245543 22.321671
v 65.960419 3.386646 22.193192
v 59.610443 3.386646 22.193192
v 65.960419 3.527762 22.193192
v 59.610443 3.527762 22.193192
v 65.960419 3.668865 22.450027
v 59.610443 3.668865 22.450027
v 66.270554 4.603736 22.578506
v 66.103432 4.402645 22.449989
v 69.136566 4.402645 22.449989
v 65.960419 4.233305 22.321678
v 69.135292 4.233303 22.321716
v 65.960419 4.092202 22.450027
v 69.135292 4.092206 22.449989
v 69.135292 3.668864 22.449989
v 65.960419 3.527762 22.193192
v 69.135292 3.527767 22.193192
v 65.960419 3.386646 22.193192
v 69.135292 3.386645 22.193192
v 65.960419 3.245543 22.321678
v 69.135292 3.245548 22.321716
v 18.643190 2.063736 22.578499
v 18.476439 1.862647 22.450066
v 24.542395 1.862647 22.450066
v 18.335417 1.693308 22.321632
v 24.685472 1.693306 22.321678
v 18.335417 1.552198 22.450066
v 24.685469 1.552202 22.450020
v 18.335417 0.705538 22.321632
v 24.685472 0.846646 22.193192
v 18.335417 0.846647 22.193192
v 24.685472 0.987762 22.193192
v 18.335417 0.987757 22.193192
v 24.685472 1.128865 22.450027
v 18.335417 1.128867 22.450066
v 37.693192 2.063736 22.578499
v 37.526436 1.862647 22.450066
v 43.592392 1.862647 22.450066
v 37.385490 1.693305 22.321671
v 43.735420 1.693308 22.321632
v 37.385490 1.552202 22.450027
v 43.735420 1.552198 22.450066
v 37.385490 0.705543 22.321671
v 43.735420 0.846647 22.193192
v 37.385490 0.846646 22.193192
v 43.735420 0.987757 22.193192
v 37.385490 0.987762 22.193192
v 43.735420 1.128867 22.450066
v 37.385490 1.128865 22.450027
v 37.385490 1.128865 22.450027
v 36.115570 1.128864 22.449989
v 37.385490 0.987762 22.193192
v 36.115570 0.987767 22.193192
v 37.385490 0.846646 22.193192
v 36.115570 0.846644 22.193192
v 36.115570 0.705548 22.321716
v 25.955526 0.705548 22.321716
v 25.955526 0.846645 22.193192
v 24.685472 0.846646 22.193192
v 25.955526 0.987767 22.193192
v 24.685472 0.987762 22.193192
v 25.955526 1.128864 22.449989
v 24.685472 1.128865 22.450027
v -6.756813 2.063736 22.578499
v -6.923565 1.862647 22.450066
v -0.857609 1.862647 22.450066
v -7.064585 1.693308 22.321617
v -0.714584 1.693308 22.321632
v -7.064585 1.552198 22.450066
v -0.714584 1.552198 22.450066
v -7.064585 0.705538 22.321617
v -0.714584 0.846647 22.193192
v -7.064585 0.846647 22.193192
v -0.714584 0.987757 22.193192
v -7.064585 0.987757 22.193192
v -0.714584 1.128867 22.450066
v -7.064585 1.128867 22.450066
v -0.406813 2.063736 22.578499
v -0.573565 1.862647 22.450066
v 5.492392 1.862647 22.450066
v -0.714584 1.693308 22.321632
v 5.635412 1.693308 22.321632
v -0.714584 1.552198 22.450066
v 5.635412 1.552198 22.450066
v -0.714584 0.705538 22.321632
v 5.635412 0.846647 22.193192
v -0.714584 0.846647 22.193192
v 5.635412 0.987757 22.193192
v -0.714584 0.987757 22.193192
v 5.635412 1.128867 22.450066
v -0.714584 1.128867 22.450066
v 5.943190 2.063736 22.578499
v 5.776434 1.862647 22.450066
v 11.842390 1.862647 22.450066
v 5.635412 1.693308 22.321632
v 11.985411 1.693308 22.321632
v 5.635412 1.552198 22.450066
v 11.985411 1.552198 22.450066
v 5.635412 0.705538 22.321632
v 11.985411 0.846647 22.193192
v 5.635412 0.846647 22.193192
v 11.985411 0.987757 22.193192
v 5.635412 0.987757 22.193192
v 11.985411 1.128867 22.450066
v 5.635412 1.128867 22.450066
v 12.293188 2.063736 22.578499
v 12.126432 1.862647 22.450066
v 18.192389 1.862647 22.450066
v 11.985411 1.693308 22.321632
v 18.335417 1.693308 22.321632
v 11.985411 1.552198 22.450066
v 18.335417 1.552198 22.450066
v 11.985411 0.705538 22.321632
v 18.335417 0.846647 22.193192
v 11.985411 0.846647 22.193192
v 18.335417 0.987757 22.193192
v 11.985411 0.987757 22.193192
v 18.335417 1.128867 22.450066
v 11.985411 1.128867 22.450066
v -8.136147 33.337486 21.756615
v -8.136147 33.337486 21.081940
v -8.136147 33.654987 21.081940
v -7.540834 33.337486 20.486649
v -7.540834 33.654987 20.486649
v -6.588335 33.337486 20.486649
v -6.588335 33.654987 20.486649
v 17.184473 1.561010 21.677238
v 17.160559 1.115641 21.653313
v 17.184473 1.561010 21.002563
v 17.184473 1.123043 21.002563
v 17.779787 1.561010 20.407272
v 17.779787 1.123043 20.407272
v 18.891035 1.123043 20.407272
v 17.263849 33.337486 21.756615
v 17.263849 33.337486 21.081940
v 17.263849 33.654987 21.081940
v 17.859163 33.337486 20.486649
v 17.859163 33.654987 20.486649
v 18.811663 33.337486 20.486649
v 18.811663 33.654987 20.486649
v 42.584480 4.101009 21.677246
v 42.560562 3.655641 21.653328
v 42.584480 4.101009 21.002563
v 42.584480 3.663042 21.002563
v 43.179794 4.101009 20.407272
v 43.179794 3.663042 20.407272
v 44.291046 3.663042 20.407257
v 42.663857 33.329865 21.756622
v 42.663857 33.329865 21.081940
v 42.663857 33.647366 21.081955
v 43.259171 33.329865 20.486633
v 43.259171 33.647366 20.486649
v 44.211670 33.329865 20.486649
v 44.211670 33.647366 20.486633
v 69.135422 33.019985 20.605690
v 69.135422 33.337486 20.486641
v 68.708405 33.019985 20.605690
v 68.668716 33.337486 20.486633
v 68.311531 33.019985 21.121628
v 68.073402 33.337486 21.081940
v 68.073402 33.337486 21.756622
v 59.610443 3.104427 22.193192
v 59.610443 2.539987 22.193192
v 65.960419 3.104427 22.193192
v 65.960419 2.539987 22.193192
v 69.135292 3.104425 22.193192
v 69.135292 2.539987 22.193192
v 59.610443 3.245543 22.321671
v 59.610443 3.104427 22.193192
v 65.960419 3.245543 22.321678
v 65.960419 3.104427 22.193192
v 69.135292 3.245548 22.321716
v 69.135292 3.104425 22.193192
v 59.610443 4.092202 22.450027
v 59.610443 3.668865 22.450027
v 65.960419 4.092202 22.450027
v 65.960419 3.668865 22.450027
v 69.135292 4.092206 22.449989
v 69.135292 3.668864 22.449989
v 53.260445 3.245543 22.321678
v 53.577972 3.386644 22.578506
v 53.260445 3.386646 22.193192
v 53.577972 3.527766 22.578506
v 53.260445 3.527762 22.193192
v 53.260445 3.668865 22.450035
v 25.003027 2.063736 22.578506
v 24.685472 1.862646 22.450027
v 25.955526 1.862645 22.449989
v 24.685472 1.693306 22.321678
v 25.955526 1.693303 22.321716
v 25.955526 1.552206 22.449989
v -6.588335 33.337486 20.486649
v -7.540834 33.337486 20.486649
v -7.501146 33.019985 20.605690
v -8.136147 33.337486 21.081940
v -7.898022 33.019985 21.121613
v -7.898022 33.019985 21.994736
v -6.588335 33.654987 20.486649
v -6.588335 33.337486 20.486649
v -5.993017 33.654987 21.081940
v -5.993017 33.337486 21.081940
v -5.993023 33.654987 21.756645
v -5.993023 33.337486 21.756645
v -6.231148 33.019985 21.994774
v -5.358023 33.019985 21.994736
v -5.318335 33.337486 21.756645
v -4.842085 33.019985 22.391647
v -4.723019 33.337486 22.351944
v -4.842085 33.019985 22.828194
v 18.811663 33.337486 20.486649
v 17.859163 33.337486 20.486649
v 17.898848 33.019985 20.605690
v 17.263849 33.337486 21.081940
v 17.501974 33.019985 21.121613
v 17.501974 33.019985 21.994736
v 18.811663 33.654987 20.486649
v 18.811663 33.337486 20.486649
v 19.406981 33.654987 21.081940
v 19.406981 33.337486 21.081940
v 19.406973 33.654987 21.756645
v 19.406973 33.337486 21.756645
v 19.168848 33.019985 21.994774
v 20.041975 33.019985 21.994736
v 20.081663 33.337486 21.756645
v 20.557913 33.019985 22.391647
v 20.676981 33.337486 22.351944
v 20.557913 33.019985 22.828194
v 44.211670 33.329865 20.486649
v 43.259171 33.329865 20.486633
v 43.298859 33.012363 20.605690
v 42.663857 33.329865 21.081940
v 42.901985 33.012363 21.121628
v 42.901985 33.012363 21.994743
v 44.211670 33.647366 20.486633
v 44.211670 33.329865 20.486649
v 44.806984 33.647366 21.081940
v 44.806984 33.329865 21.081940
v 44.806984 33.647366 21.756645
v 44.806984 33.329865 21.756638
v 44.568855 33.012363 21.994759
v 45.441986 33.012363 21.994759
v 45.481667 33.329865 21.756645
v 45.957916 33.012363 22.391632
v 46.076981 33.329865 22.351944
v 45.957916 33.012363 22.828194
v 68.073402 33.337486 21.756622
v 68.073402 33.337486 21.081940
v 68.073402 33.654987 21.081955
v 68.668716 33.337486 20.486633
v 68.668716 33.654987 20.486649
v 69.135422 33.654987 20.486641
v 66.922470 33.019985 22.828194
v 66.922470 33.019985 22.391624
v 66.803398 33.337486 22.828194
v 66.803406 33.337486 22.351944
v 66.803398 33.654987 22.828194
v 66.803406 33.654987 22.351936
v 59.610443 3.527762 22.193192
v 59.292976 3.527766 22.578506
v 59.610443 3.386646 22.193192
v 59.292976 3.386644 22.578506
v 59.610443 3.245543 22.321671
v 43.735420 -0.000013 22.193192
v 43.735420 0.564428 22.193192
v 37.385490 -0.000013 22.193192
v 37.385490 0.564427 22.193192
v 36.115570 0.564425 22.193192
v 43.735420 0.564428 22.193192
v 43.735420 0.705538 22.321632
v 37.385490 0.564427 22.193192
v 37.385490 0.705543 22.321671
v 36.115570 0.705548 22.321716
v 43.735420 1.128867 22.450066
v 43.735420 1.552198 22.450066
v 37.385490 1.128865 22.450027
v 37.385490 1.552202 22.450027
v 36.115570 1.552205 22.449989
v 36.115570 1.693303 22.321716
v 37.385490 1.693305 22.321671
v 36.115570 1.862644 22.449989
v 37.385490 1.862645 22.450027
v 37.068069 2.063736 22.578506
v -6.588335 33.337486 20.486649
v -6.628021 33.019985 20.605690
v -5.993017 33.337486 21.081940
v -6.231148 33.019985 21.121643
v -6.231148 33.019985 21.994774
v -5.876715 1.115641 21.640327
v -5.913647 1.561010 21.002563
v -5.913647 1.123043 21.002563
v -6.508959 1.561010 20.407272
v -6.508959 1.123043 20.407272
v -9.406147 33.337486 22.351944
v -9.287085 33.019985 22.391617
v -8.810835 33.337486 21.756615
v -8.771147 33.019985 21.994736
v -7.898022 33.019985 21.994736
v -8.136147 33.337486 21.756615
v -8.810835 33.654987 21.756615
v -8.810835 33.337486 21.756615
v -9.406147 33.654987 22.351944
v -9.406147 33.337486 22.351944
v -9.287085 33.019985 22.828194
v -9.406147 33.337486 22.351944
v -9.406151 33.337486 22.828194
v -9.406147 33.654987 22.351944
v -9.406151 33.654987 22.828194
v 18.811663 33.337486 20.486649
v 18.771975 33.019985 20.605690
v 19.406981 33.337486 21.081940
v 19.168848 33.019985 21.121643
v 19.168848 33.019985 21.994774
v 19.523287 1.115641 21.640327
v 19.486349 1.561010 21.002563
v 19.486349 1.123043 21.002563
v 18.891035 1.561010 20.407272
v 18.891035 1.123043 20.407272
v 17.160559 1.115641 21.653313
v 16.509787 1.561010 21.677238
v 16.509787 1.123043 21.677238
v 15.914476 1.561010 22.272568
v 15.914476 1.123042 22.272568
v 15.993849 33.337486 22.351944
v 16.112913 33.019985 22.391617
v 16.589163 33.337486 21.756615
v 16.628851 33.019985 21.994736
v 17.501974 33.019985 21.994736
v 17.263849 33.337486 21.756615
v 16.589163 33.654987 21.756615
v 16.589163 33.337486 21.756615
v 15.993849 33.654987 22.351944
v 15.993849 33.337486 22.351944
v 16.112913 33.019985 22.828194
v 15.993849 33.337486 22.351944
v 15.993849 33.337486 22.828194
v 15.993849 33.654987 22.351944
v 15.993849 33.654987 22.828194
v 44.211670 33.329865 20.486649
v 44.171982 33.012363 20.605690
v 44.806984 33.329865 21.081940
v 44.568855 33.012363 21.121628
v 44.568855 33.012363 21.994759
v 44.923294 3.655641 21.640320
v 44.886360 4.101009 21.002563
v 44.886360 3.663042 21.002563
v 44.291046 4.101009 20.407257
v 44.291046 3.663042 20.407257
v 42.560562 3.655641 21.653328
v 41.909798 4.101009 21.677246
v 41.909798 3.663042 21.677246
v 41.314484 4.101009 22.272560
v 41.314484 3.663042 22.272560
v 41.393860 33.329865 22.351944
v 41.512917 33.012363 22.391624
v 41.989174 33.329865 21.756622
v 42.028854 33.012363 21.994743
v 42.901985 33.012363 21.994743
v 42.663857 33.329865 21.756622
v 41.989174 33.647366 21.756622
v 41.989174 33.329865 21.756622
v 41.393860 33.647366 22.351936
v 41.393860 33.329865 22.351944
v 41.512917 33.012363 22.828194
v 41.393860 33.329865 22.351944
v 41.393860 33.329865 22.828194
v 41.393860 33.647366 22.351936
v 41.393860 33.647366 22.828194
v 67.970108 3.655641 21.653328
v 67.319344 4.101009 21.677246
v 67.319344 3.663042 21.677246
v 66.724030 4.101009 22.272560
v 66.724030 3.663042 22.272560
v 68.311531 33.019985 21.994743
v 68.073402 33.337486 21.756622
v 67.438408 33.019985 21.994743
v 67.398720 33.337486 21.756622
v 66.803406 33.337486 22.351944
v 68.073402 33.337486 21.756622
v 67.398720 33.654987 21.756622
v 67.398720 33.337486 21.756622
v 66.803406 33.654987 22.351936
v 66.803406 33.337486 22.351944
v 52.950371 4.603736 22.828194
v 47.218178 4.603736 22.828194
v 52.950371 4.603736 22.578499
v 47.218178 4.603736 22.578499
v 53.260445 2.539987 22.193192
v 53.260445 3.104427 22.193192
v 46.910423 2.539987 22.193192
v 46.910423 3.104427 22.193192
v 53.260445 3.104427 22.193192
v 53.260445 3.245543 22.321678
v 46.910423 3.104427 22.193192
v 46.910423 3.245543 22.321671
v 53.260445 3.668865 22.450035
v 53.260445 4.092202 22.450035
v 46.910423 3.668865 22.450020
v 46.910423 4.092202 22.450020
v 43.734276 4.603736 22.578506
v 46.600288 4.603736 22.578506
v 43.734276 4.603736 22.828194
v 46.600288 4.603736 22.828194
v 46.910423 4.092202 22.450020
v 43.735420 4.092206 22.449989
v 46.910423 3.668865 22.450020
v 43.735420 3.668864 22.449989
v 46.910423 3.245543 22.321671
v 43.735420 3.245548 22.321716
v 46.910423 3.104427 22.193192
v 43.735420 3.104425 22.193192
v 46.910423 3.104427 22.193192
v 43.735420 3.104425 22.193192
v 46.910423 2.539987 22.193192
v 43.735420 2.539987 22.193192
v 65.650375 4.603736 22.828194
v 59.918182 4.603736 22.828194
v 65.650375 4.603736 22.578499
v 59.918182 4.603736 22.578499
v 65.817390 4.402647 22.450066
v 65.960419 4.233305 22.321678
v 65.960419 4.402646 22.450020
v 66.103432 4.402645 22.449989
v 69.136566 4.603736 22.578506
v 69.136566 4.603736 22.828194
v 66.270554 4.603736 22.578506
v 66.270554 4.603736 22.828194
v 59.292976 4.603735 22.578506
v 59.292976 4.402644 22.578506
v 59.610443 4.402646 22.450027
v 59.292976 4.233302 22.578506
v 53.577972 4.603735 22.578506
v 53.260445 4.402646 22.450027
v 53.577972 4.402644 22.578506
v 53.577972 4.233302 22.578506
v 59.610443 4.402646 22.450027
v 59.292976 4.233302 22.578506
v 59.610443 4.233305 22.321671
v 59.610443 4.092202 22.450027
v 53.260445 4.402646 22.450027
v 53.260445 4.233305 22.321678
v 53.577972 4.233302 22.578506
v 53.260445 4.092202 22.450035
v 59.610443 3.104427 22.193192
v 59.292976 3.104425 22.578506
v 59.610443 2.539987 22.193192
v 59.292976 2.539986 22.578506
v 53.577972 2.539986 22.578506
v 53.577972 3.104425 22.578506
v 53.260445 2.539987 22.193192
v 53.260445 3.104427 22.193192
v 59.610443 4.092202 22.450027
v 59.292976 4.092206 22.578506
v 59.610443 3.668865 22.450027
v 59.292976 3.668864 22.578506
v 53.577972 3.668864 22.578506
v 53.577972 4.092206 22.578506
v 53.260445 3.668865 22.450035
v 53.260445 4.092202 22.450035
v 24.375376 2.063737 22.828194
v 18.643190 2.063737 22.828194
v 24.375368 2.063736 22.578499
v 18.643190 2.063736 22.578499
v 24.685472 -0.000013 22.193192
v 24.685469 0.564427 22.193192
v 18.335417 -0.000013 22.193192
v 18.335417 0.564428 22.193192
v 24.685469 0.564427 22.193192
v 24.685472 0.705543 22.321678
v 18.335417 0.564428 22.193192
v 18.335417 0.705538 22.321632
v 24.685472 1.128865 22.450027
v 24.685469 1.552202 22.450020
v 18.335417 1.128867 22.450066
v 18.335417 1.552198 22.450066
v 43.425377 2.063737 22.828194
v 37.693192 2.063737 22.828194
v 43.425377 2.063736 22.578499
v 37.693192 2.063736 22.578499
v 36.115570 2.063737 22.578506
v 37.068069 2.063736 22.578506
v 36.115570 2.063736 22.828194
v 37.068062 2.063736 22.828194
v 36.115570 1.693303 22.321716
v 36.115570 1.552205 22.449989
v 37.385490 1.693305 22.321671
v 37.385490 1.552202 22.450027
v 25.955526 -0.000013 22.193192
v 25.955523 0.564425 22.193192
v 24.685472 -0.000013 22.193192
v 24.685469 0.564427 22.193192
v 25.955523 0.564425 22.193192
v 25.955526 0.705548 22.321716
v 24.685469 0.564427 22.193192
v 24.685472 0.705543 22.321678
v 25.955526 2.063736 22.578506
v 25.955526 2.063736 22.828194
v 25.003027 2.063736 22.578506
v 25.003027 2.063736 22.828194
v 24.685469 1.552202 22.450020
v 24.685472 1.128865 22.450027
v 25.955526 1.552206 22.449989
v 25.955526 1.128864 22.449989
v -1.024626 2.063737 22.828194
v -6.756813 2.063737 22.828194
v -1.024632 2.063736 22.578499
v -6.756813 2.063736 22.578499
v -0.714584 -0.000013 22.193192
v -0.714584 0.564428 22.193192
v -7.064585 -0.000013 22.193192
v -7.064585 0.564428 22.193192
v -0.714584 0.564428 22.193192
v -0.714584 0.705538 22.321632
v -7.064585 0.564428 22.193192
v -7.064585 0.705538 22.321617
v -0.714584 1.128867 22.450066
v -0.714584 1.552198 22.450066
v -7.064585 1.128867 22.450066
v -7.064585 1.552198 22.450066
v 5.325373 2.063737 22.828194
v -0.406813 2.063737 22.828194
v 5.325365 2.063736 22.578499
v -0.406813 2.063736 22.578499
v 5.635412 -0.000013 22.193192
v 5.635412 0.564428 22.193192
v -0.714584 -0.000013 22.193192
v -0.714584 0.564428 22.193192
v 5.635412 0.564428 22.193192
v 5.635412 0.705538 22.321632
v -0.714584 0.564428 22.193192
v -0.714584 0.705538 22.321632
v 5.635412 1.128867 22.450066
v 5.635412 1.552198 22.450066
v -0.714584 1.128867 22.450066
v -0.714584 1.552198 22.450066
v 11.675371 2.063737 22.828194
v 5.943190 2.063737 22.828194
v 11.675371 2.063736 22.578499
v 5.943190 2.063736 22.578499
v 11.985411 -0.000013 22.193192
v 11.985411 0.564428 22.193192
v 5.635412 -0.000013 22.193192
v 5.635412 0.564428 22.193192
v 11.985411 0.564428 22.193192
v 11.985411 0.705538 22.321632
v 5.635412 0.564428 22.193192
v 5.635412 0.705538 22.321632
v 11.985411 1.128867 22.450066
v 11.985411 1.552198 22.450066
v 5.635412 1.128867 22.450066
v 5.635412 1.552198 22.450066
v 18.025370 2.063737 22.828194
v 12.293188 2.063737 22.828194
v 18.025366 2.063736 22.578499
v 12.293188 2.063736 22.578499
v 18.335417 -0.000013 22.193192
v 18.335417 0.564428 22.193192
v 11.985411 -0.000013 22.193192
v 11.985411 0.564428 22.193192
v 18.335417 0.564428 22.193192
v 18.335417 0.705538 22.321632
v 11.985411 0.564428 22.193192
v 11.985411 0.705538 22.321632
v 18.335417 1.128867 22.450066
v 18.335417 1.552198 22.450066
v 11.985411 1.128867 22.450066
v 11.985411 1.552198 22.450066
v -7.620209 1.123043 20.407272
v -6.508959 1.123043 20.407272
v -7.620209 1.561010 20.407272
v -6.508959 1.561010 20.407272
v 15.914476 1.123043 22.828194
v 15.914476 1.123042 22.272568
v 15.914476 1.561010 22.828194
v 15.914476 1.561010 22.272568
v 41.314484 3.663042 22.828194
v 41.314484 3.663042 22.272560
v 41.314484 4.101009 22.828194
v 41.314484 4.101009 22.272560
v 66.724030 3.663042 22.828194
v 66.724030 3.663042 22.272560
v 66.724030 4.101009 22.828194
v 66.724030 4.101009 22.272560
v 53.117393 4.402647 22.450066
v 52.950371 4.603736 22.578499
v 47.218178 4.603736 22.578499
v 53.117393 4.402647 22.450066
v 53.260445 4.233305 22.321678
v 53.260445 4.402646 22.450027
v 46.910423 4.233305 22.321671
v 47.051430 4.402647 22.450066
v 46.910423 4.402646 22.450020
v 53.260445 3.386646 22.193192
v 46.910423 3.245543 22.321671
v 53.260445 3.245543 22.321678
v 46.767418 4.402645 22.449989
v 46.910423 4.233305 22.321671
v 46.910423 4.402646 22.450020
v 46.600288 4.603736 22.578506
v 43.734276 4.603736 22.578506
v 43.734428 4.402645 22.449989
v 65.817390 4.402647 22.450066
v 65.650375 4.603736 22.578499
v 59.918182 4.603736 22.578499
v 59.610443 4.233305 22.321671
v 59.751427 4.402647 22.450066
v 59.610443 4.402646 22.450027
v 65.960419 3.386646 22.193192
v 59.610443 3.245543 22.321671
v 65.960419 3.245543 22.321678
v 69.136566 4.603736 22.578506
v 66.270554 4.603736 22.578506
v 69.136566 4.402645 22.449989
v 65.960419 3.527762 22.193192
v 69.135292 3.668864 22.449989
v 65.960419 3.668865 22.450027
v 59.610443 3.245543 22.321671
v 59.292976 3.104425 22.578506
v 59.610443 3.104427 22.193192
v 59.292976 3.245547 22.578506
v 59.292976 3.104425 22.578506
v 59.610443 3.245543 22.321671
v 53.577972 3.104425 22.578506
v 53.260445 3.245543 22.321678
v 53.260445 3.104427 22.193192
v 53.577972 3.245547 22.578506
v 53.260445 3.245543 22.321678
v 53.577972 3.104425 22.578506
v 59.292976 3.386644 22.578506
v 59.292976 3.245547 22.578506
v 59.610443 3.245543 22.321671
v 53.577972 3.386644 22.578506
v 53.260445 3.245543 22.321678
v 53.577972 3.245547 22.578506
v 59.610443 3.668865 22.450027
v 59.292976 3.527766 22.578506
v 59.610443 3.527762 22.193192
v 59.292976 3.668864 22.578506
v 59.292976 3.527766 22.578506
v 59.610443 3.668865 22.450027
v 53.577972 3.668864 22.578506
v 53.260445 3.668865 22.450035
v 53.577972 3.527766 22.578506
v 53.577972 4.092206 22.578506
v 53.577972 4.233302 22.578506
v 53.260445 4.092202 22.450035
v 59.292976 4.092206 22.578506
v 59.610443 4.092202 22.450027
v 59.292976 4.233302 22.578506
v 24.542395 1.862647 22.450066
v 24.375368 2.063736 22.578499
v 18.643190 2.063736 22.578499
v 24.542395 1.862647 22.450066
v 24.685472 1.693306 22.321678
v 24.685472 1.862646 22.450027
v 18.335417 1.693308 22.321632
v 18.476439 1.862647 22.450066
v 18.335417 1.862647 22.450066
v 24.685472 0.846646 22.193192
v 18.335417 0.705538 22.321632
v 24.685472 0.705543 22.321678
v 43.592392 1.862647 22.450066
v 43.425377 2.063736 22.578499
v 37.693192 2.063736 22.578499
v 43.592392 1.862647 22.450066
v 43.735420 1.693308 22.321632
v 43.735420 1.862647 22.450066
v 37.385490 1.693305 22.321671
v 37.526436 1.862647 22.450066
v 37.385490 1.862645 22.450027
v 43.735420 0.846647 22.193192
v 37.385490 0.705543 22.321671
v 43.735420 0.705538 22.321632
v 37.385490 -0.000013 22.193192
v 36.115570 0.564425 22.193192
v 36.115570 -0.000013 22.193192
v 37.385490 0.564427 22.193192
v 36.115570 0.705548 22.321716
v 36.115570 0.564425 22.193192
v 36.115570 0.705548 22.321716
v 37.385490 0.705543 22.321671
v 37.385490 0.846646 22.193192
v 37.068069 2.063736 22.578506
v 36.115570 2.063737 22.578506
v 36.115570 1.862644 22.449989
v 36.115570 1.552205 22.449989
v 36.115570 1.128864 22.449989
v 37.385490 1.128865 22.450027
v 24.685472 0.705543 22.321678
v 25.955526 0.705548 22.321716
v 24.685472 0.846646 22.193192
v 25.955526 2.063736 22.578506
v 25.003027 2.063736 22.578506
v 25.955526 1.862645 22.449989
v 24.685469 1.552202 22.450020
v 25.955526 1.552206 22.449989
v 24.685472 1.693306 22.321678
v -0.857609 1.862647 22.450066
v -1.024632 2.063736 22.578499
v -6.756813 2.063736 22.578499
v -0.857609 1.862647 22.450066
v -0.714584 1.693308 22.321632
v -0.714584 1.862647 22.450066
v -7.064585 1.693308 22.321617
v -6.923565 1.862647 22.450066
v -7.064585 1.862647 22.450066
v -0.714584 0.846647 22.193192
v -7.064585 0.705538 22.321617
v -0.714584 0.705538 22.321632
v 5.492392 1.862647 22.450066
v 5.325365 2.063736 22.578499
v -0.406813 2.063736 22.578499
v 5.492392 1.862647 22.450066
v 5.635412 1.693308 22.321632
v 5.635412 1.862647 22.450066
v -0.714584 1.693308 22.321632
v -0.573565 1.862647 22.450066
v -0.714584 1.862647 22.450066
v 5.635412 0.846647 22.193192
v -0.714584 0.705538 22.321632
v 5.635412 0.705538 22.321632
v 11.842390 1.862647 22.450066
v 11.675371 2.063736 22.578499
v 5.943190 2.063736 22.578499
v 11.842390 1.862647 22.450066
v 11.985411 1.693308 22.321632
v 11.985411 1.862647 22.450066
v 5.635412 1.693308 22.321632
v 5.776434 1.862647 22.450066
v 5.635412 1.862647 22.450066
v 11.985411 0.846647 22.193192
v 5.635412 0.705538 22.321632
v 11.985411 0.705538 22.321632
v 18.192389 1.862647 22.450066
v 18.025366 2.063736 22.578499
v 12.293188 2.063736 22.578499
v 18.192389 1.862647 22.450066
v 18.335417 1.693308 22.321632
v 18.335417 1.862647 22.450066
v 11.985411 1.693308 22.321632
v 12.126432 1.862647 22.450066
v 11.985411 1.862647 22.450066
v 18.335417 0.846647 22.193192
v 11.985411 0.705538 22.321632
v 18.335417 0.705538 22.321632
v -6.628021 33.019985 20.605690
v -6.588335 33.337486 20.486649
v -7.501146 33.019985 20.605690
v -5.993017 33.337486 21.081940
v -6.231148 33.019985 21.994774
v -5.993023 33.337486 21.756645
v -5.913647 1.561010 21.002563
v -5.876715 1.115641 21.640327
v -5.913647 1.561010 21.677269
v -8.136147 33.337486 21.081940
v -8.136147 33.337486 21.756615
v -7.898022 33.019985 21.994736
v -5.318335 33.337486 21.756645
v -5.993023 33.337486 21.756645
v -6.231148 33.019985 21.994774
v -8.810835 33.337486 21.756615
v -7.898022 33.019985 21.994736
v -8.136147 33.337486 21.756615
v -8.136147 33.654987 21.756615
v -8.136147 33.337486 21.756615
v -8.136147 33.654987 21.081940
v -8.136147 33.337486 21.756615
v -8.136147 33.654987 21.756615
v -8.810835 33.654987 21.756615
v -4.723019 33.654987 22.351944
v -4.723021 33.337486 22.828194
v -4.723021 33.654987 22.828194
v -9.287085 33.019985 22.391617
v -9.406147 33.337486 22.351944
v -9.287085 33.019985 22.828194
v 18.771975 33.019985 20.605690
v 18.811663 33.337486 20.486649
v 17.898848 33.019985 20.605690
v 19.406981 33.337486 21.081940
v 19.168848 33.019985 21.994774
v 19.406973 33.337486 21.756645
v 19.486349 1.561010 21.002563
v 19.523287 1.115641 21.640327
v 19.486349 1.561010 21.677269
v 17.263849 33.337486 21.081940
v 17.263849 33.337486 21.756615
v 17.501974 33.019985 21.994736
v 20.081663 33.337486 21.756645
v 19.406973 33.337486 21.756645
v 19.168848 33.019985 21.994774
v 18.891035 1.123043 20.407272
v 18.891035 1.561010 20.407272
v 17.779787 1.561010 20.407272
v 16.509787 1.561010 21.677238
v 17.160559 1.115641 21.653313
v 17.184473 1.561010 21.677238
v 16.589163 33.337486 21.756615
v 17.501974 33.019985 21.994736
v 17.263849 33.337486 21.756615
v 17.263849 33.654987 21.756615
v 17.263849 33.337486 21.756615
v 17.263849 33.654987 21.081940
v 17.263849 33.337486 21.756615
v 17.263849 33.654987 21.756615
v 16.589163 33.654987 21.756615
v 20.676981 33.654987 22.351944
v 20.676977 33.337486 22.828194
v 20.676977 33.654987 22.828194
v 16.112913 33.019985 22.391617
v 15.993849 33.337486 22.351944
v 16.112913 33.019985 22.828194
v 44.171982 33.012363 20.605690
v 44.211670 33.329865 20.486649
v 43.298859 33.012363 20.605690
v 44.806984 33.329865 21.081940
v 44.568855 33.012363 21.994759
v 44.806984 33.329865 21.756638
v 44.886360 4.101009 21.002563
v 44.923294 3.655641 21.640320
v 44.886360 4.101009 21.677261
v 42.663857 33.329865 21.081940
v 42.663857 33.329865 21.756622
v 42.901985 33.012363 21.994743
v 45.481667 33.329865 21.756645
v 44.806984 33.329865 21.756638
v 44.568855 33.012363 21.994759
v 44.291046 3.663042 20.407257
v 44.291046 4.101009 20.407257
v 43.179794 4.101009 20.407272
v 41.909798 4.101009 21.677246
v 42.560562 3.655641 21.653328
v 42.584480 4.101009 21.677246
v 41.989174 33.329865 21.756622
v 42.901985 33.012363 21.994743
v 42.663857 33.329865 21.756622
v 42.663857 33.647366 21.756622
v 42.663857 33.329865 21.756622
v 42.663857 33.647366 21.081955
v 42.663857 33.329865 21.756622
v 42.663857 33.647366 21.756622
v 41.989174 33.647366 21.756622
v 46.076981 33.647366 22.351944
v 46.076981 33.329865 22.828194
v 46.076981 33.647366 22.828194
v 41.512917 33.012363 22.391624
v 41.393860 33.329865 22.351944
v 41.512917 33.012363 22.828194
v 67.319344 4.101009 21.677246
v 67.970108 3.655641 21.653328
v 67.994034 4.101009 21.677246
v 67.438408 33.019985 21.994743
v 66.803406 33.337486 22.351944
v 66.922470 33.019985 22.391624
v 68.073402 33.337486 21.756622
v 68.073402 33.654987 21.756622
v 67.398720 33.654987 21.756622
v 68.311531 33.019985 21.121628
v 68.073402 33.337486 21.756622
v 68.311531 33.019985 21.994743
v 68.073402 33.654987 21.756622
v 68.073402 33.337486 21.756622
v 68.073402 33.654987 21.081955
v 69.135422 33.654987 20.486641
v 68.668716 33.337486 20.486633
v 69.135422 33.337486 20.486641
vt -0.500977 -1.770508
vt -0.500977 -2.196289
vt 0.498047 -1.770508
vt 0.498047 -2.196289
vt -0.500977 -2.070312
vt 0.498047 -2.070312
vt -0.500977 -1.694336
vt 0.498047 -1.694336
vt 2.503906 -0.344727
vt 2.324219 -0.344727
vt 2.503906 -0.657227
vt 2.324219 -0.657227
vt 2.003906 -0.344727
vt 2.003906 -0.657227
vt 2.164062 -0.344727
vt 2.164062 -0.657227
vt -0.489258 -1.000000
vt -0.059570 -1.000000
vt -0.489258 -1.311523
vt -0.059570 -1.311523
vt 0.413086 -1.000000
vt 0.413086 -1.311523
vt 0.176758 -1.311523
vt 0.176758 -1.624023
vt 2.503906 -0.344727
vt 2.324219 -0.344727
vt 2.503906 -0.657227
vt 2.324219 -0.657227
vt 2.003906 -0.344727
vt 2.003906 -0.657227
vt 2.164062 -0.344727
vt 2.164062 -0.657227
vt -0.489258 -1.000000
vt -0.059570 -1.000000
vt -0.489258 -1.311523
vt -0.059570 -1.311523
vt 0.413086 -1.000000
vt 0.413086 -1.311523
vt 0.176758 -1.311523
vt 0.176758 -1.624023
vt 2.503906 -0.344727
vt 2.324219 -0.344727
vt 2.503906 -0.657227
vt 2.324219 -0.657227
vt 2.003906 -0.344727
vt 2.003906 -0.657227
vt 2.164062 -0.344727
vt 2.164062 -0.657227
vt -0.489258 -1.000000
vt -0.059570 -1.000000
vt -0.489258 -1.311523
vt -0.059570 -1.311523
vt 0.413086 -1.000000
vt 0.413086 -1.311523
vt 0.176758 -1.311523
vt 0.176758 -1.624023
vt 2.503906 -0.344727
vt 2.324219 -0.344727
vt 2.503906 -0.657227
vt 2.324219 -0.657227
vt 2.003906 -0.344727
vt 2.003906 -0.657227
vt 2.162109 -0.344727
vt 2.162109 -0.657227
vt 2.416992 1.045898
vt 0.556641 0.830078
vt 2.453125 0.828125
vt 2.502930 0.655273
vt 0.495117 0.655273
vt 2.496094 0.794922
vt 0.501953 0.794922
vt 1.497070 -1.694336
vt 1.497070 -2.070312
vt -0.500977 -2.070312
vt -0.500977 -2.196289
vt 1.497070 -2.196289
vt -0.500977 -1.770508
vt 1.497070 -1.770508
vt 1.499023 0.794922
vt 1.499023 0.655273
vt 0.501953 0.794922
vt 0.495117 0.655273
vt 1.504883 0.829102
vt 0.556641 0.830078
vt 0.577148 1.047852
vt 2.416992 1.045898
vt 0.556641 0.830078
vt 2.453125 0.828125
vt 2.502930 0.655273
vt 0.495117 0.655273
vt 2.496094 0.794922
vt 0.501953 0.794922
vt 1.497070 -1.694336
vt 1.497070 -2.070312
vt -0.500977 -2.070312
vt -0.500977 -2.196289
vt 1.497070 -2.196289
vt -0.500977 -1.770508
vt 1.497070 -1.770508
vt 0.577148 1.047852
vt 1.504883 0.829102
vt 0.556641 0.830078
vt 0.495117 0.655273
vt 1.499023 0.655273
vt 0.501953 0.794922
vt 1.499023 0.794922
vt 0.498047 -1.770508
vt 0.498047 -2.196289
vt -0.500977 -2.196289
vt -0.500977 -2.070312
vt 0.498047 -2.070312
vt -0.500977 -1.694336
vt 0.498047 -1.694336
vt 2.416992 1.045898
vt 0.556641 0.830078
vt 2.453125 0.828125
vt 2.502930 0.655273
vt 0.495117 0.655273
vt 2.496094 0.794922
vt 0.501953 0.794922
vt 1.497070 -1.694336
vt 1.497070 -2.070312
vt -0.500977 -2.070312
vt -0.500977 -2.196289
vt 1.497070 -2.196289
vt -0.500977 -1.770508
vt 1.497070 -1.770508
vt 2.416992 1.045898
vt 0.556641 0.830078
vt 2.453125 0.828125
vt 2.502930 0.655273
vt 0.495117 0.655273
vt 2.496094 0.794922
vt 0.501953 0.794922
vt 1.497070 -1.694336
vt 1.497070 -2.070312
vt -0.500977 -2.070312
vt -0.500977 -2.196289
vt 1.497070 -2.196289
vt -0.500977 -1.770508
vt 1.497070 -1.770508
vt 1.497070 -1.770508
vt 1.497070 -2.196289
vt 1.087891 -1.770508
vt 1.087891 -2.196289
vt 1.497070 -2.070312
vt 1.087891 -2.070312
vt 1.087891 -1.694336
vt 1.087891 -1.694336
vt 1.497070 -2.070312
vt 1.087891 -2.070312
vt 1.087891 -2.196289
vt 1.497070 -2.196289
vt 1.087891 -1.770508
vt 1.497070 -1.770508
vt 2.416992 1.045898
vt 0.556641 0.830078
vt 2.453125 0.828125
vt 2.502930 0.655273
vt 0.495117 0.655273
vt 2.496094 0.794922
vt 0.501953 0.794922
vt 1.497070 -1.694336
vt 1.497070 -2.070312
vt -0.500977 -2.070312
vt -0.500977 -2.196289
vt 1.497070 -2.196289
vt -0.500977 -1.770508
vt 1.497070 -1.770508
vt 2.416992 1.045898
vt 0.556641 0.830078
vt 2.453125 0.828125
vt 2.502930 0.655273
vt 0.495117 0.655273
vt 2.496094 0.794922
vt 0.501953 0.794922
vt 1.497070 -1.694336
vt 1.497070 -2.070312
vt -0.500977 -2.070312
vt -0.500977 -2.196289
vt 1.497070 -2.196289
vt -0.500977 -1.770508
vt 1.497070 -1.770508
vt 2.416992 1.045898
vt 0.556641 0.830078
vt 2.453125 0.828125
vt 2.502930 0.655273
vt 0.495117 0.655273
vt 2.496094 0.794922
vt 0.501953 0.794922
vt 1.497070 -1.694336
vt 1.497070 -2.070312
vt -0.500977 -2.070312
vt -0.500977 -2.196289
vt 1.497070 -2.196289
vt -0.500977 -1.770508
vt 1.497070 -1.770508
vt 2.416992 1.045898
vt 0.556641 0.830078
vt 2.453125 0.828125
vt 2.502930 0.655273
vt 0.495117 0.655273
vt 2.496094 0.794922
vt 0.501953 0.794922
vt 1.497070 -1.694336
vt 1.497070 -2.070312
vt -0.500977 -2.070312
vt -0.500977 -2.196289
vt 1.497070 -2.196289
vt -0.500977 -1.770508
vt 1.497070 -1.770508
vt -0.489258 -1.311523
vt -0.059570 -1.000000
vt -0.059570 -1.311523
vt 0.413086 -1.311523
vt 0.413086 -1.000000
vt -0.059570 -1.311523
vt -0.059570 -1.000000
vt 2.503906 -0.344727
vt 2.324219 -0.344727
vt 2.503906 -0.657227
vt 2.324219 -0.657227
vt 2.003906 -0.344727
vt 2.003906 -0.657227
vt 2.324219 -0.657227
vt -0.489258 -1.311523
vt -0.059570 -1.000000
vt -0.059570 -1.311523
vt 0.413086 -1.311523
vt 0.413086 -1.000000
vt -0.059570 -1.311523
vt -0.059570 -1.000000
vt 2.503906 -0.344727
vt 2.324219 -0.344727
vt 2.503906 -0.657227
vt 2.324219 -0.657227
vt 2.003906 -0.344727
vt 2.003906 -0.657227
vt 2.324219 -0.657227
vt -0.489258 -1.311523
vt -0.059570 -1.000000
vt -0.059570 -1.311523
vt 0.413086 -1.311523
vt 0.413086 -1.000000
vt -0.059570 -1.311523
vt -0.059570 -1.000000
vt 0.181641 -1.624023
vt 0.413086 -1.624023
vt 0.181641 -1.311523
vt 0.413086 -1.311523
vt -0.059570 -1.624023
vt -0.059570 -1.311523
vt -0.489258 -1.311523
vt 1.497070 -3.003906
vt -0.500977 -3.003906
vt 1.497070 -2.603516
vt -0.500977 -2.603516
vt 0.498047 -3.003906
vt 0.498047 -2.603516
vt 1.497070 -3.352539
vt -0.500977 -3.352539
vt 1.497070 -3.003906
vt -0.500977 -3.003906
vt 0.498047 -3.352539
vt 0.498047 -3.003906
vt 1.497070 -0.346680
vt -0.500977 -0.346680
vt 1.497070 -0.653320
vt -0.500977 -0.653320
vt 0.498047 -0.346680
vt 0.498047 -0.653320
vt 1.497070 -1.694336
vt 1.497070 -2.070312
vt 1.328125 -2.070312
vt 1.328125 -2.196289
vt 1.497070 -2.196289
vt 1.497070 -1.770508
vt 2.253906 1.041992
vt 1.633789 0.799805
vt 2.502930 0.799805
vt 2.502930 0.655273
vt 1.633789 0.655273
vt 1.633789 0.794922
vt -0.059570 -1.311523
vt 0.413086 -1.624023
vt 0.413086 -1.311523
vt -0.059570 -1.311523
vt -0.059570 -1.624023
vt -0.489258 -1.624023
vt -1.398438 -1.000000
vt -0.998047 -1.000000
vt -1.398438 -1.311523
vt -0.998047 -1.311523
vt -0.489258 -1.000000
vt -0.489258 -1.311523
vt -0.489258 -1.624023
vt -0.059570 -1.311523
vt -0.059570 -1.624023
vt 0.413086 -1.624023
vt 0.413086 -1.311523
vt 0.176758 -1.624023
vt -0.059570 -1.311523
vt 0.413086 -1.624023
vt 0.413086 -1.311523
vt -0.059570 -1.311523
vt -0.059570 -1.624023
vt -0.489258 -1.624023
vt -1.398438 -1.000000
vt -0.998047 -1.000000
vt -1.398438 -1.311523
vt -0.998047 -1.311523
vt -0.489258 -1.000000
vt -0.489258 -1.311523
vt -0.489258 -1.624023
vt -0.059570 -1.311523
vt -0.059570 -1.624023
vt 0.413086 -1.624023
vt 0.413086 -1.311523
vt 0.176758 -1.624023
vt -0.059570 -1.311523
vt 0.413086 -1.624023
vt 0.413086 -1.311523
vt -0.059570 -1.311523
vt -0.059570 -1.624023
vt -0.489258 -1.624023
vt -1.398438 -1.000000
vt -0.998047 -1.000000
vt -1.398438 -1.311523
vt -0.998047 -1.311523
vt -0.489258 -1.000000
vt -0.489258 -1.311523
vt -0.489258 -1.624023
vt -0.059570 -1.311523
vt -0.059570 -1.624023
vt 0.413086 -1.624023
vt 0.413086 -1.311523
vt 0.176758 -1.624023
vt -0.489258 -1.311523
vt -0.059570 -1.000000
vt -0.059570 -1.311523
vt 0.413086 -1.311523
vt 0.413086 -1.000000
vt 0.181641 -1.000000
vt 0.176758 -1.624023
vt 0.176758 -1.311523
vt -0.059570 -1.624023
vt -0.059570 -1.311523
vt 0.176758 -1.000000
vt -0.059570 -1.000000
vt -0.500977 -2.196289
vt -0.500977 -2.070312
vt -0.333008 -2.196289
vt -0.333008 -2.070312
vt -0.500977 -1.694336
vt -0.500977 -2.603516
vt 1.497070 -2.603516
vt -0.500977 -3.003906
vt 1.497070 -3.003906
vt 1.087891 -3.003906
vt -0.500977 -3.003906
vt 1.497070 -3.003906
vt -0.500977 -3.352539
vt 1.497070 -3.352539
vt 1.087891 -3.352539
vt -0.500977 -0.653320
vt 1.497070 -0.653320
vt -0.500977 -0.346680
vt 1.497070 -0.346680
vt 1.086914 -0.346680
vt 1.633789 0.655273
vt 1.633789 0.799805
vt 2.502930 0.655273
vt 2.502930 0.799805
vt 2.253906 1.041992
vt -1.398438 -1.311523
vt -0.998047 -1.311523
vt -1.398438 -1.624023
vt -0.998047 -1.624023
vt -0.489258 -1.624023
vt 2.503906 -0.657227
vt 2.675781 -0.657227
vt 2.675781 -0.344727
vt 3.002930 -0.344727
vt 3.002930 -0.657227
vt -1.398438 -1.311523
vt -0.998047 -1.311523
vt -1.398438 -1.624023
vt -0.998047 -1.624023
vt -0.489258 -1.624023
vt -0.489258 -1.311523
vt -0.998047 -1.311523
vt -0.998047 -1.000000
vt -1.398438 -1.000000
vt -1.398438 -1.311523
vt 0.176758 -1.624023
vt 0.176758 -1.311523
vt -0.059570 -1.311523
vt -0.059570 -1.000000
vt 0.176758 -1.000000
vt -1.398438 -1.311523
vt -0.998047 -1.311523
vt -1.398438 -1.624023
vt -0.998047 -1.624023
vt -0.489258 -1.624023
vt 2.503906 -0.657227
vt 2.675781 -0.657227
vt 2.675781 -0.344727
vt 3.002930 -0.344727
vt 3.002930 -0.657227
vt 2.503906 -0.657227
vt 2.675781 -0.657227
vt 2.675781 -0.344727
vt 3.002930 -0.344727
vt 3.002930 -0.657227
vt -1.398438 -1.311523
vt -0.998047 -1.311523
vt -1.398438 -1.624023
vt -0.998047 -1.624023
vt -0.489258 -1.624023
vt -0.489258 -1.311523
vt -0.998047 -1.311523
vt -0.998047 -1.000000
vt -1.398438 -1.000000
vt -1.398438 -1.311523
vt 0.176758 -1.624023
vt 0.176758 -1.311523
vt -0.059570 -1.311523
vt -0.059570 -1.000000
vt 0.176758 -1.000000
vt -1.398438 -1.311523
vt -0.998047 -1.311523
vt -1.398438 -1.624023
vt -0.998047 -1.624023
vt -0.489258 -1.624023
vt 2.503906 -0.657227
vt 2.675781 -0.657227
vt 2.675781 -0.344727
vt 3.002930 -0.344727
vt 3.002930 -0.657227
vt 2.503906 -0.657227
vt 2.675781 -0.657227
vt 2.675781 -0.344727
vt 3.002930 -0.344727
vt 3.002930 -0.657227
vt -1.398438 -1.311523
vt -0.998047 -1.311523
vt -1.398438 -1.624023
vt -0.998047 -1.624023
vt -0.489258 -1.624023
vt -0.489258 -1.311523
vt -0.998047 -1.311523
vt -0.998047 -1.000000
vt -1.398438 -1.000000
vt -1.398438 -1.311523
vt 0.176758 -1.624023
vt 0.176758 -1.311523
vt -0.059570 -1.311523
vt -0.059570 -1.000000
vt 0.176758 -1.000000
vt 2.503906 -0.657227
vt 2.675781 -0.657227
vt 2.675781 -0.344727
vt 3.002930 -0.344727
vt 3.002930 -0.657227
vt -0.489258 -1.624023
vt -0.998047 -1.624023
vt -0.489258 -1.311523
vt -0.998047 -1.311523
vt -1.398438 -1.311523
vt -0.489258 -1.311523
vt -0.998047 -1.311523
vt -0.998047 -1.000000
vt -1.398438 -1.000000
vt -1.398438 -1.311523
vt -0.500977 -1.000000
vt -0.500977 -1.249023
vt 1.497070 -1.000000
vt 1.497070 -1.249023
vt -0.500977 -2.603516
vt 1.497070 -2.603516
vt -0.500977 -3.003906
vt 1.497070 -3.003906
vt -0.500977 -3.003906
vt 1.497070 -3.003906
vt -0.500977 -3.352539
vt 1.497070 -3.352539
vt -0.500977 -0.653320
vt 1.497070 -0.653320
vt -0.500977 -0.346680
vt 1.497070 -0.346680
vt 0.498047 -1.249023
vt 0.498047 -1.000000
vt -0.500977 -1.249023
vt -0.500977 -1.000000
vt -0.500977 -0.346680
vt -0.500977 -0.653320
vt 0.498047 -0.346680
vt 0.498047 -0.653320
vt -0.500977 -3.352539
vt -0.500977 -3.003906
vt 0.498047 -3.352539
vt 0.498047 -3.003906
vt -0.500977 -3.003906
vt -0.500977 -2.603516
vt 0.498047 -3.003906
vt 0.498047 -2.603516
vt -0.500977 -1.000000
vt -0.500977 -1.249023
vt 1.497070 -1.000000
vt 1.497070 -1.249023
vt 0.556641 0.830078
vt 0.501953 0.831055
vt 0.495117 0.655273
vt 0.556641 0.830078
vt 0.498047 -1.249023
vt -0.500977 -1.249023
vt 0.498047 -1.000000
vt -0.500977 -1.000000
vt 0.577148 0.984375
vt 0.501953 0.799805
vt 1.301758 0.799805
vt 1.396484 0.655273
vt 2.420898 0.983398
vt 2.225586 0.799805
vt 2.496094 0.799805
vt 2.229492 0.655273
vt 0.501953 0.799805
vt 0.495117 0.655273
vt 1.396484 0.655273
vt 0.501953 0.794922
vt 2.496094 0.799805
vt 2.229492 0.655273
vt 2.502930 0.655273
vt 2.496094 0.794922
vt -0.500977 -3.003906
vt -0.500977 -2.603516
vt -0.333008 -3.003906
vt -0.333008 -2.603516
vt 1.328125 -2.603516
vt 1.497070 -2.603516
vt 1.328125 -3.003906
vt 1.497070 -3.003906
vt -0.500977 -0.346680
vt -0.500977 -0.653320
vt -0.333008 -0.346680
vt -0.333008 -0.653320
vt 1.328125 -0.653320
vt 1.497070 -0.653320
vt 1.328125 -0.346680
vt 1.497070 -0.346680
vt -0.500977 -1.000000
vt -0.500977 -1.249023
vt 1.497070 -1.000000
vt 1.497070 -1.249023
vt -0.500977 -2.603516
vt 1.497070 -2.603516
vt -0.500977 -3.003906
vt 1.497070 -3.003906
vt -0.500977 -3.003906
vt 1.497070 -3.003906
vt -0.500977 -3.352539
vt 1.497070 -3.352539
vt -0.500977 -0.653320
vt 1.497070 -0.653320
vt -0.500977 -0.346680
vt 1.497070 -0.346680
vt -0.500977 -1.000000
vt -0.500977 -1.249023
vt 1.497070 -1.000000
vt 1.497070 -1.249023
vt 1.633789 1.046875
vt 1.633789 1.397461
vt 2.253906 1.041992
vt 2.267578 1.397461
vt 1.633789 0.655273
vt 2.502930 0.655273
vt 1.633789 0.794922
vt 2.502930 0.794922
vt 1.087891 -2.603516
vt 1.497070 -2.603516
vt 1.087891 -3.003906
vt 1.497070 -3.003906
vt 1.087891 -3.003906
vt 1.497070 -3.003906
vt 1.087891 -3.352539
vt 1.497070 -3.352539
vt 1.633789 1.046875
vt 2.253906 1.041992
vt 1.633789 1.397461
vt 2.267578 1.397461
vt 1.497070 -0.346680
vt 1.086914 -0.346680
vt 1.497070 -0.653320
vt 1.086914 -0.653320
vt -0.500977 -1.000000
vt -0.500977 -1.249023
vt 1.497070 -1.000000
vt 1.497070 -1.249023
vt -0.500977 -2.603516
vt 1.497070 -2.603516
vt -0.500977 -3.003906
vt 1.497070 -3.003906
vt -0.500977 -3.003906
vt 1.497070 -3.003906
vt -0.500977 -3.352539
vt 1.497070 -3.352539
vt -0.500977 -0.653320
vt 1.497070 -0.653320
vt -0.500977 -0.346680
vt 1.497070 -0.346680
vt -0.500977 -1.000000
vt -0.500977 -1.249023
vt 1.497070 -1.000000
vt 1.497070 -1.249023
vt -0.500977 -2.603516
vt 1.497070 -2.603516
vt -0.500977 -3.003906
vt 1.497070 -3.003906
vt -0.500977 -3.003906
vt 1.497070 -3.003906
vt -0.500977 -3.352539
vt 1.497070 -3.352539
vt -0.500977 -0.653320
vt 1.497070 -0.653320
vt -0.500977 -0.346680
vt 1.497070 -0.346680
vt -0.500977 -1.000000
vt -0.500977 -1.249023
vt 1.497070 -1.000000
vt 1.497070 -1.249023
vt -0.500977 -2.603516
vt 1.497070 -2.603516
vt -0.500977 -3.003906
vt 1.497070 -3.003906
vt -0.500977 -3.003906
vt 1.497070 -3.003906
vt -0.500977 -3.352539
vt 1.497070 -3.352539
vt -0.500977 -0.653320
vt 1.497070 -0.653320
vt -0.500977 -0.346680
vt 1.497070 -0.346680
vt -0.500977 -1.000000
vt -0.500977 -1.249023
vt 1.497070 -1.000000
vt 1.497070 -1.249023
vt -0.500977 -2.603516
vt 1.497070 -2.603516
vt -0.500977 -3.003906
vt 1.497070 -3.003906
vt -0.500977 -3.003906
vt 1.497070 -3.003906
vt -0.500977 -3.352539
vt 1.497070 -3.352539
vt -0.500977 -0.653320
vt 1.497070 -0.653320
vt -0.500977 -0.346680
vt 1.497070 -0.346680
vt 2.003906 -0.657227
vt 2.003906 -0.344727
vt 2.324219 -0.657227
vt 2.324219 -0.344727
vt 2.164062 -0.657227
vt 2.164062 -0.344727
vt 2.324219 -0.657227
vt 2.324219 -0.344727
vt 2.164062 -0.657227
vt 2.164062 -0.344727
vt 2.324219 -0.657227
vt 2.324219 -0.344727
vt 2.164062 -0.657227
vt 2.164062 -0.344727
vt 2.324219 -0.657227
vt 2.324219 -0.344727
vt 0.556641 0.830078
vt 2.416992 1.045898
vt 0.577148 1.047852
vt 0.556641 0.830078
vt 0.501953 0.831055
vt 0.495117 0.655273
vt 2.502930 0.655273
vt 2.496094 0.827148
vt 2.453125 0.828125
vt -0.500977 -2.070312
vt -0.500977 -1.694336
vt 1.497070 -1.694336
vt 0.556641 0.830078
vt 0.501953 0.831055
vt 0.495117 0.655273
vt 0.577148 1.047852
vt 1.504883 0.829102
vt 1.497070 1.046875
vt 0.556641 0.830078
vt 2.416992 1.045898
vt 0.577148 1.047852
vt 2.502930 0.655273
vt 2.496094 0.827148
vt 2.453125 0.828125
vt -0.500977 -2.070312
vt -0.500977 -1.694336
vt 1.497070 -1.694336
vt 1.497070 1.046875
vt 1.504883 0.829102
vt 0.577148 1.047852
vt -0.500977 -2.196289
vt -0.500977 -1.770508
vt 0.498047 -1.770508
vt -0.500977 -3.352539
vt -0.500977 -3.003906
vt -0.333008 -3.003906
vt -0.333008 -3.352539
vt -0.500977 -3.352539
vt -0.333008 -3.003906
vt 1.328125 -3.003906
vt 1.497070 -3.003906
vt 1.497070 -3.352539
vt 1.328125 -3.352539
vt 1.328125 -3.003906
vt 1.497070 -3.352539
vt -0.333008 -2.070312
vt -0.500977 -1.694336
vt -0.333008 -1.694336
vt 1.328125 -2.070312
vt 1.328125 -1.694336
vt 1.497070 -1.694336
vt -0.500977 -1.770508
vt -0.500977 -2.196289
vt -0.333008 -2.196289
vt -0.333008 -1.770508
vt -0.500977 -1.770508
vt -0.333008 -2.196289
vt 1.328125 -1.770508
vt 1.328125 -2.196289
vt 1.497070 -1.770508
vt 2.225586 0.794922
vt 2.496094 0.794922
vt 2.229492 0.655273
vt 1.499023 0.794922
vt 1.396484 0.655273
vt 0.501953 0.794922
vt 0.556641 0.830078
vt 2.416992 1.045898
vt 0.577148 1.047852
vt 0.556641 0.830078
vt 0.501953 0.831055
vt 0.495117 0.655273
vt 2.502930 0.655273
vt 2.496094 0.827148
vt 2.453125 0.828125
vt -0.500977 -2.070312
vt -0.500977 -1.694336
vt 1.497070 -1.694336
vt 0.556641 0.830078
vt 2.416992 1.045898
vt 0.577148 1.047852
vt 0.556641 0.830078
vt 0.501953 0.831055
vt 0.495117 0.655273
vt 2.502930 0.655273
vt 2.496094 0.827148
vt 2.453125 0.828125
vt -0.500977 -2.070312
vt -0.500977 -1.694336
vt 1.497070 -1.694336
vt 1.497070 -2.603516
vt 1.087891 -2.603516
vt 1.087891 -3.003906
vt 1.497070 -3.003906
vt 1.087891 -3.003906
vt 1.087891 -3.352539
vt 1.087891 -1.694336
vt 1.497070 -2.070312
vt 1.497070 -1.694336
vt 2.253906 1.041992
vt 1.633789 0.799805
vt 1.633789 1.046875
vt 1.086914 -0.346680
vt 1.497070 -0.653320
vt 1.086914 -0.653320
vt 1.497070 -1.694336
vt 1.497070 -2.070312
vt 1.087891 -1.694336
vt 1.633789 1.046875
vt 1.633789 0.799805
vt 2.253906 1.041992
vt 2.502930 0.794922
vt 2.502930 0.655273
vt 1.633789 0.794922
vt 0.556641 0.830078
vt 2.416992 1.045898
vt 0.577148 1.047852
vt 0.556641 0.830078
vt 0.501953 0.831055
vt 0.495117 0.655273
vt 2.502930 0.655273
vt 2.496094 0.827148
vt 2.453125 0.828125
vt -0.500977 -2.070312
vt -0.500977 -1.694336
vt 1.497070 -1.694336
vt 0.556641 0.830078
vt 2.416992 1.045898
vt 0.577148 1.047852
vt 0.556641 0.830078
vt 0.501953 0.831055
vt 0.495117 0.655273
vt 2.502930 0.655273
vt 2.496094 0.827148
vt 2.453125 0.828125
vt -0.500977 -2.070312
vt -0.500977 -1.694336
vt 1.497070 -1.694336
vt 0.556641 0.830078
vt 2.416992 1.045898
vt 0.577148 1.047852
vt 0.556641 0.830078
vt 0.501953 0.831055
vt 0.495117 0.655273
vt 2.502930 0.655273
vt 2.496094 0.827148
vt 2.453125 0.828125
vt -0.500977 -2.070312
vt -0.500977 -1.694336
vt 1.497070 -1.694336
vt 0.556641 0.830078
vt 2.416992 1.045898
vt 0.577148 1.047852
vt 0.556641 0.830078
vt 0.501953 0.831055
vt 0.495117 0.655273
vt 2.502930 0.655273
vt 2.496094 0.827148
vt 2.453125 0.828125
vt -0.500977 -2.070312
vt -0.500977 -1.694336
vt 1.497070 -1.694336
vt -0.059570 -1.624023
vt 0.413086 -1.624023
vt -0.059570 -1.311523
vt -0.998047 -1.311523
vt -0.489258 -1.311523
vt -0.489258 -1.624023
vt 2.675781 -0.344727
vt 2.503906 -0.344727
vt 2.503906 -0.657227
vt -0.059570 -1.311523
vt -0.489258 -1.624023
vt -0.489258 -1.311523
vt -0.059570 -1.311523
vt -0.489258 -1.624023
vt -0.489258 -1.311523
vt -0.998047 -1.311523
vt -0.489258 -1.311523
vt -0.489258 -1.624023
vt -0.489258 -1.000000
vt -0.059570 -1.000000
vt -0.489258 -1.311523
vt -0.489258 -1.311523
vt -0.998047 -1.000000
vt -0.489258 -1.000000
vt 0.413086 -1.000000
vt 0.176758 -1.000000
vt 0.176758 -1.311523
vt -0.059570 -1.624023
vt 0.176758 -1.624023
vt -0.059570 -1.311523
vt -0.059570 -1.624023
vt 0.413086 -1.624023
vt -0.059570 -1.311523
vt -0.998047 -1.311523
vt -0.489258 -1.311523
vt -0.489258 -1.624023
vt 2.675781 -0.344727
vt 2.503906 -0.344727
vt 2.503906 -0.657227
vt -0.059570 -1.311523
vt -0.489258 -1.624023
vt -0.489258 -1.311523
vt -0.059570 -1.311523
vt -0.489258 -1.624023
vt -0.489258 -1.311523
vt 2.324219 -0.657227
vt 2.003906 -0.344727
vt 2.324219 -0.344727
vt 2.675781 -0.344727
vt 2.503906 -0.344727
vt 2.503906 -0.657227
vt -0.998047 -1.311523
vt -0.489258 -1.311523
vt -0.489258 -1.624023
vt -0.489258 -1.000000
vt -0.059570 -1.000000
vt -0.489258 -1.311523
vt -0.489258 -1.311523
vt -0.998047 -1.000000
vt -0.489258 -1.000000
vt 0.413086 -1.000000
vt 0.176758 -1.000000
vt 0.176758 -1.311523
vt -0.059570 -1.624023
vt 0.176758 -1.624023
vt -0.059570 -1.311523
vt -0.059570 -1.624023
vt 0.413086 -1.624023
vt -0.059570 -1.311523
vt -0.998047 -1.311523
vt -0.489258 -1.311523
vt -0.489258 -1.624023
vt 2.675781 -0.344727
vt 2.503906 -0.344727
vt 2.503906 -0.657227
vt -0.059570 -1.311523
vt -0.489258 -1.624023
vt -0.489258 -1.311523
vt -0.059570 -1.311523
vt -0.489258 -1.624023
vt -0.489258 -1.311523
vt 2.324219 -0.657227
vt 2.003906 -0.344727
vt 2.324219 -0.344727
vt 2.675781 -0.344727
vt 2.503906 -0.344727
vt 2.503906 -0.657227
vt -0.998047 -1.311523
vt -0.489258 -1.311523
vt -0.489258 -1.624023
vt -0.489258 -1.000000
vt -0.059570 -1.000000
vt -0.489258 -1.311523
vt -0.489258 -1.311523
vt -0.998047 -1.000000
vt -0.489258 -1.000000
vt 0.413086 -1.000000
vt 0.176758 -1.000000
vt 0.176758 -1.311523
vt -0.059570 -1.624023
vt 0.176758 -1.624023
vt -0.059570 -1.311523
vt 2.675781 -0.344727
vt 2.503906 -0.344727
vt 2.503906 -0.657227
vt -0.998047 -1.624023
vt -1.398438 -1.624023
vt -1.398438 -1.311523
vt -0.489258 -1.311523
vt -0.998047 -1.000000
vt -0.489258 -1.000000
vt -0.059570 -1.624023
vt -0.489258 -1.624023
vt -0.489258 -1.311523
vt -0.489258 -1.000000
vt -0.059570 -1.000000
vt -0.489258 -1.311523
vt 0.181641 -1.000000
vt 0.181641 -1.311523
vt 0.413086 -1.311523
vn 0.0000 0.8764 -0.4815
vn 0.5222 0.7230 -0.4522
vn -0.0244 0.8762 -0.4814
vn 0.4937 -0.0000 -0.8696
vn 0.3658 -0.0162 -0.9306
vn -0.0384 -0.8635 -0.5028
vn -0.0000 0.0000 -1.0000
vn -0.3611 0.0000 -0.9325
vn 0.3557 -0.6292 -0.6910
vn 0.0000 -0.6733 -0.7394
vn -0.0217 -0.8942 -0.4471
vn -0.3604 -0.6120 -0.7040
vn -0.0000 -0.6734 -0.7393
vn 0.0000 0.0827 -0.9966
vn 0.4185 0.4161 -0.8073
vn 0.0578 0.0000 -0.9983
vn 0.0582 -0.3545 -0.9333
vn 0.6736 0.2103 -0.7085
vn 0.8933 0.1766 -0.4132
vn 0.7770 -0.3168 -0.5440
vn 0.4365 -0.1648 -0.8845
vn 0.5284 0.3395 -0.7782
vn 0.6533 -0.3827 -0.6533
vn 0.9239 0.3827 0.0000
vn 1.0000 0.0000 0.0000
vn 0.9239 -0.3005 0.2369
vn 0.9239 -0.2369 -0.3006
vn 0.3463 0.1630 -0.9239
vn -0.1629 0.3463 -0.9239
vn -0.0000 -0.3326 -0.9431
vn 0.6533 0.3827 -0.6533
vn 0.9544 0.1943 -0.2268
vn 0.7455 -0.4039 -0.5301
vn 0.7071 0.0000 -0.7071
vn 0.6777 -0.4405 -0.5888
vn 0.9794 0.1679 0.1119
vn 0.9659 0.2153 0.1435
vn 0.9447 -0.3218 -0.0629
vn 0.8365 -0.3516 -0.4203
vn 0.9319 -0.3495 0.0969
vn 0.9363 -0.3511 0.0000
vn 0.2931 0.3516 -0.8891
vn -0.0366 0.0796 -0.9962
vn 0.0585 -0.0641 -0.9962
vn -0.1287 0.2931 -0.9474
vn 0.6457 0.3662 -0.6701
vn 0.3462 0.1631 -0.9239
vn -0.0000 -0.3827 -0.9239
vn 0.8700 0.1036 -0.4821
vn 0.7488 -0.3580 -0.5578
vn 0.4002 -0.1352 -0.9064
vn 0.6028 0.2744 -0.7492
vn 0.8834 0.3900 0.2600
vn 0.9659 0.2153 0.1436
vn 0.8364 -0.3516 -0.4204
vn 0.7770 -0.3168 -0.5439
vn 0.3462 0.1630 -0.9239
vn -0.1630 0.3462 -0.9239
vn 0.8700 0.1034 -0.4820
vn 0.7488 -0.3581 -0.5578
vn 0.4001 -0.1350 -0.9065
vn 0.8834 0.3900 0.2599
vn -0.9986 0.0536 0.0000
vn -0.9037 0.3028 -0.3026
vn -0.9983 0.0524 0.0237
vn -0.9985 -0.0413 -0.0372
vn -0.9397 0.3027 0.1592
vn -0.9305 -0.3644 -0.0384
vn -0.6641 0.3721 -0.6485
vn -0.4132 0.1766 -0.8933
vn -0.5380 -0.3255 -0.7775
vn -0.8880 -0.1694 -0.4276
vn -0.7782 0.3395 -0.5284
vn -0.6533 -0.3826 -0.6533
vn 0.0000 0.3826 -0.9239
vn 0.2394 -0.2985 -0.9239
vn -0.2985 -0.2394 -0.9239
vn 0.0000 0.5383 -0.8428
vn -0.0032 0.4703 -0.8825
vn 0.0456 0.5106 -0.8586
vn 0.0206 0.5931 -0.8049
vn -0.0000 0.6054 -0.7960
vn -0.6573 0.7065 -0.2624
vn -0.0012 0.6034 -0.7974
vn 0.6416 0.7271 -0.2441
vn -0.0265 0.9988 -0.0407
vn -0.4840 -0.5888 -0.6473
vn 0.0145 -0.9459 -0.3242
vn 0.0000 -0.6729 -0.7397
vn 0.4814 -0.5790 -0.6580
vn -0.3609 -0.6279 -0.6896
vn 0.0199 -0.9941 -0.1064
vn 0.0127 0.0000 -0.9999
vn -0.0080 0.3609 -0.9326
vn 0.5090 0.0113 -0.8607
vn -0.3609 -0.0080 -0.9326
vn -0.5092 -0.0000 -0.8607
vn 0.0113 -0.5090 -0.8607
vn 0.5091 0.7544 -0.4144
vn -0.0234 0.9992 0.0314
vn -0.5086 0.7430 -0.4350
vn 0.0000 -0.6727 -0.7399
vn -0.6386 -0.4886 -0.5945
vn -0.0384 -0.9896 -0.1385
vn 0.4817 -0.5897 -0.6483
vn -0.6379 0.4626 -0.6157
vn 0.0040 0.6036 -0.7973
vn 0.0516 0.9979 -0.0398
vn 0.6689 0.6922 -0.2710
vn 0.0003 0.6073 -0.7945
vn -0.0203 0.5929 -0.8050
vn 0.0063 0.4736 -0.8807
vn 0.0000 0.5385 -0.8426
vn -0.0452 0.5110 -0.8584
vn 0.0207 0.5931 -0.8049
vn -0.0001 0.6054 -0.7960
vn -0.6574 0.7064 -0.2624
vn -0.0012 0.6035 -0.7974
vn 0.6417 0.7270 -0.2442
vn -0.4840 -0.5889 -0.6473
vn 0.4816 -0.5789 -0.6580
vn -0.3610 -0.6279 -0.6895
vn 0.0199 -0.9941 -0.1063
vn 0.5092 0.7544 -0.4143
vn -0.0063 0.4736 -0.8807
vn 0.0452 0.5110 -0.8584
vn 0.0202 0.5929 -0.8050
vn -0.0003 0.6072 -0.7946
vn -0.6688 0.6922 -0.2711
vn -0.0040 0.6036 -0.7973
vn 0.6376 0.4621 -0.6164
vn -0.0516 0.9979 -0.0397
vn -0.4815 -0.5898 -0.6483
vn 0.0384 -0.9897 -0.1382
vn 0.6389 -0.4884 -0.5943
vn -0.0000 -0.6723 -0.7403
vn 0.5091 0.7543 -0.4144
vn -0.0783 0.8680 0.4903
vn -0.0499 -0.0000 -0.9988
vn 0.0226 -0.5086 -0.8607
vn -0.3606 -0.0160 -0.9326
vn 0.5086 0.0226 -0.8607
vn 0.3611 0.0000 -0.9325
vn -0.0160 0.3606 -0.9326
vn 0.0217 -0.8943 -0.4470
vn 0.3605 -0.6119 -0.7040
vn -0.0032 0.4702 -0.8825
vn 0.0457 0.5105 -0.8586
vn 0.0206 0.5932 -0.8048
vn -0.0000 0.6056 -0.7958
vn -0.6575 0.7064 -0.2620
vn 0.6416 0.7272 -0.2441
vn -0.0265 0.9988 -0.0405
vn -0.4840 -0.5890 -0.6471
vn 0.0145 -0.9460 -0.3238
vn 0.0000 -0.6731 -0.7395
vn 0.4815 -0.5789 -0.6580
vn -0.0000 -0.6729 -0.7398
vn -0.3609 -0.6278 -0.6897
vn 0.0199 -0.9941 -0.1066
vn -0.0080 0.3608 -0.9326
vn -0.3608 -0.0080 -0.9326
vn -0.0234 0.9992 0.0313
vn -0.5087 0.7430 -0.4349
vn -0.0000 0.8765 -0.4815
vn -0.0032 0.4701 -0.8826
vn 0.0207 0.5930 -0.8049
vn -0.0001 0.6052 -0.7960
vn -0.6575 0.7063 -0.2624
vn -0.0011 0.6036 -0.7973
vn 0.6418 0.7270 -0.2439
vn 0.0145 -0.9458 -0.3243
vn 0.4816 -0.5791 -0.6578
vn 0.0000 -0.6735 -0.7392
vn 0.5092 0.7544 -0.4144
vn -0.0234 0.9992 0.0315
vn 0.4962 0.6992 -0.5147
vn 0.1145 0.9932 0.0203
vn -0.5091 0.7543 -0.4144
vn 0.5092 -0.0000 -0.8607
vn 0.0593 -0.0066 -0.9982
vn -0.0563 -0.5060 -0.8607
vn -0.5060 0.0563 -0.8607
vn 0.0066 0.0593 -0.9982
vn 0.0934 -0.9832 -0.1570
vn -0.3611 -0.6280 -0.6894
vn -0.0933 -0.9832 -0.1570
vn 0.3610 -0.6280 -0.6894
vn -0.0066 0.0593 -0.9982
vn 0.5060 0.0563 -0.8607
vn -0.0593 -0.0066 -0.9982
vn 0.0563 -0.5060 -0.8607
vn -0.1144 0.9932 0.0203
vn -0.4961 0.6992 -0.5147
vn 0.0207 0.5932 -0.8048
vn -0.0001 0.6055 -0.7958
vn -0.6576 0.7064 -0.2619
vn -0.0012 0.6036 -0.7973
vn 0.6419 0.7270 -0.2439
vn -0.0265 0.9988 -0.0402
vn -0.4842 -0.5890 -0.6470
vn 0.0145 -0.9461 -0.3236
vn 0.0000 -0.6732 -0.7395
vn 0.0000 -0.6731 -0.7396
vn -0.3608 -0.6278 -0.6897
vn 0.0199 -0.9941 -0.1067
vn -0.0032 0.4700 -0.8827
vn 0.0457 0.5105 -0.8587
vn -0.0000 0.6054 -0.7959
vn 0.0249 0.6174 -0.7863
vn -0.4841 -0.5890 -0.6471
vn 0.0293 -0.8650 0.5009
vn -0.0001 0.6055 -0.7959
vn -0.4841 -0.5891 -0.6469
vn -0.3608 -0.6279 -0.6896
vn -1.0000 0.0000 0.0000
vn -0.8960 0.4017 0.1890
vn -0.9239 -0.3827 0.0000
vn -0.6532 -0.3827 -0.6533
vn -0.5902 0.2991 -0.7498
vn -0.4001 -0.1350 -0.9065
vn -0.8815 0.1128 -0.4585
vn -0.6533 0.3827 -0.6533
vn -0.7488 -0.3581 -0.5578
vn 0.1210 0.3631 -0.9239
vn -0.3631 0.1210 -0.9239
vn -0.9037 0.3027 -0.3027
vn -0.9983 0.0523 0.0237
vn -0.9305 -0.3643 -0.0384
vn -0.4603 0.1524 -0.8746
vn -0.7752 0.2929 -0.5597
vn -0.6533 -0.3827 -0.6533
vn 0.1591 0.4037 -0.9009
vn -0.6531 -0.3827 -0.6534
vn -0.6534 0.3827 -0.6532
vn 0.1591 0.4037 -0.9010
vn 0.0001 -0.3826 -0.9239
vn -0.8961 0.4017 0.1890
vn -0.3630 0.1209 -0.9239
vn 0.0000 -0.3511 -0.9363
vn -0.3639 -0.5284 -0.7671
vn 0.2662 -0.6312 -0.7285
vn 0.0390 0.0369 -0.9986
vn -0.5879 -0.6706 -0.4523
vn -0.9078 -0.1209 -0.4015
vn -0.9055 0.0928 -0.4141
vn -0.3483 -0.4478 -0.8235
vn -0.4049 -0.6761 -0.6156
vn -0.6934 -0.1958 -0.6934
vn -0.5479 -0.8008 0.2418
vn -0.8000 -0.6000 0.0000
vn -0.9388 -0.3444 0.0000
vn 0.0000 0.6732 -0.7394
vn 0.0000 0.6733 -0.7393
vn 0.6678 -0.5011 -0.5503
vn 0.4007 -0.6169 -0.6775
vn 0.5602 -0.7862 -0.2607
vn 0.8321 0.0000 -0.5546
vn 0.7200 0.1968 -0.6655
vn 0.8925 0.0630 -0.4467
vn 0.6303 -0.0556 -0.7744
vn 0.5590 -0.0001 -0.8292
vn 0.7908 -0.2229 -0.5701
vn 0.3484 0.9245 0.1545
vn -0.0412 0.8757 -0.4811
vn 0.5045 0.7568 -0.4157
vn -0.0000 0.5384 -0.8427
vn -0.0167 0.4809 -0.8766
vn 0.0340 0.4994 -0.8657
vn 0.0231 0.6039 -0.7967
vn -0.0018 0.6126 -0.7904
vn -0.0900 0.5895 -0.8027
vn -0.0106 0.6024 -0.7982
vn 0.6389 0.4643 -0.6134
vn -0.0150 0.6729 -0.7396
vn -0.1429 -0.8873 0.4385
vn 0.6389 -0.5175 -0.5692
vn 0.0000 -0.3511 -0.9364
vn 0.1062 -0.7001 -0.7061
vn 0.0000 0.0026 -1.0000
vn -0.7067 0.0347 -0.7067
vn -0.6227 -0.5918 -0.5118
vn -0.8225 0.0568 -0.5660
vn -0.2886 -0.7462 -0.5999
vn -0.5273 -0.7466 -0.4056
vn -0.6963 -0.3711 -0.6144
vn -0.9403 -0.3282 0.0907
vn -0.6017 -0.7987 0.0000
vn 0.9065 0.1350 -0.4001
vn 0.5578 0.3581 -0.7488
vn 0.6532 -0.3827 -0.6533
vn 0.9239 -0.3463 0.1630
vn 0.9239 -0.1630 -0.3463
vn -0.0000 -0.5999 -0.8000
vn -0.0908 -0.3281 -0.9403
vn -0.0000 -0.7987 -0.6017
vn 0.4056 -0.7466 -0.5272
vn 0.6144 -0.3711 -0.6963
vn 0.6205 -0.7443 -0.2470
vn 0.5660 0.0567 -0.8225
vn 0.7054 -0.0696 -0.7054
vn 0.4779 -0.6235 -0.6188
vn 0.7343 -0.6778 -0.0381
vn 0.9651 0.0287 0.2604
vn 0.0000 0.0027 -1.0000
vn 0.5659 0.0566 -0.8225
vn 0.4778 -0.6234 -0.6189
vn 0.1062 -0.7002 -0.7060
vn 0.0001 0.0026 -1.0000
vn -0.5272 -0.7467 -0.4056
vn -0.6963 -0.3712 -0.6143
vn 0.9239 -0.3463 0.1629
vn 0.0000 -0.6000 -0.8000
vn -0.0907 -0.3281 -0.9403
vn 0.4056 -0.7467 -0.5272
vn 0.6204 -0.7444 -0.2470
vn 0.4779 -0.6234 -0.6188
vn -0.4836 -0.1028 -0.8692
vn -0.7491 -0.2726 -0.6037
vn 0.2646 -0.3888 -0.8825
vn -0.0001 0.3827 -0.9239
vn -0.9363 -0.3512 0.0000
vn -0.9597 -0.2431 0.1409
vn -0.9363 -0.3511 -0.0000
vn -0.8719 -0.4774 0.1094
vn -0.9126 -0.3652 -0.1841
vn -0.9840 0.0000 0.1784
vn -0.9852 0.1427 -0.0952
vn -0.9852 -0.0951 -0.1428
vn -0.7718 0.0000 -0.6359
vn -0.6304 -0.0556 -0.7743
vn -0.7201 0.1967 -0.6654
vn -0.8322 -0.0000 -0.5545
vn -0.4009 -0.6168 -0.6774
vn -0.6679 -0.5011 -0.5503
vn -0.5604 -0.7861 -0.2608
vn 0.0000 0.6731 -0.7395
vn -0.0000 0.6038 -0.7971
vn 0.0106 0.6024 -0.7982
vn 0.0000 0.6041 -0.7969
vn 0.0018 0.6127 -0.7903
vn -0.0232 0.6039 -0.7967
vn 0.0167 0.4808 -0.8766
vn -0.0340 0.4994 -0.8657
vn 0.6667 -0.3333 -0.6667
vn 0.8225 0.0568 -0.5660
vn 0.6127 -0.3434 -0.7118
vn 0.5545 -0.7146 -0.4265
vn 0.6963 -0.3712 -0.6143
vn 0.5272 -0.7467 -0.4056
vn 0.9403 -0.3282 0.0907
vn 0.8000 -0.6000 0.0000
vn 0.6018 -0.7987 0.0000
vn 0.9983 0.0000 -0.0578
vn 0.9333 -0.3545 -0.0581
vn 0.9113 0.3605 0.1990
vn 0.6810 0.2692 -0.6810
vn 0.5439 -0.3168 -0.7770
vn 0.8845 -0.1648 -0.4365
vn -0.6667 -0.3333 -0.6667
vn -0.5660 0.0568 -0.8225
vn -0.7118 -0.3435 -0.6127
vn -0.4266 -0.7145 -0.5545
vn -0.6144 -0.3712 -0.6963
vn -0.4056 -0.7467 -0.5272
vn 0.0907 -0.3282 -0.9403
vn 0.1890 0.4017 -0.8960
vn -0.6700 0.3196 -0.6700
vn -0.7071 0.0000 -0.7071
vn -0.9213 -0.3455 0.1784
vn -0.8323 -0.5342 -0.1480
vn -0.9949 0.0000 -0.1006
vn -0.9840 0.1485 0.0990
vn -0.9840 -0.0990 0.1484
vn 0.9333 -0.3545 -0.0582
vn -0.0367 0.0000 -0.9993
vn -0.0384 -0.3643 -0.9305
vn 0.2211 0.3714 -0.9018
vn -0.6792 0.2782 -0.6792
vn -0.7775 -0.3255 -0.5380
vn -0.4276 -0.1694 -0.8880
vn -0.8323 -0.5341 -0.1480
vn -0.9949 0.0000 -0.1005
vn -0.9840 0.1484 0.0990
vn -0.9840 -0.0990 0.1485
vn 0.6127 -0.3435 -0.7118
vn 0.5545 -0.7145 -0.4265
vn 0.6017 -0.7987 0.0000
vn 0.9332 -0.3545 -0.0581
vn 0.9113 0.3606 0.1990
vn -0.7117 -0.3435 -0.6128
vn -0.7488 -0.3580 -0.5578
vn -0.4001 -0.1351 -0.9065
vn -0.8324 -0.5341 -0.1480
vn -0.9949 -0.0001 -0.1005
vn -0.2646 -0.6779 -0.6859
vn 0.1565 -0.7735 -0.6142
vn 0.0000 -0.3444 -0.9388
vn -0.5663 -0.7513 -0.3389
vn -0.6013 -0.5262 -0.6013
vn 0.0000 1.0000 0.0000
vn -0.0002 0.6041 -0.7969
vn -0.0002 0.6040 -0.7970
vn -0.3751 0.0000 -0.9270
vn 0.3751 0.0000 -0.9270
vn -0.5419 0.5077 -0.6698
vn -0.0119 0.6040 -0.7969
vn -0.5298 0.8150 -0.2346
vn -0.4451 -0.8866 -0.1259
vn 0.0480 -0.6722 -0.7389
vn -0.5135 -0.5774 -0.6347
vn 0.5418 0.5077 -0.6698
vn 0.5297 0.8150 -0.2347
vn 0.0118 0.6040 -0.7969
vn -0.0480 -0.6721 -0.7389
vn 0.4449 -0.8867 -0.1260
vn 0.5134 -0.5774 -0.6348
vn 0.7717 0.0000 -0.6360
vn -0.3752 0.0000 -0.9270
vn -0.0000 -0.6724 -0.7402
vn 0.0000 0.6731 -0.7396
vn 0.0003 0.6040 -0.7970
vn 0.0002 0.6040 -0.7970
vn 0.0002 0.6040 -0.7969
vn -0.6679 0.5010 -0.5503
vn -0.6290 0.0000 -0.7774
vn 0.6678 0.5011 -0.5504
vn 0.6289 0.0000 -0.7775
vn -0.5046 0.7567 -0.4157
vn 0.0000 0.6043 -0.7968
vn 0.0002 0.6041 -0.7969
vn 0.0000 0.6043 -0.7967
vn 0.9966 0.0826 0.0000
vn 0.9966 0.0827 0.0000
vn 0.0000 0.0536 -0.9986
vn -0.5794 -0.3114 -0.7532
usemtl Tex_0032_0.dds.003
s off
f 1/1/1 3/2/2 2/3/1
f 2/3/1 3/2/1 4/4/3
f 3/2/4 5/5/5 4/4/6
f 4/4/7 5/5/7 6/6/8
f 5/5/9 7/7/10 6/6/11
f 6/6/12 7/7/13 8/8/13
f 9/9/14 11/10/15 10/11/14
f 10/11/16 11/10/16 12/12/17
f 11/10/18 13/13/19 12/12/20
f 12/12/21 13/13/22 14/14/23
f 13/13/24 15/15/25 14/14/26
f 14/14/27 15/15/25 16/16/25
f 17/17/7 19/18/28 18/19/7
f 18/19/7 19/18/29 20/20/30
f 19/18/31 21/21/32 20/20/33
f 20/20/34 21/21/34 22/22/35
f 21/21/36 23/23/37 22/22/38
f 22/22/39 23/23/40 24/24/41
f 25/25/14 27/26/42 26/27/43
f 26/27/44 27/26/45 28/28/17
f 27/26/46 29/29/19 28/28/20
f 28/28/21 29/29/22 30/30/23
f 29/29/24 31/31/25 30/30/26
f 30/30/27 31/31/25 32/32/25
f 33/33/7 35/34/47 34/35/7
f 34/35/7 35/34/29 36/36/48
f 35/34/31 37/37/49 36/36/50
f 36/36/51 37/37/52 38/38/35
f 37/37/53 39/39/54 38/38/38
f 38/38/55 39/39/40 40/40/41
f 41/41/14 43/42/15 42/43/14
f 42/43/16 43/42/16 44/44/17
f 43/42/18 45/45/19 44/44/56
f 44/44/21 45/45/22 46/46/23
f 45/45/24 47/47/25 46/46/26
f 46/46/27 47/47/25 48/48/25
f 49/49/7 51/50/57 50/51/7
f 50/51/7 51/50/58 52/52/48
f 51/50/31 53/53/59 52/52/60
f 52/52/61 53/53/52 54/54/35
f 53/53/62 55/55/54 54/54/38
f 54/54/39 55/55/40 56/56/41
f 57/57/63 59/58/64 58/59/65
f 58/59/66 59/58/67 60/60/68
f 59/58/69 61/61/70 60/60/71
f 60/60/72 61/61/73 62/62/74
f 61/61/75 63/63/7 62/62/76
f 62/62/77 63/63/7 64/64/7
f 65/65/78 67/66/79 66/67/80
f 66/67/81 67/66/82 68/68/83
f 67/66/84 69/69/85 68/68/86
f 68/68/87 69/69/88 70/70/89
f 69/69/90 71/71/89 70/70/89
f 72/72/10 74/73/91 73/74/92
f 73/74/93 74/73/94 75/75/95
f 74/73/96 76/76/97 75/75/98
f 75/75/99 76/76/100 77/77/1
f 76/76/101 78/78/1 77/77/1
f 79/79/102 81/80/103 80/81/102
f 80/81/89 81/80/104 82/82/105
f 81/80/106 83/83/107 82/82/108
f 82/82/109 83/83/110 84/84/111
f 83/83/112 85/85/113 84/84/114
f 86/86/78 88/87/79 87/88/80
f 87/88/115 88/87/116 89/89/117
f 88/87/118 90/90/119 89/89/86
f 89/89/120 90/90/88 91/91/89
f 90/90/121 92/92/89 91/91/89
f 93/93/10 95/94/122 94/95/123
f 94/95/93 95/94/94 96/96/95
f 95/94/96 97/97/97 96/96/98
f 96/96/124 97/97/100 98/98/1
f 97/97/101 99/99/1 98/98/1
f 100/100/113 102/101/125 101/102/126
f 101/102/127 102/101/128 103/103/129
f 102/101/130 104/104/131 103/103/132
f 103/103/133 104/104/134 105/105/89
f 104/104/135 106/106/102 105/105/136
f 107/107/1 109/108/137 108/109/138
f 108/109/139 109/108/140 110/110/141
f 109/108/142 111/111/143 110/110/144
f 110/110/122 111/111/145 112/112/10
f 111/111/146 113/113/13 112/112/13
f 114/114/78 116/115/147 115/116/148
f 115/116/149 116/115/150 117/117/151
f 116/115/84 118/118/152 117/117/153
f 117/117/154 118/118/155 119/119/156
f 118/118/157 120/120/158 119/119/158
f 121/121/156 123/122/159 122/123/160
f 122/123/93 123/122/161 124/124/95
f 123/122/162 125/125/97 124/124/98
f 124/124/99 125/125/163 126/126/1
f 125/125/164 127/127/165 126/126/165
f 128/128/78 130/129/166 129/130/80
f 129/130/167 130/129/168 131/131/169
f 130/129/170 132/132/171 131/131/153
f 131/131/87 132/132/172 133/133/89
f 132/132/173 134/134/156 133/133/174
f 135/135/10 137/136/91 136/137/123
f 136/137/93 137/136/94 138/138/95
f 137/136/96 139/139/97 138/138/98
f 138/138/175 139/139/176 140/140/165
f 139/139/101 141/141/1 140/140/1
f 142/142/1 144/143/177 143/144/1
f 143/144/1 144/143/178 145/145/179
f 144/143/180 146/146/181 145/145/182
f 145/145/183 146/146/184 147/147/8
f 146/146/185 148/148/13 147/147/186
f 149/149/13 151/150/187 150/151/188
f 150/151/143 151/150/189 152/152/190
f 151/150/191 153/153/97 152/152/192
f 152/152/137 153/153/193 154/154/1
f 153/153/194 155/155/1 154/154/1
f 156/156/78 158/157/166 157/158/148
f 157/158/195 158/157/196 159/159/197
f 158/157/198 160/160/199 159/159/200
f 159/159/201 160/160/202 161/161/203
f 160/160/173 162/162/156 161/161/156
f 163/163/204 165/164/205 164/165/206
f 164/165/93 165/164/161 166/166/95
f 165/164/162 167/167/97 166/166/98
f 166/166/175 167/167/100 168/168/165
f 167/167/101 169/169/165 168/168/165
f 170/170/78 172/171/207 171/172/208
f 171/172/149 172/171/209 173/173/151
f 172/171/198 174/174/210 173/173/200
f 173/173/211 174/174/212 175/175/156
f 174/174/156 176/176/156 175/175/156
f 177/177/156 179/178/205 178/179/206
f 178/179/93 179/178/161 180/180/95
f 179/178/162 181/181/97 180/180/98
f 180/180/175 181/181/100 182/182/165
f 181/181/101 183/183/165 182/182/165
f 184/184/78 186/185/166 185/186/148
f 185/186/149 186/185/209 187/187/151
f 186/185/198 188/188/199 187/187/200
f 187/187/211 188/188/155 189/189/156
f 188/188/173 190/190/156 189/189/156
f 191/191/156 193/192/205 192/193/206
f 192/193/93 193/192/161 194/194/95
f 193/192/162 195/195/97 194/194/98
f 194/194/175 195/195/100 196/196/165
f 195/195/101 197/197/165 196/196/165
f 198/198/78 200/199/166 199/200/148
f 199/200/149 200/199/213 201/201/151
f 200/199/198 202/202/199 201/201/200
f 201/201/214 202/202/155 203/203/156
f 202/202/173 204/204/156 203/203/156
f 205/205/156 207/206/215 206/207/206
f 206/207/93 207/206/161 208/208/95
f 207/206/162 209/209/97 208/208/98
f 208/208/175 209/209/100 210/210/165
f 209/209/101 211/211/165 210/210/165
f 212/212/216 214/213/217 213/214/218
f 213/214/219 214/213/220 215/215/221
f 214/213/222 216/216/223 215/215/224
f 215/215/48 216/216/225 217/217/7
f 216/216/226 218/218/7 217/217/7
f 219/219/63 221/220/227 220/221/228
f 220/221/66 221/220/67 222/222/229
f 221/220/69 223/223/230 222/222/71
f 222/222/72 223/223/231 224/224/232
f 223/223/233 225/225/7 224/224/48
f 226/226/216 228/227/217 227/228/218
f 227/228/234 228/227/220 229/229/221
f 228/227/222 230/230/235 229/229/224
f 229/229/48 230/230/225 231/231/7
f 230/230/226 232/232/7 231/231/7
f 233/233/63 235/234/64 234/235/65
f 234/235/66 235/234/67 236/236/229
f 235/234/69 237/237/230 236/236/71
f 236/236/72 237/237/231 238/238/232
f 237/237/236 239/239/7 238/238/237
f 240/240/216 242/241/238 241/242/218
f 241/242/232 242/241/220 243/243/221
f 242/241/222 244/244/223 243/243/224
f 243/243/48 244/244/225 245/245/7
f 244/244/239 246/246/7 245/245/7
f 247/247/240 249/248/241 248/249/240
f 248/249/240 249/248/242 250/250/243
f 249/248/244 251/251/245 250/250/246
f 250/250/247 251/251/248 252/252/249
f 251/251/250 253/253/251 252/252/252
f 254/254/7 256/255/7 255/256/7
f 255/256/7 256/255/7 257/257/7
f 256/255/7 258/258/7 257/257/7
f 257/257/7 258/258/7 259/259/7
f 260/260/253 262/261/253 261/262/253
f 261/262/253 262/261/253 263/263/253
f 262/261/253 264/264/253 263/263/253
f 263/263/254 264/264/254 265/265/254
f 266/266/7 268/267/7 267/268/7
f 267/268/7 268/267/7 269/269/7
f 268/267/7 270/270/7 269/269/7
f 269/269/7 270/270/7 271/271/7
f 272/272/255 274/273/256 273/274/257
f 273/274/258 274/273/259 275/275/260
f 274/273/261 276/276/262 275/275/263
f 275/275/264 276/276/265 277/277/266
f 278/278/267 280/279/268 279/280/269
f 279/280/270 280/279/271 281/281/272
f 280/279/273 282/282/274 281/281/275
f 281/281/276 282/282/277 283/283/102
f 284/284/278 286/285/279 285/286/280
f 285/286/281 286/285/282 287/287/283
f 286/285/284 288/288/285 287/287/286
f 287/287/287 288/288/288 289/289/251
f 290/290/34 292/291/289 291/292/34
f 291/292/34 292/291/290 293/293/291
f 292/291/24 294/294/25 293/293/292
f 293/293/293 294/294/25 295/295/25
f 296/296/294 298/297/295 297/298/296
f 297/298/297 298/297/298 299/299/299
f 298/297/300 300/300/301 299/299/302
f 299/299/303 300/300/304 301/301/41
f 302/302/278 304/303/279 303/304/305
f 303/304/281 304/303/282 305/305/283
f 304/303/284 306/306/285 305/305/286
f 305/305/287 306/306/288 307/307/251
f 308/308/34 310/309/289 309/310/34
f 309/310/34 310/309/290 311/311/291
f 310/309/24 312/312/25 311/311/292
f 311/311/293 312/312/25 313/313/25
f 314/314/294 316/315/295 315/316/296
f 315/316/297 316/315/298 317/317/299
f 316/315/306 318/318/301 317/317/307
f 317/317/303 318/318/304 319/319/41
f 320/320/240 322/321/308 321/322/309
f 321/322/281 322/321/282 323/323/283
f 322/321/284 324/324/310 323/323/311
f 323/323/287 324/324/288 325/325/251
f 326/326/34 328/327/289 327/328/34
f 327/328/34 328/327/290 329/329/291
f 328/327/24 330/330/25 329/329/312
f 329/329/293 330/330/25 331/331/25
f 332/332/313 334/333/314 333/334/296
f 333/334/315 334/333/298 335/335/316
f 334/333/300 336/336/301 335/335/317
f 335/335/303 336/336/304 337/337/41
f 338/338/216 340/339/217 339/340/218
f 339/340/232 340/339/220 341/341/318
f 340/339/222 342/342/223 341/341/319
f 341/341/320 342/342/321 343/343/7
f 344/344/322 346/345/323 345/346/322
f 345/346/324 346/345/325 347/347/326
f 346/345/327 348/348/216 347/347/328
f 347/347/329 348/348/216 349/349/216
f 350/350/330 352/351/331 351/352/330
f 351/352/330 352/351/332 353/353/333
f 352/351/334 354/354/335 353/353/336
f 355/355/7 357/356/7 356/357/7
f 356/357/7 357/356/7 358/358/7
f 357/356/7 359/359/7 358/358/7
f 360/360/337 362/361/337 361/362/337
f 361/362/253 362/361/253 363/363/253
f 362/361/253 364/364/253 363/363/253
f 365/365/7 367/366/7 366/367/7
f 366/367/7 367/366/7 368/368/7
f 367/366/7 369/369/7 368/368/7
f 370/370/338 372/371/339 371/372/338
f 371/372/340 372/371/341 373/373/342
f 372/371/343 374/374/267 373/373/344
f 375/375/345 377/376/346 376/377/347
f 376/377/348 377/376/349 378/378/350
f 377/376/351 379/379/352 378/378/353
f 380/380/354 382/381/355 381/382/356
f 381/382/357 382/381/358 383/383/34
f 382/381/359 384/384/34 383/383/34
f 385/385/360 387/386/361 386/387/362
f 386/387/363 387/386/364 388/388/365
f 387/386/366 389/389/313 388/388/296
f 390/390/7 392/391/48 391/392/367
f 391/392/368 392/391/224 393/393/369
f 392/391/221 394/394/369 393/393/369
f 395/395/324 397/396/370 396/397/371
f 396/397/372 397/396/373 398/398/216
f 397/396/374 399/399/216 398/398/216
f 400/400/345 402/401/346 401/402/347
f 401/402/348 402/401/349 403/403/350
f 402/401/351 404/404/352 403/403/353
f 405/405/354 407/406/375 406/407/356
f 406/407/357 407/406/358 408/408/34
f 407/406/359 409/409/34 408/408/34
f 410/410/376 412/411/377 411/412/378
f 411/412/379 412/411/380 413/413/369
f 412/411/381 414/414/369 413/413/369
f 415/415/360 417/416/361 416/417/362
f 416/417/363 417/416/364 418/418/365
f 417/416/366 419/419/313 418/418/296
f 420/420/7 422/421/48 421/422/367
f 421/422/368 422/421/224 423/423/369
f 422/421/221 424/424/369 423/423/369
f 425/425/324 427/426/370 426/427/382
f 426/427/383 427/426/384 428/428/216
f 427/426/385 429/429/216 428/428/216
f 430/430/345 432/431/346 431/432/386
f 431/432/387 432/431/349 433/433/350
f 432/431/351 434/434/352 433/433/388
f 435/435/354 437/436/389 436/437/390
f 436/437/357 437/436/358 438/438/34
f 437/436/359 439/439/34 438/438/34
f 440/440/376 442/441/377 441/442/378
f 441/442/379 442/441/380 443/443/369
f 442/441/381 444/444/369 443/443/369
f 445/445/360 447/446/361 446/447/391
f 446/447/363 447/446/364 448/448/365
f 447/446/366 449/449/313 448/448/296
f 450/450/7 452/451/48 451/452/367
f 451/452/368 452/451/392 453/453/369
f 452/451/393 454/454/369 453/453/369
f 455/455/324 457/456/370 456/457/394
f 456/457/395 457/456/384 458/458/216
f 457/456/385 459/459/216 458/458/216
f 460/460/376 462/461/377 461/462/378
f 461/462/379 462/461/380 463/463/369
f 462/461/381 464/464/369 463/463/369
f 465/465/313 467/466/396 466/467/313
f 466/467/313 467/466/397 468/468/398
f 467/466/399 469/469/400 468/468/249
f 470/470/7 472/471/48 471/472/367
f 471/472/368 472/471/224 473/473/369
f 472/471/221 474/474/369 473/473/369
f 475/475/401 477/476/401 476/477/401
f 476/477/401 477/476/401 478/478/401
f 479/479/7 481/480/7 480/481/7
f 480/481/7 481/480/7 482/482/7
f 483/483/253 485/484/253 484/485/253
f 484/485/253 485/484/253 486/486/253
f 487/487/7 489/488/7 488/489/7
f 488/489/7 489/488/7 490/490/7
f 491/491/401 493/492/401 492/493/401
f 492/493/401 493/492/401 494/494/401
f 495/495/7 497/496/7 496/497/7
f 496/497/7 497/496/7 498/498/7
f 499/499/253 501/500/253 500/501/253
f 500/501/254 501/500/254 502/502/254
f 503/503/7 505/504/7 504/505/7
f 504/505/7 505/504/7 506/506/7
f 507/507/401 509/508/401 508/509/401
f 508/509/401 509/508/401 510/510/401
f 511/511/402 513/512/402 512/513/402
f 512/513/403 513/512/403 514/514/403
f 515/515/401 517/516/401 516/517/401
f 516/517/401 517/516/401 518/518/401
f 519/519/404 521/520/404 520/521/404
f 520/521/404 521/520/404 522/522/404
f 523/523/405 525/524/405 524/525/405
f 524/525/405 525/524/405 526/526/405
f 527/527/406 529/528/407 528/529/408
f 528/529/409 529/528/410 530/530/411
f 531/531/412 533/532/413 532/533/414
f 532/533/415 533/532/416 534/534/417
f 535/535/330 537/536/330 536/537/330
f 536/537/330 537/536/330 538/538/330
f 539/539/418 541/540/418 540/541/418
f 540/541/418 541/540/418 542/542/418
f 543/543/404 545/544/404 544/545/404
f 544/545/419 545/544/419 546/546/419
f 547/547/405 549/548/405 548/549/405
f 548/549/405 549/548/405 550/550/405
f 551/551/401 553/552/401 552/553/401
f 552/553/401 553/552/401 554/554/401
f 555/555/7 557/556/7 556/557/7
f 556/557/7 557/556/7 558/558/7
f 559/559/253 561/560/253 560/561/253
f 560/561/337 561/560/337 562/562/337
f 563/563/7 565/564/7 564/565/7
f 564/565/7 565/564/7 566/566/7
f 567/567/401 569/568/401 568/569/401
f 568/569/401 569/568/401 570/570/401
f 571/571/401 573/572/401 572/573/401
f 572/573/401 573/572/401 574/574/401
f 575/575/102 577/576/420 576/577/102
f 576/577/203 577/576/89 578/578/89
f 579/579/7 581/580/7 580/581/7
f 580/581/7 581/580/7 582/582/7
f 583/583/254 585/584/254 584/585/254
f 584/585/253 585/584/253 586/586/253
f 587/587/401 589/588/401 588/589/401
f 588/589/401 589/588/401 590/590/401
f 591/591/7 593/592/7 592/593/7
f 592/593/7 593/592/7 594/594/7
f 595/595/401 597/596/401 596/597/401
f 596/597/401 597/596/401 598/598/401
f 599/599/7 601/600/7 600/601/7
f 600/601/7 601/600/7 602/602/7
f 603/603/337 605/604/337 604/605/337
f 604/605/421 605/604/421 606/606/421
f 607/607/7 609/608/7 608/609/7
f 608/609/7 609/608/7 610/610/7
f 611/611/401 613/612/401 612/613/401
f 612/613/401 613/612/401 614/614/401
f 615/615/7 617/616/7 616/617/7
f 616/617/7 617/616/7 618/618/7
f 619/619/337 621/620/337 620/621/337
f 620/621/337 621/620/337 622/622/337
f 623/623/7 625/624/7 624/625/7
f 624/625/7 625/624/7 626/626/7
f 627/627/401 629/628/401 628/629/401
f 628/629/401 629/628/401 630/630/401
f 631/631/7 633/632/7 632/633/7
f 632/633/7 633/632/7 634/634/7
f 635/635/337 637/636/337 636/637/337
f 636/637/337 637/636/337 638/638/337
f 639/639/7 641/640/7 640/641/7
f 640/641/7 641/640/7 642/642/7
f 643/643/401 645/644/401 644/645/401
f 644/645/401 645/644/401 646/646/401
f 647/647/7 649/648/7 648/649/7
f 648/649/7 649/648/7 650/650/7
f 651/651/337 653/652/337 652/653/337
f 652/653/337 653/652/337 654/654/337
f 655/655/7 657/656/7 656/657/7
f 656/657/7 657/656/7 658/658/7
f 659/659/7 661/660/7 660/661/7
f 660/661/7 661/660/7 662/662/7
f 663/663/216 665/664/216 664/665/216
f 664/665/216 665/664/216 666/666/216
f 667/667/216 669/668/216 668/669/216
f 668/669/216 669/668/216 670/670/216
f 671/671/216 673/672/216 672/673/216
f 672/673/216 673/672/216 674/674/216
f 675/675/78 677/676/78 676/677/78
f 678/678/403 680/679/403 679/680/403
f 681/681/422 683/682/422 682/683/422
f 684/684/10 686/685/10 685/686/10
f 687/687/423 689/688/423 688/689/423
f 690/690/113 692/691/113 691/692/113
f 693/693/78 695/694/78 694/695/78
f 696/696/424 698/697/424 697/698/424
f 699/699/10 701/700/10 700/701/10
f 702/702/113 704/703/113 703/704/113
f 705/705/1 707/706/1 706/707/1
f 708/708/425 710/709/425 709/710/425
f 711/711/426 713/712/426 712/713/426
f 714/714/427 716/715/427 715/716/427
f 717/717/428 719/718/428 718/719/428
f 720/720/426 722/721/426 721/722/426
f 723/723/428 725/724/428 724/725/428
f 726/726/429 728/727/429 727/728/429
f 729/729/404 731/730/404 730/731/404
f 732/732/405 734/733/405 733/734/405
f 735/735/405 737/736/405 736/737/405
f 738/738/404 740/739/404 739/740/404
f 741/741/78 743/742/78 742/743/78
f 744/744/403 746/745/403 745/746/403
f 747/747/430 749/748/430 748/749/430
f 750/750/10 752/751/10 751/752/10
f 753/753/78 755/754/78 754/755/78
f 756/756/430 758/757/430 757/758/430
f 759/759/431 761/760/431 760/761/431
f 762/762/156 764/763/156 763/764/156
f 765/765/7 767/766/7 766/767/7
f 768/768/254 770/769/254 769/770/254
f 771/771/10 773/772/10 772/773/10
f 774/774/113 776/775/113 775/776/113
f 777/777/7 779/778/7 778/779/7
f 780/780/10 782/781/10 781/782/10
f 783/783/113 785/784/113 784/785/113
f 786/786/158 788/787/158 787/788/158
f 789/789/78 791/790/78 790/791/78
f 792/792/430 794/793/430 793/794/430
f 795/795/432 797/796/432 796/797/432
f 798/798/156 800/799/156 799/800/156
f 801/801/78 803/802/78 802/803/78
f 804/804/430 806/805/430 805/806/430
f 807/807/430 809/808/430 808/809/430
f 810/810/156 812/811/156 811/812/156
f 813/813/78 815/814/78 814/815/78
f 816/816/430 818/817/430 817/818/430
f 819/819/430 821/820/430 820/821/430
f 822/822/156 824/823/156 823/824/156
f 825/825/78 827/826/78 826/827/78
f 828/828/430 830/829/430 829/830/430
f 831/831/430 833/832/430 832/833/430
f 834/834/156 836/835/156 835/836/156
f 837/837/240 839/838/240 838/839/240
f 840/840/352 842/841/352 841/842/352
f 843/843/433 845/844/433 844/845/433
f 846/846/251 848/847/251 847/848/251
f 849/849/313 851/850/313 850/851/313
f 852/852/313 854/853/313 853/854/313
f 855/855/216 857/856/216 856/857/216
f 858/858/7 860/859/7 859/860/7
f 861/861/25 863/862/25 862/863/25
f 864/864/324 866/865/324 865/866/324
f 867/867/240 869/868/240 868/869/240
f 870/870/352 872/871/352 871/872/352
f 873/873/434 875/874/434 874/875/434
f 876/876/251 878/877/251 877/878/251
f 879/879/313 881/880/313 880/881/313
f 882/882/7 884/883/7 883/884/7
f 885/885/435 887/886/435 886/887/435
f 888/888/313 890/889/313 889/890/313
f 891/891/216 893/892/216 892/893/216
f 894/894/7 896/895/7 895/896/7
f 897/897/25 899/898/25 898/899/25
f 900/900/324 902/901/324 901/902/324
f 903/903/240 905/904/240 904/905/240
f 906/906/352 908/907/352 907/908/352
f 909/909/433 911/910/433 910/911/433
f 912/912/251 914/913/251 913/914/251
f 915/915/313 917/916/313 916/917/313
f 918/918/7 920/919/7 919/920/7
f 921/921/435 923/922/435 922/923/435
f 924/924/313 926/925/313 925/926/313
f 927/927/216 929/928/216 928/929/216
f 930/930/7 932/931/7 931/932/7
f 933/933/25 935/934/25 934/935/25
f 936/936/324 938/937/324 937/938/324
f 939/939/435 941/940/435 940/941/435
f 942/942/436 944/943/436 943/944/436
f 945/945/7 947/946/7 946/947/7
f 948/948/251 950/949/251 949/950/251
f 951/951/216 953/952/216 952/953/216
f 954/954/7 956/955/7 955/956/7
