# Blender v3.6.3 OBJ File: 'untitled.blend'
# www.blender.org
mtllib Mesh_0178.mtl
o Mesh_0178_Mesh.149
v -22.304649 24.129988 5.300926
v -22.304649 24.119621 9.875465
v -22.304649 29.209988 5.300926
v -22.304649 29.209986 9.875465
v -22.304649 24.129986 -15.019077
v -22.304649 24.124807 -10.444534
v -22.304649 29.209986 -15.019077
v -22.304649 29.209988 -10.444534
vt 0.999023 -0.995117
vt 0.999023 0.003906
vt 0.000000 -0.995117
vt 0.000000 0.003906
vt 0.999023 -0.995117
vt 0.999023 0.003906
vt 0.000000 -0.995117
vt 0.000000 0.003906
vn 1.0000 0.0000 0.0000
usemtl Tex_0065_1.dds
s off
f 1/1/1 3/2/1 2/3/1
f 2/3/1 3/2/1 4/4/1
f 5/5/1 7/6/1 6/7/1
f 6/7/1 7/6/1 8/8/1
