# Blender v3.6.3 OBJ File: 'untitled.blend'
# www.blender.org
mtllib Mesh_0267.mtl
o Mesh_0267_Mesh.072
v -19.507790 23.367990 -27.714848
v -19.129585 23.113991 -27.336712
v -22.304585 23.113991 -27.336712
v -19.386377 22.859991 -27.593586
v -22.304585 22.859991 -27.586552
v -19.386377 22.859991 -27.593586
v -19.129585 23.113991 -27.336712
v -19.129585 23.113991 -27.971806
v -19.507790 23.367990 -27.714848
v -19.507774 23.367990 -27.971806
v -9.861378 24.891991 -27.714897
v -10.115377 25.145990 -27.460896
v -7.064585 25.145990 -27.460819
v -9.604586 25.399990 -27.971764
v -7.064585 25.399990 -27.971714
v -9.982792 22.859991 -27.593586
v -10.239584 23.113991 -27.336712
v -7.064585 23.113991 -27.336712
v -9.861378 23.367990 -27.714848
v -7.064585 23.367990 -27.714870
v -9.604586 25.399990 -27.971764
v -10.115377 25.145990 -27.460896
v -10.115377 25.145990 -27.971806
v -9.861378 24.891991 -27.714897
v -9.861376 24.891989 -27.971806
v -9.861378 23.367990 -27.714848
v -10.239584 23.113991 -27.336712
v -10.239584 23.113991 -27.971806
v -9.982792 22.859991 -27.593586
v -9.983267 22.859991 -27.971806
v -22.304585 25.399990 -27.971714
v -19.764584 25.399990 -27.971764
v -22.304585 25.145990 -27.460819
v -19.253792 25.145990 -27.460896
v -19.253792 25.145990 -27.460896
v -19.507790 24.891991 -27.714897
v -22.304585 25.145990 -27.460819
v -22.304585 24.891991 -27.714821
v -22.304585 22.859991 -27.586552
v -19.386377 22.859991 -27.593586
v -22.304585 22.859991 -27.971714
v -19.763367 22.859991 -27.971760
v -19.507774 23.367990 -27.971806
v -19.507790 23.367990 -27.714848
v -19.507790 24.891991 -27.971806
v -19.507790 24.891991 -27.714897
v -19.253792 25.145990 -27.460896
v -19.253792 25.145990 -27.971806
v -19.507790 24.891991 -27.714897
v -19.507790 24.891991 -27.971806
v -7.064585 22.859991 -27.586552
v -7.064585 22.859991 -27.971714
v -9.982792 22.859991 -27.593586
v -9.605803 22.859991 -27.971760
v -9.861378 23.367990 -27.714848
v -9.861391 23.367990 -27.971806
v -9.861378 24.891991 -27.714897
v -9.861376 24.891989 -27.971806
v -22.304585 23.113991 -27.336712
v -22.304585 23.367990 -27.714870
v -19.507790 23.367990 -27.714848
v -19.385902 22.859991 -27.971806
v -19.763367 22.859991 -27.971760
v -19.386377 22.859991 -27.593586
v -19.253792 25.145990 -27.460896
v -19.764584 25.399990 -27.971764
v -19.253792 25.145990 -27.971806
v -19.386377 22.859991 -27.593586
v -19.129585 23.113991 -27.971806
v -19.385902 22.859991 -27.971806
v -7.064585 24.891991 -27.714821
v -9.861378 24.891991 -27.714897
v -7.064585 25.145990 -27.460819
v -7.064585 23.113991 -27.336712
v -7.064585 22.859991 -27.586552
v -9.982792 22.859991 -27.593586
v -9.605803 22.859991 -27.971760
v -9.983267 22.859991 -27.971806
v -9.982792 22.859991 -27.593586
v -9.861378 23.367990 -27.714848
v -10.239584 23.113991 -27.971806
v -9.861391 23.367990 -27.971806
vt -1.997070 -0.945312
vt -2.996094 -1.071289
vt -1.783203 -1.071289
vt -1.997070 -1.184570
vt -2.996094 -1.184570
vt -2.996094 -1.184570
vt -2.884766 -1.071289
vt -2.996094 -1.071289
vt -2.996094 -0.945312
vt -2.947266 -0.945312
vt -1.997070 -0.177734
vt -2.996094 -0.081055
vt -1.682617 -0.081055
vt -1.997070 0.032227
vt -2.996094 0.032227
vt -1.997070 -1.184570
vt -2.996094 -1.071289
vt -1.783203 -1.071289
vt -1.997070 -0.945312
vt -2.996094 -0.945312
vt -2.995117 0.032227
vt -2.904297 -0.081055
vt -2.996094 -0.081055
vt -2.996094 -0.177734
vt -2.947266 -0.177734
vt -2.996094 -0.945312
vt -2.884766 -1.071289
vt -2.996094 -1.071289
vt -2.996094 -1.184570
vt -2.926758 -1.184570
vt -2.996094 0.032227
vt -2.996094 -0.081055
vt -1.997070 0.032227
vt -1.682617 -0.081055
vt -1.682617 -0.081055
vt -2.996094 -0.081055
vt -1.997070 -0.177734
vt -2.996094 -0.177734
vt 2.030273 -1.087891
vt 2.030273 -1.137695
vt 3.029297 -1.085938
vt 3.029297 -1.135742
vt 2.094727 -0.942383
vt 2.094727 -0.155273
vt 1.999023 -0.942383
vt 1.999023 -0.155273
vt -2.996094 -0.081055
vt -2.996094 -0.177734
vt -2.904297 -0.081055
vt -2.947266 -0.177734
vt 2.030273 -1.087891
vt 3.029297 -1.085938
vt 2.030273 -1.137695
vt 3.029297 -1.135742
vt 1.999023 -0.942383
vt 1.999023 -0.155273
vt 2.094727 -0.942383
vt 2.094727 -0.155273
vt -2.996094 -1.071289
vt -1.997070 -0.945312
vt -2.996094 -0.945312
vt 2.099609 -1.087891
vt 2.030273 -1.087891
vt 2.030273 -1.136719
vt -2.996094 -0.081055
vt -2.904297 -0.081055
vt -2.995117 0.032227
vt -2.996094 -1.184570
vt -2.926758 -1.184570
vt -2.884766 -1.071289
vt -2.996094 -0.177734
vt -2.996094 -0.081055
vt -1.997070 -0.177734
vt -2.996094 -1.071289
vt -1.997070 -1.184570
vt -2.996094 -1.184570
vt 2.030273 -1.136719
vt 2.030273 -1.087891
vt 2.099609 -1.087891
vt -2.996094 -0.945312
vt -2.947266 -0.945312
vt -2.884766 -1.071289
vn 0.0000 0.8301 0.5576
vn -0.1585 0.4874 -0.8586
vn 0.0000 -0.7111 0.7031
vn -0.0005 -0.7108 0.7034
vn -0.1087 -0.6873 0.7182
vn 0.0017 -0.7012 0.7129
vn 0.0017 -0.6918 0.7221
vn 0.7032 -0.7110 0.0000
vn -0.2957 -0.6880 -0.6628
vn 0.1663 -0.7792 0.6043
vn -0.0955 0.7795 0.6190
vn 0.3034 0.8622 -0.4057
vn 0.5575 0.8302 0.0000
vn 0.8302 0.5084 -0.2288
vn 0.5575 0.8301 0.0000
vn -0.0000 -0.7071 0.7071
vn 0.1241 -0.5201 -0.8450
vn -0.0000 0.8954 0.4452
vn 0.0899 0.8826 0.4614
vn 0.1220 -0.6063 -0.7858
vn -0.6043 -0.7792 0.1664
vn -0.6191 0.7795 -0.0957
vn 0.0125 0.8704 0.4921
vn 0.0768 0.8206 0.5663
vn -0.4453 0.8954 0.0000
vn -0.2600 0.5227 -0.8119
vn 0.2870 0.7119 0.6410
vn -0.1530 -0.7711 0.6181
vn -0.0789 -0.7468 -0.6604
vn -0.7071 -0.7071 0.0000
vn -0.8798 0.0541 -0.4723
vn -0.5575 0.8302 0.0000
vn 0.1240 0.6089 -0.7835
vn 0.0955 0.7795 0.6190
vn -0.1663 -0.7792 0.6043
vn -0.2476 -0.8739 -0.4182
vn -0.7032 -0.7110 0.0000
vn -0.8577 -0.2713 -0.4368
vn -0.7039 -0.7103 0.0009
vn -0.7044 -0.7098 0.0009
vn 0.0000 -1.0000 0.0000
vn 1.0000 0.0000 0.0001
vn 1.0000 0.0000 0.0000
vn 0.7071 -0.7071 0.0000
vn -1.0000 0.0000 0.0001
vn -1.0000 0.0000 -0.0000
vn 0.4453 0.8954 0.0000
vn 0.7039 -0.7103 0.0009
vn -0.0017 -0.7012 0.7129
vn -0.5575 0.8301 0.0000
usemtl Tex_0052_0.dds.005
s off
f 1/1/1 3/2/2 2/3/1
f 2/3/3 3/2/3 4/4/4
f 3/2/5 5/5/6 4/4/7
f 6/6/8 8/7/9 7/8/10
f 7/8/11 8/7/12 9/9/13
f 8/7/14 10/10/15 9/9/15
f 11/11/16 13/12/17 12/13/16
f 12/13/18 13/12/18 14/14/18
f 13/12/19 15/15/18 14/14/18
f 16/16/3 18/17/20 17/18/21
f 17/18/22 18/17/23 19/19/1
f 18/17/24 20/20/1 19/19/1
f 21/21/25 23/22/26 22/23/27
f 22/23/28 23/22/29 24/24/30
f 23/22/31 25/25/30 24/24/30
f 26/26/32 28/27/33 27/28/34
f 27/28/35 28/27/36 29/29/37
f 28/27/38 30/30/39 29/29/40
f 31/31/18 33/32/18 32/33/18
f 32/33/18 33/32/18 34/34/18
f 35/35/16 37/36/16 36/37/16
f 36/37/16 37/36/16 38/38/16
f 39/39/41 41/40/41 40/41/41
f 40/41/41 41/40/41 42/42/41
f 43/43/42 45/44/42 44/45/42
f 44/45/43 45/44/43 46/46/43
f 47/47/44 49/48/44 48/49/44
f 48/49/44 49/48/44 50/50/44
f 51/51/41 53/52/41 52/53/41
f 52/53/41 53/52/41 54/54/41
f 55/55/45 57/56/45 56/57/45
f 56/57/46 57/56/46 58/58/46
f 59/59/1 61/60/1 60/61/1
f 62/62/41 64/63/41 63/64/41
f 65/65/47 67/66/47 66/67/47
f 68/68/48 70/69/48 69/70/48
f 71/71/16 73/72/16 72/73/16
f 74/74/49 76/75/49 75/76/49
f 77/77/41 79/78/41 78/79/41
f 80/80/50 82/81/50 81/82/50
