# Blender v3.6.3 OBJ File: 'untitled.blend'
# www.blender.org
mtllib Mesh_0256.mtl
o Mesh_0256_Mesh.176
v -7.063601 35.558743 -18.764305
v -7.063601 35.558743 -18.129314
v -8.651100 35.558743 -18.764305
v -8.651100 35.558743 -18.089619
v -9.921104 35.558743 -18.129307
v -8.492350 35.558743 -16.700554
v -9.881413 35.558743 -16.541805
v -9.921101 35.558743 -15.271797
v -10.556101 35.558743 -16.541805
v -10.556101 35.558743 -15.271797
v -6.428600 35.558743 -18.129314
v -6.428600 35.558743 -16.859306
v -7.063601 35.558743 -18.129314
v -7.103289 35.558743 -16.859306
v -8.492350 35.558743 -16.700554
v -7.063599 35.558743 -15.271805
v -8.333601 35.558743 -15.311493
v -8.333601 35.558743 -14.636806
v -9.921101 35.558743 -15.271797
v -9.921101 35.558743 -14.636806
v -7.069145 35.558743 9.490089
v -7.069145 35.558743 10.125084
v -8.656645 35.558743 9.490089
v -8.656645 35.558743 10.164780
v -9.926649 35.558743 10.125092
v -8.497894 35.558743 11.553841
v -9.886957 35.558743 11.712593
v -9.926645 35.558743 12.982590
v -10.561644 35.558743 11.712593
v -10.561644 35.558743 12.982590
v -6.434145 35.558743 10.125084
v -6.434145 35.558743 11.395088
v -7.069145 35.558743 10.125084
v -7.108831 35.558743 11.395088
v -8.497894 35.558743 11.553841
v -7.069141 35.558743 12.982590
v -8.339144 35.558743 12.942902
v -8.339144 35.558743 13.617592
v -9.926645 35.558743 12.982590
v -9.926645 35.558743 13.617592
v -7.063601 13.809997 -18.129307
v -8.651100 13.809997 -18.129307
v -7.063601 12.699989 -18.129307
v -8.651100 12.699989 -18.129307
v -7.063601 13.809997 -18.129307
v -7.063601 12.699989 -18.129307
v -7.063601 13.809998 -16.859306
v -7.063601 12.699990 -16.859306
v -7.063599 13.809998 -15.271805
v -7.063601 13.809998 -16.859306
v -7.063599 12.699990 -15.271805
v -7.063601 12.699990 -16.859306
v -7.103289 35.558743 -16.859306
v -6.428600 35.558743 -16.859306
v -7.063599 35.558743 -15.271805
v -6.428600 35.558743 -15.271805
v -7.063599 13.809998 -15.271805
v -7.063599 12.699990 -15.271805
v -8.333601 13.809998 -15.271805
v -8.333601 12.699990 -15.271805
v -9.921104 13.809997 -18.129307
v -9.921101 13.809998 -16.541805
v -9.921104 12.699989 -18.129307
v -9.921101 12.699990 -16.541805
v -9.881413 35.558743 -16.541805
v -10.556101 35.558743 -16.541805
v -9.921104 35.558743 -18.129307
v -10.556101 35.558743 -18.129307
v -9.921104 13.809997 -18.129307
v -9.921104 12.699989 -18.129307
v -8.651100 13.809997 -18.129307
v -8.651100 12.699989 -18.129307
v -9.921101 13.809998 -15.271805
v -8.333601 13.809998 -15.271805
v -9.921101 12.699990 -15.271805
v -8.333601 12.699990 -15.271805
v -9.921101 13.809998 -15.271805
v -9.921101 12.699990 -15.271805
v -9.921101 13.809998 -16.541805
v -9.921101 12.699990 -16.541805
v -7.069145 13.809998 10.125092
v -8.656645 13.809998 10.125092
v -7.069145 12.699990 10.125092
v -8.656645 12.699990 10.125092
v -7.069145 13.809998 10.125092
v -7.069145 12.699990 10.125092
v -7.069145 13.809997 11.395088
v -7.069145 12.699989 11.395088
v -7.069141 13.809997 12.982590
v -7.069145 13.809997 11.395088
v -7.069141 12.699989 12.982590
v -7.069145 12.699989 11.395088
v -7.108831 35.558743 11.395088
v -6.434145 35.558743 11.395088
v -7.069141 35.558743 12.982590
v -6.434145 35.558743 12.982590
v -7.069141 13.809997 12.982590
v -7.069141 12.699989 12.982590
v -8.339144 13.809997 12.982590
v -8.339144 12.699989 12.982590
v -9.926649 13.809998 10.125092
v -9.926645 13.809997 11.712585
v -9.926649 12.699990 10.125092
v -9.926645 12.699989 11.712585
v -9.886957 35.558743 11.712593
v -10.561644 35.558743 11.712593
v -9.926649 35.558743 10.125092
v -10.561644 35.558743 10.125092
v -9.926649 13.809998 10.125092
v -9.926649 12.699990 10.125092
v -8.656645 13.809998 10.125092
v -8.656645 12.699990 10.125092
v -9.926645 13.809997 12.982590
v -8.339144 13.809997 12.982590
v -9.926645 12.699989 12.982590
v -8.339144 12.699989 12.982590
v -9.926645 13.809997 12.982590
v -9.926645 12.699989 12.982590
v -9.926645 13.809997 11.712585
v -9.926645 12.699989 11.712585
v -8.651100 35.558743 -18.089619
v -7.063601 35.558743 -18.129314
v -8.492350 35.558743 -16.700554
v -8.333601 35.558743 -14.636806
v -7.063599 35.558743 -15.271805
v -7.063599 35.558743 -14.636806
v -8.651100 35.558743 -18.764305
v -9.921104 35.558743 -18.129307
v -9.921104 35.558743 -18.764305
v -8.333601 35.558743 -15.311493
v -9.921101 35.558743 -15.271797
v -8.492350 35.558743 -16.700554
v -8.656645 35.558743 10.164780
v -7.069145 35.558743 10.125084
v -8.497894 35.558743 11.553841
v -8.339144 35.558743 13.617592
v -7.069141 35.558743 12.982590
v -7.069141 35.558743 13.617592
v -9.291645 14.286248 10.760086
v -9.926649 13.809998 10.125092
v -8.971140 14.286248 10.442589
v -9.291645 14.286248 10.760086
v -9.609144 14.286247 11.077591
v -9.926649 13.809998 10.125092
v -8.656645 35.558743 9.490089
v -9.926649 35.558743 10.125092
v -9.926649 35.558743 9.490089
v -8.339144 35.558743 12.942902
v -9.926645 35.558743 12.982590
v -8.497894 35.558743 11.553841
vt 0.998047 1.098633
vt 1.980469 1.098633
vt 0.998047 0.984375
vt 1.997070 0.984375
vt 0.998047 0.984375
vt 0.998047 0.189453
vt 1.997070 0.984375
vt 0.998047 0.984375
vt 1.980469 1.098633
vt 0.998047 1.098633
vt 0.998047 1.098633
vt 0.998047 0.984375
vt 1.980469 1.098633
vt 1.997070 0.984375
vt 0.998047 0.189453
vt 0.998047 0.984375
vt 1.997070 0.984375
vt 1.980469 1.098633
vt 0.998047 0.984375
vt 0.998047 1.098633
vt 0.998047 1.098633
vt 1.980469 1.098633
vt 0.998047 0.984375
vt 1.997070 0.984375
vt 0.998047 0.984375
vt 0.998047 0.189453
vt 1.997070 0.984375
vt 0.998047 0.984375
vt 1.980469 1.098633
vt 0.998047 1.098633
vt 0.998047 1.098633
vt 0.998047 0.984375
vt 1.980469 1.098633
vt 1.997070 0.984375
vt 0.998047 0.189453
vt 0.998047 0.984375
vt 1.997070 0.984375
vt 1.980469 1.098633
vt 0.998047 0.984375
vt 0.998047 1.098633
vt 0.998047 -2.153320
vt 0.998047 -2.997070
vt 1.997070 -2.153320
vt 1.997070 -2.997070
vt 0.998047 -2.153320
vt -0.000977 -2.153320
vt 0.998047 -2.997070
vt -0.000977 -2.997070
vt 0.998047 -2.153320
vt 0.998047 -2.997070
vt 1.997070 -2.153320
vt 1.997070 -2.997070
vt 1.997070 0.984375
vt 0.998047 0.984375
vt 1.980469 1.098633
vt 0.998047 1.098633
vt 0.998047 -2.153320
vt -0.000977 -2.153320
vt 0.998047 -2.997070
vt -0.000977 -2.997070
vt 0.998047 -2.153320
vt 0.998047 -2.997070
vt 1.997070 -2.153320
vt 1.997070 -2.997070
vt 1.997070 0.984375
vt 0.998047 0.984375
vt 1.980469 1.098633
vt 0.998047 1.098633
vt 0.998047 -2.153320
vt -0.000977 -2.153320
vt 0.998047 -2.997070
vt -0.000977 -2.997070
vt 0.998047 -2.153320
vt 0.998047 -2.997070
vt 1.997070 -2.153320
vt 1.997070 -2.997070
vt 0.998047 -2.153320
vt -0.000977 -2.153320
vt 0.998047 -2.997070
vt -0.000977 -2.997070
vt 0.998047 -2.153320
vt 0.998047 -2.997070
vt 1.997070 -2.153320
vt 1.997070 -2.997070
vt 0.998047 -2.153320
vt -0.000977 -2.153320
vt 0.998047 -2.997070
vt -0.000977 -2.997070
vt 0.998047 -2.153320
vt 0.998047 -2.997070
vt 1.997070 -2.153320
vt 1.997070 -2.997070
vt 1.997070 0.984375
vt 0.998047 0.984375
vt 1.980469 1.098633
vt 0.998047 1.098633
vt 0.998047 -2.153320
vt -0.000977 -2.153320
vt 0.998047 -2.997070
vt -0.000977 -2.997070
vt 0.998047 -2.153320
vt 0.998047 -2.997070
vt 1.997070 -2.153320
vt 1.997070 -2.997070
vt 1.997070 0.984375
vt 0.998047 0.984375
vt 1.980469 1.098633
vt 0.998047 1.098633
vt 0.998047 -2.153320
vt -0.000977 -2.153320
vt 0.998047 -2.997070
vt -0.000977 -2.997070
vt 0.998047 -2.153320
vt 0.998047 -2.997070
vt 1.997070 -2.153320
vt 1.997070 -2.997070
vt 0.998047 -2.153320
vt -0.000977 -2.153320
vt 0.998047 -2.997070
vt -0.000977 -2.997070
vt 1.997070 0.984375
vt 0.998047 0.189453
vt 0.998047 0.984375
vt 1.980469 1.098633
vt 0.998047 1.098633
vt 0.998047 0.984375
vt 1.980469 1.098633
vt 0.998047 1.098633
vt 0.998047 0.984375
vt 1.997070 0.984375
vt 0.998047 0.189453
vt 0.998047 0.984375
vt 1.997070 0.984375
vt 0.998047 0.189453
vt 0.998047 0.984375
vt 1.980469 1.098633
vt 0.998047 1.098633
vt 0.998047 0.984375
vt 0.654297 -1.529297
vt 0.373047 -1.529297
vt 0.998047 -2.153320
vt 1.481445 -1.513672
vt 0.998047 -2.153320
vt 1.668945 -1.513672
vt 1.980469 1.098633
vt 0.998047 1.098633
vt 0.998047 0.984375
vt 1.997070 0.984375
vt 0.998047 0.189453
vt 0.998047 0.984375
vn 0.0000 1.0000 0.0000
vn 0.0000 0.0000 -1.0000
vn 1.0000 0.0000 0.0000
vn 0.0000 0.0000 1.0000
vn -1.0000 0.0000 0.0000
vn -0.3297 0.8835 -0.3329
vn -0.3313 0.8835 -0.3313
usemtl Tex_0072_1.dds.007
s off
f 1/1/1 3/2/1 2/3/1
f 2/3/1 3/2/1 4/4/1
f 3/2/1 5/5/1 4/4/1
f 4/4/1 5/5/1 6/6/1
f 5/5/1 7/7/1 6/6/1
f 6/6/1 7/7/1 8/8/1
f 7/7/1 9/9/1 8/8/1
f 8/8/1 9/9/1 10/10/1
f 11/11/1 13/12/1 12/13/1
f 12/13/1 13/12/1 14/14/1
f 13/12/1 15/15/1 14/14/1
f 14/14/1 15/15/1 16/16/1
f 15/15/1 17/17/1 16/16/1
f 16/16/1 17/17/1 18/18/1
f 17/17/1 19/19/1 18/18/1
f 18/18/1 19/19/1 20/20/1
f 21/21/1 23/22/1 22/23/1
f 22/23/1 23/22/1 24/24/1
f 23/22/1 25/25/1 24/24/1
f 24/24/1 25/25/1 26/26/1
f 25/25/1 27/27/1 26/26/1
f 26/26/1 27/27/1 28/28/1
f 27/27/1 29/29/1 28/28/1
f 28/28/1 29/29/1 30/30/1
f 31/31/1 33/32/1 32/33/1
f 32/33/1 33/32/1 34/34/1
f 33/32/1 35/35/1 34/34/1
f 34/34/1 35/35/1 36/36/1
f 35/35/1 37/37/1 36/36/1
f 36/36/1 37/37/1 38/38/1
f 37/37/1 39/39/1 38/38/1
f 38/38/1 39/39/1 40/40/1
f 41/41/2 43/42/2 42/43/2
f 42/43/2 43/42/2 44/44/2
f 45/45/3 47/46/3 46/47/3
f 46/47/3 47/46/3 48/48/3
f 49/49/3 51/50/3 50/51/3
f 50/51/3 51/50/3 52/52/3
f 53/53/1 55/54/1 54/55/1
f 54/55/1 55/54/1 56/56/1
f 57/57/4 59/58/4 58/59/4
f 58/59/4 59/58/4 60/60/4
f 61/61/5 63/62/5 62/63/5
f 62/63/5 63/62/5 64/64/5
f 65/65/1 67/66/1 66/67/1
f 66/67/1 67/66/1 68/68/1
f 69/69/2 71/70/2 70/71/2
f 70/71/2 71/70/2 72/72/2
f 73/73/4 75/74/4 74/75/4
f 74/75/4 75/74/4 76/76/4
f 77/77/5 79/78/5 78/79/5
f 78/79/5 79/78/5 80/80/5
f 81/81/2 83/82/2 82/83/2
f 82/83/2 83/82/2 84/84/2
f 85/85/3 87/86/3 86/87/3
f 86/87/3 87/86/3 88/88/3
f 89/89/3 91/90/3 90/91/3
f 90/91/3 91/90/3 92/92/3
f 93/93/1 95/94/1 94/95/1
f 94/95/1 95/94/1 96/96/1
f 97/97/4 99/98/4 98/99/4
f 98/99/4 99/98/4 100/100/4
f 101/101/5 103/102/5 102/103/5
f 102/103/5 103/102/5 104/104/5
f 105/105/1 107/106/1 106/107/1
f 106/107/1 107/106/1 108/108/1
f 109/109/2 111/110/2 110/111/2
f 110/111/2 111/110/2 112/112/2
f 113/113/4 115/114/4 114/115/4
f 114/115/4 115/114/4 116/116/4
f 117/117/5 119/118/5 118/119/5
f 118/119/5 119/118/5 120/120/5
f 121/121/1 123/122/1 122/123/1
f 124/124/1 126/125/1 125/126/1
f 127/127/1 129/128/1 128/129/1
f 130/130/1 132/131/1 131/132/1
f 133/133/1 135/134/1 134/135/1
f 136/136/1 138/137/1 137/138/1
f 139/139/6 141/140/6 140/141/6
f 142/142/7 144/143/7 143/144/7
f 145/145/1 147/146/1 146/147/1
f 148/148/1 150/149/1 149/150/1
