# Blender v3.6.3 OBJ File: 'untitled.blend'
# www.blender.org
mtllib Mesh_0104.mtl
o Mesh_0104_Mesh.118
v 3.095415 -0.000010 -17.811806
v 5.635412 -0.000010 -20.351807
v 5.635412 -0.000010 -17.811806
v 8.175413 -0.000010 -20.351807
v 8.175413 -0.000010 -17.811806
v 10.715414 -0.000010 -20.351807
v 10.715414 -0.000010 -17.811806
v 13.255411 -0.000010 -20.351807
v 13.255411 -0.000010 -17.811806
v 15.795412 -0.000010 -20.351807
v 15.795412 -0.000010 -17.811806
v 18.335413 -0.000010 -20.351807
v 18.335413 -0.000010 -17.811806
v 20.875410 -0.000010 -20.351807
v 20.875410 -0.000010 -17.811806
v 23.415415 -0.000010 -20.351807
v 23.415415 -0.000010 -17.811806
v 25.955416 -0.000010 -20.351807
v 25.955416 -0.000010 -17.811806
v 3.095415 -0.000010 -20.351807
v 5.635412 -0.000010 -22.891804
v 5.635412 -0.000010 -20.351807
v 8.175413 -0.000010 -22.891804
v 8.175413 -0.000010 -20.351807
v 10.715414 -0.000010 -22.891804
v 10.715414 -0.000010 -20.351807
v 13.255411 -0.000010 -22.891804
v 13.255411 -0.000010 -20.351807
v 15.795412 -0.000010 -22.891804
v 15.795412 -0.000010 -20.351807
v 18.335413 -0.000010 -22.891804
v 18.335413 -0.000010 -20.351807
v 20.875410 -0.000010 -22.891804
v 20.875410 -0.000010 -20.351807
v 23.415415 -0.000010 -22.891804
v 23.415415 -0.000010 -20.351807
v 25.955416 -0.000010 -22.891804
v 25.955416 -0.000010 -20.351807
v 3.095415 -0.000010 -22.891804
v 5.635412 -0.000010 -25.431805
v 5.635412 -0.000010 -22.891804
v 8.175413 -0.000010 -25.431805
v 8.175413 -0.000010 -22.891804
v 10.715414 -0.000010 -25.431805
v 10.715414 -0.000010 -22.891804
v 13.255411 -0.000010 -25.431805
v 13.255411 -0.000010 -22.891804
v 15.795412 -0.000010 -25.431805
v 15.795412 -0.000010 -22.891804
v 18.335413 -0.000010 -25.431805
v 18.335413 -0.000010 -22.891804
v 20.875410 -0.000010 -25.431805
v 20.875410 -0.000010 -22.891804
v 23.415415 -0.000010 -25.431805
v 23.415415 -0.000010 -22.891804
v 25.955416 -0.000010 -25.431805
v 25.955416 -0.000010 -22.891804
v 3.095415 -0.000010 -25.431805
v 5.635412 -0.000010 -26.701805
v 5.635412 -0.000010 -25.431805
v 8.175413 -0.000010 -26.701805
v 8.175413 -0.000010 -25.431805
v 10.715414 -0.000010 -26.701805
v 10.715414 -0.000010 -25.431805
v 13.255411 -0.000010 -26.701805
v 13.255411 -0.000010 -25.431805
v 15.795412 -0.000010 -26.701805
v 15.795412 -0.000010 -25.431805
v 18.335413 -0.000010 -26.701805
v 18.335413 -0.000010 -25.431805
v 20.875410 -0.000010 -26.701805
v 20.875410 -0.000010 -25.431805
v 23.415415 -0.000010 -26.701805
v 23.415415 -0.000010 -25.431805
v 25.955416 -0.000010 -26.701805
v 25.955416 -0.000010 -25.431805
v 3.095415 -0.000010 15.208191
v 3.095415 -0.000010 12.668190
v 5.635412 -0.000010 15.208191
v 5.635412 -0.000010 12.668190
v 8.175413 -0.000010 15.208191
v 8.175413 -0.000010 12.668190
v 10.715414 -0.000010 15.208191
v 10.715414 -0.000010 12.668190
v 13.255411 -0.000010 15.208191
v 13.255411 -0.000010 12.668190
v 15.795412 -0.000010 15.208191
v 15.795412 -0.000010 12.668190
v 18.335413 -0.000010 15.208191
v 18.335413 -0.000010 12.668190
v 20.875410 -0.000010 15.208191
v 20.875410 -0.000010 12.668190
v 23.415415 -0.000010 15.208191
v 23.415415 -0.000010 12.668190
v 25.955416 -0.000010 15.208191
v 3.095415 -0.000010 17.748192
v 3.095415 -0.000010 15.208191
v 5.635412 -0.000010 17.748192
v 5.635412 -0.000010 15.208191
v 8.175413 -0.000010 17.748192
v 8.175413 -0.000010 15.208191
v 10.715414 -0.000010 17.748192
v 10.715414 -0.000010 15.208191
v 13.255411 -0.000010 17.748192
v 13.255411 -0.000010 15.208191
v 15.795412 -0.000010 17.748192
v 15.795412 -0.000010 15.208191
v 18.335413 -0.000010 17.748192
v 18.335413 -0.000010 15.208191
v 20.875410 -0.000010 17.748192
v 20.875410 -0.000010 15.208191
v 23.415415 -0.000010 17.748192
v 23.415415 -0.000010 15.208191
v 25.955416 -0.000010 17.748192
v 3.095415 -0.000010 20.288193
v 3.095415 -0.000010 17.748192
v 5.635412 -0.000010 20.288193
v 5.635412 -0.000010 17.748192
v 8.175413 -0.000010 20.288193
v 8.175413 -0.000010 17.748192
v 10.715414 -0.000010 20.288193
v 10.715414 -0.000010 17.748192
v 13.255411 -0.000010 20.288193
v 13.255411 -0.000010 17.748192
v 15.795412 -0.000010 20.288193
v 15.795412 -0.000010 17.748192
v 18.335413 -0.000010 20.288193
v 18.335413 -0.000010 17.748192
v 20.875410 -0.000010 20.288193
v 20.875410 -0.000010 17.748192
v 23.415415 -0.000010 20.288193
v 23.415415 -0.000010 17.748192
v 25.955416 -0.000010 20.288193
v 3.095415 -0.000010 21.558189
v 3.095415 -0.000010 20.288193
v 5.635412 -0.000010 21.558189
v 5.635412 -0.000010 20.288193
v 8.175413 -0.000010 21.558189
v 8.175413 -0.000010 20.288193
v 10.715414 -0.000010 21.558189
v 10.715414 -0.000010 20.288193
v 13.255411 -0.000010 21.558189
v 13.255411 -0.000010 20.288193
v 15.795412 -0.000010 21.558189
v 15.795412 -0.000010 20.288193
v 18.335413 -0.000010 21.558189
v 18.335413 -0.000010 20.288193
v 20.875410 -0.000010 21.558189
v 20.875410 -0.000010 20.288193
v 23.415415 -0.000010 21.558189
v 23.415415 -0.000010 20.288193
v 25.955416 -0.000010 21.558189
v 38.655418 -0.000010 12.668190
v 38.655418 -0.000010 15.208191
v 36.115417 -0.000010 12.668190
v 36.115417 -0.000010 15.208191
v 33.575417 -0.000010 12.668190
v 33.575417 -0.000010 15.208191
v 31.035414 -0.000010 12.668190
v 31.035414 -0.000010 15.208191
v 28.495417 -0.000010 12.668190
v 28.495417 -0.000010 15.208191
v 25.955416 -0.000010 12.668190
v 25.955416 -0.000010 15.208191
v 23.415415 -0.000010 12.668190
v 38.655418 -0.000010 15.208191
v 38.655418 -0.000010 17.748192
v 36.115417 -0.000010 15.208191
v 36.115417 -0.000010 17.748192
v 33.575417 -0.000010 15.208191
v 33.575417 -0.000010 17.748192
v 31.035414 -0.000010 15.208191
v 31.035414 -0.000010 17.748192
v 28.495417 -0.000010 15.208191
v 28.495417 -0.000010 17.748192
v 25.955416 -0.000010 15.208191
v 25.955416 -0.000010 17.748192
v 23.415415 -0.000010 15.208191
v 38.655418 -0.000010 17.748192
v 38.655418 -0.000010 20.288193
v 36.115417 -0.000010 17.748192
v 36.115417 -0.000010 20.288193
v 33.575417 -0.000010 17.748192
v 33.575417 -0.000010 20.288193
v 31.035414 -0.000010 17.748192
v 31.035414 -0.000010 20.288193
v 28.495417 -0.000010 17.748192
v 28.495417 -0.000010 20.288193
v 25.955416 -0.000010 17.748192
v 25.955416 -0.000010 20.288193
v 23.415415 -0.000010 17.748192
v 38.655418 -0.000010 20.288193
v 38.655418 -0.000010 21.558189
v 36.115417 -0.000010 20.288193
v 36.115417 -0.000010 21.558189
v 33.575417 -0.000010 20.288193
v 33.575417 -0.000010 21.558189
v 31.035414 -0.000010 20.288193
v 31.035414 -0.000010 21.558189
v 28.495417 -0.000010 20.288193
v 28.495417 -0.000010 21.558189
v 25.955416 -0.000010 20.288193
v 25.955416 -0.000010 21.558189
v 23.415415 -0.000010 20.288193
v 25.955416 -0.000010 -17.811806
v 28.495417 -0.000010 -20.351807
v 28.495417 -0.000010 -17.811806
v 31.035414 -0.000010 -20.351807
v 31.035414 -0.000010 -17.811806
v 33.575417 -0.000010 -20.351807
v 33.575417 -0.000010 -17.811806
v 36.115417 -0.000010 -20.351807
v 36.115417 -0.000010 -17.811806
v 38.655418 -0.000010 -20.351807
v 38.655418 -0.000010 -17.811806
v 25.955416 -0.000010 -20.351807
v 28.495417 -0.000010 -22.891804
v 28.495417 -0.000010 -20.351807
v 31.035414 -0.000010 -22.891804
v 31.035414 -0.000010 -20.351807
v 33.575417 -0.000010 -22.891804
v 33.575417 -0.000010 -20.351807
v 36.115417 -0.000010 -22.891804
v 36.115417 -0.000010 -20.351807
v 38.655418 -0.000010 -22.891804
v 38.655418 -0.000010 -20.351807
v 25.955416 -0.000010 -22.891804
v 28.495417 -0.000010 -25.431805
v 28.495417 -0.000010 -22.891804
v 31.035414 -0.000010 -25.431805
v 31.035414 -0.000010 -22.891804
v 33.575417 -0.000010 -25.431805
v 33.575417 -0.000010 -22.891804
v 36.115417 -0.000010 -25.431805
v 36.115417 -0.000010 -22.891804
v 38.655418 -0.000010 -25.431805
v 38.655418 -0.000010 -22.891804
v 25.955416 -0.000010 -25.431805
v 28.495417 -0.000010 -26.701805
v 28.495417 -0.000010 -25.431805
v 31.035414 -0.000010 -26.701805
v 31.035414 -0.000010 -25.431805
v 33.575417 -0.000010 -26.701805
v 33.575417 -0.000010 -25.431805
v 36.115417 -0.000010 -26.701805
v 36.115417 -0.000010 -25.431805
v 38.655418 -0.000010 -26.701805
v 38.655418 -0.000010 -25.431805
v 5.635412 -0.000010 -20.351807
v 3.095415 -0.000010 -17.811806
v 3.095415 -0.000010 -20.351807
v 0.555414 -0.000010 -17.811806
v 0.555414 -0.000010 -20.351807
v -1.984585 -0.000010 -17.811806
v -1.984585 -0.000010 -20.351807
v 5.635412 -0.000010 -22.891804
v 3.095415 -0.000010 -20.351807
v 3.095415 -0.000010 -22.891804
v 0.555414 -0.000010 -20.351807
v 0.555414 -0.000010 -22.891804
v -1.984585 -0.000010 -20.351807
v -1.984585 -0.000010 -22.891804
v 5.635412 -0.000010 -25.431805
v 3.095415 -0.000010 -22.891804
v 3.095415 -0.000010 -25.431805
v 0.555414 -0.000010 -22.891804
v 0.555414 -0.000010 -25.431805
v -1.984585 -0.000010 -22.891804
v -1.984585 -0.000010 -25.431805
v 5.635412 -0.000010 -26.701805
v 3.095415 -0.000010 -25.431805
v 3.095415 -0.000010 -26.701805
v 0.555414 -0.000010 -25.431805
v 0.555414 -0.000010 -26.701805
v -1.984585 -0.000010 -25.431805
v -1.984585 -0.000010 -26.701805
v -4.524584 -0.000010 -17.811806
v -5.794584 -0.000010 -17.811806
v -4.524584 -0.000010 -20.351807
v -5.794584 -0.000010 -20.351807
v -4.524584 -0.000010 -22.891804
v -5.794584 -0.000010 -22.891804
v -1.984585 -0.000010 -17.811806
v -4.524584 -0.000010 -17.811806
v -1.984585 -0.000010 -20.351807
v -4.524584 -0.000010 -20.351807
v -1.984585 -0.000010 -22.891804
v -4.524584 -0.000010 -22.891804
v 41.195419 -0.000010 -17.811806
v 38.655418 -0.000010 -17.811806
v 41.195419 -0.000010 -20.351807
v 38.655418 -0.000010 -20.351807
v 41.195419 -0.000010 -22.891804
v 38.655418 -0.000010 -22.891804
v 42.465424 -0.000010 -17.811806
v 41.195419 -0.000010 -17.811806
v 42.465424 -0.000010 -20.351807
v 41.195419 -0.000010 -20.351807
v 42.465424 -0.000010 -22.891804
v 41.195419 -0.000010 -22.891804
v -4.524584 -0.000010 -22.891804
v -5.794584 -0.000010 -22.891804
v -4.524584 -0.000010 -25.431805
v -5.794584 -0.000010 -25.431805
v -4.524584 -0.000010 -26.701805
v -5.794584 -0.000010 -26.701805
v -1.984585 -0.000010 -22.891804
v -4.524584 -0.000010 -22.891804
v -1.984585 -0.000010 -25.431805
v -4.524584 -0.000010 -25.431805
v -1.984585 -0.000010 -26.701805
v -4.524584 -0.000010 -26.701805
v 41.195419 -0.000010 -22.891804
v 38.655418 -0.000010 -22.891804
v 41.195419 -0.000010 -25.431805
v 38.655418 -0.000010 -25.431805
v 41.195419 -0.000010 -26.701805
v 38.655418 -0.000010 -26.701805
v 42.465424 -0.000010 -22.891804
v 41.195419 -0.000010 -22.891804
v 42.465424 -0.000010 -25.431805
v 41.195419 -0.000010 -25.431805
v 42.465424 -0.000010 -26.701805
v 41.195419 -0.000010 -26.701805
v -1.984585 -0.000010 15.208191
v -1.984585 -0.000010 12.668190
v 0.555414 -0.000010 15.208191
v 0.555414 -0.000010 12.668190
v 3.095415 -0.000010 15.208191
v 3.095415 -0.000010 12.668190
v -1.984585 -0.000010 17.748192
v -1.984585 -0.000010 15.208191
v 0.555414 -0.000010 17.748192
v 0.555414 -0.000010 15.208191
v 3.095415 -0.000010 17.748192
v 3.095415 -0.000010 15.208191
v -5.794584 -0.000010 15.208191
v -5.794584 -0.000010 12.668190
v -4.524584 -0.000010 15.208191
v -4.524584 -0.000010 12.668190
v -1.984585 -0.000010 15.208191
v -1.984585 -0.000010 12.668190
v -5.794584 -0.000010 17.748192
v -5.794584 -0.000010 15.208191
v -4.524584 -0.000010 17.748192
v -4.524584 -0.000010 15.208191
v -1.984585 -0.000010 17.748192
v -1.984585 -0.000010 15.208191
v 38.655418 -0.000010 15.208191
v 38.655418 -0.000010 12.668190
v 41.195419 -0.000010 15.208191
v 41.195419 -0.000010 12.668190
v 42.465424 -0.000010 15.208191
v 42.465424 -0.000010 12.668190
v 38.655418 -0.000010 17.748192
v 38.655418 -0.000010 15.208191
v 41.195419 -0.000010 17.748192
v 41.195419 -0.000010 15.208191
v 42.465424 -0.000010 17.748192
v 42.465424 -0.000010 15.208191
v -1.984585 -0.000010 20.288193
v -1.984585 -0.000010 17.748192
v 0.555414 -0.000010 20.288193
v 0.555414 -0.000010 17.748192
v 3.095415 -0.000010 20.288193
v 3.095415 -0.000010 17.748192
v -1.984585 -0.000010 21.558189
v -1.984585 -0.000010 20.288193
v 0.555414 -0.000010 21.558189
v 0.555414 -0.000010 20.288193
v 3.095415 -0.000010 21.558189
v 3.095415 -0.000010 20.288193
v -5.794584 -0.000010 20.288193
v -5.794584 -0.000010 17.748192
v -4.524584 -0.000010 20.288193
v -4.524584 -0.000010 17.748192
v -1.984585 -0.000010 20.288193
v -1.984585 -0.000010 17.748192
v -5.794584 -0.000010 21.558189
v -5.794584 -0.000010 20.288193
v -4.524584 -0.000010 21.558189
v -4.524584 -0.000010 20.288193
v -1.984585 -0.000010 21.558189
v -1.984585 -0.000010 20.288193
v 38.655418 -0.000010 20.288193
v 38.655418 -0.000010 17.748192
v 41.195419 -0.000010 20.288193
v 41.195419 -0.000010 17.748192
v 42.465424 -0.000010 20.288193
v 42.465424 -0.000010 17.748192
v 38.655418 -0.000010 21.558189
v 38.655418 -0.000010 20.288193
v 41.195419 -0.000010 21.558189
v 41.195419 -0.000010 20.288193
v 42.465424 -0.000010 21.558189
v 42.465424 -0.000010 20.288193
v 28.495417 -0.000010 -20.351807
v 25.955416 -0.000010 -17.811806
v 25.955416 -0.000010 -20.351807
v 28.495417 -0.000010 -22.891804
v 25.955416 -0.000010 -20.351807
v 25.955416 -0.000010 -22.891804
v 28.495417 -0.000010 -25.431805
v 25.955416 -0.000010 -22.891804
v 25.955416 -0.000010 -25.431805
v 28.495417 -0.000010 -26.701805
v 25.955416 -0.000010 -25.431805
v 25.955416 -0.000010 -26.701805
vt -5.994141 -1.497070
vt -4.995117 -1.497070
vt -4.995117 -0.498047
vt -3.996094 -0.498047
vt -3.996094 -1.497070
vt -2.997070 -0.498047
vt -2.997070 -1.497070
vt -1.998047 -0.498047
vt -1.998047 -1.497070
vt -0.998047 -0.498047
vt -0.998047 -1.497070
vt 0.000000 -0.498047
vt 0.000000 -1.497070
vt 0.999023 -0.498047
vt 0.999023 -1.497070
vt 1.998047 -0.498047
vt 1.998047 -1.497070
vt 2.997070 -0.498047
vt 2.997070 -1.497070
vt -5.994141 -0.498047
vt -4.995117 -0.498047
vt -4.995117 0.500977
vt -3.996094 0.500977
vt -3.996094 -0.498047
vt -2.997070 0.500977
vt -2.997070 -0.498047
vt -1.998047 0.500977
vt -1.998047 -0.498047
vt -0.998047 0.500977
vt -0.998047 -0.498047
vt 0.000000 0.500977
vt 0.000000 -0.498047
vt 0.999023 0.500977
vt 0.999023 -0.498047
vt 1.998047 0.500977
vt 1.998047 -0.498047
vt 2.997070 0.500977
vt 2.997070 -0.498047
vt -5.994141 -1.497070
vt -4.995117 -1.497070
vt -4.995117 -0.498047
vt -3.996094 -0.498047
vt -3.996094 -1.497070
vt -2.997070 -0.498047
vt -2.997070 -1.497070
vt -1.998047 -0.498047
vt -1.998047 -1.497070
vt -0.998047 -0.498047
vt -0.998047 -1.497070
vt 0.000000 -0.498047
vt 0.000000 -1.497070
vt 0.999023 -0.498047
vt 0.999023 -1.497070
vt 1.998047 -0.498047
vt 1.998047 -1.497070
vt 2.997070 -0.498047
vt 2.997070 -1.497070
vt -5.994141 -0.498047
vt -4.995117 -0.498047
vt -4.995117 0.000977
vt -3.996094 0.000977
vt -3.996094 -0.498047
vt -2.997070 0.000977
vt -2.997070 -0.498047
vt -1.998047 0.000977
vt -1.998047 -0.498047
vt -0.998047 0.000977
vt -0.998047 -0.498047
vt 0.000000 0.000977
vt 0.000000 -0.498047
vt 0.999023 0.000977
vt 0.999023 -0.498047
vt 1.998047 0.000977
vt 1.998047 -0.498047
vt 2.997070 0.000977
vt 2.997070 -0.498047
vt -5.994141 -0.498047
vt -4.995117 -0.498047
vt -5.994141 -1.497070
vt -4.995117 -1.497070
vt -3.996094 -0.498047
vt -3.996094 -1.497070
vt -2.997070 -0.498047
vt -2.997070 -1.497070
vt -1.998047 -0.498047
vt -1.998047 -1.497070
vt -0.998047 -0.498047
vt -0.998047 -1.497070
vt 0.000000 -0.498047
vt 0.000000 -1.497070
vt 0.999023 -0.498047
vt 0.999023 -1.497070
vt 1.998047 -0.498047
vt 1.998047 -1.497070
vt 2.997070 -0.498047
vt -5.994141 0.500977
vt -4.995117 0.500977
vt -5.994141 -0.498047
vt -4.995117 -0.498047
vt -3.996094 0.500977
vt -3.996094 -0.498047
vt -2.997070 0.500977
vt -2.997070 -0.498047
vt -1.998047 0.500977
vt -1.998047 -0.498047
vt -0.998047 0.500977
vt -0.998047 -0.498047
vt 0.000000 0.500977
vt 0.000000 -0.498047
vt 0.999023 0.500977
vt 0.999023 -0.498047
vt 1.998047 0.500977
vt 1.998047 -0.498047
vt 2.997070 0.500977
vt -5.994141 -0.498047
vt -4.995117 -0.498047
vt -5.994141 -1.497070
vt -4.995117 -1.497070
vt -3.996094 -0.498047
vt -3.996094 -1.497070
vt -2.997070 -0.498047
vt -2.997070 -1.497070
vt -1.998047 -0.498047
vt -1.998047 -1.497070
vt -0.998047 -0.498047
vt -0.998047 -1.497070
vt 0.000000 -0.498047
vt 0.000000 -1.497070
vt 0.999023 -0.498047
vt 0.999023 -1.497070
vt 1.998047 -0.498047
vt 1.998047 -1.497070
vt 2.997070 -0.498047
vt -5.994141 0.000977
vt -4.995117 0.000977
vt -5.994141 -0.498047
vt -4.995117 -0.498047
vt -3.996094 0.000977
vt -3.996094 -0.498047
vt -2.997070 0.000977
vt -2.997070 -0.498047
vt -1.998047 0.000977
vt -1.998047 -0.498047
vt -0.998047 0.000977
vt -0.998047 -0.498047
vt 0.000000 0.000977
vt 0.000000 -0.498047
vt 0.999023 0.000977
vt 0.999023 -0.498047
vt 1.998047 0.000977
vt 1.998047 -0.498047
vt 2.997070 0.000977
vt 7.992188 -1.497070
vt 6.993164 -1.497070
vt 7.992188 -0.498047
vt 6.993164 -0.498047
vt 5.994141 -1.497070
vt 5.994141 -0.498047
vt 4.995117 -1.497070
vt 4.995117 -0.498047
vt 3.996094 -1.497070
vt 3.996094 -0.498047
vt 2.997070 -1.497070
vt 2.997070 -0.498047
vt 1.998047 -1.497070
vt 7.992188 -0.498047
vt 6.993164 -0.498047
vt 7.992188 0.500977
vt 6.993164 0.500977
vt 5.994141 -0.498047
vt 5.994141 0.500977
vt 4.995117 -0.498047
vt 4.995117 0.500977
vt 3.996094 -0.498047
vt 3.996094 0.500977
vt 2.997070 -0.498047
vt 2.997070 0.500977
vt 1.998047 -0.498047
vt 7.992188 -1.497070
vt 6.993164 -1.497070
vt 7.992188 -0.498047
vt 6.993164 -0.498047
vt 5.994141 -1.497070
vt 5.994141 -0.498047
vt 4.995117 -1.497070
vt 4.995117 -0.498047
vt 3.996094 -1.497070
vt 3.996094 -0.498047
vt 2.997070 -1.497070
vt 2.997070 -0.498047
vt 1.998047 -1.497070
vt 7.992188 -0.498047
vt 6.993164 -0.498047
vt 7.992188 0.000977
vt 6.993164 0.000977
vt 5.994141 -0.498047
vt 5.994141 0.000977
vt 4.995117 -0.498047
vt 4.995117 0.000977
vt 3.996094 -0.498047
vt 3.996094 0.000977
vt 2.997070 -0.498047
vt 2.997070 0.000977
vt 1.998047 -0.498047
vt 2.997070 -1.497070
vt 3.996094 -1.497070
vt 3.996094 -0.498047
vt 4.995117 -0.498047
vt 4.995117 -1.497070
vt 5.994141 -0.498047
vt 5.994141 -1.497070
vt 6.993164 -0.498047
vt 6.993164 -1.497070
vt 7.992188 -0.498047
vt 7.992188 -1.497070
vt 2.997070 -0.498047
vt 3.996094 -0.498047
vt 3.996094 0.500977
vt 4.995117 0.500977
vt 4.995117 -0.498047
vt 5.994141 0.500977
vt 5.994141 -0.498047
vt 6.993164 0.500977
vt 6.993164 -0.498047
vt 7.992188 0.500977
vt 7.992188 -0.498047
vt 2.997070 -1.497070
vt 3.996094 -1.497070
vt 3.996094 -0.498047
vt 4.995117 -0.498047
vt 4.995117 -1.497070
vt 5.994141 -0.498047
vt 5.994141 -1.497070
vt 6.993164 -0.498047
vt 6.993164 -1.497070
vt 7.992188 -0.498047
vt 7.992188 -1.497070
vt 2.997070 -0.498047
vt 3.996094 -0.498047
vt 3.996094 0.000977
vt 4.995117 0.000977
vt 4.995117 -0.498047
vt 5.994141 0.000977
vt 5.994141 -0.498047
vt 6.993164 0.000977
vt 6.993164 -0.498047
vt 7.992188 0.000977
vt 7.992188 -0.498047
vt -4.995117 -0.498047
vt -5.994141 -0.498047
vt -5.994141 -1.497070
vt -6.993164 -1.497070
vt -6.993164 -0.498047
vt -7.992188 -1.497070
vt -7.992188 -0.498047
vt -4.995117 0.500977
vt -5.994141 0.500977
vt -5.994141 -0.498047
vt -6.993164 -0.498047
vt -6.993164 0.500977
vt -7.992188 -0.498047
vt -7.992188 0.500977
vt -4.995117 -0.498047
vt -5.994141 -0.498047
vt -5.994141 -1.497070
vt -6.993164 -1.497070
vt -6.993164 -0.498047
vt -7.992188 -1.497070
vt -7.992188 -0.498047
vt -4.995117 0.000977
vt -5.994141 0.000977
vt -5.994141 -0.498047
vt -6.993164 -0.498047
vt -6.993164 0.000977
vt -7.992188 -0.498047
vt -7.992188 0.000977
vt -6.993164 -1.497070
vt -6.993164 -0.498047
vt -7.492188 -1.497070
vt -7.492188 -0.498047
vt -6.993164 0.500977
vt -7.492188 0.500977
vt -5.994141 -1.497070
vt -5.994141 -0.498047
vt -6.993164 -1.497070
vt -6.993164 -0.498047
vt -5.994141 0.500977
vt -6.993164 0.500977
vt -6.993164 -1.497070
vt -6.993164 -0.498047
vt -7.992188 -1.497070
vt -7.992188 -0.498047
vt -6.993164 0.500977
vt -7.992188 0.500977
vt -6.493164 -1.497070
vt -6.493164 -0.498047
vt -6.993164 -1.497070
vt -6.993164 -0.498047
vt -6.493164 0.500977
vt -6.993164 0.500977
vt -6.993164 -1.497070
vt -6.993164 -0.498047
vt -7.492188 -1.497070
vt -7.492188 -0.498047
vt -6.993164 0.000977
vt -7.492188 0.000977
vt -5.994141 -1.497070
vt -5.994141 -0.498047
vt -6.993164 -1.497070
vt -6.993164 -0.498047
vt -5.994141 0.000977
vt -6.993164 0.000977
vt -6.993164 -1.497070
vt -6.993164 -0.498047
vt -7.992188 -1.497070
vt -7.992188 -0.498047
vt -6.993164 0.000977
vt -7.992188 0.000977
vt -6.493164 -1.497070
vt -6.493164 -0.498047
vt -6.993164 -1.497070
vt -6.993164 -0.498047
vt -6.493164 0.000977
vt -6.993164 0.000977
vt -7.992188 -0.498047
vt -6.993164 -0.498047
vt -7.992188 -1.497070
vt -6.993164 -1.497070
vt -5.994141 -0.498047
vt -5.994141 -1.497070
vt -7.992188 0.500977
vt -6.993164 0.500977
vt -7.992188 -0.498047
vt -6.993164 -0.498047
vt -5.994141 0.500977
vt -5.994141 -0.498047
vt -7.492188 -0.498047
vt -6.993164 -0.498047
vt -7.492188 -1.497070
vt -6.993164 -1.497070
vt -5.994141 -0.498047
vt -5.994141 -1.497070
vt -7.492188 0.500977
vt -6.993164 0.500977
vt -7.492188 -0.498047
vt -6.993164 -0.498047
vt -5.994141 0.500977
vt -5.994141 -0.498047
vt -7.992188 -0.498047
vt -6.993164 -0.498047
vt -7.992188 -1.497070
vt -6.993164 -1.497070
vt -6.493164 -0.498047
vt -6.493164 -1.497070
vt -7.992188 0.500977
vt -6.993164 0.500977
vt -7.992188 -0.498047
vt -6.993164 -0.498047
vt -6.493164 0.500977
vt -6.493164 -0.498047
vt -7.992188 -0.498047
vt -6.993164 -0.498047
vt -7.992188 -1.497070
vt -6.993164 -1.497070
vt -5.994141 -0.498047
vt -5.994141 -1.497070
vt -7.992188 0.000977
vt -6.993164 0.000977
vt -7.992188 -0.498047
vt -6.993164 -0.498047
vt -5.994141 0.000977
vt -5.994141 -0.498047
vt -7.492188 -0.498047
vt -6.993164 -0.498047
vt -7.492188 -1.497070
vt -6.993164 -1.497070
vt -5.994141 -0.498047
vt -5.994141 -1.497070
vt -7.492188 0.000977
vt -6.993164 0.000977
vt -7.492188 -0.498047
vt -6.993164 -0.498047
vt -5.994141 0.000977
vt -5.994141 -0.498047
vt -7.992188 -0.498047
vt -6.993164 -0.498047
vt -7.992188 -1.497070
vt -6.993164 -1.497070
vt -6.493164 -0.498047
vt -6.493164 -1.497070
vt -7.992188 0.000977
vt -6.993164 0.000977
vt -7.992188 -0.498047
vt -6.993164 -0.498047
vt -6.493164 0.000977
vt -6.493164 -0.498047
vt 3.996094 -0.498047
vt 2.997070 -0.498047
vt 2.997070 -1.497070
vt 3.996094 0.500977
vt 2.997070 0.500977
vt 2.997070 -0.498047
vt 3.996094 -0.498047
vt 2.997070 -0.498047
vt 2.997070 -1.497070
vt 3.996094 0.000977
vt 2.997070 0.000977
vt 2.997070 -0.498047
vn 0.0000 1.0000 0.0000
usemtl Tex_0008_1.dds
s off
f 1/1/1 3/2/1 2/3/1
f 2/3/1 3/2/1 4/4/1
f 3/2/1 5/5/1 4/4/1
f 4/4/1 5/5/1 6/6/1
f 5/5/1 7/7/1 6/6/1
f 6/6/1 7/7/1 8/8/1
f 7/7/1 9/9/1 8/8/1
f 8/8/1 9/9/1 10/10/1
f 9/9/1 11/11/1 10/10/1
f 10/10/1 11/11/1 12/12/1
f 11/11/1 13/13/1 12/12/1
f 12/12/1 13/13/1 14/14/1
f 13/13/1 15/15/1 14/14/1
f 14/14/1 15/15/1 16/16/1
f 15/15/1 17/17/1 16/16/1
f 16/16/1 17/17/1 18/18/1
f 17/17/1 19/19/1 18/18/1
f 20/20/1 22/21/1 21/22/1
f 21/22/1 22/21/1 23/23/1
f 22/21/1 24/24/1 23/23/1
f 23/23/1 24/24/1 25/25/1
f 24/24/1 26/26/1 25/25/1
f 25/25/1 26/26/1 27/27/1
f 26/26/1 28/28/1 27/27/1
f 27/27/1 28/28/1 29/29/1
f 28/28/1 30/30/1 29/29/1
f 29/29/1 30/30/1 31/31/1
f 30/30/1 32/32/1 31/31/1
f 31/31/1 32/32/1 33/33/1
f 32/32/1 34/34/1 33/33/1
f 33/33/1 34/34/1 35/35/1
f 34/34/1 36/36/1 35/35/1
f 35/35/1 36/36/1 37/37/1
f 36/36/1 38/38/1 37/37/1
f 39/39/1 41/40/1 40/41/1
f 40/41/1 41/40/1 42/42/1
f 41/40/1 43/43/1 42/42/1
f 42/42/1 43/43/1 44/44/1
f 43/43/1 45/45/1 44/44/1
f 44/44/1 45/45/1 46/46/1
f 45/45/1 47/47/1 46/46/1
f 46/46/1 47/47/1 48/48/1
f 47/47/1 49/49/1 48/48/1
f 48/48/1 49/49/1 50/50/1
f 49/49/1 51/51/1 50/50/1
f 50/50/1 51/51/1 52/52/1
f 51/51/1 53/53/1 52/52/1
f 52/52/1 53/53/1 54/54/1
f 53/53/1 55/55/1 54/54/1
f 54/54/1 55/55/1 56/56/1
f 55/55/1 57/57/1 56/56/1
f 58/58/1 60/59/1 59/60/1
f 59/60/1 60/59/1 61/61/1
f 60/59/1 62/62/1 61/61/1
f 61/61/1 62/62/1 63/63/1
f 62/62/1 64/64/1 63/63/1
f 63/63/1 64/64/1 65/65/1
f 64/64/1 66/66/1 65/65/1
f 65/65/1 66/66/1 67/67/1
f 66/66/1 68/68/1 67/67/1
f 67/67/1 68/68/1 69/69/1
f 68/68/1 70/70/1 69/69/1
f 69/69/1 70/70/1 71/71/1
f 70/70/1 72/72/1 71/71/1
f 71/71/1 72/72/1 73/73/1
f 72/72/1 74/74/1 73/73/1
f 73/73/1 74/74/1 75/75/1
f 74/74/1 76/76/1 75/75/1
f 77/77/1 79/78/1 78/79/1
f 78/79/1 79/78/1 80/80/1
f 79/78/1 81/81/1 80/80/1
f 80/80/1 81/81/1 82/82/1
f 81/81/1 83/83/1 82/82/1
f 82/82/1 83/83/1 84/84/1
f 83/83/1 85/85/1 84/84/1
f 84/84/1 85/85/1 86/86/1
f 85/85/1 87/87/1 86/86/1
f 86/86/1 87/87/1 88/88/1
f 87/87/1 89/89/1 88/88/1
f 88/88/1 89/89/1 90/90/1
f 89/89/1 91/91/1 90/90/1
f 90/90/1 91/91/1 92/92/1
f 91/91/1 93/93/1 92/92/1
f 92/92/1 93/93/1 94/94/1
f 93/93/1 95/95/1 94/94/1
f 96/96/1 98/97/1 97/98/1
f 97/98/1 98/97/1 99/99/1
f 98/97/1 100/100/1 99/99/1
f 99/99/1 100/100/1 101/101/1
f 100/100/1 102/102/1 101/101/1
f 101/101/1 102/102/1 103/103/1
f 102/102/1 104/104/1 103/103/1
f 103/103/1 104/104/1 105/105/1
f 104/104/1 106/106/1 105/105/1
f 105/105/1 106/106/1 107/107/1
f 106/106/1 108/108/1 107/107/1
f 107/107/1 108/108/1 109/109/1
f 108/108/1 110/110/1 109/109/1
f 109/109/1 110/110/1 111/111/1
f 110/110/1 112/112/1 111/111/1
f 111/111/1 112/112/1 113/113/1
f 112/112/1 114/114/1 113/113/1
f 115/115/1 117/116/1 116/117/1
f 116/117/1 117/116/1 118/118/1
f 117/116/1 119/119/1 118/118/1
f 118/118/1 119/119/1 120/120/1
f 119/119/1 121/121/1 120/120/1
f 120/120/1 121/121/1 122/122/1
f 121/121/1 123/123/1 122/122/1
f 122/122/1 123/123/1 124/124/1
f 123/123/1 125/125/1 124/124/1
f 124/124/1 125/125/1 126/126/1
f 125/125/1 127/127/1 126/126/1
f 126/126/1 127/127/1 128/128/1
f 127/127/1 129/129/1 128/128/1
f 128/128/1 129/129/1 130/130/1
f 129/129/1 131/131/1 130/130/1
f 130/130/1 131/131/1 132/132/1
f 131/131/1 133/133/1 132/132/1
f 134/134/1 136/135/1 135/136/1
f 135/136/1 136/135/1 137/137/1
f 136/135/1 138/138/1 137/137/1
f 137/137/1 138/138/1 139/139/1
f 138/138/1 140/140/1 139/139/1
f 139/139/1 140/140/1 141/141/1
f 140/140/1 142/142/1 141/141/1
f 141/141/1 142/142/1 143/143/1
f 142/142/1 144/144/1 143/143/1
f 143/143/1 144/144/1 145/145/1
f 144/144/1 146/146/1 145/145/1
f 145/145/1 146/146/1 147/147/1
f 146/146/1 148/148/1 147/147/1
f 147/147/1 148/148/1 149/149/1
f 148/148/1 150/150/1 149/149/1
f 149/149/1 150/150/1 151/151/1
f 150/150/1 152/152/1 151/151/1
f 153/153/1 155/154/1 154/155/1
f 154/155/1 155/154/1 156/156/1
f 155/154/1 157/157/1 156/156/1
f 156/156/1 157/157/1 158/158/1
f 157/157/1 159/159/1 158/158/1
f 158/158/1 159/159/1 160/160/1
f 159/159/1 161/161/1 160/160/1
f 160/160/1 161/161/1 162/162/1
f 161/161/1 163/163/1 162/162/1
f 162/162/1 163/163/1 164/164/1
f 163/163/1 165/165/1 164/164/1
f 166/166/1 168/167/1 167/168/1
f 167/168/1 168/167/1 169/169/1
f 168/167/1 170/170/1 169/169/1
f 169/169/1 170/170/1 171/171/1
f 170/170/1 172/172/1 171/171/1
f 171/171/1 172/172/1 173/173/1
f 172/172/1 174/174/1 173/173/1
f 173/173/1 174/174/1 175/175/1
f 174/174/1 176/176/1 175/175/1
f 175/175/1 176/176/1 177/177/1
f 176/176/1 178/178/1 177/177/1
f 179/179/1 181/180/1 180/181/1
f 180/181/1 181/180/1 182/182/1
f 181/180/1 183/183/1 182/182/1
f 182/182/1 183/183/1 184/184/1
f 183/183/1 185/185/1 184/184/1
f 184/184/1 185/185/1 186/186/1
f 185/185/1 187/187/1 186/186/1
f 186/186/1 187/187/1 188/188/1
f 187/187/1 189/189/1 188/188/1
f 188/188/1 189/189/1 190/190/1
f 189/189/1 191/191/1 190/190/1
f 192/192/1 194/193/1 193/194/1
f 193/194/1 194/193/1 195/195/1
f 194/193/1 196/196/1 195/195/1
f 195/195/1 196/196/1 197/197/1
f 196/196/1 198/198/1 197/197/1
f 197/197/1 198/198/1 199/199/1
f 198/198/1 200/200/1 199/199/1
f 199/199/1 200/200/1 201/201/1
f 200/200/1 202/202/1 201/201/1
f 201/201/1 202/202/1 203/203/1
f 202/202/1 204/204/1 203/203/1
f 205/205/1 207/206/1 206/207/1
f 206/207/1 207/206/1 208/208/1
f 207/206/1 209/209/1 208/208/1
f 208/208/1 209/209/1 210/210/1
f 209/209/1 211/211/1 210/210/1
f 210/210/1 211/211/1 212/212/1
f 211/211/1 213/213/1 212/212/1
f 212/212/1 213/213/1 214/214/1
f 213/213/1 215/215/1 214/214/1
f 216/216/1 218/217/1 217/218/1
f 217/218/1 218/217/1 219/219/1
f 218/217/1 220/220/1 219/219/1
f 219/219/1 220/220/1 221/221/1
f 220/220/1 222/222/1 221/221/1
f 221/221/1 222/222/1 223/223/1
f 222/222/1 224/224/1 223/223/1
f 223/223/1 224/224/1 225/225/1
f 224/224/1 226/226/1 225/225/1
f 227/227/1 229/228/1 228/229/1
f 228/229/1 229/228/1 230/230/1
f 229/228/1 231/231/1 230/230/1
f 230/230/1 231/231/1 232/232/1
f 231/231/1 233/233/1 232/232/1
f 232/232/1 233/233/1 234/234/1
f 233/233/1 235/235/1 234/234/1
f 234/234/1 235/235/1 236/236/1
f 235/235/1 237/237/1 236/236/1
f 238/238/1 240/239/1 239/240/1
f 239/240/1 240/239/1 241/241/1
f 240/239/1 242/242/1 241/241/1
f 241/241/1 242/242/1 243/243/1
f 242/242/1 244/244/1 243/243/1
f 243/243/1 244/244/1 245/245/1
f 244/244/1 246/246/1 245/245/1
f 245/245/1 246/246/1 247/247/1
f 246/246/1 248/248/1 247/247/1
f 249/249/1 251/250/1 250/251/1
f 250/251/1 251/250/1 252/252/1
f 251/250/1 253/253/1 252/252/1
f 252/252/1 253/253/1 254/254/1
f 253/253/1 255/255/1 254/254/1
f 256/256/1 258/257/1 257/258/1
f 257/258/1 258/257/1 259/259/1
f 258/257/1 260/260/1 259/259/1
f 259/259/1 260/260/1 261/261/1
f 260/260/1 262/262/1 261/261/1
f 263/263/1 265/264/1 264/265/1
f 264/265/1 265/264/1 266/266/1
f 265/264/1 267/267/1 266/266/1
f 266/266/1 267/267/1 268/268/1
f 267/267/1 269/269/1 268/268/1
f 270/270/1 272/271/1 271/272/1
f 271/272/1 272/271/1 273/273/1
f 272/271/1 274/274/1 273/273/1
f 273/273/1 274/274/1 275/275/1
f 274/274/1 276/276/1 275/275/1
f 277/277/1 279/278/1 278/279/1
f 278/279/1 279/278/1 280/280/1
f 279/278/1 281/281/1 280/280/1
f 280/280/1 281/281/1 282/282/1
f 283/283/1 285/284/1 284/285/1
f 284/285/1 285/284/1 286/286/1
f 285/284/1 287/287/1 286/286/1
f 286/286/1 287/287/1 288/288/1
f 289/289/1 291/290/1 290/291/1
f 290/291/1 291/290/1 292/292/1
f 291/290/1 293/293/1 292/292/1
f 292/292/1 293/293/1 294/294/1
f 295/295/1 297/296/1 296/297/1
f 296/297/1 297/296/1 298/298/1
f 297/296/1 299/299/1 298/298/1
f 298/298/1 299/299/1 300/300/1
f 301/301/1 303/302/1 302/303/1
f 302/303/1 303/302/1 304/304/1
f 303/302/1 305/305/1 304/304/1
f 304/304/1 305/305/1 306/306/1
f 307/307/1 309/308/1 308/309/1
f 308/309/1 309/308/1 310/310/1
f 309/308/1 311/311/1 310/310/1
f 310/310/1 311/311/1 312/312/1
f 313/313/1 315/314/1 314/315/1
f 314/315/1 315/314/1 316/316/1
f 315/314/1 317/317/1 316/316/1
f 316/316/1 317/317/1 318/318/1
f 319/319/1 321/320/1 320/321/1
f 320/321/1 321/320/1 322/322/1
f 321/320/1 323/323/1 322/322/1
f 322/322/1 323/323/1 324/324/1
f 325/325/1 327/326/1 326/327/1
f 326/327/1 327/326/1 328/328/1
f 327/326/1 329/329/1 328/328/1
f 328/328/1 329/329/1 330/330/1
f 331/331/1 333/332/1 332/333/1
f 332/333/1 333/332/1 334/334/1
f 333/332/1 335/335/1 334/334/1
f 334/334/1 335/335/1 336/336/1
f 337/337/1 339/338/1 338/339/1
f 338/339/1 339/338/1 340/340/1
f 339/338/1 341/341/1 340/340/1
f 340/340/1 341/341/1 342/342/1
f 343/343/1 345/344/1 344/345/1
f 344/345/1 345/344/1 346/346/1
f 345/344/1 347/347/1 346/346/1
f 346/346/1 347/347/1 348/348/1
f 349/349/1 351/350/1 350/351/1
f 350/351/1 351/350/1 352/352/1
f 351/350/1 353/353/1 352/352/1
f 352/352/1 353/353/1 354/354/1
f 355/355/1 357/356/1 356/357/1
f 356/357/1 357/356/1 358/358/1
f 357/356/1 359/359/1 358/358/1
f 358/358/1 359/359/1 360/360/1
f 361/361/1 363/362/1 362/363/1
f 362/363/1 363/362/1 364/364/1
f 363/362/1 365/365/1 364/364/1
f 364/364/1 365/365/1 366/366/1
f 367/367/1 369/368/1 368/369/1
f 368/369/1 369/368/1 370/370/1
f 369/368/1 371/371/1 370/370/1
f 370/370/1 371/371/1 372/372/1
f 373/373/1 375/374/1 374/375/1
f 374/375/1 375/374/1 376/376/1
f 375/374/1 377/377/1 376/376/1
f 376/376/1 377/377/1 378/378/1
f 379/379/1 381/380/1 380/381/1
f 380/381/1 381/380/1 382/382/1
f 381/380/1 383/383/1 382/382/1
f 382/382/1 383/383/1 384/384/1
f 385/385/1 387/386/1 386/387/1
f 386/387/1 387/386/1 388/388/1
f 387/386/1 389/389/1 388/388/1
f 388/388/1 389/389/1 390/390/1
f 391/391/1 393/392/1 392/393/1
f 392/393/1 393/392/1 394/394/1
f 393/392/1 395/395/1 394/394/1
f 394/394/1 395/395/1 396/396/1
f 397/397/1 399/398/1 398/399/1
f 400/400/1 402/401/1 401/402/1
f 403/403/1 405/404/1 404/405/1
f 406/406/1 408/407/1 407/408/1
