# Blender v3.6.3 OBJ File: 'untitled.blend'
# www.blender.org
mtllib Mesh_0125.mtl
o Mesh_0125_Mesh.002
v 41.060028 39.954952 20.610275
v 41.533234 40.004990 19.642784
v 40.366867 43.814983 17.102783
v 21.703962 43.814983 17.102783
v 20.537600 40.004990 19.642784
v 21.010798 39.954952 20.610275
v 40.366867 43.814991 -22.246387
v 41.533234 40.004990 -24.786388
v 41.060028 39.954952 -25.753868
v 21.010798 39.954952 -25.753868
v 20.537600 40.004990 -24.786388
v 21.703962 43.814991 -22.246387
v 47.103966 43.814983 17.102783
v 45.937599 40.004990 19.642784
v 46.410805 39.954952 20.610275
v 66.460030 39.954952 20.610275
v 66.933228 40.004990 19.642784
v 65.766861 43.814983 17.102783
v 46.410805 39.954952 -25.753868
v 45.937599 40.004990 -24.786388
v 47.103966 43.814991 -22.246387
v 65.766861 43.814991 -22.246387
v 66.933228 40.004990 -24.786388
v 66.460030 39.954952 -25.753868
v 15.660028 39.954952 20.610275
v 16.133226 40.004990 19.642784
v 14.966864 43.814983 17.102783
v -3.696035 43.814983 17.102783
v -4.862406 40.004990 19.642784
v -4.389200 39.954952 20.610275
v 14.966864 43.814991 -22.246387
v 16.133226 40.004990 -24.786388
v 15.660028 39.954952 -25.753868
v -4.389200 39.954952 -25.753868
v -4.862406 40.004990 -24.786388
v -3.696035 43.814991 -22.246387
vt 0.996094 -0.237305
vt 0.801758 -0.586914
vt 0.905273 -0.213867
vt 0.801758 -0.586914
vt 0.996094 -0.237305
vt 0.905273 -0.213867
vt 0.801758 -0.586914
vt 0.996094 -0.237305
vt 0.905273 -0.213867
vt 0.996094 -0.237305
vt 0.801758 -0.586914
vt 0.905273 -0.213867
vt 0.801758 -0.586914
vt 0.996094 -0.237305
vt 0.905273 -0.213867
vt 0.996094 -0.237305
vt 0.801758 -0.586914
vt 0.905273 -0.213867
vt 0.996094 -0.237305
vt 0.801758 -0.586914
vt 0.905273 -0.213867
vt 0.801758 -0.586914
vt 0.996094 -0.237305
vt 0.905273 -0.213867
vt 0.996094 -0.237305
vt 0.801758 -0.586914
vt 0.905273 -0.213867
vt 0.801758 -0.586914
vt 0.996094 -0.237305
vt 0.905273 -0.213867
vt 0.801758 -0.586914
vt 0.996094 -0.237305
vt 0.905273 -0.213867
vt 0.996094 -0.237305
vt 0.801758 -0.586914
vt 0.905273 -0.213867
vn -0.7665 -0.5019 -0.4008
vn 0.7665 -0.5019 -0.4008
vn -0.7665 -0.5019 0.4008
vn 0.7665 -0.5019 0.4008
usemtl Tex_0026_1.dds
s off
f 1/1/1 3/2/1 2/3/1
f 4/4/2 6/5/2 5/6/2
f 7/7/3 9/8/3 8/9/3
f 10/10/4 12/11/4 11/12/4
f 13/13/2 15/14/2 14/15/2
f 16/16/1 18/17/1 17/18/1
f 19/19/4 21/20/4 20/21/4
f 22/22/3 24/23/3 23/24/3
f 25/25/1 27/26/1 26/27/1
f 28/28/2 30/29/2 29/30/2
f 31/31/3 33/32/3 32/33/3
f 34/34/4 36/35/4 35/36/4
