# Blender v3.6.3 OBJ File: 'untitled.blend'
# www.blender.org
mtllib Mesh_0356.mtl
o Mesh_0356_Mesh.216
v -9.604584 22.377487 31.256950
v -9.604584 21.814775 31.935867
v -9.604584 21.814775 28.960518
v -9.604584 21.040073 32.449272
v -9.604584 21.040075 28.447090
v -9.604584 20.054350 32.744499
v -9.604584 20.054352 28.151871
v -9.604584 14.763733 32.744499
v -9.604584 14.763734 28.151871
v -33.273346 19.837486 48.228188
v -33.952263 19.274773 48.228188
v -30.976910 19.274773 48.228188
v -34.465672 18.500072 48.228188
v -30.463488 18.500072 48.228188
v -34.760895 17.514351 48.228188
v -30.168262 17.514351 48.228188
v -34.760895 12.223733 48.228188
v -30.168262 12.223733 48.228188
v -28.193346 19.837486 48.228188
v -28.872263 19.274773 48.228188
v -25.896910 19.274773 48.228188
v -29.385672 18.500072 48.228188
v -25.383488 18.500072 48.228188
v -29.680897 17.514351 48.228188
v -25.088263 17.514351 48.228188
v -29.680897 12.223733 48.228188
v -25.088263 12.223733 48.228188
v -9.607262 33.019981 22.828194
v -9.607262 33.019981 32.988190
v -9.607262 25.374559 22.828194
v -9.607262 25.374559 32.988190
v -9.604549 14.763734 27.590691
v -9.604549 14.763734 22.828194
v -9.604549 22.859985 27.590691
v -9.605370 22.859983 22.829018
v -9.604584 21.814775 28.960518
v -9.604584 22.377487 29.639442
v -9.604584 22.377487 31.256950
v -9.604584 22.767324 30.448189
v -30.976910 19.274773 48.228188
v -31.655832 19.837486 48.228188
v -33.273346 19.837486 48.228188
v -32.464584 20.227322 48.228188
v -24.844469 30.479982 48.225716
v -35.004471 30.479982 48.225716
v -24.844469 22.834558 48.225716
v -35.004471 22.834558 48.225716
v -25.896910 19.274773 48.228188
v -26.575832 19.837486 48.228188
v -28.193346 19.837486 48.228188
v -27.384584 20.227322 48.228188
v -9.607729 22.859983 33.286469
v -10.260712 22.449467 37.402184
v -9.607729 14.763425 33.286469
v -10.260712 14.064086 37.402184
v -20.399120 20.855299 47.515671
v -24.601303 20.399357 48.130829
v -20.399120 12.345277 47.515671
v -24.601303 12.170712 48.130829
v -16.118725 21.310154 45.448212
v -19.834465 20.886305 47.333366
v -16.118725 12.696728 45.448212
v -19.834465 12.376283 47.333366
v -12.688160 21.849348 42.157242
v -15.638133 21.369375 45.099693
v -12.688160 13.255918 42.157242
v -15.638133 12.755794 45.099693
v -10.444420 22.353659 37.965866
v -12.338953 21.930895 41.677277
v -10.444420 13.968278 37.965866
v -12.338953 13.337463 41.677277
vt -0.675781 0.153320
vt -0.134766 0.051758
vt -0.836914 0.051758
vt -0.958008 -0.087891
vt 0.003906 -0.087891
vt -1.028320 -0.265625
vt 0.057617 -0.265625
vt -1.028320 -1.222656
vt 0.046875 -1.222656
vt -0.675781 0.153320
vt -0.134766 0.051758
vt -0.836914 0.051758
vt -0.958008 -0.087891
vt 0.003906 -0.087891
vt -1.028320 -0.265625
vt 0.057617 -0.265625
vt -1.028320 -1.222656
vt 0.046875 -1.222656
vt -0.675781 0.153320
vt -0.134766 0.051758
vt -0.836914 0.051758
vt -0.958008 -0.087891
vt 0.003906 -0.087891
vt -1.028320 -0.265625
vt 0.057617 -0.265625
vt -1.028320 -1.222656
vt 0.046875 -1.222656
vt 3.000000 0.999023
vt 3.000000 -0.596680
vt 1.000000 0.999023
vt 1.000000 -0.596680
vt 2.898438 -0.596680
vt 2.898438 1.000000
vt 2.003906 -0.596680
vt 2.003906 1.000000
vt -0.134766 0.051758
vt -0.675781 0.153320
vt -0.307617 0.153320
vt -0.498047 0.223633
vt -0.134766 0.051758
vt -0.675781 0.153320
vt -0.307617 0.153320
vt -0.498047 0.223633
vt 3.000000 0.999023
vt 3.000000 -0.596680
vt 1.000000 0.999023
vt 1.000000 -0.596680
vt -0.134766 0.051758
vt -0.675781 0.153320
vt -0.307617 0.153320
vt -0.498047 0.223633
vt 2.872070 1.000000
vt 2.872070 -0.596680
vt 1.999023 1.000000
vt 1.999023 -0.596680
vt 2.872070 1.000000
vt 2.872070 -0.596680
vt 1.999023 1.000000
vt 1.999023 -0.596680
vt 2.872070 1.000000
vt 2.872070 -0.596680
vt 1.999023 1.000000
vt 1.999023 -0.596680
vt 2.872070 1.000000
vt 2.872070 -0.596680
vt 1.999023 1.000000
vt 1.999023 -0.596680
vt 2.872070 1.000000
vt 2.872070 -0.596680
vt 1.999023 1.000000
vt 1.999023 -0.596680
vn -1.0000 0.0000 0.0000
vn 0.0000 0.0000 -1.0000
vn -1.0000 -0.0001 0.0002
vn -0.9876 0.0000 -0.1567
vn -0.1448 0.0000 -0.9895
vn -0.4524 0.0000 -0.8918
vn -0.7062 0.0000 -0.7080
vn -0.8907 0.0000 -0.4547
usemtl Tex_0031_1.dds.020
s off
f 1/1/1 3/2/1 2/3/1
f 2/3/1 3/2/1 4/4/1
f 3/2/1 5/5/1 4/4/1
f 4/4/1 5/5/1 6/6/1
f 5/5/1 7/7/1 6/6/1
f 6/6/1 7/7/1 8/8/1
f 7/7/1 9/9/1 8/8/1
f 10/10/2 12/11/2 11/12/2
f 11/12/2 12/11/2 13/13/2
f 12/11/2 14/14/2 13/13/2
f 13/13/2 14/14/2 15/15/2
f 14/14/2 16/16/2 15/15/2
f 15/15/2 16/16/2 17/17/2
f 16/16/2 18/18/2 17/17/2
f 19/19/2 21/20/2 20/21/2
f 20/21/2 21/20/2 22/22/2
f 21/20/2 23/23/2 22/22/2
f 22/22/2 23/23/2 24/24/2
f 23/23/2 25/25/2 24/24/2
f 24/24/2 25/25/2 26/26/2
f 25/25/2 27/27/2 26/26/2
f 28/28/1 30/29/1 29/30/1
f 29/30/1 30/29/1 31/31/1
f 32/32/1 34/33/1 33/34/1
f 33/34/3 34/33/3 35/35/3
f 36/36/1 38/37/1 37/38/1
f 37/38/1 38/37/1 39/39/1
f 40/40/2 42/41/2 41/42/2
f 41/42/2 42/41/2 43/43/2
f 44/44/2 46/45/2 45/46/2
f 45/46/2 46/45/2 47/47/2
f 48/48/2 50/49/2 49/50/2
f 49/50/2 50/49/2 51/51/2
f 52/52/4 54/53/4 53/54/4
f 53/54/4 54/53/4 55/55/4
f 56/56/5 58/57/5 57/58/5
f 57/58/5 58/57/5 59/59/5
f 60/60/6 62/61/6 61/62/6
f 61/62/6 62/61/6 63/63/6
f 64/64/7 66/65/7 65/66/7
f 65/66/7 66/65/7 67/67/7
f 68/68/8 70/69/8 69/70/8
f 69/70/8 70/69/8 71/71/8
