# Blender v3.6.3 OBJ File: 'untitled.blend'
# www.blender.org
mtllib Mesh_0348.mtl
o Mesh_0348_Mesh.098
v -20.884518 12.181566 36.675407
v -20.884518 12.322643 36.675407
v -20.072247 12.697194 35.794846
v -20.072247 12.838270 35.794846
v -19.129604 13.546622 32.986336
v -19.129604 13.687794 32.986336
v -19.129585 13.546624 27.908195
v -19.129585 13.687795 27.908195
v -19.129585 13.687832 22.828194
v -19.386375 13.828908 22.828194
v -20.983078 12.040489 36.592934
v -20.884518 12.181566 36.675407
v -20.174599 12.556117 35.717323
v -20.072247 12.697194 35.794846
v -19.258083 13.405529 32.986336
v -19.129604 13.546622 32.986336
v -19.258060 13.405530 27.908195
v -19.129585 13.546624 27.908195
v -19.129585 13.546600 22.828194
v -19.129585 13.687832 22.828194
v -20.884518 11.899413 36.675407
v -20.983078 12.040489 36.592934
v -20.072247 12.415040 35.794846
v -20.174599 12.556117 35.717323
v -19.129604 13.264437 32.986336
v -19.258083 13.405529 32.986336
v -19.129585 13.264438 27.908195
v -19.258060 13.405530 27.908195
v -19.129585 13.264446 22.828194
v -19.258102 13.405524 22.828194
v -21.081367 12.463719 36.510460
v -21.081367 12.887105 36.510460
v -20.276688 12.979503 35.639191
v -20.276688 13.402732 35.639191
v -19.386444 13.828886 32.986336
v -19.386444 14.252168 32.986336
v -19.386415 13.828887 27.908195
v -19.386415 14.252169 27.908195
v -19.386375 14.252138 22.828194
v -20.884518 12.322643 36.675407
v -21.081367 12.463719 36.510460
v -20.072247 12.838270 35.794846
v -20.276688 12.979503 35.639191
v -19.129604 13.687794 32.986336
v -19.386444 13.828886 32.986336
v -19.129585 13.687795 27.908195
v -19.386415 13.828887 27.908195
v -19.386375 13.828908 22.828194
v -20.983078 12.040489 36.592934
v -20.884518 11.899413 36.675407
v -22.255112 11.561295 37.652092
v -22.214458 11.420218 37.774254
v -24.844610 10.865529 38.574783
v -24.844610 10.724436 38.703194
v -29.924583 10.865535 38.574753
v -29.924583 10.724426 38.703194
v -20.884518 12.181566 36.675407
v -20.983078 12.040489 36.592934
v -22.214458 11.702526 37.774254
v -22.255112 11.561295 37.652092
v -24.844610 11.006623 38.703194
v -24.844610 10.865529 38.574783
v -29.924583 11.006644 38.703194
v -29.924583 10.865535 38.574753
v -20.884518 12.322643 36.675407
v -20.884518 12.181566 36.675407
v -22.214458 11.843602 37.774254
v -22.214458 11.702526 37.774254
v -24.844610 11.147793 38.703194
v -24.844610 11.006623 38.703194
v -29.924583 11.147755 38.703194
v -29.924583 11.006644 38.703194
v -21.081367 12.463719 36.510460
v -20.884518 12.322643 36.675407
v -22.295496 11.984678 37.530556
v -22.214458 11.843602 37.774254
v -24.844610 11.288886 38.446388
v -24.844610 11.147793 38.703194
v -29.924583 11.288864 38.446320
v -29.924583 11.147755 38.703194
v -21.081367 12.887105 36.510460
v -21.081367 12.463719 36.510460
v -22.295496 12.408064 37.530556
v -22.295496 11.984678 37.530556
v -24.844610 11.712168 38.446388
v -24.844610 11.288886 38.446388
v -29.924583 11.712196 38.446320
v -29.924583 11.288864 38.446320
v -20.983078 13.028181 36.592934
v -21.081367 12.887105 36.510460
v -22.255112 12.549141 37.652092
v -22.295496 12.408064 37.530556
v -24.844610 11.853338 38.574783
v -24.844610 11.712168 38.446388
v -29.924583 11.853306 38.574753
v -29.924583 11.712196 38.446320
v -21.081367 12.887105 36.510460
v -20.983078 13.028181 36.592934
v -20.276688 13.402732 35.639191
v -20.174599 13.543809 35.717323
v -19.386444 14.252168 32.986336
v -19.258083 14.393338 32.986336
v -19.386415 14.252169 27.908195
v -19.258060 14.393339 27.908195
v -30.168270 12.223734 38.317886
v -30.034666 12.022645 38.446320
v -34.894718 12.022645 38.446320
v -29.924583 11.853306 38.574753
v -35.004581 11.853306 38.574753
v -29.924583 11.712196 38.446320
v -35.004581 11.712196 38.446320
v -29.924583 10.865535 38.574753
v -35.004581 11.006644 38.703194
v -29.924583 11.006644 38.703194
v -35.004581 11.147755 38.703194
v -29.924583 11.147755 38.703194
v -35.004581 11.288864 38.446320
v -29.924583 11.288864 38.446320
v -19.386375 14.252138 22.828194
v -19.386415 14.252169 27.908195
v -19.258102 14.393371 22.828194
v -19.258060 14.393339 27.908195
v -19.386375 14.562662 22.828194
v -19.386415 14.562654 27.908195
v -19.514931 14.763735 27.590691
v -21.573879 13.265066 36.490616
v -21.396076 13.265066 36.666100
v -22.414869 12.919506 37.171501
v -22.336136 12.919506 37.408386
v -24.731096 12.223734 37.981369
v -24.652357 12.223734 38.218254
v -21.117453 13.197628 36.478836
v -20.983078 13.028181 36.592934
v -22.295496 12.718433 37.530556
v -22.255112 12.549141 37.652092
v -24.844610 12.022654 38.446388
v -24.844610 11.853338 38.574783
v -19.386444 14.562654 32.986336
v -19.258083 14.393338 32.986336
v -20.276688 13.713256 35.639191
v -20.174599 13.543809 35.717323
v -21.117453 13.197628 36.478836
v -20.983078 13.028181 36.592934
v -29.680902 12.223734 38.317886
v -25.088270 12.223734 38.317886
v -29.814718 12.022645 38.446320
v -24.954666 12.022645 38.446320
v -24.844610 11.853338 38.574783
v -24.844610 12.022654 38.446388
v -19.514893 14.763734 32.744507
v -19.514893 14.763735 28.151878
v -19.386456 14.562646 32.878326
v -19.386456 14.562647 28.018280
v -19.258060 14.393339 27.908195
v -19.386415 14.562654 27.908195
v -19.129604 12.699907 32.986336
v -19.129604 13.264437 32.986336
v -19.129585 12.699986 27.908195
v -19.129585 13.264438 27.908195
v -19.129585 12.699986 22.828194
v -19.129585 13.264446 22.828194
v -19.527895 14.763735 33.309418
v -20.379047 13.914329 35.561676
v -20.577675 13.914330 35.410370
v -20.981564 13.509703 36.170639
v -21.185272 13.509703 36.026146
v -21.117453 13.197628 36.478836
v -20.981564 13.509703 36.170639
v -20.276688 13.713256 35.639191
v -20.379047 13.914329 35.561676
v -19.527895 14.763735 33.309418
v -24.844610 12.022654 38.446388
v -24.652357 12.223734 38.218254
v -22.295496 12.718433 37.530556
v -22.336136 12.919506 37.408386
v -21.396076 13.265066 36.666100
v -29.680904 12.223734 38.068192
v -25.088270 12.223734 38.068192
v -29.680902 12.223734 38.317886
v -25.088270 12.223734 38.317886
v -29.924583 12.022645 38.446320
v -29.814718 12.022645 38.446320
v -29.924583 11.853306 38.574753
v -24.844610 11.853338 38.574783
v -29.924583 10.159985 38.703194
v -29.924583 10.724426 38.703194
v -24.844610 10.159985 38.703194
v -24.844610 10.724436 38.703194
v -34.760902 12.223734 38.068192
v -30.168270 12.223734 38.068192
v -34.760902 12.223734 38.317886
v -30.168270 12.223734 38.317886
v -35.004581 10.159985 38.703194
v -35.004581 10.724426 38.703194
v -29.924583 10.159985 38.703194
v -29.924583 10.724426 38.703194
v -35.004581 10.724426 38.703194
v -35.004581 10.865535 38.574753
v -29.924583 10.724426 38.703194
v -29.924583 10.865535 38.574753
v -35.004581 11.288864 38.446320
v -35.004581 11.712196 38.446320
v -29.924583 11.288864 38.446320
v -29.924583 11.712196 38.446320
v -19.764584 14.763734 32.744507
v -19.764584 14.763735 28.151878
v -19.514893 14.763734 32.744507
v -19.514893 14.763735 28.151878
v -19.386444 14.562654 32.986336
v -19.386456 14.562646 32.878326
v -19.258083 14.393338 32.986336
v -19.258060 14.393339 27.908195
v -19.514931 14.763735 27.590691
v -19.764584 14.763735 27.590691
v -19.514931 14.763735 22.828194
v -19.764584 14.763735 22.828194
v -22.295496 12.718433 37.530556
v -21.396076 13.265066 36.666100
v -21.117453 13.197628 36.478836
v -20.577675 13.914330 35.410370
v -19.776833 14.763735 33.289574
v -19.527895 14.763735 33.309418
v -20.276688 13.713256 35.639191
v -19.527895 14.763735 33.309418
v -19.386444 14.562654 32.986336
v -34.894718 12.022645 38.446320
v -34.760902 12.223734 38.317886
v -30.168270 12.223734 38.317886
v -34.894718 12.022645 38.446320
v -35.004581 11.853306 38.574753
v -35.004581 12.022645 38.446320
v -29.924583 11.853306 38.574753
v -30.034666 12.022645 38.446320
v -29.924583 12.022645 38.446320
v -35.004581 11.006644 38.703194
v -29.924583 10.865535 38.574753
v -35.004581 10.865535 38.574753
v -19.514931 14.763735 22.828194
v -19.386375 14.562662 22.828194
v -19.514931 14.763735 27.590691
v -19.258060 13.405530 27.908195
v -19.129585 13.546600 22.828194
v -19.258102 13.405524 22.828194
v -19.386415 13.828887 27.908195
v -19.386375 14.252138 22.828194
v -19.386375 13.828908 22.828194
vt 0.497070 -2.070312
vt -0.501953 -2.070312
vt 0.497070 -2.196289
vt -0.501953 -2.196289
vt -1.500977 -2.070312
vt -1.500977 -2.196289
vt 0.497070 -2.070312
vt 0.497070 -2.196289
vt -1.266602 -2.196289
vt -1.349609 -1.770508
vt 0.497070 -1.694336
vt -0.501953 -1.694336
vt 0.497070 -2.070312
vt -0.501953 -2.070312
vt -1.500977 -1.694336
vt -1.500977 -2.070312
vt 0.497070 -1.694336
vt 0.497070 -2.070312
vt -1.266602 -2.070312
vt -1.266602 -2.196289
vt 0.497070 -3.003906
vt -0.501953 -3.003906
vt 0.497070 -3.352539
vt -0.501953 -3.352539
vt -1.500977 -3.003906
vt -1.500977 -3.352539
vt 0.497070 -3.003906
vt 0.497070 -3.352539
vt -1.266602 -3.003906
vt -1.306641 -3.352539
vt 0.497070 -0.653320
vt -0.501953 -0.653320
vt 0.497070 -0.346680
vt -0.501953 -0.346680
vt -1.500977 -0.653320
vt -1.500977 -0.346680
vt 0.497070 -0.653320
vt 0.497070 -0.346680
vt -1.344727 -0.346680
vt 0.497070 -2.196289
vt -0.501953 -2.196289
vt 0.497070 -1.770508
vt -0.501953 -1.770508
vt -1.500977 -2.196289
vt -1.500977 -1.770508
vt 0.497070 -2.196289
vt 0.497070 -1.770508
vt -1.349609 -1.770508
vt -1.500977 -3.352539
vt -0.501953 -3.352539
vt -1.500977 -3.003906
vt -0.501953 -3.003906
vt 0.497070 -3.352539
vt 0.497070 -3.003906
vt -1.500977 -3.352539
vt -1.500977 -3.003906
vt -1.500977 -2.070312
vt -0.501953 -2.070312
vt -1.500977 -1.694336
vt -0.501953 -1.694336
vt 0.497070 -2.070312
vt 0.497070 -1.694336
vt -1.500977 -2.070312
vt -1.500977 -1.694336
vt -1.500977 -2.196289
vt -0.501953 -2.196289
vt -1.500977 -2.070312
vt -0.501953 -2.070312
vt 0.497070 -2.196289
vt 0.497070 -2.070312
vt -1.500977 -2.196289
vt -1.500977 -2.070312
vt -1.500977 -1.770508
vt -0.501953 -1.770508
vt -1.500977 -2.196289
vt -0.501953 -2.196289
vt 0.497070 -1.770508
vt 0.497070 -2.196289
vt -1.500977 -1.770508
vt -1.500977 -2.196289
vt -1.500977 -0.346680
vt -0.501953 -0.346680
vt -1.500977 -0.653320
vt -0.501953 -0.653320
vt 0.497070 -0.346680
vt 0.497070 -0.653320
vt -1.500977 -0.346680
vt -1.500977 -0.653320
vt -0.504883 0.655273
vt 0.499023 0.655273
vt -0.498047 0.794922
vt 0.499023 0.794922
vt 1.502930 0.655273
vt 1.496094 0.794922
vt -0.504883 0.655273
vt -0.498047 0.794922
vt 1.496094 0.794922
vt 0.499023 0.794922
vt 1.502930 0.655273
vt 0.499023 0.655273
vt -0.498047 0.794922
vt -0.504883 0.655273
vt 1.496094 0.794922
vt 1.502930 0.655273
vt 1.416992 1.045898
vt -0.443359 0.830078
vt 1.453125 0.828125
vt 1.502930 0.655273
vt -0.504883 0.655273
vt 1.496094 0.794922
vt -0.498047 0.794922
vt 0.497070 -1.694336
vt 0.497070 -2.070312
vt -1.500977 -2.070312
vt -1.500977 -2.196289
vt 0.497070 -2.196289
vt -1.500977 -1.770508
vt 0.497070 -1.770508
vt -0.342773 0.794922
vt -0.300781 0.655273
vt 1.496094 0.794922
vt 1.496094 0.655273
vt -0.342773 0.799805
vt 1.496094 0.799805
vt 1.476562 1.041992
vt -0.422852 1.397461
vt 0.499023 1.397461
vt -0.422852 1.047852
vt 0.499023 1.046875
vt 1.420898 1.397461
vt 1.420898 1.045898
vt -0.498047 0.799805
vt 0.499023 0.799805
vt -0.504883 0.655273
vt 0.499023 0.655273
vt 1.496094 0.799805
vt 1.502930 0.655273
vt -0.498047 0.799805
vt 0.499023 0.799805
vt -0.504883 0.655273
vt 0.499023 0.655273
vt 1.496094 0.799805
vt 1.502930 0.655273
vt -0.422852 1.047852
vt -0.443359 0.830078
vt 1.416992 1.045898
vt 1.453125 0.828125
vt 1.502930 0.655273
vt 1.496094 0.827148
vt -0.422852 1.047852
vt -0.443359 0.830078
vt 1.416992 1.045898
vt 1.453125 0.828125
vt 1.502930 0.655273
vt 1.496094 0.827148
vt -1.500977 -2.603516
vt 0.497070 -2.603516
vt -1.500977 -3.003906
vt 0.497070 -3.003906
vt -1.266602 -2.603516
vt -1.266602 -3.003906
vt -0.422852 1.047852
vt 0.499023 1.397461
vt 0.499023 1.046875
vt 1.420898 1.045898
vt 1.420898 1.397461
vt 1.496094 0.799805
vt 0.499023 0.799805
vt 1.420898 1.045898
vt 0.499023 1.046875
vt -0.422852 1.047852
vt 1.496094 0.799805
vt 0.499023 0.799805
vt 1.420898 1.045898
vt 0.499023 1.046875
vt -0.422852 1.047852
vt -1.500977 -1.000000
vt -1.500977 -1.249023
vt 0.497070 -1.000000
vt 0.497070 -1.249023
vt -0.498047 0.831055
vt -0.504883 0.655273
vt -0.443359 0.830078
vt 1.502930 0.655273
vt -1.500977 -2.603516
vt 0.497070 -2.603516
vt -1.500977 -3.003906
vt 0.497070 -3.003906
vt -1.500977 -1.000000
vt -1.500977 -1.249023
vt 0.497070 -1.000000
vt 0.497070 -1.249023
vt -1.500977 -2.603516
vt 0.497070 -2.603516
vt -1.500977 -3.003906
vt 0.497070 -3.003906
vt -1.500977 -3.003906
vt 0.497070 -3.003906
vt -1.500977 -3.352539
vt 0.497070 -3.352539
vt -1.500977 -0.653320
vt 0.497070 -0.653320
vt -1.500977 -0.346680
vt 0.497070 -0.346680
vt -1.500977 -1.000000
vt -1.500977 -1.249023
vt 0.497070 -1.000000
vt 0.497070 -1.249023
vt -0.498047 0.831055
vt -0.504883 0.655273
vt -0.443359 0.830078
vt 1.502930 0.655273
vt 1.476562 1.041992
vt -0.382812 1.046875
vt 1.500000 1.397461
vt -0.304688 1.397461
vt 0.499023 0.799805
vt -0.498047 0.799805
vt -0.422852 1.047852
vt 0.499023 1.397461
vt -0.422852 1.047852
vt -0.422852 1.397461
vt 0.499023 0.799805
vt -0.498047 0.799805
vt -0.422852 1.047852
vt -0.443359 0.830078
vt 1.416992 1.045898
vt -0.422852 1.047852
vt -0.443359 0.830078
vt -0.498047 0.831055
vt -0.504883 0.655273
vt 1.502930 0.655273
vt 1.496094 0.827148
vt 1.453125 0.828125
vt -1.500977 -2.070312
vt -1.500977 -1.694336
vt 0.497070 -1.694336
vt -0.382812 1.046875
vt 1.476562 1.041992
vt -0.342773 0.799805
vt 0.497070 -1.694336
vt -1.307617 -1.694336
vt -1.266602 -2.070312
vt 0.497070 -0.653320
vt -1.344727 -0.653320
vt -1.344727 -0.346680
vn 0.7350 0.0000 0.6780
vn 0.8756 0.2481 0.4145
vn 0.6429 0.2333 0.7296
vn 0.9503 -0.0293 0.3101
vn 0.9872 0.1523 0.0467
vn 0.9231 0.1592 0.3500
vn 0.9480 0.0000 0.3182
vn 0.9176 0.1701 0.3594
vn 1.0000 -0.0088 0.0000
vn 1.0000 0.0000 0.0000
vn 0.9894 0.1454 -0.0040
vn 0.9894 0.0040 0.1454
vn 0.4815 0.8764 0.0000
vn 0.7082 -0.6524 0.2697
vn 0.7721 -0.5945 0.2244
vn 0.7085 -0.6524 0.2693
vn 0.7029 -0.6617 0.2609
vn 0.6613 -0.7206 0.2086
vn 0.7397 -0.5762 0.3475
vn 0.7189 -0.6946 0.0249
vn 0.8373 -0.5388 0.0933
vn 0.8360 -0.5386 0.1047
vn 0.6596 -0.7452 0.0978
vn 0.7264 -0.6862 0.0390
vn 0.7538 -0.6547 0.0550
vn 0.7220 -0.6919 -0.0014
vn 0.7394 -0.6733 0.0000
vn 0.7519 -0.6593 -0.0007
vn 0.7397 -0.6726 0.0188
vn 0.3402 0.6403 0.6887
vn 0.4138 0.7085 0.5717
vn 0.3407 0.6404 0.6883
vn 0.3541 0.6255 0.6953
vn 0.4343 0.5157 0.7385
vn 0.1710 0.7706 0.6139
vn 0.7723 0.4884 0.4063
vn 0.6176 0.7597 0.2037
vn 0.4985 0.7743 0.3899
vn 0.7055 0.4582 0.5406
vn 0.7957 0.4369 0.4195
vn 0.5131 0.7556 0.4072
vn 0.8657 0.5006 -0.0016
vn 0.7394 0.6733 0.0000
vn 0.5794 0.8150 -0.0080
vn 0.7171 0.6638 0.2125
vn 0.7396 0.6730 0.0000
vn 0.7393 0.6734 -0.0000
vn 0.7346 0.0000 0.6785
vn 0.8229 0.0769 0.5629
vn 0.7333 -0.1634 0.6599
vn 0.6400 0.2365 0.7311
vn 0.9404 -0.2435 0.2376
vn 0.9800 0.0635 0.1886
vn 0.9281 0.1586 0.3369
vn 0.8897 -0.0692 0.4512
vn 0.9448 -0.1457 0.2936
vn 0.9165 0.1702 0.3621
vn 0.9846 -0.1750 -0.0000
vn 0.9895 0.1440 -0.0120
vn 0.9895 0.0120 0.1440
vn 0.1037 0.8136 0.5721
vn 0.1783 0.8562 0.4849
vn 0.1052 0.8143 0.5709
vn 0.1243 0.7993 0.5879
vn 0.1872 0.7354 0.6513
vn -0.0269 0.8684 0.4951
vn 0.4756 0.7856 0.3958
vn 0.2972 0.9424 0.1538
vn 0.2095 0.9198 0.3318
vn 0.5437 0.6546 0.5252
vn 0.6041 0.6625 0.4429
vn 0.2638 0.8894 0.3733
vn 0.6442 0.7648 -0.0043
vn 0.4815 0.8765 0.0000
vn 0.2824 0.9592 -0.0124
vn 0.4594 0.8620 0.2144
vn 0.3356 0.6390 0.6921
vn 0.3108 0.5551 0.7716
vn 0.3333 0.6384 0.6938
vn 0.2877 0.7001 0.6535
vn 0.2633 0.7372 0.6223
vn 0.3957 0.5641 0.7247
vn 0.0261 0.7593 0.6502
vn 0.0609 0.6440 0.7626
vn 0.1158 0.5966 0.7941
vn 0.1594 0.7028 0.6933
vn 0.0706 0.6965 0.7141
vn 0.1016 0.6366 0.7645
vn -0.0001 0.7066 0.7076
vn -0.0000 0.6731 0.7396
vn -0.0013 0.6466 0.7628
vn 0.0353 0.6718 0.7399
vn -0.0000 0.6731 0.7395
vn 0.6001 -0.6725 0.4332
vn 0.4733 -0.7490 0.4636
vn 0.5968 -0.6727 0.4374
vn 0.6505 -0.5347 0.5393
vn 0.6714 -0.4921 0.5541
vn 0.5917 -0.7059 0.3893
vn 0.4007 -0.5524 0.7309
vn 0.1964 -0.7263 0.6587
vn 0.3779 -0.7547 0.5363
vn 0.5266 -0.5178 0.6742
vn 0.4183 -0.4404 0.7944
vn 0.3904 -0.7557 0.5258
vn -0.0015 -0.5073 0.8618
vn 0.0000 -0.6727 0.7399
vn -0.0078 -0.8133 0.5818
vn 0.2099 -0.6641 0.7176
vn -0.0000 -0.6731 0.7395
vn 0.6370 0.0000 0.7709
vn 0.5294 -0.0654 0.8459
vn 0.6084 0.1434 0.7805
vn 0.6656 -0.1960 0.7201
vn 0.2798 0.1969 0.9396
vn 0.1953 -0.0669 0.9785
vn 0.3563 -0.1428 0.9234
vn 0.4537 0.0621 0.8890
vn 0.3001 0.1537 0.9414
vn 0.3692 -0.1777 0.9122
vn -0.0000 0.1811 0.9835
vn 0.0000 0.0000 1.0000
vn -0.0043 -0.1546 0.9880
vn 0.1546 -0.0043 0.9880
vn 0.1337 0.8263 0.5472
vn 0.1662 0.7518 0.6381
vn 0.1264 0.8233 0.5533
vn 0.0219 0.9065 0.4217
vn 0.0553 0.8979 0.4367
vn 0.1362 0.8382 0.5281
vn -0.0871 0.8898 0.4480
vn -0.0143 0.8498 0.5268
vn -0.0342 0.8300 0.5568
vn -0.0277 0.9023 0.4303
vn -0.0521 0.8625 0.5034
vn -0.0758 0.8891 0.4514
vn -0.0011 0.8595 0.5111
vn -0.0000 0.8764 0.4815
vn 0.0015 0.8887 0.4584
vn -0.0262 0.8769 0.4800
vn -0.0000 0.8765 0.4815
vn 0.6433 0.0000 0.7656
vn 0.4034 -0.0943 0.9102
vn 0.6752 -0.1980 0.7106
vn 0.3242 0.0554 0.9444
vn 0.1935 -0.0547 0.9796
vn 0.3482 -0.1443 0.9263
vn 0.4626 0.0499 0.8851
vn 0.3188 0.1581 0.9345
vn 0.3759 -0.1807 0.9089
vn -0.0000 0.1843 0.9829
vn -0.0130 -0.1561 0.9876
vn 0.1561 -0.0130 0.9877
vn 0.6069 -0.6714 0.4252
vn 0.4770 -0.7526 0.4539
vn 0.6033 -0.6717 0.4300
vn 0.6590 -0.5266 0.5370
vn 0.6799 -0.4847 0.5502
vn 0.5996 -0.7036 0.3812
vn 0.4042 -0.5473 0.7328
vn 0.1988 -0.7244 0.6601
vn 0.3815 -0.7545 0.5340
vn 0.5325 -0.5156 0.6713
vn 0.4220 -0.4371 0.7942
vn 0.3942 -0.7557 0.5230
vn -0.0014 -0.5052 0.8630
vn 0.0000 -0.6728 0.7398
vn -0.0079 -0.8143 0.5804
vn 0.2119 -0.6640 0.7171
vn 0.7092 -0.6516 0.2694
vn 0.7743 -0.5920 0.2236
vn 0.7095 -0.6514 0.2687
vn 0.7031 -0.6621 0.2594
vn 0.6609 -0.7214 0.2067
vn 0.7407 -0.5745 0.3483
vn 0.7198 -0.6939 0.0190
vn 0.8391 -0.5362 0.0923
vn 0.8387 -0.5351 0.1013
vn 0.6582 -0.7472 0.0924
vn 0.7286 -0.6841 0.0344
vn 0.7527 -0.6566 0.0483
vn 0.7246 -0.6892 -0.0014
vn 0.7399 -0.6727 0.0000
vn 0.7508 -0.6605 -0.0006
vn 0.7402 -0.6722 0.0164
vn 0.0000 0.5383 0.8428
vn 0.0040 0.4706 0.8823
vn -0.0462 0.5157 0.8555
vn -0.0243 0.5940 0.8041
vn 0.0001 0.6058 0.7956
vn 0.6762 0.6531 0.3408
vn 0.0018 0.6035 0.7974
vn -0.6624 0.6755 0.3240
vn 0.0319 0.9963 0.0804
vn 0.5190 -0.5754 0.6321
vn -0.0195 -0.9590 0.2828
vn -0.5188 -0.5609 0.6452
vn 0.3609 -0.6278 0.6897
vn -0.0248 -0.9936 0.1098
vn -0.0158 0.0000 0.9999
vn 0.0100 0.3608 0.9326
vn -0.5090 0.0141 0.8607
vn 0.3608 -0.0100 0.9326
vn 0.5092 -0.0000 0.8607
vn -0.0141 -0.5090 0.8607
vn -0.5092 0.7544 0.4144
vn 0.0294 0.9991 -0.0311
vn 0.5084 0.7402 0.4401
vn 0.7403 -0.6723 0.0000
vn 0.5857 -0.4996 -0.6383
vn 0.7406 -0.6720 0.0000
vn 0.1394 -0.9899 -0.0240
vn 0.5691 -0.5175 0.6390
vn 0.6132 0.4647 -0.6388
vn 0.7971 0.6038 0.0024
vn 0.2277 0.9734 0.0267
vn 0.6290 0.4434 0.6385
vn 0.7953 0.6062 0.0001
vn 0.7967 0.6039 -0.0232
vn 0.8816 0.4720 0.0039
vn 0.8426 0.5385 0.0000
vn 0.8656 0.4995 -0.0340
vn -0.2149 0.9521 0.2177
vn -0.1230 0.9425 0.3106
vn -0.2278 0.9460 0.2307
vn -0.3483 0.9374 -0.0047
vn -0.2665 0.9588 0.0986
vn -0.2855 0.9548 0.0829
vn -0.2630 0.9597 0.0988
vn -0.2589 0.9621 0.0860
vn -0.2611 0.9622 0.0770
vn -0.2676 0.9595 0.0883
vn -0.2589 0.9621 0.0861
vn 0.3079 0.6872 0.6580
vn 0.1855 0.7068 0.6826
vn 0.3145 0.6890 0.6529
vn 0.4277 0.5117 0.7451
vn 0.3114 0.6759 0.6680
vn 0.4524 0.4720 0.7567
vn 0.0641 0.7092 0.7021
vn 0.1225 0.5959 0.7936
vn 0.1531 0.5170 0.8422
vn 0.2041 0.6335 0.7463
vn 0.1207 0.5998 0.7910
vn 0.7237 0.5487 0.4185
vn 0.7373 0.3906 0.5512
vn 0.7228 0.5479 0.4211
vn 0.6362 0.6500 0.4157
vn 0.5604 0.7255 0.3996
vn 0.8382 0.3823 0.3890
vn 0.1947 0.7356 0.6489
vn 0.4724 0.4571 0.7536
vn 0.4589 0.4269 0.7792
vn 0.2712 0.8278 0.4911
vn 0.3024 0.6857 0.6621
vn 0.2911 0.6824 0.6706
vn 0.0028 0.5371 0.8435
vn 0.0002 0.5357 0.8444
vn -0.0526 0.5126 0.8570
vn 0.0033 0.6643 0.7474
vn 0.0000 0.6045 0.7966
vn -0.0180 0.5968 0.8022
vn 0.0175 0.6112 0.7913
vn -0.0006 0.6042 0.7968
vn 0.8428 0.5383 0.0000
vn 0.8435 0.5371 -0.0028
vn 0.8444 0.5357 -0.0002
vn 0.8570 0.5126 0.0525
vn 0.7478 0.6639 -0.0033
vn 0.7968 0.6043 0.0000
vn 0.8023 0.5966 0.0180
vn 0.7913 0.6112 -0.0177
vn 0.7969 0.6041 0.0003
vn -0.2093 0.9384 0.2748
vn -0.2483 0.9351 0.2527
vn -0.1645 0.9418 0.2930
vn -0.2289 0.8998 0.3715
vn -0.3014 0.8984 0.3194
vn -0.2696 0.9034 0.3335
vn -0.2132 0.9218 0.3237
vn -0.2478 0.9037 0.3493
vn -0.2466 0.9046 0.3477
vn 0.3936 0.5535 0.7340
vn 0.4435 0.6488 0.6184
vn 0.3984 0.5508 0.7334
vn 0.4559 0.4641 0.7595
vn 0.4813 0.3776 0.7910
vn 0.2505 0.6735 0.6954
vn 0.8466 0.3317 0.4163
vn 0.7016 0.5375 0.4678
vn 0.5954 0.6512 0.4706
vn 0.0458 0.7300 0.6820
vn -0.0577 0.8658 0.4971
vn 0.0537 0.7262 0.6854
vn 0.2274 0.3154 0.9213
vn 0.1203 0.5331 0.8374
vn 0.1316 0.5340 0.8352
vn 0.3942 0.5341 0.7479
vn 0.0000 1.0000 0.0000
vn 0.0000 0.6043 0.7968
vn 0.7969 0.6041 -0.0001
vn 0.7968 0.6042 0.0000
vn 0.5812 0.2620 0.7704
vn -0.0289 0.9316 0.3622
vn 0.9330 0.1012 0.3455
vn 0.8425 0.5387 0.0000
vn 0.7392 -0.6734 -0.0000
usemtl Tex_0032_0.dds.014
s off
f 1/1/1 3/2/2 2/3/1
f 2/3/1 3/2/1 4/4/3
f 3/2/4 5/5/5 4/4/6
f 4/4/7 5/5/7 6/6/8
f 5/5/9 7/7/10 6/6/11
f 6/6/12 7/7/10 8/8/10
f 7/7/10 9/9/10 8/8/10
f 8/8/13 9/9/13 10/10/13
f 11/11/14 13/12/15 12/13/16
f 12/13/17 13/12/18 14/14/19
f 13/12/20 15/15/21 14/14/22
f 14/14/23 15/15/24 16/16/25
f 15/15/26 17/17/27 16/16/28
f 16/16/29 17/17/27 18/18/27
f 17/17/27 19/19/27 18/18/27
f 18/18/10 19/19/10 20/20/10
f 21/21/30 23/22/31 22/23/32
f 22/23/33 23/22/34 24/24/35
f 23/22/36 25/25/37 24/24/38
f 24/24/39 25/25/40 26/26/41
f 25/25/42 27/27/43 26/26/44
f 26/26/45 27/27/43 28/28/43
f 27/27/43 29/29/46 28/28/43
f 28/28/47 29/29/47 30/30/47
f 31/31/48 33/32/49 32/33/48
f 32/33/48 33/32/50 34/34/51
f 33/32/52 35/35/53 34/34/54
f 34/34/55 35/35/56 36/36/57
f 35/35/58 37/37/10 36/36/59
f 36/36/60 37/37/10 38/38/10
f 37/37/10 39/39/10 38/38/10
f 40/40/61 42/41/62 41/42/63
f 41/42/64 42/41/65 43/43/66
f 42/41/67 44/44/68 43/43/69
f 43/43/70 44/44/71 45/45/72
f 44/44/73 46/46/74 45/45/75
f 45/45/76 46/46/74 47/47/74
f 46/46/74 48/48/74 47/47/74
f 49/49/77 51/50/78 50/51/79
f 50/51/80 51/50/81 52/52/82
f 51/50/83 53/53/84 52/52/85
f 52/52/86 53/53/87 54/54/88
f 53/53/89 55/55/90 54/54/91
f 54/54/92 55/55/93 56/56/93
f 57/57/94 59/58/95 58/59/96
f 58/59/97 59/58/98 60/60/99
f 59/58/100 61/61/101 60/60/102
f 60/60/103 61/61/104 62/62/105
f 61/61/106 63/63/107 62/62/108
f 62/62/109 63/63/110 64/64/110
f 65/65/111 67/66/112 66/67/111
f 66/67/111 67/66/113 68/68/114
f 67/66/115 69/69/116 68/68/117
f 68/68/118 69/69/119 70/70/120
f 69/69/121 71/71/122 70/70/123
f 70/70/124 71/71/122 72/72/122
f 73/73/125 75/74/126 74/75/127
f 74/75/128 75/74/129 76/76/130
f 75/74/131 77/77/132 76/76/133
f 76/76/134 77/77/135 78/78/136
f 77/77/137 79/79/138 78/78/139
f 78/78/140 79/79/141 80/80/141
f 81/81/142 83/82/143 82/83/142
f 82/83/142 83/82/142 84/84/144
f 83/82/145 85/85/146 84/84/147
f 84/84/148 85/85/149 86/86/150
f 85/85/151 87/87/122 86/86/152
f 86/86/153 87/87/122 88/88/122
f 89/89/154 91/90/155 90/91/156
f 90/91/157 91/90/158 92/92/159
f 91/90/160 93/93/161 92/92/162
f 92/92/163 93/93/164 94/94/165
f 93/93/166 95/95/167 94/94/168
f 94/94/169 95/95/110 96/96/110
f 97/97/170 99/98/171 98/99/172
f 98/99/173 99/98/174 100/100/175
f 99/98/176 101/101/177 100/100/178
f 100/100/179 101/101/180 102/102/181
f 101/101/182 103/103/183 102/102/184
f 102/102/185 103/103/183 104/104/183
f 105/105/186 107/106/187 106/107/188
f 106/107/189 107/106/190 108/108/191
f 107/106/192 109/109/193 108/108/194
f 108/108/195 109/109/196 110/110/110
f 109/109/197 111/111/110 110/110/110
f 112/112/110 114/113/198 113/114/199
f 113/114/200 114/113/201 115/115/202
f 114/113/203 116/116/204 115/115/205
f 115/115/206 116/116/207 117/117/141
f 116/116/208 118/118/141 117/117/141
f 119/119/209 121/120/210 120/121/211
f 120/121/183 121/120/212 122/122/213
f 121/120/214 123/123/215 122/122/216
f 122/122/217 123/123/218 124/124/219
f 123/123/220 125/125/221 124/124/222
f 126/126/223 128/127/224 127/128/225
f 127/128/226 128/127/227 129/129/228
f 128/127/229 130/130/230 129/129/231
f 129/129/232 130/130/233 131/131/233
f 132/132/234 134/133/235 133/134/236
f 133/134/237 134/133/238 135/135/239
f 134/133/240 136/136/241 135/135/242
f 135/135/243 136/136/244 137/137/244
f 138/138/245 140/139/246 139/140/247
f 139/140/248 140/139/249 141/141/250
f 140/139/251 142/142/252 141/141/253
f 141/141/254 142/142/255 143/143/256
f 144/144/186 146/145/257 145/146/186
f 145/146/186 146/145/258 147/147/259
f 146/145/260 148/148/261 147/147/262
f 147/147/263 148/148/264 149/149/264
f 150/150/265 152/151/266 151/152/265
f 151/152/265 152/151/267 153/153/268
f 152/151/269 154/154/270 153/153/271
f 153/153/272 154/154/273 155/155/273
f 156/156/10 158/157/10 157/158/10
f 157/158/10 158/157/10 159/159/10
f 158/157/10 160/160/10 159/159/10
f 159/159/10 160/160/10 161/161/10
f 162/162/274 164/163/275 163/164/276
f 163/164/277 164/163/278 165/165/279
f 164/163/280 166/166/281 165/165/282
f 167/167/283 169/168/284 168/169/285
f 168/169/286 169/168/287 170/170/288
f 169/168/289 171/171/290 170/170/291
f 172/172/292 174/173/293 173/174/294
f 173/174/295 174/173/296 175/175/297
f 174/173/298 176/176/298 175/175/298
f 177/177/299 179/178/299 178/179/299
f 178/179/299 179/178/299 180/180/299
f 181/181/300 183/182/300 182/183/300
f 182/183/300 183/182/300 184/184/300
f 185/185/122 187/186/122 186/187/122
f 186/187/122 187/186/122 188/188/122
f 189/189/299 191/190/299 190/191/299
f 190/191/299 191/190/299 192/192/299
f 193/193/122 195/194/122 194/195/122
f 194/195/122 195/194/122 196/196/122
f 197/197/93 199/198/93 198/199/93
f 198/199/93 199/198/93 200/200/93
f 201/201/122 203/202/122 202/203/122
f 202/203/122 203/202/122 204/204/122
f 205/205/299 207/206/299 206/207/299
f 206/207/299 207/206/299 208/208/299
f 209/209/301 211/210/301 210/211/301
f 210/211/302 211/210/302 212/212/302
f 213/213/299 215/214/299 214/215/299
f 214/215/299 215/214/299 216/216/299
f 217/217/303 219/218/303 218/219/303
f 220/220/304 222/221/304 221/222/304
f 223/223/305 225/224/305 224/225/305
f 226/226/186 228/227/186 227/228/186
f 229/229/300 231/230/300 230/231/300
f 232/232/300 234/233/300 233/234/300
f 235/235/110 237/236/110 236/237/110
f 238/238/306 240/239/306 239/240/306
f 241/241/307 243/242/307 242/243/307
f 244/244/10 246/245/10 245/246/10
