# Blender v3.6.3 OBJ File: 'untitled.blend'
# www.blender.org
mtllib Mesh_0144.mtl
o Mesh_0144_Mesh.014
v 18.235907 31.727882 -2.457756
v 18.230314 34.702988 -2.680580
v 18.235907 34.702988 -2.457756
v 18.230314 37.678345 -2.680580
v 18.235907 37.678345 -2.457756
v 18.440622 31.727882 -2.463013
v 18.235907 34.702988 -2.457756
v 18.440622 34.702988 -2.463013
v 18.235907 37.678345 -2.457756
v 18.440622 37.678345 -2.463013
v 18.435038 31.727882 -2.685844
v 18.440622 34.702988 -2.463013
v 18.435038 34.702988 -2.685844
v 18.440622 37.678345 -2.463013
v 18.435038 37.678345 -2.685844
v 18.230314 31.727882 -2.680580
v 18.435038 34.702988 -2.685844
v 18.230314 34.702988 -2.680580
v 18.435038 37.678345 -2.685844
v 18.230314 37.678345 -2.680580
v 18.235907 37.678345 -2.457756
v 18.230314 40.653702 -2.680580
v 18.235907 40.653702 -2.457756
v 18.230314 43.628799 -2.680580
v 18.235907 43.628799 -2.457756
v 18.440622 37.678345 -2.463013
v 18.235907 40.653702 -2.457756
v 18.440622 40.653702 -2.463013
v 18.235907 43.628799 -2.457756
v 18.440622 43.628799 -2.463013
v 18.435038 37.678345 -2.685844
v 18.440622 40.653702 -2.463013
v 18.435038 40.653702 -2.685844
v 18.440622 43.628799 -2.463013
v 18.435038 43.628799 -2.685844
v 18.230314 37.678345 -2.680580
v 18.435038 40.653702 -2.685844
v 18.230314 40.653702 -2.680580
v 18.435038 43.628799 -2.685844
v 18.230314 43.628799 -2.680580
v 18.235907 43.628799 -2.457756
v 18.230314 46.604183 -2.680580
v 18.235907 46.604183 -2.457756
v 18.230314 49.579536 -2.680580
v 18.235907 49.579536 -2.457756
v 18.440622 43.628799 -2.463013
v 18.235907 46.604183 -2.457756
v 18.440622 46.604183 -2.463013
v 18.235907 49.579536 -2.457756
v 18.440622 49.579536 -2.463013
v 18.435038 43.628799 -2.685844
v 18.440622 46.604183 -2.463013
v 18.435038 46.604183 -2.685844
v 18.440622 49.579536 -2.463013
v 18.435038 49.579536 -2.685844
v 18.230314 43.628799 -2.680580
v 18.435038 46.604183 -2.685844
v 18.230314 46.604183 -2.680580
v 18.435038 49.579536 -2.685844
v 18.230314 49.579536 -2.680580
v 18.235907 49.579536 -2.457756
v 18.230314 52.554642 -2.680580
v 18.235907 52.554642 -2.457756
v 18.230314 55.529991 -2.680580
v 18.235907 55.529991 -2.457756
v 18.440622 49.579536 -2.463013
v 18.235907 52.554642 -2.457756
v 18.440622 52.554642 -2.463013
v 18.235907 55.529991 -2.457756
v 18.440622 55.529991 -2.463013
v 18.435038 49.579536 -2.685844
v 18.440622 52.554642 -2.463013
v 18.435038 52.554642 -2.685844
v 18.440622 55.529991 -2.463013
v 18.435038 55.529991 -2.685844
v 18.230314 49.579536 -2.680580
v 18.435038 52.554642 -2.685844
v 18.230314 52.554642 -2.680580
v 18.435038 55.529991 -2.685844
v 18.230314 55.529991 -2.680580
v 18.235907 55.529991 -2.457756
v 18.230314 58.505096 -2.680580
v 18.235907 58.505096 -2.457756
v 18.230314 60.196987 -2.680580
v 18.235907 60.196987 -2.457756
v 18.440622 55.529991 -2.463013
v 18.235907 58.505096 -2.457756
v 18.440622 58.505096 -2.463013
v 18.235907 60.196987 -2.457756
v 18.440622 60.196987 -2.463013
v 18.435038 55.529991 -2.685844
v 18.440622 58.505096 -2.463013
v 18.435038 58.505096 -2.685844
v 18.440622 60.196987 -2.463013
v 18.435038 60.196987 -2.685844
v 18.230314 55.529991 -2.680580
v 18.435038 58.505096 -2.685844
v 18.230314 58.505096 -2.680580
v 18.435038 60.196987 -2.685844
v 18.230314 60.196987 -2.680580
v 18.230314 34.702988 -2.680580
v 18.235907 31.727882 -2.457756
v 18.230314 31.727882 -2.680580
v 18.235907 34.702988 -2.457756
v 18.440622 31.727882 -2.463013
v 18.235907 31.727882 -2.457756
v 18.440622 34.702988 -2.463013
v 18.435038 31.727882 -2.685844
v 18.440622 31.727882 -2.463013
v 18.435038 34.702988 -2.685844
v 18.230314 31.727882 -2.680580
v 18.435038 31.727882 -2.685844
v 18.230314 40.653702 -2.680580
v 18.235907 37.678345 -2.457756
v 18.230314 37.678345 -2.680580
v 18.235907 40.653702 -2.457756
v 18.440622 37.678345 -2.463013
v 18.235907 37.678345 -2.457756
v 18.440622 40.653702 -2.463013
v 18.435038 37.678345 -2.685844
v 18.440622 37.678345 -2.463013
v 18.435038 40.653702 -2.685844
v 18.230314 37.678345 -2.680580
v 18.435038 37.678345 -2.685844
v 18.230314 46.604183 -2.680580
v 18.235907 43.628799 -2.457756
v 18.230314 43.628799 -2.680580
v 18.235907 46.604183 -2.457756
v 18.440622 43.628799 -2.463013
v 18.235907 43.628799 -2.457756
v 18.440622 46.604183 -2.463013
v 18.435038 43.628799 -2.685844
v 18.440622 43.628799 -2.463013
v 18.435038 46.604183 -2.685844
v 18.230314 43.628799 -2.680580
v 18.435038 43.628799 -2.685844
v 18.230314 52.554642 -2.680580
v 18.235907 49.579536 -2.457756
v 18.230314 49.579536 -2.680580
v 18.235907 52.554642 -2.457756
v 18.440622 49.579536 -2.463013
v 18.235907 49.579536 -2.457756
v 18.440622 52.554642 -2.463013
v 18.435038 49.579536 -2.685844
v 18.440622 49.579536 -2.463013
v 18.435038 52.554642 -2.685844
v 18.230314 49.579536 -2.680580
v 18.435038 49.579536 -2.685844
v 18.230314 58.505096 -2.680580
v 18.235907 55.529991 -2.457756
v 18.230314 55.529991 -2.680580
v 18.235907 58.505096 -2.457756
v 18.440622 55.529991 -2.463013
v 18.235907 55.529991 -2.457756
v 18.440622 58.505096 -2.463013
v 18.435038 55.529991 -2.685844
v 18.440622 55.529991 -2.463013
v 18.435038 58.505096 -2.685844
v 18.230314 55.529991 -2.680580
v 18.435038 55.529991 -2.685844
vt -0.227539 -2.997070
vt -0.227539 -0.999023
vt -0.753906 -0.999023
vt -0.753906 0.999023
vt -0.227539 0.999023
vt 0.244141 -2.997070
vt 0.244141 -0.999023
vt -0.227539 -0.999023
vt -0.227539 0.999023
vt 0.244141 0.999023
vt 0.770508 -2.997070
vt 0.770508 -0.999023
vt 0.244141 -0.999023
vt 0.244141 0.999023
vt 0.770508 0.999023
vt 1.243164 -2.997070
vt 1.243164 -0.999023
vt 0.770508 -0.999023
vt 0.770508 0.999023
vt 1.243164 0.999023
vt -0.227539 -2.997070
vt -0.227539 -0.999023
vt -0.753906 -0.999023
vt -0.753906 0.999023
vt -0.227539 0.999023
vt 0.244141 -2.997070
vt 0.244141 -0.999023
vt -0.227539 -0.999023
vt -0.227539 0.999023
vt 0.244141 0.999023
vt 0.770508 -2.997070
vt 0.770508 -0.999023
vt 0.244141 -0.999023
vt 0.244141 0.999023
vt 0.770508 0.999023
vt 1.243164 -2.997070
vt 1.243164 -0.999023
vt 0.770508 -0.999023
vt 0.770508 0.999023
vt 1.243164 0.999023
vt -0.227539 -2.997070
vt -0.227539 -0.999023
vt -0.753906 -0.999023
vt -0.753906 0.999023
vt -0.227539 0.999023
vt 0.244141 -2.997070
vt 0.244141 -0.999023
vt -0.227539 -0.999023
vt -0.227539 0.999023
vt 0.244141 0.999023
vt 0.770508 -2.997070
vt 0.770508 -0.999023
vt 0.244141 -0.999023
vt 0.244141 0.999023
vt 0.770508 0.999023
vt 1.243164 -2.997070
vt 1.243164 -0.999023
vt 0.770508 -0.999023
vt 0.770508 0.999023
vt 1.243164 0.999023
vt -0.227539 -2.997070
vt -0.227539 -0.999023
vt -0.753906 -0.999023
vt -0.753906 0.999023
vt -0.227539 0.999023
vt 0.244141 -2.997070
vt 0.244141 -0.999023
vt -0.227539 -0.999023
vt -0.227539 0.999023
vt 0.244141 0.999023
vt 0.770508 -2.997070
vt 0.770508 -0.999023
vt 0.244141 -0.999023
vt 0.244141 0.999023
vt 0.770508 0.999023
vt 1.243164 -2.997070
vt 1.243164 -0.999023
vt 0.770508 -0.999023
vt 0.770508 0.999023
vt 1.243164 0.999023
vt -0.227539 -2.997070
vt -0.227539 -0.999023
vt -0.753906 -0.999023
vt -0.753906 0.999023
vt -0.227539 0.999023
vt 0.244141 -2.997070
vt 0.244141 -0.999023
vt -0.227539 -0.999023
vt -0.227539 0.999023
vt 0.244141 0.999023
vt 0.770508 -2.997070
vt 0.770508 -0.999023
vt 0.244141 -0.999023
vt 0.244141 0.999023
vt 0.770508 0.999023
vt 1.243164 -2.997070
vt 1.243164 -0.999023
vt 0.770508 -0.999023
vt 0.770508 0.999023
vt 1.243164 0.999023
vt -0.753906 -0.999023
vt -0.753906 -2.997070
vt -0.227539 -2.997070
vt -0.227539 -0.999023
vt -0.227539 -2.997070
vt 0.244141 -2.997070
vt 0.244141 -0.999023
vt 0.244141 -2.997070
vt 0.770508 -2.997070
vt 0.770508 -0.999023
vt 0.770508 -2.997070
vt 1.243164 -2.997070
vt -0.753906 -0.999023
vt -0.753906 -2.997070
vt -0.227539 -2.997070
vt -0.227539 -0.999023
vt -0.227539 -2.997070
vt 0.244141 -2.997070
vt 0.244141 -0.999023
vt 0.244141 -2.997070
vt 0.770508 -2.997070
vt 0.770508 -0.999023
vt 0.770508 -2.997070
vt 1.243164 -2.997070
vt -0.753906 -0.999023
vt -0.753906 -2.997070
vt -0.227539 -2.997070
vt -0.227539 -0.999023
vt -0.227539 -2.997070
vt 0.244141 -2.997070
vt 0.244141 -0.999023
vt 0.244141 -2.997070
vt 0.770508 -2.997070
vt 0.770508 -0.999023
vt 0.770508 -2.997070
vt 1.243164 -2.997070
vt -0.753906 -0.999023
vt -0.753906 -2.997070
vt -0.227539 -2.997070
vt -0.227539 -0.999023
vt -0.227539 -2.997070
vt 0.244141 -2.997070
vt 0.244141 -0.999023
vt 0.244141 -2.997070
vt 0.770508 -2.997070
vt 0.770508 -0.999023
vt 0.770508 -2.997070
vt 1.243164 -2.997070
vt -0.753906 -0.999023
vt -0.753906 -2.997070
vt -0.227539 -2.997070
vt -0.227539 -0.999023
vt -0.227539 -2.997070
vt 0.244141 -2.997070
vt 0.244141 -0.999023
vt 0.244141 -2.997070
vt 0.770508 -2.997070
vt 0.770508 -0.999023
vt 0.770508 -2.997070
vt 1.243164 -2.997070
vn -0.9997 0.0000 0.0251
vn 0.0257 0.0000 0.9997
vn 0.9997 0.0000 -0.0251
vn -0.0257 0.0000 -0.9997
usemtl Tex_0042_0.dds
s off
f 1/1/1 3/2/1 2/3/1
f 2/3/1 3/2/1 4/4/1
f 3/2/1 5/5/1 4/4/1
f 6/6/2 8/7/2 7/8/2
f 7/8/2 8/7/2 9/9/2
f 8/7/2 10/10/2 9/9/2
f 11/11/3 13/12/3 12/13/3
f 12/13/3 13/12/3 14/14/3
f 13/12/3 15/15/3 14/14/3
f 16/16/4 18/17/4 17/18/4
f 17/18/4 18/17/4 19/19/4
f 18/17/4 20/20/4 19/19/4
f 21/21/1 23/22/1 22/23/1
f 22/23/1 23/22/1 24/24/1
f 23/22/1 25/25/1 24/24/1
f 26/26/2 28/27/2 27/28/2
f 27/28/2 28/27/2 29/29/2
f 28/27/2 30/30/2 29/29/2
f 31/31/3 33/32/3 32/33/3
f 32/33/3 33/32/3 34/34/3
f 33/32/3 35/35/3 34/34/3
f 36/36/4 38/37/4 37/38/4
f 37/38/4 38/37/4 39/39/4
f 38/37/4 40/40/4 39/39/4
f 41/41/1 43/42/1 42/43/1
f 42/43/1 43/42/1 44/44/1
f 43/42/1 45/45/1 44/44/1
f 46/46/2 48/47/2 47/48/2
f 47/48/2 48/47/2 49/49/2
f 48/47/2 50/50/2 49/49/2
f 51/51/3 53/52/3 52/53/3
f 52/53/3 53/52/3 54/54/3
f 53/52/3 55/55/3 54/54/3
f 56/56/4 58/57/4 57/58/4
f 57/58/4 58/57/4 59/59/4
f 58/57/4 60/60/4 59/59/4
f 61/61/1 63/62/1 62/63/1
f 62/63/1 63/62/1 64/64/1
f 63/62/1 65/65/1 64/64/1
f 66/66/2 68/67/2 67/68/2
f 67/68/2 68/67/2 69/69/2
f 68/67/2 70/70/2 69/69/2
f 71/71/3 73/72/3 72/73/3
f 72/73/3 73/72/3 74/74/3
f 73/72/3 75/75/3 74/74/3
f 76/76/4 78/77/4 77/78/4
f 77/78/4 78/77/4 79/79/4
f 78/77/4 80/80/4 79/79/4
f 81/81/1 83/82/1 82/83/1
f 82/83/1 83/82/1 84/84/1
f 83/82/1 85/85/1 84/84/1
f 86/86/2 88/87/2 87/88/2
f 87/88/2 88/87/2 89/89/2
f 88/87/2 90/90/2 89/89/2
f 91/91/3 93/92/3 92/93/3
f 92/93/3 93/92/3 94/94/3
f 93/92/3 95/95/3 94/94/3
f 96/96/4 98/97/4 97/98/4
f 97/98/4 98/97/4 99/99/4
f 98/97/4 100/100/4 99/99/4
f 101/101/1 103/102/1 102/103/1
f 104/104/2 106/105/2 105/106/2
f 107/107/3 109/108/3 108/109/3
f 110/110/4 112/111/4 111/112/4
f 113/113/1 115/114/1 114/115/1
f 116/116/2 118/117/2 117/118/2
f 119/119/3 121/120/3 120/121/3
f 122/122/4 124/123/4 123/124/4
f 125/125/1 127/126/1 126/127/1
f 128/128/2 130/129/2 129/130/2
f 131/131/3 133/132/3 132/133/3
f 134/134/4 136/135/4 135/136/4
f 137/137/1 139/138/1 138/139/1
f 140/140/2 142/141/2 141/142/2
f 143/143/3 145/144/3 144/145/3
f 146/146/4 148/147/4 147/148/4
f 149/149/1 151/150/1 150/151/1
f 152/152/2 154/153/2 153/154/2
f 155/155/3 157/156/3 156/157/3
f 158/158/4 160/159/4 159/160/4
