# Blender v3.6.3 OBJ File: 'untitled.blend'
# www.blender.org
mtllib Mesh_0148.mtl
o Mesh_0148_Mesh.017
v 10.703146 1.269990 4.409401
v 10.702940 0.634990 4.407883
v 11.231874 0.975175 4.694931
v 11.231806 0.634990 4.694901
v 11.546427 0.634990 5.207954
v 11.546427 0.634990 -10.351547
v 11.231806 0.634990 -9.838543
v 11.231874 0.975175 -9.838539
v 10.701136 0.634990 -9.562801
v 10.702383 1.269990 -9.551735
v 9.433779 1.904990 4.084114
v 8.161650 2.539990 3.768875
v 8.161459 1.904990 3.768860
v 8.161650 2.539990 3.768875
v 6.891634 3.174990 3.501419
v 6.891459 2.539990 3.501900
v 6.891634 3.174990 3.501419
v 5.621416 3.809990 3.245811
v 5.621454 3.174990 3.245850
v 5.621416 3.809990 3.245811
v 4.351423 4.444989 3.037498
v 4.351458 3.809989 3.038826
v 4.351423 4.444989 3.037498
v 3.081736 5.079990 2.862534
v 3.081457 4.444990 2.863518
v 3.081736 5.079990 2.862534
v 1.812958 5.714990 2.713005
v 1.811459 5.079990 2.712448
v 1.812958 5.714990 2.713005
v 0.542892 6.349989 2.597076
v 0.541496 5.714990 2.594353
v 0.542892 6.349989 2.597076
v -0.728127 6.984990 2.512291
v -0.728504 6.349989 2.512497
v -0.728127 6.984990 2.512291
v -1.998341 7.619989 2.441200
v -1.998503 6.984990 2.441223
v -1.998341 7.619989 2.441200
v -3.268225 8.254991 2.379654
v -3.268503 7.619989 2.379494
v -3.268225 8.254991 2.379654
v -4.538481 8.889991 2.526489
v -4.538504 8.254991 2.526321
v -4.538481 8.889991 2.526489
v -5.807922 9.524990 3.144295
v -5.808502 8.889991 3.144310
v -6.595726 10.159990 3.965981
v -7.079319 10.794990 5.061554
v -7.078588 10.159989 5.048195
v -7.079319 10.794990 5.061554
v -7.439999 11.429989 6.318192
v -7.441774 10.794990 6.315117
v -7.439999 11.429989 6.318192
v -7.440504 12.064989 7.588196
v -7.441774 11.429989 7.585114
v -7.440504 12.064989 7.588196
v -7.441275 12.699990 8.858444
v -7.441774 12.064990 8.858192
v -5.807922 9.524990 3.144295
v -6.595726 10.159990 3.965981
v -6.597378 9.524990 3.964119
v 10.703146 1.269990 4.409401
v 9.433779 1.904990 4.084114
v 9.432180 1.269990 4.084511
v 8.161650 2.539990 -8.913834
v 9.433779 1.904990 -9.228989
v 8.161459 1.904990 -8.913803
v 6.891634 3.174990 -8.646393
v 8.161650 2.539990 -8.913834
v 6.891459 2.539990 -8.646828
v 5.621424 3.809989 -8.390690
v 6.891634 3.174990 -8.646393
v 5.621462 3.174989 -8.390766
v 4.351423 4.444990 -8.182362
v 5.621424 3.809989 -8.390690
v 4.351454 3.809991 -8.183731
v 3.081736 5.079990 -8.007431
v 4.351423 4.444990 -8.182362
v 3.081457 4.444990 -8.008373
v 1.812958 5.714990 -7.857975
v 3.081736 5.079990 -8.007431
v 1.811459 5.079990 -7.857368
v 0.542892 6.349990 -7.741951
v 1.812958 5.714990 -7.857975
v 0.541496 5.714990 -7.739281
v -0.728127 6.984990 -7.657219
v 0.542892 6.349990 -7.741951
v -0.728504 6.349990 -7.657372
v -1.998354 7.619989 -7.586147
v -0.728127 6.984990 -7.657219
v -1.998503 6.984990 -7.586197
v -3.268225 8.254990 -7.524517
v -1.998354 7.619989 -7.586147
v -3.268503 7.619989 -7.524452
v -4.538479 8.889991 -7.671387
v -3.268225 8.254990 -7.524517
v -4.538504 8.254990 -7.671288
v -5.807920 9.524990 -8.289268
v -4.538479 8.889991 -7.671387
v -5.808504 8.889991 -8.289299
v -7.079369 10.794991 -10.191807
v -6.595726 10.159990 -9.109592
v -7.078625 10.159987 -10.191807
v -7.440022 11.429990 -11.461807
v -7.079369 10.794991 -10.191807
v -7.441801 10.794990 -11.460266
v -7.440531 12.064989 -12.731804
v -7.440022 11.429990 -11.461807
v -7.441801 11.429990 -12.730267
v -7.441196 12.699990 -14.001980
v -7.440531 12.064989 -12.731804
v -7.441801 12.064990 -14.001804
v -6.595726 10.159990 -9.109592
v -5.807920 9.524990 -8.289268
v -6.597380 9.524990 -9.109009
v 9.433779 1.904990 -9.228989
v 10.702383 1.269990 -9.551735
v 9.432180 1.269990 -9.229492
vt 0.000000 -0.049988
vt 0.474915 -0.524963
vt 0.000000 -0.999939
vt 0.474915 -0.999939
vt 0.949890 -0.999939
vt 0.949890 -0.999939
vt 0.474915 -0.524963
vt 0.474915 -0.999939
vt 0.000000 -0.999939
vt 0.000000 -0.049988
vt 0.949890 -0.999939
vt 0.000000 -0.999939
vt 0.000000 -0.049988
vt 0.949890 -0.999939
vt 0.000000 -0.999939
vt 0.000000 -0.049988
vt 0.949890 -0.999939
vt 0.000000 -0.999939
vt 0.000000 -0.049988
vt 0.949890 -0.999939
vt 0.000000 -0.999939
vt 0.000000 -0.049988
vt 0.949890 -0.999939
vt 0.000000 -0.999939
vt 0.000000 -0.049988
vt 0.949890 -0.999939
vt 0.000000 -0.999939
vt 0.000000 -0.049988
vt 0.949890 -0.999939
vt 0.000000 -0.999939
vt 0.000000 -0.049988
vt 0.949890 -0.999939
vt 0.000000 -0.999939
vt 0.000000 -0.049988
vt 0.949890 -0.999939
vt 0.000000 -0.999939
vt 0.000000 -0.049988
vt 0.949890 -0.999939
vt 0.000000 -0.999939
vt 0.000000 -0.049988
vt 0.949890 -0.999939
vt 0.000000 -0.999939
vt 0.000000 -0.049988
vt 0.949890 -0.999939
vt 0.000000 -0.999939
vt 0.000000 -0.049988
vt 0.949890 -0.999939
vt 0.000000 -0.999939
vt 0.000000 -0.049988
vt 0.949890 -0.999939
vt 0.000000 -0.999939
vt 0.000000 -0.049988
vt 0.949890 -0.999939
vt 0.000000 -0.999939
vt 0.000000 -0.049988
vt 0.949890 -0.999939
vt 0.000000 -0.999939
vt 0.000000 -0.049988
vt 0.949890 -0.999939
vt 0.000000 -0.999939
vt 0.000000 -0.049988
vt 0.949890 -0.999939
vt 0.000000 -0.999939
vt 0.000000 -0.049988
vt 0.000000 -0.049988
vt 0.000000 -0.999939
vt 0.949890 -0.999939
vt 0.000000 -0.049988
vt 0.000000 -0.999939
vt 0.949890 -0.999939
vt 0.000000 -0.049988
vt 0.000000 -0.999939
vt 0.949890 -0.999939
vt 0.000000 -0.049988
vt 0.000000 -0.999939
vt 0.949890 -0.999939
vt 0.000000 -0.049988
vt 0.000000 -0.999939
vt 0.949890 -0.999939
vt 0.000000 -0.049988
vt 0.000000 -0.999939
vt 0.949890 -0.999939
vt 0.000000 -0.049988
vt 0.000000 -0.999939
vt 0.949890 -0.999939
vt 0.000000 -0.049988
vt 0.000000 -0.999939
vt 0.949890 -0.999939
vt 0.000000 -0.049988
vt 0.000000 -0.999939
vt 0.949890 -0.999939
vt 0.000000 -0.049988
vt 0.000000 -0.999939
vt 0.949890 -0.999939
vt 0.000000 -0.049988
vt 0.000000 -0.999939
vt 0.949890 -0.999939
vt 0.000000 -0.049988
vt 0.000000 -0.999939
vt 0.949890 -0.999939
vt 0.000000 -0.049988
vt 0.000000 -0.999939
vt 0.949890 -0.999939
vt 0.000000 -0.049988
vt 0.000000 -0.999939
vt 0.949890 -0.999939
vt 0.000000 -0.049988
vt 0.000000 -0.999939
vt 0.949890 -0.999939
vt 0.000000 -0.049988
vt 0.000000 -0.999939
vt 0.949890 -0.999939
vt 0.000000 -0.049988
vt 0.000000 -0.999939
vt 0.949890 -0.999939
vt 0.000000 -0.049988
vt 0.000000 -0.999939
vt 0.949890 -0.999939
vn 0.4760 0.0019 -0.8794
vn 0.6955 0.0186 -0.7183
vn 0.4770 -0.0000 -0.8789
vn 0.4608 -0.2587 -0.8490
vn 0.8892 0.2165 -0.4030
vn 0.8525 -0.0001 -0.5228
vn 0.8234 -0.2589 -0.5050
vn 0.8525 -0.0002 0.5228
vn 0.8912 0.2997 0.3406
vn 0.8214 -0.2676 0.5037
vn 0.4443 -0.2675 0.8550
vn 0.3676 0.1585 0.9164
vn 0.4610 0.0125 0.8873
vn 0.6179 -0.0158 0.7861
vn 0.4692 -0.0163 0.8830
vn 0.4745 -0.0163 0.8801
vn 0.2405 -0.0000 -0.9706
vn 0.2057 -0.0008 -0.9786
vn 0.1973 -0.0000 -0.9804
vn 0.1609 -0.0021 -0.9870
vn 0.1357 -0.0016 -0.9907
vn 0.1173 0.0006 -0.9931
vn 0.0929 0.0041 -0.9957
vn 0.0664 -0.0004 -0.9978
vn 0.0559 -0.0001 -0.9984
vn 0.0485 0.0002 -0.9988
vn -0.1147 0.0003 -0.9934
vn -0.4374 0.0004 -0.8992
vn -0.9132 0.0075 -0.4074
vn -0.9606 0.0040 -0.2778
vn -1.0000 0.0020 -0.0014
vn -1.0000 0.0008 -0.0010
vn -0.7203 0.0039 -0.6936
vn 0.2477 -0.0012 -0.9688
vn 0.2405 -0.0000 0.9707
vn 0.2057 -0.0007 0.9786
vn 0.1973 -0.0001 0.9803
vn 0.1608 -0.0021 0.9870
vn 0.1357 -0.0015 0.9907
vn 0.1173 0.0007 0.9931
vn 0.0929 0.0040 0.9957
vn 0.0664 -0.0003 0.9978
vn 0.0558 -0.0001 0.9984
vn 0.0485 0.0001 0.9988
vn -0.1148 0.0002 0.9934
vn -0.4375 0.0004 0.8992
vn -0.9132 -0.0011 0.4075
vn -0.9615 0.0034 0.2747
vn -1.0000 0.0020 0.0014
vn -1.0000 0.0010 0.0010
vn -0.7203 0.0025 0.6937
vn 0.2459 -0.0014 0.9693
usemtl Tex_0044_0.dds
s off
f 1/1/1 3/2/2 2/3/1
f 2/3/3 3/2/3 4/4/4
f 3/2/5 5/5/6 4/4/7
f 6/6/8 8/7/9 7/8/10
f 7/8/11 8/7/12 9/9/13
f 8/7/14 10/10/15 9/9/16
f 11/11/17 13/12/17 12/13/17
f 14/14/18 16/15/18 15/16/18
f 17/17/19 19/18/19 18/19/19
f 20/20/20 22/21/20 21/22/20
f 23/23/21 25/24/21 24/25/21
f 26/26/22 28/27/22 27/28/22
f 29/29/23 31/30/23 30/31/23
f 32/32/24 34/33/24 33/34/24
f 35/35/25 37/36/25 36/37/25
f 38/38/26 40/39/26 39/40/26
f 41/41/27 43/42/27 42/43/27
f 44/44/28 46/45/28 45/46/28
f 47/47/29 49/48/29 48/49/29
f 50/50/30 52/51/30 51/52/30
f 53/53/31 55/54/31 54/55/31
f 56/56/32 58/57/32 57/58/32
f 59/59/33 61/60/33 60/61/33
f 62/62/34 64/63/34 63/64/34
f 65/65/35 67/66/35 66/67/35
f 68/68/36 70/69/36 69/70/36
f 71/71/37 73/72/37 72/73/37
f 74/74/38 76/75/38 75/76/38
f 77/77/39 79/78/39 78/79/39
f 80/80/40 82/81/40 81/82/40
f 83/83/41 85/84/41 84/85/41
f 86/86/42 88/87/42 87/88/42
f 89/89/43 91/90/43 90/91/43
f 92/92/44 94/93/44 93/94/44
f 95/95/45 97/96/45 96/97/45
f 98/98/46 100/99/46 99/100/46
f 101/101/47 103/102/47 102/103/47
f 104/104/48 106/105/48 105/106/48
f 107/107/49 109/108/49 108/109/49
f 110/110/50 112/111/50 111/112/50
f 113/113/51 115/114/51 114/115/51
f 116/116/52 118/117/52 117/118/52
