# Blender v3.6.3 OBJ File: 'untitled.blend'
# www.blender.org
mtllib Mesh_0204.mtl
o Mesh_0204_Mesh.042
v -22.936598 41.547787 3.845100
v -22.936602 42.975773 3.684242
v -22.934566 41.547787 -2.571800
v -22.936602 44.332138 3.209648
v -22.936602 45.548794 2.445160
v -22.936602 45.548794 2.445160
v -22.936598 46.564793 1.429085
v -22.934566 41.547787 -2.571800
v -22.936598 47.329330 0.212402
v -22.936602 47.803806 -1.143913
v -22.936602 47.803806 -1.143913
v -22.936602 47.964584 -2.571800
v -22.934566 41.547787 -2.571800
vt 0.000977 -1.001953
vt 1.000000 -1.001953
vt 0.029297 -0.780273
vt 0.103516 -0.569336
vt 0.222656 -0.379883
vt 0.222656 -0.379883
vt 1.000000 -1.001953
vt 0.380859 -0.221680
vt 0.570312 -0.102539
vt 0.781250 -0.028320
vt 0.781250 -0.028320
vt 1.000000 -1.001953
vt 1.000000 -0.002930
vn 1.0000 0.0000 0.0003
vn 1.0000 0.0001 0.0003
vn 1.0000 0.0002 0.0003
vn 1.0000 0.0002 0.0002
vn 1.0000 0.0003 0.0002
vn 1.0000 0.0003 0.0001
vn 1.0000 0.0003 0.0000
usemtl Tex_0082_0.dds
s off
f 1/1/1 3/2/1 2/3/1
f 2/3/2 3/2/2 4/4/2
f 3/2/3 5/5/3 4/4/3
f 6/6/4 8/7/4 7/8/4
f 7/8/5 8/7/5 9/9/5
f 8/7/6 10/10/6 9/9/6
f 11/11/7 13/12/7 12/13/7
