# Blender v3.6.3 OBJ File: 'untitled.blend'
# www.blender.org
mtllib Mesh_0203.mtl
o Mesh_0203_Mesh.041
v -22.936604 47.964584 -2.571800
v -22.936605 47.803806 -3.999680
v -22.934570 41.547787 -2.571800
v -22.936607 47.329338 -5.355995
v -22.936604 46.564796 -6.572685
v -22.936604 46.564796 -6.572685
v -22.936602 45.548794 -7.588760
v -22.934570 41.547787 -2.571800
v -22.936600 44.332127 -8.353241
v -22.936602 42.975769 -8.827847
v -22.936604 41.547779 -8.988705
v -22.934570 41.547787 -2.571800
v -22.936602 42.975769 -8.827847
vt 0.000000 -0.002930
vt 0.000000 -1.001953
vt 0.223633 -0.027344
vt 0.435547 -0.100586
vt 0.625000 -0.219727
vt 0.625000 -0.219727
vt 0.000000 -1.001953
vt 0.783203 -0.377930
vt 0.901367 -0.567383
vt 0.975586 -0.779297
vt 0.999023 -1.001953
vt 0.975586 -0.779297
vt 0.000000 -1.001953
vn 1.0000 0.0003 -0.0000
vn 1.0000 0.0003 -0.0001
vn 1.0000 0.0003 -0.0002
vn 1.0000 0.0002 -0.0002
vn 1.0000 0.0002 -0.0003
vn 1.0000 0.0001 -0.0003
vn 1.0000 0.0000 -0.0003
usemtl Tex_0081_0.dds
s off
f 1/1/1 3/2/1 2/3/1
f 2/3/2 3/2/2 4/4/2
f 3/2/3 5/5/3 4/4/3
f 6/6/4 8/7/4 7/8/4
f 7/8/5 8/7/5 9/9/5
f 8/7/6 10/10/6 9/9/6
f 11/11/7 13/12/7 12/13/7
