# Blender v3.6.3 OBJ File: 'untitled.blend'
# www.blender.org
mtllib Mesh_0147.mtl
o Mesh_0147_Mesh.016
v 6.236986 3.758530 3.628090
v 6.839865 3.441234 3.747856
v 6.840036 3.174990 3.751022
v 7.494562 3.123530 3.885963
v 8.104013 2.539990 4.017593
v 8.102758 2.806233 4.019646
v 8.753752 2.488520 4.180893
v 3.659723 5.028530 3.199623
v 4.310602 4.711233 3.290489
v 4.311819 4.444990 3.288300
v 4.978243 4.393529 3.397194
v 5.575750 3.809990 3.496872
v 5.574919 4.076232 3.500854
v 6.236986 3.758530 3.628090
v 1.164736 6.298530 2.908424
v 1.784979 5.981235 2.965012
v 1.787188 5.714990 2.967529
v 2.448858 5.663530 3.042633
v 3.048704 5.079990 3.114693
v 3.045732 5.346234 3.113121
v 3.659723 5.028530 3.199623
v -1.376228 7.568529 2.731819
v -0.732901 7.238431 2.765045
v -0.742680 6.972188 2.766998
v -0.106892 6.933528 2.805672
v 0.523182 6.349989 2.854141
v 0.521278 6.616230 2.850227
v 1.164736 6.298530 2.908424
v -7.185997 12.648530 8.232208
v -7.185488 12.331232 7.588196
v -7.185488 12.064989 7.588196
v -7.184980 12.013529 6.962212
v -7.184221 11.429989 6.318192
v -7.184221 11.696232 6.318192
v -7.039921 11.378529 5.749428
v 8.753748 2.488519 -9.324497
v 8.102758 2.806233 -9.163261
v 8.104013 2.539990 -9.161201
v 7.494570 3.123530 -9.029579
v 6.840036 3.174990 -8.894630
v 6.839857 3.441232 -8.891453
v 6.236986 3.758529 -8.771694
v 6.236986 3.758529 -8.771694
v 5.574915 4.076232 -8.644466
v 5.575750 3.809990 -8.640476
v 4.978239 4.393529 -8.540806
v 4.311819 4.444990 -8.431911
v 4.310602 4.711232 -8.434101
v 3.659727 5.028530 -8.343243
v 3.659727 5.028530 -8.343243
v 3.045732 5.346233 -8.256721
v 3.048704 5.079990 -8.258305
v 2.448858 5.663529 -8.186245
v 1.787188 5.714990 -8.111141
v 1.784979 5.981232 -8.108627
v 1.164736 6.298529 -8.052036
v 1.164736 6.298529 -8.052036
v 0.521278 6.616232 -7.993843
v 0.523182 6.349990 -7.997757
v -0.106892 6.933529 -7.949287
v -0.742680 6.972188 -7.910603
v -0.732901 7.238431 -7.908653
v -1.376228 7.568529 -7.875423
v -7.039921 11.378530 -10.893047
v -7.184219 11.696231 -11.461807
v -7.184221 11.429990 -11.461807
v -7.184978 12.013530 -12.105824
v -7.185488 12.064989 -12.731804
v -7.185488 12.331234 -12.731792
v -7.185999 12.648529 -13.375824
v 10.703146 1.269990 4.409401
v 11.231874 0.975175 4.694931
v 11.231874 1.269990 4.694931
v 11.546427 0.634990 5.207954
v 11.546396 0.924280 5.207939
v 11.562300 0.924215 5.809456
v -1.376228 7.568529 -7.875423
v -2.010851 7.886232 -7.843674
v -2.010851 7.588621 -7.839764
v -2.644630 8.203529 -7.811954
v -3.280367 8.218110 -7.778248
v -3.279070 8.521235 -7.780205
v 11.231878 1.269993 -9.838539
v 11.546400 0.924281 -10.351540
v 11.546427 0.634990 -10.351547
v 11.562300 0.924215 -10.953068
v 11.562250 0.634990 -10.953068
v 11.275244 0.634990 -11.481949
v 8.160479 2.806233 3.772301
v 8.161650 2.539990 3.768875
v 8.814482 2.488520 3.934250
v 9.433779 1.904990 4.084114
v 9.431723 2.171230 4.085335
v 6.891546 3.441232 3.499176
v 6.891634 3.174990 3.501419
v 7.549273 3.123530 3.637909
v 8.161650 2.539990 3.768875
v 8.160479 2.806233 3.772301
v 5.620531 4.076232 3.250961
v 5.621416 3.809990 3.245811
v 6.285654 3.758529 3.378777
v 6.891634 3.174990 3.501419
v 6.891546 3.441232 3.499176
v 4.350145 4.711232 3.039558
v 4.351423 4.444989 3.037498
v 5.020807 4.393530 3.146805
v 5.621416 3.809990 3.245811
v 5.620531 4.076232 3.250961
v 3.079157 5.346232 2.861305
v 3.081736 5.079990 2.862534
v 3.696226 5.028528 2.948250
v 4.351423 4.444989 3.037498
v 4.350145 4.711232 3.039558
v 1.812258 5.981232 2.712456
v 1.812958 5.714990 2.713005
v 2.479239 5.663528 2.790443
v 3.081736 5.079990 2.862534
v 3.079157 5.346232 2.861305
v 0.542435 6.616232 2.597092
v 0.542892 6.349989 2.597076
v 1.188940 6.298529 2.655563
v 1.812958 5.714990 2.713005
v 1.812258 5.981232 2.712456
v -0.717913 7.238431 2.511467
v -0.728127 6.984990 2.512291
v -0.088835 6.933529 2.552284
v 0.542892 6.349989 2.597076
v 0.542435 6.616232 2.597092
v -1.998150 7.886232 2.446365
v -1.998341 7.619989 2.441200
v -1.363529 7.568530 2.478119
v -0.728127 6.984990 2.512291
v -0.717913 7.238431 2.511467
v -3.266600 8.521232 2.382889
v -3.268225 8.254991 2.379654
v -2.631929 8.203530 2.414665
v -1.998341 7.619989 2.441200
v -1.998150 7.886232 2.446365
v -2.010851 7.886232 2.700066
v -2.010851 7.588621 2.696152
v -2.644630 8.203530 2.668343
v -3.280367 8.218110 2.634636
v -3.279068 8.521234 2.636597
v -4.535837 9.127098 2.525940
v -4.538481 8.889991 2.526489
v -3.916027 8.838530 2.418808
v -3.268225 8.254991 2.379654
v -3.266600 8.521232 2.382889
v -3.279068 8.521234 2.636597
v -3.280367 8.218110 2.634636
v -3.881229 8.838530 2.679718
v -4.469822 8.831900 2.772453
v -4.467236 9.127099 2.770485
v -5.812874 9.813737 3.145645
v -5.807922 9.524990 3.144295
v -5.167868 9.459001 2.820335
v -4.538481 8.889991 2.526489
v -4.535837 9.127098 2.525940
v -4.467236 9.127099 2.770485
v -4.469822 8.831900 2.772453
v -5.060905 9.459000 3.050705
v -5.665096 9.550250 3.357796
v -5.670277 9.813738 3.355850
v -6.594049 10.426232 3.957214
v -6.595726 10.159990 3.965981
v -6.193466 10.097785 3.527878
v -5.807922 9.524990 3.144295
v -5.812874 9.813737 3.145645
v -5.670277 9.813738 3.355850
v -5.665096 9.550250 3.357796
v -6.018969 10.097786 3.712463
v -6.392223 10.159990 4.120758
v -6.392172 10.426232 4.111359
v -7.104189 11.061238 5.055321
v -7.079319 10.794990 5.061554
v -6.851786 10.743550 4.522224
v -6.595726 10.159990 3.965981
v -6.594049 10.426232 3.957214
v -6.392172 10.426232 4.111359
v -6.392223 10.159990 4.120758
v -6.627779 10.743529 4.639839
v -6.839619 10.794977 5.143883
v -6.863876 11.061232 5.137451
v -7.438221 11.696232 6.318192
v -7.439999 11.429989 6.318192
v -7.252785 11.378535 5.706940
v -7.079319 10.794990 5.061554
v -7.104189 11.061238 5.055321
v -7.439482 12.331240 7.588226
v -7.440504 12.064989 7.588196
v -7.438984 12.013528 6.962013
v -7.439999 11.429989 6.318192
v -7.438221 11.696232 6.318192
v -7.439993 12.966217 8.858170
v -7.441275 12.699990 8.858444
v -7.439989 12.648520 8.232033
v -7.440504 12.064989 7.588196
v -7.439482 12.331240 7.588226
v 10.160780 0.924030 6.668762
v 10.160704 0.634990 6.668739
v 9.631899 0.923967 6.381775
v 9.631849 0.634990 6.381729
v 9.317358 0.634990 5.868835
v 11.275309 0.924154 6.338341
v 11.275244 0.634990 6.338310
v 10.762308 0.924090 6.652870
v 10.762327 0.634990 6.652924
v 10.160704 0.634990 6.668739
v 11.546427 0.634990 5.207954
v 11.562250 0.634990 5.809441
v 11.562300 0.924215 5.809456
v 11.275244 0.634990 6.338310
v 11.275309 0.924154 6.338341
v 9.317373 0.923902 5.868797
v 9.317358 0.634990 5.868835
v 9.301470 0.923839 5.267265
v 9.301405 0.634990 5.267334
v 9.588430 0.634990 4.738365
v 9.431723 2.171230 4.085335
v 9.433779 1.904990 4.084114
v 10.063757 1.853519 4.245255
v 10.703146 1.269990 4.409401
v 10.702383 1.536230 4.410065
v -7.185236 12.966231 21.558189
v -7.185234 12.699990 21.558189
v -7.185236 12.966231 22.193626
v -7.185236 12.699989 22.828186
v -7.185110 12.966220 22.828117
v -7.439234 12.966233 22.828201
v -7.439234 12.699990 22.828194
v -7.439234 12.966232 22.193611
v -7.439236 12.699990 21.558189
v -7.439236 12.966232 21.558189
v -7.185234 12.966232 20.288200
v -7.185234 12.699989 20.288193
v -7.185234 12.966232 20.923630
v -7.185234 12.699990 21.558189
v -7.185236 12.966231 21.558189
v -7.439236 12.966232 21.558189
v -7.439236 12.699990 21.558189
v -7.439236 12.966232 20.923630
v -7.439234 12.699990 20.288193
v -7.439234 12.966231 20.288193
v -7.185234 12.966231 19.018204
v -7.185234 12.699990 19.018204
v -7.185234 12.966231 19.653625
v -7.185234 12.699989 20.288193
v -7.185234 12.966232 20.288200
v -7.439234 12.966231 20.288193
v -7.439234 12.699990 20.288193
v -7.439234 12.966231 19.653625
v -7.439234 12.699990 19.018204
v -7.439234 12.966231 19.018196
v -7.185234 12.966231 17.748184
v -7.185234 12.699989 17.748192
v -7.185234 12.966231 18.383629
v -7.185234 12.699990 19.018204
v -7.185234 12.966231 19.018204
v -7.439234 12.966231 19.018196
v -7.439234 12.699990 19.018204
v -7.439234 12.966231 18.383629
v -7.439234 12.699989 17.748192
v -7.439234 12.966231 17.748192
v -7.185234 12.966232 16.478195
v -7.185234 12.699990 16.478195
v -7.185234 12.966231 17.113632
v -7.185234 12.699989 17.748192
v -7.185234 12.966231 17.748184
v -7.439234 12.966231 17.748192
v -7.439234 12.699989 17.748192
v -7.439234 12.966232 17.113632
v -7.439234 12.699990 16.478195
v -7.439236 12.966232 16.478195
v -7.185234 12.966232 15.208191
v -7.185234 12.699990 15.208191
v -7.185234 12.966233 15.843628
v -7.185234 12.699990 16.478195
v -7.185234 12.966232 16.478195
v -7.439236 12.966232 16.478195
v -7.439234 12.699990 16.478195
v -7.439234 12.966233 15.843628
v -7.439234 12.699991 15.208191
v -7.439234 12.966232 15.208191
v -7.185234 12.966231 13.938194
v -7.185234 12.699989 13.938194
v -7.185236 12.966231 14.573631
v -7.185234 12.699990 15.208191
v -7.185234 12.966232 15.208191
v -7.439234 12.966232 15.208191
v -7.439234 12.699991 15.208191
v -7.439234 12.966232 14.573631
v -7.439234 12.699989 13.938194
v -7.439234 12.966231 13.938194
v -7.185234 12.966232 12.668190
v -7.185234 12.699989 12.668190
v -7.185234 12.966231 13.303627
v -7.185234 12.699989 13.938194
v -7.185234 12.966231 13.938194
v -7.439234 12.966231 13.938194
v -7.439234 12.699989 13.938194
v -7.439234 12.966231 13.303627
v -7.439234 12.699989 12.668190
v -7.439234 12.966232 12.668190
v -7.185234 12.966232 11.398193
v -7.185234 12.699989 11.398193
v -7.185234 12.966232 12.033630
v -7.185234 12.699989 12.668190
v -7.185234 12.966232 12.668190
v -7.439234 12.966232 12.668190
v -7.439234 12.699989 12.668190
v -7.439234 12.966231 12.033630
v -7.439234 12.699989 11.398193
v -7.439234 12.966231 11.398193
v -7.185234 12.966232 10.128189
v -7.185234 12.699990 10.128189
v -7.185234 12.966232 10.763618
v -7.185234 12.699989 11.398193
v -7.185234 12.966232 11.398193
v -7.439234 12.966231 11.398193
v -7.439234 12.699989 11.398193
v -7.439234 12.966232 10.763626
v -7.443714 12.699990 10.128700
v -7.439234 12.966232 10.128189
v -7.185488 12.966231 8.858192
v -7.185745 12.699990 8.858192
v -7.185234 12.966231 9.493629
v -7.185234 12.699990 10.128189
v -7.185234 12.966232 10.128189
v -7.439234 12.966232 10.128189
v -7.443714 12.699990 10.128700
v -7.439245 12.966232 9.493629
v -7.441275 12.699990 8.858444
v -7.439993 12.966217 8.858170
v 9.431719 2.171229 -9.228951
v 9.433779 1.904990 -9.228989
v 8.814482 2.488519 -9.077869
v 8.161650 2.539990 -8.913834
v 8.160479 2.806232 -8.915920
v 8.160479 2.806232 -8.915920
v 8.161650 2.539990 -8.913834
v 7.549280 3.123531 -8.781517
v 6.891634 3.174990 -8.646393
v 6.891546 3.441232 -8.642784
v 6.891546 3.441232 -8.642784
v 6.891634 3.174990 -8.646393
v 6.285658 3.758530 -8.522385
v 5.621424 3.809989 -8.390690
v 5.620531 4.076231 -8.394577
v 5.620531 4.076231 -8.394577
v 5.621424 3.809989 -8.390690
v 5.020811 4.393529 -8.290409
v 4.351423 4.444990 -8.182362
v 4.350149 4.711233 -8.183174
v 4.350149 4.711233 -8.183174
v 4.351423 4.444990 -8.182362
v 3.696222 5.028526 -8.091862
v 3.081736 5.079990 -8.007431
v 3.079157 5.346231 -8.004917
v 3.079157 5.346231 -8.004917
v 3.081736 5.079990 -8.007431
v 2.479239 5.663529 -7.934052
v 1.812958 5.714990 -7.857975
v 1.812252 5.981232 -7.856079
v 1.812252 5.981232 -7.856079
v 1.812958 5.714990 -7.857975
v 1.188940 6.298530 -7.799179
v 0.542892 6.349990 -7.741951
v 0.542435 6.616232 -7.740707
v 0.542435 6.616232 -7.740707
v 0.542892 6.349990 -7.741951
v -0.088833 6.933528 -7.695908
v -0.728127 6.984990 -7.657219
v -0.717913 7.238430 -7.655087
v -0.717913 7.238430 -7.655087
v -0.728127 6.984990 -7.657219
v -1.363529 7.568530 -7.621731
v -1.998354 7.619989 -7.586147
v -1.998150 7.886234 -7.589981
v -1.998150 7.886234 -7.589981
v -1.998354 7.619989 -7.586147
v -2.631929 8.203527 -7.558277
v -3.268225 8.254990 -7.524517
v -3.266600 8.521231 -7.526505
v -4.467234 9.127097 -7.914116
v -4.469822 8.831901 -7.916069
v -3.881229 8.838530 -7.823330
v -3.280367 8.218110 -7.778248
v -3.279070 8.521235 -7.780205
v -3.266600 8.521231 -7.526505
v -3.268225 8.254990 -7.524517
v -3.916027 8.838530 -7.562416
v -4.538479 8.889991 -7.671387
v -4.535837 9.127098 -7.669559
v -5.670279 9.813737 -8.499454
v -5.665096 9.547494 -8.501408
v -5.060902 9.459002 -8.194309
v -4.469822 8.831901 -7.916069
v -4.467234 9.127097 -7.914116
v -4.535837 9.127098 -7.669559
v -4.538479 8.889991 -7.671387
v -5.167885 9.458999 -7.963997
v -5.807920 9.524990 -8.289268
v -5.812870 9.813737 -8.289268
v -6.392172 10.426234 -9.254974
v -6.392223 10.159990 -9.264378
v -6.018969 10.097785 -8.856075
v -5.665096 9.547494 -8.501408
v -5.670279 9.813737 -8.499454
v -5.812870 9.813737 -8.289268
v -5.807920 9.524990 -8.289268
v -6.193464 10.097787 -8.671490
v -6.595726 10.159990 -9.109592
v -6.594049 10.426234 -9.100830
v -6.863876 11.061234 -10.281067
v -6.839619 10.794978 -10.287495
v -6.627779 10.743530 -9.783455
v -6.392223 10.159990 -9.264378
v -6.392172 10.426234 -9.254974
v -6.594049 10.426234 -9.100830
v -6.595726 10.159990 -9.109592
v -6.851786 10.743530 -9.665825
v -7.079369 10.794991 -10.191807
v -7.104206 11.061234 -10.198872
v -7.104206 11.061234 -10.198872
v -7.079369 10.794991 -10.191807
v -7.252798 11.378531 -10.850506
v -7.440022 11.429990 -11.461807
v -7.438219 11.696232 -11.461807
v -7.438219 11.696232 -11.461807
v -7.440022 11.429990 -11.461807
v -7.438980 12.013529 -12.105644
v -7.440531 12.064989 -12.731804
v -7.439489 12.331232 -12.731800
v -7.439489 12.331232 -12.731800
v -7.440531 12.064989 -12.731804
v -7.439999 12.648529 -13.375645
v -7.441196 12.699990 -14.001980
v -7.439997 12.966232 -14.001804
v 11.546427 0.634990 -10.351547
v 11.231874 0.975175 -9.838539
v 11.231878 1.269993 -9.838539
v 10.702383 1.269990 -9.551735
v 10.702387 1.536233 -9.553673
v 9.317373 0.923902 -11.012409
v 9.317358 0.634990 -11.012409
v 9.631899 0.923966 -11.525372
v 9.631849 0.634990 -11.525372
v 10.160704 0.634990 -11.812370
v 10.160780 0.924029 -11.812378
v 10.160704 0.634990 -11.812370
v 10.762300 0.924091 -11.796482
v 10.762327 0.634990 -11.796478
v 11.275244 0.634990 -11.481949
v 9.588469 0.923778 -9.882000
v 9.588430 0.634990 -9.882000
v 9.301474 0.923839 -10.410881
v 9.301405 0.634990 -10.410881
v 9.317358 0.634990 -11.012409
v 10.702387 1.536233 -9.553673
v 10.702383 1.269990 -9.551735
v 10.063749 1.853518 -9.388859
v 9.433779 1.904990 -9.228989
v 9.431719 2.171229 -9.228951
v -7.439234 12.966233 -26.701805
v -7.439234 12.699990 -26.701805
v -7.439236 12.966233 -27.337231
v -7.439234 12.699990 -27.971806
v -7.439234 12.966233 -27.971806
v -7.185106 12.966221 -27.971729
v -7.185234 12.699992 -27.971802
v -7.185234 12.966234 -27.337238
v -7.185236 12.699990 -26.701805
v -7.185234 12.966233 -26.701801
v -7.439234 12.966232 -25.431805
v -7.439234 12.699989 -25.431805
v -7.439234 12.966235 -26.067238
v -7.439234 12.699990 -26.701805
v -7.439234 12.966233 -26.701805
v -7.185234 12.966233 -26.701801
v -7.185236 12.699990 -26.701805
v -7.185236 12.966233 -26.067238
v -7.185234 12.699989 -25.431805
v -7.185236 12.966231 -25.431805
v -7.439236 12.966232 -24.161804
v -7.439234 12.699989 -24.161804
v -7.439234 12.966232 -24.797237
v -7.439234 12.699989 -25.431805
v -7.439234 12.966232 -25.431805
v -7.185236 12.966231 -25.431805
v -7.185234 12.699989 -25.431805
v -7.185234 12.966232 -24.797237
v -7.185234 12.699990 -24.161804
v -7.185234 12.966233 -24.161800
v -7.439234 12.966233 -22.891804
v -7.439234 12.699990 -22.891804
v -7.439234 12.966232 -23.527237
v -7.439234 12.699989 -24.161804
v -7.439236 12.966232 -24.161804
v -7.185234 12.966233 -24.161800
v -7.185234 12.699990 -24.161804
v -7.185234 12.966233 -23.527241
v -7.185234 12.699991 -22.891804
v -7.185236 12.966233 -22.891804
v -7.439234 12.966233 -21.621803
v -7.439234 12.699990 -21.621803
v -7.439236 12.966234 -22.257236
v -7.439234 12.699990 -22.891804
v -7.439234 12.966233 -22.891804
v -7.185236 12.966233 -22.891804
v -7.185234 12.699991 -22.891804
v -7.185234 12.966232 -22.257236
v -7.185234 12.699989 -21.621803
v -7.185236 12.966232 -21.621803
v -7.439234 12.966234 -20.351807
v -7.439234 12.699990 -20.351807
v -7.439234 12.966234 -20.987236
v -7.439234 12.699990 -21.621803
v -7.439234 12.966233 -21.621803
v -7.185236 12.966232 -21.621803
v -7.185234 12.699989 -21.621803
v -7.185236 12.966232 -20.987236
v -7.185234 12.699990 -20.351807
v -7.185234 12.966234 -20.351807
v -7.439234 12.966232 -19.081806
v -7.439234 12.699989 -19.081806
v -7.439234 12.966233 -19.717243
v -7.439234 12.699990 -20.351807
v -7.439234 12.966234 -20.351807
v -7.185234 12.966234 -20.351807
v -7.185234 12.699990 -20.351807
v -7.185234 12.966233 -19.717239
v -7.185234 12.699989 -19.081806
v -7.185234 12.966232 -19.081806
v -7.439234 12.966231 -17.811806
v -7.439234 12.699989 -17.811806
v -7.439234 12.966231 -18.447239
v -7.439234 12.699989 -19.081806
v -7.439234 12.966232 -19.081806
v -7.185234 12.966232 -19.081806
v -7.185234 12.699989 -19.081806
v -7.185234 12.966232 -18.447239
v -7.185234 12.699989 -17.811806
v -7.185236 12.966232 -17.811806
v -7.439234 12.966234 -16.541805
v -7.439234 12.699990 -16.541805
v -7.439234 12.966233 -17.177238
v -7.439234 12.699989 -17.811806
v -7.439234 12.966231 -17.811806
v -7.185236 12.966232 -17.811806
v -7.185234 12.699989 -17.811806
v -7.185234 12.966234 -17.177238
v -7.185234 12.699989 -16.541805
v -7.185234 12.966232 -16.541805
v -7.439234 12.966234 -15.271805
v -7.443832 12.699990 -15.272312
v -7.439238 12.966233 -15.907238
v -7.439234 12.699990 -16.541805
v -7.439234 12.966234 -16.541805
v -7.185234 12.966232 -16.541805
v -7.185234 12.699989 -16.541805
v -7.185234 12.966233 -15.907238
v -7.185234 12.699990 -15.271805
v -7.185234 12.966233 -15.271805
v -7.439997 12.966232 -14.001804
v -7.441196 12.699990 -14.001980
v -7.439234 12.966233 -14.637238
v -7.443832 12.699990 -15.272312
v -7.439234 12.966234 -15.271805
v -7.185234 12.966233 -15.271805
v -7.185234 12.699990 -15.271805
v -7.185236 12.966232 -14.637245
v -7.185747 12.699990 -14.001804
v -7.185488 12.966233 -14.001812
v -7.078554 9.524989 5.061424
v -6.597378 9.524990 3.964119
v -7.078588 10.159989 5.048195
v -6.595726 10.159990 3.965981
v 9.368883 2.171231 4.331429
v 9.080698 2.063740 4.263840
v 8.753752 2.488520 4.180893
v 8.104013 2.539990 4.017593
v -2.010851 7.886232 2.700066
v -1.376228 7.568529 2.731819
v -2.010851 7.588621 2.696152
v -0.742680 6.972188 2.766998
v -6.863876 11.061232 5.137451
v -6.839619 10.794977 5.143883
v -7.039921 11.378529 5.749428
v -7.184221 11.429989 6.318192
v -7.185488 12.966231 8.858192
v -7.185997 12.648530 8.232208
v -7.185745 12.699990 8.858192
v -7.185488 12.064989 7.588196
v 9.631899 0.923967 6.381775
v 9.317373 0.923902 5.868797
v 9.631903 1.162266 6.381775
v 9.631899 1.225441 6.381767
v 9.368883 2.171231 4.331429
v 10.000910 1.853519 4.491348
v 9.080698 2.063740 4.263840
v 10.006071 1.587490 4.495583
v -7.078625 9.524990 -10.191807
v -7.078625 10.159987 -10.191807
v -6.597380 9.524990 -9.109009
v -6.595726 10.159990 -9.109592
v 9.368883 2.171231 -9.475040
v 8.753748 2.488519 -9.324497
v 9.080698 2.063740 -9.407459
v 8.104013 2.539990 -9.161201
v -6.863876 11.061234 -10.281067
v -7.039921 11.378530 -10.893047
v -6.839619 10.794978 -10.287495
v -7.184221 11.429990 -11.461807
v -7.185488 12.966233 -14.001812
v -7.185747 12.699990 -14.001804
v -7.185999 12.648529 -13.375824
v -7.185488 12.064989 -12.731804
v 9.631899 0.923966 -11.525372
v 9.631899 1.162267 -11.525383
v 9.317373 0.923902 -11.012409
v 9.631895 1.225442 -11.525387
v 9.368883 2.171231 -9.475040
v 9.080698 2.063740 -9.407459
v 10.000910 1.853520 -9.634960
v 10.006071 1.587490 -9.639202
v 6.840036 3.174990 3.751022
v 5.575750 3.809990 3.496872
v 6.236986 3.758530 3.628090
v 4.311819 4.444990 3.288300
v 3.048704 5.079990 3.114693
v 3.659723 5.028530 3.199623
v 1.787188 5.714990 2.967529
v 0.523182 6.349989 2.854141
v 1.164736 6.298530 2.908424
v 10.702383 1.536230 4.410065
v 10.703146 1.269990 4.409401
v 11.231874 1.269990 4.694931
v 9.631899 0.923967 6.381775
v 9.317358 0.634990 5.868835
v 9.317373 0.923902 5.868797
v 10.762308 0.924090 6.652870
v 10.160704 0.634990 6.668739
v 10.160780 0.924030 6.668762
v 9.301470 0.923839 5.267265
v 9.588430 0.634990 4.738365
v 9.588465 0.923778 4.738396
v 5.575750 3.809990 -8.640476
v 6.840036 3.174990 -8.894630
v 6.236986 3.758529 -8.771694
v 3.048704 5.079990 -8.258305
v 4.311819 4.444990 -8.431911
v 3.659727 5.028530 -8.343243
v 0.523182 6.349990 -7.997757
v 1.787188 5.714990 -8.111141
v 1.164736 6.298529 -8.052036
v -2.010851 7.588621 -7.839764
v -0.742680 6.972188 -7.910603
v -1.376228 7.568529 -7.875423
v 10.160780 0.924029 -11.812378
v 9.631899 0.923966 -11.525372
v 10.160704 0.634990 -11.812370
v 11.275305 0.924155 -11.481949
v 10.762300 0.924091 -11.796482
v 11.275244 0.634990 -11.481949
v 11.275244 0.634990 -11.481949
v 11.562300 0.924215 -10.953068
v 11.275305 0.924155 -11.481949
v 9.317373 0.923902 -11.012409
v 9.301474 0.923839 -10.410881
v 9.317358 0.634990 -11.012409
vt 2.746094 -0.499023
vt 2.996094 -0.999023
vt 2.996094 -0.499023
vt 3.245117 -0.499023
vt 3.495117 -0.999023
vt 3.495117 -0.499023
vt 3.745117 -0.499023
vt 1.747070 -0.499023
vt 1.997070 -0.999023
vt 1.997070 -0.499023
vt 2.246094 -0.499023
vt 2.496094 -0.999023
vt 2.496094 -0.499023
vt 2.746094 -0.499023
vt 0.748047 -0.499023
vt 0.998047 -0.999023
vt 0.998047 -0.499023
vt 1.247070 -0.499023
vt 1.747070 -0.999023
vt 1.497070 -0.499023
vt 1.747070 -0.499023
vt -0.250977 -0.499023
vt -0.000977 -0.999023
vt -0.000977 -0.499023
vt 0.248047 -0.499023
vt 0.498047 -0.999023
vt 0.498047 -0.499023
vt 0.748047 -0.499023
vt 3.495117 -0.999023
vt 2.996094 -1.998047
vt 2.996094 -0.999023
vt 2.496094 -0.999023
vt 1.997070 -1.998047
vt 1.997070 -0.999023
vt 1.497070 -0.999023
vt 3.745117 -0.499023
vt 3.495117 -0.999023
vt 3.495117 -0.499023
vt 3.245117 -0.499023
vt 2.996094 -0.999023
vt 2.996094 -0.499023
vt 2.746094 -0.499023
vt 2.746094 -0.499023
vt 2.496094 -0.999023
vt 2.496094 -0.499023
vt 2.246094 -0.499023
vt 1.997070 -0.999023
vt 1.997070 -0.499023
vt 1.747070 -0.499023
vt 1.747070 -0.499023
vt 1.747070 -0.999023
vt 1.497070 -0.499023
vt 1.247070 -0.499023
vt 0.998047 -0.999023
vt 0.998047 -0.499023
vt 0.748047 -0.499023
vt 0.748047 -0.499023
vt 0.498047 -0.999023
vt 0.498047 -0.499023
vt 0.248047 -0.499023
vt -0.000977 -0.999023
vt -0.000977 -0.499023
vt -0.250977 -0.499023
vt 1.497070 -0.999023
vt 1.997070 -1.998047
vt 1.997070 -0.999023
vt 2.496094 -0.999023
vt 2.996094 -1.998047
vt 2.996094 -0.999023
vt 3.495117 -0.999023
vt -1.000000 -0.999023
vt -0.500977 0.000000
vt -0.500977 -0.999023
vt -0.000977 -0.999023
vt -0.000977 0.000000
vt -0.500977 0.000000
vt -0.250977 -0.499023
vt -0.500977 -0.999023
vt -0.500977 -0.499023
vt -0.750977 -0.499023
vt -1.000000 -0.999023
vt -1.000000 -0.499023
vt -0.500977 0.000000
vt -0.000977 -0.999023
vt -0.000977 0.000000
vt -0.500977 0.000000
vt -0.500977 -0.999023
vt -1.000000 -0.999023
vt -1.000000 0.000000
vt -0.500977 0.000000
vt -1.000000 -0.999023
vt -0.000977 -0.999023
vt -0.000977 0.000000
vt -1.000000 0.000000
vt -0.500977 0.000000
vt -1.000000 -0.999023
vt -0.000977 -0.999023
vt -0.000977 0.000000
vt -1.000000 0.000000
vt -0.500977 0.000000
vt -1.000000 -0.999023
vt -0.000977 -0.999023
vt -0.000977 0.000000
vt -1.000000 0.000000
vt -0.500977 0.000000
vt -1.000000 -0.999023
vt -0.000977 -0.999023
vt -0.000977 0.000000
vt -1.000000 0.000000
vt -0.500977 0.000000
vt -1.000000 -0.999023
vt -0.000977 -0.999023
vt -0.000977 0.000000
vt -1.000000 0.000000
vt -0.500977 0.000000
vt -1.000000 -0.999023
vt -0.000977 -0.999023
vt -0.000977 0.000000
vt -1.000000 0.000000
vt -0.500977 0.000000
vt -1.000000 -0.999023
vt -0.000977 -0.999023
vt -0.000977 0.000000
vt -1.000000 0.000000
vt -0.500977 0.000000
vt -1.000000 -0.999023
vt -0.000977 -0.999023
vt -0.000977 0.000000
vt -1.000000 0.000000
vt -0.500977 0.000000
vt -1.000000 -0.999023
vt -0.000977 -0.999023
vt -0.000977 0.000000
vt -1.000000 0.000000
vt -0.500977 0.000000
vt -1.000000 -0.999023
vt -0.000977 -0.999023
vt -0.000977 0.000000
vt -0.500977 -0.499023
vt -0.750977 -0.499023
vt -0.500977 -0.999023
vt -1.000000 -0.999023
vt -1.000000 -0.499023
vt -1.000000 0.000000
vt -0.500977 0.000000
vt -1.000000 -0.999023
vt -0.000977 -0.999023
vt -0.000977 0.000000
vt -0.000977 0.000000
vt -0.500977 0.000000
vt -0.000977 -0.999023
vt -1.000000 -0.999023
vt -1.000000 0.000000
vt -1.000000 0.000000
vt -0.500977 0.000000
vt -1.000000 -0.999023
vt -0.000977 -0.999023
vt -0.000977 0.000000
vt -0.000977 0.000000
vt -0.500977 0.000000
vt -0.000977 -0.999023
vt -1.000000 -0.999023
vt -1.000000 0.000000
vt -1.000000 0.000000
vt -0.500977 0.000000
vt -1.000000 -0.999023
vt -0.000977 -0.999023
vt -0.000977 0.000000
vt -0.000977 0.000000
vt -0.500977 0.000000
vt -0.000977 -0.999023
vt -1.000000 -0.999023
vt -1.000000 0.000000
vt -1.000000 0.000000
vt -0.500977 0.000000
vt -1.000000 -0.999023
vt -0.000977 -0.999023
vt -0.000977 0.000000
vt -0.000977 0.000000
vt -0.500977 0.000000
vt -0.000977 -0.999023
vt -1.000000 -0.999023
vt -1.000000 0.000000
vt -1.000000 0.000000
vt -0.500977 0.000000
vt -1.000000 -0.999023
vt -0.000977 -0.999023
vt -0.000977 0.000000
vt -1.000000 0.000000
vt -0.500977 0.000000
vt -1.000000 -0.999023
vt -0.000977 -0.999023
vt -0.000977 0.000000
vt -1.000000 0.000000
vt -0.500977 0.000000
vt -1.000000 -0.999023
vt -0.000977 -0.999023
vt -0.000977 0.000000
vt -0.000977 0.000000
vt -0.500977 0.000000
vt -0.000977 -0.999023
vt -0.500977 -0.999023
vt -1.000000 -0.999023
vt -0.000977 0.000000
vt -0.500977 0.000000
vt -0.000977 -0.999023
vt -0.500977 -0.999023
vt -1.000000 -0.999023
vt -0.000977 -0.999023
vt -0.500977 0.000000
vt -0.500977 -0.999023
vt -1.000000 -0.999023
vt -1.000000 0.000000
vt -0.000977 0.000000
vt -0.500977 0.000000
vt -0.000977 -0.999023
vt -0.500977 -0.999023
vt -1.000000 -0.999023
vt -1.000000 0.000000
vt -0.500977 0.000000
vt -1.000000 -0.999023
vt -0.000977 -0.999023
vt -0.000977 0.000000
vt -2.498047 -0.999023
vt -2.998047 -0.999023
vt -2.498047 -1.998047
vt -3.497070 -1.998047
vt -3.497070 -0.999023
vt -3.497070 -0.999023
vt -2.998047 -0.999023
vt -3.497070 -1.998047
vt -2.498047 -1.998047
vt -2.498047 -0.999023
vt -2.498047 -0.999023
vt -2.998047 -0.999023
vt -2.498047 -1.998047
vt -3.497070 -1.998047
vt -3.497070 -0.999023
vt -3.497070 -0.999023
vt -2.998047 -0.999023
vt -3.497070 -1.998047
vt -2.498047 -1.998047
vt -2.498047 -0.999023
vt -2.498047 -0.999023
vt -2.998047 -0.999023
vt -2.498047 -1.998047
vt -3.497070 -1.998047
vt -3.497070 -0.999023
vt -3.497070 -0.999023
vt -2.998047 -0.999023
vt -3.497070 -1.998047
vt -2.498047 -1.998047
vt -2.498047 -0.999023
vt -2.498047 -0.999023
vt -2.998047 -0.999023
vt -2.498047 -1.998047
vt -3.497070 -1.998047
vt -3.497070 -0.999023
vt -3.497070 -0.999023
vt -2.998047 -0.999023
vt -3.497070 -1.998047
vt -2.498047 -1.998047
vt -2.498047 -0.999023
vt -2.498047 -0.999023
vt -2.998047 -0.999023
vt -2.498047 -1.998047
vt -3.497070 -1.998047
vt -3.497070 -0.999023
vt -3.497070 -0.999023
vt -2.998047 -0.999023
vt -3.497070 -1.998047
vt -2.498047 -1.998047
vt -2.498047 -0.999023
vt -2.498047 -0.999023
vt -2.998047 -0.999023
vt -2.498047 -1.998047
vt -3.497070 -1.998047
vt -3.497070 -0.999023
vt -3.497070 -0.999023
vt -2.998047 -0.999023
vt -3.497070 -1.998047
vt -2.498047 -1.998047
vt -2.498047 -0.999023
vt -2.498047 -0.999023
vt -2.998047 -0.999023
vt -2.498047 -1.998047
vt -3.497070 -1.998047
vt -3.497070 -0.999023
vt -3.497070 -0.999023
vt -2.998047 -0.999023
vt -3.497070 -1.998047
vt -2.498047 -1.998047
vt -2.498047 -0.999023
vt -2.498047 -0.999023
vt -2.998047 -0.999023
vt -2.498047 -1.998047
vt -3.497070 -1.998047
vt -3.497070 -0.999023
vt -3.497070 -0.999023
vt -2.998047 -0.999023
vt -3.497070 -1.998047
vt -2.498047 -1.998047
vt -2.498047 -0.999023
vt -2.498047 -0.999023
vt -2.998047 -0.999023
vt -2.498047 -1.998047
vt -3.497070 -1.998047
vt -3.497070 -0.999023
vt -3.497070 -0.999023
vt -2.998047 -0.999023
vt -3.497070 -1.998047
vt -2.498047 -1.998047
vt -2.498047 -0.999023
vt -2.498047 -0.999023
vt -2.998047 -0.999023
vt -2.498047 -1.998047
vt -3.497070 -1.998047
vt -3.497070 -0.999023
vt -3.497070 -0.999023
vt -2.998047 -0.999023
vt -3.497070 -1.998047
vt -2.498047 -1.998047
vt -2.498047 -0.999023
vt -2.498047 -0.999023
vt -2.998047 -0.999023
vt -2.498047 -1.998047
vt -3.497070 -1.998047
vt -3.497070 -0.999023
vt -3.497070 -0.999023
vt -2.998047 -0.999023
vt -3.497070 -1.998047
vt -2.498047 -1.998047
vt -2.498047 -0.999023
vt -0.000977 0.000000
vt -0.500977 0.000000
vt -0.000977 -0.999023
vt -1.000000 -0.999023
vt -1.000000 0.000000
vt -0.000977 0.000000
vt -0.500977 0.000000
vt -0.000977 -0.999023
vt -1.000000 -0.999023
vt -1.000000 0.000000
vt -0.000977 0.000000
vt -0.500977 0.000000
vt -0.000977 -0.999023
vt -1.000000 -0.999023
vt -1.000000 0.000000
vt -0.000977 0.000000
vt -0.500977 0.000000
vt -0.000977 -0.999023
vt -1.000000 -0.999023
vt -1.000000 0.000000
vt -0.000977 0.000000
vt -0.500977 0.000000
vt -0.000977 -0.999023
vt -1.000000 -0.999023
vt -1.000000 0.000000
vt -0.000977 0.000000
vt -0.500977 0.000000
vt -0.000977 -0.999023
vt -1.000000 -0.999023
vt -1.000000 0.000000
vt -0.000977 0.000000
vt -0.500977 0.000000
vt -0.000977 -0.999023
vt -1.000000 -0.999023
vt -1.000000 0.000000
vt -0.000977 0.000000
vt -0.500977 0.000000
vt -0.000977 -0.999023
vt -1.000000 -0.999023
vt -1.000000 0.000000
vt -0.000977 0.000000
vt -0.500977 0.000000
vt -0.000977 -0.999023
vt -1.000000 -0.999023
vt -1.000000 0.000000
vt -0.000977 0.000000
vt -0.500977 0.000000
vt -0.000977 -0.999023
vt -1.000000 -0.999023
vt -1.000000 0.000000
vt -1.000000 0.000000
vt -0.500977 0.000000
vt -1.000000 -0.999023
vt -0.000977 -0.999023
vt -0.000977 0.000000
vt -0.000977 0.000000
vt -0.500977 0.000000
vt -0.000977 -0.999023
vt -1.000000 -0.999023
vt -1.000000 0.000000
vt -1.000000 0.000000
vt -0.500977 0.000000
vt -1.000000 -0.999023
vt -0.000977 -0.999023
vt -0.000977 0.000000
vt -0.000977 0.000000
vt -0.500977 0.000000
vt -0.000977 -0.999023
vt -1.000000 -0.999023
vt -1.000000 0.000000
vt -1.000000 0.000000
vt -0.500977 0.000000
vt -1.000000 -0.999023
vt -0.000977 -0.999023
vt -0.000977 0.000000
vt -0.000977 0.000000
vt -0.500977 0.000000
vt -0.000977 -0.999023
vt -1.000000 -0.999023
vt -1.000000 0.000000
vt -1.000000 0.000000
vt -0.500977 0.000000
vt -1.000000 -0.999023
vt -0.000977 -0.999023
vt -0.000977 0.000000
vt -0.000977 0.000000
vt -0.500977 0.000000
vt -0.000977 -0.999023
vt -1.000000 -0.999023
vt -1.000000 0.000000
vt -0.000977 0.000000
vt -0.500977 0.000000
vt -0.000977 -0.999023
vt -1.000000 -0.999023
vt -1.000000 0.000000
vt -0.000977 0.000000
vt -0.500977 0.000000
vt -0.000977 -0.999023
vt -1.000000 -0.999023
vt -1.000000 0.000000
vt -0.000977 0.000000
vt -0.500977 0.000000
vt -0.000977 -0.999023
vt -1.000000 -0.999023
vt -1.000000 0.000000
vt -0.000977 -0.999023
vt -0.500977 0.000000
vt -0.500977 -0.999023
vt -1.000000 -0.999023
vt -1.000000 0.000000
vt -1.000000 0.000000
vt -0.500977 0.000000
vt -1.000000 -0.999023
vt -0.500977 -0.999023
vt -0.000977 -0.999023
vt -1.000000 0.000000
vt -0.500977 0.000000
vt -1.000000 -0.999023
vt -0.500977 -0.999023
vt -0.000977 -0.999023
vt -1.000000 0.000000
vt -0.500977 0.000000
vt -1.000000 -0.999023
vt -0.500977 -0.999023
vt -0.000977 -0.999023
vt -0.000977 0.000000
vt -0.500977 0.000000
vt -0.000977 -0.999023
vt -1.000000 -0.999023
vt -1.000000 0.000000
vt -2.498047 -0.999023
vt -2.998047 -0.999023
vt -2.498047 -1.998047
vt -3.497070 -1.998047
vt -3.497070 -0.999023
vt -3.497070 -0.999023
vt -2.998047 -0.999023
vt -3.497070 -1.998047
vt -2.498047 -1.998047
vt -2.498047 -0.999023
vt -2.498047 -0.999023
vt -2.998047 -0.999023
vt -2.498047 -1.998047
vt -3.497070 -1.998047
vt -3.497070 -0.999023
vt -3.497070 -0.999023
vt -2.998047 -0.999023
vt -3.497070 -1.998047
vt -2.498047 -1.998047
vt -2.498047 -0.999023
vt -2.498047 -0.999023
vt -2.998047 -0.999023
vt -2.498047 -1.998047
vt -3.497070 -1.998047
vt -3.497070 -0.999023
vt -3.497070 -0.999023
vt -2.998047 -0.999023
vt -3.497070 -1.998047
vt -2.498047 -1.998047
vt -2.498047 -0.999023
vt -2.498047 -0.999023
vt -2.998047 -0.999023
vt -2.498047 -1.998047
vt -3.497070 -1.998047
vt -3.497070 -0.999023
vt -3.497070 -0.999023
vt -2.998047 -0.999023
vt -3.497070 -1.998047
vt -2.498047 -1.998047
vt -2.498047 -0.999023
vt -2.498047 -0.999023
vt -2.998047 -0.999023
vt -2.498047 -1.998047
vt -3.497070 -1.998047
vt -3.497070 -0.999023
vt -3.497070 -0.999023
vt -2.998047 -0.999023
vt -3.497070 -1.998047
vt -2.498047 -1.998047
vt -2.498047 -0.999023
vt -2.498047 -0.999023
vt -2.998047 -0.999023
vt -2.498047 -1.998047
vt -3.497070 -1.998047
vt -3.497070 -0.999023
vt -3.497070 -0.999023
vt -2.998047 -0.999023
vt -3.497070 -1.998047
vt -2.498047 -1.998047
vt -2.498047 -0.999023
vt -2.498047 -0.999023
vt -2.998047 -0.999023
vt -2.498047 -1.998047
vt -3.497070 -1.998047
vt -3.497070 -0.999023
vt -3.497070 -0.999023
vt -2.998047 -0.999023
vt -3.497070 -1.998047
vt -2.498047 -1.998047
vt -2.498047 -0.999023
vt -2.498047 -0.999023
vt -2.998047 -0.999023
vt -2.498047 -1.998047
vt -3.497070 -1.998047
vt -3.497070 -0.999023
vt -3.497070 -0.999023
vt -2.998047 -0.999023
vt -3.497070 -1.998047
vt -2.498047 -1.998047
vt -2.498047 -0.999023
vt -2.498047 -0.999023
vt -2.998047 -0.999023
vt -2.498047 -1.998047
vt -3.497070 -1.998047
vt -3.497070 -0.999023
vt -3.497070 -0.999023
vt -2.998047 -0.999023
vt -3.497070 -1.998047
vt -2.498047 -1.998047
vt -2.498047 -0.999023
vt -2.498047 -0.999023
vt -2.998047 -0.999023
vt -2.498047 -1.998047
vt -3.497070 -1.998047
vt -3.497070 -0.999023
vt -3.497070 -0.999023
vt -2.998047 -0.999023
vt -3.497070 -1.998047
vt -2.498047 -1.998047
vt -2.498047 -0.999023
vt -2.498047 -0.999023
vt -2.998047 -0.999023
vt -2.498047 -1.998047
vt -3.497070 -1.998047
vt -3.497070 -0.999023
vt -3.497070 -0.999023
vt -2.998047 -0.999023
vt -3.497070 -1.998047
vt -2.498047 -1.998047
vt -2.498047 -0.999023
vt -1.541992 -0.891602
vt -1.541992 0.000000
vt -0.458984 -0.891602
vt -0.458008 0.000000
vt 3.995117 -0.499023
vt 3.745117 -0.499023
vt 3.995117 -0.999023
vt 3.495117 -0.999023
vt -0.500977 -0.499023
vt -0.500977 -0.999023
vt -0.250977 -0.499023
vt -0.000977 -0.999023
vt 0.998047 -0.999023
vt 1.497070 -0.999023
vt 0.998047 -1.998047
vt 1.997070 -1.998047
vt 3.995117 -0.999023
vt 3.995117 -1.998047
vt 3.495117 -0.999023
vt 2.996094 -1.998047
vt -1.404297 -0.958008
vt -1.400391 -0.170898
vt -0.575195 -0.958008
vt -1.424805 0.037109
vt -1.000000 0.000000
vt -1.000000 -0.999023
vt -0.000977 0.000000
vt -0.000977 -0.999023
vt -1.541992 -0.891602
vt -0.458984 -0.891602
vt -1.541992 0.000000
vt -0.458008 0.000000
vt 3.995117 -0.499023
vt 3.995117 -0.999023
vt 3.745117 -0.499023
vt 3.495117 -0.999023
vt 0.998047 -0.999023
vt 0.998047 -1.998047
vt 1.497070 -0.999023
vt 1.997070 -1.998047
vt 3.995117 -0.999023
vt 3.495117 -0.999023
vt 3.995117 -1.998047
vt 2.996094 -1.998047
vt -1.404297 -0.958008
vt -0.575195 -0.958008
vt -1.400391 -0.170898
vt -1.424805 0.037109
vt -1.000000 0.000000
vt -0.000977 0.000000
vt -1.000000 -0.999023
vt -0.000977 -0.999023
vt 2.996094 -0.999023
vt 2.746094 -0.499023
vt 2.496094 -0.999023
vt 1.997070 -0.999023
vt 1.747070 -0.499023
vt 1.747070 -0.999023
vt 0.998047 -0.999023
vt 0.748047 -0.499023
vt 0.498047 -0.999023
vt -1.000000 0.000000
vt -0.500977 0.000000
vt -1.000000 -0.999023
vt -0.500977 0.000000
vt -1.000000 0.000000
vt -1.000000 -0.999023
vt -0.500977 0.000000
vt -1.000000 0.000000
vt -1.000000 -0.999023
vt -0.500977 0.000000
vt -1.000000 0.000000
vt -1.000000 -0.999023
vt 2.496094 -0.999023
vt 2.746094 -0.499023
vt 2.996094 -0.999023
vt 1.747070 -0.999023
vt 1.747070 -0.499023
vt 1.997070 -0.999023
vt 0.498047 -0.999023
vt 0.748047 -0.499023
vt 0.998047 -0.999023
vt -0.500977 -0.999023
vt -0.250977 -0.499023
vt -0.000977 -0.999023
vt -0.000977 0.000000
vt -0.000977 -0.999023
vt -0.500977 0.000000
vt -0.000977 0.000000
vt -0.000977 -0.999023
vt -0.500977 0.000000
vt -1.000000 -0.999023
vt -1.000000 0.000000
vt -0.500977 0.000000
vt -0.000977 0.000000
vt -0.000977 -0.999023
vt -0.500977 0.000000
vn -0.1890 0.0116 0.9819
vn -0.1862 0.0143 0.9824
vn -0.2010 0.0115 0.9795
vn -0.2009 0.0118 0.9795
vn -0.1942 0.0063 0.9809
vn -0.1987 0.0520 0.9787
vn -0.2011 0.0109 0.9795
vn -0.2189 -0.0086 0.9757
vn -0.2230 -0.0168 0.9747
vn -0.2411 -0.0021 0.9705
vn -0.2444 -0.0086 0.9696
vn -0.2513 -0.0239 0.9676
vn -0.1425 -0.0088 0.9898
vn -0.1339 0.0010 0.9910
vn -0.1455 -0.0151 0.9892
vn -0.1672 -0.0203 0.9857
vn -0.1614 -0.0022 0.9869
vn -0.1671 -0.0027 0.9859
vn -0.1610 0.0038 0.9870
vn -0.1539 0.0344 0.9875
vn -0.1793 -0.0257 0.9835
vn -0.1750 -0.0080 0.9845
vn -0.1818 -0.0206 0.9831
vn -0.1931 -0.0065 0.9812
vn -0.1958 -0.0153 0.9805
vn -0.2003 -0.0252 0.9794
vn -0.0864 0.0087 0.9962
vn -0.0737 0.0221 0.9970
vn -0.0905 0.0006 0.9959
vn -0.1193 -0.0066 0.9928
vn -0.1117 0.0158 0.9936
vn -0.1118 0.0097 0.9937
vn -0.1064 0.0027 0.9943
vn -0.1150 0.0233 0.9931
vn -0.1122 0.0074 0.9937
vn -0.1166 0.0014 0.9932
vn -0.1059 0.0144 0.9943
vn -0.1185 -0.0023 0.9930
vn -0.1363 0.0136 0.9906
vn -0.1373 0.0043 0.9905
vn -0.1440 -0.0089 0.9895
vn -0.0469 0.0091 0.9989
vn -0.0415 0.0166 0.9990
vn -0.0491 0.0048 0.9988
vn -0.0638 0.0020 0.9980
vn -0.0587 0.0134 0.9982
vn -0.0637 0.0030 0.9980
vn -0.0527 0.0237 0.9983
vn -0.0614 0.0343 0.9975
vn -0.0603 0.0172 0.9980
vn -0.0650 0.0099 0.9978
vn -0.0562 0.0228 0.9982
vn -0.0667 0.0081 0.9977
vn -0.0821 0.0223 0.9964
vn -0.0832 0.0141 0.9964
vn -0.0888 0.0026 0.9960
vn 1.0000 0.0000 0.0008
vn 1.0000 -0.0004 0.0011
vn 1.0000 0.0010 0.0005
vn 0.9889 0.1387 0.0541
vn 1.0000 0.0004 0.0008
vn 1.0000 -0.0005 0.0014
vn 0.9891 0.1096 -0.0981
vn 0.9963 -0.0766 0.0389
vn 0.9667 0.0984 0.2363
vn 0.9693 0.0000 0.2459
vn 0.9378 -0.1417 0.3171
vn -0.2444 -0.0087 -0.9696
vn -0.2414 0.0036 -0.9704
vn -0.2513 -0.0239 -0.9676
vn -0.2230 -0.0169 -0.9747
vn -0.2113 0.0028 -0.9774
vn -0.2297 -0.0303 -0.9728
vn -0.1960 0.0469 -0.9795
vn -0.1984 0.0086 -0.9801
vn -0.2012 0.0086 -0.9795
vn -0.2013 0.0144 -0.9794
vn -0.2009 0.0150 -0.9795
vn -0.2044 0.0044 -0.9789
vn -0.1829 0.0179 -0.9830
vn -0.1890 0.0116 -0.9819
vn -0.1909 0.0077 -0.9816
vn -0.1958 -0.0153 -0.9805
vn -0.1925 -0.0100 -0.9813
vn -0.1790 -0.0153 -0.9837
vn -0.1886 -0.0360 -0.9814
vn -0.1559 0.0372 -0.9871
vn -0.1513 0.0106 -0.9884
vn -0.1622 0.0003 -0.9868
vn -0.1672 -0.0166 -0.9858
vn -0.1599 -0.0031 -0.9871
vn -0.1672 -0.0203 -0.9857
vn -0.1347 0.0027 -0.9909
vn -0.1425 -0.0088 -0.9898
vn -0.1454 -0.0152 -0.9893
vn -0.1373 0.0044 -0.9905
vn -0.1363 0.0136 -0.9906
vn -0.1440 -0.0089 -0.9895
vn -0.1184 -0.0022 -0.9930
vn -0.1058 0.0145 -0.9943
vn -0.1166 0.0015 -0.9932
vn -0.1150 0.0233 -0.9931
vn -0.1064 0.0027 -0.9943
vn -0.1121 0.0070 -0.9937
vn -0.1118 0.0097 -0.9937
vn -0.1117 0.0158 -0.9936
vn -0.1193 -0.0066 -0.9928
vn -0.0737 0.0221 -0.9970
vn -0.0865 0.0087 -0.9962
vn -0.0906 0.0006 -0.9959
vn -0.0832 0.0141 -0.9964
vn -0.0820 0.0223 -0.9964
vn -0.0888 0.0026 -0.9960
vn -0.0666 0.0081 -0.9977
vn -0.0563 0.0229 -0.9982
vn -0.0651 0.0098 -0.9978
vn -0.0614 0.0343 -0.9975
vn -0.0526 0.0237 -0.9983
vn -0.0604 0.0172 -0.9980
vn -0.0637 0.0029 -0.9980
vn -0.0586 0.0135 -0.9982
vn -0.0638 0.0019 -0.9980
vn -0.0415 0.0166 -0.9990
vn -0.0470 0.0090 -0.9989
vn -0.0492 0.0048 -0.9988
vn 0.9693 -0.0000 -0.2459
vn 0.9667 0.0984 -0.2363
vn 0.9378 -0.1417 -0.3171
vn 0.9963 -0.0766 -0.0389
vn 0.9891 0.1096 0.0980
vn 1.0000 -0.0005 -0.0014
vn 0.9889 0.1387 -0.0541
vn 1.0000 0.0004 -0.0008
vn 1.0000 -0.0003 -0.0010
vn 1.0000 -0.0000 -0.0008
vn 0.4752 0.0000 -0.8799
vn 0.4648 0.2078 -0.8607
vn 0.3165 -0.3030 -0.8989
vn 0.7921 -0.1570 -0.5898
vn 0.9282 0.2140 -0.3043
vn 0.8553 -0.2588 -0.4489
vn 0.7721 0.3024 -0.5589
vn 0.8890 0.1924 -0.4155
vn 0.7205 -0.1834 -0.6688
vn 0.9706 -0.2260 0.0831
vn 0.9550 0.2955 -0.0252
vn 0.9997 0.0001 -0.0264
vn -0.0565 -0.0131 -0.9983
vn -0.0563 -0.0129 -0.9983
vn -0.0570 -0.0131 -0.9983
vn -0.0589 -0.0172 -0.9981
vn -0.0513 -0.0058 -0.9987
vn -0.0544 -0.0120 -0.9984
vn -0.0529 -0.0098 -0.9986
vn -0.0519 -0.0031 -0.9986
vn -0.0539 -0.0062 -0.9985
vn -0.0531 -0.0062 -0.9986
vn 0.8525 0.0001 0.5227
vn 0.6676 -0.2390 0.7051
vn 0.8890 0.1924 0.4155
vn 0.9550 0.2955 0.0253
vn 0.9874 -0.1512 -0.0466
vn 0.9813 0.0937 -0.1684
vn 0.9815 -0.0731 0.1771
vn 0.9656 -0.2589 0.0253
vn 0.9738 0.1940 0.1190
vn 0.7758 0.2717 -0.5696
vn 0.8490 -0.2589 -0.4607
vn 0.8789 -0.0001 -0.4770
vn 0.2465 0.0136 -0.9690
vn 0.2459 0.0176 -0.9691
vn 0.2465 0.0127 -0.9691
vn 0.2492 0.0185 -0.9683
vn 0.2382 0.0017 -0.9712
vn 0.2408 0.0063 -0.9706
vn 0.2386 0.0063 -0.9711
vn 0.2026 -0.0082 -0.9792
vn 0.2028 -0.0115 -0.9792
vn 0.2029 -0.0082 -0.9792
vn 0.2031 -0.0063 -0.9791
vn 0.2028 -0.0047 -0.9792
vn 0.1937 -0.0257 -0.9807
vn 0.2327 0.0364 -0.9719
vn 0.2214 0.0135 -0.9751
vn 0.2287 0.0135 -0.9734
vn 0.1977 0.0196 -0.9801
vn 0.2056 0.0380 -0.9779
vn 0.1937 0.0196 -0.9809
vn 0.1883 -0.0186 -0.9819
vn 0.1977 -0.0013 -0.9803
vn 0.1986 0.0028 -0.9801
vn 0.1852 -0.0157 -0.9826
vn 0.1908 -0.0082 -0.9816
vn 0.1887 -0.0082 -0.9820
vn 0.1618 0.0084 -0.9868
vn 0.1662 0.0139 -0.9860
vn 0.1598 0.0084 -0.9871
vn 0.1574 -0.0091 -0.9875
vn 0.1620 0.0018 -0.9868
vn 0.1517 -0.0209 -0.9882
vn 0.1921 0.0429 -0.9804
vn 0.1811 0.0196 -0.9833
vn 0.1891 0.0197 -0.9818
vn 0.1379 -0.0032 -0.9904
vn 0.1351 -0.0094 -0.9908
vn 0.1391 -0.0032 -0.9903
vn 0.1411 0.0093 -0.9900
vn 0.1380 0.0039 -0.9904
vn 0.1366 0.0001 -0.9906
vn 0.1453 0.0135 -0.9893
vn 0.1423 0.0083 -0.9898
vn 0.1435 0.0084 -0.9896
vn 0.1153 -0.0017 -0.9933
vn 0.1161 -0.0002 -0.9932
vn 0.1144 -0.0053 -0.9934
vn 0.1152 -0.0038 -0.9933
vn 0.1155 -0.0031 -0.9933
vn 0.1155 -0.0035 -0.9933
vn 0.0902 0.0002 -0.9959
vn 0.0909 0.0017 -0.9959
vn 0.0897 0.0002 -0.9960
vn 0.0893 -0.0032 -0.9960
vn 0.0900 -0.0018 -0.9959
vn 0.0620 -0.0057 -0.9981
vn 0.0638 -0.0037 -0.9980
vn 0.0612 -0.0057 -0.9981
vn 0.0601 -0.0129 -0.9981
vn 0.0621 -0.0084 -0.9980
vn 0.0571 -0.0190 -0.9982
vn 0.0761 0.0111 -0.9970
vn 0.0709 0.0002 -0.9975
vn 0.0744 0.0001 -0.9972
vn 0.0596 0.0193 -0.9980
vn 0.0649 0.0316 -0.9974
vn 0.0570 0.0193 -0.9982
vn 0.0534 -0.0050 -0.9986
vn 0.0596 0.0052 -0.9982
vn 0.0633 0.0148 -0.9979
vn 0.0414 -0.0175 -0.9990
vn 0.0489 -0.0052 -0.9988
vn 0.0455 -0.0051 -0.9990
vn 0.0559 0.0118 -0.9984
vn 0.0545 0.0084 -0.9985
vn 0.0566 0.0118 -0.9983
vn 0.0576 0.0184 -0.9982
vn 0.0562 0.0156 -0.9983
vn 0.0545 0.0122 -0.9984
vn 0.0621 0.0236 -0.9978
vn 0.0608 0.0193 -0.9980
vn -0.0565 -0.0131 0.9983
vn -0.0589 -0.0172 0.9981
vn -0.0579 -0.0131 0.9982
vn -0.0516 -0.0065 0.9986
vn -0.0532 -0.0096 0.9985
vn -0.0543 -0.0120 0.9985
vn -0.0519 -0.0032 0.9986
vn -0.0531 -0.0062 0.9986
vn -0.0538 -0.0062 0.9985
vn -0.1705 -0.0004 -0.9854
vn -0.1166 0.0909 -0.9890
vn -0.1956 -0.0001 -0.9807
vn -0.2243 -0.2297 -0.9470
vn -0.1688 -0.1055 -0.9800
vn -0.2402 -0.2645 -0.9340
vn 0.0168 0.1670 -0.9858
vn -0.0492 0.0124 -0.9987
vn -0.0006 0.0121 -0.9999
vn 0.0679 -0.0067 0.9977
vn 0.0272 -0.1004 0.9946
vn 0.0317 -0.0066 0.9995
vn 0.1915 0.1533 0.9694
vn 0.1469 0.0580 0.9875
vn 0.1785 0.1269 0.9757
vn 0.1243 -0.0388 0.9915
vn 0.1556 0.0052 0.9878
vn 0.1727 0.0051 0.9850
vn -0.4519 -0.0036 -0.8921
vn -0.4372 0.0238 -0.8991
vn -0.4578 -0.0037 -0.8890
vn -0.4661 -0.0741 -0.8816
vn -0.4519 -0.0355 -0.8914
vn -0.4703 -0.0856 -0.8784
vn -0.4027 0.0500 -0.9140
vn -0.4211 0.0026 -0.9070
vn -0.4088 0.0025 -0.9126
vn 0.4279 0.0023 0.9038
vn 0.4118 -0.0352 0.9106
vn 0.4172 0.0024 0.9088
vn 0.4715 0.0681 0.8792
vn 0.4553 0.0305 0.8898
vn 0.4643 0.0521 0.8841
vn 0.4465 0.0031 0.8948
vn 0.4549 0.0155 0.8904
vn 0.4582 0.0156 0.8887
vn -0.7377 -0.0176 -0.6749
vn -0.7283 -0.0003 -0.6852
vn -0.7417 -0.0174 -0.6705
vn -0.7461 -0.0686 -0.6623
vn -0.7371 -0.0392 -0.6747
vn -0.7504 -0.0823 -0.6559
vn -0.6975 0.0342 -0.7158
vn -0.7119 -0.0089 -0.7022
vn -0.7004 -0.0086 -0.7137
vn 0.7225 0.0193 0.6911
vn 0.7129 -0.0090 0.7012
vn 0.7149 0.0192 0.6990
vn 0.7486 0.0673 0.6596
vn 0.7392 0.0389 0.6724
vn 0.7458 0.0591 0.6636
vn 0.7330 0.0117 0.6801
vn 0.7397 0.0236 0.6726
vn 0.7425 0.0235 0.6695
vn -0.9204 -0.0949 -0.3793
vn -0.9238 -0.1426 -0.3553
vn -0.9161 -0.0947 -0.3896
vn -0.9139 0.0042 -0.4058
vn -0.9238 -0.0389 -0.3809
vn -0.9262 -0.0642 -0.3716
vn -0.9011 0.0281 -0.4326
vn -0.9114 -0.0078 -0.4114
vn -0.9073 -0.0081 -0.4204
vn 0.9163 0.0140 0.4001
vn 0.9090 -0.0077 0.4168
vn 0.9139 0.0141 0.4057
vn 0.9253 0.0453 0.3765
vn 0.9247 0.0341 0.3791
vn 0.9130 -0.0136 0.4077
vn 0.9258 0.1420 0.3504
vn 0.9212 0.0931 0.3777
vn 0.9164 0.0929 0.3894
vn -0.9560 0.0064 -0.2933
vn -0.9610 -0.0072 -0.2766
vn -0.9539 0.0064 -0.2999
vn -0.9487 0.0710 -0.3082
vn -0.9561 0.0242 -0.2920
vn -0.9211 0.1698 -0.3502
vn -0.9643 -0.2435 -0.1044
vn -0.9796 -0.0956 -0.1768
vn -0.9865 -0.0953 -0.1335
vn -1.0000 0.0038 -0.0027
vn -1.0000 0.0028 -0.0023
vn -1.0000 0.0038 -0.0032
vn -1.0000 0.0055 -0.0032
vn -1.0000 0.0049 -0.0028
vn -1.0000 0.0033 -0.0020
vn -0.9999 0.0087 -0.0056
vn -1.0000 0.0067 -0.0045
vn -1.0000 0.0067 -0.0051
vn -1.0000 0.0048 -0.0024
vn -1.0000 0.0058 -0.0030
vn -1.0000 0.0048 -0.0021
vn -1.0000 0.0025 -0.0018
vn -1.0000 0.0035 -0.0023
vn -0.4769 0.0001 0.8789
vn -0.6365 0.0934 0.7656
vn -0.4770 -0.0001 0.8789
vn -0.3838 0.1942 0.9028
vn -0.4608 -0.2589 0.8489
vn -0.8810 0.2719 0.3871
vn -0.8525 0.0001 0.5227
vn -0.8235 -0.2587 0.5049
vn 0.5227 -0.0002 0.8525
vn 0.3447 0.0929 0.9341
vn 0.5229 0.0002 0.8524
vn 0.5902 0.1946 0.7834
vn 0.5051 -0.2588 0.8234
vn -0.1056 0.2721 0.9565
vn 0.0263 0.0002 0.9997
vn 0.0254 -0.2588 0.9656
vn 0.9997 -0.0002 -0.0263
vn 0.9497 0.2716 -0.1556
vn 0.9656 -0.2589 -0.0254
vn 0.8489 -0.2589 0.4607
vn 0.8138 0.1940 0.5479
vn 0.8789 -0.0002 0.4770
vn 0.9509 0.0931 0.2950
vn 0.8789 -0.0002 0.4769
vn -0.9997 0.0001 0.0264
vn -0.9813 0.0933 -0.1686
vn -0.9996 0.0002 0.0265
vn -0.9736 0.1947 0.1192
vn -0.9656 -0.2586 0.0256
vn -0.7758 0.2719 -0.5694
vn -0.8789 0.0001 -0.4769
vn -0.8490 -0.2588 -0.4606
vn 0.2483 0.0064 -0.9687
vn 0.2511 0.0117 -0.9679
vn 0.2470 0.0063 -0.9690
vn 0.2451 -0.0066 -0.9695
vn 0.2483 0.0001 -0.9687
vn 0.2459 -0.0049 -0.9693
vn 0.2527 0.0074 -0.9675
vn 0.2513 0.0031 -0.9679
vn 0.2526 0.0031 -0.9676
vn 1.0000 0.0000 0.0000
vn 1.0000 0.0003 0.0000
vn 1.0000 -0.0011 -0.0002
vn 1.0000 -0.0005 -0.0002
vn 1.0000 -0.0005 -0.0005
vn -1.0000 0.0000 0.0000
vn -1.0000 -0.0088 -0.0008
vn -1.0000 -0.0000 -0.0023
vn -0.9999 0.0152 0.0035
vn -1.0000 0.0084 0.0044
vn -1.0000 0.0016 0.0035
vn -0.9997 0.0256 -0.0008
vn -0.9999 0.0168 0.0000
vn -0.9999 0.0168 -0.0023
vn 1.0000 -0.0010 -0.0004
vn 1.0000 -0.0006 -0.0005
vn 1.0000 -0.0017 -0.0004
vn 1.0000 0.0009 0.0000
vn -0.9998 0.0219 0.0007
vn -0.9999 0.0168 0.0012
vn -1.0000 0.0085 -0.0019
vn -0.9999 0.0119 -0.0025
vn -0.9998 0.0182 -0.0019
vn -1.0000 -0.0026 0.0016
vn -1.0000 0.0048 0.0012
vn -1.0000 0.0048 0.0032
vn 0.2386 0.0017 0.9711
vn 0.2351 -0.0054 0.9720
vn 0.2364 0.0017 0.9717
vn 0.2470 0.0139 0.9689
vn 0.2443 0.0076 0.9697
vn 0.2443 0.0081 0.9697
vn 0.2444 0.0099 0.9696
vn 0.2443 0.0087 0.9697
vn 0.2190 0.0086 0.9757
vn 0.2303 0.0314 0.9726
vn 0.2262 0.0086 0.9740
vn 0.1914 -0.0303 0.9810
vn 0.2004 -0.0095 0.9797
vn 0.2008 -0.0109 0.9796
vn 0.2003 -0.0167 0.9796
vn 0.2003 -0.0132 0.9797
vn 0.1882 -0.0132 0.9820
vn 0.1824 -0.0212 0.9830
vn 0.1859 -0.0132 0.9825
vn 0.1966 -0.0015 0.9805
vn 0.1956 -0.0060 0.9807
vn 0.1861 -0.0232 0.9823
vn 0.2035 0.0334 0.9785
vn 0.1956 0.0150 0.9806
vn 0.1915 0.0150 0.9814
vn 0.1788 0.0150 0.9838
vn 0.1897 0.0380 0.9811
vn 0.1867 0.0150 0.9823
vn 0.1496 -0.0251 0.9884
vn 0.1599 -0.0026 0.9871
vn 0.1554 -0.0133 0.9878
vn 0.1639 0.0091 0.9864
vn 0.1596 0.0038 0.9872
vn 0.1578 0.0038 0.9875
vn 0.1401 0.0037 0.9901
vn 0.1432 0.0091 0.9896
vn 0.1415 0.0037 0.9899
vn 0.1340 -0.0050 0.9910
vn 0.1360 -0.0009 0.9907
vn 0.1386 0.0043 0.9903
vn 0.1327 -0.0142 0.9911
vn 0.1355 -0.0080 0.9908
vn 0.1368 -0.0080 0.9906
vn 0.1130 -0.0083 0.9936
vn 0.1128 -0.0085 0.9936
vn 0.1122 -0.0098 0.9936
vn 0.1136 -0.0054 0.9935
vn 0.1129 -0.0068 0.9936
vn 0.1126 -0.0068 0.9936
vn 0.0874 -0.0069 0.9961
vn 0.0871 -0.0072 0.9962
vn 0.0877 -0.0066 0.9961
vn 0.0870 -0.0080 0.9962
vn 0.0886 -0.0029 0.9961
vn 0.0879 -0.0045 0.9961
vn 0.0875 -0.0045 0.9962
vn 0.0685 -0.0045 0.9976
vn 0.0737 0.0064 0.9973
vn 0.0720 -0.0045 0.9974
vn 0.0547 -0.0238 0.9982
vn 0.0597 -0.0130 0.9981
vn 0.0578 -0.0175 0.9982
vn 0.0613 -0.0089 0.9981
vn 0.0595 -0.0108 0.9982
vn 0.0588 -0.0108 0.9982
vn 0.0464 -0.0103 0.9989
vn 0.0389 -0.0226 0.9990
vn 0.0429 -0.0101 0.9990
vn 0.0608 0.0099 0.9981
vn 0.0570 0.0003 0.9984
vn 0.0508 -0.0101 0.9987
vn 0.0624 0.0266 0.9977
vn 0.0571 0.0143 0.9983
vn 0.0545 0.0143 0.9984
vn 0.0595 0.0185 0.9981
vn 0.0583 0.0143 0.9982
vn 0.0522 0.0076 0.9986
vn 0.0539 0.0108 0.9985
vn 0.0551 0.0134 0.9984
vn 0.0522 0.0039 0.9986
vn 0.0536 0.0071 0.9985
vn 0.0541 0.0071 0.9985
vn 0.1556 0.0052 -0.9878
vn 0.1244 -0.0389 -0.9915
vn 0.1727 0.0050 -0.9850
vn 0.1785 0.1269 -0.9757
vn 0.1469 0.0580 -0.9874
vn 0.1914 0.1533 -0.9695
vn 0.0273 -0.1004 -0.9946
vn 0.0679 -0.0067 -0.9977
vn 0.0318 -0.0066 -0.9995
vn -0.0514 0.0078 0.9986
vn 0.0146 0.1624 0.9866
vn -0.0028 0.0075 1.0000
vn -0.2422 -0.2689 0.9322
vn -0.1712 -0.1102 0.9791
vn -0.2262 -0.2337 0.9456
vn -0.1193 0.0850 0.9892
vn -0.1729 -0.0057 0.9849
vn -0.1978 -0.0054 0.9802
vn 0.4548 0.0154 -0.8904
vn 0.4465 0.0030 -0.8948
vn 0.4582 0.0154 -0.8887
vn 0.4641 0.0519 -0.8843
vn 0.4552 0.0304 -0.8899
vn 0.4712 0.0678 -0.8794
vn 0.4119 -0.0351 -0.9106
vn 0.4278 0.0022 -0.9039
vn 0.4171 0.0023 -0.9089
vn -0.4232 -0.0023 0.9060
vn -0.4051 0.0447 0.9132
vn -0.4110 -0.0024 0.9116
vn -0.4718 -0.0896 0.8772
vn -0.4536 -0.0399 0.8903
vn -0.4679 -0.0788 0.8803
vn -0.4389 0.0198 0.8983
vn -0.4537 -0.0078 0.8911
vn -0.4596 -0.0079 0.8881
vn 0.7397 0.0236 -0.6726
vn 0.7331 0.0119 -0.6800
vn 0.7424 0.0235 -0.6695
vn 0.7457 0.0586 -0.6637
vn 0.7392 0.0387 -0.6724
vn 0.7486 0.0670 -0.6597
vn 0.7128 -0.0092 -0.7013
vn 0.7225 0.0191 -0.6911
vn 0.7148 0.0191 -0.6991
vn -0.7131 -0.0122 0.7010
vn -0.7149 0.0077 0.6992
vn -0.7392 -0.0493 0.6717
vn -0.7465 -0.0717 0.6615
vn -0.7296 -0.0287 0.6833
vn -0.7377 -0.0176 0.6749
vn -0.7420 -0.0174 0.6702
vn 0.9212 0.0930 -0.3777
vn 0.9258 0.1420 -0.3504
vn 0.9164 0.0929 -0.3894
vn 0.9130 -0.0136 -0.4077
vn 0.9247 0.0341 -0.3791
vn 0.9253 0.0453 -0.3765
vn 0.9090 -0.0077 -0.4168
vn 0.9163 0.0140 -0.4001
vn 0.9139 0.0142 -0.4057
vn -0.9114 -0.0078 0.4114
vn -0.9044 0.0159 0.4263
vn -0.9088 -0.0080 0.4171
vn -0.9215 -0.0441 0.3859
vn -0.9200 -0.0289 0.3909
vn -0.9111 0.0082 0.4120
vn -0.9219 -0.1149 0.3700
vn -0.9178 -0.0753 0.3898
vn -0.9142 -0.0747 0.3983
vn -0.9796 -0.0866 0.1812
vn -0.9664 -0.2319 0.1111
vn -0.9865 -0.0884 0.1379
vn -0.9209 0.1742 0.3486
vn -0.9559 0.0318 0.2921
vn -0.9467 0.0840 0.3109
vn -0.9616 -0.0138 0.2740
vn -0.9560 0.0065 0.2933
vn -0.9536 0.0065 0.3012
vn -1.0000 0.0068 0.0045
vn -0.9999 0.0088 0.0056
vn -1.0000 0.0068 0.0050
vn -1.0000 0.0033 0.0021
vn -1.0000 0.0050 0.0029
vn -1.0000 0.0058 0.0033
vn -1.0000 0.0029 0.0024
vn -1.0000 0.0039 0.0028
vn -1.0000 0.0039 0.0031
vn -1.0000 0.0039 0.0027
vn -1.0000 0.0045 0.0029
vn -1.0000 0.0029 0.0020
vn -1.0000 0.0033 0.0022
vn -1.0000 0.0025 0.0018
vn -1.0000 0.0053 0.0027
vn -1.0000 0.0045 0.0023
vn 0.8525 -0.0000 0.5227
vn 0.9321 0.2570 0.2552
vn 0.7923 -0.1567 0.5897
vn 0.3183 -0.3023 0.8985
vn 0.4723 0.1421 0.8699
vn 0.4743 -0.0045 0.8803
vn 0.5878 -0.0463 0.8077
vn 0.4763 0.0064 0.8793
vn 0.4750 0.0064 0.8800
vn -0.8525 0.0000 -0.5227
vn -0.7309 0.0934 -0.6761
vn -0.8525 0.0001 -0.5227
vn -0.8813 0.1945 -0.4308
vn -0.8235 -0.2587 -0.5049
vn -0.3400 0.2719 -0.9003
vn -0.4770 0.0001 -0.8789
vn -0.4608 -0.2588 -0.8490
vn 0.0264 -0.0000 -0.9997
vn 0.2200 0.0934 -0.9710
vn -0.0675 0.1943 -0.9786
vn 0.0255 -0.2589 -0.9656
vn 0.6097 0.2719 -0.7445
vn 0.5228 0.0000 -0.8525
vn 0.5050 -0.2588 -0.8234
vn -0.8789 0.0001 0.4769
vn -0.9510 0.0934 0.2949
vn -0.8789 0.0002 0.4770
vn -0.8137 0.1946 0.5478
vn -0.8490 -0.2587 0.4608
vn -0.9496 0.2721 -0.1557
vn -0.9996 0.0002 -0.0265
vn -0.9656 -0.2586 -0.0256
vn 0.2532 0.0070 0.9674
vn 0.2571 0.0162 0.9662
vn 0.2558 0.0070 0.9667
vn 0.2422 -0.0092 0.9702
vn 0.2462 -0.0003 0.9692
vn 0.2448 -0.0038 0.9696
vn 0.2475 0.0034 0.9689
vn 0.2461 0.0018 0.9692
vn 0.2456 0.0018 0.9694
vn 1.0000 -0.0005 0.0002
vn 1.0000 -0.0011 0.0002
vn -0.9999 0.0173 0.0000
vn -0.9997 0.0263 0.0009
vn -0.9998 0.0173 0.0024
vn -1.0000 0.0016 -0.0036
vn -1.0000 0.0086 -0.0046
vn -0.9999 0.0156 -0.0036
vn -1.0000 -0.0090 0.0008
vn -1.0000 -0.0000 0.0023
vn -1.0000 0.0045 -0.0012
vn -1.0000 -0.0033 -0.0017
vn -1.0000 0.0045 -0.0033
vn -0.9998 0.0186 0.0021
vn -0.9999 0.0121 0.0026
vn -1.0000 0.0083 0.0021
vn -0.9997 0.0227 -0.0008
vn -0.9998 0.0173 -0.0014
vn 1.0000 -0.0017 0.0004
vn 1.0000 -0.0005 0.0006
vn 1.0000 -0.0010 0.0004
vn 1.0000 -0.0012 0.0002
vn -0.9158 -0.0084 -0.4016
vn -0.9175 -0.0083 -0.3977
vn -0.9157 -0.0178 -0.4015
vn -0.9115 0.0036 -0.4113
vn -0.9131 0.0130 -0.4074
vn -0.9132 0.0036 -0.4075
vn -0.2323 0.0111 0.9726
vn -0.2267 0.0224 0.9737
vn -0.2313 0.0084 0.9728
vn -0.2486 -0.0090 0.9686
vn -0.2434 0.0043 0.9699
vn -0.2436 0.0019 0.9699
vn -0.0540 -0.0131 0.9985
vn -0.0612 -0.0225 0.9979
vn -0.0574 -0.0021 0.9984
vn -0.0519 0.0081 0.9986
vn -0.0561 -0.0007 0.9984
vn 0.9687 0.0938 0.2300
vn 0.9688 0.1030 0.2253
vn 0.9693 0.0938 0.2274
vn 0.9672 0.0777 0.2418
vn 0.9675 0.0865 0.2376
vn 0.9676 0.0854 0.2378
vn 1.0000 -0.0010 -0.0003
vn 1.0000 -0.0028 0.0006
vn 1.0000 0.0015 -0.0005
vn 1.0000 0.0031 -0.0014
vn -0.8525 0.0000 0.5227
vn -0.2355 0.0205 0.9716
vn -0.2365 0.0233 0.9714
vn -0.2318 0.0284 0.9724
vn -0.2366 0.0109 0.9715
vn -0.2407 0.0047 0.9706
vn -0.2377 0.0108 0.9713
vn -0.9138 0.0000 0.4061
vn -0.9138 -0.0022 0.4061
vn -0.9142 -0.0000 0.4053
vn -0.9132 0.0049 0.4075
vn -0.9128 0.0028 0.4084
vn -0.9132 0.0028 0.4075
vn -0.2323 0.0112 -0.9726
vn -0.2313 0.0085 -0.9728
vn -0.2267 0.0224 -0.9737
vn -0.2434 0.0043 -0.9699
vn -0.2486 -0.0089 -0.9686
vn -0.2436 0.0019 -0.9699
vn 0.9687 0.0938 -0.2300
vn 0.9693 0.0938 -0.2274
vn 0.9688 0.1030 -0.2253
vn 0.9675 0.0866 -0.2376
vn 0.9672 0.0777 -0.2418
vn 0.9676 0.0854 -0.2378
vn 1.0000 -0.0010 0.0003
vn 1.0000 -0.0028 -0.0006
vn 1.0000 0.0033 0.0014
vn 1.0000 0.0011 0.0002
vn 1.0000 0.0015 0.0005
vn -0.8525 -0.0001 -0.5227
vn -0.2355 0.0206 -0.9717
vn -0.2318 0.0284 -0.9724
vn -0.2365 0.0233 -0.9714
vn -0.2406 0.0047 -0.9706
vn -0.2366 0.0109 -0.9716
vn -0.2376 0.0109 -0.9713
vn -0.1942 0.0060 0.9809
vn -0.1380 -0.0037 0.9904
vn -0.0833 0.0120 0.9964
vn 0.4752 0.0036 -0.8799
vn 0.0264 -0.0001 0.9997
vn -0.8789 0.0002 -0.4770
vn -0.1942 0.0060 -0.9809
vn -0.1380 -0.0037 -0.9904
vn -0.0833 0.0120 -0.9964
vn -0.0561 -0.0007 -0.9984
vn 0.5227 -0.0001 -0.8525
vn 0.8789 -0.0002 -0.4769
vn -0.9997 0.0000 -0.0264
usemtl Tex_0043_0.dds
s off
f 1/1/1 3/2/2 2/3/1
f 2/3/3 3/2/3 4/4/4
f 3/2/5 5/5/6 4/4/7
f 4/4/8 5/5/8 6/6/9
f 5/5/10 7/7/11 6/6/12
f 8/8/13 10/9/14 9/10/15
f 9/10/16 10/9/17 11/11/18
f 10/9/19 12/12/20 11/11/19
f 11/11/21 12/12/22 13/13/23
f 12/12/24 14/14/25 13/13/26
f 15/15/27 17/16/28 16/17/29
f 16/17/30 17/16/31 18/18/32
f 17/16/33 19/19/34 18/18/35
f 18/18/36 19/19/37 20/20/38
f 19/19/39 21/21/40 20/20/41
f 22/22/42 24/23/43 23/24/44
f 23/24/45 24/23/46 25/25/47
f 24/23/48 26/26/49 25/25/50
f 25/25/51 26/26/52 27/27/53
f 26/26/54 28/28/55 27/27/56
f 29/29/57 31/30/57 30/31/57
f 30/31/57 31/30/57 32/32/58
f 31/30/59 33/33/60 32/32/61
f 32/32/62 33/33/63 34/34/64
f 33/33/65 35/35/66 34/34/67
f 36/36/68 38/37/69 37/38/70
f 37/38/71 38/37/72 39/39/73
f 38/37/74 40/40/75 39/39/76
f 39/39/77 40/40/78 41/41/79
f 40/40/80 42/42/81 41/41/82
f 43/43/83 45/44/84 44/45/83
f 44/45/85 45/44/85 46/46/86
f 45/44/87 47/47/88 46/46/89
f 46/46/90 47/47/91 48/48/92
f 47/47/93 49/49/94 48/48/95
f 50/50/96 52/51/97 51/52/98
f 51/52/99 52/51/100 53/53/101
f 52/51/102 54/54/103 53/53/104
f 53/53/105 54/54/106 55/55/107
f 54/54/108 56/56/109 55/55/110
f 57/57/111 59/58/112 58/59/113
f 58/59/114 59/58/115 60/60/116
f 59/58/117 61/61/118 60/60/119
f 60/60/120 61/61/121 62/62/122
f 61/61/123 63/63/124 62/62/125
f 64/64/126 66/65/127 65/66/128
f 65/66/129 66/65/130 67/67/131
f 66/65/132 68/68/133 67/67/133
f 67/67/134 68/68/135 69/69/135
f 68/68/135 70/70/135 69/69/135
f 71/71/136 73/72/137 72/73/138
f 72/73/139 73/72/140 74/74/141
f 73/72/142 75/75/143 74/74/144
f 74/74/145 75/75/146 76/76/147
f 77/77/148 79/78/149 78/79/148
f 78/79/148 79/78/150 80/80/151
f 79/78/152 81/81/153 80/80/154
f 80/80/155 81/81/156 82/82/157
f 83/83/158 85/84/159 84/85/160
f 84/85/161 85/84/162 86/86/163
f 85/84/164 87/87/165 86/86/166
f 86/86/167 87/87/168 88/88/169
f 89/89/170 91/90/171 90/91/170
f 90/91/172 91/90/172 92/92/173
f 91/90/174 93/93/175 92/92/176
f 94/94/177 96/95/178 95/96/179
f 95/96/180 96/95/181 97/97/182
f 96/95/183 98/98/184 97/97/185
f 99/99/186 101/100/187 100/101/188
f 100/101/189 101/100/190 102/102/191
f 101/100/192 103/103/193 102/102/194
f 104/104/195 106/105/196 105/106/197
f 105/106/198 106/105/199 107/107/200
f 106/105/201 108/108/202 107/107/203
f 109/109/204 111/110/205 110/111/206
f 110/111/207 111/110/208 112/112/209
f 111/110/210 113/113/211 112/112/212
f 114/114/213 116/115/214 115/116/213
f 115/116/215 116/115/216 117/117/216
f 116/115/217 118/118/218 117/117/218
f 119/119/219 121/120/220 120/121/221
f 120/121/222 121/120/223 122/122/223
f 121/120/223 123/123/223 122/122/223
f 124/124/224 126/125/225 125/126/226
f 125/126/227 126/125/228 127/127/229
f 126/125/230 128/128/231 127/127/232
f 129/129/233 131/130/234 130/131/235
f 130/131/236 131/130/237 132/132/238
f 131/130/239 133/133/240 132/132/241
f 134/134/242 136/135/243 135/136/244
f 135/136/245 136/135/246 137/137/247
f 136/135/248 138/138/233 137/137/249
f 139/139/250 141/140/251 140/141/252
f 140/141/253 141/140/254 142/142/255
f 141/140/256 143/143/257 142/142/258
f 144/144/259 146/145/260 145/146/261
f 145/146/262 146/145/263 147/147/264
f 146/145/265 148/148/266 147/147/267
f 149/149/268 151/150/269 150/151/270
f 150/151/271 151/150/272 152/152/273
f 151/150/274 153/153/275 152/152/276
f 154/154/277 156/155/278 155/156/279
f 155/156/280 156/155/281 157/157/282
f 156/155/283 158/158/284 157/157/285
f 159/159/286 161/160/287 160/161/288
f 160/161/289 161/160/290 162/162/291
f 161/160/292 163/163/293 162/162/294
f 164/164/295 166/165/296 165/166/297
f 165/166/298 166/165/299 167/167/300
f 166/165/301 168/168/302 167/167/303
f 169/169/304 171/170/305 170/171/306
f 170/171/307 171/170/308 172/172/309
f 171/170/310 173/173/311 172/172/312
f 174/174/313 176/175/314 175/176/315
f 175/176/316 176/175/317 177/177/318
f 176/175/319 178/178/320 177/177/321
f 179/179/322 181/180/323 180/181/324
f 180/181/325 181/180/326 182/182/327
f 181/180/328 183/183/329 182/182/330
f 184/184/331 186/185/332 185/186/333
f 185/186/334 186/185/335 187/187/336
f 186/185/337 188/188/338 187/187/339
f 189/189/340 191/190/341 190/191/342
f 190/191/343 191/190/344 192/192/345
f 191/190/346 193/193/347 192/192/348
f 194/194/349 196/195/350 195/196/351
f 195/196/352 196/195/353 197/197/353
f 196/195/340 198/198/340 197/197/340
f 199/199/354 201/200/355 200/201/354
f 200/201/356 201/200/357 202/202/358
f 201/200/359 203/203/360 202/202/361
f 204/204/362 206/205/363 205/206/362
f 205/206/364 206/205/365 207/207/366
f 206/205/367 208/208/368 207/207/369
f 209/209/370 211/210/371 210/211/372
f 210/211/373 211/210/374 212/212/375
f 211/210/376 213/213/377 212/212/377
f 214/214/378 216/215/379 215/216/378
f 215/216/380 216/215/381 217/217/382
f 216/215/383 218/218/384 217/217/385
f 219/219/386 221/220/387 220/221/388
f 220/221/389 221/220/390 222/222/391
f 221/220/392 223/223/393 222/222/394
f 224/224/395 226/225/395 225/226/395
f 225/226/395 226/225/395 227/227/396
f 226/225/397 228/228/398 227/227/399
f 229/229/400 231/230/400 230/231/400
f 230/231/400 231/230/400 232/232/400
f 231/230/400 233/233/400 232/232/400
f 234/234/395 236/235/395 235/236/395
f 235/236/395 236/235/395 237/237/395
f 236/235/395 238/238/395 237/237/395
f 239/239/400 241/240/400 240/241/400
f 240/241/400 241/240/400 242/242/400
f 241/240/400 243/243/400 242/242/400
f 244/244/395 246/245/395 245/246/395
f 245/246/395 246/245/395 247/247/395
f 246/245/395 248/248/395 247/247/395
f 249/249/400 251/250/400 250/251/400
f 250/251/400 251/250/400 252/252/400
f 251/250/400 253/253/400 252/252/400
f 254/254/395 256/255/395 255/256/395
f 255/256/395 256/255/395 257/257/395
f 256/255/395 258/258/395 257/257/395
f 259/259/400 261/260/400 260/261/400
f 260/261/400 261/260/400 262/262/400
f 261/260/400 263/263/400 262/262/400
f 264/264/395 266/265/395 265/266/395
f 265/266/395 266/265/395 267/267/395
f 266/265/395 268/268/395 267/267/395
f 269/269/400 271/270/400 270/271/400
f 270/271/400 271/270/400 272/272/400
f 271/270/400 273/273/400 272/272/400
f 274/274/395 276/275/395 275/276/395
f 275/276/395 276/275/395 277/277/395
f 276/275/395 278/278/395 277/277/395
f 279/279/400 281/280/400 280/281/400
f 280/281/400 281/280/400 282/282/400
f 281/280/400 283/283/400 282/282/400
f 284/284/395 286/285/395 285/286/395
f 285/286/395 286/285/395 287/287/395
f 286/285/395 288/288/395 287/287/395
f 289/289/400 291/290/400 290/291/400
f 290/291/400 291/290/400 292/292/400
f 291/290/400 293/293/400 292/292/400
f 294/294/395 296/295/395 295/296/395
f 295/296/395 296/295/395 297/297/395
f 296/295/395 298/298/395 297/297/395
f 299/299/400 301/300/400 300/301/400
f 300/301/400 301/300/400 302/302/400
f 301/300/400 303/303/400 302/302/400
f 304/304/395 306/305/395 305/306/395
f 305/306/395 306/305/395 307/307/395
f 306/305/395 308/308/395 307/307/395
f 309/309/400 311/310/400 310/311/400
f 310/311/400 311/310/400 312/312/400
f 311/310/400 313/313/400 312/312/400
f 314/314/395 316/315/395 315/316/395
f 315/316/395 316/315/395 317/317/395
f 316/315/395 318/318/395 317/317/395
f 319/319/400 321/320/401 320/321/402
f 320/321/403 321/320/404 322/322/405
f 321/320/406 323/323/407 322/322/408
f 324/324/409 326/325/409 325/326/409
f 325/326/409 326/325/410 327/327/411
f 326/325/412 328/328/395 327/327/395
f 329/329/407 331/330/413 330/331/414
f 330/331/415 331/330/416 332/332/417
f 331/330/418 333/333/419 332/332/420
f 334/334/421 336/335/422 335/336/423
f 335/336/424 336/335/425 337/337/426
f 336/335/427 338/338/428 337/337/428
f 339/339/429 341/340/430 340/341/431
f 340/341/432 341/340/433 342/342/434
f 341/340/435 343/343/436 342/342/436
f 344/344/437 346/345/438 345/346/439
f 345/346/440 346/345/441 347/347/442
f 346/345/443 348/348/444 347/347/445
f 349/349/446 351/350/447 350/351/448
f 350/351/449 351/350/450 352/352/451
f 351/350/452 353/353/453 352/352/454
f 354/354/455 356/355/456 355/356/457
f 355/356/458 356/355/459 357/357/460
f 356/355/461 358/358/462 357/357/463
f 359/359/464 361/360/464 360/361/464
f 360/361/465 361/360/465 362/362/466
f 361/360/467 363/363/468 362/362/469
f 364/364/470 366/365/471 365/366/470
f 365/366/472 366/365/472 367/367/473
f 366/365/474 368/368/475 367/367/476
f 369/369/477 371/370/478 370/371/479
f 370/371/480 371/370/481 372/372/482
f 371/370/483 373/373/484 372/372/485
f 374/374/486 376/375/487 375/376/488
f 375/376/489 376/375/490 377/377/491
f 376/375/492 378/378/493 377/377/494
f 379/379/493 381/380/495 380/381/496
f 380/381/497 381/380/498 382/382/499
f 381/380/500 383/383/501 382/382/502
f 384/384/503 386/385/504 385/386/505
f 385/386/506 386/385/507 387/387/508
f 386/385/509 388/388/510 387/387/511
f 389/389/512 391/390/513 390/391/514
f 390/391/515 391/390/516 392/392/517
f 391/390/518 393/393/519 392/392/520
f 394/394/521 396/395/522 395/396/523
f 395/396/524 396/395/525 397/397/526
f 396/395/527 398/398/528 397/397/529
f 399/399/530 401/400/531 400/401/532
f 400/401/533 401/400/534 402/402/535
f 401/400/536 403/403/537 402/402/538
f 404/404/539 406/405/540 405/406/541
f 405/406/542 406/405/543 407/407/544
f 406/405/545 408/408/546 407/407/547
f 409/409/548 411/410/549 410/411/548
f 410/411/550 411/410/550 412/412/551
f 411/410/552 413/413/553 412/412/554
f 414/414/555 416/415/556 415/416/557
f 415/416/558 416/415/559 417/417/560
f 416/415/561 418/418/562 417/417/563
f 419/419/564 421/420/565 420/421/566
f 420/421/567 421/420/568 422/422/569
f 421/420/570 423/423/571 422/422/572
f 424/424/573 426/425/574 425/426/575
f 425/426/576 426/425/577 427/427/578
f 426/425/579 428/428/580 427/427/581
f 429/429/582 431/430/583 430/431/584
f 430/431/585 431/430/586 432/432/587
f 431/430/588 433/433/589 432/432/590
f 434/434/591 436/435/592 435/436/591
f 435/436/593 436/435/594 437/437/595
f 436/435/596 438/438/597 437/437/597
f 439/439/598 441/440/599 440/441/600
f 440/441/601 441/440/602 442/442/603
f 441/440/604 443/443/605 442/442/606
f 444/444/607 446/445/608 445/446/607
f 445/446/609 446/445/610 447/447/611
f 446/445/612 448/448/613 447/447/614
f 449/449/615 451/450/616 450/451/615
f 450/451/615 451/450/617 452/452/618
f 451/450/619 453/453/620 452/452/621
f 454/454/622 456/455/623 455/456/622
f 455/456/624 456/455/625 457/457/626
f 456/455/627 458/458/628 457/457/629
f 459/459/630 461/460/631 460/461/632
f 460/461/633 461/460/634 462/462/635
f 461/460/636 463/463/637 462/462/638
f 464/464/400 466/465/400 465/466/400
f 465/466/400 466/465/400 467/467/400
f 466/465/400 468/468/400 467/467/400
f 469/469/639 471/470/640 470/471/639
f 470/471/395 471/470/395 472/472/395
f 471/470/395 473/473/395 472/472/395
f 474/474/400 476/475/400 475/476/400
f 475/476/400 476/475/400 477/477/400
f 476/475/400 478/478/400 477/477/400
f 479/479/395 481/480/395 480/481/395
f 480/481/395 481/480/395 482/482/395
f 481/480/395 483/483/395 482/482/395
f 484/484/400 486/485/400 485/486/400
f 485/486/400 486/485/400 487/487/400
f 486/485/400 488/488/400 487/487/400
f 489/489/395 491/490/395 490/491/395
f 490/491/395 491/490/395 492/492/395
f 491/490/395 493/493/395 492/492/395
f 494/494/400 496/495/400 495/496/400
f 495/496/400 496/495/400 497/497/400
f 496/495/400 498/498/400 497/497/400
f 499/499/395 501/500/395 500/501/395
f 500/501/395 501/500/395 502/502/395
f 501/500/395 503/503/395 502/502/395
f 504/504/400 506/505/400 505/506/400
f 505/506/400 506/505/400 507/507/400
f 506/505/400 508/508/400 507/507/400
f 509/509/395 511/510/395 510/511/395
f 510/511/395 511/510/395 512/512/395
f 511/510/395 513/513/395 512/512/395
f 514/514/400 516/515/400 515/516/400
f 515/516/400 516/515/400 517/517/400
f 516/515/400 518/518/400 517/517/400
f 519/519/395 521/520/395 520/521/395
f 520/521/395 521/520/395 522/522/395
f 521/520/395 523/523/395 522/522/395
f 524/524/400 526/525/400 525/526/400
f 525/526/400 526/525/400 527/527/400
f 526/525/400 528/528/400 527/527/400
f 529/529/395 531/530/395 530/531/395
f 530/531/395 531/530/395 532/532/395
f 531/530/395 533/533/395 532/532/395
f 534/534/400 536/535/400 535/536/400
f 535/536/400 536/535/400 537/537/400
f 536/535/400 538/538/400 537/537/400
f 539/539/395 541/540/395 540/541/395
f 540/541/395 541/540/395 542/542/395
f 541/540/395 543/543/395 542/542/395
f 544/544/400 546/545/400 545/546/400
f 545/546/400 546/545/400 547/547/400
f 546/545/400 548/548/400 547/547/400
f 549/549/395 551/550/395 550/551/395
f 550/551/395 551/550/395 552/552/395
f 551/550/395 553/553/395 552/552/395
f 554/554/641 556/555/642 555/556/643
f 555/556/644 556/555/645 557/557/646
f 556/555/647 558/558/400 557/557/648
f 559/559/395 561/560/395 560/561/395
f 560/561/395 561/560/395 562/562/395
f 561/560/395 563/563/395 562/562/395
f 564/564/649 566/565/650 565/566/651
f 565/566/652 566/565/653 567/567/654
f 566/565/655 568/568/641 567/567/656
f 569/569/395 571/570/412 570/571/395
f 570/571/657 571/570/658 572/572/659
f 571/570/660 573/573/659 572/572/659
f 574/574/661 576/575/662 575/576/663
f 575/576/664 576/575/665 577/577/666
f 578/578/667 580/579/668 579/580/669
f 579/580/670 580/579/671 581/581/672
f 582/582/250 584/583/673 583/584/674
f 583/584/675 584/583/676 585/585/677
f 586/586/678 588/587/679 587/588/680
f 587/588/681 588/587/682 589/589/683
f 590/590/684 592/591/684 591/592/685
f 591/592/686 592/591/687 593/593/686
f 594/594/688 596/595/688 595/596/688
f 595/596/688 596/595/688 597/597/688
f 598/598/689 600/599/690 599/600/691
f 599/600/692 600/599/693 601/601/694
f 602/602/695 604/603/696 603/604/697
f 603/604/698 604/603/699 605/605/700
f 606/606/701 608/607/702 607/608/703
f 607/608/704 608/607/705 609/609/706
f 610/610/707 612/611/708 611/612/709
f 611/612/710 612/611/711 613/613/712
f 614/614/713 616/615/714 615/616/713
f 615/616/715 616/615/716 617/617/717
f 618/618/607 620/619/607 619/620/607
f 619/620/718 620/619/718 621/621/718
f 622/622/719 624/623/720 623/624/721
f 623/624/722 624/623/723 625/625/724
f 626/626/725 628/627/725 627/628/725
f 629/629/726 631/630/726 630/631/726
f 632/632/727 634/633/727 633/634/727
f 635/635/728 637/636/728 636/637/728
f 638/638/360 640/639/360 639/640/360
f 641/641/729 643/642/729 642/643/729
f 644/644/730 646/645/730 645/646/730
f 647/647/731 649/648/731 648/649/731
f 650/650/732 652/651/732 651/652/732
f 653/653/733 655/654/733 654/655/733
f 656/656/734 658/657/734 657/658/734
f 659/659/613 661/660/613 660/661/613
f 662/662/735 664/663/735 663/664/735
f 665/665/736 667/666/736 666/667/736
f 668/668/737 670/669/737 669/670/737
