# Blender v3.6.3 OBJ File: 'untitled.blend'
# www.blender.org
mtllib Mesh_0142.mtl
o Mesh_0142_Mesh.012
v 16.529524 26.145847 -6.344398
v 16.611967 26.141497 -6.172188
v 18.345232 26.145847 -6.754349
v 18.344782 26.141497 -6.563393
v 20.158995 26.145847 -6.335884
v 20.075743 26.141497 -6.164055
v 21.611582 26.145847 -5.171906
v 21.462000 26.141497 -5.053215
v 22.415289 26.142788 -3.492935
v 22.229033 26.141495 -3.450890
v 22.410894 26.142790 -1.631538
v 22.224867 26.141497 -1.674454
v 21.599340 26.142790 0.043633
v 21.450342 26.141497 -0.075760
v 20.141306 26.142790 1.200783
v 20.058867 26.141497 1.028572
v 18.325598 26.142790 1.610733
v 18.326044 26.142786 1.419777
v 16.511835 26.142786 1.192268
v 16.611967 26.141497 -6.172188
v 16.529524 26.145847 -6.344398
v 15.220484 26.141497 -5.067863
v 15.071489 26.142790 -5.187248
v 14.445963 26.141495 -3.469154
v 14.259932 26.142788 -3.512085
v 14.441797 26.141495 -1.692719
v 14.255564 26.142790 -1.650673
v 15.208826 26.141497 -0.090401
v 15.059244 26.142790 0.028290
v 16.595083 26.142786 1.020439
v 17.880171 29.917988 -2.305786
v 18.330046 29.917988 -2.061249
v 17.867014 29.917988 -2.817657
v 18.766760 29.917988 -2.328575
v 18.753599 29.917988 -2.840454
v 15.549719 26.952063 1.291077
v 15.467936 26.952063 1.886909
v 14.971846 26.731482 1.521957
v 14.911036 26.952066 2.113983
v 14.435930 26.952066 1.745247
v 14.435930 26.952066 1.745247
v 14.517717 26.952066 1.149452
v 14.971846 26.731482 1.521957
v 15.074614 26.952063 0.922348
v 15.549719 26.952063 1.291077
v 17.501604 26.952063 2.117210
v 17.686441 26.952063 2.689491
v 17.081148 26.731482 2.575935
v 17.283224 26.952066 3.135727
v 16.695185 26.952066 3.009636
v 16.695185 26.952066 3.009636
v 16.510344 26.952066 2.437355
v 17.081148 26.731482 2.575935
v 16.913561 26.952063 1.991127
v 17.501604 26.952063 2.117210
v 19.618639 26.952063 2.014618
v 20.033476 26.952063 2.450050
v 19.438860 26.731482 2.610374
v 19.863806 26.952066 3.027039
v 19.279287 26.952066 3.168571
v 19.279287 26.952066 3.168571
v 18.864447 26.952066 2.733162
v 19.438860 26.731482 2.610374
v 19.034121 26.952063 2.156181
v 19.618639 26.952063 2.014618
v 21.481535 26.952063 1.003677
v 22.044191 26.952063 1.215996
v 21.578028 26.731482 1.618408
v 22.141676 26.952066 1.809464
v 21.676451 26.952066 2.190598
v 21.676451 26.952066 2.190598
v 21.113768 26.952066 1.978271
v 21.578028 26.731482 1.618408
v 21.016306 26.952063 1.384796
v 21.481535 26.952063 1.003677
v 22.721304 26.952063 -0.715431
v 23.320364 26.952063 -0.768280
v 23.074953 26.731482 -0.203438
v 23.665678 26.952066 -0.275871
v 23.411879 26.952066 0.269356
v 23.411879 26.952066 0.269356
v 22.812826 26.952066 0.322220
v 23.074953 26.731482 -0.203438
v 22.467512 26.952063 -0.170189
v 22.721304 26.952063 -0.715431
v 23.092402 26.952061 -2.802208
v 23.609213 26.952061 -3.109756
v 23.633196 26.731480 -2.494370
v 24.133978 26.952065 -2.815926
v 24.141905 26.952065 -2.214577
v 24.141905 26.952065 -2.214577
v 23.625090 26.952065 -1.907036
v 23.633196 26.731480 -2.494370
v 23.100328 26.952061 -2.200851
v 23.092402 26.952061 -2.802208
v 22.521357 26.952063 -4.843361
v 22.853563 26.952063 -5.344673
v 23.142164 26.731482 -4.800636
v 23.453844 26.952066 -5.307640
v 23.721891 26.952066 -4.769264
v 23.721891 26.952066 -4.769264
v 23.389681 26.952066 -4.267944
v 23.142164 26.731482 -4.800636
v 22.789408 26.952063 -4.304977
v 22.521357 26.952063 -4.843361
v 21.121260 26.952063 -6.434616
v 21.203047 26.952063 -7.030426
v 21.699110 26.731482 -6.665474
v 21.759943 26.952066 -7.257500
v 22.235048 26.952066 -6.888741
v 22.235048 26.952066 -6.888741
v 22.153234 26.952066 -6.292908
v 21.699110 26.731482 -6.665474
v 21.596338 26.952063 -6.065834
v 21.121260 26.952063 -6.434616
v 19.169390 26.952063 -7.260796
v 18.984568 26.952063 -7.833088
v 19.589853 26.731482 -7.719521
v 19.387800 26.952066 -8.279312
v 19.975840 26.952066 -8.153202
v 19.975840 26.952066 -8.153202
v 20.160654 26.952066 -7.580887
v 19.589853 26.731482 -7.719521
v 19.757425 26.952063 -7.134697
v 19.169390 26.952063 -7.260796
v 17.052347 26.952063 -7.158283
v 16.637526 26.952063 -7.593712
v 17.232145 26.731482 -7.754013
v 16.807219 26.952066 -8.170700
v 17.391741 26.952066 -8.312229
v 17.391741 26.952066 -8.312229
v 17.806562 26.952066 -7.876797
v 17.232145 26.731482 -7.754013
v 17.636869 26.952063 -7.299812
v 17.052347 26.952063 -7.158283
v 15.189421 26.952063 -6.147392
v 14.626757 26.952063 -6.359741
v 15.092951 26.731482 -6.762154
v 14.529299 26.952066 -6.953209
v 14.994551 26.952066 -7.334305
v 14.994551 26.952066 -7.334305
v 15.557211 26.952066 -7.121994
v 15.092951 26.731482 -6.762154
v 15.654673 26.952063 -6.528519
v 15.189421 26.952063 -6.147392
v 13.949594 26.952063 -4.428329
v 13.350534 26.952063 -4.375511
v 13.595949 26.731482 -4.940346
v 13.005220 26.952066 -4.867928
v 13.259043 26.952066 -5.413155
v 13.259043 26.952066 -5.413155
v 13.858107 26.952066 -5.465988
v 13.595949 26.731482 -4.940346
v 14.203421 26.952063 -4.973564
v 13.949594 26.952063 -4.428329
v 13.578398 26.952061 -2.341568
v 13.061586 26.952061 -2.034050
v 13.037634 26.731480 -2.649437
v 12.536821 26.952065 -2.327888
v 12.528948 26.952065 -2.929237
v 12.528948 26.952065 -2.929237
v 13.045763 26.952065 -3.236763
v 13.037634 26.731480 -2.649437
v 13.570528 26.952061 -2.942924
v 13.578398 26.952061 -2.341568
v 14.149393 26.952063 -0.300400
v 13.817160 26.952063 0.200912
v 13.528589 26.731482 -0.343147
v 13.216883 26.952066 0.163857
v 12.948862 26.952066 -0.374542
v 12.948862 26.952066 -0.374542
v 13.281096 26.952066 -0.875847
v 13.528589 26.731482 -0.343147
v 13.881372 26.952063 -0.838791
v 14.149393 26.952063 -0.300400
v 16.642248 28.951237 -1.332817
v 16.310034 28.951237 -0.831512
v 16.021448 28.730640 -1.375565
v 15.709738 28.951237 -0.868568
v 15.441717 28.951237 -1.406952
v 15.441717 28.951237 -1.406952
v 15.773954 28.951235 -1.908264
v 16.021448 28.730640 -1.375565
v 16.374228 28.951235 -1.871193
v 16.642248 28.951237 -1.332817
v 18.248400 28.951237 -0.475533
v 18.433199 28.951237 0.096764
v 17.827917 28.730640 -0.016823
v 18.029955 28.951237 0.542961
v 17.441919 28.951237 0.416840
v 17.441919 28.951237 0.416840
v 17.257120 28.951237 -0.155464
v 17.827917 28.730640 -0.016823
v 17.660368 28.951237 -0.601677
v 18.248400 28.951237 -0.475533
v 19.920076 28.951237 -1.196762
v 20.482737 28.951237 -0.984421
v 20.016531 28.730640 -0.582008
v 20.580172 28.951237 -0.390938
v 20.114916 28.951237 -0.009834
v 20.114916 28.951237 -0.009834
v 19.552259 28.951237 -0.222191
v 20.016531 28.730640 -0.582008
v 19.454824 28.951237 -0.815666
v 19.920076 28.951237 -1.196762
v 20.398493 28.951235 -2.953392
v 20.915319 28.951235 -3.260910
v 20.939268 28.730639 -2.645523
v 21.440077 28.951235 -2.967049
v 21.447931 28.951235 -2.365685
v 21.447931 28.951235 -2.365685
v 20.931116 28.951235 -2.058182
v 20.939268 28.730639 -2.645523
v 20.406363 28.951235 -2.352043
v 20.398493 28.951235 -2.953392
v 19.323400 28.951237 -4.422699
v 19.405230 28.951237 -5.018501
v 19.901274 28.730640 -4.653519
v 19.962156 28.951237 -5.245537
v 20.437216 28.951237 -4.876747
v 20.437216 28.951237 -4.876747
v 20.355383 28.951237 -4.280930
v 19.901274 28.730640 -4.653519
v 19.798464 28.951235 -4.053894
v 19.323400 28.951237 -4.422699
v 17.504347 28.951237 -4.498260
v 17.089560 28.951237 -4.933723
v 17.684191 28.730640 -5.093979
v 17.259291 28.951237 -5.510696
v 17.843824 28.951237 -5.652168
v 17.843824 28.951237 -5.652168
v 18.258615 28.951237 -5.216705
v 17.684191 28.730640 -5.093979
v 18.088881 28.951237 -4.639740
v 17.504347 28.951237 -4.498260
v 16.311094 28.951235 -3.123199
v 15.712027 28.951235 -3.070412
v 15.957479 28.730639 -3.635231
v 15.366762 28.951235 -3.562859
v 15.620611 28.951235 -4.108070
v 15.620611 28.951235 -4.108070
v 16.219675 28.951235 -4.160851
v 15.957479 28.730639 -3.635231
v 16.564939 28.951235 -3.668411
v 16.311094 28.951235 -3.123199
v 18.753599 29.917988 -2.840454
v 18.766760 29.917988 -2.328575
v 17.867014 29.917988 -2.817657
v 18.330046 29.917988 -2.061249
v 17.880171 29.917988 -2.305786
v 15.467936 26.952057 1.886909
v 15.549719 26.952063 1.291077
v 14.971846 26.731480 1.521965
v 15.074614 26.952061 0.922348
v 14.517717 26.952063 1.149452
v 14.517717 26.952063 1.149452
v 14.435930 26.952066 1.745247
v 14.971846 26.731480 1.521965
v 14.911036 26.952061 2.113991
v 15.467936 26.952057 1.886909
v 17.686441 26.952063 2.689491
v 17.501604 26.952063 2.117210
v 17.081148 26.731482 2.575935
v 16.913561 26.952063 1.991127
v 16.510344 26.952066 2.437355
v 16.510344 26.952066 2.437355
v 16.695185 26.952066 3.009636
v 17.081148 26.731482 2.575935
v 17.283224 26.952066 3.135727
v 17.686441 26.952063 2.689491
v 20.033476 26.952063 2.450050
v 19.618639 26.952063 2.014618
v 19.438860 26.731482 2.610374
v 19.034121 26.952066 2.156181
v 18.864447 26.952072 2.733162
v 18.864447 26.952072 2.733162
v 19.279287 26.952072 3.168571
v 19.438860 26.731482 2.610374
v 19.863806 26.952066 3.027039
v 20.033476 26.952063 2.450050
v 22.044191 26.952063 1.215996
v 21.481535 26.952063 1.003677
v 21.578028 26.731480 1.618408
v 21.016306 26.952063 1.384796
v 21.113764 26.952061 1.978279
v 21.113764 26.952061 1.978279
v 21.676451 26.952061 2.190598
v 21.578028 26.731480 1.618408
v 22.141676 26.952066 1.809464
v 22.044191 26.952063 1.215996
v 23.320364 26.952063 -0.768280
v 22.721304 26.952063 -0.715431
v 23.074953 26.731482 -0.203438
v 22.467512 26.952066 -0.170189
v 22.812826 26.952072 0.322220
v 22.812826 26.952072 0.322220
v 23.411879 26.952066 0.269356
v 23.074953 26.731482 -0.203438
v 23.665678 26.952066 -0.275871
v 23.320364 26.952063 -0.768280
v 23.609213 26.952070 -3.109764
v 23.092402 26.952065 -2.802223
v 23.633196 26.731485 -2.494377
v 23.100328 26.952076 -2.200851
v 23.625090 26.952082 -1.907043
v 23.625090 26.952082 -1.907043
v 24.141905 26.952070 -2.214577
v 23.633196 26.731485 -2.494377
v 24.133978 26.952065 -2.815926
v 23.609213 26.952070 -3.109764
v 22.853563 26.952061 -5.344673
v 22.521357 26.952061 -4.843361
v 23.142164 26.731480 -4.800636
v 22.789400 26.952061 -4.304977
v 23.389681 26.952063 -4.267944
v 23.389681 26.952063 -4.267944
v 23.721891 26.952066 -4.769264
v 23.142164 26.731480 -4.800636
v 23.453844 26.952066 -5.307640
v 22.853563 26.952061 -5.344673
v 21.203047 26.952066 -7.030426
v 21.121260 26.952061 -6.434616
v 21.699110 26.731482 -6.665474
v 21.596338 26.952063 -6.065834
v 22.153234 26.952066 -6.292908
v 22.153234 26.952066 -6.292908
v 22.235048 26.952066 -6.888741
v 21.699110 26.731482 -6.665474
v 21.759943 26.952066 -7.257500
v 21.203047 26.952066 -7.030426
v 18.984568 26.952063 -7.833088
v 19.169390 26.952063 -7.260796
v 19.589853 26.731482 -7.719521
v 19.757425 26.952061 -7.134697
v 20.160654 26.952066 -7.580887
v 20.160654 26.952066 -7.580887
v 19.975840 26.952066 -8.153202
v 19.589853 26.731482 -7.719521
v 19.387800 26.952066 -8.279312
v 18.984568 26.952063 -7.833088
v 16.637526 26.952063 -7.593712
v 17.052347 26.952063 -7.158283
v 17.232145 26.731482 -7.754013
v 17.636869 26.952063 -7.299812
v 17.806562 26.952066 -7.876797
v 17.806562 26.952066 -7.876797
v 17.391741 26.952066 -8.312229
v 17.232145 26.731482 -7.754013
v 16.807219 26.952066 -8.170700
v 16.637526 26.952063 -7.593712
v 14.626757 26.952063 -6.359741
v 15.189421 26.952061 -6.147392
v 15.092951 26.731485 -6.762146
v 15.654673 26.952063 -6.528519
v 15.557211 26.952078 -7.121986
v 15.557211 26.952078 -7.121986
v 14.994551 26.952078 -7.334305
v 15.092951 26.731485 -6.762146
v 14.529299 26.952066 -6.953209
v 14.626757 26.952063 -6.359741
v 13.350534 26.952063 -4.375511
v 13.949594 26.952063 -4.428329
v 13.595949 26.731482 -4.940346
v 14.203421 26.952061 -4.973564
v 13.858107 26.952063 -5.465988
v 13.858107 26.952063 -5.465988
v 13.259043 26.952066 -5.413155
v 13.595949 26.731482 -4.940346
v 13.005220 26.952066 -4.867928
v 13.350534 26.952063 -4.375511
v 13.061586 26.952065 -2.034065
v 13.578398 26.952061 -2.341583
v 13.037634 26.731478 -2.649437
v 13.570532 26.952053 -2.942924
v 13.045763 26.952055 -3.236763
v 13.045763 26.952055 -3.236763
v 12.528948 26.952070 -2.929237
v 13.037634 26.731478 -2.649437
v 12.536821 26.952070 -2.327888
v 13.061586 26.952065 -2.034065
v 13.817160 26.952066 0.200905
v 14.149389 26.952072 -0.300400
v 13.528589 26.731485 -0.343147
v 13.881369 26.952066 -0.838791
v 13.281096 26.952066 -0.875847
v 13.281096 26.952066 -0.875847
v 12.948862 26.952066 -0.374542
v 13.528589 26.731485 -0.343147
v 13.216883 26.952066 0.163849
v 13.817160 26.952066 0.200905
v 16.310034 28.951237 -0.831512
v 16.642248 28.951237 -1.332817
v 16.021448 28.730640 -1.375565
v 16.374228 28.951235 -1.871201
v 15.773954 28.951233 -1.908264
v 15.773954 28.951233 -1.908264
v 15.441717 28.951235 -1.406952
v 16.021448 28.730640 -1.375565
v 15.709738 28.951237 -0.868568
v 16.310034 28.951237 -0.831512
v 18.433199 28.951237 0.096764
v 18.248400 28.951242 -0.475533
v 17.827917 28.730640 -0.016823
v 17.660368 28.951237 -0.601677
v 17.257120 28.951237 -0.155464
v 17.257120 28.951237 -0.155464
v 17.441919 28.951237 0.416840
v 17.827917 28.730640 -0.016823
v 18.029955 28.951237 0.542961
v 18.433199 28.951237 0.096764
v 20.482737 28.951237 -0.984421
v 19.920076 28.951235 -1.196762
v 20.016531 28.730640 -0.582008
v 19.454824 28.951235 -0.815666
v 19.552259 28.951237 -0.222191
v 19.552259 28.951237 -0.222191
v 20.114916 28.951237 -0.009834
v 20.016531 28.730640 -0.582008
v 20.580172 28.951237 -0.390938
v 20.482737 28.951237 -0.984421
v 20.915312 28.951233 -3.260910
v 20.398493 28.951235 -2.953392
v 20.939268 28.730639 -2.645523
v 20.406363 28.951235 -2.352043
v 20.931116 28.951235 -2.058182
v 20.931116 28.951235 -2.058182
v 21.447931 28.951235 -2.365685
v 20.939268 28.730639 -2.645523
v 21.440077 28.951235 -2.967049
v 20.915312 28.951233 -3.260910
v 19.405230 28.951237 -5.018501
v 19.323400 28.951237 -4.422699
v 19.901274 28.730640 -4.653519
v 19.798464 28.951233 -4.053894
v 20.355383 28.951235 -4.280930
v 20.355383 28.951235 -4.280930
v 20.437216 28.951237 -4.876747
v 19.901274 28.730640 -4.653519
v 19.962156 28.951237 -5.245537
v 19.405230 28.951237 -5.018501
v 17.089560 28.951237 -4.933723
v 17.504347 28.951237 -4.498260
v 17.684191 28.730640 -5.093979
v 18.088881 28.951237 -4.639740
v 18.258615 28.951237 -5.216705
v 18.258615 28.951237 -5.216705
v 17.843824 28.951235 -5.652168
v 17.684191 28.730640 -5.093979
v 17.259291 28.951235 -5.510696
v 17.089560 28.951237 -4.933723
v 15.712027 28.951235 -3.070412
v 16.311094 28.951235 -3.123199
v 15.957479 28.730639 -3.635231
v 16.564939 28.951235 -3.668411
v 16.219675 28.951235 -4.160851
v 16.219675 28.951235 -4.160851
v 15.620611 28.951235 -4.108070
v 15.957479 28.730639 -3.635231
v 15.366762 28.951235 -3.562859
v 15.712027 28.951235 -3.070412
v 18.753599 29.917988 -2.840454
v 18.753599 30.170055 -2.840454
v 18.303724 29.917988 -3.084991
v 18.303724 30.170055 -3.084991
v 17.867014 29.917988 -2.817657
v 17.867014 30.170055 -2.817657
v 17.880171 29.917988 -2.305786
v 17.880171 30.170055 -2.305786
v 18.330046 29.917988 -2.061249
v 18.330046 30.170055 -2.061249
v 18.766760 29.917988 -2.328575
v 18.766760 30.170055 -2.328575
v 19.764185 28.662998 -3.721748
v 19.628504 28.158401 -3.614075
v 19.122484 28.663000 -4.235962
v 19.046957 28.158401 -4.080070
v 18.321222 28.661095 -4.420822
v 18.320814 28.158403 -4.247597
v 17.519106 28.661095 -4.239723
v 17.593893 28.158401 -4.083488
v 16.874994 28.661093 -3.728531
v 17.010176 28.158401 -3.620216
v 16.516474 28.661093 -2.988503
v 16.685263 28.158401 -2.949562
v 16.514547 28.661093 -2.166191
v 16.683516 28.158401 -2.204338
v 16.869589 28.661095 -1.424477
v 17.005274 28.158403 -1.532166
v 17.511293 28.661095 -0.910271
v 17.586817 28.158403 -1.066162
v 18.312548 28.661095 -0.725418
v 18.312956 28.158403 -0.898636
v 19.114668 28.661095 -0.906509
v 19.039877 28.158403 -1.062759
v 19.758776 28.661095 -1.417709
v 19.623598 28.158403 -1.526024
v 20.117296 28.661093 -2.157738
v 19.948511 28.158401 -2.196678
v 20.119230 28.661093 -2.980049
v 19.950258 28.158401 -2.941895
v 19.122484 28.162342 -4.235962
v 19.764185 28.162340 -3.721748
v 19.122484 28.663000 -4.235962
v 19.764185 28.662998 -3.721748
v 17.519106 28.162342 -4.239723
v 18.321222 28.162342 -4.420822
v 17.519106 28.661095 -4.239723
v 18.321222 28.661095 -4.420822
v 16.516474 28.159569 -2.988503
v 16.874994 28.159569 -3.728531
v 16.516474 28.661093 -2.988503
v 16.874994 28.661093 -3.728531
v 16.869589 28.159571 -1.424477
v 16.514547 28.159569 -2.166191
v 16.869589 28.661095 -1.424477
v 16.514547 28.661093 -2.166191
v 18.312548 28.159571 -0.725418
v 17.511293 28.159571 -0.910271
v 18.312548 28.661095 -0.725418
v 17.511293 28.661095 -0.910271
v 19.758776 28.159571 -1.417709
v 19.114668 28.159571 -0.906509
v 19.758776 28.661095 -1.417709
v 19.114668 28.661095 -0.906509
v 20.119230 28.159569 -2.980049
v 20.117296 28.159569 -2.157738
v 20.119230 28.661093 -2.980049
v 20.117296 28.661093 -2.157738
v 15.664808 26.304581 0.496216
v 14.913218 26.285999 1.419044
v 15.763437 26.304581 0.572762
v 15.053148 26.285999 1.527603
v 15.053148 26.285999 1.527603
v 14.983477 26.391417 1.473557
v 15.763437 26.304581 0.572762
v 15.714334 26.406584 0.534637
v 15.664808 26.304581 0.496216
v 15.714334 26.406584 0.534637
v 14.913218 26.285999 1.419044
v 14.983477 26.391417 1.473557
v 17.260427 26.304581 1.351097
v 16.983667 26.285999 2.508629
v 17.382502 26.304581 1.377281
v 17.156832 26.285999 2.545761
v 17.156832 26.285999 2.545761
v 17.070604 26.391417 2.527267
v 17.382502 26.304581 1.377281
v 17.321714 26.406584 1.364250
v 17.260427 26.304581 1.351097
v 17.321714 26.406584 1.364250
v 16.983667 26.285999 2.508629
v 17.070604 26.391417 2.527267
v 19.068953 26.304581 1.429016
v 19.321829 26.285999 2.592010
v 19.190294 26.304581 1.399635
v 19.493944 26.285999 2.550331
v 19.493944 26.285999 2.550331
v 19.408243 26.391417 2.571083
v 19.190294 26.304581 1.399635
v 19.129873 26.406584 1.414291
v 19.068953 26.304581 1.429016
v 19.129873 26.406584 1.414291
v 19.321829 26.285999 2.592010
v 19.408243 26.391417 2.571083
v 20.732195 26.304581 0.714569
v 21.464617 26.285999 1.652664
v 20.828764 26.304581 0.635452
v 21.601599 26.285999 1.540428
v 21.601599 26.285999 1.540428
v 21.533403 26.391417 1.596313
v 20.828764 26.304581 0.635452
v 20.780676 26.406584 0.674843
v 20.732195 26.304581 0.714569
v 20.780676 26.406584 0.674843
v 21.464617 26.285999 1.652664
v 21.533403 26.391417 1.596313
v 21.920725 26.304581 -0.650787
v 22.987654 26.285999 -0.123383
v 21.973406 26.304581 -0.763977
v 23.062376 26.285999 -0.283943
v 23.062376 26.285999 -0.283943
v 23.025167 26.391417 -0.203987
v 21.973406 26.304581 -0.763977
v 21.947191 26.406584 -0.707611
v 21.920725 26.304581 -0.650787
v 21.947191 26.406584 -0.707611
v 22.987654 26.285999 -0.123383
v 23.025167 26.391417 -0.203987
v 22.399160 26.304579 -2.396622
v 23.589277 26.285997 -2.384354
v 22.397532 26.304579 -2.521461
v 23.586943 26.285997 -2.561432
v 23.586943 26.285997 -2.561432
v 23.588106 26.391415 -2.473251
v 22.397532 26.304579 -2.521461
v 22.398344 26.406582 -2.459297
v 22.399160 26.304579 -2.396622
v 22.398344 26.406582 -2.459297
v 23.589277 26.285997 -2.384354
v 23.588106 26.391415 -2.473251
v 22.072744 26.304583 -4.177147
v 23.150316 26.285999 -4.682457
v 22.017096 26.304583 -4.288910
v 23.071367 26.285999 -4.840988
v 23.071367 26.285999 -4.840988
v 23.110689 26.391417 -4.762054
v 22.017096 26.304583 -4.288910
v 22.044806 26.406584 -4.233261
v 22.072744 26.304583 -4.177147
v 22.044806 26.406584 -4.233261
v 23.150316 26.285999 -4.682457
v 23.110689 26.391417 -4.762054
v 21.006121 26.304583 -5.639725
v 21.757730 26.285999 -6.562531
v 20.907495 26.304583 -5.716286
v 21.617830 26.285999 -6.671112
v 21.617830 26.285999 -6.671112
v 21.687502 26.391417 -6.617035
v 20.907495 26.304583 -5.716286
v 20.956617 26.406584 -5.678154
v 21.006121 26.304583 -5.639725
v 20.956617 26.406584 -5.678154
v 21.757730 26.285999 -6.562531
v 21.687502 26.391417 -6.617035
v 19.410540 26.304583 -6.494690
v 19.687338 26.285999 -7.652214
v 19.288458 26.304583 -6.520851
v 19.514174 26.285999 -7.689323
v 19.514174 26.285999 -7.689323
v 19.600405 26.391417 -7.670856
v 19.288458 26.304583 -6.520851
v 19.349249 26.406584 -6.507820
v 19.410540 26.304583 -6.494690
v 19.349249 26.406584 -6.507820
v 19.687338 26.285999 -7.652214
v 19.600405 26.391417 -7.670856
v 17.602015 26.304583 -6.572662
v 17.349176 26.285999 -7.735676
v 17.480669 26.304583 -6.543304
v 17.177057 26.285999 -7.693993
v 17.177057 26.285999 -7.693993
v 17.262762 26.391417 -7.714745
v 17.480669 26.304583 -6.543304
v 17.541094 26.406584 -6.557938
v 17.602015 26.304583 -6.572662
v 17.541094 26.406584 -6.557938
v 17.349176 26.285999 -7.735676
v 17.262762 26.391417 -7.714745
v 15.938749 26.304583 -5.858261
v 15.206362 26.285999 -6.796387
v 15.842173 26.304583 -5.779144
v 15.069357 26.285999 -6.684174
v 15.069357 26.285999 -6.684174
v 15.137575 26.391417 -6.740051
v 15.842173 26.304583 -5.779144
v 15.890265 26.406584 -5.818535
v 15.938749 26.304583 -5.858261
v 15.890265 26.406584 -5.818535
v 15.206362 26.285999 -6.796387
v 15.137575 26.391417 -6.740051
v 14.750154 26.304583 -4.492950
v 13.683252 26.285999 -5.020401
v 14.697474 26.304583 -4.379753
v 13.608522 26.285999 -4.859840
v 13.608522 26.285999 -4.859840
v 13.645739 26.391417 -4.939796
v 14.697474 26.304583 -4.379753
v 14.723711 26.406584 -4.436119
v 14.750154 26.304583 -4.492950
v 14.723711 26.406584 -4.436119
v 13.683252 26.285999 -5.020401
v 13.645739 26.391417 -4.939796
v 14.271666 26.304579 -2.747131
v 13.081575 26.285997 -2.759438
v 14.273317 26.304579 -2.622299
v 13.083887 26.285997 -2.582359
v 13.083887 26.285997 -2.582359
v 13.082743 26.391415 -2.670540
v 14.273317 26.304579 -2.622299
v 14.272478 26.406582 -2.684456
v 14.271666 26.304579 -2.747131
v 14.272478 26.406582 -2.684456
v 13.081575 26.285997 -2.759438
v 13.082743 26.391415 -2.670540
v 14.598032 26.304581 -0.966591
v 13.520437 26.285999 -0.461319
v 14.653658 26.304581 -0.854828
v 13.599379 26.285999 -0.302795
v 13.599379 26.285999 -0.302795
v 13.560061 26.391417 -0.381729
v 14.653658 26.304581 -0.854828
v 14.625948 26.406584 -0.910477
v 14.598032 26.304581 -0.966591
v 14.625948 26.406584 -0.910477
v 13.520437 26.285999 -0.461319
v 13.560061 26.391417 -0.381729
v 16.708673 28.303740 -1.812820
v 16.013300 28.285149 -1.493736
v 16.764318 28.303740 -1.701065
v 16.092230 28.285149 -1.335205
v 16.092230 28.285149 -1.335205
v 16.052927 28.390585 -1.414146
v 16.764318 28.303740 -1.701065
v 16.736609 28.405746 -1.756714
v 16.708673 28.303740 -1.812820
v 16.736609 28.405746 -1.756714
v 16.013300 28.285149 -1.493736
v 16.052927 28.390585 -1.414146
v 17.914537 28.303741 -0.826752
v 17.730444 28.285149 -0.084145
v 18.036608 28.303741 -0.800575
v 17.903601 28.285149 -0.047012
v 17.903601 28.285149 -0.047012
v 17.817373 28.390585 -0.065498
v 18.036608 28.303741 -0.800575
v 17.975824 28.405748 -0.813614
v 17.914537 28.303741 -0.826752
v 17.975824 28.405748 -0.813614
v 17.730444 28.285149 -0.084145
v 17.817373 28.390585 -0.065498
v 19.437319 28.303741 -1.154724
v 19.903128 28.285149 -0.547775
v 19.533903 28.303741 -1.233849
v 20.040125 28.285149 -0.660004
v 20.040125 28.285149 -0.660004
v 19.971910 28.390585 -0.604118
v 19.533903 28.303741 -1.233849
v 19.485811 28.405748 -1.194435
v 19.437319 28.303741 -1.154724
v 19.485811 28.405748 -1.194435
v 19.903128 28.285149 -0.547775
v 19.971910 28.390585 -0.604118
v 20.130362 28.303740 -2.549759
v 20.895327 28.285147 -2.535507
v 20.128725 28.303740 -2.674599
v 20.892988 28.285147 -2.712585
v 20.892988 28.285147 -2.712585
v 20.894159 28.390583 -2.624405
v 20.128725 28.303740 -2.674599
v 20.129545 28.405746 -2.612427
v 20.130362 28.303740 -2.549759
v 20.129545 28.405746 -2.612427
v 20.895327 28.285147 -2.535507
v 20.894159 28.390583 -2.624405
v 19.471804 28.303740 -3.961395
v 19.959890 28.285149 -4.550575
v 19.373175 28.303740 -4.037949
v 19.819994 28.285149 -4.659164
v 19.819994 28.285149 -4.659164
v 19.889658 28.390585 -4.605103
v 19.373175 28.303740 -4.037949
v 19.422289 28.405746 -3.999832
v 19.471804 28.303740 -3.961395
v 19.422289 28.405746 -3.999832
v 19.959890 28.285149 -4.550575
v 19.889658 28.390585 -4.605103
v 17.957533 28.303741 -4.326668
v 17.801218 28.285149 -5.075623
v 17.836187 28.303741 -4.297295
v 17.629099 28.285149 -5.033958
v 17.629099 28.285149 -5.033958
v 17.714808 28.390585 -5.054703
v 17.836187 28.303741 -4.297295
v 17.896612 28.405748 -4.311920
v 17.957533 28.303741 -4.326668
v 17.896612 28.405748 -4.311920
v 17.801218 28.285149 -5.075623
v 17.714808 28.390585 -5.054703
v 16.727812 28.303740 -3.370522
v 16.044802 28.285147 -3.715279
v 16.675116 28.303740 -3.257339
v 15.970060 28.285147 -3.554733
v 15.970060 28.285147 -3.554733
v 16.007273 28.390583 -3.634674
v 16.675116 28.303740 -3.257339
v 16.701349 28.405746 -3.313698
v 16.727812 28.303740 -3.370522
v 16.701349 28.405746 -3.313698
v 16.044802 28.285147 -3.715279
v 16.007273 28.390583 -3.634674
v 17.867014 29.917988 -2.817657
v 18.753599 29.917988 -2.840454
v 18.303724 29.917988 -3.084991
v 18.335413 30.614506 -2.571808
v 18.753599 30.170055 -2.840454
v 18.766760 30.170055 -2.328575
v 18.335413 30.614506 -2.571808
v 18.303724 30.170055 -3.084991
v 18.753599 30.170055 -2.840454
v 18.335413 30.614506 -2.571808
v 17.867014 30.170055 -2.817657
v 18.303724 30.170055 -3.084991
v 18.335413 30.614506 -2.571808
v 17.880171 30.170055 -2.305786
v 17.867014 30.170055 -2.817657
v 18.335413 30.614506 -2.571808
v 18.330046 30.170055 -2.061249
v 17.880171 30.170055 -2.305786
v 18.335413 30.614506 -2.571808
v 18.766760 30.170055 -2.328575
v 18.330046 30.170055 -2.061249
v 15.139051 26.053185 1.532120
v 14.890261 26.053185 1.339081
v 14.847433 26.053185 1.651070
v 17.236212 26.053185 2.512558
v 16.928270 26.053185 2.446571
v 17.025057 26.053185 2.746246
v 19.551062 26.053185 2.485970
v 19.244989 26.053185 2.560135
v 19.462206 26.053185 2.788124
v 21.625143 26.053185 1.457680
v 21.381559 26.053185 1.657272
v 21.676199 26.053185 1.768440
v 23.047674 26.053185 -0.368713
v 22.914801 26.053185 -0.083183
v 23.228495 26.053185 -0.110855
v 23.536901 26.053183 -2.631432
v 23.541063 26.053183 -2.316536
v 23.811705 26.053183 -2.477562
v 22.995932 26.053185 -4.882347
v 23.136320 26.053185 -4.600449
v 23.310278 26.053185 -4.862961
v 21.531900 26.053185 -6.675629
v 21.780718 26.053185 -6.482574
v 21.823545 26.053185 -6.794563
v 19.434793 26.053185 -7.656124
v 19.742731 26.053185 -7.590134
v 19.645956 26.053185 -7.889809
v 17.119944 26.053185 -7.629627
v 17.426020 26.053185 -7.703773
v 17.208803 26.053185 -7.931789
v 15.045835 26.053185 -6.601395
v 15.289419 26.053185 -6.800987
v 14.994780 26.053185 -6.912193
v 13.623228 26.053185 -4.775070
v 13.756098 26.053185 -5.060593
v 13.442408 26.053185 -5.032936
v 13.133924 26.053183 -2.512360
v 13.129759 26.053183 -2.827263
v 12.859121 26.053183 -2.666237
v 13.674818 26.053185 -0.261429
v 13.534430 26.053185 -0.543335
v 13.360468 26.053185 -0.280830
v 16.167681 28.052357 -1.293846
v 16.027296 28.052357 -1.575745
v 15.853327 28.052357 -1.313248
v 17.982981 28.052357 -0.080208
v 17.675047 28.052357 -0.146217
v 17.771811 28.052357 0.153465
v 20.063665 28.052357 -0.742760
v 19.820063 28.052357 -0.543167
v 20.114691 28.052357 -0.431969
v 20.842966 28.052355 -2.782585
v 20.847128 28.052355 -2.467690
v 21.117754 28.052355 -2.628708
v 19.734072 28.052357 -4.663704
v 19.982859 28.052357 -4.470612
v 20.025713 28.052357 -4.782600
v 17.571978 28.052357 -4.969604
v 17.878057 28.052357 -5.043724
v 17.660860 28.052357 -5.271751
v 15.984755 28.052355 -3.469948
v 16.117647 28.052355 -3.755470
v 15.803946 28.052355 -3.727829
v 16.595083 26.142786 1.020439
v 15.059244 26.142790 0.028290
v 16.511835 26.142786 1.192268
v 16.595083 26.142786 1.020439
v 16.511835 26.142786 1.192268
v 18.326044 26.142786 1.419777
v 18.753599 29.917988 -2.840454
v 17.867014 29.917988 -2.817657
v 18.303724 29.917988 -3.084991
vt 1.323242 -0.198242
vt 1.500000 -0.166016
vt 1.358398 -0.264648
vt 1.505859 -0.250000
vt 1.675781 -0.199219
vt 1.640625 -0.264648
vt 1.817383 -0.291992
vt 1.746094 -0.344727
vt 1.895508 -0.425781
vt 1.809570 -0.434570
vt 1.894531 -0.574219
vt 1.815430 -0.541992
vt 1.815430 -0.708008
vt 1.760742 -0.651367
vt 1.674805 -0.799805
vt 1.654297 -0.718750
vt 1.498047 -0.832031
vt 1.500977 -0.752930
vt 1.322266 -0.798828
vt 1.358398 -0.264648
vt 1.244141 -0.356445
vt 1.323242 -0.198242
vt 1.182617 -0.290039
vt 1.178711 -0.461914
vt 1.103516 -0.423828
vt 1.205078 -0.569336
vt 1.102539 -0.572266
vt 1.253906 -0.661133
vt 1.180664 -0.706055
vt 1.349609 -0.733398
vt 1.123047 -0.721680
vt 1.111328 -0.294922
vt 1.510742 -0.925781
vt 1.886719 -0.703125
vt 1.875000 -0.276367
vt 1.659180 0.991211
vt 1.470703 0.147461
vt 1.170898 0.991211
vt 0.986328 0.991211
vt 1.287109 0.991211
vt 1.287109 0.991211
vt 1.470703 0.147461
vt 1.775391 0.991211
vt 1.960938 0.991211
vt 1.659180 0.991211
vt 1.659180 0.991211
vt 1.470703 0.147461
vt 1.170898 0.991211
vt 0.986328 0.991211
vt 1.287109 0.991211
vt 1.287109 0.991211
vt 1.470703 0.147461
vt 1.775391 0.991211
vt 1.960938 0.991211
vt 1.659180 0.991211
vt 1.659180 0.991211
vt 1.470703 0.147461
vt 1.170898 0.991211
vt 0.986328 0.991211
vt 1.287109 0.991211
vt 1.287109 0.991211
vt 1.470703 0.147461
vt 1.775391 0.991211
vt 1.960938 0.991211
vt 1.659180 0.991211
vt 1.659180 0.991211
vt 1.470703 0.147461
vt 1.170898 0.991211
vt 0.986328 0.991211
vt 1.287109 0.991211
vt 1.287109 0.991211
vt 1.470703 0.147461
vt 1.775391 0.991211
vt 1.960938 0.991211
vt 1.659180 0.991211
vt 1.659180 0.991211
vt 1.470703 0.147461
vt 1.170898 0.991211
vt 0.986328 0.991211
vt 1.287109 0.991211
vt 1.287109 0.991211
vt 1.470703 0.147461
vt 1.775391 0.991211
vt 1.960938 0.991211
vt 1.659180 0.991211
vt 1.659180 0.991211
vt 1.470703 0.147461
vt 1.170898 0.991211
vt 0.986328 0.991211
vt 1.287109 0.991211
vt 1.287109 0.991211
vt 1.470703 0.147461
vt 1.775391 0.991211
vt 1.960938 0.991211
vt 1.659180 0.991211
vt 1.659180 0.991211
vt 1.470703 0.147461
vt 1.170898 0.991211
vt 0.986328 0.991211
vt 1.287109 0.991211
vt 1.287109 0.991211
vt 1.470703 0.147461
vt 1.775391 0.991211
vt 1.960938 0.991211
vt 1.659180 0.991211
vt 1.659180 0.991211
vt 1.470703 0.147461
vt 1.170898 0.991211
vt 0.986328 0.991211
vt 1.287109 0.991211
vt 1.287109 0.991211
vt 1.470703 0.147461
vt 1.775391 0.991211
vt 1.960938 0.991211
vt 1.659180 0.991211
vt 1.659180 0.991211
vt 1.470703 0.147461
vt 1.170898 0.991211
vt 0.986328 0.991211
vt 1.287109 0.991211
vt 1.287109 0.991211
vt 1.470703 0.147461
vt 1.775391 0.991211
vt 1.960938 0.991211
vt 1.659180 0.991211
vt 1.659180 0.991211
vt 1.470703 0.147461
vt 1.170898 0.991211
vt 0.986328 0.991211
vt 1.287109 0.991211
vt 1.287109 0.991211
vt 1.470703 0.147461
vt 1.775391 0.991211
vt 1.960938 0.991211
vt 1.659180 0.991211
vt 1.659180 0.991211
vt 1.470703 0.147461
vt 1.170898 0.991211
vt 0.986328 0.991211
vt 1.287109 0.991211
vt 1.287109 0.991211
vt 1.470703 0.147461
vt 1.775391 0.991211
vt 1.960938 0.991211
vt 1.659180 0.991211
vt 1.659180 0.991211
vt 1.470703 0.147461
vt 1.170898 0.991211
vt 0.986328 0.991211
vt 1.287109 0.991211
vt 1.287109 0.991211
vt 1.470703 0.147461
vt 1.775391 0.991211
vt 1.960938 0.991211
vt 1.659180 0.991211
vt 1.659180 0.991211
vt 1.470703 0.147461
vt 1.170898 0.991211
vt 0.986328 0.991211
vt 1.287109 0.991211
vt 1.287109 0.991211
vt 1.470703 0.147461
vt 1.775391 0.991211
vt 1.960938 0.991211
vt 1.659180 0.991211
vt 1.659180 0.991211
vt 1.470703 0.147461
vt 1.170898 0.991211
vt 0.986328 0.991211
vt 1.287109 0.991211
vt 1.287109 0.991211
vt 1.470703 0.147461
vt 1.775391 0.991211
vt 1.960938 0.991211
vt 1.659180 0.991211
vt 1.659180 0.991211
vt 1.470703 0.147461
vt 1.170898 0.991211
vt 0.986328 0.991211
vt 1.287109 0.991211
vt 1.287109 0.991211
vt 1.470703 0.147461
vt 1.775391 0.991211
vt 1.960938 0.991211
vt 1.659180 0.991211
vt 1.659180 0.991211
vt 1.470703 0.147461
vt 1.170898 0.991211
vt 0.986328 0.991211
vt 1.287109 0.991211
vt 1.287109 0.991211
vt 1.470703 0.147461
vt 1.775391 0.991211
vt 1.960938 0.991211
vt 1.659180 0.991211
vt 1.659180 0.991211
vt 1.470703 0.147461
vt 1.170898 0.991211
vt 0.986328 0.991211
vt 1.287109 0.991211
vt 1.287109 0.991211
vt 1.470703 0.147461
vt 1.775391 0.991211
vt 1.960938 0.991211
vt 1.659180 0.991211
vt 1.659180 0.991211
vt 1.470703 0.147461
vt 1.170898 0.991211
vt 0.986328 0.991211
vt 1.287109 0.991211
vt 1.287109 0.991211
vt 1.470703 0.147461
vt 1.775391 0.991211
vt 1.960938 0.991211
vt 1.659180 0.991211
vt 1.659180 0.991211
vt 1.470703 0.147461
vt 1.170898 0.991211
vt 0.986328 0.991211
vt 1.287109 0.991211
vt 1.287109 0.991211
vt 1.470703 0.147461
vt 1.775391 0.991211
vt 1.960938 0.991211
vt 1.659180 0.991211
vt 1.659180 0.991211
vt 1.470703 0.147461
vt 1.170898 0.991211
vt 0.986328 0.991211
vt 1.287109 0.991211
vt 1.287109 0.991211
vt 1.470703 0.147461
vt 1.775391 0.991211
vt 1.960938 0.991211
vt 1.659180 0.991211
vt 1.659180 0.991211
vt 1.470703 0.147461
vt 1.170898 0.991211
vt 0.986328 0.991211
vt 1.287109 0.991211
vt 1.287109 0.991211
vt 1.470703 0.147461
vt 1.775391 0.991211
vt 1.960938 0.991211
vt 1.659180 0.991211
vt 1.875000 -0.276367
vt 1.111328 -0.294922
vt 1.886719 -0.703125
vt 1.510742 -0.925781
vt 1.123047 -0.721680
vt 1.170898 0.991211
vt 1.470703 0.147461
vt 1.659180 0.991211
vt 1.960938 0.991211
vt 1.775391 0.991211
vt 1.775391 0.991211
vt 1.470703 0.147461
vt 1.287109 0.991211
vt 0.986328 0.991211
vt 1.170898 0.991211
vt 1.170898 0.991211
vt 1.470703 0.147461
vt 1.659180 0.991211
vt 1.960938 0.991211
vt 1.775391 0.991211
vt 1.775391 0.991211
vt 1.470703 0.147461
vt 1.287109 0.991211
vt 0.986328 0.991211
vt 1.170898 0.991211
vt 1.170898 0.991211
vt 1.470703 0.147461
vt 1.659180 0.991211
vt 1.960938 0.991211
vt 1.775391 0.991211
vt 1.775391 0.991211
vt 1.470703 0.147461
vt 1.287109 0.991211
vt 0.986328 0.991211
vt 1.170898 0.991211
vt 1.170898 0.991211
vt 1.470703 0.147461
vt 1.659180 0.991211
vt 1.960938 0.991211
vt 1.775391 0.991211
vt 1.775391 0.991211
vt 1.470703 0.147461
vt 1.287109 0.991211
vt 0.986328 0.991211
vt 1.170898 0.991211
vt 1.170898 0.991211
vt 1.470703 0.147461
vt 1.659180 0.991211
vt 1.960938 0.991211
vt 1.775391 0.991211
vt 1.775391 0.991211
vt 1.470703 0.147461
vt 1.287109 0.991211
vt 0.986328 0.991211
vt 1.170898 0.991211
vt 1.170898 0.991211
vt 1.470703 0.147461
vt 1.659180 0.991211
vt 1.960938 0.991211
vt 1.775391 0.991211
vt 1.775391 0.991211
vt 1.470703 0.147461
vt 1.287109 0.991211
vt 0.986328 0.991211
vt 1.170898 0.991211
vt 1.170898 0.991211
vt 1.470703 0.147461
vt 1.659180 0.991211
vt 1.960938 0.991211
vt 1.775391 0.991211
vt 1.775391 0.991211
vt 1.470703 0.147461
vt 1.287109 0.991211
vt 0.986328 0.991211
vt 1.170898 0.991211
vt 1.170898 0.991211
vt 1.470703 0.147461
vt 1.659180 0.991211
vt 1.960938 0.991211
vt 1.775391 0.991211
vt 1.775391 0.991211
vt 1.470703 0.147461
vt 1.287109 0.991211
vt 0.986328 0.991211
vt 1.170898 0.991211
vt 1.170898 0.991211
vt 1.470703 0.147461
vt 1.659180 0.991211
vt 1.960938 0.991211
vt 1.775391 0.991211
vt 1.775391 0.991211
vt 1.470703 0.147461
vt 1.287109 0.991211
vt 0.986328 0.991211
vt 1.170898 0.991211
vt 1.170898 0.991211
vt 1.470703 0.147461
vt 1.659180 0.991211
vt 1.960938 0.991211
vt 1.775391 0.991211
vt 1.775391 0.991211
vt 1.470703 0.147461
vt 1.287109 0.991211
vt 0.986328 0.991211
vt 1.170898 0.991211
vt 1.170898 0.991211
vt 1.470703 0.147461
vt 1.659180 0.991211
vt 1.960938 0.991211
vt 1.775391 0.991211
vt 1.775391 0.991211
vt 1.470703 0.147461
vt 1.287109 0.991211
vt 0.986328 0.991211
vt 1.170898 0.991211
vt 1.170898 0.991211
vt 1.470703 0.147461
vt 1.659180 0.991211
vt 1.960938 0.991211
vt 1.775391 0.991211
vt 1.775391 0.991211
vt 1.470703 0.147461
vt 1.287109 0.991211
vt 0.986328 0.991211
vt 1.170898 0.991211
vt 1.170898 0.991211
vt 1.470703 0.147461
vt 1.659180 0.991211
vt 1.960938 0.991211
vt 1.775391 0.991211
vt 1.775391 0.991211
vt 1.470703 0.147461
vt 1.287109 0.991211
vt 0.986328 0.991211
vt 1.170898 0.991211
vt 1.170898 0.991211
vt 1.470703 0.147461
vt 1.659180 0.991211
vt 1.960938 0.991211
vt 1.775391 0.991211
vt 1.775391 0.991211
vt 1.470703 0.147461
vt 1.287109 0.991211
vt 0.986328 0.991211
vt 1.170898 0.991211
vt 1.170898 0.991211
vt 1.470703 0.147461
vt 1.659180 0.991211
vt 1.960938 0.991211
vt 1.775391 0.991211
vt 1.775391 0.991211
vt 1.470703 0.147461
vt 1.287109 0.991211
vt 0.986328 0.991211
vt 1.170898 0.991211
vt 1.170898 0.991211
vt 1.470703 0.147461
vt 1.659180 0.991211
vt 1.960938 0.991211
vt 1.775391 0.991211
vt 1.775391 0.991211
vt 1.470703 0.147461
vt 1.287109 0.991211
vt 0.986328 0.991211
vt 1.170898 0.991211
vt 1.170898 0.991211
vt 1.470703 0.147461
vt 1.659180 0.991211
vt 1.960938 0.991211
vt 1.775391 0.991211
vt 1.775391 0.991211
vt 1.470703 0.147461
vt 1.287109 0.991211
vt 0.986328 0.991211
vt 1.170898 0.991211
vt 1.170898 0.991211
vt 1.470703 0.147461
vt 1.659180 0.991211
vt 1.960938 0.991211
vt 1.775391 0.991211
vt 1.775391 0.991211
vt 1.470703 0.147461
vt 1.287109 0.991211
vt 0.986328 0.991211
vt 1.170898 0.991211
vt 1.170898 0.991211
vt 1.470703 0.147461
vt 1.659180 0.991211
vt 1.960938 0.991211
vt 1.775391 0.991211
vt 1.775391 0.991211
vt 1.470703 0.147461
vt 1.287109 0.991211
vt 0.986328 0.991211
vt 1.170898 0.991211
vt 1.170898 0.991211
vt 1.470703 0.147461
vt 1.659180 0.991211
vt 1.960938 0.991211
vt 1.775391 0.991211
vt 1.775391 0.991211
vt 1.470703 0.147461
vt 1.287109 0.991211
vt 0.986328 0.991211
vt 1.170898 0.991211
vt 1.170898 0.991211
vt 1.470703 0.147461
vt 1.659180 0.991211
vt 1.960938 0.991211
vt 1.775391 0.991211
vt 1.775391 0.991211
vt 1.470703 0.147461
vt 1.287109 0.991211
vt 0.986328 0.991211
vt 1.170898 0.991211
vt 1.984375 -0.974609
vt 1.484375 -0.974609
vt 1.984375 -0.613281
vt 1.484375 -0.613281
vt 1.000000 -0.974609
vt 1.013672 -0.974609
vt 1.000000 -0.613281
vt 1.013672 -0.613281
vt 1.513672 -0.974609
vt 1.999023 -0.974609
vt 1.513672 -0.613281
vt 1.999023 -0.613281
vt 0.000977 -1.015625
vt 1.000000 -1.015625
vt 0.000977 -1.980469
vt 1.000000 -1.980469
vt 1.000000 -1.015625
vt 0.000977 -1.015625
vt 1.000000 -1.980469
vt 0.000977 -1.980469
vt 1.000000 -1.015625
vt 0.000977 -1.015625
vt 1.000000 -1.980469
vt 0.000977 -1.980469
vt 1.000000 -1.015625
vt 0.000977 -1.015625
vt 1.000000 -1.980469
vt 0.000977 -1.980469
vt 0.000977 -1.015625
vt 1.000000 -1.015625
vt 0.000977 -1.980469
vt 1.000000 -1.980469
vt 0.000977 -1.015625
vt 1.000000 -1.015625
vt 0.000977 -1.980469
vt 1.000000 -1.980469
vt 0.000977 -1.015625
vt 1.000000 -1.015625
vt 0.000977 -1.980469
vt 1.000000 -1.980469
vt 1.000000 -1.980469
vt 1.000000 -1.015625
vt 0.000977 -1.980469
vt 0.000977 -1.015625
vt 0.000977 -1.980469
vt 0.000977 -1.015625
vt 1.000000 -1.980469
vt 1.000000 -1.015625
vt 0.000977 -1.980469
vt 0.000977 -1.015625
vt 1.000000 -1.980469
vt 1.000000 -1.015625
vt 0.000977 -1.980469
vt 0.000977 -1.015625
vt 1.000000 -1.980469
vt 1.000000 -1.015625
vt 1.000000 -1.980469
vt 1.000000 -1.015625
vt 0.000977 -1.980469
vt 0.000977 -1.015625
vt 1.000000 -1.980469
vt 1.000000 -1.015625
vt 0.000977 -1.980469
vt 0.000977 -1.015625
vt 1.000000 -1.980469
vt 1.000000 -1.015625
vt 0.000977 -1.980469
vt 0.000977 -1.015625
vt 1.999023 -0.368164
vt 1.951172 -0.568359
vt 1.428711 -0.572266
vt 1.361328 -0.371094
vt 1.361328 -0.371094
vt 1.951172 -0.568359
vt 1.394531 -0.212891
vt 1.974609 -0.214844
vt 1.999023 -0.368164
vt 1.428711 -0.572266
vt 1.974609 -0.214844
vt 1.394531 -0.212891
vt 1.999023 -0.368164
vt 1.951172 -0.568359
vt 1.428711 -0.572266
vt 1.361328 -0.371094
vt 1.361328 -0.371094
vt 1.951172 -0.568359
vt 1.394531 -0.212891
vt 1.974609 -0.214844
vt 1.999023 -0.368164
vt 1.428711 -0.572266
vt 1.974609 -0.214844
vt 1.394531 -0.212891
vt 1.999023 -0.368164
vt 1.951172 -0.568359
vt 1.428711 -0.572266
vt 1.361328 -0.371094
vt 1.361328 -0.371094
vt 1.951172 -0.568359
vt 1.394531 -0.212891
vt 1.974609 -0.214844
vt 1.999023 -0.368164
vt 1.428711 -0.572266
vt 1.974609 -0.214844
vt 1.394531 -0.212891
vt 1.999023 -0.368164
vt 1.951172 -0.568359
vt 1.428711 -0.572266
vt 1.361328 -0.371094
vt 1.361328 -0.371094
vt 1.951172 -0.568359
vt 1.394531 -0.212891
vt 1.974609 -0.214844
vt 1.999023 -0.368164
vt 1.428711 -0.572266
vt 1.974609 -0.214844
vt 1.394531 -0.212891
vt 1.999023 -0.368164
vt 1.951172 -0.568359
vt 1.428711 -0.572266
vt 1.361328 -0.371094
vt 1.361328 -0.371094
vt 1.951172 -0.568359
vt 1.394531 -0.212891
vt 1.974609 -0.214844
vt 1.999023 -0.368164
vt 1.428711 -0.572266
vt 1.974609 -0.214844
vt 1.394531 -0.212891
vt 1.999023 -0.368164
vt 1.951172 -0.568359
vt 1.428711 -0.572266
vt 1.361328 -0.371094
vt 1.361328 -0.371094
vt 1.951172 -0.568359
vt 1.394531 -0.212891
vt 1.974609 -0.214844
vt 1.999023 -0.368164
vt 1.428711 -0.572266
vt 1.974609 -0.214844
vt 1.394531 -0.212891
vt 1.999023 -0.368164
vt 1.951172 -0.568359
vt 1.428711 -0.572266
vt 1.361328 -0.371094
vt 1.361328 -0.371094
vt 1.951172 -0.568359
vt 1.394531 -0.212891
vt 1.974609 -0.214844
vt 1.999023 -0.368164
vt 1.428711 -0.572266
vt 1.974609 -0.214844
vt 1.394531 -0.212891
vt 1.999023 -0.368164
vt 1.951172 -0.568359
vt 1.428711 -0.572266
vt 1.361328 -0.371094
vt 1.361328 -0.371094
vt 1.951172 -0.568359
vt 1.394531 -0.212891
vt 1.974609 -0.214844
vt 1.999023 -0.368164
vt 1.428711 -0.572266
vt 1.974609 -0.214844
vt 1.394531 -0.212891
vt 1.999023 -0.368164
vt 1.951172 -0.568359
vt 1.428711 -0.572266
vt 1.361328 -0.371094
vt 1.361328 -0.371094
vt 1.951172 -0.568359
vt 1.394531 -0.212891
vt 1.974609 -0.214844
vt 1.999023 -0.368164
vt 1.428711 -0.572266
vt 1.974609 -0.214844
vt 1.394531 -0.212891
vt 1.999023 -0.368164
vt 1.951172 -0.568359
vt 1.428711 -0.572266
vt 1.361328 -0.371094
vt 1.361328 -0.371094
vt 1.951172 -0.568359
vt 1.394531 -0.212891
vt 1.974609 -0.214844
vt 1.999023 -0.368164
vt 1.428711 -0.572266
vt 1.974609 -0.214844
vt 1.394531 -0.212891
vt 1.999023 -0.368164
vt 1.951172 -0.568359
vt 1.428711 -0.572266
vt 1.361328 -0.371094
vt 1.361328 -0.371094
vt 1.951172 -0.568359
vt 1.394531 -0.212891
vt 1.974609 -0.214844
vt 1.999023 -0.368164
vt 1.428711 -0.572266
vt 1.974609 -0.214844
vt 1.394531 -0.212891
vt 1.999023 -0.368164
vt 1.951172 -0.568359
vt 1.428711 -0.572266
vt 1.361328 -0.371094
vt 1.361328 -0.371094
vt 1.951172 -0.568359
vt 1.394531 -0.212891
vt 1.974609 -0.214844
vt 1.999023 -0.368164
vt 1.428711 -0.572266
vt 1.974609 -0.214844
vt 1.394531 -0.212891
vt 1.999023 -0.368164
vt 1.951172 -0.568359
vt 1.428711 -0.572266
vt 1.361328 -0.371094
vt 1.361328 -0.371094
vt 1.951172 -0.568359
vt 1.394531 -0.212891
vt 1.974609 -0.214844
vt 1.999023 -0.368164
vt 1.428711 -0.572266
vt 1.974609 -0.214844
vt 1.394531 -0.212891
vt 1.999023 -0.368164
vt 1.951172 -0.568359
vt 1.428711 -0.572266
vt 1.361328 -0.371094
vt 1.361328 -0.371094
vt 1.951172 -0.568359
vt 1.394531 -0.212891
vt 1.974609 -0.214844
vt 1.999023 -0.368164
vt 1.428711 -0.572266
vt 1.974609 -0.214844
vt 1.394531 -0.212891
vt 1.999023 -0.368164
vt 1.951172 -0.568359
vt 1.428711 -0.572266
vt 1.361328 -0.371094
vt 1.361328 -0.371094
vt 1.951172 -0.568359
vt 1.394531 -0.212891
vt 1.974609 -0.214844
vt 1.999023 -0.368164
vt 1.428711 -0.572266
vt 1.974609 -0.214844
vt 1.394531 -0.212891
vt 1.999023 -0.368164
vt 1.951172 -0.568359
vt 1.428711 -0.572266
vt 1.361328 -0.371094
vt 1.361328 -0.371094
vt 1.951172 -0.568359
vt 1.394531 -0.212891
vt 1.974609 -0.214844
vt 1.999023 -0.368164
vt 1.428711 -0.572266
vt 1.974609 -0.214844
vt 1.394531 -0.212891
vt 1.999023 -0.368164
vt 1.951172 -0.568359
vt 1.428711 -0.572266
vt 1.361328 -0.371094
vt 1.361328 -0.371094
vt 1.951172 -0.568359
vt 1.394531 -0.212891
vt 1.974609 -0.214844
vt 1.999023 -0.368164
vt 1.428711 -0.572266
vt 1.974609 -0.214844
vt 1.394531 -0.212891
vt 1.999023 -0.368164
vt 1.951172 -0.568359
vt 1.428711 -0.572266
vt 1.361328 -0.371094
vt 1.361328 -0.371094
vt 1.951172 -0.568359
vt 1.394531 -0.212891
vt 1.974609 -0.214844
vt 1.999023 -0.368164
vt 1.428711 -0.572266
vt 1.974609 -0.214844
vt 1.394531 -0.212891
vt 1.999023 -0.368164
vt 1.951172 -0.568359
vt 1.428711 -0.572266
vt 1.361328 -0.371094
vt 1.361328 -0.371094
vt 1.951172 -0.568359
vt 1.394531 -0.212891
vt 1.974609 -0.214844
vt 1.999023 -0.368164
vt 1.428711 -0.572266
vt 1.974609 -0.214844
vt 1.394531 -0.212891
vt 1.999023 -0.368164
vt 1.951172 -0.568359
vt 1.428711 -0.572266
vt 1.361328 -0.371094
vt 1.361328 -0.371094
vt 1.951172 -0.568359
vt 1.394531 -0.212891
vt 1.974609 -0.214844
vt 1.999023 -0.368164
vt 1.428711 -0.572266
vt 1.974609 -0.214844
vt 1.394531 -0.212891
vt 1.999023 -0.368164
vt 1.951172 -0.568359
vt 1.428711 -0.572266
vt 1.361328 -0.371094
vt 1.361328 -0.371094
vt 1.951172 -0.568359
vt 1.394531 -0.212891
vt 1.974609 -0.214844
vt 1.999023 -0.368164
vt 1.428711 -0.572266
vt 1.974609 -0.214844
vt 1.394531 -0.212891
vt 1.111328 -0.294922
vt 1.487305 -0.072266
vt 1.875000 -0.276367
vt 1.519531 0.023438
vt 1.999023 -0.613281
vt 1.984375 -0.613281
vt 1.519531 0.023438
vt 1.984375 -0.613281
vt 1.484375 -0.613281
vt 1.519531 0.023438
vt 1.484375 -0.613281
vt 1.000000 -0.613281
vt 1.519531 0.023438
vt 1.000000 -0.613281
vt 1.013672 -0.613281
vt 1.519531 0.023438
vt 1.013672 -0.613281
vt 1.513672 -0.613281
vt 1.519531 0.023438
vt 1.513672 -0.613281
vt 1.999023 -0.613281
vt 0.105469 -0.201172
vt -0.322266 -0.458984
vt -0.414062 -0.178711
vt 0.105469 -0.201172
vt -0.322266 -0.458984
vt -0.414062 -0.178711
vt 0.105469 -0.201172
vt -0.322266 -0.458984
vt -0.414062 -0.178711
vt 0.105469 -0.201172
vt -0.322266 -0.458984
vt -0.414062 -0.178711
vt 0.105469 -0.201172
vt -0.322266 -0.458984
vt -0.414062 -0.178711
vt 0.105469 -0.201172
vt -0.322266 -0.458984
vt -0.414062 -0.178711
vt 0.105469 -0.201172
vt -0.322266 -0.458984
vt -0.414062 -0.178711
vt 0.105469 -0.201172
vt -0.322266 -0.458984
vt -0.414062 -0.178711
vt 0.105469 -0.201172
vt -0.322266 -0.458984
vt -0.414062 -0.178711
vt 0.105469 -0.201172
vt -0.322266 -0.458984
vt -0.414062 -0.178711
vt 0.105469 -0.201172
vt -0.322266 -0.458984
vt -0.414062 -0.178711
vt 0.105469 -0.201172
vt -0.322266 -0.458984
vt -0.414062 -0.178711
vt 0.105469 -0.201172
vt -0.322266 -0.458984
vt -0.414062 -0.178711
vt 0.105469 -0.201172
vt -0.322266 -0.458984
vt -0.414062 -0.178711
vt 0.105469 -0.201172
vt -0.322266 -0.458984
vt -0.414062 -0.178711
vt 0.105469 -0.201172
vt -0.322266 -0.458984
vt -0.414062 -0.178711
vt 0.105469 -0.201172
vt -0.322266 -0.458984
vt -0.414062 -0.178711
vt 0.105469 -0.201172
vt -0.322266 -0.458984
vt -0.414062 -0.178711
vt 0.105469 -0.201172
vt -0.322266 -0.458984
vt -0.414062 -0.178711
vt 0.105469 -0.201172
vt -0.322266 -0.458984
vt -0.414062 -0.178711
vt 0.105469 -0.201172
vt -0.322266 -0.458984
vt -0.414062 -0.178711
vt 1.349609 -0.733398
vt 1.322266 -0.798828
vt 1.180664 -0.706055
vt 1.349609 -0.733398
vt 1.500977 -0.752930
vt 1.322266 -0.798828
vt 1.875000 -0.276367
vt 1.487305 -0.072266
vt 1.111328 -0.294922
vn -0.0051 -0.9997 -0.0228
vn 0.0031 -0.9996 -0.0278
vn -0.0040 -0.9998 -0.0179
vn 0.0054 -0.9997 -0.0235
vn 0.0149 -0.9996 -0.0237
vn 0.0046 -0.9998 -0.0174
vn 0.0053 -0.9997 -0.0228
vn 0.0041 -0.9998 -0.0177
vn 0.0151 -0.9997 -0.0188
vn 0.0187 -0.9997 -0.0167
vn 0.0118 -0.9998 -0.0138
vn 0.0110 -0.9997 -0.0219
vn 0.0170 -0.9996 -0.0219
vn 0.0120 -0.9998 -0.0149
vn 0.0240 -0.9996 -0.0133
vn 0.0356 -0.9992 -0.0158
vn 0.0162 -0.9998 -0.0091
vn 0.0063 -1.0000 -0.0030
vn 0.0049 -1.0000 -0.0024
vn 0.0075 -1.0000 -0.0010
vn 0.0074 -1.0000 0.0014
vn 0.0055 -1.0000 0.0002
vn 0.0071 -1.0000 -0.0015
vn 0.0085 -1.0000 -0.0001
vn 0.0054 -1.0000 0.0000
vn 0.0076 -1.0000 0.0037
vn 0.0061 -1.0000 0.0046
vn 0.0048 -1.0000 0.0025
vn 0.0071 -1.0000 0.0018
vn 0.0076 -1.0000 0.0035
vn 0.0049 -1.0000 0.0024
vn 0.0053 -1.0000 0.0066
vn 0.0035 -1.0000 0.0067
vn 0.0033 -1.0000 0.0043
vn 0.0056 -1.0000 0.0046
vn 0.0054 -1.0000 0.0065
vn 0.0034 -1.0000 0.0043
vn 0.0019 -1.0000 0.0083
vn 0.0036 -0.9999 0.0129
vn 0.0010 -1.0000 0.0053
vn -0.0007 -1.0000 0.0000
vn -0.0007 -1.0000 0.0003
vn 0.0003 -1.0000 0.0002
vn -0.0000 -1.0000 0.0000
vn -0.0000 -1.0000 0.0004
vn -0.0145 -0.9997 -0.0183
vn -0.0263 -0.9992 -0.0293
vn -0.0156 -0.9997 -0.0178
vn 0.0060 -1.0000 0.0049
vn -0.0013 -1.0000 -0.0054
vn -0.0048 -1.0000 -0.0086
vn -0.0043 -1.0000 -0.0016
vn -0.0071 -1.0000 -0.0018
vn -0.0085 -1.0000 -0.0038
vn -0.0060 -1.0000 -0.0053
vn -0.0049 -1.0000 -0.0025
vn -0.0076 -1.0000 -0.0037
vn -0.0055 -1.0000 -0.0000
vn -0.0071 -1.0000 0.0015
vn -0.0084 -1.0000 0.0001
vn -0.0074 -1.0000 -0.0015
vn -0.0055 -1.0000 -0.0002
vn -0.0085 -1.0000 -0.0000
vn -0.0049 -1.0000 0.0024
vn -0.0057 -1.0000 0.0048
vn -0.0076 -1.0000 0.0038
vn -0.0074 -1.0000 0.0018
vn -0.0046 -1.0000 0.0020
vn -0.0080 -1.0000 0.0038
vn -0.0027 -1.0000 0.0045
vn -0.0039 -1.0000 0.0060
vn -0.0049 -1.0000 0.0076
vn -0.3740 0.9260 -0.0513
vn -0.3077 0.9425 0.1304
vn -0.5389 0.8391 -0.0740
vn -0.2114 0.8285 -0.5185
vn 0.0428 0.9376 -0.3450
vn -0.1462 0.9220 -0.3585
vn 0.2454 0.9164 -0.3162
vn 0.3995 0.9151 0.0548
vn 0.1825 0.9600 -0.2123
vn 0.5757 0.8138 0.0790
vn 0.2131 0.8256 0.5224
vn 0.0980 0.9620 0.2550
vn 0.2144 0.8232 0.5258
vn -0.2563 0.9653 -0.0507
vn -0.2331 0.9249 0.3003
vn -0.3355 0.8371 0.4322
vn -0.3592 0.9260 0.1160
vn -0.0419 0.9643 0.2614
vn -0.5177 0.8391 0.1672
vn -0.4155 0.8285 -0.3754
vn -0.2039 0.9629 -0.1767
vn -0.4128 0.8309 -0.3731
vn 0.2646 0.9590 -0.1013
vn 0.0839 0.9164 -0.3914
vn 0.1211 0.8162 -0.5649
vn 0.3837 0.9151 -0.1239
vn 0.0723 0.9600 -0.2705
vn 0.5530 0.8138 -0.1786
vn 0.4186 0.8256 0.3783
vn 0.1989 0.9620 0.1873
vn 0.4213 0.8232 0.3807
vn -0.2529 0.9653 0.0655
vn -0.0797 0.9249 0.3717
vn -0.1147 0.8370 0.5350
vn -0.2733 0.9260 0.2604
vn 0.0757 0.9643 0.2537
vn -0.3939 0.8391 0.3752
vn -0.5372 0.8285 -0.1580
vn -0.2604 0.9629 -0.0707
vn -0.5338 0.8309 -0.1570
vn 0.1945 0.9590 -0.2061
vn -0.0942 0.9164 -0.3891
vn -0.1360 0.8162 -0.5615
vn 0.2920 0.9151 -0.2782
vn -0.0522 0.9600 -0.2751
vn 0.4208 0.8138 -0.4009
vn 0.5413 0.8256 0.1592
vn 0.2604 0.9620 0.0824
vn 0.5447 0.8232 0.1602
vn -0.1995 0.9653 0.1688
vn 0.0895 0.9249 0.3695
vn 0.1288 0.8371 0.5318
vn -0.1333 0.9260 0.3532
vn 0.1783 0.9643 0.1957
vn -0.1921 0.8391 0.5090
vn -0.5525 0.8285 0.0907
vn -0.2653 0.9629 0.0492
vn -0.5491 0.8309 0.0902
vn 0.0858 0.9590 -0.2701
vn -0.2537 0.9164 -0.3096
vn -0.3661 0.8163 -0.4469
vn 0.1424 0.9151 -0.3773
vn -0.1664 0.9600 -0.2252
vn 0.2052 0.8138 -0.5437
vn 0.5567 0.8256 -0.0914
vn 0.2704 0.9620 -0.0387
vn 0.5603 0.8232 -0.0920
vn -0.1065 0.9653 0.2386
vn 0.2409 0.9249 0.2941
vn 0.3467 0.8370 0.4233
vn 0.0332 0.9260 0.3760
vn 0.2456 0.9643 0.0990
vn 0.0478 0.8391 0.5419
vn -0.4584 0.8285 0.3215
vn -0.2176 0.9629 0.1595
vn -0.4556 0.8309 0.3195
vn -0.0399 0.9590 -0.2805
vn -0.3629 0.9164 -0.1689
vn -0.5237 0.8162 -0.2438
vn -0.0354 0.9151 -0.4017
vn -0.2476 0.9600 -0.1307
vn -0.0511 0.8138 -0.5789
vn 0.4619 0.8256 -0.3239
vn 0.2268 0.9620 -0.1522
vn 0.4649 0.8232 -0.3260
vn 0.0076 0.9653 0.2612
vn 0.3447 0.9249 0.1604
vn 0.4960 0.8370 0.2309
vn 0.1930 0.9260 0.3244
vn 0.2642 0.9643 -0.0174
vn 0.2782 0.8391 0.4675
vn -0.2736 0.8285 0.4886
vn -0.1269 0.9629 0.2381
vn -0.2718 0.8309 0.4855
vn -0.1577 0.9590 -0.2354
vn -0.4003 0.9164 0.0053
vn -0.5777 0.8162 0.0076
vn -0.2062 0.9151 -0.3465
vn -0.2146 0.9766 -0.0168
vn 0.1919 0.9196 -0.3427
vn 0.2774 0.8232 -0.4954
vn 0.0828 0.9806 0.1778
vn 0.3801 0.9249 -0.0050
vn 0.5471 0.8370 -0.0072
vn 0.3147 0.9260 0.2085
vn 0.2305 0.9643 -0.1303
vn 0.4535 0.8391 0.3005
vn -0.0345 0.8285 0.5589
vn -0.0110 0.9629 0.2696
vn -0.0343 0.8309 0.5554
vn -0.2442 0.9590 -0.1437
vn -0.3583 0.9164 0.1784
vn -0.5171 0.8162 0.2575
vn -0.3361 0.9151 -0.2227
vn -0.2565 0.9600 0.1121
vn -0.4844 0.8138 -0.3210
vn 0.0347 0.8256 -0.5631
vn 0.0224 0.9620 -0.2723
vn 0.0349 0.8232 -0.5667
vn 0.2089 0.9653 0.1569
vn 0.3403 0.9249 -0.1694
vn 0.4898 0.8371 -0.2438
vn 0.3740 0.9260 0.0513
vn 0.1511 0.9643 -0.2174
vn 0.5390 0.8391 0.0740
vn 0.2114 0.8285 0.5185
vn 0.1070 0.9629 0.2477
vn 0.2101 0.8309 0.5152
vn -0.2824 0.9590 -0.0235
vn -0.2454 0.9164 0.3162
vn -0.3542 0.8162 0.4564
vn -0.3995 0.9151 -0.0549
vn -0.1825 0.9600 0.2123
vn -0.5757 0.8138 -0.0790
vn -0.2130 0.8257 -0.5224
vn -0.0979 0.9620 -0.2550
vn -0.2144 0.8232 -0.5257
vn 0.2563 0.9653 0.0508
vn 0.2331 0.9249 -0.3003
vn 0.3355 0.8371 -0.4322
vn 0.3592 0.9260 -0.1160
vn 0.0419 0.9643 -0.2614
vn 0.5177 0.8391 -0.1672
vn 0.4154 0.8285 0.3754
vn 0.2039 0.9629 0.1767
vn 0.4128 0.8309 0.3731
vn -0.2646 0.9590 0.1013
vn -0.0839 0.9164 0.3914
vn -0.1211 0.8162 0.5649
vn -0.3837 0.9151 0.1239
vn -0.0723 0.9600 0.2705
vn -0.5530 0.8138 0.1786
vn -0.4186 0.8256 -0.3783
vn -0.1989 0.9620 -0.1873
vn -0.4212 0.8232 -0.3807
vn 0.2529 0.9653 -0.0655
vn 0.0797 0.9249 -0.3717
vn 0.1147 0.8370 -0.5350
vn 0.2733 0.9260 -0.2604
vn -0.0757 0.9643 -0.2537
vn 0.3939 0.8391 -0.3753
vn 0.5372 0.8285 0.1580
vn 0.2604 0.9629 0.0708
vn 0.5338 0.8309 0.1570
vn -0.1944 0.9590 0.2061
vn 0.0942 0.9164 0.3891
vn 0.1359 0.8162 0.5615
vn -0.2920 0.9151 0.2781
vn 0.0522 0.9600 0.2750
vn -0.4207 0.8138 0.4008
vn -0.5413 0.8256 -0.1592
vn -0.2605 0.9620 -0.0824
vn -0.5447 0.8232 -0.1602
vn 0.1995 0.9653 -0.1688
vn -0.0895 0.9249 -0.3695
vn -0.1288 0.8371 -0.5318
vn 0.1333 0.9260 -0.3532
vn -0.1783 0.9643 -0.1957
vn 0.1921 0.8391 -0.5090
vn 0.5525 0.8285 -0.0907
vn 0.2653 0.9629 -0.0493
vn 0.5491 0.8309 -0.0901
vn -0.0858 0.9590 0.2701
vn 0.2537 0.9164 0.3097
vn 0.3661 0.8162 0.4469
vn -0.1424 0.9151 0.3773
vn 0.1664 0.9600 0.2252
vn -0.2052 0.8138 0.5437
vn -0.5567 0.8256 0.0914
vn -0.2704 0.9620 0.0387
vn -0.5603 0.8232 0.0920
vn 0.1065 0.9653 -0.2386
vn -0.2409 0.9249 -0.2941
vn -0.3467 0.8371 -0.4232
vn -0.0332 0.9260 -0.3760
vn -0.2455 0.9643 -0.0990
vn -0.0478 0.8391 -0.5419
vn 0.4584 0.8285 -0.3215
vn 0.2176 0.9629 -0.1594
vn 0.4556 0.8309 -0.3195
vn 0.0399 0.9590 0.2806
vn 0.3629 0.9164 0.1689
vn 0.5237 0.8162 0.2438
vn 0.0354 0.9151 0.4017
vn 0.2476 0.9600 0.1307
vn 0.0511 0.8138 0.5789
vn -0.4619 0.8256 0.3239
vn -0.2268 0.9620 0.1522
vn -0.4649 0.8232 0.3260
vn -0.0076 0.9653 -0.2612
vn -0.3446 0.9249 -0.1604
vn -0.4960 0.8371 -0.2309
vn -0.1930 0.9260 -0.3244
vn -0.2642 0.9643 0.0174
vn -0.2782 0.8391 -0.4675
vn 0.2736 0.8285 -0.4886
vn 0.1269 0.9629 -0.2381
vn 0.2718 0.8309 -0.4855
vn 0.1577 0.9590 0.2355
vn 0.4003 0.9164 -0.0052
vn 0.5777 0.8162 -0.0076
vn 0.2062 0.9151 0.3465
vn 0.2798 0.9600 0.0103
vn 0.2971 0.8138 0.4994
vn -0.2756 0.8256 0.4923
vn -0.1383 0.9620 0.2356
vn -0.2774 0.8231 0.4954
vn -0.1201 0.9653 -0.2320
vn -0.3801 0.9249 0.0050
vn -0.5471 0.8370 0.0072
vn -0.3147 0.9260 -0.2085
vn -0.2305 0.9643 0.1303
vn -0.4535 0.8391 -0.3005
vn 0.0345 0.8285 -0.5589
vn 0.0110 0.9629 -0.2696
vn 0.0343 0.8309 -0.5554
vn 0.2442 0.9590 0.1437
vn 0.3583 0.9164 -0.1784
vn 0.5172 0.8162 -0.2575
vn 0.3361 0.9151 0.2228
vn 0.2565 0.9600 -0.1121
vn 0.4844 0.8138 0.3210
vn -0.0348 0.8256 0.5631
vn -0.0224 0.9620 0.2722
vn -0.0350 0.8231 0.5667
vn -0.2089 0.9653 -0.1569
vn -0.3403 0.9249 0.1694
vn -0.4898 0.8371 0.2438
vn -0.2305 0.9643 0.1302
vn -0.4535 0.8390 -0.3005
vn 0.3584 0.9164 -0.1784
vn 0.2566 0.9600 -0.1121
vn 0.4844 0.8138 0.3211
vn -0.0224 0.9620 0.2723
vn -0.0350 0.8232 0.5667
vn -0.4898 0.8370 0.2438
vn -0.3593 0.9260 0.1160
vn -0.5177 0.8390 0.1672
vn -0.4155 0.8285 -0.3755
vn 0.0840 0.9164 -0.3914
vn 0.1212 0.8162 -0.5649
vn 0.3838 0.9151 -0.1239
vn 0.4213 0.8231 0.3807
vn -0.2530 0.9653 0.0655
vn -0.1148 0.8370 0.5350
vn 0.0587 0.9425 0.3290
vn -0.1921 0.8390 0.5090
vn -0.5526 0.8285 0.0907
vn -0.3268 0.9376 -0.1185
vn -0.3821 0.9220 0.0627
vn -0.2537 0.9164 -0.3097
vn 0.5568 0.8256 -0.0914
vn 0.5603 0.8231 -0.0920
vn 0.2642 0.9643 -0.0173
vn 0.2782 0.8390 0.4676
vn -0.2719 0.8309 0.4855
vn -0.1577 0.9590 -0.2355
vn -0.4003 0.9164 0.0052
vn -0.2062 0.9151 -0.3466
vn -0.2798 0.9600 -0.0104
vn -0.2972 0.8138 -0.4994
vn 0.2757 0.8256 -0.4923
vn 0.1383 0.9620 -0.2355
vn 0.2774 0.8231 -0.4954
vn 0.1201 0.9653 0.2320
vn 0.3740 0.9260 0.0514
vn 0.1512 0.9643 -0.2174
vn 0.5390 0.8390 0.0740
vn 0.2114 0.8285 0.5186
vn 0.2101 0.8309 0.5153
vn -0.2455 0.9164 0.3162
vn -0.3543 0.8162 0.4564
vn -0.5758 0.8138 -0.0791
vn -0.2130 0.8256 -0.5225
vn -0.2144 0.8231 -0.5258
vn 0.3355 0.8370 -0.4322
vn 0.2734 0.9260 -0.2604
vn 0.3940 0.8390 -0.3752
vn 0.5338 0.8309 0.1571
vn -0.1945 0.9590 0.2061
vn 0.0522 0.9600 0.2751
vn -0.4208 0.8138 0.4009
vn -0.2604 0.9620 -0.0825
vn 0.1995 0.9652 -0.1688
vn -0.0894 0.9249 -0.3695
vn -0.1287 0.8370 -0.5318
vn -0.0331 0.9260 -0.3761
vn -0.0477 0.8390 -0.5420
vn 0.4585 0.8285 -0.3215
vn 0.3629 0.9164 0.1690
vn 0.5238 0.8162 0.2439
vn 0.0510 0.8138 0.5789
vn -0.4620 0.8256 0.3239
vn -0.4649 0.8231 0.3260
vn -0.3446 0.9249 -0.1605
vn -0.4960 0.8370 -0.2309
vn 0.0000 1.0000 0.0000
vn 0.3740 -0.9260 0.0513
vn 0.0958 -0.9624 0.2542
vn 0.5400 -0.8384 0.0741
vn 0.3369 -0.8356 -0.4340
vn 0.1659 -0.9641 -0.2075
vn 0.3354 -0.8371 -0.4322
vn -0.2799 -0.9587 -0.0507
vn -0.1483 -0.9196 -0.3637
vn -0.2144 -0.8231 -0.5258
vn -0.3995 -0.9151 -0.0548
vn -0.1100 -0.9623 -0.2489
vn -0.5746 -0.8147 -0.0789
vn -0.3527 -0.8180 0.4544
vn -0.1673 -0.9606 0.2218
vn -0.3542 -0.8162 0.4564
vn 0.2583 -0.9658 0.0229
vn 0.1462 -0.9220 0.3585
vn 0.2101 -0.8309 0.5152
vn 0.3592 -0.9260 -0.1160
vn 0.1966 -0.9624 0.1875
vn 0.5187 -0.8384 -0.1675
vn 0.1152 -0.8355 -0.5372
vn 0.0594 -0.9641 -0.2590
vn 0.1147 -0.8370 -0.5350
vn -0.2742 -0.9587 0.0758
vn -0.2914 -0.9196 -0.2633
vn -0.4213 -0.8232 -0.3807
vn -0.3837 -0.9151 0.1239
vn -0.2071 -0.9623 -0.1765
vn -0.5518 -0.8147 0.1782
vn -0.1206 -0.8180 0.5624
vn -0.0545 -0.9606 0.2725
vn -0.1211 -0.8162 0.5649
vn 0.2427 -0.9658 -0.0915
vn 0.2873 -0.9220 0.2596
vn 0.4128 -0.8309 0.3731
vn 0.2733 -0.9260 -0.2604
vn 0.2585 -0.9624 0.0836
vn 0.3946 -0.8384 -0.3760
vn -0.1293 -0.8355 -0.5340
vn -0.0589 -0.9641 -0.2591
vn -0.1288 -0.8371 -0.5317
vn -0.2141 -0.9587 0.1872
vn -0.3768 -0.9196 -0.1108
vn -0.5447 -0.8232 -0.1602
vn -0.2920 -0.9151 0.2782
vn -0.2632 -0.9623 -0.0691
vn -0.4199 -0.8147 0.4001
vn 0.1353 -0.8180 0.5590
vn 0.0691 -0.9606 0.2691
vn 0.1359 -0.8162 0.5615
vn 0.1789 -0.9658 -0.1877
vn 0.3715 -0.9220 0.1092
vn 0.5338 -0.8309 0.1570
vn 0.1333 -0.9260 -0.3532
vn 0.2692 -0.9624 -0.0369
vn 0.1925 -0.8384 -0.5100
vn -0.3482 -0.8355 -0.4250
vn -0.1654 -0.9641 -0.2079
vn -0.3467 -0.8370 -0.4233
vn -0.1117 -0.9587 0.2616
vn -0.3876 -0.9196 0.0636
vn -0.5603 -0.8232 0.0920
vn -0.1424 -0.9151 0.3773
vn -0.2671 -0.9623 0.0519
vn -0.2047 -0.8147 0.5425
vn 0.3645 -0.8180 0.4449
vn 0.1790 -0.9606 0.2125
vn 0.3661 -0.8163 0.4469
vn 0.0798 -0.9658 -0.2468
vn 0.3821 -0.9220 -0.0628
vn 0.5491 -0.8309 -0.0902
vn -0.0332 -0.9260 -0.3760
vn 0.2266 -0.9624 -0.1500
vn -0.0479 -0.8384 -0.5430
vn -0.4981 -0.8355 -0.2319
vn -0.2392 -0.9641 -0.1156
vn -0.4960 -0.8370 -0.2309
vn 0.0128 -0.9587 0.2842
vn -0.3216 -0.9196 0.2255
vn -0.4649 -0.8232 0.3260
vn 0.0354 -0.9151 0.4017
vn -0.2182 -0.9623 0.1627
vn 0.0510 -0.8147 0.5777
vn 0.5214 -0.8180 0.2427
vn 0.2535 -0.9606 0.1138
vn 0.5237 -0.8162 0.2438
vn -0.0352 -0.9658 -0.2569
vn 0.3170 -0.9220 -0.2223
vn 0.4556 -0.8309 -0.3195
vn -0.1930 -0.9260 -0.3244
vn 0.1390 -0.9624 -0.2334
vn -0.2787 -0.8384 -0.4684
vn -0.5494 -0.8355 0.0073
vn -0.2657 -0.9641 -0.0003
vn -0.5471 -0.8370 0.0072
vn 0.1349 -0.9587 0.2505
vn -0.1919 -0.9196 0.3428
vn -0.2774 -0.8232 0.4954
vn 0.2062 -0.9151 0.3465
vn -0.1260 -0.9623 0.2412
vn 0.2965 -0.8147 0.4984
vn 0.5751 -0.8180 -0.0076
vn 0.2778 -0.9606 -0.0075
vn 0.5777 -0.8162 -0.0076
vn -0.1432 -0.9658 -0.2162
vn 0.1892 -0.9220 -0.3379
vn 0.2718 -0.8309 -0.4855
vn -0.3147 -0.9260 -0.2085
vn 0.0240 -0.9624 -0.2707
vn -0.4544 -0.8384 -0.3011
vn -0.4918 -0.8356 0.2449
vn -0.2395 -0.9641 0.1150
vn -0.4898 -0.8371 0.2439
vn 0.2302 -0.9587 0.1671
vn -0.0242 -0.9196 0.3920
vn -0.0350 -0.8232 0.5667
vn 0.3361 -0.9151 0.2227
vn -0.0088 -0.9623 0.2720
vn 0.4834 -0.8147 0.3203
vn 0.5149 -0.8180 -0.2563
vn 0.2470 -0.9606 -0.1273
vn 0.5172 -0.8162 -0.2575
vn -0.2228 -0.9658 -0.1327
vn 0.0239 -0.9220 -0.3865
vn 0.0343 -0.8309 -0.5554
vn -0.3740 -0.9260 -0.0514
vn -0.0958 -0.9624 -0.2543
vn -0.5400 -0.8384 -0.0741
vn -0.3369 -0.8356 0.4340
vn -0.1659 -0.9641 0.2075
vn -0.3355 -0.8371 0.4322
vn 0.2799 -0.9587 0.0507
vn 0.1483 -0.9196 0.3637
vn 0.2144 -0.8232 0.5257
vn 0.3995 -0.9151 0.0549
vn 0.1100 -0.9623 0.2489
vn 0.5745 -0.8147 0.0789
vn 0.3527 -0.8180 -0.4544
vn 0.1673 -0.9606 -0.2218
vn 0.3542 -0.8162 -0.4564
vn -0.2583 -0.9658 -0.0229
vn -0.1462 -0.9220 -0.3586
vn -0.2101 -0.8309 -0.5152
vn -0.3592 -0.9260 0.1160
vn -0.1966 -0.9624 -0.1875
vn -0.5187 -0.8384 0.1675
vn -0.1152 -0.8355 0.5372
vn -0.0594 -0.9641 0.2589
vn -0.1147 -0.8370 0.5350
vn 0.2742 -0.9587 -0.0758
vn 0.2914 -0.9196 0.2634
vn 0.4213 -0.8232 0.3807
vn 0.3837 -0.9151 -0.1239
vn 0.2071 -0.9623 0.1765
vn 0.5519 -0.8147 -0.1782
vn 0.1206 -0.8180 -0.5624
vn 0.0545 -0.9606 -0.2725
vn 0.1211 -0.8162 -0.5649
vn -0.2427 -0.9658 0.0915
vn -0.2873 -0.9220 -0.2596
vn -0.4128 -0.8309 -0.3731
vn -0.2733 -0.9260 0.2604
vn -0.2585 -0.9624 -0.0836
vn -0.3947 -0.8384 0.3760
vn 0.1293 -0.8355 0.5340
vn 0.0588 -0.9641 0.2591
vn 0.1288 -0.8371 0.5318
vn 0.2142 -0.9587 -0.1872
vn 0.3768 -0.9196 0.1108
vn 0.5447 -0.8232 0.1602
vn 0.2920 -0.9151 -0.2781
vn 0.2632 -0.9623 0.0692
vn 0.4199 -0.8147 -0.4000
vn -0.1353 -0.8180 -0.5590
vn -0.0691 -0.9606 -0.2691
vn -0.1359 -0.8162 -0.5615
vn -0.1789 -0.9658 0.1877
vn -0.3715 -0.9220 -0.1093
vn -0.5338 -0.8309 -0.1570
vn -0.1333 -0.9260 0.3532
vn -0.2692 -0.9624 0.0368
vn -0.1925 -0.8384 0.5100
vn 0.3482 -0.8355 0.4250
vn 0.1654 -0.9641 0.2079
vn 0.3467 -0.8371 0.4232
vn 0.1117 -0.9587 -0.2616
vn 0.3876 -0.9196 -0.0637
vn 0.5603 -0.8232 -0.0920
vn 0.1424 -0.9151 -0.3773
vn 0.2671 -0.9623 -0.0519
vn 0.2047 -0.8147 -0.5426
vn -0.3645 -0.8180 -0.4449
vn -0.1790 -0.9606 -0.2125
vn -0.3661 -0.8162 -0.4470
vn -0.0797 -0.9658 0.2468
vn -0.3821 -0.9220 0.0627
vn -0.5491 -0.8309 0.0901
vn 0.0332 -0.9260 0.3760
vn -0.2266 -0.9624 0.1500
vn 0.0479 -0.8384 0.5430
vn 0.4981 -0.8356 0.2319
vn 0.2392 -0.9641 0.1156
vn 0.4960 -0.8371 0.2309
vn -0.0129 -0.9587 -0.2842
vn 0.3216 -0.9196 -0.2255
vn 0.4649 -0.8232 -0.3260
vn -0.0354 -0.9151 -0.4017
vn 0.2181 -0.9623 -0.1626
vn -0.0509 -0.8147 -0.5777
vn -0.5214 -0.8180 -0.2427
vn -0.2535 -0.9606 -0.1138
vn -0.5237 -0.8162 -0.2438
vn 0.0352 -0.9658 0.2569
vn -0.3170 -0.9220 0.2223
vn -0.4556 -0.8309 0.3195
vn 0.1930 -0.9260 0.3244
vn -0.1390 -0.9624 0.2334
vn 0.2787 -0.8384 0.4685
vn 0.5494 -0.8356 -0.0072
vn 0.2657 -0.9641 0.0004
vn 0.5471 -0.8371 -0.0072
vn -0.1349 -0.9587 -0.2505
vn 0.1919 -0.9196 -0.3427
vn 0.2774 -0.8232 -0.4954
vn -0.2062 -0.9151 -0.3465
vn 0.1260 -0.9623 -0.2412
vn -0.2966 -0.8147 -0.4983
vn -0.5751 -0.8180 0.0075
vn -0.2778 -0.9606 0.0074
vn -0.5777 -0.8162 0.0076
vn 0.1432 -0.9658 0.2162
vn -0.1892 -0.9220 0.3379
vn -0.2718 -0.8309 0.4855
vn 0.3147 -0.9260 0.2085
vn -0.0240 -0.9624 0.2707
vn 0.4544 -0.8384 0.3011
vn 0.4918 -0.8355 -0.2448
vn 0.2395 -0.9641 -0.1150
vn 0.4898 -0.8370 -0.2438
vn -0.2302 -0.9587 -0.1671
vn 0.0242 -0.9196 -0.3921
vn 0.0350 -0.8232 -0.5667
vn -0.3361 -0.9151 -0.2228
vn 0.0089 -0.9623 -0.2720
vn -0.4834 -0.8147 -0.3204
vn -0.5149 -0.8180 0.2563
vn -0.2470 -0.9606 0.1272
vn -0.5172 -0.8163 0.2574
vn 0.2229 -0.9658 0.1327
vn -0.0239 -0.9220 0.3865
vn -0.0343 -0.8309 0.5554
vn 0.4919 -0.8355 -0.2449
vn 0.4898 -0.8370 -0.2439
vn 0.0350 -0.8231 -0.5667
vn 0.0088 -0.9623 -0.2720
vn -0.5172 -0.8162 0.2575
vn 0.3593 -0.9260 -0.1160
vn 0.1967 -0.9624 0.1875
vn 0.1153 -0.8355 -0.5372
vn 0.0595 -0.9641 -0.2590
vn 0.1148 -0.8370 -0.5350
vn -0.2742 -0.9587 0.0757
vn -0.2914 -0.9196 -0.2634
vn -0.4213 -0.8231 -0.3807
vn -0.3838 -0.9151 0.1239
vn -0.5519 -0.8146 0.1782
vn 0.2096 -0.9776 -0.0215
vn -0.2409 -0.9249 -0.2941
vn -0.0910 -0.9748 0.2039
vn -0.5603 -0.8231 0.0920
vn -0.2048 -0.8146 0.5426
vn 0.3645 -0.8180 0.4450
vn 0.3661 -0.8162 0.4469
vn 0.3821 -0.9220 -0.0627
vn -0.5494 -0.8355 0.0072
vn -0.1919 -0.9196 0.3427
vn -0.2775 -0.8231 0.4954
vn 0.2062 -0.9151 0.3466
vn 0.2965 -0.8146 0.4984
vn 0.5751 -0.8180 -0.0075
vn 0.2778 -0.9606 -0.0074
vn 0.5777 -0.8162 -0.0075
vn 0.2719 -0.8309 -0.4855
vn -0.5400 -0.8384 -0.0742
vn -0.3370 -0.8355 0.4340
vn -0.3355 -0.8370 0.4322
vn 0.2144 -0.8231 0.5258
vn 0.5746 -0.8147 0.0789
vn 0.3527 -0.8180 -0.4543
vn 0.1674 -0.9606 -0.2218
vn 0.3543 -0.8162 -0.4564
vn -0.2100 -0.8309 -0.5153
vn -0.2734 -0.9260 0.2604
vn 0.1293 -0.8355 0.5341
vn 0.1287 -0.8370 0.5318
vn 0.3768 -0.9196 0.1109
vn 0.5447 -0.8232 0.1603
vn 0.2632 -0.9623 0.0691
vn 0.4199 -0.8146 -0.4000
vn -0.0691 -0.9606 -0.2692
vn -0.1790 -0.9658 0.1877
vn -0.5338 -0.8309 -0.1571
vn 0.0331 -0.9260 0.3761
vn 0.4981 -0.8355 0.2319
vn 0.4960 -0.8370 0.2309
vn -0.0128 -0.9587 -0.2842
vn 0.4650 -0.8231 -0.3260
vn 0.2182 -0.9623 -0.1627
vn -0.0509 -0.8146 -0.5777
vn -0.5214 -0.8180 -0.2428
vn -0.5237 -0.8162 -0.2439
vn 0.0352 -0.9658 0.2570
vn -0.3171 -0.9220 0.2223
vn -0.4556 -0.8309 0.3194
vn 0.4776 0.0000 -0.8786
vn -0.9997 0.0000 0.0257
vn 0.5221 0.0000 0.8529
vn -0.5930 0.3174 0.7400
vn 0.2088 0.3185 0.9247
vn 0.2088 0.3184 0.9247
vn 0.8531 0.3185 0.4133
vn 0.8550 0.3185 -0.4093
vn 0.2131 0.3185 -0.9237
vn -0.5893 0.3185 -0.7425
vn -0.9479 0.3185 -0.0022
vn 0.6253 0.0000 -0.7804
vn -0.2202 0.0000 -0.9754
vn -0.8999 0.0000 -0.4360
vn -0.9020 0.0000 0.4318
vn -0.2248 0.0000 0.9744
vn 0.6217 0.0000 0.7833
vn 1.0000 0.0000 0.0024
vn 0.0096 -0.9999 -0.0124
vn 0.0096 -0.9999 -0.0123
vn 0.6094 0.6416 0.4658
vn 0.5312 0.7417 0.4096
vn 0.6151 0.6415 0.4583
vn 0.7216 0.3958 0.5680
vn 0.6630 0.5203 0.5382
vn 0.6697 0.5204 0.5297
vn -0.6658 0.5235 -0.5317
vn -0.7151 0.3984 -0.5744
vn -0.6588 0.5234 -0.5404
vn -0.5322 0.7450 -0.4022
vn -0.6141 0.6447 -0.4552
vn -0.6082 0.6448 -0.4630
vn 0.0033 -0.9999 -0.0153
vn 0.7511 0.6416 0.1553
vn 0.6562 0.7418 0.1385
vn 0.7530 0.6416 0.1460
vn 0.8966 0.3958 0.1987
vn 0.8309 0.5203 0.1972
vn 0.8333 0.5204 0.1867
vn -0.8305 0.5235 -0.1902
vn -0.8934 0.3985 -0.2072
vn -0.8280 0.5234 -0.2010
vn -0.6541 0.7449 -0.1315
vn -0.7509 0.6446 -0.1438
vn -0.7489 0.6447 -0.1533
vn -0.0037 -0.9999 -0.0152
vn 0.7442 0.6416 -0.1860
vn 0.6514 0.7417 -0.1599
vn 0.7419 0.6415 -0.1952
vn 0.8940 0.3959 -0.2099
vn 0.8341 0.5204 -0.1828
vn 0.8317 0.5204 -0.1933
vn -0.8308 0.5235 0.1890
vn -0.8949 0.3985 0.2009
vn -0.8332 0.5234 0.1782
vn -0.6463 0.7449 0.1653
vn -0.7389 0.6446 0.1963
vn -0.7412 0.6447 0.1868
vn -0.0099 -0.9999 -0.0121
vn 0.5898 0.6416 -0.4905
vn 0.5175 0.7416 -0.4268
vn 0.5837 0.6415 -0.4977
vn 0.7144 0.3958 -0.5770
vn 0.6722 0.5203 -0.5266
vn 0.6655 0.5204 -0.5351
vn -0.6665 0.5235 0.5308
vn -0.7191 0.3984 0.5693
vn -0.6734 0.5234 0.5221
vn -0.5106 0.7450 0.4293
vn -0.5805 0.6447 0.4974
vn -0.5868 0.6447 0.4899
vn -0.0142 -0.9999 -0.0066
vn 0.3185 0.6416 -0.6977
vn 0.2811 0.7418 -0.6089
vn 0.3099 0.6416 -0.7017
vn 0.3933 0.3957 -0.8299
vn 0.3772 0.5203 -0.7662
vn 0.3675 0.5204 -0.7708
vn -0.3702 0.5235 0.7674
vn -0.4008 0.3987 0.8249
vn -0.3801 0.5234 0.7626
vn -0.2738 0.7449 0.6085
vn -0.3072 0.6446 0.7001
vn -0.3161 0.6447 0.6960
vn -0.0156 -0.9999 0.0002
vn -0.0157 0.6417 -0.7668
vn -0.0109 0.7418 -0.6706
vn -0.0251 0.6416 -0.7666
vn -0.0057 0.3958 -0.9183
vn 0.0074 0.5203 -0.8539
vn -0.0034 0.5204 -0.8539
vn -0.0006 0.5235 0.8520
vn -0.0032 0.3985 0.9172
vn -0.0117 0.5234 0.8520
vn 0.0173 0.7448 0.6670
vn 0.0269 0.6446 0.7640
vn 0.0172 0.6447 0.7642
vn -0.0140 -0.9999 0.0070
vn -0.3469 0.6416 -0.6841
vn -0.3008 0.7418 -0.5994
vn -0.3554 0.6416 -0.6798
vn -0.4036 0.3957 -0.8249
vn -0.3638 0.5203 -0.7726
vn -0.3735 0.5204 -0.7679
vn 0.3691 0.5236 0.7679
vn 0.3950 0.3985 0.8277
vn 0.3591 0.5235 0.7727
vn 0.3050 0.7449 0.5934
vn 0.3558 0.6447 0.6766
vn 0.3471 0.6447 0.6811
vn -0.0096 -0.9999 0.0123
vn -0.6093 0.6417 -0.4658
vn -0.5311 0.7417 -0.4095
vn -0.6151 0.6416 -0.4583
vn -0.7215 0.3960 -0.5680
vn -0.6630 0.5205 -0.5381
vn -0.6697 0.5205 -0.5297
vn 0.6658 0.5235 0.5317
vn 0.7151 0.3984 0.5744
vn 0.6589 0.5233 0.5404
vn 0.5323 0.7448 0.4023
vn 0.6141 0.6446 0.4553
vn 0.6083 0.6446 0.4631
vn -0.0033 -0.9999 0.0153
vn -0.7511 0.6416 -0.1553
vn -0.6562 0.7417 -0.1385
vn -0.7530 0.6416 -0.1460
vn -0.8966 0.3958 -0.1988
vn -0.8309 0.5204 -0.1972
vn -0.8332 0.5204 -0.1867
vn 0.8305 0.5235 0.1902
vn 0.8934 0.3985 0.2072
vn 0.8280 0.5234 0.2010
vn 0.6541 0.7449 0.1315
vn 0.7509 0.6446 0.1438
vn 0.7489 0.6447 0.1533
vn 0.0037 -0.9999 0.0152
vn -0.7442 0.6416 0.1860
vn -0.6514 0.7417 0.1599
vn -0.7418 0.6415 0.1952
vn -0.8940 0.3959 0.2099
vn -0.8342 0.5204 0.1828
vn -0.8317 0.5204 0.1933
vn 0.8308 0.5235 -0.1890
vn 0.8949 0.3984 -0.2009
vn 0.8333 0.5234 -0.1782
vn 0.6464 0.7449 -0.1653
vn 0.7389 0.6446 -0.1962
vn 0.7412 0.6447 -0.1868
vn 0.0099 -0.9999 0.0121
vn -0.5898 0.6416 0.4904
vn -0.5175 0.7418 0.4266
vn -0.5837 0.6416 0.4977
vn -0.7144 0.3957 0.5770
vn -0.6723 0.5203 0.5266
vn -0.6655 0.5204 0.5350
vn 0.6665 0.5235 -0.5307
vn 0.7191 0.3985 -0.5693
vn 0.6734 0.5234 -0.5220
vn 0.5107 0.7449 -0.4294
vn 0.5806 0.6446 -0.4974
vn 0.5868 0.6447 -0.4899
vn 0.0142 -0.9999 0.0066
vn -0.3186 0.6417 0.6977
vn -0.2811 0.7418 0.6089
vn -0.3100 0.6416 0.7016
vn -0.3933 0.3958 0.8298
vn -0.3772 0.5204 0.7661
vn -0.3675 0.5205 0.7708
vn 0.3702 0.5235 -0.7673
vn 0.4009 0.3986 -0.8249
vn 0.3803 0.5234 -0.7625
vn 0.2738 0.7448 -0.6085
vn 0.3073 0.6446 -0.7000
vn 0.3161 0.6447 -0.6960
vn 0.0156 -0.9999 -0.0002
vn 0.0157 0.6416 0.7668
vn 0.0109 0.7418 0.6705
vn 0.0253 0.6416 0.7666
vn 0.0057 0.3957 0.9184
vn -0.0075 0.5203 0.8540
vn 0.0034 0.5204 0.8539
vn 0.0006 0.5235 -0.8520
vn 0.0033 0.3986 -0.9171
vn 0.0117 0.5234 -0.8520
vn -0.0173 0.7448 -0.6670
vn -0.0268 0.6446 -0.7640
vn -0.0172 0.6447 -0.7642
vn 0.0140 -0.9999 -0.0070
vn 0.3469 0.6416 0.6841
vn 0.3008 0.7418 0.5994
vn 0.3554 0.6416 0.6798
vn 0.4036 0.3957 0.8250
vn 0.3637 0.5203 0.7726
vn 0.3735 0.5204 0.7679
vn -0.3691 0.5235 -0.7679
vn -0.3950 0.3984 -0.8278
vn -0.3591 0.5234 -0.7727
vn -0.3050 0.7449 -0.5934
vn -0.3557 0.6446 -0.6767
vn -0.3470 0.6447 -0.6811
vn 0.0218 -0.9997 -0.0108
vn 0.3530 0.6415 0.6811
vn 0.3067 0.7382 0.6008
vn 0.3661 0.6413 0.6743
vn 0.4035 0.3998 0.8230
vn 0.3582 0.5203 0.7753
vn 0.3733 0.5204 0.7680
vn -0.3669 0.5235 -0.7690
vn -0.3907 0.4022 -0.8280
vn -0.3512 0.5233 -0.7764
vn -0.3136 0.7416 -0.5931
vn -0.3674 0.6444 -0.6707
vn -0.3539 0.6446 -0.6777
vn 0.0051 -0.9997 -0.0238
vn 0.7526 0.6415 0.1487
vn 0.6610 0.7382 0.1349
vn 0.7554 0.6413 0.1342
vn 0.8950 0.3999 0.1977
vn 0.8295 0.5203 0.2033
vn 0.8332 0.5204 0.1870
vn -0.8300 0.5235 -0.1926
vn -0.8910 0.4022 -0.2108
vn -0.8260 0.5233 -0.2095
vn -0.6592 0.7416 -0.1246
vn -0.7534 0.6443 -0.1309
vn -0.7505 0.6446 -0.1459
vn -0.0154 -0.9997 -0.0188
vn 0.5855 0.6415 -0.4957
vn 0.5176 0.7382 -0.4327
vn 0.5760 0.6413 -0.5069
vn 0.7125 0.4000 -0.5764
vn 0.6760 0.5203 -0.5218
vn 0.6657 0.5205 -0.5348
vn -0.6681 0.5234 0.5288
vn -0.7203 0.4021 0.5651
vn -0.6789 0.5232 0.5151
vn -0.5084 0.7416 0.4377
vn -0.5721 0.6444 0.5074
vn -0.5820 0.6446 0.4958
vn -0.0243 -0.9997 0.0003
vn -0.0225 0.6415 -0.7668
vn -0.0156 0.7381 -0.6745
vn -0.0371 0.6414 -0.7663
vn -0.0064 0.4000 -0.9165
vn 0.0135 0.5203 -0.8539
vn -0.0031 0.5205 -0.8539
vn -0.0032 0.5234 0.8521
vn -0.0073 0.4021 0.9156
vn -0.0205 0.5232 0.8519
vn 0.0252 0.7415 0.6704
vn 0.0400 0.6444 0.7637
vn 0.0248 0.6446 0.7641
vn -0.0149 -0.9997 0.0192
vn -0.6135 0.6415 -0.4605
vn -0.5370 0.7381 -0.4083
vn -0.6224 0.6413 -0.4487
vn -0.7205 0.3999 -0.5664
vn -0.6591 0.5203 -0.5431
vn -0.6695 0.5204 -0.5300
vn 0.6642 0.5235 0.5337
vn 0.7112 0.4022 0.5765
vn 0.6532 0.5233 0.5472
vn 0.5398 0.7416 0.3983
vn 0.6220 0.6444 0.4448
vn 0.6128 0.6446 0.4571
vn 0.0057 -0.9997 0.0236
vn -0.7426 0.6415 0.1926
vn -0.6541 0.7381 0.1653
vn -0.7389 0.6413 0.2068
vn -0.8921 0.3999 0.2102
vn -0.8355 0.5203 0.1768
vn -0.8318 0.5204 0.1930
vn 0.8314 0.5235 -0.1865
vn 0.8942 0.4022 -0.1966
vn 0.8351 0.5233 -0.1696
vn 0.6480 0.7416 -0.1738
vn 0.7356 0.6443 -0.2090
vn 0.7395 0.6446 -0.1942
vn 0.0220 -0.9997 0.0103
vn -0.3124 0.6415 0.7006
vn -0.2787 0.7381 0.6144
vn -0.2990 0.6413 0.7066
vn -0.3919 0.3999 0.8286
vn -0.3827 0.5202 0.7635
vn -0.3678 0.5204 0.7707
vn 0.3725 0.5235 -0.7663
vn 0.4038 0.4022 -0.8217
vn 0.3881 0.5233 -0.7587
vn 0.2682 0.7416 -0.6149
vn 0.2953 0.6444 -0.7054
vn 0.3093 0.6446 -0.6992
vn 0.7225 0.6911 -0.0186
vn 0.3410 0.7001 -0.6274
vn -0.3651 0.7148 -0.5965
vn -0.6931 0.7206 0.0178
vn -0.3352 0.7124 0.6166
vn 0.3741 0.6975 0.6111
usemtl Tex_0040_0.dds
s off
f 1/1/1 3/2/2 2/3/1
f 2/3/1 3/2/1 4/4/3
f 3/2/4 5/5/5 4/4/6
f 4/4/7 5/5/7 6/6/8
f 5/5/9 7/7/10 6/6/11
f 6/6/12 7/7/13 8/8/14
f 7/7/15 9/9/16 8/8/17
f 8/8/18 9/9/18 10/10/19
f 9/9/20 11/11/21 10/10/22
f 10/10/23 11/11/24 12/12/25
f 11/11/26 13/13/27 12/12/28
f 12/12/29 13/13/30 14/14/31
f 13/13/32 15/15/33 14/14/34
f 14/14/35 15/15/36 16/16/37
f 15/15/38 17/17/39 16/16/40
f 16/16/41 17/17/41 18/18/42
f 17/17/43 19/19/44 18/18/45
f 20/20/46 22/21/47 21/22/48
f 21/22/49 22/21/50 23/23/51
f 22/21/52 24/24/53 23/23/54
f 23/23/55 24/24/56 25/25/57
f 24/24/58 26/26/59 25/25/60
f 25/25/61 26/26/62 27/27/63
f 26/26/64 28/28/65 27/27/66
f 27/27/67 28/28/68 29/29/69
f 28/28/70 30/30/71 29/29/72
f 31/31/44 33/32/44 32/33/44
f 32/33/44 33/32/44 34/34/44
f 33/32/44 35/35/44 34/34/44
f 36/36/73 38/37/74 37/38/75
f 37/38/76 38/37/77 39/39/78
f 38/37/79 40/40/79 39/39/79
f 41/41/80 43/42/81 42/43/82
f 42/43/83 43/42/84 44/44/85
f 43/42/86 45/45/87 44/44/88
f 46/46/89 48/47/90 47/48/91
f 47/48/92 48/47/93 49/49/94
f 48/47/95 50/50/96 49/49/97
f 51/51/98 53/52/99 52/53/100
f 52/53/101 53/52/102 54/54/103
f 53/52/104 55/55/105 54/54/106
f 56/56/107 58/57/108 57/58/109
f 57/58/110 58/57/111 59/59/112
f 58/57/113 60/60/114 59/59/115
f 61/61/116 63/62/117 62/63/118
f 62/63/119 63/62/120 64/64/121
f 63/62/122 65/65/123 64/64/124
f 66/66/125 68/67/126 67/68/127
f 67/68/128 68/67/129 69/69/130
f 68/67/131 70/70/132 69/69/133
f 71/71/134 73/72/135 72/73/136
f 72/73/137 73/72/138 74/74/139
f 73/72/140 75/75/141 74/74/142
f 76/76/143 78/77/144 77/78/145
f 77/78/146 78/77/147 79/79/148
f 78/77/149 80/80/150 79/79/151
f 81/81/152 83/82/153 82/83/154
f 82/83/155 83/82/156 84/84/157
f 83/82/158 85/85/159 84/84/160
f 86/86/161 88/87/162 87/88/163
f 87/88/164 88/87/165 89/89/166
f 88/87/167 90/90/168 89/89/169
f 91/91/170 93/92/171 92/93/170
f 92/93/172 93/92/172 94/94/173
f 93/92/174 95/95/175 94/94/176
f 96/96/177 98/97/178 97/98/179
f 97/98/180 98/97/181 99/99/182
f 98/97/183 100/100/184 99/99/185
f 101/101/186 103/102/187 102/103/188
f 102/103/189 103/102/190 104/104/191
f 103/102/192 105/105/193 104/104/194
f 106/106/195 108/107/196 107/108/197
f 107/108/198 108/107/199 109/109/200
f 108/107/201 110/110/202 109/109/203
f 111/111/204 113/112/205 112/113/206
f 112/113/207 113/112/208 114/114/209
f 113/112/210 115/115/211 114/114/212
f 116/116/213 118/117/214 117/118/215
f 117/118/216 118/117/217 119/119/218
f 118/117/219 120/120/220 119/119/221
f 121/121/222 123/122/223 122/123/224
f 122/123/225 123/122/226 124/124/227
f 123/122/228 125/125/229 124/124/230
f 126/126/231 128/127/232 127/128/233
f 127/128/234 128/127/235 129/129/236
f 128/127/237 130/130/238 129/129/239
f 131/131/240 133/132/241 132/133/242
f 132/133/243 133/132/244 134/134/245
f 133/132/246 135/135/247 134/134/248
f 136/136/249 138/137/250 137/138/251
f 137/138/252 138/137/253 139/139/254
f 138/137/255 140/140/256 139/139/257
f 141/141/258 143/142/259 142/143/260
f 142/143/261 143/142/262 144/144/263
f 143/142/264 145/145/265 144/144/266
f 146/146/267 148/147/268 147/148/269
f 147/148/270 148/147/271 149/149/272
f 148/147/273 150/150/274 149/149/275
f 151/151/276 153/152/277 152/153/278
f 152/153/279 153/152/280 154/154/281
f 153/152/282 155/155/283 154/154/284
f 156/156/285 158/157/286 157/158/287
f 157/158/288 158/157/289 159/159/290
f 158/157/291 160/160/292 159/159/293
f 161/161/294 163/162/295 162/163/296
f 162/163/297 163/162/298 164/164/299
f 163/162/300 165/165/301 164/164/302
f 166/166/303 168/167/304 167/168/305
f 167/168/306 168/167/307 169/169/308
f 168/167/309 170/170/310 169/169/311
f 171/171/312 173/172/313 172/173/314
f 172/173/315 173/172/316 174/174/317
f 173/172/318 175/175/319 174/174/320
f 176/176/303 178/177/321 177/178/322
f 177/178/306 178/177/307 179/179/308
f 178/177/309 180/180/323 179/179/311
f 181/181/312 183/182/324 182/183/325
f 182/183/315 183/182/326 184/184/327
f 183/182/318 185/185/319 184/184/328
f 186/186/329 188/187/90 187/188/330
f 187/188/331 188/187/93 189/189/94
f 188/187/95 190/190/332 189/189/333
f 191/191/334 193/192/99 192/193/100
f 192/193/101 193/192/102 194/194/335
f 193/192/336 195/195/105 194/194/337
f 196/196/125 198/197/338 197/198/339
f 197/198/340 198/197/341 199/199/342
f 198/197/343 200/200/343 199/199/343
f 201/201/134 203/202/135 202/203/136
f 202/203/344 203/202/138 204/204/345
f 203/202/140 205/205/141 204/204/142
f 206/206/161 208/207/346 207/208/347
f 207/208/164 208/207/165 209/209/348
f 208/207/349 210/210/350 209/209/169
f 211/211/351 213/212/352 212/213/353
f 212/213/354 213/212/355 214/214/356
f 213/212/357 215/215/175 214/214/176
f 216/216/358 218/217/359 217/218/360
f 217/218/361 218/217/199 219/219/362
f 218/217/201 220/220/363 219/219/364
f 221/221/204 223/222/205 222/223/365
f 222/223/366 223/222/208 224/224/367
f 223/222/210 225/225/211 224/224/368
f 226/226/369 228/227/232 227/228/370
f 227/228/234 228/227/235 229/229/371
f 228/227/372 230/230/238 229/229/239
f 231/231/240 233/232/373 232/233/374
f 232/233/243 233/232/375 234/234/245
f 233/232/376 235/235/377 234/234/378
f 236/236/379 238/237/268 237/238/380
f 237/238/381 238/237/271 239/239/272
f 238/237/273 240/240/382 239/239/383
f 241/241/276 243/242/277 242/243/384
f 242/243/385 243/242/280 244/244/386
f 243/242/282 245/245/387 244/244/388
f 246/246/389 248/247/389 247/248/389
f 247/248/389 248/247/389 249/249/389
f 248/247/389 250/250/389 249/249/389
f 251/251/390 253/252/391 252/253/392
f 252/253/393 253/252/394 254/254/395
f 253/252/396 255/255/397 254/254/398
f 256/256/399 258/257/400 257/258/401
f 257/258/402 258/257/403 259/259/404
f 258/257/405 260/260/406 259/259/407
f 261/261/408 263/262/409 262/263/410
f 262/263/411 263/262/412 264/264/413
f 263/262/414 265/265/415 264/264/416
f 266/266/417 268/267/418 267/268/419
f 267/268/420 268/267/421 269/269/422
f 268/267/423 270/270/424 269/269/425
f 271/271/426 273/272/427 272/273/428
f 272/273/429 273/272/430 274/274/431
f 273/272/432 275/275/433 274/274/434
f 276/276/435 278/277/436 277/278/437
f 277/278/438 278/277/439 279/279/440
f 278/277/441 280/280/442 279/279/443
f 281/281/444 283/282/445 282/283/446
f 282/283/447 283/282/448 284/284/449
f 283/282/450 285/285/451 284/284/452
f 286/286/453 288/287/454 287/288/455
f 287/288/456 288/287/457 289/289/458
f 288/287/459 290/290/460 289/289/461
f 291/291/462 293/292/463 292/293/464
f 292/293/465 293/292/466 294/294/467
f 293/292/468 295/295/469 294/294/470
f 296/296/471 298/297/472 297/298/473
f 297/298/474 298/297/475 299/299/476
f 298/297/477 300/300/478 299/299/479
f 301/301/480 303/302/481 302/303/482
f 302/303/483 303/302/484 304/304/485
f 303/302/486 305/305/487 304/304/488
f 306/306/489 308/307/490 307/308/491
f 307/308/492 308/307/493 309/309/494
f 308/307/495 310/310/496 309/309/497
f 311/311/498 313/312/499 312/313/500
f 312/313/501 313/312/502 314/314/503
f 313/312/504 315/315/505 314/314/506
f 316/316/507 318/317/508 317/318/509
f 317/318/510 318/317/511 319/319/512
f 318/317/513 320/320/514 319/319/515
f 321/321/516 323/322/517 322/323/518
f 322/323/519 323/322/520 324/324/521
f 323/322/522 325/325/523 324/324/524
f 326/326/525 328/327/526 327/328/527
f 327/328/528 328/327/529 329/329/530
f 328/327/531 330/330/532 329/329/533
f 331/331/534 333/332/535 332/333/536
f 332/333/537 333/332/538 334/334/539
f 333/332/540 335/335/541 334/334/542
f 336/336/543 338/337/544 337/338/545
f 337/338/546 338/337/547 339/339/548
f 338/337/549 340/340/550 339/339/551
f 341/341/552 343/342/553 342/343/554
f 342/343/555 343/342/556 344/344/557
f 343/342/558 345/345/559 344/344/560
f 346/346/561 348/347/562 347/348/563
f 347/348/564 348/347/565 349/349/566
f 348/347/567 350/350/568 349/349/569
f 351/351/570 353/352/571 352/353/572
f 352/353/573 353/352/574 354/354/575
f 353/352/576 355/355/577 354/354/578
f 356/356/579 358/357/580 357/358/581
f 357/358/582 358/357/583 359/359/584
f 358/357/585 360/360/586 359/359/587
f 361/361/588 363/362/589 362/363/590
f 362/363/591 363/362/592 364/364/593
f 363/362/594 365/365/595 364/364/596
f 366/366/597 368/367/598 367/368/599
f 367/368/600 368/367/601 369/369/602
f 368/367/603 370/370/604 369/369/605
f 371/371/606 373/372/607 372/373/608
f 372/373/609 373/372/610 374/374/611
f 373/372/612 375/375/613 374/374/614
f 376/376/615 378/377/616 377/378/617
f 377/378/618 378/377/619 379/379/620
f 378/377/621 380/380/622 379/379/623
f 381/381/624 383/382/625 382/383/626
f 382/383/627 383/382/628 384/384/629
f 383/382/630 385/385/631 384/384/632
f 386/386/633 388/387/634 387/388/635
f 387/388/636 388/387/637 389/389/638
f 388/387/639 390/390/640 389/389/641
f 391/391/624 393/392/625 392/393/626
f 392/393/642 393/392/628 394/394/643
f 393/392/630 395/395/631 394/394/644
f 396/396/633 398/397/645 397/398/635
f 397/398/636 398/397/637 399/399/646
f 398/397/639 400/400/640 399/399/641
f 401/401/647 403/402/648 402/403/410
f 402/403/649 403/402/650 404/404/651
f 403/402/652 405/405/653 404/404/654
f 406/406/655 408/407/418 407/408/656
f 407/408/420 408/407/421 409/409/422
f 408/407/423 410/410/424 409/409/425
f 411/411/444 413/412/657 412/413/444
f 412/413/658 413/412/658 414/414/449
f 413/412/659 415/415/451 414/414/660
f 416/416/453 418/417/454 417/418/661
f 417/418/662 418/417/457 419/419/663
f 418/417/459 420/420/664 419/419/461
f 421/421/480 423/422/481 422/423/482
f 422/423/665 423/422/484 424/424/485
f 423/422/486 425/425/666 424/424/667
f 426/426/668 428/427/490 427/428/669
f 427/428/670 428/427/671 429/429/672
f 428/427/495 430/430/496 429/429/673
f 431/431/516 433/432/517 432/433/674
f 432/433/675 433/432/520 434/434/676
f 433/432/522 435/435/523 434/434/677
f 436/436/525 438/437/526 437/438/678
f 437/438/679 438/437/680 439/439/681
f 438/437/531 440/440/532 439/439/682
f 441/441/683 443/442/553 442/443/554
f 442/443/684 443/442/556 444/444/685
f 443/442/558 445/445/686 444/444/687
f 446/446/561 448/447/688 447/448/689
f 447/448/564 448/447/690 449/449/566
f 448/447/691 450/450/568 449/449/692
f 451/451/693 453/452/589 452/453/590
f 452/453/694 453/452/592 454/454/695
f 453/452/696 455/455/595 454/454/697
f 456/456/597 458/457/698 457/458/699
f 457/458/700 458/457/601 459/459/701
f 458/457/702 460/460/703 459/459/704
f 461/461/705 463/462/705 462/463/705
f 462/463/705 463/462/705 464/464/705
f 465/465/706 467/466/706 466/467/706
f 466/467/706 467/466/706 468/468/706
f 469/469/707 471/470/707 470/471/707
f 470/471/707 471/470/707 472/472/707
f 473/473/708 475/474/708 474/475/708
f 474/475/708 475/474/708 476/476/708
f 477/477/709 479/478/709 478/479/709
f 478/479/710 479/478/710 480/480/710
f 481/481/711 483/482/711 482/483/711
f 482/483/711 483/482/711 484/484/711
f 485/485/712 487/486/712 486/487/712
f 486/487/712 487/486/712 488/488/712
f 489/489/713 491/490/713 490/491/713
f 490/491/713 491/490/713 492/492/713
f 493/493/714 495/494/714 494/495/714
f 494/495/714 495/494/714 496/496/714
f 497/497/715 499/498/715 498/499/715
f 498/499/715 499/498/715 500/500/715
f 501/501/716 503/502/716 502/503/716
f 502/503/716 503/502/716 504/504/716
f 505/505/717 507/506/717 506/507/717
f 506/507/717 507/506/717 508/508/717
f 509/509/718 511/510/718 510/511/718
f 510/511/718 511/510/718 512/512/718
f 513/513/719 515/514/719 514/515/719
f 514/515/719 515/514/719 516/516/719
f 517/517/720 519/518/720 518/519/720
f 518/519/720 519/518/720 520/520/720
f 521/521/721 523/522/721 522/523/721
f 522/523/721 523/522/721 524/524/721
f 525/525/722 527/526/722 526/527/722
f 526/527/722 527/526/722 528/528/722
f 529/529/723 531/530/723 530/531/723
f 530/531/724 531/530/724 532/532/724
f 533/533/725 535/534/726 534/535/727
f 534/535/728 535/534/729 536/536/730
f 537/537/731 539/538/732 538/539/733
f 538/539/734 539/538/735 540/540/736
f 541/541/737 543/542/737 542/543/737
f 542/543/737 543/542/737 544/544/737
f 545/545/738 547/546/739 546/547/740
f 546/547/741 547/546/742 548/548/743
f 549/549/744 551/550/745 550/551/746
f 550/551/747 551/550/748 552/552/749
f 553/553/750 555/554/750 554/555/750
f 554/555/750 555/554/750 556/556/750
f 557/557/751 559/558/752 558/559/753
f 558/559/754 559/558/755 560/560/756
f 561/561/757 563/562/758 562/563/759
f 562/563/760 563/562/761 564/564/762
f 565/565/763 567/566/763 566/567/763
f 566/567/763 567/566/763 568/568/763
f 569/569/764 571/570/765 570/571/766
f 570/571/767 571/570/768 572/572/769
f 573/573/770 575/574/771 574/575/772
f 574/575/773 575/574/774 576/576/775
f 577/577/776 579/578/776 578/579/776
f 578/579/776 579/578/776 580/580/776
f 581/581/777 583/582/778 582/583/779
f 582/583/780 583/582/781 584/584/782
f 585/585/783 587/586/784 586/587/785
f 586/587/786 587/586/787 588/588/788
f 589/589/789 591/590/789 590/591/789
f 590/591/789 591/590/789 592/592/789
f 593/593/790 595/594/791 594/595/792
f 594/595/793 595/594/794 596/596/795
f 597/597/796 599/598/797 598/599/798
f 598/599/799 599/598/800 600/600/801
f 601/601/802 603/602/802 602/603/802
f 602/603/802 603/602/802 604/604/802
f 605/605/803 607/606/804 606/607/805
f 606/607/806 607/606/807 608/608/808
f 609/609/809 611/610/810 610/611/811
f 610/611/812 611/610/813 612/612/814
f 613/613/815 615/614/815 614/615/815
f 614/615/815 615/614/815 616/616/815
f 617/617/816 619/618/817 618/619/818
f 618/619/819 619/618/820 620/620/821
f 621/621/822 623/622/823 622/623/824
f 622/623/825 623/622/826 624/624/827
f 625/625/828 627/626/828 626/627/828
f 626/627/828 627/626/828 628/628/828
f 629/629/829 631/630/830 630/631/831
f 630/631/832 631/630/833 632/632/834
f 633/633/835 635/634/836 634/635/837
f 634/635/838 635/634/839 636/636/840
f 637/637/841 639/638/841 638/639/841
f 638/639/841 639/638/841 640/640/841
f 641/641/842 643/642/843 642/643/844
f 642/643/845 643/642/846 644/644/847
f 645/645/848 647/646/849 646/647/850
f 646/647/851 647/646/852 648/648/853
f 649/649/854 651/650/854 650/651/854
f 650/651/854 651/650/854 652/652/854
f 653/653/855 655/654/856 654/655/857
f 654/655/858 655/654/859 656/656/860
f 657/657/861 659/658/862 658/659/863
f 658/659/864 659/658/865 660/660/866
f 661/661/867 663/662/867 662/663/867
f 662/663/867 663/662/867 664/664/867
f 665/665/868 667/666/869 666/667/870
f 666/667/871 667/666/872 668/668/873
f 669/669/874 671/670/875 670/671/876
f 670/671/877 671/670/878 672/672/879
f 673/673/880 675/674/880 674/675/880
f 674/675/880 675/674/880 676/676/880
f 677/677/881 679/678/882 678/679/883
f 678/679/884 679/678/885 680/680/886
f 681/681/887 683/682/888 682/683/889
f 682/683/890 683/682/891 684/684/892
f 685/685/893 687/686/893 686/687/893
f 686/687/893 687/686/893 688/688/893
f 689/689/894 691/690/895 690/691/896
f 690/691/897 691/690/898 692/692/899
f 693/693/900 695/694/901 694/695/902
f 694/695/903 695/694/904 696/696/905
f 697/697/906 699/698/906 698/699/906
f 698/699/906 699/698/906 700/700/906
f 701/701/907 703/702/908 702/703/909
f 702/703/910 703/702/911 704/704/912
f 705/705/913 707/706/914 706/707/915
f 706/707/916 707/706/917 708/708/918
f 709/709/919 711/710/919 710/711/919
f 710/711/919 711/710/919 712/712/919
f 713/713/920 715/714/921 714/715/922
f 714/715/923 715/714/924 716/716/925
f 717/717/926 719/718/927 718/719/928
f 718/719/929 719/718/930 720/720/931
f 721/721/932 723/722/932 722/723/932
f 722/723/932 723/722/932 724/724/932
f 725/725/933 727/726/934 726/727/935
f 726/727/936 727/726/937 728/728/938
f 729/729/939 731/730/940 730/731/941
f 730/731/942 731/730/943 732/732/944
f 733/733/945 735/734/945 734/735/945
f 734/735/945 735/734/945 736/736/945
f 737/737/946 739/738/947 738/739/948
f 738/739/949 739/738/950 740/740/951
f 741/741/952 743/742/953 742/743/954
f 742/743/955 743/742/956 744/744/957
f 745/745/958 747/746/958 746/747/958
f 746/747/958 747/746/958 748/748/958
f 749/749/959 751/750/960 750/751/961
f 750/751/962 751/750/963 752/752/964
f 753/753/965 755/754/966 754/755/967
f 754/755/968 755/754/969 756/756/970
f 757/757/971 759/758/971 758/759/971
f 758/759/971 759/758/971 760/760/971
f 761/761/972 763/762/973 762/763/974
f 762/763/975 763/762/976 764/764/977
f 765/765/978 767/766/979 766/767/980
f 766/767/981 767/766/982 768/768/983
f 769/769/984 771/770/984 770/771/984
f 770/771/984 771/770/984 772/772/984
f 773/773/985 775/774/986 774/775/987
f 774/775/988 775/774/989 776/776/990
f 777/777/991 779/778/992 778/779/993
f 778/779/994 779/778/995 780/780/996
f 781/781/44 783/782/44 782/783/44
f 784/784/997 786/785/997 785/786/997
f 787/787/998 789/788/998 788/789/998
f 790/790/999 792/791/999 791/792/999
f 793/793/1000 795/794/1000 794/795/1000
f 796/796/1001 798/797/1001 797/798/1001
f 799/799/1002 801/800/1002 800/801/1002
f 802/802/44 804/803/44 803/804/44
f 805/805/44 807/806/44 806/807/44
f 808/808/44 810/809/44 809/810/44
f 811/811/44 813/812/44 812/813/44
f 814/814/44 816/815/44 815/816/44
f 817/817/44 819/818/44 818/819/44
f 820/820/44 822/821/44 821/822/44
f 823/823/44 825/824/44 824/825/44
f 826/826/44 828/827/44 827/828/44
f 829/829/44 831/830/44 830/831/44
f 832/832/44 834/833/44 833/834/44
f 835/835/44 837/836/44 836/837/44
f 838/838/44 840/839/44 839/840/44
f 841/841/44 843/842/44 842/843/44
f 844/844/44 846/845/44 845/846/44
f 847/847/44 849/848/44 848/849/44
f 850/850/44 852/851/44 851/852/44
f 853/853/44 855/854/44 854/855/44
f 856/856/44 858/857/44 857/858/44
f 859/859/44 861/860/44 860/861/44
f 862/862/44 864/863/44 863/864/44
f 865/865/44 867/866/44 866/867/44
f 868/868/44 870/869/44 869/870/44
f 871/871/389 873/872/389 872/873/389
