# Blender v3.6.3 OBJ File: 'untitled.blend'
# www.blender.org
mtllib Mesh_0311.mtl
o Mesh_0311_Mesh.198
v -19.514894 9.677488 10.936943
v -19.514894 9.114777 11.615860
v -19.514894 10.159986 12.424515
v -19.514894 8.340076 12.129295
v -19.514894 7.354354 12.424515
v -19.514894 9.114778 8.640518
v -19.514894 9.677488 9.319435
v -19.514894 10.159987 7.831879
v -19.514894 10.067328 10.128189
v -19.514894 10.159987 10.128189
v -19.514894 9.677488 16.016945
v -19.514894 9.114778 16.695862
v -19.514894 10.159986 17.504509
v -19.514894 8.340076 17.209290
v -19.514894 7.354354 17.504509
v -19.514894 9.114777 13.720512
v -19.514894 9.677488 14.399429
v -19.514894 10.159986 12.911880
v -19.514894 10.067328 15.208191
v -19.514894 10.159987 15.208191
v -19.514894 10.159987 10.128189
v -19.514894 10.067328 10.128189
v -19.514894 10.159986 12.424515
v -19.514894 9.677488 10.936943
v -19.514894 9.114778 8.640518
v -19.514894 10.159987 7.831879
v -19.514894 8.340077 8.127113
v -19.514894 7.354354 7.831879
v -19.514894 10.159987 15.208191
v -19.514894 10.067328 15.208191
v -19.514894 10.159986 17.504509
v -19.514894 9.677488 16.016945
v -19.514894 9.114777 13.720512
v -19.514894 10.159986 12.911880
v -19.514894 8.340076 13.207108
v -19.514894 7.354354 12.911880
vt 0.647766 -0.828064
vt 0.000000 -0.999451
vt 0.352112 -0.627502
vt 0.128540 -0.351440
vt 0.000000 -0.000061
vt 0.647766 -0.372070
vt 0.999939 -0.000061
vt 0.352112 -0.171509
vt 0.000000 -0.032593
vt 0.000000 -0.000061
vt 0.647766 -0.828064
vt 0.000000 -0.999451
vt 0.352112 -0.627502
vt 0.128540 -0.351440
vt 0.000000 -0.000061
vt 0.647766 -0.372070
vt 0.999939 -0.000061
vt 0.352112 -0.171509
vt 0.000000 -0.032593
vt 0.000000 -0.000061
vt 0.999939 -0.999451
vt 0.000000 -0.999451
vt 0.999939 -0.966980
vt 0.647766 -0.828064
vt 0.647766 -0.372070
vt 0.871338 -0.648193
vt 0.999939 -0.000061
vt 0.999939 -0.999451
vt 0.999939 -0.999451
vt 0.000000 -0.999451
vt 0.999939 -0.966980
vt 0.647766 -0.828064
vt 0.647766 -0.372070
vt 0.871338 -0.648193
vt 0.999939 -0.000061
vt 0.999939 -0.999451
vn 1.0000 -0.0000 0.0000
usemtl Tex_0053_1.dds.008
s off
f 1/1/1 3/2/1 2/3/1
f 2/3/1 3/2/1 4/4/1
f 3/2/1 5/5/1 4/4/1
f 6/6/1 8/7/1 7/8/1
f 7/8/1 8/7/1 9/9/1
f 8/7/1 10/10/1 9/9/1
f 11/11/1 13/12/1 12/13/1
f 12/13/1 13/12/1 14/14/1
f 13/12/1 15/15/1 14/14/1
f 16/16/1 18/17/1 17/18/1
f 17/18/1 18/17/1 19/19/1
f 18/17/1 20/20/1 19/19/1
f 21/21/1 23/22/1 22/23/1
f 22/23/1 23/22/1 24/24/1
f 25/25/1 27/26/1 26/27/1
f 26/27/1 27/26/1 28/28/1
f 29/29/1 31/30/1 30/31/1
f 30/31/1 31/30/1 32/32/1
f 33/33/1 35/34/1 34/35/1
f 34/35/1 35/34/1 36/36/1
