# Blender v3.6.3 OBJ File: 'untitled.blend'
# www.blender.org
mtllib Mesh_0107.mtl
o Mesh_0107_Mesh.120
v 40.560413 2.539990 -26.066814
v 41.830418 2.539990 -26.066814
v 40.560413 -0.000010 -26.066814
v 41.830418 -0.000010 -26.066814
v 41.830418 2.539990 -24.796814
v 41.830418 -0.000010 -24.796814
v 41.830418 2.539990 -26.066814
v 41.830418 -0.000010 -26.066814
v 41.830418 2.539990 -24.796814
v 47.545399 2.539296 -24.796806
v 41.830418 -0.000010 -24.796814
v 47.545414 -0.000010 -24.796814
v 40.560413 2.539990 -27.971813
v 40.560413 2.539990 -26.066814
v 40.560413 -0.000010 -27.971813
v 40.560413 -0.000010 -26.066814
v 40.560413 2.539989 20.923187
v 40.560413 -0.000010 20.923187
v 41.830418 2.539989 20.923187
v 41.830418 -0.000010 20.923187
v 41.830418 2.539989 19.653183
v 41.830418 2.539989 20.923187
v 41.830418 -0.000010 19.653183
v 41.830418 -0.000010 20.923187
v 41.830418 2.539989 19.653183
v 41.830418 -0.000010 19.653183
v 47.545399 2.539295 19.653191
v 47.545414 -0.000010 19.653183
v 40.560413 2.539989 22.828186
v 40.560413 -0.000010 22.828186
v 40.560413 2.539989 20.923187
v 40.560413 -0.000010 20.923187
vt -1.261719 0.000000
vt -1.261719 -0.999023
vt -0.997070 0.000000
vt -0.997070 -0.999023
vt 2.238281 0.000000
vt 2.000000 0.000000
vt 2.238281 -0.999023
vt 2.000000 -0.999023
vt -0.997070 0.000000
vt -0.997070 -0.999023
vt 0.309570 0.000000
vt 0.309570 -0.999023
vt 2.000000 0.000000
vt 2.000000 -0.999023
vt 2.500977 0.000000
vt 2.500977 -0.999023
vt -1.261719 0.000000
vt -0.997070 0.000000
vt -1.261719 -0.999023
vt -0.997070 -0.999023
vt 2.238281 0.000000
vt 2.238281 -0.999023
vt 2.000000 0.000000
vt 2.000000 -0.999023
vt -0.997070 0.000000
vt 0.309570 0.000000
vt -0.997070 -0.999023
vt 0.309570 -0.999023
vt 2.000000 0.000000
vt 2.500977 0.000000
vt 2.000000 -0.999023
vt 2.500977 -0.999023
vn 0.0000 0.0000 1.0000
vn -1.0000 0.0000 0.0000
vn 0.0000 0.0000 -1.0000
usemtl Tex_0011_1.dds
s off
f 1/1/1 3/2/1 2/3/1
f 2/3/1 3/2/1 4/4/1
f 5/5/2 7/6/2 6/7/2
f 6/7/2 7/6/2 8/8/2
f 9/9/1 11/10/1 10/11/1
f 10/11/1 11/10/1 12/12/1
f 13/13/2 15/14/2 14/15/2
f 14/15/2 15/14/2 16/16/2
f 17/17/3 19/18/3 18/19/3
f 18/19/3 19/18/3 20/20/3
f 21/21/2 23/22/2 22/23/2
f 22/23/2 23/22/2 24/24/2
f 25/25/3 27/26/3 26/27/3
f 26/27/3 27/26/3 28/28/3
f 29/29/2 31/30/2 30/31/2
f 30/31/2 31/30/2 32/32/2
