# Blender v3.6.3 OBJ File: 'untitled.blend'
# www.blender.org
mtllib Mesh_0146.mtl
o Mesh_0146_Mesh.133
v 10.484732 0.634990 -12.262390
v 10.889101 0.634990 -12.207546
v 10.762327 0.634990 -11.796478
v 11.279753 0.634990 -12.057869
v 11.275244 0.634990 -11.481949
v 11.599031 0.634990 -11.772297
v 11.860144 0.634990 -11.435570
v 9.048365 0.634990 -11.487511
v 9.324717 0.634990 -11.832420
v 9.631849 0.634990 -11.525372
v 9.661264 0.634990 -12.089539
v 10.160704 0.634990 -11.812370
v 10.056742 0.634990 -12.229572
v 10.484732 0.634990 -12.262390
v 9.052942 0.634990 -9.880352
v 8.867514 0.634990 -10.290131
v 9.301405 0.634990 -10.410881
v 8.832464 0.634990 -10.659523
v 9.317358 0.634990 -11.012409
v 8.889612 0.634990 -11.122540
v 9.048365 0.634990 -11.487511
v 11.546427 0.634990 5.207954
v 11.231806 0.634990 4.694901
v 11.971647 0.634990 4.728661
v 10.702940 0.634990 4.407883
v 11.971647 0.634990 -9.873520
v 10.701136 0.634990 -9.562801
v 11.231806 0.634990 -9.838543
v 11.860144 0.634990 6.292030
v 11.599031 0.634990 6.628578
v 11.275244 0.634990 6.338310
v 11.279753 0.634990 6.914330
v 10.762327 0.634990 6.652924
v 10.889101 0.634990 7.063934
v 10.484732 0.634990 7.118797
v 10.484732 0.634990 7.118797
v 10.056742 0.634990 7.086037
v 10.160704 0.634990 6.668739
v 9.661261 0.634990 6.945824
v 9.631849 0.634990 6.381729
v 9.324713 0.634990 6.688782
v 9.048365 0.634990 6.343849
v 9.048365 0.634990 6.343849
v 8.889612 0.634990 5.978851
v 9.317358 0.634990 5.868835
v 8.832464 0.634990 5.515808
v 9.301405 0.634990 5.267334
v 8.867514 0.634990 5.146492
v 9.052942 0.634990 4.736763
v -17.224609 12.699990 -15.271805
v -14.684609 12.699990 -15.271805
v -19.764633 12.699990 -14.001804
v -12.144609 12.699990 -15.271805
v -7.441196 12.699990 -14.001980
v -9.604610 12.699990 -15.271805
v -7.443832 12.699990 -15.272312
v -9.604610 12.699990 10.128189
v -12.144609 12.699990 10.128189
v -7.441275 12.699990 8.858444
v -14.684609 12.699990 10.128189
v -19.764633 12.699990 8.861244
v -17.224609 12.699990 10.128189
v -19.764622 12.699990 10.128189
v -7.078625 9.524990 -10.191807
v -6.597380 9.524990 -9.109009
v -7.078554 9.524989 5.061424
v -5.807920 9.524990 -8.289268
v -6.597378 9.524990 3.964119
v -5.807922 9.524990 3.144295
v 11.562250 0.634990 -10.953068
v 11.996035 0.634990 -11.040394
v 11.546427 0.634990 -10.351547
v 11.971647 0.634990 -9.873520
v 11.231806 0.634990 -9.838543
v -4.538504 8.254990 -7.671288
v -3.268225 8.254990 -7.524517
v -4.538504 8.254991 2.526321
v -3.268225 8.254991 2.379654
v -5.808504 8.889991 -8.289299
v -4.538479 8.889991 -7.671387
v -5.808502 8.889991 3.144310
v -4.538481 8.889991 2.526489
v -1.998341 7.619989 2.441200
v -3.268503 7.619989 2.379494
v -1.998354 7.619989 -7.586147
v -3.268503 7.619989 -7.524452
v 1.812958 5.714990 2.713005
v 0.541496 5.714990 2.594353
v 1.812958 5.714990 -7.857975
v 0.541496 5.714990 -7.739281
v 0.542892 6.349989 2.597076
v -0.728504 6.349989 2.512497
v 0.542892 6.349990 -7.741951
v -0.728504 6.349990 -7.657372
v -0.728127 6.984990 2.512291
v -1.998503 6.984990 2.441223
v -0.728127 6.984990 -7.657219
v -1.998503 6.984990 -7.586197
v 3.081736 5.079990 2.862534
v 1.811459 5.079990 2.712448
v 3.081736 5.079990 -8.007431
v 1.811459 5.079990 -7.857368
v 6.891634 3.174990 3.501419
v 5.621454 3.174990 3.245850
v 6.891634 3.174990 -8.646393
v 5.621462 3.174989 -8.390766
v 5.621416 3.809990 3.245811
v 4.351458 3.809989 3.038826
v 5.621424 3.809989 -8.390690
v 4.351454 3.809991 -8.183731
v 4.351423 4.444989 3.037498
v 3.081457 4.444990 2.863518
v 4.351423 4.444990 -8.182362
v 3.081457 4.444990 -8.008373
v 8.161650 2.539990 3.768875
v 6.891459 2.539990 3.501900
v 8.161650 2.539990 -8.913834
v 6.891459 2.539990 -8.646828
v 10.703146 1.269990 4.409401
v 9.432180 1.269990 4.084511
v 10.702383 1.269990 -9.551735
v 9.432180 1.269990 -9.229492
v 9.433779 1.904990 4.084114
v 8.161459 1.904990 3.768860
v 9.433779 1.904990 -9.228989
v 8.161459 1.904990 -8.913803
v 11.996035 0.634990 -11.040394
v 11.562250 0.634990 -10.953068
v 11.860144 0.634990 -11.435570
v 11.275244 0.634990 -11.481949
v 9.588430 0.634990 -9.882000
v 9.320688 0.634990 -9.881187
v 9.301405 0.634990 -10.410881
v 9.052942 0.634990 -9.880352
v 11.971647 0.634990 4.728661
v 11.996035 0.634990 5.896805
v 11.546427 0.634990 5.207954
v 11.562250 0.634990 5.809441
v 11.996035 0.634990 5.896805
v 11.860144 0.634990 6.292030
v 11.562250 0.634990 5.809441
v 11.275244 0.634990 6.338310
v 9.588430 0.634990 4.738365
v 9.301405 0.634990 5.267334
v 9.320688 0.634990 4.737564
v 9.052942 0.634990 4.736763
v -7.079369 10.794991 -10.191807
v -19.764633 10.794991 -10.191807
v -7.441801 10.794990 -11.460266
v -19.764633 10.794990 -11.461807
v -19.764633 11.429990 -12.731804
v -7.441801 11.429990 -12.730267
v -19.764633 11.429990 -11.461807
v -7.440022 11.429990 -11.461807
v -19.764633 12.064990 -14.001804
v -7.441801 12.064990 -14.001804
v -19.764633 12.064989 -12.731804
v -7.440531 12.064989 -12.731804
v -7.079319 10.794990 5.061554
v -7.441774 10.794990 6.315117
v -19.764633 10.794990 5.048195
v -19.764633 10.794990 6.321243
v -7.441774 11.429989 7.585114
v -19.764633 11.429989 7.591240
v -7.439999 11.429989 6.318192
v -19.764633 11.429989 6.321243
v -19.764633 12.064990 8.861244
v -19.764633 12.064989 7.591240
v -7.441774 12.064990 8.858192
v -7.440504 12.064989 7.588196
v 10.762327 0.634990 -11.796478
v 10.160704 0.634990 -11.812370
v 10.484732 0.634990 -12.262390
v 9.631849 0.634990 -11.525372
v 9.317358 0.634990 -11.012409
v 9.048365 0.634990 -11.487511
v 10.160704 0.634990 6.668739
v 10.762327 0.634990 6.652924
v 10.484732 0.634990 7.118797
v 9.317358 0.634990 5.868835
v 9.631849 0.634990 6.381729
v 9.048365 0.634990 6.343849
v -17.224609 12.699990 -15.271805
v -19.764633 12.699990 -14.001804
v -19.764622 12.699990 -15.271805
v -9.604610 12.699990 10.128189
v -7.441275 12.699990 8.858444
v -7.443714 12.699990 10.128700
vt 0.030273 3.521484
vt -0.065430 3.485352
vt -0.003906 3.443359
vt -0.053711 3.372070
vt -0.150391 3.396484
vt -0.121094 3.320312
vt -0.194336 3.282227
vt -0.010742 3.836914
vt -0.041016 3.719727
vt 0.030273 3.768555
vt 0.052734 3.691406
vt -0.025391 3.603516
vt 0.051758 3.607422
vt 0.030273 3.521484
vt -0.282227 3.901367
vt -0.208008 3.830078
vt -0.201172 3.920898
vt -0.136719 3.913086
vt -0.107422 3.802734
vt -0.062500 3.882812
vt -0.010742 3.836914
vt -3.377930 4.340820
vt -3.292969 4.005859
vt -3.287109 4.587891
vt -3.235352 5.005859
vt -0.707031 4.005859
vt -0.764648 5.005859
vt -0.712891 4.587891
vt -0.566406 -0.988281
vt -0.620117 -0.848633
vt -0.666992 -0.948242
vt -0.759766 -0.891602
vt -0.733398 -0.747070
vt -0.824219 -0.807617
vt -0.866211 -0.712891
vt -0.866211 -0.712891
vt -0.781250 -0.601562
vt -0.889648 -0.606445
vt -0.883789 -0.500000
vt -0.750000 -0.452148
vt -0.846680 -0.399414
vt -0.782227 -0.307617
vt -0.782227 -0.307617
vt -0.648438 -0.338867
vt -0.706055 -0.242188
vt -0.597656 -0.195312
vt -0.502930 -0.291016
vt -0.505859 -0.176758
vt -0.392578 -0.192383
vt -1.952148 0.000000
vt -2.157227 -0.999023
vt -1.746094 0.000000
vt -1.540039 0.000000
vt -1.159180 -0.999023
vt -1.333984 0.000000
vt -1.159180 0.000000
vt -1.492188 0.000000
vt -1.667969 -0.999023
vt -1.286133 0.000000
vt -1.080078 0.000000
vt -0.668945 -0.999023
vt -0.875000 0.000000
vt -0.668945 0.000000
vt -0.166016 -0.999023
vt -3.165039 -0.999023
vt -0.381836 -1.376953
vt -0.542969 -1.998047
vt -2.951172 -1.376953
vt -2.790039 -1.998047
vt -0.515625 4.328125
vt -0.622070 4.340820
vt -0.500000 3.987305
vt -0.707031 4.005859
vt -0.712891 4.587891
vt -1.365234 4.995117
vt -3.369141 4.994141
vt -1.393555 3.995117
vt -3.339844 3.995117
vt -0.875000 5.993164
vt -3.123047 5.993164
vt -0.997070 4.994141
vt -3.000977 4.994141
vt -3.650391 2.996094
vt -1.679688 2.996094
vt -3.637695 3.996094
vt -1.691406 3.996094
vt -3.038086 -0.000977
vt -0.959961 -0.000977
vt -3.014648 0.999023
vt -0.983398 0.999023
vt -0.445312 0.997070
vt 1.587891 0.997070
vt -0.428711 1.998047
vt 1.571289 1.998047
vt -3.103516 1.997070
vt -1.104492 1.997070
vt -3.089844 2.996094
vt -1.119141 2.997070
vt 0.250000 -0.999023
vt 2.387695 -0.999023
vt 0.279297 0.000000
vt 2.357422 0.000000
vt -1.878906 -3.996094
vt 0.509766 -3.996094
vt -1.828125 -2.997070
vt 0.459961 -2.997070
vt 1.400391 -2.996094
vt 3.688477 -2.996094
vt 1.440430 -1.998047
vt 3.647461 -1.998047
vt -3.101562 -1.997070
vt -0.896484 -1.997070
vt -3.067383 -0.999023
vt -0.930664 -0.999023
vt -3.245117 -4.995117
vt -0.752930 -4.995117
vt -3.193359 -3.996094
vt -0.805664 -3.996094
vt 0.155273 -6.993164
vt 2.900391 -6.993164
vt 0.218750 -5.994141
vt 2.836914 -5.994141
vt -3.307617 -5.994141
vt -0.690430 -5.994141
vt -3.245117 -4.995117
vt -0.752930 -4.995117
vt -0.269531 3.271484
vt -0.194336 3.282227
vt -0.256836 3.360352
vt -0.150391 3.396484
vt -0.315430 3.794922
vt -0.208008 3.830078
vt -0.298828 3.847656
vt -0.282227 3.901367
vt -3.292969 4.005859
vt -3.377930 4.340820
vt -3.500000 3.987305
vt -3.484375 4.328125
vt -0.460938 -0.992188
vt -0.470703 -0.880859
vt -0.566406 -0.988281
vt -0.620117 -0.848633
vt -0.354492 -0.323242
vt -0.373047 -0.257812
vt -0.502930 -0.291016
vt -0.392578 -0.192383
vt -1.369141 -0.999023
vt -1.369141 0.000000
vt -2.367188 -0.999023
vt -2.367188 0.000000
vt -2.499023 0.000000
vt -2.499023 -0.999023
vt -1.000977 0.000000
vt -1.000977 -0.999023
vt -1.926758 0.000000
vt -1.926758 -0.999023
vt -0.703125 0.000000
vt -0.703125 -0.999023
vt -2.000000 -0.999023
vt -0.501953 -0.999023
vt -2.000000 0.000000
vt -0.501953 0.000000
vt -2.332031 0.000000
vt -2.332031 -0.999023
vt -1.333984 0.000000
vt -1.333984 -0.999023
vt -1.000977 0.000000
vt -2.499023 0.000000
vt -1.000977 -0.999023
vt -2.499023 -0.999023
vt -0.065430 3.485352
vt 0.030273 3.521484
vt -0.025391 3.603516
vt -0.041016 3.719727
vt -0.010742 3.836914
vt -0.107422 3.802734
vt -0.781250 -0.601562
vt -0.866211 -0.712891
vt -0.733398 -0.747070
vt -0.648438 -0.338867
vt -0.782227 -0.307617
vt -0.750000 -0.452148
vt -1.952148 0.000000
vt -2.157227 0.000000
vt -2.157227 -0.999023
vt -1.492188 0.000000
vt -1.667969 0.000000
vt -1.667969 -0.999023
vn 0.0000 1.0000 0.0000
usemtl Tex_0010_1.dds.001
s off
f 1/1/1 3/2/1 2/3/1
f 2/3/1 3/2/1 4/4/1
f 3/2/1 5/5/1 4/4/1
f 4/4/1 5/5/1 6/6/1
f 5/5/1 7/7/1 6/6/1
f 8/8/1 10/9/1 9/10/1
f 9/10/1 10/9/1 11/11/1
f 10/9/1 12/12/1 11/11/1
f 11/11/1 12/12/1 13/13/1
f 12/12/1 14/14/1 13/13/1
f 15/15/1 17/16/1 16/17/1
f 16/17/1 17/16/1 18/18/1
f 17/16/1 19/19/1 18/18/1
f 18/18/1 19/19/1 20/20/1
f 19/19/1 21/21/1 20/20/1
f 22/22/1 24/23/1 23/24/1
f 23/24/1 24/23/1 25/25/1
f 24/23/1 26/26/1 25/25/1
f 25/25/1 26/26/1 27/27/1
f 26/26/1 28/28/1 27/27/1
f 29/29/1 31/30/1 30/31/1
f 30/31/1 31/30/1 32/32/1
f 31/30/1 33/33/1 32/32/1
f 32/32/1 33/33/1 34/34/1
f 33/33/1 35/35/1 34/34/1
f 36/36/1 38/37/1 37/38/1
f 37/38/1 38/37/1 39/39/1
f 38/37/1 40/40/1 39/39/1
f 39/39/1 40/40/1 41/41/1
f 40/40/1 42/42/1 41/41/1
f 43/43/1 45/44/1 44/45/1
f 44/45/1 45/44/1 46/46/1
f 45/44/1 47/47/1 46/46/1
f 46/46/1 47/47/1 48/48/1
f 47/47/1 49/49/1 48/48/1
f 50/50/1 52/51/1 51/52/1
f 51/52/1 52/51/1 53/53/1
f 52/51/1 54/54/1 53/53/1
f 53/53/1 54/54/1 55/55/1
f 54/54/1 56/56/1 55/55/1
f 57/57/1 59/58/1 58/59/1
f 58/59/1 59/58/1 60/60/1
f 59/58/1 61/61/1 60/60/1
f 60/60/1 61/61/1 62/62/1
f 61/61/1 63/63/1 62/62/1
f 64/64/1 66/65/1 65/66/1
f 65/66/1 66/65/1 67/67/1
f 66/65/1 68/68/1 67/67/1
f 67/67/1 68/68/1 69/69/1
f 70/70/1 72/71/1 71/72/1
f 71/72/1 72/71/1 73/73/1
f 72/71/1 74/74/1 73/73/1
f 75/75/1 77/76/1 76/77/1
f 76/77/1 77/76/1 78/78/1
f 79/79/1 81/80/1 80/81/1
f 80/81/1 81/80/1 82/82/1
f 83/83/1 85/84/1 84/85/1
f 84/85/1 85/84/1 86/86/1
f 87/87/1 89/88/1 88/89/1
f 88/89/1 89/88/1 90/90/1
f 91/91/1 93/92/1 92/93/1
f 92/93/1 93/92/1 94/94/1
f 95/95/1 97/96/1 96/97/1
f 96/97/1 97/96/1 98/98/1
f 99/99/1 101/100/1 100/101/1
f 100/101/1 101/100/1 102/102/1
f 103/103/1 105/104/1 104/105/1
f 104/105/1 105/104/1 106/106/1
f 107/107/1 109/108/1 108/109/1
f 108/109/1 109/108/1 110/110/1
f 111/111/1 113/112/1 112/113/1
f 112/113/1 113/112/1 114/114/1
f 115/115/1 117/116/1 116/117/1
f 116/117/1 117/116/1 118/118/1
f 119/119/1 121/120/1 120/121/1
f 120/121/1 121/120/1 122/122/1
f 123/123/1 125/124/1 124/125/1
f 124/125/1 125/124/1 126/126/1
f 127/127/1 129/128/1 128/129/1
f 128/129/1 129/128/1 130/130/1
f 131/131/1 133/132/1 132/133/1
f 132/133/1 133/132/1 134/134/1
f 135/135/1 137/136/1 136/137/1
f 136/137/1 137/136/1 138/138/1
f 139/139/1 141/140/1 140/141/1
f 140/141/1 141/140/1 142/142/1
f 143/143/1 145/144/1 144/145/1
f 144/145/1 145/144/1 146/146/1
f 147/147/1 149/148/1 148/149/1
f 148/149/1 149/148/1 150/150/1
f 151/151/1 153/152/1 152/153/1
f 152/153/1 153/152/1 154/154/1
f 155/155/1 157/156/1 156/157/1
f 156/157/1 157/156/1 158/158/1
f 159/159/1 161/160/1 160/161/1
f 160/161/1 161/160/1 162/162/1
f 163/163/1 165/164/1 164/165/1
f 164/165/1 165/164/1 166/166/1
f 167/167/1 169/168/1 168/169/1
f 168/169/1 169/168/1 170/170/1
f 171/171/1 173/172/1 172/173/1
f 174/174/1 176/175/1 175/176/1
f 177/177/1 179/178/1 178/179/1
f 180/180/1 182/181/1 181/182/1
f 183/183/1 185/184/1 184/185/1
f 186/186/1 188/187/1 187/188/1
