# Blender v3.6.3 OBJ File: 'untitled.blend'
# www.blender.org
mtllib Mesh_0340.mtl
o Mesh_0340_Mesh.094
v -9.604584 21.814785 -37.079483
v -9.604584 21.040085 -37.592903
v -9.854279 21.040085 -37.592903
v -9.604584 20.054361 -37.888126
v -9.854275 20.054361 -37.888126
v -9.604584 14.763744 -37.888130
v -9.854275 14.763744 -37.888126
v -9.604584 21.814785 -42.159477
v -9.604584 21.040085 -42.672905
v -9.854279 21.040085 -42.672905
v -9.604584 20.054363 -42.968124
v -9.854275 20.054363 -42.968124
v -9.604584 14.763743 -42.968124
v -9.854275 14.763743 -42.968124
v -9.982712 22.859995 -38.241661
v -9.982712 22.859995 -38.131805
v -9.982712 14.562655 -38.131805
v -9.982714 22.859995 -38.021942
v -9.982714 14.562655 -38.021942
v -9.854275 20.054361 -37.888126
v -9.854275 14.763744 -37.888126
v -9.604584 22.767334 -35.591805
v -9.604584 22.377499 -36.400555
v -9.854275 22.377499 -36.400555
v -9.604584 21.814785 -37.079483
v -9.854279 21.814785 -37.079483
v -9.854279 21.040085 -37.592903
v -9.982750 22.859995 -33.051762
v -9.982750 14.562654 -33.051762
v -9.982712 22.859995 -33.161659
v -9.982712 14.562655 -33.161888
v -9.854275 20.054361 -33.295494
v -9.854275 14.763744 -33.295494
v -9.854275 22.377499 -34.783043
v -9.854275 21.814785 -34.104126
v -9.604584 21.814785 -34.104126
v -9.854279 21.040085 -33.590717
v -9.604584 21.040085 -33.590717
v -9.604584 20.054361 -33.295494
v -9.604584 22.767332 -40.671806
v -9.604584 22.377499 -41.480553
v -9.854275 22.377499 -41.480553
v -9.604584 21.814785 -42.159477
v -9.854279 21.814785 -42.159477
v -9.854279 21.040085 -42.672905
v -9.854275 22.377497 -39.863045
v -9.854275 21.814785 -39.184128
v -9.604584 21.814785 -39.184124
v -9.854279 21.040085 -38.670715
v -9.604584 21.040085 -38.670715
v -9.604584 20.054361 -38.375492
v -9.604584 21.814785 -34.104126
v -9.604584 22.377499 -34.783039
v -9.854275 22.377499 -34.783043
v -9.604584 22.767334 -35.591805
v -9.854275 22.767334 -35.591805
v -9.854279 21.040085 -33.590717
v -9.854275 20.054361 -33.295494
v -9.604584 20.054361 -33.295494
v -9.854275 14.763744 -33.295494
v -9.604584 14.763744 -33.295494
v -9.982752 14.562654 -43.211845
v -9.982714 22.859995 -43.101940
v -9.982714 14.562654 -43.101940
v -9.854275 20.054363 -42.968124
v -9.854275 14.763743 -42.968124
v -9.982712 14.562655 -38.131805
v -9.982712 14.562655 -38.241894
v -9.982712 22.859995 -38.241661
v -9.854275 20.054361 -38.375492
v -9.854275 22.859995 -38.375492
v -9.604584 21.814785 -39.184124
v -9.604584 22.377497 -39.863041
v -9.854275 22.377497 -39.863045
v -9.604584 22.767332 -40.671806
v -9.854275 22.767332 -40.671806
v -9.854279 21.040085 -38.670715
v -9.854275 20.054361 -38.375492
v -9.604584 20.054361 -38.375492
v -9.854275 14.763744 -38.375492
v -9.604584 14.763744 -38.375492
v -9.854273 14.763745 -43.529396
v -9.604584 14.763743 -43.529392
v -9.854269 22.859995 -43.529392
v -9.604584 22.859995 -43.529392
v -9.982752 14.562654 -43.211845
v -9.854273 14.763745 -43.529396
v -9.982750 22.859995 -43.211845
v -9.854269 22.859995 -43.529392
v -9.854267 14.763744 -32.734215
v -9.854267 22.859995 -32.734215
v -9.604584 14.763744 -32.734215
v -9.604584 22.859995 -32.734215
v -9.982750 14.562654 -33.051762
v -9.982750 22.859995 -33.051762
v -9.854267 14.763744 -32.734215
v -9.854267 22.859995 -32.734215
v -9.604584 22.767334 -35.591805
v -9.854275 22.377499 -36.400555
v -9.854275 22.767334 -35.591805
v -9.982714 22.859995 -38.021942
v -9.854275 22.859995 -37.888126
v -9.854275 20.054361 -37.888126
v -9.854275 20.054361 -33.295494
v -9.854275 22.859995 -33.295494
v -9.982712 22.859995 -33.161659
v -9.982714 22.859995 -43.101940
v -9.982752 14.562654 -43.211845
v -9.982750 22.859995 -43.211845
v -9.604584 22.767332 -40.671806
v -9.854275 22.377499 -41.480553
v -9.854275 22.767332 -40.671806
v -9.982714 22.859995 -43.101940
v -9.854275 22.859995 -42.968124
v -9.854275 20.054363 -42.968124
v -9.854275 14.763744 -38.375492
v -9.854275 20.054361 -38.375492
v -9.982712 14.562655 -38.241894
vt -3.995117 1.964844
vt -3.807617 1.643555
vt -3.995117 1.643555
vt -3.995117 1.160156
vt -3.807617 1.160156
vt -3.995117 -1.178711
vt -3.807617 -1.178711
vt -3.995117 1.964844
vt -3.807617 1.643555
vt -3.995117 1.643555
vt -3.995117 1.160156
vt -3.807617 1.160156
vt -3.995117 -1.178711
vt -3.807617 -1.178711
vt -3.357422 2.427734
vt -2.995117 -1.263672
vt -2.995117 2.427734
vt -3.357422 2.427734
vt -3.361328 -1.266602
vt -3.807617 1.167969
vt -3.807617 -1.178711
vt -3.995117 2.801758
vt -3.807617 2.360352
vt -3.995117 2.360352
vt -3.995117 1.964844
vt -3.807617 1.964844
vt -3.807617 1.643555
vt -2.995117 2.427734
vt -3.357422 2.427734
vt -2.995117 -1.263672
vt -3.361328 -1.266602
vt -3.807617 1.167969
vt -3.807617 -1.178711
vt -3.807617 2.360352
vt -3.995117 1.964844
vt -3.807617 1.964844
vt -3.807617 1.643555
vt -3.995117 1.643555
vt -3.995117 1.160156
vt -3.995117 2.801758
vt -3.807617 2.360352
vt -3.995117 2.360352
vt -3.995117 1.964844
vt -3.807617 1.964844
vt -3.807617 1.643555
vt -3.807617 2.360352
vt -3.995117 1.964844
vt -3.807617 1.964844
vt -3.807617 1.643555
vt -3.995117 1.643555
vt -3.995117 1.160156
vt -3.995117 1.964844
vt -3.807617 2.360352
vt -3.995117 2.360352
vt -3.995117 2.801758
vt -3.807617 2.801758
vt -3.807617 1.643555
vt -3.995117 1.160156
vt -3.807617 1.160156
vt -3.807617 -1.178711
vt -3.995117 -1.178711
vt -2.995117 -1.263672
vt -3.361328 -1.266602
vt -3.357422 2.427734
vt -3.807617 1.167969
vt -3.807617 -1.178711
vt -2.995117 -1.263672
vt -3.357422 2.427734
vt -3.361328 -1.266602
vt -3.807617 1.167969
vt -3.807617 2.430664
vt -3.995117 1.964844
vt -3.807617 2.360352
vt -3.995117 2.360352
vt -3.995117 2.801758
vt -3.807617 2.801758
vt -3.807617 1.643555
vt -3.995117 1.160156
vt -3.807617 1.160156
vt -3.807617 -1.178711
vt -3.995117 -1.178711
vt 4.235352 -3.171875
vt 4.235352 0.434570
vt 4.000000 -3.171875
vt 4.000000 0.434570
vt 4.992188 -3.258789
vt 4.992188 0.434570
vt 4.235352 -3.171875
vt 4.235352 0.434570
vt 4.235352 -3.171875
vt 4.000000 -3.171875
vt 4.235352 0.434570
vt 4.000000 0.434570
vt 4.992188 -3.258789
vt 4.235352 -3.171875
vt 4.992188 0.434570
vt 4.235352 0.434570
vt -3.995117 2.801758
vt -3.807617 2.801758
vt -3.807617 2.360352
vt -3.357422 2.427734
vt -3.807617 1.167969
vt -3.807617 2.430664
vt -3.807617 1.167969
vt -3.357422 2.427734
vt -3.807617 2.430664
vt -3.357422 2.427734
vt -2.995117 2.427734
vt -2.995117 -1.263672
vt -3.995117 2.801758
vt -3.807617 2.801758
vt -3.807617 2.360352
vt -3.357422 2.427734
vt -3.807617 1.167969
vt -3.807617 2.430664
vt -3.807617 -1.178711
vt -3.361328 -1.266602
vt -3.807617 1.167969
vn 0.0000 -0.5524 0.8336
vn 0.0434 -0.5616 0.8263
vn 0.0000 -0.2869 0.9580
vn 0.0582 -0.5078 0.8595
vn 0.0084 -0.2869 0.9579
vn 0.0000 -0.0000 1.0000
vn 0.0132 -0.2786 0.9603
vn 0.1429 -0.5784 0.8032
vn -0.1466 -0.5465 0.8246
vn -0.1466 -0.2838 0.9476
vn 0.1412 -0.2510 0.9576
vn -0.0590 -0.0447 0.9973
vn 0.1450 -0.2839 0.9478
vn -0.0380 0.0000 0.9993
vn 0.1448 0.0068 0.9894
vn 0.0069 -0.1448 0.9894
vn -1.0000 0.0000 0.0000
vn -0.9996 0.0282 0.0004
vn -0.9713 -0.2377 -0.0000
vn -0.9996 0.0004 -0.0282
vn -0.0702 0.0444 0.9965
vn -0.2775 -0.0169 0.9606
vn -0.7215 0.0000 0.6925
vn -0.3773 -0.3520 0.8566
vn -0.7214 0.0000 0.6925
vn 0.0000 -0.9008 0.4342
vn 0.1277 -0.9083 0.3984
vn -0.1212 -0.8942 0.4310
vn -0.1212 -0.7643 0.6334
vn 0.1055 -0.7462 0.6573
vn -0.0362 -0.6815 0.7309
vn 0.0299 -0.8326 0.5530
vn 0.1462 -0.7617 0.6313
vn -0.1278 -0.7862 0.6046
vn -0.1541 -0.5108 0.8458
vn 0.1462 -0.5465 0.8246
vn -1.0000 0.0000 -0.0003
vn -0.9996 0.0282 -0.0007
vn -0.9996 0.0004 0.0279
vn -0.9713 -0.2377 -0.0003
vn -0.0701 0.0444 -0.9966
vn -0.7213 0.0000 -0.6926
vn -0.2775 -0.0169 -0.9606
vn -0.3762 -0.3521 -0.8570
vn -0.7207 0.0000 -0.6933
vn -0.7209 0.0000 -0.6930
vn 0.0000 -0.7699 -0.6381
vn -0.1542 -0.7878 -0.5963
vn 0.1462 -0.7616 -0.6313
vn 0.1462 -0.5465 -0.8246
vn -0.1276 -0.5190 -0.8452
vn 0.0349 -0.4390 -0.8978
vn -0.0343 -0.6539 -0.7558
vn -0.1466 -0.5465 -0.8246
vn 0.1300 -0.5765 -0.8067
vn 0.1542 -0.2474 -0.9566
vn -0.1466 -0.2838 -0.9476
vn 0.0000 -0.2869 -0.9580
vn 0.1462 -0.7616 0.6313
vn 0.0349 -0.4391 -0.8978
vn 0.1278 -0.7400 -0.6604
vn -0.1212 -0.7642 -0.6334
vn -0.1212 -0.8942 -0.4310
vn 0.1055 -0.9081 -0.4052
vn 0.0000 -0.9008 -0.4342
vn 0.0293 -0.8496 -0.5266
vn -0.1524 -0.3188 -0.9355
vn 0.1450 -0.2839 -0.9478
vn 0.1450 0.0000 -0.9894
vn -0.1330 0.0063 -0.9911
vn 0.0000 0.0000 -1.0000
vn -0.0063 -0.1330 -0.9911
vn -1.0000 0.0000 0.0003
vn -0.9714 -0.2376 0.0003
vn -0.8001 0.0080 -0.5999
vn -0.6330 0.0080 0.7741
vn -0.2778 -0.0169 0.9605
vn -0.3776 -0.3518 0.8565
vn -0.7255 0.0091 0.6882
vn -0.9999 -0.0147 0.0000
vn -0.0555 -0.0230 -0.9982
vn -0.7171 0.0004 -0.6970
vn -0.7217 0.0058 -0.6922
vn -0.7215 0.0000 -0.6924
vn 0.1278 -0.7400 -0.6603
vn 0.0001 0.0000 -1.0000
vn -0.9270 0.0000 -0.3751
vn -0.9270 0.0000 0.3751
vn -0.7215 0.0000 0.6924
usemtl Tex_0030_0.dds.011
s off
f 1/1/1 3/2/2 2/3/1
f 2/3/3 3/2/3 4/4/3
f 3/2/4 5/5/5 4/4/3
f 4/4/6 5/5/6 6/6/6
f 5/5/7 7/7/6 6/6/6
f 8/8/1 10/9/8 9/10/9
f 9/10/10 10/9/11 11/11/12
f 10/9/3 12/12/13 11/11/3
f 11/11/14 12/12/15 13/13/6
f 12/12/16 14/14/6 13/13/6
f 15/15/17 17/16/17 16/17/17
f 16/17/17 17/16/17 18/18/18
f 17/16/17 19/19/19 18/18/20
f 18/18/21 19/19/22 20/20/23
f 19/19/24 21/21/25 20/20/25
f 22/22/26 24/23/27 23/24/28
f 23/24/29 24/23/30 25/25/31
f 24/23/32 26/26/33 25/25/34
f 25/25/35 26/26/36 27/27/1
f 28/28/37 30/29/38 29/30/37
f 29/30/37 30/29/39 31/31/40
f 30/29/41 32/32/42 31/31/43
f 31/31/44 32/32/45 33/33/46
f 34/34/47 36/35/48 35/36/49
f 35/36/50 36/35/51 37/37/52
f 36/35/53 38/38/54 37/37/55
f 37/37/56 38/38/57 39/39/58
f 40/40/26 42/41/27 41/42/28
f 41/42/29 42/41/30 43/43/31
f 42/41/32 44/44/59 43/43/34
f 43/43/35 44/44/36 45/45/1
f 46/46/47 48/47/48 47/48/49
f 47/48/50 48/47/51 49/49/60
f 48/47/53 50/50/54 49/49/55
f 49/49/56 50/50/57 51/51/58
f 52/52/47 54/53/61 53/54/62
f 53/54/63 54/53/64 55/55/65
f 54/53/66 56/56/65 55/55/65
f 57/57/58 59/58/67 58/59/68
f 58/59/69 59/58/70 60/60/71
f 59/58/72 61/61/71 60/60/71
f 62/62/73 64/63/74 63/64/75
f 63/64/76 64/63/77 65/65/25
f 64/63/78 66/66/23 65/65/23
f 67/67/17 69/68/79 68/69/80
f 68/69/81 69/68/82 70/70/42
f 69/68/83 71/71/84 70/70/84
f 72/72/47 74/73/85 73/74/62
f 73/74/63 74/73/64 75/75/65
f 74/73/66 76/76/65 75/75/65
f 77/77/58 79/78/67 78/79/68
f 78/79/69 79/78/70 80/80/71
f 79/78/72 81/81/71 80/80/71
f 82/82/86 84/83/86 83/84/86
f 83/84/71 84/83/71 85/85/71
f 86/86/87 88/87/87 87/88/87
f 87/88/87 88/87/87 89/89/87
f 90/90/6 92/91/6 91/92/6
f 91/92/6 92/91/6 93/93/6
f 94/94/88 96/95/88 95/96/88
f 95/96/88 96/95/88 97/97/88
f 98/98/26 100/99/26 99/100/26
f 101/101/25 103/102/25 102/103/25
f 104/104/84 106/105/84 105/106/84
f 107/107/73 109/108/73 108/109/73
f 110/110/26 112/111/26 111/112/26
f 113/113/89 115/114/89 114/115/89
f 116/116/46 118/117/46 117/118/46
