# Blender v3.6.3 OBJ File: 'untitled.blend'
# www.blender.org
mtllib Mesh_0247.mtl
o Mesh_0247_Mesh.061
v 35.066750 12.202486 -29.824551
v 35.066757 12.202486 -28.988567
v 35.093880 11.835293 -29.824554
v 35.093880 11.835292 -28.988567
v 35.175285 10.733716 -29.824554
v 35.175278 10.733714 -28.988571
v 35.175285 2.063744 -29.824554
v 35.175285 2.063744 -28.988575
v 35.175285 0.987774 -28.988575
v 26.895555 0.987774 -28.988571
v 26.895555 2.063744 -28.988567
v 26.895555 2.063743 -29.824554
v 26.895555 10.733714 -28.988571
v 26.895555 10.733716 -29.824554
v 26.976954 11.835292 -28.988567
v 26.976954 11.835293 -29.824554
v 27.004091 12.202485 -28.988567
v 27.004091 12.202483 -29.824551
v 26.895552 0.564435 -28.988571
v 26.895555 0.846652 -28.988571
v 26.895555 -0.000006 -29.824554
v 26.895555 0.987774 -28.988571
v 26.895555 2.063743 -29.824554
v 35.175285 2.063744 -29.824554
v 35.175285 0.987774 -28.988575
v 35.175285 -0.000006 -29.824554
v 35.175278 0.846651 -28.988571
v 35.175285 0.564435 -28.988571
v 26.208460 13.435272 -28.484627
v 26.313871 14.260188 -28.484627
v 26.208460 13.435272 -28.988571
v 26.313868 14.260188 -28.988567
v 26.176710 12.699993 -28.484627
v 26.208460 13.435272 -28.484627
v 26.176710 12.699992 -28.988571
v 26.208460 13.435272 -28.988571
v 26.481768 15.006440 -28.484627
v 26.721792 15.737656 -28.484375
v 26.481768 15.006440 -28.988567
v 26.721792 15.737656 -28.988571
v 26.313871 14.260188 -28.484627
v 26.481768 15.006440 -28.484627
v 26.313868 14.260188 -28.988567
v 26.481768 15.006440 -28.988567
v 27.022024 16.451900 -28.484627
v 27.390577 17.141460 -28.484627
v 27.022024 16.451904 -28.988564
v 27.390577 17.141464 -28.988567
v 26.721792 15.737656 -28.484375
v 27.022024 16.451900 -28.484627
v 26.721792 15.737656 -28.988571
v 27.022024 16.451904 -28.988564
v 27.815512 17.806080 -28.484627
v 28.303705 18.437014 -28.484627
v 27.815512 17.806080 -28.988571
v 28.303705 18.437014 -28.988567
v 27.390577 17.141460 -28.484627
v 27.815512 17.806080 -28.484627
v 27.390577 17.141464 -28.988567
v 27.815512 17.806080 -28.988571
v 28.843210 19.035641 -28.484371
v 29.438829 19.592434 -28.484627
v 28.872923 19.035643 -28.988567
v 29.438829 19.592434 -28.988571
v 28.303705 18.437014 -28.484627
v 28.843210 19.035641 -28.484371
v 28.303705 18.437014 -28.988567
v 28.872923 19.035643 -28.988567
v 29.438829 19.592434 -28.484627
v 30.079176 20.110342 -28.484627
v 29.438829 19.592434 -28.988571
v 30.079168 20.110342 -28.988564
v 31.035479 20.676077 -28.988571
v 30.079168 20.110342 -28.988564
v 31.035479 20.676075 -28.484623
v 30.079176 20.110342 -28.484627
v 27.004091 12.202485 -28.988567
v 27.523214 13.054904 -28.988571
v 27.004091 12.202483 -29.824551
v 27.523214 13.054904 -29.824554
v 27.523214 13.054904 -28.988571
v 28.431711 13.801928 -28.988571
v 27.523214 13.054904 -29.824554
v 28.431711 13.801928 -29.824554
v 28.431711 13.801928 -28.988571
v 29.733561 14.450399 -28.988571
v 28.431711 13.801928 -29.824554
v 29.733564 14.450399 -29.824554
v 29.733561 14.450399 -28.988571
v 31.035410 14.799484 -28.988556
v 29.733564 14.450399 -29.824554
v 31.035414 14.799483 -29.824558
v 25.562033 14.368392 -28.484627
v 25.448999 13.559606 -28.484627
v 25.562033 14.368394 -27.971806
v 25.448999 13.559606 -27.971806
v 25.448999 13.559606 -28.484627
v 25.415213 12.699992 -28.484627
v 25.448999 13.559606 -27.971806
v 25.415213 12.699993 -27.971806
v 25.999166 15.951397 -28.484627
v 25.742128 15.167935 -28.484375
v 25.999166 15.951397 -27.971806
v 25.742128 15.167933 -27.971806
v 25.742128 15.167935 -28.484375
v 25.562033 14.368392 -28.484627
v 25.742128 15.167933 -27.971806
v 25.562033 14.368394 -27.971806
v 26.715696 17.455454 -28.484627
v 26.320726 16.716646 -28.484627
v 26.715696 17.455456 -27.971806
v 26.320726 16.716646 -27.971806
v 26.320726 16.716646 -28.484627
v 25.999166 15.951397 -28.484627
v 26.320726 16.716646 -27.971806
v 25.999166 15.951397 -27.971806
v 27.694105 18.843567 -28.484375
v 27.171122 18.167543 -28.484627
v 27.694105 18.843565 -27.971806
v 27.171122 18.167543 -27.971806
v 27.171122 18.167543 -28.484627
v 26.715696 17.455454 -28.484627
v 27.171122 18.167543 -27.971806
v 26.715696 17.455456 -27.971806
v 28.910261 20.081482 -28.484371
v 28.271955 19.484941 -28.484371
v 28.910261 20.081488 -27.971806
v 28.271955 19.484941 -27.971806
v 28.271955 19.484941 -28.484371
v 27.694105 18.843567 -28.484375
v 28.271955 19.484941 -27.971806
v 27.694105 18.843565 -27.971806
v 30.326044 21.138811 -28.484627
v 29.596312 20.636400 -28.484627
v 30.326044 21.138784 -27.971806
v 29.596312 20.636400 -27.971806
v 29.596312 20.636400 -28.484627
v 28.910261 20.081482 -28.484371
v 29.596312 20.636400 -27.971806
v 28.910261 20.081488 -27.971806
v 31.035479 21.478153 -28.484631
v 30.326044 21.138811 -28.484627
v 31.035479 21.478151 -27.971806
v 30.326044 21.138784 -27.971806
v 26.176710 12.699993 -28.484627
v 26.176710 12.699992 -28.988571
v 26.176710 2.063744 -28.484623
v 26.176710 2.063744 -28.988567
v 25.415213 12.699993 -27.971806
v 25.415213 12.699992 -28.484627
v 25.415213 2.063744 -27.971806
v 25.415220 2.063744 -28.484631
v 35.862495 13.435272 -28.484627
v 35.862495 13.435272 -28.988564
v 35.757080 14.260188 -28.484627
v 35.757088 14.260188 -28.988567
v 35.894249 12.699992 -28.484627
v 35.894249 12.699993 -28.988571
v 35.862495 13.435272 -28.484627
v 35.862495 13.435272 -28.988564
v 35.589195 15.006440 -28.484627
v 35.589188 15.006440 -28.988567
v 35.349159 15.737656 -28.484371
v 35.349159 15.737656 -28.988571
v 35.757080 14.260188 -28.484627
v 35.757088 14.260188 -28.988567
v 35.589195 15.006440 -28.484627
v 35.589188 15.006440 -28.988567
v 35.048935 16.451904 -28.484627
v 35.048927 16.451904 -28.988567
v 34.680382 17.141462 -28.484627
v 34.680382 17.141462 -28.988567
v 35.349159 15.737656 -28.484371
v 35.349159 15.737656 -28.988571
v 35.048935 16.451904 -28.484627
v 35.048927 16.451904 -28.988567
v 34.255440 17.806078 -28.484627
v 34.255440 17.806082 -28.988571
v 33.767242 18.437014 -28.484627
v 33.767242 18.437016 -28.988567
v 34.680382 17.141462 -28.484627
v 34.680382 17.141462 -28.988567
v 34.255440 17.806078 -28.484627
v 34.255440 17.806082 -28.988571
v 33.227745 19.035643 -28.484371
v 33.227753 19.035643 -28.988564
v 32.632126 19.592438 -28.484627
v 32.632126 19.592440 -28.988571
v 33.767242 18.437014 -28.484627
v 33.767242 18.437016 -28.988567
v 33.227745 19.035643 -28.484371
v 33.227753 19.035643 -28.988564
v 32.632126 19.592438 -28.484627
v 32.632126 19.592440 -28.988571
v 31.991793 20.110344 -28.484627
v 31.991793 20.110346 -28.988567
v 31.991793 20.110344 -28.484627
v 31.991793 20.110346 -28.988567
v 31.035479 20.676075 -28.484623
v 31.035479 20.676077 -28.988571
v 35.066757 12.202486 -28.988567
v 35.066750 12.202486 -29.824551
v 34.547623 13.054905 -28.988571
v 34.547623 13.054905 -29.824554
v 34.547623 13.054905 -28.988571
v 34.547623 13.054905 -29.824554
v 33.639122 13.801928 -28.988571
v 33.639122 13.801928 -29.824554
v 33.639122 13.801928 -28.988571
v 33.639122 13.801928 -29.824554
v 32.337257 14.450399 -28.988571
v 32.337265 14.450399 -29.824554
v 32.337257 14.450399 -28.988571
v 32.337265 14.450399 -29.824554
v 31.035410 14.799484 -28.988556
v 31.035414 14.799483 -29.824558
v 36.508911 14.368392 -28.484627
v 36.508911 14.368392 -27.971806
v 36.621964 13.559606 -28.484627
v 36.621964 13.559606 -27.971806
v 36.621964 13.559606 -28.484627
v 36.621964 13.559606 -27.971806
v 36.655739 12.699993 -28.484627
v 36.655739 12.699993 -27.971806
v 36.071793 15.951393 -28.484627
v 36.071793 15.951396 -27.971806
v 36.328835 15.167933 -28.484375
v 36.328835 15.167935 -27.971806
v 36.328835 15.167933 -28.484375
v 36.328835 15.167935 -27.971806
v 36.508911 14.368392 -28.484627
v 36.508911 14.368392 -27.971806
v 35.355247 17.455454 -28.484627
v 35.355247 17.455454 -27.971806
v 35.750229 16.716646 -28.484627
v 35.750229 16.716646 -27.971806
v 35.750229 16.716646 -28.484627
v 35.750229 16.716646 -27.971806
v 36.071793 15.951393 -28.484627
v 36.071793 15.951396 -27.971806
v 34.376846 18.843565 -28.484375
v 34.376846 18.843563 -27.971802
v 34.899834 18.167543 -28.484627
v 34.899834 18.167542 -27.971806
v 34.899834 18.167543 -28.484627
v 34.899834 18.167542 -27.971806
v 35.355247 17.455454 -28.484627
v 35.355247 17.455454 -27.971806
v 33.160690 20.081480 -28.484375
v 33.160690 20.081482 -27.971806
v 33.798996 19.484941 -28.484375
v 33.798996 19.484941 -27.971806
v 33.798996 19.484941 -28.484375
v 33.798996 19.484941 -27.971806
v 34.376846 18.843565 -28.484375
v 34.376846 18.843563 -27.971802
v 31.744898 21.138807 -28.484638
v 31.744894 21.138773 -27.971798
v 32.474625 20.636385 -28.484619
v 32.474625 20.636387 -27.971798
v 32.474625 20.636385 -28.484619
v 32.474625 20.636387 -27.971798
v 33.160690 20.081480 -28.484375
v 33.160690 20.081482 -27.971806
v 31.035479 21.478153 -28.484631
v 31.035479 21.478151 -27.971806
v 31.744898 21.138807 -28.484638
v 31.744894 21.138773 -27.971798
v 35.894249 12.699992 -28.484627
v 35.894249 2.063744 -28.484627
v 35.894249 12.699993 -28.988571
v 35.894249 2.063744 -28.988567
v 36.655739 12.699993 -27.971806
v 36.655739 2.063744 -27.971806
v 36.655739 12.699993 -28.484627
v 36.655739 2.063744 -28.484631
v 26.895555 -0.000006 -29.824554
v 26.895555 -0.000006 -28.988564
v 26.895552 0.564435 -28.988571
v 26.895555 0.846652 -28.988571
v 26.895552 0.564435 -28.988571
v 26.773512 0.705555 -28.988571
v 35.175285 0.564435 -28.988571
v 35.175285 -0.000006 -28.988564
v 35.175285 -0.000006 -29.824554
v 35.175285 0.564435 -28.988571
v 35.175278 0.846651 -28.988571
v 35.286194 0.705554 -28.988571
v 9.387320 0.705548 -27.971798
v 9.261324 0.564436 -27.971806
v 9.261324 0.846657 -27.971806
v 2.009506 0.564436 -27.971806
v 1.883509 0.705548 -27.971798
v 2.009506 0.846657 -27.971806
vt 2.132812 0.774414
vt 2.132812 0.981445
vt 2.361328 0.774414
vt 2.360352 0.982422
vt 2.132812 1.246094
vt 2.360352 1.247070
vt 2.130859 3.292969
vt 2.357422 3.292969
vt 2.357422 3.623047
vt 2.357422 3.623047
vt 2.130859 3.292969
vt 2.357422 3.292969
vt 2.360352 1.240234
vt 2.132812 1.238281
vt 2.360352 0.981445
vt 2.132812 0.978516
vt 2.361328 0.774414
vt 2.132812 0.774414
vt 2.357422 3.751953
vt 2.132812 3.924805
vt 2.357422 3.666016
vt 2.357422 3.623047
vt 2.130859 3.292969
vt 2.130859 3.292969
vt 2.132812 3.924805
vt 2.357422 3.623047
vt 2.357422 3.666016
vt 2.357422 3.751953
vt 2.553711 -0.791016
vt 2.554688 -1.000000
vt 2.147461 -0.791992
vt 2.147461 -1.000977
vt 2.291992 -0.225586
vt 2.071289 -0.228516
vt 2.287109 -0.009766
vt 2.065430 -0.004883
vt 2.562500 0.202148
vt 2.561523 -0.000977
vt 2.145508 0.204102
vt 2.144531 0.000000
vt 2.735352 -0.991211
vt 2.735352 -1.235352
vt 2.293945 -0.991211
vt 2.293945 -1.235352
vt 2.864258 0.205078
vt 2.493164 0.205078
vt 2.864258 0.403320
vt 2.493164 0.403320
vt 3.147461 -0.795898
vt 3.147461 -1.000977
vt 2.787109 -0.795898
vt 2.787109 -1.000977
vt 2.547852 -0.790039
vt 2.548828 -0.991211
vt 2.139648 -0.791992
vt 2.140625 -0.994141
vt 2.073242 -1.225586
vt 1.735352 -1.225586
vt 2.073242 -0.995117
vt 1.735352 -0.995117
vt 3.154297 -1.002930
vt 2.801758 -1.002930
vt 3.154297 -0.793945
vt 2.801758 -0.793945
vt 2.737305 -1.238281
vt 2.291992 -1.238281
vt 2.737305 -0.998047
vt 2.291992 -0.998047
vt 2.736328 -0.233398
vt 2.298828 -0.233398
vt 2.736328 0.006836
vt 2.298828 0.006836
vt 2.145508 0.213867
vt 2.544922 0.213867
vt 2.145508 0.008789
vt 2.544922 0.008789
vt 2.145508 0.211914
vt 2.147461 0.002930
vt 1.788086 0.208984
vt 1.790039 0.000000
vt 2.552734 -0.994141
vt 2.143555 -0.994141
vt 2.552734 -0.791992
vt 2.143555 -0.791992
vt 2.740234 -0.235352
vt 2.284180 -0.235352
vt 2.740234 0.003906
vt 2.284180 0.003906
vt 2.558594 -0.789062
vt 2.558594 -0.997070
vt 2.148438 -0.789062
vt 2.148438 -0.998047
vt 2.150391 -0.994141
vt 2.150391 -0.806641
vt 2.552734 -0.994141
vt 2.551758 -0.806641
vt 2.476562 -0.785156
vt 2.476562 -0.605469
vt 2.857422 -0.786133
vt 2.857422 -0.605469
vt 2.142578 -0.994141
vt 2.142578 -0.787109
vt 2.548828 -0.995117
vt 2.548828 -0.788086
vt 2.286133 -0.235352
vt 2.287109 0.004883
vt 2.736328 -0.238281
vt 2.738281 0.001953
vt 2.141602 0.202148
vt 2.554688 0.202148
vt 2.141602 0.003906
vt 2.554688 0.003906
vt 2.290039 -0.239258
vt 2.289062 0.006836
vt 2.734375 -0.236328
vt 2.732422 0.009766
vt 2.300781 -1.000000
vt 2.728516 -1.000000
vt 2.300781 -1.236328
vt 2.728516 -1.236328
vt 2.395508 -0.416016
vt 2.639648 -0.416016
vt 2.395508 -0.592773
vt 2.639648 -0.592773
vt 2.149414 -0.799805
vt 2.551758 -0.799805
vt 2.149414 -0.998047
vt 2.551758 -0.998047
vt 1.791016 -0.787109
vt 2.150391 -0.787109
vt 1.791016 -0.999023
vt 2.150391 -0.999023
vt 2.282227 0.008789
vt 2.737305 0.008789
vt 2.282227 -0.234375
vt 2.737305 -0.234375
vt 2.294922 -0.998047
vt 2.740234 -0.998047
vt 2.294922 -1.230469
vt 2.740234 -1.230469
vt 2.393555 -0.409180
vt 2.641602 -0.409180
vt 2.393555 -0.588867
vt 2.641602 -0.588867
vt 2.523438 0.774414
vt 2.519531 3.292969
vt 2.361328 0.774414
vt 2.356445 3.292969
vt 2.685547 0.774414
vt 2.681641 3.292969
vt 2.536133 0.774414
vt 2.532227 3.292969
vt 2.553711 -0.791016
vt 2.147461 -0.791992
vt 2.554688 -1.000000
vt 2.147461 -1.000977
vt 2.291992 -0.225586
vt 2.287109 -0.009766
vt 2.071289 -0.228516
vt 2.065430 -0.004883
vt 2.562500 0.202148
vt 2.145508 0.204102
vt 2.561523 -0.000977
vt 2.144531 0.000000
vt 2.735352 -0.991211
vt 2.293945 -0.991211
vt 2.735352 -1.235352
vt 2.293945 -1.235352
vt 2.864258 0.205078
vt 2.864258 0.403320
vt 2.493164 0.205078
vt 2.493164 0.403320
vt 3.147461 -0.795898
vt 2.787109 -0.795898
vt 3.147461 -1.000977
vt 2.787109 -1.000977
vt 2.547852 -0.790039
vt 2.139648 -0.791992
vt 2.548828 -0.991211
vt 2.140625 -0.994141
vt 2.073242 -1.225586
vt 2.073242 -0.995117
vt 1.735352 -1.225586
vt 1.735352 -0.995117
vt 3.154297 -1.002930
vt 3.154297 -0.793945
vt 2.801758 -1.002930
vt 2.801758 -0.793945
vt 2.737305 -1.238281
vt 2.737305 -0.998047
vt 2.291992 -1.238281
vt 2.291992 -0.998047
vt 2.736328 -0.233398
vt 2.736328 0.006836
vt 2.298828 -0.233398
vt 2.298828 0.006836
vt 2.544922 0.008789
vt 2.544922 0.213867
vt 2.145508 0.008789
vt 2.145508 0.213867
vt 2.145508 0.211914
vt 1.788086 0.208984
vt 2.147461 0.002930
vt 1.790039 0.000000
vt 2.552734 -0.994141
vt 2.552734 -0.791992
vt 2.143555 -0.994141
vt 2.143555 -0.791992
vt 2.740234 -0.235352
vt 2.740234 0.003906
vt 2.284180 -0.235352
vt 2.284180 0.003906
vt 2.558594 -0.789062
vt 2.148438 -0.789062
vt 2.558594 -0.997070
vt 2.148438 -0.998047
vt 2.150391 -0.994141
vt 2.552734 -0.994141
vt 2.150391 -0.806641
vt 2.551758 -0.806641
vt 2.476562 -0.785156
vt 2.857422 -0.786133
vt 2.476562 -0.605469
vt 2.857422 -0.605469
vt 2.142578 -0.994141
vt 2.548828 -0.995117
vt 2.142578 -0.787109
vt 2.548828 -0.788086
vt 2.286133 -0.235352
vt 2.736328 -0.238281
vt 2.287109 0.004883
vt 2.738281 0.001953
vt 2.141602 0.202148
vt 2.141602 0.003906
vt 2.554688 0.202148
vt 2.554688 0.003906
vt 2.290039 -0.239258
vt 2.734375 -0.236328
vt 2.289062 0.006836
vt 2.732422 0.009766
vt 2.300781 -1.000000
vt 2.300781 -1.236328
vt 2.728516 -1.000000
vt 2.728516 -1.236328
vt 2.395508 -0.416016
vt 2.395508 -0.592773
vt 2.639648 -0.416016
vt 2.639648 -0.592773
vt 2.149414 -0.799805
vt 2.149414 -0.998047
vt 2.551758 -0.799805
vt 2.551758 -0.998047
vt 1.791016 -0.787109
vt 1.791016 -0.999023
vt 2.150391 -0.787109
vt 2.150391 -0.999023
vt 2.282227 0.008789
vt 2.282227 -0.234375
vt 2.737305 0.008789
vt 2.737305 -0.234375
vt 2.294922 -0.998047
vt 2.294922 -1.230469
vt 2.740234 -0.998047
vt 2.740234 -1.230469
vt 2.393555 -0.409180
vt 2.393555 -0.588867
vt 2.641602 -0.409180
vt 2.641602 -0.588867
vt 2.523438 0.774414
vt 2.361328 0.774414
vt 2.519531 3.292969
vt 2.356445 3.292969
vt 2.685547 0.774414
vt 2.536133 0.774414
vt 2.681641 3.292969
vt 2.532227 3.292969
vt 2.132812 3.924805
vt 2.357422 3.751953
vt 2.357422 3.924805
vt 2.596680 -5.804688
vt 2.620117 -5.839844
vt 2.596680 -5.875977
vt 2.357422 3.751953
vt 2.132812 3.924805
vt 2.357422 3.924805
vt 2.596680 -5.875977
vt 2.620117 -5.839844
vt 2.596680 -5.804688
vt -1.410156 -1.519531
vt -1.378906 -1.487305
vt -1.377930 -1.553711
vt -1.377930 -1.553711
vt -1.378906 -1.487305
vt -1.410156 -1.519531
vn -0.9973 -0.0737 0.0000
vn -0.9990 -0.0321 0.0315
vn -0.9966 -0.0737 -0.0369
vn -0.9998 0.0000 0.0215
vn -1.0000 0.0000 -0.0000
vn -0.9993 0.0035 -0.0367
vn -0.9993 -0.0367 -0.0035
vn 1.0000 0.0000 0.0000
vn 0.9993 -0.0367 -0.0035
vn 0.9993 -0.0000 0.0369
vn 0.9993 0.0035 -0.0367
vn 0.9966 -0.0736 -0.0369
vn 0.9950 -0.0958 0.0294
vn 0.9973 -0.0737 -0.0000
vn 0.9988 -0.0443 0.0222
vn -1.0000 0.0001 -0.0001
vn 0.9919 -0.1268 0.0000
vn 0.9991 -0.0431 0.0000
vn 0.9501 -0.3119 0.0000
vn 0.9756 -0.2195 -0.0000
vn 0.8819 -0.4714 -0.0000
vn 0.9219 -0.3875 0.0000
vn 0.7909 -0.6120 0.0000
vn 0.8425 -0.5387 -0.0000
vn 0.6824 -0.7299 0.0402
vn 0.6701 -0.7412 0.0395
vn 0.6812 -0.7287 0.0707
vn 0.7135 -0.7007 0.0000
vn 0.7010 -0.7125 -0.0309
vn 0.7013 -0.7128 0.0000
vn 0.7428 -0.6695 0.0000
vn 0.7547 -0.6560 -0.0000
vn 0.7424 -0.6691 -0.0329
vn 0.7119 -0.7010 0.0420
vn 0.7226 -0.6871 0.0750
vn 0.7240 -0.6885 0.0427
vn 0.6289 -0.7775 0.0000
vn 0.5092 -0.8607 -0.0000
vn 0.8541 -0.5201 0.0000
vn 0.6351 -0.7724 0.0000
vn 0.4459 -0.8951 0.0000
vn 0.2590 -0.9659 0.0000
vn 0.9904 -0.1384 0.0000
vn 0.9992 -0.0393 0.0000
vn 0.9502 -0.3117 0.0000
vn 0.9756 -0.2197 0.0000
vn 0.8819 -0.4715 0.0000
vn 0.9219 -0.3874 0.0000
vn 0.7909 -0.6119 0.0000
vn 0.8424 -0.5388 0.0000
vn 0.6828 -0.7306 0.0000
vn 0.7429 -0.6694 0.0000
vn 0.5671 -0.8237 -0.0000
vn 0.4315 -0.9021 -0.0000
vn -0.9919 -0.1268 0.0000
vn -0.9991 -0.0431 0.0000
vn -0.9501 -0.3119 0.0000
vn -0.9756 -0.2195 -0.0000
vn -0.8819 -0.4714 0.0000
vn -0.9219 -0.3875 0.0000
vn -0.7909 -0.6120 -0.0000
vn -0.8425 -0.5387 0.0000
vn -0.6829 -0.7305 -0.0000
vn -0.7428 -0.6695 0.0000
vn -0.6289 -0.7775 0.0000
vn -0.5092 -0.8607 -0.0000
vn -0.8541 -0.5201 0.0000
vn -0.6351 -0.7724 0.0000
vn -0.4459 -0.8951 0.0000
vn -0.2590 -0.9659 0.0000
vn -0.9904 -0.1384 0.0000
vn -0.9992 -0.0393 0.0000
vn -0.9502 -0.3117 0.0000
vn -0.9756 -0.2197 0.0000
vn -0.8819 -0.4715 0.0000
vn -0.9219 -0.3874 0.0000
vn -0.7909 -0.6119 0.0000
vn -0.8424 -0.5388 -0.0000
vn -0.6828 -0.7306 0.0000
vn -0.7429 -0.6694 0.0000
vn -0.5671 -0.8237 -0.0001
vn -0.5671 -0.8237 0.0000
vn -0.4315 -0.9021 0.0000
vn -0.4316 -0.9021 -0.0001
vn -0.0000 0.0000 1.0000
vn -0.0001 0.0000 1.0000
usemtl Tex_0031_1.dds.001
s off
f 1/1/1 3/2/1 2/3/1
f 2/3/1 3/2/1 4/4/1
f 3/2/1 5/5/2 4/4/1
f 4/4/1 5/5/1 6/6/3
f 5/5/4 7/7/5 6/6/6
f 6/6/7 7/7/5 8/8/5
f 7/7/5 9/9/5 8/8/5
f 10/10/8 12/11/8 11/12/8
f 11/12/8 12/11/8 13/13/9
f 12/11/8 14/14/10 13/13/11
f 13/13/12 14/14/13 15/15/14
f 14/14/15 16/16/14 15/15/14
f 15/15/14 16/16/14 17/17/14
f 16/16/14 18/18/14 17/17/14
f 19/19/8 21/20/8 20/21/8
f 20/21/8 21/20/8 22/22/8
f 21/20/8 23/23/8 22/22/8
f 24/24/5 26/25/5 25/26/5
f 25/26/16 26/25/16 27/27/16
f 26/25/5 28/28/5 27/27/5
f 29/29/17 31/30/17 30/31/17
f 30/31/17 31/30/17 32/32/17
f 33/33/18 35/34/18 34/35/18
f 34/35/18 35/34/18 36/36/18
f 37/37/19 39/38/19 38/39/19
f 38/39/19 39/38/19 40/40/19
f 41/41/20 43/42/20 42/43/20
f 42/43/20 43/42/20 44/44/20
f 45/45/21 47/46/21 46/47/21
f 46/47/21 47/46/21 48/48/21
f 49/49/22 51/50/22 50/51/22
f 50/51/22 51/50/22 52/52/22
f 53/53/23 55/54/23 54/55/23
f 54/55/23 55/54/23 56/56/23
f 57/57/24 59/58/24 58/59/24
f 58/59/24 59/58/24 60/60/24
f 61/61/25 63/62/26 62/63/27
f 62/63/28 63/62/29 64/64/30
f 65/65/31 67/66/32 66/67/33
f 66/67/34 67/66/35 68/68/36
f 69/69/37 71/70/37 70/71/37
f 70/71/37 71/70/37 72/72/37
f 73/73/38 75/74/38 74/75/38
f 74/75/38 75/74/38 76/76/38
f 77/77/39 79/78/39 78/79/39
f 78/79/39 79/78/39 80/80/39
f 81/81/40 83/82/40 82/83/40
f 82/83/40 83/82/40 84/84/40
f 85/85/41 87/86/41 86/87/41
f 86/87/41 87/86/41 88/88/41
f 89/89/42 91/90/42 90/91/42
f 90/91/42 91/90/42 92/92/42
f 93/93/43 95/94/43 94/95/43
f 94/95/43 95/94/43 96/96/43
f 97/97/44 99/98/44 98/99/44
f 98/99/44 99/98/44 100/100/44
f 101/101/45 103/102/45 102/103/45
f 102/103/45 103/102/45 104/104/45
f 105/105/46 107/106/46 106/107/46
f 106/107/46 107/106/46 108/108/46
f 109/109/47 111/110/47 110/111/47
f 110/111/47 111/110/47 112/112/47
f 113/113/48 115/114/48 114/115/48
f 114/115/48 115/114/48 116/116/48
f 117/117/49 119/118/49 118/119/49
f 118/119/49 119/118/49 120/120/49
f 121/121/50 123/122/50 122/123/50
f 122/123/50 123/122/50 124/124/50
f 125/125/51 127/126/51 126/127/51
f 126/127/51 127/126/51 128/128/51
f 129/129/52 131/130/52 130/131/52
f 130/131/52 131/130/52 132/132/52
f 133/133/53 135/134/53 134/135/53
f 134/135/53 135/134/53 136/136/53
f 137/137/37 139/138/37 138/139/37
f 138/139/37 139/138/37 140/140/37
f 141/141/54 143/142/54 142/143/54
f 142/143/54 143/142/54 144/144/54
f 145/145/8 147/146/8 146/147/8
f 146/147/8 147/146/8 148/148/8
f 149/149/8 151/150/8 150/151/8
f 150/151/8 151/150/8 152/152/8
f 153/153/55 155/154/55 154/155/55
f 154/155/55 155/154/55 156/156/55
f 157/157/56 159/158/56 158/159/56
f 158/159/56 159/158/56 160/160/56
f 161/161/57 163/162/57 162/163/57
f 162/163/57 163/162/57 164/164/57
f 165/165/58 167/166/58 166/167/58
f 166/167/58 167/166/58 168/168/58
f 169/169/59 171/170/59 170/171/59
f 170/171/59 171/170/59 172/172/59
f 173/173/60 175/174/60 174/175/60
f 174/175/60 175/174/60 176/176/60
f 177/177/61 179/178/61 178/179/61
f 178/179/61 179/178/61 180/180/61
f 181/181/62 183/182/62 182/183/62
f 182/183/62 183/182/62 184/184/62
f 185/185/63 187/186/63 186/187/63
f 186/187/63 187/186/63 188/188/63
f 189/189/64 191/190/64 190/191/64
f 190/191/64 191/190/64 192/192/64
f 193/193/65 195/194/65 194/195/65
f 194/195/65 195/194/65 196/196/65
f 197/197/66 199/198/66 198/199/66
f 198/199/66 199/198/66 200/200/66
f 201/201/67 203/202/67 202/203/67
f 202/203/67 203/202/67 204/204/67
f 205/205/68 207/206/68 206/207/68
f 206/207/68 207/206/68 208/208/68
f 209/209/69 211/210/69 210/211/69
f 210/211/69 211/210/69 212/212/69
f 213/213/70 215/214/70 214/215/70
f 214/215/70 215/214/70 216/216/70
f 217/217/71 219/218/71 218/219/71
f 218/219/71 219/218/71 220/220/71
f 221/221/72 223/222/72 222/223/72
f 222/223/72 223/222/72 224/224/72
f 225/225/73 227/226/73 226/227/73
f 226/227/73 227/226/73 228/228/73
f 229/229/74 231/230/74 230/231/74
f 230/231/74 231/230/74 232/232/74
f 233/233/75 235/234/75 234/235/75
f 234/235/75 235/234/75 236/236/75
f 237/237/76 239/238/76 238/239/76
f 238/239/76 239/238/76 240/240/76
f 241/241/77 243/242/77 242/243/77
f 242/243/77 243/242/77 244/244/77
f 245/245/78 247/246/78 246/247/78
f 246/247/78 247/246/78 248/248/78
f 249/249/79 251/250/79 250/251/79
f 250/251/79 251/250/79 252/252/79
f 253/253/80 255/254/80 254/255/80
f 254/255/80 255/254/80 256/256/80
f 257/257/81 259/258/81 258/259/81
f 258/259/82 259/258/82 260/260/82
f 261/261/65 263/262/65 262/263/65
f 262/263/65 263/262/65 264/264/65
f 265/265/83 267/266/83 266/267/83
f 266/267/84 267/266/84 268/268/84
f 269/269/5 271/270/5 270/271/5
f 270/271/5 271/270/5 272/272/5
f 273/273/5 275/274/5 274/275/5
f 274/275/5 275/274/5 276/276/5
f 277/277/8 279/278/8 278/279/8
f 280/280/85 282/281/85 281/282/85
f 283/283/5 285/284/5 284/285/5
f 286/286/85 288/287/85 287/288/85
f 289/289/86 291/290/86 290/291/86
f 292/292/85 294/293/85 293/294/85
