# Blender v3.6.3 OBJ File: 'untitled.blend'
# www.blender.org
mtllib Mesh_0270.mtl
o Mesh_0270_Mesh.183
v -9.604580 5.977678 -20.747787
v -9.604584 5.101480 -21.054150
v -9.604584 7.354358 -22.648129
v -9.604580 3.942961 -21.286190
v -9.604586 2.063743 -21.820576
v -9.604586 2.063744 -21.286186
v -9.604589 1.862655 -21.692142
v -9.604584 1.693316 -21.563709
v -9.604584 7.354358 -22.648129
v -9.604584 8.340081 -22.352905
v -9.604584 6.835513 -20.136517
v -9.604584 9.114781 -21.839478
v -9.604584 7.675567 -19.162861
v -9.604584 9.677493 -21.160557
v -9.604584 9.114780 -18.864128
v -9.604584 9.677493 -19.553917
v -9.604584 5.101480 -14.569458
v -9.604584 7.354358 -12.975487
v -9.604580 3.942961 -14.337418
v -9.604586 2.063743 -13.803036
v -9.604586 2.063744 -14.337418
v -9.604589 1.862655 -13.931469
v -9.604584 1.693316 -14.059898
v -9.604584 8.340080 -13.270706
v -9.604584 6.835513 -15.487099
v -9.604584 9.114781 -13.784130
v -9.604584 7.675567 -16.460754
v -9.604584 9.677493 -14.463055
v -9.604584 9.114781 -16.759483
v -9.604584 9.677493 -16.069698
v -9.604584 5.101480 -14.569458
v -9.604580 5.977679 -14.875824
v -9.604584 7.354358 -12.975487
v -9.604584 6.835513 -15.487099
v -9.604584 8.340080 -13.270706
v -9.604584 1.693316 -14.059898
v -9.604584 1.552204 -13.931473
v -9.604578 1.693316 -14.185894
v -9.604588 1.128875 -13.931480
v -9.604584 0.987765 -14.185894
v -9.604584 0.987765 -21.437714
v -9.604588 1.128875 -21.692135
v -9.604578 1.693316 -21.437717
v -9.604584 1.552204 -21.692139
v -9.604584 1.693316 -21.563709
v -9.604584 2.063742 -12.416199
v -9.604584 10.159990 -12.416199
v -9.604584 2.063742 -10.441395
v -9.604584 10.159991 -10.441395
v -9.604584 9.114781 -16.759483
v -9.604584 7.675567 -16.460754
v -9.604584 8.340081 -17.272892
v -9.604580 8.188901 -17.310589
v -9.604584 9.114780 -18.864128
v -9.604584 8.340080 -18.350719
v -9.604584 7.675567 -19.162861
v -9.604580 8.188900 -18.313023
v -9.604586 2.063743 -13.803036
v -9.604584 7.354358 -12.975487
v -9.604586 2.063743 -12.975487
v -9.604584 10.067332 -15.271805
v -9.604584 9.677493 -14.463055
v -9.604584 9.677493 -16.069698
v -9.604586 2.063744 -14.337418
v -9.604584 1.693316 -14.059898
v -9.604578 1.693316 -14.185894
v -9.604584 7.354358 -22.648129
v -9.604586 2.063743 -21.820576
v -9.604586 2.063743 -22.648129
v -9.604584 7.354358 -22.648129
v -9.604584 6.835513 -20.136517
v -9.604580 5.977678 -20.747787
v -9.604584 9.677493 -21.160557
v -9.604584 10.067332 -20.351807
v -9.604584 9.677493 -19.553917
v -9.604584 1.693316 -21.563709
v -9.604586 2.063744 -21.286186
v -9.604578 1.693316 -21.437717
vt -2.213867 -0.537109
vt -2.632812 -0.291992
vt -2.287109 -0.695312
vt -2.341797 -0.904297
vt -2.469727 -1.243164
vt -2.341797 -1.243164
vt -2.438477 -1.279297
vt -2.408203 -1.309570
vt -2.632812 -0.291992
vt -2.068359 -0.382812
vt -2.561523 -0.111328
vt -2.457031 0.027344
vt -1.835938 -0.231445
vt -2.312500 0.128906
vt -1.784180 0.027344
vt -1.928711 0.128906
vt -2.287109 -0.695312
vt -2.341797 -0.904297
vt -2.632812 -0.291992
vt -2.469727 -1.243164
vt -2.341797 -1.243164
vt -2.438477 -1.279297
vt -2.408203 -1.309570
vt -2.561523 -0.111328
vt -2.457031 0.027344
vt -2.068359 -0.382812
vt -1.835938 -0.231445
vt -2.312500 0.128906
vt -1.784180 0.027344
vt -1.928711 0.128906
vt -2.287109 -0.695312
vt -2.632812 -0.291992
vt -2.213867 -0.537109
vt -2.068359 -0.382812
vt -2.561523 -0.111328
vt -2.408203 -1.309570
vt -2.377930 -1.309570
vt -2.438477 -1.335938
vt -2.438477 -1.412109
vt -2.377930 -1.437500
vt -2.377930 -1.437500
vt -2.377930 -1.309570
vt -2.438477 -1.412109
vt -2.438477 -1.335938
vt -2.408203 -1.309570
vt 2.872070 -0.596680
vt 2.392578 -0.596680
vt 2.872070 1.000000
vt 2.392578 1.000000
vt -1.784180 0.027344
vt -1.684570 -0.111328
vt -1.835938 -0.231445
vt -1.667969 -0.154297
vt -1.784180 0.027344
vt -1.835938 -0.231445
vt -1.684570 -0.111328
vt -1.667969 -0.154297
vt -2.469727 -1.243164
vt -2.666992 -1.243164
vt -2.632812 -0.291992
vt -2.119141 0.199219
vt -1.928711 0.128906
vt -2.312500 0.128906
vt -2.341797 -1.243164
vt -2.377930 -1.309570
vt -2.408203 -1.309570
vt -2.632812 -0.291992
vt -2.666992 -1.243164
vt -2.469727 -1.243164
vt -2.632812 -0.291992
vt -2.213867 -0.537109
vt -2.068359 -0.382812
vt -2.312500 0.128906
vt -1.928711 0.128906
vt -2.119141 0.199219
vt -2.408203 -1.309570
vt -2.377930 -1.309570
vt -2.341797 -1.243164
vn -1.0000 0.0000 0.0000
vn -1.0000 -0.0001 -0.0000
usemtl Tex_0031_1.dds.012
s off
f 1/1/1 3/2/1 2/3/1
f 2/3/1 3/2/1 4/4/1
f 3/2/1 5/5/1 4/4/1
f 4/4/1 5/5/1 6/6/1
f 5/5/1 7/7/1 6/6/1
f 6/6/1 7/7/1 8/8/1
f 9/9/1 11/10/1 10/11/1
f 10/11/1 11/10/1 12/12/1
f 11/10/1 13/13/1 12/12/1
f 12/12/1 13/13/1 14/14/1
f 13/13/1 15/15/1 14/14/1
f 14/14/1 15/15/1 16/16/1
f 17/17/1 19/18/1 18/19/1
f 18/19/1 19/18/1 20/20/1
f 19/18/1 21/21/1 20/20/1
f 20/20/1 21/21/1 22/22/1
f 21/21/1 23/23/1 22/22/1
f 24/24/1 26/25/1 25/26/1
f 25/26/1 26/25/1 27/27/1
f 26/25/1 28/28/1 27/27/1
f 27/27/1 28/28/1 29/29/1
f 28/28/1 30/30/1 29/29/1
f 31/31/1 33/32/1 32/33/1
f 32/33/1 33/32/1 34/34/1
f 33/32/1 35/35/1 34/34/1
f 36/36/2 38/37/2 37/38/2
f 37/38/1 38/37/1 39/39/1
f 38/37/1 40/40/1 39/39/1
f 41/41/1 43/42/1 42/43/1
f 42/43/1 43/42/1 44/44/1
f 43/42/2 45/45/2 44/44/2
f 46/46/1 48/47/1 47/48/1
f 47/48/1 48/47/1 49/49/1
f 50/50/1 52/51/1 51/52/1
f 51/52/1 52/51/1 53/53/1
f 54/54/1 56/55/1 55/56/1
f 55/56/1 56/55/1 57/57/1
f 58/58/1 60/59/1 59/60/1
f 61/61/1 63/62/1 62/63/1
f 64/64/1 66/65/1 65/66/1
f 67/67/1 69/68/1 68/69/1
f 70/70/1 72/71/1 71/72/1
f 73/73/1 75/74/1 74/75/1
f 76/76/1 78/77/1 77/78/1
