# Blender v3.6.3 OBJ File: 'untitled.blend'
# www.blender.org
mtllib Mesh_0368.mtl
o Mesh_0368_Mesh.220
v -14.684585 32.184067 27.908195
v -19.764584 32.184067 27.908195
v -17.224585 30.479984 30.448189
v -19.764584 30.479984 30.448189
v -19.764584 27.939983 32.035690
v -18.812084 27.939983 32.035690
v -19.764584 30.479984 30.448189
v -17.224585 30.479984 30.448189
v -14.684585 32.184067 27.908195
v -17.224585 30.479984 30.448189
v -14.684609 32.184067 32.988190
v -17.224609 30.479982 32.988190
v -17.224585 30.479984 30.448189
v -18.812084 27.939983 32.035690
v -17.224609 30.479982 32.988190
v -18.812111 27.939981 32.988190
v -14.684585 32.184067 27.908195
v -17.224585 30.479984 25.368195
v -19.764584 32.184067 27.908195
v -19.764584 30.479984 25.368195
v -19.764584 27.939983 23.780693
v -19.764584 30.479984 25.368195
v -18.812084 27.939983 23.780693
v -17.224585 30.479984 25.368195
v -14.684585 32.184067 27.908195
v -14.684585 32.184067 22.828194
v -17.224585 30.479984 25.368195
v -17.224585 30.479982 22.828194
v -17.224585 30.479984 25.368195
v -17.224585 30.479982 22.828194
v -18.812084 27.939983 23.780693
v -18.812084 27.939981 22.828194
v -14.684585 32.184067 27.908195
v -9.604584 32.184067 27.908195
v -12.144585 30.479984 25.368195
v -9.604584 30.479984 25.368195
v -9.604584 27.939983 23.780693
v -10.557085 27.939983 23.780693
v -9.604584 30.479984 25.368195
v -12.144585 30.479984 25.368195
v -14.684585 32.184067 27.908195
v -12.144585 30.479984 25.368195
v -14.684585 32.184067 22.828194
v -12.144585 30.479982 22.828194
v -12.144585 30.479984 25.368195
v -10.557085 27.939983 23.780693
v -12.144585 30.479982 22.828194
v -10.557085 27.939981 22.828194
v -14.684585 32.184067 27.908195
v -12.144585 30.479984 30.448189
v -9.604584 32.184067 27.908195
v -9.604584 30.479984 30.448189
v -9.604584 27.939983 32.035690
v -9.604584 30.479984 30.448189
v -10.557085 27.939983 32.035690
v -12.144585 30.479984 30.448189
v -14.684585 32.184067 27.908195
v -14.684609 32.184067 32.988190
v -12.144585 30.479984 30.448189
v -12.144609 30.479982 32.988190
v -12.144585 30.479984 30.448189
v -12.144609 30.479982 32.988190
v -10.557085 27.939983 32.035690
v -10.557110 27.939981 32.988190
v -10.900288 27.575493 36.135757
v -10.557110 27.939981 32.988190
v -12.450451 30.115492 35.793877
v -12.144609 30.479982 32.988190
v -9.986143 25.039810 36.364876
v -9.604610 25.399982 32.988190
v -10.900288 27.575493 36.135757
v -10.557110 27.939981 32.988190
v -10.900288 27.575493 36.135757
v -12.450451 30.115492 35.793877
v -11.913496 27.210751 39.135498
v -13.353422 29.750750 38.467735
v -11.111111 24.679640 39.571114
v -9.986143 25.039810 36.364876
v -11.913496 27.210751 39.135498
v -10.900288 27.575493 36.135757
v -11.913496 27.210751 39.135498
v -13.353422 29.750750 38.467735
v -13.549002 26.846258 41.846687
v -14.811379 29.386259 40.884293
v -19.935575 26.928808 36.605148
v -18.812111 27.939981 32.988190
v -20.532730 24.546289 35.349632
v -19.764610 25.399475 32.988190
v -12.922890 24.319468 42.445625
v -11.111111 24.679640 39.571114
v -13.549002 26.846258 41.846687
v -11.913496 27.210751 39.135498
v -15.730353 26.481514 44.141838
v -13.549002 26.846258 41.846687
v -16.755753 29.021515 42.929749
v -14.811379 29.386259 40.884293
v -15.730353 26.481514 44.141838
v -16.755753 29.021515 42.929749
v -18.354935 26.117023 45.912979
v -19.095089 28.657026 44.508614
v -18.354935 26.117023 45.912979
v -19.095089 28.657026 44.508614
v -21.299303 25.752281 47.077057
v -21.719671 28.292280 45.546204
v -21.299303 25.752281 47.077057
v -21.719671 28.292280 45.546204
v -24.844608 25.399982 47.275688
v -24.844608 27.939981 45.688194
v -22.392008 29.996368 43.096886
v -23.064602 28.292282 40.647552
v -24.844608 29.644072 43.148193
v -24.844608 27.939983 40.608192
v -29.924583 29.644072 43.148193
v -35.004585 29.644072 43.148193
v -32.464584 27.939981 45.688194
v -35.004585 27.939981 45.688194
v -35.004585 25.399982 47.275688
v -34.052082 25.399982 47.275688
v -35.004585 27.939981 45.688194
v -32.464584 27.939981 45.688194
v -29.924583 29.644072 43.148193
v -32.464584 27.939981 45.688194
v -29.924583 29.644070 48.228188
v -32.464584 27.939981 48.228188
v -32.464584 27.939981 45.688194
v -34.052082 25.399982 47.275688
v -32.464584 27.939981 48.228188
v -34.052082 25.399982 48.228188
v -29.924583 29.644072 43.148193
v -32.464584 27.939983 40.608192
v -35.004585 29.644072 43.148193
v -35.004585 27.939983 40.608192
v -35.004585 25.399984 39.020691
v -35.004585 27.939983 40.608192
v -34.052082 25.399984 39.020691
v -32.464584 27.939983 40.608192
v -29.924583 29.644072 43.148193
v -29.924583 29.644072 38.068192
v -32.464584 27.939983 40.608192
v -32.464584 27.939983 38.068192
v -32.464584 27.939983 40.608192
v -32.464584 27.939983 38.068192
v -34.052082 25.399984 39.020691
v -34.052082 25.399984 38.068192
v -29.924583 29.644072 43.148193
v -24.844608 29.644072 43.148193
v -27.384584 27.939983 40.608192
v -24.844608 27.939983 40.608192
v -24.844608 25.399984 39.020691
v -25.797085 25.399984 39.020691
v -24.844608 27.939983 40.608192
v -27.384584 27.939983 40.608192
v -29.924583 29.644072 43.148193
v -27.384584 27.939983 40.608192
v -29.924583 29.644072 38.068192
v -27.384584 27.939983 38.068192
v -27.384584 27.939983 40.608192
v -25.797085 25.399984 39.020691
v -27.384584 27.939983 38.068192
v -25.797085 25.399984 38.068192
v -29.924583 29.644072 43.148193
v -27.384584 27.939981 45.688194
v -24.844608 29.644072 43.148193
v -24.844608 27.939981 45.688194
v -24.844608 25.399982 47.275688
v -24.844608 27.939981 45.688194
v -25.797085 25.399982 47.275688
v -27.384584 27.939981 45.688194
v -29.924583 29.644072 43.148193
v -29.924583 29.644070 48.228188
v -27.384584 27.939981 45.688194
v -27.384584 27.939981 48.228188
v -27.384584 27.939981 45.688194
v -27.384584 27.939981 48.228188
v -25.797085 25.399982 47.275688
v -25.797085 25.399982 48.228188
v -19.764610 25.399475 32.988190
v -18.812111 27.939981 32.988190
v -18.812084 27.939983 32.035690
v -19.764610 25.399475 32.988190
v -18.812084 27.939983 32.035690
v -19.764584 27.939983 32.035690
v -18.812084 27.939981 22.828194
v -19.764584 25.399982 22.828194
v -18.812084 27.939983 23.780693
v -18.812084 27.939983 23.780693
v -19.764584 25.399982 22.828194
v -19.764584 27.939983 23.780693
v -9.604584 25.399982 22.828194
v -10.557085 27.939981 22.828194
v -10.557085 27.939983 23.780693
v -9.604584 25.399982 22.828194
v -10.557085 27.939983 23.780693
v -9.604584 27.939983 23.780693
v -10.557110 27.939981 32.988190
v -9.604610 25.399982 32.988190
v -10.557085 27.939983 32.035690
v -10.557085 27.939983 32.035690
v -9.604610 25.399982 32.988190
v -9.604584 27.939983 32.035690
v -12.144609 30.479982 32.988190
v -14.930758 31.819578 35.246506
v -12.450451 30.115492 35.793877
v -14.684609 32.184067 32.988190
v -14.930758 31.819578 35.246506
v -12.144609 30.479982 32.988190
v -17.224609 30.479982 32.988190
v -14.930758 31.819578 35.246506
v -14.684609 32.184067 32.988190
v -17.224609 30.479982 32.988190
v -17.411072 30.115492 34.699387
v -14.930758 31.819578 35.246506
v -18.812111 27.939981 32.988190
v -17.411072 30.115492 34.699387
v -17.224609 30.479982 32.988190
v -14.930758 31.819578 35.246506
v -13.353422 29.750750 38.467735
v -12.450451 30.115492 35.793877
v -14.930758 31.819578 35.246506
v -15.657709 31.454836 37.398903
v -13.353422 29.750750 38.467735
v -17.411072 30.115492 34.699387
v -15.657709 31.454836 37.398903
v -14.930758 31.819578 35.246506
v -17.411072 30.115492 34.699387
v -17.961996 29.750750 36.330078
v -15.657709 31.454836 37.398903
v -18.812111 27.939981 32.988190
v -17.961996 29.750750 36.330078
v -17.411072 30.115492 34.699387
v -15.657709 31.454836 37.398903
v -14.811379 29.386259 40.884293
v -13.353422 29.750750 38.467735
v -15.657709 31.454836 37.398903
v -16.831188 31.090345 39.344032
v -14.811379 29.386259 40.884293
v -17.961996 29.750750 36.330078
v -16.831188 31.090345 39.344032
v -15.657709 31.454836 37.398903
v -17.961996 29.750750 36.330078
v -18.851252 29.386259 37.804031
v -16.831188 31.090345 39.344032
v -18.851252 29.386259 37.804031
v -18.812111 27.939981 32.988190
v -19.935575 26.928808 36.605148
v -18.812111 27.939981 32.988190
v -18.851252 29.386259 37.804031
v -17.961996 29.750750 36.330078
v -16.831188 31.090345 39.344032
v -16.755753 29.021515 42.929749
v -14.811379 29.386259 40.884293
v -16.831188 31.090345 39.344032
v -18.396336 30.725603 40.990715
v -16.755753 29.021515 42.929749
v -18.851252 29.386259 37.804031
v -18.396336 30.725603 40.990715
v -16.831188 31.090345 39.344032
v -18.851252 29.386259 37.804031
v -20.036922 29.021515 39.051674
v -18.396336 30.725603 40.990715
v -19.935575 26.928808 36.605148
v -20.036922 29.021515 39.051674
v -18.851252 29.386259 37.804031
v -12.922890 24.319468 42.445625
v -15.730353 26.481514 44.141838
v -15.330558 23.959295 44.843643
v -13.549002 26.846258 41.846687
v -15.730353 26.481514 44.141838
v -12.922890 24.319468 42.445625
v -18.396336 30.725603 40.990715
v -19.095089 28.657026 44.508614
v -16.755753 29.021515 42.929749
v -18.396336 30.725603 40.990715
v -20.279491 30.361111 42.261475
v -19.095089 28.657026 44.508614
v -20.036922 29.021515 39.051674
v -20.279491 30.361111 42.261475
v -18.396336 30.725603 40.990715
v -20.036922 29.021515 39.051674
v -21.463894 28.657026 40.014595
v -20.279491 30.361111 42.261475
v -22.204050 26.117025 38.610229
v -20.036922 29.021515 39.051674
v -19.935575 26.928808 36.605148
v -22.204050 26.117025 38.610229
v -21.463894 28.657026 40.014595
v -20.036922 29.021515 39.051674
v -19.935575 26.928808 36.605148
v -22.447891 23.555944 37.205605
v -22.204050 26.117025 38.610229
v -20.532730 24.546289 35.349632
v -22.447891 23.555944 37.205605
v -19.935575 26.928808 36.605148
v -15.330558 23.959295 44.843643
v -18.354935 26.117023 45.912979
v -18.212187 23.599123 46.644241
v -15.730353 26.481514 44.141838
v -18.354935 26.117023 45.912979
v -15.330558 23.959295 44.843643
v -20.279491 30.361111 42.261475
v -21.719671 28.292280 45.546204
v -19.095089 28.657026 44.508614
v -20.279491 30.361111 42.261475
v -22.392008 29.996368 43.096886
v -21.719671 28.292280 45.546204
v -21.463894 28.657026 40.014595
v -22.392008 29.996368 43.096886
v -20.279491 30.361111 42.261475
v -21.463894 28.657026 40.014595
v -23.064602 28.292282 40.647552
v -22.392008 29.996368 43.096886
v -22.204050 26.117025 38.610229
v -23.064602 28.292282 40.647552
v -21.463894 28.657026 40.014595
v -18.354935 26.117023 45.912979
v -21.423000 23.238951 47.756508
v -18.212187 23.599123 46.644241
v -18.354935 26.117023 45.912979
v -21.299303 25.752281 47.077057
v -21.423000 23.238951 47.756508
v -22.392008 29.996368 43.096886
v -24.844608 27.939981 45.688194
v -21.719671 28.292280 45.546204
v -22.392008 29.996368 43.096886
v -24.844608 29.644072 43.148193
v -24.844608 27.939981 45.688194
v -24.844608 25.399984 39.020691
v -23.064602 28.292282 40.647552
v -22.204050 26.117025 38.610229
v -24.844608 25.399984 39.020691
v -24.844608 27.939983 40.608192
v -23.064602 28.292282 40.647552
v -24.844608 22.859985 38.068192
v -22.204050 26.117025 38.610229
v -22.447891 23.555944 37.205605
v -24.844608 22.859985 38.068192
v -24.844608 25.399984 39.020691
v -22.204050 26.117025 38.610229
v -24.844608 22.859983 48.228188
v -21.299303 25.752281 47.077057
v -24.844608 25.399982 47.275688
v -21.299303 25.752281 47.077057
v -24.844608 22.859983 48.228188
v -21.423000 23.238951 47.756508
v -35.004585 22.859983 48.228188
v -34.052082 25.399982 48.228188
v -34.052082 25.399982 47.275688
v -35.004585 22.859983 48.228188
v -34.052082 25.399982 47.275688
v -35.004585 25.399982 47.275688
v -34.052082 25.399984 38.068192
v -35.004585 22.859985 38.068192
v -34.052082 25.399984 39.020691
v -34.052082 25.399984 39.020691
v -35.004585 22.859985 38.068192
v -35.004585 25.399984 39.020691
v -24.844608 22.859985 38.068192
v -25.797085 25.399984 38.068192
v -25.797085 25.399984 39.020691
v -24.844608 22.859985 38.068192
v -25.797085 25.399984 39.020691
v -24.844608 25.399984 39.020691
v -25.797085 25.399982 48.228188
v -24.844608 22.859983 48.228188
v -25.797085 25.399982 47.275688
v -25.797085 25.399982 47.275688
v -24.844608 22.859983 48.228188
v -24.844608 25.399982 47.275688
vt 4.999023 -1.999023
vt 4.000000 -1.999023
vt 4.999023 -1.000000
vt 4.000000 -1.000000
vt 4.999023 -1.999023
vt 4.000000 -1.999023
vt 4.999023 -1.000000
vt 4.000000 -1.000000
vt 4.000000 -1.000000
vt 4.999023 -1.000977
vt 4.000000 -1.999023
vt 4.999023 -1.999023
vt 4.000000 -1.000000
vt 4.997070 -1.000000
vt 4.000000 -1.999023
vt 4.999023 -1.999023
vt 4.999023 -1.999023
vt 4.999023 -1.000000
vt 4.000000 -1.999023
vt 4.000000 -1.000000
vt 4.999023 -1.999023
vt 4.999023 -1.000000
vt 4.000000 -1.999023
vt 4.000000 -1.000000
vt 4.000000 -1.000000
vt 4.000000 -1.999023
vt 4.999023 -1.000977
vt 4.999023 -1.999023
vt 4.000000 -1.000000
vt 4.000000 -1.999023
vt 4.997070 -1.000000
vt 4.999023 -1.999023
vt 4.999023 -1.999023
vt 4.000000 -1.999023
vt 4.999023 -1.000000
vt 4.000000 -1.000000
vt 4.999023 -1.999023
vt 4.000000 -1.999023
vt 4.999023 -1.000000
vt 4.000000 -1.000000
vt 4.000000 -1.000000
vt 4.999023 -1.000977
vt 4.000000 -1.999023
vt 4.999023 -1.999023
vt 4.000000 -1.000000
vt 4.997070 -1.000000
vt 4.000000 -1.999023
vt 4.999023 -1.999023
vt 4.999023 -1.999023
vt 4.999023 -1.000000
vt 4.000000 -1.999023
vt 4.000000 -1.000000
vt 4.999023 -1.999023
vt 4.999023 -1.000000
vt 4.000000 -1.999023
vt 4.000000 -1.000000
vt 4.000000 -1.000000
vt 4.000000 -1.999023
vt 4.999023 -1.000977
vt 4.999023 -1.999023
vt 4.000000 -1.000000
vt 4.000000 -1.999023
vt 4.997070 -1.000000
vt 4.999023 -1.999023
vt -3.430664 -1.000000
vt -3.430664 -0.000977
vt -3.992188 -1.000000
vt -3.992188 -0.000977
vt -3.430664 -1.999023
vt -3.430664 -1.000000
vt -3.992188 -1.999023
vt -3.992188 -1.000000
vt -3.430664 -1.000000
vt -2.857422 -1.000000
vt -3.430664 -0.000977
vt -2.857422 -0.000977
vt -2.857422 -1.999023
vt -2.857422 -1.000000
vt -3.430664 -1.999023
vt -3.430664 -1.000000
vt -2.857422 -1.000000
vt -2.285156 -1.000000
vt -2.857422 -0.000977
vt -2.285156 -0.000977
vt 3.177734 -1.000000
vt 3.177734 -1.999023
vt 4.563477 -1.000000
vt 4.074219 -1.999023
vt -2.285156 -1.999023
vt -2.285156 -1.000000
vt -2.857422 -1.999023
vt -2.857422 -1.000000
vt -1.711914 -1.000000
vt -1.711914 -0.000977
vt -2.285156 -1.000000
vt -2.285156 -0.000977
vt -1.711914 -1.000000
vt -1.139648 -1.000000
vt -1.711914 -0.000977
vt -1.139648 -0.000977
vt -1.139648 -1.000000
vt -0.566406 -1.000000
vt -1.139648 -0.000977
vt -0.566406 -0.000977
vt -0.566406 -1.000000
vt 0.003906 -1.000000
vt -0.566406 -0.000977
vt 0.003906 -0.000977
vt 1.567383 0.998047
vt 1.032227 0.998047
vt 1.669922 -0.000977
vt 1.032227 -0.000977
vt 4.999023 -1.999023
vt 4.000000 -1.999023
vt 4.999023 -1.000000
vt 4.000000 -1.000000
vt 4.999023 -1.999023
vt 4.000000 -1.999023
vt 4.999023 -1.000000
vt 4.000000 -1.000000
vt 4.000000 -1.000000
vt 4.999023 -1.000977
vt 4.000000 -1.999023
vt 4.999023 -1.999023
vt 4.000000 -1.000000
vt 4.997070 -1.000000
vt 4.000000 -1.999023
vt 4.999023 -1.999023
vt 4.999023 -1.999023
vt 4.999023 -1.000000
vt 4.000000 -1.999023
vt 4.000000 -1.000000
vt 4.999023 -1.999023
vt 4.999023 -1.000000
vt 4.000000 -1.999023
vt 4.000000 -1.000000
vt 4.000000 -1.000000
vt 4.000000 -1.999023
vt 4.999023 -1.000977
vt 4.999023 -1.999023
vt 4.000000 -1.000000
vt 4.000000 -1.999023
vt 4.997070 -1.000000
vt 4.999023 -1.999023
vt 4.999023 -1.999023
vt 4.000000 -1.999023
vt 4.999023 -1.000000
vt 4.000000 -1.000000
vt 4.999023 -1.999023
vt 4.000000 -1.999023
vt 4.999023 -1.000000
vt 4.000000 -1.000000
vt 4.000000 -1.000000
vt 4.999023 -1.000977
vt 4.000000 -1.999023
vt 4.999023 -1.999023
vt 4.000000 -1.000000
vt 4.997070 -1.000000
vt 4.000000 -1.999023
vt 4.999023 -1.999023
vt 4.999023 -1.999023
vt 4.999023 -1.000000
vt 4.000000 -1.999023
vt 4.000000 -1.000000
vt 4.999023 -1.999023
vt 4.999023 -1.000000
vt 4.000000 -1.999023
vt 4.000000 -1.000000
vt 4.000000 -1.000000
vt 4.000000 -1.999023
vt 4.999023 -1.000977
vt 4.999023 -1.999023
vt 4.000000 -1.000000
vt 4.000000 -1.999023
vt 4.997070 -1.000000
vt 4.999023 -1.999023
vt 4.000000 -1.999023
vt 4.000000 -1.000000
vt 4.999023 -1.000000
vt 4.000000 -1.000000
vt 4.999023 -1.000000
vt 4.999023 -1.999023
vt 4.999023 -1.000000
vt 4.000000 -1.000000
vt 4.000000 -1.999023
vt 4.999023 -1.999023
vt 4.999023 -1.000000
vt 4.000000 -1.000000
vt 4.000000 -1.999023
vt 4.000000 -1.000000
vt 4.999023 -1.000000
vt 4.000000 -1.000000
vt 4.999023 -1.000000
vt 4.999023 -1.999023
vt 4.999023 -1.000000
vt 4.000000 -1.000000
vt 4.000000 -1.999023
vt 4.999023 -1.999023
vt 4.999023 -1.000000
vt 4.000000 -1.000000
vt -3.992188 -0.000977
vt -3.430664 -0.000977
vt -3.430664 0.998047
vt -3.992188 0.998047
vt -3.992188 -0.000977
vt -3.430664 0.998047
vt 4.971680 -0.000977
vt 4.971680 0.998047
vt 4.435547 0.998047
vt 4.971680 -0.000977
vt 4.435547 0.998047
vt 4.394531 -0.000977
vt 4.563477 -1.000000
vt 4.971680 -0.000977
vt 4.394531 -0.000977
vt -3.430664 0.998047
vt -3.430664 -0.000977
vt -2.857422 -0.000977
vt -3.430664 0.998047
vt -2.857422 -0.000977
vt -2.857422 0.998047
vt 4.394531 -0.000977
vt 4.435547 0.998047
vt 3.865234 0.998047
vt 4.394531 -0.000977
vt 3.865234 0.998047
vt 3.844727 -0.000977
vt 4.563477 -1.000000
vt 4.394531 -0.000977
vt 3.844727 -0.000977
vt -2.857422 0.998047
vt -2.857422 -0.000977
vt -2.285156 -0.000977
vt -2.857422 0.998047
vt -2.285156 -0.000977
vt -2.285156 0.998047
vt 3.844727 -0.000977
vt 3.865234 0.998047
vt 3.416016 0.998047
vt 3.844727 -0.000977
vt 3.416016 0.998047
vt 3.252930 -0.000977
vt 3.252930 -0.000977
vt 3.177734 -1.000000
vt 4.563477 -1.000000
vt 4.563477 -1.000000
vt 3.844727 -0.000977
vt 3.252930 -0.000977
vt -2.285156 0.998047
vt -2.285156 -0.000977
vt -1.711914 -0.000977
vt -2.285156 0.998047
vt -1.711914 -0.000977
vt -1.711914 0.998047
vt 3.252930 -0.000977
vt 3.416016 0.998047
vt 2.644531 0.998047
vt 3.252930 -0.000977
vt 2.644531 0.998047
vt 2.659180 -0.000977
vt 3.177734 -1.000000
vt 3.252930 -0.000977
vt 2.659180 -0.000977
vt -2.285156 -1.999023
vt -1.711914 -1.999023
vt -1.711914 -1.000000
vt -2.285156 -1.000000
vt -2.285156 -1.999023
vt -1.711914 -1.000000
vt -1.711914 0.998047
vt -1.711914 -0.000977
vt -1.139648 -0.000977
vt -1.711914 0.998047
vt -1.139648 -0.000977
vt -1.139648 0.998047
vt 2.659180 -0.000977
vt 2.644531 0.998047
vt 2.153320 0.998047
vt 2.659180 -0.000977
vt 2.153320 0.998047
vt 2.153320 -0.000977
vt 2.098633 -1.000000
vt 3.177734 -1.000000
vt 2.659180 -0.000977
vt 2.098633 -1.000000
vt 2.659180 -0.000977
vt 2.153320 -0.000977
vt 3.177734 -1.000000
vt 2.098633 -1.000000
vt 2.180664 -1.999023
vt 3.177734 -1.999023
vt 3.177734 -1.000000
vt 2.180664 -1.999023
vt -1.711914 -1.999023
vt -1.139648 -1.999023
vt -1.139648 -1.000000
vt -1.711914 -1.000000
vt -1.711914 -1.999023
vt -1.139648 -1.000000
vt -1.139648 0.998047
vt -1.139648 -0.000977
vt -0.566406 -0.000977
vt -1.139648 0.998047
vt -0.566406 -0.000977
vt -0.566406 0.998047
vt 2.153320 -0.000977
vt 2.153320 0.998047
vt 1.567383 0.998047
vt 2.153320 -0.000977
vt 1.567383 0.998047
vt 1.669922 -0.000977
vt 2.098633 -1.000000
vt 2.153320 -0.000977
vt 1.669922 -0.000977
vt -1.139648 -1.000000
vt -1.139648 -1.999023
vt -0.566406 -1.999023
vt -1.139648 -1.000000
vt -0.566406 -1.999023
vt -0.566406 -1.000000
vt -0.566406 0.998047
vt -0.566406 -0.000977
vt 0.003906 -0.000977
vt -0.566406 0.998047
vt 0.003906 -0.000977
vt 0.003906 0.998047
vt 1.032227 -1.000000
vt 2.098633 -1.000000
vt 1.669922 -0.000977
vt 1.032227 -1.000000
vt 1.669922 -0.000977
vt 1.032227 -0.000977
vt 1.032227 -1.999023
vt 2.180664 -1.999023
vt 2.098633 -1.000000
vt 1.032227 -1.999023
vt 2.098633 -1.000000
vt 1.032227 -1.000000
vt 0.003906 -1.999023
vt 0.003906 -1.000000
vt -0.566406 -1.000000
vt -0.566406 -1.000000
vt -0.566406 -1.999023
vt 0.003906 -1.999023
vt 4.000000 -1.999023
vt 4.000000 -1.000000
vt 4.999023 -1.000000
vt 4.000000 -1.000000
vt 4.999023 -1.000000
vt 4.999023 -1.999023
vt 4.999023 -1.000000
vt 4.000000 -1.000000
vt 4.000000 -1.999023
vt 4.999023 -1.999023
vt 4.999023 -1.000000
vt 4.000000 -1.000000
vt 4.000000 -1.999023
vt 4.000000 -1.000000
vt 4.999023 -1.000000
vt 4.000000 -1.000000
vt 4.999023 -1.000000
vt 4.999023 -1.999023
vt 4.999023 -1.000000
vt 4.000000 -1.000000
vt 4.000000 -1.999023
vt 4.999023 -1.999023
vt 4.999023 -1.000000
vt 4.000000 -1.000000
vn 0.0000 -0.8304 -0.5571
vn 0.0000 -0.5300 -0.8480
vn 0.5571 -0.8304 0.0000
vn 0.8480 -0.5300 0.0000
vn 0.0000 -0.8304 0.5571
vn 0.0000 -0.5300 0.8480
vn -0.5571 -0.8304 0.0000
vn -0.8480 -0.5300 0.0000
vn -0.8344 -0.5297 -0.1523
vn -0.8353 -0.5296 -0.1477
vn -0.8318 -0.5337 -0.1525
vn -0.8365 -0.5228 -0.1642
vn -0.8399 -0.5189 -0.1590
vn -0.8372 -0.5232 -0.1592
vn -0.9271 -0.3470 -0.1418
vn -0.9272 -0.3466 -0.1417
vn -0.9269 -0.3476 -0.1413
vn -0.7857 -0.5238 -0.3291
vn -0.7885 -0.5194 -0.3295
vn -0.7875 -0.5242 -0.3242
vn -0.7759 -0.5346 -0.3349
vn -0.7767 -0.5299 -0.3405
vn -0.7790 -0.5298 -0.3353
vn -0.8759 -0.3371 -0.3452
vn -0.8740 -0.3373 -0.3498
vn -0.8782 -0.3310 -0.3453
vn -0.8771 -0.3463 -0.3329
vn -0.8728 -0.3523 -0.3377
vn -0.8753 -0.3461 -0.3377
vn -0.6964 -0.5238 -0.4905
vn -0.6991 -0.5193 -0.4915
vn -0.6992 -0.5242 -0.4861
vn -0.6855 -0.5347 -0.4942
vn -0.6851 -0.5299 -0.4999
vn -0.6885 -0.5298 -0.4953
vn 0.9228 -0.3332 0.1935
vn 0.9202 -0.3362 0.2004
vn 0.9254 -0.3239 0.1969
vn 0.9238 -0.3464 0.1632
vn 0.9182 -0.3582 0.1693
vn 0.9219 -0.3456 0.1750
vn -0.7828 -0.3204 -0.5335
vn -0.7771 -0.3209 -0.5414
vn -0.7869 -0.3083 -0.5346
vn -0.7905 -0.3384 -0.5105
vn -0.7803 -0.3506 -0.5179
vn -0.7850 -0.3382 -0.5190
vn -0.5711 -0.5298 -0.6270
vn -0.5747 -0.5297 -0.6238
vn -0.5689 -0.5339 -0.6255
vn -0.5655 -0.5228 -0.6379
vn -0.5715 -0.5188 -0.6358
vn -0.5691 -0.5232 -0.6343
vn -0.4253 -0.5239 -0.7380
vn -0.4272 -0.5195 -0.7400
vn -0.4297 -0.5243 -0.7352
vn -0.4139 -0.5347 -0.7367
vn -0.4112 -0.5299 -0.7417
vn -0.4162 -0.5298 -0.7390
vn -0.2563 -0.5238 -0.8124
vn -0.2578 -0.5193 -0.8148
vn -0.2612 -0.5242 -0.8105
vn -0.2454 -0.5347 -0.8086
vn -0.2416 -0.5299 -0.8129
vn -0.2471 -0.5299 -0.8113
vn 0.0033 -0.5158 -0.8567
vn 0.0018 -0.5051 -0.8631
vn -0.0075 -0.5171 -0.8559
vn 0.0228 -0.5413 -0.8405
vn 0.0331 -0.5297 -0.8475
vn 0.0212 -0.5299 -0.8478
vn 0.1306 -0.8303 0.5418
vn 0.1311 -0.8347 0.5349
vn 0.1171 -0.8300 0.5453
vn 0.1491 -0.8158 0.5589
vn 0.1655 -0.8190 0.5494
vn 0.1503 -0.8210 0.5508
vn 0.9364 -0.3511 0.0000
vn 0.0000 -0.3511 -0.9364
vn 0.9363 -0.3511 0.0000
vn 0.0000 -0.3511 0.9363
vn -0.9363 -0.3511 0.0000
vn 0.0000 -0.3511 -0.9363
vn -0.5333 -0.8295 -0.1659
vn -0.5469 -0.8151 -0.1912
vn 0.5556 -0.8282 -0.0731
vn 0.5791 -0.8079 -0.1090
vn 0.8478 -0.5299 -0.0205
vn -0.5006 -0.8189 -0.2808
vn -0.4732 -0.8282 -0.3002
vn 0.5584 -0.8282 0.0482
vn 0.5890 -0.8079 0.0183
vn 0.7843 -0.6068 0.1293
vn -0.4284 -0.8189 -0.3820
vn -0.3975 -0.8282 -0.3950
vn 0.5348 -0.8282 0.1675
vn 0.5712 -0.8080 0.1448
vn 0.8773 -0.4576 0.1446
vn 0.6604 -0.7177 0.2209
vn -0.3360 -0.8189 -0.4654
vn -0.3030 -0.8282 -0.4715
vn 0.4862 -0.8282 0.2787
vn 0.5267 -0.8079 0.2644
vn 0.6830 -0.5409 0.4909
vn -0.6510 -0.2975 -0.6983
vn -0.6594 -0.3242 -0.6783
vn -0.2279 -0.8189 -0.5268
vn -0.1944 -0.8282 -0.5256
vn 0.4147 -0.8282 0.3770
vn 0.4572 -0.8079 0.3717
vn 0.6512 -0.5632 0.5087
vn 0.5652 -0.5192 0.6411
vn 0.6832 -0.4001 0.6109
vn 0.7301 -0.4527 0.5118
vn -0.4860 -0.2691 -0.8315
vn -0.5033 -0.3048 -0.8086
vn -0.1090 -0.8189 -0.5635
vn -0.0766 -0.8282 -0.5552
vn 0.3239 -0.8282 0.4574
vn 0.3666 -0.8079 0.4614
vn 0.4135 -0.5299 0.7404
vn -0.2856 -0.2822 -0.9159
vn -0.3329 -0.2308 -0.9143
vn 0.0650 -0.8107 -0.5819
vn 0.1070 -0.8257 -0.5539
vn 0.2788 -0.5954 0.7535
vn 0.0858 -0.5280 0.8449
vn 0.4164 -0.4674 0.7799
vn 0.2342 -0.3414 0.9103
vn -0.0176 -0.3511 -0.9362
vn -0.1043 -0.2548 -0.9614
usemtl Tex_0092_1.dds.003
s off
f 1/1/1 3/2/1 2/3/1
f 2/3/1 3/2/1 4/4/1
f 5/5/2 7/6/2 6/7/2
f 6/7/2 7/6/2 8/8/2
f 9/9/3 11/10/3 10/11/3
f 10/11/3 11/10/3 12/12/3
f 13/13/4 15/14/4 14/15/4
f 14/15/4 15/14/4 16/16/4
f 17/17/5 19/18/5 18/19/5
f 18/19/5 19/18/5 20/20/5
f 21/21/6 23/22/6 22/23/6
f 22/23/6 23/22/6 24/24/6
f 25/25/3 27/26/3 26/27/3
f 26/27/3 27/26/3 28/28/3
f 29/29/4 31/30/4 30/31/4
f 30/31/4 31/30/4 32/32/4
f 33/33/5 35/34/5 34/35/5
f 34/35/5 35/34/5 36/36/5
f 37/37/6 39/38/6 38/39/6
f 38/39/6 39/38/6 40/40/6
f 41/41/7 43/42/7 42/43/7
f 42/43/7 43/42/7 44/44/7
f 45/45/8 47/46/8 46/47/8
f 46/47/8 47/46/8 48/48/8
f 49/49/1 51/50/1 50/51/1
f 50/51/1 51/50/1 52/52/1
f 53/53/2 55/54/2 54/55/2
f 54/55/2 55/54/2 56/56/2
f 57/57/7 59/58/7 58/59/7
f 58/59/7 59/58/7 60/60/7
f 61/61/8 63/62/8 62/63/8
f 62/63/8 63/62/8 64/64/8
f 65/65/9 67/66/10 66/67/11
f 66/67/12 67/66/13 68/68/14
f 69/69/15 71/70/15 70/71/16
f 70/71/17 71/70/17 72/72/17
f 73/73/18 75/74/19 74/75/20
f 74/75/21 75/74/22 76/76/23
f 77/77/24 79/78/25 78/79/26
f 78/79/27 79/78/28 80/80/29
f 81/81/30 83/82/31 82/83/32
f 82/83/33 83/82/34 84/84/35
f 85/85/36 87/86/37 86/87/38
f 86/87/39 87/86/40 88/88/41
f 89/89/42 91/90/43 90/91/44
f 90/91/45 91/90/46 92/92/47
f 93/93/48 95/94/49 94/95/50
f 94/95/51 95/94/52 96/96/53
f 97/97/54 99/98/55 98/99/56
f 98/99/57 99/98/58 100/100/59
f 101/101/60 103/102/61 102/103/62
f 102/103/63 103/102/64 104/104/65
f 105/105/66 107/106/67 106/107/68
f 106/107/69 107/106/70 108/108/71
f 109/109/72 111/110/73 110/111/74
f 110/111/75 111/110/76 112/112/77
f 113/113/1 115/114/1 114/115/1
f 114/115/1 115/114/1 116/116/1
f 117/117/2 119/118/2 118/119/2
f 118/119/2 119/118/2 120/120/2
f 121/121/3 123/122/3 122/123/3
f 122/123/3 123/122/3 124/124/3
f 125/125/4 127/126/4 126/127/4
f 126/127/4 127/126/4 128/128/4
f 129/129/5 131/130/5 130/131/5
f 130/131/5 131/130/5 132/132/5
f 133/133/6 135/134/6 134/135/6
f 134/135/6 135/134/6 136/136/6
f 137/137/3 139/138/3 138/139/3
f 138/139/3 139/138/3 140/140/3
f 141/141/4 143/142/4 142/143/4
f 142/143/4 143/142/4 144/144/4
f 145/145/5 147/146/5 146/147/5
f 146/147/5 147/146/5 148/148/5
f 149/149/6 151/150/6 150/151/6
f 150/151/6 151/150/6 152/152/6
f 153/153/7 155/154/7 154/155/7
f 154/155/7 155/154/7 156/156/7
f 157/157/8 159/158/8 158/159/8
f 158/159/8 159/158/8 160/160/8
f 161/161/1 163/162/1 162/163/1
f 162/163/1 163/162/1 164/164/1
f 165/165/2 167/166/2 166/167/2
f 166/167/2 167/166/2 168/168/2
f 169/169/7 171/170/7 170/171/7
f 170/171/7 171/170/7 172/172/7
f 173/173/8 175/174/8 174/175/8
f 174/175/8 175/174/8 176/176/8
f 177/177/78 179/178/78 178/179/78
f 180/180/79 182/181/79 181/182/79
f 183/183/80 185/184/80 184/185/80
f 186/186/81 188/187/81 187/188/81
f 189/189/82 191/190/82 190/191/82
f 192/192/81 194/193/81 193/194/81
f 195/195/82 197/196/82 196/197/82
f 198/198/83 200/199/83 199/200/83
f 201/201/84 203/202/84 202/203/84
f 204/204/85 206/205/85 205/206/85
f 207/207/86 209/208/86 208/209/86
f 210/210/87 212/211/87 211/212/87
f 213/213/88 215/214/88 214/215/88
f 216/216/89 218/217/89 217/218/89
f 219/219/90 221/220/90 220/221/90
f 222/222/91 224/223/91 223/224/91
f 225/225/92 227/226/92 226/227/92
f 228/228/93 230/229/93 229/230/93
f 231/231/94 233/232/94 232/233/94
f 234/234/95 236/235/95 235/236/95
f 237/237/96 239/238/96 238/239/96
f 240/240/97 242/241/97 241/242/97
f 243/243/98 245/244/98 244/245/98
f 246/246/99 248/247/99 247/248/99
f 249/249/100 251/250/100 250/251/100
f 252/252/101 254/253/101 253/254/101
f 255/255/102 257/256/102 256/257/102
f 258/258/103 260/259/103 259/260/103
f 261/261/104 263/262/104 262/263/104
f 264/264/105 266/265/105 265/266/105
f 267/267/106 269/268/106 268/269/106
f 270/270/107 272/271/107 271/272/107
f 273/273/108 275/274/108 274/275/108
f 276/276/109 278/277/109 277/278/109
f 279/279/110 281/280/110 280/281/110
f 282/282/111 284/283/111 283/284/111
f 285/285/112 287/286/112 286/287/112
f 288/288/113 290/289/113 289/290/113
f 291/291/114 293/292/114 292/293/114
f 294/294/115 296/295/115 295/296/115
f 297/297/116 299/298/116 298/299/116
f 300/300/117 302/301/117 301/302/117
f 303/303/118 305/304/118 304/305/118
f 306/306/119 308/307/119 307/308/119
f 309/309/120 311/310/120 310/311/120
f 312/312/121 314/313/121 313/314/121
f 315/315/122 317/316/122 316/317/122
f 318/318/123 320/319/123 319/320/123
f 321/321/124 323/322/124 322/323/124
f 324/324/125 326/325/125 325/326/125
f 327/327/126 329/328/126 328/329/126
f 330/330/127 332/331/127 331/332/127
f 333/333/128 335/334/128 334/335/128
f 336/336/129 338/337/129 337/338/129
f 339/339/130 341/340/130 340/341/130
f 342/342/131 344/343/131 343/344/131
f 345/345/80 347/346/80 346/347/80
f 348/348/83 350/349/83 349/350/83
f 351/351/80 353/352/80 352/353/80
f 354/354/81 356/355/81 355/356/81
f 357/357/82 359/358/82 358/359/82
f 360/360/81 362/361/81 361/362/81
f 363/363/82 365/364/82 364/365/82
f 366/366/83 368/367/83 367/368/83
