# Blender v3.6.3 OBJ File: 'untitled.blend'
# www.blender.org
mtllib Mesh_0355.mtl
o Mesh_0355_Mesh.215
v -28.193335 19.837488 38.317886
v -28.872259 19.274775 38.317886
v -29.680904 20.319984 38.317886
v -29.385681 18.500074 38.317886
v -29.680904 17.514353 38.317886
v -25.896904 19.274775 38.317886
v -26.575821 19.837488 38.317886
v -25.088270 20.319984 38.317886
v -27.384583 20.227324 38.317886
v -27.384583 20.319984 38.317886
v -33.273335 19.837488 38.317886
v -33.952259 19.274775 38.317886
v -34.760902 20.319984 38.317886
v -34.465683 18.500074 38.317886
v -34.760902 17.514353 38.317886
v -30.976904 19.274775 38.317886
v -31.655821 19.837488 38.317886
v -30.168270 20.319984 38.317886
v -32.464584 20.227324 38.317886
v -32.464584 20.319984 38.317886
v -19.514893 22.377487 31.256943
v -19.514893 21.814775 31.935860
v -19.514893 22.859983 32.744507
v -19.514893 21.040073 32.449287
v -19.514893 20.054350 32.744507
v -19.514893 21.814775 28.960510
v -19.514893 22.377487 29.639435
v -19.514893 22.859985 28.151878
v -19.514893 22.767324 30.448189
v -19.514893 22.859985 30.448189
v -27.384583 20.319984 38.317886
v -27.384583 20.227324 38.317886
v -29.680904 20.319984 38.317886
v -28.193335 19.837488 38.317886
v -25.896904 19.274775 38.317886
v -25.088270 20.319984 38.317886
v -25.383495 18.500074 38.317886
v -25.088270 17.514353 38.317886
v -32.464584 20.319984 38.317886
v -32.464584 20.227324 38.317886
v -34.760902 20.319984 38.317886
v -33.273335 19.837488 38.317886
v -30.976904 19.274775 38.317886
v -30.168270 20.319984 38.317886
v -30.463495 18.500074 38.317886
v -30.168270 17.514353 38.317886
v -19.514893 22.859985 30.448189
v -19.514893 22.767324 30.448189
v -19.514893 22.859983 32.744507
v -19.514893 22.377487 31.256943
v -19.514893 21.814775 28.960510
v -19.514893 22.859985 28.151878
v -19.514893 21.040075 28.447105
v -19.514893 20.054352 28.151878
vt 0.647766 -0.828064
vt 0.000000 -0.999451
vt 0.352112 -0.627502
vt 0.128540 -0.351440
vt 0.000000 -0.000061
vt 0.647766 -0.372070
vt 0.999939 -0.000061
vt 0.352112 -0.171509
vt 0.000000 -0.032593
vt 0.000000 -0.000061
vt 0.647766 -0.828064
vt 0.000000 -0.999451
vt 0.352112 -0.627502
vt 0.128540 -0.351440
vt 0.000000 -0.000061
vt 0.647766 -0.372070
vt 0.999939 -0.000061
vt 0.352112 -0.171509
vt 0.000000 -0.032593
vt 0.000000 -0.000061
vt 0.647766 -0.828064
vt 0.000000 -0.999451
vt 0.352112 -0.627502
vt 0.128540 -0.351440
vt 0.000000 -0.000061
vt 0.647766 -0.372070
vt 0.999939 -0.000061
vt 0.352112 -0.171509
vt 0.000000 -0.032593
vt 0.000000 -0.000061
vt 0.999939 -0.999451
vt 0.000000 -0.999451
vt 0.999939 -0.966980
vt 0.647766 -0.828064
vt 0.647766 -0.372070
vt 0.871338 -0.648193
vt 0.999939 -0.000061
vt 0.999939 -0.999451
vt 0.999939 -0.999451
vt 0.000000 -0.999451
vt 0.999939 -0.966980
vt 0.647766 -0.828064
vt 0.647766 -0.372070
vt 0.871338 -0.648193
vt 0.999939 -0.000061
vt 0.999939 -0.999451
vt 0.999939 -0.999451
vt 0.000000 -0.999451
vt 0.999939 -0.966980
vt 0.647766 -0.828064
vt 0.647766 -0.372070
vt 0.871338 -0.648193
vt 0.999939 -0.000061
vt 0.999939 -0.999451
vn 0.0000 0.0000 1.0000
vn 1.0000 0.0000 0.0000
usemtl Tex_0053_1.dds.011
s off
f 1/1/1 3/2/1 2/3/1
f 2/3/1 3/2/1 4/4/1
f 3/2/1 5/5/1 4/4/1
f 6/6/1 8/7/1 7/8/1
f 7/8/1 8/7/1 9/9/1
f 8/7/1 10/10/1 9/9/1
f 11/11/1 13/12/1 12/13/1
f 12/13/1 13/12/1 14/14/1
f 13/12/1 15/15/1 14/14/1
f 16/16/1 18/17/1 17/18/1
f 17/18/1 18/17/1 19/19/1
f 18/17/1 20/20/1 19/19/1
f 21/21/2 23/22/2 22/23/2
f 22/23/2 23/22/2 24/24/2
f 23/22/2 25/25/2 24/24/2
f 26/26/2 28/27/2 27/28/2
f 27/28/2 28/27/2 29/29/2
f 28/27/2 30/30/2 29/29/2
f 31/31/1 33/32/1 32/33/1
f 32/33/1 33/32/1 34/34/1
f 35/35/1 37/36/1 36/37/1
f 36/37/1 37/36/1 38/38/1
f 39/39/1 41/40/1 40/41/1
f 40/41/1 41/40/1 42/42/1
f 43/43/1 45/44/1 44/45/1
f 44/45/1 45/44/1 46/46/1
f 47/47/2 49/48/2 48/49/2
f 48/49/2 49/48/2 50/50/2
f 51/51/2 53/52/2 52/53/2
f 52/53/2 53/52/2 54/54/2
