# Blender v3.6.3 OBJ File: 'untitled.blend'
# www.blender.org
mtllib Mesh_0182.mtl
o Mesh_0182_Mesh.032
v -22.304649 12.699988 5.337646
v -22.304649 22.297226 5.337646
v -22.083925 12.699988 5.124390
v -22.083925 22.297226 5.124390
v -22.083925 12.699989 4.971992
v -22.083925 22.297226 4.971992
v -22.304649 12.699988 0.257652
v -22.304649 22.297226 0.257652
v -22.083925 12.699988 0.044395
v -22.083925 22.297226 0.044395
v -22.083925 12.699988 -0.108009
v -22.083925 22.297226 -0.108009
v -22.304649 12.699989 -4.822342
v -22.304649 22.297226 -4.822342
v -22.083925 12.699988 -5.035599
v -22.083925 22.297226 -5.035599
v -22.083925 12.699988 -5.188004
v -22.083925 22.297226 -5.188004
v -22.304649 12.699989 -9.902348
v -22.304649 22.297226 -9.902348
v -22.083925 12.699989 -10.115604
v -22.083925 22.297226 -10.115604
v -22.083925 12.699989 -10.268005
v -22.083925 22.297226 -10.268005
v -21.895203 22.859987 -15.271805
v -21.895203 22.859987 -15.027584
v -22.041252 22.859987 -15.270252
v -22.304649 22.859987 -14.783363
v -22.304649 22.859987 -15.271805
v -22.304649 22.859987 10.128189
v -22.304649 22.859987 9.639748
v -22.041252 22.859987 10.128189
v -21.895203 22.859987 9.883972
v -21.895203 22.859987 10.128189
v -22.304649 12.699989 -14.982349
v -22.304649 22.297197 -14.982349
v -22.083925 12.699989 -15.195606
v -22.083925 22.297224 -15.195606
v -22.083925 22.297224 -15.195606
v -22.083925 22.297224 -15.271805
v -22.083925 12.699989 -15.195606
v -22.083925 12.699989 -15.271805
v -22.083925 12.699989 10.051994
v -22.083925 22.297224 10.051994
v -22.304649 12.699989 9.838737
v -22.304649 22.297146 9.838737
v -22.083925 22.297224 10.051994
v -22.083925 12.699989 10.051994
v -22.083925 22.297224 10.128189
v -22.083925 12.699989 10.128189
v -22.304649 22.859989 4.559753
v -21.895203 22.859989 4.803970
v -22.304649 22.859989 5.536636
v -21.895203 22.859989 5.292412
v -22.083925 22.297226 4.971992
v -22.304649 22.297148 4.758736
v -22.083925 12.699989 4.971992
v -22.304649 12.699989 4.758736
v -22.304649 22.859989 -0.520248
v -21.895203 22.859989 -0.276024
v -22.304649 22.859989 0.456635
v -21.895203 22.859989 0.212418
v -22.083925 22.297226 -0.108009
v -22.304649 22.297148 -0.321266
v -22.083925 12.699988 -0.108009
v -22.304649 12.699988 -0.321266
v -22.304649 22.859989 -5.600243
v -21.895203 22.859989 -5.356026
v -22.304649 22.859989 -4.623360
v -21.895203 22.859989 -4.867584
v -22.083925 22.297226 -5.188004
v -22.304649 22.297148 -5.401260
v -22.083925 12.699988 -5.188004
v -22.304649 12.699988 -5.401260
v -22.304649 22.859989 -10.680248
v -21.895203 22.859989 -10.436028
v -22.304649 22.859989 -9.703365
v -21.895203 22.859989 -9.947586
v -22.083925 22.297226 -10.268005
v -22.304649 22.297148 -10.481262
v -22.083925 12.699989 -10.268005
v -22.304649 12.699989 -10.481262
vt -1.000000 -3.002930
vt -0.250977 -3.002930
vt -1.000000 -0.005859
vt -0.250977 -0.005859
vt -0.000977 -3.002930
vt -0.000977 -0.005859
vt -1.000000 -3.002930
vt -0.250977 -3.002930
vt -1.000000 -0.005859
vt -0.250977 -0.005859
vt -0.000977 -3.002930
vt -0.000977 -0.005859
vt -1.000000 -3.002930
vt -0.250977 -3.002930
vt -1.000000 -0.005859
vt -0.250977 -0.005859
vt -0.000977 -3.002930
vt -0.000977 -0.005859
vt -1.000000 -3.002930
vt -0.250977 -3.002930
vt -1.000000 -0.005859
vt -0.250977 -0.005859
vt -0.000977 -3.002930
vt -0.000977 -0.005859
vt 1.801758 1.589844
vt 1.808594 1.700195
vt 1.911133 1.664062
vt 1.797852 1.886719
vt 1.701172 1.830078
vt 1.701172 1.830078
vt 1.808594 1.700195
vt 1.797852 1.886719
vt 1.911133 1.664062
vt 1.801758 1.589844
vt -1.000000 -3.002930
vt -0.250977 -3.002930
vt -1.000000 -0.005859
vt -0.250977 -0.005859
vt -0.000977 -0.005859
vt -0.000977 -3.002930
vt -0.094727 -0.005859
vt -0.094727 -3.002930
vt -0.250977 -3.002930
vt -1.000000 -3.002930
vt -0.250977 -0.005859
vt -1.000000 -0.005859
vt -0.000977 -0.005859
vt -0.094727 -0.005859
vt -0.000977 -3.002930
vt -0.094727 -3.002930
vt 1.797852 1.886719
vt 1.604492 1.773438
vt 1.911133 1.664062
vt 1.693359 1.515625
vt -0.250977 -0.005859
vt -0.250977 -3.002930
vt -1.000000 -0.005859
vt -1.000000 -3.002930
vt 1.797852 1.886719
vt 1.604492 1.773438
vt 1.911133 1.664062
vt 1.693359 1.515625
vt -0.250977 -0.005859
vt -0.250977 -3.002930
vt -1.000000 -0.005859
vt -1.000000 -3.002930
vt 1.797852 1.886719
vt 1.604492 1.773438
vt 1.911133 1.664062
vt 1.693359 1.515625
vt -0.250977 -0.005859
vt -0.250977 -3.002930
vt -1.000000 -0.005859
vt -1.000000 -3.002930
vt 1.797852 1.886719
vt 1.604492 1.773438
vt 1.911133 1.664062
vt 1.693359 1.515625
vt -0.250977 -0.005859
vt -0.250977 -3.002930
vt -1.000000 -0.005859
vt -1.000000 -3.002930
vn 0.6948 0.0000 0.7192
vn 0.6475 -0.3944 0.6520
vn 0.6948 0.0072 0.7191
vn 0.9223 -0.3866 -0.0000
vn 1.0000 0.0000 0.0000
vn 0.7000 0.0114 -0.7140
vn 0.6486 -0.3904 0.6533
vn 0.3589 -0.0125 0.9333
vn 0.9206 -0.3906 -0.0000
vn 0.6396 0.3906 0.6620
vn 0.9206 0.0062 -0.3906
vn 0.9206 0.3906 0.0062
vn 0.0000 1.0000 0.0000
vn 0.6948 0.0000 -0.7192
usemtl Tex_0069_0.dds
s off
f 1/1/1 3/2/2 2/3/1
f 2/3/1 3/2/1 4/4/3
f 3/2/4 5/5/5 4/4/6
f 4/4/5 5/5/5 6/6/5
f 7/7/1 9/8/7 8/9/1
f 8/9/1 9/8/8 10/10/3
f 9/8/9 11/11/5 10/10/6
f 10/10/5 11/11/5 12/12/5
f 13/13/1 15/14/7 14/15/1
f 14/15/1 15/14/8 16/16/10
f 15/14/9 17/17/5 16/16/11
f 16/16/12 17/17/5 18/18/5
f 19/19/1 21/20/7 20/21/1
f 20/21/1 21/20/8 22/22/3
f 21/20/9 23/23/5 22/22/6
f 22/22/5 23/23/5 24/24/5
f 25/25/13 27/26/13 26/27/13
f 26/27/13 27/26/13 28/28/13
f 27/26/13 29/29/13 28/28/13
f 30/30/13 32/31/13 31/32/13
f 31/32/13 32/31/13 33/33/13
f 32/31/13 34/34/13 33/33/13
f 35/35/1 37/36/1 36/37/1
f 36/37/1 37/36/1 38/38/1
f 39/39/5 41/40/5 40/41/5
f 40/41/5 41/40/5 42/42/5
f 43/43/14 45/44/14 44/45/14
f 44/45/14 45/44/14 46/46/14
f 47/47/5 49/48/5 48/49/5
f 48/49/5 49/48/5 50/50/5
f 51/51/13 53/52/13 52/53/13
f 52/53/13 53/52/13 54/54/13
f 55/55/14 57/56/14 56/57/14
f 56/57/14 57/56/14 58/58/14
f 59/59/13 61/60/13 60/61/13
f 60/61/13 61/60/13 62/62/13
f 63/63/14 65/64/14 64/65/14
f 64/65/14 65/64/14 66/66/14
f 67/67/13 69/68/13 68/69/13
f 68/69/13 69/68/13 70/70/13
f 71/71/14 73/72/14 72/73/14
f 72/73/14 73/72/14 74/74/14
f 75/75/13 77/76/13 76/77/13
f 76/77/13 77/76/13 78/78/13
f 79/79/14 81/80/14 80/81/14
f 80/81/14 81/80/14 82/82/14
