# Blender v3.6.3 OBJ File: 'untitled.blend'
# www.blender.org
mtllib Mesh_0218.mtl
o Mesh_0218_Mesh.049
v 56.432293 7.899385 23.184044
v 56.105091 7.683486 23.272690
v 56.432293 7.899385 23.488594
v 56.105091 7.683486 23.399948
v 55.997334 7.683485 23.488594
v 55.783184 7.340585 23.399948
v 55.667133 7.340585 23.488594
v 55.545345 6.997686 23.399948
v 55.413136 6.997685 23.488594
v 55.343250 6.451586 23.399948
v 55.209934 6.451585 23.488594
v 55.230305 5.841986 23.399948
v 55.108334 5.841985 23.488594
v 55.108334 5.841985 23.184044
v 55.230305 5.841986 23.272690
v 55.209934 6.451585 23.184044
v 55.343250 6.451586 23.272690
v 55.413136 6.997685 23.184044
v 55.545345 6.997686 23.272690
v 55.667133 7.340585 23.184044
v 55.783184 7.340585 23.272690
v 55.997334 7.683485 23.184044
v 56.105091 7.683486 23.272690
v 56.432293 7.899385 23.184044
v 57.527561 6.451586 23.184044
v 59.135754 7.035964 22.301651
v 57.325466 6.997686 23.184044
v 58.739765 8.183612 22.301651
v 57.087643 7.340586 23.184044
v 58.150227 8.965754 22.301651
v 56.765728 7.683485 23.184044
v 57.340473 9.521735 22.301651
v 56.432682 9.860394 22.301651
v 55.108334 5.841985 23.184044
v 55.209934 6.451585 23.184044
v 53.745113 7.026896 22.301651
v 55.413136 6.997685 23.184044
v 54.064381 8.183612 22.301651
v 55.667133 7.340585 23.184044
v 54.674999 8.963672 22.301651
v 55.486271 9.524148 22.301651
v 57.087643 7.340586 23.488594
v 57.325466 6.997686 23.488594
v 57.325466 6.997686 23.184044
v 57.527561 6.451586 23.488594
v 57.527561 6.451586 23.184044
v 57.640514 5.841986 23.488594
v 57.640514 5.841986 23.184044
v 57.325466 6.997686 23.184044
v 57.087643 7.340586 23.184044
v 57.087643 7.340586 23.488594
v 56.765728 7.683485 23.184044
v 56.765728 7.683485 23.488594
v 56.432293 7.899385 23.184044
v 56.432293 7.899385 23.488594
v 55.783184 7.340585 23.272690
v 55.545345 6.997686 23.272690
v 55.545345 6.997686 23.399948
v 55.343250 6.451586 23.272690
v 55.343250 6.451586 23.399948
v 55.230305 5.841986 23.272690
v 55.230305 5.841986 23.399948
v 56.765728 7.683485 23.184044
v 56.432682 9.860394 22.301651
v 56.432293 7.899385 23.184044
v 55.486271 9.524148 22.301651
v 55.997334 7.683485 23.184044
v 55.667133 7.340585 23.184044
v 55.545345 6.997686 23.399948
v 55.783184 7.340585 23.399948
v 55.783184 7.340585 23.272690
v 56.105091 7.683486 23.399948
v 56.105091 7.683486 23.272690
v 59.121777 5.841985 22.301651
v 59.135754 7.035964 22.301651
v 57.640514 5.841986 23.184044
v 57.527561 6.451586 23.184044
v 55.108334 5.841985 23.184044
v 53.745113 7.026896 22.301651
v 53.779400 5.841985 22.301651
vt 1.013672 -0.492188
vt 1.060547 -0.492188
vt 1.087891 -0.545898
vt 1.195312 -0.545898
vt 1.060547 -0.545898
vt 1.195312 -0.630859
vt 1.060547 -0.630859
vt 1.195312 -0.715820
vt 1.060547 -0.716797
vt 1.195312 -0.852539
vt 1.060547 -0.852539
vt 1.195312 -0.987305
vt 1.060547 -0.987305
vt 1.013672 -0.987305
vt 1.013672 -0.852539
vt 1.087891 -0.987305
vt 1.087891 -0.852539
vt 1.013672 -0.716797
vt 1.087891 -0.715820
vt 1.013672 -0.630859
vt 1.087891 -0.630859
vt 1.013672 -0.545898
vt 1.087891 -0.545898
vt 1.013672 -0.492188
vt 1.013672 -0.852539
vt 1.013672 -0.716797
vt 0.101562 -0.650391
vt 0.101562 -0.407227
vt 1.013672 -0.630859
vt 0.101562 -0.227539
vt 1.013672 -0.545898
vt 0.101562 -0.013672
vt 0.101562 -0.013672
vt 1.013672 -0.987305
vt 0.101562 -0.653320
vt 1.013672 -0.852539
vt 1.013672 -0.716797
vt 0.101562 -0.407227
vt 1.013672 -0.630859
vt 0.101562 -0.227539
vt 0.101562 -0.013672
vt 1.060547 -0.630859
vt 1.013672 -0.716797
vt 1.060547 -0.716797
vt 1.060547 -0.852539
vt 1.013672 -0.852539
vt 1.060547 -0.987305
vt 1.013672 -0.987305
vt 1.013672 -0.716797
vt 1.060547 -0.630859
vt 1.013672 -0.630859
vt 1.013672 -0.545898
vt 1.060547 -0.545898
vt 1.013672 -0.492188
vt 1.060547 -0.492188
vt 1.087891 -0.630859
vt 1.195312 -0.715820
vt 1.087891 -0.715820
vt 1.087891 -0.852539
vt 1.195312 -0.852539
vt 1.087891 -0.987305
vt 1.195312 -0.987305
vt 1.013672 -0.545898
vt 1.013672 -0.492188
vt 0.101562 -0.013672
vt 0.101562 -0.013672
vt 1.013672 -0.545898
vt 1.013672 -0.630859
vt 1.195312 -0.715820
vt 1.087891 -0.630859
vt 1.195312 -0.630859
vt 1.195312 -0.545898
vt 1.087891 -0.545898
vt 0.101562 -0.987305
vt 1.013672 -0.987305
vt 0.101562 -0.650391
vt 1.013672 -0.852539
vt 1.013672 -0.987305
vt 0.101562 -0.987305
vt 0.101562 -0.653320
vn 0.5508 -0.8347 0.0000
vn 0.6247 -0.7804 0.0264
vn 0.3044 -0.9525 0.0000
vn 0.2732 -0.5504 0.7890
vn 0.4029 -0.8308 0.3840
vn 0.2637 -0.9098 0.3205
vn 0.5456 -0.5122 0.6633
vn 0.5939 -0.4994 0.6308
vn 0.2791 -0.6271 0.7272
vn 0.5610 -0.5501 0.6186
vn 0.4928 -0.4959 0.7150
vn 0.5066 -0.3480 0.7888
vn 0.5928 -0.3856 0.7071
vn 0.5874 -0.4074 0.6993
vn 0.4547 -0.3889 0.8012
vn 0.5381 -0.3996 0.7421
vn 0.5127 -0.3904 0.7647
vn 0.5454 -0.2018 0.8135
vn 0.5632 -0.1619 0.8103
vn 0.4806 -0.3370 0.8096
vn 0.5870 -0.2148 0.7806
vn 0.5055 -0.2012 0.8390
vn 0.5033 -0.0929 0.8591
vn 0.5861 -0.1008 0.8039
vn 0.5216 -0.0966 0.8477
vn 0.6110 -0.1453 0.7782
vn 0.5851 -0.0975 0.8051
vn 0.5854 -0.0913 0.8056
vn 0.5851 -0.0975 -0.8051
vn 0.6110 -0.1454 -0.7782
vn 0.5855 -0.0913 -0.8055
vn 0.5216 -0.0966 -0.8477
vn 0.5861 -0.1008 -0.8039
vn 0.5033 -0.0929 -0.8591
vn 0.5870 -0.2148 -0.7806
vn 0.5399 -0.2009 -0.8174
vn 0.5055 -0.2016 -0.8390
vn 0.5632 -0.1619 -0.8103
vn 0.5455 -0.2015 -0.8135
vn 0.5169 -0.1781 -0.8373
vn 0.5148 -0.3813 -0.7678
vn 0.4547 -0.3889 -0.8012
vn 0.6741 -0.2906 -0.6791
vn 0.5928 -0.3856 -0.7071
vn 0.5066 -0.3480 -0.7888
vn 0.5610 -0.5501 -0.6186
vn 0.4263 -0.5450 -0.7220
vn 0.4928 -0.4959 -0.7150
vn 0.5939 -0.4994 -0.6308
vn 0.6102 -0.5295 -0.5892
vn 0.4094 -0.3844 -0.8274
vn 0.4305 -0.8745 -0.2236
vn 0.3911 -0.7880 -0.4755
vn 0.3367 -0.7461 -0.5744
vn -0.4299 -0.1591 -0.8888
vn -0.3864 -0.1763 -0.9053
vn -0.4269 -0.1672 -0.8887
vn -0.4291 -0.1481 -0.8910
vn -0.4368 -0.0910 -0.8949
vn -0.4949 -0.1726 -0.8516
vn -0.3047 -0.2141 -0.9281
vn -0.3301 -0.2399 -0.9129
vn -0.3350 -0.2870 -0.8974
vn -0.3975 -0.2859 -0.8719
vn -0.3508 -0.2490 -0.9027
vn -0.3910 -0.3070 -0.8677
vn -0.2879 -0.2655 -0.9201
vn -0.2702 -0.2648 -0.9257
vn -0.3303 -0.2796 -0.9015
vn -0.2830 -0.4039 -0.8699
vn -0.2022 -0.3638 -0.9093
vn -0.2740 -0.3990 -0.8751
vn -0.0118 -0.3520 -0.9359
vn -0.1458 -0.3907 -0.9089
vn -0.1604 -0.4301 -0.8884
vn 0.4905 -0.0818 -0.8676
vn 0.5118 -0.0349 -0.8584
vn 0.4520 -0.0753 -0.8888
vn 0.4169 -0.1551 -0.8956
vn 0.4458 -0.2127 -0.8695
vn 0.4134 -0.2016 -0.8879
vn 0.4635 -0.1232 -0.8775
vn 0.4845 -0.1337 -0.8645
vn 0.4752 -0.0381 -0.8791
vn 0.2879 -0.2252 -0.9308
vn 0.2796 -0.3878 -0.8783
vn 0.3252 -0.2586 -0.9096
vn 0.3495 -0.2736 -0.8961
vn 0.4013 -0.3142 -0.8604
vn 0.1313 -0.3581 -0.9244
vn 0.2688 -0.3890 -0.8811
vn 0.2395 -0.3466 -0.9069
vn -0.8217 -0.5699 0.0000
vn -0.7587 -0.6389 0.1269
vn -0.8152 -0.5654 -0.1256
vn -0.9304 -0.3443 -0.1256
vn -0.9488 -0.3046 0.0833
vn -0.9607 -0.2747 -0.0396
vn -0.9048 -0.4237 0.0436
vn -0.9344 -0.3458 0.0855
vn -0.9206 -0.3830 -0.0758
vn -0.9797 -0.1815 -0.0855
vn -0.9865 -0.1444 0.0768
vn -0.9833 -0.1822 0.0000
vn -0.9657 -0.2570 0.0377
vn -0.8492 -0.5229 -0.0744
vn -0.8195 -0.5684 0.0737
vn -0.7271 -0.6826 0.0737
vn -0.7074 -0.7053 -0.0463
vn -0.6543 -0.7534 0.0657
vn -0.7596 -0.6497 -0.0300
vn -0.7237 -0.6794 -0.1208
vn -0.7687 -0.6316 0.1014
vn -0.5395 -0.8332 0.1209
vn -0.4778 -0.8732 -0.0959
vn -0.5435 -0.8394 0.0000
vn -0.6201 -0.7811 -0.0736
vn 0.8217 -0.5699 0.0000
vn 0.7907 -0.5977 -0.1327
vn 0.8152 -0.5654 0.1256
vn 0.9304 -0.3443 0.1257
vn 0.9402 -0.3223 -0.1100
vn 0.9634 -0.2675 0.0183
vn 0.8937 -0.4480 -0.0240
vn 0.9344 -0.3458 -0.0856
vn 0.9281 -0.3629 0.0836
vn 0.9797 -0.1815 0.0855
vn 0.9828 -0.1646 -0.0838
vn 0.9833 -0.1822 0.0000
vn 0.9644 -0.2639 -0.0172
vn -0.2568 -0.3966 -0.8814
vn -0.1416 -0.2352 -0.9616
vn -0.5798 -0.3807 -0.7204
vn 0.1566 -0.4407 -0.8839
vn 0.3038 -0.3023 -0.9035
vn 0.1559 -0.4278 -0.8903
vn 0.0126 -0.2394 -0.9708
vn 0.1496 -0.3013 -0.9417
vn 0.2131 -0.3771 -0.9013
vn 0.5078 -0.2949 -0.8094
vn 0.2981 -0.2870 -0.9104
vn 0.3405 -0.3279 -0.8812
vn 0.8325 -0.5486 0.0778
vn 0.8195 -0.5684 -0.0736
vn 0.7271 -0.6826 -0.0736
vn 0.7157 -0.6955 0.0637
vn 0.7291 -0.6844 0.0000
vn 0.7711 -0.6365 0.0172
vn -0.5118 0.0060 -0.8591
vn -0.5102 0.0776 -0.8565
vn -0.5338 0.0063 -0.8456
vn -0.4281 -0.1638 -0.8887
vn -0.4219 -0.0782 -0.9032
vn -0.4556 -0.0844 -0.8862
vn 0.5531 0.0160 -0.8330
usemtl Tex_0055_0.dds.001
s off
f 1/1/1 3/2/2 2/3/1
f 2/3/1 3/2/1 4/4/3
f 3/2/4 5/5/5 4/4/6
f 4/4/7 5/5/7 6/6/8
f 5/5/9 7/7/10 6/6/11
f 6/6/12 7/7/13 8/8/14
f 7/7/15 9/9/16 8/8/17
f 8/8/18 9/9/18 10/10/19
f 9/9/20 11/11/21 10/10/22
f 10/10/23 11/11/24 12/12/25
f 11/11/26 13/13/27 12/12/28
f 14/14/29 16/15/30 15/16/31
f 15/16/32 16/15/33 17/17/34
f 16/15/35 18/18/36 17/17/37
f 17/17/38 18/18/39 19/19/40
f 18/18/41 20/20/42 19/19/41
f 19/19/43 20/20/44 21/21/45
f 20/20/46 22/22/47 21/21/48
f 21/21/49 22/22/50 23/23/51
f 22/22/52 24/24/53 23/23/54
f 25/25/55 27/26/56 26/27/57
f 26/27/58 27/26/59 28/28/60
f 27/26/61 29/29/62 28/28/63
f 28/28/64 29/29/65 30/30/66
f 29/29/67 31/31/68 30/30/69
f 30/30/70 31/31/71 32/32/72
f 31/31/73 33/33/74 32/32/75
f 34/34/76 36/35/77 35/36/78
f 35/36/79 36/35/80 37/37/81
f 36/35/82 38/38/83 37/37/84
f 37/37/85 38/38/86 39/39/87
f 38/38/88 40/40/89 39/39/88
f 39/39/90 40/40/91 41/41/92
f 42/42/93 44/43/94 43/44/95
f 43/44/96 44/43/97 45/45/98
f 44/43/99 46/46/100 45/45/101
f 45/45/102 46/46/103 47/47/104
f 46/46/105 48/48/104 47/47/104
f 49/49/93 51/50/106 50/51/107
f 50/51/108 51/50/109 52/52/110
f 51/50/111 53/53/112 52/52/113
f 52/52/114 53/53/115 54/54/116
f 53/53/117 55/55/116 54/54/116
f 56/56/118 58/57/119 57/58/120
f 57/58/121 58/57/122 59/59/123
f 58/57/124 60/60/125 59/59/126
f 59/59/127 60/60/128 61/61/129
f 60/60/130 62/62/129 61/61/129
f 63/63/131 65/64/132 64/65/133
f 64/65/134 65/64/135 66/66/136
f 65/64/137 67/67/138 66/66/139
f 66/66/140 67/67/141 68/68/142
f 69/69/118 71/70/143 70/71/144
f 70/71/145 71/70/146 72/72/147
f 71/70/148 73/73/147 72/72/147
f 74/74/149 76/75/150 75/76/151
f 75/76/152 76/75/153 77/77/154
f 78/78/155 80/79/155 79/80/155
