# Blender v3.6.3 OBJ File: 'untitled.blend'
# www.blender.org
mtllib Mesh_0225.mtl
o Mesh_0225_Mesh.165
v 27.225527 6.529056 22.193192
v 27.225527 7.913203 22.193192
v 25.955526 6.529056 22.193192
v 26.474947 7.913203 22.193192
v 25.955526 7.913203 22.193192
v 36.115570 7.913203 22.193192
v 35.596138 7.913203 22.193192
v 36.115570 6.529056 22.193192
v 34.845566 7.913203 22.193192
v 34.845566 6.529056 22.193192
v 25.955526 6.529056 22.193192
v 25.955526 7.913203 22.193192
v 25.955526 6.529056 22.828194
v 25.955526 7.913203 22.828194
v 27.484354 6.529056 23.684937
v 27.484354 7.984476 23.684937
v 27.484354 6.529056 22.445160
v 27.479525 7.913203 22.447189
v 27.893034 8.250972 23.684937
v 31.035524 8.643148 23.684937
v 27.893034 8.250972 22.447189
v 31.035524 8.643149 22.447189
v 36.115570 6.529056 22.193192
v 36.115570 6.529056 22.828194
v 36.115570 7.913203 22.193192
v 36.115570 7.913203 22.828194
v 34.586739 6.529056 23.684937
v 34.586739 6.529056 22.445160
v 34.586739 7.984476 23.684937
v 34.591568 7.913203 22.447189
v 34.178062 8.250972 23.684937
v 34.178062 8.250972 22.447189
v 31.035524 8.643148 23.684937
v 31.035524 8.643149 22.447189
vt 0.932617 -0.988281
vt -0.002930 -0.988281
vt 0.932617 0.000000
vt 0.395508 0.000000
vt -0.002930 0.000000
vt -0.002930 0.000000
vt -0.002930 -0.978516
vt 0.395508 0.000000
vt 0.932617 0.000000
vt 0.932617 -0.978516
vt 0.493164 -0.988281
vt -0.002930 -0.988281
vt 0.493164 0.000000
vt -0.002930 0.000000
vt -2.333984 -1.991211
vt -2.978516 -1.991211
vt -2.333984 -1.003906
vt -2.975586 -1.003906
vt 3.939453 -0.340820
vt 3.103516 -0.339844
vt 3.937500 -0.667969
vt 3.102539 -0.666016
vt 0.493164 -0.978516
vt 0.493164 0.000000
vt -0.002930 -0.978516
vt -0.002930 0.000000
vt -2.333984 -1.991211
vt -2.333984 -1.003906
vt -2.978516 -1.991211
vt -2.975586 -1.003906
vt 3.939453 -0.340820
vt 3.937500 -0.667969
vt 3.103516 -0.339844
vt 3.102539 -0.666016
vn 0.0000 0.0000 -1.0000
vn -1.0000 0.0000 0.0000
vn 1.0000 0.0000 0.0000
vn 1.0000 -0.0024 -0.0000
vn 1.0000 0.0000 0.0029
vn 1.0000 0.0060 -0.0043
vn 1.0000 0.0035 -0.0071
vn 1.0000 0.0035 -0.0041
vn 0.1238 -0.9923 0.0000
vn -1.0000 0.0035 -0.0041
vn -0.1238 -0.9923 0.0000
usemtl Tex_0085_1.dds.001
s off
f 1/1/1 3/2/1 2/3/1
f 2/3/1 3/2/1 4/4/1
f 3/2/1 5/5/1 4/4/1
f 6/6/1 8/7/1 7/8/1
f 7/8/1 8/7/1 9/9/1
f 8/7/1 10/10/1 9/9/1
f 11/11/2 13/12/2 12/13/2
f 12/13/2 13/12/2 14/14/2
f 15/15/3 17/16/4 16/17/5
f 16/17/6 17/16/7 18/18/8
f 19/19/9 21/20/9 20/21/9
f 20/21/9 21/20/9 22/22/9
f 23/23/3 25/24/3 24/25/3
f 24/25/3 25/24/3 26/26/3
f 27/27/2 29/28/2 28/29/2
f 28/29/10 29/28/10 30/30/10
f 31/31/11 33/32/11 32/33/11
f 32/33/11 33/32/11 34/34/11
