# Blender v3.6.3 OBJ File: 'untitled.blend'
# www.blender.org
mtllib Mesh_0371.mtl
o Mesh_0371_Mesh.106
v -35.322083 20.180765 38.068192
v -35.322083 20.180765 38.317871
v -35.322083 12.025435 38.068192
v -35.322083 12.025435 38.317871
v -35.004585 20.319983 38.446320
v -35.004585 12.022642 38.446320
v -35.322083 20.180765 38.317871
v -35.322083 12.025435 38.317871
v -40.084583 9.482642 38.446320
v -40.084583 17.779984 38.446320
v -39.770561 9.842179 38.317871
v -39.770561 17.942036 38.317871
v -39.770561 17.942036 38.068192
v -39.770561 9.842179 38.068192
v -39.770561 17.942036 38.317871
v -39.770561 9.842179 38.317871
v -40.402084 17.640768 38.068192
v -40.402084 17.640768 38.317871
v -40.402084 9.485435 38.068192
v -40.402084 9.485435 38.317871
v -40.084583 17.779984 38.446320
v -40.084583 9.482642 38.446320
v -40.402084 17.640768 38.317871
v -40.402084 9.485435 38.317871
v -45.164581 6.942645 38.446320
v -45.164581 15.239984 38.446320
v -44.850574 7.302169 38.317871
v -44.850567 15.402035 38.317871
v -44.850574 15.402035 38.068192
v -44.850574 7.302169 38.068192
v -44.850567 15.402035 38.317871
v -44.850574 7.302169 38.317871
v -45.482082 15.100765 38.068192
v -45.482082 15.100765 38.317871
v -45.482082 6.945436 38.068192
v -45.482082 6.945436 38.317871
v -45.164581 15.239984 38.446320
v -45.164581 6.942645 38.446320
v -45.482082 15.100765 38.317871
v -45.482082 6.945436 38.317871
v -50.244583 4.402642 38.446320
v -50.244583 12.699984 38.446320
v -49.930561 4.762180 38.317871
v -49.930561 12.862035 38.317871
v -49.930561 12.862035 38.068192
v -49.930561 4.762180 38.068192
v -49.930561 12.862035 38.317871
v -49.930561 4.762180 38.317871
v -50.562080 12.560766 38.068192
v -50.562080 12.560766 38.317871
v -50.562080 4.405436 38.068192
v -50.562080 4.405436 38.317871
v -50.244583 12.699984 38.446320
v -50.244583 4.402642 38.446320
v -50.562080 12.560766 38.317871
v -50.562080 4.405436 38.317871
v -55.324581 1.862648 38.446320
v -55.324581 10.159984 38.446320
v -55.010574 2.222169 38.317871
v -55.010567 10.322036 38.317871
v -55.010574 10.322036 38.068192
v -55.010574 2.222169 38.068192
v -55.010567 10.322036 38.317871
v -55.010574 2.222169 38.317871
vt 0.995117 1.373047
vt 0.995117 -2.266602
vt 1.163086 1.373047
vt 1.163086 -2.266602
vt 1.994141 1.435547
vt 1.163086 1.373047
vt 1.994141 -2.262695
vt 1.163086 -2.266602
vt -0.005859 -2.258789
vt -0.839844 -2.089844
vt -0.005859 1.437500
vt -0.839844 1.512695
vt -1.004883 1.512695
vt -0.839844 1.512695
vt -1.004883 -2.089844
vt -0.839844 -2.089844
vt 0.995117 1.373047
vt 0.995117 -2.266602
vt 1.163086 1.373047
vt 1.163086 -2.266602
vt 1.994141 1.435547
vt 1.163086 1.373047
vt 1.994141 -2.262695
vt 1.163086 -2.266602
vt -0.005859 -2.258789
vt -0.839844 -2.089844
vt -0.005859 1.437500
vt -0.839844 1.512695
vt -1.004883 1.512695
vt -0.839844 1.512695
vt -1.004883 -2.089844
vt -0.839844 -2.089844
vt 0.995117 1.373047
vt 0.995117 -2.266602
vt 1.163086 1.373047
vt 1.163086 -2.266602
vt 1.994141 1.435547
vt 1.163086 1.373047
vt 1.994141 -2.262695
vt 1.163086 -2.266602
vt -0.005859 -2.258789
vt -0.839844 -2.089844
vt -0.005859 1.437500
vt -0.839844 1.512695
vt -1.004883 1.512695
vt -0.839844 1.512695
vt -1.004883 -2.089844
vt -0.839844 -2.089844
vt 0.995117 1.373047
vt 0.995117 -2.266602
vt 1.163086 1.373047
vt 1.163086 -2.266602
vt 1.994141 1.435547
vt 1.163086 1.373047
vt 1.994141 -2.262695
vt 1.163086 -2.266602
vt -0.005859 -2.258789
vt -0.839844 -2.089844
vt -0.005859 1.437500
vt -0.839844 1.512695
vt -1.004883 1.512695
vt -0.839844 1.512695
vt -1.004883 -2.089844
vt -0.839844 -2.089844
vn -1.0000 0.0000 0.0000
vn -0.3750 0.0000 0.9270
vn 0.3786 0.0000 0.9256
vn 1.0000 0.0000 0.0000
vn 0.3786 0.0000 0.9255
usemtl Tex_0030_0.dds.014
s off
f 1/1/1 3/2/1 2/3/1
f 2/3/1 3/2/1 4/4/1
f 5/5/2 7/6/2 6/7/2
f 6/7/2 7/6/2 8/8/2
f 9/9/3 11/10/3 10/11/3
f 10/11/3 11/10/3 12/12/3
f 13/13/4 15/14/4 14/15/4
f 14/15/4 15/14/4 16/16/4
f 17/17/1 19/18/1 18/19/1
f 18/19/1 19/18/1 20/20/1
f 21/21/2 23/22/2 22/23/2
f 22/23/2 23/22/2 24/24/2
f 25/25/3 27/26/3 26/27/3
f 26/27/5 27/26/5 28/28/5
f 29/29/4 31/30/4 30/31/4
f 30/31/4 31/30/4 32/32/4
f 33/33/1 35/34/1 34/35/1
f 34/35/1 35/34/1 36/36/1
f 37/37/2 39/38/2 38/39/2
f 38/39/2 39/38/2 40/40/2
f 41/41/3 43/42/3 42/43/3
f 42/43/3 43/42/3 44/44/3
f 45/45/4 47/46/4 46/47/4
f 46/47/4 47/46/4 48/48/4
f 49/49/1 51/50/1 50/51/1
f 50/51/1 51/50/1 52/52/1
f 53/53/2 55/54/2 54/55/2
f 54/55/2 55/54/2 56/56/2
f 57/57/3 59/58/3 58/59/3
f 58/59/3 59/58/3 60/60/3
f 61/61/4 63/62/4 62/63/4
f 62/63/4 63/62/4 64/64/4
