# Blender v3.6.3 OBJ File: 'untitled.blend'
# www.blender.org
mtllib Mesh_0120.mtl
o Mesh_0120_Mesh.122
v 37.450691 50.326534 10.562286
v 37.450691 50.799988 11.387787
v 40.366867 43.325783 16.258995
v 40.366867 43.814983 17.102783
v 42.465424 35.559990 21.552864
v 42.465424 35.559990 20.288200
v 41.533234 40.004990 19.642784
v 41.533234 39.784771 18.456604
v 24.620142 50.326534 10.562286
v 21.703962 43.325783 16.258995
v 24.620142 50.799988 11.387787
v 21.703962 43.814983 17.102783
v 19.605413 35.559990 21.552864
v 20.537600 40.004990 19.642784
v 19.605413 35.559990 20.288200
v 20.537600 39.784771 18.456604
v 18.335413 43.325783 15.306496
v 18.335413 39.784771 17.821609
v 21.703962 43.325783 16.258995
v 20.537600 39.784771 18.456604
v 37.450691 50.326534 -15.705887
v 40.366867 43.325787 -21.402599
v 37.450691 50.799988 -16.531387
v 40.366867 43.814991 -22.246387
v 42.465424 35.559990 -26.696465
v 41.533234 40.004990 -24.786388
v 42.465424 35.559990 -25.431797
v 41.533234 39.784771 -23.600201
v 24.620142 50.326534 -15.705887
v 24.620142 50.799988 -16.531387
v 21.703962 43.325787 -21.402599
v 21.703962 43.814991 -22.246387
v 19.605413 35.559990 -26.696465
v 19.605413 35.559990 -25.431797
v 20.537600 40.004990 -24.786388
v 20.537600 39.784771 -23.600201
v 18.335413 43.325787 -20.450100
v 21.703962 43.325787 -21.402599
v 18.335413 39.784771 -22.965199
v 20.537600 39.784771 -23.600201
v 50.020142 50.326534 10.562286
v 47.103966 43.325783 16.258995
v 50.020142 50.799988 11.387787
v 47.103966 43.814983 17.102783
v 45.005417 35.559990 21.552864
v 45.937599 40.004990 19.642784
v 45.005417 35.559990 20.288200
v 45.937599 39.784771 18.456604
v 62.850693 50.326534 10.562286
v 62.850693 50.799988 11.387787
v 65.766861 43.325783 16.258995
v 65.766861 43.814983 17.102783
v 67.865417 35.559990 21.552864
v 67.865417 35.559990 20.288200
v 66.933228 40.004990 19.642784
v 66.933228 39.784771 18.456604
v 69.135422 43.325783 15.306496
v 65.766861 43.325783 16.258995
v 69.135422 39.784771 17.821609
v 66.933228 39.784771 18.456604
v 50.020142 50.326534 -15.705887
v 50.020142 50.799988 -16.531387
v 47.103966 43.325787 -21.402599
v 47.103966 43.814991 -22.246387
v 45.005417 35.559990 -26.696465
v 45.005417 35.559990 -25.431797
v 45.937599 40.004990 -24.786388
v 45.937599 39.784771 -23.600201
v 62.850693 50.326534 -15.705887
v 65.766861 43.325787 -21.402599
v 62.850693 50.799988 -16.531387
v 65.766861 43.814991 -22.246387
v 67.865417 35.559990 -26.696465
v 66.933228 40.004990 -24.786388
v 67.865417 35.559990 -25.431797
v 66.933228 39.784771 -23.600201
v 69.135422 43.325787 -20.450100
v 69.135422 39.784771 -22.965199
v 65.766861 43.325787 -21.402599
v 66.933228 39.784771 -23.600201
v 12.050688 50.335167 10.543999
v 12.050688 50.799988 11.387787
v 14.966864 43.350166 16.283379
v 14.966864 43.814983 17.102783
v 17.065413 35.559990 21.552864
v 17.065413 35.559990 20.288200
v 16.133226 40.004990 19.642784
v 16.133226 39.784771 18.530014
v -3.696035 43.814983 17.102783
v -0.779860 50.799988 11.387787
v -3.696035 43.351944 16.145714
v -0.779860 50.335167 10.564575
v -4.862406 39.749718 18.549316
v -7.057219 39.774357 18.500549
v -5.822783 35.559990 20.870369
v -7.064838 35.559990 20.870369
v 18.335413 43.325783 15.306496
v 14.966864 43.350166 16.283379
v 18.335413 39.784771 17.821609
v 16.133226 39.784771 18.530014
v 12.050688 50.335171 -15.687599
v 14.966864 43.350170 -21.426979
v 12.050688 50.799988 -16.531387
v 14.966864 43.814991 -22.246387
v 17.065413 35.559990 -26.696465
v 16.133226 40.004990 -24.786388
v 17.065413 35.559990 -25.431797
v 16.133226 39.784771 -23.673611
v -3.696035 43.814991 -22.246387
v -3.696035 43.351948 -21.289307
v -0.779860 50.799988 -16.531387
v -0.779860 50.335171 -15.708168
v -4.862406 39.749718 -23.692913
v -5.822783 35.559990 -26.013966
v -7.057219 39.774357 -23.644150
v -7.064838 35.559990 -26.013966
v 18.335413 43.325787 -20.450100
v 18.335413 39.784771 -22.965199
v 14.966864 43.350170 -21.426979
v 16.133226 39.784771 -23.673611
v 41.533234 39.784771 18.456604
v 42.465424 35.559990 20.288200
v 43.100418 39.584110 18.023285
v 43.100418 42.986183 15.767509
v 41.533234 39.784771 18.456604
v 43.100418 39.584110 18.023285
v 43.100929 56.908688 2.829002
v 33.658981 57.219330 3.139648
v 37.450691 50.326534 10.562286
v 43.101944 50.014622 10.043869
v 43.100929 56.908688 2.829002
v 37.450691 50.326534 10.562286
v 43.096352 60.653156 -2.571800
v 31.035414 60.959988 -2.571800
v 33.658981 57.219330 3.139648
v 43.100929 56.908688 2.829002
v 43.096352 60.653156 -2.571800
v 33.658981 57.219330 3.139648
v 40.366867 43.325783 16.258995
v 43.101944 50.014622 10.043869
v 37.450691 50.326534 10.562286
v 43.100418 42.986183 15.767509
v 43.101944 50.014622 10.043869
v 40.366867 43.325783 16.258995
v 41.533234 39.784771 18.456604
v 43.100418 42.986183 15.767509
v 40.366867 43.325783 16.258995
v 33.658981 57.784988 3.767784
v 37.450691 50.799988 11.387787
v 37.450691 50.326534 10.562286
v 40.366867 43.814983 17.102783
v 41.533234 40.004990 19.642784
v 41.533234 39.784771 18.456604
v 40.366867 43.325783 16.258995
v 40.366867 43.814983 17.102783
v 41.533234 39.784771 18.456604
v 24.620142 50.326534 10.562286
v 24.620142 50.799988 11.387787
v 28.411848 57.784988 3.767784
v 20.537600 39.784771 18.456604
v 20.537600 40.004990 19.642784
v 21.703962 43.814983 17.102783
v 21.703962 43.325783 16.258995
v 20.537600 39.784771 18.456604
v 21.703962 43.814983 17.102783
v 20.537600 39.784771 18.456604
v 18.335413 39.784771 17.821609
v 18.335413 35.559990 20.288200
v 19.605413 35.559990 20.288200
v 20.537600 39.784771 18.456604
v 18.335413 35.559990 20.288200
v 24.620142 50.326534 10.562286
v 28.411848 57.219330 3.139648
v 18.335413 56.901829 2.822144
v 18.335413 50.021988 9.979866
v 24.620142 50.326534 10.562286
v 18.335413 56.901829 2.822144
v 28.411848 57.219330 3.139648
v 31.035414 60.959988 -2.571800
v 18.335413 60.642487 -2.571800
v 18.335413 56.901829 2.822144
v 28.411848 57.219330 3.139648
v 18.335413 60.642487 -2.571800
v 21.703962 43.325783 16.258995
v 24.620142 50.326534 10.562286
v 18.335413 50.021988 9.979866
v 18.335413 43.325783 15.306496
v 21.703962 43.325783 16.258995
v 18.335413 50.021988 9.979866
v 43.100418 39.584110 -23.166878
v 42.465424 35.559990 -25.431797
v 41.533234 39.784771 -23.600201
v 43.100418 42.986187 -20.911106
v 43.100418 39.584110 -23.166878
v 41.533234 39.784771 -23.600201
v 37.450691 50.326534 -15.705887
v 33.658981 57.219326 -8.283245
v 43.100929 56.908688 -7.972595
v 43.101944 50.014622 -15.187469
v 37.450691 50.326534 -15.705887
v 43.100929 56.908688 -7.972595
v 33.658981 57.219326 -8.283245
v 31.035414 60.959988 -2.571800
v 43.096352 60.653156 -2.571800
v 43.100929 56.908688 -7.972595
v 33.658981 57.219326 -8.283245
v 43.096352 60.653156 -2.571800
v 43.101944 50.014622 -15.187469
v 40.366867 43.325787 -21.402599
v 37.450691 50.326534 -15.705887
v 40.366867 43.325787 -21.402599
v 43.101944 50.014622 -15.187469
v 43.100418 42.986187 -20.911106
v 41.533234 39.784771 -23.600201
v 40.366867 43.325787 -21.402599
v 43.100418 42.986187 -20.911106
v 37.450691 50.326534 -15.705887
v 37.450691 50.799988 -16.531387
v 33.658981 57.784985 -8.911388
v 41.533234 39.784771 -23.600201
v 41.533234 40.004990 -24.786388
v 40.366867 43.814991 -22.246387
v 40.366867 43.325787 -21.402599
v 41.533234 39.784771 -23.600201
v 40.366867 43.814991 -22.246387
v 28.411848 57.784985 -8.911388
v 24.620142 50.799988 -16.531387
v 24.620142 50.326534 -15.705887
v 21.703962 43.814991 -22.246387
v 20.537600 40.004990 -24.786388
v 20.537600 39.784771 -23.600201
v 21.703962 43.325787 -21.402599
v 21.703962 43.814991 -22.246387
v 20.537600 39.784771 -23.600201
v 18.335413 35.559990 -25.431797
v 18.335413 39.784771 -22.965199
v 20.537600 39.784771 -23.600201
v 19.605413 35.559990 -25.431797
v 18.335413 35.559990 -25.431797
v 20.537600 39.784771 -23.600201
v 18.335413 56.901829 -7.965748
v 28.411848 57.219326 -8.283245
v 24.620142 50.326534 -15.705887
v 18.335413 50.021988 -15.123459
v 18.335413 56.901829 -7.965748
v 24.620142 50.326534 -15.705887
v 18.335413 60.642487 -2.571800
v 31.035414 60.959988 -2.571800
v 28.411848 57.219326 -8.283245
v 18.335413 56.901829 -7.965748
v 18.335413 60.642487 -2.571800
v 28.411848 57.219326 -8.283245
v 18.335413 50.021988 -15.123459
v 24.620142 50.326534 -15.705887
v 21.703962 43.325787 -21.402599
v 18.335413 43.325787 -20.450100
v 18.335413 50.021988 -15.123459
v 21.703962 43.325787 -21.402599
v 44.370422 39.584110 18.023285
v 45.005417 35.559990 20.288200
v 45.937599 39.784771 18.456604
v 44.370422 42.986183 15.767509
v 44.370422 39.584110 18.023285
v 45.937599 39.784771 18.456604
v 50.020142 50.326534 10.562286
v 53.812111 57.219330 3.139648
v 44.369659 56.908688 2.829002
v 44.368889 50.014622 10.043869
v 50.020142 50.326534 10.562286
v 44.369659 56.908688 2.829002
v 53.812111 57.219330 3.139648
v 56.435417 60.959988 -2.571800
v 44.374481 60.653156 -2.571800
v 44.369659 56.908688 2.829002
v 53.812111 57.219330 3.139648
v 44.374481 60.653156 -2.571800
v 44.368889 50.014622 10.043869
v 47.103966 43.325783 16.258995
v 50.020142 50.326534 10.562286
v 47.103966 43.325783 16.258995
v 44.368889 50.014622 10.043869
v 44.370422 42.986183 15.767509
v 45.937599 39.784771 18.456604
v 47.103966 43.325783 16.258995
v 44.370422 42.986183 15.767509
v 50.020142 50.326534 10.562286
v 50.020142 50.799988 11.387787
v 53.812111 57.784988 3.767784
v 45.937599 39.784771 18.456604
v 45.937599 40.004990 19.642784
v 47.103966 43.814983 17.102783
v 47.103966 43.325783 16.258995
v 45.937599 39.784771 18.456604
v 47.103966 43.814983 17.102783
v 59.058983 57.784988 3.767784
v 62.850693 50.799988 11.387787
v 62.850693 50.326534 10.562286
v 65.766861 43.814983 17.102783
v 66.933228 40.004990 19.642784
v 66.933228 39.784771 18.456604
v 65.766861 43.325783 16.258995
v 65.766861 43.814983 17.102783
v 66.933228 39.784771 18.456604
v 69.135422 35.559990 20.288200
v 69.135422 39.784771 17.821609
v 66.933228 39.784771 18.456604
v 67.865417 35.559990 20.288200
v 69.135422 35.559990 20.288200
v 66.933228 39.784771 18.456604
v 69.135422 56.901829 2.822144
v 59.058983 57.219330 3.139648
v 62.850693 50.326534 10.562286
v 69.135422 50.021988 9.979866
v 69.135422 56.901829 2.822144
v 62.850693 50.326534 10.562286
v 69.135422 60.642487 -2.571800
v 56.435417 60.959988 -2.571800
v 59.058983 57.219330 3.139648
v 69.135422 56.901829 2.822144
v 69.135422 60.642487 -2.571800
v 59.058983 57.219330 3.139648
v 69.135422 50.021988 9.979866
v 62.850693 50.326534 10.562286
v 65.766861 43.325783 16.258995
v 69.135422 43.325783 15.306496
v 69.135422 50.021988 9.979866
v 65.766861 43.325783 16.258995
v 45.937599 39.784771 -23.600201
v 45.005417 35.559990 -25.431797
v 44.370422 39.584110 -23.166878
v 44.370422 42.986187 -20.911106
v 45.937599 39.784771 -23.600201
v 44.370422 39.584110 -23.166878
v 44.369659 56.908688 -7.972595
v 53.812111 57.219326 -8.283245
v 50.020142 50.326534 -15.705887
v 44.368889 50.014622 -15.187469
v 44.369659 56.908688 -7.972595
v 50.020142 50.326534 -15.705887
v 44.374481 60.653156 -2.571800
v 56.435417 60.959988 -2.571800
v 53.812111 57.219326 -8.283245
v 44.369659 56.908688 -7.972595
v 44.374481 60.653156 -2.571800
v 53.812111 57.219326 -8.283245
v 47.103966 43.325787 -21.402599
v 44.368889 50.014622 -15.187469
v 50.020142 50.326534 -15.705887
v 44.370422 42.986187 -20.911106
v 44.368889 50.014622 -15.187469
v 47.103966 43.325787 -21.402599
v 45.937599 39.784771 -23.600201
v 44.370422 42.986187 -20.911106
v 47.103966 43.325787 -21.402599
v 53.812111 57.784985 -8.911388
v 50.020142 50.799988 -16.531387
v 50.020142 50.326534 -15.705887
v 47.103966 43.814991 -22.246387
v 45.937599 40.004990 -24.786388
v 45.937599 39.784771 -23.600201
v 47.103966 43.325787 -21.402599
v 47.103966 43.814991 -22.246387
v 45.937599 39.784771 -23.600201
v 62.850693 50.326534 -15.705887
v 62.850693 50.799988 -16.531387
v 59.058983 57.784985 -8.911388
v 66.933228 39.784771 -23.600201
v 66.933228 40.004990 -24.786388
v 65.766861 43.814991 -22.246387
v 65.766861 43.325787 -21.402599
v 66.933228 39.784771 -23.600201
v 65.766861 43.814991 -22.246387
v 66.933228 39.784771 -23.600201
v 69.135422 39.784771 -22.965199
v 69.135422 35.559990 -25.431797
v 67.865417 35.559990 -25.431797
v 66.933228 39.784771 -23.600201
v 69.135422 35.559990 -25.431797
v 62.850693 50.326534 -15.705887
v 59.058983 57.219326 -8.283245
v 69.135422 56.901829 -7.965748
v 69.135422 50.021988 -15.123459
v 62.850693 50.326534 -15.705887
v 69.135422 56.901829 -7.965748
v 59.058983 57.219326 -8.283245
v 56.435417 60.959988 -2.571800
v 69.135422 60.642487 -2.571800
v 69.135422 56.901829 -7.965748
v 59.058983 57.219326 -8.283245
v 69.135422 60.642487 -2.571800
v 65.766861 43.325787 -21.402599
v 62.850693 50.326534 -15.705887
v 69.135422 50.021988 -15.123459
v 69.135422 43.325787 -20.450100
v 65.766861 43.325787 -21.402599
v 69.135422 50.021988 -15.123459
v 8.258982 57.784988 3.767784
v 12.050688 50.799988 11.387787
v 12.050688 50.335167 10.543999
v 14.966864 43.814983 17.102783
v 16.133226 40.004990 19.642784
v 16.133226 39.784771 18.530014
v 14.966864 43.350166 16.283379
v 14.966864 43.814983 17.102783
v 16.133226 39.784771 18.530014
v -0.779860 50.335167 10.564575
v -0.779860 50.799988 11.387787
v 3.011847 57.784988 3.767784
v -4.862406 39.749718 18.549316
v -4.862406 40.004990 19.642784
v -3.696035 43.814983 17.102783
v -3.696035 43.351944 16.145714
v -4.862406 39.749718 18.549316
v -3.696035 43.814983 17.102783
v -4.862406 39.749718 18.549316
v -5.822783 35.559990 20.870369
v -4.862406 40.004990 19.642784
v 3.011847 57.247017 3.164536
v 5.635412 60.959988 -2.571800
v -7.064585 60.324989 -2.571800
v -7.064585 57.784988 1.820366
v 3.011847 57.247017 3.164536
v -7.064585 60.324989 -2.571800
v -8.334585 50.799988 10.075371
v -8.334585 43.816509 15.876732
v -7.064585 43.816509 15.876732
v -0.779860 50.335167 10.564575
v -8.334585 50.799988 10.075371
v -7.064585 43.816509 15.876732
v -0.779860 50.335167 10.564575
v -7.064585 43.816509 15.876732
v -3.696035 43.351944 16.145714
v -7.064585 57.784988 1.820366
v -8.334585 50.799988 10.075371
v -0.779860 50.335167 10.564575
v 3.011847 57.247017 3.164536
v -7.064585 57.784988 1.820366
v -0.779860 50.335167 10.564575
v -3.696035 43.351944 16.145714
v -7.064585 43.816509 15.876732
v -7.064585 43.035458 16.425369
v -4.862406 39.749718 18.549316
v -3.696035 43.351944 16.145714
v -7.064585 43.035458 16.425369
v -7.064585 43.035458 16.425369
v -7.057219 39.774357 18.500549
v -4.862406 39.749718 18.549316
v 16.133226 39.784771 18.530014
v 18.335413 35.559990 20.288200
v 18.335413 39.784771 17.821609
v 18.335413 35.559990 20.288200
v 16.133226 39.784771 18.530014
v 17.065413 35.559990 20.288200
v 18.335413 56.901829 2.822144
v 8.258982 57.222382 3.119576
v 12.050688 50.335167 10.543999
v 18.335413 50.021988 9.979866
v 18.335413 56.901829 2.822144
v 12.050688 50.335167 10.543999
v 18.335413 60.642487 -2.571800
v 5.635412 60.959988 -2.571800
v 8.258982 57.222382 3.119576
v 18.335413 56.901829 2.822144
v 18.335413 60.642487 -2.571800
v 8.258982 57.222382 3.119576
v 18.335413 50.021988 9.979866
v 12.050688 50.335167 10.543999
v 14.966864 43.350166 16.283379
v 18.335413 43.325783 15.306496
v 18.335413 50.021988 9.979866
v 14.966864 43.350166 16.283379
v 12.050688 50.335171 -15.687599
v 12.050688 50.799988 -16.531387
v 8.258982 57.784985 -8.911388
v 16.133226 39.784771 -23.673611
v 16.133226 40.004990 -24.786388
v 14.966864 43.814991 -22.246387
v 14.966864 43.350170 -21.426979
v 16.133226 39.784771 -23.673611
v 14.966864 43.814991 -22.246387
v 3.011847 57.784985 -8.911388
v -0.779860 50.799988 -16.531387
v -0.779860 50.335171 -15.708168
v -3.696035 43.814991 -22.246387
v -4.862406 40.004990 -24.786388
v -4.862406 39.749718 -23.692913
v -3.696035 43.351948 -21.289307
v -3.696035 43.814991 -22.246387
v -4.862406 39.749718 -23.692913
v -4.862406 39.749718 -23.692913
v -4.862406 40.004990 -24.786388
v -5.822783 35.559990 -26.013966
v -7.064585 60.324989 -2.571800
v 5.635412 60.959988 -2.571800
v 3.011847 57.247013 -8.308140
v -7.064585 57.784988 -6.963966
v -7.064585 60.324989 -2.571800
v 3.011847 57.247013 -8.308140
v -7.064585 43.816513 -21.020325
v -8.334585 43.816513 -21.020325
v -8.334585 50.799988 -15.218967
v -0.779860 50.335171 -15.708168
v -7.064585 43.816513 -21.020325
v -8.334585 50.799988 -15.218967
v -7.064585 43.816513 -21.020325
v -0.779860 50.335171 -15.708168
v -3.696035 43.351948 -21.289307
v -7.064585 43.035465 -21.568966
v -7.064585 43.816513 -21.020325
v -3.696035 43.351948 -21.289307
v -0.779860 50.335171 -15.708168
v -8.334585 50.799988 -15.218967
v -7.064585 57.784988 -6.963966
v 3.011847 57.247013 -8.308140
v -0.779860 50.335171 -15.708168
v -7.064585 57.784988 -6.963966
v -7.064585 43.035465 -21.568966
v -3.696035 43.351948 -21.289307
v -4.862406 39.749718 -23.692913
v -7.057219 39.774357 -23.644150
v -7.064585 43.035465 -21.568966
v -4.862406 39.749718 -23.692913
v 16.133226 39.784771 -23.673611
v 18.335413 39.784771 -22.965199
v 18.335413 35.559990 -25.431797
v 17.065413 35.559990 -25.431797
v 16.133226 39.784771 -23.673611
v 18.335413 35.559990 -25.431797
v 12.050688 50.335171 -15.687599
v 8.258982 57.222378 -8.263176
v 18.335413 56.901829 -7.965748
v 18.335413 50.021988 -15.123459
v 12.050688 50.335171 -15.687599
v 18.335413 56.901829 -7.965748
v 8.258982 57.222378 -8.263176
v 5.635412 60.959988 -2.571800
v 18.335413 60.642487 -2.571800
v 18.335413 56.901829 -7.965748
v 8.258982 57.222378 -8.263176
v 18.335413 60.642487 -2.571800
v 14.966864 43.350170 -21.426979
v 12.050688 50.335171 -15.687599
v 18.335413 50.021988 -15.123459
v 18.335413 43.325787 -20.450100
v 14.966864 43.350170 -21.426979
v 18.335413 50.021988 -15.123459
vt -0.406250 0.019531
vt -0.238281 0.480469
vt -0.343750 0.012695
vt -0.188477 0.477539
vt -0.172852 0.521484
vt -0.127930 0.707031
vt -0.174805 0.628906
vt -0.107422 0.967773
vt -0.406250 0.019531
vt -0.343750 0.012695
vt -0.238281 0.480469
vt -0.188477 0.477539
vt -0.172852 0.521484
vt -0.174805 0.628906
vt -0.127930 0.707031
vt -0.107422 0.967773
vt 1.993164 -1.559570
vt 1.763672 -1.513672
vt 1.998047 -1.347656
vt 1.831055 -1.326172
vt -0.406250 0.019531
vt -0.343750 0.012695
vt -0.238281 0.480469
vt -0.188477 0.477539
vt -0.172852 0.521484
vt -0.174805 0.628906
vt -0.127930 0.707031
vt -0.107422 0.967773
vt -0.406250 0.019531
vt -0.238281 0.480469
vt -0.343750 0.012695
vt -0.188477 0.477539
vt -0.172852 0.521484
vt -0.127930 0.707031
vt -0.174805 0.628906
vt -0.107422 0.967773
vt 1.993164 -1.559570
vt 1.998047 -1.347656
vt 1.763672 -1.513672
vt 1.831055 -1.326172
vt -0.406250 0.019531
vt -0.343750 0.012695
vt -0.238281 0.480469
vt -0.188477 0.477539
vt -0.172852 0.521484
vt -0.174805 0.628906
vt -0.127930 0.707031
vt -0.107422 0.967773
vt -0.406250 0.019531
vt -0.238281 0.480469
vt -0.343750 0.012695
vt -0.188477 0.477539
vt -0.172852 0.521484
vt -0.127930 0.707031
vt -0.174805 0.628906
vt -0.107422 0.967773
vt 1.993164 -1.559570
vt 1.998047 -1.347656
vt 1.763672 -1.513672
vt 1.831055 -1.326172
vt -0.406250 0.019531
vt -0.238281 0.480469
vt -0.343750 0.012695
vt -0.188477 0.477539
vt -0.172852 0.521484
vt -0.127930 0.707031
vt -0.174805 0.628906
vt -0.107422 0.967773
vt -0.406250 0.019531
vt -0.343750 0.012695
vt -0.238281 0.480469
vt -0.188477 0.477539
vt -0.172852 0.521484
vt -0.174805 0.628906
vt -0.127930 0.707031
vt -0.107422 0.967773
vt 1.993164 -1.559570
vt 1.763672 -1.513672
vt 1.998047 -1.347656
vt 1.831055 -1.326172
vt -0.406250 0.019531
vt -0.238281 0.480469
vt -0.343750 0.012695
vt -0.188477 0.477539
vt -0.172852 0.521484
vt -0.127930 0.707031
vt -0.174805 0.628906
vt -0.107422 0.967773
vt -0.185547 0.520508
vt -0.217773 0.524414
vt -0.340820 0.015625
vt -0.410156 0.016602
vt 1.839844 -1.278320
vt 1.900391 -1.016602
vt 1.968750 -1.294922
vt 1.973633 -1.014648
vt 2.000977 -2.556641
vt 1.996094 -2.301758
vt 1.775391 -2.522461
vt 1.832031 -2.354492
vt -0.406250 0.019531
vt -0.343750 0.012695
vt -0.238281 0.480469
vt -0.188477 0.477539
vt -0.172852 0.521484
vt -0.174805 0.628906
vt -0.127930 0.707031
vt -0.107422 0.967773
vt -0.185547 0.520508
vt -0.340820 0.015625
vt -0.217773 0.524414
vt -0.410156 0.016602
vt 1.839844 -1.278320
vt 1.968750 -1.294922
vt 1.900391 -1.016602
vt 1.973633 -1.014648
vt 2.000977 -2.556641
vt 1.775391 -2.522461
vt 1.996094 -2.301758
vt 1.832031 -2.354492
vt 1.831055 -1.326172
vt 1.998047 -1.347656
vt 1.907227 -1.007812
vt 1.993164 -1.559570
vt 1.998047 -1.347656
vt 1.831055 -1.326172
vt 1.000977 0.594727
vt 1.398438 0.005859
vt 1.697266 0.579102
vt 0.999023 0.005859
vt 1.398438 0.005859
vt 1.000977 0.594727
vt 1.012695 0.995117
vt 1.697266 0.579102
vt 1.900391 0.995117
vt 1.000977 0.594727
vt 1.697266 0.579102
vt 1.012695 0.995117
vt 1.763672 -1.513672
vt 1.600586 -1.990234
vt 1.995117 -1.990234
vt 1.993164 -1.559570
vt 1.763672 -1.513672
vt 1.995117 -1.990234
vt 1.831055 -1.326172
vt 1.763672 -1.513672
vt 1.993164 -1.559570
vt -0.343750 -0.418945
vt -0.588867 -0.986328
vt -0.654297 -0.986328
vt -0.188477 0.477539
vt -0.107422 0.967773
vt -0.127930 0.707031
vt -0.238281 0.480469
vt -0.107422 0.967773
vt -0.188477 0.477539
vt -0.588867 -0.986328
vt -0.343750 -0.418945
vt -0.654297 -0.986328
vt -0.107422 0.967773
vt -0.188477 0.477539
vt -0.127930 0.707031
vt -0.238281 0.480469
vt -0.188477 0.477539
vt -0.107422 0.967773
vt 1.831055 -1.326172
vt 1.998047 -1.004883
vt 1.998047 -1.347656
vt 1.907227 -1.007812
vt 1.998047 -1.004883
vt 1.831055 -1.326172
vt 1.398438 0.005859
vt 1.000977 0.594727
vt 1.697266 0.579102
vt 0.999023 0.005859
vt 1.000977 0.594727
vt 1.398438 0.005859
vt 1.697266 0.579102
vt 1.012695 0.995117
vt 1.900391 0.995117
vt 1.000977 0.594727
vt 1.012695 0.995117
vt 1.697266 0.579102
vt 1.763672 -1.513672
vt 1.995117 -1.990234
vt 1.600586 -1.990234
vt 1.993164 -1.559570
vt 1.995117 -1.990234
vt 1.763672 -1.513672
vt 1.998047 -1.347656
vt 1.831055 -1.326172
vt 1.907227 -1.007812
vt 1.993164 -1.559570
vt 1.831055 -1.326172
vt 1.998047 -1.347656
vt 1.398438 0.005859
vt 1.000977 0.594727
vt 1.697266 0.579102
vt 0.999023 0.005859
vt 1.000977 0.594727
vt 1.398438 0.005859
vt 1.697266 0.579102
vt 1.012695 0.995117
vt 1.900391 0.995117
vt 1.000977 0.594727
vt 1.012695 0.995117
vt 1.697266 0.579102
vt 1.995117 -1.990234
vt 1.600586 -1.990234
vt 1.763672 -1.513672
vt 1.763672 -1.513672
vt 1.993164 -1.559570
vt 1.995117 -1.990234
vt 1.831055 -1.326172
vt 1.993164 -1.559570
vt 1.763672 -1.513672
vt -0.588867 -0.986328
vt -0.343750 -0.418945
vt -0.654297 -0.986328
vt -0.107422 0.967773
vt -0.188477 0.477539
vt -0.127930 0.707031
vt -0.238281 0.480469
vt -0.188477 0.477539
vt -0.107422 0.967773
vt -0.343750 -0.418945
vt -0.588867 -0.986328
vt -0.654297 -0.986328
vt -0.188477 0.477539
vt -0.107422 0.967773
vt -0.127930 0.707031
vt -0.238281 0.480469
vt -0.107422 0.967773
vt -0.188477 0.477539
vt 1.998047 -1.004883
vt 1.831055 -1.326172
vt 1.998047 -1.347656
vt 1.907227 -1.007812
vt 1.831055 -1.326172
vt 1.998047 -1.004883
vt 1.000977 0.594727
vt 1.398438 0.005859
vt 1.697266 0.579102
vt 0.999023 0.005859
vt 1.398438 0.005859
vt 1.000977 0.594727
vt 1.012695 0.995117
vt 1.697266 0.579102
vt 1.900391 0.995117
vt 1.000977 0.594727
vt 1.697266 0.579102
vt 1.012695 0.995117
vt 1.995117 -1.990234
vt 1.763672 -1.513672
vt 1.600586 -1.990234
vt 1.993164 -1.559570
vt 1.763672 -1.513672
vt 1.995117 -1.990234
vt 1.998047 -1.347656
vt 1.831055 -1.326172
vt 1.907227 -1.007812
vt 1.993164 -1.559570
vt 1.831055 -1.326172
vt 1.998047 -1.347656
vt 1.398438 0.005859
vt 1.000977 0.594727
vt 1.697266 0.579102
vt 0.999023 0.005859
vt 1.000977 0.594727
vt 1.398438 0.005859
vt 1.697266 0.579102
vt 1.012695 0.995117
vt 1.900391 0.995117
vt 1.000977 0.594727
vt 1.012695 0.995117
vt 1.697266 0.579102
vt 1.995117 -1.990234
vt 1.600586 -1.990234
vt 1.763672 -1.513672
vt 1.763672 -1.513672
vt 1.993164 -1.559570
vt 1.995117 -1.990234
vt 1.831055 -1.326172
vt 1.993164 -1.559570
vt 1.763672 -1.513672
vt -0.588867 -0.986328
vt -0.343750 -0.418945
vt -0.654297 -0.986328
vt -0.107422 0.967773
vt -0.188477 0.477539
vt -0.127930 0.707031
vt -0.238281 0.480469
vt -0.188477 0.477539
vt -0.107422 0.967773
vt -0.343750 -0.418945
vt -0.588867 -0.986328
vt -0.654297 -0.986328
vt -0.188477 0.477539
vt -0.107422 0.967773
vt -0.127930 0.707031
vt -0.238281 0.480469
vt -0.107422 0.967773
vt -0.188477 0.477539
vt 1.998047 -1.004883
vt 1.831055 -1.326172
vt 1.998047 -1.347656
vt 1.907227 -1.007812
vt 1.831055 -1.326172
vt 1.998047 -1.004883
vt 1.000977 0.594727
vt 1.398438 0.005859
vt 1.697266 0.579102
vt 0.999023 0.005859
vt 1.398438 0.005859
vt 1.000977 0.594727
vt 1.012695 0.995117
vt 1.697266 0.579102
vt 1.900391 0.995117
vt 1.000977 0.594727
vt 1.697266 0.579102
vt 1.012695 0.995117
vt 1.995117 -1.990234
vt 1.763672 -1.513672
vt 1.600586 -1.990234
vt 1.993164 -1.559570
vt 1.763672 -1.513672
vt 1.995117 -1.990234
vt 1.831055 -1.326172
vt 1.998047 -1.347656
vt 1.907227 -1.007812
vt 1.993164 -1.559570
vt 1.998047 -1.347656
vt 1.831055 -1.326172
vt 1.000977 0.594727
vt 1.398438 0.005859
vt 1.697266 0.579102
vt 0.999023 0.005859
vt 1.398438 0.005859
vt 1.000977 0.594727
vt 1.012695 0.995117
vt 1.697266 0.579102
vt 1.900391 0.995117
vt 1.000977 0.594727
vt 1.697266 0.579102
vt 1.012695 0.995117
vt 1.763672 -1.513672
vt 1.600586 -1.990234
vt 1.995117 -1.990234
vt 1.993164 -1.559570
vt 1.763672 -1.513672
vt 1.995117 -1.990234
vt 1.831055 -1.326172
vt 1.763672 -1.513672
vt 1.993164 -1.559570
vt -0.343750 -0.418945
vt -0.588867 -0.986328
vt -0.654297 -0.986328
vt -0.188477 0.477539
vt -0.107422 0.967773
vt -0.127930 0.707031
vt -0.238281 0.480469
vt -0.107422 0.967773
vt -0.188477 0.477539
vt -0.588867 -0.986328
vt -0.343750 -0.418945
vt -0.654297 -0.986328
vt -0.107422 0.967773
vt -0.188477 0.477539
vt -0.127930 0.707031
vt -0.238281 0.480469
vt -0.188477 0.477539
vt -0.107422 0.967773
vt 1.831055 -1.326172
vt 1.998047 -1.004883
vt 1.998047 -1.347656
vt 1.907227 -1.007812
vt 1.998047 -1.004883
vt 1.831055 -1.326172
vt 1.398438 0.005859
vt 1.000977 0.594727
vt 1.697266 0.579102
vt 0.999023 0.005859
vt 1.000977 0.594727
vt 1.398438 0.005859
vt 1.697266 0.579102
vt 1.012695 0.995117
vt 1.900391 0.995117
vt 1.000977 0.594727
vt 1.012695 0.995117
vt 1.697266 0.579102
vt 1.763672 -1.513672
vt 1.995117 -1.990234
vt 1.600586 -1.990234
vt 1.993164 -1.559570
vt 1.995117 -1.990234
vt 1.763672 -1.513672
vt -0.343750 -0.418945
vt -0.588867 -0.986328
vt -0.654297 -0.986328
vt -0.188477 0.477539
vt -0.107422 0.967773
vt -0.127930 0.707031
vt -0.238281 0.480469
vt -0.107422 0.967773
vt -0.188477 0.477539
vt -0.592773 -1.008789
vt -0.320312 -0.418945
vt -0.651367 -0.993164
vt -0.107422 0.967773
vt -0.185547 0.520508
vt -0.148438 0.709961
vt -0.217773 0.524414
vt -0.185547 0.520508
vt -0.107422 0.967773
vt -0.107422 0.967773
vt -0.148438 0.709961
vt -0.174805 0.628906
vt 0.674805 -0.460938
vt -0.012695 -0.004883
vt 0.890625 -0.005859
vt -0.000977 -0.389648
vt -0.012695 -0.004883
vt 0.674805 -0.460938
vt 2.013672 -1.988281
vt 1.969727 -1.498047
vt 2.016602 -1.501953
vt 1.602539 -1.993164
vt 1.969727 -1.498047
vt 2.013672 -1.988281
vt 1.602539 -1.993164
vt 1.792969 -1.474609
vt 1.969727 -1.498047
vt -0.000977 -0.389648
vt 0.402344 -0.989258
vt -0.018555 -0.981445
vt 0.674805 -0.460938
vt 0.402344 -0.989258
vt -0.000977 -0.389648
vt 1.792969 -1.474609
vt 1.971680 -1.464844
vt 1.969727 -1.498047
vt 1.839844 -1.278320
vt 1.971680 -1.464844
vt 1.792969 -1.474609
vt 1.971680 -1.464844
vt 1.839844 -1.278320
vt 1.968750 -1.294922
vt 1.832031 -2.354492
vt 1.996094 -2.301758
vt 1.998047 -1.996094
vt 1.998047 -1.996094
vt 1.944336 -1.996094
vt 1.832031 -2.354492
vt 0.007812 -1.400391
vt 0.397461 -1.992188
vt 0.711914 -1.407227
vt 0.002930 -1.992188
vt 0.397461 -1.992188
vt 0.007812 -1.400391
vt 0.002930 -1.003906
vt 0.711914 -1.407227
vt 0.911133 -1.002930
vt 0.007812 -1.400391
vt 0.711914 -1.407227
vt 0.002930 -1.003906
vt 1.998047 -2.987305
vt 1.775391 -2.522461
vt 1.601562 -2.987305
vt 2.000977 -2.556641
vt 1.775391 -2.522461
vt 1.998047 -2.987305
vt -0.588867 -0.986328
vt -0.343750 -0.418945
vt -0.654297 -0.986328
vt -0.107422 0.967773
vt -0.188477 0.477539
vt -0.127930 0.707031
vt -0.238281 0.480469
vt -0.188477 0.477539
vt -0.107422 0.967773
vt -0.320312 -0.418945
vt -0.592773 -1.008789
vt -0.651367 -0.993164
vt -0.185547 0.520508
vt -0.107422 0.967773
vt -0.148438 0.709961
vt -0.217773 0.524414
vt -0.107422 0.967773
vt -0.185547 0.520508
vt -0.107422 0.967773
vt -0.174805 0.628906
vt -0.148438 0.709961
vt -0.012695 -0.004883
vt 0.674805 -0.460938
vt 0.890625 -0.005859
vt -0.000977 -0.389648
vt 0.674805 -0.460938
vt -0.012695 -0.004883
vt 1.969727 -1.498047
vt 2.013672 -1.988281
vt 2.016602 -1.501953
vt 1.602539 -1.993164
vt 2.013672 -1.988281
vt 1.969727 -1.498047
vt 1.969727 -1.498047
vt 1.792969 -1.474609
vt 1.602539 -1.993164
vt 1.971680 -1.464844
vt 1.792969 -1.474609
vt 1.969727 -1.498047
vt 0.402344 -0.989258
vt -0.000977 -0.389648
vt -0.018555 -0.981445
vt 0.674805 -0.460938
vt -0.000977 -0.389648
vt 0.402344 -0.989258
vt 1.971680 -1.464844
vt 1.839844 -1.278320
vt 1.792969 -1.474609
vt 1.968750 -1.294922
vt 1.839844 -1.278320
vt 1.971680 -1.464844
vt 1.832031 -2.354492
vt 1.998047 -1.996094
vt 1.996094 -2.301758
vt 1.944336 -1.996094
vt 1.998047 -1.996094
vt 1.832031 -2.354492
vt 0.397461 -1.992188
vt 0.007812 -1.400391
vt 0.711914 -1.407227
vt 0.002930 -1.992188
vt 0.007812 -1.400391
vt 0.397461 -1.992188
vt 0.711914 -1.407227
vt 0.002930 -1.003906
vt 0.911133 -1.002930
vt 0.007812 -1.400391
vt 0.002930 -1.003906
vt 0.711914 -1.407227
vt 1.775391 -2.522461
vt 1.998047 -2.987305
vt 1.601562 -2.987305
vt 2.000977 -2.556641
vt 1.998047 -2.987305
vt 1.775391 -2.522461
vn -0.9504 -0.2699 0.1548
vn -0.9504 -0.2691 0.1560
vn -0.9787 -0.2053 0.0000
vn -0.9791 -0.1999 0.0371
vn 0.9504 -0.2699 0.1548
vn 0.9503 -0.2707 0.1538
vn 0.9504 -0.2691 0.1560
vn 0.9504 -0.2683 0.1570
vn 0.9787 -0.2053 0.0000
vn 0.9791 -0.1999 0.0371
vn 0.2246 -0.5643 -0.7944
vn 0.2249 -0.5630 -0.7953
vn 0.2218 -0.5647 -0.7950
vn 0.2279 -0.5684 -0.7905
vn 0.2316 -0.5669 -0.7906
vn 0.2283 -0.5666 -0.7918
vn -0.9504 -0.2699 -0.1548
vn -0.9503 -0.2708 -0.1537
vn -0.9504 -0.2691 -0.1560
vn -0.9504 -0.2683 -0.1571
vn -0.9797 -0.2004 -0.0000
vn -0.9756 -0.2173 0.0296
vn -0.9780 -0.2051 -0.0381
vn -0.9800 -0.1872 -0.0670
vn -0.9791 -0.1999 -0.0371
vn 0.9504 -0.2699 -0.1548
vn 0.9504 -0.2691 -0.1560
vn 0.9756 -0.2173 0.0296
vn 0.9797 -0.2004 -0.0000
vn 0.9800 -0.1872 -0.0670
vn 0.9780 -0.2051 -0.0381
vn 0.9791 -0.1999 -0.0371
vn 0.2246 -0.5643 0.7944
vn 0.2218 -0.5646 0.7950
vn 0.2249 -0.5629 0.7953
vn 0.2316 -0.5669 0.7906
vn 0.2280 -0.5683 0.7906
vn 0.2283 -0.5666 0.7918
vn 0.9503 -0.2708 0.1537
vn 0.9756 -0.2173 -0.0296
vn 0.9780 -0.2051 0.0381
vn 0.9800 -0.1872 0.0670
vn -0.9503 -0.2708 0.1537
vn -0.9504 -0.2683 0.1570
vn -0.9787 -0.2052 0.0000
vn -0.9756 -0.2173 -0.0296
vn -0.9800 -0.1872 0.0670
vn -0.9780 -0.2052 0.0381
vn -0.2246 -0.5643 -0.7944
vn -0.2218 -0.5647 -0.7950
vn -0.2249 -0.5629 -0.7953
vn -0.2316 -0.5669 -0.7906
vn -0.2280 -0.5683 -0.7906
vn -0.2283 -0.5666 -0.7918
vn 0.9787 -0.2052 0.0000
vn -0.2246 -0.5643 0.7944
vn -0.2249 -0.5630 0.7953
vn -0.2218 -0.5646 0.7950
vn -0.2280 -0.5683 0.7906
vn -0.2315 -0.5669 0.7906
vn -0.2283 -0.5666 0.7918
vn -0.9502 -0.2731 0.1504
vn -0.9500 -0.2753 0.1476
vn -0.9504 -0.2687 0.1566
vn -0.9502 -0.2710 0.1537
vn -0.9754 -0.2181 -0.0315
vn -0.9799 -0.1863 0.0718
vn -0.9779 -0.2051 0.0406
vn -0.9791 -0.1996 0.0395
vn 0.9490 -0.2838 0.1373
vn 0.9493 -0.2830 0.1369
vn 0.9475 -0.2953 0.1226
vn 0.9491 -0.2742 0.1548
vn 0.9502 -0.2616 0.1692
vn 0.9495 -0.2732 0.1543
vn 0.0139 -0.4870 -0.8733
vn 0.0245 -0.4887 -0.8721
vn 0.0140 -0.4850 -0.8744
vn -0.0120 -0.4901 -0.8716
vn -0.0000 -0.4933 -0.8699
vn 0.0000 -0.4901 -0.8716
vn -0.2339 -0.5630 -0.7927
vn -0.2206 -0.5648 -0.7952
vn -0.2351 -0.5567 -0.7967
vn -0.2658 -0.5747 -0.7740
vn -0.2491 -0.5817 -0.7744
vn -0.2509 -0.5735 -0.7799
vn -0.9502 -0.2731 -0.1504
vn -0.9500 -0.2753 -0.1476
vn -0.9502 -0.2710 -0.1537
vn -0.9504 -0.2687 -0.1566
vn -0.9754 -0.2181 0.0315
vn -0.9779 -0.2051 -0.0406
vn -0.9799 -0.1863 -0.0718
vn -0.9791 -0.1996 -0.0395
vn 0.9490 -0.2838 -0.1373
vn 0.9475 -0.2953 -0.1226
vn 0.9493 -0.2829 -0.1369
vn 0.9502 -0.2616 -0.1692
vn 0.9491 -0.2743 -0.1549
vn 0.9495 -0.2732 -0.1543
vn 0.0139 -0.4870 0.8733
vn 0.0140 -0.4849 0.8744
vn 0.0245 -0.4887 0.8721
vn 0.0000 -0.4933 0.8699
vn -0.0120 -0.4901 0.8716
vn 0.0000 -0.4901 0.8716
vn -0.2339 -0.5630 0.7927
vn -0.2351 -0.5567 0.7967
vn -0.2206 -0.5648 0.7952
vn -0.2491 -0.5816 0.7744
vn -0.2658 -0.5747 0.7740
vn -0.2509 -0.5735 0.7799
vn -0.2913 -0.4339 -0.8526
vn -0.2884 -0.5291 -0.7980
vn -0.0464 -0.7437 -0.6669
vn -0.1027 -0.7192 -0.6872
vn -0.0214 -0.8408 -0.5409
vn -0.0457 -0.8210 -0.5691
vn -0.1048 -0.6536 -0.7495
vn -0.2129 -0.6170 -0.7577
vn -0.2135 -0.5650 -0.7970
vn -0.9332 -0.3116 0.1787
vn -0.9637 -0.2625 0.0487
vn -0.9630 -0.2333 0.1352
vn 0.9332 -0.3116 0.1787
vn 0.9637 -0.2625 0.0487
vn 0.9630 -0.2333 0.1352
vn 0.2416 -0.4893 -0.8380
vn 0.0000 -0.3978 -0.9175
vn 0.0445 -0.7433 -0.6675
vn 0.0987 -0.7174 -0.6896
vn 0.0210 -0.8408 -0.5410
vn 0.0438 -0.8209 -0.5693
vn 0.1012 -0.6529 -0.7506
vn 0.2161 -0.6078 -0.7641
vn -0.2913 -0.4339 0.8526
vn -0.2884 -0.5291 0.7980
vn -0.0464 -0.7437 0.6669
vn -0.1027 -0.7192 0.6872
vn -0.0214 -0.8408 0.5409
vn -0.0457 -0.8210 0.5691
vn -0.1048 -0.6536 0.7495
vn -0.2129 -0.6170 0.7577
vn -0.2135 -0.5650 0.7970
vn -0.9332 -0.3116 -0.1787
vn -0.9637 -0.2625 -0.0487
vn -0.9630 -0.2333 -0.1352
vn 0.9332 -0.3116 -0.1787
vn 0.9637 -0.2625 -0.0487
vn 0.9630 -0.2333 -0.1352
vn 0.2416 -0.4893 0.8380
vn 0.0000 -0.3978 0.9175
vn 0.0445 -0.7433 0.6675
vn 0.0987 -0.7174 0.6896
vn 0.0210 -0.8408 0.5410
vn 0.0438 -0.8209 0.5693
vn 0.1012 -0.6529 0.7506
vn 0.2161 -0.6078 0.7641
vn 0.2913 -0.4339 -0.8526
vn 0.2884 -0.5291 -0.7980
vn 0.0464 -0.7437 -0.6669
vn 0.1027 -0.7192 -0.6872
vn 0.0214 -0.8408 -0.5409
vn 0.0457 -0.8210 -0.5691
vn 0.1048 -0.6536 -0.7495
vn 0.2129 -0.6170 -0.7577
vn 0.2135 -0.5650 -0.7970
vn -0.2416 -0.4893 -0.8380
vn -0.0445 -0.7433 -0.6675
vn -0.0987 -0.7174 -0.6896
vn -0.0210 -0.8408 -0.5410
vn -0.0438 -0.8209 -0.5693
vn -0.1012 -0.6529 -0.7506
vn -0.2161 -0.6078 -0.7641
vn 0.2913 -0.4339 0.8526
vn 0.2884 -0.5291 0.7980
vn 0.0464 -0.7437 0.6669
vn 0.1027 -0.7192 0.6872
vn 0.0214 -0.8408 0.5409
vn 0.0457 -0.8210 0.5691
vn 0.1048 -0.6536 0.7495
vn 0.2129 -0.6170 0.7577
vn 0.2135 -0.5650 0.7970
vn -0.2416 -0.4893 0.8380
vn -0.0445 -0.7433 0.6675
vn -0.0987 -0.7174 0.6896
vn -0.0210 -0.8408 0.5410
vn -0.0438 -0.8209 0.5693
vn -0.1012 -0.6529 0.7506
vn -0.2161 -0.6078 0.7641
vn -0.9326 -0.3162 0.1742
vn -0.9640 -0.2607 0.0516
vn -0.9637 -0.2322 0.1317
vn 0.9330 -0.3134 0.1770
vn 0.9649 -0.2556 0.0597
vn 0.9650 -0.2362 0.1143
vn 0.9790 -0.1987 0.0464
vn 0.0424 -0.8475 -0.5292
vn 0.0206 -0.8655 -0.5005
vn 0.0000 -0.6390 -0.7692
vn 0.0106 -0.6378 -0.7701
vn -0.0226 -0.6184 -0.7855
vn -0.0051 -0.7630 -0.6464
vn 0.0495 -0.7424 -0.6681
vn -0.0139 -0.5747 -0.8182
vn -0.0175 -0.5510 -0.8343
vn 0.0127 -0.5368 -0.8436
vn -0.2677 -0.4858 -0.8321
vn 0.0000 -0.3842 -0.9232
vn -0.0434 -0.7434 -0.6675
vn -0.0977 -0.7175 -0.6897
vn -0.0210 -0.8401 -0.5420
vn -0.0429 -0.8210 -0.5693
vn -0.0998 -0.6562 -0.7479
vn -0.2255 -0.6065 -0.7624
vn -0.9326 -0.3162 -0.1742
vn -0.9640 -0.2607 -0.0516
vn -0.9637 -0.2322 -0.1317
vn 0.9330 -0.3134 -0.1770
vn 0.9649 -0.2556 -0.0597
vn 0.9650 -0.2362 -0.1143
vn 0.9790 -0.1987 -0.0464
vn 0.0424 -0.8475 0.5292
vn 0.0206 -0.8655 0.5005
vn 0.0000 -0.6390 0.7692
vn 0.0106 -0.6378 0.7701
vn -0.0226 -0.6184 0.7855
vn -0.0139 -0.5747 0.8182
vn -0.0051 -0.7630 0.6464
vn 0.0495 -0.7424 0.6681
vn -0.0175 -0.5510 0.8343
vn 0.0127 -0.5368 0.8436
vn -0.2677 -0.4858 0.8321
vn 0.0000 -0.3842 0.9232
vn -0.0433 -0.7434 0.6675
vn -0.0977 -0.7175 0.6897
vn -0.0210 -0.8401 0.5420
vn -0.0429 -0.8210 0.5693
vn -0.0998 -0.6562 0.7479
vn -0.2255 -0.6065 0.7624
usemtl Tex_0023_1.dds.001
s off
f 1/1/1 3/2/1 2/3/1
f 2/3/2 3/2/2 4/4/2
f 5/5/3 7/6/3 6/7/3
f 6/7/4 7/6/4 8/8/4
f 9/9/5 11/10/5 10/11/6
f 10/11/7 11/10/8 12/12/7
f 13/13/9 15/14/9 14/15/9
f 14/15/10 15/14/10 16/16/10
f 17/17/11 19/18/12 18/19/13
f 18/19/14 19/18/15 20/20/16
f 21/21/17 23/22/17 22/23/18
f 22/23/19 23/22/20 24/24/19
f 25/25/3 27/26/21 26/27/22
f 26/27/23 27/26/24 28/28/25
f 29/29/26 31/30/26 30/31/26
f 30/31/27 31/30/27 32/32/27
f 33/33/9 35/34/28 34/35/29
f 34/35/30 35/34/31 36/36/32
f 37/37/33 39/38/34 38/39/35
f 38/39/36 39/38/37 40/40/38
f 41/41/5 43/42/5 42/43/39
f 42/43/7 43/42/8 44/44/7
f 45/45/9 47/46/29 46/47/40
f 46/47/41 47/46/42 48/48/10
f 49/49/1 51/50/43 50/51/1
f 50/51/44 51/50/2 52/52/2
f 53/53/45 55/54/46 54/55/21
f 54/55/47 55/54/48 56/56/4
f 57/57/49 59/58/50 58/59/51
f 58/59/52 59/58/53 60/60/54
f 61/61/26 63/62/26 62/63/26
f 62/63/27 63/62/27 64/64/27
f 65/65/55 67/66/28 66/67/29
f 66/67/30 67/66/31 68/68/32
f 69/69/17 71/70/17 70/71/18
f 70/71/19 71/70/20 72/72/19
f 73/73/3 75/74/21 74/75/22
f 74/75/23 75/74/24 76/76/25
f 77/77/56 79/78/57 78/79/58
f 78/79/59 79/78/60 80/80/61
f 81/81/62 83/82/63 82/83/62
f 82/83/64 83/82/65 84/84/65
f 85/85/3 87/86/66 86/87/21
f 86/87/67 87/86/68 88/88/69
f 89/89/70 91/90/71 90/91/72
f 90/91/73 91/90/74 92/92/75
f 93/93/76 95/94/77 94/95/78
f 94/95/79 95/94/80 96/96/81
f 97/97/82 99/98/83 98/99/84
f 98/99/85 99/98/86 100/100/87
f 101/101/88 103/102/88 102/103/89
f 102/103/90 103/102/91 104/104/90
f 105/105/3 107/106/21 106/107/92
f 106/107/93 107/106/94 108/108/95
f 109/109/96 111/110/97 110/111/98
f 110/111/99 111/110/100 112/112/101
f 113/113/102 115/114/103 114/115/104
f 114/115/105 115/114/106 116/116/107
f 117/117/108 119/118/109 118/119/110
f 118/119/111 119/118/112 120/120/113
f 121/121/114 123/122/114 122/123/114
f 124/124/115 126/125/115 125/126/115
f 127/127/116 129/128/116 128/129/116
f 130/130/117 132/131/117 131/132/117
f 133/133/118 135/134/118 134/135/118
f 136/136/119 138/137/119 137/138/119
f 139/139/120 141/140/120 140/141/120
f 142/142/121 144/143/121 143/144/121
f 145/145/122 147/146/122 146/147/122
f 148/148/123 150/149/123 149/150/123
f 151/151/124 153/152/124 152/153/124
f 154/154/125 156/155/125 155/156/125
f 157/157/126 159/158/126 158/159/126
f 160/160/127 162/161/127 161/162/127
f 163/163/128 165/164/128 164/165/128
f 166/166/129 168/167/129 167/168/129
f 169/169/130 171/170/130 170/171/130
f 172/172/131 174/173/131 173/174/131
f 175/175/132 177/176/132 176/177/132
f 178/178/133 180/179/133 179/180/133
f 181/181/134 183/182/134 182/183/134
f 184/184/135 186/185/135 185/186/135
f 187/187/136 189/188/136 188/189/136
f 190/190/137 192/191/137 191/192/137
f 193/193/138 195/194/138 194/195/138
f 196/196/139 198/197/139 197/198/139
f 199/199/140 201/200/140 200/201/140
f 202/202/141 204/203/141 203/204/141
f 205/205/142 207/206/142 206/207/142
f 208/208/143 210/209/143 209/210/143
f 211/211/144 213/212/144 212/213/144
f 214/214/145 216/215/145 215/216/145
f 217/217/146 219/218/146 218/219/146
f 220/220/147 222/221/147 221/222/147
f 223/223/148 225/224/148 224/225/148
f 226/226/149 228/227/149 227/228/149
f 229/229/150 231/230/150 230/231/150
f 232/232/151 234/233/151 233/234/151
f 235/235/152 237/236/152 236/237/152
f 238/238/153 240/239/153 239/240/153
f 241/241/154 243/242/154 242/243/154
f 244/244/155 246/245/155 245/246/155
f 247/247/156 249/248/156 248/249/156
f 250/250/157 252/251/157 251/252/157
f 253/253/158 255/254/158 254/255/158
f 256/256/159 258/257/159 257/258/159
f 259/259/160 261/260/160 260/261/160
f 262/262/161 264/263/161 263/264/161
f 265/265/162 267/266/162 266/267/162
f 268/268/163 270/269/163 269/270/163
f 271/271/164 273/272/164 272/273/164
f 274/274/165 276/275/165 275/276/165
f 277/277/166 279/278/166 278/279/166
f 280/280/167 282/281/167 281/282/167
f 283/283/168 285/284/168 284/285/168
f 286/286/126 288/287/126 287/288/126
f 289/289/127 291/290/127 290/291/127
f 292/292/128 294/293/128 293/294/128
f 295/295/123 297/296/123 296/297/123
f 298/298/124 300/299/124 299/300/124
f 301/301/125 303/302/125 302/303/125
f 304/304/169 306/305/169 305/306/169
f 307/307/130 309/308/130 308/309/130
f 310/310/170 312/311/170 311/312/170
f 313/313/171 315/314/171 314/315/171
f 316/316/172 318/317/172 317/318/172
f 319/319/173 321/320/173 320/321/173
f 322/322/174 324/323/174 323/324/174
f 325/325/175 327/326/175 326/327/175
f 328/328/176 330/329/176 329/330/176
f 331/331/177 333/332/177 332/333/177
f 334/334/178 336/335/178 335/336/178
f 337/337/179 339/338/179 338/339/179
f 340/340/180 342/341/180 341/342/180
f 343/343/181 345/344/181 344/345/181
f 346/346/182 348/347/182 347/348/182
f 349/349/183 351/350/183 350/351/183
f 352/352/184 354/353/184 353/354/184
f 355/355/149 357/356/149 356/357/149
f 358/358/150 360/359/150 359/360/150
f 361/361/151 363/362/151 362/363/151
f 364/364/146 366/365/146 365/366/146
f 367/367/147 369/368/147 368/369/147
f 370/370/148 372/371/148 371/372/148
f 373/373/185 375/374/185 374/375/185
f 376/376/153 378/377/153 377/378/153
f 379/379/186 381/380/186 380/381/186
f 382/382/187 384/383/187 383/384/187
f 385/385/188 387/386/188 386/387/188
f 388/388/189 390/389/189 389/390/189
f 391/391/190 393/392/190 392/393/190
f 394/394/191 396/395/191 395/396/191
f 397/397/192 399/398/192 398/399/192
f 400/400/193 402/401/193 401/402/193
f 403/403/194 405/404/194 404/405/194
f 406/406/195 408/407/195 407/408/195
f 409/409/196 411/410/196 410/411/196
f 412/412/197 414/413/197 413/414/197
f 415/415/198 417/416/198 416/417/198
f 418/418/199 420/419/199 419/420/199
f 421/421/200 423/422/200 422/423/200
f 424/424/201 426/425/201 425/426/201
f 427/427/202 429/428/202 428/429/202
f 430/430/203 432/431/203 431/432/203
f 433/433/204 435/434/204 434/435/204
f 436/436/205 438/437/205 437/438/205
f 439/439/206 441/440/206 440/441/206
f 442/442/207 444/443/207 443/444/207
f 445/445/208 447/446/208 446/447/208
f 448/448/209 450/449/209 449/450/209
f 451/451/210 453/452/210 452/453/210
f 454/454/211 456/455/211 455/456/211
f 457/457/212 459/458/212 458/459/212
f 460/460/213 462/461/213 461/462/213
f 463/463/214 465/464/214 464/465/214
f 466/466/215 468/467/215 467/468/215
f 469/469/216 471/470/216 470/471/216
f 472/472/217 474/473/217 473/474/217
f 475/475/218 477/476/218 476/477/218
f 478/478/219 480/479/219 479/480/219
f 481/481/220 483/482/220 482/483/220
f 484/484/221 486/485/221 485/486/221
f 487/487/222 489/488/222 488/489/222
f 490/490/223 492/491/223 491/492/223
f 493/493/224 495/494/224 494/495/224
f 496/496/225 498/497/225 497/498/225
f 499/499/226 501/500/226 500/501/226
f 502/502/227 504/503/227 503/504/227
f 505/505/228 507/506/228 506/507/228
f 508/508/229 510/509/229 509/510/229
f 511/511/230 513/512/230 512/513/230
f 514/514/231 516/515/231 515/516/231
f 517/517/232 519/518/232 518/519/232
f 520/520/233 522/521/233 521/522/233
f 523/523/234 525/524/234 524/525/234
f 526/526/235 528/527/235 527/528/235
f 529/529/236 531/530/236 530/531/236
f 532/532/237 534/533/237 533/534/237
f 535/535/238 537/536/238 536/537/238
f 538/538/239 540/539/239 539/540/239
f 541/541/240 543/542/240 542/543/240
f 544/544/241 546/545/241 545/546/241
