# Blender v3.6.3 OBJ File: 'untitled.blend'
# www.blender.org
mtllib Mesh_0313.mtl
o Mesh_0313_Mesh.199
v -19.129583 -0.000012 12.668190
v -19.129583 0.564429 12.668190
v -19.129585 -0.000012 7.588234
v -19.129585 0.564428 7.588234
v -19.129583 0.846649 12.668190
v -19.129583 0.987758 12.668190
v -19.129585 0.846647 7.588234
v -19.129585 0.987763 7.588234
v -19.386457 1.128868 12.668190
v -19.386457 1.552199 12.668190
v -19.386417 1.128867 7.588234
v -19.386417 1.552203 7.588234
v -19.129608 -0.000012 17.748192
v -19.129608 0.564428 17.748192
v -19.129583 -0.000012 12.668190
v -19.129583 0.564429 12.668190
v -19.129608 0.846647 17.748192
v -19.129608 0.987763 17.748192
v -19.129583 0.846649 12.668190
v -19.129583 0.987758 12.668190
v -19.386444 1.128867 17.748192
v -19.386444 1.552203 17.748192
v -19.386457 1.128868 12.668190
v -19.386457 1.552199 12.668190
v -19.129585 0.564427 5.683281
v -19.129585 -0.000012 5.683281
v -19.129585 0.564428 7.588234
v -19.129585 -0.000012 7.588234
v -19.129585 0.987769 5.683281
v -19.129585 0.846646 5.683281
v -19.129585 0.987763 7.588234
v -19.129585 0.846647 7.588234
v -19.383585 1.552207 5.429283
v -19.383585 1.128865 5.429283
v -19.386417 1.552203 7.588234
v -19.386417 1.128867 7.588234
v -19.129608 0.564428 17.748192
v -19.129608 -0.000012 17.748192
v -19.129635 -1.975571 22.828194
v -19.129635 -2.540012 22.828194
v -19.129608 0.987763 17.748192
v -19.129608 0.846647 17.748192
v -19.129635 -1.552242 22.828194
v -19.129635 -1.693349 22.828194
v -19.386444 1.552203 17.748192
v -19.386444 1.128867 17.748192
v -19.386427 -0.987801 22.828194
v -19.386427 -1.411132 22.828194
vt -0.500977 -1.603516
vt 1.497070 -1.603516
vt -0.500977 -2.003906
vt 1.497070 -2.003906
vt -0.500977 -1.070312
vt 1.497070 -1.070312
vt -0.500977 -1.196289
vt 1.497070 -1.196289
vt -0.500977 0.346680
vt 1.497070 0.346680
vt -0.500977 0.653320
vt 1.497070 0.653320
vt -0.500977 -1.603516
vt 1.497070 -1.603516
vt -0.500977 -2.003906
vt 1.497070 -2.003906
vt -0.500977 -1.070312
vt 1.497070 -1.070312
vt -0.500977 -1.196289
vt 1.497070 -1.196289
vt -0.500977 0.346680
vt 1.497070 0.346680
vt -0.500977 0.653320
vt 1.497070 0.653320
vt 1.205078 -2.003906
vt 2.009766 -2.003906
vt 1.206055 -1.603516
vt 2.009766 -1.603516
vt 1.205078 -1.196289
vt 2.009766 -1.196289
vt 1.207031 -1.070312
vt 2.009766 -1.070312
vt 1.158203 0.653320
vt 2.009766 0.653320
vt 1.160156 0.346680
vt 2.009766 0.346680
vt 1.497070 -2.003906
vt -0.500977 -2.003906
vt 1.497070 -1.603516
vt -0.500977 -1.603516
vt 1.497070 -1.196289
vt -0.500977 -1.196289
vt 1.497070 -1.070312
vt -0.500977 -1.070312
vt 1.497070 0.653320
vt -0.500977 0.653320
vt 1.497070 0.346680
vt -0.500977 0.346680
vn 1.0000 0.0000 -0.0000
vn 1.0000 0.0000 0.0013
usemtl Tex_0032_0.dds.019
s off
f 1/1/1 3/2/1 2/3/1
f 2/3/1 3/2/1 4/4/1
f 5/5/1 7/6/1 6/7/1
f 6/7/1 7/6/1 8/8/1
f 9/9/1 11/10/1 10/11/1
f 10/11/1 11/10/1 12/12/1
f 13/13/1 15/14/1 14/15/1
f 14/15/1 15/14/1 16/16/1
f 17/17/1 19/18/1 18/19/1
f 18/19/1 19/18/1 20/20/1
f 21/21/1 23/22/1 22/23/1
f 22/23/1 23/22/1 24/24/1
f 25/25/1 27/26/1 26/27/1
f 26/27/1 27/26/1 28/28/1
f 29/29/1 31/30/1 30/31/1
f 30/31/1 31/30/1 32/32/1
f 33/33/2 35/34/2 34/35/2
f 34/35/2 35/34/2 36/36/2
f 37/37/1 39/38/1 38/39/1
f 38/39/1 39/38/1 40/40/1
f 41/41/1 43/42/1 42/43/1
f 42/43/1 43/42/1 44/44/1
f 45/45/1 47/46/1 46/47/1
f 46/47/1 47/46/1 48/48/1
