# Blender v3.6.3 OBJ File: 'untitled.blend'
# www.blender.org
mtllib Mesh_0200.mtl
o Mesh_0200_Mesh.159
v -21.781155 46.279552 -12.397480
v -21.781155 46.079399 -11.981686
v -21.781155 48.347366 -11.098198
v -21.781155 48.059582 -10.737389
v -21.781155 50.074306 -9.371380
v -21.781155 49.713371 -9.083649
v -21.781155 51.373520 -7.303589
v -21.781155 50.957722 -7.103363
v -21.781155 52.179966 -4.998535
v -21.781155 51.730137 -4.895851
v -21.781155 51.992012 -2.571800
v -21.781155 51.373520 2.159988
v -21.781155 50.957722 1.959763
v -21.781155 50.074310 4.227783
v -21.781155 49.713375 3.940056
v -21.781155 48.347366 5.954597
v -21.781155 48.059582 5.593796
v -21.781155 46.279552 7.253883
v -21.781155 46.079399 6.838089
v -21.781155 43.974503 8.060463
v -21.781155 43.871883 7.610519
v -21.781155 41.547787 7.872383
v -21.781155 36.816021 7.253883
v -21.781155 37.016171 6.838089
v -21.781155 34.748203 5.954597
v -21.781155 35.035988 5.593796
v -21.781155 33.021511 4.227783
v -21.781155 33.382195 3.940056
v -21.781155 31.722048 2.159988
v -21.781155 32.137848 1.959763
v -21.781155 30.915598 -0.145058
v -21.781155 31.365433 -0.247749
v -21.781155 31.103554 -2.571800
v -21.781155 31.722048 -7.303589
v -21.781155 32.137852 -7.103363
v -21.781155 33.021511 -9.371380
v -21.781155 33.382191 -9.083649
v -21.781155 34.748203 -11.098198
v -21.781155 35.035988 -10.737389
v -21.781155 36.816021 -12.397476
v -21.781155 37.016171 -11.981682
v -21.781155 39.121071 -13.204060
v -21.781155 39.223686 -12.754124
v -21.781155 41.547787 -13.015972
v -22.288898 51.642506 -2.571800
v -21.781155 51.992012 -2.571800
v -22.314045 51.570370 -3.055901
v -21.781155 51.730137 -4.895851
v -22.962509 50.937149 -4.714821
v -21.781155 41.547787 -13.477463
v -21.781155 41.547787 -13.015972
v -21.781155 43.974503 -13.204060
v -21.781155 43.871887 -12.754124
v -21.781155 46.079399 -11.981686
v -22.962509 43.690781 -11.961037
v -21.781155 43.871887 -12.754124
v -22.314045 42.031910 -12.594410
v -21.781155 41.547787 -13.015972
v -22.288898 41.547787 -12.666393
v -22.288898 41.547787 7.522797
v -21.781155 41.547787 7.872383
v -22.314045 42.031910 7.450813
v -21.781155 43.871883 7.610519
v -22.962509 43.690781 6.817436
v -21.781155 52.453526 -2.571800
v -21.781155 51.992012 -2.571800
v -21.781155 52.179966 -0.145058
v -21.781155 51.730137 -0.247749
v -21.781155 50.957722 1.959763
v -22.962505 50.937145 -0.428780
v -21.781155 51.730137 -0.247749
v -22.314045 51.570370 -2.087700
v -21.781155 51.992012 -2.571800
v -22.288898 51.642506 -2.571800
v -22.288898 31.453312 -2.571800
v -21.781155 31.103554 -2.571800
v -22.314045 31.525196 -2.087700
v -21.781155 31.365433 -0.247749
v -22.962509 32.158676 -0.428780
v -21.781155 41.547787 8.333862
v -21.781155 41.547787 7.872383
v -21.781155 39.121071 8.060463
v -21.781155 39.223686 7.610519
v -21.781155 37.016171 6.838089
v -22.962509 39.404785 6.817436
v -21.781155 39.223686 7.610519
v -22.314045 41.063660 7.450813
v -21.781155 41.547787 7.872383
v -22.288898 41.547787 7.522797
v -22.288898 41.547787 -12.666393
v -21.781155 41.547787 -13.015972
v -22.314045 41.063660 -12.594410
v -21.781155 39.223686 -12.754124
v -22.962511 39.404789 -11.961037
v -21.781155 30.642038 -2.571800
v -21.781155 31.103554 -2.571800
v -21.781155 30.915598 -4.998543
v -21.781155 31.365433 -4.895851
v -21.781155 32.137852 -7.103363
v -22.962509 32.158672 -4.714828
v -21.781155 31.365433 -4.895851
v -22.314045 31.525196 -3.055901
v -21.781155 31.103554 -2.571800
v -22.288898 31.453312 -2.571800
v -21.781155 46.079399 -11.981686
v -21.781155 43.871887 -12.754124
v -22.962509 45.726337 -11.248745
v -22.962509 43.690781 -11.961037
v -21.781155 46.079399 -11.981686
v -22.962509 45.726337 -11.248745
v -21.781155 48.059582 -10.737389
v -22.962507 47.552341 -10.101376
v -21.781155 48.059582 -10.737389
v -22.962507 47.552341 -10.101376
v -21.781155 49.713371 -9.083649
v -22.962509 49.077358 -8.576439
v -21.781155 49.713371 -9.083649
v -22.962509 49.077358 -8.576439
v -21.781155 50.957722 -7.103363
v -22.962509 50.224678 -6.750404
v -21.781155 50.957722 -7.103363
v -22.962509 50.224678 -6.750404
v -21.781155 51.730137 -4.895851
v -22.962509 50.937149 -4.714821
v -21.781155 50.957722 1.959763
v -21.781155 51.730137 -0.247749
v -22.962509 50.224678 1.606804
v -22.962505 50.937145 -0.428780
v -21.781155 50.957722 1.959763
v -22.962509 50.224678 1.606804
v -21.781155 49.713375 3.940056
v -22.962511 49.077366 3.432838
v -21.781155 49.713375 3.940056
v -22.962511 49.077366 3.432838
v -21.781155 48.059582 5.593796
v -22.962509 47.552345 4.957779
v -21.781155 48.059582 5.593796
v -22.962509 47.552345 4.957779
v -21.781155 46.079399 6.838089
v -22.962509 45.726337 6.105141
v -21.781155 46.079399 6.838089
v -22.962509 45.726337 6.105141
v -21.781155 43.871883 7.610519
v -22.962509 43.690781 6.817436
v -21.781155 37.016171 6.838089
v -21.781155 39.223686 7.610519
v -22.962505 37.369232 6.105141
v -22.962509 39.404785 6.817436
v -21.781155 37.016171 6.838089
v -22.962505 37.369232 6.105141
v -21.781155 35.035988 5.593796
v -22.962507 35.543221 4.957779
v -21.781155 35.035988 5.593796
v -22.962507 35.543221 4.957779
v -21.781155 33.382195 3.940056
v -22.962509 34.018211 3.432831
v -21.781155 33.382195 3.940056
v -22.962509 34.018211 3.432831
v -21.781155 32.137848 1.959763
v -22.962511 32.870895 1.606804
v -21.781155 32.137848 1.959763
v -22.962511 32.870895 1.606804
v -21.781155 31.365433 -0.247749
v -22.962509 32.158676 -0.428780
v -21.781155 32.137852 -7.103363
v -21.781155 31.365433 -4.895851
v -22.962509 32.870892 -6.750404
v -22.962509 32.158672 -4.714828
v -21.781155 32.137852 -7.103363
v -22.962509 32.870892 -6.750404
v -21.781155 33.382191 -9.083649
v -22.962511 34.018204 -8.576439
v -21.781155 33.382191 -9.083649
v -22.962511 34.018204 -8.576439
v -21.781155 35.035988 -10.737389
v -22.962511 35.543221 -10.101376
v -21.781155 35.035988 -10.737389
v -22.962511 35.543221 -10.101376
v -21.781155 37.016171 -11.981682
v -22.962511 37.369232 -11.248764
v -21.781155 37.016171 -11.981682
v -22.962511 37.369232 -11.248764
v -21.781155 39.223686 -12.754124
v -22.962511 39.404789 -11.961037
v -21.781155 43.974503 -13.204060
v -21.781155 46.079399 -11.981686
v -21.781155 46.279552 -12.397480
v -21.781155 52.179966 -4.998535
v -21.781155 51.992012 -2.571800
v -21.781155 52.453526 -2.571800
v -22.962509 50.937149 -4.714821
v -22.962509 51.099709 -3.271973
v -22.314045 51.570370 -3.055901
v -22.314045 42.031910 -12.594410
v -22.962509 42.248062 -12.123600
v -22.962509 43.690781 -11.961037
v -21.781155 52.179966 -0.145058
v -21.781155 50.957722 1.959763
v -21.781155 51.373520 2.159988
v -21.781155 43.974503 8.060463
v -21.781155 41.547787 7.872383
v -21.781155 41.547787 8.333862
v -22.962509 43.690781 6.817436
v -22.962509 42.248062 6.979996
v -22.314045 42.031910 7.450813
v -22.314045 51.570370 -2.087700
v -22.962505 51.099709 -1.871620
v -22.962505 50.937145 -0.428780
v -21.781155 39.121071 8.060463
v -21.781155 37.016171 6.838089
v -21.781155 36.816021 7.253883
v -21.781155 30.915598 -0.145058
v -21.781155 31.103554 -2.571800
v -21.781155 30.642038 -2.571800
v -22.962509 32.158676 -0.428780
v -22.962509 31.996111 -1.871620
v -22.314045 31.525196 -2.087700
v -22.314045 41.063660 7.450813
v -22.962513 40.847763 6.979996
v -22.962509 39.404785 6.817436
v -21.781155 30.915598 -4.998543
v -21.781155 32.137852 -7.103363
v -21.781155 31.722048 -7.303589
v -21.781155 39.121071 -13.204060
v -21.781155 41.547787 -13.015972
v -21.781155 41.547787 -13.477463
v -22.962511 39.404789 -11.961037
v -22.962509 40.847763 -12.123600
v -22.314045 41.063660 -12.594410
v -22.314045 31.525196 -3.055901
v -22.962509 31.996111 -3.271973
v -22.962509 32.158672 -4.714828
vt 0.729492 -1.147461
vt 0.729492 -0.719727
vt 0.502930 -1.147461
vt 0.502930 -0.719727
vt 0.729492 -0.290039
vt 0.502930 -0.290039
vt 0.729492 0.138672
vt 0.502930 0.138672
vt 0.729492 0.568359
vt 0.502930 0.568359
vt 0.502930 0.998047
vt 0.729492 -1.147461
vt 0.729492 -0.719727
vt 0.502930 -1.147461
vt 0.502930 -0.719727
vt 0.729492 -0.290039
vt 0.502930 -0.290039
vt 0.729492 0.138672
vt 0.502930 0.138672
vt 0.729492 0.568359
vt 0.502930 0.568359
vt 0.502930 0.998047
vt 0.729492 -1.147461
vt 0.729492 -0.719727
vt 0.502930 -1.147461
vt 0.502930 -0.719727
vt 0.729492 -0.290039
vt 0.502930 -0.290039
vt 0.729492 0.138672
vt 0.502930 0.138672
vt 0.729492 0.568359
vt 0.502930 0.568359
vt 0.502930 0.998047
vt 0.729492 -1.147461
vt 0.729492 -0.719727
vt 0.502930 -1.147461
vt 0.502930 -0.719727
vt 0.729492 -0.290039
vt 0.502930 -0.290039
vt 0.729492 0.138672
vt 0.502930 0.138672
vt 0.729492 0.568359
vt 0.502930 0.568359
vt 0.502930 0.998047
vt 0.276367 0.998047
vt 0.268555 0.927734
vt 0.502930 0.998047
vt 0.502930 0.568359
vt 0.002930 0.568359
vt 0.729492 -1.999023
vt 0.729492 -1.577148
vt 0.502930 -1.999023
vt 0.502930 -1.577148
vt 0.502930 -1.147461
vt 0.002930 -1.577148
vt 0.268555 -1.897461
vt 0.502930 -1.577148
vt 0.502930 -1.999023
vt 0.276367 -1.999023
vt 0.276367 0.998047
vt 0.268555 0.927734
vt 0.502930 0.998047
vt 0.502930 0.568359
vt 0.002930 0.568359
vt 0.729492 -1.999023
vt 0.729492 -1.577148
vt 0.502930 -1.999023
vt 0.502930 -1.577148
vt 0.502930 -1.147461
vt 0.002930 -1.577148
vt 0.268555 -1.897461
vt 0.502930 -1.577148
vt 0.502930 -1.999023
vt 0.276367 -1.999023
vt 0.276367 0.998047
vt 0.268555 0.927734
vt 0.502930 0.998047
vt 0.502930 0.568359
vt 0.002930 0.568359
vt 0.729492 -1.999023
vt 0.729492 -1.577148
vt 0.502930 -1.999023
vt 0.502930 -1.577148
vt 0.502930 -1.147461
vt 0.002930 -1.577148
vt 0.268555 -1.897461
vt 0.502930 -1.577148
vt 0.502930 -1.999023
vt 0.276367 -1.999023
vt 0.276367 0.998047
vt 0.268555 0.927734
vt 0.502930 0.998047
vt 0.502930 0.568359
vt 0.002930 0.568359
vt 0.729492 -1.999023
vt 0.729492 -1.577148
vt 0.502930 -1.999023
vt 0.502930 -1.577148
vt 0.502930 -1.147461
vt 0.002930 -1.577148
vt 0.268555 -1.897461
vt 0.502930 -1.577148
vt 0.502930 -1.999023
vt 0.276367 -1.999023
vt 0.502930 -1.147461
vt 0.002930 -1.147461
vt 0.502930 -1.577148
vt 0.002930 -1.577148
vt 0.502930 -1.147461
vt 0.502930 -0.719727
vt 0.002930 -1.147461
vt 0.002930 -0.719727
vt 0.502930 -0.719727
vt 0.502930 -0.290039
vt 0.002930 -0.719727
vt 0.002930 -0.290039
vt 0.502930 -0.290039
vt 0.502930 0.138672
vt 0.002930 -0.290039
vt 0.002930 0.138672
vt 0.502930 0.138672
vt 0.502930 0.568359
vt 0.002930 0.138672
vt 0.002930 0.568359
vt 0.502930 -1.147461
vt 0.002930 -1.147461
vt 0.502930 -1.577148
vt 0.002930 -1.577148
vt 0.502930 -1.147461
vt 0.502930 -0.719727
vt 0.002930 -1.147461
vt 0.002930 -0.719727
vt 0.502930 -0.719727
vt 0.502930 -0.290039
vt 0.002930 -0.719727
vt 0.002930 -0.290039
vt 0.502930 -0.290039
vt 0.502930 0.138672
vt 0.002930 -0.290039
vt 0.002930 0.138672
vt 0.502930 0.138672
vt 0.502930 0.568359
vt 0.002930 0.138672
vt 0.002930 0.568359
vt 0.502930 -1.147461
vt 0.002930 -1.147461
vt 0.502930 -1.577148
vt 0.002930 -1.577148
vt 0.502930 -1.147461
vt 0.502930 -0.719727
vt 0.002930 -1.147461
vt 0.002930 -0.719727
vt 0.502930 -0.719727
vt 0.502930 -0.290039
vt 0.002930 -0.719727
vt 0.002930 -0.290039
vt 0.502930 -0.290039
vt 0.502930 0.138672
vt 0.002930 -0.290039
vt 0.002930 0.138672
vt 0.502930 0.138672
vt 0.502930 0.568359
vt 0.002930 0.138672
vt 0.002930 0.568359
vt 0.502930 -1.147461
vt 0.002930 -1.147461
vt 0.502930 -1.577148
vt 0.002930 -1.577148
vt 0.502930 -1.147461
vt 0.502930 -0.719727
vt 0.002930 -1.147461
vt 0.002930 -0.719727
vt 0.502930 -0.719727
vt 0.502930 -0.290039
vt 0.002930 -0.719727
vt 0.002930 -0.290039
vt 0.502930 -0.290039
vt 0.502930 0.138672
vt 0.002930 -0.290039
vt 0.002930 0.138672
vt 0.502930 0.138672
vt 0.502930 0.568359
vt 0.002930 0.138672
vt 0.002930 0.568359
vt 0.729492 -1.577148
vt 0.729492 -1.147461
vt 0.502930 -1.147461
vt 0.729492 0.568359
vt 0.729492 0.998047
vt 0.502930 0.998047
vt 0.002930 0.568359
vt 0.268555 0.927734
vt 0.002930 0.896484
vt 0.268555 -1.897461
vt 0.002930 -1.577148
vt 0.002930 -1.881836
vt 0.729492 -1.577148
vt 0.729492 -1.147461
vt 0.502930 -1.147461
vt 0.729492 0.568359
vt 0.729492 0.998047
vt 0.502930 0.998047
vt 0.002930 0.568359
vt 0.268555 0.927734
vt 0.002930 0.896484
vt 0.268555 -1.897461
vt 0.002930 -1.577148
vt 0.002930 -1.881836
vt 0.729492 -1.577148
vt 0.729492 -1.147461
vt 0.502930 -1.147461
vt 0.729492 0.568359
vt 0.729492 0.998047
vt 0.502930 0.998047
vt 0.002930 0.568359
vt 0.268555 0.927734
vt 0.002930 0.896484
vt 0.268555 -1.897461
vt 0.002930 -1.577148
vt 0.002930 -1.881836
vt 0.729492 -1.577148
vt 0.729492 -1.147461
vt 0.502930 -1.147461
vt 0.729492 0.568359
vt 0.729492 0.998047
vt 0.502930 0.998047
vt 0.002930 0.568359
vt 0.268555 0.927734
vt 0.002930 0.896484
vt 0.268555 -1.897461
vt 0.002930 -1.577148
vt 0.002930 -1.881836
vn 1.0000 0.0000 0.0000
vn 0.5646 -0.8202 0.0929
vn 0.5645 -0.8201 0.0932
vn 0.5649 -0.8200 0.0924
vn 0.5647 -0.8201 0.0923
vn 0.5647 -0.0924 0.8201
vn 0.5648 -0.0924 0.8200
vn 0.5646 -0.0926 0.8201
vn 0.5647 -0.0926 -0.8201
vn 0.5644 -0.0926 -0.8203
vn 0.5648 -0.0924 -0.8200
vn 0.5647 -0.0924 -0.8201
vn 0.5647 -0.8201 -0.0923
vn 0.5649 -0.8200 -0.0924
vn 0.5646 -0.8202 -0.0924
vn 0.5642 -0.8204 -0.0929
vn 0.5646 -0.8202 -0.0929
vn 0.5645 -0.8201 -0.0932
vn 0.5649 0.8200 -0.0924
vn 0.5648 0.8200 -0.0924
vn 0.5647 0.0924 -0.8201
vn 0.5648 0.0924 -0.8200
vn 0.5644 0.0926 -0.8203
vn 0.5647 0.0926 -0.8201
vn 0.5647 0.0926 0.8201
vn 0.5648 0.0924 0.8200
vn 0.5647 0.0924 0.8201
vn 0.5648 0.8200 0.0924
vn 0.5649 0.8200 0.0924
vn 0.5647 -0.2726 0.7790
vn 0.5648 -0.4391 0.6988
vn 0.5647 -0.4391 0.6988
vn 0.5647 -0.5835 0.5836
vn 0.5647 -0.6988 0.4391
vn 0.5648 -0.6988 0.4390
vn 0.5648 -0.7789 0.2726
vn 0.5647 -0.7790 0.2726
vn 0.5648 -0.7789 -0.2726
vn 0.5647 -0.7790 -0.2726
vn 0.5648 -0.6988 -0.4391
vn 0.5647 -0.6988 -0.4391
vn 0.5647 -0.5836 -0.5836
vn 0.5647 -0.5835 -0.5836
vn 0.5647 -0.4391 -0.6988
vn 0.5648 -0.4391 -0.6988
vn 0.5647 -0.2726 -0.7790
vn 0.5647 0.2726 -0.7790
vn 0.5648 0.4391 -0.6988
vn 0.5647 0.4391 -0.6988
vn 0.5647 0.5835 -0.5836
vn 0.5647 0.6988 -0.4391
vn 0.5648 0.6988 -0.4390
vn 0.5648 0.7789 -0.2726
vn 0.5648 0.7789 -0.2725
vn 0.5648 0.7789 0.2726
vn 0.5648 0.7789 0.2725
vn 0.5648 0.6988 0.4391
vn 0.5647 0.6988 0.4391
vn 0.5647 0.5835 0.5836
vn 0.5647 0.4391 0.6988
vn 0.5647 0.2726 0.7790
vn 0.5645 -0.8202 0.0924
vn 0.5646 -0.0924 0.8201
vn 0.5645 -0.8202 -0.0924
vn 0.5647 0.8201 -0.0924
vn 0.5648 0.8201 0.0924
usemtl Tex_0079_1.dds.001
s off
f 1/1/1 3/2/1 2/3/1
f 2/3/1 3/2/1 4/4/1
f 3/2/1 5/5/1 4/4/1
f 4/4/1 5/5/1 6/6/1
f 5/5/1 7/7/1 6/6/1
f 6/6/1 7/7/1 8/8/1
f 7/7/1 9/9/1 8/8/1
f 8/8/1 9/9/1 10/10/1
f 9/9/1 11/11/1 10/10/1
f 12/12/1 14/13/1 13/14/1
f 13/14/1 14/13/1 15/15/1
f 14/13/1 16/16/1 15/15/1
f 15/15/1 16/16/1 17/17/1
f 16/16/1 18/18/1 17/17/1
f 17/17/1 18/18/1 19/19/1
f 18/18/1 20/20/1 19/19/1
f 19/19/1 20/20/1 21/21/1
f 20/20/1 22/22/1 21/21/1
f 23/23/1 25/24/1 24/25/1
f 24/25/1 25/24/1 26/26/1
f 25/24/1 27/27/1 26/26/1
f 26/26/1 27/27/1 28/28/1
f 27/27/1 29/29/1 28/28/1
f 28/28/1 29/29/1 30/30/1
f 29/29/1 31/31/1 30/30/1
f 30/30/1 31/31/1 32/32/1
f 31/31/1 33/33/1 32/32/1
f 34/34/1 36/35/1 35/36/1
f 35/36/1 36/35/1 37/37/1
f 36/35/1 38/38/1 37/37/1
f 37/37/1 38/38/1 39/39/1
f 38/38/1 40/40/1 39/39/1
f 39/39/1 40/40/1 41/41/1
f 40/40/1 42/42/1 41/41/1
f 41/41/1 42/42/1 43/43/1
f 42/42/1 44/44/1 43/43/1
f 45/45/2 47/46/2 46/47/3
f 46/47/4 47/46/4 48/48/4
f 47/46/5 49/49/5 48/48/5
f 50/50/1 52/51/1 51/52/1
f 51/52/1 52/51/1 53/53/1
f 52/51/1 54/54/1 53/53/1
f 55/55/6 57/56/6 56/57/6
f 56/57/7 57/56/7 58/58/7
f 57/56/8 59/59/8 58/58/8
f 60/60/9 62/61/10 61/62/9
f 61/62/11 62/61/11 63/63/11
f 62/61/12 64/64/12 63/63/12
f 65/65/1 67/66/1 66/67/1
f 66/67/1 67/66/1 68/68/1
f 67/66/1 69/69/1 68/68/1
f 70/70/13 72/71/13 71/72/13
f 71/72/14 72/71/15 73/73/14
f 72/71/16 74/74/17 73/73/18
f 75/75/19 77/76/19 76/77/19
f 76/77/19 77/76/19 78/78/19
f 77/76/20 79/79/20 78/78/20
f 80/80/1 82/81/1 81/82/1
f 81/82/1 82/81/1 83/83/1
f 82/81/1 84/84/1 83/83/1
f 85/85/21 87/86/21 86/87/21
f 86/87/22 87/86/22 88/88/22
f 87/86/23 89/89/24 88/88/24
f 90/90/25 92/91/25 91/92/25
f 91/92/26 92/91/26 93/93/26
f 92/91/27 94/94/27 93/93/27
f 95/95/1 97/96/1 96/97/1
f 96/97/1 97/96/1 98/98/1
f 97/96/1 99/99/1 98/98/1
f 100/100/28 102/101/28 101/102/28
f 101/102/29 102/101/29 103/103/29
f 102/101/29 104/104/29 103/103/29
f 105/105/30 107/106/30 106/107/30
f 106/107/30 107/106/30 108/108/30
f 109/109/31 111/110/31 110/111/31
f 110/111/32 111/110/32 112/112/32
f 113/113/33 115/114/33 114/115/33
f 114/115/33 115/114/33 116/116/33
f 117/117/34 119/118/34 118/119/34
f 118/119/35 119/118/35 120/120/35
f 121/121/36 123/122/36 122/123/36
f 122/123/37 123/122/37 124/124/37
f 125/125/38 127/126/38 126/127/38
f 126/127/39 127/126/39 128/128/39
f 129/129/40 131/130/40 130/131/40
f 130/131/41 131/130/41 132/132/41
f 133/133/42 135/134/42 134/135/42
f 134/135/43 135/134/43 136/136/43
f 137/137/44 139/138/44 138/139/44
f 138/139/45 139/138/45 140/140/45
f 141/141/46 143/142/46 142/143/46
f 142/143/46 143/142/46 144/144/46
f 145/145/47 147/146/47 146/147/47
f 146/147/47 147/146/47 148/148/47
f 149/149/48 151/150/48 150/151/48
f 150/151/49 151/150/49 152/152/49
f 153/153/50 155/154/50 154/155/50
f 154/155/50 155/154/50 156/156/50
f 157/157/51 159/158/51 158/159/51
f 158/159/52 159/158/52 160/160/52
f 161/161/53 163/162/53 162/163/53
f 162/163/54 163/162/54 164/164/54
f 165/165/55 167/166/55 166/167/55
f 166/167/56 167/166/56 168/168/56
f 169/169/57 171/170/57 170/171/57
f 170/171/58 171/170/58 172/172/58
f 173/173/59 175/174/59 174/175/59
f 174/175/59 175/174/59 176/176/59
f 177/177/60 179/178/60 178/179/60
f 178/179/60 179/178/60 180/180/60
f 181/181/61 183/182/61 182/183/61
f 182/183/61 183/182/61 184/184/61
f 185/185/1 187/186/1 186/187/1
f 188/188/1 190/189/1 189/190/1
f 191/191/62 193/192/62 192/193/62
f 194/194/63 196/195/63 195/196/63
f 197/197/1 199/198/1 198/199/1
f 200/200/1 202/201/1 201/202/1
f 203/203/12 205/204/12 204/205/12
f 206/206/64 208/207/64 207/208/64
f 209/209/1 211/210/1 210/211/1
f 212/212/1 214/213/1 213/214/1
f 215/215/65 217/216/65 216/217/65
f 218/218/21 220/219/21 219/220/21
f 221/221/1 223/222/1 222/223/1
f 224/224/1 226/225/1 225/226/1
f 227/227/27 229/228/27 228/229/27
f 230/230/66 232/231/66 231/232/66
