# Blender v3.6.3 OBJ File: 'untitled.blend'
# www.blender.org
mtllib Mesh_0278.mtl
o Mesh_0278_Mesh.079
v -19.514893 2.063742 -17.568115
v -19.386456 1.862653 -17.701721
v -19.386456 1.862653 -12.841671
v -19.258020 1.693314 -17.811806
v -19.258066 1.693311 -12.731762
v -19.386457 1.552204 -17.811806
v -19.386417 1.552208 -12.731762
v -19.258020 0.705543 -17.811806
v -19.129585 0.846651 -12.731762
v -19.129583 0.846653 -17.811806
v -19.129585 0.987768 -12.731762
v -19.129583 0.987763 -17.811806
v -19.386417 1.128871 -12.731762
v -19.386457 1.128872 -17.811806
v -19.514904 2.063742 -10.441395
v -19.514904 2.063742 -12.416199
v -19.383585 1.862650 -10.572720
v -19.386417 1.862651 -12.731762
v -19.256584 1.693309 -10.699718
v -19.258066 1.693311 -12.731762
v -19.386417 1.552208 -12.731762
v -19.383585 1.128870 -10.572720
v -19.386417 1.128871 -12.731762
v -19.129585 0.987773 -10.826717
v -19.129585 0.987768 -12.731762
v -19.129585 0.846650 -10.826717
v -19.129585 0.846651 -12.731762
v -19.258066 0.705548 -12.731762
v -19.514893 2.063742 -22.648117
v -19.386456 1.862653 -22.781719
v -19.386456 1.862653 -17.921673
v -19.258018 1.693314 -22.891804
v -19.258020 1.693314 -17.811806
v -19.386456 1.552204 -22.891804
v -19.386457 1.552204 -17.811806
v -19.258018 0.705543 -22.891804
v -19.129583 0.846653 -17.811806
v -19.129583 0.846653 -22.891804
v -19.129583 0.987763 -17.811806
v -19.129583 0.987763 -22.891804
v -19.386457 1.128872 -17.811806
v -19.386456 1.128872 -22.891804
v -19.764584 2.063742 -12.975487
v -19.764584 2.063742 -17.568115
v -19.514893 2.063742 -12.975487
v -19.514893 2.063742 -17.568115
v -19.129585 -0.000008 -12.731762
v -19.129585 0.564432 -12.731762
v -19.129583 -0.000008 -17.811806
v -19.129583 0.564434 -17.811806
v -19.129585 0.564432 -12.731762
v -19.258066 0.705548 -12.731762
v -19.129583 0.564434 -17.811806
v -19.258020 0.705543 -17.811806
v -19.386417 1.128871 -12.731762
v -19.386417 1.552208 -12.731762
v -19.386457 1.128872 -17.811806
v -19.386457 1.552204 -17.811806
v -19.514904 2.063742 -12.416199
v -19.514904 2.063742 -10.441395
v -19.764584 2.063742 -12.416199
v -19.764584 2.063742 -10.441395
v -19.129585 0.564431 -10.826717
v -19.129585 0.564432 -12.731762
v -19.129585 -0.000008 -10.826717
v -19.129585 -0.000008 -12.731762
v -19.256584 0.705553 -10.699718
v -19.258066 0.705548 -12.731762
v -19.129585 0.564431 -10.826717
v -19.129585 0.564432 -12.731762
v -19.383585 1.552211 -10.572720
v -19.386417 1.552208 -12.731762
v -19.383585 1.128870 -10.572720
v -19.386417 1.128871 -12.731762
v -19.764584 2.063742 -18.055485
v -19.764584 2.063742 -22.648117
v -19.514893 2.063742 -18.055485
v -19.514893 2.063742 -22.648117
v -19.129583 -0.000008 -17.811806
v -19.129583 0.564434 -17.811806
v -19.129583 -0.000008 -22.891804
v -19.129583 0.564434 -22.891804
v -19.129583 0.564434 -17.811806
v -19.258020 0.705543 -17.811806
v -19.129583 0.564434 -22.891804
v -19.258018 0.705543 -22.891804
v -19.386457 1.128872 -17.811806
v -19.386457 1.552204 -17.811806
v -19.386456 1.128872 -22.891804
v -19.386456 1.552204 -22.891804
v -19.386456 1.862653 -12.841671
v -19.514893 2.063742 -12.975487
v -19.514893 2.063742 -17.568115
v -19.386456 1.862653 -12.841671
v -19.258066 1.693311 -12.731762
v -19.386417 1.862651 -12.731762
v -19.258020 1.693314 -17.811806
v -19.386456 1.862653 -17.701721
v -19.386456 1.862653 -17.811806
v -19.129585 0.846651 -12.731762
v -19.258020 0.705543 -17.811806
v -19.258066 0.705548 -12.731762
v -19.129585 0.846650 -10.826717
v -19.258066 0.705548 -12.731762
v -19.256584 0.705553 -10.699718
v -19.256584 1.693309 -10.699718
v -19.386417 1.552208 -12.731762
v -19.383585 1.552211 -10.572720
v -19.386456 1.862653 -17.921673
v -19.514893 2.063742 -18.055485
v -19.514893 2.063742 -22.648117
v -19.386456 1.862653 -17.921673
v -19.258020 1.693314 -17.811806
v -19.386456 1.862653 -17.811806
v -19.258018 1.693314 -22.891804
v -19.386456 1.862653 -22.781719
v -19.386456 1.862653 -22.891804
v -19.129583 0.846653 -17.811806
v -19.258018 0.705543 -22.891804
v -19.258020 0.705543 -17.811806
vt 1.416992 1.045898
vt -0.443359 0.830078
vt 1.453125 0.828125
vt 1.502930 0.655273
vt -0.504883 0.655273
vt 1.496094 0.794922
vt -0.498047 0.794922
vt 0.497070 -1.694336
vt 0.497070 -2.070312
vt -1.500977 -2.070312
vt -1.500977 -2.196289
vt 0.497070 -2.196289
vt -1.500977 -1.770508
vt 0.497070 -1.770508
vt 0.589844 1.047852
vt 0.619141 0.799805
vt 1.438477 1.045898
vt 1.473633 0.799805
vt 0.632812 0.655273
vt 1.471680 0.655273
vt 1.467773 0.794922
vt 0.160156 -1.770508
vt 0.205078 -2.196289
vt 1.009766 -1.770508
vt 1.009766 -2.196289
vt 0.207031 -2.070312
vt 1.009766 -2.070312
vt 1.009766 -1.694336
vt 1.416992 1.045898
vt -0.443359 0.830078
vt 1.453125 0.828125
vt 1.502930 0.655273
vt -0.504883 0.655273
vt 1.496094 0.794922
vt -0.498047 0.794922
vt 0.497070 -1.694336
vt 0.497070 -2.070312
vt -1.500977 -2.070312
vt -1.500977 -2.196289
vt 0.497070 -2.196289
vt -1.500977 -1.770508
vt 0.497070 -1.770508
vt -1.500977 -1.000000
vt -1.500977 -1.249023
vt 0.497070 -1.000000
vt 0.497070 -1.249023
vt -1.500977 -2.603516
vt 0.497070 -2.603516
vt -1.500977 -3.003906
vt 0.497070 -3.003906
vt -1.500977 -3.003906
vt 0.497070 -3.003906
vt -1.500977 -3.352539
vt 0.497070 -3.352539
vt -1.500977 -0.653320
vt 0.497070 -0.653320
vt -1.500977 -0.346680
vt 0.497070 -0.346680
vt 1.438477 1.045898
vt 1.433594 1.397461
vt 0.589844 1.047852
vt 0.586914 1.397461
vt 0.205078 -3.003906
vt 0.206055 -2.603516
vt 1.009766 -3.003906
vt 1.009766 -2.603516
vt 0.183594 -3.352539
vt 0.205078 -3.003906
vt 1.009766 -3.352539
vt 1.009766 -3.003906
vt 0.158203 -0.346680
vt 0.160156 -0.653320
vt 1.009766 -0.346680
vt 1.009766 -0.653320
vt -1.500977 -1.000000
vt -1.500977 -1.249023
vt 0.497070 -1.000000
vt 0.497070 -1.249023
vt -1.500977 -2.603516
vt 0.497070 -2.603516
vt -1.500977 -3.003906
vt 0.497070 -3.003906
vt -1.500977 -3.003906
vt 0.497070 -3.003906
vt -1.500977 -3.352539
vt 0.497070 -3.352539
vt -1.500977 -0.653320
vt 0.497070 -0.653320
vt -1.500977 -0.346680
vt 0.497070 -0.346680
vt -0.443359 0.830078
vt 1.416992 1.045898
vt -0.422852 1.047852
vt -0.443359 0.830078
vt -0.498047 0.831055
vt -0.504883 0.655273
vt 1.502930 0.655273
vt 1.496094 0.827148
vt 1.453125 0.828125
vt -1.500977 -2.070312
vt -1.500977 -1.694336
vt 0.497070 -1.694336
vt 0.207031 -2.070312
vt 0.183594 -1.694336
vt 1.009766 -1.694336
vt 0.632812 0.655273
vt 0.618164 0.794922
vt 1.467773 0.794922
vt -0.443359 0.830078
vt 1.416992 1.045898
vt -0.422852 1.047852
vt -0.443359 0.830078
vt -0.498047 0.831055
vt -0.504883 0.655273
vt 1.502930 0.655273
vt 1.496094 0.827148
vt 1.453125 0.828125
vt -1.500977 -2.070312
vt -1.500977 -1.694336
vt 0.497070 -1.694336
vn 0.8428 0.5383 0.0000
vn 0.8823 0.4708 -0.0039
vn 0.7968 0.6043 0.0000
vn 0.7974 0.6034 -0.0017
vn 0.3317 0.6775 0.6565
vn 0.7969 0.6042 0.0000
vn 0.7395 -0.6731 0.0000
vn 0.6420 -0.5572 0.5267
vn 0.7397 -0.6729 -0.0000
vn 0.7400 -0.6726 -0.0000
vn 0.7395 -0.6731 -0.0117
vn 0.1099 -0.9936 0.0248
vn 0.9999 0.0000 0.0158
vn 0.7474 0.6641 -0.0184
vn 0.8580 0.0142 0.5135
vn 1.0000 0.0000 0.0000
vn 0.8607 -0.0000 -0.5092
vn 0.4157 0.7567 0.5046
vn -0.0310 0.9991 -0.0294
vn 0.4815 0.8764 -0.0000
vn 0.4401 0.7402 -0.5083
vn 0.4815 0.8765 -0.0000
vn 0.8373 0.5468 0.0000
vn 0.8300 0.5575 -0.0171
vn 0.8328 0.5535 0.0000
vn 0.8417 0.5399 -0.0013
vn 0.8576 0.5143 -0.0043
vn 0.8644 0.5018 0.0325
vn 0.7848 0.6185 -0.0385
vn 0.8144 0.5793 0.0333
vn 0.7883 0.6152 0.0012
vn 0.7982 0.6020 0.0224
vn 0.7676 0.6410 0.0039
vn 0.6126 0.4644 -0.6395
vn -0.4823 -0.8713 0.0908
vn 0.7397 -0.6729 -0.0005
vn 0.5687 -0.5173 -0.6395
vn 0.4851 0.8745 -0.0006
vn 0.7171 0.6453 0.2636
vn 0.4884 0.8726 -0.0006
vn 0.4815 0.8764 0.0003
vn 0.0795 0.9949 0.0625
vn 0.4144 0.7543 -0.5092
vn 0.8012 -0.0004 0.5984
vn 0.9992 -0.0030 0.0407
vn 0.8607 -0.5078 -0.0376
vn 0.8607 0.0376 -0.5078
vn 0.9992 0.0407 0.0030
vn 0.9326 0.0000 -0.3610
vn 0.1362 -0.9886 0.0640
vn 0.7394 -0.6733 -0.0000
vn 0.6895 -0.6279 -0.3610
vn 0.8824 0.4706 -0.0040
vn 0.8555 0.5157 0.0463
vn 0.8041 0.5940 0.0244
vn 0.7956 0.6058 -0.0001
vn 0.3408 0.6531 -0.6763
vn 0.7973 0.6036 -0.0016
vn 0.3240 0.6755 0.6623
vn 0.0805 0.9962 -0.0319
vn 0.6321 -0.5754 -0.5189
vn 0.2828 -0.9590 0.0195
vn 0.6452 -0.5609 0.5188
vn 0.6897 -0.6278 -0.3609
vn 0.1098 -0.9936 0.0248
vn 0.9326 0.3608 -0.0100
vn 0.8607 0.0141 0.5090
vn 0.9326 -0.0100 -0.3608
vn 0.8607 -0.5090 0.0141
vn 0.4144 0.7544 0.5092
vn -0.0311 0.9991 -0.0294
vn 0.0000 1.0000 0.0000
vn 0.7394 0.6732 0.0000
vn 0.7395 0.6731 0.0000
vn 0.7431 0.6692 -0.0005
vn 0.7465 0.6654 -0.0005
vn 0.7394 0.6732 0.0005
vn 0.7359 0.6771 0.0000
vn 1.0000 0.0000 -0.0013
vn 0.7970 0.6040 -0.0003
vn 0.7430 -0.6693 -0.0005
vn 0.7428 -0.6695 -0.0010
usemtl Tex_0032_0.dds.008
s off
f 1/1/1 3/2/2 2/3/1
f 2/3/3 3/2/3 4/4/3
f 3/2/4 5/5/5 4/4/6
f 4/4/7 5/5/7 6/6/7
f 5/5/8 7/7/9 6/6/10
f 8/8/7 10/9/11 9/10/12
f 9/10/13 10/9/14 11/11/15
f 10/9/16 12/12/17 11/11/16
f 11/11/18 12/12/19 13/13/20
f 12/12/21 14/14/22 13/13/22
f 15/15/23 17/16/24 16/17/25
f 16/17/26 17/16/27 18/18/28
f 17/16/29 19/19/30 18/18/31
f 18/18/32 19/19/33 20/20/34
f 19/19/35 21/21/36 20/20/37
f 22/22/38 24/23/39 23/24/40
f 23/24/41 24/23/42 25/25/43
f 24/23/44 26/26/45 25/25/46
f 25/25/47 26/26/48 27/27/49
f 26/26/50 28/28/51 27/27/52
f 29/29/1 31/30/53 30/31/54
f 30/31/55 31/30/56 32/32/57
f 31/30/58 33/33/59 32/32/60
f 32/32/61 33/33/62 34/34/7
f 33/33/63 35/35/7 34/34/7
f 36/36/7 38/37/64 37/38/65
f 37/38/13 38/37/66 39/39/67
f 38/37/68 40/40/17 39/39/69
f 39/39/70 40/40/71 41/41/22
f 40/40/21 42/42/22 41/41/22
f 43/43/72 45/44/72 44/45/72
f 44/45/72 45/44/72 46/46/72
f 47/47/16 49/48/16 48/49/16
f 48/49/16 49/48/16 50/50/16
f 51/51/73 53/52/73 52/53/73
f 52/53/74 53/52/74 54/54/74
f 55/55/16 57/56/16 56/57/16
f 56/57/16 57/56/16 58/58/16
f 59/59/72 61/60/72 60/61/72
f 60/61/72 61/60/72 62/62/72
f 63/63/16 65/64/16 64/65/16
f 64/65/16 65/64/16 66/66/16
f 67/67/75 69/68/75 68/69/76
f 68/69/77 69/68/78 70/70/73
f 71/71/79 73/72/79 72/73/79
f 72/73/79 73/72/79 74/74/79
f 75/75/72 77/76/72 76/77/72
f 76/77/72 77/76/72 78/78/72
f 79/79/16 81/80/16 80/81/16
f 80/81/16 81/80/16 82/82/16
f 83/83/74 85/84/74 84/85/74
f 84/85/74 85/84/74 86/86/74
f 87/87/16 89/88/16 88/89/16
f 88/89/16 89/88/16 90/90/16
f 91/91/1 93/92/1 92/93/1
f 94/94/80 96/95/80 95/96/80
f 97/97/3 99/98/3 98/99/3
f 100/100/51 102/101/51 101/102/51
f 103/103/81 105/104/81 104/105/81
f 106/106/82 108/107/82 107/108/82
f 109/109/1 111/110/1 110/111/1
f 112/112/3 114/113/3 113/114/3
f 115/115/3 117/116/3 116/117/3
f 118/118/7 120/119/7 119/120/7
