# Blender v3.6.3 OBJ File: 'untitled.blend'
# www.blender.org
mtllib Mesh_0381.mtl
o Mesh_0381_Mesh.109
v -35.322083 20.180763 48.228188
v -35.322083 12.025434 48.228188
v -35.322083 20.180763 47.978508
v -35.322083 12.025434 47.978508
v -35.004585 20.319981 47.850067
v -35.322083 20.180763 47.978508
v -35.004585 12.022640 47.850067
v -35.322083 12.025434 47.978508
v -40.084583 9.482641 47.850067
v -39.770561 9.842177 47.978508
v -40.084583 17.779982 47.850067
v -39.770561 17.942034 47.978508
v -39.770561 17.942034 48.228188
v -39.770561 17.942034 47.978508
v -39.770561 9.842177 48.228188
v -39.770561 9.842177 47.978508
v -40.402084 17.640764 48.228188
v -40.402084 9.485435 48.228188
v -40.402084 17.640764 47.978508
v -40.402084 9.485435 47.978508
v -40.084583 17.779982 47.850067
v -40.402084 17.640764 47.978508
v -40.084583 9.482641 47.850067
v -40.402084 9.485435 47.978508
v -45.164581 6.942644 47.850067
v -44.850574 7.302168 47.978508
v -45.164581 15.239982 47.850067
v -44.850567 15.402034 47.978508
v -44.850574 15.402034 48.228188
v -44.850567 15.402034 47.978508
v -44.850574 7.302168 48.228188
v -44.850574 7.302168 47.978508
v -45.482082 15.100764 48.228188
v -45.482082 6.945435 48.228188
v -45.482082 15.100764 47.978508
v -45.482082 6.945435 47.978508
v -45.164581 15.239982 47.850067
v -45.482082 15.100764 47.978508
v -45.164581 6.942644 47.850067
v -45.482082 6.945435 47.978508
v -50.244583 4.402641 47.850067
v -49.930561 4.762178 47.978508
v -50.244583 12.699983 47.850067
v -49.930561 12.862034 47.978508
v -49.930561 12.862034 48.228188
v -49.930561 12.862034 47.978508
v -49.930561 4.762178 48.228188
v -49.930561 4.762178 47.978508
v -50.562080 12.560765 48.228188
v -50.562080 4.405435 48.228188
v -50.562080 12.560765 47.978508
v -50.562080 4.405435 47.978508
v -50.244583 12.699983 47.850067
v -50.562080 12.560765 47.978508
v -50.244583 4.402641 47.850067
v -50.562080 4.405435 47.978508
v -55.324581 1.862646 47.850067
v -55.010574 2.222168 47.978508
v -55.324581 10.159983 47.850067
v -55.010567 10.322035 47.978508
v -55.010574 10.322035 48.228188
v -55.010567 10.322035 47.978508
v -55.010574 2.222168 48.228188
v -55.010574 2.222168 47.978508
vt 0.995117 1.373047
vt 1.163086 1.373047
vt 0.995117 -2.266602
vt 1.163086 -2.266602
vt 1.994141 1.435547
vt 1.994141 -2.262695
vt 1.163086 1.373047
vt 1.163086 -2.266602
vt -0.005859 -2.258789
vt -0.005859 1.437500
vt -0.839844 -2.089844
vt -0.839844 1.512695
vt -1.004883 1.512695
vt -1.004883 -2.089844
vt -0.839844 1.512695
vt -0.839844 -2.089844
vt 0.995117 1.373047
vt 1.163086 1.373047
vt 0.995117 -2.266602
vt 1.163086 -2.266602
vt 1.994141 1.435547
vt 1.994141 -2.262695
vt 1.163086 1.373047
vt 1.163086 -2.266602
vt -0.005859 -2.258789
vt -0.005859 1.437500
vt -0.839844 -2.089844
vt -0.839844 1.512695
vt -1.004883 1.512695
vt -1.004883 -2.089844
vt -0.839844 1.512695
vt -0.839844 -2.089844
vt 0.995117 1.373047
vt 1.163086 1.373047
vt 0.995117 -2.266602
vt 1.163086 -2.266602
vt 1.994141 1.435547
vt 1.994141 -2.262695
vt 1.163086 1.373047
vt 1.163086 -2.266602
vt -0.005859 -2.258789
vt -0.005859 1.437500
vt -0.839844 -2.089844
vt -0.839844 1.512695
vt -1.004883 1.512695
vt -1.004883 -2.089844
vt -0.839844 1.512695
vt -0.839844 -2.089844
vt 0.995117 1.373047
vt 1.163086 1.373047
vt 0.995117 -2.266602
vt 1.163086 -2.266602
vt 1.994141 1.435547
vt 1.994141 -2.262695
vt 1.163086 1.373047
vt 1.163086 -2.266602
vt -0.005859 -2.258789
vt -0.005859 1.437500
vt -0.839844 -2.089844
vt -0.839844 1.512695
vt -1.004883 1.512695
vt -1.004883 -2.089844
vt -0.839844 1.512695
vt -0.839844 -2.089844
vn -1.0000 0.0000 0.0000
vn -0.3750 0.0000 -0.9270
vn 0.3786 0.0000 -0.9256
vn 1.0000 0.0000 0.0000
usemtl Tex_0030_0.dds.015
s off
f 1/1/1 3/2/1 2/3/1
f 2/3/1 3/2/1 4/4/1
f 5/5/2 7/6/2 6/7/2
f 6/7/2 7/6/2 8/8/2
f 9/9/3 11/10/3 10/11/3
f 10/11/3 11/10/3 12/12/3
f 13/13/4 15/14/4 14/15/4
f 14/15/4 15/14/4 16/16/4
f 17/17/1 19/18/1 18/19/1
f 18/19/1 19/18/1 20/20/1
f 21/21/2 23/22/2 22/23/2
f 22/23/2 23/22/2 24/24/2
f 25/25/3 27/26/3 26/27/3
f 26/27/3 27/26/3 28/28/3
f 29/29/4 31/30/4 30/31/4
f 30/31/4 31/30/4 32/32/4
f 33/33/1 35/34/1 34/35/1
f 34/35/1 35/34/1 36/36/1
f 37/37/2 39/38/2 38/39/2
f 38/39/2 39/38/2 40/40/2
f 41/41/3 43/42/3 42/43/3
f 42/43/3 43/42/3 44/44/3
f 45/45/4 47/46/4 46/47/4
f 46/47/4 47/46/4 48/48/4
f 49/49/1 51/50/1 50/51/1
f 50/51/1 51/50/1 52/52/1
f 53/53/2 55/54/2 54/55/2
f 54/55/2 55/54/2 56/56/2
f 57/57/3 59/58/3 58/59/3
f 58/59/3 59/58/3 60/60/3
f 61/61/4 63/62/4 62/63/4
f 62/63/4 63/62/4 64/64/4
