# Blender v3.6.3 OBJ File: 'untitled.blend'
# www.blender.org
mtllib Mesh_0295.mtl
o Mesh_0295_Mesh.190
v -19.129581 -5.080005 -38.131805
v -19.129581 -5.080006 -33.051804
v -19.129581 -4.515564 -33.051804
v -19.129581 -2.540005 -27.971806
v -19.129581 -1.975567 -27.971806
v -19.129581 -4.233344 -38.131805
v -19.129581 -4.233344 -33.051804
v -19.129581 -4.092235 -33.051804
v -19.129581 -1.693347 -27.971806
v -19.129581 -1.552225 -27.971806
v -19.386456 -3.951124 -38.131805
v -19.386457 -3.951125 -33.051804
v -19.386457 -3.527793 -33.051804
v -19.386457 -1.411128 -27.971806
v -19.386457 -0.987786 -27.971806
v -19.129581 0.564433 -22.891804
v -19.129581 -1.975567 -27.971806
v -19.129581 -0.000006 -22.891804
v -19.129581 -2.540005 -27.971806
v -19.129581 0.987775 -22.891804
v -19.129581 -1.552225 -27.971806
v -19.129581 0.846652 -22.891804
v -19.129581 -1.693347 -27.971806
v -19.386457 1.552214 -22.891804
v -19.386457 -0.987786 -27.971806
v -19.386457 1.128872 -22.891804
v -19.386457 -1.411128 -27.971806
v -19.386456 -3.527792 -38.131805
v -19.386457 -3.527791 -42.833679
v -19.386456 -3.951124 -38.131805
v -19.386452 -3.951123 -42.833679
v -19.129581 -4.092236 -38.131805
v -19.129581 -4.092235 -42.576805
v -19.129581 -4.233344 -38.131805
v -19.129581 -4.233342 -42.576805
v -19.129581 -4.515563 -38.131805
v -19.129581 -4.515561 -42.576805
v -19.129581 -5.080005 -38.131805
v -19.129581 -5.080004 -42.576805
v -19.129581 -4.515564 -33.051804
v -19.129581 -4.515563 -38.131805
v -19.129581 -5.080005 -38.131805
v -19.129581 -4.092235 -33.051804
v -19.129581 -4.092236 -38.131805
v -19.129581 -4.233344 -38.131805
v -19.386457 -3.527793 -33.051804
v -19.386456 -3.527792 -38.131805
v -19.386456 -3.951124 -38.131805
vt 1.497070 -1.603516
vt -0.500977 -2.003906
vt -0.500977 -1.603516
vt 1.497070 -1.603516
vt 1.497070 -2.003906
vt 1.497070 -1.070312
vt -0.500977 -1.196289
vt -0.500977 -1.070312
vt 1.497070 -1.070312
vt 1.497070 -1.196289
vt 1.497070 0.346680
vt -0.500977 0.653320
vt -0.500977 0.346680
vt 1.497070 0.346680
vt 1.497070 0.653320
vt 1.497070 -2.003906
vt 1.497070 -1.603516
vt -0.500977 -2.003906
vt -0.500977 -1.603516
vt 1.497070 -1.196289
vt 1.497070 -1.070312
vt -0.500977 -1.196289
vt -0.500977 -1.070312
vt 1.497070 0.653320
vt 1.497070 0.346680
vt -0.500977 0.653320
vt -0.500977 0.346680
vt -0.500977 0.653320
vt -0.500977 0.346680
vt 1.351562 0.653320
vt 1.347656 0.346680
vt -0.500977 -1.196289
vt -0.500977 -1.070312
vt 1.245117 -1.196289
vt 1.248047 -1.070312
vt -0.500977 -2.003906
vt -0.500977 -1.603516
vt 1.248047 -2.003906
vt 1.247070 -1.603516
vt -0.500977 -2.003906
vt 1.497070 -1.603516
vt 1.497070 -2.003906
vt -0.500977 -1.196289
vt 1.497070 -1.070312
vt 1.497070 -1.196289
vt -0.500977 0.653320
vt 1.497070 0.346680
vt 1.497070 0.653320
vn 1.0000 0.0000 0.0000
usemtl Tex_0032_0.dds.018
s off
f 1/1/1 3/2/1 2/3/1
f 2/3/1 3/2/1 4/4/1
f 3/2/1 5/5/1 4/4/1
f 6/6/1 8/7/1 7/8/1
f 7/8/1 8/7/1 9/9/1
f 8/7/1 10/10/1 9/9/1
f 11/11/1 13/12/1 12/13/1
f 12/13/1 13/12/1 14/14/1
f 13/12/1 15/15/1 14/14/1
f 16/16/1 18/17/1 17/18/1
f 17/18/1 18/17/1 19/19/1
f 20/20/1 22/21/1 21/22/1
f 21/22/1 22/21/1 23/23/1
f 24/24/1 26/25/1 25/26/1
f 25/26/1 26/25/1 27/27/1
f 28/28/1 30/29/1 29/30/1
f 29/30/1 30/29/1 31/31/1
f 32/32/1 34/33/1 33/34/1
f 33/34/1 34/33/1 35/35/1
f 36/36/1 38/37/1 37/38/1
f 37/38/1 38/37/1 39/39/1
f 40/40/1 42/41/1 41/42/1
f 43/43/1 45/44/1 44/45/1
f 46/46/1 48/47/1 47/48/1
