# Blender v3.6.3 OBJ File: 'untitled.blend'
# www.blender.org
mtllib Mesh_0181.mtl
o Mesh_0181_Mesh.152
v -22.304649 24.129988 -4.859070
v -22.304649 22.859989 -4.623360
v -22.304649 24.129988 -0.284538
v -22.304649 22.859989 -0.520248
v -22.304649 22.859989 -0.284538
v -22.304649 24.129988 -0.284538
v -22.304649 26.915859 -1.027695
v -22.304649 24.129988 -4.859070
v -22.304649 26.915857 -4.115921
v -22.304649 22.859989 -4.623360
v -22.304649 24.129988 -4.859070
v -22.304649 22.859989 -4.859070
vt 1.002930 -0.713867
vt 0.003906 -0.713867
vt 0.949219 -0.995117
vt 0.050781 -0.995117
vt 0.003906 -0.995117
vt 0.003906 -0.713867
vt 1.002930 -0.713867
vt 0.167969 -0.112305
vt 0.839844 -0.112305
vt 0.949219 -0.995117
vt 1.002930 -0.995117
vt 1.002930 -0.713867
vn 1.0000 0.0000 0.0000
usemtl Tex_0068_1.dds
s off
f 1/1/1 3/2/1 2/3/1
f 2/3/1 3/2/1 4/4/1
f 3/2/1 5/5/1 4/4/1
f 6/6/1 8/7/1 7/8/1
f 7/8/1 8/7/1 9/9/1
f 10/10/1 12/11/1 11/12/1
