# Blender v3.6.3 OBJ File: 'untitled.blend'
# www.blender.org
mtllib Mesh_0133.mtl
o Mesh_0133_Mesh.006
v 69.135498 46.196445 0.692146
v 69.135483 45.247444 -0.827705
v 69.135483 49.461922 -2.571800
v 69.135483 44.844574 -2.573654
v 69.135483 45.247444 -4.318581
v 69.135483 45.247444 -4.318581
v 69.135483 46.196445 -5.837273
v 69.135483 49.461922 -2.571800
v 69.135483 47.715919 -6.787018
v 69.135498 49.461666 -7.190655
v 69.135483 52.727337 0.693703
v 69.135483 51.207664 1.642723
v 69.135483 49.461922 -2.571800
v 69.135483 49.461662 2.045540
v 69.135483 47.715919 1.641884
v 69.135498 49.461666 -7.190655
v 69.135498 51.207664 -6.787834
v 69.135483 49.461922 -2.571800
v 69.135483 52.727337 -5.838829
v 69.135483 53.677048 -4.319397
v 69.135483 53.677048 -4.319397
v 69.135483 54.080906 -2.573654
v 69.135483 49.461922 -2.571800
v 69.135483 53.677048 -0.826866
v 69.135483 52.727337 0.693703
v 69.135498 46.196445 0.692146
v 69.135483 49.461922 -2.571800
v 69.135483 47.715919 1.641884
vt 0.146484 -0.853577
vt 0.499878 -0.500000
vt 0.311035 -0.956299
vt 0.500061 -0.999939
vt 0.688965 -0.956299
vt 0.688965 -0.956299
vt 0.499878 -0.500000
vt 0.853394 -0.853577
vt 0.956238 -0.689026
vt 0.999939 -0.500061
vt 0.146301 -0.146484
vt 0.499878 -0.500000
vt 0.043579 -0.311035
vt 0.000000 -0.500061
vt 0.043640 -0.689026
vt 0.999939 -0.500061
vt 0.499878 -0.500000
vt 0.956299 -0.311035
vt 0.853577 -0.146484
vt 0.689087 -0.043640
vt 0.689087 -0.043640
vt 0.499878 -0.500000
vt 0.500061 0.000000
vt 0.310974 -0.043640
vt 0.146301 -0.146484
vt 0.146484 -0.853577
vt 0.043640 -0.689026
vt 0.499878 -0.500000
vn -1.0000 0.0000 0.0000
usemtl Tex_0033_0.dds
s off
f 1/1/1 3/2/1 2/3/1
f 2/3/1 3/2/1 4/4/1
f 3/2/1 5/5/1 4/4/1
f 6/6/1 8/7/1 7/8/1
f 7/8/1 8/7/1 9/9/1
f 8/7/1 10/10/1 9/9/1
f 11/11/1 13/12/1 12/13/1
f 12/13/1 13/12/1 14/14/1
f 13/12/1 15/15/1 14/14/1
f 16/16/1 18/17/1 17/18/1
f 17/18/1 18/17/1 19/19/1
f 18/17/1 20/20/1 19/19/1
f 21/21/1 23/22/1 22/23/1
f 22/23/1 23/22/1 24/24/1
f 23/22/1 25/25/1 24/24/1
f 26/26/1 28/27/1 27/28/1
