# Blender v3.6.3 OBJ File: 'untitled.blend'
# www.blender.org
mtllib Mesh_0177.mtl
o Mesh_0177_Mesh.148
v -22.304649 33.255955 6.044090
v -22.304649 33.255951 9.132317
v -22.304649 35.860470 7.588203
v -22.304649 33.255951 -14.275917
v -22.304649 33.255951 -11.187679
v -22.304649 35.860474 -12.731796
v -22.303291 28.110809 0.976524
v -22.304049 28.083858 4.052277
v -22.304649 30.790630 2.508202
v -22.304649 26.915857 -4.115913
v -22.304649 26.915859 -1.027687
v -22.304649 29.520628 -2.571800
v -22.304649 28.125406 -9.195915
v -22.304649 28.125406 -6.107681
v -22.304649 30.790630 -7.651798
vt -0.308594 -0.997070
vt -0.660156 0.001953
vt -0.988281 -0.997070
vt -0.308594 -0.997070
vt -0.660156 0.001953
vt -0.988281 -0.997070
vt 1.314453 0.001953
vt 1.658203 -0.997070
vt 1.994141 0.001953
vt -0.308594 -0.997070
vt -0.660156 0.001953
vt -0.988281 -0.997070
vt 1.314453 0.001953
vt 1.658203 -0.997070
vt 1.994141 0.001953
vn 1.0000 0.0000 0.0000
vn 1.0000 0.0004 0.0002
usemtl Tex_0064_1.dds
s off
f 1/1/1 3/2/1 2/3/1
f 4/4/1 6/5/1 5/6/1
f 7/7/2 9/8/2 8/9/2
f 10/10/1 12/11/1 11/12/1
f 13/13/1 15/14/1 14/15/1
