# Blender v3.6.3 OBJ File: 'untitled.blend'
# www.blender.org
mtllib Mesh_0276.mtl
o Mesh_0276_Mesh.078
v -19.764584 9.114782 -13.784130
v -19.764584 8.340081 -13.270706
v -19.514893 8.340081 -13.270706
v -19.764584 7.354358 -12.975487
v -19.514893 7.354358 -12.975487
v -19.764584 2.063742 -12.975487
v -19.514893 2.063742 -12.975487
v -19.386456 10.159991 -17.701950
v -19.386456 10.159991 -17.811806
v -19.386456 1.862653 -17.811806
v -19.386456 10.159991 -17.921673
v -19.386456 1.862653 -17.921673
v -19.514893 7.354359 -18.055485
v -19.514893 2.063742 -18.055485
v -19.764584 9.114781 -18.864132
v -19.764584 8.340081 -18.350704
v -19.514893 8.340081 -18.350704
v -19.764584 7.354359 -18.055485
v -19.514893 7.354359 -18.055485
v -19.764584 2.063742 -18.055485
v -19.514893 2.063742 -18.055485
v -19.764584 10.067333 -15.271805
v -19.764584 9.677494 -14.463055
v -19.514893 9.677494 -14.463055
v -19.764584 9.114782 -13.784130
v -19.514893 9.114782 -13.784130
v -19.514893 8.340081 -13.270706
v -19.514893 9.677494 -16.080570
v -19.514893 9.114782 -16.759483
v -19.764584 9.114782 -16.759483
v -19.514893 8.340082 -17.272892
v -19.764584 8.340082 -17.272892
v -19.764584 7.354358 -17.568115
v -19.764584 10.067333 -20.351807
v -19.764584 9.677494 -19.543053
v -19.514893 9.677494 -19.543053
v -19.764584 9.114781 -18.864132
v -19.514893 9.114781 -18.864132
v -19.514893 8.340081 -18.350704
v -19.386456 10.159992 -22.891804
v -19.386456 1.862653 -22.891804
v -19.386456 10.159992 -22.781952
v -19.386456 1.862653 -22.781719
v -19.514893 7.354358 -22.648117
v -19.514893 2.063742 -22.648117
v -19.514893 9.677494 -21.160568
v -19.514893 9.114782 -21.839481
v -19.764584 9.114782 -21.839481
v -19.514893 8.340082 -22.352894
v -19.764584 8.340082 -22.352894
v -19.764584 7.354358 -22.648117
v -19.386417 1.862651 -12.731762
v -19.386456 10.159991 -12.841671
v -19.386456 1.862653 -12.841671
v -19.514893 7.354358 -12.975487
v -19.514893 2.063742 -12.975487
v -19.386456 1.862653 -17.811806
v -19.386456 1.862653 -17.701721
v -19.386456 10.159991 -17.701950
v -19.514893 7.354358 -17.568115
v -19.514893 10.159991 -17.568115
v -19.764584 9.114782 -16.759483
v -19.764584 9.677494 -16.080570
v -19.514893 9.677494 -16.080570
v -19.764584 10.067333 -15.271805
v -19.514893 10.067333 -15.271805
v -19.514893 8.340082 -17.272892
v -19.514893 7.354358 -17.568115
v -19.764584 7.354358 -17.568115
v -19.514893 2.063742 -17.568115
v -19.764584 2.063742 -17.568115
v -19.764584 9.114782 -21.839481
v -19.764584 9.677494 -21.160568
v -19.514893 9.677494 -21.160568
v -19.764584 10.067333 -20.351807
v -19.514893 10.067333 -20.351807
v -19.514893 8.340082 -22.352894
v -19.514893 7.354358 -22.648117
v -19.764584 7.354358 -22.648117
v -19.514893 2.063742 -22.648117
v -19.764584 2.063742 -22.648117
v -19.764584 2.063742 -12.416199
v -19.764584 10.159991 -12.416199
v -19.514904 2.063742 -12.416199
v -19.514904 10.159991 -12.416199
v -19.386417 1.862651 -12.731762
v -19.514904 2.063742 -12.416199
v -19.386417 10.159991 -12.731762
v -19.514904 10.159991 -12.416199
v -19.764584 10.159992 -10.441395
v -19.764584 2.063742 -10.441395
v -19.514904 10.159992 -10.441395
v -19.514904 2.063742 -10.441395
v -19.386456 10.159991 -12.841671
v -19.386417 1.862651 -12.731762
v -19.386417 10.159991 -12.731762
v -19.764584 10.067333 -15.271805
v -19.514893 9.677494 -14.463055
v -19.514893 10.067333 -15.271805
v -19.386456 10.159991 -12.841671
v -19.514893 10.159991 -12.975487
v -19.514893 7.354358 -12.975487
v -19.514893 2.063742 -17.568115
v -19.514893 7.354358 -17.568115
v -19.386456 1.862653 -17.701721
v -19.764584 10.067333 -20.351807
v -19.514893 9.677494 -19.543053
v -19.514893 10.067333 -20.351807
v -19.386456 10.159991 -17.921673
v -19.514893 10.159991 -18.055485
v -19.514893 7.354359 -18.055485
v -19.514893 7.354358 -22.648117
v -19.514893 10.159992 -22.648117
v -19.386456 10.159992 -22.781952
vt -3.995117 1.964844
vt -3.807617 1.643555
vt -3.995117 1.643555
vt -3.995117 1.160156
vt -3.807617 1.164062
vt -3.995117 -1.178711
vt -3.807617 -1.178711
vt -3.357422 2.427734
vt -2.995117 -1.263672
vt -2.995117 2.427734
vt -3.357422 2.427734
vt -3.361328 -1.266602
vt -3.807617 1.164062
vt -3.807617 -1.178711
vt -3.995117 1.964844
vt -3.807617 1.643555
vt -3.995117 1.643555
vt -3.995117 1.160156
vt -3.807617 1.164062
vt -3.995117 -1.178711
vt -3.807617 -1.178711
vt -3.995117 2.801758
vt -3.807617 2.360352
vt -3.995117 2.360352
vt -3.995117 1.964844
vt -3.807617 1.964844
vt -3.807617 1.643555
vt -3.807617 2.360352
vt -3.995117 1.964844
vt -3.807617 1.964844
vt -3.807617 1.643555
vt -3.995117 1.643555
vt -3.995117 1.160156
vt -3.995117 2.801758
vt -3.807617 2.360352
vt -3.995117 2.360352
vt -3.995117 1.964844
vt -3.807617 1.964844
vt -3.807617 1.643555
vt -2.995117 2.427734
vt -3.357422 2.427734
vt -2.995117 -1.263672
vt -3.361328 -1.266602
vt -3.807617 1.165039
vt -3.807617 -1.178711
vt -3.807617 2.360352
vt -3.995117 1.964844
vt -3.807617 1.964844
vt -3.807617 1.643555
vt -3.995117 1.643555
vt -3.995117 1.160156
vt -2.995117 -1.263672
vt -3.361328 -1.266602
vt -3.357422 2.427734
vt -3.807617 1.164062
vt -3.807617 -1.178711
vt -2.995117 -1.263672
vt -3.357422 2.427734
vt -3.361328 -1.266602
vt -3.807617 1.165039
vt -3.807617 2.430664
vt -3.995117 1.964844
vt -3.807617 2.360352
vt -3.995117 2.360352
vt -3.995117 2.801758
vt -3.807617 2.801758
vt -3.807617 1.643555
vt -3.995117 1.160156
vt -3.807617 1.165039
vt -3.807617 -1.178711
vt -3.995117 -1.178711
vt -3.995117 1.964844
vt -3.807617 2.360352
vt -3.995117 2.360352
vt -3.995117 2.801758
vt -3.807617 2.801758
vt -3.807617 1.643555
vt -3.995117 1.160156
vt -3.807617 1.165039
vt -3.807617 -1.178711
vt -3.995117 -1.178711
vt 4.000000 -3.171875
vt 4.235352 -3.171875
vt 4.000000 0.434570
vt 4.235352 0.434570
vt 4.992188 -3.258789
vt 4.992188 0.434570
vt 4.235352 -3.171875
vt 4.235352 0.434570
vt 4.000000 0.434570
vt 4.235352 0.434570
vt 4.000000 -3.171875
vt 4.235352 -3.171875
vt -3.357422 2.427734
vt -2.995117 2.427734
vt -2.995117 -1.263672
vt -3.995117 2.801758
vt -3.807617 2.801758
vt -3.807617 2.360352
vt -3.357422 2.427734
vt -3.807617 1.164062
vt -3.807617 2.430664
vt -3.807617 -1.178711
vt -3.361328 -1.266602
vt -3.807617 1.165039
vt -3.995117 2.801758
vt -3.807617 2.801758
vt -3.807617 2.360352
vt -3.357422 2.427734
vt -3.807617 1.164062
vt -3.807617 2.430664
vt -3.807617 1.165039
vt -3.357422 2.427734
vt -3.807617 2.430664
vn 0.0000 -0.5524 -0.8336
vn -0.0434 -0.5616 -0.8263
vn 0.0000 -0.2869 -0.9580
vn -0.0582 -0.5078 -0.8595
vn -0.0084 -0.2869 -0.9579
vn 0.0000 0.0000 -1.0000
vn -0.0131 -0.2786 -0.9603
vn 1.0000 0.0000 0.0000
vn 0.9996 0.0285 -0.0004
vn 0.9713 -0.2377 0.0001
vn 0.0704 0.0443 -0.9965
vn 0.2775 -0.0169 -0.9606
vn 0.7215 0.0000 -0.6925
vn 0.3773 -0.3520 -0.8566
vn 0.7214 0.0000 -0.6925
vn -0.1545 -0.5799 -0.7999
vn 0.1466 -0.5465 -0.8245
vn 0.1466 -0.2838 -0.9476
vn -0.1295 -0.2542 -0.9584
vn 0.0342 -0.1489 -0.9883
vn -0.0314 -0.4084 -0.9123
vn -0.1450 -0.2839 -0.9478
vn 0.1409 -0.3166 -0.9380
vn 0.1450 0.0000 -0.9894
vn -0.1448 0.0068 -0.9894
vn -0.0068 -0.1448 -0.9894
vn 0.0000 -0.9008 -0.4342
vn -0.1277 -0.9083 -0.3984
vn 0.1212 -0.8942 -0.4310
vn 0.1211 -0.7643 -0.6334
vn -0.1055 -0.7462 -0.6573
vn 0.0362 -0.6815 -0.7309
vn -0.0299 -0.8326 -0.5530
vn -0.1462 -0.7616 -0.6313
vn 0.1278 -0.7862 -0.6046
vn 0.1541 -0.5108 -0.8458
vn -0.1462 -0.5465 -0.8246
vn 0.0000 -0.7699 0.6381
vn 0.1542 -0.7878 0.5963
vn -0.1462 -0.7616 0.6313
vn -0.1462 -0.5465 0.8246
vn 0.1276 -0.5190 0.8452
vn -0.0349 -0.4391 0.8978
vn 0.0343 -0.6539 0.7558
vn 0.1466 -0.5465 0.8246
vn -0.1300 -0.5765 0.8067
vn -0.1542 -0.2474 0.9566
vn 0.1466 -0.2838 0.9476
vn 0.0000 -0.2869 0.9580
vn 0.1541 -0.5109 -0.8458
vn 0.9996 0.0282 0.0004
vn 0.9996 0.0004 -0.0282
vn 0.9713 -0.2378 -0.0000
vn 0.0698 0.0444 0.9966
vn 0.7213 0.0000 0.6926
vn 0.2772 -0.0169 0.9607
vn 0.3760 -0.3522 0.8571
vn 0.7209 0.0000 0.6930
vn 1.0000 0.0000 -0.0003
vn 0.9714 -0.2376 -0.0003
vn 0.8000 0.0080 0.5999
vn 0.6330 0.0080 -0.7741
vn 0.2778 -0.0169 -0.9605
vn 0.3775 -0.3518 -0.8565
vn 0.7255 0.0091 -0.6881
vn 0.9999 -0.0147 -0.0000
vn 0.0555 -0.0230 0.9982
vn 0.7171 0.0004 0.6970
vn 0.7218 0.0058 0.6921
vn 0.7215 0.0000 0.6924
vn -0.1278 -0.7400 0.6604
vn 0.1212 -0.7642 0.6334
vn 0.1212 -0.8942 0.4310
vn -0.1055 -0.9081 0.4052
vn 0.0000 -0.9008 0.4342
vn -0.0293 -0.8496 0.5266
vn 0.1524 -0.3188 0.9355
vn -0.1450 -0.2839 0.9478
vn -0.1450 0.0000 0.9894
vn 0.1330 0.0063 0.9911
vn 0.0000 0.0000 1.0000
vn 0.0063 -0.1330 0.9911
vn 0.9262 0.0000 0.3771
usemtl Tex_0030_0.dds.006
s off
f 1/1/1 3/2/2 2/3/1
f 2/3/3 3/2/3 4/4/3
f 3/2/4 5/5/5 4/4/3
f 4/4/6 5/5/6 6/6/6
f 5/5/7 7/7/6 6/6/6
f 8/8/8 10/9/8 9/10/8
f 9/10/8 10/9/8 11/11/9
f 10/9/8 12/12/10 11/11/8
f 11/11/11 12/12/12 13/13/13
f 12/12/14 14/14/15 13/13/15
f 15/15/1 17/16/16 16/17/17
f 16/17/18 17/16/19 18/18/20
f 17/16/21 19/19/22 18/18/23
f 18/18/24 19/19/25 20/20/6
f 19/19/26 21/21/6 20/20/6
f 22/22/27 24/23/28 23/24/29
f 23/24/30 24/23/31 25/25/32
f 24/23/33 26/26/34 25/25/35
f 25/25/36 26/26/37 27/27/1
f 28/28/38 30/29/39 29/30/40
f 29/30/41 30/29/42 31/31/43
f 30/29/44 32/32/45 31/31/46
f 31/31/47 32/32/48 33/33/49
f 34/34/27 36/35/28 35/36/29
f 35/36/30 36/35/31 37/37/32
f 36/35/33 38/38/34 37/37/35
f 37/37/50 38/38/37 39/39/1
f 40/40/8 42/41/51 41/42/8
f 41/42/8 42/41/52 43/43/53
f 42/41/54 44/44/55 43/43/56
f 43/43/57 44/44/58 45/45/58
f 46/46/38 48/47/39 47/48/40
f 47/48/41 48/47/42 49/49/43
f 48/47/44 50/50/45 49/49/46
f 49/49/47 50/50/48 51/51/49
f 52/52/59 54/53/60 53/54/61
f 53/54/62 54/53/63 55/55/13
f 54/53/64 56/56/13 55/55/13
f 57/57/8 59/58/65 58/59/66
f 58/59/67 59/58/68 60/60/55
f 59/58/69 61/61/70 60/60/70
f 62/62/38 64/63/71 63/64/72
f 63/64/73 64/63/74 65/65/75
f 64/63/76 66/66/75 65/65/75
f 67/67/49 69/68/77 68/69/78
f 68/69/79 69/68/80 70/70/81
f 69/68/82 71/71/81 70/70/81
f 72/72/38 74/73/71 73/74/72
f 73/74/73 74/73/74 75/75/75
f 74/73/76 76/76/75 75/75/75
f 77/77/49 79/78/77 78/79/78
f 78/79/79 79/78/80 80/80/81
f 79/78/82 81/81/81 80/80/81
f 82/82/81 84/83/81 83/84/81
f 83/84/81 84/83/81 85/85/81
f 86/86/83 88/87/83 87/88/83
f 87/88/83 88/87/83 89/89/83
f 90/90/6 92/91/6 91/92/6
f 91/92/6 92/91/6 93/93/6
f 94/94/59 96/95/59 95/96/59
f 97/97/27 99/98/27 98/99/27
f 100/100/13 102/101/13 101/102/13
f 103/103/58 105/104/58 104/105/58
f 106/106/27 108/107/27 107/108/27
f 109/109/15 111/110/15 110/111/15
f 112/112/70 114/113/70 113/114/70
