# Blender v3.6.3 OBJ File: 'untitled.blend'
# www.blender.org
mtllib Mesh_0303.mtl
o Mesh_0303_Mesh.195
v -9.854275 9.677488 14.410301
v -9.854275 9.114777 13.720512
v -9.854275 10.159986 12.922722
v -9.854279 8.340076 13.207108
v -9.854275 8.338730 12.922722
v -9.854271 8.188896 13.169846
v -9.854275 9.114777 11.615868
v -9.854275 9.677488 10.926086
v -9.854275 10.159986 12.413658
v -9.854275 10.067328 10.128189
v -9.854275 10.159987 10.128189
v -9.854275 9.114777 11.615868
v -9.854275 10.159986 12.413658
v -9.854279 8.340076 12.129272
v -9.854275 8.338730 12.413658
v -9.854271 8.188896 12.166542
v -9.854275 9.677488 9.319443
v -9.854275 9.114778 8.640526
v -9.854275 10.159987 7.831871
v -9.854275 8.340077 8.127090
v -9.854275 7.354354 7.831871
v -9.854275 9.114778 16.695862
v -9.854275 9.677488 16.016945
v -9.854275 10.159986 17.504509
v -9.854275 10.067328 15.208191
v -9.854275 10.159987 15.208191
v -9.854275 10.159987 10.128189
v -9.854275 10.067328 10.128189
v -9.854275 10.159987 7.831871
v -9.854275 9.677488 9.319443
v -9.854275 10.159987 15.208191
v -9.854275 10.067328 15.208191
v -9.854275 10.159986 12.922722
v -9.854275 9.677488 14.410301
v -9.854275 9.114778 16.695862
v -9.854275 10.159986 17.504509
v -9.854275 8.340076 17.209290
v -9.854275 7.354354 17.504509
vt 0.353088 -0.174622
vt 0.999939 -0.002563
vt 0.646484 -0.375549
vt 0.871216 -0.651184
vt 0.999939 -0.627563
vt 0.894714 -0.719971
vt 0.646484 -0.375549
vt 0.999939 -0.002563
vt 0.353088 -0.174622
vt 0.000000 -0.034912
vt 0.000000 -0.002563
vt 0.646484 -0.375549
vt 0.871216 -0.651184
vt 0.999939 -0.002563
vt 0.999939 -0.627563
vt 0.894714 -0.719971
vt 0.647766 -0.828064
vt 0.000000 -0.999451
vt 0.352112 -0.627502
vt 0.128540 -0.351440
vt 0.000000 -0.000061
vt 0.352112 -0.627502
vt 0.000000 -0.999451
vt 0.647766 -0.828064
vt 0.999939 -0.966980
vt 0.999939 -0.999451
vt 0.999939 -0.999451
vt 0.000000 -0.999451
vt 0.999939 -0.966980
vt 0.647766 -0.828064
vt 0.000000 -0.002563
vt 0.999939 -0.002563
vt 0.000000 -0.034912
vt 0.353088 -0.174622
vt 0.352112 -0.627502
vt 0.128540 -0.351440
vt 0.000000 -0.999451
vt 0.000000 -0.000061
vn -1.0000 0.0000 0.0000
usemtl Tex_0053_1.dds.007
s off
f 1/1/1 3/2/1 2/3/1
f 2/3/1 3/2/1 4/4/1
f 3/2/1 5/5/1 4/4/1
f 4/4/1 5/5/1 6/6/1
f 7/7/1 9/8/1 8/9/1
f 8/9/1 9/8/1 10/10/1
f 9/8/1 11/11/1 10/10/1
f 12/12/1 14/13/1 13/14/1
f 13/14/1 14/13/1 15/15/1
f 14/13/1 16/16/1 15/15/1
f 17/17/1 19/18/1 18/19/1
f 18/19/1 19/18/1 20/20/1
f 19/18/1 21/21/1 20/20/1
f 22/22/1 24/23/1 23/24/1
f 23/24/1 24/23/1 25/25/1
f 24/23/1 26/26/1 25/25/1
f 27/27/1 29/28/1 28/29/1
f 28/29/1 29/28/1 30/30/1
f 31/31/1 33/32/1 32/33/1
f 32/33/1 33/32/1 34/34/1
f 35/35/1 37/36/1 36/37/1
f 36/37/1 37/36/1 38/38/1
