# Blender v3.6.3 OBJ File: 'untitled.blend'
# www.blender.org
mtllib Mesh_0222.mtl
o Mesh_0222_Mesh.163
v 50.400200 12.699986 22.828194
v 56.117920 12.699986 22.828194
v 50.474007 14.919996 22.828194
v 56.117920 14.919996 22.828194
v 51.445763 17.397791 22.828194
v 55.075050 17.397791 22.828194
v 53.260422 20.002485 22.828194
v 44.050201 12.699986 22.828194
v 49.767921 12.699986 22.828194
v 44.124008 14.919996 22.828194
v 49.767921 14.919996 22.828194
v 45.095764 17.397791 22.828194
v 48.725052 17.397791 22.828194
v 46.910423 20.002485 22.828194
v 56.750198 12.699986 22.828194
v 62.467918 12.699986 22.828194
v 56.824005 14.919996 22.828194
v 62.467918 14.919996 22.828194
v 57.795761 17.397791 22.828194
v 61.425049 17.397791 22.828194
v 59.610420 20.002485 22.828194
v 63.100197 12.699986 22.828194
v 68.817917 12.699986 22.828194
v 63.174004 14.919996 22.828194
v 68.817917 14.919996 22.828194
v 64.145767 17.397791 22.828194
v 67.775047 17.397791 22.828194
v 65.960419 20.002485 22.828194
v 37.700195 12.699986 22.828194
v 43.417923 12.699986 22.828194
v 37.774010 14.919996 22.828194
v 43.417923 14.919996 22.828194
v 38.745766 17.397791 22.828194
v 42.375053 17.397791 22.828194
v 40.560417 20.002485 22.828194
v 31.350191 12.699986 22.828194
v 37.067917 12.699986 22.828194
v 31.424006 14.919996 22.828194
v 37.067917 14.919996 22.828194
v 32.395760 17.397791 22.828194
v 36.025055 17.397791 22.828194
v 34.210419 20.002485 22.828194
v 25.000193 12.699986 22.828194
v 30.717916 12.699986 22.828194
v 25.074007 14.919996 22.828194
v 30.717916 14.919996 22.828194
v 26.045759 17.397791 22.828194
v 29.675051 17.397791 22.828194
v 27.860415 20.002485 22.828194
v 18.650194 12.699986 22.828194
v 24.367914 12.699986 22.828194
v 18.724009 14.919996 22.828194
v 24.367914 14.919996 22.828194
v 19.695761 17.397791 22.828194
v 23.325052 17.397791 22.828194
v 21.510412 20.002485 22.828194
v 5.950193 12.699986 22.828194
v 11.667913 12.699986 22.828194
v 6.024008 14.919996 22.828194
v 11.667913 14.919996 22.828194
v 6.995760 17.397791 22.828194
v 10.625051 17.397791 22.828194
v 8.810411 20.002485 22.828194
v 12.300192 12.699986 22.828194
v 18.017912 12.699986 22.828194
v 12.374010 14.919996 22.828194
v 18.017912 14.919996 22.828194
v 13.345762 17.397791 22.828194
v 16.975050 17.397791 22.828194
v 15.160414 20.002485 22.828194
v -0.399805 12.699986 22.828194
v 5.317911 12.699986 22.828194
v -0.325993 14.919996 22.828194
v 5.317911 14.919996 22.828194
v 0.645761 17.397791 22.828194
v 4.275053 17.397791 22.828194
v 2.460417 20.002485 22.828194
v -6.749804 12.699986 22.828194
v -1.032085 12.699986 22.828194
v -6.675991 14.919996 22.828194
v -1.032085 14.919996 22.828194
v -5.704239 17.397791 22.828194
v -2.074945 17.397791 22.828194
v -3.889585 20.002485 22.828194
vt 0.999939 -0.999939
vt 0.999939 -0.695923
vt 0.000000 -0.999939
vt 0.000000 -0.695923
vt 0.817444 -0.356628
vt 0.182434 -0.356628
vt 0.499939 0.000000
vt 0.999939 -0.999939
vt 0.999939 -0.695923
vt 0.000000 -0.999939
vt 0.000000 -0.695923
vt 0.817444 -0.356628
vt 0.182434 -0.356628
vt 0.499939 0.000000
vt 0.999939 -0.999939
vt 0.999939 -0.695923
vt 0.000000 -0.999939
vt 0.000000 -0.695923
vt 0.817444 -0.356628
vt 0.182434 -0.356628
vt 0.499939 0.000000
vt 0.999939 -0.999939
vt 0.999939 -0.695923
vt 0.000000 -0.999939
vt 0.000000 -0.695923
vt 0.817444 -0.356628
vt 0.182434 -0.356628
vt 0.499939 0.000000
vt 0.999939 -0.999939
vt 0.999939 -0.695923
vt 0.000000 -0.999939
vt 0.000000 -0.695923
vt 0.817444 -0.356628
vt 0.182434 -0.356628
vt 0.499939 0.000000
vt 0.999939 -0.999939
vt 0.999939 -0.695923
vt 0.000000 -0.999939
vt 0.000000 -0.695923
vt 0.817444 -0.356628
vt 0.182434 -0.356628
vt 0.499939 0.000000
vt 0.999939 -0.999939
vt 0.999939 -0.695923
vt 0.000000 -0.999939
vt 0.000000 -0.695923
vt 0.817444 -0.356628
vt 0.182434 -0.356628
vt 0.499939 0.000000
vt 0.999939 -0.999939
vt 0.999939 -0.695923
vt 0.000000 -0.999939
vt 0.000000 -0.695923
vt 0.817444 -0.356628
vt 0.182434 -0.356628
vt 0.499939 0.000000
vt 0.999939 -0.999939
vt 0.999939 -0.695923
vt 0.000000 -0.999939
vt 0.000000 -0.695923
vt 0.817444 -0.356628
vt 0.182434 -0.356628
vt 0.499939 0.000000
vt 0.999939 -0.999939
vt 0.999939 -0.695923
vt 0.000000 -0.999939
vt 0.000000 -0.695923
vt 0.817444 -0.356628
vt 0.182434 -0.356628
vt 0.499939 0.000000
vt 0.999939 -0.999939
vt 0.999939 -0.695923
vt 0.000000 -0.999939
vt 0.000000 -0.695923
vt 0.817444 -0.356628
vt 0.182434 -0.356628
vt 0.499939 0.000000
vt 0.999939 -0.999939
vt 0.999939 -0.695923
vt 0.000000 -0.999939
vt 0.000000 -0.695923
vt 0.817444 -0.356628
vt 0.182434 -0.356628
vt 0.499939 0.000000
vn 0.0000 0.0000 -1.0000
usemtl Tex_0061_1.dds.001
s off
f 1/1/1 3/2/1 2/3/1
f 2/3/1 3/2/1 4/4/1
f 3/2/1 5/5/1 4/4/1
f 4/4/1 5/5/1 6/6/1
f 5/5/1 7/7/1 6/6/1
f 8/8/1 10/9/1 9/10/1
f 9/10/1 10/9/1 11/11/1
f 10/9/1 12/12/1 11/11/1
f 11/11/1 12/12/1 13/13/1
f 12/12/1 14/14/1 13/13/1
f 15/15/1 17/16/1 16/17/1
f 16/17/1 17/16/1 18/18/1
f 17/16/1 19/19/1 18/18/1
f 18/18/1 19/19/1 20/20/1
f 19/19/1 21/21/1 20/20/1
f 22/22/1 24/23/1 23/24/1
f 23/24/1 24/23/1 25/25/1
f 24/23/1 26/26/1 25/25/1
f 25/25/1 26/26/1 27/27/1
f 26/26/1 28/28/1 27/27/1
f 29/29/1 31/30/1 30/31/1
f 30/31/1 31/30/1 32/32/1
f 31/30/1 33/33/1 32/32/1
f 32/32/1 33/33/1 34/34/1
f 33/33/1 35/35/1 34/34/1
f 36/36/1 38/37/1 37/38/1
f 37/38/1 38/37/1 39/39/1
f 38/37/1 40/40/1 39/39/1
f 39/39/1 40/40/1 41/41/1
f 40/40/1 42/42/1 41/41/1
f 43/43/1 45/44/1 44/45/1
f 44/45/1 45/44/1 46/46/1
f 45/44/1 47/47/1 46/46/1
f 46/46/1 47/47/1 48/48/1
f 47/47/1 49/49/1 48/48/1
f 50/50/1 52/51/1 51/52/1
f 51/52/1 52/51/1 53/53/1
f 52/51/1 54/54/1 53/53/1
f 53/53/1 54/54/1 55/55/1
f 54/54/1 56/56/1 55/55/1
f 57/57/1 59/58/1 58/59/1
f 58/59/1 59/58/1 60/60/1
f 59/58/1 61/61/1 60/60/1
f 60/60/1 61/61/1 62/62/1
f 61/61/1 63/63/1 62/62/1
f 64/64/1 66/65/1 65/66/1
f 65/66/1 66/65/1 67/67/1
f 66/65/1 68/68/1 67/67/1
f 67/67/1 68/68/1 69/69/1
f 68/68/1 70/70/1 69/69/1
f 71/71/1 73/72/1 72/73/1
f 72/73/1 73/72/1 74/74/1
f 73/72/1 75/75/1 74/74/1
f 74/74/1 75/75/1 76/76/1
f 75/75/1 77/77/1 76/76/1
f 78/78/1 80/79/1 79/80/1
f 79/80/1 80/79/1 81/81/1
f 80/79/1 82/82/1 81/81/1
f 81/81/1 82/82/1 83/83/1
f 82/82/1 84/84/1 83/83/1
