# Blender v3.6.3 OBJ File: 'untitled.blend'
# www.blender.org
mtllib Mesh_0163.mtl
o Mesh_0163_Mesh.028
v -6.686470 4.925913 15.591492
v -7.064594 4.803892 15.457230
v -6.686462 3.807653 15.807121
v -7.064594 3.809990 15.645699
v -6.686466 2.063742 15.807121
v -7.064594 2.063742 15.645691
v -7.064594 1.693314 15.645683
v -8.144091 -0.000009 14.956680
v -7.064594 -0.000008 15.645683
v -7.064594 -0.000008 9.690704
v -8.144091 -0.000009 10.379707
v -7.064594 1.693314 9.690704
v -7.064594 2.063742 9.690697
v -6.686466 2.063742 9.529259
v -7.064594 3.809990 9.690689
v -6.686462 3.807653 9.529259
v -7.064594 4.803892 9.879150
v -6.686470 4.925913 9.744888
v -7.064594 -0.000008 -20.789295
v -8.144091 -0.000009 -20.100292
v -7.064594 1.693314 -20.789299
v -7.064594 2.063743 -20.789303
v -6.686466 2.063743 -20.950737
v -7.064594 3.809990 -20.789307
v -6.686462 3.807653 -20.950737
v -7.064594 4.803892 -20.600842
v -6.686470 4.925913 -20.735104
v -6.686470 4.925914 -14.888504
v -7.064594 4.803892 -15.022766
v -6.686462 3.807653 -14.672874
v -7.064594 3.809990 -14.834297
v -6.686466 2.063743 -14.672874
v -7.064594 2.063743 -14.834305
v -7.064594 1.693314 -14.834316
v -8.144091 -0.000009 -15.523315
v -7.064594 -0.000008 -14.834316
v -7.064590 -0.000009 16.294106
v -7.064585 0.564433 16.294106
v -6.429585 -0.000009 16.142586
v -7.064585 0.846653 16.294106
v -6.429590 1.693314 16.142586
v -7.064587 0.987763 16.294106
v -7.064590 1.693314 16.294106
v -7.064590 1.693314 9.042282
v -7.064587 0.987763 9.042282
v -6.429590 1.693314 9.193802
v -7.064585 0.846653 9.042282
v -6.429585 -0.000009 9.193802
v -7.064585 0.564433 9.042282
v -7.064590 -0.000009 9.042282
v -8.144091 -0.000009 10.379707
v -8.525084 3.333740 10.379707
v -8.144091 3.333740 10.379707
v -8.525084 4.321165 10.524559
v -8.144093 4.321165 10.524544
v -8.525084 5.037673 10.740967
v -8.144091 5.037673 10.740967
v -8.525084 -0.000010 14.956680
v -8.144091 3.333740 14.956680
v -8.525084 3.333740 14.956680
v -8.144093 4.321165 14.811844
v -8.525084 4.321165 14.811829
v -8.144091 5.037673 14.595421
v -8.525084 5.037673 14.595421
v -7.064590 1.693314 -21.437717
v -7.064587 0.987763 -21.437714
v -6.429590 1.693314 -21.286198
v -7.064585 0.846654 -21.437717
v -6.429585 -0.000008 -21.286198
v -7.064585 0.564433 -21.437717
v -7.064590 -0.000008 -21.437714
v -7.064590 -0.000008 -14.185894
v -7.064585 0.564433 -14.185894
v -6.429585 -0.000008 -14.337410
v -7.064585 0.846653 -14.185894
v -6.429590 1.693314 -14.337410
v -7.064587 0.987763 -14.185894
v -7.064590 1.693314 -14.185894
v -8.144091 -0.000009 -20.100292
v -8.525084 3.333740 -20.100292
v -8.144091 3.333740 -20.100292
v -8.525084 4.321165 -19.955437
v -8.144093 4.321165 -19.955452
v -8.525084 5.037673 -19.739029
v -8.144091 5.037673 -19.739029
v -8.525084 -0.000010 -15.523315
v -8.144091 3.333740 -15.523315
v -8.525084 3.333740 -15.523315
v -8.144093 4.321166 -15.668159
v -8.525084 4.321166 -15.668171
v -8.144091 5.037674 -15.884579
v -8.525084 5.037674 -15.884579
v -8.144091 -0.000009 14.956680
v -7.064594 2.063742 15.645691
v -8.144091 3.333740 14.956680
v -7.064594 3.809990 15.645699
v -8.144093 4.321165 14.811844
v -7.064594 4.803892 15.457230
v -7.064585 5.101478 15.910538
v -6.686466 5.101478 15.910545
v -7.064590 3.942959 16.142578
v -6.686470 3.942959 16.142586
v -7.064587 2.063741 16.142578
v -6.686466 2.063742 16.142570
v -6.686466 5.101478 15.910545
v -6.686470 4.925913 15.591492
v -6.686470 3.942959 16.142586
v -6.686462 3.807653 15.807121
v -6.686466 2.063742 16.142570
v -6.686466 2.063742 15.807121
v -8.144091 -0.000009 -15.523315
v -7.064594 2.063743 -14.834305
v -8.144091 3.333740 -15.523315
v -7.064594 3.809990 -14.834297
v -8.144093 4.321166 -15.668159
v -7.064594 4.803892 -15.022766
v -7.064585 5.101478 -14.569458
v -6.686466 5.101478 -14.569454
v -7.064590 3.942959 -14.337418
v -6.686470 3.942959 -14.337410
v -7.064587 2.063742 -14.337418
v -6.686466 2.063743 -14.337425
v -6.686466 5.101478 -14.569454
v -6.686470 4.925914 -14.888504
v -6.686470 3.942959 -14.337410
v -6.686462 3.807653 -14.672874
v -6.686466 2.063743 -14.337425
v -6.686466 2.063743 -14.672874
v -7.064594 -0.000008 15.645683
v -6.429588 -0.000008 15.807114
v -7.064594 1.693314 15.645683
v -6.429590 1.693314 15.807114
v -6.686466 2.063742 15.807121
v -7.064594 2.063742 9.690697
v -8.144091 3.333740 10.379707
v -7.064594 3.809990 9.690689
v -8.144093 4.321165 10.524544
v -7.064594 4.803892 9.879150
v -6.686466 5.101479 9.425842
v -7.064590 3.942959 9.193810
v -6.686470 3.942959 9.193802
v -7.064587 2.063741 9.193810
v -6.686466 2.063742 9.193817
v -6.686466 2.063742 9.529259
v -6.429590 1.693314 9.529266
v -7.064594 1.693314 9.690704
v -6.429588 -0.000008 9.529266
v -7.064594 -0.000008 9.690704
v -6.686470 4.925913 9.744888
v -6.686470 3.942959 9.193802
v -6.686462 3.807653 9.529259
v -6.686466 2.063742 9.193817
v -6.686466 2.063742 9.529259
v -7.064594 2.063743 -20.789303
v -8.144091 3.333740 -20.100292
v -7.064594 3.809990 -20.789307
v -8.144093 4.321165 -19.955452
v -7.064594 4.803892 -20.600842
v -6.686466 5.101479 -21.054153
v -7.064590 3.942959 -21.286190
v -6.686470 3.942959 -21.286198
v -7.064587 2.063742 -21.286186
v -6.686466 2.063743 -21.286186
v -6.686466 2.063743 -20.950737
v -6.429590 1.693314 -20.950733
v -7.064594 1.693314 -20.789299
v -6.429588 -0.000008 -20.950726
v -7.064594 -0.000008 -20.789295
v -6.686470 4.925913 -20.735104
v -6.686470 3.942959 -21.286198
v -6.686462 3.807653 -20.950737
v -6.686466 2.063743 -21.286186
v -6.686466 2.063743 -20.950737
v -7.064594 -0.000008 -14.834316
v -6.429588 -0.000008 -14.672886
v -7.064594 1.693314 -14.834316
v -6.429590 1.693314 -14.672878
v -6.686466 2.063743 -14.672874
v -6.429590 1.693314 16.142586
v -7.064590 1.693314 16.294106
v -6.686466 2.063742 16.142570
v -7.064587 2.063741 16.142578
v -6.429590 1.693314 15.807114
v -6.429590 1.693314 16.142586
v -6.686466 2.063742 15.807121
v -6.686466 2.063742 16.142570
v -6.429588 -0.000008 15.807114
v -6.429585 -0.000009 16.142586
v -6.429590 1.693314 15.807114
v -6.429590 1.693314 16.142586
v -6.429590 1.693314 9.193802
v -6.686466 2.063742 9.193817
v -7.064590 1.693314 9.042282
v -7.064587 2.063741 9.193810
v -6.429590 1.693314 9.529266
v -6.686466 2.063742 9.529259
v -6.429590 1.693314 9.193802
v -6.686466 2.063742 9.193817
v -6.429588 -0.000008 9.529266
v -6.429590 1.693314 9.529266
v -6.429585 -0.000009 9.193802
v -6.429590 1.693314 9.193802
v -6.429590 1.693314 -21.286198
v -6.686466 2.063743 -21.286186
v -7.064590 1.693314 -21.437717
v -7.064587 2.063742 -21.286186
v -6.429590 1.693314 -20.950733
v -6.686466 2.063743 -20.950737
v -6.429590 1.693314 -21.286198
v -6.686466 2.063743 -21.286186
v -6.429588 -0.000008 -20.950726
v -6.429590 1.693314 -20.950733
v -6.429585 -0.000008 -21.286198
v -6.429590 1.693314 -21.286198
v -6.429590 1.693314 -14.337410
v -7.064590 1.693314 -14.185894
v -6.686466 2.063743 -14.337425
v -7.064587 2.063742 -14.337418
v -6.429590 1.693314 -14.672878
v -6.429590 1.693314 -14.337410
v -6.686466 2.063743 -14.672874
v -6.686466 2.063743 -14.337425
v -6.429588 -0.000008 -14.672886
v -6.429585 -0.000008 -14.337410
v -6.429590 1.693314 -14.672878
v -6.429590 1.693314 -14.337410
v -7.064594 2.063742 9.690697
v -8.144091 -0.000009 10.379707
v -8.144091 3.333740 10.379707
v -7.064590 3.942959 9.193810
v -6.686466 5.101479 9.425842
v -7.064585 5.101479 9.425850
v -6.686470 3.942959 9.193802
v -6.686470 4.925913 9.744888
v -6.686466 5.101479 9.425842
v -8.144091 -0.000009 10.379707
v -8.525084 -0.000010 10.379707
v -8.525084 3.333740 10.379707
v -8.525084 -0.000010 14.956680
v -8.144091 -0.000009 14.956680
v -8.144091 3.333740 14.956680
v -7.064594 2.063743 -20.789303
v -8.144091 -0.000009 -20.100292
v -8.144091 3.333740 -20.100292
v -7.064590 3.942959 -21.286190
v -6.686466 5.101479 -21.054153
v -7.064585 5.101479 -21.054150
v -6.686470 3.942959 -21.286198
v -6.686470 4.925913 -20.735104
v -6.686466 5.101479 -21.054153
v -8.144091 -0.000009 -20.100292
v -8.525084 -0.000010 -20.100292
v -8.525084 3.333740 -20.100292
v -8.525084 -0.000010 -15.523315
v -8.144091 -0.000009 -15.523315
v -8.144091 3.333740 -15.523315
vt 2.199219 -0.011719
vt 2.201172 -0.225586
vt 2.390625 -0.011719
vt 2.392578 -0.225586
vt 2.204102 -0.639648
vt 2.391602 -0.617188
vt 2.391602 -0.665039
vt 2.997070 -0.999023
vt 2.392578 -0.999023
vt 2.392578 -0.999023
vt 2.391602 -0.665039
vt 2.997070 -0.999023
vt 2.391602 -0.617188
vt 2.204102 -0.639648
vt 2.392578 -0.225586
vt 2.201172 -0.225586
vt 2.390625 -0.011719
vt 2.199219 -0.011719
vt 2.392578 -0.999023
vt 2.391602 -0.665039
vt 2.997070 -0.999023
vt 2.391602 -0.617188
vt 2.204102 -0.639648
vt 2.392578 -0.225586
vt 2.201172 -0.225586
vt 2.390625 -0.011719
vt 2.199219 -0.011719
vt 2.199219 -0.011719
vt 2.201172 -0.225586
vt 2.390625 -0.011719
vt 2.392578 -0.225586
vt 2.204102 -0.639648
vt 2.391602 -0.617188
vt 2.391602 -0.665039
vt 2.997070 -0.999023
vt 2.392578 -0.999023
vt -0.999023 -1.991211
vt -0.911133 -1.991211
vt -0.999023 -1.831055
vt -0.999023 -1.778320
vt -0.911133 -1.517578
vt -0.999023 -1.717773
vt -0.999023 -1.540039
vt -0.999023 -1.540039
vt -0.911133 -1.517578
vt -0.999023 -1.717773
vt -0.999023 -1.778320
vt -0.911133 -1.991211
vt -0.999023 -1.831055
vt -0.999023 -1.991211
vt 0.647461 -1.000000
vt 0.647461 -0.356445
vt 0.541992 -0.356445
vt 0.541992 -0.143555
vt 0.647461 -0.143555
vt 0.541992 -0.001953
vt 0.647461 -0.001953
vt 0.541992 -1.000000
vt 0.541992 -0.356445
vt 0.647461 -0.356445
vt 0.647461 -0.143555
vt 0.541992 -0.143555
vt 0.647461 -0.001953
vt 0.541992 -0.001953
vt -0.999023 -1.540039
vt -0.911133 -1.517578
vt -0.999023 -1.717773
vt -0.999023 -1.778320
vt -0.911133 -1.991211
vt -0.999023 -1.831055
vt -0.999023 -1.991211
vt -0.999023 -1.991211
vt -0.911133 -1.991211
vt -0.999023 -1.831055
vt -0.999023 -1.778320
vt -0.911133 -1.517578
vt -0.999023 -1.717773
vt -0.999023 -1.540039
vt 0.647461 -1.000000
vt 0.647461 -0.356445
vt 0.541992 -0.356445
vt 0.541992 -0.143555
vt 0.647461 -0.143555
vt 0.541992 -0.001953
vt 0.647461 -0.001953
vt 0.541992 -1.000000
vt 0.541992 -0.356445
vt 0.647461 -0.356445
vt 0.647461 -0.143555
vt 0.541992 -0.143555
vt 0.647461 -0.001953
vt 0.541992 -0.001953
vt 2.997070 -0.999023
vt 2.997070 -0.322266
vt 2.391602 -0.617188
vt 2.392578 -0.225586
vt 2.997070 -0.011719
vt 2.390625 -0.011719
vt 1.998047 -0.011719
vt 1.998047 -0.226562
vt 2.098633 -0.011719
vt 2.098633 -0.225586
vt 1.998047 -0.651367
vt 2.098633 -0.657227
vt 2.098633 -0.011719
vt 2.098633 -0.225586
vt 2.199219 -0.011719
vt 2.201172 -0.225586
vt 2.098633 -0.657227
vt 2.204102 -0.639648
vt 2.997070 -0.999023
vt 2.997070 -0.322266
vt 2.391602 -0.617188
vt 2.392578 -0.225586
vt 2.997070 -0.011719
vt 2.390625 -0.011719
vt 1.998047 -0.011719
vt 1.998047 -0.226562
vt 2.098633 -0.011719
vt 2.098633 -0.225586
vt 1.998047 -0.651367
vt 2.098633 -0.657227
vt 2.098633 -0.011719
vt 2.098633 -0.225586
vt 2.199219 -0.011719
vt 2.201172 -0.225586
vt 2.098633 -0.657227
vt 2.204102 -0.639648
vt -0.911133 -1.991211
vt -0.911133 -1.544922
vt -0.805664 -1.991211
vt -0.805664 -1.500977
vt -0.805664 -1.437500
vt 2.391602 -0.617188
vt 2.392578 -0.225586
vt 2.997070 -0.322266
vt 2.997070 -0.011719
vt 2.390625 -0.011719
vt 2.098633 -0.011719
vt 2.098633 -0.225586
vt 1.998047 -0.226562
vt 1.998047 -0.651367
vt 2.098633 -0.657227
vt -0.805664 -1.437500
vt -0.911133 -1.544922
vt -0.805664 -1.500977
vt -0.805664 -1.991211
vt -0.911133 -1.991211
vt 2.199219 -0.011719
vt 2.201172 -0.225586
vt 2.098633 -0.225586
vt 2.098633 -0.657227
vt 2.204102 -0.639648
vt 2.391602 -0.617188
vt 2.392578 -0.225586
vt 2.997070 -0.322266
vt 2.997070 -0.011719
vt 2.390625 -0.011719
vt 2.098633 -0.011719
vt 2.098633 -0.225586
vt 1.998047 -0.226562
vt 1.998047 -0.651367
vt 2.098633 -0.657227
vt -0.805664 -1.437500
vt -0.911133 -1.544922
vt -0.805664 -1.500977
vt -0.805664 -1.991211
vt -0.911133 -1.991211
vt 2.199219 -0.011719
vt 2.201172 -0.225586
vt 2.098633 -0.225586
vt 2.098633 -0.657227
vt 2.204102 -0.639648
vt -0.911133 -1.991211
vt -0.911133 -1.544922
vt -0.805664 -1.991211
vt -0.805664 -1.500977
vt -0.805664 -1.437500
vt -0.911133 -1.517578
vt -0.893555 -1.456055
vt -0.999023 -1.540039
vt -0.999023 -1.449219
vt -0.805664 -1.500977
vt -0.805664 -1.437500
vt -0.911133 -1.517578
vt -0.893555 -1.456055
vt -0.805664 -1.991211
vt -0.805664 -1.500977
vt -0.911133 -1.991211
vt -0.911133 -1.517578
vt -0.911133 -1.517578
vt -0.999023 -1.540039
vt -0.893555 -1.456055
vt -0.999023 -1.449219
vt -0.805664 -1.500977
vt -0.911133 -1.517578
vt -0.805664 -1.437500
vt -0.893555 -1.456055
vt -0.805664 -1.991211
vt -0.911133 -1.991211
vt -0.805664 -1.500977
vt -0.911133 -1.517578
vt -0.911133 -1.517578
vt -0.999023 -1.540039
vt -0.893555 -1.456055
vt -0.999023 -1.449219
vt -0.805664 -1.500977
vt -0.911133 -1.517578
vt -0.805664 -1.437500
vt -0.893555 -1.456055
vt -0.805664 -1.991211
vt -0.911133 -1.991211
vt -0.805664 -1.500977
vt -0.911133 -1.517578
vt -0.911133 -1.517578
vt -0.893555 -1.456055
vt -0.999023 -1.540039
vt -0.999023 -1.449219
vt -0.805664 -1.500977
vt -0.805664 -1.437500
vt -0.911133 -1.517578
vt -0.893555 -1.456055
vt -0.805664 -1.991211
vt -0.805664 -1.500977
vt -0.911133 -1.991211
vt -0.911133 -1.517578
vt 2.391602 -0.617188
vt 2.997070 -0.322266
vt 2.997070 -0.999023
vt 1.998047 -0.226562
vt 1.998047 -0.011719
vt 2.098633 -0.011719
vt 2.098633 -0.225586
vt 2.098633 -0.011719
vt 2.199219 -0.011719
vt 0.647461 -1.000000
vt 0.541992 -0.356445
vt 0.541992 -1.000000
vt 0.541992 -1.000000
vt 0.647461 -0.356445
vt 0.647461 -1.000000
vt 2.391602 -0.617188
vt 2.997070 -0.322266
vt 2.997070 -0.999023
vt 1.998047 -0.226562
vt 1.998047 -0.011719
vt 2.098633 -0.011719
vt 2.098633 -0.225586
vt 2.098633 -0.011719
vt 2.199219 -0.011719
vt 0.647461 -1.000000
vt 0.541992 -0.356445
vt 0.541992 -1.000000
vt 0.541992 -1.000000
vt 0.647461 -0.356445
vt 0.647461 -1.000000
vn 0.3792 -0.1752 -0.9086
vn 0.3131 -0.0552 -0.9481
vn 0.3859 -0.1719 -0.9064
vn 0.4559 -0.1658 -0.8745
vn 0.3615 -0.0013 -0.9324
vn 0.3926 -0.0000 -0.9197
vn 0.4762 0.0219 -0.8790
vn 0.3925 0.0246 -0.9194
vn 0.3095 0.0963 -0.9460
vn 0.3925 -0.0246 -0.9194
vn 0.6326 -0.0735 -0.7710
vn 0.5144 0.0209 -0.8573
vn 0.5380 0.0000 -0.8430
vn 0.5609 -0.0208 -0.8276
vn 0.5380 0.0000 -0.8429
vn 0.5380 0.0000 0.8429
vn 0.5609 -0.0208 0.8276
vn 0.5145 0.0209 0.8573
vn 0.6326 -0.0735 0.7710
vn 0.3095 0.0963 0.9460
vn 0.3927 0.0000 0.9197
vn 0.3925 -0.0246 0.9194
vn 0.3925 0.0246 0.9194
vn 0.4102 -0.0860 0.9079
vn 0.3926 -0.0000 0.9197
vn 0.3137 -0.0009 0.9495
vn 0.4703 0.0203 0.8823
vn 0.4620 -0.1652 0.8713
vn 0.3083 -0.2080 0.9283
vn 0.3916 -0.1714 0.9040
vn 0.3353 -0.0994 0.9368
vn 0.3792 -0.1752 0.9086
vn 0.3795 -0.1767 0.9082
vn 0.5980 -0.0559 0.7995
vn 0.6326 -0.0736 0.7709
vn 0.3475 0.0532 0.9362
vn 0.3353 -0.0995 0.9368
vn 0.3353 -0.0994 -0.9368
vn 0.3795 -0.1766 -0.9082
vn 0.3916 -0.1714 -0.9040
vn 0.3083 -0.2081 -0.9283
vn 0.4620 -0.1652 -0.8714
vn 0.3137 -0.0009 -0.9495
vn 0.4703 0.0203 -0.8823
vn 0.4098 -0.0862 -0.9081
vn 0.2321 -0.0000 0.9727
vn 0.2321 0.0000 -0.9727
vn 0.0000 0.0000 1.0000
vn -0.0728 0.0000 0.9973
vn 0.0750 0.0086 0.9971
vn 0.0700 -0.1448 0.9870
vn -0.0680 -0.1704 0.9830
vn 0.0263 -0.2129 0.9767
vn -0.0259 -0.0775 0.9967
vn -0.0738 -0.1447 0.9867
vn 0.0690 -0.1187 0.9905
vn 0.0738 -0.2883 0.9547
vn -0.0657 -0.3204 0.9450
vn 0.0000 -0.2891 0.9573
vn -0.0335 -0.2254 0.9737
vn 0.0000 0.0000 -1.0000
vn 0.0728 0.0000 -0.9973
vn -0.0750 0.0086 -0.9971
vn -0.0700 -0.1448 -0.9870
vn 0.0680 -0.1704 -0.9830
vn -0.0264 -0.2129 -0.9767
vn 0.0260 -0.0775 -0.9967
vn 0.0738 -0.1447 -0.9867
vn -0.0689 -0.1187 -0.9905
vn -0.0738 -0.2884 -0.9547
vn 0.0658 -0.3204 -0.9450
vn 0.0000 -0.2891 -0.9573
vn 0.0334 -0.2254 -0.9737
vn -0.0737 -0.1447 0.9867
vn 0.0689 -0.1187 0.9905
vn 0.0000 -0.2892 0.9573
vn -0.0263 -0.2129 -0.9767
vn 0.0738 -0.1448 -0.9867
vn -0.0737 -0.2884 -0.9547
vn 0.5554 -0.0465 -0.8303
vn 0.5677 0.0364 -0.8224
vn 0.4628 -0.0092 -0.8864
vn 0.6319 -0.1125 -0.7669
vn 0.5834 -0.1179 -0.8036
vn 0.5494 -0.1534 -0.8214
vn 0.5035 -0.1278 -0.8545
vn 0.5619 -0.1761 -0.8082
vn 0.5570 -0.1547 -0.8160
vn -0.0000 0.1964 0.9805
vn -0.0301 0.1033 0.9942
vn -0.0940 0.2249 0.9698
vn 0.0987 0.1954 0.9757
vn -0.0987 -0.0000 0.9951
vn 0.0967 -0.0195 0.9951
vn 0.0195 0.0967 0.9951
vn 1.0000 -0.0000 -0.0000
vn 0.5554 -0.0465 -0.8302
vn 0.4627 -0.0092 -0.8865
vn -0.0300 0.1033 0.9942
vn 0.2464 0.0000 -0.9692
vn 0.2270 0.0508 -0.9726
vn 0.1968 -0.0196 -0.9802
vn 0.3090 -0.0000 -0.9511
vn 0.1624 0.2502 -0.9545
vn 0.2429 0.1684 -0.9553
vn 0.3231 0.2241 -0.9195
vn 0.4628 -0.0092 0.8864
vn 0.5770 0.0482 0.8153
vn 0.6189 -0.1140 0.7772
vn 0.5494 -0.1534 0.8214
vn 0.5834 -0.1179 0.8036
vn 0.5035 -0.1278 0.8545
vn 0.5570 -0.1547 0.8160
vn 0.5619 -0.1761 0.8082
vn -0.0000 0.1964 -0.9805
vn 0.0986 0.1954 -0.9757
vn -0.1043 0.2279 -0.9681
vn -0.0879 -0.0000 -0.9961
vn 0.0967 -0.0195 -0.9951
vn 0.0195 0.0967 -0.9951
vn 0.2429 0.1684 0.9553
vn 0.1624 0.2502 0.9545
vn 0.3231 0.2241 0.9194
vn 0.3090 -0.0000 0.9511
vn 0.1968 -0.0196 0.9802
vn 0.2464 0.0000 0.9692
vn 0.2270 0.0508 0.9726
vn 0.4627 -0.0092 0.8865
vn 0.0987 0.1954 -0.9757
vn 0.3231 0.2240 0.9195
vn 0.3231 0.2240 -0.9195
vn 0.2291 0.1589 0.9603
vn 0.3198 0.2217 0.9212
vn 0.2321 -0.0015 0.9727
vn -0.1588 0.3738 0.9138
vn 0.0000 0.5579 0.8299
vn 0.0000 0.3786 0.9256
vn 0.8217 0.5698 0.0000
vn 0.8218 0.5698 0.0000
vn 0.2291 0.1589 -0.9603
vn 0.2321 -0.0015 -0.9727
vn 0.3197 0.2217 -0.9212
vn 0.0001 0.5579 -0.8299
vn -0.1588 0.3738 -0.9138
vn 0.0000 0.3786 -0.9256
vn 0.2321 -0.0016 -0.9727
vn 0.3198 0.2218 -0.9212
vn 0.0000 0.5580 -0.8299
vn -0.1589 0.3738 -0.9138
vn 0.3198 0.2218 0.9212
vn -0.1589 0.3738 0.9138
usemtl Tex_0054_0.dds
s off
f 1/1/1 3/2/2 2/3/1
f 2/3/3 3/2/3 4/4/4
f 3/2/5 5/5/6 4/4/7
f 4/4/6 5/5/6 6/6/8
f 5/5/6 7/7/9 6/6/10
f 6/6/11 7/7/12 8/8/13
f 7/7/14 9/9/15 8/8/15
f 10/10/16 12/11/17 11/12/16
f 11/12/16 12/11/18 13/13/19
f 12/11/20 14/14/21 13/13/22
f 13/13/23 14/14/21 15/15/24
f 14/14/25 16/16/26 15/15/27
f 15/15/28 16/16/29 17/17/30
f 16/16/31 18/18/32 17/17/33
f 19/19/16 21/20/34 20/21/16
f 20/21/16 21/20/16 22/22/35
f 21/20/36 23/23/25 22/22/22
f 22/22/23 23/23/25 24/24/24
f 23/23/25 25/25/26 24/24/27
f 24/24/28 25/25/29 26/26/30
f 25/25/37 27/27/32 26/26/33
f 28/28/1 30/29/38 29/30/39
f 29/30/40 30/29/41 31/31/42
f 30/29/43 32/32/6 31/31/44
f 31/31/45 32/32/6 33/33/8
f 32/32/6 34/34/9 33/33/10
f 33/33/11 34/34/12 35/35/13
f 34/34/14 36/36/15 35/35/15
f 37/37/46 39/38/46 38/39/46
f 38/39/46 39/38/46 40/40/46
f 39/38/46 41/41/46 40/40/46
f 40/40/46 41/41/46 42/42/46
f 41/41/46 43/43/46 42/42/46
f 44/44/47 46/45/47 45/46/47
f 45/46/47 46/45/47 47/47/47
f 46/45/47 48/48/47 47/47/47
f 47/47/47 48/48/47 49/49/47
f 48/48/47 50/50/47 49/49/47
f 51/51/48 53/52/49 52/53/50
f 52/53/51 53/52/52 54/54/53
f 53/52/54 55/55/55 54/54/56
f 54/54/57 55/55/58 56/56/59
f 55/55/60 57/57/59 56/56/59
f 58/58/61 60/59/62 59/60/63
f 59/60/64 60/59/65 61/61/66
f 60/59/67 62/62/68 61/61/69
f 61/61/70 62/62/71 63/63/72
f 62/62/73 64/64/72 63/63/72
f 65/65/47 67/66/47 66/67/47
f 66/67/47 67/66/47 68/68/47
f 67/66/47 69/69/47 68/68/47
f 68/68/47 69/69/47 70/70/47
f 69/69/47 71/71/47 70/70/47
f 72/72/46 74/73/46 73/74/46
f 73/74/46 74/73/46 75/75/46
f 74/73/46 76/76/46 75/75/46
f 75/75/46 76/76/46 77/77/46
f 76/76/46 78/78/46 77/77/46
f 79/79/48 81/80/49 80/81/50
f 80/81/51 81/80/52 82/82/53
f 81/80/54 83/83/74 82/82/75
f 82/82/57 83/83/58 84/84/59
f 83/83/60 85/85/76 84/84/76
f 86/86/61 88/87/62 87/88/63
f 87/88/64 88/87/65 89/89/77
f 88/87/67 90/90/78 89/89/69
f 89/89/79 90/90/71 91/91/72
f 90/90/73 92/92/72 91/91/72
f 93/93/15 95/94/80 94/95/15
f 94/95/15 95/94/81 96/96/82
f 95/94/83 97/97/84 96/96/85
f 96/96/86 97/97/87 98/98/88
f 99/99/89 101/100/90 100/101/89
f 100/101/89 101/100/91 102/102/92
f 101/100/93 103/103/48 102/102/94
f 102/102/95 103/103/48 104/104/48
f 105/105/96 107/106/96 106/107/96
f 106/107/96 107/106/96 108/108/96
f 107/106/96 109/109/96 108/108/96
f 108/108/96 109/109/96 110/110/96
f 111/111/15 113/112/97 112/113/15
f 112/113/15 113/112/81 114/114/98
f 113/112/83 115/115/84 114/114/85
f 114/114/86 115/115/87 116/116/88
f 117/117/89 119/118/99 118/119/89
f 118/119/89 119/118/91 120/120/92
f 119/118/93 121/121/48 120/120/94
f 120/120/95 121/121/48 122/122/48
f 123/123/96 125/124/96 124/125/96
f 124/125/96 125/124/96 126/126/96
f 125/124/96 127/127/96 126/126/96
f 126/126/96 127/127/96 128/128/96
f 129/129/100 131/130/101 130/131/100
f 130/131/100 131/130/102 132/132/103
f 131/130/104 133/133/105 132/132/106
f 134/134/16 136/135/107 135/136/108
f 135/136/109 136/135/110 137/137/111
f 136/135/112 138/138/113 137/137/114
f 139/139/115 141/140/116 140/141/117
f 140/141/118 141/140/119 142/142/61
f 141/140/120 143/143/61 142/142/61
f 144/144/121 146/145/122 145/146/123
f 145/146/124 146/145/125 147/147/126
f 146/145/127 148/148/126 147/147/126
f 149/149/96 151/150/96 150/151/96
f 150/151/96 151/150/96 152/152/96
f 151/150/96 153/153/96 152/152/96
f 154/154/16 156/155/128 155/156/108
f 155/156/109 156/155/110 157/157/111
f 156/155/112 158/158/113 157/157/114
f 159/159/115 161/160/129 160/161/117
f 160/161/118 161/160/119 162/162/61
f 161/160/120 163/163/61 162/162/61
f 164/164/121 166/165/122 165/166/130
f 165/166/124 166/165/125 167/167/126
f 166/165/127 168/168/126 167/167/126
f 169/169/96 171/170/96 170/171/96
f 170/171/96 171/170/96 172/172/96
f 171/170/96 173/173/96 172/172/96
f 174/174/100 176/175/101 175/176/100
f 175/176/100 176/175/102 177/177/103
f 176/175/104 178/178/105 177/177/131
f 179/179/132 181/180/133 180/181/134
f 180/181/135 181/180/136 182/182/137
f 183/183/138 185/184/138 184/185/138
f 184/185/139 185/184/139 186/186/139
f 187/187/96 189/188/96 188/189/96
f 188/189/96 189/188/96 190/190/96
f 191/191/140 193/192/141 192/193/142
f 192/193/143 193/192/144 194/194/145
f 195/195/139 197/196/139 196/197/139
f 196/197/138 197/196/138 198/198/138
f 199/199/96 201/200/96 200/201/96
f 200/201/96 201/200/96 202/202/96
f 203/203/140 205/204/146 204/205/147
f 204/205/148 205/204/149 206/206/145
f 207/207/139 209/208/139 208/209/139
f 208/209/139 209/208/139 210/210/139
f 211/211/96 213/212/96 212/213/96
f 212/213/96 213/212/96 214/214/96
f 215/215/132 217/216/150 216/217/134
f 216/217/151 217/216/136 218/218/137
f 219/219/138 221/220/138 220/221/138
f 220/221/139 221/220/139 222/222/139
f 223/223/96 225/224/96 224/225/96
f 224/225/96 225/224/96 226/226/96
f 227/227/16 229/228/16 228/229/16
f 230/230/115 232/231/115 231/232/115
f 233/233/96 235/234/96 234/235/96
f 236/236/48 238/237/48 237/238/48
f 239/239/61 241/240/61 240/241/61
f 242/242/16 244/243/16 243/244/16
f 245/245/115 247/246/115 246/247/115
f 248/248/96 250/249/96 249/250/96
f 251/251/48 253/252/48 252/253/48
f 254/254/61 256/255/61 255/256/61
