# Blender v3.6.3 OBJ File: 'untitled.blend'
# www.blender.org
mtllib Mesh_0176.mtl
o Mesh_0176_Mesh.147
v -22.304649 29.209986 9.875473
v -22.304649 30.479986 9.875473
v -22.304649 30.479988 5.300934
v -22.304649 33.255951 9.132317
v -22.304649 33.255955 6.044090
v -22.304649 29.209988 -10.444527
v -22.304649 30.479988 -10.444527
v -22.304649 30.479986 -15.019070
v -22.304649 33.255951 -11.187679
v -22.304649 33.255951 -14.275917
v -22.304649 30.479988 5.300934
v -22.304649 29.209988 5.300934
v -22.304649 29.209986 9.875473
v -22.304649 30.479986 -15.019070
v -22.304649 29.209986 -15.019070
v -22.304649 29.209988 -10.444527
vt 0.003906 -0.995117
vt 1.002930 -0.713867
vt 0.003906 -0.713867
vt 0.167969 -0.112305
vt 0.839844 -0.112305
vt 0.003906 -0.995117
vt 1.002930 -0.713867
vt 0.003906 -0.713867
vt 0.167969 -0.112305
vt 0.839844 -0.112305
vt 1.002930 -0.713867
vt 0.003906 -0.995117
vt 1.002930 -0.995117
vt 1.002930 -0.713867
vt 0.003906 -0.995117
vt 1.002930 -0.995117
vn 1.0000 0.0000 0.0000
usemtl Tex_0063_1.dds
s off
f 1/1/1 3/2/1 2/3/1
f 2/3/1 3/2/1 4/4/1
f 3/2/1 5/5/1 4/4/1
f 6/6/1 8/7/1 7/8/1
f 7/8/1 8/7/1 9/9/1
f 8/7/1 10/10/1 9/9/1
f 11/11/1 13/12/1 12/13/1
f 14/14/1 16/15/1 15/16/1
