# Blender v3.6.3 OBJ File: 'untitled.blend'
# www.blender.org
mtllib Mesh_0145.mtl
o Mesh_0145_Mesh.015
v 11.971395 -0.000010 -9.873291
v 11.971647 0.634990 -9.873520
v 11.996035 -0.000010 -11.040394
v 11.996035 0.634990 -11.040394
v 11.860144 -0.000010 -11.435570
v 11.860144 0.634990 -11.435570
v 11.599031 0.634990 -11.772297
v 11.599031 0.634990 6.628578
v 11.860144 0.634990 6.292030
v 11.860144 -0.000010 6.292030
v 11.996035 0.634990 5.896805
v 11.996035 -0.000010 5.896805
v 11.971647 0.634990 4.728661
v 11.971395 -0.000010 4.728409
v 11.599031 0.634990 -11.772297
v 11.279753 0.634990 -12.057869
v 11.279753 -0.000010 -12.057869
v 10.889101 0.634990 -12.207546
v 10.889101 -0.000010 -12.207546
v 10.484732 -0.000010 -12.262390
v 10.889101 0.634990 -12.207546
v 10.484732 0.634990 -12.262390
v 10.484732 -0.000010 -12.262390
v 10.056742 0.634990 -12.229572
v 10.056742 -0.000010 -12.229572
v 9.661264 -0.000010 -12.089539
v 10.056742 0.634990 -12.229572
v 9.661264 0.634990 -12.089539
v 9.661264 -0.000010 -12.089539
v 9.324717 0.634990 -11.832420
v 9.324713 -0.000010 -11.832420
v 9.048365 -0.000010 -11.487511
v 9.324717 0.634990 -11.832420
v 9.048365 0.634990 -11.487511
v 9.048365 -0.000010 -11.487511
v 8.889612 0.634990 -11.122540
v 8.889612 -0.000010 -11.122540
v 8.832464 -0.000010 -10.659523
v 8.889612 0.634990 -11.122540
v 8.832464 0.634990 -10.659523
v 8.832464 -0.000010 -10.659523
v 8.867514 0.634990 -10.290131
v 8.867514 -0.000010 -10.290131
v 9.052931 -0.000010 -9.880352
v 11.860144 -0.000010 6.292030
v 11.599031 -0.000010 6.628578
v 11.599031 0.634990 6.628578
v 11.279753 -0.000010 6.914330
v 11.279753 0.634990 6.914330
v 10.889101 0.634990 7.063934
v 11.279753 -0.000010 6.914330
v 10.889101 -0.000010 7.063934
v 10.889101 0.634990 7.063934
v 10.484732 -0.000010 7.118797
v 10.484732 0.634990 7.118797
v 10.056742 0.634990 7.086037
v 10.484732 -0.000010 7.118797
v 10.056742 -0.000010 7.086037
v 10.056742 0.634990 7.086037
v 9.661261 -0.000010 6.945824
v 9.661261 0.634990 6.945824
v 9.324713 0.634990 6.688782
v 9.661261 -0.000010 6.945824
v 9.324713 -0.000010 6.688782
v 9.324713 0.634990 6.688782
v 9.048365 -0.000010 6.343849
v 9.048365 0.634990 6.343849
v 8.889612 0.634990 5.978851
v 9.048365 -0.000010 6.343849
v 8.889612 -0.000010 5.978851
v 8.889612 0.634990 5.978851
v 8.832464 -0.000010 5.515808
v 8.832464 0.634990 5.515808
v 8.867514 0.634990 5.146492
v 8.832464 -0.000010 5.515808
v 8.867514 -0.000010 5.146492
v 8.867514 0.634990 5.146492
v 9.052931 -0.000010 4.736786
v 9.052942 0.634990 4.736763
v -3.268225 8.254990 -7.524517
v -3.268503 7.619989 -7.524452
v -3.268225 8.254991 2.379654
v -3.268503 7.619989 2.379494
v -4.538479 8.889991 -7.671387
v -4.538504 8.254990 -7.671288
v -4.538481 8.889991 2.526489
v -4.538504 8.254991 2.526321
v -5.808502 8.889991 3.144310
v -5.807922 9.524990 3.144295
v -5.808504 8.889991 -8.289299
v -5.807920 9.524990 -8.289268
v -7.078625 10.159987 -10.191807
v -7.078625 9.524990 -10.191807
v -7.078588 10.159989 5.048195
v -7.078554 9.524989 5.061424
v 1.812958 5.714990 -7.857975
v 1.811459 5.079990 -7.857368
v 1.812958 5.714990 2.713005
v 1.811459 5.079990 2.712448
v 0.542892 6.349990 -7.741951
v 0.541496 5.714990 -7.739281
v 0.542892 6.349989 2.597076
v 0.541496 5.714990 2.594353
v -0.728504 6.349989 2.512497
v -0.728127 6.984990 2.512291
v -0.728504 6.349990 -7.657372
v -0.728127 6.984990 -7.657219
v -1.998503 6.984990 2.441223
v -1.998341 7.619989 2.441200
v -1.998503 6.984990 -7.586197
v -1.998354 7.619989 -7.586147
v 6.891459 2.539990 3.501900
v 6.891634 3.174990 3.501419
v 6.891459 2.539990 -8.646828
v 6.891634 3.174990 -8.646393
v 5.621454 3.174990 3.245850
v 5.621416 3.809990 3.245811
v 5.621462 3.174989 -8.390766
v 5.621424 3.809989 -8.390690
v 4.351458 3.809989 3.038826
v 4.351423 4.444989 3.037498
v 4.351454 3.809991 -8.183731
v 4.351423 4.444990 -8.182362
v 3.081457 4.444990 2.863518
v 3.081736 5.079990 2.862534
v 3.081457 4.444990 -8.008373
v 3.081736 5.079990 -8.007431
v 11.971647 0.634990 -9.873520
v 11.971395 -0.000010 -9.873291
v 11.971647 0.634990 4.728661
v 11.971395 -0.000010 4.728409
v 10.702383 1.269990 -9.551735
v 10.701136 0.634990 -9.562801
v 10.703146 1.269990 4.409401
v 10.702940 0.634990 4.407883
v 9.432180 1.269990 4.084511
v 9.433779 1.904990 4.084114
v 9.432180 1.269990 -9.229492
v 9.433779 1.904990 -9.228989
v 8.161650 2.539990 -8.913834
v 8.161459 1.904990 -8.913803
v 8.161650 2.539990 3.768875
v 8.161459 1.904990 3.768860
v 11.860144 -0.000010 -11.435570
v 11.599031 0.634990 -11.772297
v 11.599031 -0.000010 -11.772297
v 11.279753 -0.000010 -12.057869
v -19.764633 10.794991 -10.191807
v -7.079369 10.794991 -10.191807
v -19.764641 10.159990 -10.191807
v -7.078625 10.159987 -10.191807
v -19.764633 11.429990 -11.461807
v -7.440022 11.429990 -11.461807
v -19.764633 10.794990 -11.461807
v -7.441801 10.794990 -11.460266
v -19.764633 12.064989 -12.731804
v -7.440531 12.064989 -12.731804
v -19.764633 11.429990 -12.731804
v -7.441801 11.429990 -12.730267
v -19.764633 12.699990 -14.001804
v -7.441196 12.699990 -14.001980
v -19.764633 12.064990 -14.001804
v -7.441801 12.064990 -14.001804
v -7.079319 10.794990 5.061554
v -19.764633 10.794990 5.048195
v -7.078588 10.159989 5.048195
v -19.764641 10.159989 5.048195
v -7.439999 11.429989 6.318192
v -19.764633 11.429989 6.321243
v -7.441774 10.794990 6.315117
v -19.764633 10.794990 6.321243
v -7.440504 12.064989 7.588196
v -19.764633 12.064989 7.591240
v -7.441774 11.429989 7.585114
v -19.764633 11.429989 7.591240
v -7.441275 12.699990 8.858444
v -19.764633 12.699990 8.861244
v -7.441774 12.064990 8.858192
v -19.764633 12.064990 8.861244
v 9.052942 0.634990 -9.880352
v 9.052931 -0.000010 -9.880352
v 8.867514 0.634990 -10.290131
vt 2.559570 -0.999023
vt 2.153320 -0.999023
vt 2.558594 0.000000
vt 2.153320 0.000000
vt 1.984375 -0.999023
vt 1.984375 0.000000
vt 1.801758 0.000000
vt 1.801758 0.000000
vt 1.984375 -0.999023
vt 1.984375 0.000000
vt 2.153320 0.000000
vt 2.153320 -0.999023
vt 2.558594 0.000000
vt 2.559570 -0.999023
vt 1.801758 0.000000
vt 1.600586 -0.999023
vt 1.600586 0.000000
vt 1.394531 0.000000
vt 1.394531 -0.999023
vt 1.181641 -0.999023
vt 1.394531 0.000000
vt 1.181641 -0.999023
vt 1.181641 0.000000
vt 0.955078 0.000000
vt 0.955078 -0.999023
vt 0.741211 -0.999023
vt 0.955078 0.000000
vt 0.741211 -0.999023
vt 0.741211 0.000000
vt 0.535156 0.000000
vt 0.535156 -0.999023
vt 0.335938 -0.999023
vt 0.535156 0.000000
vt 0.335938 -0.999023
vt 0.335938 0.000000
vt 0.168945 0.000000
vt 0.168945 -0.999023
vt -0.014648 -0.999023
vt 0.168945 0.000000
vt -0.014648 -0.999023
vt -0.014648 0.000000
vt -0.150391 0.000000
vt -0.150391 -0.999023
vt -0.310547 -0.999023
vt 1.984375 -0.999023
vt 1.801758 0.000000
vt 1.801758 -0.999023
vt 1.600586 -0.999023
vt 1.600586 0.000000
vt 1.394531 0.000000
vt 1.600586 -0.999023
vt 1.394531 0.000000
vt 1.394531 -0.999023
vt 1.181641 -0.999023
vt 1.181641 0.000000
vt 0.955078 0.000000
vt 1.181641 -0.999023
vt 0.955078 0.000000
vt 0.955078 -0.999023
vt 0.741211 -0.999023
vt 0.741211 0.000000
vt 0.535156 0.000000
vt 0.741211 -0.999023
vt 0.535156 0.000000
vt 0.535156 -0.999023
vt 0.335938 -0.999023
vt 0.335938 0.000000
vt 0.168945 0.000000
vt 0.335938 -0.999023
vt 0.168945 0.000000
vt 0.168945 -0.999023
vt -0.014648 -0.999023
vt -0.014648 0.000000
vt -0.150391 0.000000
vt -0.014648 -0.999023
vt -0.150391 0.000000
vt -0.150391 -0.999023
vt -0.310547 -0.999023
vt -0.310547 0.000000
vt 2.188477 3.996094
vt 0.553711 3.996094
vt 2.188477 2.997070
vt 0.553711 2.997070
vt 1.711914 4.995117
vt -0.414062 4.995117
vt 1.711914 3.996094
vt -0.414062 3.996094
vt 0.136719 4.995117
vt 2.383789 4.995117
vt 0.136719 5.994141
vt 2.383789 5.994141
vt 2.297852 6.993164
vt -0.702148 6.993164
vt 2.297852 5.994141
vt -0.702148 6.097656
vt 2.464844 0.000000
vt 0.500000 0.000000
vt 2.464844 -0.999023
vt 0.500000 -0.999023
vt 2.016602 0.999023
vt -0.015625 0.999023
vt 2.016602 0.000000
vt -0.014648 0.000000
vt -0.823242 0.999023
vt 1.935547 0.999023
vt -0.823242 1.998047
vt 1.935547 1.998047
vt 0.015625 1.998047
vt 1.986328 1.998047
vt 0.015625 2.997070
vt 1.986328 2.997070
vt 0.296875 -4.995117
vt 2.482422 -4.995117
vt 0.296875 -3.996094
vt 2.482422 -3.996094
vt 0.063477 -3.996094
vt 2.530273 -3.996094
vt 0.063477 -2.997070
vt 2.530273 -2.997070
vt -0.156250 -2.997070
vt 1.750977 -2.997070
vt -0.156250 -1.998047
vt 1.750977 -1.998047
vt 0.060547 -1.998047
vt 1.941406 -1.998047
vt 0.060547 -0.999023
vt 1.940430 -0.999023
vt -0.436523 0.000000
vt 2.436523 0.000000
vt -0.436523 -0.999023
vt 2.435547 -0.999023
vt 2.718750 -6.993164
vt 0.605469 -6.993164
vt 2.718750 -7.992188
vt 0.605469 -7.992188
vt -1.011719 -6.993164
vt 1.605469 -6.993164
vt -1.011719 -5.994141
vt 1.605469 -5.994141
vt 2.247070 -4.995117
vt -0.245117 -4.995117
vt 2.247070 -5.994141
vt -0.245117 -5.994141
vt 1.984375 -0.999023
vt 1.801758 -0.999023
vt 1.801758 0.000000
vt 1.600586 -0.999023
vt 1.178711 0.000000
vt 1.178711 -0.999023
vt 2.588867 0.000000
vt 2.588867 -0.999023
vt 0.779297 0.000000
vt 0.779297 -0.999023
vt 2.219727 0.000000
vt 2.219727 -0.999023
vt 1.312500 0.000000
vt 1.312500 -0.999023
vt 2.832031 0.000000
vt 2.832031 -0.999023
vt 1.000000 0.000000
vt 1.000000 -0.999023
vt 1.999023 0.000000
vt 1.999023 -0.999023
vt 0.963867 0.000000
vt 0.963867 -0.999023
vt 2.584961 0.000000
vt 2.584961 -0.999023
vt 0.763672 0.000000
vt 0.763672 -0.999023
vt 2.235352 0.000000
vt 2.235352 -0.999023
vt 1.273438 0.000000
vt 1.273438 -0.999023
vt 2.838867 0.000000
vt 2.838867 -0.999023
vt 0.846680 0.000000
vt 0.846680 -0.999023
vt 2.418945 0.000000
vt 2.418945 -0.999023
vt -0.310547 0.000000
vt -0.150391 0.000000
vt -0.310547 -0.999023
vn 0.9998 -0.0004 0.0211
vn 0.9689 -0.1272 -0.2122
vn 0.9998 0.0000 0.0209
vn 0.9953 0.0944 0.0208
vn 0.9423 -0.0841 -0.3239
vn 0.9167 -0.1021 -0.3863
vn 0.8453 0.1400 -0.5157
vn 0.9457 0.0000 -0.3252
vn 0.9329 0.1635 -0.3208
vn 0.6695 -0.1139 -0.7340
vn 0.7902 0.0000 -0.6128
vn 0.7796 0.1635 -0.6046
vn 0.7901 0.0000 0.6130
vn 0.6969 -0.0904 0.7114
vn 0.7794 0.1636 0.6047
vn 0.9329 0.1636 0.3208
vn 0.9775 -0.0906 0.1905
vn 0.9620 0.1794 0.2059
vn 0.9457 0.0000 0.3251
vn 0.9311 -0.1752 0.3201
vn 0.9906 0.1352 -0.0207
vn 0.9826 -0.1539 -0.1041
vn 0.9998 0.0000 -0.0209
vn 0.9875 -0.0844 0.1331
vn 0.9998 -0.0004 -0.0211
vn 0.6667 0.0000 -0.7454
vn 0.8052 -0.1464 -0.5747
vn 0.6557 0.1809 -0.7330
vn 0.3519 0.1809 -0.9184
vn 0.2789 -0.0544 -0.9588
vn 0.3256 0.0512 -0.9441
vn 0.4068 -0.0826 -0.9098
vn 0.3554 -0.1153 -0.9276
vn 0.4050 0.0338 -0.9137
vn -0.0083 0.0913 -0.9958
vn 0.1335 -0.1153 -0.9843
vn 0.1344 0.0000 -0.9909
vn 0.2441 -0.0719 -0.9671
vn -0.0765 0.0000 -0.9971
vn -0.1160 0.0589 -0.9915
vn -0.0328 -0.0645 -0.9974
vn -0.0758 -0.1315 -0.9884
vn -0.0175 0.0398 -0.9991
vn -0.4781 0.1055 -0.8719
vn -0.3309 -0.1315 -0.9345
vn -0.3338 0.0000 -0.9427
vn -0.1474 -0.1246 -0.9812
vn -0.3297 0.1554 -0.9312
vn -0.5997 0.1554 -0.7850
vn -0.6605 -0.0466 -0.7494
vn -0.6355 0.0562 -0.7701
vn -0.5679 -0.0699 -0.8201
vn -0.6026 -0.1212 -0.7888
vn -0.5610 0.0375 -0.8269
vn -0.8580 0.0997 -0.5039
vn -0.7747 -0.1212 -0.6207
vn -0.7804 0.0000 -0.6253
vn -0.6685 -0.1087 -0.7358
vn -0.7735 0.1322 -0.6198
vn -0.9090 0.1322 -0.3954
vn -0.9394 -0.0391 -0.3406
vn -0.9313 0.0696 -0.3575
vn -0.8989 -0.0624 -0.4337
vn -0.9075 -0.1432 -0.3948
vn -0.8861 0.0436 -0.4614
vn -0.9918 0.1206 0.0430
vn -0.9822 -0.1432 -0.1212
vn -0.9925 0.0000 -0.1225
vn -0.9653 -0.0915 -0.2446
vn -0.9866 0.1085 -0.1218
vn -0.9896 0.1085 0.0939
vn -0.9885 -0.0314 0.1478
vn -0.9869 0.0798 0.1405
vn -0.9966 -0.0538 0.0630
vn -0.9820 -0.1644 0.0932
vn -0.9988 0.0466 0.0146
vn -0.8062 0.1362 0.5758
vn -0.8987 -0.1644 0.4066
vn -0.9111 0.0000 0.4122
vn 0.8424 0.0627 0.5352
vn 0.6669 0.0000 0.7451
vn 0.6230 -0.0809 0.7780
vn 0.6937 0.0564 0.7180
vn 0.6559 0.1812 0.7328
vn 0.7241 -0.0546 0.6876
vn 0.1396 -0.1449 0.9795
vn 0.3517 0.1812 0.9184
vn 0.3576 0.0000 0.9339
vn 0.4834 0.0923 0.8705
vn 0.3553 -0.1152 0.9276
vn 0.1335 -0.1152 0.9843
vn 0.0823 0.0336 0.9960
vn 0.1032 -0.0486 0.9935
vn 0.1675 0.0524 0.9845
vn 0.1337 0.1054 0.9854
vn 0.1824 -0.0313 0.9827
vn -0.2016 -0.0856 0.9757
vn -0.0759 0.1054 0.9915
vn -0.0763 0.0000 0.9971
vn 0.0827 0.1069 0.9908
vn -0.0756 -0.1318 0.9884
vn -0.3313 -0.1318 0.9343
vn -0.3901 0.0398 0.9199
vn -0.3768 -0.0703 0.9236
vn -0.2958 0.0603 0.9534
vn -0.3301 0.1552 0.9311
vn -0.2667 -0.0465 0.9627
vn -0.7403 -0.1249 0.6606
vn -0.5996 0.1552 0.7851
vn -0.6070 0.0000 0.7947
vn -0.4810 0.0977 0.8712
vn -0.6025 -0.1212 0.7889
vn -0.7747 -0.1212 0.6206
vn -0.8126 0.0377 0.5816
vn -0.8033 -0.0569 0.5928
vn -0.7552 0.0541 0.6533
vn -0.7736 0.1322 0.6198
vn -0.7430 -0.0396 0.6682
vn -0.9652 -0.1033 0.2400
vn -0.9090 0.1322 0.3953
vn -0.9170 0.0000 0.3988
vn -0.8252 0.1119 0.5536
vn -0.9076 -0.1432 0.3947
vn -0.9822 -0.1432 0.1212
vn -0.9971 0.0445 0.0621
vn -0.9949 -0.0440 0.0902
vn -0.9842 0.0605 0.1663
vn -0.9866 0.1085 0.1218
vn -0.9856 -0.0323 0.1660
vn -0.9691 -0.0818 -0.2326
vn -0.9896 0.1085 -0.0939
vn -0.9955 0.0000 -0.0945
vn -0.9851 0.1237 0.1192
vn -0.9820 -0.1644 -0.0932
vn -0.8986 -0.1644 -0.4067
vn -0.8802 0.0477 -0.4723
vn -0.9110 0.0000 -0.4123
vn -0.9276 0.0673 -0.3675
vn 1.0000 -0.0004 0.0000
vn 1.0000 -0.0000 0.0000
vn 1.0000 -0.0009 -0.0000
vn 1.0000 0.0001 -0.0000
vn 1.0000 -0.0024 0.0000
vn 1.0000 -0.0022 0.0000
vn 1.0000 -0.0006 0.0000
vn 1.0000 -0.0003 0.0000
vn 1.0000 -0.0002 -0.0000
vn 1.0000 -0.0020 -0.0001
vn 1.0000 -0.0036 -0.0001
vn 1.0000 0.0012 -0.0001
vn 1.0000 -0.0003 -0.0001
vn 1.0000 -0.0025 -0.0000
vn 0.7870 -0.0906 -0.6103
vn 0.8332 0.0506 -0.5507
vn 0.6081 0.0506 -0.7923
vn 0.6639 -0.0906 -0.7423
vn 0.0000 0.0000 1.0000
vn 0.0000 -0.0023 1.0000
vn -0.0001 0.0024 1.0000
vn -0.0001 0.0048 1.0000
vn -0.0001 0.0047 1.0000
vn 0.0000 0.0003 1.0000
vn -0.0000 0.0006 1.0000
vn 0.0011 0.0210 -0.9998
vn 0.0015 0.0210 -0.9998
vn 0.0011 0.0414 -0.9991
vn -0.0007 0.0000 -1.0000
vn -0.0000 -0.0204 -0.9998
vn 0.0000 0.0000 -1.0000
vn -0.0002 0.0048 -1.0000
vn -0.0002 0.0095 -1.0000
vn -0.0005 0.0000 -1.0000
vn -0.0005 -0.0047 -1.0000
vn -0.0002 0.0049 -1.0000
vn -0.0002 0.0004 -1.0000
vn -0.0002 0.0007 -1.0000
vn -0.0002 0.0000 -1.0000
vn -0.9111 0.0000 0.4123
usemtl Tex_0009_0.dds.001
s off
f 1/1/1 3/2/2 2/3/1
f 2/3/3 3/2/3 4/4/4
f 3/2/5 5/5/6 4/4/7
f 4/4/8 5/5/8 6/6/9
f 5/5/10 7/7/11 6/6/12
f 8/8/13 10/9/14 9/10/15
f 9/10/16 10/9/17 11/11/18
f 10/9/19 12/12/20 11/11/19
f 11/11/21 12/12/22 13/13/23
f 12/12/24 14/14/25 13/13/25
f 15/15/26 17/16/27 16/17/28
f 16/17/29 17/16/30 18/18/31
f 17/16/32 19/19/33 18/18/34
f 18/18/35 19/19/36 20/20/37
f 21/21/37 23/22/38 22/23/37
f 22/23/39 23/22/39 24/24/40
f 23/22/41 25/25/42 24/24/43
f 24/24/44 25/25/45 26/26/46
f 27/27/46 29/28/47 28/29/48
f 28/29/49 29/28/50 30/30/51
f 29/28/52 31/31/53 30/30/54
f 30/30/55 31/31/56 32/32/57
f 33/33/57 35/34/58 34/35/59
f 34/35/60 35/34/61 36/36/62
f 35/34/63 37/37/64 36/36/65
f 36/36/66 37/37/67 38/38/68
f 39/39/68 41/40/69 40/41/70
f 40/41/71 41/40/72 42/42/73
f 41/40/74 43/43/75 42/42/76
f 42/42/77 43/43/78 44/44/79
f 45/45/13 47/46/80 46/47/13
f 46/47/81 47/46/81 48/48/82
f 47/46/83 49/49/84 48/48/85
f 48/48/86 49/49/87 50/50/88
f 51/51/88 53/52/89 52/53/90
f 52/53/91 53/52/92 54/54/93
f 53/52/94 55/55/95 54/54/96
f 54/54/97 55/55/98 56/56/99
f 57/57/99 59/58/100 58/59/101
f 58/59/102 59/58/103 60/60/104
f 59/58/105 61/61/106 60/60/107
f 60/60/108 61/61/109 62/62/110
f 63/63/110 65/64/111 64/65/112
f 64/65/113 65/64/114 66/66/115
f 65/64/116 67/67/117 66/66/118
f 66/66/119 67/67/120 68/68/121
f 69/69/121 71/70/122 70/71/123
f 70/71/124 71/70/125 72/72/126
f 71/70/127 73/73/128 72/72/129
f 72/72/130 73/73/131 74/74/132
f 75/75/132 77/76/133 76/77/134
f 76/77/135 77/76/136 78/78/137
f 77/76/138 79/79/137 78/78/137
f 80/80/139 82/81/139 81/82/139
f 81/82/139 82/81/139 83/83/139
f 84/84/140 86/85/140 85/86/140
f 85/86/140 86/85/140 87/87/140
f 88/88/141 90/89/141 89/90/141
f 89/90/141 90/89/141 91/91/141
f 92/92/140 94/93/140 93/94/140
f 93/94/142 94/93/142 95/95/142
f 96/96/143 98/97/143 97/98/143
f 97/98/143 98/97/143 99/99/143
f 100/100/144 102/101/144 101/102/144
f 101/102/144 102/101/144 103/103/144
f 104/104/145 106/105/145 105/106/145
f 105/106/145 106/105/145 107/107/145
f 108/108/146 110/109/146 109/110/146
f 109/110/147 110/109/147 111/111/147
f 112/112/146 114/113/146 113/114/146
f 113/114/146 114/113/146 115/115/146
f 116/116/142 118/117/142 117/118/142
f 117/118/142 118/117/142 119/119/142
f 120/120/142 122/121/142 121/122/142
f 121/122/140 122/121/140 123/123/140
f 124/124/139 126/125/139 125/126/139
f 125/126/139 126/125/139 127/127/139
f 128/128/139 130/129/139 129/130/139
f 129/130/139 130/129/139 131/131/139
f 132/132/148 134/133/149 133/134/148
f 133/134/150 134/133/151 135/135/151
f 136/136/152 138/137/152 137/138/152
f 137/138/152 138/137/152 139/139/152
f 140/140/146 142/141/146 141/142/146
f 141/142/146 142/141/146 143/143/146
f 144/144/11 146/145/153 145/146/154
f 145/146/155 146/145/156 147/147/26
f 148/148/157 150/149/157 149/150/157
f 149/150/157 150/149/157 151/151/157
f 152/152/157 154/153/157 153/154/158
f 153/154/159 154/153/160 155/155/159
f 156/156/157 158/157/157 157/158/158
f 157/158/159 158/157/161 159/159/159
f 160/160/157 162/161/157 161/162/157
f 161/162/162 162/161/163 163/163/162
f 164/164/164 166/165/165 165/166/166
f 165/166/167 166/165/168 167/167/169
f 168/168/170 170/169/170 169/170/171
f 169/170/172 170/169/173 171/171/172
f 172/172/174 174/173/174 173/174/171
f 173/174/172 174/173/173 175/175/172
f 176/176/175 178/177/175 177/178/176
f 177/178/177 178/177/177 179/179/177
f 180/180/178 182/181/178 181/182/178
