# Blender v3.6.3 OBJ File: 'untitled.blend'
# www.blender.org
mtllib Mesh_0251.mtl
o Mesh_0251_Mesh.063
v 5.635412 8.484329 -27.593689
v 5.762693 8.411534 -27.593685
v 5.635412 8.108054 -27.593689
v 6.986467 7.675569 -27.593689
v 6.822889 7.352506 -27.593689
v 7.960123 6.835515 -27.593693
v 7.748236 6.532238 -27.593697
v 8.571398 5.977680 -27.593689
v 8.280424 5.771941 -27.593689
v 8.877764 5.101482 -27.593685
v 8.558710 4.925918 -27.593689
v 2.712118 4.925918 -27.593689
v 2.393068 5.101482 -27.593685
v 2.990404 5.771941 -27.593689
v 2.699430 5.977680 -27.593689
v 3.522593 6.532238 -27.593697
v 3.310705 6.835515 -27.593693
v 4.447939 7.352506 -27.593689
v 4.284365 7.675569 -27.593689
v 5.635412 8.108054 -27.593689
v 5.508135 8.411534 -27.593685
v 5.635412 8.484329 -27.593689
v 3.491762 4.321219 -29.051311
v 2.846376 4.803895 -27.971813
v 3.708189 5.037728 -29.051311
v 3.127954 5.600465 -27.971813
v 4.087034 5.734044 -29.051304
v 3.620863 6.374581 -27.971813
v 4.758375 6.445446 -29.051311
v 4.494318 7.165435 -27.971817
v 5.635412 7.106007 -29.051308
v 5.635412 7.899825 -27.971806
v 2.393068 5.101482 -27.593685
v 2.393068 5.101482 -27.971806
v 2.699430 5.977680 -27.593689
v 2.699434 5.977680 -27.971813
v 3.310705 6.835515 -27.593693
v 3.310705 6.835515 -27.971806
v 4.284365 7.675569 -27.593689
v 4.284365 7.675569 -27.971806
v 5.133764 8.188903 -27.722122
v 5.134195 8.188903 -27.971813
v 5.635412 8.108054 -27.593689
v 5.635412 7.899825 -27.971806
v 4.447939 7.352506 -27.593689
v 4.494318 7.165435 -27.971817
v 3.522593 6.532238 -27.593697
v 3.620863 6.374581 -27.971813
v 2.990404 5.771941 -27.593689
v 3.127954 5.600465 -27.971813
v 2.712118 4.925918 -27.593689
v 2.846376 4.803895 -27.971813
v 8.424452 4.803895 -27.971813
v 7.562635 5.037728 -29.051311
v 8.142878 5.600465 -27.971813
v 7.183790 5.734044 -29.051304
v 7.649961 6.374581 -27.971813
v 6.512449 6.445446 -29.051311
v 6.776510 7.165435 -27.971817
v 5.635412 7.106007 -29.051308
v 5.635412 7.899825 -27.971806
v 8.877764 5.101482 -27.971806
v 8.571398 5.977680 -27.593689
v 8.571394 5.977680 -27.971813
v 7.960123 6.835515 -27.593693
v 7.960123 6.835515 -27.971806
v 6.986467 7.675569 -27.593689
v 6.986467 7.675569 -27.971806
v 6.137064 8.188903 -27.722122
v 6.136633 8.188903 -27.971813
v 5.635412 7.899825 -27.971806
v 6.822889 7.352506 -27.593689
v 6.776510 7.165435 -27.971817
v 7.748236 6.532238 -27.593697
v 7.649961 6.374581 -27.971813
v 8.280424 5.771941 -27.593689
v 8.142878 5.600465 -27.971813
v 8.558710 4.925918 -27.593689
v 8.424452 4.803895 -27.971813
v 6.986467 7.675569 -27.593689
v 5.762693 8.411534 -27.593685
v 6.137064 8.188903 -27.722122
v 5.889948 8.338737 -27.722115
v 4.284365 7.675569 -27.593689
v 5.133764 8.188903 -27.722122
v 5.508135 8.411534 -27.593685
v 5.380880 8.338737 -27.722115
v 7.779058 4.321219 -29.051311
v 7.562635 5.037728 -29.051311
v 8.424452 4.803895 -27.971813
v 8.877764 5.101482 -27.593685
v 8.571398 5.977680 -27.593689
v 8.877764 5.101482 -27.971806
v 6.822889 7.352506 -27.593689
v 5.635412 7.899825 -27.971806
v 5.635412 8.108054 -27.593689
vt 0.083984 -0.001953
vt 0.196289 -0.001953
vt 0.083984 -0.029297
vt 0.083984 -0.293945
vt 0.196289 -0.293945
vt 0.083984 -0.572266
vt 0.196289 -0.572266
vt 0.083984 -0.806641
vt 0.196289 -0.806641
vt 0.083984 -0.989258
vt 0.196289 -0.989258
vt 0.196289 -0.989258
vt 0.196289 -0.806641
vt 0.083984 -0.989258
vt 0.083984 -0.806641
vt 0.196289 -0.572266
vt 0.083984 -0.572266
vt 0.196289 -0.293945
vt 0.083984 -0.293945
vt 0.196289 -0.001953
vt 0.083984 -0.029297
vt 0.083984 -0.001953
vt 0.997070 -0.989258
vt 0.997070 -0.806641
vt 0.380859 -0.989258
vt 0.380859 -0.806641
vt 0.997070 -0.572266
vt 0.380859 -0.572266
vt 0.997070 -0.293945
vt 0.380859 -0.293945
vt 0.997070 -0.001953
vt 0.380859 -0.001953
vt 0.083984 -0.989258
vt 0.083984 -0.806641
vt -0.001953 -0.989258
vt -0.001953 -0.806641
vt 0.083984 -0.572266
vt -0.001953 -0.572266
vt 0.083984 -0.293945
vt -0.001953 -0.293945
vt 0.029297 -0.140625
vt -0.001953 -0.140625
vt 0.196289 -0.001953
vt 0.196289 -0.293945
vt 0.380859 -0.001953
vt 0.380859 -0.293945
vt 0.196289 -0.572266
vt 0.380859 -0.572266
vt 0.196289 -0.806641
vt 0.380859 -0.806641
vt 0.196289 -0.989258
vt 0.380859 -0.989258
vt 0.380859 -0.989258
vt 0.380859 -0.806641
vt 0.997070 -0.806641
vt 0.997070 -0.572266
vt 0.380859 -0.572266
vt 0.997070 -0.293945
vt 0.380859 -0.293945
vt 0.997070 -0.001953
vt 0.380859 -0.001953
vt -0.001953 -0.989258
vt -0.001953 -0.806641
vt 0.083984 -0.806641
vt 0.083984 -0.572266
vt -0.001953 -0.572266
vt 0.083984 -0.293945
vt -0.001953 -0.293945
vt 0.029297 -0.140625
vt -0.001953 -0.140625
vt 0.380859 -0.001953
vt 0.380859 -0.293945
vt 0.196289 -0.293945
vt 0.196289 -0.572266
vt 0.380859 -0.572266
vt 0.196289 -0.806641
vt 0.380859 -0.806641
vt 0.196289 -0.989258
vt 0.380859 -0.989258
vt 0.083984 -0.293945
vt 0.029297 -0.140625
vt 0.083984 -0.029297
vt 0.060547 -0.048828
vt 0.083984 -0.293945
vt 0.083984 -0.029297
vt 0.029297 -0.140625
vt 0.060547 -0.048828
vt 0.997070 -0.989258
vt 0.380859 -0.989258
vt 0.997070 -0.806641
vt 0.083984 -0.989258
vt -0.001953 -0.989258
vt 0.083984 -0.806641
vt 0.196289 -0.293945
vt 0.196289 -0.001953
vt 0.380859 -0.001953
vn -0.0000 0.0000 1.0000
vn 0.7836 -0.2367 0.5743
vn 0.7320 -0.2561 0.6314
vn 0.7944 -0.2114 0.5694
vn 0.7862 -0.2779 0.5520
vn 0.7784 -0.2343 0.5824
vn 0.8216 -0.3036 0.4825
vn 0.6689 -0.3537 0.6538
vn 0.6394 -0.3970 0.6585
vn 0.7110 -0.4216 0.5628
vn 0.7520 -0.4417 0.4893
vn 0.7012 -0.3973 0.5920
vn 0.7344 -0.4861 0.4737
vn 0.5515 -0.5018 0.6663
vn 0.5391 -0.5422 0.6445
vn 0.5820 -0.5978 0.5514
vn 0.6292 -0.6292 0.4563
vn 0.5542 -0.6066 0.5700
vn 0.5695 -0.6529 0.4994
vn 0.4905 -0.6218 0.6106
vn 0.4846 -0.6434 0.5927
vn 0.5009 -0.6738 0.5433
vn 0.5003 -0.7342 0.4590
vn 0.4261 -0.7288 0.5360
vn 0.4603 -0.7152 0.5259
vn -0.9440 0.3301 0.0000
vn -0.8915 0.4499 0.0531
vn -0.9521 0.2766 0.1305
vn -0.9345 0.3268 -0.1409
vn -0.8063 0.5745 0.1409
vn -0.7432 0.6678 0.0404
vn -0.7786 0.6133 -0.1326
vn -0.8832 0.4665 -0.0476
vn -0.8320 0.5432 0.1126
vn -0.8097 0.5769 -0.1076
vn -0.6486 0.7517 0.1196
vn -0.5451 0.8374 0.0395
vn -0.6195 0.7748 -0.1262
vn -0.6532 0.7571 0.0000
vn -0.6509 0.7545 -0.0841
vn -0.5140 0.8574 0.0275
vn -0.5171 0.8559 0.0007
vn -0.4979 0.8634 -0.0815
vn -0.5850 0.8108 -0.0223
vn -0.5170 0.8560 -0.0009
vn 0.4868 -0.7651 0.4214
vn 0.5431 -0.7390 0.3987
vn 0.4846 -0.7662 0.4220
vn 0.4844 -0.7527 0.4458
vn 0.4856 -0.7873 0.3800
vn 0.4699 -0.7245 0.5043
vn 0.6231 -0.7052 0.3382
vn 0.6826 -0.6338 0.3639
vn 0.6008 -0.6502 0.4650
vn 0.5471 -0.6966 0.4641
vn 0.6059 -0.7125 0.3538
vn 0.5760 -0.6179 0.5351
vn 0.7777 -0.5481 0.3079
vn 0.8274 -0.4660 0.3135
vn 0.7305 -0.4767 0.4890
vn 0.6431 -0.5163 0.5656
vn 0.7551 -0.5177 0.4022
vn 0.6782 -0.4392 0.5893
vn 0.8976 -0.3086 0.3147
vn 0.8411 -0.2767 0.4648
vn 0.8312 -0.2175 0.5116
vn 0.8316 -0.3954 0.3900
vn 0.8575 -0.3156 0.4063
vn 0.8622 -0.3048 0.4045
vn -0.7795 -0.2755 0.5626
vn -0.8216 -0.3036 0.4825
vn -0.7870 -0.1874 0.5877
vn -0.6909 -0.3759 0.6175
vn -0.7110 -0.4216 0.5628
vn -0.6394 -0.3970 0.6585
vn -0.7520 -0.4417 0.4893
vn -0.7344 -0.4861 0.4737
vn -0.7012 -0.3973 0.5920
vn -0.5515 -0.5018 0.6663
vn -0.5820 -0.5978 0.5514
vn -0.5391 -0.5422 0.6445
vn -0.6292 -0.6292 0.4563
vn -0.5695 -0.6529 0.4994
vn -0.5542 -0.6066 0.5700
vn -0.4905 -0.6218 0.6106
vn -0.5009 -0.6738 0.5433
vn -0.4846 -0.6434 0.5927
vn -0.5003 -0.7342 0.4590
vn -0.4603 -0.7152 0.5259
vn -0.4261 -0.7288 0.5360
vn 0.9440 0.3301 -0.0000
vn 0.9345 0.3268 -0.1409
vn 0.9517 0.2686 0.1488
vn 0.8084 0.5761 0.1211
vn 0.7786 0.6133 -0.1326
vn 0.7432 0.6678 0.0404
vn 0.8832 0.4665 -0.0476
vn 0.8085 0.5762 -0.1196
vn 0.8320 0.5432 0.1126
vn 0.6486 0.7517 0.1196
vn 0.6230 0.7738 -0.1147
vn 0.5927 0.8051 0.0227
vn 0.7354 0.6767 -0.0337
vn 0.6509 0.7545 -0.0840
vn 0.6683 0.7399 0.0772
vn 0.5056 0.8584 0.0869
vn 0.4979 0.8634 -0.0815
vn 0.5172 0.8559 0.0007
vn 0.5849 0.8108 -0.0222
vn 0.5170 0.8560 -0.0009
vn -0.4874 -0.7574 0.4345
vn -0.4699 -0.7245 0.5042
vn -0.4838 -0.7913 0.3740
vn -0.6226 -0.7023 0.3451
vn -0.6008 -0.6502 0.4650
vn -0.6826 -0.6338 0.3639
vn -0.5471 -0.6966 0.4641
vn -0.5760 -0.6179 0.5351
vn -0.6059 -0.7125 0.3539
vn -0.7777 -0.5481 0.3079
vn -0.7305 -0.4767 0.4890
vn -0.8274 -0.4660 0.3135
vn -0.6431 -0.5163 0.5656
vn -0.6781 -0.4392 0.5893
vn -0.7551 -0.5177 0.4022
vn -0.8976 -0.3086 0.3147
vn -0.8312 -0.2175 0.5116
vn -0.8411 -0.2767 0.4648
vn -0.8316 -0.3954 0.3899
vn -0.8622 -0.3048 0.4045
vn -0.8575 -0.3157 0.4063
vn 0.5153 0.8568 0.0168
vn 0.5152 0.8569 0.0178
vn 0.5154 0.8569 0.0091
vn 0.5210 0.8529 0.0329
vn 0.5180 0.8544 0.0406
vn 0.5182 0.8547 0.0290
vn -0.5153 0.8568 0.0168
vn -0.5154 0.8569 0.0090
vn -0.5151 0.8569 0.0179
vn -0.5180 0.8544 0.0406
vn -0.5210 0.8529 0.0329
vn -0.5182 0.8547 0.0290
vn -0.7836 -0.2367 0.5743
vn -0.4868 -0.7651 0.4214
usemtl Tex_0055_0.dds.002
s off
f 1/1/1 3/2/1 2/3/1
f 2/3/1 3/2/1 4/4/1
f 3/2/1 5/5/1 4/4/1
f 4/4/1 5/5/1 6/6/1
f 5/5/1 7/7/1 6/6/1
f 6/6/1 7/7/1 8/8/1
f 7/7/1 9/9/1 8/8/1
f 8/8/1 9/9/1 10/10/1
f 9/9/1 11/11/1 10/10/1
f 12/12/1 14/13/1 13/14/1
f 13/14/1 14/13/1 15/15/1
f 14/13/1 16/16/1 15/15/1
f 15/15/1 16/16/1 17/17/1
f 16/16/1 18/18/1 17/17/1
f 17/17/1 18/18/1 19/19/1
f 18/18/1 20/20/1 19/19/1
f 19/19/1 20/20/1 21/21/1
f 20/20/1 22/22/1 21/21/1
f 23/23/2 25/24/3 24/25/4
f 24/25/5 25/24/6 26/26/7
f 25/24/8 27/27/9 26/26/10
f 26/26/11 27/27/12 28/28/13
f 27/27/14 29/29/15 28/28/16
f 28/28/17 29/29/18 30/30/19
f 29/29/20 31/31/21 30/30/22
f 30/30/23 31/31/24 32/32/25
f 33/33/26 35/34/27 34/35/26
f 34/35/26 35/34/28 36/36/29
f 35/34/30 37/37/31 36/36/32
f 36/36/33 37/37/34 38/38/35
f 37/37/36 39/39/37 38/38/38
f 38/38/39 39/39/39 40/40/40
f 39/39/41 41/41/42 40/40/43
f 40/40/44 41/41/45 42/42/45
f 43/43/46 45/44/47 44/45/48
f 44/45/49 45/44/50 46/46/51
f 45/44/52 47/47/53 46/46/54
f 46/46/55 47/47/56 48/48/57
f 47/47/58 49/49/59 48/48/60
f 48/48/61 49/49/62 50/50/63
f 49/49/64 51/51/65 50/50/66
f 50/50/67 51/51/68 52/52/69
f 53/53/70 55/54/71 54/55/72
f 54/55/73 55/54/74 56/56/75
f 55/54/76 57/57/77 56/56/78
f 56/56/79 57/57/80 58/58/81
f 57/57/82 59/59/83 58/58/84
f 58/58/85 59/59/86 60/60/87
f 59/59/88 61/61/89 60/60/90
f 62/62/91 64/63/92 63/64/93
f 63/64/94 64/63/95 65/65/96
f 64/63/97 66/66/98 65/65/99
f 65/65/100 66/66/101 67/67/102
f 66/66/103 68/68/104 67/67/105
f 67/67/106 68/68/107 69/69/108
f 68/68/109 70/70/110 69/69/110
f 71/71/111 73/72/112 72/73/113
f 72/73/114 73/72/115 74/74/116
f 73/72/117 75/75/118 74/74/119
f 74/74/120 75/75/121 76/76/122
f 75/75/123 77/77/124 76/76/125
f 76/76/126 77/77/127 78/78/128
f 77/77/129 79/79/130 78/78/131
f 80/80/132 82/81/133 81/82/134
f 81/82/135 82/81/136 83/83/137
f 84/84/138 86/85/139 85/86/140
f 85/86/141 86/85/142 87/87/143
f 88/88/144 90/89/144 89/90/144
f 91/91/91 93/92/91 92/93/91
f 94/94/145 96/95/145 95/96/145
