# Blender v3.6.3 OBJ File: 'untitled.blend'
# www.blender.org
mtllib Mesh_0384.mtl
o Mesh_0384_Mesh.225
v -35.004585 27.939981 40.608192
v -35.004585 25.399982 39.020691
v -40.084583 25.399982 40.608192
v -40.084583 22.859983 39.020691
v -45.164581 22.859983 40.608192
v -45.164581 20.319983 39.020691
v -50.244583 20.319983 40.608192
v -50.244583 17.779984 39.020691
v -55.324581 17.779984 40.608192
v -55.324581 15.239983 39.020691
v -35.004585 25.399982 39.020691
v -35.004585 22.859983 38.068192
v -40.084583 22.859983 39.020691
v -40.084583 20.294582 38.068192
v -45.164581 20.319983 39.020691
v -45.164581 17.754583 38.068192
v -50.244583 17.779984 39.020691
v -50.244583 15.214582 38.068192
v -55.324581 15.239983 39.020691
v -55.324581 12.699983 38.068192
v -35.004585 29.644070 43.148193
v -35.004585 27.939981 40.608192
v -40.084583 27.104071 43.148193
v -40.084583 25.399982 40.608192
v -45.164581 24.564068 43.148201
v -45.164581 22.859983 40.608192
v -50.244583 22.024069 43.148193
v -50.244583 20.319983 40.608192
v -55.324581 19.484068 43.148193
v -55.324581 17.779984 40.608192
v -35.004585 22.859982 48.228188
v -40.084583 22.859982 47.275688
v -40.084583 20.294580 48.228188
v -45.164581 20.319981 47.275688
v -45.164581 17.754581 48.228188
v -50.244583 17.779982 47.275688
v -50.244583 15.214582 48.228188
v -55.324581 15.239983 47.275688
v -55.324581 12.699983 48.225647
v -35.004585 25.399981 47.275688
v -40.084583 25.399981 45.688194
v -40.084583 22.859982 47.275688
v -45.164581 22.859982 45.688194
v -45.164581 20.319981 47.275688
v -50.244583 20.319981 45.688194
v -50.244583 17.779982 47.275688
v -55.324581 17.779982 45.688194
v -55.324581 15.239983 47.275688
v -35.004585 27.939980 45.688194
v -40.084583 27.104071 43.148193
v -40.084583 25.399981 45.688194
v -45.164581 24.564068 43.148201
v -45.164581 22.859982 45.688194
v -50.244583 22.024069 43.148193
v -50.244583 20.319981 45.688194
v -55.324581 19.484068 43.148193
v -55.324581 17.779982 45.688194
v -40.084583 22.859982 47.275688
v -35.004585 22.859982 48.228188
v -35.004585 25.399981 47.275688
v -40.084583 25.399981 45.688194
v -35.004585 25.399981 47.275688
v -35.004585 27.939980 45.688194
v -40.084583 27.104071 43.148193
v -35.004585 27.939980 45.688194
v -35.004585 29.644070 43.148193
vt 2.997070 -0.000977
vt 1.998047 -0.000977
vt 2.997070 -1.000000
vt 1.998047 -1.000000
vt 0.999023 -0.000977
vt 0.999023 -1.000000
vt 0.000000 -0.000977
vt 0.000000 -1.000000
vt -0.999023 -0.000977
vt -0.999023 -1.000000
vt 2.997070 -1.000000
vt 1.998047 -1.000000
vt 2.997070 -1.999023
vt 1.998047 -1.999023
vt 0.999023 -1.000000
vt 0.999023 -1.999023
vt 0.000000 -1.000000
vt 0.000000 -1.999023
vt -0.999023 -1.000000
vt -0.999023 -1.999023
vt 2.997070 0.998047
vt 1.998047 0.998047
vt 2.997070 -0.000977
vt 1.998047 -0.000977
vt 0.999023 0.998047
vt 0.999023 -0.000977
vt 0.000000 0.998047
vt 0.000000 -0.000977
vt -0.999023 0.998047
vt -0.999023 -0.000977
vt 2.997070 -1.999023
vt 1.998047 -1.999023
vt 1.998047 -1.000000
vt 0.999023 -1.000000
vt 0.999023 -1.999023
vt 0.000000 -1.000000
vt 0.000000 -1.999023
vt -0.999023 -1.000000
vt -0.999023 -1.999023
vt 2.997070 -1.000000
vt 1.998047 -1.000000
vt 1.998047 -0.000977
vt 0.999023 -0.000977
vt 0.999023 -1.000000
vt 0.000000 -0.000977
vt 0.000000 -1.000000
vt -0.999023 -0.000977
vt -0.999023 -1.000000
vt 2.997070 -0.000977
vt 1.998047 -0.000977
vt 1.998047 0.998047
vt 0.999023 0.998047
vt 0.999023 -0.000977
vt 0.000000 0.998047
vt 0.000000 -0.000977
vt -0.999023 0.998047
vt -0.999023 -0.000977
vt 1.998047 -1.000000
vt 2.997070 -1.000000
vt 2.997070 -1.999023
vt 1.998047 -0.000977
vt 2.997070 -0.000977
vt 2.997070 -1.000000
vt 1.998047 0.998047
vt 2.997070 0.998047
vt 2.997070 -0.000977
vn 0.2562 -0.5123 0.8197
vn 0.1729 -0.3458 0.9222
vn 0.1735 -0.3484 0.9212
vn 0.1720 -0.3459 0.9224
vn 0.1721 -0.3408 0.9242
vn 0.1737 -0.3421 0.9235
vn 0.1735 -0.3436 0.9229
vn 0.1705 -0.3422 0.9240
vn 0.1715 -0.3429 0.9236
vn 0.1714 -0.3434 0.9234
vn 0.1719 -0.3427 0.9236
vn 0.1712 -0.3459 0.9225
vn 0.3835 -0.7669 0.5145
vn 0.1731 -0.3428 -0.9233
vn 0.1735 -0.3436 -0.9229
vn 0.1732 -0.3423 -0.9235
vn 0.1711 -0.3422 -0.9239
vn 0.1714 -0.3434 -0.9234
vn 0.1715 -0.3429 -0.9236
vn 0.1720 -0.3427 -0.9236
vn 0.1707 -0.3414 -0.9243
vn 0.1721 -0.3467 -0.9220
vn 0.1713 -0.3451 -0.9228
vn 0.1707 -0.3452 -0.9229
vn 0.2562 -0.5123 -0.8197
vn 0.3835 -0.7669 -0.5145
vn 0.1729 -0.3458 -0.9222
usemtl Tex_0092_1.dds.004
s off
f 1/1/1 3/2/1 2/3/1
f 2/3/1 3/2/1 4/4/1
f 3/2/1 5/5/1 4/4/1
f 4/4/1 5/5/1 6/6/1
f 5/5/1 7/7/1 6/6/1
f 6/6/1 7/7/1 8/8/1
f 7/7/1 9/9/1 8/8/1
f 8/8/1 9/9/1 10/10/1
f 11/11/2 13/12/3 12/13/4
f 12/13/5 13/12/6 14/14/7
f 13/12/8 15/15/9 14/14/10
f 14/14/11 15/15/9 16/16/9
f 15/15/9 17/17/9 16/16/9
f 16/16/9 17/17/9 18/18/9
f 17/17/9 19/19/9 18/18/9
f 18/18/12 19/19/12 20/20/12
f 21/21/13 23/22/13 22/23/13
f 22/23/13 23/22/13 24/24/13
f 23/22/13 25/25/13 24/24/13
f 24/24/13 25/25/13 26/26/13
f 25/25/13 27/27/13 26/26/13
f 26/26/13 27/27/13 28/28/13
f 27/27/13 29/29/13 28/28/13
f 28/28/13 29/29/13 30/30/13
f 31/31/14 33/32/15 32/33/16
f 32/33/17 33/32/18 34/34/19
f 33/32/20 35/35/19 34/34/19
f 34/34/19 35/35/19 36/36/19
f 35/35/19 37/37/19 36/36/19
f 36/36/19 37/37/19 38/38/21
f 37/37/22 39/39/23 38/38/24
f 40/40/25 42/41/25 41/42/25
f 41/42/25 42/41/25 43/43/25
f 42/41/25 44/44/25 43/43/25
f 43/43/25 44/44/25 45/45/25
f 44/44/25 46/46/25 45/45/25
f 45/45/25 46/46/25 47/47/25
f 46/46/25 48/48/25 47/47/25
f 49/49/26 51/50/26 50/51/26
f 50/51/26 51/50/26 52/52/26
f 51/50/26 53/53/26 52/52/26
f 52/52/26 53/53/26 54/54/26
f 53/53/26 55/55/26 54/54/26
f 54/54/26 55/55/26 56/56/26
f 55/55/26 57/57/26 56/56/26
f 58/58/27 60/59/27 59/60/27
f 61/61/25 63/62/25 62/63/25
f 64/64/26 66/65/26 65/66/26
