# Blender v3.6.3 OBJ File: 'untitled.blend'
# www.blender.org
mtllib Mesh_0231.mtl
o Mesh_0231_Mesh.056
v -6.628021 27.939983 20.605690
v -6.628021 33.019985 20.605690
v -7.501146 27.939983 20.605690
v -7.501146 33.019985 20.605690
v -7.997240 27.939983 21.121643
v -7.898022 33.019985 21.121613
v -7.997240 27.939983 21.895531
v -7.898022 33.019985 21.994736
v -6.131927 27.939983 21.895531
v -6.032709 22.859985 21.796318
v -5.358023 27.939983 21.895531
v -5.358023 22.859985 21.796318
v -4.842085 27.939983 22.391647
v -4.842085 22.859985 22.391647
v -4.842085 27.939983 22.828194
v -4.842085 22.859985 22.828194
v 18.771975 27.939983 20.605690
v 18.771975 33.019985 20.605690
v 17.898848 27.939983 20.605690
v 17.898848 33.019985 20.605690
v 17.402758 27.939983 21.121643
v 17.501974 33.019985 21.121613
v 17.402758 27.939983 21.895531
v 17.501974 33.019985 21.994736
v 19.268068 27.939983 21.895531
v 19.367289 22.859985 21.796318
v 20.041975 27.939983 21.895531
v 20.041975 22.859985 21.796318
v 20.557913 27.939983 22.391647
v 20.557913 22.859985 22.391647
v 20.557913 27.939983 22.828194
v 20.557913 22.859985 22.828194
v 44.171982 27.932289 20.605690
v 44.171982 33.012363 20.605690
v 43.298859 27.932289 20.605690
v 43.298859 33.012363 20.605690
v 42.802765 27.932289 21.121628
v 42.901985 33.012363 21.121628
v 42.802765 27.932289 21.895531
v 42.901985 33.012363 21.994743
v 44.668076 27.932289 21.895546
v 44.767296 22.852289 21.796326
v 45.441986 27.932289 21.895546
v 45.441986 22.852289 21.796333
v 45.957916 27.932289 22.391640
v 45.957916 22.852289 22.391647
v 45.957916 27.932289 22.828194
v 45.957916 22.852289 22.828194
v 68.113091 22.859985 21.796310
v 68.212311 9.842486 21.895531
v 68.113091 22.859985 21.121628
v 68.212311 9.842486 21.121635
v 68.708405 22.859985 20.605690
v 68.708405 9.842486 20.605690
v 69.135422 22.859985 20.605690
v 69.135422 9.842486 20.605690
v -7.997240 27.939983 21.895531
v -8.096460 22.859985 21.796318
v -7.997240 27.939983 21.121643
v -8.096460 22.859985 21.121643
v -7.501146 27.939983 20.605690
v -7.501146 22.859985 20.605690
v -6.628021 22.859985 20.605690
v -6.231148 33.019985 21.994774
v -6.131927 27.939983 21.895531
v -5.358023 33.019985 21.994736
v -5.358023 27.939983 21.895531
v -4.842085 33.019985 22.391647
v -4.842085 27.939983 22.391647
v -4.842085 27.939983 22.828194
v -6.131927 7.302486 21.895531
v -5.358023 2.072296 21.895531
v -5.358023 7.302486 21.895531
v -4.842085 2.072296 22.391647
v -4.842085 7.302486 22.391647
v -4.842085 2.072296 22.828194
v -4.842085 7.302486 22.828194
v -6.032709 22.859985 21.796318
v -5.358023 7.302486 21.895531
v -5.358023 22.859985 21.796318
v -4.842085 7.302486 22.391647
v -4.842085 22.859985 22.391647
v -4.842085 7.302486 22.828194
v -4.842085 22.859985 22.828194
v -4.643646 1.561010 22.828194
v -4.842085 2.072296 22.828194
v -4.643646 1.561010 22.272568
v -4.842085 2.072296 22.391647
v -5.238960 1.561010 21.677269
v -5.358023 2.072296 21.895531
v -6.231148 2.072296 21.895531
v 18.771975 22.859985 20.605690
v 17.898848 22.859985 20.605690
v 17.898848 7.302486 20.605690
v 17.303537 22.859985 21.121643
v 17.402758 7.302486 21.121643
v 17.303537 22.859985 21.796318
v 17.402758 7.302486 21.895531
v 18.771975 2.072296 20.605690
v 17.898848 7.302486 20.605690
v 17.898848 2.072296 20.605690
v 17.402758 7.302486 21.121643
v 17.501974 2.072296 21.121643
v 17.402758 7.302486 21.895531
v 17.501974 2.072296 21.895531
v 18.891035 1.561010 20.407272
v 18.771975 2.072296 20.605690
v 17.779787 1.561010 20.407272
v 17.898848 2.072296 20.605690
v 17.184473 1.561010 21.002563
v 17.501974 2.072296 21.121643
v 17.501974 2.072296 21.895531
v 17.402758 27.939983 21.895531
v 17.303537 22.859985 21.796318
v 17.402758 27.939983 21.121643
v 17.303537 22.859985 21.121643
v 17.898848 27.939983 20.605690
v 17.898848 22.859985 20.605690
v 18.771975 22.859985 20.605690
v 19.168848 33.019985 21.994774
v 19.268068 27.939983 21.895531
v 20.041975 33.019985 21.994736
v 20.041975 27.939983 21.895531
v 20.557913 33.019985 22.391647
v 20.557913 27.939983 22.391647
v 20.557913 27.939983 22.828194
v 19.268068 7.302486 21.895531
v 20.041975 2.072296 21.895531
v 20.041975 7.302486 21.895531
v 20.557913 2.072296 22.391647
v 20.557913 7.302486 22.391647
v 20.557913 2.072296 22.828194
v 20.557913 7.302486 22.828194
v 19.367289 22.859985 21.796318
v 20.041975 7.302486 21.895531
v 20.041975 22.859985 21.796318
v 20.557913 7.302486 22.391647
v 20.557913 22.859985 22.391647
v 20.557913 7.302486 22.828194
v 20.557913 22.859985 22.828194
v 20.756350 1.561010 22.828194
v 20.557913 2.072296 22.828194
v 20.756350 1.561010 22.272568
v 20.557913 2.072296 22.391647
v 20.161036 1.561010 21.677269
v 20.041975 2.072296 21.895531
v 19.168848 2.072296 21.895531
v 44.171982 22.852289 20.605690
v 43.298859 22.852289 20.605690
v 43.298859 9.842486 20.605690
v 42.703545 22.852289 21.121628
v 42.802765 9.842486 21.121635
v 42.703545 22.852289 21.796310
v 42.802765 9.842486 21.895531
v 44.171982 4.612297 20.605690
v 43.298859 9.842486 20.605690
v 43.298859 4.612297 20.605690
v 42.802765 9.842486 21.121635
v 42.901985 4.612297 21.121643
v 42.802765 9.842486 21.895531
v 42.901985 4.612296 21.895531
v 44.291046 4.101010 20.407257
v 44.171982 4.612297 20.605690
v 43.179794 4.101010 20.407272
v 43.298859 4.612297 20.605690
v 42.584480 4.101009 21.002563
v 42.901985 4.612297 21.121643
v 42.901985 4.612296 21.895531
v 42.802765 27.932289 21.895531
v 42.703545 22.852289 21.796310
v 42.802765 27.932289 21.121628
v 42.703545 22.852289 21.121628
v 43.298859 27.932289 20.605690
v 43.298859 22.852289 20.605690
v 44.171982 22.852289 20.605690
v 44.568855 33.012363 21.994759
v 44.668076 27.932289 21.895546
v 45.441986 33.012363 21.994759
v 45.441986 27.932289 21.895546
v 45.957916 33.012363 22.391632
v 45.957916 27.932289 22.391640
v 45.957916 27.932289 22.828194
v 44.668076 9.842486 21.895546
v 45.441986 4.612296 21.895531
v 45.441986 9.842486 21.895546
v 45.957916 4.612297 22.391632
v 45.957916 9.842486 22.391640
v 45.957916 4.612297 22.828194
v 45.957916 9.842486 22.828194
v 44.767296 22.852289 21.796326
v 45.441986 9.842486 21.895546
v 45.441986 22.852289 21.796333
v 45.957916 9.842486 22.391640
v 45.957916 22.852289 22.391647
v 45.957916 9.842486 22.828194
v 45.957916 22.852289 22.828194
v 46.156357 4.101010 22.828194
v 45.957916 4.612297 22.828194
v 46.156357 4.101010 22.272568
v 45.957916 4.612297 22.391632
v 45.561043 4.101009 21.677254
v 45.441986 4.612296 21.895531
v 44.568855 4.612296 21.895531
v 67.994034 4.101009 21.677246
v 67.994034 4.101009 21.002563
v 68.311531 4.612297 21.121643
v 68.589340 4.101010 20.407272
v 68.708405 4.612297 20.605690
v 69.135422 4.101010 20.407265
v 69.135422 4.612297 20.605690
v 69.135422 4.612297 20.605690
v 69.135422 9.842486 20.605690
v 68.708405 4.612297 20.605690
v 68.708405 9.842486 20.605690
v 68.311531 4.612297 21.121643
v 68.212311 9.842486 21.121635
v 68.212311 9.842486 21.895531
v -6.628021 22.859985 20.605690
v -6.628021 7.302486 20.605690
v -6.032709 22.859985 21.121643
v -6.131927 7.302486 21.121643
v -6.032709 22.859985 21.796318
v -6.131927 7.302486 21.895531
v -6.628021 7.302486 20.605690
v -6.628021 2.072296 20.605690
v -6.131927 7.302486 21.121643
v -6.231148 2.072296 21.121643
v -6.131927 7.302486 21.895531
v -6.231148 2.072296 21.895531
v -8.136147 33.654987 21.756615
v -8.136147 33.654987 21.081940
v -8.201670 34.289986 21.691109
v -8.215523 34.289986 20.407272
v -8.652084 34.924984 21.240692
v -8.652084 34.924984 19.970695
v -5.993023 33.654987 21.756645
v -5.318335 33.654987 21.756645
v -5.926109 34.289986 21.689720
v -4.643646 34.289986 21.677269
v -5.477085 34.924984 21.240692
v -4.207085 34.924984 21.240692
v 18.771975 22.859985 20.605690
v 18.771975 7.302486 20.605690
v 19.367289 22.859985 21.121643
v 19.268068 7.302486 21.121643
v 19.367289 22.859985 21.796318
v 19.268068 7.302486 21.895531
v 18.771975 7.302486 20.605690
v 18.771975 2.072296 20.605690
v 19.268068 7.302486 21.121643
v 19.168848 2.072296 21.121643
v 19.268068 7.302486 21.895531
v 19.168848 2.072296 21.895531
v 17.263849 33.654987 21.756615
v 17.263849 33.654987 21.081940
v 17.198328 34.289986 21.691109
v 17.184473 34.289986 20.407272
v 16.747911 34.924984 21.240692
v 16.747911 34.924984 19.970695
v 19.406973 33.654987 21.756645
v 20.081663 33.654987 21.756645
v 19.473886 34.289986 21.689720
v 20.756350 34.289986 21.677269
v 19.922911 34.924984 21.240692
v 21.192911 34.924984 21.240692
v 17.501974 2.072296 21.895531
v 17.402758 7.302486 21.895531
v 16.628851 2.072296 21.895531
v 16.628851 7.302486 21.895531
v 16.112913 2.072296 22.391617
v 16.112913 7.302486 22.391617
v 17.402758 7.302486 21.895531
v 17.303537 22.859985 21.796318
v 16.628851 7.302486 21.895531
v 16.628851 22.859985 21.796318
v 16.112913 7.302486 22.391617
v 16.112913 22.859985 22.391617
v 44.171982 22.852289 20.605690
v 44.171982 9.842486 20.605690
v 44.767296 22.852289 21.121643
v 44.668076 9.842486 21.121635
v 44.767296 22.852289 21.796326
v 44.668076 9.842486 21.895546
v 44.171982 9.842486 20.605690
v 44.171982 4.612297 20.605690
v 44.668076 9.842486 21.121635
v 44.568855 4.612297 21.121628
v 44.668076 9.842486 21.895546
v 44.568855 4.612296 21.895531
v 42.663857 33.647366 21.756622
v 42.663857 33.647366 21.081955
v 42.598335 34.282364 21.691109
v 42.584480 34.282364 20.407272
v 42.147919 34.917366 21.240692
v 42.147919 34.917366 19.970695
v 44.806984 33.647366 21.756645
v 45.481667 33.647366 21.756630
v 44.873886 34.282364 21.689720
v 46.156357 34.282364 21.677254
v 45.322922 34.917366 21.240692
v 46.592918 34.917366 21.240692
v 42.901985 4.612296 21.895531
v 42.802765 9.842486 21.895531
v 42.028854 4.612296 21.895531
v 42.028854 9.842486 21.895531
v 41.512917 4.612297 22.391624
v 41.512917 9.842486 22.391617
v 42.802765 9.842486 21.895531
v 42.703545 22.852289 21.796310
v 42.028854 9.842486 21.895531
v 42.028854 22.852289 21.796310
v 41.512917 9.842486 22.391617
v 41.512917 22.852289 22.391617
v 68.073402 33.654987 21.756622
v 68.073402 33.654987 21.081955
v 68.007881 34.289986 21.691109
v 67.994034 34.289986 20.407272
v 67.557465 34.924984 21.240692
v 67.557465 34.924984 19.970695
v 68.212311 27.939983 21.895531
v 68.212311 27.939983 21.121628
v 68.311531 33.019985 21.121628
v 68.708405 27.939983 20.605690
v 68.708405 33.019985 20.605690
v 69.135422 33.019985 20.605690
v 68.113091 22.859985 21.796310
v 68.113091 22.859985 21.121628
v 68.212311 27.939983 21.121628
v 68.708405 22.859985 20.605690
v 68.708405 27.939983 20.605690
v 69.135422 27.939983 20.605690
v 66.803398 33.654987 22.828194
v 66.803406 33.654987 22.351936
v 66.724030 34.289986 22.828194
v 66.724030 34.289986 21.677246
v 66.287468 34.924984 22.828194
v 66.287468 34.924984 21.240692
v -6.628021 33.019985 20.605690
v -6.131927 27.939983 21.121643
v -6.231148 33.019985 21.121643
v -6.131927 27.939983 21.895531
v -6.231148 33.019985 21.994774
v -6.628021 27.939983 20.605690
v -6.032709 22.859985 21.121643
v -6.131927 27.939983 21.121643
v -6.032709 22.859985 21.796318
v -6.131927 27.939983 21.895531
v -7.540834 33.654987 20.486649
v -5.913647 34.289986 20.407272
v -8.215523 34.289986 20.407272
v -5.477085 34.924984 19.970695
v -8.652084 34.924984 19.970695
v -5.993017 33.654987 21.081940
v -5.926109 34.289986 21.689720
v -5.913647 34.289986 20.407272
v -5.477085 34.924984 21.240692
v -5.477085 34.924984 19.970695
v -6.231148 2.072296 21.895531
v -6.231148 2.072296 21.121643
v -5.913647 1.561010 21.002563
v -6.628021 2.072296 20.605690
v -6.508959 1.561010 20.407272
v -8.096460 22.859985 21.796318
v -8.771147 27.939983 21.895531
v -8.771147 22.859985 21.796318
v -9.287085 27.939983 22.391617
v -9.287085 22.859985 22.391617
v -7.997240 27.939983 21.895531
v -8.771147 33.019985 21.994736
v -8.771147 27.939983 21.895531
v -9.287085 33.019985 22.391617
v -9.287085 27.939983 22.391617
v -8.810835 33.654987 21.756615
v -8.201670 34.289986 21.691109
v -9.485521 34.289986 21.677238
v -8.652084 34.924984 21.240692
v -9.922085 34.924984 21.240692
v -4.207085 34.924984 22.828194
v -4.207085 34.924984 21.240692
v -4.643646 34.289986 22.828194
v -4.643646 34.289986 21.677269
v -4.723019 33.654987 22.351944
v -9.406147 33.654987 22.351944
v -9.485521 34.289986 21.677238
v -9.485521 34.289986 22.828194
v -9.922085 34.924984 21.240692
v -9.922085 34.924984 22.828194
v 18.771975 33.019985 20.605690
v 19.268068 27.939983 21.121643
v 19.168848 33.019985 21.121643
v 19.268068 27.939983 21.895531
v 19.168848 33.019985 21.994774
v 18.771975 27.939983 20.605690
v 19.367289 22.859985 21.121643
v 19.268068 27.939983 21.121643
v 19.367289 22.859985 21.796318
v 19.268068 27.939983 21.895531
v 17.859163 33.654987 20.486649
v 19.486349 34.289986 20.407272
v 17.184473 34.289986 20.407272
v 19.922911 34.924984 19.970695
v 16.747911 34.924984 19.970695
v 19.406981 33.654987 21.081940
v 19.473886 34.289986 21.689720
v 19.486349 34.289986 20.407272
v 19.922911 34.924984 21.240692
v 19.922911 34.924984 19.970695
v 19.168848 2.072296 21.895531
v 19.168848 2.072296 21.121643
v 19.486349 1.561010 21.002563
v 18.771975 2.072296 20.605690
v 18.891035 1.561010 20.407272
v 17.501974 2.072296 21.895531
v 16.628851 2.072296 21.895531
v 16.509787 1.561010 21.677238
v 16.112913 2.072296 22.391617
v 15.914476 1.561010 22.272568
v 17.303537 22.859985 21.796318
v 16.628851 27.939983 21.895531
v 16.628851 22.859985 21.796318
v 16.112913 27.939983 22.391617
v 16.112913 22.859985 22.391617
v 17.402758 27.939983 21.895531
v 16.628851 33.019985 21.994736
v 16.628851 27.939983 21.895531
v 16.112913 33.019985 22.391617
v 16.112913 27.939983 22.391617
v 16.589163 33.654987 21.756615
v 17.198328 34.289986 21.691109
v 15.914476 34.289986 21.677238
v 16.747911 34.924984 21.240692
v 15.477911 34.924984 21.240692
v 21.192911 34.924984 22.828194
v 21.192911 34.924984 21.240692
v 20.756350 34.289986 22.828194
v 20.756350 34.289986 21.677269
v 20.676981 33.654987 22.351944
v 15.993849 33.654987 22.351944
v 15.914476 34.289986 21.677238
v 15.914476 34.289986 22.828194
v 15.477911 34.924984 21.240692
v 15.477911 34.924984 22.828194
v 44.171982 33.012363 20.605690
v 44.668076 27.932289 21.121635
v 44.568855 33.012363 21.121628
v 44.668076 27.932289 21.895546
v 44.568855 33.012363 21.994759
v 44.171982 27.932289 20.605690
v 44.767296 22.852289 21.121643
v 44.668076 27.932289 21.121635
v 44.767296 22.852289 21.796326
v 44.668076 27.932289 21.895546
v 43.259171 33.647366 20.486649
v 44.886360 34.282364 20.407257
v 42.584480 34.282364 20.407272
v 45.322922 34.917366 19.970695
v 42.147919 34.917366 19.970695
v 44.806984 33.647366 21.081940
v 44.873886 34.282364 21.689720
v 44.886360 34.282364 20.407257
v 45.322922 34.917366 21.240692
v 45.322922 34.917366 19.970695
v 44.568855 4.612296 21.895531
v 44.568855 4.612297 21.121628
v 44.886360 4.101009 21.002563
v 44.171982 4.612297 20.605690
v 44.291046 4.101010 20.407257
v 42.901985 4.612296 21.895531
v 42.028854 4.612296 21.895531
v 41.909798 4.101009 21.677246
v 41.512917 4.612297 22.391624
v 41.314484 4.101010 22.272560
v 42.703545 22.852289 21.796310
v 42.028854 27.932289 21.895531
v 42.028854 22.852289 21.796310
v 41.512917 27.932289 22.391617
v 41.512917 22.852289 22.391617
v 42.802765 27.932289 21.895531
v 42.028854 33.012363 21.994743
v 42.028854 27.932289 21.895531
v 41.512917 33.012363 22.391624
v 41.512917 27.932289 22.391617
v 41.989174 33.647366 21.756622
v 42.598335 34.282364 21.691109
v 41.314484 34.282364 21.677246
v 42.147919 34.917366 21.240692
v 40.877922 34.917366 21.240692
v 46.592918 34.917366 22.828194
v 46.592918 34.917366 21.240692
v 46.156357 34.282364 22.828194
v 46.156357 34.282364 21.677254
v 46.076981 33.647366 22.351944
v 41.393860 33.647366 22.351936
v 41.314484 34.282364 21.677246
v 41.314484 34.282364 22.828194
v 40.877922 34.917366 21.240692
v 40.877922 34.917366 22.828194
v 67.398720 33.654987 21.756622
v 68.007881 34.289986 21.691109
v 66.724030 34.289986 21.677246
v 67.557465 34.924984 21.240692
v 66.287468 34.924984 21.240692
v 68.212311 9.842486 21.895531
v 68.113091 22.859985 21.796310
v 67.438408 9.842486 21.895531
v 67.438408 22.859985 21.796310
v 66.922470 22.859985 22.391617
v 68.212311 9.842486 21.895531
v 67.438408 9.842486 21.895531
v 67.438408 4.612296 21.895531
v 66.922470 9.842486 22.391617
v 66.922470 4.612297 22.391624
v 66.724030 4.101010 22.272560
v 67.319344 4.101009 21.677246
v 67.438408 4.612296 21.895531
v 67.994034 4.101009 21.677246
v 68.311531 4.612296 21.895531
v 66.922470 22.859985 22.391617
v 67.438408 22.859985 21.796310
v 67.438408 27.939983 21.895531
v 68.113091 22.859985 21.796310
v 68.212311 27.939983 21.895531
v 66.922470 27.939983 22.391617
v 67.438408 27.939983 21.895531
v 67.438408 33.019985 21.994743
v 68.212311 27.939983 21.895531
v 68.311531 33.019985 21.994743
v 69.135422 34.924984 19.970695
v 67.994034 34.289986 20.407272
v 69.135422 34.289986 20.407265
v 68.668716 33.654987 20.486649
v 69.135422 33.654987 20.486641
v -6.628021 7.302486 20.605690
v -6.628021 22.859985 20.605690
v -7.501146 7.302486 20.605690
v -7.501146 22.859985 20.605690
v -7.997240 7.302486 21.121643
v -7.501146 7.302486 20.605690
v -8.096460 22.859985 21.121643
v -7.501146 22.859985 20.605690
v -7.501146 2.072296 20.605690
v -6.628021 2.072296 20.605690
v -7.501146 7.302486 20.605690
v -6.628021 7.302486 20.605690
v -6.508959 1.561010 20.407272
v -6.628021 2.072296 20.605690
v -7.620209 1.561010 20.407272
v -7.501146 2.072296 20.605690
v -7.997240 7.302486 21.895531
v -7.997240 7.302486 21.121643
v -8.096460 22.859985 21.796318
v -8.096460 22.859985 21.121643
v -7.997240 7.302486 21.895531
v -8.096460 22.859985 21.796318
v -8.771147 7.302486 21.895531
v -8.771147 22.859985 21.796318
v -8.771147 7.302486 21.895531
v -8.771147 22.859985 21.796318
v -9.287085 7.302486 22.391617
v -9.287085 22.859985 22.391617
v -9.287085 22.859985 22.828194
v -9.287085 7.302486 22.828194
v -9.287085 22.859985 22.391617
v -9.287085 7.302486 22.391617
v -9.287085 22.859985 22.828194
v -9.287085 22.859985 22.391617
v -9.287085 27.939983 22.828194
v -9.287085 27.939983 22.391617
v -9.287085 27.939983 22.828194
v -9.287085 27.939983 22.391617
v -9.287085 33.019985 22.828194
v -9.287085 33.019985 22.391617
v 15.914476 1.561010 22.828194
v 15.914476 1.561010 22.272568
v 16.112913 2.072296 22.828194
v 16.112913 2.072296 22.391617
v 16.112913 7.302486 22.828194
v 16.112913 2.072296 22.828194
v 16.112913 7.302486 22.391617
v 16.112913 2.072296 22.391617
v 16.112913 22.859985 22.828194
v 16.112913 7.302486 22.828194
v 16.112913 22.859985 22.391617
v 16.112913 7.302486 22.391617
v 16.112913 22.859985 22.828194
v 16.112913 22.859985 22.391617
v 16.112913 27.939983 22.828194
v 16.112913 27.939983 22.391617
v 16.112913 27.939983 22.828194
v 16.112913 27.939983 22.391617
v 16.112913 33.019985 22.828194
v 16.112913 33.019985 22.391617
v 41.314484 4.101010 22.828194
v 41.314484 4.101010 22.272560
v 41.512917 4.612297 22.828194
v 41.512917 4.612297 22.391624
v 41.512917 9.842486 22.828194
v 41.512917 4.612297 22.828194
v 41.512917 9.842486 22.391617
v 41.512917 4.612297 22.391624
v 41.512917 22.852289 22.828194
v 41.512917 9.842486 22.828194
v 41.512917 22.852289 22.391617
v 41.512917 9.842486 22.391617
v 41.512917 22.852289 22.828194
v 41.512917 22.852289 22.391617
v 41.512917 27.932289 22.828194
v 41.512917 27.932289 22.391617
v 41.512917 27.932289 22.828194
v 41.512917 27.932289 22.391617
v 41.512917 33.012363 22.828194
v 41.512917 33.012363 22.391624
v 66.724030 4.101010 22.272560
v 66.922470 4.612297 22.391624
v 66.724030 4.101010 22.828194
v 66.922470 4.612297 22.828194
v 66.922470 4.612297 22.828194
v 66.922470 4.612297 22.391624
v 66.922470 9.842486 22.828194
v 66.922470 9.842486 22.391617
v 66.922470 9.842486 22.828194
v 66.922470 9.842486 22.391617
v 66.922470 22.859985 22.828194
v 66.922470 22.859985 22.391617
v 66.922470 22.859985 22.828194
v 66.922470 22.859985 22.391617
v 66.922470 27.939983 22.828194
v 66.922470 27.939983 22.391617
v 66.922470 27.939983 22.828194
v 66.922470 27.939983 22.391617
v 66.922470 33.019985 22.828194
v 66.922470 33.019985 22.391624
v -6.628021 22.859985 20.605690
v -6.628021 27.939983 20.605690
v -7.501146 27.939983 20.605690
v -6.131927 27.939983 21.121643
v -6.628021 33.019985 20.605690
v -6.628021 27.939983 20.605690
v -6.032709 22.859985 21.121643
v -6.628021 27.939983 20.605690
v -6.628021 22.859985 20.605690
v -5.913647 34.289986 20.407272
v -6.588335 33.654987 20.486649
v -5.993017 33.654987 21.081940
v -7.540834 33.654987 20.486649
v -8.215523 34.289986 20.407272
v -8.136147 33.654987 21.081940
v -7.540834 33.654987 20.486649
v -6.588335 33.654987 20.486649
v -5.913647 34.289986 20.407272
v -5.993017 33.654987 21.081940
v -5.993023 33.654987 21.756645
v -5.926109 34.289986 21.689720
v -5.913647 1.561010 21.002563
v -5.913647 1.561010 21.677269
v -6.231148 2.072296 21.895531
v -6.231148 2.072296 21.895531
v -5.358023 2.072296 21.895531
v -6.131927 7.302486 21.895531
v -6.032709 22.859985 21.796318
v -6.131927 7.302486 21.895531
v -5.358023 7.302486 21.895531
v -5.238960 1.561010 21.677269
v -6.231148 2.072296 21.895531
v -5.913647 1.561010 21.677269
v -8.096460 22.859985 21.796318
v -7.997240 27.939983 21.895531
v -8.771147 27.939983 21.895531
v -7.898022 33.019985 21.994736
v -8.771147 33.019985 21.994736
v -7.997240 27.939983 21.895531
v -8.810835 33.654987 21.756615
v -8.136147 33.654987 21.756615
v -8.201670 34.289986 21.691109
v -4.643646 34.289986 21.677269
v -5.318335 33.654987 21.756645
v -4.723019 33.654987 22.351944
v -9.485521 34.289986 21.677238
v -9.406147 33.654987 22.351944
v -8.810835 33.654987 21.756615
v -4.723019 33.654987 22.351944
v -4.723021 33.654987 22.828194
v -4.643646 34.289986 22.828194
v -4.842085 33.019985 22.391647
v -4.842085 27.939983 22.828194
v -4.842085 33.019985 22.828194
v -9.406147 33.654987 22.351944
v -9.485521 34.289986 22.828194
v -9.406151 33.654987 22.828194
v 18.771975 22.859985 20.605690
v 18.771975 27.939983 20.605690
v 17.898848 27.939983 20.605690
v 19.268068 27.939983 21.121643
v 18.771975 33.019985 20.605690
v 18.771975 27.939983 20.605690
v 19.367289 22.859985 21.121643
v 18.771975 27.939983 20.605690
v 18.771975 22.859985 20.605690
v 18.771975 22.859985 20.605690
v 17.898848 7.302486 20.605690
v 18.771975 7.302486 20.605690
v 19.486349 34.289986 20.407272
v 18.811663 33.654987 20.486649
v 19.406981 33.654987 21.081940
v 18.771975 2.072296 20.605690
v 18.771975 7.302486 20.605690
v 17.898848 7.302486 20.605690
v 17.859163 33.654987 20.486649
v 17.184473 34.289986 20.407272
v 17.263849 33.654987 21.081940
v 17.859163 33.654987 20.486649
v 18.811663 33.654987 20.486649
v 19.486349 34.289986 20.407272
v 19.406981 33.654987 21.081940
v 19.406973 33.654987 21.756645
v 19.473886 34.289986 21.689720
v 19.486349 1.561010 21.002563
v 19.486349 1.561010 21.677269
v 19.168848 2.072296 21.895531
v 17.184473 1.561010 21.002563
v 17.501974 2.072296 21.895531
v 17.184473 1.561010 21.677238
v 19.168848 2.072296 21.895531
v 20.041975 2.072296 21.895531
v 19.268068 7.302486 21.895531
v 19.367289 22.859985 21.796318
v 19.268068 7.302486 21.895531
v 20.041975 7.302486 21.895531
v 20.161036 1.561010 21.677269
v 19.168848 2.072296 21.895531
v 19.486349 1.561010 21.677269
v 16.509787 1.561010 21.677238
v 17.184473 1.561010 21.677238
v 17.501974 2.072296 21.895531
v 17.303537 22.859985 21.796318
v 17.402758 27.939983 21.895531
v 16.628851 27.939983 21.895531
v 17.501974 33.019985 21.994736
v 16.628851 33.019985 21.994736
v 17.402758 27.939983 21.895531
v 16.589163 33.654987 21.756615
v 17.263849 33.654987 21.756615
v 17.198328 34.289986 21.691109
v 20.756350 34.289986 21.677269
v 20.081663 33.654987 21.756645
v 20.676981 33.654987 22.351944
v 15.914476 34.289986 21.677238
v 15.993849 33.654987 22.351944
v 16.589163 33.654987 21.756615
v 20.676981 33.654987 22.351944
v 20.676977 33.654987 22.828194
v 20.756350 34.289986 22.828194
v 20.557913 33.019985 22.391647
v 20.557913 27.939983 22.828194
v 20.557913 33.019985 22.828194
v 15.993849 33.654987 22.351944
v 15.914476 34.289986 22.828194
v 15.993849 33.654987 22.828194
v 44.171982 22.852289 20.605690
v 44.171982 27.932289 20.605690
v 43.298859 27.932289 20.605690
v 44.668076 27.932289 21.121635
v 44.171982 33.012363 20.605690
v 44.171982 27.932289 20.605690
v 44.767296 22.852289 21.121643
v 44.171982 27.932289 20.605690
v 44.171982 22.852289 20.605690
v 44.171982 22.852289 20.605690
v 43.298859 9.842486 20.605690
v 44.171982 9.842486 20.605690
v 44.886360 34.282364 20.407257
v 44.211670 33.647366 20.486633
v 44.806984 33.647366 21.081940
v 44.171982 4.612297 20.605690
v 44.171982 9.842486 20.605690
v 43.298859 9.842486 20.605690
v 43.259171 33.647366 20.486649
v 42.584480 34.282364 20.407272
v 42.663857 33.647366 21.081955
v 43.259171 33.647366 20.486649
v 44.211670 33.647366 20.486633
v 44.886360 34.282364 20.407257
v 44.806984 33.647366 21.081940
v 44.806984 33.647366 21.756645
v 44.873886 34.282364 21.689720
v 44.886360 4.101009 21.002563
v 44.886360 4.101009 21.677261
v 44.568855 4.612296 21.895531
v 42.584480 4.101009 21.002563
v 42.901985 4.612296 21.895531
v 42.584480 4.101009 21.677246
v 44.568855 4.612296 21.895531
v 45.441986 4.612296 21.895531
v 44.668076 9.842486 21.895546
v 44.767296 22.852289 21.796326
v 44.668076 9.842486 21.895546
v 45.441986 9.842486 21.895546
v 45.561043 4.101009 21.677254
v 44.568855 4.612296 21.895531
v 44.886360 4.101009 21.677261
v 41.909798 4.101009 21.677246
v 42.584480 4.101009 21.677246
v 42.901985 4.612296 21.895531
v 42.703545 22.852289 21.796310
v 42.802765 27.932289 21.895531
v 42.028854 27.932289 21.895531
v 42.901985 33.012363 21.994743
v 42.028854 33.012363 21.994743
v 42.802765 27.932289 21.895531
v 41.989174 33.647366 21.756622
v 42.663857 33.647366 21.756622
v 42.598335 34.282364 21.691109
v 46.156357 34.282364 21.677254
v 45.481667 33.647366 21.756630
v 46.076981 33.647366 22.351944
v 41.314484 34.282364 21.677246
v 41.393860 33.647366 22.351936
v 41.989174 33.647366 21.756622
v 46.076981 33.647366 22.351944
v 46.076981 33.647366 22.828194
v 46.156357 34.282364 22.828194
v 45.957916 33.012363 22.391632
v 45.957916 27.932289 22.828194
v 45.957916 33.012363 22.828194
v 41.393860 33.647366 22.351936
v 41.314484 34.282364 22.828194
v 41.393860 33.647366 22.828194
v 67.398720 33.654987 21.756622
v 68.073402 33.654987 21.756622
v 68.007881 34.289986 21.691109
v 67.438408 4.612296 21.895531
v 68.311531 4.612296 21.895531
v 68.212311 9.842486 21.895531
v 67.994034 4.101009 21.677246
v 68.311531 4.612297 21.121643
v 68.311531 4.612296 21.895531
v 66.922470 4.612297 22.391624
v 66.724030 4.101010 22.272560
v 67.438408 4.612296 21.895531
v 66.922470 22.859985 22.391617
v 66.922470 9.842486 22.391617
v 67.438408 9.842486 21.895531
v 67.438408 27.939983 21.895531
v 66.922470 27.939983 22.391617
v 66.922470 22.859985 22.391617
v 67.438408 33.019985 21.994743
v 66.922470 33.019985 22.391624
v 66.922470 27.939983 22.391617
v 68.311531 33.019985 21.121628
v 68.311531 33.019985 21.994743
v 68.212311 27.939983 21.895531
v 68.212311 27.939983 21.121628
v 68.212311 27.939983 21.895531
v 68.113091 22.859985 21.796310
v 68.311531 4.612297 21.121643
v 68.212311 9.842486 21.895531
v 68.311531 4.612296 21.895531
v 66.724030 34.289986 21.677246
v 66.803406 33.654987 22.351936
v 67.398720 33.654987 21.756622
v 68.668716 33.654987 20.486649
v 67.994034 34.289986 20.407272
v 68.073402 33.654987 21.081955
v 67.994034 34.289986 20.407272
v 69.135422 34.924984 19.970695
v 67.557465 34.924984 19.970695
v 69.135422 33.019985 20.605690
v 68.708405 27.939983 20.605690
v 69.135422 27.939983 20.605690
v 69.135422 27.939983 20.605690
v 68.708405 22.859985 20.605690
v 69.135422 22.859985 20.605690
vt -1.998047 -1.993164
vt -1.899414 -1.993164
vt -1.998047 -1.002930
vt -1.899414 -1.002930
vt -1.769531 -1.993164
vt -1.769531 -1.002930
vt -1.919922 -1.993164
vt -1.919922 -1.002930
vt -1.668945 0.999023
vt -1.516602 0.999023
vt -1.668945 0.000000
vt -1.516602 0.000000
vt -1.650391 0.999023
vt -1.650391 0.000000
vt -1.699219 0.999023
vt -1.699219 0.000000
vt -1.998047 -1.993164
vt -1.899414 -1.993164
vt -1.998047 -1.002930
vt -1.899414 -1.002930
vt -1.769531 -1.993164
vt -1.769531 -1.002930
vt -1.919922 -1.993164
vt -1.919922 -1.002930
vt -1.668945 0.999023
vt -1.516602 0.999023
vt -1.668945 0.000000
vt -1.516602 0.000000
vt -1.650391 0.999023
vt -1.650391 0.000000
vt -1.699219 0.999023
vt -1.699219 0.000000
vt -1.998047 -1.993164
vt -1.899414 -1.993164
vt -1.998047 -1.002930
vt -1.899414 -1.002930
vt -1.769531 -1.993164
vt -1.769531 -1.002930
vt -1.919922 -1.993164
vt -1.919922 -1.002930
vt -1.668945 0.999023
vt -1.516602 0.999023
vt -1.668945 0.000000
vt -1.516602 0.000000
vt -1.650391 0.999023
vt -1.650391 0.000000
vt -1.699219 0.999023
vt -1.699219 0.000000
vt -1.168945 0.000000
vt -1.015625 0.000000
vt -1.168945 -2.997070
vt -1.015625 -2.997070
vt -1.149414 0.000000
vt -1.149414 -2.997070
vt -1.200195 0.000000
vt -1.200195 -2.997070
vt -1.668945 0.999023
vt -1.516602 0.999023
vt -1.668945 0.000000
vt -1.516602 0.000000
vt -1.650391 0.999023
vt -1.650391 0.000000
vt -1.749023 0.000000
vt -1.919922 -1.002930
vt -1.769531 -1.002930
vt -1.919922 -1.993164
vt -1.769531 -1.993164
vt -1.899414 -1.002930
vt -1.899414 -1.993164
vt -1.948242 -1.993164
vt -0.419922 -1.002930
vt -0.262695 -1.002930
vt -0.262695 -1.998047
vt -0.396484 -1.998047
vt -0.396484 -1.002930
vt -0.450195 -1.998047
vt -0.450195 -1.002930
vt -1.168945 0.000000
vt -1.015625 0.000000
vt -1.015625 -2.997070
vt -1.149414 -2.997070
vt -1.149414 0.000000
vt -1.201172 -2.997070
vt -1.201172 0.000000
vt 3.214844 -1.373047
vt 3.214844 -1.498047
vt 3.121094 -1.373047
vt 3.121094 -1.498047
vt 3.214844 -1.248047
vt 3.121094 -1.248047
vt 3.121094 -0.999023
vt -1.252930 0.000000
vt -1.149414 -2.997070
vt -1.149414 0.000000
vt -1.015625 0.000000
vt -1.015625 -2.997070
vt -1.168945 0.000000
vt -1.168945 -2.997070
vt -0.503906 -1.998047
vt -0.396484 -1.998047
vt -0.396484 -1.002930
vt -0.262695 -1.002930
vt -0.262695 -1.998047
vt -0.419922 -1.002930
vt -0.419922 -1.998047
vt 3.214844 -1.248047
vt 3.214844 -1.498047
vt 3.121094 -1.248047
vt 3.121094 -1.498047
vt 3.214844 -1.248047
vt 3.121094 -1.248047
vt 3.121094 -0.999023
vt -1.668945 0.999023
vt -1.516602 0.999023
vt -1.668945 0.000000
vt -1.516602 0.000000
vt -1.650391 0.999023
vt -1.650391 0.000000
vt -1.749023 0.000000
vt -1.919922 -1.002930
vt -1.769531 -1.002930
vt -1.919922 -1.993164
vt -1.769531 -1.993164
vt -1.899414 -1.002930
vt -1.899414 -1.993164
vt -1.948242 -1.993164
vt -0.419922 -1.002930
vt -0.262695 -1.002930
vt -0.262695 -1.998047
vt -0.396484 -1.998047
vt -0.396484 -1.002930
vt -0.450195 -1.998047
vt -0.450195 -1.002930
vt -1.168945 0.000000
vt -1.015625 0.000000
vt -1.015625 -2.997070
vt -1.149414 -2.997070
vt -1.149414 0.000000
vt -1.201172 -2.997070
vt -1.201172 0.000000
vt 3.214844 -1.373047
vt 3.214844 -1.498047
vt 3.121094 -1.373047
vt 3.121094 -1.498047
vt 3.214844 -1.248047
vt 3.121094 -1.248047
vt 3.121094 -0.999023
vt -1.252930 0.000000
vt -1.149414 -2.997070
vt -1.149414 0.000000
vt -1.015625 0.000000
vt -1.015625 -2.997070
vt -1.168945 0.000000
vt -1.168945 -2.997070
vt -0.503906 -1.998047
vt -0.396484 -1.998047
vt -0.396484 -1.002930
vt -0.262695 -1.002930
vt -0.262695 -1.998047
vt -0.419922 -1.002930
vt -0.419922 -1.998047
vt 3.214844 -1.248047
vt 3.214844 -1.498047
vt 3.121094 -1.248047
vt 3.121094 -1.498047
vt 3.214844 -1.248047
vt 3.121094 -1.248047
vt 3.121094 -0.999023
vt -1.668945 0.999023
vt -1.516602 0.999023
vt -1.668945 0.000000
vt -1.516602 0.000000
vt -1.650391 0.999023
vt -1.650391 0.000000
vt -1.749023 0.000000
vt -1.919922 -1.002930
vt -1.769531 -1.002930
vt -1.919922 -1.993164
vt -1.769531 -1.993164
vt -1.899414 -1.002930
vt -1.899414 -1.993164
vt -1.948242 -1.993164
vt -0.419922 -1.002930
vt -0.262695 -1.002930
vt -0.262695 -1.998047
vt -0.396484 -1.998047
vt -0.396484 -1.002930
vt -0.450195 -1.998047
vt -0.450195 -1.002930
vt -1.168945 0.000000
vt -1.015625 0.000000
vt -1.015625 -2.997070
vt -1.149414 -2.997070
vt -1.149414 0.000000
vt -1.201172 -2.997070
vt -1.201172 0.000000
vt 3.214844 -1.373047
vt 3.214844 -1.498047
vt 3.121094 -1.373047
vt 3.121094 -1.498047
vt 3.214844 -1.248047
vt 3.121094 -1.248047
vt 3.121094 -0.999023
vt 3.214844 -0.999023
vt 3.121094 -1.248047
vt 3.214844 -1.248047
vt 3.214844 -1.498047
vt 3.121094 -1.498047
vt 3.214844 -1.375000
vt 3.121094 -1.375977
vt -0.449219 -1.998047
vt -0.396484 -1.998047
vt -0.449219 -1.002930
vt -0.396484 -1.002930
vt -0.262695 -1.998047
vt -0.262695 -1.002930
vt -0.419922 -1.002930
vt -1.166016 0.000000
vt -1.015625 0.000000
vt -1.166016 -2.997070
vt -1.015625 -2.997070
vt -1.168945 0.000000
vt -1.168945 -2.997070
vt -0.421875 -1.002930
vt -0.262695 -1.002930
vt -0.421875 -1.998047
vt -0.262695 -1.998047
vt -0.419922 -1.002930
vt -0.419922 -1.998047
vt 2.338867 1.998047
vt 2.184570 1.998047
vt 2.338867 2.184570
vt 2.184570 2.225586
vt 2.059570 1.998047
vt 2.059570 2.184570
vt 2.338867 -0.999023
vt 2.184570 -0.999023
vt 2.338867 -0.811523
vt 2.184570 -0.749023
vt 2.059570 -0.999023
vt 2.059570 -0.811523
vt -1.166016 0.000000
vt -1.015625 0.000000
vt -1.166016 -2.997070
vt -1.015625 -2.997070
vt -1.168945 0.000000
vt -1.168945 -2.997070
vt -0.421875 -1.002930
vt -0.262695 -1.002930
vt -0.421875 -1.998047
vt -0.262695 -1.998047
vt -0.419922 -1.002930
vt -0.419922 -1.998047
vt 2.338867 1.998047
vt 2.184570 1.998047
vt 2.338867 2.184570
vt 2.184570 2.225586
vt 2.059570 1.998047
vt 2.059570 2.184570
vt 2.338867 -0.999023
vt 2.184570 -0.999023
vt 2.338867 -0.811523
vt 2.184570 -0.749023
vt 2.059570 -0.999023
vt 2.059570 -0.811523
vt -0.419922 -1.998047
vt -0.262695 -1.998047
vt -0.419922 -1.002930
vt -0.262695 -1.002930
vt -0.421875 -1.998047
vt -0.421875 -1.002930
vt -1.168945 -2.997070
vt -1.015625 -2.997070
vt -1.168945 0.000000
vt -1.015625 0.000000
vt -1.166016 -2.997070
vt -1.166016 0.000000
vt -1.166016 0.000000
vt -1.015625 0.000000
vt -1.166016 -2.997070
vt -1.015625 -2.997070
vt -1.168945 0.000000
vt -1.168945 -2.997070
vt -0.421875 -1.002930
vt -0.262695 -1.002930
vt -0.421875 -1.998047
vt -0.262695 -1.998047
vt -0.419922 -1.002930
vt -0.419922 -1.998047
vt 2.338867 1.998047
vt 2.184570 1.998047
vt 2.338867 2.184570
vt 2.184570 2.225586
vt 2.059570 1.998047
vt 2.059570 2.184570
vt 2.338867 -0.999023
vt 2.184570 -0.999023
vt 2.338867 -0.811523
vt 2.184570 -0.749023
vt 2.059570 -0.999023
vt 2.059570 -0.811523
vt -0.419922 -1.998047
vt -0.262695 -1.998047
vt -0.419922 -1.002930
vt -0.262695 -1.002930
vt -0.421875 -1.998047
vt -0.421875 -1.002930
vt -1.168945 -2.997070
vt -1.015625 -2.997070
vt -1.168945 0.000000
vt -1.015625 0.000000
vt -1.166016 -2.997070
vt -1.166016 0.000000
vt 2.338867 1.998047
vt 2.184570 1.998047
vt 2.338867 2.184570
vt 2.184570 2.225586
vt 2.059570 1.998047
vt 2.059570 2.184570
vt -1.919922 -1.993164
vt -1.769531 -1.002930
vt -1.769531 -1.993164
vt -1.899414 -1.993164
vt -1.899414 -1.002930
vt -1.947266 -1.002930
vt -1.668945 0.000000
vt -1.516602 0.999023
vt -1.516602 0.000000
vt -1.650391 0.000000
vt -1.650391 0.999023
vt -1.698242 0.999023
vt 2.338867 1.529297
vt 2.184570 1.526367
vt 2.338867 1.685547
vt 2.184570 1.803711
vt 2.059570 1.530273
vt 2.059570 1.873047
vt -1.917969 -1.002930
vt -1.769531 -1.002930
vt -1.769531 -1.993164
vt -1.919922 -1.993164
vt -1.919922 -1.002930
vt -1.669922 0.999023
vt -1.516602 0.999023
vt -1.516602 0.000000
vt -1.668945 0.000000
vt -1.668945 0.999023
vt 2.338867 -1.623047
vt 2.184570 -1.748047
vt 2.184570 -1.185547
vt 2.059570 -1.123047
vt 2.059570 -1.810547
vt 2.338867 -1.123047
vt 2.184570 -1.185547
vt 2.184570 -0.999023
vt 2.059570 -0.999023
vt 2.059570 -1.123047
vt 3.121094 -0.999023
vt 3.214844 -0.749023
vt 3.121094 -0.749023
vt 3.121094 -0.499023
vt 3.214844 -0.499023
vt -1.668945 0.000000
vt -1.516602 0.000000
vt -1.516602 0.999023
vt -1.669922 0.999023
vt -1.669922 0.000000
vt -1.919922 -1.993164
vt -1.769531 -1.993164
vt -1.769531 -1.002930
vt -1.917969 -1.002930
vt -1.917969 -1.993164
vt 2.338867 1.873047
vt 2.184570 1.803711
vt 2.184570 1.998047
vt 2.059570 1.998047
vt 2.059570 1.873047
vt 2.059570 -0.467773
vt 2.184570 -0.462891
vt 2.059570 -0.811523
vt 2.184570 -0.749023
vt 2.338867 -0.624023
vt 2.338867 1.685547
vt 2.184570 1.526367
vt 2.184570 1.803711
vt 2.059570 1.873047
vt 2.059570 1.530273
vt -1.917969 -1.002930
vt -1.769531 -1.002930
vt -1.769531 -1.993164
vt -1.919922 -1.993164
vt -1.919922 -1.002930
vt -1.669922 0.999023
vt -1.516602 0.999023
vt -1.516602 0.000000
vt -1.668945 0.000000
vt -1.668945 0.999023
vt 2.338867 -1.623047
vt 2.184570 -1.748047
vt 2.184570 -1.185547
vt 2.059570 -1.123047
vt 2.059570 -1.810547
vt 2.338867 -1.123047
vt 2.184570 -1.185547
vt 2.184570 -0.999023
vt 2.059570 -0.999023
vt 2.059570 -1.123047
vt 3.121094 -0.999023
vt 3.214844 -0.749023
vt 3.121094 -0.749023
vt 3.121094 -0.499023
vt 3.214844 -0.499023
vt 3.121094 -0.999023
vt 3.214844 -0.749023
vt 3.121094 -0.749023
vt 3.121094 -0.499023
vt 3.214844 -0.499023
vt -1.668945 0.000000
vt -1.516602 0.000000
vt -1.516602 0.999023
vt -1.669922 0.999023
vt -1.669922 0.000000
vt -1.919922 -1.993164
vt -1.769531 -1.993164
vt -1.769531 -1.002930
vt -1.917969 -1.002930
vt -1.917969 -1.993164
vt 2.338867 1.873047
vt 2.184570 1.803711
vt 2.184570 1.998047
vt 2.059570 1.998047
vt 2.059570 1.873047
vt 2.059570 -0.467773
vt 2.184570 -0.462891
vt 2.059570 -0.811523
vt 2.184570 -0.749023
vt 2.338867 -0.624023
vt 2.338867 1.685547
vt 2.184570 1.526367
vt 2.184570 1.803711
vt 2.059570 1.873047
vt 2.059570 1.530273
vt -1.917969 -1.002930
vt -1.769531 -1.002930
vt -1.769531 -1.993164
vt -1.919922 -1.993164
vt -1.919922 -1.002930
vt -1.669922 0.999023
vt -1.516602 0.999023
vt -1.516602 0.000000
vt -1.668945 0.000000
vt -1.668945 0.999023
vt 2.338867 -1.623047
vt 2.184570 -1.748047
vt 2.184570 -1.185547
vt 2.059570 -1.123047
vt 2.059570 -1.810547
vt 2.338867 -1.123047
vt 2.184570 -1.185547
vt 2.184570 -0.999023
vt 2.059570 -0.999023
vt 2.059570 -1.123047
vt 3.121094 -0.999023
vt 3.214844 -0.749023
vt 3.121094 -0.749023
vt 3.121094 -0.499023
vt 3.214844 -0.499023
vt 3.121094 -0.999023
vt 3.214844 -0.749023
vt 3.121094 -0.749023
vt 3.121094 -0.499023
vt 3.214844 -0.499023
vt -1.668945 0.000000
vt -1.516602 0.000000
vt -1.516602 0.999023
vt -1.669922 0.999023
vt -1.669922 0.000000
vt -1.919922 -1.993164
vt -1.769531 -1.993164
vt -1.769531 -1.002930
vt -1.917969 -1.002930
vt -1.917969 -1.993164
vt 2.338867 1.873047
vt 2.184570 1.803711
vt 2.184570 1.998047
vt 2.059570 1.998047
vt 2.059570 1.873047
vt 2.059570 -0.467773
vt 2.184570 -0.462891
vt 2.059570 -0.811523
vt 2.184570 -0.749023
vt 2.338867 -0.624023
vt 2.338867 1.685547
vt 2.184570 1.526367
vt 2.184570 1.803711
vt 2.059570 1.873047
vt 2.059570 1.530273
vt 2.338867 1.873047
vt 2.184570 1.803711
vt 2.184570 1.998047
vt 2.059570 1.998047
vt 2.059570 1.873047
vt -1.168945 -2.997070
vt -1.015625 -2.997070
vt -1.168945 0.000000
vt -1.015625 0.000000
vt -1.166016 0.000000
vt -0.419922 -1.002930
vt -0.262695 -1.998047
vt -0.262695 -1.002930
vt -0.421875 -1.002930
vt -0.421875 -1.998047
vt 3.214844 -0.499023
vt 3.121094 -0.749023
vt 3.214844 -0.749023
vt 3.214844 -0.999023
vt 3.121094 -0.999023
vt -1.669922 0.000000
vt -1.516602 0.999023
vt -1.516602 0.000000
vt -1.668945 0.000000
vt -1.668945 0.999023
vt -1.917969 -1.993164
vt -1.769531 -1.002930
vt -1.769531 -1.993164
vt -1.919922 -1.993164
vt -1.919922 -1.002930
vt 2.059570 -1.468750
vt 2.184570 -1.468750
vt 2.184570 -1.748047
vt 2.338867 -1.623047
vt 2.338867 -1.469727
vt -1.252930 -2.997070
vt -1.149414 -2.997070
vt -1.252930 0.000000
vt -1.149414 0.000000
vt -1.015625 -2.997070
vt -1.015625 0.000000
vt -1.149414 -2.997070
vt -1.149414 0.000000
vt -0.396484 -1.998047
vt -0.396484 -1.002930
vt -0.503906 -1.998047
vt -0.503906 -1.002930
vt 3.214844 -1.248047
vt 3.214844 -1.498047
vt 3.121094 -1.248047
vt 3.121094 -1.498047
vt -1.168945 -2.997070
vt -1.168945 0.000000
vt -1.015625 -2.997070
vt -1.015625 0.000000
vt -1.168945 -2.997070
vt -1.015625 -2.997070
vt -1.168945 0.000000
vt -1.015625 0.000000
vt -1.015625 -2.997070
vt -1.166016 -2.997070
vt -1.015625 0.000000
vt -1.166016 0.000000
vt -1.201172 0.000000
vt -1.252930 0.000000
vt -1.201172 -2.997070
vt -1.252930 -2.997070
vt -1.699219 0.000000
vt -1.699219 0.999023
vt -1.749023 0.000000
vt -1.749023 0.999023
vt -1.948242 -1.993164
vt -1.948242 -1.002930
vt -1.998047 -1.993164
vt -1.998047 -1.002930
vt 3.214844 -1.373047
vt 3.121094 -1.373047
vt 3.214844 -1.248047
vt 3.121094 -1.248047
vt -0.450195 -1.002930
vt -0.503906 -1.002930
vt -0.450195 -1.998047
vt -0.503906 -1.998047
vt -1.201172 0.000000
vt -1.252930 0.000000
vt -1.201172 -2.997070
vt -1.252930 -2.997070
vt -1.699219 0.000000
vt -1.699219 0.999023
vt -1.749023 0.000000
vt -1.749023 0.999023
vt -1.948242 -1.993164
vt -1.948242 -1.002930
vt -1.998047 -1.993164
vt -1.998047 -1.002930
vt 3.214844 -1.373047
vt 3.121094 -1.373047
vt 3.214844 -1.248047
vt 3.121094 -1.248047
vt -0.450195 -1.002930
vt -0.503906 -1.002930
vt -0.450195 -1.998047
vt -0.503906 -1.998047
vt -1.201172 0.000000
vt -1.252930 0.000000
vt -1.201172 -2.997070
vt -1.252930 -2.997070
vt -1.699219 0.000000
vt -1.699219 0.999023
vt -1.749023 0.000000
vt -1.749023 0.999023
vt -1.948242 -1.993164
vt -1.948242 -1.002930
vt -1.998047 -1.993164
vt -1.998047 -1.002930
vt 3.214844 -1.248047
vt 3.214844 -1.373047
vt 3.121094 -1.248047
vt 3.121094 -1.373047
vt -0.450195 -1.998047
vt -0.450195 -1.002930
vt -0.503906 -1.998047
vt -0.503906 -1.002930
vt -1.201172 -2.997070
vt -1.201172 0.000000
vt -1.252930 -2.997070
vt -1.252930 0.000000
vt -1.699219 0.000000
vt -1.699219 0.999023
vt -1.749023 0.000000
vt -1.749023 0.999023
vt -1.948242 -1.993164
vt -1.948242 -1.002930
vt -1.998047 -1.993164
vt -1.998047 -1.002930
vt -1.749023 0.000000
vt -1.650391 0.999023
vt -1.749023 0.999023
vt -1.769531 -1.993164
vt -1.917969 -1.993164
vt -1.917969 -1.002930
vt -1.516602 0.000000
vt -1.669922 0.000000
vt -1.669922 0.999023
vt 2.184570 -1.185547
vt 2.338867 -1.123047
vt 2.338867 -1.310547
vt 2.338867 2.372070
vt 2.338867 2.184570
vt 2.184570 2.225586
vt 2.338867 -1.623047
vt 2.184570 -1.185547
vt 2.338867 -1.310547
vt 2.338867 -1.123047
vt 2.184570 -0.999023
vt 2.338867 -0.999023
vt 3.214844 -0.749023
vt 3.121094 -0.999023
vt 3.214844 -0.999023
vt -0.419922 -1.998047
vt -0.419922 -1.002930
vt -0.262695 -1.998047
vt -1.168945 0.000000
vt -1.015625 -2.997070
vt -1.168945 -2.997070
vt 3.214844 -1.248047
vt 3.214844 -0.999023
vt 3.121094 -0.999023
vt -1.668945 0.000000
vt -1.516602 0.999023
vt -1.668945 0.999023
vt -1.919922 -1.002930
vt -1.919922 -1.993164
vt -1.769531 -1.002930
vt 2.338867 1.873047
vt 2.184570 1.998047
vt 2.338867 1.998047
vt 2.184570 -0.749023
vt 2.338867 -0.624023
vt 2.338867 -0.811523
vt 2.184570 1.803711
vt 2.338867 1.873047
vt 2.338867 1.685547
vt 2.338867 -0.624023
vt 2.184570 -0.462891
vt 2.338867 -0.467773
vt -1.899414 -1.002930
vt -1.948242 -1.002930
vt -1.948242 -1.993164
vt 2.338867 1.685547
vt 2.338867 1.529297
vt 2.184570 1.526367
vt -1.749023 0.000000
vt -1.650391 0.999023
vt -1.749023 0.999023
vt -1.769531 -1.993164
vt -1.917969 -1.993164
vt -1.917969 -1.002930
vt -1.516602 0.000000
vt -1.669922 0.000000
vt -1.669922 0.999023
vt -1.252930 0.000000
vt -1.252930 -2.997070
vt -1.149414 -2.997070
vt 2.184570 -1.185547
vt 2.338867 -1.123047
vt 2.338867 -1.310547
vt -0.503906 -1.998047
vt -0.396484 -1.002930
vt -0.503906 -1.002930
vt 2.338867 2.372070
vt 2.338867 2.184570
vt 2.184570 2.225586
vt 2.338867 -1.623047
vt 2.184570 -1.185547
vt 2.338867 -1.310547
vt 2.338867 -1.123047
vt 2.184570 -0.999023
vt 2.338867 -0.999023
vt 3.214844 -0.749023
vt 3.121094 -0.999023
vt 3.214844 -0.999023
vt 3.214844 -1.248047
vt 3.214844 -0.999023
vt 3.121094 -0.999023
vt -0.419922 -1.998047
vt -0.419922 -1.002930
vt -0.262695 -1.998047
vt -1.168945 0.000000
vt -1.015625 -2.997070
vt -1.168945 -2.997070
vt 3.214844 -1.248047
vt 3.214844 -0.999023
vt 3.121094 -0.999023
vt 3.214844 -0.749023
vt 3.121094 -0.999023
vt 3.214844 -0.999023
vt -1.668945 0.000000
vt -1.516602 0.999023
vt -1.668945 0.999023
vt -1.919922 -1.002930
vt -1.919922 -1.993164
vt -1.769531 -1.002930
vt 2.338867 1.873047
vt 2.184570 1.998047
vt 2.338867 1.998047
vt 2.184570 -0.749023
vt 2.338867 -0.624023
vt 2.338867 -0.811523
vt 2.184570 1.803711
vt 2.338867 1.873047
vt 2.338867 1.685547
vt 2.338867 -0.624023
vt 2.184570 -0.462891
vt 2.338867 -0.467773
vt -1.899414 -1.002930
vt -1.948242 -1.002930
vt -1.948242 -1.993164
vt 2.338867 1.685547
vt 2.338867 1.529297
vt 2.184570 1.526367
vt -1.749023 0.000000
vt -1.650391 0.999023
vt -1.749023 0.999023
vt -1.769531 -1.993164
vt -1.917969 -1.993164
vt -1.917969 -1.002930
vt -1.516602 0.000000
vt -1.669922 0.000000
vt -1.669922 0.999023
vt -1.252930 0.000000
vt -1.252930 -2.997070
vt -1.149414 -2.997070
vt 2.184570 -1.185547
vt 2.338867 -1.123047
vt 2.338867 -1.310547
vt -0.503906 -1.998047
vt -0.396484 -1.002930
vt -0.503906 -1.002930
vt 2.338867 2.372070
vt 2.338867 2.184570
vt 2.184570 2.225586
vt 2.338867 -1.623047
vt 2.184570 -1.185547
vt 2.338867 -1.310547
vt 2.338867 -1.123047
vt 2.184570 -0.999023
vt 2.338867 -0.999023
vt 3.214844 -0.749023
vt 3.121094 -0.999023
vt 3.214844 -0.999023
vt 3.214844 -1.248047
vt 3.214844 -0.999023
vt 3.121094 -0.999023
vt -0.419922 -1.998047
vt -0.419922 -1.002930
vt -0.262695 -1.998047
vt -1.168945 0.000000
vt -1.015625 -2.997070
vt -1.168945 -2.997070
vt 3.214844 -1.248047
vt 3.214844 -0.999023
vt 3.121094 -0.999023
vt 3.214844 -0.749023
vt 3.121094 -0.999023
vt 3.214844 -0.999023
vt -1.668945 0.000000
vt -1.516602 0.999023
vt -1.668945 0.999023
vt -1.919922 -1.002930
vt -1.919922 -1.993164
vt -1.769531 -1.002930
vt 2.338867 1.873047
vt 2.184570 1.998047
vt 2.338867 1.998047
vt 2.184570 -0.749023
vt 2.338867 -0.624023
vt 2.338867 -0.811523
vt 2.184570 1.803711
vt 2.338867 1.873047
vt 2.338867 1.685547
vt 2.338867 -0.624023
vt 2.184570 -0.462891
vt 2.338867 -0.467773
vt -1.899414 -1.002930
vt -1.948242 -1.002930
vt -1.948242 -1.993164
vt 2.338867 1.685547
vt 2.338867 1.529297
vt 2.184570 1.526367
vt 2.338867 1.873047
vt 2.184570 1.998047
vt 2.338867 1.998047
vt -0.262695 -1.998047
vt -0.419922 -1.002930
vt -0.419922 -1.998047
vt 3.214844 -0.999023
vt 3.121094 -0.999023
vt 3.121094 -1.248047
vt 3.121094 -0.499023
vt 3.121094 -0.749023
vt 3.214844 -0.499023
vt -1.166016 0.000000
vt -1.015625 -2.997070
vt -1.166016 -2.997070
vt -1.516602 0.999023
vt -1.669922 0.000000
vt -1.669922 0.999023
vt -1.769531 -1.002930
vt -1.917969 -1.993164
vt -1.917969 -1.002930
vt -1.769531 -1.002930
vt -1.919922 -1.993164
vt -1.919922 -1.002930
vt -1.516602 0.999023
vt -1.668945 0.000000
vt -1.668945 0.999023
vt -0.262695 -1.998047
vt -0.419922 -1.998047
vt -0.419922 -1.002930
vt 2.184570 1.803711
vt 2.338867 1.873047
vt 2.338867 1.685547
vt 2.338867 2.372070
vt 2.338867 2.184570
vt 2.184570 2.225586
vt 2.184570 -1.748047
vt 2.059570 -1.810547
vt 2.059570 -1.468750
vt -1.947266 -1.002930
vt -1.947266 -1.993164
vt -1.899414 -1.993164
vt -1.698242 0.999023
vt -1.698242 0.000000
vt -1.650391 0.000000
vn 0.0000 0.0000 -1.0000
vn -0.0701 -0.4081 -0.9103
vn 0.0000 0.0604 -0.9982
vn -0.6699 -0.3692 -0.6441
vn -0.6937 -0.3886 -0.6065
vn -0.9952 0.0945 -0.0260
vn -0.7925 0.0155 -0.6097
vn -0.7467 0.3354 -0.5744
vn -0.9412 -0.3378 -0.0073
vn -0.9998 0.0195 0.0000
vn -0.9452 0.0672 0.3195
vn -0.9399 0.3379 -0.0487
vn 0.0000 0.0195 -0.9998
vn 0.0516 0.4060 -0.9124
vn 0.0063 -0.3919 -0.9200
vn 0.6443 0.3686 -0.6701
vn 0.6718 0.4050 -0.6202
vn 0.8923 -0.0444 -0.4492
vn 0.6506 -0.4177 -0.6342
vn 0.5178 0.0544 -0.8538
vn 0.7080 -0.3495 -0.6136
vn 0.9218 0.3876 -0.0069
vn 1.0000 0.0000 0.0000
vn 0.9369 -0.0299 0.3482
vn 0.9369 -0.3482 -0.0298
vn -0.0664 -0.3860 -0.9201
vn 0.3860 -0.0664 -0.9201
vn -0.6633 -0.3917 -0.6377
vn -0.7925 0.0155 -0.6096
vn 0.0494 0.3900 -0.9195
vn -0.3719 0.0675 -0.9258
vn 0.6397 0.3850 -0.6653
vn 0.6719 0.4050 -0.6201
vn 0.8924 -0.0445 -0.4491
vn -0.0662 -0.3861 -0.9201
vn -0.0078 0.4373 -0.8993
vn -0.6632 -0.3917 -0.6377
vn -0.6959 -0.3771 -0.6111
vn -0.9126 0.0559 -0.4050
vn -0.6697 0.4565 -0.5857
vn -0.5968 -0.0301 -0.8018
vn -0.9369 -0.3496 -0.0069
vn 0.0064 -0.3918 -0.9200
vn 0.9369 -0.3482 -0.0299
vn -1.0000 -0.0076 0.0000
vn -0.9131 0.4069 -0.0246
vn -0.9102 0.0177 0.4139
vn -0.9238 -0.3829 0.0028
vn -0.5969 0.4116 -0.6887
vn -0.5991 0.3427 -0.7236
vn -0.2407 -0.0264 -0.9703
vn -0.6863 -0.3706 -0.6258
vn -0.9491 0.0212 -0.3144
vn 0.0026 0.3510 -0.9364
vn 0.3915 -0.0129 -0.9201
vn -0.0127 -0.3915 -0.9201
vn -0.9195 0.3899 -0.0495
vn -0.9258 0.0675 0.3719
vn -0.9200 -0.3918 -0.0063
vn -0.6653 0.3850 -0.6397
vn -0.7106 0.0941 -0.6973
vn -0.4492 -0.0444 -0.8923
vn -0.6342 -0.4177 -0.6506
vn -0.6459 0.0101 -0.7633
vn -0.6136 -0.3495 -0.7080
vn 0.6510 0.1238 -0.7489
vn 0.0000 -0.3495 -0.9369
vn 0.0486 0.3380 -0.9399
vn -0.3195 0.0672 -0.9452
vn 0.0069 -0.3497 -0.9369
vn 0.5744 0.3354 -0.7467
vn 0.6126 0.0665 -0.7876
vn 0.8019 -0.0302 -0.5967
vn 0.6111 -0.3771 -0.6959
vn 0.7352 0.0053 -0.6779
vn 0.6377 -0.3917 -0.6632
vn 0.6495 0.0787 0.7563
vn 0.9201 -0.3917 0.0000
vn -0.0000 0.3736 -0.9276
vn -0.6412 -0.0949 -0.7615
vn 0.6918 -0.0606 -0.7195
vn 0.9097 0.0507 -0.4121
vn 0.6760 -0.3881 -0.6264
vn 0.6064 0.3702 -0.7037
vn 0.6377 0.3917 -0.6632
vn 0.3580 -0.0531 -0.9322
vn 0.9201 0.0326 0.3904
vn 0.9201 0.3904 -0.0326
vn 0.0000 -0.0064 -1.0000
vn 0.0022 0.4077 -0.9131
vn -0.6789 -0.0342 -0.7334
vn 0.6929 -0.0233 -0.7206
vn 0.8933 0.0146 -0.4493
vn 0.6491 -0.3969 -0.6490
vn 0.6753 0.4169 -0.6084
vn 0.7080 0.3495 -0.6136
vn 0.5176 -0.0180 -0.8554
vn 0.9207 -0.3904 -0.0024
vn 0.9369 0.0098 0.3494
vn 0.9369 0.3494 -0.0098
vn 0.9322 0.3618 0.0000
vn 0.9672 -0.0379 -0.2514
vn 0.7495 0.6620 -0.0052
vn 0.6972 0.1669 -0.6972
vn 0.5470 0.2128 -0.8096
vn 0.3730 0.6480 -0.6641
vn 0.7503 0.5774 -0.3221
vn 0.7681 0.2279 -0.5984
vn 0.4844 0.7153 -0.5038
vn -0.2062 0.0031 -0.9785
vn 0.0000 0.3926 -0.9197
vn -0.0000 0.6756 -0.7372
vn 0.6998 -0.0436 -0.7130
vn 0.0000 0.3495 -0.9369
vn -0.6137 0.3495 -0.7080
vn -0.6060 -0.0011 -0.7955
vn -0.6084 0.4169 -0.6753
vn -0.7197 -0.0325 -0.6936
vn -0.6676 -0.3773 -0.6418
vn -0.4494 0.0146 -0.8932
vn -0.9131 0.4077 -0.0022
vn -0.9273 -0.0221 0.3738
vn -1.0000 -0.0064 0.0000
vn -0.9250 -0.3797 -0.0162
vn -0.0077 -0.4374 -0.8992
vn 0.6610 0.1103 -0.7423
vn -0.7191 0.0706 -0.6914
vn -0.9127 -0.0543 -0.4049
vn -0.6951 0.3771 -0.6120
vn -0.6709 -0.4562 -0.5846
vn -0.7468 -0.3350 -0.5745
vn -0.5968 0.0293 -0.8019
vn -0.9366 0.3503 -0.0068
vn -0.9453 -0.0652 0.3197
vn -0.9998 -0.0190 0.0000
vn -0.9401 -0.3376 -0.0473
vn 0.0000 0.3618 -0.9323
vn -0.2773 0.1102 -0.9544
vn 0.1782 0.0357 -0.9833
vn -0.0342 0.6764 -0.7357
vn -0.7055 0.0668 -0.7055
vn -0.7901 0.1280 -0.5995
vn -0.6434 0.6518 -0.4014
vn -0.2733 0.7453 -0.6081
vn -0.6803 0.4032 -0.6121
vn -0.5266 0.7474 -0.4051
vn -0.9628 0.1999 0.1817
vn -0.8495 0.5275 0.0000
vn -0.6754 0.7375 -0.0000
vn -0.6459 0.0101 -0.7634
vn -0.6137 -0.3495 -0.7080
vn 0.6919 -0.0606 -0.7195
vn 0.6064 0.3701 -0.7037
vn 0.9783 0.0487 -0.2013
vn 0.9615 0.0919 0.2588
vn 0.7055 0.0668 -0.7055
vn 0.6955 -0.0518 -0.7167
vn -0.6136 0.3495 -0.7080
vn -0.6101 -0.0016 -0.7923
vn -0.6109 0.4171 -0.6730
vn -0.7192 -0.0387 -0.6938
vn -0.6673 -0.3781 -0.6417
vn -0.4492 0.0175 -0.8933
vn -0.9138 0.4062 -0.0027
vn -0.9272 -0.0265 0.3737
vn -0.9245 -0.3808 -0.0194
vn -0.5968 0.0293 -0.8018
vn -0.2773 0.1103 -0.9544
vn -0.8495 0.5276 0.0000
vn -0.9195 0.3899 -0.0494
vn -0.9200 -0.3919 -0.0063
vn 0.0486 0.3379 -0.9399
vn 0.8018 -0.0301 -0.5968
vn -0.6411 -0.0949 -0.7615
vn 0.9098 0.0507 -0.4120
vn 0.6376 0.3917 -0.6633
vn 0.9201 -0.3917 0.0001
vn 0.0000 -0.0076 -1.0000
vn 0.0027 0.4062 -0.9138
vn -0.6760 -0.0407 -0.7358
vn 0.6928 -0.0277 -0.7206
vn 0.8933 0.0175 -0.4492
vn 0.6512 -0.3978 -0.6463
vn 0.6730 0.4171 -0.6109
vn 0.5175 -0.0215 -0.8554
vn 0.9208 -0.3901 -0.0028
vn 0.9369 0.0117 0.3493
vn 0.9369 0.3493 -0.0117
vn 0.9783 0.0487 -0.2014
vn 0.9323 0.3618 0.0000
vn 0.3731 0.6480 -0.6640
vn 0.7502 0.5775 -0.3221
vn 0.7680 0.2279 -0.5985
vn 0.4844 0.7153 -0.5037
vn -0.2063 0.0031 -0.9785
vn -0.6495 0.6882 0.3231
vn -0.9742 0.2258 0.0000
vn -0.6921 0.2047 -0.6921
vn -0.3902 0.6392 -0.6627
vn -0.4402 0.3583 -0.8233
vn -0.8476 0.3521 -0.3969
vn -0.5357 0.7371 -0.4120
vn -0.9312 0.0591 -0.3598
vn 0.0346 -0.0367 -0.9987
vn 0.3175 0.5617 -0.7640
vn -0.3089 0.5716 -0.7602
vn -0.0360 -0.4403 -0.8971
vn 0.4403 -0.0359 -0.8971
vn 0.0068 0.3957 -0.9184
vn -0.7111 -0.4418 -0.5470
vn -0.7968 -0.0432 -0.6027
vn -0.9874 0.0533 -0.1491
vn -0.6312 0.3715 -0.6809
vn -0.6057 -0.0196 -0.7955
vn -0.6718 0.3624 -0.6460
vn -0.8170 -0.0869 0.5700
vn -0.9351 0.3543 0.0000
vn 0.6549 0.0000 -0.7557
vn 0.6084 0.4169 -0.6753
vn 0.5859 0.0000 -0.8104
vn 0.7208 -0.0075 -0.6931
vn 0.4494 0.0146 -0.8932
vn 0.6676 -0.3773 -0.6418
vn 0.9131 0.4077 -0.0022
vn 1.0000 -0.0064 0.0000
vn 0.9273 -0.0221 0.3738
vn 0.9250 -0.3797 -0.0162
vn 0.7208 0.0000 -0.6931
vn 0.6951 0.3771 -0.6120
vn 0.6469 -0.0000 -0.7626
vn 0.7924 -0.0246 -0.6095
vn 0.5968 0.0293 -0.8019
vn 0.7468 -0.3350 -0.5745
vn 0.9366 0.3503 -0.0068
vn 0.9998 -0.0190 0.0000
vn 0.9453 -0.0652 0.3197
vn 0.9401 -0.3376 -0.0473
vn -0.9947 -0.1026 0.0000
vn -0.9600 -0.2503 -0.1253
vn -0.9957 -0.0929 -0.0000
vn -0.9939 -0.1092 0.0142
vn -0.9919 0.0138 -0.1262
vn -0.9555 0.1541 0.2516
vn -0.6944 -0.6713 -0.2591
vn -0.8199 -0.5724 0.0129
vn -0.7519 -0.6521 0.0971
vn -0.8861 -0.4623 0.0331
vn -0.8288 -0.5596 -0.0000
vn -0.8240 -0.5665 0.0000
vn 0.0000 -0.1048 -0.9945
vn 0.1233 -0.2521 -0.9598
vn 0.0000 -0.0961 -0.9954
vn -0.0128 -0.1107 -0.9938
vn 0.1268 0.0125 -0.9918
vn -0.2501 0.1519 -0.9562
vn 0.2586 -0.6702 -0.6956
vn -0.0116 -0.5719 -0.8203
vn -0.0960 -0.6507 -0.7532
vn -0.0336 -0.4625 -0.8860
vn 0.0000 -0.5603 -0.8283
vn 0.0000 -0.5665 -0.8240
vn -0.0547 -0.3696 -0.9276
vn 0.3696 -0.0547 -0.9276
vn -0.6429 -0.3736 -0.6686
vn -0.6931 0.0000 -0.7208
vn -0.9097 0.0507 -0.4121
vn -0.6064 0.3701 -0.7037
vn -0.0162 -0.3797 -0.9250
vn 0.3738 -0.0221 -0.9273
vn -0.0022 0.4077 -0.9131
vn -0.6419 -0.3773 -0.6676
vn -0.6931 -0.0075 -0.7208
vn -0.8932 0.0146 -0.4494
vn -0.6753 0.4169 -0.6084
vn -0.8104 0.0000 -0.5859
vn -0.7557 0.0000 -0.6549
vn 0.6109 0.4171 -0.6729
vn 0.5863 0.0000 -0.8101
vn 0.7208 -0.0090 -0.6931
vn 0.4492 0.0175 -0.8933
vn 0.6674 -0.3781 -0.6416
vn 0.9138 0.4062 -0.0027
vn 1.0000 -0.0076 0.0000
vn 0.9272 -0.0265 0.3737
vn 0.9245 -0.3808 -0.0194
vn -0.9919 0.0138 -0.1261
vn -0.8287 -0.5596 0.0000
vn -0.2502 0.1520 -0.9562
vn 0.2585 -0.6703 -0.6956
vn -0.0959 -0.6507 -0.7533
vn -0.0336 -0.4624 -0.8860
vn -0.9098 0.0507 -0.4120
vn -0.0194 -0.3808 -0.9245
vn 0.3737 -0.0265 -0.9272
vn -0.0027 0.4062 -0.9138
vn -0.6416 -0.3781 -0.6674
vn -0.6931 -0.0090 -0.7208
vn -0.8933 0.0175 -0.4492
vn -0.6729 0.4171 -0.6109
vn -0.8101 0.0000 -0.5863
vn -0.9555 0.1542 0.2516
vn -0.6944 -0.6714 -0.2591
vn -0.8176 0.0894 0.5688
vn -0.9353 -0.3538 0.0000
vn -0.6719 -0.3621 -0.6461
vn -0.6047 0.0204 -0.7962
vn -0.7172 -0.0140 -0.6968
vn -0.7971 0.0443 -0.6023
vn -0.7111 0.4418 -0.5470
vn -0.8695 -0.0052 -0.4939
vn 0.6993 -0.0462 -0.7133
vn 0.0000 0.4418 -0.8971
vn -0.7503 0.0896 0.6550
vn -0.9185 -0.3955 0.0000
vn -0.5986 -0.4056 -0.6907
vn -0.5453 0.0197 -0.8380
vn -0.6510 -0.0126 -0.7590
vn -0.7264 0.0452 -0.6858
vn -0.6632 0.3917 -0.6377
vn -0.7969 -0.0052 -0.6041
vn 0.6339 -0.0420 -0.7723
vn 0.0000 0.3917 -0.9201
vn -0.9923 -0.1240 -0.0000
vn -0.9405 -0.3089 -0.1413
vn -0.9816 0.0197 -0.1899
vn -0.9624 0.1319 0.2374
vn -0.8006 -0.5504 -0.2367
vn -0.7585 -0.6480 0.0698
vn -0.8810 -0.4697 0.0563
vn 0.7925 0.0155 -0.6096
vn 0.7467 0.3354 -0.5744
vn 0.3054 -0.0666 -0.9499
vn 0.9996 -0.0268 0.0000
vn 0.9452 0.0672 0.3195
vn 0.9998 0.0195 0.0000
vn 0.9399 0.3379 -0.0487
vn 0.7208 0.0141 -0.6930
vn 0.6653 0.3850 -0.6397
vn 0.1032 -0.0885 -0.9907
vn 0.9993 -0.0383 0.0000
vn 0.9258 0.0675 0.3719
vn 0.9195 0.3899 -0.0494
vn 0.0000 -0.1240 -0.9923
vn 0.2374 0.1318 -0.9624
vn -0.1448 0.2515 -0.9570
vn -0.0618 -0.5362 -0.8418
vn 0.0340 -0.6616 -0.7491
vn 0.0884 -0.4886 -0.8680
vn 0.9934 -0.1139 0.0097
vn 0.9562 0.1519 0.2502
vn 0.9784 0.0795 -0.1908
vn 0.7394 -0.6491 -0.1785
vn 0.7533 -0.6507 0.0959
vn 0.8203 -0.5719 0.0116
vn 0.8860 -0.4624 0.0336
vn 0.8240 -0.5665 0.0000
vn 0.8283 -0.5603 -0.0000
vn 0.8495 0.5275 0.0000
vn 0.9628 0.1999 0.1817
vn 0.6754 0.7375 -0.0000
vn 0.5266 0.7474 -0.4051
vn 0.6803 0.4032 -0.6121
vn 0.6160 0.6292 -0.4739
vn 0.7901 0.1280 -0.5995
vn 0.6474 0.4020 -0.6475
vn 0.5913 0.4077 -0.6958
vn -0.0063 -0.3918 -0.9200
vn 0.6471 0.1008 -0.7557
vn -0.6915 0.0684 -0.7191
vn -0.8923 -0.0444 -0.4492
vn -0.6929 0.0231 -0.7206
vn -0.6506 -0.4177 -0.6342
vn -0.8074 -0.0000 -0.5901
vn -0.0069 -0.3497 -0.9369
vn 0.5594 0.1013 -0.8226
vn -0.6082 0.0695 -0.7907
vn -0.8018 -0.0301 -0.5968
vn -0.6095 0.0254 -0.7924
vn -0.6111 -0.3771 -0.6959
vn -0.7624 -0.0000 -0.6471
vn 0.0107 -0.1128 -0.9936
vn 0.2516 0.1541 -0.9555
vn -0.1903 0.0817 -0.9783
vn -0.1783 -0.6503 -0.7385
vn 0.0971 -0.6521 -0.7519
vn 0.0128 -0.5725 -0.8198
vn 0.0331 -0.4623 -0.8861
vn 0.0000 -0.5665 -0.8241
vn -0.0000 -0.5596 -0.8288
vn 0.8547 -0.4944 -0.1582
vn 0.7216 -0.6880 -0.0768
vn 0.8526 -0.5111 0.1092
vn 0.9696 0.0573 -0.2380
vn 0.9923 -0.1240 0.0000
vn 0.9624 0.1319 0.2374
vn -0.9696 0.0573 -0.2380
vn -0.8526 -0.5111 0.1092
vn -0.7216 -0.6880 -0.0768
vn -0.8547 -0.4944 -0.1582
vn 0.1033 -0.0885 -0.9907
vn 0.9562 0.1520 0.2502
vn 0.6160 0.6293 -0.4738
vn 0.0000 0.3927 -0.9197
vn 0.2062 0.0031 -0.9785
vn 0.0000 0.6757 -0.7372
vn -0.4843 0.7153 -0.5037
vn -0.7680 0.2280 -0.5985
vn -0.6217 0.4421 -0.6466
vn -0.5471 0.2127 -0.8096
vn -0.6475 0.4020 -0.6474
vn -0.6551 0.4031 -0.6390
vn 0.2516 0.1542 -0.9555
vn -0.1783 -0.6503 -0.7384
vn 0.0128 -0.5724 -0.8198
vn 0.2374 0.1319 -0.9624
vn -0.0619 -0.5362 -0.8418
vn 0.7532 -0.6507 0.0960
vn 0.7901 0.1280 -0.5994
vn 0.6474 0.4020 -0.6474
vn -0.4844 0.7153 -0.5037
vn -0.7680 0.2279 -0.5985
vn -0.6217 0.4420 -0.6466
vn -0.5470 0.2128 -0.8096
vn -0.6474 0.4020 -0.6474
vn -0.0063 -0.3919 -0.9200
vn -0.8074 -0.0000 -0.5900
vn -0.8018 -0.0302 -0.5968
vn -0.1903 0.0816 -0.9783
vn 0.0129 -0.5724 -0.8199
vn 0.9624 0.1318 0.2374
vn -0.0015 -0.0360 -0.9994
vn 0.0283 -0.0091 -0.9996
vn 0.0000 0.4077 -0.9131
vn -0.9926 -0.0436 0.1133
vn -0.7557 -0.0050 -0.6549
vn -0.6887 0.4116 -0.5969
vn 0.6411 -0.0949 -0.7615
vn -0.6429 0.3736 -0.6686
vn -0.7351 -0.0082 -0.6779
vn -0.6859 -0.0600 -0.7252
vn -0.6408 0.4228 -0.6408
vn -0.6534 0.6995 -0.2893
vn -0.7042 0.0907 -0.7042
vn 0.0000 0.0346 -0.9994
vn 0.1841 0.5483 -0.8158
vn -0.2184 0.5092 -0.8324
vn -0.7556 0.0128 -0.6549
vn -0.9918 0.1075 0.0686
vn -0.6907 -0.4056 -0.5986
vn 0.0000 -0.3955 -0.9185
vn 0.0689 0.0286 -0.9972
vn -0.0092 0.0884 -0.9960
vn -0.6930 0.0141 -0.7208
vn -0.9907 0.0928 -0.1000
vn -0.6461 -0.3621 -0.6719
vn 0.0000 -0.3538 -0.9353
vn 0.0574 0.0282 -0.9980
vn -0.0087 0.0768 -0.9970
vn -0.2367 -0.5504 -0.8006
vn 0.1485 -0.7275 -0.6698
vn 0.1430 0.0282 -0.9893
vn -0.1912 0.0179 -0.9814
vn -0.1395 -0.3103 -0.9404
vn -0.7208 -0.0046 -0.6931
vn -0.7792 -0.0050 -0.6268
vn -0.7208 -0.0075 -0.6931
vn -0.5859 0.0000 -0.8104
vn -0.6549 0.0027 -0.7557
vn -0.6549 0.0000 -0.7557
vn -0.6931 -0.0046 -0.7208
vn -0.6268 -0.0050 -0.7792
vn -0.7557 0.0026 -0.6549
vn -1.0000 0.0000 0.0000
vn -0.9322 0.3618 0.0000
vn -0.9323 0.3618 0.0000
vn 0.5415 -0.6430 -0.5415
vn -0.5415 -0.6430 -0.5415
vn 0.9945 -0.1048 0.0000
vn 0.0000 -0.1026 -0.9947
vn 0.5415 -0.6431 -0.5415
vn -0.5415 -0.6431 -0.5415
vn -0.6351 0.4003 -0.6606
vn -0.6097 0.0000 -0.7926
usemtl Tex_0073_0.dds.001
s off
f 1/1/1 3/2/2 2/3/1
f 2/3/1 3/2/1 4/4/3
f 3/2/4 5/5/5 4/4/6
f 4/4/7 5/5/7 6/6/8
f 5/5/9 7/7/10 6/6/11
f 6/6/12 7/7/10 8/8/10
f 9/9/13 11/10/14 10/11/13
f 10/11/13 11/10/13 12/12/15
f 11/10/16 13/13/17 12/12/18
f 12/12/19 13/13/20 14/14/21
f 13/13/22 15/15/23 14/14/24
f 14/14/25 15/15/23 16/16/23
f 17/17/1 19/18/26 18/19/1
f 18/19/1 19/18/27 20/20/3
f 19/18/28 21/21/5 20/20/6
f 20/20/29 21/21/29 22/22/8
f 21/21/9 23/23/10 22/22/11
f 22/22/12 23/23/10 24/24/10
f 25/25/13 27/26/30 26/27/13
f 26/27/13 27/26/31 28/28/15
f 27/26/32 29/29/33 28/28/34
f 28/28/19 29/29/20 30/30/21
f 29/29/22 31/31/23 30/30/24
f 30/30/25 31/31/23 32/32/23
f 33/33/1 35/34/35 34/35/1
f 34/35/1 35/34/27 36/36/36
f 35/34/37 37/37/38 36/36/39
f 36/36/40 37/37/41 38/38/8
f 37/37/42 39/39/10 38/38/11
f 38/38/12 39/39/10 40/40/10
f 41/41/13 43/42/14 42/43/13
f 42/43/13 43/42/13 44/44/43
f 43/42/16 45/45/17 44/44/18
f 44/44/19 45/45/20 46/46/21
f 45/45/22 47/47/23 46/46/24
f 46/46/44 47/47/23 48/48/23
f 49/49/45 51/50/46 50/51/45
f 50/51/45 51/50/47 52/52/48
f 51/50/49 53/53/50 52/52/51
f 52/52/52 53/53/53 54/54/37
f 53/53/54 55/55/1 54/54/55
f 54/54/56 55/55/1 56/56/1
f 57/57/10 59/58/57 58/59/10
f 58/59/10 59/58/58 60/60/59
f 59/58/60 61/61/61 60/60/62
f 60/60/63 61/61/64 62/62/65
f 61/61/66 63/63/1 62/62/67
f 64/64/13 66/65/68 65/66/13
f 65/66/13 66/65/69 67/67/70
f 66/65/71 68/68/72 67/67/73
f 67/67/74 68/68/75 69/69/76
f 68/68/77 70/70/23 69/69/78
f 71/71/1 73/72/79 72/73/80
f 72/73/81 73/72/82 74/74/83
f 73/72/84 75/75/85 74/74/86
f 74/74/78 75/75/87 76/76/23
f 75/75/88 77/77/23 76/76/23
f 78/78/89 80/79/90 79/80/91
f 79/80/92 80/79/93 81/81/94
f 80/79/95 82/82/96 81/81/97
f 81/81/98 82/82/99 83/83/23
f 82/82/100 84/84/23 83/83/23
f 85/85/101 87/86/102 86/87/101
f 86/87/101 87/86/101 88/88/103
f 87/86/104 89/89/105 88/88/106
f 88/88/107 89/89/108 90/90/109
f 89/89/110 91/91/111 90/90/112
f 92/92/1 94/93/113 93/94/114
f 93/94/115 94/93/116 95/95/117
f 94/93/118 96/96/119 95/95/120
f 95/95/121 96/96/122 97/97/123
f 96/96/124 98/98/123 97/97/123
f 99/99/1 101/100/125 100/101/126
f 100/101/127 101/100/128 102/102/129
f 101/100/130 103/103/131 102/102/132
f 102/102/133 103/103/134 104/104/135
f 103/103/136 105/105/135 104/104/135
f 106/106/137 108/107/138 107/108/137
f 107/108/137 108/107/139 109/109/140
f 108/107/141 110/110/142 109/109/143
f 109/109/144 110/110/145 111/111/146
f 110/110/147 112/112/148 111/111/149
f 113/113/10 115/114/57 114/115/10
f 114/115/10 115/114/58 116/116/59
f 115/114/60 117/117/61 116/116/62
f 116/116/63 117/117/150 118/118/151
f 117/117/66 119/119/1 118/118/67
f 120/120/13 122/121/68 121/122/13
f 121/122/13 122/121/69 123/123/70
f 122/121/71 124/124/72 123/123/73
f 123/123/74 124/124/75 125/125/76
f 124/124/77 126/126/23 125/125/78
f 127/127/1 129/128/79 128/129/80
f 128/129/152 129/128/82 130/130/83
f 129/128/153 131/131/85 130/130/86
f 130/130/78 131/131/87 132/132/23
f 131/131/88 133/133/23 132/132/23
f 134/134/89 136/135/90 135/136/91
f 135/136/92 136/135/93 137/137/94
f 136/135/95 138/138/96 137/137/97
f 137/137/98 138/138/99 139/139/23
f 138/138/100 140/140/23 139/139/23
f 141/141/101 143/142/154 142/143/101
f 142/143/101 143/142/155 144/144/103
f 143/142/156 145/145/105 144/144/106
f 144/144/107 145/145/108 146/146/109
f 145/145/110 147/147/111 146/146/112
f 148/148/1 150/149/157 149/150/114
f 149/150/158 150/149/159 151/151/160
f 150/149/161 152/152/162 151/151/163
f 151/151/164 152/152/165 153/153/45
f 152/152/166 154/154/45 153/153/45
f 155/155/1 157/156/125 156/157/126
f 156/157/127 157/156/128 158/158/129
f 157/156/130 159/159/131 158/158/167
f 158/158/133 159/159/134 160/160/135
f 159/159/136 161/161/135 160/160/135
f 162/162/137 164/163/168 163/164/137
f 163/164/137 164/163/139 165/165/140
f 164/163/141 166/166/142 165/165/143
f 165/165/144 166/166/145 167/167/146
f 166/166/147 168/168/169 167/167/149
f 169/169/10 171/170/170 170/171/10
f 170/171/10 171/170/58 172/172/171
f 171/170/60 173/173/61 172/172/62
f 172/172/63 173/173/150 174/174/65
f 173/173/66 175/175/1 174/174/67
f 176/176/13 178/177/172 177/178/13
f 177/178/13 178/177/69 179/179/70
f 178/177/71 180/180/72 179/179/173
f 179/179/74 180/180/75 181/181/76
f 180/180/77 182/182/23 181/181/78
f 183/183/1 185/184/79 184/185/174
f 184/185/81 185/184/175 186/186/83
f 185/184/153 187/187/176 186/186/86
f 186/186/177 187/187/87 188/188/23
f 187/187/88 189/189/23 188/188/23
f 190/190/178 192/191/179 191/192/180
f 191/192/181 192/191/182 193/193/183
f 192/191/184 194/194/96 193/193/185
f 193/193/186 194/194/187 195/195/23
f 194/194/188 196/196/23 195/195/23
f 197/197/101 199/198/189 198/199/101
f 198/199/190 199/198/155 200/200/103
f 199/198/156 201/201/105 200/200/191
f 200/200/192 201/201/193 202/202/194
f 201/201/195 203/203/111 202/202/112
f 204/204/148 206/205/196 205/206/197
f 205/206/198 206/205/199 207/207/200
f 206/205/201 208/208/202 207/207/203
f 207/207/204 208/208/205 209/209/137
f 208/208/206 210/210/137 209/209/137
f 211/211/1 213/212/207 212/213/1
f 212/213/1 213/212/208 214/214/209
f 213/212/210 215/215/211 214/214/212
f 214/214/213 215/215/214 216/216/215
f 215/215/216 217/217/135 216/216/217
f 218/218/218 220/219/219 219/220/220
f 219/220/221 220/219/222 221/221/223
f 220/219/224 222/222/225 221/221/226
f 221/221/227 222/222/225 223/223/225
f 224/224/228 226/225/229 225/226/230
f 225/226/231 226/225/232 227/227/233
f 226/225/234 228/228/235 227/227/236
f 227/227/237 228/228/235 229/229/235
f 230/230/238 232/231/239 231/232/240
f 231/232/241 232/231/242 233/233/243
f 232/231/244 234/234/245 233/233/246
f 233/233/247 234/234/248 235/235/249
f 236/236/250 238/237/251 237/238/252
f 237/238/253 238/237/254 239/239/255
f 238/237/256 240/240/257 239/239/258
f 239/239/259 240/240/260 241/241/261
f 242/242/218 244/243/219 243/244/220
f 243/244/221 244/243/222 245/245/223
f 244/243/224 246/246/225 245/245/226
f 245/245/227 246/246/225 247/247/225
f 248/248/228 250/249/229 249/250/230
f 249/250/231 250/249/232 251/251/233
f 250/249/234 252/252/235 251/251/236
f 251/251/237 252/252/235 253/253/235
f 254/254/238 256/255/239 255/256/240
f 255/256/241 256/255/242 257/257/243
f 256/255/244 258/258/245 257/257/246
f 257/257/247 258/258/248 259/259/249
f 260/260/250 262/261/251 261/262/252
f 261/262/253 262/261/254 263/263/255
f 262/261/256 264/264/257 263/263/258
f 263/263/259 264/264/260 265/265/261
f 266/266/1 268/267/262 267/268/1
f 267/268/1 268/267/263 269/269/79
f 268/267/264 270/270/265 269/269/266
f 269/269/267 270/270/265 271/271/265
f 272/272/89 274/273/268 273/274/89
f 273/274/89 274/273/269 275/275/270
f 274/273/271 276/276/272 275/275/273
f 275/275/274 276/276/275 277/277/276
f 278/278/218 280/279/277 279/280/278
f 279/280/279 280/279/280 281/281/281
f 280/279/282 282/282/283 281/281/284
f 281/281/285 282/282/283 283/283/283
f 284/284/228 286/285/229 285/286/230
f 285/286/231 286/285/232 287/287/233
f 286/285/234 288/288/235 287/287/236
f 287/287/237 288/288/235 289/289/235
f 290/290/238 292/291/239 291/292/240
f 291/292/241 292/291/286 293/293/243
f 292/291/244 294/294/245 293/293/246
f 293/293/247 294/294/287 295/295/249
f 296/296/250 298/297/251 297/298/252
f 297/298/253 298/297/254 299/299/288
f 298/297/289 300/300/257 299/299/290
f 299/299/291 300/300/260 301/301/261
f 302/302/1 304/303/262 303/304/1
f 303/304/1 304/303/263 305/305/79
f 304/303/264 306/306/265 305/305/292
f 305/305/267 306/306/265 307/307/265
f 308/308/178 310/309/293 309/310/178
f 309/310/178 310/309/294 311/311/295
f 310/309/296 312/312/297 311/311/298
f 311/311/299 312/312/300 313/313/276
f 314/314/238 316/315/239 315/316/240
f 315/316/241 316/315/242 317/317/301
f 316/315/302 318/318/245 317/317/246
f 317/317/247 318/318/248 319/319/249
f 320/320/10 322/321/303 321/322/304
f 321/322/305 322/321/306 323/323/307
f 322/321/308 324/324/309 323/323/310
f 323/323/311 324/324/312 325/325/1
f 326/326/10 328/327/313 327/328/314
f 327/328/315 328/327/316 329/329/317
f 328/327/318 330/330/319 329/329/320
f 329/329/321 330/330/322 331/331/1
f 332/332/323 334/333/324 333/334/323
f 333/334/323 334/333/325 335/335/326
f 334/333/327 336/336/249 335/335/328
f 335/335/329 336/336/249 337/337/249
f 338/338/330 340/339/331 339/340/332
f 339/340/333 340/339/334 341/341/335
f 340/339/336 342/342/335 341/341/335
f 343/343/337 345/344/338 344/345/339
f 344/345/340 345/344/341 346/346/335
f 345/344/342 347/347/335 346/346/335
f 348/348/343 350/349/344 349/350/345
f 349/350/346 350/349/347 351/351/261
f 350/349/348 352/352/261 351/351/261
f 353/353/349 355/354/350 354/355/351
f 354/355/352 355/354/353 356/356/354
f 355/354/355 357/357/356 356/356/357
f 358/358/358 360/359/359 359/360/360
f 359/360/361 360/359/362 361/361/363
f 360/359/364 362/362/365 361/361/366
f 363/363/13 365/364/367 364/365/368
f 364/365/369 365/364/370 366/366/371
f 365/364/372 367/367/276 366/366/373
f 368/368/13 370/369/374 369/370/375
f 369/370/376 370/369/377 371/371/378
f 370/369/379 372/372/265 371/371/380
f 373/373/381 375/374/382 374/375/383
f 374/375/384 375/374/385 376/376/386
f 375/374/387 377/377/388 376/376/389
f 378/378/356 380/379/390 379/380/356
f 379/380/356 380/379/391 381/381/392
f 380/379/393 382/382/394 381/381/395
f 383/383/323 385/384/396 384/385/326
f 384/385/397 385/384/398 386/386/249
f 385/384/399 387/387/249 386/386/249
f 388/388/330 390/389/331 389/390/332
f 389/390/333 390/389/334 391/391/335
f 390/389/336 392/392/335 391/391/335
f 393/393/337 395/394/338 394/395/400
f 394/395/340 395/394/341 396/396/335
f 395/394/342 397/397/335 396/396/335
f 398/398/343 400/399/344 399/400/345
f 399/400/346 400/399/347 401/401/261
f 400/399/348 402/402/261 401/401/261
f 403/403/349 405/404/401 404/405/351
f 404/405/352 405/404/353 406/406/354
f 405/404/355 407/407/356 406/406/357
f 408/408/358 410/409/359 409/410/360
f 409/410/361 410/409/362 411/411/402
f 410/409/364 412/412/365 411/411/366
f 413/413/403 415/414/404 414/415/405
f 414/415/406 415/414/407 416/416/408
f 415/414/409 417/417/410 416/416/411
f 418/418/13 420/419/367 419/420/368
f 419/420/369 420/419/370 421/421/371
f 420/419/372 422/422/276 421/421/373
f 423/423/13 425/424/374 424/425/375
f 424/425/376 425/424/377 426/426/378
f 425/424/379 427/427/265 426/426/380
f 428/428/381 430/429/412 429/430/383
f 429/430/413 430/429/385 431/431/414
f 430/429/387 432/432/388 431/431/389
f 433/433/356 435/434/390 434/435/356
f 434/435/356 435/434/391 436/436/392
f 435/434/393 437/437/394 436/436/395
f 438/438/323 440/439/396 439/440/326
f 439/440/397 440/439/398 441/441/249
f 440/439/399 442/442/249 441/441/249
f 443/443/330 445/444/331 444/445/332
f 444/445/333 445/444/334 446/446/335
f 445/444/336 447/447/335 446/446/335
f 448/448/337 450/449/338 449/450/339
f 449/450/340 450/449/341 451/451/335
f 450/449/342 452/452/335 451/451/335
f 453/453/343 455/454/415 454/455/345
f 454/455/416 455/454/347 456/456/261
f 455/454/348 457/457/261 456/456/261
f 458/458/349 460/459/401 459/460/351
f 459/460/352 460/459/417 461/461/354
f 460/459/355 462/462/356 461/461/357
f 463/463/358 465/464/359 464/465/360
f 464/465/361 465/464/362 466/466/363
f 465/464/418 467/467/419 466/466/366
f 468/468/111 470/469/404 469/470/405
f 469/470/420 470/469/421 471/471/422
f 470/469/423 472/472/424 471/471/411
f 473/473/13 475/474/425 474/475/368
f 474/475/369 475/474/370 476/476/371
f 475/474/372 477/477/276 476/476/426
f 478/478/13 480/479/374 479/480/375
f 479/480/376 480/479/427 481/481/378
f 480/479/379 482/482/265 481/481/380
f 483/483/381 485/484/382 484/485/428
f 484/485/413 485/484/385 486/486/429
f 485/484/387 487/487/261 486/486/389
f 488/488/356 490/489/390 489/490/356
f 489/490/356 490/489/391 491/491/392
f 490/489/393 492/492/394 491/491/430
f 493/493/323 495/494/396 494/495/326
f 494/495/397 495/494/398 496/496/249
f 495/494/399 497/497/249 496/496/249
f 498/498/381 500/499/382 499/500/428
f 499/500/384 500/499/385 501/501/429
f 500/499/387 502/502/388 501/501/389
f 503/503/178 505/504/431 504/505/178
f 504/505/178 505/504/432 506/506/433
f 505/504/434 507/507/435 506/506/436
f 508/508/1 510/509/437 509/510/79
f 509/510/438 510/509/439 511/511/265
f 510/509/440 512/512/265 511/511/265
f 513/513/441 515/514/442 514/515/443
f 514/515/444 515/514/445 516/516/111
f 515/514/446 517/517/403 516/516/403
f 518/518/447 520/519/448 519/520/449
f 519/520/450 520/519/451 521/521/13
f 520/519/452 522/522/13 521/521/13
f 523/523/453 525/524/454 524/525/455
f 524/525/456 525/524/457 526/526/13
f 525/524/458 527/527/13 526/526/13
f 528/528/261 530/529/459 529/530/460
f 529/530/461 530/529/462 531/531/343
f 530/529/463 532/532/343 531/531/343
f 533/533/1 535/534/1 534/535/1
f 534/535/1 535/534/1 536/536/1
f 537/537/464 539/538/465 538/539/466
f 538/539/467 539/538/468 540/540/469
f 541/541/1 543/542/1 542/543/1
f 542/543/1 543/542/1 544/544/1
f 545/545/137 547/546/137 546/547/137
f 546/547/137 547/546/137 548/548/137
f 549/549/123 551/550/123 550/551/123
f 550/551/123 551/550/123 552/552/123
f 553/553/89 555/554/89 554/555/89
f 554/555/89 555/554/89 556/556/89
f 557/557/470 559/558/272 558/559/471
f 558/559/472 559/558/275 560/560/276
f 561/561/473 563/562/473 562/563/473
f 562/563/473 563/562/473 564/564/473
f 565/565/473 567/566/473 566/567/473
f 566/567/473 567/566/473 568/568/473
f 569/569/473 571/570/473 570/571/473
f 570/571/473 571/570/473 572/572/473
f 573/573/474 575/574/474 574/575/474
f 574/575/474 575/574/474 576/576/474
f 577/577/473 579/578/473 578/579/473
f 578/579/473 579/578/473 580/580/473
f 581/581/473 583/582/473 582/583/473
f 582/583/473 583/582/473 584/584/473
f 585/585/473 587/586/473 586/587/473
f 586/587/473 587/586/473 588/588/473
f 589/589/473 591/590/473 590/591/473
f 590/591/473 591/590/473 592/592/473
f 593/593/475 595/594/475 594/595/475
f 594/595/475 595/594/475 596/596/475
f 597/597/473 599/598/473 598/599/473
f 598/599/473 599/598/473 600/600/473
f 601/601/473 603/602/473 602/603/473
f 602/603/473 603/602/473 604/604/473
f 605/605/473 607/606/473 606/607/473
f 606/607/473 607/606/473 608/608/473
f 609/609/473 611/610/473 610/611/473
f 610/611/473 611/610/473 612/612/473
f 613/613/474 615/614/474 614/615/474
f 614/615/474 615/614/474 616/616/474
f 617/617/473 619/618/473 618/619/473
f 618/619/473 619/618/473 620/620/473
f 621/621/473 623/622/473 622/623/473
f 622/623/473 623/622/473 624/624/473
f 625/625/473 627/626/473 626/627/473
f 626/627/473 627/626/473 628/628/473
f 629/629/473 631/630/473 630/631/473
f 630/631/473 631/630/473 632/632/473
f 633/633/1 635/634/1 634/635/1
f 636/636/228 638/637/228 637/638/228
f 639/639/218 641/640/218 640/641/218
f 642/642/476 644/643/476 643/644/476
f 645/645/477 647/646/477 646/647/477
f 648/648/343 650/649/343 649/650/343
f 651/651/478 653/652/478 652/653/478
f 654/654/358 656/655/358 655/656/358
f 657/657/1 659/658/1 658/659/1
f 660/660/89 662/661/89 661/662/89
f 663/663/111 665/664/111 664/665/111
f 666/666/13 668/667/13 667/668/13
f 669/669/13 671/670/13 670/671/13
f 672/672/479 674/673/479 673/674/479
f 675/675/480 677/676/480 676/677/480
f 678/678/481 680/679/481 679/680/481
f 681/681/394 683/682/394 682/683/394
f 684/684/23 686/685/23 685/686/23
f 687/687/323 689/688/323 688/689/323
f 690/690/1 692/691/1 691/692/1
f 693/693/228 695/694/228 694/695/228
f 696/696/218 698/697/218 697/698/218
f 699/699/1 701/700/1 700/701/1
f 702/702/476 704/703/476 703/704/476
f 705/705/1 707/706/1 706/707/1
f 708/708/477 710/709/477 709/710/477
f 711/711/343 713/712/343 712/713/343
f 714/714/478 716/715/478 715/716/478
f 717/717/358 719/718/358 718/719/358
f 720/720/148 722/721/148 721/722/148
f 723/723/1 725/724/1 724/725/1
f 726/726/89 728/727/89 727/728/89
f 729/729/111 731/730/111 730/731/111
f 732/732/403 734/733/403 733/734/403
f 735/735/13 737/736/13 736/737/13
f 738/738/13 740/739/13 739/740/13
f 741/741/479 743/742/479 742/743/479
f 744/744/476 746/745/476 745/746/476
f 747/747/481 749/748/481 748/749/481
f 750/750/394 752/751/394 751/752/394
f 753/753/23 755/754/23 754/755/23
f 756/756/323 758/757/323 757/758/323
f 759/759/1 761/760/1 760/761/1
f 762/762/228 764/763/228 763/764/228
f 765/765/218 767/766/218 766/767/218
f 768/768/1 770/769/1 769/770/1
f 771/771/480 773/772/480 772/773/480
f 774/774/1 776/775/1 775/776/1
f 777/777/481 779/778/481 778/779/481
f 780/780/343 782/781/343 781/782/343
f 783/783/478 785/784/478 784/785/478
f 786/786/358 788/787/358 787/788/358
f 789/789/148 791/790/148 790/791/148
f 792/792/1 794/793/1 793/794/1
f 795/795/178 797/796/178 796/797/178
f 798/798/111 800/799/111 799/800/111
f 801/801/111 803/802/111 802/803/111
f 804/804/13 806/805/13 805/806/13
f 807/807/13 809/808/13 808/809/13
f 810/810/479 812/811/479 811/812/479
f 813/813/480 815/814/480 814/815/480
f 816/816/481 818/817/481 817/818/481
f 819/819/394 821/820/394 820/821/394
f 822/822/23 824/823/23 823/824/23
f 825/825/323 827/826/323 826/827/323
f 828/828/479 830/829/479 829/830/479
f 831/831/1 833/832/1 832/833/1
f 834/834/148 836/835/148 835/836/148
f 837/837/482 839/838/482 838/839/482
f 840/840/265 842/841/265 841/842/265
f 843/843/265 845/844/265 844/845/265
f 846/846/483 848/847/483 847/848/483
f 849/849/10 851/850/10 850/851/10
f 852/852/10 854/853/10 853/854/10
f 855/855/135 857/856/135 856/857/135
f 858/858/477 860/859/477 859/860/477
f 861/861/481 863/862/481 862/863/481
f 864/864/261 866/865/261 865/866/261
f 867/867/1 869/868/1 868/869/1
f 870/870/1 872/871/1 871/872/1
