# Blender v3.6.3 OBJ File: 'untitled.blend'
# www.blender.org
mtllib Mesh_0198.mtl
o Mesh_0198_Mesh.038
v -22.688694 41.303944 4.067223
v -22.936604 41.109127 4.303391
v -22.635864 41.419006 5.028137
v -22.949810 41.234352 5.028137
v -22.579983 41.359825 5.791512
v -22.949810 41.169838 5.791512
v -22.314045 41.063660 7.450813
v -22.962513 40.847763 6.979996
v -22.688694 48.186836 -2.328011
v -22.936598 48.423058 -2.133141
v -22.635864 49.147720 -2.442894
v -22.949810 49.147720 -2.258438
v -22.579983 49.910988 -2.383759
v -22.949808 49.910988 -2.193825
v -22.314045 51.570370 -2.087700
v -22.962505 51.099709 -1.871620
v -22.688694 41.791622 -9.210823
v -22.936604 41.986439 -9.446995
v -22.635864 41.676815 -10.171730
v -22.949814 41.861217 -10.171730
v -22.579983 41.735744 -10.935108
v -22.949814 41.925743 -10.935108
v -22.314045 42.031910 -12.594410
v -22.962509 42.248062 -12.123600
v -22.688694 34.908733 -2.815590
v -22.936604 34.672512 -3.010483
v -22.635864 33.947853 -2.700706
v -22.949821 33.947861 -2.885155
v -22.579983 33.184582 -2.759834
v -22.949814 33.184586 -2.949783
v -22.314045 31.525196 -3.055901
v -22.962509 31.996111 -3.271973
v -22.688694 41.801533 4.065727
v -22.688694 41.546009 4.093948
v -22.635864 41.676819 5.028137
v -22.635864 41.419006 5.028137
v -22.579983 41.735744 5.791512
v -22.579983 41.359825 5.791512
v -22.688694 48.185314 -2.825592
v -22.688694 48.213509 -2.570076
v -22.635864 49.147720 -2.700706
v -22.635864 49.147720 -2.442894
v -22.579983 49.910988 -2.759834
v -22.579983 49.910988 -2.383759
v -22.688694 41.294037 -9.209354
v -22.688694 41.549561 -9.237549
v -22.635864 41.419003 -10.171730
v -22.635864 41.676815 -10.171730
v -22.579983 41.359825 -10.935108
v -22.579983 41.735744 -10.935108
v -22.688694 34.910259 -2.318008
v -22.688694 34.882065 -2.573532
v -22.635864 33.947853 -2.442894
v -22.635864 33.947853 -2.700706
v -22.579983 33.184582 -2.383759
v -22.579983 33.184582 -2.759834
v -22.579983 41.735744 5.791512
v -22.949810 41.925732 5.791473
v -22.635864 41.676819 5.028137
v -22.949814 41.861221 5.028137
v -22.936604 41.991776 4.304512
v -22.579983 49.910988 -2.759834
v -22.949806 49.910984 -2.949753
v -22.635864 49.147720 -2.700706
v -22.949806 49.147720 -2.885155
v -22.936598 48.424065 -3.015892
v -22.579983 41.359825 -10.935108
v -22.949808 41.169838 -10.935081
v -22.635864 41.419003 -10.171730
v -22.949810 41.234341 -10.171730
v -22.936602 41.103790 -9.448109
v -22.579983 33.184582 -2.383759
v -22.949808 33.184586 -2.193848
v -22.635864 33.947853 -2.442894
v -22.949808 33.947861 -2.258438
v -22.936602 34.671501 -2.127708
v -22.579983 41.735744 5.791512
v -22.314045 42.031910 7.450813
v -22.949810 41.925732 5.791473
v -22.962509 42.248062 6.979996
v -22.579983 49.910988 -2.759834
v -22.314045 51.570370 -3.055901
v -22.949806 49.910984 -2.949753
v -22.962509 51.099709 -3.271973
v -22.579983 41.359825 -10.935108
v -22.314045 41.063660 -12.594410
v -22.949808 41.169838 -10.935081
v -22.962509 40.847763 -12.123600
v -22.579983 33.184582 -2.383759
v -22.314045 31.525196 -2.087700
v -22.949808 33.184586 -2.193848
v -22.962509 31.996111 -1.871620
v -22.635864 41.676819 5.028137
v -22.936604 41.991776 4.304512
v -22.688694 41.801533 4.065727
v -22.635864 41.419006 5.028137
v -22.688694 41.546009 4.093948
v -22.688694 41.303944 4.067223
v -22.635864 49.147720 -2.700706
v -22.936598 48.424065 -3.015892
v -22.688694 48.185314 -2.825592
v -22.635864 49.147720 -2.442894
v -22.688694 48.213509 -2.570076
v -22.688694 48.186836 -2.328011
v -22.635864 41.419003 -10.171730
v -22.936602 41.103790 -9.448109
v -22.688694 41.294037 -9.209354
v -22.635864 41.676815 -10.171730
v -22.688694 41.549561 -9.237549
v -22.688694 41.791622 -9.210823
v -22.635864 33.947853 -2.442894
v -22.936602 34.671501 -2.127708
v -22.688694 34.910259 -2.318008
v -22.635864 33.947853 -2.700706
v -22.688694 34.882065 -2.573532
v -22.688694 34.908733 -2.815590
vt 0.802734 -0.999023
vt 0.798828 -0.712891
vt 0.995117 -0.905273
vt 0.995117 -0.712891
vt 0.752930 -0.468750
vt 0.995117 -0.468750
vt 0.448242 0.000000
vt 0.995117 -0.181641
vt 0.802734 -0.999023
vt 0.798828 -0.712891
vt 0.995117 -0.905273
vt 0.995117 -0.712891
vt 0.752930 -0.468750
vt 0.995117 -0.468750
vt 0.448242 0.000000
vt 0.995117 -0.181641
vt 0.802734 -0.999023
vt 0.798828 -0.712891
vt 0.995117 -0.905273
vt 0.995117 -0.712891
vt 0.752930 -0.468750
vt 0.995117 -0.468750
vt 0.448242 0.000000
vt 0.995117 -0.181641
vt 0.802734 -0.999023
vt 0.798828 -0.712891
vt 0.995117 -0.905273
vt 0.995117 -0.712891
vt 0.752930 -0.468750
vt 0.995117 -0.468750
vt 0.448242 0.000000
vt 0.995117 -0.181641
vt 0.330078 -0.999023
vt 0.309570 -0.712891
vt 0.243164 -0.999023
vt 0.177734 -0.712891
vt 0.339844 -0.468750
vt 0.147461 -0.468750
vt 0.330078 -0.999023
vt 0.309570 -0.712891
vt 0.243164 -0.999023
vt 0.177734 -0.712891
vt 0.339844 -0.468750
vt 0.147461 -0.468750
vt 0.330078 -0.999023
vt 0.309570 -0.712891
vt 0.243164 -0.999023
vt 0.177734 -0.712891
vt 0.339844 -0.468750
vt 0.147461 -0.468750
vt 0.330078 -0.999023
vt 0.309570 -0.712891
vt 0.243164 -0.999023
vt 0.177734 -0.712891
vt 0.339844 -0.468750
vt 0.147461 -0.468750
vt 0.752930 -0.468750
vt 0.798828 -0.712891
vt 0.995117 -0.468750
vt 0.995117 -0.712891
vt 0.995117 -0.905273
vt 0.752930 -0.468750
vt 0.798828 -0.712891
vt 0.995117 -0.468750
vt 0.995117 -0.712891
vt 0.995117 -0.905273
vt 0.752930 -0.468750
vt 0.798828 -0.712891
vt 0.995117 -0.468750
vt 0.995117 -0.712891
vt 0.995117 -0.905273
vt 0.752930 -0.468750
vt 0.798828 -0.712891
vt 0.995117 -0.468750
vt 0.995117 -0.712891
vt 0.995117 -0.905273
vt 0.752930 -0.468750
vt 0.995117 -0.468750
vt 0.448242 0.000000
vt 0.995117 -0.181641
vt 0.752930 -0.468750
vt 0.995117 -0.468750
vt 0.448242 0.000000
vt 0.995117 -0.181641
vt 0.752930 -0.468750
vt 0.995117 -0.468750
vt 0.448242 0.000000
vt 0.995117 -0.181641
vt 0.752930 -0.468750
vt 0.995117 -0.468750
vt 0.448242 0.000000
vt 0.995117 -0.181641
vt 0.798828 -0.712891
vt 0.802734 -0.999023
vt 0.995117 -0.905273
vt 0.177734 -0.712891
vt 0.162109 -0.999023
vt 0.243164 -0.999023
vt 0.798828 -0.712891
vt 0.802734 -0.999023
vt 0.995117 -0.905273
vt 0.177734 -0.712891
vt 0.162109 -0.999023
vt 0.243164 -0.999023
vt 0.798828 -0.712891
vt 0.802734 -0.999023
vt 0.995117 -0.905273
vt 0.177734 -0.712891
vt 0.162109 -0.999023
vt 0.243164 -0.999023
vt 0.798828 -0.712891
vt 0.802734 -0.999023
vt 0.995117 -0.905273
vt 0.177734 -0.712891
vt 0.162109 -0.999023
vt 0.243164 -0.999023
vn 0.6489 -0.7589 0.0552
vn 0.6698 -0.7312 -0.1293
vn 0.5008 -0.8514 0.1562
vn 0.5886 -0.7948 0.1480
vn 0.4730 -0.8701 -0.1386
vn 0.4897 -0.8464 -0.2094
vn 0.6141 -0.7705 -0.1708
vn 0.4557 -0.8870 -0.0750
vn 0.5260 -0.8473 -0.0728
vn 0.4199 -0.8763 -0.2361
vn 0.4389 -0.8697 -0.2256
vn 0.5036 -0.8286 -0.2447
vn 0.4770 -0.8647 -0.1574
vn 0.4540 -0.8606 -0.2307
vn 0.4529 -0.8617 -0.2287
vn 0.6490 0.0551 0.7588
vn 0.6701 -0.1295 0.7309
vn 0.5003 0.1564 0.8516
vn 0.6040 0.1552 0.7817
vn 0.4727 -0.1386 0.8703
vn 0.5138 -0.1731 0.8403
vn 0.5967 -0.1703 0.7842
vn 0.4574 0.0424 0.8883
vn 0.3932 -0.0309 0.9189
vn 0.5259 -0.0730 0.8474
vn 0.3808 -0.2289 0.8959
vn 0.4386 -0.2255 0.8699
vn 0.5034 -0.2446 0.8287
vn 0.4774 -0.1575 0.8644
vn 0.4542 -0.2308 0.8605
vn 0.4531 -0.2287 0.8616
vn 0.6488 0.7590 -0.0550
vn 0.7152 0.6949 0.0748
vn 0.6301 0.7762 -0.0212
vn 0.3556 0.9199 -0.1654
vn 0.3858 0.8888 -0.2475
vn 0.5880 0.7952 -0.1481
vn 0.4035 0.9066 0.1236
vn 0.4888 0.8470 0.2091
vn 0.6136 0.7710 0.1706
vn 0.4557 0.8870 0.0750
vn 0.5261 0.8473 0.0729
vn 0.4199 0.8764 0.2360
vn 0.4387 0.8699 0.2256
vn 0.5036 0.8286 0.2446
vn 0.4777 0.8643 0.1575
vn 0.4544 0.8604 0.2308
vn 0.4533 0.8615 0.2288
vn 0.6490 -0.0550 -0.7588
vn 0.7153 0.0749 -0.6948
vn 0.6303 -0.0212 -0.7761
vn 0.3556 -0.1656 -0.9199
vn 0.3857 -0.2478 -0.8887
vn 0.6040 -0.1552 -0.7818
vn 0.4034 0.1239 -0.9066
vn 0.5137 0.1731 -0.8403
vn 0.5967 0.1703 -0.7842
vn 0.4574 -0.0424 -0.8882
vn 0.3933 0.0309 -0.9189
vn 0.5259 0.0730 -0.8474
vn 0.3808 0.2289 -0.8959
vn 0.4386 0.2255 -0.8699
vn 0.5035 0.2445 -0.8287
vn 0.4776 0.1575 -0.8644
vn 0.4543 0.2308 -0.8604
vn 0.4532 0.2287 -0.8616
vn 0.9984 -0.0061 -0.0556
vn 0.9978 -0.0119 -0.0645
vn 0.9985 -0.0060 -0.0547
vn 0.9984 0.0052 -0.0558
vn 0.9984 -0.0081 -0.0558
vn 0.9984 0.0088 -0.0553
vn 0.9974 -0.0084 -0.0719
vn 0.9973 0.0000 -0.0730
vn 0.9971 0.0071 -0.0760
vn 0.9978 0.0024 -0.0657
vn 0.9984 -0.0556 0.0061
vn 0.9978 -0.0645 0.0119
vn 0.9985 -0.0547 0.0060
vn 0.9984 -0.0558 -0.0052
vn 0.9984 -0.0558 0.0081
vn 0.9984 -0.0555 -0.0074
vn 0.9974 -0.0719 0.0084
vn 0.9973 -0.0730 0.0000
vn 0.9970 -0.0765 -0.0084
vn 0.9984 0.0061 0.0556
vn 0.9978 0.0119 0.0645
vn 0.9985 0.0060 0.0547
vn 0.9984 -0.0052 0.0558
vn 0.9984 0.0081 0.0558
vn 0.9984 -0.0088 0.0553
vn 0.9974 0.0084 0.0719
vn 0.9973 0.0000 0.0730
vn 0.9971 -0.0071 0.0759
vn 0.9978 -0.0024 0.0657
vn 0.9984 0.0556 -0.0061
vn 0.9978 0.0645 -0.0119
vn 0.9985 0.0547 -0.0060
vn 0.9984 0.0558 0.0052
vn 0.9984 0.0558 -0.0081
vn 0.9984 0.0553 0.0088
vn 0.9974 0.0719 -0.0084
vn 0.9973 0.0730 0.0000
vn 0.9971 0.0760 0.0071
vn 0.9978 0.0657 0.0024
vn 0.4546 0.8849 -0.1016
vn 0.3736 0.9274 -0.0153
vn 0.4537 0.8831 -0.1194
vn 0.5437 0.8363 -0.0707
vn 0.4303 0.8967 -0.1033
vn 0.6042 0.7940 -0.0671
vn 0.3741 0.9000 0.2237
vn 0.4997 0.8508 0.1626
vn 0.5973 0.7873 0.1530
vn 0.4544 -0.1018 -0.8849
vn 0.3732 -0.0155 -0.9276
vn 0.4535 -0.1198 -0.8832
vn 0.5440 -0.0708 -0.8361
vn 0.4303 -0.1034 -0.8967
vn 0.6044 -0.0672 -0.7938
vn 0.3739 0.2240 -0.9000
vn 0.4998 0.1628 -0.8507
vn 0.5975 0.1531 -0.7871
vn 0.4546 -0.8849 0.1019
vn 0.3731 -0.9276 0.0156
vn 0.4537 -0.8831 0.1199
vn 0.5446 -0.8357 0.0706
vn 0.4309 -0.8965 0.1031
vn 0.6046 -0.7937 0.0670
vn 0.3746 -0.8998 -0.2236
vn 0.5002 -0.8505 -0.1626
vn 0.5977 -0.7870 -0.1529
vn 0.4544 0.1018 0.8849
vn 0.3732 0.0155 0.9276
vn 0.4535 0.1198 0.8832
vn 0.5440 0.0708 0.8361
vn 0.4303 0.1034 0.8967
vn 0.6044 0.0672 0.7938
vn 0.3739 -0.2240 0.9000
vn 0.4998 -0.1628 0.8507
vn 0.5975 -0.1531 0.7871
vn 0.4451 0.8665 -0.2260
vn 0.4454 0.8670 -0.2236
vn 0.4387 0.8699 -0.2256
vn 0.4544 0.8604 -0.2308
vn 0.4599 0.8582 -0.2278
vn 0.4533 0.8615 -0.2288
vn 0.4450 -0.2259 -0.8666
vn 0.4453 -0.2236 -0.8670
vn 0.4386 -0.2255 -0.8699
vn 0.4542 -0.2308 -0.8605
vn 0.4597 -0.2278 -0.8584
vn 0.4531 -0.2287 -0.8616
vn 0.4451 -0.8665 0.2260
vn 0.4454 -0.8670 0.2237
vn 0.4390 -0.8697 0.2256
vn 0.4540 -0.8606 0.2307
vn 0.4593 -0.8586 0.2278
vn 0.4529 -0.8617 0.2287
vn 0.4450 0.2259 0.8666
vn 0.4453 0.2235 0.8671
vn 0.4385 0.2255 0.8700
vn 0.4543 0.2308 0.8604
vn 0.4599 0.2278 0.8583
vn 0.4532 0.2287 0.8616
vn 0.6452 0.7614 0.0632
vn 0.9984 0.0061 -0.0556
vn 0.6454 0.0634 -0.7612
vn 0.9984 -0.0556 -0.0061
vn 0.6453 -0.7613 -0.0634
vn 0.9984 -0.0061 0.0556
vn 0.6454 -0.0634 0.7612
vn 0.9984 0.0556 0.0061
usemtl Tex_0078_0.dds
s off
f 1/1/1 3/2/2 2/3/1
f 2/3/3 3/2/3 4/4/4
f 3/2/5 5/5/6 4/4/7
f 4/4/8 5/5/8 6/6/9
f 5/5/10 7/7/11 6/6/12
f 6/6/13 7/7/14 8/8/15
f 9/9/16 11/10/17 10/11/16
f 10/11/18 11/10/18 12/12/19
f 11/10/20 13/13/21 12/12/22
f 12/12/23 13/13/24 14/14/25
f 13/13/26 15/15/27 14/14/28
f 14/14/29 15/15/30 16/16/31
f 17/17/32 19/18/33 18/19/34
f 18/19/35 19/18/36 20/20/37
f 19/18/38 21/21/39 20/20/40
f 20/20/41 21/21/41 22/22/42
f 21/21/43 23/23/44 22/22/45
f 22/22/46 23/23/47 24/24/48
f 25/25/49 27/26/50 26/27/51
f 26/27/52 27/26/53 28/28/54
f 27/26/55 29/29/56 28/28/57
f 28/28/58 29/29/59 30/30/60
f 29/29/61 31/31/62 30/30/63
f 30/30/64 31/31/65 32/32/66
f 33/33/67 35/34/68 34/35/69
f 34/35/70 35/34/71 36/36/72
f 35/34/73 37/37/74 36/36/75
f 36/36/76 37/37/74 38/38/74
f 39/39/77 41/40/78 40/41/79
f 40/41/80 41/40/81 42/42/82
f 41/40/83 43/43/84 42/42/85
f 42/42/84 43/43/84 44/44/84
f 45/45/86 47/46/87 46/47/88
f 46/47/89 47/46/90 48/48/91
f 47/46/92 49/49/93 48/48/94
f 48/48/95 49/49/93 50/50/93
f 51/51/96 53/52/97 52/53/98
f 52/53/99 53/52/100 54/54/101
f 53/52/102 55/55/103 54/54/104
f 54/54/105 55/55/103 56/56/103
f 57/57/106 59/58/107 58/59/108
f 58/59/109 59/58/110 60/60/111
f 59/58/112 61/61/113 60/60/114
f 62/62/115 64/63/116 63/64/117
f 63/64/118 64/63/119 65/65/120
f 64/63/121 66/66/122 65/65/123
f 67/67/124 69/68/125 68/69/126
f 68/69/127 69/68/128 70/70/129
f 69/68/130 71/71/131 70/70/132
f 72/72/133 74/73/134 73/74/135
f 73/74/136 74/73/137 75/75/138
f 74/73/139 76/76/140 75/75/141
f 77/77/142 79/78/143 78/79/144
f 78/79/145 79/78/146 80/80/147
f 81/81/148 83/82/149 82/83/150
f 82/83/151 83/82/152 84/84/153
f 85/85/154 87/86/155 86/87/156
f 86/87/157 87/86/158 88/88/159
f 89/89/160 91/90/161 90/91/162
f 90/91/163 91/90/164 92/92/165
f 93/93/166 95/94/166 94/95/166
f 96/96/167 98/97/167 97/98/167
f 99/99/168 101/100/168 100/101/168
f 102/102/169 104/103/169 103/104/169
f 105/105/170 107/106/170 106/107/170
f 108/108/171 110/109/171 109/110/171
f 111/111/172 113/112/172 112/113/172
f 114/114/173 116/115/173 115/116/173
