# Blender v3.6.3 OBJ File: 'untitled.blend'
# www.blender.org
mtllib Mesh_0272.mtl
o Mesh_0272_Mesh.184
v -9.854275 9.677494 -16.069698
v -9.854275 9.114782 -16.759483
v -9.854275 10.159991 -17.557274
v -9.854279 8.340082 -17.272892
v -9.854275 8.338736 -17.557274
v -9.854271 8.188902 -17.310154
v -9.854275 9.114782 -13.784130
v -9.854275 9.677494 -14.463055
v -9.854275 10.159991 -12.975487
v -9.854275 10.067333 -15.271805
v -9.854275 10.159992 -15.271805
v -9.854275 9.114781 -18.864128
v -9.854275 9.677494 -19.553917
v -9.854275 10.159991 -18.066338
v -9.854275 10.067333 -20.351807
v -9.854275 10.159992 -20.351807
v -9.854275 9.114781 -18.864128
v -9.854275 10.159991 -18.066338
v -9.854279 8.340081 -18.350719
v -9.854275 8.338736 -18.066338
v -9.854271 8.188901 -18.313454
v -9.854275 9.677494 -21.160557
v -9.854275 9.114782 -21.839478
v -9.854275 10.159992 -22.648129
v -9.854275 8.340082 -22.352905
v -9.854275 7.354358 -22.648129
v -9.854275 10.159992 -15.271805
v -9.854275 10.067333 -15.271805
v -9.854275 10.159991 -17.557274
v -9.854275 9.677494 -16.069698
v -9.854275 9.114782 -13.784130
v -9.854275 10.159991 -12.975487
v -9.854275 8.340081 -13.270706
v -9.854275 7.354358 -12.975487
v -9.854275 10.159992 -20.351807
v -9.854275 10.067333 -20.351807
v -9.854275 10.159992 -22.648129
v -9.854275 9.677494 -21.160557
vt 0.353088 -0.174622
vt 0.999939 -0.002563
vt 0.646484 -0.375549
vt 0.871216 -0.651184
vt 0.999939 -0.627563
vt 0.894714 -0.719971
vt 0.352112 -0.627502
vt 0.000000 -0.999451
vt 0.647766 -0.828064
vt 0.999939 -0.966980
vt 0.999939 -0.999451
vt 0.646484 -0.375549
vt 0.999939 -0.002563
vt 0.353088 -0.174622
vt 0.000000 -0.034912
vt 0.000000 -0.002563
vt 0.646484 -0.375549
vt 0.871216 -0.651184
vt 0.999939 -0.002563
vt 0.999939 -0.627563
vt 0.894714 -0.719971
vt 0.647766 -0.828064
vt 0.000000 -0.999451
vt 0.352112 -0.627502
vt 0.128540 -0.351440
vt 0.000000 -0.000061
vt 0.000000 -0.002563
vt 0.999939 -0.002563
vt 0.000000 -0.034912
vt 0.353088 -0.174622
vt 0.352112 -0.627502
vt 0.128540 -0.351440
vt 0.000000 -0.999451
vt 0.000000 -0.000061
vt 0.999939 -0.999451
vt 0.000000 -0.999451
vt 0.999939 -0.966980
vt 0.647766 -0.828064
vn -1.0000 -0.0000 0.0000
vn -1.0000 -0.0001 -0.0000
usemtl Tex_0053_1.dds.004
s off
f 1/1/1 3/2/1 2/3/1
f 2/3/1 3/2/1 4/4/1
f 3/2/1 5/5/1 4/4/1
f 4/4/2 5/5/2 6/6/2
f 7/7/1 9/8/1 8/9/1
f 8/9/1 9/8/1 10/10/1
f 9/8/1 11/11/1 10/10/1
f 12/12/1 14/13/1 13/14/1
f 13/14/1 14/13/1 15/15/1
f 14/13/1 16/16/1 15/15/1
f 17/17/1 19/18/1 18/19/1
f 18/19/1 19/18/1 20/20/1
f 19/18/2 21/21/2 20/20/2
f 22/22/1 24/23/1 23/24/1
f 23/24/1 24/23/1 25/25/1
f 24/23/1 26/26/1 25/25/1
f 27/27/1 29/28/1 28/29/1
f 28/29/1 29/28/1 30/30/1
f 31/31/1 33/32/1 32/33/1
f 32/33/1 33/32/1 34/34/1
f 35/35/1 37/36/1 36/37/1
f 36/37/1 37/36/1 38/38/1
