# Blender v3.6.3 OBJ File: 'untitled.blend'
# www.blender.org
mtllib Mesh_0206.mtl
o Mesh_0206_Mesh.044
v -22.936604 41.547779 -8.988705
v -22.936604 40.119789 -8.827847
v -22.934570 41.547787 -2.571800
v -22.936604 38.763683 -8.353241
v -22.936607 37.547035 -7.588726
v -22.936607 37.547035 -7.588726
v -22.936607 36.530781 -6.572685
v -22.934570 41.547787 -2.571800
v -22.936604 35.766243 -5.356003
v -22.936604 35.291767 -3.999680
v -22.936604 35.291767 -3.999680
v -22.936602 35.130981 -2.571800
v -22.934570 41.547787 -2.571800
vt 0.999023 -0.001953
vt 0.000000 -0.001953
vt 0.975586 -0.224609
vt 0.901367 -0.435547
vt 0.783203 -0.625000
vt 0.783203 -0.625000
vt 0.000000 -0.001953
vt 0.625000 -0.783203
vt 0.435547 -0.902344
vt 0.223633 -0.976562
vt 0.223633 -0.976562
vt 0.000000 -0.001953
vt 0.000000 -1.000977
vn 1.0000 -0.0000 -0.0003
vn 1.0000 -0.0001 -0.0003
vn 1.0000 -0.0002 -0.0003
vn 1.0000 -0.0002 -0.0002
vn 1.0000 -0.0003 -0.0002
vn 1.0000 -0.0003 -0.0001
vn 1.0000 -0.0003 -0.0000
usemtl Tex_0084_0.dds
s off
f 1/1/1 3/2/1 2/3/1
f 2/3/2 3/2/2 4/4/2
f 3/2/3 5/5/3 4/4/3
f 6/6/4 8/7/4 7/8/4
f 7/8/5 8/7/5 9/9/5
f 8/7/6 10/10/6 9/9/6
f 11/11/7 13/12/7 12/13/7
