# Blender v3.6.3 OBJ File: 'untitled.blend'
# www.blender.org
mtllib Mesh_0217.mtl
o Mesh_0217_Mesh.048
v 59.121777 2.539986 22.301651
v 59.292973 2.539986 22.578506
v 59.121777 5.841985 22.301651
v 59.297047 5.841985 22.578506
v 53.544453 5.841985 22.578506
v 53.577969 2.539986 22.578506
v 53.779400 5.841985 22.301651
v 53.779400 2.539986 22.301651
vt 0.195312 -0.999023
vt 0.195312 -0.007812
vt -0.000977 -0.999023
vt -0.000977 -0.007812
vt 0.998047 -0.006836
vt 1.190430 -0.006836
vt 0.998047 -0.997070
vt 1.190430 -0.997070
vn 0.8505 0.0000 -0.5259
vn 0.8449 -0.0010 -0.5349
vn -0.7624 -0.0077 -0.6470
vn -0.8086 0.0000 -0.5883
usemtl Tex_0036_0.dds.001
s off
f 1/1/1 3/2/1 2/3/1
f 2/3/2 3/2/2 4/4/2
f 5/5/3 7/6/3 6/7/3
f 6/7/4 7/6/4 8/8/4
