# Blender v3.6.3 OBJ File: 'untitled.blend'
# www.blender.org
mtllib Mesh_0306.mtl
o Mesh_0306_Mesh.086
v -9.604584 0.564431 9.042282
v -9.604589 0.705542 8.916290
v -9.604584 0.846651 9.042282
v -9.604589 0.705542 16.420097
v -9.604584 0.564431 16.294106
v -9.604584 0.846651 16.294106
vt 0.622070 -0.553711
vt 0.621094 -0.487305
vt 0.589844 -0.519531
vt 0.589844 -0.519531
vt 0.621094 -0.487305
vt 0.622070 -0.553711
vn -1.0000 0.0000 0.0000
usemtl Tex_0031_1.dds.003
s off
f 1/1/1 3/2/1 2/3/1
f 4/4/1 6/5/1 5/6/1
