# Blender v3.6.3 OBJ File: 'untitled.blend'
# www.blender.org
mtllib Mesh_0275.mtl
o Mesh_0275_Mesh.077
v -9.982700 8.484327 -17.811806
v -9.982704 8.411531 -17.684528
v -9.982700 8.108052 -17.811806
v -9.982700 7.675567 -16.460754
v -9.982698 7.352504 -16.624332
v -9.982695 6.835513 -15.487099
v -9.982693 6.532237 -15.698986
v -9.982698 5.977679 -14.875816
v -9.982698 5.771939 -15.166798
v -9.982704 5.101480 -14.569454
v -9.982698 4.925916 -14.888504
v -9.982698 4.925915 -20.735104
v -9.982704 5.101480 -21.054153
v -9.982698 5.771939 -20.456814
v -9.982698 5.977678 -20.747791
v -9.982693 6.532236 -19.924629
v -9.982695 6.835513 -20.136517
v -9.982698 7.352504 -18.999279
v -9.982700 7.675567 -19.162861
v -9.982700 8.108052 -17.811806
v -9.982704 8.411531 -17.939083
v -9.982700 8.484327 -17.811806
v -8.525070 4.321167 -19.955463
v -9.604576 4.803894 -20.600842
v -8.525072 5.037675 -19.739029
v -9.604576 5.600463 -20.319271
v -8.525082 5.733991 -19.360188
v -9.604576 6.374579 -19.826355
v -8.525074 6.445395 -18.688843
v -9.604572 7.165434 -18.952900
v -8.525080 7.105972 -17.811806
v -9.604584 7.899823 -17.811806
v -9.982704 5.101480 -21.054153
v -9.604584 5.101480 -21.054150
v -9.982698 5.977678 -20.747791
v -9.604580 5.977678 -20.747787
v -9.982695 6.835513 -20.136517
v -9.604584 6.835513 -20.136517
v -9.982700 7.675567 -19.162861
v -9.604584 7.675567 -19.162861
v -9.854271 8.188901 -18.313454
v -9.604580 8.188901 -18.313023
v -9.982700 8.108052 -17.811806
v -9.604584 7.899823 -17.811806
v -9.982698 7.352504 -18.999279
v -9.604572 7.165434 -18.952900
v -9.982693 6.532236 -19.924629
v -9.604576 6.374579 -19.826355
v -9.982698 5.771939 -20.456814
v -9.604576 5.600463 -20.319271
v -9.982698 4.925915 -20.735104
v -9.604576 4.803894 -20.600842
v -9.604576 4.803894 -15.022766
v -8.525072 5.037676 -15.884579
v -9.604576 5.600463 -15.304340
v -8.525082 5.733991 -16.263420
v -9.604576 6.374579 -15.797256
v -8.525074 6.445394 -16.934769
v -9.604572 7.165433 -16.670712
v -8.525080 7.105972 -17.811806
v -9.604584 7.899823 -17.811806
v -9.604584 5.101480 -14.569458
v -9.982698 5.977679 -14.875816
v -9.604580 5.977679 -14.875824
v -9.982695 6.835513 -15.487099
v -9.604584 6.835513 -15.487099
v -9.982700 7.675567 -16.460754
v -9.604584 7.675567 -16.460754
v -9.854271 8.188902 -17.310154
v -9.604580 8.188902 -17.310589
v -9.604584 7.899823 -17.811806
v -9.982698 7.352504 -16.624332
v -9.604572 7.165433 -16.670712
v -9.982693 6.532237 -15.698986
v -9.604576 6.374579 -15.797256
v -9.982698 5.771939 -15.166798
v -9.604576 5.600463 -15.304340
v -9.982698 4.925916 -14.888504
v -9.604576 4.803894 -15.022766
v -9.982700 7.675567 -16.460754
v -9.982704 8.411531 -17.684528
v -9.854271 8.188902 -17.310154
v -9.854275 8.338736 -17.557274
v -9.982700 7.675567 -19.162861
v -9.854271 8.188901 -18.313454
v -9.982704 8.411531 -17.939083
v -9.854275 8.338736 -18.066338
v -8.525070 4.321167 -15.668148
v -8.525072 5.037676 -15.884579
v -9.604576 4.803894 -15.022766
v -9.982704 5.101480 -14.569454
v -9.982698 5.977679 -14.875816
v -9.604584 5.101480 -14.569458
v -9.982698 7.352504 -16.624332
v -9.604584 7.899823 -17.811806
v -9.982700 8.108052 -17.811806
vt 0.083984 -0.001953
vt 0.196289 -0.001953
vt 0.083984 -0.029297
vt 0.083984 -0.293945
vt 0.196289 -0.293945
vt 0.083984 -0.572266
vt 0.196289 -0.572266
vt 0.083984 -0.806641
vt 0.196289 -0.806641
vt 0.083984 -0.989258
vt 0.196289 -0.989258
vt 0.196289 -0.989258
vt 0.196289 -0.806641
vt 0.083984 -0.989258
vt 0.083984 -0.806641
vt 0.196289 -0.572266
vt 0.083984 -0.572266
vt 0.196289 -0.293945
vt 0.083984 -0.293945
vt 0.196289 -0.001953
vt 0.083984 -0.029297
vt 0.083984 -0.001953
vt 0.997070 -0.989258
vt 0.997070 -0.806641
vt 0.380859 -0.989258
vt 0.380859 -0.806641
vt 0.997070 -0.572266
vt 0.380859 -0.572266
vt 0.997070 -0.293945
vt 0.380859 -0.293945
vt 0.997070 -0.001953
vt 0.380859 -0.001953
vt 0.083984 -0.989258
vt 0.083984 -0.806641
vt -0.001953 -0.989258
vt -0.001953 -0.806641
vt 0.083984 -0.572266
vt -0.001953 -0.572266
vt 0.083984 -0.293945
vt -0.001953 -0.293945
vt 0.029297 -0.140625
vt -0.001953 -0.140625
vt 0.196289 -0.001953
vt 0.196289 -0.293945
vt 0.380859 -0.001953
vt 0.380859 -0.293945
vt 0.196289 -0.572266
vt 0.380859 -0.572266
vt 0.196289 -0.806641
vt 0.380859 -0.806641
vt 0.196289 -0.989258
vt 0.380859 -0.989258
vt 0.380859 -0.989258
vt 0.380859 -0.806641
vt 0.997070 -0.806641
vt 0.997070 -0.572266
vt 0.380859 -0.572266
vt 0.997070 -0.293945
vt 0.380859 -0.293945
vt 0.997070 -0.001953
vt 0.380859 -0.001953
vt -0.001953 -0.989258
vt -0.001953 -0.806641
vt 0.083984 -0.806641
vt 0.083984 -0.572266
vt -0.001953 -0.572266
vt 0.083984 -0.293945
vt -0.001953 -0.293945
vt 0.029297 -0.140625
vt -0.001953 -0.140625
vt 0.380859 -0.001953
vt 0.380859 -0.293945
vt 0.196289 -0.293945
vt 0.196289 -0.572266
vt 0.380859 -0.572266
vt 0.196289 -0.806641
vt 0.380859 -0.806641
vt 0.196289 -0.989258
vt 0.380859 -0.989258
vt 0.083984 -0.293945
vt 0.029297 -0.140625
vt 0.083984 -0.029297
vt 0.060547 -0.048828
vt 0.083984 -0.293945
vt 0.083984 -0.029297
vt 0.029297 -0.140625
vt 0.060547 -0.048828
vt 0.997070 -0.989258
vt 0.380859 -0.989258
vt 0.997070 -0.806641
vt 0.083984 -0.989258
vt -0.001953 -0.989258
vt 0.083984 -0.806641
vt 0.196289 -0.293945
vt 0.196289 -0.001953
vt 0.380859 -0.001953
vn -1.0000 0.0000 -0.0000
vn -0.5743 -0.2367 0.7836
vn -0.6313 -0.2561 0.7320
vn -0.5694 -0.2114 0.7944
vn -0.5520 -0.2779 0.7862
vn -0.5824 -0.2343 0.7784
vn -0.4825 -0.3037 0.8216
vn -0.6538 -0.3537 0.6689
vn -0.6586 -0.3970 0.6393
vn -0.5628 -0.4216 0.7110
vn -0.4893 -0.4417 0.7520
vn -0.5920 -0.3973 0.7012
vn -0.4737 -0.4861 0.7344
vn -0.6664 -0.5018 0.5515
vn -0.6445 -0.5422 0.5392
vn -0.5513 -0.5978 0.5819
vn -0.4563 -0.6292 0.6292
vn -0.5700 -0.6066 0.5542
vn -0.4994 -0.6529 0.5695
vn -0.6106 -0.6217 0.4905
vn -0.5927 -0.6433 0.4846
vn -0.5433 -0.6737 0.5009
vn -0.4590 -0.7342 0.5003
vn -0.5360 -0.7288 0.4261
vn -0.5259 -0.7152 0.4603
vn 0.0000 0.3301 -0.9440
vn -0.0531 0.4500 -0.8915
vn -0.1305 0.2766 -0.9521
vn 0.1409 0.3268 -0.9345
vn -0.1409 0.5745 -0.8063
vn -0.0404 0.6678 -0.7432
vn 0.1326 0.6133 -0.7786
vn 0.0476 0.4665 -0.8832
vn -0.1126 0.5432 -0.8320
vn 0.1077 0.5769 -0.8097
vn -0.1196 0.7517 -0.6486
vn -0.0395 0.8374 -0.5451
vn 0.1262 0.7748 -0.6195
vn 0.0000 0.7571 -0.6533
vn 0.0840 0.7545 -0.6509
vn -0.0275 0.8574 -0.5140
vn -0.0007 0.8559 -0.5171
vn 0.0815 0.8634 -0.4979
vn 0.0222 0.8108 -0.5849
vn 0.0009 0.8560 -0.5170
vn -0.4214 -0.7651 0.4868
vn -0.3987 -0.7390 0.5431
vn -0.4220 -0.7662 0.4846
vn -0.4458 -0.7527 0.4844
vn -0.3800 -0.7873 0.4856
vn -0.5042 -0.7245 0.4699
vn -0.3382 -0.7052 0.6231
vn -0.3639 -0.6338 0.6826
vn -0.4650 -0.6502 0.6008
vn -0.4641 -0.6966 0.5471
vn -0.3539 -0.7125 0.6059
vn -0.5351 -0.6179 0.5760
vn -0.3079 -0.5481 0.7777
vn -0.3135 -0.4659 0.8274
vn -0.4890 -0.4767 0.7305
vn -0.5656 -0.5163 0.6431
vn -0.4022 -0.5177 0.7551
vn -0.5892 -0.4392 0.6782
vn -0.3147 -0.3086 0.8976
vn -0.4647 -0.2767 0.8411
vn -0.5116 -0.2175 0.8312
vn -0.3900 -0.3954 0.8316
vn -0.4063 -0.3156 0.8575
vn -0.4045 -0.3048 0.8622
vn -0.5626 -0.2755 -0.7795
vn -0.4825 -0.3036 -0.8216
vn -0.5877 -0.1874 -0.7870
vn -0.6175 -0.3759 -0.6909
vn -0.5628 -0.4216 -0.7110
vn -0.6585 -0.3970 -0.6394
vn -0.4893 -0.4417 -0.7520
vn -0.4737 -0.4861 -0.7344
vn -0.5920 -0.3973 -0.7012
vn -0.6664 -0.5018 -0.5515
vn -0.5513 -0.5978 -0.5819
vn -0.6445 -0.5422 -0.5391
vn -0.4563 -0.6292 -0.6292
vn -0.4994 -0.6529 -0.5695
vn -0.5700 -0.6066 -0.5542
vn -0.6106 -0.6217 -0.4905
vn -0.5433 -0.6737 -0.5009
vn -0.5927 -0.6433 -0.4846
vn -0.4590 -0.7342 -0.5003
vn -0.5259 -0.7152 -0.4603
vn -0.5360 -0.7288 -0.4261
vn 0.0000 0.3301 0.9440
vn 0.1409 0.3268 0.9345
vn -0.1488 0.2686 0.9517
vn -0.1211 0.5761 0.8084
vn 0.1326 0.6133 0.7786
vn -0.0404 0.6678 0.7432
vn 0.0476 0.4665 0.8832
vn 0.1196 0.5761 0.8085
vn -0.1126 0.5432 0.8320
vn -0.1196 0.7517 0.6486
vn 0.1147 0.7738 0.6230
vn -0.0227 0.8051 0.5927
vn 0.0337 0.6767 0.7354
vn 0.0840 0.7545 0.6509
vn -0.0772 0.7399 0.6683
vn -0.0869 0.8584 0.5056
vn 0.0815 0.8634 0.4979
vn -0.0007 0.8559 0.5172
vn 0.0222 0.8108 0.5849
vn 0.0009 0.8560 0.5170
vn -0.4345 -0.7574 -0.4874
vn -0.5042 -0.7245 -0.4699
vn -0.3740 -0.7913 -0.4838
vn -0.3451 -0.7023 -0.6226
vn -0.4650 -0.6502 -0.6008
vn -0.3639 -0.6338 -0.6826
vn -0.4641 -0.6966 -0.5471
vn -0.5351 -0.6179 -0.5760
vn -0.3539 -0.7125 -0.6059
vn -0.3078 -0.5481 -0.7777
vn -0.4890 -0.4767 -0.7305
vn -0.3136 -0.4660 -0.8274
vn -0.5656 -0.5163 -0.6431
vn -0.5892 -0.4392 -0.6782
vn -0.4022 -0.5177 -0.7551
vn -0.3147 -0.3086 -0.8976
vn -0.5116 -0.2175 -0.8312
vn -0.4647 -0.2767 -0.8411
vn -0.3900 -0.3954 -0.8316
vn -0.4045 -0.3048 -0.8622
vn -0.4063 -0.3156 -0.8575
vn -0.0168 0.8568 0.5153
vn -0.0180 0.8569 0.5152
vn -0.0091 0.8569 0.5153
vn -0.0328 0.8529 0.5211
vn -0.0406 0.8544 0.5180
vn -0.0290 0.8547 0.5182
vn -0.0168 0.8568 -0.5153
vn -0.0091 0.8569 -0.5154
vn -0.0179 0.8569 -0.5152
vn -0.0406 0.8544 -0.5181
vn -0.0328 0.8529 -0.5211
vn -0.0290 0.8547 -0.5183
vn -0.5743 -0.2367 -0.7836
vn -0.4214 -0.7651 -0.4868
usemtl Tex_0055_0.dds.003
s off
f 1/1/1 3/2/1 2/3/1
f 2/3/1 3/2/1 4/4/1
f 3/2/1 5/5/1 4/4/1
f 4/4/1 5/5/1 6/6/1
f 5/5/1 7/7/1 6/6/1
f 6/6/1 7/7/1 8/8/1
f 7/7/1 9/9/1 8/8/1
f 8/8/1 9/9/1 10/10/1
f 9/9/1 11/11/1 10/10/1
f 12/12/1 14/13/1 13/14/1
f 13/14/1 14/13/1 15/15/1
f 14/13/1 16/16/1 15/15/1
f 15/15/1 16/16/1 17/17/1
f 16/16/1 18/18/1 17/17/1
f 17/17/1 18/18/1 19/19/1
f 18/18/1 20/20/1 19/19/1
f 19/19/1 20/20/1 21/21/1
f 20/20/1 22/22/1 21/21/1
f 23/23/2 25/24/3 24/25/4
f 24/25/5 25/24/6 26/26/7
f 25/24/8 27/27/9 26/26/10
f 26/26/11 27/27/12 28/28/13
f 27/27/14 29/29/15 28/28/16
f 28/28/17 29/29/18 30/30/19
f 29/29/20 31/31/21 30/30/22
f 30/30/23 31/31/24 32/32/25
f 33/33/26 35/34/27 34/35/26
f 34/35/26 35/34/28 36/36/29
f 35/34/30 37/37/31 36/36/32
f 36/36/33 37/37/34 38/38/35
f 37/37/36 39/39/37 38/38/38
f 38/38/39 39/39/39 40/40/40
f 39/39/41 41/41/42 40/40/43
f 40/40/44 41/41/45 42/42/45
f 43/43/46 45/44/47 44/45/48
f 44/45/49 45/44/50 46/46/51
f 45/44/52 47/47/53 46/46/54
f 46/46/55 47/47/56 48/48/57
f 47/47/58 49/49/59 48/48/60
f 48/48/61 49/49/62 50/50/63
f 49/49/64 51/51/65 50/50/66
f 50/50/67 51/51/68 52/52/69
f 53/53/70 55/54/71 54/55/72
f 54/55/73 55/54/74 56/56/75
f 55/54/76 57/57/77 56/56/78
f 56/56/79 57/57/80 58/58/81
f 57/57/82 59/59/83 58/58/84
f 58/58/85 59/59/86 60/60/87
f 59/59/88 61/61/89 60/60/90
f 62/62/91 64/63/92 63/64/93
f 63/64/94 64/63/95 65/65/96
f 64/63/97 66/66/98 65/65/99
f 65/65/100 66/66/101 67/67/102
f 66/66/103 68/68/104 67/67/105
f 67/67/106 68/68/107 69/69/108
f 68/68/109 70/70/110 69/69/110
f 71/71/111 73/72/112 72/73/113
f 72/73/114 73/72/115 74/74/116
f 73/72/117 75/75/118 74/74/119
f 74/74/120 75/75/121 76/76/122
f 75/75/123 77/77/124 76/76/125
f 76/76/126 77/77/127 78/78/128
f 77/77/129 79/79/130 78/78/131
f 80/80/132 82/81/133 81/82/134
f 81/82/135 82/81/136 83/83/137
f 84/84/138 86/85/139 85/86/140
f 85/86/141 86/85/142 87/87/143
f 88/88/144 90/89/144 89/90/144
f 91/91/91 93/92/91 92/93/91
f 94/94/145 96/95/145 95/96/145
