# Blender v3.6.3 OBJ File: 'untitled.blend'
# www.blender.org
mtllib Mesh_0310.mtl
o Mesh_0310_Mesh.089
v -19.764582 9.114777 11.615860
v -19.764582 8.340076 12.129295
v -19.514891 8.340076 12.129295
v -19.764582 7.354354 12.424515
v -19.514891 7.354354 12.424515
v -19.764582 2.063738 12.424515
v -19.514891 2.063738 12.424515
v -19.764582 9.114778 16.695862
v -19.764582 8.340076 17.209290
v -19.514891 8.340076 17.209290
v -19.764582 7.354354 17.504509
v -19.514891 7.354354 17.504509
v -19.764582 2.063738 17.504509
v -19.514891 2.063738 17.504509
v -19.386456 10.159986 12.778046
v -19.386456 10.159986 12.668190
v -19.386456 1.862648 12.668190
v -19.386456 10.159986 12.558327
v -19.386456 1.862648 12.558327
v -19.514891 7.354354 12.424515
v -19.514891 2.063738 12.424515
v -19.764582 10.067328 10.128189
v -19.764582 9.677488 10.936943
v -19.514891 9.677488 10.936943
v -19.764582 9.114777 11.615860
v -19.514891 9.114777 11.615860
v -19.514891 8.340076 12.129295
v -19.386414 10.159986 7.588234
v -19.386414 1.862647 7.588234
v -19.386456 10.159986 7.698051
v -19.386456 1.862648 7.698280
v -19.514891 7.354354 7.831879
v -19.514891 2.063738 7.831879
v -19.514891 9.677488 9.319435
v -19.514891 9.114778 8.640518
v -19.764582 9.114778 8.640518
v -19.514891 8.340077 8.127113
v -19.764582 8.340077 8.127113
v -19.764582 7.354354 7.831879
v -19.764582 10.067328 15.208191
v -19.764582 9.677488 16.016945
v -19.514891 9.677488 16.016945
v -19.764582 9.114778 16.695862
v -19.514891 9.114778 16.695862
v -19.514891 8.340076 17.209290
v -19.514891 9.677488 14.399429
v -19.514891 9.114777 13.720512
v -19.764582 9.114777 13.720512
v -19.514891 8.340076 13.207108
v -19.764582 8.340076 13.207108
v -19.764582 7.354354 12.911880
v -19.764582 9.114778 8.640518
v -19.764582 9.677488 9.319435
v -19.514891 9.677488 9.319435
v -19.764582 10.067328 10.128189
v -19.514891 10.067328 10.128189
v -19.514891 8.340077 8.127113
v -19.514891 7.354354 7.831879
v -19.764582 7.354354 7.831879
v -19.514891 2.063738 7.831879
v -19.764582 2.063738 7.831879
v -19.386440 1.862647 17.748192
v -19.386456 10.159986 17.638329
v -19.386456 1.862648 17.638329
v -19.514891 7.354354 17.504509
v -19.514891 2.063738 17.504509
v -19.386456 1.862648 12.668190
v -19.386456 1.862648 12.778275
v -19.386456 10.159986 12.778046
v -19.514891 7.354354 12.911880
v -19.514891 10.159986 12.911880
v -19.764582 9.114777 13.720512
v -19.764582 9.677488 14.399429
v -19.514891 9.677488 14.399429
v -19.764582 10.067328 15.208191
v -19.514891 10.067328 15.208191
v -19.514891 8.340076 13.207108
v -19.514891 7.354354 12.911880
v -19.764582 7.354354 12.911880
v -19.514891 2.063738 12.911880
v -19.764582 2.063738 12.911880
v -19.764584 2.063738 7.272812
v -19.514902 2.063738 7.272812
v -19.764584 10.159986 7.272812
v -19.514902 10.159986 7.272812
v -19.386414 1.862647 7.588234
v -19.386414 10.159986 7.588234
v -19.514902 2.063738 7.272812
v -19.514902 10.159986 7.272812
v -19.764584 10.159986 5.297966
v -19.514902 10.159986 5.297966
v -19.764584 2.063738 5.297966
v -19.514902 2.063738 5.297966
v -19.764633 10.020769 18.065689
v -19.514952 10.020769 18.065689
v -19.764633 1.865440 18.065689
v -19.514952 1.865440 18.065689
v -19.386440 10.159986 17.748192
v -19.386440 1.862647 17.748192
v -19.514952 10.020769 18.065689
v -19.514952 1.865440 18.065689
v -19.386425 -0.677349 22.828194
v -19.386425 7.619987 22.828194
v -19.514952 -0.317827 22.514252
v -19.514952 7.782040 22.514252
v -19.764633 7.782040 22.514252
v -19.764633 -0.317827 22.514252
v -19.514952 7.782040 22.514252
v -19.514952 -0.317827 22.514252
v -19.764582 10.067328 10.128189
v -19.514891 9.677488 10.936943
v -19.514891 10.067328 10.128189
v -19.386456 10.159986 12.558327
v -19.514891 10.159986 12.424515
v -19.514891 7.354354 12.424515
v -19.514891 7.354354 7.831879
v -19.514891 10.159987 7.831879
v -19.386456 10.159986 7.698051
v -19.386456 10.159986 17.638329
v -19.386440 1.862647 17.748192
v -19.386440 10.159986 17.748192
v -19.764582 10.067328 15.208191
v -19.514891 9.677488 16.016945
v -19.514891 10.067328 15.208191
v -19.386456 10.159986 17.638329
v -19.514891 10.159986 17.504509
v -19.514891 7.354354 17.504509
v -19.514891 2.063738 12.911880
v -19.514891 7.354354 12.911880
v -19.386456 1.862648 12.778275
vt -5.995117 1.964844
vt -5.807617 1.643555
vt -5.995117 1.643555
vt -5.995117 1.160156
vt -5.807617 1.164062
vt -5.995117 -1.178711
vt -5.807617 -1.178711
vt -5.995117 1.964844
vt -5.807617 1.643555
vt -5.995117 1.643555
vt -5.995117 1.160156
vt -5.807617 1.164062
vt -5.995117 -1.178711
vt -5.807617 -1.178711
vt -5.357422 2.427734
vt -4.995117 -1.263672
vt -4.995117 2.427734
vt -5.357422 2.427734
vt -5.361328 -1.266602
vt -5.807617 1.164062
vt -5.807617 -1.178711
vt -5.995117 2.801758
vt -5.807617 2.360352
vt -5.995117 2.360352
vt -5.995117 1.964844
vt -5.807617 1.964844
vt -5.807617 1.643555
vt -4.995117 2.427734
vt -5.357422 2.427734
vt -4.995117 -1.263672
vt -5.361328 -1.266602
vt -5.807617 1.165039
vt -5.807617 -1.178711
vt -5.807617 2.360352
vt -5.995117 1.964844
vt -5.807617 1.964844
vt -5.807617 1.643555
vt -5.995117 1.643555
vt -5.995117 1.160156
vt -5.995117 2.801758
vt -5.807617 2.360352
vt -5.995117 2.360352
vt -5.995117 1.964844
vt -5.807617 1.964844
vt -5.807617 1.643555
vt -5.807617 2.360352
vt -5.995117 1.964844
vt -5.807617 1.964844
vt -5.807617 1.643555
vt -5.995117 1.643555
vt -5.995117 1.160156
vt -5.995117 1.964844
vt -5.807617 2.360352
vt -5.995117 2.360352
vt -5.995117 2.801758
vt -5.807617 2.801758
vt -5.807617 1.643555
vt -5.995117 1.160156
vt -5.807617 1.165039
vt -5.807617 -1.178711
vt -5.995117 -1.178711
vt -4.995117 -1.263672
vt -5.361328 -1.266602
vt -5.357422 2.427734
vt -5.807617 1.164062
vt -5.807617 -1.178711
vt -4.995117 -1.263672
vt -5.357422 2.427734
vt -5.361328 -1.266602
vt -5.807617 1.165039
vt -5.807617 2.430664
vt -5.995117 1.964844
vt -5.807617 2.360352
vt -5.995117 2.360352
vt -5.995117 2.801758
vt -5.807617 2.801758
vt -5.807617 1.643555
vt -5.995117 1.160156
vt -5.807617 1.165039
vt -5.807617 -1.178711
vt -5.995117 -1.178711
vt 2.000000 -3.171875
vt 2.000000 0.434570
vt 2.235352 -3.171875
vt 2.235352 0.434570
vt 2.992188 -3.258789
vt 2.235352 -3.171875
vt 2.992188 0.434570
vt 2.235352 0.434570
vt 2.000000 0.434570
vt 2.000000 -3.171875
vt 2.235352 0.434570
vt 2.235352 -3.171875
vt 5.995117 0.373047
vt 5.995117 -3.266602
vt 6.163086 0.373047
vt 6.163086 -3.266602
vt 6.994141 0.435547
vt 6.163086 0.373047
vt 6.994141 -3.262695
vt 6.163086 -3.266602
vt 4.994141 -3.258789
vt 4.160156 -3.089844
vt 4.994141 0.437500
vt 4.160156 0.512695
vt 3.995117 0.512695
vt 4.160156 0.512695
vt 3.995117 -3.089844
vt 4.160156 -3.089844
vt -5.995117 2.801758
vt -5.807617 2.801758
vt -5.807617 2.360352
vt -5.357422 2.427734
vt -5.807617 1.164062
vt -5.807617 2.430664
vt -5.807617 1.165039
vt -5.357422 2.427734
vt -5.807617 2.430664
vt -5.357422 2.427734
vt -4.995117 2.427734
vt -4.995117 -1.263672
vt -5.995117 2.801758
vt -5.807617 2.801758
vt -5.807617 2.360352
vt -5.357422 2.427734
vt -5.807617 1.164062
vt -5.807617 2.430664
vt -5.807617 -1.178711
vt -5.361328 -1.266602
vt -5.807617 1.165039
vn 0.0000 -0.5524 -0.8336
vn -0.0434 -0.5616 -0.8263
vn 0.0000 -0.2869 -0.9580
vn -0.0582 -0.5078 -0.8595
vn -0.0083 -0.2869 -0.9579
vn 0.0000 0.0000 -1.0000
vn -0.0131 -0.2786 -0.9603
vn -0.1429 -0.5784 -0.8032
vn 0.1466 -0.5465 -0.8246
vn 0.1466 -0.2838 -0.9476
vn -0.1412 -0.2510 -0.9576
vn 0.0590 -0.0447 -0.9973
vn -0.1450 -0.2839 -0.9478
vn 0.0380 0.0000 -0.9993
vn -0.1448 0.0068 -0.9894
vn -0.0068 -0.1448 -0.9894
vn 1.0000 0.0000 0.0000
vn 0.9996 0.0282 -0.0004
vn 0.9713 -0.2377 0.0000
vn 0.9996 0.0004 0.0282
vn 0.0702 0.0443 -0.9965
vn 0.2775 -0.0169 -0.9606
vn 0.7215 0.0000 -0.6925
vn 0.3773 -0.3520 -0.8566
vn 0.7214 0.0000 -0.6925
vn 0.0000 -0.9008 -0.4342
vn -0.1277 -0.9083 -0.3984
vn 0.1211 -0.8942 -0.4310
vn 0.1211 -0.7643 -0.6334
vn -0.1055 -0.7462 -0.6573
vn 0.0362 -0.6815 -0.7309
vn -0.0299 -0.8326 -0.5530
vn -0.1462 -0.7616 -0.6313
vn 0.1278 -0.7862 -0.6046
vn 0.1541 -0.5109 -0.8457
vn -0.1462 -0.5465 -0.8246
vn 1.0000 0.0000 0.0004
vn 0.9996 0.0282 0.0008
vn 0.9996 0.0004 -0.0278
vn 0.9713 -0.2377 0.0004
vn 0.0701 0.0444 0.9966
vn 0.7213 0.0000 0.6926
vn 0.2774 -0.0169 0.9606
vn 0.3762 -0.3521 0.8570
vn 0.7209 0.0000 0.6930
vn 0.0000 -0.7699 0.6381
vn 0.1542 -0.7878 0.5963
vn -0.1462 -0.7616 0.6313
vn -0.1462 -0.5465 0.8246
vn 0.1276 -0.5190 0.8452
vn -0.0349 -0.4391 0.8978
vn 0.0343 -0.6539 0.7558
vn 0.1466 -0.5465 0.8246
vn -0.1300 -0.5765 0.8067
vn -0.1542 -0.2474 0.9566
vn 0.1466 -0.2838 0.9476
vn 0.0000 -0.2869 0.9580
vn 0.1212 -0.8942 -0.4310
vn 0.1541 -0.5108 -0.8458
vn -0.1278 -0.7400 0.6604
vn 0.1211 -0.7643 0.6334
vn 0.1212 -0.8942 0.4310
vn -0.1055 -0.9081 0.4052
vn 0.0000 -0.9008 0.4342
vn -0.0293 -0.8496 0.5266
vn 0.1524 -0.3188 0.9355
vn -0.1450 -0.2839 0.9478
vn -0.1450 0.0000 0.9894
vn 0.1330 0.0063 0.9911
vn 0.0000 0.0000 1.0000
vn 0.0063 -0.1330 0.9911
vn 1.0000 0.0000 -0.0001
vn 0.9713 -0.2377 -0.0001
vn 0.7998 0.0080 0.6002
vn 0.6330 0.0080 -0.7741
vn 0.2776 -0.0169 -0.9605
vn 0.7215 0.0000 -0.6924
vn 0.3775 -0.3519 -0.8565
vn 0.7255 0.0091 -0.6881
vn 0.9999 -0.0147 -0.0000
vn 0.0555 -0.0230 0.9982
vn 0.7171 0.0004 0.6970
vn 0.7218 0.0058 0.6921
vn 0.7215 0.0000 0.6924
vn 0.9261 0.0000 -0.3773
vn 0.9269 0.0000 0.3752
vn 0.9254 0.0000 -0.3789
usemtl Tex_0030_0.dds.009
s off
f 1/1/1 3/2/2 2/3/1
f 2/3/3 3/2/3 4/4/3
f 3/2/4 5/5/5 4/4/3
f 4/4/6 5/5/6 6/6/6
f 5/5/7 7/7/6 6/6/6
f 8/8/1 10/9/8 9/10/9
f 9/10/10 10/9/11 11/11/12
f 10/9/3 12/12/13 11/11/3
f 11/11/14 12/12/15 13/13/6
f 12/12/16 14/14/6 13/13/6
f 15/15/17 17/16/17 16/17/17
f 16/17/17 17/16/17 18/18/18
f 17/16/17 19/19/19 18/18/20
f 18/18/21 19/19/22 20/20/23
f 19/19/24 21/21/25 20/20/25
f 22/22/26 24/23/27 23/24/28
f 23/24/29 24/23/30 25/25/31
f 24/23/32 26/26/33 25/25/34
f 25/25/35 26/26/36 27/27/1
f 28/28/37 30/29/38 29/30/37
f 29/30/37 30/29/39 31/31/40
f 30/29/41 32/32/42 31/31/43
f 31/31/44 32/32/45 33/33/45
f 34/34/46 36/35/47 35/36/48
f 35/36/49 36/35/50 37/37/51
f 36/35/52 38/38/53 37/37/54
f 37/37/55 38/38/56 39/39/57
f 40/40/26 42/41/27 41/42/58
f 41/42/29 42/41/30 43/43/31
f 42/41/32 44/44/33 43/43/34
f 43/43/59 44/44/36 45/45/1
f 46/46/46 48/47/47 47/48/48
f 47/48/49 48/47/50 49/49/51
f 48/47/52 50/50/53 49/49/54
f 49/49/55 50/50/56 51/51/57
f 52/52/46 54/53/60 53/54/61
f 53/54/62 54/53/63 55/55/64
f 54/53/65 56/56/64 55/55/64
f 57/57/57 59/58/66 58/59/67
f 58/59/68 59/58/69 60/60/70
f 59/58/71 61/61/70 60/60/70
f 62/62/72 64/63/73 63/64/74
f 63/64/75 64/63/76 65/65/77
f 64/63/78 66/66/77 65/65/77
f 67/67/17 69/68/79 68/69/80
f 68/69/81 69/68/82 70/70/42
f 69/68/83 71/71/84 70/70/84
f 72/72/46 74/73/60 73/74/61
f 73/74/62 74/73/63 75/75/64
f 74/73/65 76/76/64 75/75/64
f 77/77/57 79/78/66 78/79/67
f 78/79/68 79/78/69 80/80/70
f 79/78/71 81/81/70 80/80/70
f 82/82/6 84/83/6 83/84/6
f 83/84/6 84/83/6 85/85/6
f 86/86/85 88/87/85 87/88/85
f 87/88/85 88/87/85 89/89/85
f 90/90/70 92/91/70 91/92/70
f 91/92/70 92/91/70 93/93/70
f 94/94/70 96/95/70 95/96/70
f 95/96/70 96/95/70 97/97/70
f 98/98/86 100/99/86 99/100/86
f 99/100/86 100/99/86 101/101/86
f 102/102/87 104/103/87 103/104/87
f 103/104/87 104/103/87 105/105/87
f 106/106/6 108/107/6 107/108/6
f 107/108/6 108/107/6 109/109/6
f 110/110/26 112/111/26 111/112/26
f 113/113/23 115/114/23 114/115/23
f 116/116/84 118/117/84 117/118/84
f 119/119/72 121/120/72 120/121/72
f 122/122/26 124/123/26 123/124/26
f 125/125/77 127/126/77 126/127/77
f 128/128/45 130/129/45 129/130/45
