# Blender v3.6.3 OBJ File: 'untitled.blend'
# www.blender.org
mtllib Mesh_0215.mtl
o Mesh_0215_Mesh.161
v 43.734276 10.082363 22.828194
v 43.734276 9.692550 22.828194
v 44.745575 9.692550 22.828194
v 43.734276 9.129839 22.828194
v 45.594437 9.129839 22.828194
v 43.734276 8.355139 22.828194
v 46.236557 8.355139 22.828194
v 43.734276 7.369415 22.828194
v 46.600288 7.369415 22.828194
v 46.600288 4.603736 22.828194
v 49.072968 9.692550 22.828194
v 48.224022 9.129839 22.828194
v 51.944542 9.129839 22.828194
v 47.582008 8.355139 22.828194
v 52.586548 8.355139 22.828194
v 47.218178 7.369415 22.828194
v 52.950371 7.369415 22.828194
v 47.218178 4.603736 22.828194
v 52.950371 4.603736 22.828194
v 61.772964 9.692550 22.828194
v 60.924019 9.129839 22.828194
v 64.644539 9.129839 22.828194
v 60.282013 8.355139 22.828194
v 65.286552 8.355139 22.828194
v 59.918182 7.369415 22.828194
v 65.650375 7.369415 22.828194
v 59.918182 4.603736 22.828194
v 65.650375 4.603736 22.828194
v 69.136566 9.692550 22.828194
v 68.125259 9.692550 22.828194
v 69.136566 9.129839 22.828194
v 67.276390 9.129839 22.828194
v 69.136566 8.355139 22.828194
v 66.634277 8.355139 22.828194
v 69.136566 7.369415 22.828194
v 66.270554 7.369415 22.828194
v 66.270554 4.603736 22.828194
v 20.497972 9.677487 22.828194
v 19.649027 9.114777 22.828194
v 23.369539 9.114777 22.828194
v 19.007021 8.340076 22.828194
v 24.011545 8.340076 22.828194
v 18.643190 7.354352 22.828194
v 24.375376 7.354352 22.828194
v 18.643190 2.063736 22.828194
v 24.375376 2.063736 22.828194
v 39.547966 9.677487 22.828194
v 38.699028 9.114777 22.828194
v 42.419540 9.114777 22.828194
v 38.057014 8.340076 22.828194
v 43.061554 8.340076 22.828194
v 37.693192 7.354352 22.828194
v 43.425377 7.354352 22.828194
v 37.693192 2.063736 22.828194
v 43.425377 2.063736 22.828194
v -4.902029 9.677487 22.828194
v -5.750975 9.114777 22.828194
v -2.030462 9.114777 22.828194
v -6.392984 8.340076 22.828194
v -1.388456 8.340076 22.828194
v -6.756813 7.354352 22.828194
v -1.024626 7.354352 22.828194
v -6.756813 2.063736 22.828194
v -1.024626 2.063736 22.828194
v 1.447971 9.677487 22.828194
v 0.599028 9.114777 22.828194
v 4.319536 9.114777 22.828194
v -0.042984 8.340076 22.828194
v 4.961542 8.340076 22.828194
v -0.406813 7.354352 22.828194
v 5.325373 7.354352 22.828194
v -0.406813 2.063736 22.828194
v 5.325373 2.063736 22.828194
v 7.797968 9.677487 22.828194
v 6.949026 9.114777 22.828194
v 10.669538 9.114777 22.828194
v 6.307016 8.340076 22.828194
v 11.311548 8.340076 22.828194
v 5.943190 7.354352 22.828194
v 11.675371 7.354352 22.828194
v 5.943190 2.063736 22.828194
v 11.675371 2.063736 22.828194
v 14.147966 9.677487 22.828194
v 13.299025 9.114777 22.828194
v 17.019537 9.114777 22.828194
v 12.657015 8.340076 22.828194
v 17.661547 8.340076 22.828194
v 12.293188 7.354352 22.828194
v 18.025370 7.354352 22.828194
v 12.293188 2.063736 22.828194
v 18.025370 2.063736 22.828194
v 56.435417 22.859985 22.828194
v 50.085419 22.859985 22.828194
v 55.082817 22.190975 22.828194
v 51.433067 22.194326 22.828194
v 53.260422 20.807360 22.828194
v 50.085419 22.859985 22.828194
v 43.735420 22.859985 22.828194
v 48.732811 22.190975 22.828194
v 45.083061 22.194326 22.828194
v 46.910423 20.807360 22.828194
v 62.785416 22.859985 22.828194
v 56.435417 22.859985 22.828194
v 61.432816 22.190975 22.828194
v 57.783066 22.194326 22.828194
v 59.610420 20.807360 22.828194
v 69.135422 22.859985 22.828194
v 62.785416 22.859985 22.828194
v 67.782814 22.190975 22.828194
v 64.133064 22.194326 22.828194
v 65.960419 20.807360 22.828194
v 43.735420 22.859985 22.828194
v 37.385422 22.859985 22.828194
v 42.382812 22.190975 22.828194
v 38.733063 22.194326 22.828194
v 40.560417 20.807360 22.828194
v 37.385422 22.859985 22.828194
v 31.035414 22.859985 22.828194
v 36.032822 22.190975 22.828194
v 32.383057 22.194326 22.828194
v 34.210419 20.807360 22.828194
v 31.035414 22.859985 22.828194
v 24.685415 22.859985 22.828194
v 29.682817 22.190975 22.828194
v 26.033060 22.194326 22.828194
v 27.860415 20.807360 22.828194
v 24.685415 22.859985 22.828194
v 18.335413 22.859985 22.828194
v 23.332819 22.190975 22.828194
v 19.683062 22.194326 22.828194
v 21.510412 20.807360 22.828194
v 11.985411 22.859985 22.828194
v 5.635412 22.859985 22.828194
v 10.632818 22.190975 22.828194
v 6.983061 22.194326 22.828194
v 8.810411 20.807360 22.828194
v 18.335413 22.859985 22.828194
v 11.985411 22.859985 22.828194
v 16.982813 22.190975 22.828194
v 13.333059 22.194326 22.828194
v 15.160414 20.807360 22.828194
v 5.635412 22.859985 22.828194
v -0.714584 22.859985 22.828194
v 4.282820 22.190975 22.828194
v 0.633062 22.194326 22.828194
v 2.460417 20.807360 22.828194
v -0.714584 22.859985 22.828194
v -7.064585 22.859985 22.828194
v -2.067183 22.190975 22.828194
v -5.716938 22.194326 22.828194
v -3.889585 20.807360 22.828194
v 51.944542 9.129839 22.828194
v 51.095581 9.692550 22.828194
v 49.072968 9.692550 22.828194
v 50.084274 10.082363 22.828194
v 64.644539 9.129839 22.828194
v 63.795578 9.692550 22.828194
v 61.772964 9.692550 22.828194
v 62.784279 10.082363 22.828194
v 23.369539 9.114777 22.828194
v 22.520582 9.677487 22.828194
v 20.497972 9.677487 22.828194
v 21.509272 10.067327 22.828194
v 42.419540 9.114777 22.828194
v 41.570580 9.677487 22.828194
v 39.547966 9.677487 22.828194
v 40.559280 10.067327 22.828194
v 37.068062 2.063736 22.828194
v 37.068062 10.159986 22.828194
v 36.115570 2.063736 22.828194
v 36.115570 10.159986 22.828194
v 25.003027 2.063736 22.828194
v 25.955526 2.063736 22.828194
v 25.003027 10.159986 22.828194
v 25.955526 10.159986 22.828194
v -2.030462 9.114777 22.828194
v -2.879425 9.677487 22.828194
v -4.902029 9.677487 22.828194
v -3.890730 10.067327 22.828194
v 4.319536 9.114777 22.828194
v 3.470575 9.677487 22.828194
v 1.447971 9.677487 22.828194
v 2.459269 10.067327 22.828194
v 10.669538 9.114777 22.828194
v 9.820574 9.677487 22.828194
v 7.797968 9.677487 22.828194
v 8.809275 10.067327 22.828194
v 17.019537 9.114777 22.828194
v 16.170572 9.677487 22.828194
v 14.147966 9.677487 22.828194
v 15.159269 10.067327 22.828194
v 43.734276 7.369415 22.828194
v 43.734276 4.603736 22.828194
v 46.600288 4.603736 22.828194
v 69.136566 10.082363 22.828194
v 68.125259 9.692550 22.828194
v 69.136566 9.692550 22.828194
v 69.136566 4.603736 22.828194
v 69.136566 7.369415 22.828194
v 66.270554 4.603736 22.828194
vt -0.498047 -1.227539
vt -0.307617 -1.297852
vt -0.492188 -1.297852
vt -0.485352 -1.400391
vt -0.134766 -1.400391
vt -0.477539 -1.540039
vt 0.003906 -1.540039
vt -0.485352 -1.718750
vt 0.057617 -1.718750
vt 0.046875 -2.222656
vt -0.675781 -1.297852
vt -0.134766 -1.400391
vt -0.836914 -1.400391
vt -0.958008 -1.540039
vt 0.003906 -1.540039
vt -1.028320 -1.718750
vt 0.057617 -1.718750
vt -1.028320 -2.222656
vt 0.046875 -2.222656
vt -0.675781 -1.297852
vt -0.134766 -1.400391
vt -0.836914 -1.400391
vt -0.958008 -1.540039
vt 0.003906 -1.540039
vt -1.028320 -1.718750
vt 0.057617 -1.718750
vt -1.028320 -2.222656
vt 0.046875 -2.222656
vt -0.492188 -1.297852
vt -0.485352 -1.400391
vt -0.307617 -1.297852
vt -0.134766 -1.400391
vt -0.477539 -1.540039
vt 0.003906 -1.540039
vt -0.485352 -1.718750
vt 0.057617 -1.718750
vt 0.046875 -2.222656
vt -0.675781 -0.846680
vt -0.134766 -0.948242
vt -0.836914 -0.948242
vt -0.958008 -1.087891
vt 0.003906 -1.087891
vt -1.028320 -1.265625
vt 0.057617 -1.265625
vt -1.028320 -2.222656
vt 0.046875 -2.222656
vt -0.675781 -0.846680
vt -0.134766 -0.948242
vt -0.836914 -0.948242
vt -0.958008 -1.087891
vt 0.003906 -1.087891
vt -1.028320 -1.265625
vt 0.057617 -1.265625
vt -1.028320 -2.222656
vt 0.046875 -2.222656
vt -0.675781 -0.846680
vt -0.134766 -0.948242
vt -0.836914 -0.948242
vt -0.958008 -1.087891
vt 0.003906 -1.087891
vt -1.028320 -1.265625
vt 0.057617 -1.265625
vt -1.028320 -2.222656
vt 0.046875 -2.222656
vt -0.675781 -0.846680
vt -0.134766 -0.948242
vt -0.836914 -0.948242
vt -0.958008 -1.087891
vt 0.003906 -1.087891
vt -1.028320 -1.265625
vt 0.057617 -1.265625
vt -1.028320 -2.222656
vt 0.046875 -2.222656
vt -0.675781 -0.846680
vt -0.134766 -0.948242
vt -0.836914 -0.948242
vt -0.958008 -1.087891
vt 0.003906 -1.087891
vt -1.028320 -1.265625
vt 0.057617 -1.265625
vt -1.028320 -2.222656
vt 0.046875 -2.222656
vt -0.675781 -0.846680
vt -0.134766 -0.948242
vt -0.836914 -0.948242
vt -0.958008 -1.087891
vt 0.003906 -1.087891
vt -1.028320 -1.265625
vt 0.057617 -1.265625
vt -1.028320 -2.222656
vt 0.046875 -2.222656
vt -1.497070 -1.000000
vt -1.283203 -1.134766
vt -0.499023 -1.000000
vt -0.708008 -1.132812
vt -0.996094 -1.416992
vt -1.497070 -1.000000
vt -1.283203 -1.134766
vt -0.499023 -1.000000
vt -0.708008 -1.132812
vt -0.996094 -1.416992
vt -1.497070 -1.000000
vt -1.283203 -1.134766
vt -0.499023 -1.000000
vt -0.708008 -1.132812
vt -0.996094 -1.416992
vt -1.497070 -1.000000
vt -1.283203 -1.134766
vt -0.499023 -1.000000
vt -0.708008 -1.132812
vt -0.996094 -1.416992
vt -1.497070 -1.000000
vt -1.283203 -1.134766
vt -0.499023 -1.000000
vt -0.708008 -1.132812
vt -0.996094 -1.416992
vt -1.497070 -1.000000
vt -1.283203 -1.134766
vt -0.499023 -1.000000
vt -0.708008 -1.132812
vt -0.996094 -1.416992
vt -1.497070 -1.000000
vt -1.283203 -1.134766
vt -0.499023 -1.000000
vt -0.708008 -1.132812
vt -0.996094 -1.416992
vt -1.497070 -1.000000
vt -1.283203 -1.134766
vt -0.499023 -1.000000
vt -0.708008 -1.132812
vt -0.996094 -1.416992
vt -1.497070 -1.000000
vt -1.283203 -1.134766
vt -0.499023 -1.000000
vt -0.708008 -1.132812
vt -0.996094 -1.416992
vt -1.497070 -1.000000
vt -1.283203 -1.134766
vt -0.499023 -1.000000
vt -0.708008 -1.132812
vt -0.996094 -1.416992
vt -1.497070 -1.000000
vt -1.283203 -1.134766
vt -0.499023 -1.000000
vt -0.708008 -1.132812
vt -0.996094 -1.416992
vt -1.497070 -1.000000
vt -1.283203 -1.134766
vt -0.499023 -1.000000
vt -0.708008 -1.132812
vt -0.996094 -1.416992
vt -0.134766 -1.400391
vt -0.675781 -1.297852
vt -0.307617 -1.297852
vt -0.498047 -1.227539
vt -0.134766 -1.400391
vt -0.675781 -1.297852
vt -0.307617 -1.297852
vt -0.498047 -1.227539
vt -0.134766 -0.948242
vt -0.675781 -0.846680
vt -0.307617 -0.846680
vt -0.498047 -0.776367
vt -0.134766 -0.948242
vt -0.675781 -0.846680
vt -0.307617 -0.846680
vt -0.498047 -0.776367
vt 2.433594 -1.266602
vt 2.215820 -1.266602
vt 2.433594 0.256836
vt 2.215820 0.247070
vt 2.433594 -1.266602
vt 2.433594 0.256836
vt 2.215820 -1.266602
vt 2.215820 0.247070
vt -0.134766 -0.948242
vt -0.675781 -0.846680
vt -0.307617 -0.846680
vt -0.498047 -0.776367
vt -0.134766 -0.948242
vt -0.675781 -0.846680
vt -0.307617 -0.846680
vt -0.498047 -0.776367
vt -0.134766 -0.948242
vt -0.675781 -0.846680
vt -0.307617 -0.846680
vt -0.498047 -0.776367
vt -0.134766 -0.948242
vt -0.675781 -0.846680
vt -0.307617 -0.846680
vt -0.498047 -0.776367
vt -0.485352 -1.718750
vt 0.046875 -2.222656
vt -0.491211 -2.222656
vt -0.498047 -1.227539
vt -0.492188 -1.297852
vt -0.307617 -1.297852
vt -0.491211 -2.222656
vt 0.046875 -2.222656
vt -0.485352 -1.718750
vn 0.0000 0.0000 -1.0000
usemtl Tex_0031_1.dds.008
s off
f 1/1/1 3/2/1 2/3/1
f 2/3/1 3/2/1 4/4/1
f 3/2/1 5/5/1 4/4/1
f 4/4/1 5/5/1 6/6/1
f 5/5/1 7/7/1 6/6/1
f 6/6/1 7/7/1 8/8/1
f 7/7/1 9/9/1 8/8/1
f 8/8/1 9/9/1 10/10/1
f 11/11/1 13/12/1 12/13/1
f 12/13/1 13/12/1 14/14/1
f 13/12/1 15/15/1 14/14/1
f 14/14/1 15/15/1 16/16/1
f 15/15/1 17/17/1 16/16/1
f 16/16/1 17/17/1 18/18/1
f 17/17/1 19/19/1 18/18/1
f 20/20/1 22/21/1 21/22/1
f 21/22/1 22/21/1 23/23/1
f 22/21/1 24/24/1 23/23/1
f 23/23/1 24/24/1 25/25/1
f 24/24/1 26/26/1 25/25/1
f 25/25/1 26/26/1 27/27/1
f 26/26/1 28/28/1 27/27/1
f 29/29/1 31/30/1 30/31/1
f 30/31/1 31/30/1 32/32/1
f 31/30/1 33/33/1 32/32/1
f 32/32/1 33/33/1 34/34/1
f 33/33/1 35/35/1 34/34/1
f 34/34/1 35/35/1 36/36/1
f 35/35/1 37/37/1 36/36/1
f 38/38/1 40/39/1 39/40/1
f 39/40/1 40/39/1 41/41/1
f 40/39/1 42/42/1 41/41/1
f 41/41/1 42/42/1 43/43/1
f 42/42/1 44/44/1 43/43/1
f 43/43/1 44/44/1 45/45/1
f 44/44/1 46/46/1 45/45/1
f 47/47/1 49/48/1 48/49/1
f 48/49/1 49/48/1 50/50/1
f 49/48/1 51/51/1 50/50/1
f 50/50/1 51/51/1 52/52/1
f 51/51/1 53/53/1 52/52/1
f 52/52/1 53/53/1 54/54/1
f 53/53/1 55/55/1 54/54/1
f 56/56/1 58/57/1 57/58/1
f 57/58/1 58/57/1 59/59/1
f 58/57/1 60/60/1 59/59/1
f 59/59/1 60/60/1 61/61/1
f 60/60/1 62/62/1 61/61/1
f 61/61/1 62/62/1 63/63/1
f 62/62/1 64/64/1 63/63/1
f 65/65/1 67/66/1 66/67/1
f 66/67/1 67/66/1 68/68/1
f 67/66/1 69/69/1 68/68/1
f 68/68/1 69/69/1 70/70/1
f 69/69/1 71/71/1 70/70/1
f 70/70/1 71/71/1 72/72/1
f 71/71/1 73/73/1 72/72/1
f 74/74/1 76/75/1 75/76/1
f 75/76/1 76/75/1 77/77/1
f 76/75/1 78/78/1 77/77/1
f 77/77/1 78/78/1 79/79/1
f 78/78/1 80/80/1 79/79/1
f 79/79/1 80/80/1 81/81/1
f 80/80/1 82/82/1 81/81/1
f 83/83/1 85/84/1 84/85/1
f 84/85/1 85/84/1 86/86/1
f 85/84/1 87/87/1 86/86/1
f 86/86/1 87/87/1 88/88/1
f 87/87/1 89/89/1 88/88/1
f 88/88/1 89/89/1 90/90/1
f 89/89/1 91/91/1 90/90/1
f 92/92/1 94/93/1 93/94/1
f 93/94/1 94/93/1 95/95/1
f 94/93/1 96/96/1 95/95/1
f 97/97/1 99/98/1 98/99/1
f 98/99/1 99/98/1 100/100/1
f 99/98/1 101/101/1 100/100/1
f 102/102/1 104/103/1 103/104/1
f 103/104/1 104/103/1 105/105/1
f 104/103/1 106/106/1 105/105/1
f 107/107/1 109/108/1 108/109/1
f 108/109/1 109/108/1 110/110/1
f 109/108/1 111/111/1 110/110/1
f 112/112/1 114/113/1 113/114/1
f 113/114/1 114/113/1 115/115/1
f 114/113/1 116/116/1 115/115/1
f 117/117/1 119/118/1 118/119/1
f 118/119/1 119/118/1 120/120/1
f 119/118/1 121/121/1 120/120/1
f 122/122/1 124/123/1 123/124/1
f 123/124/1 124/123/1 125/125/1
f 124/123/1 126/126/1 125/125/1
f 127/127/1 129/128/1 128/129/1
f 128/129/1 129/128/1 130/130/1
f 129/128/1 131/131/1 130/130/1
f 132/132/1 134/133/1 133/134/1
f 133/134/1 134/133/1 135/135/1
f 134/133/1 136/136/1 135/135/1
f 137/137/1 139/138/1 138/139/1
f 138/139/1 139/138/1 140/140/1
f 139/138/1 141/141/1 140/140/1
f 142/142/1 144/143/1 143/144/1
f 143/144/1 144/143/1 145/145/1
f 144/143/1 146/146/1 145/145/1
f 147/147/1 149/148/1 148/149/1
f 148/149/1 149/148/1 150/150/1
f 149/148/1 151/151/1 150/150/1
f 152/152/1 154/153/1 153/154/1
f 153/154/1 154/153/1 155/155/1
f 156/156/1 158/157/1 157/158/1
f 157/158/1 158/157/1 159/159/1
f 160/160/1 162/161/1 161/162/1
f 161/162/1 162/161/1 163/163/1
f 164/164/1 166/165/1 165/166/1
f 165/166/1 166/165/1 167/167/1
f 168/168/1 170/169/1 169/170/1
f 169/170/1 170/169/1 171/171/1
f 172/172/1 174/173/1 173/174/1
f 173/174/1 174/173/1 175/175/1
f 176/176/1 178/177/1 177/178/1
f 177/178/1 178/177/1 179/179/1
f 180/180/1 182/181/1 181/182/1
f 181/182/1 182/181/1 183/183/1
f 184/184/1 186/185/1 185/186/1
f 185/186/1 186/185/1 187/187/1
f 188/188/1 190/189/1 189/190/1
f 189/190/1 190/189/1 191/191/1
f 192/192/1 194/193/1 193/194/1
f 195/195/1 197/196/1 196/197/1
f 198/198/1 200/199/1 199/200/1
