# Blender v3.6.3 OBJ File: 'untitled.blend'
# www.blender.org
mtllib Mesh_0264.mtl
o Mesh_0264_Mesh.180
v -10.557085 27.939991 -27.971813
v -12.144585 30.479990 -27.971813
v -8.273373 32.432491 -27.971813
v -14.684585 32.184078 -27.971813
v -8.279469 35.559994 -27.971813
v -10.297752 40.197018 -27.971813
v -14.684585 32.184078 -27.971813
v -17.224585 30.479990 -27.971813
v -21.352085 33.653725 -27.971813
v -18.812084 27.939991 -27.971813
v -21.352085 25.399990 -27.971813
v -19.764584 25.399990 -27.971764
v -21.352085 33.653725 -27.971813
v -21.034584 35.558723 -27.971813
v -14.684585 32.184078 -27.971813
v -18.924858 40.323254 -27.971813
v -14.684585 42.543976 -27.971813
v -8.273373 32.432491 -27.971813
v -8.273373 25.399990 -27.971813
v -10.557085 27.939991 -27.971813
v -9.604586 25.399990 -27.971764
v -22.304585 14.763743 -27.971714
v -22.304585 22.859991 -27.971714
v -19.764584 14.763743 -27.971737
v -19.763367 22.859991 -27.971760
v -7.064585 14.763743 -27.971714
v -9.604584 14.763743 -27.971737
v -7.064585 22.859991 -27.971714
v -9.605803 22.859991 -27.971760
v -14.684585 42.543976 -27.971813
v -10.297752 40.197018 -27.971813
v -14.684585 32.184078 -27.971813
vt 1.149414 -1.553711
vt 1.498047 -0.768555
vt 0.906250 -1.109375
vt 0.518555 -0.811523
vt 1.497070 -0.221680
vt 1.188477 0.587891
vt 0.518555 -0.811523
vt -0.499023 -0.554688
vt 0.130859 -1.109375
vt -0.111328 -1.553711
vt -0.499023 -1.998047
vt -0.256836 -1.998047
vt -0.499023 -0.554688
vt 0.518555 -0.811523
vt -0.450195 -0.221680
vt -0.127930 0.610352
vt 0.518555 0.999023
vt 1.498047 -0.768555
vt 1.149414 -1.553711
vt 1.498047 -1.998047
vt 1.294922 -1.998047
vt 1.090820 -0.596680
vt 1.480469 -0.596680
vt 1.090820 1.000000
vt 1.480469 1.000000
vt 1.090820 -0.596680
vt 1.090820 1.000000
vt 1.480469 -0.596680
vt 1.480469 1.000000
vt 0.518555 0.999023
vt 0.518555 -0.811523
vt 1.188477 0.587891
vn -0.0000 0.0000 1.0000
usemtl Tex_0031_1.dds.011
s off
f 1/1/1 3/2/1 2/3/1
f 2/3/1 3/2/1 4/4/1
f 3/2/1 5/5/1 4/4/1
f 4/4/1 5/5/1 6/6/1
f 7/7/1 9/8/1 8/9/1
f 8/9/1 9/8/1 10/10/1
f 9/8/1 11/11/1 10/10/1
f 10/10/1 11/11/1 12/12/1
f 13/13/1 15/14/1 14/15/1
f 14/15/1 15/14/1 16/16/1
f 15/14/1 17/17/1 16/16/1
f 18/18/1 20/19/1 19/20/1
f 19/20/1 20/19/1 21/21/1
f 22/22/1 24/23/1 23/24/1
f 23/24/1 24/23/1 25/25/1
f 26/26/1 28/27/1 27/28/1
f 27/28/1 28/27/1 29/29/1
f 30/30/1 32/31/1 31/32/1
