# Blender v3.6.3 OBJ File: 'untitled.blend'
# www.blender.org
mtllib Mesh_0269.mtl
o Mesh_0269_Mesh.073
v -10.111103 0.705550 -12.731762
v -10.111147 0.705546 -13.544537
v -10.239578 0.846653 -12.731762
v -10.239584 0.846655 -13.544537
v -10.239584 0.987769 -12.731762
v -10.239584 0.987765 -13.544537
v -9.982756 1.128872 -12.731762
v -9.982710 1.128875 -13.544537
v -9.604586 2.063743 -13.803036
v -9.854284 2.063744 -13.544537
v -9.604589 1.862655 -13.931469
v -9.982716 1.862655 -13.544537
v -9.604584 1.693316 -14.059898
v -10.111147 1.693313 -13.544537
v -9.604584 1.552204 -13.931473
v -9.982710 1.552204 -13.544537
v -9.604588 1.128875 -13.931480
v -9.982710 1.128875 -13.544537
v -9.604584 0.987765 -14.185894
v -10.239584 0.987765 -13.544537
v -9.604584 0.846655 -14.185894
v -10.239584 0.846655 -13.544537
v -9.604589 0.705546 -14.059898
v -10.111147 0.705546 -13.544537
v -10.111103 0.705550 -12.731762
v -10.239578 0.846653 -12.731762
v -10.239584 0.846650 -10.826717
v -10.239584 0.987769 -12.731762
v -10.239584 0.987773 -10.826717
v -9.982756 1.128872 -12.731762
v -9.985584 1.128870 -10.572720
v -9.982750 1.552209 -12.731762
v -10.111101 1.693311 -12.731762
v -10.112585 1.693309 -10.699718
v -9.982735 1.862652 -12.731773
v -9.985584 1.862650 -10.572720
v -9.854267 2.063742 -12.416199
v -9.854267 2.063742 -10.441395
v -10.111147 0.705546 -22.079067
v -10.239574 0.846655 -22.891804
v -10.239584 0.846655 -22.079075
v -10.239584 0.987765 -22.891804
v -10.239584 0.987765 -22.079075
v -9.982721 1.128875 -22.891804
v -9.982710 1.128875 -22.079067
v -9.854284 2.063745 -22.079071
v -9.604589 1.862655 -21.692142
v -9.982716 1.862655 -22.079075
v -9.604584 1.693316 -21.563709
v -10.111147 1.693314 -22.079071
v -9.604584 1.552204 -21.692139
v -9.982710 1.552204 -22.079067
v -9.982710 1.128875 -22.079067
v -9.604584 0.987765 -21.437714
v -10.239584 0.987765 -22.079075
v -9.604584 0.846655 -21.437717
v -10.239584 0.846655 -22.079075
v -9.604589 0.705546 -21.563709
v -10.111147 0.705546 -22.079067
v -9.854277 2.063743 -12.975487
v -9.982706 1.862653 -12.841663
v -9.982716 1.862655 -13.544537
v -10.111101 1.693311 -12.731762
v -10.111147 1.693313 -13.544537
v -9.982710 1.552204 -13.544537
v -9.854277 2.063743 -22.648125
v -9.982716 1.862655 -22.079075
v -9.982706 1.862653 -22.781944
v -10.111147 1.693314 -22.891804
v -9.982704 1.862653 -22.891804
v -9.982716 1.862655 -22.079075
v -10.111147 1.693314 -22.079071
v -10.111147 1.693314 -22.891804
v -9.982710 1.552204 -22.079067
v -9.982710 1.552207 -22.891804
v -9.854267 2.063742 -12.416199
v -9.604584 2.063742 -12.416199
v -9.854267 2.063742 -10.441395
v -9.604584 2.063742 -10.441395
v -10.239584 0.564431 -10.826717
v -10.239584 -0.000008 -10.826717
v -10.239586 0.564433 -12.731762
v -10.239584 -0.000007 -12.731770
v -10.112585 0.705553 -10.699718
v -10.239584 0.564431 -10.826717
v -10.111103 0.705550 -12.731762
v -10.239586 0.564433 -12.731762
v -9.985584 1.552211 -10.572720
v -9.985584 1.128870 -10.572720
v -9.982750 1.552209 -12.731762
v -9.982756 1.128872 -12.731762
v -10.239584 -0.000007 -12.731770
v -10.239588 -0.000006 -13.544540
v -10.239586 0.564433 -12.731762
v -10.239584 0.564436 -13.544537
v -10.239586 0.564433 -12.731762
v -10.239584 0.564436 -13.544537
v -10.111103 0.705550 -12.731762
v -10.111147 0.705546 -13.544537
v -9.982710 1.552204 -13.544537
v -9.982750 1.552209 -12.731762
v -9.982710 1.128875 -13.544537
v -9.982756 1.128872 -12.731762
v -9.982710 1.128875 -13.544537
v -9.604588 1.128875 -13.931480
v -9.982710 1.552204 -13.544537
v -9.604584 1.552204 -13.931473
v -10.239584 0.564436 -13.544537
v -9.604584 0.564435 -14.185894
v -10.111147 0.705546 -13.544537
v -9.604589 0.705546 -14.059898
v -10.239588 -0.000006 -13.544540
v -9.604580 -0.000006 -14.185894
v -10.239584 0.564436 -13.544537
v -9.604584 0.564435 -14.185894
v -9.604586 2.063743 -13.803036
v -9.604586 2.063743 -12.975487
v -9.854284 2.063744 -13.544537
v -9.854277 2.063743 -12.975487
v -10.239582 -0.000006 -22.891796
v -10.239588 0.564436 -22.891800
v -10.239588 -0.000006 -22.079067
v -10.239584 0.564436 -22.079067
v -10.239588 0.564436 -22.891800
v -10.111149 0.705546 -22.891804
v -10.239584 0.564436 -22.079067
v -10.111147 0.705546 -22.079067
v -9.982710 1.552204 -22.079067
v -9.982710 1.128875 -22.079067
v -9.982710 1.552207 -22.891804
v -9.982721 1.128875 -22.891804
v -9.982710 1.128875 -22.079067
v -9.982710 1.552204 -22.079067
v -9.604588 1.128875 -21.692135
v -9.604584 1.552204 -21.692139
v -10.239584 0.564436 -22.079067
v -10.111147 0.705546 -22.079067
v -9.604584 0.564435 -21.437717
v -9.604589 0.705546 -21.563709
v -10.239588 -0.000006 -22.079067
v -10.239584 0.564436 -22.079067
v -9.604580 -0.000006 -21.437714
v -9.604584 0.564435 -21.437717
v -9.604586 2.063743 -21.820576
v -9.854284 2.063745 -22.079071
v -9.604586 2.063743 -22.648129
v -9.854277 2.063743 -22.648125
v -10.111103 0.705550 -12.731762
v -10.239584 0.846650 -10.826717
v -10.112585 0.705553 -10.699718
v -9.982750 1.552209 -12.731762
v -10.112585 1.693309 -10.699718
v -9.985584 1.552211 -10.572720
v -9.854277 2.063743 -12.975487
v -9.982716 1.862655 -13.544537
v -9.854284 2.063744 -13.544537
v -9.982706 1.862653 -12.841663
v -9.982735 1.862652 -12.731773
v -10.111101 1.693311 -12.731762
v -9.982710 1.552204 -13.544537
v -10.111101 1.693311 -12.731762
v -9.982750 1.552209 -12.731762
v -9.982716 1.862655 -22.079075
v -9.854277 2.063743 -22.648125
v -9.854284 2.063745 -22.079071
v -10.111149 0.705546 -22.891804
v -10.239574 0.846655 -22.891804
v -10.111147 0.705546 -22.079067
v -9.854284 2.063745 -22.079071
v -9.604586 2.063743 -21.820576
v -9.604589 1.862655 -21.692142
v -9.604588 1.128875 -21.692135
v -9.604584 0.987765 -21.437714
v -9.982710 1.128875 -22.079067
vt 3.501953 -0.679688
vt 3.501953 -1.043945
vt 2.943359 -0.679688
vt 2.943359 -1.043945
vt 3.501953 -1.194336
vt 2.943359 -1.194336
vt 3.501953 -0.774414
vt 2.943359 -0.774414
vt 2.690430 2.042969
vt 2.593750 1.803711
vt 2.884766 2.042969
vt 2.884766 1.803711
vt 2.497070 1.652344
vt 2.884766 1.652344
vt 2.593750 1.796875
vt 2.884766 1.796875
vt 2.677734 -0.774414
vt 2.502930 -1.194336
vt 2.943359 -0.774414
vt 2.943359 -1.194336
vt 2.502930 -1.043945
vt 2.943359 -1.043945
vt 2.589844 -0.679688
vt 2.943359 -0.679688
vt 1.009766 -0.694336
vt 0.207031 -1.070312
vt 1.009766 -1.070312
vt 1.009766 -1.196289
vt 0.205078 -1.196289
vt 1.009766 -0.770508
vt 0.160156 -0.770508
vt 1.467773 1.794922
vt 0.632812 1.655273
vt 1.471680 1.655273
vt 1.473633 1.799805
vt 0.619141 1.799805
vt 1.438477 2.045898
vt 0.589844 2.047852
vt 2.943359 -0.679688
vt 2.943359 -1.043945
vt 3.501953 -1.043945
vt 3.501953 -1.194336
vt 2.943359 -1.194336
vt 3.501953 -0.774414
vt 2.943359 -0.774414
vt 2.884766 2.042969
vt 2.884766 1.803711
vt 2.593750 1.803711
vt 2.497070 1.652344
vt 2.884766 1.652344
vt 2.593750 1.796875
vt 2.884766 1.796875
vt 2.943359 -0.774414
vt 2.943359 -1.194336
vt 2.502930 -1.194336
vt 2.502930 -1.043945
vt 2.943359 -1.043945
vt 2.589844 -0.679688
vt 2.943359 -0.679688
vt 3.312500 2.042969
vt 2.884766 1.803711
vt 3.414062 1.802734
vt 3.496094 1.652344
vt 2.884766 1.652344
vt 2.884766 1.796875
vt 3.312500 2.042969
vt 3.414062 1.802734
vt 2.884766 1.803711
vt 3.496094 1.652344
vt 3.496094 1.803711
vt 2.884766 1.803711
vt 3.496094 1.652344
vt 2.884766 1.652344
vt 2.884766 1.796875
vt 3.496094 1.796875
vt 1.438477 2.045898
vt 0.589844 2.047852
vt 1.433594 2.397461
vt 0.586914 2.397461
vt 0.205078 -2.003906
vt 1.009766 -2.003906
vt 0.206055 -1.603516
vt 1.009766 -1.603516
vt 0.183594 -2.352539
vt 1.009766 -2.352539
vt 0.205078 -2.003906
vt 1.009766 -2.003906
vt 0.158203 0.653320
vt 1.009766 0.653320
vt 0.160156 0.346680
vt 1.009766 0.346680
vt -1.482422 -2.602539
vt -1.482422 -2.986328
vt -2.040039 -2.602539
vt -2.040039 -2.986328
vt -1.482422 -2.002930
vt -1.482422 -2.347656
vt -2.040039 -2.002930
vt -2.040039 -2.347656
vt -1.799805 -1.347656
vt -1.799805 -1.618164
vt -1.503906 -1.347656
vt -1.503906 -1.618164
vt -1.799805 -1.618164
vt -1.799805 -1.347656
vt -2.000977 -1.618164
vt -2.000977 -1.347656
vt -2.040039 -2.002930
vt -2.040039 -2.347656
vt -2.480469 -2.002930
vt -2.394531 -2.347656
vt -2.040039 -2.602539
vt -2.040039 -2.986328
vt -2.480469 -2.602539
vt -2.480469 -2.986328
vt 2.488281 2.826172
vt 2.800781 2.708984
vt 3.487305 2.826172
vt 3.487305 2.708984
vt -1.482422 -2.602539
vt -2.040039 -2.602539
vt -1.482422 -2.986328
vt -2.040039 -2.986328
vt -1.482422 -2.002930
vt -2.040039 -2.002930
vt -1.482422 -2.347656
vt -2.040039 -2.347656
vt -1.799805 -1.347656
vt -1.503906 -1.347656
vt -1.799805 -1.618164
vt -1.503906 -1.618164
vt -1.799805 -1.618164
vt -2.000977 -1.618164
vt -1.799805 -1.347656
vt -2.000977 -1.347656
vt -2.040039 -2.002930
vt -2.480469 -2.002930
vt -2.040039 -2.347656
vt -2.394531 -2.347656
vt -2.040039 -2.602539
vt -2.480469 -2.602539
vt -2.040039 -2.986328
vt -2.480469 -2.986328
vt 2.488281 2.826172
vt 3.487305 2.826172
vt 2.800781 2.708984
vt 3.487305 2.708984
vt 1.009766 -0.694336
vt 0.183594 -0.694336
vt 0.207031 -1.070312
vt 1.467773 1.794922
vt 0.618164 1.794922
vt 0.632812 1.655273
vt 3.312500 2.042969
vt 2.884766 2.042969
vt 2.884766 1.803711
vt 3.414062 1.802734
vt 3.496094 1.652344
vt 3.496094 1.803711
vt 2.884766 1.796875
vt 3.496094 1.796875
vt 3.496094 1.652344
vt 2.884766 1.803711
vt 2.884766 2.042969
vt 3.312500 2.042969
vt 3.501953 -0.679688
vt 2.943359 -0.679688
vt 3.501953 -1.043945
vt 2.884766 2.042969
vt 2.593750 1.803711
vt 2.690430 2.042969
vt 2.677734 -0.774414
vt 2.943359 -0.774414
vt 2.502930 -1.194336
vn -0.7394 -0.6732 0.0000
vn -0.7410 -0.5543 0.3791
vn -0.7395 -0.6731 0.0000
vn -0.7378 -0.6716 -0.0680
vn -0.9432 -0.0001 0.3322
vn -0.8427 0.0920 0.5304
vn -0.7837 0.6120 -0.1062
vn -1.0000 0.0000 0.0000
vn -0.8607 -0.0000 -0.5092
vn -0.4226 0.7692 0.4794
vn -0.4815 0.8764 -0.0000
vn 0.0053 0.9850 -0.1727
vn -0.5658 0.6712 -0.4790
vn -0.4815 0.8765 -0.0000
vn -0.6574 0.4056 -0.6350
vn -0.6926 0.4042 -0.5974
vn -0.6505 0.4155 -0.6357
vn -0.6270 0.4021 -0.6673
vn -0.6460 0.4601 -0.6090
vn -0.1880 0.4726 -0.8610
vn -0.6220 0.4826 -0.6167
vn -0.6186 0.4612 -0.6361
vn -0.2821 0.8314 -0.4788
vn -0.7892 0.5972 -0.1430
vn -0.1014 -0.6704 -0.7350
vn -0.6003 -0.5383 -0.5915
vn -0.4169 -0.8812 -0.2227
vn -0.8199 -0.5658 -0.0877
vn -0.5961 -0.5525 -0.5826
vn -0.5994 -0.5456 -0.5857
vn -0.4446 0.7833 -0.4345
vn 0.0940 0.7762 -0.6235
vn -0.4510 0.7761 -0.4408
vn -0.4342 0.7905 -0.4319
vn 0.0568 0.9818 -0.1812
vn -0.4566 0.8312 -0.3173
vn -0.4523 -0.0011 -0.8919
vn -0.5238 -0.0370 -0.8510
vn -0.5770 -0.7023 -0.4168
vn -0.7106 0.0000 -0.7036
vn -0.8532 -0.0010 -0.5216
vn -0.3205 -0.6309 -0.7066
vn -0.6006 -0.5325 -0.5964
vn -0.4962 -0.7714 -0.3984
vn -0.7514 -0.5947 -0.2859
vn -0.5928 -0.5559 -0.5827
vn -0.5982 -0.5445 -0.5880
vn -0.1362 -0.9886 0.0640
vn -0.6896 -0.6279 -0.3609
vn -0.9326 -0.0000 -0.3609
vn -0.9992 0.0406 0.0030
vn -0.8607 0.0376 -0.5078
vn -0.9992 -0.0030 0.0407
vn -0.8012 -0.0004 0.5984
vn -0.8607 -0.5077 -0.0376
vn -0.4144 0.7543 -0.5092
vn -0.0795 0.9949 0.0625
vn -0.7171 0.6453 0.2636
vn -0.4851 0.8744 -0.0006
vn -0.4884 0.8726 -0.0006
vn -0.7397 -0.6729 -0.0005
vn 0.4823 -0.8713 0.0908
vn -0.5686 -0.5173 -0.6396
vn -0.6126 0.4644 -0.6396
vn -0.7675 0.6410 0.0039
vn -0.7981 0.6021 0.0225
vn -0.8144 0.5793 0.0333
vn -0.7848 0.6185 -0.0385
vn -0.7884 0.6152 0.0012
vn -0.8644 0.5017 0.0326
vn -0.8576 0.5142 -0.0043
vn -0.8419 0.5396 -0.0011
vn -0.8300 0.5575 -0.0171
vn -0.8373 0.5468 0.0000
vn -0.8328 0.5536 0.0000
vn -0.6897 -0.6278 0.3609
vn -0.1927 -0.9715 -0.1382
vn -0.9961 -0.0001 -0.0888
vn -0.9327 0.3554 0.0617
vn -1.0000 -0.0001 -0.0000
vn -0.9326 -0.0617 0.3556
vn -0.8956 0.0002 0.4450
vn -0.5651 0.6265 0.5368
vn -0.6505 0.4155 0.6357
vn -0.6270 0.4020 0.6673
vn -0.6774 0.3757 0.6324
vn -0.6403 0.4642 0.6120
vn -0.6220 0.4826 0.6167
vn -0.1880 0.4727 0.8610
vn -0.6186 0.4612 0.6361
vn -0.7892 0.5972 0.1430
vn -0.2821 0.8314 0.4788
vn -0.1014 -0.6704 0.7350
vn -0.4169 -0.8813 0.2227
vn -0.6003 -0.5383 0.5915
vn -0.8199 -0.5658 0.0877
vn -0.5994 -0.5455 0.5858
vn -0.5962 -0.5524 0.5826
vn -0.4346 0.7912 0.4303
vn -0.4766 0.8676 -0.1420
vn 0.2137 0.9729 0.0881
vn -0.6069 -0.0001 0.7948
vn -0.7081 -0.3159 0.6315
vn -0.5361 -0.0348 0.8434
vn -0.8956 0.0494 0.4422
vn -0.8532 -0.0010 0.5216
vn -0.6680 0.2223 0.7102
vn -0.3067 -0.6339 0.7100
vn -0.4962 -0.7714 0.3984
vn -0.6006 -0.5325 0.5964
vn -0.7514 -0.5947 0.2860
vn -0.5982 -0.5444 0.5880
vn -0.5929 -0.5558 0.5827
vn -0.8428 0.5383 0.0000
vn -0.8729 0.4873 0.0249
vn -0.8555 0.5157 -0.0462
vn -0.8041 0.5939 -0.0243
vn -0.7873 0.6165 0.0041
vn -0.7554 0.6268 0.1910
vn -0.7991 0.6009 0.0158
vn -0.6127 0.4647 -0.6393
vn -0.6668 0.7436 0.0496
vn 0.3337 -0.9185 0.2122
vn -0.5686 -0.5176 -0.6393
vn -0.8571 0.5125 0.0525
vn -0.8580 0.5135 -0.0122
vn -0.7672 0.6413 -0.0124
vn -0.8022 0.5968 0.0180
vn -0.7967 0.6043 -0.0000
vn -0.7910 0.6116 -0.0180
vn -0.7968 0.6043 0.0000
vn 0.2876 0.9275 -0.2386
vn -0.6126 0.4647 0.6394
vn -0.5686 -0.5176 0.6393
vn -0.6301 -0.7758 -0.0351
vn -0.7544 -0.6392 -0.1496
vn 0.0000 1.0000 0.0000
vn -0.7431 0.6692 -0.0005
vn -0.7465 0.6654 -0.0005
vn -0.7430 0.6693 -0.0008
vn -0.7359 0.6771 0.0000
vn -0.7394 0.6732 0.0005
vn -0.7394 0.6732 0.0000
vn -1.0000 0.0000 -0.0013
vn -0.7395 0.6731 0.0000
vn -1.0000 0.0000 -0.0001
vn -0.7152 0.0000 -0.6989
vn -0.5967 0.5431 -0.5908
vn -0.5960 0.5425 -0.5920
vn -0.5919 0.5534 -0.5860
vn -0.6068 0.5294 -0.5929
vn -0.6097 0.5189 -0.5992
vn -0.6045 0.5305 -0.5942
vn -0.7152 0.0000 0.6989
vn -0.5967 0.5431 0.5908
vn -0.5919 0.5534 0.5860
vn -0.5961 0.5425 0.5919
vn -0.6097 0.5188 0.5993
vn -0.6068 0.5294 0.5929
vn -0.6045 0.5305 0.5942
vn -0.7106 0.0000 0.7036
vn -0.7430 -0.6693 -0.0005
vn -0.7428 -0.6695 -0.0010
vn -0.7969 0.6041 -0.0002
vn -0.7397 -0.6729 -0.0000
vn -0.7396 -0.6731 0.0000
vn -0.6574 0.4056 0.6350
vn -0.4446 0.7833 0.4345
usemtl Tex_0032_0.dds.007
s off
f 1/1/1 3/2/2 2/3/1
f 2/3/3 3/2/3 4/4/4
f 3/2/5 5/5/6 4/4/7
f 4/4/8 5/5/8 6/6/9
f 5/5/10 7/7/11 6/6/12
f 6/6/13 7/7/14 8/8/14
f 9/9/15 11/10/16 10/11/15
f 10/11/17 11/10/17 12/12/18
f 11/10/19 13/13/20 12/12/21
f 12/12/22 13/13/23 14/14/24
f 13/13/25 15/15/26 14/14/27
f 14/14/28 15/15/29 16/16/30
f 17/17/31 19/18/32 18/19/33
f 18/19/34 19/18/35 20/20/36
f 19/18/37 21/21/38 20/20/39
f 20/20/40 21/21/40 22/22/41
f 21/21/42 23/23/43 22/22/44
f 22/22/45 23/23/46 24/24/47
f 25/25/1 27/26/48 26/27/49
f 26/27/50 27/26/51 28/28/52
f 27/26/53 29/29/54 28/28/55
f 28/28/56 29/29/57 30/30/11
f 29/29/58 31/31/59 30/30/60
f 32/32/61 34/33/62 33/34/63
f 33/34/64 34/33/65 35/35/66
f 34/33/67 36/36/68 35/35/69
f 35/35/70 36/36/71 37/37/72
f 36/36/73 38/38/74 37/37/75
f 39/39/3 41/40/76 40/41/77
f 40/41/78 41/40/79 42/42/80
f 41/40/81 43/43/82 42/42/8
f 42/42/14 43/43/14 44/44/14
f 43/43/83 45/45/14 44/44/14
f 46/46/84 48/47/85 47/48/86
f 47/48/87 48/47/88 49/49/89
f 48/47/90 50/50/91 49/49/92
f 49/49/93 50/50/94 51/51/95
f 50/50/96 52/52/97 51/51/98
f 53/53/99 55/54/100 54/55/101
f 54/55/102 55/54/103 56/56/104
f 55/54/105 57/57/106 56/56/107
f 56/56/108 57/57/109 58/58/110
f 57/57/111 59/59/112 58/58/113
f 60/60/114 62/61/115 61/62/116
f 61/62/117 62/61/118 63/63/119
f 62/61/120 64/64/121 63/63/122
f 63/63/123 64/64/124 65/65/3
f 66/66/114 68/67/125 67/68/126
f 67/68/127 68/67/128 69/69/129
f 68/67/130 70/70/129 69/69/129
f 71/71/131 73/72/132 72/73/133
f 72/73/134 73/72/135 74/74/3
f 73/72/136 75/75/3 74/74/3
f 76/76/137 78/77/137 77/78/137
f 77/78/137 78/77/137 79/79/137
f 80/80/8 82/81/8 81/82/8
f 81/82/8 82/81/8 83/83/8
f 84/84/138 86/85/139 85/86/140
f 85/86/141 86/85/142 87/87/143
f 88/88/144 90/89/144 89/90/144
f 89/90/144 90/89/144 91/91/144
f 92/92/8 94/93/8 93/94/8
f 93/94/8 94/93/8 95/95/8
f 96/96/143 98/97/143 97/98/143
f 97/98/145 98/97/145 99/99/145
f 100/100/8 102/101/8 101/102/8
f 101/102/146 102/101/146 103/103/146
f 104/104/147 106/105/147 105/106/147
f 105/106/147 106/105/147 107/107/147
f 108/108/148 110/109/149 109/110/150
f 109/110/151 110/109/152 111/111/153
f 112/112/40 114/113/40 113/114/40
f 113/114/40 114/113/40 115/115/40
f 116/116/137 118/117/137 117/118/137
f 117/118/137 118/117/137 119/119/137
f 120/120/8 122/121/8 121/122/8
f 121/122/8 122/121/8 123/123/8
f 124/124/145 126/125/145 125/126/145
f 125/126/145 126/125/145 127/127/145
f 128/128/8 130/129/8 129/130/8
f 129/130/8 130/129/8 131/131/8
f 132/132/154 134/133/154 133/134/154
f 133/134/154 134/133/154 135/135/154
f 136/136/155 138/137/156 137/138/157
f 137/138/158 138/137/159 139/139/160
f 140/140/161 142/141/161 141/142/161
f 141/142/161 142/141/161 143/143/161
f 144/144/137 146/145/137 145/146/137
f 145/146/137 146/145/137 147/147/137
f 148/148/162 150/149/162 149/150/162
f 151/151/163 153/152/163 152/153/163
f 154/154/114 156/155/114 155/156/114
f 157/157/164 159/158/164 158/159/164
f 160/160/165 162/161/165 161/162/165
f 163/163/114 165/164/114 164/165/114
f 166/166/166 168/167/166 167/168/166
f 169/169/167 171/170/167 170/171/167
f 172/172/168 174/173/168 173/174/168
