# Blender v3.6.3 OBJ File: 'untitled.blend'
# www.blender.org
mtllib Mesh_0186.mtl
o Mesh_0186_Mesh.034
v -22.054903 14.763740 17.113190
v -21.926378 14.562649 17.113190
v -21.926378 14.562649 22.193192
v -21.798111 14.393307 17.113190
v -21.798111 14.393307 22.193192
v -21.926378 14.252210 17.113190
v -21.926378 14.252210 22.193192
v -21.798111 13.405552 17.113190
v -21.669584 13.546648 22.193192
v -21.669584 13.546648 17.113190
v -21.669584 13.687770 22.193192
v -21.669584 13.687770 17.113190
v -21.926378 13.828867 22.193192
v -21.926378 13.828867 17.113190
v -22.054903 14.763739 12.033195
v -21.926378 14.562648 12.033195
v -21.926378 14.562649 17.113190
v -21.798111 14.393306 12.033195
v -21.798111 14.393307 17.113190
v -21.926378 14.252209 12.033195
v -21.926378 14.252210 17.113190
v -21.798111 13.405551 12.033195
v -21.669584 13.546648 17.113190
v -21.669584 13.546647 12.033195
v -21.669584 13.687770 17.113190
v -21.669584 13.687769 12.033195
v -21.926378 13.828867 17.113190
v -21.926378 13.828866 12.033195
v -22.054903 14.763741 -22.256805
v -21.926378 14.562649 -22.256805
v -21.926378 14.562649 -17.176804
v -21.798111 14.393307 -22.256805
v -21.798111 14.393307 -17.176804
v -21.926378 14.252210 -22.256805
v -21.926378 14.252210 -17.176804
v -21.798111 13.405552 -22.256805
v -21.669584 13.546649 -17.176804
v -21.669584 13.546649 -22.256805
v -21.669584 13.687771 -17.176804
v -21.669584 13.687771 -22.256805
v -21.926378 13.828867 -17.176804
v -21.926378 13.828868 -22.256805
v -22.054903 14.763741 -27.336803
v -21.926378 14.562649 -27.336803
v -21.926378 14.562649 -22.256805
v -21.798111 14.393307 -27.336803
v -21.798111 14.393307 -22.256805
v -21.926378 14.252210 -27.336803
v -21.926378 14.252210 -22.256805
v -21.798111 13.405552 -27.336803
v -21.669584 13.546649 -22.256805
v -21.669584 13.546649 -27.336803
v -21.669584 13.687771 -22.256805
v -21.669584 13.687771 -27.336803
v -21.926378 13.828868 -22.256805
v -21.926378 13.828868 -27.336803
v -22.304585 14.763740 22.193192
v -22.304585 14.763740 17.113190
v -22.054903 14.763740 22.193192
v -22.054903 14.763740 17.113190
v -21.669584 12.699990 22.193192
v -21.669584 13.264428 22.193192
v -21.669584 12.699990 17.113190
v -21.669584 13.264429 17.113190
v -21.669584 13.264428 22.193192
v -21.798111 13.405551 22.193192
v -21.669584 13.264429 17.113190
v -21.798111 13.405552 17.113190
v -21.926378 13.828867 22.193192
v -21.926378 14.252210 22.193192
v -21.926378 13.828867 17.113190
v -21.926378 14.252210 17.113190
v -22.304585 14.763740 17.113190
v -22.304585 14.763739 12.033195
v -22.054903 14.763740 17.113190
v -22.054903 14.763739 12.033195
v -21.669584 12.699990 17.113190
v -21.669584 13.264429 17.113190
v -21.669584 12.699989 12.033195
v -21.669584 13.264428 12.033195
v -21.669584 13.264429 17.113190
v -21.798111 13.405552 17.113190
v -21.669584 13.264428 12.033195
v -21.798111 13.405551 12.033195
v -21.926378 13.828867 17.113190
v -21.926378 14.252210 17.113190
v -21.926378 13.828866 12.033195
v -21.926378 14.252209 12.033195
v -22.304585 14.763741 -17.176804
v -22.304585 14.763741 -22.256805
v -22.054903 14.763741 -17.176804
v -22.054903 14.763741 -22.256805
v -21.669584 12.699990 -17.176804
v -21.669584 13.264429 -17.176804
v -21.669584 12.699990 -22.256805
v -21.669584 13.264429 -22.256805
v -21.669584 13.264429 -17.176804
v -21.798111 13.405552 -17.176804
v -21.669584 13.264429 -22.256805
v -21.798111 13.405552 -22.256805
v -21.926378 13.828867 -17.176804
v -21.926378 14.252210 -17.176804
v -21.926378 13.828868 -22.256805
v -21.926378 14.252210 -22.256805
v -22.304585 14.763741 -22.256805
v -22.304585 14.763741 -27.336803
v -22.054903 14.763741 -22.256805
v -22.054903 14.763741 -27.336803
v -21.669584 12.699990 -22.256805
v -21.669584 13.264429 -22.256805
v -21.669584 12.699990 -27.336803
v -21.669584 13.264429 -27.336803
v -21.669584 13.264429 -22.256805
v -21.798111 13.405552 -22.256805
v -21.669584 13.264429 -27.336803
v -21.798111 13.405552 -27.336803
v -21.926378 13.828868 -22.256805
v -21.926378 14.252210 -22.256805
v -21.926378 13.828868 -27.336803
v -21.926378 14.252210 -27.336803
v -21.926378 14.562649 22.193192
v -22.054903 14.763740 22.193192
v -22.054903 14.763740 17.113190
v -21.669584 13.546648 22.193192
v -21.798111 13.405552 17.113190
v -21.798111 13.405551 22.193192
v -21.926378 14.562649 17.113190
v -22.054903 14.763740 17.113190
v -22.054903 14.763739 12.033195
v -21.669584 13.546648 17.113190
v -21.798111 13.405551 12.033195
v -21.798111 13.405552 17.113190
v -21.926378 14.562649 -17.176804
v -22.054903 14.763741 -17.176804
v -22.054903 14.763741 -22.256805
v -21.669584 13.546649 -17.176804
v -21.798111 13.405552 -22.256805
v -21.798111 13.405552 -17.176804
v -21.926378 14.562649 -22.256805
v -22.054903 14.763741 -22.256805
v -22.054903 14.763741 -27.336803
v -21.669584 13.546649 -22.256805
v -21.798111 13.405552 -27.336803
v -21.798111 13.405552 -22.256805
vt 2.496094 2.045898
vt 0.498047 1.830078
vt 2.496094 1.828125
vt 2.496094 1.655273
vt 0.498047 1.655273
vt 2.496094 1.794922
vt 0.498047 1.794922
vt 1.497070 -0.694336
vt 1.497070 -1.070312
vt -0.500977 -1.070312
vt -0.500977 -1.196289
vt 1.497070 -1.196289
vt -0.500977 -0.770508
vt 1.497070 -0.770508
vt 2.496094 2.045898
vt 0.498047 1.830078
vt 2.496094 1.828125
vt 2.496094 1.655273
vt 0.498047 1.655273
vt 2.496094 1.794922
vt 0.498047 1.794922
vt 1.497070 -0.694336
vt 1.497070 -1.070312
vt -0.500977 -1.070312
vt -0.500977 -1.196289
vt 1.497070 -1.196289
vt -0.500977 -0.770508
vt 1.497070 -0.770508
vt 2.496094 2.045898
vt 0.498047 1.830078
vt 2.496094 1.828125
vt 2.496094 1.655273
vt 0.498047 1.655273
vt 2.496094 1.794922
vt 0.498047 1.794922
vt 1.497070 -0.694336
vt 1.497070 -1.070312
vt -0.500977 -1.070312
vt -0.500977 -1.196289
vt 1.497070 -1.196289
vt -0.500977 -0.770508
vt 1.497070 -0.770508
vt 2.496094 2.045898
vt 0.498047 1.830078
vt 2.496094 1.828125
vt 2.496094 1.655273
vt 0.498047 1.655273
vt 2.496094 1.794922
vt 0.498047 1.794922
vt 1.497070 -0.694336
vt 1.497070 -1.070312
vt -0.500977 -1.070312
vt -0.500977 -1.196289
vt 1.497070 -1.196289
vt -0.500977 -0.770508
vt 1.497070 -0.770508
vt -0.500977 0.000000
vt -0.500977 -0.249023
vt 1.497070 0.000000
vt 1.497070 -0.249023
vt -0.500977 -1.603516
vt 1.497070 -1.603516
vt -0.500977 -2.003906
vt 1.497070 -2.003906
vt -0.500977 -2.003906
vt 1.497070 -2.003906
vt -0.500977 -2.352539
vt 1.497070 -2.352539
vt -0.500977 0.346680
vt 1.497070 0.346680
vt -0.500977 0.653320
vt 1.497070 0.653320
vt -0.500977 0.000000
vt -0.500977 -0.249023
vt 1.497070 0.000000
vt 1.497070 -0.249023
vt -0.500977 -1.603516
vt 1.497070 -1.603516
vt -0.500977 -2.003906
vt 1.497070 -2.003906
vt -0.500977 -2.003906
vt 1.497070 -2.003906
vt -0.500977 -2.352539
vt 1.497070 -2.352539
vt -0.500977 0.346680
vt 1.497070 0.346680
vt -0.500977 0.653320
vt 1.497070 0.653320
vt -0.500977 0.000000
vt -0.500977 -0.249023
vt 1.497070 0.000000
vt 1.497070 -0.249023
vt -0.500977 -1.603516
vt 1.497070 -1.603516
vt -0.500977 -2.003906
vt 1.497070 -2.003906
vt -0.500977 -2.003906
vt 1.497070 -2.003906
vt -0.500977 -2.352539
vt 1.497070 -2.352539
vt -0.500977 0.346680
vt 1.497070 0.346680
vt -0.500977 0.653320
vt 1.497070 0.653320
vt -0.500977 0.000000
vt -0.500977 -0.249023
vt 1.497070 0.000000
vt 1.497070 -0.249023
vt -0.500977 -1.603516
vt 1.497070 -1.603516
vt -0.500977 -2.003906
vt 1.497070 -2.003906
vt -0.500977 -2.003906
vt 1.497070 -2.003906
vt -0.500977 -2.352539
vt 1.497070 -2.352539
vt -0.500977 0.346680
vt 1.497070 0.346680
vt -0.500977 0.653320
vt 1.497070 0.653320
vt 0.498047 1.830078
vt 2.496094 2.045898
vt 0.498047 2.047852
vt -0.500977 -1.070312
vt -0.500977 -0.694336
vt 1.497070 -0.694336
vt 0.498047 1.830078
vt 2.496094 2.045898
vt 0.498047 2.047852
vt -0.500977 -1.070312
vt -0.500977 -0.694336
vt 1.497070 -0.694336
vt 0.498047 1.830078
vt 2.496094 2.045898
vt 0.498047 2.047852
vt -0.500977 -1.070312
vt -0.500977 -0.694336
vt 1.497070 -0.694336
vt 0.498047 1.830078
vt 2.496094 2.045898
vt 0.498047 2.047852
vt -0.500977 -1.070312
vt -0.500977 -0.694336
vt 1.497070 -0.694336
vn 0.8426 0.5385 0.0000
vn 0.8816 0.4720 -0.0036
vn 0.7971 0.6038 0.0000
vn 0.7972 0.6037 -0.0023
vn 0.6183 0.4684 0.6311
vn 0.7972 0.6038 0.0000
vn 0.7400 -0.6727 0.0000
vn 0.5808 -0.4952 0.6461
vn 0.7399 -0.6727 0.0000
vn 0.7393 -0.6734 0.0000
vn 0.7392 -0.6734 -0.0117
vn 0.1091 -0.9937 0.0248
vn 0.9999 0.0000 0.0158
vn 0.7471 0.6644 -0.0184
vn 0.8580 0.0142 0.5135
vn 1.0000 0.0000 0.0000
vn 0.8607 -0.0000 -0.5091
vn 0.4157 0.7567 0.5046
vn -0.0310 0.9991 -0.0294
vn 0.4816 0.8764 0.0000
vn 0.4402 0.7402 -0.5083
vn 0.8419 0.5381 0.0398
vn 0.7965 0.6033 0.0398
vn 0.7958 0.6056 -0.0001
vn 0.6293 0.4432 -0.6383
vn 0.6132 0.4645 0.6389
vn 0.2278 0.9733 -0.0267
vn 0.5692 -0.5175 -0.6389
vn 0.1398 -0.9899 0.0240
vn 0.5854 -0.4997 0.6384
vn 0.6894 -0.6280 -0.3611
vn 0.9325 0.3609 -0.0100
vn 0.8607 0.0141 0.5089
vn 0.9325 -0.0100 -0.3609
vn 0.8607 -0.5089 0.0141
vn 0.4144 0.7543 0.5091
vn 0.7957 0.6056 -0.0001
vn 0.6293 0.4433 -0.6383
vn 0.5854 -0.4998 0.6384
vn 0.4815 0.8764 0.0000
vn 0.0000 1.0000 0.0000
vn 0.7393 0.6733 0.0000
usemtl Tex_0032_0.dds.002
s off
f 1/1/1 3/2/2 2/3/1
f 2/3/3 3/2/3 4/4/3
f 3/2/4 5/5/5 4/4/6
f 4/4/7 5/5/7 6/6/7
f 5/5/8 7/7/9 6/6/9
f 8/8/10 10/9/11 9/10/12
f 9/10/13 10/9/14 11/11/15
f 10/9/16 12/12/17 11/11/16
f 11/11/18 12/12/19 13/13/20
f 12/12/21 14/14/20 13/13/20
f 15/15/1 17/16/2 16/17/22
f 16/17/23 17/16/24 18/18/25
f 17/16/4 19/19/26 18/18/27
f 18/18/28 19/19/29 20/20/9
f 19/19/30 21/21/9 20/20/9
f 22/22/10 24/23/31 23/24/12
f 23/24/13 24/23/32 25/25/33
f 24/23/34 26/26/17 25/25/35
f 25/25/36 26/26/19 27/27/20
f 26/26/21 28/28/20 27/27/20
f 29/29/1 31/30/2 30/31/22
f 30/31/23 31/30/37 32/32/38
f 31/30/4 33/33/26 32/32/27
f 32/32/28 33/33/29 34/34/7
f 33/33/39 35/35/9 34/34/9
f 36/36/10 38/37/31 37/38/12
f 37/38/13 38/37/32 39/39/33
f 38/37/34 40/40/17 39/39/35
f 39/39/36 40/40/19 41/41/40
f 40/40/21 42/42/20 41/41/20
f 43/43/1 45/44/2 44/45/1
f 44/45/3 45/44/3 46/46/25
f 45/44/4 47/47/26 46/46/27
f 46/46/28 47/47/29 48/48/9
f 47/47/30 49/49/9 48/48/9
f 50/50/10 52/51/31 51/52/12
f 51/52/13 52/51/32 53/53/33
f 52/51/34 54/54/17 53/53/35
f 53/53/36 54/54/19 55/55/20
f 54/54/21 56/56/20 55/55/20
f 57/57/41 59/58/41 58/59/41
f 58/59/41 59/58/41 60/60/41
f 61/61/16 63/62/16 62/63/16
f 62/63/16 63/62/16 64/64/16
f 65/65/42 67/66/42 66/67/42
f 66/67/42 67/66/42 68/68/42
f 69/69/16 71/70/16 70/71/16
f 70/71/16 71/70/16 72/72/16
f 73/73/41 75/74/41 74/75/41
f 74/75/41 75/74/41 76/76/41
f 77/77/16 79/78/16 78/79/16
f 78/79/16 79/78/16 80/80/16
f 81/81/42 83/82/42 82/83/42
f 82/83/42 83/82/42 84/84/42
f 85/85/16 87/86/16 86/87/16
f 86/87/16 87/86/16 88/88/16
f 89/89/41 91/90/41 90/91/41
f 90/91/41 91/90/41 92/92/41
f 93/93/16 95/94/16 94/95/16
f 94/95/16 95/94/16 96/96/16
f 97/97/42 99/98/42 98/99/42
f 98/99/42 99/98/42 100/100/42
f 101/101/16 103/102/16 102/103/16
f 102/103/16 103/102/16 104/104/16
f 105/105/41 107/106/41 106/107/41
f 106/107/41 107/106/41 108/108/41
f 109/109/16 111/110/16 110/111/16
f 110/111/16 111/110/16 112/112/16
f 113/113/42 115/114/42 114/115/42
f 114/115/42 115/114/42 116/116/42
f 117/117/16 119/118/16 118/119/16
f 118/119/16 119/118/16 120/120/16
f 121/121/1 123/122/1 122/123/1
f 124/124/10 126/125/10 125/126/10
f 127/127/1 129/128/1 128/129/1
f 130/130/10 132/131/10 131/132/10
f 133/133/1 135/134/1 134/135/1
f 136/136/10 138/137/10 137/138/10
f 139/139/1 141/140/1 140/141/1
f 142/142/10 144/143/10 143/144/10
