# Blender v3.6.3 OBJ File: 'untitled.blend'
# www.blender.org
mtllib Mesh_0258.mtl
o Mesh_0258_Mesh.068
v -7.539850 14.444997 -17.653057
v -7.857349 14.444997 -17.970554
v -7.698601 14.286247 -17.494305
v -8.016100 14.286247 -17.811806
v -7.857349 14.444997 -17.970554
v -8.651100 14.444997 -17.970554
v -8.016100 14.286247 -17.811806
v -8.651100 14.286247 -17.811806
v -8.651100 14.444997 -17.970554
v -7.857349 14.444997 -17.970554
v -8.651100 14.603747 -17.811806
v -8.016100 14.603747 -17.811806
v -8.016100 14.603747 -17.811806
v -7.857349 14.603748 -17.335556
v -8.016100 19.366245 -17.811806
v -7.857349 19.366245 -17.335556
v -7.857349 28.891243 -17.335556
v -8.016100 28.891243 -17.811806
v -7.857349 24.128744 -17.335556
v -8.016100 24.128744 -17.811806
v -7.381100 33.971245 -17.811806
v -7.839865 33.971245 -18.129307
v -7.619225 33.653744 -17.573681
v -8.016100 33.653744 -17.811806
v -7.839865 33.971245 -18.129307
v -8.651100 33.971245 -18.129307
v -8.016100 33.653744 -17.811806
v -8.651100 33.653744 -17.811806
v -7.381100 33.971245 -17.811806
v -7.698601 34.288742 -17.494305
v -7.839865 33.971245 -18.129307
v -8.016100 34.288742 -17.811806
v -7.839865 33.971245 -18.129307
v -8.016100 34.288742 -17.811806
v -8.651100 33.971245 -18.129307
v -8.651100 34.288742 -17.811806
v -7.063601 34.923744 -18.129307
v -7.063601 35.241245 -18.764305
v -8.651100 34.923744 -18.129307
v -8.651100 35.241245 -18.764305
v -8.016100 34.288742 -17.811806
v -7.698601 34.288742 -17.494305
v -7.063601 34.923744 -18.129307
v -7.381100 34.288742 -17.173798
v -8.651100 34.923744 -18.129307
v -8.651100 34.288742 -17.811806
v -7.063601 34.923744 -18.129307
v -8.016100 34.288742 -17.811806
v -7.381100 33.971245 -17.811806
v -7.063601 33.971245 -17.243622
v -7.698601 34.288742 -17.494305
v -7.381100 34.288742 -17.173798
v -7.381100 33.971245 -17.811806
v -7.619225 33.653744 -17.573681
v -7.063601 33.971245 -17.243622
v -7.381100 33.653744 -17.173798
v -7.381100 28.891243 -17.173798
v -7.857349 28.891243 -17.335556
v -7.381100 24.128744 -17.173798
v -7.857349 24.128744 -17.335556
v -7.857349 14.603748 -17.335556
v -7.381100 14.603748 -17.173798
v -7.857349 19.366245 -17.335556
v -7.381100 19.366245 -17.173798
v -7.539850 14.444997 -17.653057
v -7.698601 14.286247 -17.494305
v -7.222351 14.444998 -17.176804
v -7.381100 14.286248 -17.173798
v -7.222351 14.444998 -16.859306
v -7.222351 14.444998 -17.176804
v -7.381100 14.286248 -16.859306
v -7.381100 14.286248 -17.173798
v -7.222351 14.444998 -16.859306
v -7.381100 14.603748 -16.859306
v -7.222351 14.444998 -17.176804
v -7.381100 14.603748 -17.173798
v -7.063601 33.971245 -17.243622
v -7.381100 33.653744 -17.173798
v -7.063601 33.971245 -16.859306
v -7.381100 33.653744 -16.859306
v -7.063601 33.971245 -16.859306
v -7.381100 34.288742 -16.859306
v -7.063601 33.971245 -17.243622
v -7.381100 34.288742 -17.173798
v -7.381100 34.288742 -16.859306
v -7.063601 34.923744 -16.859306
v -7.381100 34.288742 -17.173798
v -7.063601 34.923744 -18.129307
v -6.428600 35.241245 -16.859306
v -6.428600 35.241245 -18.129307
v -7.063601 34.923744 -16.859306
v -7.063601 34.923744 -18.129307
v -7.857349 19.366245 -17.335556
v -7.857349 24.128744 -17.335556
v -8.016100 19.366245 -17.811806
v -8.016100 24.128744 -17.811806
v -7.381100 19.366245 -17.173798
v -7.381100 24.128744 -17.173798
v -7.857349 19.366245 -17.335556
v -7.857349 24.128744 -17.335556
v -7.857349 28.891243 -17.335556
v -7.857349 33.653744 -17.335556
v -8.016100 28.891243 -17.811806
v -8.016100 33.653744 -17.811806
v -7.381100 28.891243 -17.173798
v -7.381100 33.653744 -17.173798
v -7.857349 28.891243 -17.335556
v -7.857349 33.653744 -17.335556
v -7.539850 14.444997 -17.653057
v -7.222351 14.444998 -17.176804
v -7.698601 14.603747 -17.494305
v -7.381100 14.603748 -17.173798
v -7.698601 14.603747 -17.494305
v -8.016100 14.603747 -17.811806
v -7.539850 14.444997 -17.653057
v -7.857349 14.444997 -17.970554
v -7.539850 14.444998 -15.748055
v -7.222351 14.444998 -16.065556
v -7.698601 14.286248 -15.906807
v -7.381100 14.286248 -16.224304
v -7.222351 14.444998 -16.065556
v -7.222351 14.444998 -16.859306
v -7.381100 14.286248 -16.224304
v -7.381100 14.286248 -16.859306
v -7.222351 14.444998 -16.859306
v -7.222351 14.444998 -16.065556
v -7.381100 14.603748 -16.859306
v -7.381100 14.603748 -16.224304
v -7.381100 14.603748 -16.224304
v -7.857349 14.603748 -16.065556
v -7.381100 19.366243 -16.224304
v -7.857349 19.366243 -16.065556
v -7.857349 28.891241 -16.065556
v -7.381100 28.891241 -16.224304
v -7.857349 24.128742 -16.065556
v -7.381100 24.128742 -16.224304
v -7.381100 33.971245 -15.589306
v -7.063601 33.971245 -16.048069
v -7.619225 33.653744 -15.827431
v -7.381100 33.653744 -16.224304
v -7.063601 33.971245 -16.048069
v -7.063601 33.971245 -16.859306
v -7.381100 33.653744 -16.224304
v -7.381100 33.653744 -16.859306
v -7.381100 33.971245 -15.589306
v -7.698601 34.288742 -15.906807
v -7.063601 33.971245 -16.048069
v -7.381100 34.288742 -16.224304
v -7.063601 33.971245 -16.048069
v -7.381100 34.288742 -16.224304
v -7.063601 33.971245 -16.859306
v -7.381100 34.288742 -16.859306
v -7.063601 34.923744 -15.271805
v -6.428600 35.241245 -15.271805
v -7.063601 34.923744 -16.859306
v -6.428600 35.241245 -16.859306
v -7.381100 34.288742 -16.224304
v -7.698601 34.288742 -15.906807
v -7.063601 34.923744 -15.271805
v -8.019104 34.288742 -15.589306
v -7.063601 34.923744 -16.859306
v -7.381100 34.288742 -16.859306
v -7.063601 34.923744 -15.271805
v -7.381100 34.288742 -16.224304
v -7.381100 33.971245 -15.589306
v -7.949282 33.971245 -15.271805
v -7.698601 34.288742 -15.906807
v -8.019104 34.288742 -15.589306
v -7.381100 33.971245 -15.589306
v -7.619225 33.653744 -15.827431
v -7.949282 33.971245 -15.271805
v -8.019104 33.653744 -15.589306
v -8.019104 28.891241 -15.589306
v -7.857349 28.891241 -16.065556
v -8.019104 24.128742 -15.589306
v -7.857349 24.128742 -16.065556
v -7.857349 14.603748 -16.065556
v -8.019104 14.603748 -15.589306
v -7.857349 19.366243 -16.065556
v -8.019104 19.366243 -15.589306
v -7.539850 14.444998 -15.748055
v -7.698601 14.286248 -15.906807
v -8.016100 14.444998 -15.430557
v -8.019104 14.286248 -15.589306
v -8.333601 14.444998 -15.430557
v -8.016100 14.444998 -15.430557
v -8.333601 14.286248 -15.589306
v -8.019104 14.286248 -15.589306
v -8.333601 14.444998 -15.430557
v -8.333601 14.603748 -15.589306
v -8.016100 14.444998 -15.430557
v -8.019104 14.603748 -15.589306
v -7.949282 33.971245 -15.271805
v -8.019104 33.653744 -15.589306
v -8.333601 33.971245 -15.271805
v -8.333601 33.653744 -15.589306
v -8.333601 33.971245 -15.271805
v -8.333601 34.288742 -15.589306
v -7.949282 33.971245 -15.271805
v -8.019104 34.288742 -15.589306
v -8.333601 34.288742 -15.589306
v -8.333601 34.923744 -15.271805
v -8.019104 34.288742 -15.589306
v -7.063601 34.923744 -15.271805
v -8.333601 35.241245 -14.636806
v -7.063599 35.241245 -14.636806
v -8.333601 34.923744 -15.271805
v -7.063601 34.923744 -15.271805
v -7.857349 19.366243 -16.065556
v -7.857349 24.128742 -16.065556
v -7.381100 19.366243 -16.224304
v -7.381100 24.128742 -16.224304
v -8.019104 19.366243 -15.589306
v -8.019104 24.128742 -15.589306
v -7.857349 19.366243 -16.065556
v -7.857349 24.128742 -16.065556
v -7.857349 28.891241 -16.065556
v -7.857349 33.653744 -16.065556
v -7.381100 28.891241 -16.224304
v -7.381100 33.653744 -16.224304
v -8.019104 28.891241 -15.589306
v -8.019104 33.653744 -15.589306
v -7.857349 28.891241 -16.065556
v -7.857349 33.653744 -16.065556
v -7.539850 14.444998 -15.748055
v -8.016100 14.444998 -15.430557
v -7.698601 14.603748 -15.906807
v -8.019104 14.603748 -15.589306
v -7.698601 14.603748 -15.906807
v -7.381100 14.603748 -16.224304
v -7.539850 14.444998 -15.748055
v -7.222351 14.444998 -16.065556
v -9.444851 14.444997 -17.653057
v -9.762350 14.444998 -17.335556
v -9.286100 14.286247 -17.494305
v -9.603600 14.286248 -17.176804
v -9.762350 14.444998 -17.335556
v -9.762350 14.444998 -16.541805
v -9.603600 14.286248 -17.176804
v -9.603600 14.286248 -16.541805
v -9.762350 14.444998 -16.541805
v -9.762350 14.444998 -17.335556
v -9.603600 14.603748 -16.541805
v -9.603600 14.603748 -17.176804
v -9.603600 14.603748 -17.176804
v -9.127350 14.603748 -17.335556
v -9.603600 19.366245 -17.176804
v -9.127350 19.366245 -17.335556
v -9.127350 28.891243 -17.335556
v -9.603600 28.891243 -17.176804
v -9.127350 24.128744 -17.335556
v -9.603600 24.128744 -17.176804
v -9.603600 33.971245 -17.811806
v -9.921101 33.971245 -17.353043
v -9.365475 33.653744 -17.573681
v -9.603600 33.653744 -17.176804
v -9.921101 33.971245 -17.353043
v -9.921101 33.971245 -16.541805
v -9.603600 33.653744 -17.176804
v -9.603600 33.653744 -16.541805
v -9.603600 33.971245 -17.811806
v -9.286100 34.288742 -17.494305
v -9.921101 33.971245 -17.353043
v -9.603600 34.288742 -17.176804
v -9.921101 33.971245 -17.353043
v -9.603600 34.288742 -17.176804
v -9.921101 33.971245 -16.541805
v -9.603600 34.288742 -16.541805
v -9.921101 34.923744 -18.129307
v -10.556101 35.241245 -18.129307
v -9.921101 34.923744 -16.541805
v -10.556101 35.241245 -16.541805
v -9.603600 34.288742 -17.176804
v -9.286100 34.288742 -17.494305
v -9.921101 34.923744 -18.129307
v -8.965595 34.288742 -17.811806
v -9.921101 34.923744 -16.541805
v -9.603600 34.288742 -16.541805
v -9.921101 34.923744 -18.129307
v -9.603600 34.288742 -17.176804
v -9.603600 33.971245 -17.811806
v -9.035419 33.971245 -18.129307
v -9.286100 34.288742 -17.494305
v -8.965595 34.288742 -17.811806
v -9.603600 33.971245 -17.811806
v -9.365475 33.653744 -17.573681
v -9.035419 33.971245 -18.129307
v -8.965595 33.653744 -17.811806
v -8.965595 28.891243 -17.811806
v -9.127350 28.891243 -17.335556
v -8.965595 24.128744 -17.811806
v -9.127350 24.128744 -17.335556
v -9.127350 14.603748 -17.335556
v -8.965595 14.603747 -17.811806
v -9.127350 19.366245 -17.335556
v -8.965595 19.366245 -17.811806
v -9.444851 14.444997 -17.653057
v -9.286100 14.286247 -17.494305
v -8.968599 14.444997 -17.970554
v -8.965595 14.286247 -17.811806
v -8.651100 14.444997 -17.970554
v -8.968599 14.444997 -17.970554
v -8.651100 14.286247 -17.811806
v -8.965595 14.286247 -17.811806
v -8.651100 14.444997 -17.970554
v -8.651100 14.603747 -17.811806
v -8.968599 14.444997 -17.970554
v -8.965595 14.603747 -17.811806
v -9.035419 33.971245 -18.129307
v -8.965595 33.653744 -17.811806
v -8.651100 33.971245 -18.129307
v -8.651100 33.653744 -17.811806
v -8.651100 33.971245 -18.129307
v -8.651100 34.288742 -17.811806
v -9.035419 33.971245 -18.129307
v -8.965595 34.288742 -17.811806
v -8.651100 34.288742 -17.811806
v -8.651100 34.923744 -18.129307
v -8.965595 34.288742 -17.811806
v -9.921101 34.923744 -18.129307
v -8.651100 35.241245 -18.764305
v -9.921104 35.241245 -18.764305
v -8.651100 34.923744 -18.129307
v -9.921101 34.923744 -18.129307
v -9.127350 19.366245 -17.335556
v -9.127350 24.128744 -17.335556
v -9.603600 19.366245 -17.176804
v -9.603600 24.128744 -17.176804
v -8.965595 19.366245 -17.811806
v -8.965595 24.128744 -17.811806
v -9.127350 19.366245 -17.335556
v -9.127350 24.128744 -17.335556
v -9.127350 28.891243 -17.335556
v -9.127350 33.653744 -17.335556
v -9.603600 28.891243 -17.176804
v -9.603600 33.653744 -17.176804
v -8.965595 28.891243 -17.811806
v -8.965595 33.653744 -17.811806
v -9.127350 28.891243 -17.335556
v -9.127350 33.653744 -17.335556
v -9.444851 14.444997 -17.653057
v -8.968599 14.444997 -17.970554
v -9.286100 14.603747 -17.494305
v -8.965595 14.603747 -17.811806
v -9.286100 14.603747 -17.494305
v -9.603600 14.603748 -17.176804
v -9.444851 14.444997 -17.653057
v -9.762350 14.444998 -17.335556
v -9.444851 14.444998 -15.748055
v -9.127350 14.444998 -15.430557
v -9.286100 14.286248 -15.906807
v -8.968599 14.286248 -15.589306
v -9.127350 14.444998 -15.430557
v -8.333601 14.444998 -15.430557
v -8.968599 14.286248 -15.589306
v -8.333601 14.286248 -15.589306
v -8.333601 14.444998 -15.430557
v -9.127350 14.444998 -15.430557
v -8.333601 14.603748 -15.589306
v -8.968599 14.603748 -15.589306
v -8.968599 14.603748 -15.589306
v -9.127350 14.603748 -16.065556
v -8.968599 19.366243 -15.589306
v -9.127350 19.366243 -16.065556
v -9.127350 28.891241 -16.065556
v -8.968599 28.891241 -15.589306
v -9.127350 24.128742 -16.065556
v -8.968599 24.128742 -15.589306
v -9.603600 33.971245 -15.589306
v -9.144838 33.971245 -15.271805
v -9.365475 33.653744 -15.827431
v -8.968599 33.653744 -15.589306
v -9.144838 33.971245 -15.271805
v -8.333601 33.971245 -15.271805
v -8.968599 33.653744 -15.589306
v -8.333601 33.653744 -15.589306
v -9.603600 33.971245 -15.589306
v -9.286100 34.288742 -15.906807
v -9.144838 33.971245 -15.271805
v -8.968599 34.288742 -15.589306
v -9.144838 33.971245 -15.271805
v -8.968599 34.288742 -15.589306
v -8.333601 33.971245 -15.271805
v -8.333601 34.288742 -15.589306
v -9.921101 34.923744 -15.271805
v -9.921101 35.241245 -14.636806
v -8.333601 34.923744 -15.271805
v -8.333601 35.241245 -14.636806
v -8.333601 34.923744 -15.271805
v -8.333601 34.288742 -15.589306
v -9.921101 34.923744 -15.271805
v -8.968599 34.288742 -15.589306
v -9.603600 33.971245 -15.589306
v -9.921101 33.971245 -16.157486
v -9.286100 34.288742 -15.906807
v -9.603600 34.288742 -16.227314
v -9.603600 33.971245 -15.589306
v -9.365475 33.653744 -15.827431
v -9.921101 33.971245 -16.157486
v -9.603600 33.653744 -16.227314
v -9.603600 28.891241 -16.227314
v -9.127350 28.891241 -16.065556
v -9.603600 24.128742 -16.227314
v -9.127350 24.128742 -16.065556
v -9.127350 14.603748 -16.065556
v -9.603600 14.603748 -16.227314
v -9.127350 19.366243 -16.065556
v -9.603600 19.366243 -16.227314
v -9.444851 14.444998 -15.748055
v -9.286100 14.286248 -15.906807
v -9.762350 14.444998 -16.224304
v -9.603600 14.286248 -16.227314
v -9.762350 14.444998 -16.541805
v -9.762350 14.444998 -16.224304
v -9.603600 14.286248 -16.541805
v -9.603600 14.286248 -16.227314
v -9.762350 14.444998 -16.541805
v -9.603600 14.603748 -16.541805
v -9.762350 14.444998 -16.224304
v -9.603600 14.603748 -16.227314
v -9.921101 33.971245 -16.157486
v -9.603600 33.653744 -16.227314
v -9.921101 33.971245 -16.541805
v -9.603600 33.653744 -16.541805
v -9.921101 33.971245 -16.541805
v -9.603600 34.288742 -16.541805
v -9.921101 33.971245 -16.157486
v -9.603600 34.288742 -16.227314
v -9.603600 34.288742 -16.541805
v -9.921101 34.923744 -16.541805
v -9.603600 34.288742 -16.227314
v -9.921101 34.923744 -15.271805
v -10.556101 35.241245 -16.541805
v -10.556101 35.241245 -15.271805
v -9.921101 34.923744 -16.541805
v -9.921101 34.923744 -15.271805
v -9.127350 19.366243 -16.065556
v -9.127350 24.128742 -16.065556
v -8.968599 19.366243 -15.589306
v -8.968599 24.128742 -15.589306
v -9.603600 19.366243 -16.227314
v -9.603600 24.128742 -16.227314
v -9.127350 19.366243 -16.065556
v -9.127350 24.128742 -16.065556
v -9.127350 28.891241 -16.065556
v -9.127350 33.653744 -16.065556
v -8.968599 28.891241 -15.589306
v -8.968599 33.653744 -15.589306
v -9.603600 28.891241 -16.227314
v -9.603600 33.653744 -16.227314
v -9.127350 28.891241 -16.065556
v -9.127350 33.653744 -16.065556
v -9.444851 14.444998 -15.748055
v -9.762350 14.444998 -16.224304
v -9.286100 14.603748 -15.906807
v -9.603600 14.603748 -16.227314
v -9.286100 14.603748 -15.906807
v -8.968599 14.603748 -15.589306
v -9.444851 14.444998 -15.748055
v -9.127350 14.444998 -15.430557
v -7.545395 14.444998 10.601341
v -7.862894 14.444998 10.283836
v -7.704145 14.286248 10.760086
v -8.021645 14.286248 10.442589
v -7.862894 14.444998 10.283836
v -8.656645 14.444998 10.283836
v -8.021645 14.286248 10.442589
v -8.656645 14.286248 10.442589
v -8.656645 14.444998 10.283836
v -7.862894 14.444998 10.283836
v -8.656645 14.603747 10.442589
v -8.021645 14.603747 10.442589
v -8.021645 14.603747 10.442589
v -7.862894 14.603747 10.918839
v -8.021645 19.366243 10.442589
v -7.862894 19.366243 10.918839
v -7.862894 28.891239 10.918839
v -8.021645 28.891239 10.442589
v -7.862894 24.128742 10.918839
v -8.021645 24.128742 10.442589
v -7.386644 33.971245 10.442589
v -7.845406 33.971245 10.125092
v -7.624769 33.653744 10.680717
v -8.021645 33.653744 10.442589
v -7.845406 33.971245 10.125092
v -8.656645 33.971245 10.125092
v -8.021645 33.653744 10.442589
v -8.656645 33.653744 10.442589
v -7.386644 33.971245 10.442589
v -7.704145 34.288742 10.760086
v -7.845406 33.971245 10.125092
v -8.021645 34.288742 10.442589
v -7.845406 33.971245 10.125092
v -8.021645 34.288742 10.442589
v -8.656645 33.971245 10.125092
v -8.656645 34.288742 10.442589
v -7.069145 34.923744 10.125092
v -7.069145 35.241245 9.490089
v -8.656645 34.923744 10.125092
v -8.656645 35.241245 9.490089
v -8.021645 34.288742 10.442589
v -7.704145 34.288742 10.760086
v -7.069145 34.923744 10.125092
v -7.386644 34.288742 11.080597
v -8.656645 34.923744 10.125092
v -8.656645 34.288742 10.442589
v -7.069145 34.923744 10.125092
v -8.021645 34.288742 10.442589
v -7.386644 33.971245 10.442589
v -7.069145 33.971245 11.010773
v -7.704145 34.288742 10.760086
v -7.386644 34.288742 11.080597
v -7.386644 33.971245 10.442589
v -7.624769 33.653744 10.680717
v -7.069145 33.971245 11.010773
v -7.386644 33.653744 11.080597
v -7.386644 28.891241 11.080597
v -7.862894 28.891239 10.918839
v -7.386644 24.128744 11.080597
v -7.862894 24.128742 10.918839
v -7.862894 14.603747 10.918839
v -7.386644 14.603746 11.080597
v -7.862894 19.366243 10.918839
v -7.386644 19.366245 11.080597
v -7.545395 14.444998 10.601341
v -7.704145 14.286248 10.760086
v -7.227894 14.444997 11.077591
v -7.386644 14.286247 11.080597
v -7.227894 14.444997 11.395088
v -7.227894 14.444997 11.077591
v -7.386644 14.286247 11.395088
v -7.386644 14.286247 11.080597
v -7.227894 14.444997 11.395088
v -7.386644 14.603746 11.395088
v -7.227894 14.444997 11.077591
v -7.386644 14.603746 11.080597
v -7.069145 33.971245 11.010773
v -7.386644 33.653744 11.080597
v -7.069145 33.971245 11.395088
v -7.386644 33.653744 11.395088
v -7.069145 33.971245 11.395088
v -7.386644 34.288742 11.395088
v -7.069145 33.971245 11.010773
v -7.386644 34.288742 11.080597
v -7.386644 34.288742 11.395088
v -7.069145 34.923744 11.395088
v -7.386644 34.288742 11.080597
v -7.069145 34.923744 10.125092
v -6.434145 35.241245 11.395088
v -6.434145 35.241245 10.125092
v -7.069145 34.923744 11.395088
v -7.069145 34.923744 10.125092
v -7.862894 19.366243 10.918839
v -7.862894 24.128742 10.918839
v -8.021645 19.366243 10.442589
v -8.021645 24.128742 10.442589
v -7.386644 19.366245 11.080597
v -7.386644 24.128744 11.080597
v -7.862894 19.366243 10.918839
v -7.862894 24.128742 10.918839
v -7.862894 28.891239 10.918839
v -7.862894 33.653744 10.918839
v -8.021645 28.891239 10.442589
v -8.021645 33.653744 10.442589
v -7.386644 28.891241 11.080597
v -7.386644 33.653744 11.080597
v -7.862894 28.891239 10.918839
v -7.862894 33.653744 10.918839
v -7.545395 14.444998 10.601341
v -7.227894 14.444997 11.077591
v -7.704145 14.603747 10.760086
v -7.386644 14.603746 11.080597
v -7.704145 14.603747 10.760086
v -8.021645 14.603747 10.442589
v -7.545395 14.444998 10.601341
v -7.862894 14.444998 10.283836
v -7.545395 14.444997 12.506340
v -7.227894 14.444997 12.188843
v -7.704145 14.286247 12.347588
v -7.386644 14.286247 12.030090
v -7.227894 14.444997 12.188843
v -7.227894 14.444997 11.395088
v -7.386644 14.286247 12.030090
v -7.386644 14.286247 11.395088
v -7.227894 14.444997 11.395088
v -7.227894 14.444997 12.188843
v -7.386644 14.603746 11.395088
v -7.386644 14.603746 12.030090
v -7.386644 14.603746 12.030090
v -7.862894 14.603746 12.188843
v -7.386644 19.366245 12.030090
v -7.862894 19.366245 12.188843
v -7.862894 28.891241 12.188843
v -7.386644 28.891241 12.030090
v -7.862894 24.128744 12.188843
v -7.386644 24.128744 12.030090
v -7.386644 33.971245 12.665092
v -7.069145 33.971245 12.206329
v -7.624769 33.653744 12.426964
v -7.386644 33.653744 12.030090
v -7.069145 33.971245 12.206329
v -7.069145 33.971245 11.395088
v -7.386644 33.653744 12.030090
v -7.386644 33.653744 11.395088
v -7.386644 33.971245 12.665092
v -7.704145 34.288742 12.347588
v -7.069145 33.971245 12.206329
v -7.386644 34.288742 12.030090
v -7.069145 33.971245 12.206329
v -7.386644 34.288742 12.030090
v -7.069145 33.971245 11.395088
v -7.386644 34.288742 11.395088
v -7.069145 34.923744 12.982590
v -6.434145 35.241245 12.982590
v -7.069145 34.923744 11.395088
v -6.434145 35.241245 11.395088
v -7.386644 34.288742 12.030090
v -7.704145 34.288742 12.347588
v -7.069145 34.923744 12.982590
v -8.024649 34.288742 12.665092
v -7.069145 34.923744 11.395088
v -7.386644 34.288742 11.395088
v -7.069145 34.923744 12.982590
v -7.386644 34.288742 12.030090
v -7.386644 33.971245 12.665092
v -7.954824 33.971245 12.982590
v -7.704145 34.288742 12.347588
v -8.024649 34.288742 12.665092
v -7.386644 33.971245 12.665092
v -7.624769 33.653744 12.426964
v -7.954824 33.971245 12.982590
v -8.024649 33.653744 12.665092
v -8.024649 28.891241 12.665092
v -7.862894 28.891241 12.188843
v -8.024649 24.128744 12.665092
v -7.862894 24.128744 12.188843
v -7.862894 14.603746 12.188843
v -8.024649 14.603746 12.665092
v -7.862894 19.366245 12.188843
v -8.024649 19.366245 12.665092
v -7.545395 14.444997 12.506340
v -7.704145 14.286247 12.347588
v -8.021645 14.444997 12.823837
v -8.024649 14.286247 12.665092
v -8.339144 14.444997 12.823837
v -8.021645 14.444997 12.823837
v -8.339144 14.286247 12.665092
v -8.024649 14.286247 12.665092
v -8.339144 14.444997 12.823837
v -8.339144 14.603746 12.665092
v -8.021645 14.444997 12.823837
v -8.024649 14.603746 12.665092
v -7.954824 33.971245 12.982590
v -8.024649 33.653744 12.665092
v -8.339144 33.971245 12.982590
v -8.339144 33.653744 12.665092
v -8.339144 33.971245 12.982590
v -8.339144 34.288742 12.665092
v -7.954824 33.971245 12.982590
v -8.024649 34.288742 12.665092
v -8.339144 34.288742 12.665092
v -8.339144 34.923744 12.982590
v -8.024649 34.288742 12.665092
v -7.069145 34.923744 12.982590
v -8.339144 35.241245 13.617592
v -7.069141 35.241245 13.617592
v -8.339144 34.923744 12.982590
v -7.069145 34.923744 12.982590
v -7.862894 19.366245 12.188843
v -7.862894 24.128744 12.188843
v -7.386644 19.366245 12.030090
v -7.386644 24.128744 12.030090
v -8.024649 19.366245 12.665092
v -8.024649 24.128744 12.665092
v -7.862894 19.366245 12.188843
v -7.862894 24.128744 12.188843
v -7.862894 28.891241 12.188843
v -7.862894 33.653744 12.188843
v -7.386644 28.891241 12.030090
v -7.386644 33.653744 12.030090
v -8.024649 28.891241 12.665092
v -8.024649 33.653744 12.665092
v -7.862894 28.891241 12.188843
v -7.862894 33.653744 12.188843
v -7.545395 14.444997 12.506340
v -8.021645 14.444997 12.823837
v -7.704145 14.603746 12.347588
v -8.024649 14.603746 12.665092
v -7.704145 14.603746 12.347588
v -7.386644 14.603746 12.030090
v -7.545395 14.444997 12.506340
v -7.227894 14.444997 12.188843
v -9.450394 14.444998 10.601341
v -9.767895 14.444998 10.918839
v -9.291645 14.286248 10.760086
v -9.609144 14.286247 11.077591
v -9.767895 14.444998 10.918839
v -9.767895 14.444997 11.712585
v -9.609144 14.286247 11.077591
v -9.609144 14.286247 11.712585
v -9.767895 14.444997 11.712585
v -9.767895 14.444998 10.918839
v -9.609144 14.603746 11.712585
v -9.609144 14.603746 11.077591
v -9.609144 14.603746 11.077591
v -9.132895 14.603747 10.918839
v -9.609144 19.366245 11.077591
v -9.132895 19.366243 10.918839
v -9.132895 28.891239 10.918839
v -9.609144 28.891241 11.077591
v -9.132895 24.128742 10.918839
v -9.609144 24.128744 11.077591
v -9.609144 33.971245 10.442589
v -9.926645 33.971245 10.901344
v -9.371019 33.653744 10.680717
v -9.609144 33.653744 11.077591
v -9.926645 33.971245 10.901344
v -9.926645 33.971245 11.712593
v -9.609144 33.653744 11.077591
v -9.609144 33.653744 11.712593
v -9.609144 33.971245 10.442589
v -9.291645 34.288742 10.760086
v -9.926645 33.971245 10.901344
v -9.609144 34.288742 11.077591
v -9.926645 33.971245 10.901344
v -9.609144 34.288742 11.077591
v -9.926645 33.971245 11.712593
v -9.609144 34.288742 11.712593
v -9.926645 34.923744 10.125092
v -10.561644 35.241245 10.125092
v -9.926645 34.923744 11.712593
v -10.561644 35.241245 11.712593
v -9.609144 34.288742 11.077591
v -9.291645 34.288742 10.760086
v -9.926645 34.923744 10.125092
v -8.971140 34.288742 10.442589
v -9.926645 34.923744 11.712593
v -9.609144 34.288742 11.712593
v -9.926645 34.923744 10.125092
v -9.609144 34.288742 11.077591
v -9.609144 33.971245 10.442589
v -9.040964 33.971245 10.125092
v -9.291645 34.288742 10.760086
v -8.971140 34.288742 10.442589
v -9.609144 33.971245 10.442589
v -9.371019 33.653744 10.680717
v -9.040964 33.971245 10.125092
v -8.971140 33.653744 10.442589
v -8.971140 28.891239 10.442589
v -9.132895 28.891239 10.918839
v -8.971140 24.128742 10.442589
v -9.132895 24.128742 10.918839
v -9.132895 14.603747 10.918839
v -8.971140 14.603747 10.442589
v -9.132895 19.366243 10.918839
v -8.971140 19.366243 10.442589
v -9.450394 14.444998 10.601341
v -9.291645 14.286248 10.760086
v -8.974144 14.444998 10.283836
v -8.971140 14.286248 10.442589
v -8.656645 14.444998 10.283836
v -8.974144 14.444998 10.283836
v -8.656645 14.286248 10.442589
v -8.971140 14.286248 10.442589
v -8.656645 14.444998 10.283836
v -8.656645 14.603747 10.442589
v -8.974144 14.444998 10.283836
v -8.971140 14.603747 10.442589
v -9.040964 33.971245 10.125092
v -8.971140 33.653744 10.442589
v -8.656645 33.971245 10.125092
v -8.656645 33.653744 10.442589
v -8.656645 33.971245 10.125092
v -8.656645 34.288742 10.442589
v -9.040964 33.971245 10.125092
v -8.971140 34.288742 10.442589
v -8.656645 34.288742 10.442589
v -8.656645 34.923744 10.125092
v -8.971140 34.288742 10.442589
v -9.926645 34.923744 10.125092
v -8.656645 35.241245 9.490089
v -9.926649 35.241245 9.490089
v -8.656645 34.923744 10.125092
v -9.926645 34.923744 10.125092
v -9.132895 19.366243 10.918839
v -9.132895 24.128742 10.918839
v -9.609144 19.366245 11.077591
v -9.609144 24.128744 11.077591
v -8.971140 19.366243 10.442589
v -8.971140 24.128742 10.442589
v -9.132895 19.366243 10.918839
v -9.132895 24.128742 10.918839
v -9.132895 28.891239 10.918839
v -9.132895 33.653744 10.918839
v -9.609144 28.891241 11.077591
v -9.609144 33.653744 11.077591
v -8.971140 28.891239 10.442589
v -8.971140 33.653744 10.442589
v -9.132895 28.891239 10.918839
v -9.132895 33.653744 10.918839
v -9.450394 14.444998 10.601341
v -8.974144 14.444998 10.283836
v -9.291645 14.603747 10.760086
v -8.971140 14.603747 10.442589
v -9.291645 14.603747 10.760086
v -9.609144 14.603746 11.077591
v -9.450394 14.444998 10.601341
v -9.767895 14.444998 10.918839
v -9.450394 14.444997 12.506340
v -9.132895 14.444997 12.823837
v -9.291645 14.286247 12.347588
v -8.974144 14.286247 12.665092
v -9.132895 14.444997 12.823837
v -8.339144 14.444997 12.823837
v -8.974144 14.286247 12.665092
v -8.339144 14.286247 12.665092
v -8.339144 14.444997 12.823837
v -9.132895 14.444997 12.823837
v -8.339144 14.603746 12.665092
v -8.974144 14.603746 12.665092
v -8.974144 14.603746 12.665092
v -9.132895 14.603746 12.188843
v -8.974144 19.366245 12.665092
v -9.132895 19.366245 12.188843
v -9.132895 28.891241 12.188843
v -8.974144 28.891241 12.665092
v -9.132895 24.128744 12.188843
v -8.974144 24.128744 12.665092
v -9.609144 33.971245 12.665092
v -9.150381 33.971245 12.982590
v -9.371019 33.653744 12.426964
v -8.974144 33.653744 12.665092
v -9.150381 33.971245 12.982590
v -8.339144 33.971245 12.982590
v -8.974144 33.653744 12.665092
v -8.339144 33.653744 12.665092
v -9.609144 33.971245 12.665092
v -9.291645 34.288742 12.347588
v -9.150381 33.971245 12.982590
v -8.974144 34.288742 12.665092
v -9.150381 33.971245 12.982590
v -8.974144 34.288742 12.665092
v -8.339144 33.971245 12.982590
v -8.339144 34.288742 12.665092
v -9.926645 34.923744 12.982590
v -9.926645 35.241245 13.617592
v -8.339144 34.923744 12.982590
v -8.339144 35.241245 13.617592
v -8.974144 34.288742 12.665092
v -9.291645 34.288742 12.347588
v -9.926645 34.923744 12.982590
v -9.609144 34.288742 12.027084
v -8.339144 34.923744 12.982590
v -8.339144 34.288742 12.665092
v -9.926645 34.923744 12.982590
v -8.974144 34.288742 12.665092
v -9.609144 33.971245 12.665092
v -9.926645 33.971245 12.096909
v -9.291645 34.288742 12.347588
v -9.609144 34.288742 12.027084
v -9.609144 33.971245 12.665092
v -9.371019 33.653744 12.426964
v -9.926645 33.971245 12.096909
v -9.609144 33.653744 12.027084
v -9.609144 28.891241 12.027084
v -9.132895 28.891241 12.188843
v -9.609144 24.128744 12.027084
v -9.132895 24.128744 12.188843
v -9.132895 14.603746 12.188843
v -9.609144 14.603746 12.027084
v -9.132895 19.366245 12.188843
v -9.609144 19.366245 12.027084
v -9.450394 14.444997 12.506340
v -9.291645 14.286247 12.347588
v -9.767895 14.444997 12.030090
v -9.609144 14.286247 12.027084
v -9.767895 14.444997 11.712585
v -9.767895 14.444997 12.030090
v -9.609144 14.286247 11.712585
v -9.609144 14.286247 12.027084
v -9.767895 14.444997 11.712585
v -9.609144 14.603746 11.712585
v -9.767895 14.444997 12.030090
v -9.609144 14.603746 12.027084
v -9.926645 33.971245 12.096909
v -9.609144 33.653744 12.027084
v -9.926645 33.971245 11.712593
v -9.609144 33.653744 11.712593
v -9.926645 33.971245 11.712593
v -9.609144 34.288742 11.712593
v -9.926645 33.971245 12.096909
v -9.609144 34.288742 12.027084
v -9.609144 34.288742 11.712593
v -9.926645 34.923744 11.712593
v -9.609144 34.288742 12.027084
v -9.926645 34.923744 12.982590
v -10.561644 35.241245 11.712593
v -10.561644 35.241245 12.982590
v -9.926645 34.923744 11.712593
v -9.926645 34.923744 12.982590
v -9.132895 19.366245 12.188843
v -9.132895 24.128744 12.188843
v -8.974144 19.366245 12.665092
v -8.974144 24.128744 12.665092
v -9.609144 19.366245 12.027084
v -9.609144 24.128744 12.027084
v -9.132895 19.366245 12.188843
v -9.132895 24.128744 12.188843
v -9.132895 28.891241 12.188843
v -9.132895 33.653744 12.188843
v -8.974144 28.891241 12.665092
v -8.974144 33.653744 12.665092
v -9.609144 28.891241 12.027084
v -9.609144 33.653744 12.027084
v -9.132895 28.891241 12.188843
v -9.132895 33.653744 12.188843
v -9.450394 14.444997 12.506340
v -9.767895 14.444997 12.030090
v -9.291645 14.603746 12.347588
v -9.609144 14.603746 12.027084
v -9.291645 14.603746 12.347588
v -8.974144 14.603746 12.665092
v -9.450394 14.444997 12.506340
v -9.132895 14.444997 12.823837
v -8.016100 14.603747 -17.811806
v -7.698601 14.603747 -17.494305
v -7.857349 14.603748 -17.335556
v -7.857349 14.603748 -17.335556
v -7.698601 14.603747 -17.494305
v -7.381100 14.603748 -17.173798
v -6.428600 35.241245 -18.129307
v -7.063601 35.241245 -18.129307
v -7.063601 34.923744 -18.129307
v -7.063601 35.241245 -18.764305
v -7.063601 34.923744 -18.129307
v -7.063601 35.241245 -18.129307
v -7.381100 33.653744 -17.173798
v -7.619225 33.653744 -17.573681
v -7.857349 33.653744 -17.335556
v -7.857349 33.653744 -17.335556
v -7.619225 33.653744 -17.573681
v -8.016100 33.653744 -17.811806
v -7.381100 14.603748 -16.224304
v -7.698601 14.603748 -15.906807
v -7.857349 14.603748 -16.065556
v -7.857349 14.603748 -16.065556
v -7.698601 14.603748 -15.906807
v -8.019104 14.603748 -15.589306
v -7.063599 35.241245 -14.636806
v -7.063599 35.241245 -15.271805
v -7.063601 34.923744 -15.271805
v -6.428600 35.241245 -15.271805
v -7.063601 34.923744 -15.271805
v -7.063599 35.241245 -15.271805
v -8.019104 33.653744 -15.589306
v -7.619225 33.653744 -15.827431
v -7.857349 33.653744 -16.065556
v -7.857349 33.653744 -16.065556
v -7.619225 33.653744 -15.827431
v -7.381100 33.653744 -16.224304
v -9.603600 14.603748 -17.176804
v -9.286100 14.603747 -17.494305
v -9.127350 14.603748 -17.335556
v -9.127350 14.603748 -17.335556
v -9.286100 14.603747 -17.494305
v -8.965595 14.603747 -17.811806
v -9.921104 35.241245 -18.764305
v -9.921104 35.241245 -18.129307
v -9.921101 34.923744 -18.129307
v -10.556101 35.241245 -18.129307
v -9.921101 34.923744 -18.129307
v -9.921104 35.241245 -18.129307
v -8.965595 33.653744 -17.811806
v -9.365475 33.653744 -17.573681
v -9.127350 33.653744 -17.335556
v -9.127350 33.653744 -17.335556
v -9.365475 33.653744 -17.573681
v -9.603600 33.653744 -17.176804
v -8.968599 14.603748 -15.589306
v -9.286100 14.603748 -15.906807
v -9.127350 14.603748 -16.065556
v -9.127350 14.603748 -16.065556
v -9.286100 14.603748 -15.906807
v -9.603600 14.603748 -16.227314
v -10.556101 35.241245 -15.271805
v -9.921101 35.241245 -15.271805
v -9.921101 34.923744 -15.271805
v -9.921101 35.241245 -14.636806
v -9.921101 34.923744 -15.271805
v -9.921101 35.241245 -15.271805
v -9.603600 33.653744 -16.227314
v -9.365475 33.653744 -15.827431
v -9.127350 33.653744 -16.065556
v -9.127350 33.653744 -16.065556
v -9.365475 33.653744 -15.827431
v -8.968599 33.653744 -15.589306
v -8.021645 14.603747 10.442589
v -7.704145 14.603747 10.760086
v -7.862894 14.603747 10.918839
v -7.862894 14.603747 10.918839
v -7.704145 14.603747 10.760086
v -7.386644 14.603746 11.080597
v -6.434145 35.241245 10.125092
v -7.069145 35.241245 10.125092
v -7.069145 34.923744 10.125092
v -7.069145 35.241245 9.490089
v -7.069145 34.923744 10.125092
v -7.069145 35.241245 10.125092
v -7.386644 33.653744 11.080597
v -7.624769 33.653744 10.680717
v -7.862894 33.653744 10.918839
v -7.862894 33.653744 10.918839
v -7.624769 33.653744 10.680717
v -8.021645 33.653744 10.442589
v -7.386644 14.603746 12.030090
v -7.704145 14.603746 12.347588
v -7.862894 14.603746 12.188843
v -7.862894 14.603746 12.188843
v -7.704145 14.603746 12.347588
v -8.024649 14.603746 12.665092
v -7.069141 35.241245 13.617592
v -7.069141 35.241245 12.982590
v -7.069145 34.923744 12.982590
v -6.434145 35.241245 12.982590
v -7.069145 34.923744 12.982590
v -7.069141 35.241245 12.982590
v -8.024649 33.653744 12.665092
v -7.624769 33.653744 12.426964
v -7.862894 33.653744 12.188843
v -7.862894 33.653744 12.188843
v -7.624769 33.653744 12.426964
v -7.386644 33.653744 12.030090
v -9.609144 14.603746 11.077591
v -9.291645 14.603747 10.760086
v -9.132895 14.603747 10.918839
v -9.132895 14.603747 10.918839
v -9.291645 14.603747 10.760086
v -8.971140 14.603747 10.442589
v -9.926649 35.241245 9.490089
v -9.926649 35.241245 10.125092
v -9.926645 34.923744 10.125092
v -10.561644 35.241245 10.125092
v -9.926645 34.923744 10.125092
v -9.926649 35.241245 10.125092
v -8.971140 33.653744 10.442589
v -9.371019 33.653744 10.680717
v -9.132895 33.653744 10.918839
v -9.132895 33.653744 10.918839
v -9.371019 33.653744 10.680717
v -9.609144 33.653744 11.077591
v -8.974144 14.603746 12.665092
v -9.291645 14.603746 12.347588
v -9.132895 14.603746 12.188843
v -9.132895 14.603746 12.188843
v -9.291645 14.603746 12.347588
v -9.609144 14.603746 12.027084
v -10.561644 35.241245 12.982590
v -9.926645 35.241245 12.982590
v -9.926645 34.923744 12.982590
v -9.926645 35.241245 13.617592
v -9.926645 34.923744 12.982590
v -9.926645 35.241245 12.982590
v -9.609144 33.653744 12.027084
v -9.371019 33.653744 12.426964
v -9.132895 33.653744 12.188843
v -9.132895 33.653744 12.188843
v -9.371019 33.653744 12.426964
v -8.974144 33.653744 12.665092
vt 2.871094 -1.000000
vt 3.245117 -1.000000
vt 2.871094 -0.000977
vt 3.245117 -0.000977
vt 2.871094 -1.000000
vt 3.245117 -1.000000
vt 2.871094 -0.000977
vt 3.245117 -0.000977
vt 2.871094 -0.000977
vt 3.245117 -0.000977
vt 2.871094 -1.000000
vt 3.245117 -1.000000
vt -2.310547 -0.003906
vt -2.310547 0.991211
vt -2.248047 -0.003906
vt -2.248047 0.991211
vt -1.500000 0.999023
vt -1.500000 0.000000
vt -1.559570 0.999023
vt -1.559570 0.000000
vt 2.871094 -0.000977
vt 3.245117 -0.000977
vt 2.871094 -1.000000
vt 3.245117 -1.000000
vt 2.871094 -0.000977
vt 3.245117 -0.000977
vt 2.871094 -1.000000
vt 3.245117 -1.000000
vt 2.871094 -1.000000
vt 2.871094 -0.000977
vt 3.245117 -1.000000
vt 3.245117 -0.000977
vt 2.871094 -1.000000
vt 2.871094 -0.000977
vt 3.245117 -1.000000
vt 3.245117 -0.000977
vt -1.623047 -1.396484
vt -1.623047 -1.094727
vt -1.762695 -1.290039
vt -1.762695 -1.094727
vt 0.231445 -1.127930
vt 0.449219 -1.252930
vt 0.231445 -1.377930
vt 0.231445 -1.627930
vt 0.449219 -1.002930
vt 0.449219 -1.252930
vt 0.231445 -1.002930
vt 0.231445 -1.127930
vt 2.871094 -0.000977
vt 3.245117 -0.000977
vt 2.871094 -1.000000
vt 3.245117 -1.000000
vt 2.871094 -1.000000
vt 2.871094 -0.000977
vt 3.245117 -1.000000
vt 3.245117 -0.000977
vt -1.634766 0.999023
vt -1.634766 0.000000
vt -1.500000 0.999023
vt -1.500000 0.000000
vt -2.248047 -0.003906
vt -2.248047 0.991211
vt -2.388672 -0.003906
vt -2.388672 0.991211
vt 2.871094 -0.000977
vt 2.871094 -1.000000
vt 3.245117 -0.000977
vt 3.245117 -1.000000
vt 2.871094 -1.000000
vt 3.245117 -1.000000
vt 2.871094 -0.000977
vt 3.245117 -0.000977
vt 2.871094 -1.000000
vt 2.871094 -0.000977
vt 3.245117 -1.000000
vt 3.245117 -0.000977
vt 2.871094 -1.000000
vt 2.871094 -0.000977
vt 3.245117 -1.000000
vt 3.245117 -0.000977
vt 2.871094 -1.000000
vt 2.871094 -0.000977
vt 3.245117 -1.000000
vt 3.245117 -0.000977
vt 0.231445 -1.752930
vt 0.231445 -1.627930
vt 0.449219 -1.752930
vt 0.449219 -1.252930
vt -1.762695 -1.752930
vt -1.623047 -1.752930
vt -1.762695 -1.502930
vt -1.623047 -1.396484
vt -1.000000 -0.003906
vt -1.060547 -0.003906
vt -1.000000 0.995117
vt -1.060547 0.995117
vt -1.136719 -0.003906
vt -1.000000 -0.003906
vt -1.136719 0.995117
vt -1.000000 0.995117
vt -2.748047 -0.003906
vt -2.810547 -0.003906
vt -2.748047 0.995117
vt -2.810547 0.995117
vt -2.888672 -0.003906
vt -2.748047 -0.003906
vt -2.888672 0.995117
vt -2.748047 0.995117
vt 2.871094 -0.000977
vt 3.245117 -0.000977
vt 2.871094 -1.000000
vt 3.245117 -1.000000
vt 3.245117 -1.000000
vt 2.871094 -1.000000
vt 3.245117 -0.000977
vt 2.871094 -0.000977
vt 2.871094 -1.000000
vt 3.245117 -1.000000
vt 2.871094 -0.000977
vt 3.245117 -0.000977
vt 2.871094 -1.000000
vt 3.245117 -1.000000
vt 2.871094 -0.000977
vt 3.245117 -0.000977
vt 2.871094 -0.000977
vt 3.245117 -0.000977
vt 2.871094 -1.000000
vt 3.245117 -1.000000
vt -2.310547 -0.003906
vt -2.310547 0.991211
vt -2.248047 -0.003906
vt -2.248047 0.991211
vt -1.500000 0.999023
vt -1.500000 0.000000
vt -1.559570 0.999023
vt -1.559570 0.000000
vt 2.871094 -0.000977
vt 3.245117 -0.000977
vt 2.871094 -1.000000
vt 3.245117 -1.000000
vt 2.871094 -0.000977
vt 3.245117 -0.000977
vt 2.871094 -1.000000
vt 3.245117 -1.000000
vt 2.871094 -1.000000
vt 2.871094 -0.000977
vt 3.245117 -1.000000
vt 3.245117 -0.000977
vt 2.871094 -1.000000
vt 2.871094 -0.000977
vt 3.245117 -1.000000
vt 3.245117 -0.000977
vt -1.623047 -1.396484
vt -1.623047 -1.094727
vt -1.762695 -1.290039
vt -1.762695 -1.094727
vt 0.231445 -1.127930
vt 0.449219 -1.252930
vt 0.231445 -1.377930
vt 0.231445 -1.627930
vt 0.449219 -1.002930
vt 0.449219 -1.252930
vt 0.231445 -1.002930
vt 0.231445 -1.127930
vt 2.871094 -0.000977
vt 3.245117 -0.000977
vt 2.871094 -1.000000
vt 3.245117 -1.000000
vt 2.871094 -1.000000
vt 2.871094 -0.000977
vt 3.245117 -1.000000
vt 3.245117 -0.000977
vt -1.634766 0.999023
vt -1.634766 0.000000
vt -1.500000 0.999023
vt -1.500000 0.000000
vt -2.248047 -0.003906
vt -2.248047 0.991211
vt -2.388672 -0.003906
vt -2.388672 0.991211
vt 2.871094 -0.000977
vt 2.871094 -1.000000
vt 3.245117 -0.000977
vt 3.245117 -1.000000
vt 2.871094 -1.000000
vt 3.245117 -1.000000
vt 2.871094 -0.000977
vt 3.245117 -0.000977
vt 2.871094 -1.000000
vt 2.871094 -0.000977
vt 3.245117 -1.000000
vt 3.245117 -0.000977
vt 2.871094 -1.000000
vt 2.871094 -0.000977
vt 3.245117 -1.000000
vt 3.245117 -0.000977
vt 2.871094 -1.000000
vt 2.871094 -0.000977
vt 3.245117 -1.000000
vt 3.245117 -0.000977
vt 0.231445 -1.752930
vt 0.231445 -1.627930
vt 0.449219 -1.752930
vt 0.449219 -1.252930
vt -1.762695 -1.752930
vt -1.623047 -1.752930
vt -1.762695 -1.502930
vt -1.623047 -1.396484
vt -1.000000 -0.003906
vt -1.060547 -0.003906
vt -1.000000 0.995117
vt -1.060547 0.995117
vt -1.136719 -0.003906
vt -1.000000 -0.003906
vt -1.136719 0.995117
vt -1.000000 0.995117
vt -2.748047 -0.003906
vt -2.810547 -0.003906
vt -2.748047 0.995117
vt -2.810547 0.995117
vt -2.888672 -0.003906
vt -2.748047 -0.003906
vt -2.888672 0.995117
vt -2.748047 0.995117
vt 2.871094 -0.000977
vt 3.245117 -0.000977
vt 2.871094 -1.000000
vt 3.245117 -1.000000
vt 3.245117 -1.000000
vt 2.871094 -1.000000
vt 3.245117 -0.000977
vt 2.871094 -0.000977
vt 2.871094 -1.000000
vt 3.245117 -1.000000
vt 2.871094 -0.000977
vt 3.245117 -0.000977
vt 2.871094 -1.000000
vt 3.245117 -1.000000
vt 2.871094 -0.000977
vt 3.245117 -0.000977
vt 2.871094 -0.000977
vt 3.245117 -0.000977
vt 2.871094 -1.000000
vt 3.245117 -1.000000
vt -2.310547 -0.003906
vt -2.310547 0.991211
vt -2.248047 -0.003906
vt -2.248047 0.991211
vt -1.500000 0.999023
vt -1.500000 0.000000
vt -1.559570 0.999023
vt -1.559570 0.000000
vt 2.871094 -0.000977
vt 3.245117 -0.000977
vt 2.871094 -1.000000
vt 3.245117 -1.000000
vt 2.871094 -0.000977
vt 3.245117 -0.000977
vt 2.871094 -1.000000
vt 3.245117 -1.000000
vt 2.871094 -1.000000
vt 2.871094 -0.000977
vt 3.245117 -1.000000
vt 3.245117 -0.000977
vt 2.871094 -1.000000
vt 2.871094 -0.000977
vt 3.245117 -1.000000
vt 3.245117 -0.000977
vt -1.623047 -1.396484
vt -1.623047 -1.094727
vt -1.762695 -1.290039
vt -1.762695 -1.094727
vt 0.231445 -1.127930
vt 0.449219 -1.252930
vt 0.231445 -1.377930
vt 0.231445 -1.627930
vt 0.449219 -1.002930
vt 0.449219 -1.252930
vt 0.231445 -1.002930
vt 0.231445 -1.127930
vt 2.871094 -0.000977
vt 3.245117 -0.000977
vt 2.871094 -1.000000
vt 3.245117 -1.000000
vt 2.871094 -1.000000
vt 2.871094 -0.000977
vt 3.245117 -1.000000
vt 3.245117 -0.000977
vt -1.634766 0.999023
vt -1.634766 0.000000
vt -1.500000 0.999023
vt -1.500000 0.000000
vt -2.248047 -0.003906
vt -2.248047 0.991211
vt -2.388672 -0.003906
vt -2.388672 0.991211
vt 2.871094 -0.000977
vt 2.871094 -1.000000
vt 3.245117 -0.000977
vt 3.245117 -1.000000
vt 2.871094 -1.000000
vt 3.245117 -1.000000
vt 2.871094 -0.000977
vt 3.245117 -0.000977
vt 2.871094 -1.000000
vt 2.871094 -0.000977
vt 3.245117 -1.000000
vt 3.245117 -0.000977
vt 2.871094 -1.000000
vt 2.871094 -0.000977
vt 3.245117 -1.000000
vt 3.245117 -0.000977
vt 2.871094 -1.000000
vt 2.871094 -0.000977
vt 3.245117 -1.000000
vt 3.245117 -0.000977
vt 0.231445 -1.752930
vt 0.231445 -1.627930
vt 0.449219 -1.752930
vt 0.449219 -1.252930
vt -1.762695 -1.752930
vt -1.623047 -1.752930
vt -1.762695 -1.502930
vt -1.623047 -1.396484
vt -1.000000 -0.003906
vt -1.060547 -0.003906
vt -1.000000 0.995117
vt -1.060547 0.995117
vt -1.136719 -0.003906
vt -1.000000 -0.003906
vt -1.136719 0.995117
vt -1.000000 0.995117
vt -2.748047 -0.003906
vt -2.810547 -0.003906
vt -2.748047 0.995117
vt -2.810547 0.995117
vt -2.888672 -0.003906
vt -2.748047 -0.003906
vt -2.888672 0.995117
vt -2.748047 0.995117
vt 2.871094 -0.000977
vt 3.245117 -0.000977
vt 2.871094 -1.000000
vt 3.245117 -1.000000
vt 3.245117 -1.000000
vt 2.871094 -1.000000
vt 3.245117 -0.000977
vt 2.871094 -0.000977
vt 2.871094 -1.000000
vt 3.245117 -1.000000
vt 2.871094 -0.000977
vt 3.245117 -0.000977
vt 2.871094 -1.000000
vt 3.245117 -1.000000
vt 2.871094 -0.000977
vt 3.245117 -0.000977
vt 2.871094 -0.000977
vt 3.245117 -0.000977
vt 2.871094 -1.000000
vt 3.245117 -1.000000
vt -2.310547 -0.003906
vt -2.310547 0.991211
vt -2.248047 -0.003906
vt -2.248047 0.991211
vt -1.500000 0.999023
vt -1.500000 0.000000
vt -1.559570 0.999023
vt -1.559570 0.000000
vt 2.871094 -0.000977
vt 3.245117 -0.000977
vt 2.871094 -1.000000
vt 3.245117 -1.000000
vt 2.871094 -0.000977
vt 3.245117 -0.000977
vt 2.871094 -1.000000
vt 3.245117 -1.000000
vt 2.871094 -1.000000
vt 2.871094 -0.000977
vt 3.245117 -1.000000
vt 3.245117 -0.000977
vt 2.871094 -1.000000
vt 2.871094 -0.000977
vt 3.245117 -1.000000
vt 3.245117 -0.000977
vt -1.623047 -1.396484
vt -1.623047 -1.094727
vt -1.762695 -1.290039
vt -1.762695 -1.094727
vt 0.449219 -1.002930
vt 0.449219 -1.252930
vt 0.231445 -1.002930
vt 0.231445 -1.127930
vt 2.871094 -0.000977
vt 3.245117 -0.000977
vt 2.871094 -1.000000
vt 3.245117 -1.000000
vt 2.871094 -1.000000
vt 2.871094 -0.000977
vt 3.245117 -1.000000
vt 3.245117 -0.000977
vt -1.634766 0.999023
vt -1.634766 0.000000
vt -1.500000 0.999023
vt -1.500000 0.000000
vt -2.248047 -0.003906
vt -2.248047 0.991211
vt -2.388672 -0.003906
vt -2.388672 0.991211
vt 2.871094 -0.000977
vt 2.871094 -1.000000
vt 3.245117 -0.000977
vt 3.245117 -1.000000
vt 2.871094 -1.000000
vt 3.245117 -1.000000
vt 2.871094 -0.000977
vt 3.245117 -0.000977
vt 2.871094 -1.000000
vt 2.871094 -0.000977
vt 3.245117 -1.000000
vt 3.245117 -0.000977
vt 2.871094 -1.000000
vt 2.871094 -0.000977
vt 3.245117 -1.000000
vt 3.245117 -0.000977
vt 2.871094 -1.000000
vt 2.871094 -0.000977
vt 3.245117 -1.000000
vt 3.245117 -0.000977
vt 0.231445 -1.752930
vt 0.231445 -1.627930
vt 0.449219 -1.752930
vt 0.449219 -1.252930
vt -1.762695 -1.752930
vt -1.623047 -1.752930
vt -1.762695 -1.502930
vt -1.623047 -1.396484
vt -1.000000 -0.003906
vt -1.060547 -0.003906
vt -1.000000 0.995117
vt -1.060547 0.995117
vt -1.136719 -0.003906
vt -1.000000 -0.003906
vt -1.136719 0.995117
vt -1.000000 0.995117
vt -2.748047 -0.003906
vt -2.810547 -0.003906
vt -2.748047 0.995117
vt -2.810547 0.995117
vt -2.888672 -0.003906
vt -2.748047 -0.003906
vt -2.888672 0.995117
vt -2.748047 0.995117
vt 2.871094 -0.000977
vt 3.245117 -0.000977
vt 2.871094 -1.000000
vt 3.245117 -1.000000
vt 3.245117 -1.000000
vt 2.871094 -1.000000
vt 3.245117 -0.000977
vt 2.871094 -0.000977
vt 2.871094 -1.000000
vt 3.245117 -1.000000
vt 2.871094 -0.000977
vt 3.245117 -0.000977
vt 2.871094 -1.000000
vt 3.245117 -1.000000
vt 2.871094 -0.000977
vt 3.245117 -0.000977
vt 2.871094 -0.000977
vt 3.245117 -0.000977
vt 2.871094 -1.000000
vt 3.245117 -1.000000
vt -2.310547 -0.003906
vt -2.310547 0.991211
vt -2.248047 -0.003906
vt -2.248047 0.991211
vt -1.500000 0.999023
vt -1.500000 0.000000
vt -1.559570 0.999023
vt -1.559570 0.000000
vt 2.871094 -0.000977
vt 3.245117 -0.000977
vt 2.871094 -1.000000
vt 3.245117 -1.000000
vt 2.871094 -0.000977
vt 3.245117 -0.000977
vt 2.871094 -1.000000
vt 3.245117 -1.000000
vt 2.871094 -1.000000
vt 2.871094 -0.000977
vt 3.245117 -1.000000
vt 3.245117 -0.000977
vt 2.871094 -1.000000
vt 2.871094 -0.000977
vt 3.245117 -1.000000
vt 3.245117 -0.000977
vt -1.623047 -1.396484
vt -1.623047 -1.094727
vt -1.762695 -1.290039
vt -1.762695 -1.094727
vt 0.231445 -1.127930
vt 0.449219 -1.252930
vt 0.231445 -1.377930
vt 0.231445 -1.627930
vt 0.449219 -1.002930
vt 0.449219 -1.252930
vt 0.231445 -1.002930
vt 0.231445 -1.127930
vt 2.871094 -0.000977
vt 3.245117 -0.000977
vt 2.871094 -1.000000
vt 3.245117 -1.000000
vt 2.871094 -1.000000
vt 2.871094 -0.000977
vt 3.245117 -1.000000
vt 3.245117 -0.000977
vt -1.634766 0.999023
vt -1.634766 0.000000
vt -1.500000 0.999023
vt -1.500000 0.000000
vt -2.248047 -0.003906
vt -2.248047 0.991211
vt -2.388672 -0.003906
vt -2.388672 0.991211
vt 2.871094 -0.000977
vt 2.871094 -1.000000
vt 3.245117 -0.000977
vt 3.245117 -1.000000
vt 2.871094 -1.000000
vt 3.245117 -1.000000
vt 2.871094 -0.000977
vt 3.245117 -0.000977
vt 2.871094 -1.000000
vt 2.871094 -0.000977
vt 3.245117 -1.000000
vt 3.245117 -0.000977
vt 2.871094 -1.000000
vt 2.871094 -0.000977
vt 3.245117 -1.000000
vt 3.245117 -0.000977
vt 2.871094 -1.000000
vt 2.871094 -0.000977
vt 3.245117 -1.000000
vt 3.245117 -0.000977
vt 0.231445 -1.752930
vt 0.231445 -1.627930
vt 0.449219 -1.752930
vt 0.449219 -1.252930
vt -1.762695 -1.752930
vt -1.623047 -1.752930
vt -1.762695 -1.502930
vt -1.623047 -1.396484
vt -1.000000 -0.003906
vt -1.060547 -0.003906
vt -1.000000 0.995117
vt -1.060547 0.995117
vt -1.136719 -0.003906
vt -1.000000 -0.003906
vt -1.136719 0.995117
vt -1.000000 0.995117
vt -2.748047 -0.003906
vt -2.810547 -0.003906
vt -2.748047 0.995117
vt -2.810547 0.995117
vt -2.888672 -0.003906
vt -2.748047 -0.003906
vt -2.888672 0.995117
vt -2.748047 0.995117
vt 2.871094 -0.000977
vt 3.245117 -0.000977
vt 2.871094 -1.000000
vt 3.245117 -1.000000
vt 3.245117 -1.000000
vt 2.871094 -1.000000
vt 3.245117 -0.000977
vt 2.871094 -0.000977
vt 2.871094 -1.000000
vt 3.245117 -1.000000
vt 2.871094 -0.000977
vt 3.245117 -0.000977
vt 2.871094 -1.000000
vt 3.245117 -1.000000
vt 2.871094 -0.000977
vt 3.245117 -0.000977
vt 2.871094 -0.000977
vt 3.245117 -0.000977
vt 2.871094 -1.000000
vt 3.245117 -1.000000
vt -2.310547 -0.003906
vt -2.310547 0.991211
vt -2.248047 -0.003906
vt -2.248047 0.991211
vt -1.500000 0.999023
vt -1.500000 0.000000
vt -1.559570 0.999023
vt -1.559570 0.000000
vt 2.871094 -0.000977
vt 3.245117 -0.000977
vt 2.871094 -1.000000
vt 3.245117 -1.000000
vt 2.871094 -0.000977
vt 3.245117 -0.000977
vt 2.871094 -1.000000
vt 3.245117 -1.000000
vt 2.871094 -1.000000
vt 2.871094 -0.000977
vt 3.245117 -1.000000
vt 3.245117 -0.000977
vt 2.871094 -1.000000
vt 2.871094 -0.000977
vt 3.245117 -1.000000
vt 3.245117 -0.000977
vt -1.623047 -1.396484
vt -1.623047 -1.094727
vt -1.762695 -1.290039
vt -1.762695 -1.094727
vt 0.231445 -1.127930
vt 0.449219 -1.252930
vt 0.231445 -1.377930
vt 0.231445 -1.627930
vt 0.449219 -1.002930
vt 0.449219 -1.252930
vt 0.231445 -1.002930
vt 0.231445 -1.127930
vt 2.871094 -0.000977
vt 3.245117 -0.000977
vt 2.871094 -1.000000
vt 3.245117 -1.000000
vt 2.871094 -1.000000
vt 2.871094 -0.000977
vt 3.245117 -1.000000
vt 3.245117 -0.000977
vt -1.634766 0.999023
vt -1.634766 0.000000
vt -1.500000 0.999023
vt -1.500000 0.000000
vt -2.248047 -0.003906
vt -2.248047 0.991211
vt -2.388672 -0.003906
vt -2.388672 0.991211
vt 2.871094 -0.000977
vt 2.871094 -1.000000
vt 3.245117 -0.000977
vt 3.245117 -1.000000
vt 2.871094 -1.000000
vt 3.245117 -1.000000
vt 2.871094 -0.000977
vt 3.245117 -0.000977
vt 2.871094 -1.000000
vt 2.871094 -0.000977
vt 3.245117 -1.000000
vt 3.245117 -0.000977
vt 2.871094 -1.000000
vt 2.871094 -0.000977
vt 3.245117 -1.000000
vt 3.245117 -0.000977
vt 2.871094 -1.000000
vt 2.871094 -0.000977
vt 3.245117 -1.000000
vt 3.245117 -0.000977
vt 0.231445 -1.752930
vt 0.231445 -1.627930
vt 0.449219 -1.752930
vt 0.449219 -1.252930
vt -1.762695 -1.752930
vt -1.623047 -1.752930
vt -1.762695 -1.502930
vt -1.623047 -1.396484
vt -1.000000 -0.003906
vt -1.060547 -0.003906
vt -1.000000 0.995117
vt -1.060547 0.995117
vt -1.136719 -0.003906
vt -1.000000 -0.003906
vt -1.136719 0.995117
vt -1.000000 0.995117
vt -2.748047 -0.003906
vt -2.810547 -0.003906
vt -2.748047 0.995117
vt -2.810547 0.995117
vt -2.888672 -0.003906
vt -2.748047 -0.003906
vt -2.888672 0.995117
vt -2.748047 0.995117
vt 2.871094 -0.000977
vt 3.245117 -0.000977
vt 2.871094 -1.000000
vt 3.245117 -1.000000
vt 3.245117 -1.000000
vt 2.871094 -1.000000
vt 3.245117 -0.000977
vt 2.871094 -0.000977
vt 2.871094 -1.000000
vt 3.245117 -1.000000
vt 2.871094 -0.000977
vt 3.245117 -0.000977
vt 2.871094 -1.000000
vt 3.245117 -1.000000
vt 2.871094 -0.000977
vt 3.245117 -0.000977
vt 2.871094 -0.000977
vt 3.245117 -0.000977
vt 2.871094 -1.000000
vt 3.245117 -1.000000
vt -2.310547 -0.003906
vt -2.310547 0.991211
vt -2.248047 -0.003906
vt -2.248047 0.991211
vt -1.500000 0.999023
vt -1.500000 0.000000
vt -1.559570 0.999023
vt -1.559570 0.000000
vt 2.871094 -0.000977
vt 3.245117 -0.000977
vt 2.871094 -1.000000
vt 3.245117 -1.000000
vt 2.871094 -0.000977
vt 3.245117 -0.000977
vt 2.871094 -1.000000
vt 3.245117 -1.000000
vt 2.871094 -1.000000
vt 2.871094 -0.000977
vt 3.245117 -1.000000
vt 3.245117 -0.000977
vt 2.871094 -1.000000
vt 2.871094 -0.000977
vt 3.245117 -1.000000
vt 3.245117 -0.000977
vt -1.623047 -1.396484
vt -1.623047 -1.094727
vt -1.762695 -1.290039
vt -1.762695 -1.094727
vt 0.231445 -1.127930
vt 0.449219 -1.252930
vt 0.231445 -1.377930
vt 0.231445 -1.627930
vt 0.449219 -1.002930
vt 0.449219 -1.252930
vt 0.231445 -1.002930
vt 0.231445 -1.127930
vt 2.871094 -0.000977
vt 3.245117 -0.000977
vt 2.871094 -1.000000
vt 3.245117 -1.000000
vt 2.871094 -1.000000
vt 2.871094 -0.000977
vt 3.245117 -1.000000
vt 3.245117 -0.000977
vt -1.634766 0.999023
vt -1.634766 0.000000
vt -1.500000 0.999023
vt -1.500000 0.000000
vt -2.248047 -0.003906
vt -2.248047 0.991211
vt -2.388672 -0.003906
vt -2.388672 0.991211
vt 2.871094 -0.000977
vt 2.871094 -1.000000
vt 3.245117 -0.000977
vt 3.245117 -1.000000
vt 2.871094 -1.000000
vt 3.245117 -1.000000
vt 2.871094 -0.000977
vt 3.245117 -0.000977
vt 2.871094 -1.000000
vt 2.871094 -0.000977
vt 3.245117 -1.000000
vt 3.245117 -0.000977
vt 2.871094 -1.000000
vt 2.871094 -0.000977
vt 3.245117 -1.000000
vt 3.245117 -0.000977
vt 2.871094 -1.000000
vt 2.871094 -0.000977
vt 3.245117 -1.000000
vt 3.245117 -0.000977
vt 0.231445 -1.752930
vt 0.231445 -1.627930
vt 0.449219 -1.752930
vt 0.449219 -1.252930
vt -1.762695 -1.752930
vt -1.623047 -1.752930
vt -1.762695 -1.502930
vt -1.623047 -1.396484
vt -1.000000 -0.003906
vt -1.060547 -0.003906
vt -1.000000 0.995117
vt -1.060547 0.995117
vt -1.136719 -0.003906
vt -1.000000 -0.003906
vt -1.136719 0.995117
vt -1.000000 0.995117
vt -2.748047 -0.003906
vt -2.810547 -0.003906
vt -2.748047 0.995117
vt -2.810547 0.995117
vt -2.888672 -0.003906
vt -2.748047 -0.003906
vt -2.888672 0.995117
vt -2.748047 0.995117
vt 2.871094 -0.000977
vt 3.245117 -0.000977
vt 2.871094 -1.000000
vt 3.245117 -1.000000
vt 3.245117 -1.000000
vt 2.871094 -1.000000
vt 3.245117 -0.000977
vt 2.871094 -0.000977
vt 2.871094 -1.000000
vt 3.245117 -1.000000
vt 2.871094 -0.000977
vt 3.245117 -0.000977
vt 2.871094 -1.000000
vt 3.245117 -1.000000
vt 2.871094 -0.000977
vt 3.245117 -0.000977
vt 2.871094 -0.000977
vt 3.245117 -0.000977
vt 2.871094 -1.000000
vt 3.245117 -1.000000
vt -2.310547 -0.003906
vt -2.310547 0.991211
vt -2.248047 -0.003906
vt -2.248047 0.991211
vt -1.500000 0.999023
vt -1.500000 0.000000
vt -1.559570 0.999023
vt -1.559570 0.000000
vt 2.871094 -0.000977
vt 3.245117 -0.000977
vt 2.871094 -1.000000
vt 3.245117 -1.000000
vt 2.871094 -0.000977
vt 3.245117 -0.000977
vt 2.871094 -1.000000
vt 3.245117 -1.000000
vt 2.871094 -1.000000
vt 2.871094 -0.000977
vt 3.245117 -1.000000
vt 3.245117 -0.000977
vt 2.871094 -1.000000
vt 2.871094 -0.000977
vt 3.245117 -1.000000
vt 3.245117 -0.000977
vt -1.623047 -1.396484
vt -1.623047 -1.094727
vt -1.762695 -1.290039
vt -1.762695 -1.094727
vt 0.231445 -1.127930
vt 0.449219 -1.252930
vt 0.231445 -1.377930
vt 0.231445 -1.627930
vt 0.449219 -1.002930
vt 0.449219 -1.252930
vt 0.231445 -1.002930
vt 0.231445 -1.127930
vt 2.871094 -0.000977
vt 3.245117 -0.000977
vt 2.871094 -1.000000
vt 3.245117 -1.000000
vt 2.871094 -1.000000
vt 2.871094 -0.000977
vt 3.245117 -1.000000
vt 3.245117 -0.000977
vt -1.634766 0.999023
vt -1.634766 0.000000
vt -1.500000 0.999023
vt -1.500000 0.000000
vt -2.248047 -0.003906
vt -2.248047 0.991211
vt -2.388672 -0.003906
vt -2.388672 0.991211
vt 2.871094 -0.000977
vt 2.871094 -1.000000
vt 3.245117 -0.000977
vt 3.245117 -1.000000
vt 2.871094 -1.000000
vt 3.245117 -1.000000
vt 2.871094 -0.000977
vt 3.245117 -0.000977
vt 2.871094 -1.000000
vt 2.871094 -0.000977
vt 3.245117 -1.000000
vt 3.245117 -0.000977
vt 2.871094 -1.000000
vt 2.871094 -0.000977
vt 3.245117 -1.000000
vt 3.245117 -0.000977
vt 2.871094 -1.000000
vt 2.871094 -0.000977
vt 3.245117 -1.000000
vt 3.245117 -0.000977
vt 0.231445 -1.752930
vt 0.231445 -1.627930
vt 0.449219 -1.752930
vt 0.449219 -1.252930
vt -1.762695 -1.752930
vt -1.623047 -1.752930
vt -1.762695 -1.502930
vt -1.623047 -1.396484
vt -1.000000 -0.003906
vt -1.060547 -0.003906
vt -1.000000 0.995117
vt -1.060547 0.995117
vt -1.136719 -0.003906
vt -1.000000 -0.003906
vt -1.136719 0.995117
vt -1.000000 0.995117
vt -2.748047 -0.003906
vt -2.810547 -0.003906
vt -2.748047 0.995117
vt -2.810547 0.995117
vt -2.888672 -0.003906
vt -2.748047 -0.003906
vt -2.888672 0.995117
vt -2.748047 0.995117
vt 2.871094 -0.000977
vt 3.245117 -0.000977
vt 2.871094 -1.000000
vt 3.245117 -1.000000
vt 3.245117 -1.000000
vt 2.871094 -1.000000
vt 3.245117 -0.000977
vt 2.871094 -0.000977
vt 3.245117 -0.000977
vt 3.069336 -1.000000
vt 3.245117 -1.000000
vt 3.069336 -0.000977
vt 3.245117 -1.000000
vt 3.245117 -0.000977
vt -1.762695 -1.502930
vt -1.623047 -1.396484
vt -1.762695 -1.361328
vt -1.762695 -1.290039
vt -1.762695 -1.361328
vt -1.623047 -1.396484
vt 3.245117 -0.000977
vt 3.056641 -1.000000
vt 3.245117 -1.000000
vt 3.056641 -0.000977
vt 3.245117 -1.000000
vt 3.245117 -0.000977
vt 3.245117 -0.000977
vt 3.069336 -1.000000
vt 3.245117 -1.000000
vt 3.069336 -0.000977
vt 3.245117 -1.000000
vt 3.245117 -0.000977
vt -1.762695 -1.502930
vt -1.623047 -1.396484
vt -1.762695 -1.361328
vt -1.762695 -1.290039
vt -1.762695 -1.361328
vt -1.623047 -1.396484
vt 3.245117 -0.000977
vt 3.056641 -1.000000
vt 3.245117 -1.000000
vt 3.056641 -0.000977
vt 3.245117 -1.000000
vt 3.245117 -0.000977
vt 3.245117 -0.000977
vt 3.069336 -1.000000
vt 3.245117 -1.000000
vt 3.069336 -0.000977
vt 3.245117 -1.000000
vt 3.245117 -0.000977
vt -1.762695 -1.502930
vt -1.623047 -1.396484
vt -1.762695 -1.361328
vt -1.762695 -1.290039
vt -1.762695 -1.361328
vt -1.623047 -1.396484
vt 3.245117 -0.000977
vt 3.056641 -1.000000
vt 3.245117 -1.000000
vt 3.056641 -0.000977
vt 3.245117 -1.000000
vt 3.245117 -0.000977
vt 3.245117 -0.000977
vt 3.069336 -1.000000
vt 3.245117 -1.000000
vt 3.069336 -0.000977
vt 3.245117 -1.000000
vt 3.245117 -0.000977
vt -1.762695 -1.502930
vt -1.623047 -1.396484
vt -1.762695 -1.361328
vt -1.762695 -1.290039
vt -1.762695 -1.361328
vt -1.623047 -1.396484
vt 3.245117 -0.000977
vt 3.056641 -1.000000
vt 3.245117 -1.000000
vt 3.056641 -0.000977
vt 3.245117 -1.000000
vt 3.245117 -0.000977
vt 3.245117 -0.000977
vt 3.069336 -1.000000
vt 3.245117 -1.000000
vt 3.069336 -0.000977
vt 3.245117 -1.000000
vt 3.245117 -0.000977
vt -1.762695 -1.502930
vt -1.623047 -1.396484
vt -1.762695 -1.361328
vt -1.762695 -1.290039
vt -1.762695 -1.361328
vt -1.623047 -1.396484
vt 3.245117 -0.000977
vt 3.056641 -1.000000
vt 3.245117 -1.000000
vt 3.056641 -0.000977
vt 3.245117 -1.000000
vt 3.245117 -0.000977
vt 3.245117 -0.000977
vt 3.069336 -1.000000
vt 3.245117 -1.000000
vt 3.069336 -0.000977
vt 3.245117 -1.000000
vt 3.245117 -0.000977
vt -1.762695 -1.502930
vt -1.623047 -1.396484
vt -1.762695 -1.361328
vt -1.762695 -1.290039
vt -1.762695 -1.361328
vt -1.623047 -1.396484
vt 3.245117 -0.000977
vt 3.056641 -1.000000
vt 3.245117 -1.000000
vt 3.056641 -0.000977
vt 3.245117 -1.000000
vt 3.245117 -0.000977
vt 3.245117 -0.000977
vt 3.069336 -1.000000
vt 3.245117 -1.000000
vt 3.069336 -0.000977
vt 3.245117 -1.000000
vt 3.245117 -0.000977
vt -1.762695 -1.502930
vt -1.623047 -1.396484
vt -1.762695 -1.361328
vt -1.762695 -1.290039
vt -1.762695 -1.361328
vt -1.623047 -1.396484
vt 3.245117 -0.000977
vt 3.056641 -1.000000
vt 3.245117 -1.000000
vt 3.056641 -0.000977
vt 3.245117 -1.000000
vt 3.245117 -0.000977
vt 3.245117 -0.000977
vt 3.069336 -1.000000
vt 3.245117 -1.000000
vt 3.069336 -0.000977
vt 3.245117 -1.000000
vt 3.245117 -0.000977
vt -1.762695 -1.502930
vt -1.623047 -1.396484
vt -1.762695 -1.361328
vt -1.762695 -1.290039
vt -1.762695 -1.361328
vt -1.623047 -1.396484
vt 3.245117 -0.000977
vt 3.056641 -1.000000
vt 3.245117 -1.000000
vt 3.056641 -0.000977
vt 3.245117 -1.000000
vt 3.245117 -0.000977
vn 0.4082 -0.8165 -0.4082
vn 0.4083 -0.8165 -0.4082
vn 0.0000 -0.7071 -0.7071
vn 0.0000 0.7071 -0.7071
vn 0.9487 0.0000 -0.3162
vn 0.3937 -0.7220 -0.5689
vn 0.4154 -0.7243 -0.5503
vn 0.4066 -0.6997 -0.5875
vn 0.3114 -0.7528 -0.5800
vn 0.3252 -0.7749 -0.5420
vn 0.3388 -0.7526 -0.5646
vn 0.3321 0.8120 -0.4799
vn 0.4757 0.7398 -0.4757
vn 0.0000 -0.8944 -0.4472
vn 0.4083 -0.8165 -0.4083
vn 0.4077 -0.8162 -0.4094
vn 0.4074 -0.8173 -0.4075
vn 0.4094 -0.8172 -0.4056
vn 0.4113 -0.8162 -0.4058
vn 0.4102 -0.8165 -0.4063
vn 0.0000 -0.4472 -0.8944
vn 0.5169 0.8058 -0.2889
vn 0.5813 0.7872 -0.2058
vn 0.4271 0.8721 -0.2387
vn 0.4519 0.5976 -0.6624
vn 0.6124 0.5070 -0.6066
vn 0.5373 0.6543 -0.5322
vn 0.6110 -0.7143 -0.3414
vn 0.6011 -0.7251 -0.3359
vn 0.6180 -0.7126 -0.3321
vn 0.6278 -0.6828 -0.3738
vn 0.6104 -0.6943 -0.3813
vn 0.6162 -0.6969 -0.3669
vn 0.3216 0.0000 -0.9469
vn 0.4867 -0.8111 -0.3244
vn 0.3355 -0.9151 -0.2237
vn 0.5328 -0.8022 -0.2694
vn 0.6668 -0.3453 -0.6605
vn 0.5141 -0.5270 -0.6768
vn 0.5755 -0.5863 -0.5701
vn 0.7071 -0.7071 0.0000
vn 0.7071 0.7071 0.0000
vn 0.8944 -0.4472 0.0000
vn 0.4472 -0.8944 0.0000
vn 0.4867 0.8111 -0.3244
vn 0.5328 0.8022 -0.2694
vn 0.3355 0.9151 -0.2237
vn 0.5141 0.5270 -0.6768
vn 0.6667 0.3453 -0.6605
vn 0.5755 0.5863 -0.5701
vn 0.4082 0.8165 -0.4082
vn 0.4082 0.8165 -0.4083
vn 0.4082 -0.8165 0.4082
vn 0.4082 -0.8165 0.4083
vn 0.3162 0.0000 0.9487
vn 0.5689 -0.7220 0.3937
vn 0.5503 -0.7243 0.4154
vn 0.5875 -0.6997 0.4066
vn 0.5800 -0.7528 0.3114
vn 0.5420 -0.7749 0.3252
vn 0.5646 -0.7526 0.3388
vn 0.4799 0.8120 0.3321
vn 0.4321 0.8508 0.2991
vn 0.5264 0.8037 0.2773
vn 0.5201 0.6775 0.5201
vn 0.4207 0.7241 0.5466
vn 0.4757 0.7398 0.4757
vn 0.4094 -0.8162 0.4077
vn 0.4075 -0.8172 0.4075
vn 0.4056 -0.8173 0.4094
vn 0.4057 -0.8162 0.4113
vn 0.4063 -0.8165 0.4102
vn 0.2889 0.8058 0.5169
vn 0.2058 0.7872 0.5813
vn 0.2387 0.8721 0.4271
vn 0.6624 0.5975 0.4519
vn 0.6066 0.5070 0.6124
vn 0.5322 0.6543 0.5373
vn 0.3414 -0.7143 0.6110
vn 0.3359 -0.7251 0.6011
vn 0.3321 -0.7126 0.6180
vn 0.3738 -0.6828 0.6277
vn 0.3813 -0.6943 0.6104
vn 0.3669 -0.6969 0.6162
vn 0.9469 0.0000 0.3216
vn 0.3244 -0.8111 0.4867
vn 0.2237 -0.9151 0.3355
vn 0.2694 -0.8022 0.5328
vn 0.6605 -0.3453 0.6667
vn 0.6768 -0.5269 0.5141
vn 0.5701 -0.5863 0.5755
vn 0.0000 -0.7071 0.7071
vn 0.0000 0.7071 0.7071
vn 0.0000 -0.4472 0.8944
vn 0.0000 -0.8944 0.4472
vn 0.3244 0.8111 0.4867
vn 0.2694 0.8022 0.5328
vn 0.2237 0.9151 0.3355
vn 0.6768 0.5269 0.5141
vn 0.6605 0.3453 0.6667
vn 0.5701 0.5863 0.5755
vn 0.4082 0.8165 0.4082
vn 0.4083 0.8165 0.4083
vn -0.4082 -0.8165 -0.4082
vn -0.7071 -0.7071 0.0000
vn -0.7071 0.7071 0.0000
vn -0.3162 0.0000 -0.9487
vn -0.5689 -0.7220 -0.3937
vn -0.5646 -0.7526 -0.3388
vn -0.4799 0.8120 -0.3321
vn -0.4321 0.8508 -0.2991
vn -0.5264 0.8037 -0.2773
vn -0.5201 0.6775 -0.5201
vn -0.4207 0.7241 -0.5466
vn -0.4757 0.7398 -0.4757
vn -0.4472 -0.8944 0.0000
vn -0.4083 -0.8165 -0.4082
vn -0.4095 -0.8162 -0.4076
vn -0.4074 -0.8173 -0.4074
vn -0.4056 -0.8173 -0.4094
vn -0.4057 -0.8162 -0.4113
vn -0.4063 -0.8165 -0.4102
vn -0.8944 -0.4472 0.0000
vn -0.2889 0.8058 -0.5169
vn -0.2058 0.7872 -0.5813
vn -0.2387 0.8721 -0.4271
vn -0.6624 0.5976 -0.4519
vn -0.6066 0.5070 -0.6124
vn -0.5322 0.6543 -0.5372
vn -0.3414 -0.7143 -0.6110
vn -0.3359 -0.7251 -0.6011
vn -0.3321 -0.7126 -0.6180
vn -0.3738 -0.6828 -0.6277
vn -0.3813 -0.6943 -0.6104
vn -0.3669 -0.6969 -0.6162
vn -0.9469 0.0000 -0.3216
vn -0.3244 -0.8111 -0.4867
vn -0.2237 -0.9151 -0.3355
vn -0.2694 -0.8022 -0.5328
vn -0.6605 -0.3453 -0.6667
vn -0.6768 -0.5269 -0.5141
vn -0.5701 -0.5863 -0.5755
vn -0.3244 0.8111 -0.4867
vn -0.2694 0.8022 -0.5328
vn -0.2237 0.9151 -0.3355
vn -0.6767 0.5270 -0.5142
vn -0.6605 0.3453 -0.6667
vn -0.5701 0.5863 -0.5755
vn -0.4082 0.8165 -0.4082
vn -0.4082 -0.8165 0.4082
vn -0.4082 -0.8165 0.4083
vn -0.9487 0.0000 0.3162
vn -0.3937 -0.7220 0.5689
vn -0.4154 -0.7243 0.5503
vn -0.4066 -0.6997 0.5875
vn -0.3114 -0.7528 0.5799
vn -0.3252 -0.7749 0.5420
vn -0.3388 -0.7526 0.5646
vn -0.3321 0.8120 0.4799
vn -0.2991 0.8508 0.4321
vn -0.2772 0.8037 0.5265
vn -0.5201 0.6775 0.5201
vn -0.5466 0.7241 0.4207
vn -0.4757 0.7398 0.4757
vn -0.5169 0.8058 0.2889
vn -0.5813 0.7872 0.2059
vn -0.4271 0.8721 0.2387
vn -0.4519 0.5976 0.6624
vn -0.6124 0.5069 0.6066
vn -0.5373 0.6543 0.5322
vn -0.6110 -0.7143 0.3414
vn -0.6011 -0.7252 0.3359
vn -0.6180 -0.7126 0.3321
vn -0.6278 -0.6828 0.3738
vn -0.6104 -0.6943 0.3813
vn -0.6162 -0.6969 0.3669
vn -0.3216 0.0000 0.9469
vn -0.4867 -0.8111 0.3244
vn -0.3355 -0.9151 0.2237
vn -0.5328 -0.8022 0.2694
vn -0.6668 -0.3453 0.6605
vn -0.5141 -0.5270 0.6767
vn -0.5755 -0.5863 0.5701
vn -0.4867 0.8111 0.3244
vn -0.5328 0.8022 0.2694
vn -0.3355 0.9151 0.2237
vn -0.5141 0.5269 0.6768
vn -0.6667 0.3453 0.6605
vn -0.5755 0.5863 0.5701
vn -0.4082 0.8165 0.4083
vn -0.4082 0.8165 0.4082
vn 0.4153 -0.7243 -0.5504
vn 0.4065 -0.6997 -0.5875
vn 0.3114 -0.7528 -0.5799
vn 0.2991 0.8508 -0.4321
vn 0.2772 0.8037 -0.5265
vn 0.5201 0.6775 -0.5201
vn 0.5466 0.7241 -0.4207
vn 0.4082 -0.8165 -0.4083
vn 0.4075 -0.8173 -0.4075
vn 0.4094 -0.8173 -0.4055
vn 0.6011 -0.7252 -0.3359
vn 0.6667 -0.3453 -0.6605
vn 0.5141 -0.5269 -0.6768
vn 0.5141 0.5269 -0.6768
vn 0.4074 -0.8173 0.4075
vn 0.2386 0.8721 0.4271
vn 0.6623 0.5976 0.4519
vn 0.6066 0.5070 0.6123
vn 0.5322 0.6543 0.5372
vn 0.3359 -0.7252 0.6011
vn 0.6605 -0.3452 0.6668
vn 0.6605 0.3452 0.6668
vn 0.4082 0.8165 0.4083
vn -0.4083 -0.8165 -0.4083
vn -0.5504 -0.7243 -0.4153
vn -0.5874 -0.6997 -0.4066
vn -0.5800 -0.7528 -0.3114
vn -0.5420 -0.7749 -0.3252
vn -0.4094 -0.8162 -0.4077
vn -0.4075 -0.8172 -0.4075
vn -0.4056 -0.8172 -0.4094
vn -0.4058 -0.8162 -0.4113
vn -0.2386 0.8721 -0.4271
vn -0.5322 0.6543 -0.5373
vn -0.3359 -0.7252 -0.6011
vn -0.3245 -0.8111 -0.4867
vn -0.6605 -0.3453 -0.6668
vn -0.6767 -0.5269 -0.5141
vn -0.3245 0.8111 -0.4867
vn -0.6767 0.5269 -0.5141
vn -0.6605 0.3453 -0.6668
vn -0.4083 0.8165 -0.4082
vn -0.4083 -0.8165 0.4082
vn -0.3114 -0.7528 0.5800
vn -0.2773 0.8037 0.5264
vn -0.4077 -0.8162 0.4094
vn -0.4075 -0.8173 0.4075
vn -0.4094 -0.8172 0.4056
vn -0.4113 -0.8162 0.4058
vn -0.4102 -0.8165 0.4063
vn -0.5813 0.7872 0.2058
vn -0.4519 0.5976 0.6623
vn -0.6124 0.5070 0.6066
vn -0.5372 0.6543 0.5322
vn -0.6277 -0.6828 0.3738
vn -0.6667 -0.3452 0.6605
vn -0.5141 -0.5269 0.6768
vn -0.5141 0.5270 0.6768
vn 0.0000 1.0000 -0.0000
vn 0.0000 0.0000 -1.0000
vn 1.0000 0.0000 0.0000
vn 0.0000 -1.0000 0.0000
vn 0.0000 0.0000 1.0000
vn -1.0000 -0.0000 0.0000
usemtl Tex_0073_0.dds.003
s off
f 1/1/1 3/2/1 2/3/1
f 2/3/2 3/2/2 4/4/2
f 5/5/3 7/6/3 6/7/3
f 6/7/3 7/6/3 8/8/3
f 9/9/4 11/10/4 10/11/4
f 10/11/4 11/10/4 12/12/4
f 13/13/5 15/14/5 14/15/5
f 14/15/5 15/14/5 16/16/5
f 17/17/5 19/18/5 18/19/5
f 18/19/5 19/18/5 20/20/5
f 21/21/6 23/22/7 22/23/8
f 22/23/9 23/22/10 24/24/11
f 25/25/3 27/26/3 26/27/3
f 26/27/3 27/26/3 28/28/3
f 29/29/12 31/30/12 30/31/12
f 30/31/13 31/30/13 32/32/13
f 33/33/4 35/34/4 34/35/4
f 34/35/4 35/34/4 36/36/4
f 37/37/14 39/38/14 38/39/14
f 38/39/14 39/38/14 40/40/14
f 41/41/15 43/42/16 42/43/17
f 42/43/18 43/42/19 44/44/20
f 45/45/21 47/46/21 46/47/21
f 46/47/21 47/46/21 48/48/21
f 49/49/22 51/50/23 50/51/24
f 50/51/25 51/50/26 52/52/27
f 53/53/28 55/54/29 54/55/30
f 54/55/31 55/54/32 56/56/33
f 57/57/34 59/58/34 58/59/34
f 58/59/34 59/58/34 60/60/34
f 61/61/34 63/62/34 62/63/34
f 62/63/34 63/62/34 64/64/34
f 65/65/35 67/66/36 66/67/37
f 66/67/38 67/66/39 68/68/40
f 69/69/41 71/70/41 70/71/41
f 70/71/41 71/70/41 72/72/41
f 73/73/42 75/74/42 74/75/42
f 74/75/42 75/74/42 76/76/42
f 77/77/41 79/78/41 78/79/41
f 78/79/41 79/78/41 80/80/41
f 81/81/42 83/82/42 82/83/42
f 82/83/42 83/82/42 84/84/42
f 85/85/43 87/86/43 86/87/43
f 86/87/43 87/86/43 88/88/43
f 89/89/44 91/90/44 90/91/44
f 90/91/44 91/90/44 92/92/44
f 93/93/5 95/94/5 94/95/5
f 94/95/5 95/94/5 96/96/5
f 97/97/34 99/98/34 98/99/34
f 98/99/34 99/98/34 100/100/34
f 101/101/5 103/102/5 102/103/5
f 102/103/5 103/102/5 104/104/5
f 105/105/34 107/106/34 106/107/34
f 106/107/34 107/106/34 108/108/34
f 109/109/45 111/110/46 110/111/47
f 110/111/48 111/110/49 112/112/50
f 113/113/51 115/114/51 114/115/51
f 114/115/52 115/114/52 116/116/52
f 117/117/53 119/118/53 118/119/53
f 118/119/54 119/118/54 120/120/54
f 121/121/41 123/122/41 122/123/41
f 122/123/41 123/122/41 124/124/41
f 125/125/42 127/126/42 126/127/42
f 126/127/42 127/126/42 128/128/42
f 129/129/55 131/130/55 130/131/55
f 130/131/55 131/130/55 132/132/55
f 133/133/55 135/134/55 134/135/55
f 134/135/55 135/134/55 136/136/55
f 137/137/56 139/138/57 138/139/58
f 138/139/59 139/138/60 140/140/61
f 141/141/41 143/142/41 142/143/41
f 142/143/41 143/142/41 144/144/41
f 145/145/62 147/146/63 146/147/64
f 146/147/65 147/146/66 148/148/67
f 149/149/42 151/150/42 150/151/42
f 150/151/42 151/150/42 152/152/42
f 153/153/44 155/154/44 154/155/44
f 154/155/44 155/154/44 156/156/44
f 157/157/54 159/158/68 158/159/69
f 158/159/70 159/158/71 160/160/72
f 161/161/43 163/162/43 162/163/43
f 162/163/43 163/162/43 164/164/43
f 165/165/73 167/166/74 166/167/75
f 166/167/76 167/166/77 168/168/78
f 169/169/79 171/170/80 170/171/81
f 170/171/82 171/170/83 172/172/84
f 173/173/85 175/174/85 174/175/85
f 174/175/85 175/174/85 176/176/85
f 177/177/85 179/178/85 178/179/85
f 178/179/85 179/178/85 180/180/85
f 181/181/86 183/182/87 182/183/88
f 182/183/89 183/182/90 184/184/91
f 185/185/92 187/186/92 186/187/92
f 186/187/92 187/186/92 188/188/92
f 189/189/93 191/190/93 190/191/93
f 190/191/93 191/190/93 192/192/93
f 193/193/92 195/194/92 194/195/92
f 194/195/92 195/194/92 196/196/92
f 197/197/93 199/198/93 198/199/93
f 198/199/93 199/198/93 200/200/93
f 201/201/94 203/202/94 202/203/94
f 202/203/94 203/202/94 204/204/94
f 205/205/95 207/206/95 206/207/95
f 206/207/95 207/206/95 208/208/95
f 209/209/55 211/210/55 210/211/55
f 210/211/55 211/210/55 212/212/55
f 213/213/85 215/214/85 214/215/85
f 214/215/85 215/214/85 216/216/85
f 217/217/55 219/218/55 218/219/55
f 218/219/55 219/218/55 220/220/55
f 221/221/85 223/222/85 222/223/85
f 222/223/85 223/222/85 224/224/85
f 225/225/96 227/226/97 226/227/98
f 226/227/99 227/226/100 228/228/101
f 229/229/102 231/230/102 230/231/102
f 230/231/103 231/230/103 232/232/103
f 233/233/104 235/234/104 234/235/104
f 234/235/104 235/234/104 236/236/104
f 237/237/105 239/238/105 238/239/105
f 238/239/105 239/238/105 240/240/105
f 241/241/106 243/242/106 242/243/106
f 242/243/106 243/242/106 244/244/106
f 245/245/107 247/246/107 246/247/107
f 246/247/107 247/246/107 248/248/107
f 249/249/107 251/250/107 250/251/107
f 250/251/107 251/250/107 252/252/107
f 253/253/108 255/254/108 254/255/108
f 254/255/109 255/254/109 256/256/109
f 257/257/105 259/258/105 258/259/105
f 258/259/105 259/258/105 260/260/105
f 261/261/110 263/262/111 262/263/112
f 262/263/113 263/262/114 264/264/115
f 265/265/106 267/266/106 266/267/106
f 266/267/106 267/266/106 268/268/106
f 269/269/116 271/270/116 270/271/116
f 270/271/116 271/270/116 272/272/116
f 273/273/117 275/274/118 274/275/119
f 274/275/120 275/274/121 276/276/122
f 277/277/123 279/278/123 278/279/123
f 278/279/123 279/278/123 280/280/123
f 281/281/124 283/282/125 282/283/126
f 282/283/127 283/282/128 284/284/129
f 285/285/130 287/286/131 286/287/132
f 286/287/133 287/286/134 288/288/135
f 289/289/136 291/290/136 290/291/136
f 290/291/136 291/290/136 292/292/136
f 293/293/136 295/294/136 294/295/136
f 294/295/136 295/294/136 296/296/136
f 297/297/137 299/298/138 298/299/139
f 298/299/140 299/298/141 300/300/142
f 301/301/3 303/302/3 302/303/3
f 302/303/3 303/302/3 304/304/3
f 305/305/4 307/306/4 306/307/4
f 306/307/4 307/306/4 308/308/4
f 309/309/3 311/310/3 310/311/3
f 310/311/3 311/310/3 312/312/3
f 313/313/4 315/314/4 314/315/4
f 314/315/4 315/314/4 316/316/4
f 317/317/21 319/318/21 318/319/21
f 318/319/21 319/318/21 320/320/21
f 321/321/14 323/322/14 322/323/14
f 322/323/14 323/322/14 324/324/14
f 325/325/107 327/326/107 326/327/107
f 326/327/107 327/326/107 328/328/107
f 329/329/136 331/330/136 330/331/136
f 330/331/136 331/330/136 332/332/136
f 333/333/107 335/334/107 334/335/107
f 334/335/107 335/334/107 336/336/107
f 337/337/136 339/338/136 338/339/136
f 338/339/136 339/338/136 340/340/136
f 341/341/143 343/342/144 342/343/145
f 342/343/146 343/342/147 344/344/148
f 345/345/149 347/346/149 346/347/149
f 346/347/149 347/346/149 348/348/149
f 349/349/150 351/350/150 350/351/150
f 350/351/151 351/350/151 352/352/151
f 353/353/92 355/354/92 354/355/92
f 354/355/92 355/354/92 356/356/92
f 357/357/93 359/358/93 358/359/93
f 358/359/93 359/358/93 360/360/93
f 361/361/152 363/362/152 362/363/152
f 362/363/152 363/362/152 364/364/152
f 365/365/152 367/366/152 366/367/152
f 366/367/152 367/366/152 368/368/152
f 369/369/153 371/370/154 370/371/155
f 370/371/156 371/370/157 372/372/158
f 373/373/92 375/374/92 374/375/92
f 374/375/92 375/374/92 376/376/92
f 377/377/159 379/378/160 378/379/161
f 378/379/162 379/378/163 380/380/164
f 381/381/93 383/382/93 382/383/93
f 382/383/93 383/382/93 384/384/93
f 385/385/95 387/386/95 386/387/95
f 386/387/95 387/386/95 388/388/95
f 389/389/94 391/390/94 390/391/94
f 390/391/94 391/390/94 392/392/94
f 393/393/165 395/394/166 394/395/167
f 394/395/168 395/394/169 396/396/170
f 397/397/171 399/398/172 398/399/173
f 398/399/174 399/398/175 400/400/176
f 401/401/177 403/402/177 402/403/177
f 402/403/177 403/402/177 404/404/177
f 405/405/177 407/406/177 406/407/177
f 406/407/177 407/406/177 408/408/177
f 409/409/178 411/410/179 410/411/180
f 410/411/181 411/410/182 412/412/183
f 413/413/105 415/414/105 414/415/105
f 414/415/105 415/414/105 416/416/105
f 417/417/106 419/418/106 418/419/106
f 418/419/106 419/418/106 420/420/106
f 421/421/105 423/422/105 422/423/105
f 422/423/105 423/422/105 424/424/105
f 425/425/106 427/426/106 426/427/106
f 426/427/106 427/426/106 428/428/106
f 429/429/123 431/430/123 430/431/123
f 430/431/123 431/430/123 432/432/123
f 433/433/116 435/434/116 434/435/116
f 434/435/116 435/434/116 436/436/116
f 437/437/152 439/438/152 438/439/152
f 438/439/152 439/438/152 440/440/152
f 441/441/177 443/442/177 442/443/177
f 442/443/177 443/442/177 444/444/177
f 445/445/152 447/446/152 446/447/152
f 446/447/152 447/446/152 448/448/152
f 449/449/177 451/450/177 450/451/177
f 450/451/177 451/450/177 452/452/177
f 453/453/184 455/454/185 454/455/186
f 454/455/187 455/454/188 456/456/189
f 457/457/190 459/458/190 458/459/190
f 458/459/191 459/458/191 460/460/191
f 461/461/2 463/462/2 462/463/2
f 462/463/1 463/462/1 464/464/1
f 465/465/3 467/466/3 466/467/3
f 466/467/3 467/466/3 468/468/3
f 469/469/4 471/470/4 470/471/4
f 470/471/4 471/470/4 472/472/4
f 473/473/5 475/474/5 474/475/5
f 474/475/5 475/474/5 476/476/5
f 477/477/5 479/478/5 478/479/5
f 478/479/5 479/478/5 480/480/5
f 481/481/6 483/482/192 482/483/193
f 482/483/194 483/482/10 484/484/11
f 485/485/3 487/486/3 486/487/3
f 486/487/3 487/486/3 488/488/3
f 489/489/12 491/490/195 490/491/196
f 490/491/197 491/490/198 492/492/13
f 493/493/4 495/494/4 494/495/4
f 494/495/4 495/494/4 496/496/4
f 497/497/14 499/498/14 498/499/14
f 498/499/14 499/498/14 500/500/14
f 501/501/199 503/502/16 502/503/200
f 502/503/201 503/502/19 504/504/20
f 505/505/21 507/506/21 506/507/21
f 506/507/21 507/506/21 508/508/21
f 509/509/22 511/510/22 510/511/22
f 510/511/27 511/510/27 512/512/27
f 513/513/28 515/514/202 514/515/30
f 514/515/31 515/514/32 516/516/33
f 517/517/34 519/518/34 518/519/34
f 518/519/34 519/518/34 520/520/34
f 521/521/34 523/522/34 522/523/34
f 522/523/34 523/522/34 524/524/34
f 525/525/35 527/526/36 526/527/37
f 526/527/203 527/526/204 528/528/40
f 529/529/41 531/530/41 530/531/41
f 530/531/41 531/530/41 532/532/41
f 533/533/42 535/534/42 534/535/42
f 534/535/42 535/534/42 536/536/42
f 537/537/41 539/538/41 538/539/41
f 538/539/41 539/538/41 540/540/41
f 541/541/42 543/542/42 542/543/42
f 542/543/42 543/542/42 544/544/42
f 545/545/43 547/546/43 546/547/43
f 546/547/43 547/546/43 548/548/43
f 549/549/44 551/550/44 550/551/44
f 550/551/44 551/550/44 552/552/44
f 553/553/5 555/554/5 554/555/5
f 554/555/5 555/554/5 556/556/5
f 557/557/34 559/558/34 558/559/34
f 558/559/34 559/558/34 560/560/34
f 561/561/5 563/562/5 562/563/5
f 562/563/5 563/562/5 564/564/5
f 565/565/34 567/566/34 566/567/34
f 566/567/34 567/566/34 568/568/34
f 569/569/45 571/570/46 570/571/47
f 570/571/205 571/570/49 572/572/50
f 573/573/52 575/574/52 574/575/52
f 574/575/51 575/574/51 576/576/51
f 577/577/53 579/578/53 578/579/53
f 578/579/54 579/578/54 580/580/54
f 581/581/41 583/582/41 582/583/41
f 582/583/41 583/582/41 584/584/41
f 585/585/42 587/586/42 586/587/42
f 586/587/42 587/586/42 588/588/42
f 589/589/55 591/590/55 590/591/55
f 590/591/55 591/590/55 592/592/55
f 593/593/55 595/594/55 594/595/55
f 594/595/55 595/594/55 596/596/55
f 597/597/56 599/598/57 598/599/58
f 598/599/59 599/598/60 600/600/61
f 601/601/41 603/602/41 602/603/41
f 602/603/41 603/602/41 604/604/41
f 605/605/62 607/606/63 606/607/64
f 606/607/65 607/606/66 608/608/67
f 609/609/42 611/610/42 610/611/42
f 610/611/42 611/610/42 612/612/42
f 613/613/44 615/614/44 614/615/44
f 614/615/44 615/614/44 616/616/44
f 617/617/54 619/618/68 618/619/206
f 618/619/70 619/618/71 620/620/72
f 621/621/43 623/622/43 622/623/43
f 622/623/43 623/622/43 624/624/43
f 625/625/73 627/626/74 626/627/207
f 626/627/208 627/626/209 628/628/210
f 629/629/79 631/630/211 630/631/81
f 630/631/82 631/630/83 632/632/84
f 633/633/85 635/634/85 634/635/85
f 634/635/85 635/634/85 636/636/85
f 637/637/85 639/638/85 638/639/85
f 638/639/85 639/638/85 640/640/85
f 641/641/86 643/642/87 642/643/88
f 642/643/212 643/642/90 644/644/91
f 645/645/92 647/646/92 646/647/92
f 646/647/92 647/646/92 648/648/92
f 649/649/93 651/650/93 650/651/93
f 650/651/93 651/650/93 652/652/93
f 653/653/92 655/654/92 654/655/92
f 654/655/92 655/654/92 656/656/92
f 657/657/93 659/658/93 658/659/93
f 658/659/93 659/658/93 660/660/93
f 661/661/94 663/662/94 662/663/94
f 662/663/94 663/662/94 664/664/94
f 665/665/95 667/666/95 666/667/95
f 666/667/95 667/666/95 668/668/95
f 669/669/55 671/670/55 670/671/55
f 670/671/55 671/670/55 672/672/55
f 673/673/85 675/674/85 674/675/85
f 674/675/85 675/674/85 676/676/85
f 677/677/55 679/678/55 678/679/55
f 678/679/55 679/678/55 680/680/55
f 681/681/85 683/682/85 682/683/85
f 682/683/85 683/682/85 684/684/85
f 685/685/96 687/686/97 686/687/98
f 686/687/99 687/686/213 688/688/101
f 689/689/102 691/690/102 690/691/102
f 690/691/214 691/690/214 692/692/214
f 693/693/215 695/694/215 694/695/215
f 694/695/104 695/694/104 696/696/104
f 697/697/105 699/698/105 698/699/105
f 698/699/105 699/698/105 700/700/105
f 701/701/106 703/702/106 702/703/106
f 702/703/106 703/702/106 704/704/106
f 705/705/107 707/706/107 706/707/107
f 706/707/107 707/706/107 708/708/107
f 709/709/107 711/710/107 710/711/107
f 710/711/107 711/710/107 712/712/107
f 713/713/108 715/714/216 714/715/217
f 714/715/218 715/714/219 716/716/109
f 717/717/105 719/718/105 718/719/105
f 718/719/105 719/718/105 720/720/105
f 721/721/110 723/722/111 722/723/112
f 722/723/113 723/722/114 724/724/115
f 725/725/106 727/726/106 726/727/106
f 726/727/106 727/726/106 728/728/106
f 729/729/116 731/730/116 730/731/116
f 730/731/116 731/730/116 732/732/116
f 733/733/117 735/734/220 734/735/221
f 734/735/222 735/734/223 736/736/122
f 737/737/123 739/738/123 738/739/123
f 738/739/123 739/738/123 740/740/123
f 741/741/124 743/742/125 742/743/224
f 742/743/127 743/742/128 744/744/225
f 745/745/130 747/746/226 746/747/132
f 746/747/133 747/746/134 748/748/135
f 749/749/136 751/750/136 750/751/136
f 750/751/136 751/750/136 752/752/136
f 753/753/136 755/754/136 754/755/136
f 754/755/136 755/754/136 756/756/136
f 757/757/227 759/758/138 758/759/139
f 758/759/228 759/758/229 760/760/142
f 761/761/3 763/762/3 762/763/3
f 762/763/3 763/762/3 764/764/3
f 765/765/4 767/766/4 766/767/4
f 766/767/4 767/766/4 768/768/4
f 769/769/3 771/770/3 770/771/3
f 770/771/3 771/770/3 772/772/3
f 773/773/4 775/774/4 774/775/4
f 774/775/4 775/774/4 776/776/4
f 777/777/21 779/778/21 778/779/21
f 778/779/21 779/778/21 780/780/21
f 781/781/14 783/782/14 782/783/14
f 782/783/14 783/782/14 784/784/14
f 785/785/107 787/786/107 786/787/107
f 786/787/107 787/786/107 788/788/107
f 789/789/136 791/790/136 790/791/136
f 790/791/136 791/790/136 792/792/136
f 793/793/107 795/794/107 794/795/107
f 794/795/107 795/794/107 796/796/107
f 797/797/136 799/798/136 798/799/136
f 798/799/136 799/798/136 800/800/136
f 801/801/230 803/802/144 802/803/145
f 802/803/231 803/802/232 804/804/148
f 805/805/233 807/806/233 806/807/233
f 806/807/149 807/806/149 808/808/149
f 809/809/150 811/810/150 810/811/150
f 810/811/234 811/810/234 812/812/234
f 813/813/92 815/814/92 814/815/92
f 814/815/92 815/814/92 816/816/92
f 817/817/93 819/818/93 818/819/93
f 818/819/93 819/818/93 820/820/93
f 821/821/152 823/822/152 822/823/152
f 822/823/152 823/822/152 824/824/152
f 825/825/152 827/826/152 826/827/152
f 826/827/152 827/826/152 828/828/152
f 829/829/153 831/830/154 830/831/155
f 830/831/235 831/830/157 832/832/158
f 833/833/92 835/834/92 834/835/92
f 834/835/92 835/834/92 836/836/92
f 837/837/159 839/838/160 838/839/236
f 838/839/162 839/838/163 840/840/164
f 841/841/93 843/842/93 842/843/93
f 842/843/93 843/842/93 844/844/93
f 845/845/95 847/846/95 846/847/95
f 846/847/95 847/846/95 848/848/95
f 849/849/234 851/850/237 850/851/238
f 850/851/239 851/850/240 852/852/241
f 853/853/94 855/854/94 854/855/94
f 854/855/94 855/854/94 856/856/94
f 857/857/165 859/858/242 858/859/167
f 858/859/243 859/858/244 860/860/245
f 861/861/171 863/862/172 862/863/173
f 862/863/246 863/862/175 864/864/176
f 865/865/177 867/866/177 866/867/177
f 866/867/177 867/866/177 868/868/177
f 869/869/177 871/870/177 870/871/177
f 870/871/177 871/870/177 872/872/177
f 873/873/178 875/874/179 874/875/180
f 874/875/247 875/874/248 876/876/183
f 877/877/105 879/878/105 878/879/105
f 878/879/105 879/878/105 880/880/105
f 881/881/106 883/882/106 882/883/106
f 882/883/106 883/882/106 884/884/106
f 885/885/105 887/886/105 886/887/105
f 886/887/105 887/886/105 888/888/105
f 889/889/106 891/890/106 890/891/106
f 890/891/106 891/890/106 892/892/106
f 893/893/123 895/894/123 894/895/123
f 894/895/123 895/894/123 896/896/123
f 897/897/116 899/898/116 898/899/116
f 898/899/116 899/898/116 900/900/116
f 901/901/152 903/902/152 902/903/152
f 902/903/152 903/902/152 904/904/152
f 905/905/177 907/906/177 906/907/177
f 906/907/177 907/906/177 908/908/177
f 909/909/152 911/910/152 910/911/152
f 910/911/152 911/910/152 912/912/152
f 913/913/177 915/914/177 914/915/177
f 914/915/177 915/914/177 916/916/177
f 917/917/184 919/918/185 918/919/186
f 918/919/249 919/918/188 920/920/189
f 921/921/191 923/922/191 922/923/191
f 922/923/190 923/922/190 924/924/190
f 925/925/250 927/926/250 926/927/250
f 928/928/250 930/929/250 929/930/250
f 931/931/251 933/932/251 932/933/251
f 934/934/252 936/935/252 935/936/252
f 937/937/253 939/938/253 938/939/253
f 940/940/253 942/941/253 941/942/253
f 943/943/250 945/944/250 944/945/250
f 946/946/250 948/947/250 947/948/250
f 949/949/252 951/950/252 950/951/252
f 952/952/254 954/953/254 953/954/254
f 955/955/253 957/956/253 956/957/253
f 958/958/253 960/959/253 959/960/253
f 961/961/250 963/962/250 962/963/250
f 964/964/250 966/965/250 965/966/250
f 967/967/255 969/968/255 968/969/255
f 970/970/251 972/971/251 971/972/251
f 973/973/253 975/974/253 974/975/253
f 976/976/253 978/977/253 977/978/253
f 979/979/250 981/980/250 980/981/250
f 982/982/250 984/983/250 983/984/250
f 985/985/254 987/986/254 986/987/254
f 988/988/255 990/989/255 989/990/255
f 991/991/253 993/992/253 992/993/253
f 994/994/253 996/995/253 995/996/253
f 997/997/250 999/998/250 998/999/250
f 1000/1000/250 1002/1001/250 1001/1002/250
f 1003/1003/251 1005/1004/251 1004/1005/251
f 1006/1006/252 1008/1007/252 1007/1008/252
f 1009/1009/253 1011/1010/253 1010/1011/253
f 1012/1012/253 1014/1013/253 1013/1014/253
f 1015/1015/250 1017/1016/250 1016/1017/250
f 1018/1018/250 1020/1019/250 1019/1020/250
f 1021/1021/252 1023/1022/252 1022/1023/252
f 1024/1024/254 1026/1025/254 1025/1026/254
f 1027/1027/253 1029/1028/253 1028/1029/253
f 1030/1030/253 1032/1031/253 1031/1032/253
f 1033/1033/250 1035/1034/250 1034/1035/250
f 1036/1036/250 1038/1037/250 1037/1038/250
f 1039/1039/255 1041/1040/255 1040/1041/255
f 1042/1042/251 1044/1043/251 1043/1044/251
f 1045/1045/253 1047/1046/253 1046/1047/253
f 1048/1048/253 1050/1049/253 1049/1050/253
f 1051/1051/250 1053/1052/250 1052/1053/250
f 1054/1054/250 1056/1055/250 1055/1056/250
f 1057/1057/254 1059/1058/254 1058/1059/254
f 1060/1060/255 1062/1061/255 1061/1062/255
f 1063/1063/253 1065/1064/253 1064/1065/253
f 1066/1066/253 1068/1067/253 1067/1068/253
