# Blender v3.6.3 OBJ File: 'untitled.blend'
# www.blender.org
mtllib Mesh_0257.mtl
o Mesh_0257_Mesh.067
v -7.063601 35.558743 -18.764305
v -8.651100 35.558743 -18.764305
v -7.063601 35.241245 -18.764305
v -8.651100 35.241245 -18.764305
v -8.651100 13.809997 -18.129307
v -7.063601 13.809997 -18.129307
v -8.651100 14.286247 -17.811806
v -8.016100 14.286247 -17.811806
v -7.063601 35.558743 -18.129314
v -7.063601 35.241245 -18.129307
v -6.428600 35.558743 -18.129314
v -6.428600 35.241245 -18.129307
v -7.063601 35.558743 -18.129314
v -7.063601 35.558743 -18.764305
v -7.063601 35.241245 -18.129307
v -7.063601 35.241245 -18.764305
v -7.381100 14.286248 -16.859306
v -7.381100 14.286248 -17.173798
v -7.063601 13.809998 -16.859306
v -7.063601 13.809997 -18.129307
v -6.428600 35.558743 -16.859306
v -6.428600 35.558743 -18.129314
v -6.428600 35.241245 -16.859306
v -6.428600 35.241245 -18.129307
v -6.428600 35.558743 -15.271805
v -6.428600 35.558743 -16.859306
v -6.428600 35.241245 -15.271805
v -6.428600 35.241245 -16.859306
v -7.063601 13.809998 -16.859306
v -7.063599 13.809998 -15.271805
v -7.381100 14.286248 -16.859306
v -7.381100 14.286248 -16.224304
v -7.063599 35.558743 -15.271805
v -7.063599 35.241245 -15.271805
v -7.063599 35.558743 -14.636806
v -7.063599 35.241245 -14.636806
v -7.063599 35.558743 -15.271805
v -6.428600 35.558743 -15.271805
v -7.063599 35.241245 -15.271805
v -6.428600 35.241245 -15.271805
v -8.333601 14.286248 -15.589306
v -8.019104 14.286248 -15.589306
v -8.333601 13.809998 -15.271805
v -7.063599 13.809998 -15.271805
v -8.333601 35.558743 -14.636806
v -7.063599 35.558743 -14.636806
v -8.333601 35.241245 -14.636806
v -7.063599 35.241245 -14.636806
v -10.556101 35.558743 -18.129307
v -10.556101 35.558743 -16.541805
v -10.556101 35.241245 -18.129307
v -10.556101 35.241245 -16.541805
v -9.921101 13.809998 -16.541805
v -9.921104 13.809997 -18.129307
v -9.603600 14.286248 -16.541805
v -9.603600 14.286248 -17.176804
v -9.921104 35.558743 -18.129307
v -9.921104 35.241245 -18.129307
v -9.921104 35.558743 -18.764305
v -9.921104 35.241245 -18.764305
v -9.921104 35.558743 -18.129307
v -10.556101 35.558743 -18.129307
v -9.921104 35.241245 -18.129307
v -10.556101 35.241245 -18.129307
v -8.651100 14.286247 -17.811806
v -8.965595 14.286247 -17.811806
v -8.651100 13.809997 -18.129307
v -9.921104 13.809997 -18.129307
v -8.651100 35.558743 -18.764305
v -9.921104 35.558743 -18.764305
v -8.651100 35.241245 -18.764305
v -9.921104 35.241245 -18.764305
v -9.921101 35.558743 -14.636806
v -8.333601 35.558743 -14.636806
v -9.921101 35.241245 -14.636806
v -8.333601 35.241245 -14.636806
v -8.333601 13.809998 -15.271805
v -9.921101 13.809998 -15.271805
v -8.333601 14.286248 -15.589306
v -8.968599 14.286248 -15.589306
v -9.921101 35.558743 -15.271797
v -9.921101 35.241245 -15.271805
v -10.556101 35.558743 -15.271797
v -10.556101 35.241245 -15.271805
v -9.921101 35.558743 -15.271797
v -9.921101 35.558743 -14.636806
v -9.921101 35.241245 -15.271805
v -9.921101 35.241245 -14.636806
v -9.603600 14.286248 -16.541805
v -9.603600 14.286248 -16.227314
v -9.921101 13.809998 -16.541805
v -9.921101 13.809998 -15.271805
v -10.556101 35.558743 -16.541805
v -10.556101 35.558743 -15.271797
v -10.556101 35.241245 -16.541805
v -10.556101 35.241245 -15.271805
v -7.069145 35.558743 9.490089
v -8.656645 35.558743 9.490089
v -7.069145 35.241245 9.490089
v -8.656645 35.241245 9.490089
v -8.656645 13.809998 10.125092
v -7.069145 13.809998 10.125092
v -8.656645 14.286248 10.442589
v -8.021645 14.286248 10.442589
v -7.069145 35.558743 10.125084
v -7.069145 35.241245 10.125092
v -6.434145 35.558743 10.125084
v -6.434145 35.241245 10.125092
v -7.069145 35.558743 10.125084
v -7.069145 35.558743 9.490089
v -7.069145 35.241245 10.125092
v -7.069145 35.241245 9.490089
v -7.386644 14.286247 11.395088
v -7.386644 14.286247 11.080597
v -7.069145 13.809997 11.395088
v -7.069145 13.809998 10.125092
v -6.434145 35.558743 11.395088
v -6.434145 35.558743 10.125084
v -6.434145 35.241245 11.395088
v -6.434145 35.241245 10.125092
v -6.434145 35.558743 12.982590
v -6.434145 35.558743 11.395088
v -6.434145 35.241245 12.982590
v -6.434145 35.241245 11.395088
v -7.069145 13.809997 11.395088
v -7.069141 13.809997 12.982590
v -7.386644 14.286247 11.395088
v -7.386644 14.286247 12.030090
v -7.069141 35.558743 12.982590
v -7.069141 35.241245 12.982590
v -7.069141 35.558743 13.617592
v -7.069141 35.241245 13.617592
v -7.069141 35.558743 12.982590
v -6.434145 35.558743 12.982590
v -7.069141 35.241245 12.982590
v -6.434145 35.241245 12.982590
v -8.339144 14.286247 12.665092
v -8.024649 14.286247 12.665092
v -8.339144 13.809997 12.982590
v -7.069141 13.809997 12.982590
v -8.339144 35.558743 13.617592
v -7.069141 35.558743 13.617592
v -8.339144 35.241245 13.617592
v -7.069141 35.241245 13.617592
v -10.561644 35.558743 10.125092
v -10.561644 35.558743 11.712593
v -10.561644 35.241245 10.125092
v -10.561644 35.241245 11.712593
v -9.926645 13.809997 11.712585
v -9.926649 13.809998 10.125092
v -9.609144 14.286247 11.712585
v -9.609144 14.286247 11.077591
v -9.926649 35.558743 10.125092
v -9.926649 35.241245 10.125092
v -9.926649 35.558743 9.490089
v -9.926649 35.241245 9.490089
v -9.926649 35.558743 10.125092
v -10.561644 35.558743 10.125092
v -9.926649 35.241245 10.125092
v -10.561644 35.241245 10.125092
v -8.656645 14.286248 10.442589
v -8.971140 14.286248 10.442589
v -8.656645 13.809998 10.125092
v -9.926649 13.809998 10.125092
v -8.656645 35.558743 9.490089
v -9.926649 35.558743 9.490089
v -8.656645 35.241245 9.490089
v -9.926649 35.241245 9.490089
v -9.926645 35.558743 13.617592
v -8.339144 35.558743 13.617592
v -9.926645 35.241245 13.617592
v -8.339144 35.241245 13.617592
v -8.339144 13.809997 12.982590
v -9.926645 13.809997 12.982590
v -8.339144 14.286247 12.665092
v -8.974144 14.286247 12.665092
v -9.926645 35.558743 12.982590
v -9.926645 35.241245 12.982590
v -10.561644 35.558743 12.982590
v -10.561644 35.241245 12.982590
v -9.926645 35.558743 12.982590
v -9.926645 35.558743 13.617592
v -9.926645 35.241245 12.982590
v -9.926645 35.241245 13.617592
v -9.609144 14.286247 11.712585
v -9.609144 14.286247 12.027084
v -9.926645 13.809997 11.712585
v -9.926645 13.809997 12.982590
v -10.561644 35.558743 11.712593
v -10.561644 35.558743 12.982590
v -10.561644 35.241245 11.712593
v -10.561644 35.241245 12.982590
v -7.698601 14.286247 -17.494305
v -7.063601 13.809997 -18.129307
v -7.381100 14.286248 -17.173798
v -7.698601 14.286247 -17.494305
v -8.016100 14.286247 -17.811806
v -7.063601 13.809997 -18.129307
v -7.698601 14.286248 -15.906807
v -7.063599 13.809998 -15.271805
v -8.019104 14.286248 -15.589306
v -7.698601 14.286248 -15.906807
v -7.381100 14.286248 -16.224304
v -7.063599 13.809998 -15.271805
v -9.286100 14.286247 -17.494305
v -9.921104 13.809997 -18.129307
v -8.965595 14.286247 -17.811806
v -9.286100 14.286247 -17.494305
v -9.603600 14.286248 -17.176804
v -9.921104 13.809997 -18.129307
v -9.286100 14.286248 -15.906807
v -9.921101 13.809998 -15.271805
v -9.603600 14.286248 -16.227314
v -9.286100 14.286248 -15.906807
v -8.968599 14.286248 -15.589306
v -9.921101 13.809998 -15.271805
v -7.704145 14.286248 10.760086
v -7.069145 13.809998 10.125092
v -7.386644 14.286247 11.080597
v -7.704145 14.286248 10.760086
v -8.021645 14.286248 10.442589
v -7.069145 13.809998 10.125092
v -7.704145 14.286247 12.347588
v -7.069141 13.809997 12.982590
v -8.024649 14.286247 12.665092
v -7.704145 14.286247 12.347588
v -7.386644 14.286247 12.030090
v -7.069141 13.809997 12.982590
v -9.291645 14.286247 12.347588
v -9.926645 13.809997 12.982590
v -9.609144 14.286247 12.027084
v -9.291645 14.286247 12.347588
v -8.974144 14.286247 12.665092
v -9.926645 13.809997 12.982590
vt 1.497070 -0.013672
vt 1.497070 -0.388672
vt 1.997070 -0.013672
vt 1.997070 -0.388672
vt 1.997070 -1.153320
vt 1.997070 -0.513672
vt 0.998047 -1.153320
vt 1.668945 -0.513672
vt 0.998047 -0.013672
vt -0.000977 -0.013672
vt 0.998047 -0.388672
vt -0.000977 -0.388672
vt 0.998047 -0.013672
vt 0.998047 -0.388672
vt 1.497070 -0.013672
vt 1.497070 -0.388672
vt -0.000977 -0.529297
vt -0.000977 -1.153320
vt 0.373047 -0.529297
vt 0.998047 -1.153320
vt -1.000000 -0.013672
vt -1.000000 -0.388672
vt -0.000977 -0.013672
vt -0.000977 -0.388672
vt 1.497070 -0.013672
vt 1.497070 -0.388672
vt 1.997070 -0.013672
vt 1.997070 -0.388672
vt 1.997070 -1.153320
vt 1.997070 -0.513672
vt 0.998047 -1.153320
vt 1.668945 -0.513672
vt 0.998047 -0.013672
vt -0.000977 -0.013672
vt 0.998047 -0.388672
vt -0.000977 -0.388672
vt 0.998047 -0.013672
vt 0.998047 -0.388672
vt 1.497070 -0.013672
vt 1.497070 -0.388672
vt -0.000977 -0.529297
vt -0.000977 -1.153320
vt 0.373047 -0.529297
vt 0.998047 -1.153320
vt -1.000000 -0.013672
vt -1.000000 -0.388672
vt -0.000977 -0.013672
vt -0.000977 -0.388672
vt 1.497070 -0.013672
vt 1.497070 -0.388672
vt 1.997070 -0.013672
vt 1.997070 -0.388672
vt 1.997070 -1.153320
vt 1.997070 -0.513672
vt 0.998047 -1.153320
vt 1.668945 -0.513672
vt 0.998047 -0.013672
vt -0.000977 -0.013672
vt 0.998047 -0.388672
vt -0.000977 -0.388672
vt 0.998047 -0.013672
vt 0.998047 -0.388672
vt 1.497070 -0.013672
vt 1.497070 -0.388672
vt -0.000977 -0.529297
vt -0.000977 -1.153320
vt 0.373047 -0.529297
vt 0.998047 -1.153320
vt -1.000000 -0.013672
vt -1.000000 -0.388672
vt -0.000977 -0.013672
vt -0.000977 -0.388672
vt 1.497070 -0.013672
vt 1.497070 -0.388672
vt 1.997070 -0.013672
vt 1.997070 -0.388672
vt 1.997070 -1.153320
vt 1.997070 -0.513672
vt 0.998047 -1.153320
vt 1.668945 -0.513672
vt 0.998047 -0.013672
vt -0.000977 -0.013672
vt 0.998047 -0.388672
vt -0.000977 -0.388672
vt 0.998047 -0.013672
vt 0.998047 -0.388672
vt 1.497070 -0.013672
vt 1.497070 -0.388672
vt -0.000977 -0.529297
vt -0.000977 -1.153320
vt 0.373047 -0.529297
vt 0.998047 -1.153320
vt -1.000000 -0.013672
vt -1.000000 -0.388672
vt -0.000977 -0.013672
vt -0.000977 -0.388672
vt 1.497070 -0.013672
vt 1.497070 -0.388672
vt 1.997070 -0.013672
vt 1.997070 -0.388672
vt 1.997070 -1.153320
vt 1.997070 -0.513672
vt 0.998047 -1.153320
vt 1.668945 -0.513672
vt 0.998047 -0.013672
vt -0.000977 -0.013672
vt 0.998047 -0.388672
vt -0.000977 -0.388672
vt 0.998047 -0.013672
vt 0.998047 -0.388672
vt 1.497070 -0.013672
vt 1.497070 -0.388672
vt -0.000977 -0.529297
vt -0.000977 -1.153320
vt 0.373047 -0.529297
vt 0.998047 -1.153320
vt -1.000000 -0.013672
vt -1.000000 -0.388672
vt -0.000977 -0.013672
vt -0.000977 -0.388672
vt 1.497070 -0.013672
vt 1.497070 -0.388672
vt 1.997070 -0.013672
vt 1.997070 -0.388672
vt 1.997070 -1.153320
vt 1.997070 -0.513672
vt 0.998047 -1.153320
vt 1.668945 -0.513672
vt 0.998047 -0.013672
vt -0.000977 -0.013672
vt 0.998047 -0.388672
vt -0.000977 -0.388672
vt 0.998047 -0.013672
vt 0.998047 -0.388672
vt 1.497070 -0.013672
vt 1.497070 -0.388672
vt -0.000977 -0.529297
vt -0.000977 -1.153320
vt 0.373047 -0.529297
vt 0.998047 -1.153320
vt -1.000000 -0.013672
vt -1.000000 -0.388672
vt -0.000977 -0.013672
vt -0.000977 -0.388672
vt 1.497070 -0.013672
vt 1.497070 -0.388672
vt 1.997070 -0.013672
vt 1.997070 -0.388672
vt 1.997070 -1.153320
vt 1.997070 -0.513672
vt 0.998047 -1.153320
vt 1.668945 -0.513672
vt 0.998047 -0.013672
vt -0.000977 -0.013672
vt 0.998047 -0.388672
vt -0.000977 -0.388672
vt 0.998047 -0.013672
vt 0.998047 -0.388672
vt 1.497070 -0.013672
vt 1.497070 -0.388672
vt -0.000977 -0.529297
vt -0.000977 -1.153320
vt 0.373047 -0.529297
vt 0.998047 -1.153320
vt -1.000000 -0.013672
vt -1.000000 -0.388672
vt -0.000977 -0.013672
vt -0.000977 -0.388672
vt 1.497070 -0.013672
vt 1.497070 -0.388672
vt 1.997070 -0.013672
vt 1.997070 -0.388672
vt 1.997070 -1.153320
vt 1.997070 -0.513672
vt 0.998047 -1.153320
vt 1.668945 -0.513672
vt 0.998047 -0.013672
vt -0.000977 -0.013672
vt 0.998047 -0.388672
vt -0.000977 -0.388672
vt 0.998047 -0.013672
vt 0.998047 -0.388672
vt 1.497070 -0.013672
vt 1.497070 -0.388672
vt -0.000977 -0.529297
vt -0.000977 -1.153320
vt 0.373047 -0.529297
vt 0.998047 -1.153320
vt -1.000000 -0.013672
vt -1.000000 -0.388672
vt -0.000977 -0.013672
vt -0.000977 -0.388672
vt 0.654297 -0.529297
vt 0.373047 -0.529297
vt 0.998047 -1.153320
vt 1.481445 -0.513672
vt 0.998047 -1.153320
vt 1.668945 -0.513672
vt 0.654297 -0.529297
vt 0.373047 -0.529297
vt 0.998047 -1.153320
vt 1.481445 -0.513672
vt 0.998047 -1.153320
vt 1.668945 -0.513672
vt 0.654297 -0.529297
vt 0.373047 -0.529297
vt 0.998047 -1.153320
vt 1.481445 -0.513672
vt 0.998047 -1.153320
vt 1.668945 -0.513672
vt 0.654297 -0.529297
vt 0.373047 -0.529297
vt 0.998047 -1.153320
vt 1.481445 -0.513672
vt 0.998047 -1.153320
vt 1.668945 -0.513672
vt 0.654297 -0.529297
vt 0.373047 -0.529297
vt 0.998047 -1.153320
vt 1.481445 -0.513672
vt 0.998047 -1.153320
vt 1.668945 -0.513672
vt 0.654297 -0.529297
vt 0.373047 -0.529297
vt 0.998047 -1.153320
vt 1.481445 -0.513672
vt 0.998047 -1.153320
vt 1.668945 -0.513672
vt 0.654297 -0.529297
vt 0.373047 -0.529297
vt 0.998047 -1.153320
vt 1.481445 -0.513672
vt 0.998047 -1.153320
vt 1.668945 -0.513672
vn 0.0000 0.0000 -1.0000
vn 0.0000 0.5547 -0.8321
vn 0.0000 0.5547 -0.8320
vn 1.0000 0.0000 0.0000
vn 0.8321 0.5547 0.0000
vn 0.0000 0.0000 1.0000
vn 0.0000 0.5547 0.8320
vn -1.0000 0.0000 0.0000
vn -0.8320 0.5547 0.0000
vn -0.8321 0.5547 0.0000
vn 0.8320 0.5547 0.0000
vn 0.0000 0.5547 0.8321
vn 0.3329 0.8835 -0.3297
vn 0.3313 0.8835 -0.3313
vn 0.3297 0.8835 0.3329
vn 0.3313 0.8835 0.3313
vn -0.3297 0.8835 -0.3329
vn -0.3313 0.8835 -0.3313
vn -0.3329 0.8834 0.3297
vn -0.3313 0.8835 0.3313
vn 0.3329 0.8834 -0.3297
vn 0.3297 0.8835 0.3328
vn -0.3329 0.8835 0.3297
usemtl Tex_0072_1.dds.003
s off
f 1/1/1 3/2/1 2/3/1
f 2/3/1 3/2/1 4/4/1
f 5/5/2 7/6/2 6/7/2
f 6/7/3 7/6/3 8/8/3
f 9/9/1 11/10/1 10/11/1
f 10/11/1 11/10/1 12/12/1
f 13/13/4 15/14/4 14/15/4
f 14/15/4 15/14/4 16/16/4
f 17/17/5 19/18/5 18/19/5
f 18/19/5 19/18/5 20/20/5
f 21/21/4 23/22/4 22/23/4
f 22/23/4 23/22/4 24/24/4
f 25/25/4 27/26/4 26/27/4
f 26/27/4 27/26/4 28/28/4
f 29/29/5 31/30/5 30/31/5
f 30/31/5 31/30/5 32/32/5
f 33/33/4 35/34/4 34/35/4
f 34/35/4 35/34/4 36/36/4
f 37/37/6 39/38/6 38/39/6
f 38/39/6 39/38/6 40/40/6
f 41/41/7 43/42/7 42/43/7
f 42/43/7 43/42/7 44/44/7
f 45/45/6 47/46/6 46/47/6
f 46/47/6 47/46/6 48/48/6
f 49/49/8 51/50/8 50/51/8
f 50/51/8 51/50/8 52/52/8
f 53/53/9 55/54/9 54/55/9
f 54/55/9 55/54/9 56/56/9
f 57/57/8 59/58/8 58/59/8
f 58/59/8 59/58/8 60/60/8
f 61/61/1 63/62/1 62/63/1
f 62/63/1 63/62/1 64/64/1
f 65/65/3 67/66/3 66/67/3
f 66/67/3 67/66/3 68/68/3
f 69/69/1 71/70/1 70/71/1
f 70/71/1 71/70/1 72/72/1
f 73/73/6 75/74/6 74/75/6
f 74/75/6 75/74/6 76/76/6
f 77/77/7 79/78/7 78/79/7
f 78/79/7 79/78/7 80/80/7
f 81/81/6 83/82/6 82/83/6
f 82/83/6 83/82/6 84/84/6
f 85/85/8 87/86/8 86/87/8
f 86/87/8 87/86/8 88/88/8
f 89/89/9 91/90/9 90/91/9
f 90/91/10 91/90/10 92/92/10
f 93/93/8 95/94/8 94/95/8
f 94/95/8 95/94/8 96/96/8
f 97/97/1 99/98/1 98/99/1
f 98/99/1 99/98/1 100/100/1
f 101/101/2 103/102/2 102/103/2
f 102/103/2 103/102/2 104/104/2
f 105/105/1 107/106/1 106/107/1
f 106/107/1 107/106/1 108/108/1
f 109/109/4 111/110/4 110/111/4
f 110/111/4 111/110/4 112/112/4
f 113/113/5 115/114/5 114/115/5
f 114/115/5 115/114/5 116/116/5
f 117/117/4 119/118/4 118/119/4
f 118/119/4 119/118/4 120/120/4
f 121/121/4 123/122/4 122/123/4
f 122/123/4 123/122/4 124/124/4
f 125/125/5 127/126/5 126/127/5
f 126/127/11 127/126/11 128/128/11
f 129/129/4 131/130/4 130/131/4
f 130/131/4 131/130/4 132/132/4
f 133/133/6 135/134/6 134/135/6
f 134/135/6 135/134/6 136/136/6
f 137/137/12 139/138/12 138/139/12
f 138/139/12 139/138/12 140/140/12
f 141/141/6 143/142/6 142/143/6
f 142/143/6 143/142/6 144/144/6
f 145/145/8 147/146/8 146/147/8
f 146/147/8 147/146/8 148/148/8
f 149/149/10 151/150/10 150/151/10
f 150/151/9 151/150/9 152/152/9
f 153/153/8 155/154/8 154/155/8
f 154/155/8 155/154/8 156/156/8
f 157/157/1 159/158/1 158/159/1
f 158/159/1 159/158/1 160/160/1
f 161/161/2 163/162/2 162/163/2
f 162/163/2 163/162/2 164/164/2
f 165/165/1 167/166/1 166/167/1
f 166/167/1 167/166/1 168/168/1
f 169/169/6 171/170/6 170/171/6
f 170/171/6 171/170/6 172/172/6
f 173/173/12 175/174/12 174/175/12
f 174/175/12 175/174/12 176/176/12
f 177/177/6 179/178/6 178/179/6
f 178/179/6 179/178/6 180/180/6
f 181/181/8 183/182/8 182/183/8
f 182/183/8 183/182/8 184/184/8
f 185/185/10 187/186/10 186/187/10
f 186/187/9 187/186/9 188/188/9
f 189/189/8 191/190/8 190/191/8
f 190/191/8 191/190/8 192/192/8
f 193/193/13 195/194/13 194/195/13
f 196/196/14 198/197/14 197/198/14
f 199/199/15 201/200/15 200/201/15
f 202/202/16 204/203/16 203/204/16
f 205/205/17 207/206/17 206/207/17
f 208/208/18 210/209/18 209/210/18
f 211/211/19 213/212/19 212/213/19
f 214/214/20 216/215/20 215/216/20
f 217/217/21 219/218/21 218/219/21
f 220/220/14 222/221/14 221/222/14
f 223/223/22 225/224/22 224/225/22
f 226/226/16 228/227/16 227/228/16
f 229/229/23 231/230/23 230/231/23
f 232/232/20 234/233/20 233/234/20
