# Blender v3.6.3 OBJ File: 'untitled.blend'
# www.blender.org
mtllib Mesh_0248.mtl
o Mesh_0248_Mesh.174
v 33.639122 13.801929 -29.634060
v 34.547623 13.054905 -29.634060
v 31.035410 12.202483 -29.634060
v 35.066750 12.202486 -29.634052
v 31.035410 11.894803 -29.634064
v 35.093880 11.894804 -29.634056
v 27.523214 13.054905 -29.634060
v 28.431711 13.801929 -29.634060
v 31.035410 12.202483 -29.634060
v 29.733564 14.450402 -29.634060
v 31.035414 14.799480 -29.634060
v 27.523214 13.054905 -29.634060
v 31.035410 12.202483 -29.634060
v 27.004091 12.202483 -29.634052
v 31.035410 11.894803 -29.634064
v 26.976961 11.894804 -29.634060
v 31.035414 14.799480 -29.634060
v 32.337265 14.450402 -29.634060
v 31.035410 12.202483 -29.634060
v 33.639122 13.801929 -29.634060
vt 0.677612 -0.753967
vt 0.997192 -0.952026
vt 0.565308 -0.846497
vt 0.501099 -0.952026
vt 0.997192 -0.997498
vt 0.499634 -0.997498
vt 0.565308 -0.846497
vt 0.997192 -0.952026
vt 0.677612 -0.753967
vt 0.838623 -0.673706
vt 0.997192 -0.630432
vt 0.565308 -0.846497
vt 0.501099 -0.952026
vt 0.997192 -0.952026
vt 0.997192 -0.997498
vt 0.499634 -0.997498
vt 0.997192 -0.630432
vt 0.997192 -0.952026
vt 0.838623 -0.673706
vt 0.677612 -0.753967
vn 0.0000 0.0000 1.0000
usemtl Tex_0088_1.dds
s off
f 1/1/1 3/2/1 2/3/1
f 2/3/1 3/2/1 4/4/1
f 3/2/1 5/5/1 4/4/1
f 4/4/1 5/5/1 6/6/1
f 7/7/1 9/8/1 8/9/1
f 8/9/1 9/8/1 10/10/1
f 9/8/1 11/11/1 10/10/1
f 12/12/1 14/13/1 13/14/1
f 13/14/1 14/13/1 15/15/1
f 14/13/1 16/16/1 15/15/1
f 17/17/1 19/18/1 18/19/1
f 18/19/1 19/18/1 20/20/1
