# Blender v3.6.3 OBJ File: 'untitled.blend'
# www.blender.org
mtllib Mesh_0298.mtl
o Mesh_0298_Mesh.192
v -19.514891 4.597497 -34.783054
v -19.514891 4.034785 -34.104126
v -19.514891 5.079995 -33.295483
v -19.514891 3.260085 -33.590706
v -19.514891 2.274362 -33.295483
v -19.514891 4.034785 -37.079483
v -19.514891 4.597497 -36.400570
v -19.514891 5.079995 -37.888119
v -19.514891 4.987335 -35.591805
v -19.514891 5.079995 -35.591805
v -19.514893 4.597497 -39.863041
v -19.514894 4.034785 -39.184124
v -19.514893 5.079995 -38.375492
v -19.514893 3.260086 -38.670715
v -19.514893 2.274362 -38.375492
v -19.514893 2.274362 -42.962112
v -19.514893 3.260085 -42.672905
v -19.514893 5.079995 -42.962112
v -19.514893 4.034785 -42.159477
v -19.514893 4.597497 -41.480553
v -19.514891 5.079995 -35.591805
v -19.514891 4.987335 -35.591805
v -19.514891 5.079995 -33.295483
v -19.514891 4.597497 -34.783054
v -19.514891 4.034785 -37.079483
v -19.514891 5.079995 -37.888119
v -19.514891 3.260085 -37.592892
v -19.514891 2.274362 -37.888119
v -19.514893 5.079995 -40.671806
v -19.514893 4.987336 -40.671806
v -19.514893 5.079995 -38.375492
v -19.514893 4.597497 -39.863041
v -19.514893 5.079995 -40.671806
v -19.514893 5.079995 -42.962112
v -19.514893 4.987336 -40.671806
v -19.514893 4.597497 -41.480553
vt 0.647766 -0.828064
vt 0.000000 -0.999451
vt 0.352112 -0.627502
vt 0.128540 -0.351440
vt 0.000000 -0.000061
vt 0.647766 -0.372070
vt 0.999939 -0.000061
vt 0.352112 -0.171509
vt 0.000000 -0.032593
vt 0.000000 -0.000061
vt 0.647766 -0.828064
vt 0.000000 -0.999451
vt 0.352112 -0.627502
vt 0.128540 -0.351440
vt 0.000000 -0.000061
vt 0.999939 -0.999451
vt 0.999939 -0.000061
vt 0.871338 -0.648193
vt 0.647766 -0.372070
vt 0.352112 -0.171509
vt 0.999939 -0.999451
vt 0.000000 -0.999451
vt 0.999939 -0.966980
vt 0.647766 -0.828064
vt 0.647766 -0.372070
vt 0.871338 -0.648193
vt 0.999939 -0.000061
vt 0.999939 -0.999451
vt 0.999939 -0.999451
vt 0.000000 -0.999451
vt 0.999939 -0.966980
vt 0.647766 -0.828064
vt 0.000000 -0.000061
vt 0.000000 -0.032593
vt 0.999939 -0.000061
vt 0.352112 -0.171509
vn 1.0000 -0.0000 0.0000
usemtl Tex_0053_1.dds.006
s off
f 1/1/1 3/2/1 2/3/1
f 2/3/1 3/2/1 4/4/1
f 3/2/1 5/5/1 4/4/1
f 6/6/1 8/7/1 7/8/1
f 7/8/1 8/7/1 9/9/1
f 8/7/1 10/10/1 9/9/1
f 11/11/1 13/12/1 12/13/1
f 12/13/1 13/12/1 14/14/1
f 13/12/1 15/15/1 14/14/1
f 16/16/1 18/17/1 17/18/1
f 17/18/1 18/17/1 19/19/1
f 18/17/1 20/20/1 19/19/1
f 21/21/1 23/22/1 22/23/1
f 22/23/1 23/22/1 24/24/1
f 25/25/1 27/26/1 26/27/1
f 26/27/1 27/26/1 28/28/1
f 29/29/1 31/30/1 30/31/1
f 30/31/1 31/30/1 32/32/1
f 33/33/1 35/34/1 34/35/1
f 34/35/1 35/34/1 36/36/1
