# Blender v3.6.3 OBJ File: 'untitled.blend'
# www.blender.org
mtllib Mesh_0122.mtl
o Mesh_0122_Mesh.123
v 33.257912 49.212490 21.558197
v 31.035414 50.799988 21.558197
v 31.035414 49.609745 21.558197
v 28.812914 49.212490 21.558197
v 29.295515 48.279800 21.558197
v 43.100418 49.732681 9.555428
v 43.735420 49.732681 9.555428
v 43.735420 56.625481 2.555443
v 44.370422 49.732681 9.555428
v 44.370422 56.625481 2.555443
v 43.100418 56.625481 2.555443
v 43.735420 56.625481 2.555443
v 43.735420 60.642487 -2.571800
v 44.370422 56.625481 2.555443
v 44.374481 60.653156 -2.571800
v 43.100418 42.644299 15.294815
v 43.735420 42.644299 15.294815
v 43.735420 49.732681 9.555428
v 44.370422 42.644299 15.294815
v 44.370422 49.732681 9.555428
v 43.100418 39.360336 17.507919
v 43.735420 39.360336 17.507919
v 43.735420 42.644299 15.294815
v 44.370422 39.360336 17.507919
v 44.370422 42.644299 15.294815
v 28.812914 49.212490 -26.701797
v 31.035414 50.799988 -26.701797
v 31.035414 49.609745 -26.701797
v 33.257912 49.212490 -26.701797
v 32.775314 48.279800 -26.701797
v 43.100418 35.559990 -25.115059
v 43.100418 39.360336 -22.651512
v 43.735420 35.559990 -25.115059
v 43.735420 39.360336 -22.651512
v 44.370422 39.360336 -22.651512
v 58.657921 49.212490 21.558197
v 56.435417 50.799988 21.558197
v 56.435417 49.609745 21.558197
v 54.212921 49.212490 21.558197
v 54.695518 48.279800 21.558197
v 44.370422 35.559990 19.971458
v 44.370422 39.360336 17.507919
v 43.735420 35.559990 19.971458
v 43.735420 39.360336 17.507919
v 43.100418 39.360336 17.507919
v 54.212921 49.212490 -26.701797
v 56.435417 50.799988 -26.701797
v 56.435417 49.609745 -26.701797
v 58.657921 49.212490 -26.701797
v 58.175316 48.279800 -26.701797
v 44.370422 49.732681 -14.699028
v 43.735420 49.732681 -14.699028
v 43.735420 56.625481 -7.699047
v 43.100418 49.732681 -14.699028
v 43.100418 56.625481 -7.699047
v 44.370422 56.625481 -7.699047
v 43.735420 56.625481 -7.699047
v 43.735420 60.642487 -2.571800
v 43.100418 56.625481 -7.699047
v 43.096352 60.653156 -2.571800
v 44.370422 42.644302 -20.438408
v 43.735420 42.644302 -20.438408
v 43.735420 49.732681 -14.699028
v 43.100418 42.644302 -20.438408
v 43.100418 49.732681 -14.699028
v 44.370422 39.360336 -22.651512
v 43.735420 39.360336 -22.651512
v 43.735420 42.644302 -20.438408
v 43.100418 39.360336 -22.651512
v 43.100418 42.644302 -20.438408
v 7.857912 49.212490 21.558197
v 5.635412 50.799988 21.558197
v 5.635412 49.609745 21.558197
v 3.412912 49.212490 21.558197
v 3.895514 48.279800 21.558197
v 3.412912 49.212490 -26.701797
v 5.635412 50.799988 -26.701797
v 5.635412 49.609745 -26.701797
v 7.857912 49.212490 -26.701797
v 7.375311 48.279800 -26.701797
v 42.465424 35.559990 21.552864
v 40.577942 40.004990 21.558197
v 41.195419 35.559990 21.558197
v 39.379318 39.638214 21.558197
v 40.577942 40.004990 21.558197
v 38.073761 43.814987 21.558197
v 39.379318 39.638214 21.558197
v 37.071724 43.115219 21.558197
v 39.379318 39.638214 21.558197
v 39.379318 39.638214 22.828201
v 41.195419 35.559990 21.558197
v 41.195419 35.559990 22.828201
v 32.775314 48.279800 21.558197
v 32.775314 48.279800 22.828201
v 35.133713 45.695095 21.558197
v 35.133713 45.695095 22.828201
v 31.035414 49.609745 21.558197
v 31.035414 49.609745 22.828201
v 32.775314 48.279800 21.558197
v 32.775314 48.279800 22.828201
v 35.133713 45.695095 21.558197
v 35.133713 45.695095 22.828201
v 37.071724 43.115219 21.558197
v 37.071724 43.115219 22.828201
v 37.071724 43.115219 21.558197
v 37.071724 43.115219 22.828201
v 39.379318 39.638214 21.558197
v 39.379318 39.638214 22.828201
v 38.073761 43.814987 21.558197
v 36.076302 46.354988 21.558197
v 37.071724 43.115219 21.558197
v 35.133713 45.695095 21.558197
v 33.257912 49.212490 21.558197
v 32.775314 48.279800 21.558197
v 36.076302 46.354988 21.558197
v 35.133713 45.695095 21.558197
v 19.605413 35.559990 21.552864
v 20.875410 35.559990 21.558197
v 21.492891 40.004990 21.558197
v 22.691515 39.638214 21.558197
v 21.492891 40.004990 21.558197
v 22.691515 39.638214 21.558197
v 23.997072 43.814987 21.558197
v 24.999109 43.115219 21.558197
v 22.691515 39.638214 21.558197
v 20.875410 35.559990 21.558197
v 22.691515 39.638214 22.828201
v 20.875410 35.559990 22.828201
v 29.295515 48.279800 21.558197
v 26.937120 45.695095 21.558197
v 29.295515 48.279800 22.828201
v 26.937120 45.695095 22.828201
v 31.035414 49.609745 21.558197
v 29.295515 48.279800 21.558197
v 31.035414 49.609745 22.828201
v 29.295515 48.279800 22.828201
v 26.937120 45.695095 21.558197
v 24.999109 43.115219 21.558197
v 26.937120 45.695095 22.828201
v 24.999109 43.115219 22.828201
v 24.999109 43.115219 21.558197
v 22.691515 39.638214 21.558197
v 24.999109 43.115219 22.828201
v 22.691515 39.638214 22.828201
v 26.937120 45.695095 21.558197
v 25.994532 46.354988 21.558197
v 24.999109 43.115219 21.558197
v 23.997072 43.814987 21.558197
v 28.812914 49.212490 21.558197
v 25.994532 46.354988 21.558197
v 29.295515 48.279800 21.558197
v 26.937120 45.695095 21.558197
v 43.100418 35.559990 20.288200
v 43.100418 35.559990 19.971458
v 43.100418 39.584110 18.023285
v 43.100418 39.360336 17.507919
v 43.100418 39.584110 18.023285
v 43.100418 39.360336 17.507919
v 43.100418 42.986183 15.767509
v 43.100418 42.644299 15.294815
v 43.100418 49.732681 9.555428
v 43.101944 50.014622 10.043869
v 43.100418 42.644299 15.294815
v 43.100418 42.986183 15.767509
v 43.101944 50.014622 10.043869
v 43.100418 49.732681 9.555428
v 43.100929 56.908688 2.829002
v 43.100418 56.625481 2.555443
v 42.465424 35.559990 -26.696465
v 41.195419 35.559990 -26.701797
v 40.577942 40.004990 -26.701797
v 39.379318 39.638214 -26.701797
v 40.577942 40.004990 -26.701797
v 39.379318 39.638214 -26.701797
v 38.073761 43.814991 -26.701797
v 37.071724 43.115219 -26.701797
v 39.379318 39.638214 -26.701797
v 41.195419 35.559990 -26.701797
v 39.379318 39.638214 -27.971798
v 41.195419 35.559990 -27.971798
v 32.775314 48.279800 -26.701797
v 35.133713 45.695099 -26.701797
v 32.775314 48.279800 -27.971798
v 35.133713 45.695099 -27.971798
v 31.035414 49.609745 -26.701797
v 32.775314 48.279800 -26.701797
v 31.035414 49.609745 -27.971798
v 32.775314 48.279800 -27.971798
v 35.133713 45.695099 -26.701797
v 37.071724 43.115219 -26.701797
v 35.133713 45.695099 -27.971798
v 37.071724 43.115219 -27.971798
v 37.071724 43.115219 -26.701797
v 39.379318 39.638214 -26.701797
v 37.071724 43.115219 -27.971798
v 39.379318 39.638214 -27.971798
v 35.133713 45.695099 -26.701797
v 36.076302 46.354988 -26.701797
v 37.071724 43.115219 -26.701797
v 38.073761 43.814991 -26.701797
v 33.257912 49.212490 -26.701797
v 36.076302 46.354988 -26.701797
v 32.775314 48.279800 -26.701797
v 35.133713 45.695099 -26.701797
v 19.605413 35.559990 -26.696465
v 21.492891 40.004990 -26.701797
v 20.875410 35.559990 -26.701797
v 22.691515 39.638214 -26.701797
v 21.492891 40.004990 -26.701797
v 23.997072 43.814991 -26.701797
v 22.691515 39.638214 -26.701797
v 24.999109 43.115219 -26.701797
v 22.691515 39.638214 -26.701797
v 22.691515 39.638214 -27.971798
v 20.875410 35.559990 -26.701797
v 20.875410 35.559990 -27.971798
v 29.295515 48.279800 -26.701797
v 29.295515 48.279800 -27.971798
v 26.937120 45.695099 -26.701797
v 26.937120 45.695099 -27.971798
v 31.035414 49.609745 -26.701797
v 31.035414 49.609745 -27.971798
v 29.295515 48.279800 -26.701797
v 29.295515 48.279800 -27.971798
v 26.937120 45.695099 -26.701797
v 26.937120 45.695099 -27.971798
v 24.999109 43.115219 -26.701797
v 24.999109 43.115219 -27.971798
v 24.999109 43.115219 -26.701797
v 24.999109 43.115219 -27.971798
v 22.691515 39.638214 -26.701797
v 22.691515 39.638214 -27.971798
v 23.997072 43.814991 -26.701797
v 25.994532 46.354988 -26.701797
v 24.999109 43.115219 -26.701797
v 26.937120 45.695099 -26.701797
v 28.812914 49.212490 -26.701797
v 29.295515 48.279800 -26.701797
v 25.994532 46.354988 -26.701797
v 26.937120 45.695099 -26.701797
v 43.100418 35.559990 -25.431797
v 43.100418 39.584110 -23.166878
v 43.100418 35.559990 -25.115059
v 43.100418 39.360336 -22.651512
v 43.100418 39.584110 -23.166878
v 43.100418 42.986187 -20.911106
v 43.100418 39.360336 -22.651512
v 43.100418 42.644302 -20.438408
v 43.100418 49.732681 -14.699028
v 43.100418 42.644302 -20.438408
v 43.101944 50.014622 -15.187469
v 43.100418 42.986187 -20.911106
v 43.101944 50.014622 -15.187469
v 43.100929 56.908688 -7.972595
v 43.100418 49.732681 -14.699028
v 43.100418 56.625481 -7.699047
v 45.005417 35.559990 21.552864
v 46.275421 35.559990 21.558197
v 46.892891 40.004990 21.558197
v 48.091522 39.638214 21.558197
v 46.892891 40.004990 21.558197
v 48.091522 39.638214 21.558197
v 49.397072 43.814987 21.558197
v 50.399109 43.115219 21.558197
v 48.091522 39.638214 21.558197
v 46.275421 35.559990 21.558197
v 48.091522 39.638214 22.828201
v 46.275421 35.559990 22.828201
v 54.695518 48.279800 21.558197
v 52.337120 45.695095 21.558197
v 54.695518 48.279800 22.828201
v 52.337120 45.695095 22.828201
v 56.435417 49.609745 21.558197
v 54.695518 48.279800 21.558197
v 56.435417 49.609745 22.828201
v 54.695518 48.279800 22.828201
v 52.337120 45.695095 21.558197
v 50.399109 43.115219 21.558197
v 52.337120 45.695095 22.828201
v 50.399109 43.115219 22.828201
v 50.399109 43.115219 21.558197
v 48.091522 39.638214 21.558197
v 50.399109 43.115219 22.828201
v 48.091522 39.638214 22.828201
v 54.212921 49.212490 21.558197
v 51.394272 46.354988 21.558197
v 54.695518 48.279800 21.558197
v 52.337120 45.695095 21.558197
v 67.865417 35.559990 21.552864
v 65.977936 40.004990 21.558197
v 66.595421 35.559990 21.558197
v 64.779320 39.638214 21.558197
v 65.977936 40.004990 21.558197
v 63.473763 43.814987 21.558197
v 64.779320 39.638214 21.558197
v 62.471718 43.115219 21.558197
v 64.779320 39.638214 21.558197
v 64.779320 39.638214 22.828201
v 66.595421 35.559990 21.558197
v 66.595421 35.559990 22.828201
v 58.175316 48.279800 21.558197
v 58.175316 48.279800 22.828201
v 60.533707 45.695095 21.558197
v 60.533707 45.695095 22.828201
v 56.435417 49.609745 21.558197
v 56.435417 49.609745 22.828201
v 58.175316 48.279800 21.558197
v 58.175316 48.279800 22.828201
v 60.533707 45.695095 21.558197
v 60.533707 45.695095 22.828201
v 62.471718 43.115219 21.558197
v 62.471718 43.115219 22.828201
v 62.471718 43.115219 21.558197
v 62.471718 43.115219 22.828201
v 64.779320 39.638214 21.558197
v 64.779320 39.638214 22.828201
v 63.473763 43.814987 21.558197
v 61.476295 46.354988 21.558197
v 62.471718 43.115219 21.558197
v 60.533707 45.695095 21.558197
v 58.657921 49.212490 21.558197
v 58.175316 48.279800 21.558197
v 61.476295 46.354988 21.558197
v 60.533707 45.695095 21.558197
v 44.370422 35.559990 20.288200
v 44.370422 39.584110 18.023285
v 44.370422 35.559990 19.971458
v 44.370422 39.360336 17.507919
v 44.370422 39.584110 18.023285
v 44.370422 42.986183 15.767509
v 44.370422 39.360336 17.507919
v 44.370422 42.644299 15.294815
v 44.370422 49.732681 9.555428
v 44.370422 42.644299 15.294815
v 44.368889 50.014622 10.043869
v 44.370422 42.986183 15.767509
v 44.368889 50.014622 10.043869
v 44.369659 56.908688 2.829002
v 44.370422 49.732681 9.555428
v 44.370422 56.625481 2.555443
v 45.005417 35.559990 -26.696465
v 46.892891 40.004990 -26.701797
v 46.275421 35.559990 -26.701797
v 48.091522 39.638214 -26.701797
v 46.892891 40.004990 -26.701797
v 49.397072 43.814991 -26.701797
v 48.091522 39.638214 -26.701797
v 50.399109 43.115219 -26.701797
v 48.091522 39.638214 -26.701797
v 48.091522 39.638214 -27.971798
v 46.275421 35.559990 -26.701797
v 46.275421 35.559990 -27.971798
v 54.695518 48.279800 -26.701797
v 54.695518 48.279800 -27.971798
v 52.337120 45.695099 -26.701797
v 52.337120 45.695099 -27.971798
v 56.435417 49.609745 -26.701797
v 56.435417 49.609745 -27.971798
v 54.695518 48.279800 -26.701797
v 54.695518 48.279800 -27.971798
v 52.337120 45.695099 -26.701797
v 52.337120 45.695099 -27.971798
v 50.399109 43.115219 -26.701797
v 50.399109 43.115219 -27.971798
v 50.399109 43.115219 -26.701797
v 50.399109 43.115219 -27.971798
v 48.091522 39.638214 -26.701797
v 48.091522 39.638214 -27.971798
v 54.212921 49.212490 -26.701797
v 54.695518 48.279800 -26.701797
v 51.394272 46.354988 -26.701797
v 52.337120 45.695099 -26.701797
v 67.865417 35.559990 -26.696465
v 66.595421 35.559990 -26.701797
v 65.977936 40.004990 -26.701797
v 64.779320 39.638214 -26.701797
v 65.977936 40.004990 -26.701797
v 64.779320 39.638214 -26.701797
v 63.473763 43.814991 -26.701797
v 62.471718 43.115219 -26.701797
v 64.779320 39.638214 -26.701797
v 66.595421 35.559990 -26.701797
v 64.779320 39.638214 -27.971798
v 66.595421 35.559990 -27.971798
v 58.175316 48.279800 -26.701797
v 60.533958 45.695099 -26.701797
v 58.175316 48.279800 -27.971798
v 60.533958 45.695099 -27.971798
v 56.435417 49.609745 -26.701797
v 58.175316 48.279800 -26.701797
v 56.435417 49.609745 -27.971798
v 58.175316 48.279800 -27.971798
v 60.533958 45.695099 -26.701797
v 62.471718 43.115219 -26.701797
v 60.533958 45.695099 -27.971798
v 62.471718 43.115219 -27.971798
v 62.471718 43.115219 -26.701797
v 64.779320 39.638214 -26.701797
v 62.471718 43.115219 -27.971798
v 64.779320 39.638214 -27.971798
v 60.533958 45.695099 -26.701797
v 61.476555 46.354988 -26.701797
v 62.471718 43.115219 -26.701797
v 63.473763 43.814991 -26.701797
v 58.657921 49.212490 -26.701797
v 61.476555 46.354988 -26.701797
v 58.175316 48.279800 -26.701797
v 60.533958 45.695099 -26.701797
v 44.370422 35.559990 -25.431797
v 44.370422 35.559990 -25.115059
v 44.370422 39.584110 -23.166878
v 44.370422 39.360336 -22.651512
v 44.370422 39.584110 -23.166878
v 44.370422 39.360336 -22.651512
v 44.370422 42.986187 -20.911106
v 44.370422 42.644302 -20.438408
v 44.370422 49.732681 -14.699028
v 44.368889 50.014622 -15.187469
v 44.370422 42.644302 -20.438408
v 44.370422 42.986187 -20.911106
v 44.368889 50.014622 -15.187469
v 44.370422 49.732681 -14.699028
v 44.369659 56.908688 -7.972595
v 44.370422 56.625481 -7.699047
v 17.065413 35.559990 21.552864
v 15.177938 40.004990 21.558197
v 15.795412 35.559990 21.558197
v 13.979311 39.638214 21.558197
v 15.177938 40.004990 21.558197
v 12.673758 43.814987 21.558197
v 13.979311 39.638214 21.558197
v 11.671721 43.115219 21.558197
v 13.979311 39.638214 21.558197
v 13.979311 39.638214 22.828201
v 15.795412 35.559990 21.558197
v 15.795412 35.559990 22.828201
v 7.375311 48.279800 21.558197
v 7.375311 48.279800 22.828201
v 9.733706 45.695095 21.558197
v 9.733706 45.695095 22.828201
v 5.635412 49.609745 21.558197
v 5.635412 49.609745 22.828201
v 7.375311 48.279800 21.558197
v 7.375311 48.279800 22.828201
v 9.733706 45.695095 21.558197
v 9.733706 45.695095 22.828201
v 11.671721 43.115219 21.558197
v 11.671721 43.115219 22.828201
v 11.671721 43.115219 21.558197
v 11.671721 43.115219 22.828201
v 13.979311 39.638214 21.558197
v 13.979311 39.638214 22.828201
v 7.857912 49.212490 21.558197
v 7.375311 48.279800 21.558197
v 10.676298 46.354988 21.558197
v 9.733706 45.695095 21.558197
v -5.794584 35.559990 21.552864
v -4.524584 35.559990 21.558197
v -3.907110 40.004990 21.558197
v -2.708485 39.638214 21.558197
v -3.907110 40.004990 21.558197
v -2.708485 39.638214 21.558197
v -1.402929 43.814987 21.558197
v -0.400892 43.115219 21.558197
v -2.708485 39.638214 21.558197
v -4.524584 35.559990 21.558197
v -2.708485 39.638214 22.828201
v -4.524584 35.559990 22.828201
v 3.895514 48.279800 21.558197
v 1.537121 45.695095 21.558197
v 3.895514 48.279800 22.828201
v 1.537121 45.695095 22.828201
v 5.635412 49.609745 21.558197
v 3.895514 48.279800 21.558197
v 5.635412 49.609745 22.828201
v 3.895514 48.279800 22.828201
v 1.537121 45.695095 21.558197
v -0.400892 43.115219 21.558197
v 1.537121 45.695095 22.828201
v -0.400892 43.115219 22.828201
v -0.400892 43.115219 21.558197
v -2.708485 39.638214 21.558197
v -0.400892 43.115219 22.828201
v -2.708485 39.638214 22.828201
v 1.537121 45.695095 21.558197
v 0.594530 46.354988 21.558197
v -0.400892 43.115219 21.558197
v -1.402929 43.814987 21.558197
v 3.412912 49.212490 21.558197
v 0.594530 46.354988 21.558197
v 3.895514 48.279800 21.558197
v 1.537121 45.695095 21.558197
v -8.334585 50.799988 6.265366
v -8.334585 43.814991 9.440369
v -8.334585 50.374538 5.755592
v -8.334585 43.667667 8.843468
v -8.334585 35.559990 10.710365
v -8.334585 35.559990 10.102547
v -8.334585 40.004990 10.075371
v -8.334585 40.004990 9.440369
v -8.334585 57.784988 1.185371
v -8.334585 50.799988 6.265366
v -8.334585 57.387989 1.036018
v -8.334585 50.374538 5.755592
v -8.334585 40.004990 10.075371
v -8.334585 40.004990 9.440369
v -8.334585 43.814991 9.440369
v -8.334585 43.667667 8.843468
v -21.034584 35.559990 10.128204
v -21.034584 40.004990 9.440369
v -22.329985 35.559990 10.101784
v -22.329985 40.004990 9.440369
v -22.329985 40.004990 9.440369
v -21.034584 40.004990 9.440369
v -22.329985 43.667667 8.843468
v -21.034584 43.667667 8.843468
v -22.329985 43.667667 8.843468
v -21.034584 43.667667 8.843468
v -22.329985 50.374538 5.755592
v -21.034584 50.374538 5.755592
v -22.329985 50.374538 5.755592
v -21.034584 50.374538 5.755592
v -22.329985 57.387989 1.036018
v -21.034584 57.387989 1.036018
v -22.329985 57.387989 1.036018
v -21.034584 57.387989 1.036018
v -22.329985 60.324989 -2.571800
v -21.034584 60.324989 -2.571800
v -21.034584 57.784988 1.185371
v -21.034584 57.387989 1.036018
v -21.034584 50.799988 6.265366
v -21.034584 50.374538 5.755592
v -21.034584 50.799988 6.265366
v -21.034584 50.374538 5.755592
v -21.034584 43.814991 9.440369
v -21.034584 43.667667 8.843468
v -21.034584 40.004990 10.128204
v -21.034584 43.814991 9.440369
v -21.034584 40.004990 9.440369
v -21.034584 43.667667 8.843468
v -8.334585 57.387989 1.036018
v -7.064585 57.387989 1.036018
v -8.334585 60.324989 -2.571800
v -7.064585 60.324989 -2.571800
v -8.334585 50.374538 5.755592
v -7.064585 50.374538 5.755592
v -8.334585 57.387989 1.036018
v -7.064585 57.387989 1.036018
v -8.334585 43.667667 8.843468
v -7.064585 43.667667 8.843468
v -8.334585 50.374538 5.755592
v -7.064585 50.374538 5.755592
v -8.334585 40.004990 9.440369
v -7.064585 40.004990 9.440369
v -8.334585 43.667667 8.843468
v -7.064585 43.667667 8.843468
v -8.334585 35.559990 10.102547
v -7.064585 35.559990 10.101784
v -8.334585 40.004990 9.440369
v -7.064585 40.004990 9.440369
v -7.064585 40.004990 9.440369
v -7.064585 35.559990 10.101784
v -7.064585 40.004990 10.710365
v -7.064585 35.559990 11.345367
v -7.064585 40.004990 10.710365
v -7.064585 43.814991 10.075371
v -7.064585 40.004990 9.440369
v -7.064585 43.667667 8.843468
v -7.064585 43.814991 10.075371
v -7.064585 50.799988 6.900368
v -7.064585 43.667667 8.843468
v -7.064585 50.374538 5.755592
v -7.064585 50.799988 6.900368
v -7.064585 57.784988 1.820366
v -7.064585 50.374538 5.755592
v -7.064585 57.387989 1.036018
v -7.064585 35.559990 11.345367
v -8.334585 35.559990 11.345367
v -7.064585 40.004990 10.710365
v -8.334585 40.004990 10.710365
v -8.334585 43.814991 10.075371
v -7.064585 43.814991 10.075371
v -8.334585 40.004990 10.710365
v -7.064585 40.004990 10.710365
v -7.064585 43.814991 10.075371
v -8.334585 43.814991 10.075371
v -7.064585 50.799988 6.900368
v -8.334585 50.799988 6.900368
v -8.334585 40.004990 13.219124
v -7.064585 40.004990 13.219124
v -8.334585 43.816509 15.876732
v -7.064585 43.816509 15.876732
v -8.334585 35.559990 11.345367
v -7.064585 35.559990 11.345367
v -8.334585 40.004990 13.219124
v -7.064585 40.004990 13.219124
v -7.064585 40.004990 13.219124
v -7.064585 39.774357 14.032692
v -7.064585 43.816509 15.876732
v -7.064585 43.035458 16.425369
v -7.064585 35.559990 11.345367
v -7.064585 35.559990 11.980370
v -7.064585 40.004990 13.219124
v -7.064585 39.774357 14.032692
v 17.065413 35.559990 -26.696465
v 15.795412 35.559990 -26.701797
v 15.177938 40.004990 -26.701797
v 13.979311 39.638214 -26.701797
v 15.177938 40.004990 -26.701797
v 13.979311 39.638214 -26.701797
v 12.673758 43.814991 -26.701797
v 11.671721 43.115219 -26.701797
v 13.979311 39.638214 -26.701797
v 15.795412 35.559990 -26.701797
v 13.979311 39.638214 -27.971798
v 15.795412 35.559990 -27.971798
v 7.375311 48.279800 -26.701797
v 9.733706 45.695099 -26.701797
v 7.375311 48.279800 -27.971798
v 9.733706 45.695099 -27.971798
v 5.635412 49.609745 -26.701797
v 7.375311 48.279800 -26.701797
v 5.635412 49.609745 -27.971798
v 7.375311 48.279800 -27.971798
v 9.733706 45.695099 -26.701797
v 11.671721 43.115219 -26.701797
v 9.733706 45.695099 -27.971798
v 11.671721 43.115219 -27.971798
v 11.671721 43.115219 -26.701797
v 13.979311 39.638214 -26.701797
v 11.671721 43.115219 -27.971798
v 13.979311 39.638214 -27.971798
v 7.857912 49.212490 -26.701797
v 10.676298 46.354988 -26.701797
v 7.375311 48.279800 -26.701797
v 9.733706 45.695099 -26.701797
v -5.794584 35.559990 -26.696465
v -3.907110 40.004990 -26.701797
v -4.524584 35.559990 -26.701797
v -2.708485 39.638214 -26.701797
v -3.907110 40.004990 -26.701797
v -1.402929 43.814991 -26.701797
v -2.708485 39.638214 -26.701797
v -0.400892 43.115219 -26.701797
v -2.708485 39.638214 -26.701797
v -2.708485 39.638214 -27.971798
v -4.524584 35.559990 -26.701797
v -4.524584 35.559990 -27.971798
v 3.895514 48.279800 -26.701797
v 3.895514 48.279800 -27.971798
v 1.537121 45.695099 -26.701797
v 1.537121 45.695099 -27.971798
v 5.635412 49.609745 -26.701797
v 5.635412 49.609745 -27.971798
v 3.895514 48.279800 -26.701797
v 3.895514 48.279800 -27.971798
v 1.537121 45.695099 -26.701797
v 1.537121 45.695099 -27.971798
v -0.400892 43.115219 -26.701797
v -0.400892 43.115219 -27.971798
v -0.400892 43.115219 -26.701797
v -0.400892 43.115219 -27.971798
v -2.708485 39.638214 -26.701797
v -2.708485 39.638214 -27.971798
v 1.537121 45.695099 -26.701797
v -0.400892 43.115219 -26.701797
v 0.594530 46.354988 -26.701797
v -1.402929 43.814991 -26.701797
v 3.412912 49.212490 -26.701797
v 3.895514 48.279800 -26.701797
v 0.594530 46.354988 -26.701797
v 1.537121 45.695099 -26.701797
v -8.334585 50.799988 -11.408966
v -8.334585 50.374538 -10.899193
v -8.334585 43.814991 -14.583965
v -8.334585 43.667671 -13.987064
v -8.334585 35.559990 -15.853966
v -8.334585 40.004990 -15.218967
v -8.334585 35.559990 -15.246143
v -8.334585 40.004990 -14.583965
v -8.334585 57.784988 -6.328964
v -8.334585 57.387989 -6.179611
v -8.334585 50.799988 -11.408966
v -8.334585 50.374538 -10.899193
v -8.334585 40.004990 -15.218967
v -8.334585 43.814991 -14.583965
v -8.334585 40.004990 -14.583965
v -8.334585 43.667671 -13.987064
v -21.034584 35.559990 -15.271797
v -22.329985 35.559990 -15.245380
v -21.034584 40.004990 -14.583965
v -22.329985 40.004990 -14.583965
v -22.329985 40.004990 -14.583965
v -22.329985 43.667671 -13.987064
v -21.034584 40.004990 -14.583965
v -21.034584 43.667671 -13.987064
v -22.329985 43.667671 -13.987064
v -22.329985 50.374538 -10.899193
v -21.034584 43.667671 -13.987064
v -21.034584 50.374538 -10.899193
v -22.329985 50.374538 -10.899193
v -22.329985 57.387989 -6.179611
v -21.034584 50.374538 -10.899193
v -21.034584 57.387989 -6.179611
v -22.329985 57.387989 -6.179611
v -22.329985 60.324989 -2.571800
v -21.034584 57.387989 -6.179611
v -21.034584 60.324989 -2.571800
v -21.034584 57.784988 -6.328964
v -21.034584 50.799988 -11.408966
v -21.034584 57.387989 -6.179611
v -21.034584 50.374538 -10.899193
v -21.034584 50.799988 -11.408966
v -21.034584 43.814991 -14.583965
v -21.034584 50.374538 -10.899193
v -21.034584 43.667671 -13.987064
v -21.034584 40.004990 -15.271797
v -21.034584 40.004990 -14.583965
v -21.034584 43.814991 -14.583965
v -21.034584 43.667671 -13.987064
v -8.334585 57.387989 -6.179611
v -8.334585 60.324989 -2.571800
v -7.064585 57.387989 -6.179611
v -7.064585 60.324989 -2.571800
v -8.334585 50.374538 -10.899193
v -8.334585 57.387989 -6.179611
v -7.064585 50.374538 -10.899193
v -7.064585 57.387989 -6.179611
v -8.334585 43.667671 -13.987064
v -8.334585 50.374538 -10.899193
v -7.064585 43.667671 -13.987064
v -7.064585 50.374538 -10.899193
v -8.334585 40.004990 -14.583965
v -8.334585 43.667671 -13.987064
v -7.064585 40.004990 -14.583965
v -7.064585 43.667671 -13.987064
v -8.334585 35.559990 -15.246143
v -8.334585 40.004990 -14.583965
v -7.064585 35.559990 -15.245380
v -7.064585 40.004990 -14.583965
v -7.064585 40.004990 -14.583965
v -7.064585 40.004990 -15.853966
v -7.064585 35.559990 -15.245380
v -7.064585 35.559990 -16.488964
v -7.064585 40.004990 -15.853966
v -7.064585 40.004990 -14.583965
v -7.064585 43.814991 -15.218967
v -7.064585 43.667671 -13.987064
v -7.064585 43.814991 -15.218967
v -7.064585 43.667671 -13.987064
v -7.064585 50.799988 -12.043964
v -7.064585 50.374538 -10.899193
v -7.064585 50.799988 -12.043964
v -7.064585 50.374538 -10.899193
v -7.064585 57.784988 -6.963966
v -7.064585 57.387989 -6.179611
v -7.064585 35.559990 -16.488964
v -7.064585 40.004990 -15.853966
v -8.334585 35.559990 -16.488964
v -8.334585 40.004990 -15.853966
v -8.334585 43.814991 -15.218967
v -8.334585 40.004990 -15.853966
v -7.064585 43.814991 -15.218967
v -7.064585 40.004990 -15.853966
v -7.064585 43.814991 -15.218967
v -7.064585 50.799988 -12.043964
v -8.334585 43.814991 -15.218967
v -8.334585 50.799988 -12.043964
v -8.334585 40.004990 -18.362724
v -8.334585 43.816513 -21.020325
v -7.064585 40.004990 -18.362724
v -7.064585 43.816513 -21.020325
v -8.334585 35.559990 -16.488964
v -8.334585 40.004990 -18.362724
v -7.064585 35.559990 -16.488964
v -7.064585 40.004990 -18.362724
v -7.064585 40.004990 -18.362724
v -7.064585 43.816513 -21.020325
v -7.064585 39.774357 -19.176285
v -7.064585 43.035465 -21.568966
v -7.064585 35.559990 -16.488964
v -7.064585 40.004990 -18.362724
v -7.064585 35.559990 -17.123966
v -7.064585 39.774357 -19.176285
v 32.775314 48.279800 21.558197
v 33.257912 49.212490 21.558197
v 31.035414 49.609745 21.558197
v 43.100418 39.360336 17.507919
v 43.100418 35.559990 19.971458
v 43.735420 35.559990 19.971458
v 43.100418 56.625481 2.555443
v 43.100418 49.732681 9.555428
v 43.735420 56.625481 2.555443
v 43.096352 60.653156 -2.571800
v 43.100418 56.625481 2.555443
v 43.735420 60.642487 -2.571800
v 43.100418 49.732681 9.555428
v 43.100418 42.644299 15.294815
v 43.735420 49.732681 9.555428
v 43.100418 42.644299 15.294815
v 43.100418 39.360336 17.507919
v 43.735420 42.644299 15.294815
v 43.100929 56.908688 2.829002
v 43.100418 56.625481 2.555443
v 43.096352 60.653156 -2.571800
v 29.295515 48.279800 -26.701797
v 28.812914 49.212490 -26.701797
v 31.035414 49.609745 -26.701797
v 43.100418 56.625481 -7.699047
v 43.100929 56.908688 -7.972595
v 43.096352 60.653156 -2.571800
v 50.399109 43.115219 21.558197
v 52.337120 45.695095 21.558197
v 51.394272 46.354988 21.558197
v 49.397072 43.814987 21.558197
v 50.399109 43.115219 21.558197
v 51.394272 46.354988 21.558197
v 58.175316 48.279800 21.558197
v 58.657921 49.212490 21.558197
v 56.435417 49.609745 21.558197
v 44.370422 56.625481 2.555443
v 44.369659 56.908688 2.829002
v 44.374481 60.653156 -2.571800
v 50.399109 43.115219 -26.701797
v 49.397072 43.814991 -26.701797
v 51.394272 46.354988 -26.701797
v 52.337120 45.695099 -26.701797
v 50.399109 43.115219 -26.701797
v 51.394272 46.354988 -26.701797
v 54.695518 48.279800 -26.701797
v 54.212921 49.212490 -26.701797
v 56.435417 49.609745 -26.701797
v 44.370422 39.360336 -22.651512
v 44.370422 35.559990 -25.115059
v 43.735420 35.559990 -25.115059
v 44.370422 56.625481 -7.699047
v 44.370422 49.732681 -14.699028
v 43.735420 56.625481 -7.699047
v 44.374481 60.653156 -2.571800
v 44.370422 56.625481 -7.699047
v 43.735420 60.642487 -2.571800
v 44.370422 49.732681 -14.699028
v 44.370422 42.644302 -20.438408
v 43.735420 49.732681 -14.699028
v 44.370422 42.644302 -20.438408
v 44.370422 39.360336 -22.651512
v 43.735420 42.644302 -20.438408
v 44.369659 56.908688 -7.972595
v 44.370422 56.625481 -7.699047
v 44.374481 60.653156 -2.571800
v 11.671721 43.115219 21.558197
v 12.673758 43.814987 21.558197
v 10.676298 46.354988 21.558197
v 9.733706 45.695095 21.558197
v 11.671721 43.115219 21.558197
v 10.676298 46.354988 21.558197
v 7.375311 48.279800 21.558197
v 7.857912 49.212490 21.558197
v 5.635412 49.609745 21.558197
v -8.334585 57.387989 1.036018
v -8.334585 60.324989 -2.571800
v -8.334585 57.784988 1.185371
v -21.034584 57.784988 1.185371
v -21.034584 60.324989 -2.571800
v -21.034584 57.387989 1.036018
v -21.034584 40.004990 10.128204
v -21.034584 40.004990 9.440369
v -21.034584 35.559990 10.128204
v -7.064585 57.784988 1.820366
v -7.064585 60.324989 -2.571800
v -7.064585 57.387989 1.036018
v -8.334585 50.799988 6.900368
v -7.064585 57.784988 1.820366
v -7.064585 50.799988 6.900368
v 10.676298 46.354988 -26.701797
v 12.673758 43.814991 -26.701797
v 11.671721 43.115219 -26.701797
v 9.733706 45.695099 -26.701797
v 10.676298 46.354988 -26.701797
v 11.671721 43.115219 -26.701797
v 3.895514 48.279800 -26.701797
v 3.412912 49.212490 -26.701797
v 5.635412 49.609745 -26.701797
v -8.334585 60.324989 -2.571800
v -8.334585 57.387989 -6.179611
v -8.334585 57.784988 -6.328964
v -21.034584 60.324989 -2.571800
v -21.034584 57.784988 -6.328964
v -21.034584 57.387989 -6.179611
v -21.034584 40.004990 -14.583965
v -21.034584 40.004990 -15.271797
v -21.034584 35.559990 -15.271797
v -7.064585 60.324989 -2.571800
v -7.064585 57.784988 -6.963966
v -7.064585 57.387989 -6.179611
v -7.064585 57.784988 -6.963966
v -8.334585 50.799988 -12.043964
v -7.064585 50.799988 -12.043964
vt -4.996094 -1.997070
vt -4.015625 -2.996094
vt -4.996094 -2.996094
vt -4.996094 -1.997070
vt -4.015625 -1.997070
vt 0.998047 -2.496094
vt -0.000977 -5.493164
vt -0.000977 -2.496094
vt 0.998047 -2.496094
vt 0.998047 -5.493164
vt 0.998047 -2.496094
vt -0.000977 -5.493164
vt -0.000977 -2.496094
vt 0.998047 -2.496094
vt 0.998047 -5.493164
vt 0.998047 -2.496094
vt -0.000977 -5.493164
vt -0.000977 -2.496094
vt 0.998047 -2.496094
vt 0.998047 -5.493164
vt -1.000000 -4.494141
vt -1.999023 -6.492188
vt -1.999023 -4.494141
vt -1.000000 -4.494141
vt -1.000000 -6.492188
vt -4.996094 -1.997070
vt -4.015625 -2.996094
vt -4.996094 -2.996094
vt -4.996094 -1.997070
vt -4.015625 -1.997070
vt -1.999023 -4.494141
vt -1.000000 -4.494141
vt -1.999023 -6.492188
vt -1.000000 -6.492188
vt -1.999023 -6.492188
vt -4.996094 -1.997070
vt -4.015625 -2.996094
vt -4.996094 -2.996094
vt -4.996094 -1.997070
vt -4.015625 -1.997070
vt -1.999023 -4.494141
vt -1.000000 -4.494141
vt -1.999023 -6.492188
vt -1.000000 -6.492188
vt -1.999023 -6.492188
vt -4.996094 -1.997070
vt -4.015625 -2.996094
vt -4.996094 -2.996094
vt -4.996094 -1.997070
vt -4.015625 -1.997070
vt 0.998047 -2.496094
vt -0.000977 -5.493164
vt -0.000977 -2.496094
vt 0.998047 -2.496094
vt 0.998047 -5.493164
vt 0.998047 -2.496094
vt -0.000977 -5.493164
vt -0.000977 -2.496094
vt 0.998047 -2.496094
vt 0.998047 -5.493164
vt 0.998047 -2.496094
vt -0.000977 -5.493164
vt -0.000977 -2.496094
vt 0.998047 -2.496094
vt 0.998047 -5.493164
vt -1.000000 -4.494141
vt -1.999023 -6.492188
vt -1.999023 -4.494141
vt -1.000000 -4.494141
vt -1.000000 -6.492188
vt -4.996094 -1.997070
vt -4.015625 -2.996094
vt -4.996094 -2.996094
vt -4.996094 -1.997070
vt -4.015625 -1.997070
vt -4.996094 -1.997070
vt -4.015625 -2.996094
vt -4.996094 -2.996094
vt -4.996094 -1.997070
vt -4.015625 -1.997070
vt -4.996094 -1.997070
vt -4.015625 -1.997070
vt -4.996094 -2.996094
vt -4.015625 -2.996094
vt -4.996094 -1.997070
vt -4.015625 -1.997070
vt -4.996094 -2.996094
vt -4.015625 -2.996094
vt -2.998047 -2.996094
vt -2.998047 -1.997070
vt -4.015625 -2.996094
vt -4.015625 -1.997070
vt -2.998047 -2.996094
vt -2.998047 -1.997070
vt -4.015625 -2.996094
vt -4.015625 -1.997070
vt -2.998047 -2.996094
vt -2.998047 -1.997070
vt -4.015625 -2.996094
vt -4.015625 -1.997070
vt -2.998047 -2.996094
vt -2.998047 -1.997070
vt -4.015625 -2.996094
vt -4.015625 -1.997070
vt -2.998047 -2.996094
vt -2.998047 -1.997070
vt -4.015625 -2.996094
vt -4.015625 -1.997070
vt -4.996094 -1.997070
vt -4.015625 -1.997070
vt -4.996094 -2.996094
vt -4.015625 -2.996094
vt -4.996094 -2.996094
vt -4.996094 -1.997070
vt -4.015625 -2.996094
vt -4.015625 -1.997070
vt -4.996094 -1.997070
vt -4.996094 -2.996094
vt -4.015625 -1.997070
vt -4.015625 -2.996094
vt -4.996094 -1.997070
vt -4.996094 -2.996094
vt -4.015625 -1.997070
vt -4.015625 -2.996094
vt -2.998047 -2.996094
vt -4.015625 -2.996094
vt -2.998047 -1.997070
vt -4.015625 -1.997070
vt -2.998047 -2.996094
vt -4.015625 -2.996094
vt -2.998047 -1.997070
vt -4.015625 -1.997070
vt -2.998047 -2.996094
vt -4.015625 -2.996094
vt -2.998047 -1.997070
vt -4.015625 -1.997070
vt -2.998047 -2.996094
vt -4.015625 -2.996094
vt -2.998047 -1.997070
vt -4.015625 -1.997070
vt -2.998047 -2.996094
vt -4.015625 -2.996094
vt -2.998047 -1.997070
vt -4.015625 -1.997070
vt -4.015625 -2.996094
vt -4.015625 -1.997070
vt -4.996094 -2.996094
vt -4.996094 -1.997070
vt -4.996094 -2.996094
vt -4.015625 -2.996094
vt -4.996094 -1.997070
vt -4.015625 -1.997070
vt -1.000000 -6.492188
vt -1.000000 -4.494141
vt -1.999023 -6.492188
vt -1.999023 -4.494141
vt -1.999023 -4.494141
vt -1.999023 -6.492188
vt -1.000000 -4.494141
vt -1.000000 -6.492188
vt 0.998047 -5.493164
vt 0.998047 -2.496094
vt -0.000977 -5.493164
vt -0.000977 -2.496094
vt -0.000977 -2.496094
vt -0.000977 -5.493164
vt 0.998047 -2.496094
vt 0.998047 -5.493164
vt -4.996094 -1.997070
vt -4.996094 -2.996094
vt -4.015625 -1.997070
vt -4.015625 -2.996094
vt -4.996094 -1.997070
vt -4.996094 -2.996094
vt -4.015625 -1.997070
vt -4.015625 -2.996094
vt -2.998047 -2.996094
vt -4.015625 -2.996094
vt -2.998047 -1.997070
vt -4.015625 -1.997070
vt -2.998047 -2.996094
vt -4.015625 -2.996094
vt -2.998047 -1.997070
vt -4.015625 -1.997070
vt -2.998047 -2.996094
vt -4.015625 -2.996094
vt -2.998047 -1.997070
vt -4.015625 -1.997070
vt -2.998047 -2.996094
vt -4.015625 -2.996094
vt -2.998047 -1.997070
vt -4.015625 -1.997070
vt -2.998047 -2.996094
vt -4.015625 -2.996094
vt -2.998047 -1.997070
vt -4.015625 -1.997070
vt -4.015625 -2.996094
vt -4.015625 -1.997070
vt -4.996094 -2.996094
vt -4.996094 -1.997070
vt -4.996094 -2.996094
vt -4.015625 -2.996094
vt -4.996094 -1.997070
vt -4.015625 -1.997070
vt -4.996094 -1.997070
vt -4.015625 -1.997070
vt -4.996094 -2.996094
vt -4.015625 -2.996094
vt -4.996094 -1.997070
vt -4.015625 -1.997070
vt -4.996094 -2.996094
vt -4.015625 -2.996094
vt -2.998047 -2.996094
vt -2.998047 -1.997070
vt -4.015625 -2.996094
vt -4.015625 -1.997070
vt -2.998047 -2.996094
vt -2.998047 -1.997070
vt -4.015625 -2.996094
vt -4.015625 -1.997070
vt -2.998047 -2.996094
vt -2.998047 -1.997070
vt -4.015625 -2.996094
vt -4.015625 -1.997070
vt -2.998047 -2.996094
vt -2.998047 -1.997070
vt -4.015625 -2.996094
vt -4.015625 -1.997070
vt -2.998047 -2.996094
vt -2.998047 -1.997070
vt -4.015625 -2.996094
vt -4.015625 -1.997070
vt -4.996094 -1.997070
vt -4.015625 -1.997070
vt -4.996094 -2.996094
vt -4.015625 -2.996094
vt -4.996094 -2.996094
vt -4.996094 -1.997070
vt -4.015625 -2.996094
vt -4.015625 -1.997070
vt -1.000000 -6.492188
vt -1.999023 -6.492188
vt -1.000000 -4.494141
vt -1.999023 -4.494141
vt -1.999023 -4.494141
vt -1.000000 -4.494141
vt -1.999023 -6.492188
vt -1.000000 -6.492188
vt 0.998047 -5.493164
vt -0.000977 -5.493164
vt 0.998047 -2.496094
vt -0.000977 -2.496094
vt -0.000977 -2.496094
vt 0.998047 -2.496094
vt -0.000977 -5.493164
vt 0.998047 -5.493164
vt -4.996094 -1.997070
vt -4.996094 -2.996094
vt -4.015625 -1.997070
vt -4.015625 -2.996094
vt -4.996094 -1.997070
vt -4.996094 -2.996094
vt -4.015625 -1.997070
vt -4.015625 -2.996094
vt -2.998047 -2.996094
vt -4.015625 -2.996094
vt -2.998047 -1.997070
vt -4.015625 -1.997070
vt -2.998047 -2.996094
vt -4.015625 -2.996094
vt -2.998047 -1.997070
vt -4.015625 -1.997070
vt -2.998047 -2.996094
vt -4.015625 -2.996094
vt -2.998047 -1.997070
vt -4.015625 -1.997070
vt -2.998047 -2.996094
vt -4.015625 -2.996094
vt -2.998047 -1.997070
vt -4.015625 -1.997070
vt -2.998047 -2.996094
vt -4.015625 -2.996094
vt -2.998047 -1.997070
vt -4.015625 -1.997070
vt -4.996094 -2.996094
vt -4.015625 -2.996094
vt -4.996094 -1.997070
vt -4.015625 -1.997070
vt -4.996094 -1.997070
vt -4.015625 -1.997070
vt -4.996094 -2.996094
vt -4.015625 -2.996094
vt -4.996094 -1.997070
vt -4.015625 -1.997070
vt -4.996094 -2.996094
vt -4.015625 -2.996094
vt -2.998047 -2.996094
vt -2.998047 -1.997070
vt -4.015625 -2.996094
vt -4.015625 -1.997070
vt -2.998047 -2.996094
vt -2.998047 -1.997070
vt -4.015625 -2.996094
vt -4.015625 -1.997070
vt -2.998047 -2.996094
vt -2.998047 -1.997070
vt -4.015625 -2.996094
vt -4.015625 -1.997070
vt -2.998047 -2.996094
vt -2.998047 -1.997070
vt -4.015625 -2.996094
vt -4.015625 -1.997070
vt -2.998047 -2.996094
vt -2.998047 -1.997070
vt -4.015625 -2.996094
vt -4.015625 -1.997070
vt -4.996094 -1.997070
vt -4.015625 -1.997070
vt -4.996094 -2.996094
vt -4.015625 -2.996094
vt -4.996094 -2.996094
vt -4.996094 -1.997070
vt -4.015625 -2.996094
vt -4.015625 -1.997070
vt -1.000000 -6.492188
vt -1.999023 -6.492188
vt -1.000000 -4.494141
vt -1.999023 -4.494141
vt -1.999023 -4.494141
vt -1.000000 -4.494141
vt -1.999023 -6.492188
vt -1.000000 -6.492188
vt 0.998047 -5.493164
vt -0.000977 -5.493164
vt 0.998047 -2.496094
vt -0.000977 -2.496094
vt -0.000977 -2.496094
vt 0.998047 -2.496094
vt -0.000977 -5.493164
vt 0.998047 -5.493164
vt -4.996094 -1.997070
vt -4.015625 -1.997070
vt -4.996094 -2.996094
vt -4.015625 -2.996094
vt -4.996094 -1.997070
vt -4.015625 -1.997070
vt -4.996094 -2.996094
vt -4.015625 -2.996094
vt -2.998047 -2.996094
vt -2.998047 -1.997070
vt -4.015625 -2.996094
vt -4.015625 -1.997070
vt -2.998047 -2.996094
vt -2.998047 -1.997070
vt -4.015625 -2.996094
vt -4.015625 -1.997070
vt -2.998047 -2.996094
vt -2.998047 -1.997070
vt -4.015625 -2.996094
vt -4.015625 -1.997070
vt -2.998047 -2.996094
vt -2.998047 -1.997070
vt -4.015625 -2.996094
vt -4.015625 -1.997070
vt -2.998047 -2.996094
vt -2.998047 -1.997070
vt -4.015625 -2.996094
vt -4.015625 -1.997070
vt -4.996094 -2.996094
vt -4.996094 -1.997070
vt -4.015625 -2.996094
vt -4.015625 -1.997070
vt -4.996094 -1.997070
vt -4.996094 -2.996094
vt -4.015625 -1.997070
vt -4.015625 -2.996094
vt -4.996094 -1.997070
vt -4.996094 -2.996094
vt -4.015625 -1.997070
vt -4.015625 -2.996094
vt -2.998047 -2.996094
vt -4.015625 -2.996094
vt -2.998047 -1.997070
vt -4.015625 -1.997070
vt -2.998047 -2.996094
vt -4.015625 -2.996094
vt -2.998047 -1.997070
vt -4.015625 -1.997070
vt -2.998047 -2.996094
vt -4.015625 -2.996094
vt -2.998047 -1.997070
vt -4.015625 -1.997070
vt -2.998047 -2.996094
vt -4.015625 -2.996094
vt -2.998047 -1.997070
vt -4.015625 -1.997070
vt -2.998047 -2.996094
vt -4.015625 -2.996094
vt -2.998047 -1.997070
vt -4.015625 -1.997070
vt -4.015625 -2.996094
vt -4.015625 -1.997070
vt -4.996094 -2.996094
vt -4.996094 -1.997070
vt -4.996094 -2.996094
vt -4.015625 -2.996094
vt -4.996094 -1.997070
vt -4.015625 -1.997070
vt -1.000000 -6.492188
vt -1.000000 -4.494141
vt -1.999023 -6.492188
vt -1.999023 -4.494141
vt -1.999023 -4.494141
vt -1.999023 -6.492188
vt -1.000000 -4.494141
vt -1.000000 -6.492188
vt 0.998047 -5.493164
vt 0.998047 -2.496094
vt -0.000977 -5.493164
vt -0.000977 -2.496094
vt -0.000977 -2.496094
vt -0.000977 -5.493164
vt 0.998047 -2.496094
vt 0.998047 -5.493164
vt -4.996094 -1.997070
vt -4.015625 -1.997070
vt -4.996094 -2.996094
vt -4.015625 -2.996094
vt -4.996094 -1.997070
vt -4.015625 -1.997070
vt -4.996094 -2.996094
vt -4.015625 -2.996094
vt -2.998047 -2.996094
vt -2.998047 -1.997070
vt -4.015625 -2.996094
vt -4.015625 -1.997070
vt -2.998047 -2.996094
vt -2.998047 -1.997070
vt -4.015625 -2.996094
vt -4.015625 -1.997070
vt -2.998047 -2.996094
vt -2.998047 -1.997070
vt -4.015625 -2.996094
vt -4.015625 -1.997070
vt -2.998047 -2.996094
vt -2.998047 -1.997070
vt -4.015625 -2.996094
vt -4.015625 -1.997070
vt -2.998047 -2.996094
vt -2.998047 -1.997070
vt -4.015625 -2.996094
vt -4.015625 -1.997070
vt -4.996094 -2.996094
vt -4.996094 -1.997070
vt -4.015625 -2.996094
vt -4.015625 -1.997070
vt -4.996094 -1.997070
vt -4.996094 -2.996094
vt -4.015625 -1.997070
vt -4.015625 -2.996094
vt -4.996094 -1.997070
vt -4.996094 -2.996094
vt -4.015625 -1.997070
vt -4.015625 -2.996094
vt -2.998047 -2.996094
vt -4.015625 -2.996094
vt -2.998047 -1.997070
vt -4.015625 -1.997070
vt -2.998047 -2.996094
vt -4.015625 -2.996094
vt -2.998047 -1.997070
vt -4.015625 -1.997070
vt -2.998047 -2.996094
vt -4.015625 -2.996094
vt -2.998047 -1.997070
vt -4.015625 -1.997070
vt -2.998047 -2.996094
vt -4.015625 -2.996094
vt -2.998047 -1.997070
vt -4.015625 -1.997070
vt -2.998047 -2.996094
vt -4.015625 -2.996094
vt -2.998047 -1.997070
vt -4.015625 -1.997070
vt -4.015625 -2.996094
vt -4.015625 -1.997070
vt -4.996094 -2.996094
vt -4.996094 -1.997070
vt -4.996094 -2.996094
vt -4.015625 -2.996094
vt -4.996094 -1.997070
vt -4.015625 -1.997070
vt 4.774414 2.998047
vt 5.322266 2.998047
vt 4.774414 4.996094
vt 5.322266 4.996094
vt 3.604492 1.000000
vt 3.604492 0.000977
vt 2.996094 1.000000
vt 2.996094 0.000977
vt 4.774414 2.998047
vt 5.322266 2.998047
vt 4.774414 4.996094
vt 5.322266 4.996094
vt 3.604492 1.000000
vt 3.604492 0.000977
vt 2.996094 1.000000
vt 2.996094 0.000977
vt 1.755859 1.000000
vt 2.496094 1.000000
vt 1.755859 0.000977
vt 2.496094 0.000977
vt 2.496094 1.000000
vt 2.496094 0.000977
vt 1.755859 1.000000
vt 1.755859 0.000977
vt 1.497070 3.997070
vt 1.497070 1.999023
vt 0.764648 3.997070
vt 0.764648 1.999023
vt 1.497070 3.997070
vt 1.497070 1.999023
vt 0.764648 3.997070
vt 0.764648 1.999023
vt 2.496094 1.000000
vt 2.496094 0.000977
vt 1.755859 1.000000
vt 1.755859 0.000977
vt 5.322266 2.998047
vt 5.322266 4.996094
vt 4.774414 2.998047
vt 4.774414 4.996094
vt 5.322266 2.998047
vt 5.322266 4.996094
vt 4.774414 2.998047
vt 4.774414 4.996094
vt 5.322266 4.002930
vt 4.774414 3.997070
vt 5.322266 2.998047
vt 4.774414 2.998047
vt 2.496094 1.000000
vt 2.496094 0.000977
vt 1.755859 1.000000
vt 1.755859 0.000977
vt 1.497070 3.997070
vt 1.497070 1.999023
vt 0.764648 3.997070
vt 0.764648 1.999023
vt 1.497070 3.997070
vt 1.497070 1.999023
vt 0.764648 3.997070
vt 0.764648 1.999023
vt 2.496094 1.000000
vt 2.496094 0.000977
vt 1.755859 1.000000
vt 1.755859 0.000977
vt 2.496094 1.000000
vt 2.496094 0.000977
vt 1.755859 1.000000
vt 1.755859 0.000977
vt 2.496094 0.000977
vt 1.755859 0.000977
vt 2.496094 1.000000
vt 1.755859 1.000000
vt 1.755859 1.000000
vt 2.496094 1.000000
vt 1.755859 0.000977
vt 2.496094 0.000977
vt 0.764648 3.997070
vt 1.497070 3.997070
vt 0.764648 1.999023
vt 1.497070 1.999023
vt 0.764648 3.997070
vt 1.497070 3.997070
vt 0.764648 1.999023
vt 1.497070 1.999023
vt -0.377930 1.000000
vt -0.377930 0.000977
vt -0.983398 1.000000
vt -0.983398 0.000977
vt -0.983398 1.000000
vt -0.983398 0.000977
vt -0.377930 1.000000
vt -0.377930 0.000977
vt -0.377930 1.000000
vt -0.377930 0.000977
vt -0.983398 1.000000
vt -0.983398 0.000977
vt 2.496094 1.000000
vt 2.496094 0.000977
vt 1.755859 1.000000
vt 1.755859 0.000977
vt 2.496094 1.000000
vt 2.496094 0.000977
vt 1.755859 1.000000
vt 1.755859 0.000977
vt 3.604492 1.000000
vt 3.604492 0.000977
vt 2.996094 1.000000
vt 2.996094 0.000977
vt 3.604492 1.000000
vt 3.604492 0.000977
vt 2.996094 1.000000
vt 2.996094 0.000977
vt -4.996094 -1.997070
vt -4.996094 -2.996094
vt -4.015625 -1.997070
vt -4.015625 -2.996094
vt -4.996094 -1.997070
vt -4.996094 -2.996094
vt -4.015625 -1.997070
vt -4.015625 -2.996094
vt -2.998047 -2.996094
vt -4.015625 -2.996094
vt -2.998047 -1.997070
vt -4.015625 -1.997070
vt -2.998047 -2.996094
vt -4.015625 -2.996094
vt -2.998047 -1.997070
vt -4.015625 -1.997070
vt -2.998047 -2.996094
vt -4.015625 -2.996094
vt -2.998047 -1.997070
vt -4.015625 -1.997070
vt -2.998047 -2.996094
vt -4.015625 -2.996094
vt -2.998047 -1.997070
vt -4.015625 -1.997070
vt -2.998047 -2.996094
vt -4.015625 -2.996094
vt -2.998047 -1.997070
vt -4.015625 -1.997070
vt -4.996094 -2.996094
vt -4.015625 -2.996094
vt -4.996094 -1.997070
vt -4.015625 -1.997070
vt -4.996094 -1.997070
vt -4.015625 -1.997070
vt -4.996094 -2.996094
vt -4.015625 -2.996094
vt -4.996094 -1.997070
vt -4.015625 -1.997070
vt -4.996094 -2.996094
vt -4.015625 -2.996094
vt -2.998047 -2.996094
vt -2.998047 -1.997070
vt -4.015625 -2.996094
vt -4.015625 -1.997070
vt -2.998047 -2.996094
vt -2.998047 -1.997070
vt -4.015625 -2.996094
vt -4.015625 -1.997070
vt -2.998047 -2.996094
vt -2.998047 -1.997070
vt -4.015625 -2.996094
vt -4.015625 -1.997070
vt -2.998047 -2.996094
vt -2.998047 -1.997070
vt -4.015625 -2.996094
vt -4.015625 -1.997070
vt -2.998047 -2.996094
vt -2.998047 -1.997070
vt -4.015625 -2.996094
vt -4.015625 -1.997070
vt -4.015625 -2.996094
vt -4.996094 -2.996094
vt -4.015625 -1.997070
vt -4.996094 -1.997070
vt -4.996094 -2.996094
vt -4.996094 -1.997070
vt -4.015625 -2.996094
vt -4.015625 -1.997070
vt 4.774414 2.998047
vt 4.774414 4.996094
vt 5.322266 2.998047
vt 5.322266 4.996094
vt 3.604492 1.000000
vt 2.996094 1.000000
vt 3.604492 0.000977
vt 2.996094 0.000977
vt 4.774414 2.998047
vt 4.774414 4.996094
vt 5.322266 2.998047
vt 5.322266 4.996094
vt 3.604492 1.000000
vt 2.996094 1.000000
vt 3.604492 0.000977
vt 2.996094 0.000977
vt 1.755859 1.000000
vt 1.755859 0.000977
vt 2.496094 1.000000
vt 2.496094 0.000977
vt 2.496094 1.000000
vt 1.755859 1.000000
vt 2.496094 0.000977
vt 1.755859 0.000977
vt 1.497070 3.997070
vt 0.764648 3.997070
vt 1.497070 1.999023
vt 0.764648 1.999023
vt 1.497070 3.997070
vt 0.764648 3.997070
vt 1.497070 1.999023
vt 0.764648 1.999023
vt 2.496094 1.000000
vt 1.755859 1.000000
vt 2.496094 0.000977
vt 1.755859 0.000977
vt 5.322266 2.998047
vt 4.774414 2.998047
vt 5.322266 4.996094
vt 4.774414 4.996094
vt 5.322266 2.998047
vt 4.774414 2.998047
vt 5.322266 4.996094
vt 4.774414 4.996094
vt 5.322266 4.002930
vt 5.322266 2.998047
vt 4.774414 3.997070
vt 4.774414 2.998047
vt 2.496094 1.000000
vt 1.755859 1.000000
vt 2.496094 0.000977
vt 1.755859 0.000977
vt 1.497070 3.997070
vt 0.764648 3.997070
vt 1.497070 1.999023
vt 0.764648 1.999023
vt 1.497070 3.997070
vt 0.764648 3.997070
vt 1.497070 1.999023
vt 0.764648 1.999023
vt 2.496094 1.000000
vt 1.755859 1.000000
vt 2.496094 0.000977
vt 1.755859 0.000977
vt 2.496094 1.000000
vt 1.755859 1.000000
vt 2.496094 0.000977
vt 1.755859 0.000977
vt 2.496094 0.000977
vt 2.496094 1.000000
vt 1.755859 0.000977
vt 1.755859 1.000000
vt 1.755859 1.000000
vt 1.755859 0.000977
vt 2.496094 1.000000
vt 2.496094 0.000977
vt 0.764648 3.997070
vt 0.764648 1.999023
vt 1.497070 3.997070
vt 1.497070 1.999023
vt 0.764648 3.997070
vt 0.764648 1.999023
vt 1.497070 3.997070
vt 1.497070 1.999023
vt -0.377930 1.000000
vt -0.983398 1.000000
vt -0.377930 0.000977
vt -0.983398 0.000977
vt -0.983398 1.000000
vt -0.377930 1.000000
vt -0.983398 0.000977
vt -0.377930 0.000977
vt -0.377930 1.000000
vt -0.983398 1.000000
vt -0.377930 0.000977
vt -0.983398 0.000977
vt 2.496094 1.000000
vt 1.755859 1.000000
vt 2.496094 0.000977
vt 1.755859 0.000977
vt 2.496094 1.000000
vt 1.755859 1.000000
vt 2.496094 0.000977
vt 1.755859 0.000977
vt 3.604492 1.000000
vt 2.996094 1.000000
vt 3.604492 0.000977
vt 2.996094 0.000977
vt 3.604492 1.000000
vt 2.996094 1.000000
vt 3.604492 0.000977
vt 2.996094 0.000977
vt -4.015625 -1.997070
vt -4.015625 -2.996094
vt -4.996094 -1.997070
vt -1.999023 -6.492188
vt -1.000000 -4.494141
vt -1.999023 -4.494141
vt 0.998047 -5.493164
vt -0.000977 -5.493164
vt 0.998047 -2.496094
vt 0.998047 -5.493164
vt -0.000977 -5.493164
vt 0.998047 -2.496094
vt 0.998047 -5.493164
vt -0.000977 -5.493164
vt 0.998047 -2.496094
vt -1.000000 -6.492188
vt -1.999023 -6.492188
vt -1.000000 -4.494141
vt -0.000977 -2.496094
vt 0.498047 -5.493164
vt 0.998047 -2.496094
vt -4.015625 -1.997070
vt -4.015625 -2.996094
vt -4.996094 -1.997070
vt 0.998047 -2.496094
vt 0.498047 -5.493164
vt -0.000977 -2.496094
vt -4.015625 -1.997070
vt -4.996094 -2.996094
vt -4.015625 -2.996094
vt -4.996094 -1.997070
vt -4.996094 -2.996094
vt -4.015625 -1.997070
vt -4.015625 -1.997070
vt -4.015625 -2.996094
vt -4.996094 -1.997070
vt 0.998047 -2.496094
vt 0.498047 -5.493164
vt -0.000977 -2.496094
vt -4.015625 -1.997070
vt -4.996094 -2.996094
vt -4.996094 -1.997070
vt -4.015625 -2.996094
vt -4.996094 -2.996094
vt -4.015625 -1.997070
vt -4.015625 -1.997070
vt -4.015625 -2.996094
vt -4.996094 -1.997070
vt -1.999023 -6.492188
vt -1.000000 -4.494141
vt -1.999023 -4.494141
vt 0.998047 -5.493164
vt -0.000977 -5.493164
vt 0.998047 -2.496094
vt 0.998047 -5.493164
vt -0.000977 -5.493164
vt 0.998047 -2.496094
vt 0.998047 -5.493164
vt -0.000977 -5.493164
vt 0.998047 -2.496094
vt -1.000000 -6.492188
vt -1.999023 -6.492188
vt -1.000000 -4.494141
vt -0.000977 -2.496094
vt 0.498047 -5.493164
vt 0.998047 -2.496094
vt -4.015625 -1.997070
vt -4.996094 -2.996094
vt -4.996094 -1.997070
vt -4.015625 -2.996094
vt -4.996094 -2.996094
vt -4.015625 -1.997070
vt -4.015625 -1.997070
vt -4.015625 -2.996094
vt -4.996094 -1.997070
vt 2.996094 0.000977
vt 3.604492 1.000000
vt 3.604492 0.000977
vt 5.322266 2.998047
vt 4.774414 3.997070
vt 4.774414 2.998047
vt 5.322266 2.998047
vt 4.774414 3.997070
vt 4.774414 2.998047
vt 1.755859 0.000977
vt 2.496094 1.000000
vt 2.496094 0.000977
vt -0.983398 0.000977
vt -0.377930 1.000000
vt -0.377930 0.000977
vt -4.996094 -2.996094
vt -4.015625 -1.997070
vt -4.996094 -1.997070
vt -4.015625 -2.996094
vt -4.015625 -1.997070
vt -4.996094 -2.996094
vt -4.015625 -1.997070
vt -4.015625 -2.996094
vt -4.996094 -1.997070
vt 3.604492 0.000977
vt 3.604492 1.000000
vt 2.996094 0.000977
vt 4.774414 2.998047
vt 4.774414 3.997070
vt 5.322266 2.998047
vt 4.774414 2.998047
vt 4.774414 3.997070
vt 5.322266 2.998047
vt 2.496094 0.000977
vt 2.496094 1.000000
vt 1.755859 0.000977
vt -0.377930 0.000977
vt -0.377930 1.000000
vt -0.983398 0.000977
vn -0.0000 0.0000 -1.0000
vn 0.0000 -0.7125 -0.7016
vn 0.0000 -0.7872 -0.6167
vn -0.0121 -0.7856 -0.6186
vn 0.0000 -0.7877 -0.6160
vn 0.0131 -0.7859 -0.6182
vn 0.0131 -0.7863 -0.6177
vn 0.0255 -0.7861 -0.6175
vn 0.0000 -0.6293 -0.7772
vn 0.0000 -0.5589 -0.8293
vn 0.0000 0.0000 1.0000
vn 0.0000 -0.5440 0.8391
vn 0.0000 -0.5439 0.8391
vn 0.0000 -0.5440 -0.8391
vn 0.0000 -0.5439 -0.8391
vn 0.0000 -0.7125 0.7016
vn 0.0000 -0.7872 0.6167
vn 0.0114 -0.7857 0.6184
vn 0.0116 -0.7871 0.6167
vn -0.0000 -0.7876 0.6162
vn -0.0131 -0.7853 0.6189
vn -0.0131 -0.7863 0.6177
vn -0.0255 -0.7861 0.6175
vn 0.0000 -0.6293 0.7772
vn 0.0000 -0.5589 0.8293
vn -0.0042 -0.0006 -1.0000
vn -0.0042 -0.0000 -1.0000
vn -0.0075 -0.0020 -1.0000
vn 0.0002 -0.0005 -1.0000
vn 0.0033 0.0015 -1.0000
vn -0.9135 -0.4068 0.0000
vn -0.7387 -0.6740 0.0000
vn -0.6073 -0.7945 0.0000
vn -0.7995 -0.6006 0.0000
vn -0.8332 -0.5530 0.0000
vn 0.0042 -0.0006 -1.0000
vn 0.0075 -0.0020 -1.0000
vn 0.0042 -0.0000 -1.0000
vn -0.0033 0.0015 -1.0000
vn -0.0002 -0.0006 -1.0000
vn 0.9135 -0.4068 0.0000
vn 0.7387 -0.6740 0.0000
vn 0.6073 -0.7945 0.0000
vn 0.7995 -0.6006 0.0000
vn 0.8332 -0.5530 0.0000
vn -1.0000 0.0000 0.0000
vn -1.0000 0.0017 0.0021
vn -1.0000 0.0034 0.0042
vn -1.0000 -0.0015 -0.0021
vn -1.0000 0.0001 -0.0001
vn -1.0000 0.0020 0.0020
vn -1.0000 0.0030 0.0030
vn -1.0000 -0.0001 -0.0001
vn -1.0000 0.0009 0.0009
vn -0.0042 -0.0006 1.0000
vn -0.0075 -0.0020 1.0000
vn -0.0042 -0.0000 1.0000
vn 0.0033 0.0015 1.0000
vn 0.0002 -0.0006 1.0000
vn 0.0042 -0.0006 1.0000
vn 0.0042 -0.0000 1.0000
vn 0.0075 -0.0020 1.0000
vn -0.0002 -0.0006 1.0000
vn -0.0033 0.0015 1.0000
vn -1.0000 0.0017 -0.0021
vn -1.0000 0.0034 -0.0042
vn -1.0000 0.0001 0.0001
vn -1.0000 -0.0015 0.0021
vn -1.0000 0.0019 -0.0020
vn -1.0000 0.0030 -0.0030
vn -1.0000 0.0009 -0.0009
vn -1.0000 -0.0001 0.0001
vn 0.0042 0.0001 -1.0000
vn -0.0001 -0.0005 -1.0000
vn 1.0000 0.0000 0.0000
vn 1.0000 0.0017 0.0021
vn 1.0000 0.0034 0.0042
vn 1.0000 0.0001 -0.0001
vn 1.0000 -0.0015 -0.0021
vn 1.0000 0.0020 0.0020
vn 1.0000 0.0026 0.0026
vn 1.0000 0.0014 0.0014
vn 1.0000 0.0007 0.0007
vn 0.0042 0.0001 1.0000
vn -0.0001 -0.0005 1.0000
vn -0.7387 -0.6741 0.0000
vn -0.7996 -0.6006 0.0000
vn 1.0000 0.0017 -0.0021
vn 1.0000 0.0034 -0.0042
vn 1.0000 -0.0015 0.0021
vn 1.0000 0.0001 0.0001
vn 1.0000 0.0020 -0.0020
vn 1.0000 0.0025 -0.0025
vn 1.0000 0.0008 -0.0008
vn 1.0000 0.0014 -0.0014
vn -0.0042 0.0001 -1.0000
vn 0.0001 -0.0005 -1.0000
vn 0.0074 -0.0020 -1.0000
vn 0.0042 -0.0001 -1.0000
vn 0.0202 -0.1529 -0.9880
vn 0.0201 -0.1565 -0.9875
vn 0.0374 -0.1528 -0.9875
vn -0.0000 -0.1435 -0.9897
vn -0.0172 -0.1472 -0.9890
vn 0.0000 -0.1472 -0.9891
vn 0.0000 -0.1608 -0.9870
vn 0.0000 -0.4182 -0.9084
vn 0.0000 -0.5583 -0.8296
vn 0.0000 -0.7755 -0.6313
vn -0.0006 -0.1473 -0.9891
vn -0.0009 -0.1473 -0.9891
vn 0.0006 -0.1472 -0.9891
vn 0.0000 -0.1468 -0.9892
vn 0.0000 0.1414 0.9899
vn 0.0000 0.1644 0.9864
vn 0.0000 0.4138 0.9104
vn 0.0000 0.5720 -0.8203
vn 0.0000 0.3884 -0.9215
vn -0.0042 0.0001 1.0000
vn 0.0001 -0.0005 1.0000
vn 0.0042 -0.0001 1.0000
vn 0.0074 -0.0020 1.0000
vn 0.0202 -0.1529 0.9880
vn 0.0374 -0.1528 0.9875
vn 0.0201 -0.1566 0.9875
vn -0.0172 -0.1472 0.9890
vn 0.0000 -0.1435 0.9897
vn 0.0000 -0.1472 0.9891
vn 0.0000 -0.1608 0.9870
vn 0.0000 -0.4182 0.9084
vn 0.0000 -0.5583 0.8296
vn 0.0000 -0.7755 0.6313
vn -0.0006 -0.1473 0.9891
vn -0.0009 -0.1473 0.9891
vn 0.0005 -0.1472 0.9891
vn 0.0000 0.1414 -0.9899
vn 0.0000 0.1644 -0.9864
vn 0.0000 0.4138 -0.9104
vn 0.0000 0.5719 0.8203
vn 0.0000 0.3884 0.9215
vn -0.0131 -0.7863 -0.6177
vn -1.0000 0.0006 0.0013
vn -1.0000 0.0006 -0.0013
vn 1.0000 0.0011 0.0017
vn 0.0131 -0.7863 0.6177
vn 1.0000 0.0011 -0.0017
vn 0.0000 0.5882 0.8087
vn 0.0000 0.5882 -0.8087
usemtl Tex_0024_1.dds.001
s off
f 1/1/1 3/2/1 2/3/1
f 2/3/1 3/2/1 4/4/1
f 3/2/1 5/5/1 4/4/1
f 6/6/2 8/7/2 7/8/2
f 7/8/2 8/7/2 9/9/2
f 8/7/2 10/10/2 9/9/2
f 11/11/3 13/12/4 12/13/3
f 12/13/3 13/12/3 14/14/5
f 13/12/6 15/15/7 14/14/8
f 16/16/9 18/17/9 17/18/9
f 17/18/9 18/17/9 19/19/9
f 18/17/9 20/20/9 19/19/9
f 21/21/10 23/22/10 22/23/10
f 22/23/10 23/22/10 24/24/10
f 23/22/10 25/25/10 24/24/10
f 26/26/11 28/27/11 27/28/11
f 27/28/11 28/27/11 29/29/11
f 28/27/11 30/30/11 29/29/11
f 31/31/12 33/32/12 32/33/12
f 32/33/12 33/32/12 34/34/12
f 33/32/13 35/35/13 34/34/13
f 36/36/1 38/37/1 37/38/1
f 37/38/1 38/37/1 39/39/1
f 38/37/1 40/40/1 39/39/1
f 41/41/14 43/42/14 42/43/14
f 42/43/15 43/42/15 44/44/15
f 43/42/15 45/45/15 44/44/15
f 46/46/11 48/47/11 47/48/11
f 47/48/11 48/47/11 49/49/11
f 48/47/11 50/50/11 49/49/11
f 51/51/16 53/52/16 52/53/16
f 52/53/16 53/52/16 54/54/16
f 53/52/16 55/55/16 54/54/16
f 56/56/17 58/57/18 57/58/17
f 57/58/17 58/57/19 59/59/20
f 58/57/21 60/60/22 59/59/23
f 61/61/24 63/62/24 62/63/24
f 62/63/24 63/62/24 64/64/24
f 63/62/24 65/65/24 64/64/24
f 66/66/25 68/67/25 67/68/25
f 67/68/25 68/67/25 69/69/25
f 68/67/25 70/70/25 69/69/25
f 71/71/1 73/72/1 72/73/1
f 72/73/1 73/72/1 74/74/1
f 73/72/1 75/75/1 74/74/1
f 76/76/11 78/77/11 77/78/11
f 77/78/11 78/77/11 79/79/11
f 78/77/11 80/80/11 79/79/11
f 81/81/26 83/82/27 82/83/28
f 82/83/29 83/82/30 84/84/1
f 85/85/1 87/86/1 86/87/1
f 86/87/1 87/86/1 88/88/1
f 89/89/31 91/90/31 90/91/31
f 90/91/31 91/90/31 92/92/31
f 93/93/32 95/94/32 94/95/32
f 94/95/32 95/94/32 96/96/32
f 97/97/33 99/98/33 98/99/33
f 98/99/33 99/98/33 100/100/33
f 101/101/34 103/102/34 102/103/34
f 102/103/34 103/102/34 104/104/34
f 105/105/35 107/106/35 106/107/35
f 106/107/35 107/106/35 108/108/35
f 109/109/1 111/110/1 110/111/1
f 110/111/1 111/110/1 112/112/1
f 113/113/1 115/114/1 114/115/1
f 114/115/1 115/114/1 116/116/1
f 117/117/36 119/118/37 118/119/38
f 118/119/39 119/118/40 120/120/1
f 121/121/1 123/122/1 122/123/1
f 122/123/1 123/122/1 124/124/1
f 125/125/41 127/126/41 126/127/41
f 126/127/41 127/126/41 128/128/41
f 129/129/42 131/130/42 130/131/42
f 130/131/42 131/130/42 132/132/42
f 133/133/43 135/134/43 134/135/43
f 134/135/43 135/134/43 136/136/43
f 137/137/44 139/138/44 138/139/44
f 138/139/44 139/138/44 140/140/44
f 141/141/45 143/142/45 142/143/45
f 142/143/45 143/142/45 144/144/45
f 145/145/1 147/146/1 146/147/1
f 146/147/1 147/146/1 148/148/1
f 149/149/1 151/150/1 150/151/1
f 150/151/1 151/150/1 152/152/1
f 153/153/46 155/154/46 154/155/46
f 154/155/46 155/154/46 156/156/46
f 157/157/46 159/158/46 158/159/46
f 158/159/46 159/158/46 160/160/46
f 161/161/47 163/162/48 162/163/47
f 162/163/49 163/162/50 164/164/50
f 165/165/51 167/166/52 166/167/51
f 166/167/53 167/166/54 168/168/54
f 169/169/55 171/170/56 170/171/57
f 170/171/58 171/170/59 172/172/11
f 173/173/11 175/174/11 174/175/11
f 174/175/11 175/174/11 176/176/11
f 177/177/31 179/178/31 178/179/31
f 178/179/31 179/178/31 180/180/31
f 181/181/32 183/182/32 182/183/32
f 182/183/32 183/182/32 184/184/32
f 185/185/33 187/186/33 186/187/33
f 186/187/33 187/186/33 188/188/33
f 189/189/34 191/190/34 190/191/34
f 190/191/34 191/190/34 192/192/34
f 193/193/35 195/194/35 194/195/35
f 194/195/35 195/194/35 196/196/35
f 197/197/11 199/198/11 198/199/11
f 198/199/11 199/198/11 200/200/11
f 201/201/11 203/202/11 202/203/11
f 202/203/11 203/202/11 204/204/11
f 205/205/60 207/206/61 206/207/62
f 206/207/63 207/206/64 208/208/11
f 209/209/11 211/210/11 210/211/11
f 210/211/11 211/210/11 212/212/11
f 213/213/41 215/214/41 214/215/41
f 214/215/41 215/214/41 216/216/41
f 217/217/42 219/218/42 218/219/42
f 218/219/42 219/218/42 220/220/42
f 221/221/43 223/222/43 222/223/43
f 222/223/43 223/222/43 224/224/43
f 225/225/44 227/226/44 226/227/44
f 226/227/44 227/226/44 228/228/44
f 229/229/45 231/230/45 230/231/45
f 230/231/45 231/230/45 232/232/45
f 233/233/11 235/234/11 234/235/11
f 234/235/11 235/234/11 236/236/11
f 237/237/11 239/238/11 238/239/11
f 238/239/11 239/238/11 240/240/11
f 241/241/46 243/242/46 242/243/46
f 242/243/46 243/242/46 244/244/46
f 245/245/46 247/246/46 246/247/46
f 246/247/46 247/246/46 248/248/46
f 249/249/65 251/250/65 250/251/66
f 250/251/67 251/250/68 252/252/67
f 253/253/69 255/254/69 254/255/70
f 254/255/71 255/254/72 256/256/71
f 257/257/36 259/258/37 258/259/73
f 258/259/39 259/258/74 260/260/1
f 261/261/1 263/262/1 262/263/1
f 262/263/1 263/262/1 264/264/1
f 265/265/41 267/266/41 266/267/41
f 266/267/41 267/266/41 268/268/41
f 269/269/42 271/270/42 270/271/42
f 270/271/42 271/270/42 272/272/42
f 273/273/43 275/274/43 274/275/43
f 274/275/43 275/274/43 276/276/43
f 277/277/44 279/278/44 278/279/44
f 278/279/44 279/278/44 280/280/44
f 281/281/45 283/282/45 282/283/45
f 282/283/45 283/282/45 284/284/45
f 285/285/1 287/286/1 286/287/1
f 286/287/1 287/286/1 288/288/1
f 289/289/26 291/290/27 290/291/28
f 290/291/29 291/290/30 292/292/1
f 293/293/1 295/294/1 294/295/1
f 294/295/1 295/294/1 296/296/1
f 297/297/31 299/298/31 298/299/31
f 298/299/31 299/298/31 300/300/31
f 301/301/32 303/302/32 302/303/32
f 302/303/32 303/302/32 304/304/32
f 305/305/33 307/306/33 306/307/33
f 306/307/33 307/306/33 308/308/33
f 309/309/34 311/310/34 310/311/34
f 310/311/34 311/310/34 312/312/34
f 313/313/35 315/314/35 314/315/35
f 314/315/35 315/314/35 316/316/35
f 317/317/1 319/318/1 318/319/1
f 318/319/1 319/318/1 320/320/1
f 321/321/1 323/322/1 322/323/1
f 322/323/1 323/322/1 324/324/1
f 325/325/75 327/326/75 326/327/75
f 326/327/75 327/326/75 328/328/75
f 329/329/75 331/330/75 330/331/75
f 330/331/75 331/330/75 332/332/75
f 333/333/76 335/334/76 334/335/77
f 334/335/78 335/334/79 336/336/78
f 337/337/80 339/338/80 338/339/81
f 338/339/82 339/338/83 340/340/82
f 341/341/60 343/342/84 342/343/62
f 342/343/85 343/342/64 344/344/11
f 345/345/11 347/346/11 346/347/11
f 346/347/11 347/346/11 348/348/11
f 349/349/41 351/350/41 350/351/41
f 350/351/41 351/350/41 352/352/41
f 353/353/42 355/354/42 354/355/42
f 354/355/42 355/354/42 356/356/42
f 357/357/43 359/358/43 358/359/43
f 358/359/43 359/358/43 360/360/43
f 361/361/44 363/362/44 362/363/44
f 362/363/44 363/362/44 364/364/44
f 365/365/45 367/366/45 366/367/45
f 366/367/45 367/366/45 368/368/45
f 369/369/11 371/370/11 370/371/11
f 370/371/11 371/370/11 372/372/11
f 373/373/55 375/374/56 374/375/57
f 374/375/58 375/374/59 376/376/11
f 377/377/11 379/378/11 378/379/11
f 378/379/11 379/378/11 380/380/11
f 381/381/31 383/382/31 382/383/31
f 382/383/31 383/382/31 384/384/31
f 385/385/86 387/386/86 386/387/86
f 386/387/86 387/386/86 388/388/86
f 389/389/33 391/390/33 390/391/33
f 390/391/33 391/390/33 392/392/33
f 393/393/87 395/394/87 394/395/87
f 394/395/87 395/394/87 396/396/87
f 397/397/35 399/398/35 398/399/35
f 398/399/35 399/398/35 400/400/35
f 401/401/11 403/402/11 402/403/11
f 402/403/11 403/402/11 404/404/11
f 405/405/11 407/406/11 406/407/11
f 406/407/11 407/406/11 408/408/11
f 409/409/75 411/410/75 410/411/75
f 410/411/75 411/410/75 412/412/75
f 413/413/75 415/414/75 414/415/75
f 414/415/75 415/414/75 416/416/75
f 417/417/88 419/418/89 418/419/88
f 418/419/90 419/418/91 420/420/91
f 421/421/92 423/422/93 422/423/92
f 422/423/94 423/422/95 424/424/95
f 425/425/26 427/426/96 426/427/28
f 426/427/97 427/426/30 428/428/1
f 429/429/1 431/430/1 430/431/1
f 430/431/1 431/430/1 432/432/1
f 433/433/31 435/434/31 434/435/31
f 434/435/31 435/434/31 436/436/31
f 437/437/32 439/438/32 438/439/32
f 438/439/32 439/438/32 440/440/32
f 441/441/33 443/442/33 442/443/33
f 442/443/33 443/442/33 444/444/33
f 445/445/34 447/446/34 446/447/34
f 446/447/34 447/446/34 448/448/34
f 449/449/35 451/450/35 450/451/35
f 450/451/35 451/450/35 452/452/35
f 453/453/1 455/454/1 454/455/1
f 454/455/1 455/454/1 456/456/1
f 457/457/36 459/458/98 458/459/99
f 458/459/39 459/458/74 460/460/1
f 461/461/1 463/462/1 462/463/1
f 462/463/1 463/462/1 464/464/1
f 465/465/41 467/466/41 466/467/41
f 466/467/41 467/466/41 468/468/41
f 469/469/42 471/470/42 470/471/42
f 470/471/42 471/470/42 472/472/42
f 473/473/43 475/474/43 474/475/43
f 474/475/43 475/474/43 476/476/43
f 477/477/44 479/478/44 478/479/44
f 478/479/44 479/478/44 480/480/44
f 481/481/45 483/482/45 482/483/45
f 482/483/45 483/482/45 484/484/45
f 485/485/1 487/486/1 486/487/1
f 486/487/1 487/486/1 488/488/1
f 489/489/1 491/490/1 490/491/1
f 490/491/1 491/490/1 492/492/1
f 493/493/46 495/494/46 494/495/46
f 494/495/46 495/494/46 496/496/46
f 497/497/46 499/498/46 498/499/46
f 498/499/46 499/498/46 500/500/46
f 501/501/46 503/502/46 502/503/46
f 502/503/46 503/502/46 504/504/46
f 505/505/46 507/506/46 506/507/46
f 506/507/46 507/506/46 508/508/46
f 509/509/100 511/510/101 510/511/102
f 510/511/103 511/510/104 512/512/105
f 513/513/106 515/514/106 514/515/106
f 514/515/106 515/514/106 516/516/106
f 517/517/107 519/518/107 518/519/107
f 518/519/107 519/518/107 520/520/107
f 521/521/108 523/522/108 522/523/108
f 522/523/108 523/522/108 524/524/108
f 525/525/109 527/526/109 526/527/109
f 526/527/109 527/526/109 528/528/109
f 529/529/75 531/530/75 530/531/75
f 530/531/75 531/530/75 532/532/75
f 533/533/75 535/534/75 534/535/75
f 534/535/75 535/534/75 536/536/75
f 537/537/75 539/538/75 538/539/75
f 538/539/75 539/538/75 540/540/75
f 541/541/109 543/542/109 542/543/109
f 542/543/109 543/542/109 544/544/109
f 545/545/108 547/546/108 546/547/108
f 546/547/108 547/546/108 548/548/108
f 549/549/107 551/550/107 550/551/107
f 550/551/107 551/550/107 552/552/107
f 553/553/106 555/554/106 554/555/106
f 554/555/106 555/554/106 556/556/106
f 557/557/110 559/558/111 558/559/110
f 558/559/112 559/558/113 560/560/105
f 561/561/75 563/562/75 562/563/75
f 562/563/75 563/562/75 564/564/75
f 565/565/75 567/566/75 566/567/75
f 566/567/75 567/566/75 568/568/75
f 569/569/75 571/570/75 570/571/75
f 570/571/75 571/570/75 572/572/75
f 573/573/75 575/574/75 574/575/75
f 574/575/75 575/574/75 576/576/75
f 577/577/114 579/578/114 578/579/114
f 578/579/114 579/578/114 580/580/114
f 581/581/115 583/582/115 582/583/115
f 582/583/115 583/582/115 584/584/115
f 585/585/116 587/586/116 586/587/116
f 586/587/116 587/586/116 588/588/116
f 589/589/117 591/590/117 590/591/117
f 590/591/117 591/590/117 592/592/117
f 593/593/118 595/594/118 594/595/118
f 594/595/118 595/594/118 596/596/118
f 597/597/75 599/598/75 598/599/75
f 598/599/75 599/598/75 600/600/75
f 601/601/75 603/602/75 602/603/75
f 602/603/75 603/602/75 604/604/75
f 605/605/55 607/606/56 606/607/119
f 606/607/58 607/606/120 608/608/11
f 609/609/11 611/610/11 610/611/11
f 610/611/11 611/610/11 612/612/11
f 613/613/31 615/614/31 614/615/31
f 614/615/31 615/614/31 616/616/31
f 617/617/32 619/618/32 618/619/32
f 618/619/32 619/618/32 620/620/32
f 621/621/33 623/622/33 622/623/33
f 622/623/33 623/622/33 624/624/33
f 625/625/34 627/626/34 626/627/34
f 626/627/34 627/626/34 628/628/34
f 629/629/35 631/630/35 630/631/35
f 630/631/35 631/630/35 632/632/35
f 633/633/11 635/634/11 634/635/11
f 634/635/11 635/634/11 636/636/11
f 637/637/60 639/638/121 638/639/122
f 638/639/85 639/638/64 640/640/11
f 641/641/11 643/642/11 642/643/11
f 642/643/11 643/642/11 644/644/11
f 645/645/41 647/646/41 646/647/41
f 646/647/41 647/646/41 648/648/41
f 649/649/42 651/650/42 650/651/42
f 650/651/42 651/650/42 652/652/42
f 653/653/43 655/654/43 654/655/43
f 654/655/43 655/654/43 656/656/43
f 657/657/44 659/658/44 658/659/44
f 658/659/44 659/658/44 660/660/44
f 661/661/45 663/662/45 662/663/45
f 662/663/45 663/662/45 664/664/45
f 665/665/11 667/666/11 666/667/11
f 666/667/11 667/666/11 668/668/11
f 669/669/11 671/670/11 670/671/11
f 670/671/11 671/670/11 672/672/11
f 673/673/46 675/674/46 674/675/46
f 674/675/46 675/674/46 676/676/46
f 677/677/46 679/678/46 678/679/46
f 678/679/46 679/678/46 680/680/46
f 681/681/46 683/682/46 682/683/46
f 682/683/46 683/682/46 684/684/46
f 685/685/46 687/686/46 686/687/46
f 686/687/46 687/686/46 688/688/46
f 689/689/123 691/690/124 690/691/125
f 690/691/126 691/690/127 692/692/128
f 693/693/129 695/694/129 694/695/129
f 694/695/129 695/694/129 696/696/129
f 697/697/130 699/698/130 698/699/130
f 698/699/130 699/698/130 700/700/130
f 701/701/131 703/702/131 702/703/131
f 702/703/131 703/702/131 704/704/131
f 705/705/132 707/706/132 706/707/132
f 706/707/132 707/706/132 708/708/132
f 709/709/75 711/710/75 710/711/75
f 710/711/75 711/710/75 712/712/75
f 713/713/75 715/714/75 714/715/75
f 714/715/75 715/714/75 716/716/75
f 717/717/75 719/718/75 718/719/75
f 718/719/75 719/718/75 720/720/75
f 721/721/132 723/722/132 722/723/132
f 722/723/132 723/722/132 724/724/132
f 725/725/131 727/726/131 726/727/131
f 726/727/131 727/726/131 728/728/131
f 729/729/130 731/730/130 730/731/130
f 730/731/130 731/730/130 732/732/130
f 733/733/129 735/734/129 734/735/129
f 734/735/129 735/734/129 736/736/129
f 737/737/133 739/738/133 738/739/134
f 738/739/128 739/738/135 740/740/128
f 741/741/75 743/742/75 742/743/75
f 742/743/75 743/742/75 744/744/75
f 745/745/75 747/746/75 746/747/75
f 746/747/75 747/746/75 748/748/75
f 749/749/75 751/750/75 750/751/75
f 750/751/75 751/750/75 752/752/75
f 753/753/75 755/754/75 754/755/75
f 754/755/75 755/754/75 756/756/75
f 757/757/136 759/758/136 758/759/136
f 758/759/136 759/758/136 760/760/136
f 761/761/137 763/762/137 762/763/137
f 762/763/137 763/762/137 764/764/137
f 765/765/138 767/766/138 766/767/138
f 766/767/138 767/766/138 768/768/138
f 769/769/139 771/770/139 770/771/139
f 770/771/139 771/770/139 772/772/139
f 773/773/140 775/774/140 774/775/140
f 774/775/140 775/774/140 776/776/140
f 777/777/75 779/778/75 778/779/75
f 778/779/75 779/778/75 780/780/75
f 781/781/75 783/782/75 782/783/75
f 782/783/75 783/782/75 784/784/75
f 785/785/1 787/786/1 786/787/1
f 788/788/14 790/789/14 789/790/14
f 791/791/2 793/792/2 792/793/2
f 794/794/141 796/795/141 795/796/141
f 797/797/9 799/798/9 798/799/9
f 800/800/10 802/801/10 801/802/10
f 803/803/142 805/804/142 804/805/142
f 806/806/11 808/807/11 807/808/11
f 809/809/143 811/810/143 810/811/143
f 812/812/1 814/813/1 813/814/1
f 815/815/1 817/816/1 816/817/1
f 818/818/1 820/819/1 819/820/1
f 821/821/144 823/822/144 822/823/144
f 824/824/11 826/825/11 825/826/11
f 827/827/11 829/828/11 828/829/11
f 830/830/11 832/831/11 831/832/11
f 833/833/12 835/834/12 834/835/12
f 836/836/16 838/837/16 837/838/16
f 839/839/145 841/840/145 840/841/145
f 842/842/24 844/843/24 843/844/24
f 845/845/25 847/846/25 846/847/25
f 848/848/146 850/849/146 849/850/146
f 851/851/1 853/852/1 852/853/1
f 854/854/1 856/855/1 855/856/1
f 857/857/1 859/858/1 858/859/1
f 860/860/46 862/861/46 861/862/46
f 863/863/75 865/864/75 864/865/75
f 866/866/75 868/867/75 867/868/75
f 869/869/75 871/870/75 870/871/75
f 872/872/147 874/873/147 873/874/147
f 875/875/11 877/876/11 876/877/11
f 878/878/11 880/879/11 879/880/11
f 881/881/11 883/882/11 882/883/11
f 884/884/46 886/885/46 885/886/46
f 887/887/75 889/888/75 888/889/75
f 890/890/75 892/891/75 891/892/75
f 893/893/75 895/894/75 894/895/75
f 896/896/148 898/897/148 897/898/148
