# Blender v3.6.3 OBJ File: 'untitled.blend'
# www.blender.org
mtllib Mesh_0174.mtl
o Mesh_0174_Mesh.031
v -22.936598 48.423058 -2.133141
v -22.688694 48.186836 -2.328011
v -22.688694 48.046375 -1.088539
v -22.936600 47.803806 -1.143913
v -22.688694 47.553360 0.320351
v -22.936596 47.329330 0.212402
v -22.688694 46.759357 1.584229
v -22.936596 46.564793 1.429085
v -22.688694 45.703732 2.639694
v -22.936600 45.548794 2.445160
v -22.688694 44.440083 3.433823
v -22.936600 44.332138 3.209648
v -22.688694 43.031147 3.926811
v -22.936600 42.975773 3.684242
v -22.688694 41.801533 4.065727
v -22.936596 41.547787 3.845100
v -22.688694 41.546009 4.093948
v -22.936604 41.986439 -9.446995
v -22.688694 41.791622 -9.210823
v -22.688694 43.031143 -9.070415
v -22.936598 42.975769 -8.827847
v -22.688694 44.440079 -8.577423
v -22.936596 44.332127 -8.353241
v -22.688694 45.703732 -7.783295
v -22.936598 45.548794 -7.588760
v -22.688694 46.759357 -6.727829
v -22.936600 46.564796 -6.572685
v -22.688694 47.553360 -5.463943
v -22.936604 47.329338 -5.355995
v -22.688694 48.046375 -4.055054
v -22.936602 47.803806 -3.999680
v -22.688694 48.185314 -2.825592
v -22.936600 47.964584 -2.571800
v -22.688694 48.213509 -2.570076
v -22.936604 34.672512 -3.010483
v -22.688694 34.908733 -2.815590
v -22.688694 35.049194 -4.055054
v -22.936600 35.291767 -3.999680
v -22.688694 35.542210 -5.463951
v -22.936600 35.766243 -5.356003
v -22.688694 36.336212 -6.727829
v -22.936604 36.530781 -6.572685
v -22.688694 37.391838 -7.783291
v -22.936604 37.547035 -7.588726
v -22.688694 38.655739 -8.577423
v -22.936600 38.763683 -8.353241
v -22.688694 40.064423 -9.070415
v -22.936600 40.119789 -8.827847
v -22.688694 41.294037 -9.209354
v -22.936600 41.547779 -8.988705
v -22.688694 41.549561 -9.237549
v -22.936604 41.109127 4.303391
v -22.688694 41.303944 4.067223
v -22.688694 40.064426 3.926811
v -22.936594 40.119793 3.684242
v -22.688694 38.655743 3.433823
v -22.936596 38.763691 3.209648
v -22.688694 37.391838 2.639694
v -22.936600 37.547031 2.445160
v -22.688694 36.336212 1.584229
v -22.936600 36.530777 1.429108
v -22.688694 35.542210 0.320351
v -22.936598 35.766235 0.212425
v -22.688694 35.049194 -1.088539
v -22.936596 35.291767 -1.143883
v -22.688694 34.910259 -2.318008
v -22.936598 35.130981 -2.571800
v -22.688694 34.882065 -2.573532
v -22.304647 28.125406 -9.195915
v -22.304647 30.790630 -7.651798
v -22.059536 28.257742 -9.400387
v -22.059536 31.123878 -7.651798
v -22.304647 31.534849 -7.651798
v -22.059536 28.257742 -5.903214
v -22.304647 28.389059 -5.698341
v -22.082397 25.399988 -5.111801
v -22.304647 25.596331 -4.950035
v -22.059029 24.129988 -5.111031
v -22.059536 27.048449 -4.320389
v -22.304647 26.915857 -4.115913
v -22.059536 29.914328 -2.571800
v -22.304647 29.520628 -2.571800
v -22.304647 26.915859 -1.027687
v -22.688694 41.801533 4.065727
v -22.936604 41.991776 4.304512
v -22.688694 43.031147 3.926811
v -22.936602 43.086262 4.168091
v -22.688694 44.440083 3.433823
v -22.936598 44.547268 3.656815
v -22.688694 45.703732 2.639694
v -22.936602 45.858166 2.833168
v -22.688694 46.759357 1.584229
v -22.936604 46.952904 1.738533
v -22.688694 47.553360 0.320351
v -22.936604 47.776375 0.427742
v -22.688694 48.046375 -1.088539
v -22.936596 48.287670 -1.033470
v -22.936598 48.423058 -2.133141
v -22.688694 48.185314 -2.825592
v -22.936598 48.424065 -3.015892
v -22.688694 48.046375 -4.055054
v -22.936602 48.287670 -4.110146
v -22.688694 47.553360 -5.463943
v -22.936602 47.776375 -5.571335
v -22.688694 46.759357 -6.727829
v -22.936602 46.952904 -6.882126
v -22.688694 45.703732 -7.783295
v -22.936602 45.858166 -7.976765
v -22.688694 44.440079 -8.577423
v -22.936598 44.547268 -8.800411
v -22.688694 43.031143 -9.070415
v -22.936600 43.086258 -9.311691
v -22.936604 41.986439 -9.446995
v -22.688694 41.294037 -9.209354
v -22.936602 41.103790 -9.448109
v -22.688694 40.064423 -9.070415
v -22.936604 40.009556 -9.311691
v -22.688694 38.655739 -8.577423
v -22.936604 38.548290 -8.800411
v -22.688694 37.391838 -7.783291
v -22.936604 37.237404 -7.976788
v -22.688694 36.336212 -6.727829
v -22.936604 36.142921 -6.882133
v -22.688694 35.542210 -5.463951
v -22.936604 35.319199 -5.571342
v -22.688694 35.049194 -4.055054
v -22.936604 34.807892 -4.110123
v -22.936604 34.672512 -3.010483
v -22.688694 34.910259 -2.318008
v -22.936602 34.671501 -2.127708
v -22.688694 35.049194 -1.088539
v -22.936602 34.807896 -1.033447
v -22.688694 35.542210 0.320351
v -22.936604 35.319199 0.427742
v -22.688694 36.336212 1.584229
v -22.936604 36.142921 1.738533
v -22.688694 37.391838 2.639694
v -22.936598 37.237404 2.833168
v -22.688694 38.655743 3.433823
v -22.936602 38.548298 3.656815
v -22.688694 40.064426 3.926811
v -22.936600 40.009560 4.168091
v -22.936604 41.109127 4.303391
v -22.059536 29.914328 -2.571800
v -22.304647 26.915859 -1.027687
v -22.059536 27.048449 -0.823204
v -22.059029 24.129988 -0.032562
v -22.304647 25.596331 -0.193573
v -22.082397 25.399988 -0.031799
v -22.304647 28.389059 0.554741
v -22.059536 28.257742 0.759613
v -22.304647 31.534849 2.508202
v -22.059536 31.123878 2.508202
v -22.059536 28.257742 4.256790
v -22.304647 30.790630 2.508202
v -22.304047 28.083858 4.052277
v -22.304647 30.479988 4.758102
v -22.059536 30.479988 5.051270
v -22.059536 33.378384 5.839607
v -22.304647 33.255955 6.044090
v -22.059536 36.244267 7.588203
v -22.304647 35.860470 7.588203
v -22.059536 36.035477 7.715706
v -22.304647 33.255951 9.132317
v -22.059536 33.378384 9.336792
v -22.059536 30.479986 10.128204
v -22.304647 31.325298 10.126656
v -22.304647 31.325298 -15.270245
v -22.059536 30.479986 -15.268723
v -22.059536 33.378384 -14.480385
v -22.304647 33.255951 -14.275917
v -22.059536 36.035477 -12.859306
v -22.304647 35.860474 -12.731796
v -22.059536 36.244267 -12.731796
v -22.059536 33.378384 -10.983212
v -22.304647 34.538403 -11.361366
v -22.304647 33.509701 -10.778336
v -22.304647 22.859989 -10.444527
v -22.050648 22.859989 -10.192558
v -22.304647 24.124807 -10.444527
v -22.056744 25.399988 -10.190853
v -22.304647 29.209988 -10.444527
v -22.059536 30.479988 -10.194874
v -22.304647 30.479988 -10.444527
v -22.059536 33.378384 -10.983212
v -22.304647 33.255951 -11.187679
v -22.304647 35.860474 -12.731796
v -22.304647 33.509701 -10.778336
v -22.059536 33.378384 -10.983212
v -22.304647 30.479988 -9.901707
v -22.059536 30.479988 -10.194874
v -22.304647 27.227009 -9.904629
v -22.056744 25.399988 -10.190853
v -22.059536 28.257742 -9.400387
v -22.304647 28.125406 -9.195915
v -22.059536 36.035477 7.715706
v -22.284073 36.177719 7.850609
v -22.059536 36.244267 7.588203
v -22.066904 37.704510 8.659393
v -22.314045 37.977562 8.565208
v -22.077318 38.623482 9.653419
v -22.323189 38.933109 9.597343
v -22.323189 38.933109 -14.740940
v -22.077318 38.623482 -14.797024
v -22.314045 37.977562 -13.708813
v -22.066904 37.704514 -13.802990
v -22.059536 36.244267 -12.731796
v -22.284073 36.177719 -12.994209
v -22.059536 36.035477 -12.859306
v -22.304647 28.389059 4.461662
v -22.059536 28.257742 4.256790
v -22.304647 27.227009 4.761024
v -22.056744 25.399988 5.047256
v -22.059536 30.479988 5.051270
v -22.304647 29.209988 5.300934
v -22.304647 30.479988 5.300934
v -22.304647 33.255951 9.132317
v -22.304647 30.479986 9.875473
v -22.059536 30.479986 10.128204
v -22.304647 29.209986 9.875473
v -22.041250 22.859987 10.128197
v -22.304647 24.119621 9.875473
v -22.304647 22.859987 9.875473
v -22.059536 28.257742 0.759613
v -22.082397 25.399988 -0.031799
v -22.304647 25.399988 0.220932
v -22.059029 24.129988 -0.032562
v -22.304647 24.129988 0.220932
v -22.050648 22.859989 -0.032562
v -22.304647 22.859989 0.220932
v -22.304647 22.859989 -5.364525
v -22.050648 22.859989 -5.111031
v -22.304647 24.129988 -5.364525
v -22.059029 24.129988 -5.111031
v -22.304647 25.399988 -5.364532
v -22.082397 25.399988 -5.111801
v -22.059536 28.257742 -5.903214
v -22.304647 22.859987 -15.019070
v -22.304647 24.129986 -15.019070
v -22.041250 22.859987 -15.270245
v -22.304647 29.209986 -15.019070
v -22.059536 30.479986 -15.268723
v -22.304647 30.479986 -15.019070
v -22.304647 33.255951 -14.275917
v -22.304647 53.335922 -2.571800
v -22.059536 52.635391 -2.571800
v -22.304647 55.317627 -1.658539
v -22.059536 55.186314 -1.451759
v -22.304647 58.098167 0.182671
v -22.059536 57.891415 0.441528
v -22.059536 52.635391 -2.571800
v -22.304647 52.740292 -2.182335
v -22.059536 55.186314 -1.451759
v -22.304647 55.053726 -1.211456
v -22.059536 57.891415 0.441528
v -22.304647 57.698879 0.670509
v -22.304647 53.335922 -2.571800
v -22.304647 55.317627 -3.485054
v -22.059536 52.635391 -2.571800
v -22.059536 55.186314 -3.691856
v -22.304647 52.740292 -2.961258
v -22.304647 55.053726 -3.932152
v -22.304647 53.715145 3.511574
v -22.304647 50.337456 4.437660
v -22.059536 53.038994 3.968910
v -22.059536 49.625492 4.954071
v -22.304647 52.230515 4.507584
v -22.304647 49.448456 5.309769
v -22.304647 22.859989 5.300934
v -22.304647 24.129988 5.300934
v -22.050648 22.859989 5.048965
v -22.056744 25.399988 5.047256
v -22.304647 22.859989 4.795471
v -22.304647 24.129988 4.795471
v -22.304647 27.179764 -0.618340
v -22.304647 30.305489 -2.571800
v -22.059536 29.914328 -2.571800
v -22.304647 27.179764 -4.525253
v -22.059536 27.048449 -4.320389
v -22.304647 25.596331 -4.950035
v -22.304647 55.317627 -3.485054
v -22.304647 58.098167 -5.326279
v -22.059536 55.186314 -3.691856
v -22.059536 57.891415 -5.585129
v -22.304647 57.698879 -5.814102
v -22.304647 50.337452 -9.581253
v -22.059536 53.038990 -9.112503
v -22.059536 49.625488 -10.097664
v -22.304647 52.230511 -9.651188
v -22.304647 49.448456 -10.453369
v -22.284073 36.177719 7.850609
v -22.059536 36.035477 7.715706
v -22.304647 33.509701 9.541656
v -22.059536 33.378384 9.336792
v -22.304647 31.325298 10.126656
v -22.284073 36.177719 7.850609
v -22.309221 37.471848 8.782761
v -22.066904 37.704510 8.659393
v -22.321920 38.309032 9.693047
v -22.077318 38.623482 9.653419
v -22.077318 38.623482 -14.797024
v -22.321920 38.309032 -14.836647
v -22.066904 37.704514 -13.802990
v -22.309221 37.471848 -13.926357
v -22.284073 36.177719 -12.994209
v -22.304647 33.509701 5.634743
v -22.059536 33.378384 5.839607
v -22.304647 34.538403 6.217766
v -22.059536 36.244267 7.588203
v -22.304647 36.669971 7.557167
v -22.059536 28.257742 4.256790
v -22.304047 28.083858 4.052277
v -22.056744 25.399988 5.047256
v -22.304647 25.399988 4.795471
v -22.304647 24.129988 4.795471
v -22.304647 25.399988 0.220932
v -22.303289 28.110809 0.976524
v -22.059536 28.257742 0.759613
v -22.304647 30.790630 2.508202
v -22.059536 31.123878 2.508202
v -22.304647 26.915859 -1.027687
v -22.304647 24.129988 -0.284531
v -22.059029 24.129988 -0.032562
v -22.304647 22.859989 -0.284531
v -22.050648 22.859989 -0.032562
v -22.304647 31.325298 -15.270245
v -22.059536 33.378384 -14.480385
v -22.304647 33.509701 -14.685261
v -22.059536 36.035477 -12.859306
v -22.284073 36.177719 -12.994209
v -22.050648 22.859989 -10.192558
v -22.304647 22.859989 -9.939068
v -22.056744 25.399988 -10.190853
v -22.304647 24.129988 -9.939068
v -22.304647 25.399988 -9.939068
v -22.059536 31.123878 -7.651798
v -22.304647 30.790630 -7.651798
v -22.059536 28.257742 -5.903214
v -22.304647 28.125406 -6.107681
v -22.304647 25.399988 -5.364532
v -22.050648 22.859989 -5.111031
v -22.304647 22.859989 -4.859062
v -22.059029 24.129988 -5.111031
v -22.304647 24.129988 -4.859062
v -22.304647 26.915857 -4.115913
v -22.304647 25.596331 -0.193573
v -22.304647 27.179764 -0.618340
v -22.059536 27.048449 -0.823204
v -22.059536 29.914328 -2.571800
v -22.304647 27.227009 -9.904629
v -22.059536 28.257742 -9.400387
v -22.304647 28.389313 -9.605259
v -22.304647 31.534849 -7.651798
v -22.936600 47.803806 -1.143913
v -22.688694 48.186836 -2.328011
v -22.936600 47.964584 -2.571800
v -22.688694 48.213509 -2.570076
v -22.936598 42.975769 -8.827847
v -22.688694 41.791622 -9.210823
v -22.936600 41.547779 -8.988705
v -22.688694 41.549561 -9.237549
v -22.936600 35.291767 -3.999680
v -22.688694 34.908733 -2.815590
v -22.936598 35.130981 -2.571800
v -22.688694 34.882065 -2.573532
v -22.936594 40.119793 3.684242
v -22.688694 41.303944 4.067223
v -22.936596 41.547787 3.845100
v -22.688694 41.546009 4.093948
v -22.304647 55.053726 -3.932152
v -22.059536 55.186314 -3.691856
v -22.304647 57.698879 -5.814102
v -22.059536 53.038990 -9.112503
v -22.304647 50.337452 -9.581253
v -22.304647 53.715141 -8.655174
v -22.304647 36.669971 7.557167
v -22.059536 36.244267 7.588203
v -22.314045 37.977562 8.565208
v -22.059536 36.244267 -12.731796
v -22.304647 36.669971 -12.700760
v -22.314045 37.977562 -13.708813
v -22.304647 30.479988 4.758102
v -22.059536 33.378384 5.839607
v -22.304647 33.509701 5.634743
v -22.304647 30.479988 4.758102
v -22.304647 27.227009 4.761024
v -22.059536 30.479988 5.051270
v -22.304647 31.534849 2.508202
v -22.059536 28.257742 4.256790
v -22.304647 28.389059 4.461662
v -22.056744 25.399988 5.047256
v -22.304647 24.129988 5.300934
v -22.304647 29.209988 5.300934
v -22.304647 30.479988 5.300934
v -22.304647 33.255955 6.044090
v -22.059536 30.479988 5.051270
v -22.304647 36.669971 -12.700760
v -22.059536 36.244267 -12.731796
v -22.304647 34.538403 -11.361366
v -22.304647 28.125406 -9.195915
v -22.056744 25.399988 -10.190853
v -22.304647 25.399988 -9.939068
vt 2.998047 -0.819336
vt 3.997070 -0.522461
vt 3.997070 -0.920898
vt 2.998047 -0.522461
vt 3.997070 -0.092773
vt 2.998047 -0.092773
vt 3.997070 0.288086
vt 2.998047 0.288086
vt 3.997070 0.717773
vt 2.998047 0.717773
vt 3.997070 1.115234
vt 2.998047 1.115234
vt 3.997070 1.521484
vt 2.998047 1.513672
vt 3.997070 1.927734
vt 2.998047 1.998047
vt 3.997070 1.998047
vt 2.998047 -0.819336
vt 3.997070 -0.522461
vt 3.997070 -0.920898
vt 2.998047 -0.522461
vt 3.997070 -0.092773
vt 2.998047 -0.092773
vt 3.997070 0.288086
vt 2.998047 0.288086
vt 3.997070 0.717773
vt 2.998047 0.717773
vt 3.997070 1.115234
vt 2.998047 1.115234
vt 3.997070 1.521484
vt 2.998047 1.513672
vt 3.997070 1.927734
vt 2.998047 1.998047
vt 3.997070 1.998047
vt 2.998047 -0.819336
vt 3.997070 -0.522461
vt 3.997070 -0.920898
vt 2.998047 -0.522461
vt 3.997070 -0.092773
vt 2.998047 -0.092773
vt 3.997070 0.288086
vt 2.998047 0.288086
vt 3.997070 0.717773
vt 2.998047 0.717773
vt 3.997070 1.115234
vt 2.998047 1.115234
vt 3.997070 1.521484
vt 2.998047 1.513672
vt 3.997070 1.927734
vt 2.998047 1.998047
vt 3.997070 1.998047
vt 2.998047 -0.819336
vt 3.997070 -0.522461
vt 3.997070 -0.920898
vt 2.998047 -0.522461
vt 3.997070 -0.092773
vt 2.998047 -0.092773
vt 3.997070 0.288086
vt 2.998047 0.288086
vt 3.997070 0.717773
vt 2.998047 0.717773
vt 3.997070 1.115234
vt 2.998047 1.115234
vt 3.997070 1.521484
vt 2.998047 1.513672
vt 3.997070 1.927734
vt 2.998047 1.998047
vt 3.997070 1.998047
vt -4.994141 0.528320
vt -4.081055 0.516602
vt -4.994141 1.861328
vt -4.081055 1.998047
vt -4.994141 2.110352
vt -4.081055 0.516602
vt -4.994141 0.528320
vt -4.170898 -0.964844
vt -4.994141 -0.868164
vt -4.078125 -1.495117
vt -4.081055 -0.208008
vt -4.994141 -0.208008
vt -4.081055 1.062500
vt -4.994141 0.959961
vt -4.994141 -0.208008
vt 3.997070 1.927734
vt 3.997070 1.521484
vt 2.998047 1.849609
vt 2.998047 1.513672
vt 3.997070 1.115234
vt 2.998047 1.107422
vt 3.997070 0.717773
vt 2.998047 0.717773
vt 3.997070 0.288086
vt 2.998047 0.295898
vt 3.997070 -0.092773
vt 2.998047 -0.092773
vt 3.997070 -0.522461
vt 2.998047 -0.522461
vt 2.998047 -0.819336
vt 3.997070 1.927734
vt 3.997070 1.521484
vt 2.998047 1.849609
vt 2.998047 1.513672
vt 3.997070 1.115234
vt 2.998047 1.107422
vt 3.997070 0.717773
vt 2.998047 0.717773
vt 3.997070 0.288086
vt 2.998047 0.295898
vt 3.997070 -0.092773
vt 2.998047 -0.092773
vt 3.997070 -0.522461
vt 2.998047 -0.522461
vt 2.998047 -0.819336
vt 3.997070 1.927734
vt 3.997070 1.521484
vt 2.998047 1.849609
vt 2.998047 1.513672
vt 3.997070 1.115234
vt 2.998047 1.107422
vt 3.997070 0.717773
vt 2.998047 0.717773
vt 3.997070 0.288086
vt 2.998047 0.295898
vt 3.997070 -0.092773
vt 2.998047 -0.092773
vt 3.997070 -0.522461
vt 2.998047 -0.522461
vt 2.998047 -0.819336
vt 3.997070 1.927734
vt 3.997070 1.521484
vt 2.998047 1.849609
vt 2.998047 1.513672
vt 3.997070 1.115234
vt 2.998047 1.107422
vt 3.997070 0.717773
vt 2.998047 0.717773
vt 3.997070 0.288086
vt 2.998047 0.295898
vt 3.997070 -0.092773
vt 2.998047 -0.092773
vt 3.997070 -0.522461
vt 2.998047 -0.522461
vt 2.998047 -0.819336
vt -4.081055 1.062500
vt -4.081055 -0.208008
vt -4.994141 -0.208008
vt -4.078125 -1.495117
vt -4.994141 -0.868164
vt -4.170898 -0.964844
vt -4.994141 0.528320
vt -4.081055 0.516602
vt -4.994141 2.110352
vt -4.081055 1.998047
vt -4.081055 0.516602
vt -4.994141 1.861328
vt -4.994141 0.528320
vt -4.994141 1.624023
vt -4.081055 2.962891
vt -4.081055 1.624023
vt -4.994141 2.962891
vt -4.081055 4.369141
vt -4.994141 4.233398
vt -4.081055 4.266602
vt -4.994141 2.962891
vt -4.081055 2.962891
vt -4.081055 1.998047
vt -4.994141 2.248047
vt -4.994141 2.248047
vt -4.081055 2.962891
vt -4.081055 1.998047
vt -4.994141 2.962891
vt -4.081055 4.266602
vt -4.994141 4.233398
vt -4.081055 4.369141
vt -4.081055 2.962891
vt -4.994141 3.441406
vt -4.994141 2.962891
vt -4.994141 -2.485352
vt -4.994141 -1.794922
vt -4.045898 -2.485352
vt -4.070312 -1.016602
vt -4.994141 0.965820
vt -4.081055 1.624023
vt -4.994141 1.624023
vt -4.081055 2.962891
vt -4.994141 2.962891
vt -4.994141 4.233398
vt -4.994141 2.962891
vt -4.994141 1.624023
vt -4.081055 2.962891
vt -4.081055 1.624023
vt -4.994141 -0.026367
vt -4.070312 -1.016602
vt -4.081055 0.516602
vt -4.994141 0.528320
vt 4.996094 -5.376953
vt 4.996094 -5.376953
vt 3.997070 -5.376953
vt 4.996094 -4.846680
vt 3.997070 -4.846680
vt 4.996094 -3.996094
vt 3.997070 -3.996094
vt 3.997070 -3.996094
vt 3.997070 -4.846680
vt 4.996094 -3.996094
vt 4.996094 -4.846680
vt 4.996094 -5.376953
vt 3.997070 -5.376953
vt 4.996094 -5.376953
vt -4.994141 0.528320
vt -4.994141 -0.026367
vt -4.081055 0.516602
vt -4.070312 -1.016602
vt -4.081055 1.624023
vt -4.994141 0.965820
vt -4.994141 1.624023
vt -4.994141 2.962891
vt -4.081055 1.998047
vt -4.994141 1.998047
vt -4.994141 1.189453
vt -4.045898 -2.485352
vt -4.994141 -1.750000
vt -4.994141 -2.485352
vt -4.081055 0.516602
vt -4.994141 -0.919922
vt -4.170898 -0.964844
vt -4.078125 -1.495117
vt -4.994141 -1.514648
vt -4.045898 -2.485352
vt -4.994141 -2.485352
vt -4.994141 -2.485352
vt -4.994141 -1.514648
vt -4.045898 -2.485352
vt -4.078125 -1.495117
vt -4.994141 -0.919922
vt -4.170898 -0.964844
vt -4.081055 0.516602
vt -4.994141 -2.485352
vt -4.045898 -2.485352
vt -4.994141 -1.750000
vt -4.994141 1.189453
vt -4.081055 1.998047
vt -4.994141 1.998047
vt -4.994141 2.962891
vt 3.997070 -2.991211
vt 3.997070 -2.017578
vt 4.960938 -3.383789
vt 4.960938 -2.023438
vt 3.997070 -0.486328
vt 4.960938 -0.488281
vt 4.960938 -3.383789
vt 4.960938 -2.023438
vt 3.997070 -3.296875
vt 3.997070 -2.017578
vt 4.960938 -0.488281
vt 3.997070 -0.486328
vt 3.997070 -2.991211
vt 4.960938 -3.383789
vt 3.997070 -2.017578
vt 4.960938 -2.023438
vt 3.997070 -3.296875
vt 3.997070 -2.017578
vt 3.997070 -0.486328
vt 4.960938 -0.488281
vt 3.997070 -2.002930
vt 4.960938 -2.312500
vt 3.997070 -0.875977
vt 3.997070 -2.421875
vt -4.994141 -2.485352
vt -4.045898 -2.485352
vt -4.994141 -1.794922
vt -4.070312 -1.016602
vt -4.994141 -2.485352
vt -4.994141 -1.761719
vt -4.994141 -0.208008
vt -4.081055 1.062500
vt -4.994141 1.172852
vt -4.994141 -0.208008
vt -4.081055 -0.208008
vt -4.994141 -0.868164
vt 3.997070 -2.017578
vt 4.960938 -2.023438
vt 3.997070 -0.486328
vt 4.960938 -0.488281
vt 3.997070 -0.486328
vt 3.997070 -2.002930
vt 4.960938 -2.312500
vt 4.960938 -0.488281
vt 3.997070 -0.875977
vt 3.997070 -2.421875
vt -4.916992 4.286133
vt -4.994141 2.962891
vt -4.081055 4.266602
vt -4.081055 2.962891
vt -4.994141 2.248047
vt 3.997070 -5.376953
vt 4.996094 -4.846680
vt 3.997070 -4.846680
vt 3.997070 -3.996094
vt 4.996094 -3.996094
vt 4.996094 -3.996094
vt 4.996094 -4.846680
vt 3.997070 -3.996094
vt 3.997070 -4.846680
vt 3.997070 -5.376953
vt -4.994141 2.962891
vt -4.994141 3.441406
vt -4.081055 2.962891
vt -4.081055 4.369141
vt -4.994141 4.520508
vt -4.081055 0.516602
vt -4.070312 -1.016602
vt -4.994141 0.528320
vt -4.994141 -1.031250
vt -4.994141 -1.761719
vt -4.994141 -0.919922
vt -4.081055 0.516602
vt -4.994141 0.528320
vt -4.994141 1.861328
vt -4.081055 1.998047
vt -4.994141 -0.208008
vt -4.078125 -1.495117
vt -4.994141 -1.495117
vt -4.994141 -2.485352
vt -4.045898 -2.485352
vt -4.994141 2.248047
vt -4.994141 2.962891
vt -4.081055 2.962891
vt -4.081055 4.266602
vt -4.916992 4.286133
vt -4.045898 -2.485352
vt -4.070312 -1.016602
vt -4.994141 -2.485352
vt -4.994141 -1.761719
vt -4.994141 -1.031250
vt -4.081055 1.998047
vt -4.081055 0.516602
vt -4.994141 1.861328
vt -4.994141 0.528320
vt -4.994141 -0.919922
vt -4.045898 -2.485352
vt -4.078125 -1.495117
vt -4.994141 -2.485352
vt -4.994141 -1.495117
vt -4.994141 -0.208008
vt -4.994141 -0.868164
vt -4.081055 -0.208008
vt -4.994141 -0.208008
vt -4.081055 1.062500
vt -4.994141 -0.026367
vt -4.994141 0.528320
vt -4.081055 0.516602
vt -4.994141 2.110352
vt 2.998047 -0.522461
vt 2.998047 -0.999023
vt 3.997070 -0.920898
vt 3.997070 -0.999023
vt 2.998047 -0.522461
vt 2.998047 -0.999023
vt 3.997070 -0.920898
vt 3.997070 -0.999023
vt 2.998047 -0.522461
vt 2.998047 -0.999023
vt 3.997070 -0.920898
vt 3.997070 -0.999023
vt 2.998047 -0.522461
vt 2.998047 -0.999023
vt 3.997070 -0.920898
vt 3.997070 -0.999023
vt 3.997070 -2.017578
vt 3.997070 -0.486328
vt 4.960938 -2.023438
vt 4.960938 -0.488281
vt 3.997070 -0.486328
vt 3.997070 -2.002930
vt 3.997070 -5.376953
vt 3.997070 -4.846680
vt 4.996094 -5.376953
vt 4.996094 -5.376953
vt 3.997070 -4.846680
vt 3.997070 -5.376953
vt -4.994141 1.624023
vt -4.994141 2.962891
vt -4.081055 2.962891
vt -4.994141 1.624023
vt -4.081055 1.624023
vt -4.994141 -0.026367
vt -4.994141 2.110352
vt -4.994141 0.528320
vt -4.081055 0.516602
vt -4.070312 -1.016602
vt -4.994141 0.965820
vt -4.994141 -1.794922
vt -4.994141 1.624023
vt -4.081055 1.624023
vt -4.994141 2.962891
vt -4.994141 4.520508
vt -4.994141 3.441406
vt -4.081055 4.369141
vt -4.994141 0.528320
vt -4.994141 -1.031250
vt -4.070312 -1.016602
vn 0.7193 0.6903 0.0782
vn -0.4970 0.8306 0.2511
vn 0.7062 -0.7035 -0.0797
vn 0.7586 -0.6496 -0.0513
vn 0.7018 -0.5748 -0.4207
vn 0.6698 -0.6471 -0.3643
vn 0.7576 -0.6099 -0.2326
vn 0.7060 -0.6685 -0.2339
vn 0.7599 -0.6136 -0.2147
vn 0.6906 -0.6124 -0.3848
vn 0.6862 -0.5725 -0.4487
vn 0.7584 -0.5419 -0.3622
vn 0.7129 -0.6317 -0.3044
vn 0.6494 -0.6535 -0.3889
vn 0.7562 -0.5541 -0.3482
vn 0.6478 -0.5386 -0.5387
vn 0.6699 -0.4249 -0.6089
vn 0.7624 -0.4433 -0.4714
vn 0.7060 -0.5008 -0.5008
vn 0.7599 -0.4597 -0.4596
vn 0.6907 -0.3848 -0.6123
vn 0.6863 -0.3211 -0.6526
vn 0.7584 -0.3311 -0.5614
vn 0.7128 -0.4372 -0.5485
vn 0.6494 -0.4201 -0.6339
vn 0.7601 -0.3457 -0.5503
vn 0.6478 -0.2516 -0.7191
vn 0.6866 -0.1677 -0.7074
vn 0.7586 -0.1977 -0.6209
vn 0.7126 -0.3042 -0.6322
vn 0.6494 -0.2684 -0.7115
vn 0.7600 -0.2146 -0.6134
vn 0.6479 -0.0855 -0.7569
vn 0.7058 -0.0790 -0.7040
vn 0.7578 -0.0514 -0.6504
vn 0.7163 -0.1547 -0.6804
vn 0.7063 -0.0793 -0.7034
vn 0.7073 -0.0791 -0.7025
vn 0.7052 -0.0779 -0.7047
vn 0.7060 -0.0777 -0.7039
vn 0.7061 -0.0766 -0.7040
vn 0.7192 0.0782 -0.6904
vn -0.5771 0.3222 -0.7504
vn 0.6281 -0.1306 -0.7671
vn -0.4788 -0.3593 0.8011
vn 0.6381 0.0195 0.7697
vn 0.7623 -0.0491 0.6453
vn 0.6506 -0.3484 0.6748
vn 0.6866 -0.3100 0.6576
vn 0.7538 -0.2327 0.6146
vn 0.7122 -0.1637 0.6826
vn 0.6494 -0.2337 0.7237
vn 0.7601 -0.2146 0.6133
vn 0.6478 -0.4053 0.6450
vn 0.6868 -0.4485 0.5720
vn 0.7586 -0.3622 0.5417
vn 0.7123 -0.3047 0.6322
vn 0.6492 -0.3889 0.6536
vn 0.7600 -0.3458 0.5503
vn 0.6476 -0.5388 0.5388
vn 0.6862 -0.5649 0.4583
vn 0.7584 -0.4737 0.4478
vn 0.7128 -0.4375 0.5482
vn 0.6494 -0.5246 0.5506
vn 0.7601 -0.4595 0.4595
vn 0.6478 -0.6450 0.4053
vn 0.6869 -0.6522 0.3206
vn 0.7586 -0.5613 0.3308
vn 0.7122 -0.5490 0.4375
vn 0.6491 -0.6341 0.4202
vn 0.7599 -0.5504 0.3458
vn 0.6476 -0.7193 0.2517
vn 0.6862 -0.7077 0.1679
vn 0.7584 -0.6211 0.1978
vn 0.7128 -0.6320 0.3041
vn 0.6495 -0.7115 0.2683
vn 0.7600 -0.6135 0.2145
vn 0.6479 -0.7569 0.0856
vn 0.7057 -0.7041 0.0790
vn 0.7578 -0.6505 0.0514
vn 0.7166 -0.6802 0.1546
vn 0.7065 -0.7032 0.0793
vn 0.7073 -0.7024 0.0791
vn 0.7053 -0.7046 0.0778
vn 0.7061 -0.7038 0.0776
vn 0.7062 -0.7039 0.0766
vn 0.7193 -0.6903 -0.0782
vn -0.4971 -0.8306 -0.2511
vn 0.7062 0.7035 0.0797
vn 0.7623 0.6453 0.0491
vn 0.7018 0.5748 0.4207
vn 0.6868 0.6575 0.3100
vn 0.7538 0.6146 0.2328
vn 0.7118 0.6830 0.1638
vn 0.6491 0.7239 0.2337
vn 0.7599 0.6136 0.2147
vn 0.6476 0.6452 0.4053
vn 0.6862 0.5725 0.4487
vn 0.7584 0.5419 0.3622
vn 0.7129 0.6317 0.3044
vn 0.6494 0.6535 0.3889
vn 0.7601 0.5502 0.3457
vn 0.6478 0.5386 0.5387
vn 0.6866 0.4580 0.5646
vn 0.7586 0.4475 0.4736
vn 0.7128 0.5482 0.4375
vn 0.6495 0.5505 0.5245
vn 0.7602 0.4594 0.4595
vn 0.6479 0.4052 0.6450
vn 0.6868 0.3208 0.6523
vn 0.7586 0.3309 0.5613
vn 0.7125 0.4373 0.5487
vn 0.6494 0.4201 0.6339
vn 0.7601 0.3457 0.5502
vn 0.6478 0.2516 0.7190
vn 0.6866 0.1677 0.7074
vn 0.7585 0.1978 0.6209
vn 0.7126 0.3042 0.6322
vn 0.6494 0.2685 0.7115
vn 0.7600 0.2146 0.6134
vn 0.6479 0.0855 0.7569
vn 0.7058 0.0790 0.7040
vn 0.7578 0.0514 0.6504
vn 0.7164 0.1547 0.6804
vn 0.7064 0.0793 0.7033
vn 0.7072 0.0791 0.7026
vn 0.7051 0.0778 0.7048
vn 0.7060 0.0777 0.7039
vn 0.7061 0.0766 0.7040
vn 0.7192 -0.0782 0.6904
vn -0.5770 -0.3222 0.7505
vn 0.6281 0.1306 0.7671
vn -0.4788 0.3593 -0.8011
vn 0.6381 -0.0195 -0.7697
vn 0.7624 0.0491 -0.6453
vn 0.6506 0.3485 -0.6748
vn 0.6866 0.3100 -0.6576
vn 0.7538 0.2327 -0.6146
vn 0.7122 0.1638 -0.6826
vn 0.6494 0.2337 -0.7237
vn 0.7601 0.2147 -0.6134
vn 0.6478 0.4053 -0.6450
vn 0.6866 0.4485 -0.5722
vn 0.7585 0.3621 -0.5417
vn 0.7127 0.3046 -0.6319
vn 0.6494 0.3889 -0.6535
vn 0.7601 0.3457 -0.5502
vn 0.6479 0.5386 -0.5387
vn 0.6867 0.5646 -0.4580
vn 0.7586 0.4735 -0.4476
vn 0.7126 0.4376 -0.5484
vn 0.6493 0.5245 -0.5507
vn 0.7601 0.4594 -0.4595
vn 0.6478 0.6451 -0.4052
vn 0.6869 0.6522 -0.3207
vn 0.7586 0.5613 -0.3308
vn 0.7122 0.5489 -0.4375
vn 0.6491 0.6341 -0.4202
vn 0.7599 0.5504 -0.3458
vn 0.6476 0.7193 -0.2516
vn 0.6862 0.7077 -0.1679
vn 0.7584 0.6211 -0.1978
vn 0.7128 0.6320 -0.3041
vn 0.6494 0.7115 -0.2684
vn 0.7600 0.6135 -0.2145
vn 0.6479 0.7569 -0.0855
vn 0.7057 0.7041 -0.0790
vn 0.7578 0.6505 -0.0514
vn 0.7166 0.6802 -0.1546
vn 0.7065 0.7032 -0.0793
vn 0.7073 0.7024 -0.0791
vn 0.7053 0.7047 -0.0778
vn 0.7061 0.7038 -0.0777
vn 0.7062 0.7039 -0.0765
vn 0.7044 -0.3558 0.6142
vn 0.7085 -0.3915 0.5871
vn 0.8076 -0.2956 0.5103
vn 0.5823 -0.4283 0.6910
vn 0.3941 -0.4831 0.7819
vn -0.4961 0.3648 0.7879
vn -0.7682 0.2696 -0.5806
vn 0.5535 0.4193 -0.7196
vn 0.8055 0.4805 -0.3468
vn 0.6577 0.3923 0.6430
vn 0.6147 0.3112 0.7247
vn -0.2760 0.8973 0.3444
vn 0.6320 0.4086 0.6585
vn 0.7794 0.3407 0.5257
vn 0.7554 0.1676 0.6335
vn 0.6009 0.1969 0.7747
vn 0.7396 0.0513 0.6711
vn 0.6459 0.2998 0.7021
vn 0.8516 0.5191 0.0721
vn 0.7804 0.1756 0.6002
vn 0.6534 0.0127 0.7569
vn -0.0574 -0.5903 0.8051
vn -0.0983 -0.0743 0.9924
vn 0.9728 -0.2144 -0.0882
vn -0.7065 0.2819 -0.6492
vn -0.2430 0.1823 -0.9527
vn 0.1075 -0.2137 0.9710
vn 0.5889 -0.1427 0.7955
vn 0.7543 -0.1581 0.6372
vn 0.6458 -0.4559 0.6124
vn 0.2880 -0.7793 0.5566
vn 0.7759 -0.3402 0.5312
vn 0.5660 -0.3262 0.7571
vn 0.0188 -0.4539 0.8909
vn 0.9878 -0.0794 0.1340
vn -0.0971 -0.4443 -0.8906
vn 0.6336 -0.3945 -0.6655
vn 0.9878 -0.0794 -0.1340
vn 0.7219 0.0777 0.6876
vn 0.7479 0.1467 0.6474
vn 0.7208 0.0742 0.6892
vn 0.6891 0.0896 0.7191
vn 0.7537 0.0607 0.6544
vn 0.6495 0.0941 0.7546
vn 0.7561 0.2138 0.6185
vn 0.7104 0.3052 0.6341
vn 0.6501 0.2668 0.7115
vn 0.6860 0.1712 0.7072
vn 0.7570 0.1989 0.6224
vn 0.6455 0.2522 0.7209
vn 0.7584 0.3468 0.5519
vn 0.7099 0.4389 0.5508
vn 0.6469 0.4208 0.6360
vn 0.6853 0.3211 0.6536
vn 0.7571 0.3324 0.5625
vn 0.6457 0.4063 0.6466
vn 0.7586 0.4607 0.4608
vn 0.7105 0.5501 0.4389
vn 0.6472 0.5514 0.5264
vn 0.6851 0.4587 0.5659
vn 0.7571 0.4492 0.4744
vn 0.6456 0.5400 0.5400
vn 0.7586 0.5518 0.3466
vn 0.7103 0.6341 0.3055
vn 0.6471 0.6549 0.3904
vn 0.6851 0.5731 0.4496
vn 0.7571 0.5436 0.3625
vn 0.6457 0.6466 0.4062
vn 0.7585 0.6151 0.2152
vn 0.7098 0.6840 0.1684
vn 0.6471 0.7253 0.2350
vn 0.6851 0.6588 0.3108
vn 0.7495 0.6197 0.2329
vn 0.6483 0.7187 0.2515
vn 0.7589 0.6490 0.0539
vn 0.7047 0.7042 0.0867
vn 0.6490 0.7551 0.0930
vn 0.7219 0.6876 -0.0777
vn 0.7479 0.6474 -0.1467
vn 0.7207 0.6892 -0.0741
vn 0.6892 0.7190 -0.0896
vn 0.7537 0.6544 -0.0607
vn 0.6495 0.7545 -0.0941
vn 0.7562 0.6185 -0.2138
vn 0.7103 0.6343 -0.3052
vn 0.6500 0.7115 -0.2669
vn 0.6863 0.7070 -0.1711
vn 0.7571 0.6223 -0.1989
vn 0.6457 0.7207 -0.2522
vn 0.7585 0.5518 -0.3467
vn 0.7103 0.5504 -0.4387
vn 0.6471 0.6359 -0.4205
vn 0.6852 0.6537 -0.3212
vn 0.7571 0.5624 -0.3323
vn 0.6456 0.6466 -0.4062
vn 0.7585 0.4607 -0.4608
vn 0.7103 0.4390 -0.5502
vn 0.6470 0.5264 -0.5516
vn 0.6852 0.5658 -0.4586
vn 0.7571 0.4743 -0.4492
vn 0.6458 0.5399 -0.5399
vn 0.7585 0.3468 -0.5518
vn 0.7105 0.3055 -0.6339
vn 0.6472 0.3905 -0.6548
vn 0.6848 0.4498 -0.5734
vn 0.7569 0.3626 -0.5437
vn 0.6454 0.4064 -0.6467
vn 0.7584 0.2153 -0.6152
vn 0.7095 0.1684 -0.6843
vn 0.6470 0.2350 -0.7254
vn 0.6852 0.3108 -0.6587
vn 0.7496 0.2329 -0.6196
vn 0.6483 0.2515 -0.7187
vn 0.7589 0.0539 -0.6490
vn 0.7047 0.0866 -0.7042
vn 0.6489 0.0929 -0.7552
vn 0.7219 -0.0777 -0.6876
vn 0.7480 -0.1467 -0.6473
vn 0.7207 -0.0741 -0.6893
vn 0.6891 -0.0897 -0.7191
vn 0.7537 -0.0607 -0.6544
vn 0.6494 -0.0941 -0.7546
vn 0.7560 -0.2139 -0.6186
vn 0.7100 -0.3054 -0.6345
vn 0.6499 -0.2670 -0.7116
vn 0.6863 -0.1710 -0.7069
vn 0.7571 -0.1989 -0.6223
vn 0.6457 -0.2522 -0.7208
vn 0.7585 -0.3467 -0.5517
vn 0.7103 -0.4387 -0.5505
vn 0.6471 -0.4206 -0.6359
vn 0.6853 -0.3212 -0.6537
vn 0.7571 -0.3324 -0.5624
vn 0.6457 -0.4063 -0.6465
vn 0.7586 -0.4607 -0.4607
vn 0.7108 -0.5499 -0.4387
vn 0.6472 -0.5514 -0.5264
vn 0.6846 -0.4591 -0.5662
vn 0.7569 -0.4494 -0.4745
vn 0.6454 -0.5401 -0.5401
vn 0.7582 -0.5521 -0.3469
vn 0.7097 -0.6346 -0.3058
vn 0.6467 -0.6552 -0.3905
vn 0.6854 -0.5728 -0.4495
vn 0.7571 -0.5435 -0.3626
vn 0.6457 -0.6466 -0.4063
vn 0.7585 -0.6151 -0.2152
vn 0.7097 -0.6840 -0.1684
vn 0.6471 -0.7253 -0.2350
vn 0.6851 -0.6588 -0.3108
vn 0.7495 -0.6197 -0.2329
vn 0.6483 -0.7187 -0.2515
vn 0.7589 -0.6490 -0.0539
vn 0.7047 -0.7042 -0.0867
vn 0.6490 -0.7551 -0.0930
vn 0.7219 -0.6876 0.0777
vn 0.7479 -0.6474 0.1467
vn 0.7207 -0.6892 0.0741
vn 0.6892 -0.7190 0.0896
vn 0.7537 -0.6544 0.0607
vn 0.6495 -0.7545 0.0941
vn 0.7562 -0.6185 0.2138
vn 0.7103 -0.6343 0.3052
vn 0.6500 -0.7115 0.2669
vn 0.6862 -0.7070 0.1711
vn 0.7571 -0.6223 0.1989
vn 0.6457 -0.7207 0.2522
vn 0.7585 -0.5518 0.3467
vn 0.7106 -0.5502 0.4385
vn 0.6471 -0.6359 0.4205
vn 0.6846 -0.6542 0.3216
vn 0.7568 -0.5627 0.3326
vn 0.6453 -0.6468 0.4064
vn 0.7583 -0.4609 0.4610
vn 0.7098 -0.4393 0.5506
vn 0.6468 -0.5265 0.5518
vn 0.6856 -0.5656 0.4583
vn 0.7572 -0.4744 0.4491
vn 0.6457 -0.5400 0.5399
vn 0.7586 -0.3466 0.5518
vn 0.7104 -0.3056 0.6340
vn 0.6471 -0.3904 0.6549
vn 0.6851 -0.4497 0.5731
vn 0.7571 -0.3625 0.5435
vn 0.6457 -0.4062 0.6466
vn 0.7585 -0.2153 0.6151
vn 0.7098 -0.1684 0.6839
vn 0.6471 -0.2350 0.7253
vn 0.6849 -0.3109 0.6590
vn 0.7494 -0.2329 0.6198
vn 0.6481 -0.2515 0.7188
vn 0.7589 -0.0539 0.6490
vn 0.7046 -0.0867 0.7043
vn 0.6489 -0.0929 0.7551
vn 0.7049 -0.3694 -0.6055
vn 0.6352 -0.4023 -0.6593
vn 0.7779 -0.3368 -0.5305
vn 0.7527 -0.1616 -0.6382
vn 0.6032 -0.2085 -0.7699
vn 0.7126 -0.0412 -0.7003
vn 0.6807 0.1917 0.7070
vn 0.9728 -0.2143 0.0883
vn 0.5650 -0.0755 -0.8216
vn -0.0574 -0.5904 -0.8051
vn 0.6534 0.0127 -0.7569
vn 0.8516 0.5191 -0.0721
vn 0.6459 0.2998 -0.7021
vn 0.7804 0.1756 -0.6002
vn 0.7396 0.0513 -0.6711
vn 0.6009 0.1970 -0.7747
vn 0.7554 0.1676 -0.6335
vn 0.6320 0.4086 -0.6585
vn 0.2803 0.7797 -0.5599
vn 0.7794 0.3407 -0.5257
vn 0.6148 0.3112 -0.7247
vn 0.0729 0.4708 -0.8793
vn 0.9469 0.2675 -0.1787
vn -0.0300 0.4658 0.8844
vn -0.7445 0.2874 0.6026
vn 0.9908 0.1207 -0.0619
vn 0.0630 0.4550 -0.8883
vn 0.3598 -0.4901 -0.7939
vn 0.5836 -0.4293 -0.6893
vn 0.7398 -0.3663 -0.5644
vn 0.7334 -0.3367 -0.5905
vn 0.8528 -0.2586 -0.4536
vn 0.7558 0.1719 -0.6319
vn -0.5763 0.2277 -0.7849
vn 0.7626 0.1087 -0.6376
vn -0.6518 -0.3058 0.6940
vn 0.5936 -0.1720 0.7862
vn 0.7519 -0.1594 0.6397
vn 0.6306 -0.4381 0.6406
vn 0.2245 -0.8108 0.5406
vn 0.7679 -0.3450 0.5397
vn 0.5523 -0.3321 0.7646
vn -0.0585 -0.4497 0.8913
vn 0.9866 -0.0855 0.1387
vn -0.0401 -0.5162 -0.8555
vn 0.6297 -0.4074 -0.6614
vn 0.3444 0.1925 -0.9189
vn 0.9129 -0.4082 -0.0071
vn 0.6248 -0.3951 -0.6735
vn 0.5660 -0.3278 -0.7564
vn 0.7553 -0.3462 -0.5565
vn 0.6324 -0.4453 -0.6338
vn 0.7676 -0.3459 -0.5396
vn 0.7517 -0.1601 -0.6397
vn 0.5917 -0.1636 -0.7894
vn -0.5674 -0.3220 -0.7579
vn -0.7499 0.2154 0.6255
vn 0.6699 0.1956 0.7162
vn 0.4422 0.1298 0.8875
vn 0.6735 0.1940 -0.7133
vn -0.7433 0.2171 -0.6327
vn 0.4479 0.1283 -0.8848
vn -0.5649 -0.3217 0.7598
vn 0.5912 -0.1627 0.7899
vn 0.7519 -0.1594 0.6398
vn 0.6322 -0.4456 0.6338
vn 0.7553 -0.3462 0.5565
vn 0.7678 -0.3458 0.5393
vn 0.5660 -0.3274 0.7566
vn 0.6248 -0.3951 0.6735
vn 0.9105 -0.4120 0.0352
vn 0.6298 -0.4073 0.6614
vn 0.0393 -0.4370 0.8986
vn 0.3605 0.1689 0.9173
vn 0.9877 -0.0156 -0.1555
vn -0.1154 -0.4335 -0.8937
vn -0.7842 -0.4212 -0.4557
vn -0.0880 0.2380 0.9673
vn 0.7493 0.3459 0.5647
vn 0.7523 0.3258 0.5726
vn 0.7138 0.2740 0.6445
vn 0.6533 0.3733 0.6586
vn 0.7040 0.3502 0.6178
vn 0.7043 0.0000 -0.7099
vn 0.6986 -0.0004 -0.7155
vn 0.7043 -0.0013 -0.7099
vn 0.7143 0.0022 -0.6998
vn 0.7097 0.0022 -0.7045
vn 0.7045 0.0021 -0.7097
vn 0.7208 -0.0004 -0.6932
vn 0.7164 0.0000 -0.6977
vn 0.7147 -0.0000 -0.6994
vn 0.7133 0.0001 -0.7008
vn 0.7140 -0.0002 -0.7002
vn 0.6953 -0.0850 -0.7137
vn 0.7131 0.0000 -0.7011
vn 0.7796 0.0000 -0.6263
vn 0.6514 0.0234 -0.7584
vn 0.6261 -0.2047 -0.7524
vn 0.7610 -0.1810 -0.6230
vn 0.6928 -0.2813 -0.6640
vn 0.6577 -0.1079 -0.7455
vn 0.7482 -0.1716 -0.6409
vn 0.6052 -0.1937 -0.7721
vn 0.6255 -0.4080 -0.6650
vn 0.7685 -0.3263 -0.5504
vn 0.6971 -0.3656 -0.6167
vn 0.6894 0.2013 0.6958
vn 0.5932 0.1378 0.7931
vn 0.6904 0.2072 0.6931
vn 0.8117 0.1533 0.5636
vn 0.6927 0.1967 0.6939
vn 0.8065 0.1556 0.5705
vn 0.7125 0.0028 0.7017
vn 0.1755 0.2098 0.9619
vn 0.8224 -0.0117 0.5688
vn 0.7544 0.0921 0.6499
vn 0.9968 -0.0768 -0.0201
vn 0.3869 -0.0550 0.9205
vn 0.9777 -0.1777 -0.1117
vn -0.6586 0.4512 -0.6022
vn -0.3704 0.1930 -0.9086
vn 0.1647 -0.2296 0.9592
vn 0.6417 -0.0035 0.7669
vn 0.6879 -0.1929 0.6997
vn 0.6445 0.3985 0.6525
vn 0.2484 0.5696 0.7835
vn 0.6112 0.7620 0.2140
vn 0.8843 -0.3105 0.3487
vn 0.4450 -0.5891 0.6745
vn -0.5521 -0.2798 0.7854
vn -0.5426 0.6215 -0.5651
vn 0.6210 0.4517 -0.6406
vn 0.7492 0.4357 -0.4988
vn 0.7741 0.4314 -0.4632
vn 0.6986 0.5385 -0.4711
vn 0.7290 0.5064 -0.4605
vn 0.7384 0.4636 -0.4898
vn 0.7350 0.5008 -0.4572
vn 0.7348 0.5006 -0.4576
vn 0.7350 0.5008 0.4572
vn 0.7384 0.4636 0.4898
vn 0.7349 0.5007 0.4575
vn 0.7290 0.5064 0.4605
vn 0.6986 0.5385 0.4711
vn 0.7741 0.4314 0.4632
vn 0.6209 0.4517 0.6406
vn -0.5426 0.6215 0.5651
vn 0.7492 0.4357 0.4988
vn -0.5521 -0.2798 -0.7855
vn 0.4450 -0.5891 -0.6745
vn 0.8843 -0.3105 -0.3487
vn 0.2484 0.5696 -0.7835
vn 0.6445 0.3985 -0.6525
vn 0.6112 0.7620 -0.2140
vn 0.6861 0.1815 0.7045
vn 0.1006 0.5260 0.8445
vn 0.6848 0.1745 0.7075
vn 0.6193 0.2099 0.7566
vn 0.9743 -0.1460 0.1716
vn 0.0428 0.2135 0.9760
vn 0.9928 -0.0811 0.0877
vn -0.5192 0.1149 -0.8469
vn -0.0249 -0.0536 -0.9982
vn 0.1863 0.0512 0.9812
vn 0.6633 0.0192 0.7481
vn 0.7140 -0.0002 0.7002
vn 0.7253 0.0704 0.6848
vn 0.7136 0.0000 0.7006
vn 0.7132 -0.0000 0.7009
vn 0.7057 -0.1832 -0.6844
vn 0.6301 -0.2117 -0.7471
vn 0.7646 -0.1667 -0.6226
vn 0.7821 0.0000 -0.6232
vn 0.6604 0.0213 -0.7506
vn 0.7223 -0.0002 -0.6916
vn 0.6918 -0.0775 -0.7179
vn 0.7334 0.0018 -0.6798
vn 0.7135 0.0017 -0.7006
vn 0.6705 -0.0002 -0.7419
vn 0.6917 -0.0003 -0.7222
vn 0.6923 0.0000 -0.7216
vn 0.6925 -0.0011 -0.7214
vn 0.7379 -0.1856 0.6489
vn 0.7985 -0.1809 0.5741
vn 0.6615 -0.2051 0.7214
vn 0.6863 0.0134 0.7272
vn 0.8117 0.0450 0.5824
vn 0.7800 0.0163 0.6256
vn 0.7018 -0.0987 0.7055
vn 0.7195 -0.0015 0.6945
vn 0.7166 -0.0048 0.6975
vn 0.7173 0.0087 0.6967
vn 0.7197 0.0069 0.6942
vn 0.7281 0.0048 0.6854
vn 0.6955 -0.0023 0.7185
vn 0.7064 0.0000 0.7078
vn 0.7064 -0.0030 0.7078
vn 0.7064 0.0000 -0.7078
vn 0.6955 -0.0023 -0.7185
vn 0.7064 -0.0030 -0.7078
vn 0.7281 0.0048 -0.6854
vn 0.7198 0.0070 -0.6942
vn 0.7173 0.0088 -0.6968
vn 0.7195 -0.0015 -0.6945
vn 0.7018 -0.0987 -0.7054
vn 0.7166 -0.0048 -0.6975
vn 0.7800 0.0163 -0.6256
vn 0.8117 0.0450 -0.5824
vn 0.6864 0.0122 -0.7272
vn 0.7985 -0.1809 -0.5741
vn 0.7379 -0.1856 -0.6489
vn 0.6615 -0.2051 -0.7214
vn 0.6901 0.0000 0.7237
vn 0.6903 -0.0011 0.7235
vn 0.6895 -0.0003 0.7243
vn 0.6701 -0.0002 0.7422
vn 0.7279 0.0016 0.6857
vn 0.6880 -0.0782 0.7214
vn 0.7096 0.0019 0.7046
vn 0.7177 -0.0002 0.6964
vn 0.6553 0.0214 0.7551
vn 0.7786 -0.0000 0.6275
vn 0.6250 -0.2129 0.7511
vn 0.7013 -0.1843 0.6886
vn 0.7610 -0.1678 0.6267
vn 0.7672 0.2684 -0.5825
vn 0.8131 0.2974 -0.5004
vn 0.7792 0.2726 -0.5644
vn 0.6483 0.3061 -0.6971
vn 0.6570 0.2922 -0.6949
vn 0.7440 0.2737 -0.6095
vn 0.6645 0.4160 -0.6208
vn 0.6023 0.4407 -0.6656
vn 0.7492 0.3664 -0.5518
vn 0.8811 0.2182 -0.4197
vn 0.8036 0.3496 -0.4817
vn 0.8033 0.3415 -0.4879
vn 0.7887 -0.2472 0.5629
vn 0.8171 -0.2934 0.4963
vn 0.7871 -0.2517 0.5632
vn 0.6985 -0.2769 0.6599
vn 0.6950 -0.2655 0.6682
vn 0.7897 -0.2388 0.5651
vn 0.6949 -0.4153 0.5871
vn 0.7161 -0.4002 0.5719
vn 0.7894 -0.3566 0.4997
vn 0.7982 -0.2890 0.5286
vn 0.7726 -0.3707 0.5154
vn 0.7725 -0.3681 0.5174
vn 0.7672 0.2684 0.5825
vn 0.0629 -0.0830 0.9946
vn 0.8202 0.2395 0.5196
vn 0.7021 0.2783 0.6554
vn -0.2302 0.2984 0.9262
vn 0.5887 0.7862 0.1878
vn 0.5728 -0.6228 -0.5329
vn 0.7871 -0.2516 -0.5632
vn 0.1661 -0.2913 -0.9421
vn 0.5454 0.5092 -0.6658
vn 0.6985 -0.2769 -0.6599
vn 0.7439 -0.2586 -0.6162
vn 0.7306 -0.1805 -0.6585
vn 0.8160 -0.1121 -0.5670
vn 0.6869 -0.1922 -0.7008
vn 0.7713 -0.1778 -0.6112
vn 0.7223 -0.1731 -0.6696
vn -0.2525 -0.6237 -0.7398
vn -0.3679 0.5970 0.7129
vn 0.7674 0.1778 0.6160
vn 0.6366 0.1879 0.7480
vn 0.8355 0.0175 0.5492
vn 0.7661 0.1781 0.6176
vn 0.7667 0.1779 0.6169
vn 0.7043 0.0000 0.7099
vn 0.6323 -0.6829 0.3659
vn 0.6991 -0.0000 0.7150
vn 0.7093 0.0024 0.7049
vn 0.0276 -0.1905 0.9813
vn 0.0251 0.1906 0.9813
vn 0.5000 -0.7078 -0.4991
vn 0.7064 0.0020 -0.7078
vn 0.0028 0.0980 -0.9952
vn 0.0570 0.2812 -0.9580
vn 0.7182 -0.0000 -0.6958
vn 0.7126 0.0000 -0.7016
vn 0.6458 0.4047 0.6475
vn 0.9871 0.0267 0.1582
vn -0.0022 0.5300 0.8480
vn -0.0022 0.5300 -0.8480
vn 0.9814 0.0471 -0.1861
vn 0.5755 0.3502 -0.7391
vn 0.3180 0.8362 -0.4467
vn 0.7742 0.3297 -0.5404
vn 0.6341 0.4088 -0.6563
vn 0.6024 0.2093 -0.7703
vn 0.7563 0.1486 -0.6371
vn 0.6872 0.1882 -0.7016
vn 0.7068 0.3906 0.5898
vn 0.7113 0.3164 0.6277
vn 0.6024 0.4407 0.6655
vn 0.8036 0.3496 0.4817
vn 0.8407 0.3034 0.4485
vn 0.6655 0.7456 0.0346
vn -0.4809 -0.6049 -0.6346
vn 0.7723 -0.3643 -0.5204
vn 0.5664 0.2225 -0.7935
vn 0.7731 -0.1759 0.6094
vn -0.2525 -0.6237 0.7398
vn -0.1731 -0.1530 0.9729
vn 0.5422 0.3459 -0.7658
vn 0.6366 0.1879 -0.7479
vn 0.7674 0.1778 -0.6160
vn 0.8355 0.0175 -0.5492
vn 0.7667 0.1779 -0.6169
vn 0.7660 0.1781 -0.6177
vn 0.6456 0.4053 0.6473
vn 0.5738 0.3518 0.7396
vn 0.6462 0.4092 0.6441
vn 0.7558 0.3410 0.5590
vn 0.6338 0.4096 0.6561
vn 0.7755 0.3288 0.5390
vn 0.6024 0.2090 0.7703
vn 0.6872 0.1879 0.7017
vn 0.7559 0.1545 0.6362
vn 0.6951 -0.4112 0.5897
vn 0.6250 -0.4330 0.6495
vn 0.7398 -0.3837 0.5527
vn 0.7810 -0.4542 0.4286
vn 0.6851 -0.5424 0.4863
vn 0.7236 -0.5030 0.4727
vn 0.7173 -0.4675 0.5166
vn 0.7234 -0.5032 0.4727
vn 0.7234 -0.5032 -0.4727
vn 0.7173 -0.4675 -0.5166
vn 0.7238 -0.5028 -0.4725
vn 0.6851 -0.5424 -0.4863
vn 0.7810 -0.4542 -0.4286
vn 0.6250 -0.4330 -0.6495
vn 0.6951 -0.4112 -0.5897
vn 0.7398 -0.3837 -0.5527
vn 0.7040 0.3502 -0.6179
vn 0.6549 0.3737 -0.6568
vn 0.7035 0.3374 -0.6255
vn 0.7929 0.3173 -0.5201
vn 0.7478 0.3461 -0.5666
vn 0.7860 0.3220 -0.5277
vn 0.6857 0.3846 -0.6180
vn 0.7179 0.3704 -0.5894
vn 0.7198 0.3717 -0.5863
vn 0.7054 -0.1883 -0.6833
vn 0.6879 -0.1061 -0.7180
vn 0.7053 -0.1879 -0.6835
vn 0.6938 -0.1923 -0.6940
vn 0.6304 -0.2185 -0.7449
vn 0.7612 -0.1732 -0.6249
vn 0.6425 0.0268 -0.7658
vn 0.7800 0.0000 -0.6258
vn 0.7138 -0.1884 0.6745
vn 0.6415 -0.2017 0.7401
vn 0.7665 -0.1728 0.6186
vn 0.7917 -0.3029 0.5306
vn 0.6787 -0.3655 0.6370
vn 0.8495 -0.2615 0.4583
vn 0.4009 -0.4125 0.8180
vn 0.5779 -0.4250 0.6967
vn 0.5835 -0.4292 0.6894
vn 0.7040 -0.1831 -0.6862
vn 0.6280 -0.2105 -0.7492
vn 0.7630 -0.1666 -0.6246
vn 0.7804 0.0000 -0.6252
vn 0.6585 0.0202 -0.7523
vn 0.7261 0.0000 -0.6876
vn 0.6754 -0.0745 -0.7337
vn 0.7043 0.0047 -0.7099
vn 0.7042 0.0076 -0.7099
vn 0.6872 0.1879 -0.7017
vn 0.6052 0.2059 -0.7690
vn 0.7559 0.1545 -0.6362
vn 0.7755 0.3288 -0.5390
vn 0.6314 0.4131 -0.6562
vn 0.7045 0.3696 -0.6059
vn 0.6456 0.4053 -0.6473
vn 0.7064 0.0012 0.7078
vn 0.7007 0.0012 0.7135
vn 0.7064 0.0020 0.7078
vn 0.7182 -0.0000 0.6958
vn 0.7130 -0.0002 0.7011
vn 0.7126 0.0000 0.7016
vn 0.7125 -0.0006 0.7016
vn 0.5779 -0.4250 -0.6967
vn 0.4328 -0.3979 -0.8089
vn 0.5823 -0.4283 -0.6910
vn 0.8076 -0.2956 -0.5103
vn 0.6442 -0.3859 -0.6604
vn 0.7722 -0.3185 -0.5498
vn 0.6072 -0.2027 -0.7683
vn 0.6875 -0.1910 -0.7006
vn 0.7477 -0.1747 -0.6407
vn 0.7043 0.0047 0.7099
vn 0.6754 -0.0745 0.7337
vn 0.7042 0.0076 0.7099
vn 0.7261 0.0000 0.6876
vn 0.6585 0.0202 0.7523
vn 0.7804 -0.0000 0.6252
vn 0.6280 -0.2105 0.7492
vn 0.7040 -0.1831 0.6862
vn 0.7630 -0.1666 0.6246
vn 0.6872 0.1882 0.7016
vn 0.7563 0.1486 0.6371
vn 0.6051 0.2063 0.7690
vn 0.6316 0.4124 0.6565
vn 0.7742 0.3297 0.5404
vn 0.7044 0.3697 0.6059
vn 0.6862 0.1814 -0.7044
vn 0.5954 0.2004 -0.7780
vn 0.7575 0.1326 -0.6392
vn 0.7786 0.3398 -0.5276
vn 0.6297 0.4098 -0.6599
vn 0.7047 0.3743 -0.6027
vn 0.7074 -0.7023 -0.0791
vn 0.7080 -0.7018 -0.0790
vn 0.7070 -0.7028 -0.0793
vn 0.7058 -0.7041 -0.0776
vn 0.7068 -0.7033 -0.0763
vn 0.7067 -0.7033 -0.0775
vn 0.7073 -0.0791 0.7025
vn 0.7077 -0.0791 0.7020
vn 0.7069 -0.0793 0.7029
vn 0.7058 -0.0777 0.7041
vn 0.7066 -0.0766 0.7034
vn 0.7066 -0.0777 0.7034
vn 0.7074 0.7024 0.0791
vn 0.7079 0.7019 0.0790
vn 0.7070 0.7027 0.0793
vn 0.7058 0.7042 0.0776
vn 0.7068 0.7033 0.0762
vn 0.7067 0.7033 0.0775
vn 0.7073 0.0791 -0.7025
vn 0.7077 0.0791 -0.7021
vn 0.7070 0.0793 -0.7028
vn 0.7057 0.0778 -0.7042
vn 0.7066 0.0766 -0.7034
vn 0.7066 0.0777 -0.7034
vn 0.7437 -0.3876 -0.5447
vn 0.7306 -0.1805 0.6585
vn 0.7600 0.4002 -0.5121
vn 0.7600 0.4002 0.5121
vn 0.6894 0.2013 -0.6958
vn 0.7672 -0.0006 -0.6414
vn 0.7045 0.3744 0.6029
vn 0.7152 0.0000 0.6989
vn 0.7014 -0.1843 0.6886
vn 0.7179 0.3704 0.5894
vn 0.6999 -0.1879 0.6891
usemtl Tex_0030_0.dds.002
s off
f 1/1/1 3/2/2 2/3/1
f 2/3/3 3/2/3 4/4/4
f 3/2/5 5/5/6 4/4/7
f 4/4/8 5/5/8 6/6/9
f 5/5/10 7/7/11 6/6/12
f 6/6/13 7/7/14 8/8/15
f 7/7/16 9/9/17 8/8/18
f 8/8/19 9/9/19 10/10/20
f 9/9/21 11/11/22 10/10/23
f 10/10/24 11/11/25 12/12/26
f 11/11/27 13/13/28 12/12/29
f 12/12/30 13/13/31 14/14/32
f 13/13/33 15/15/34 14/14/35
f 14/14/36 15/15/37 16/16/38
f 15/15/39 17/17/40 16/16/41
f 18/18/42 20/19/43 19/20/44
f 19/20/45 20/19/46 21/21/47
f 20/19/48 22/22/49 21/21/50
f 21/21/51 22/22/52 23/23/53
f 22/22/54 24/24/55 23/23/56
f 23/23/57 24/24/58 25/25/59
f 24/24/60 26/26/61 25/25/62
f 25/25/63 26/26/64 27/27/65
f 26/26/66 28/28/67 27/27/68
f 27/27/69 28/28/70 29/29/71
f 28/28/72 30/30/73 29/29/74
f 29/29/75 30/30/76 31/31/77
f 30/30/78 32/32/79 31/31/80
f 31/31/81 32/32/82 33/33/83
f 32/32/84 34/34/85 33/33/86
f 35/35/87 37/36/88 36/37/87
f 36/37/89 37/36/89 38/38/90
f 37/36/91 39/39/92 38/38/93
f 38/38/94 39/39/95 40/40/96
f 39/39/97 41/41/98 40/40/99
f 40/40/100 41/41/101 42/42/102
f 41/41/103 43/43/104 42/42/105
f 42/42/106 43/43/107 44/44/108
f 43/43/109 45/45/110 44/44/111
f 44/44/112 45/45/113 46/46/114
f 45/45/115 47/47/116 46/46/117
f 46/46/118 47/47/119 48/48/120
f 47/47/121 49/49/122 48/48/123
f 48/48/124 49/49/125 50/50/126
f 49/49/127 51/51/128 50/50/129
f 52/52/130 54/53/131 53/54/132
f 53/54/133 54/53/134 55/55/135
f 54/53/136 56/56/137 55/55/138
f 55/55/139 56/56/140 57/57/141
f 56/56/142 58/58/143 57/57/144
f 57/57/145 58/58/146 59/59/147
f 58/58/148 60/60/149 59/59/150
f 59/59/151 60/60/152 61/61/153
f 60/60/154 62/62/155 61/61/156
f 61/61/157 62/62/158 63/63/159
f 62/62/160 64/64/161 63/63/162
f 63/63/163 64/64/164 65/65/165
f 64/64/166 66/66/167 65/65/168
f 65/65/169 66/66/170 67/67/171
f 66/66/172 68/68/173 67/67/174
f 69/69/175 71/70/176 70/71/177
f 70/71/178 71/70/179 72/72/180
f 71/70/181 73/73/182 72/72/183
f 72/72/184 73/73/184 74/74/185
f 73/73/186 75/75/187 74/74/188
f 74/74/189 75/75/190 76/76/191
f 75/75/192 77/77/193 76/76/194
f 76/76/195 77/77/196 78/78/197
f 77/77/198 79/79/199 78/78/200
f 78/78/201 79/79/202 80/80/203
f 79/79/204 81/81/205 80/80/206
f 80/80/207 81/81/208 82/82/209
f 81/81/210 83/83/211 82/82/212
f 84/84/213 86/85/214 85/86/215
f 85/86/216 86/85/217 87/87/218
f 86/85/219 88/88/220 87/87/221
f 87/87/222 88/88/223 89/89/224
f 88/88/225 90/90/226 89/89/227
f 89/89/228 90/90/229 91/91/230
f 90/90/231 92/92/232 91/91/233
f 91/91/234 92/92/235 93/93/236
f 92/92/237 94/94/238 93/93/239
f 93/93/240 94/94/241 95/95/242
f 94/94/243 96/96/244 95/95/245
f 95/95/246 96/96/247 97/97/248
f 96/96/249 98/98/250 97/97/251
f 99/99/252 101/100/253 100/101/254
f 100/101/255 101/100/256 102/102/257
f 101/100/258 103/103/259 102/102/260
f 102/102/261 103/103/262 104/104/263
f 103/103/264 105/105/265 104/104/266
f 104/104/267 105/105/268 106/106/269
f 105/105/270 107/107/271 106/106/272
f 106/106/273 107/107/274 108/108/275
f 107/107/276 109/109/277 108/108/278
f 108/108/279 109/109/280 110/110/281
f 109/109/282 111/111/283 110/110/284
f 110/110/285 111/111/286 112/112/287
f 111/111/288 113/113/289 112/112/290
f 114/114/291 116/115/292 115/116/293
f 115/116/294 116/115/295 117/117/296
f 116/115/297 118/118/298 117/117/299
f 117/117/300 118/118/301 119/119/302
f 118/118/303 120/120/304 119/119/305
f 119/119/306 120/120/307 121/121/308
f 120/120/309 122/122/310 121/121/311
f 121/121/312 122/122/313 123/123/314
f 122/122/315 124/124/316 123/123/317
f 123/123/318 124/124/319 125/125/320
f 124/124/321 126/126/322 125/125/323
f 125/125/324 126/126/325 127/127/326
f 126/126/327 128/128/328 127/127/329
f 129/129/330 131/130/331 130/131/332
f 130/131/333 131/130/334 132/132/335
f 131/130/336 133/133/337 132/132/338
f 132/132/339 133/133/340 134/134/341
f 133/133/342 135/135/343 134/134/344
f 134/134/345 135/135/346 136/136/347
f 135/135/348 137/137/349 136/136/350
f 136/136/351 137/137/352 138/138/353
f 137/137/354 139/139/355 138/138/356
f 138/138/357 139/139/358 140/140/359
f 139/139/360 141/141/361 140/140/362
f 140/140/363 141/141/364 142/142/365
f 141/141/366 143/143/367 142/142/368
f 144/144/369 146/145/370 145/146/371
f 145/146/372 146/145/373 147/147/374
f 146/145/375 148/148/376 147/147/375
f 147/147/377 148/148/378 149/149/379
f 148/148/380 150/150/381 149/149/382
f 149/149/383 150/150/384 151/151/385
f 150/150/386 152/152/387 151/151/388
f 151/151/389 152/152/390 153/153/391
f 152/152/392 154/154/393 153/153/394
f 153/153/395 154/154/396 155/155/397
f 154/154/398 156/156/399 155/155/400
f 157/157/401 159/158/402 158/159/403
f 158/159/404 159/158/405 160/160/406
f 159/158/407 161/161/408 160/160/409
f 160/160/410 161/161/411 162/162/412
f 161/161/413 163/163/414 162/162/415
f 162/162/416 163/163/417 164/164/418
f 163/163/419 165/165/420 164/164/421
f 164/164/422 165/165/423 166/166/424
f 165/165/425 167/167/426 166/166/427
f 168/168/428 170/169/429 169/170/430
f 169/170/431 170/169/432 171/171/433
f 170/169/434 172/172/435 171/171/436
f 171/171/437 172/172/438 173/173/439
f 172/172/440 174/174/441 173/173/442
f 173/173/443 174/174/444 175/175/445
f 174/174/446 176/176/447 175/175/448
f 175/175/449 176/176/450 177/177/451
f 178/178/452 180/179/453 179/180/454
f 179/180/455 180/179/456 181/181/457
f 180/179/458 182/182/459 181/181/460
f 181/181/461 182/182/462 183/183/463
f 182/182/464 184/184/465 183/183/466
f 183/183/467 184/184/468 185/185/469
f 184/184/470 186/186/471 185/185/472
f 185/185/473 186/186/474 187/187/475
f 188/188/476 190/189/477 189/190/478
f 189/190/479 190/189/480 191/191/481
f 190/189/482 192/192/483 191/191/484
f 191/191/485 192/192/486 193/193/487
f 192/192/488 194/194/489 193/193/490
f 193/193/491 194/194/492 195/195/493
f 196/196/494 198/197/495 197/198/496
f 197/198/497 198/197/498 199/199/499
f 198/197/500 200/200/501 199/199/502
f 199/199/503 200/200/504 201/201/505
f 200/200/506 202/202/507 201/201/508
f 203/203/509 205/204/510 204/205/511
f 204/205/512 205/204/513 206/206/514
f 205/204/515 207/207/516 206/206/517
f 206/206/518 207/207/519 208/208/520
f 207/207/521 209/209/522 208/208/523
f 210/210/524 212/211/525 211/212/526
f 211/212/527 212/211/528 213/213/529
f 212/211/530 214/214/531 213/213/532
f 213/213/533 214/214/534 215/215/535
f 214/214/536 216/216/537 215/215/538
f 217/217/539 219/218/540 218/219/541
f 218/219/542 219/218/543 220/220/544
f 219/218/545 221/221/546 220/220/547
f 220/220/548 221/221/549 222/222/550
f 221/221/551 223/223/550 222/222/550
f 224/224/552 226/225/553 225/226/554
f 225/226/555 226/225/556 227/227/557
f 226/225/558 228/228/559 227/227/560
f 227/227/561 228/228/562 229/229/563
f 228/228/564 230/230/565 229/229/566
f 231/231/567 233/232/568 232/233/569
f 232/233/570 233/232/571 234/234/572
f 233/232/573 235/235/574 234/234/575
f 234/234/576 235/235/577 236/236/578
f 235/235/579 237/237/580 236/236/581
f 238/238/582 240/239/583 239/240/582
f 239/240/582 240/239/584 241/241/585
f 240/239/586 242/242/587 241/241/588
f 241/241/589 242/242/590 243/243/591
f 242/242/592 244/244/593 243/243/594
f 245/245/595 247/246/596 246/247/597
f 246/247/598 247/246/599 248/248/600
f 247/246/601 249/249/602 248/248/603
f 248/248/604 249/249/605 250/250/606
f 251/251/607 253/252/608 252/253/609
f 252/253/610 253/252/611 254/254/612
f 253/252/613 255/255/614 254/254/615
f 254/254/616 255/255/617 256/256/618
f 257/257/619 259/258/620 258/259/621
f 258/259/622 259/258/623 260/260/624
f 259/258/625 261/261/626 260/260/627
f 260/260/628 261/261/629 262/262/630
f 263/263/631 265/264/632 264/265/633
f 264/265/634 265/264/635 266/266/636
f 265/264/637 267/267/638 266/266/639
f 266/266/640 267/267/641 268/268/642
f 269/269/643 271/270/644 270/271/645
f 270/271/646 271/270/647 272/272/648
f 271/270/649 273/273/650 272/272/651
f 272/272/652 273/273/653 274/274/654
f 275/275/655 277/276/656 276/277/657
f 276/277/658 277/276/659 278/278/660
f 277/276/661 279/279/662 278/278/663
f 278/278/664 279/279/665 280/280/666
f 281/281/667 283/282/668 282/283/669
f 282/283/670 283/282/671 284/284/672
f 283/282/673 285/285/674 284/284/675
f 286/286/676 288/287/677 287/288/678
f 287/288/679 288/287/680 289/289/681
f 288/287/682 290/290/683 289/289/684
f 291/291/685 293/292/686 292/293/687
f 292/293/688 293/292/689 294/294/690
f 293/292/691 295/295/692 294/294/693
f 296/296/694 298/297/695 297/298/696
f 297/298/697 298/297/698 299/299/699
f 298/297/700 300/300/701 299/299/701
f 301/301/702 303/302/703 302/303/702
f 302/303/704 303/302/705 304/304/706
f 303/302/707 305/305/708 304/304/709
f 306/306/710 308/307/711 307/308/712
f 307/308/713 308/307/714 309/309/715
f 308/307/716 310/310/717 309/309/718
f 311/311/719 313/312/720 312/313/721
f 312/313/722 313/312/723 314/314/724
f 313/312/725 315/315/654 314/314/726
f 316/316/727 318/317/728 317/318/729
f 317/318/730 318/317/731 319/319/732
f 318/317/733 320/320/734 319/319/735
f 321/321/736 323/322/737 322/323/738
f 322/323/739 323/322/740 324/324/741
f 323/322/742 325/325/743 324/324/744
f 326/326/745 328/327/746 327/328/747
f 327/328/748 328/327/749 329/329/750
f 328/327/751 330/330/751 329/329/751
f 331/331/752 333/332/753 332/333/754
f 332/333/755 333/332/756 334/334/757
f 333/332/758 335/335/757 334/334/757
f 336/336/759 338/337/760 337/338/761
f 337/338/762 338/337/763 339/339/764
f 338/337/765 340/340/766 339/339/767
f 341/341/768 343/342/769 342/343/770
f 342/343/771 343/342/772 344/344/773
f 343/342/774 345/345/775 344/344/776
f 346/346/777 348/347/778 347/348/779
f 347/348/780 348/347/781 349/349/782
f 350/350/783 352/351/784 351/352/785
f 351/352/786 352/351/787 353/353/788
f 354/354/789 356/355/790 355/356/791
f 355/356/792 356/355/793 357/357/794
f 358/358/795 360/359/796 359/360/797
f 359/360/798 360/359/799 361/361/800
f 362/362/801 364/363/802 363/364/803
f 363/364/804 364/363/805 365/365/806
f 366/366/807 368/367/808 367/368/809
f 367/368/810 368/367/811 369/369/812
f 370/370/813 372/371/813 371/372/813
f 373/373/814 375/374/814 374/375/814
f 376/376/815 378/377/815 377/378/815
f 379/379/816 381/380/816 380/381/816
f 382/382/817 384/383/817 383/384/817
f 385/385/818 387/386/818 386/387/818
f 388/388/819 390/389/819 389/390/819
f 391/391/820 393/392/820 392/393/820
f 394/394/821 396/395/821 395/396/821
f 397/397/822 399/398/822 398/399/822
f 400/400/823 402/401/823 401/402/823
