# Blender v3.6.3 OBJ File: 'untitled.blend'
# www.blender.org
mtllib Mesh_0396.mtl
o Mesh_0396_Mesh.111
v 69.962753 38.236099 16.033981
v 69.962753 38.582935 16.478203
v 69.962753 36.037094 17.436455
v 69.962753 38.236099 16.922409
v 69.962753 37.591045 17.320160
v 69.962753 36.037094 15.519958
v 69.962753 36.969151 15.519958
v 69.962753 36.037094 17.436455
v 69.962753 37.591042 15.636246
v 69.962753 38.236099 16.033981
v 69.962814 38.236107 3.333977
v 69.962814 38.582947 3.778198
v 69.962814 36.037106 4.736458
v 69.962814 38.236107 4.222412
v 69.962814 37.591045 4.620163
v 69.962814 36.037098 2.819962
v 69.962814 36.969154 2.819962
v 69.962814 36.037106 4.736458
v 69.962814 37.591045 2.936249
v 69.962814 38.236107 3.333977
v 69.962814 38.236103 -9.366020
v 69.962814 38.582943 -8.921799
v 69.962814 36.037106 -7.963551
v 69.962814 38.236103 -8.477589
v 69.962814 37.591042 -8.079830
v 69.962814 36.037094 -9.880039
v 69.962814 36.969151 -9.880035
v 69.962814 36.037106 -7.963551
v 69.962814 37.591042 -9.763756
v 69.962814 38.236103 -9.366020
v 69.962753 38.236107 -22.066021
v 69.962753 38.582947 -21.621796
v 69.962753 36.037102 -20.663544
v 69.962753 38.236107 -21.177586
v 69.962753 37.591045 -20.779831
v 69.962753 36.037098 -22.580040
v 69.962753 36.969154 -22.580036
v 69.962753 36.037102 -20.663544
v 69.962753 37.591045 -22.463757
v 69.962753 38.236107 -22.066021
v 69.962753 36.969151 17.436455
v 69.962753 36.037094 17.436455
v 69.962753 37.591045 17.320160
v 69.962814 36.969154 4.736458
v 69.962814 36.037106 4.736458
v 69.962814 37.591045 4.620163
v 69.962814 36.969154 -7.963547
v 69.962814 36.037106 -7.963551
v 69.962814 37.591042 -8.079830
v 69.962753 36.969151 -20.663544
v 69.962753 36.037102 -20.663544
v 69.962753 37.591045 -20.779831
vt 0.268188 -0.136169
vt 0.999939 -0.999939
vt 0.499939 0.000000
vt 0.731689 -0.136169
vt 0.939209 -0.389587
vt 0.000000 -0.999939
vt 0.999939 -0.999939
vt 0.000000 -0.633850
vt 0.060669 -0.389587
vt 0.268188 -0.136169
vt 0.268188 -0.136169
vt 0.999939 -0.999939
vt 0.499939 0.000000
vt 0.731689 -0.136169
vt 0.939209 -0.389587
vt 0.000000 -0.999939
vt 0.999939 -0.999939
vt 0.000000 -0.633850
vt 0.060669 -0.389587
vt 0.268188 -0.136169
vt 0.268188 -0.136169
vt 0.999939 -0.999939
vt 0.499939 0.000000
vt 0.731689 -0.136169
vt 0.939209 -0.389587
vt 0.000000 -0.999939
vt 0.999939 -0.999939
vt 0.000000 -0.633850
vt 0.060669 -0.389587
vt 0.268188 -0.136169
vt 0.268188 -0.136169
vt 0.999939 -0.999939
vt 0.499939 0.000000
vt 0.731689 -0.136169
vt 0.939209 -0.389587
vt 0.000000 -0.999939
vt 0.999939 -0.999939
vt 0.000000 -0.633850
vt 0.060669 -0.389587
vt 0.268188 -0.136169
vt 0.999939 -0.633850
vt 0.939209 -0.389587
vt 0.999939 -0.999939
vt 0.999939 -0.633850
vt 0.939209 -0.389587
vt 0.999939 -0.999939
vt 0.999939 -0.633850
vt 0.939209 -0.389587
vt 0.999939 -0.999939
vt 0.999939 -0.633850
vt 0.939209 -0.389587
vt 0.999939 -0.999939
vn -1.0000 0.0000 0.0000
usemtl Tex_0108_0.dds
s off
f 1/1/1 3/2/1 2/3/1
f 2/3/1 3/2/1 4/4/1
f 3/2/1 5/5/1 4/4/1
f 6/6/1 8/7/1 7/8/1
f 7/8/1 8/7/1 9/9/1
f 8/7/1 10/10/1 9/9/1
f 11/11/1 13/12/1 12/13/1
f 12/13/1 13/12/1 14/14/1
f 13/12/1 15/15/1 14/14/1
f 16/16/1 18/17/1 17/18/1
f 17/18/1 18/17/1 19/19/1
f 18/17/1 20/20/1 19/19/1
f 21/21/1 23/22/1 22/23/1
f 22/23/1 23/22/1 24/24/1
f 23/22/1 25/25/1 24/24/1
f 26/26/1 28/27/1 27/28/1
f 27/28/1 28/27/1 29/29/1
f 28/27/1 30/30/1 29/29/1
f 31/31/1 33/32/1 32/33/1
f 32/33/1 33/32/1 34/34/1
f 33/32/1 35/35/1 34/34/1
f 36/36/1 38/37/1 37/38/1
f 37/38/1 38/37/1 39/39/1
f 38/37/1 40/40/1 39/39/1
f 41/41/1 43/42/1 42/43/1
f 44/44/1 46/45/1 45/46/1
f 47/47/1 49/48/1 48/49/1
f 50/50/1 52/51/1 51/52/1
