# Blender v3.6.3 OBJ File: 'untitled.blend'
# www.blender.org
mtllib Mesh_0382.mtl
o Mesh_0382_Mesh.224
v -50.244469 14.732417 47.971390
v -50.244469 13.208478 47.971390
v -45.164471 17.271950 47.971390
v -45.164471 15.748013 47.971390
v -55.324471 12.191952 47.971390
v -55.324471 10.668014 47.971390
v -50.244469 14.732417 47.971390
v -50.244469 13.208478 47.971390
v -40.084473 19.811485 47.971390
v -40.084473 18.287546 47.971390
v -35.004471 22.351950 47.971390
v -35.004471 20.828012 47.971153
v -45.164471 17.271950 47.971390
v -45.164471 15.748013 47.971390
v -40.084473 19.811485 47.971390
v -40.084473 18.287546 47.971390
vt -0.000977 -0.155273
vt 1.997070 -0.155273
vt -0.000977 -0.942383
vt 1.997070 -0.942383
vt -0.000977 -0.155273
vt 1.997070 -0.155273
vt -0.000977 -0.942383
vt 1.997070 -0.942383
vt -0.000977 -0.155273
vt 1.997070 -0.155273
vt -0.000977 -0.942383
vt 1.997070 -0.942383
vt -0.000977 -0.155273
vt 1.997070 -0.155273
vt -0.000977 -0.942383
vt 1.997070 -0.942383
vn 0.0000 0.0000 -1.0000
vn -0.0001 0.0002 -1.0000
usemtl Tex_0052_0.dds.023
s off
f 1/1/1 3/2/1 2/3/1
f 2/3/1 3/2/1 4/4/1
f 5/5/1 7/6/1 6/7/1
f 6/7/1 7/6/1 8/8/1
f 9/9/1 11/10/1 10/11/1
f 10/11/2 11/10/2 12/12/2
f 13/13/1 15/14/1 14/15/1
f 14/15/1 15/14/1 16/16/1
