# Blender v3.6.3 OBJ File: 'untitled.blend'
# www.blender.org
mtllib Mesh_0241.mtl
o Mesh_0241_Mesh.170
v 68.820633 12.699993 -27.971806
v 63.102921 12.699993 -27.971806
v 68.746826 14.920002 -27.971806
v 63.102913 14.920002 -27.971806
v 67.775063 17.397799 -27.971806
v 64.145782 17.397797 -27.971806
v 65.960419 20.002491 -27.971806
v 62.470634 12.699993 -27.971806
v 56.752922 12.699993 -27.971806
v 62.396820 14.920002 -27.971806
v 56.752914 14.920002 -27.971806
v 61.425064 17.397799 -27.971806
v 57.795776 17.397797 -27.971806
v 59.610420 20.002491 -27.971806
v 56.120636 12.699993 -27.971806
v 50.402924 12.699993 -27.971806
v 56.046822 14.920002 -27.971806
v 50.402908 14.920002 -27.971806
v 55.075066 17.397799 -27.971806
v 51.445778 17.397797 -27.971806
v 53.260422 20.002491 -27.971806
v 49.770638 12.699993 -27.971806
v 44.052917 12.699993 -27.971806
v 49.696823 14.920002 -27.971806
v 44.052910 14.920002 -27.971806
v 48.725067 17.397799 -27.971806
v 45.095779 17.397797 -27.971806
v 46.910423 20.002491 -27.971806
v 43.420631 12.699993 -27.971806
v 37.702919 12.699993 -27.971806
v 43.346825 14.920002 -27.971806
v 37.702911 14.920002 -27.971806
v 42.375069 17.397799 -27.971806
v 38.745781 17.397797 -27.971806
v 40.560417 20.002491 -27.971806
v 24.370634 12.699993 -27.971806
v 18.652910 12.699993 -27.971806
v 24.296820 14.920002 -27.971806
v 18.652910 14.920002 -27.971806
v 23.325068 17.397799 -27.971806
v 19.695772 17.397797 -27.971806
v 21.510412 20.002491 -27.971806
v 11.670633 12.699993 -27.971806
v 5.952913 12.699993 -27.971806
v 11.596815 14.920002 -27.971806
v 5.952913 14.920002 -27.971806
v 10.625067 17.397799 -27.971806
v 6.995771 17.397797 -27.971806
v 8.810411 20.002491 -27.971806
v 18.020636 12.699993 -27.971806
v 12.302912 12.699993 -27.971806
v 17.946817 14.920002 -27.971806
v 12.302912 14.920002 -27.971806
v 16.975069 17.397799 -27.971806
v 13.345774 17.397797 -27.971806
v 15.160414 20.002491 -27.971806
v 5.320635 12.699993 -27.971806
v -0.397085 12.699993 -27.971806
v 5.246817 14.920002 -27.971806
v -0.397085 14.920002 -27.971806
v 4.275068 17.397799 -27.971806
v 0.645775 17.397797 -27.971806
v 2.460417 20.002491 -27.971806
v -1.029366 12.699993 -27.971806
v -6.747084 12.699993 -27.971806
v -1.103182 14.920002 -27.971806
v -6.747084 14.920002 -27.971806
v -2.074934 17.397799 -27.971806
v -5.704226 17.397797 -27.971806
v -3.889585 20.002491 -27.971806
vt 0.999939 -0.999939
vt 0.999939 -0.695923
vt 0.000000 -0.999939
vt 0.000000 -0.695923
vt 0.817444 -0.356628
vt 0.182434 -0.356628
vt 0.499939 0.000000
vt 0.999939 -0.999939
vt 0.999939 -0.695923
vt 0.000000 -0.999939
vt 0.000000 -0.695923
vt 0.817444 -0.356628
vt 0.182434 -0.356628
vt 0.499939 0.000000
vt 0.999939 -0.999939
vt 0.999939 -0.695923
vt 0.000000 -0.999939
vt 0.000000 -0.695923
vt 0.817444 -0.356628
vt 0.182434 -0.356628
vt 0.499939 0.000000
vt 0.999939 -0.999939
vt 0.999939 -0.695923
vt 0.000000 -0.999939
vt 0.000000 -0.695923
vt 0.817444 -0.356628
vt 0.182434 -0.356628
vt 0.499939 0.000000
vt 0.999939 -0.999939
vt 0.999939 -0.695923
vt 0.000000 -0.999939
vt 0.000000 -0.695923
vt 0.817444 -0.356628
vt 0.182434 -0.356628
vt 0.499939 0.000000
vt 0.999939 -0.999939
vt 0.999939 -0.695923
vt 0.000000 -0.999939
vt 0.000000 -0.695923
vt 0.817444 -0.356628
vt 0.182434 -0.356628
vt 0.499939 0.000000
vt 0.999939 -0.999939
vt 0.999939 -0.695923
vt 0.000000 -0.999939
vt 0.000000 -0.695923
vt 0.817444 -0.356628
vt 0.182434 -0.356628
vt 0.499939 0.000000
vt 0.999939 -0.999939
vt 0.999939 -0.695923
vt 0.000000 -0.999939
vt 0.000000 -0.695923
vt 0.817444 -0.356628
vt 0.182434 -0.356628
vt 0.499939 0.000000
vt 0.999939 -0.999939
vt 0.999939 -0.695923
vt 0.000000 -0.999939
vt 0.000000 -0.695923
vt 0.817444 -0.356628
vt 0.182434 -0.356628
vt 0.499939 0.000000
vt 0.999939 -0.999939
vt 0.999939 -0.695923
vt 0.000000 -0.999939
vt 0.000000 -0.695923
vt 0.817444 -0.356628
vt 0.182434 -0.356628
vt 0.499939 0.000000
vn 0.0000 0.0000 1.0000
usemtl Tex_0061_1.dds.002
s off
f 1/1/1 3/2/1 2/3/1
f 2/3/1 3/2/1 4/4/1
f 3/2/1 5/5/1 4/4/1
f 4/4/1 5/5/1 6/6/1
f 5/5/1 7/7/1 6/6/1
f 8/8/1 10/9/1 9/10/1
f 9/10/1 10/9/1 11/11/1
f 10/9/1 12/12/1 11/11/1
f 11/11/1 12/12/1 13/13/1
f 12/12/1 14/14/1 13/13/1
f 15/15/1 17/16/1 16/17/1
f 16/17/1 17/16/1 18/18/1
f 17/16/1 19/19/1 18/18/1
f 18/18/1 19/19/1 20/20/1
f 19/19/1 21/21/1 20/20/1
f 22/22/1 24/23/1 23/24/1
f 23/24/1 24/23/1 25/25/1
f 24/23/1 26/26/1 25/25/1
f 25/25/1 26/26/1 27/27/1
f 26/26/1 28/28/1 27/27/1
f 29/29/1 31/30/1 30/31/1
f 30/31/1 31/30/1 32/32/1
f 31/30/1 33/33/1 32/32/1
f 32/32/1 33/33/1 34/34/1
f 33/33/1 35/35/1 34/34/1
f 36/36/1 38/37/1 37/38/1
f 37/38/1 38/37/1 39/39/1
f 38/37/1 40/40/1 39/39/1
f 39/39/1 40/40/1 41/41/1
f 40/40/1 42/42/1 41/41/1
f 43/43/1 45/44/1 44/45/1
f 44/45/1 45/44/1 46/46/1
f 45/44/1 47/47/1 46/46/1
f 46/46/1 47/47/1 48/48/1
f 47/47/1 49/49/1 48/48/1
f 50/50/1 52/51/1 51/52/1
f 51/52/1 52/51/1 53/53/1
f 52/51/1 54/54/1 53/53/1
f 53/53/1 54/54/1 55/55/1
f 54/54/1 56/56/1 55/55/1
f 57/57/1 59/58/1 58/59/1
f 58/59/1 59/58/1 60/60/1
f 59/58/1 61/61/1 60/60/1
f 60/60/1 61/61/1 62/62/1
f 61/61/1 63/63/1 62/62/1
f 64/64/1 66/65/1 65/66/1
f 65/66/1 66/65/1 67/67/1
f 66/65/1 68/68/1 67/67/1
f 67/67/1 68/68/1 69/69/1
f 68/68/1 70/70/1 69/69/1
