# Blender v3.6.3 OBJ File: 'untitled.blend'
# www.blender.org
mtllib Mesh_0344.mtl
o Mesh_0344_Mesh.210
v -9.861475 23.367994 -38.131805
v -9.861395 24.891994 -33.053665
v -9.861574 23.367994 -33.053665
v -9.861376 24.891991 -27.971806
v -9.861391 23.367992 -27.971806
v -9.605396 22.859993 -27.972607
v -9.604584 22.859995 -33.053665
v -9.989676 22.859995 -33.053665
v -9.604584 22.859995 -38.131805
v -9.989721 22.859995 -38.131805
v -9.861431 24.891994 -43.209942
v -9.861448 24.891994 -38.131805
v -9.861534 23.367994 -43.209942
v -9.861475 23.367994 -38.131805
v -9.989695 22.859995 -43.209942
v -9.989721 22.859995 -38.131805
v -9.604584 22.859995 -43.209942
v -9.604584 22.859995 -38.131805
v -9.814777 24.891994 -48.081703
v -9.861431 24.891994 -43.209942
v -9.814754 23.367994 -48.081726
v -9.861534 23.367994 -43.209942
v -9.947956 22.859999 -47.948517
v -9.989695 22.859995 -43.209942
v -9.604584 22.859995 -48.290623
v -9.604584 22.859995 -43.209942
v -9.861395 24.891994 -33.053665
v -9.861475 23.367994 -38.131805
v -9.861448 24.891994 -38.131805
v -9.989676 22.859995 -33.053665
v -9.983267 22.859993 -27.971806
v -9.605396 22.859993 -27.972607
vt -0.000977 -0.942383
vt 1.997070 -0.942383
vt 1.997070 -0.155273
vt 0.094727 -0.155273
vt 0.094727 -0.942383
vt 0.030273 -1.136719
vt 1.029297 -1.085938
vt 1.029297 -1.135742
vt 0.030273 -1.137695
vt 0.030273 -1.087891
vt -0.000977 -0.155273
vt -0.000977 -0.942383
vt 1.997070 -0.155273
vt 1.997070 -0.942383
vt 0.030273 -1.087891
vt 0.030273 -1.137695
vt 1.029297 -1.085938
vt 1.029297 -1.135742
vt -0.000977 -0.155273
vt -0.000977 -0.942383
vt 1.997070 -0.155273
vt 1.997070 -0.942383
vt 0.030273 -1.087891
vt 0.030273 -1.137695
vt 1.029297 -1.085938
vt 1.029297 -1.135742
vt 1.997070 -0.155273
vt -0.000977 -0.155273
vt -0.000977 -0.942383
vt 1.029297 -1.085938
vt 0.030273 -1.136719
vt 0.099609 -1.087891
vn -1.0000 0.0001 -0.0000
vn -1.0000 0.0000 0.0000
vn 0.0000 -1.0000 0.0000
vn -1.0000 -0.0000 -0.0096
vn -1.0000 0.0001 -0.0096
usemtl Tex_0052_0.dds.019
s off
f 1/1/1 3/2/1 2/3/1
f 2/3/1 3/2/1 4/4/1
f 3/2/2 5/5/2 4/4/2
f 6/6/3 8/7/3 7/8/3
f 7/8/3 8/7/3 9/9/3
f 8/7/3 10/10/3 9/9/3
f 11/11/1 13/12/1 12/13/1
f 12/13/2 13/12/2 14/14/2
f 15/15/3 17/16/3 16/17/3
f 16/17/3 17/16/3 18/18/3
f 19/19/4 21/20/4 20/21/4
f 20/21/5 21/20/5 22/22/5
f 23/23/3 25/24/3 24/25/3
f 24/25/3 25/24/3 26/26/3
f 27/27/2 29/28/2 28/29/2
f 30/30/3 32/31/3 31/32/3
