# Blender v3.6.3 OBJ File: 'untitled.blend'
# www.blender.org
mtllib Mesh_0228.mtl
o Mesh_0228_Mesh.167
v 27.225527 6.529056 22.193192
v 25.955526 6.529056 22.193192
v 27.225527 -0.000014 22.193192
v 25.955526 -0.000014 22.193192
v 25.955526 6.529056 22.193192
v 25.955526 6.529056 22.828194
v 25.955526 -0.000014 22.193192
v 25.955526 -0.000014 22.828194
v 27.484354 6.529056 23.684937
v 27.484354 6.529056 22.445160
v 27.484354 -0.000014 23.684937
v 27.484354 -0.000014 22.445160
v 34.845566 6.529056 22.193192
v 34.845566 -0.000014 22.193192
v 36.115570 6.529056 22.193192
v 36.115570 -0.000014 22.193192
v 36.115570 6.529056 22.193192
v 36.115570 -0.000014 22.193192
v 36.115570 6.529056 22.828194
v 36.115570 -0.000014 22.828194
v 34.586739 6.529056 23.684937
v 34.586739 -0.000014 23.684937
v 34.586739 6.529056 22.445160
v 34.586739 -0.000014 22.445160
vt 1.950195 0.989258
vt 1.950195 0.006836
vt 0.996094 0.989258
vt 0.996094 0.006836
vt 0.317383 -1.009766
vt 0.317383 -1.990234
vt 0.775391 -1.009766
vt 0.775391 -1.996094
vt -0.331055 -1.003906
vt -0.331055 -1.999023
vt -0.975586 -1.003906
vt -0.975586 -1.999023
vt 1.950195 0.989258
vt 0.996094 0.989258
vt 1.950195 0.006836
vt 0.996094 0.006836
vt 0.317383 -1.009766
vt 0.775391 -1.009766
vt 0.317383 -1.990234
vt 0.775391 -1.996094
vt -0.331055 -1.003906
vt -0.975586 -1.003906
vt -0.331055 -1.999023
vt -0.975586 -1.999023
vn 0.0000 0.0000 -1.0000
vn -1.0000 0.0000 0.0000
vn 1.0000 0.0000 0.0000
usemtl Tex_0087_1.dds.001
s off
f 1/1/1 3/2/1 2/3/1
f 2/3/1 3/2/1 4/4/1
f 5/5/2 7/6/2 6/7/2
f 6/7/2 7/6/2 8/8/2
f 9/9/3 11/10/3 10/11/3
f 10/11/3 11/10/3 12/12/3
f 13/13/1 15/14/1 14/15/1
f 14/15/1 15/14/1 16/16/1
f 17/17/3 19/18/3 18/19/3
f 18/19/3 19/18/3 20/20/3
f 21/21/2 23/22/2 22/23/2
f 22/23/2 23/22/2 24/24/2
