# Blender v3.6.3 OBJ File: 'untitled.blend'
# www.blender.org
mtllib Mesh_0219.mtl
o Mesh_0219_Mesh.050
v 56.434841 10.068953 22.578117
v 55.433445 9.679113 22.622452
v 55.486271 9.524148 22.301651
v 54.562984 9.116402 22.582069
v 54.674999 8.963672 22.301651
v 53.921894 8.284983 22.610771
v 54.064381 8.183612 22.301651
v 53.544453 7.110944 22.578506
v 53.745113 7.026896 22.301651
v 53.779400 5.841985 22.301651
v 58.739765 8.183612 22.301651
v 58.919849 8.284983 22.611023
v 58.150227 8.965754 22.301651
v 58.307964 9.116402 22.582069
v 57.340473 9.521735 22.301651
v 57.437511 9.679113 22.622452
v 56.434841 10.068953 22.578117
v 59.121777 5.841985 22.301651
v 59.297047 7.110944 22.578506
v 59.135754 7.035964 22.301651
v 58.919849 8.284983 22.611023
v 58.739765 8.183612 22.301651
v 59.297047 7.110944 22.578506
v 59.121777 5.841985 22.301651
v 59.297047 5.841985 22.578506
v 56.434841 10.068953 22.578117
v 56.432682 9.860394 22.301651
v 57.340473 9.521735 22.301651
v 55.486271 9.524148 22.301651
v 56.432682 9.860394 22.301651
v 56.434841 10.068953 22.578117
v 53.779400 5.841985 22.301651
v 53.544453 7.110944 22.578506
v 53.544453 5.841985 22.578506
vt 0.000977 -2.001953
vt 0.190430 -2.200195
vt 0.001953 -2.196289
vt 0.001953 -2.437500
vt 0.193359 -2.434570
vt 0.001953 -2.578125
vt 0.192383 -2.576172
vt 0.001953 -2.718750
vt 0.192383 -2.716797
vt 0.191406 -2.994141
vt 0.195312 2.367188
vt 0.196289 2.500000
vt 0.002930 2.366211
vt 0.001953 2.498047
vt 0.195312 2.745117
vt 0.002930 2.743164
vt 0.004883 2.992188
vt 0.196289 2.004883
vt 0.195312 2.235352
vt 0.003906 2.235352
vt 0.002930 2.366211
vt 0.195312 2.367188
vt 0.003906 2.235352
vt 0.004883 2.004883
vt 0.196289 2.004883
vt 0.004883 2.992188
vt 0.195312 2.745117
vt 0.196289 2.993164
vt 0.190430 -2.200195
vt 0.000977 -2.001953
vt 0.193359 -2.000977
vt 0.191406 -2.994141
vt 0.001953 -2.994141
vt 0.001953 -2.718750
vn -0.3406 0.8234 -0.4538
vn -0.3491 0.7984 -0.4906
vn -0.4714 0.7612 -0.4453
vn -0.4980 0.7952 -0.3458
vn -0.3290 0.6748 -0.6606
vn -0.4470 0.6662 -0.5970
vn -0.4959 0.6639 -0.5597
vn -0.6743 0.5012 -0.5423
vn -0.7470 0.3907 -0.5380
vn -0.5368 0.6987 -0.4730
vn -0.6259 0.4708 -0.6218
vn -0.6966 0.6142 -0.3709
vn -0.8955 0.2903 -0.3373
vn -0.7692 0.2368 -0.5935
vn -0.8900 0.2957 -0.3471
vn -0.6027 0.3120 -0.7344
vn -0.7603 0.2098 -0.6148
vn -0.7694 0.1811 -0.6126
vn -0.8128 -0.0235 -0.5820
vn 0.6659 0.5019 -0.5520
vn 0.5886 0.6157 -0.5238
vn 0.6560 0.5159 -0.5509
vn 0.6193 0.4330 -0.6549
vn 0.6099 0.3555 -0.7082
vn 0.7023 0.5175 -0.4888
vn 0.3931 0.5862 -0.7085
vn 0.3489 0.6137 -0.7083
vn 0.4665 0.7340 -0.4936
vn 0.6046 0.7220 -0.3363
vn 0.4405 0.7094 -0.5502
vn 0.4728 0.7630 -0.4409
vn 0.3095 0.7673 -0.5617
vn 0.3339 0.8024 -0.4946
vn 0.3433 0.8337 -0.4326
vn 0.8652 -0.0101 -0.5013
vn 0.8000 -0.0094 -0.5999
vn 0.9368 -0.0540 -0.3457
vn 0.8525 0.2860 -0.4374
vn 0.6851 0.2845 -0.6705
vn 0.7979 0.2713 -0.5383
vn 0.7900 0.2726 -0.5492
vn 0.8449 0.0000 -0.5349
vn 0.2851 0.7641 -0.5787
vn -0.2732 0.7690 -0.5780
vn -0.7625 0.0000 -0.6470
usemtl Tex_0035_0.dds.001
s off
f 1/1/1 3/2/2 2/3/1
f 2/3/3 3/2/3 4/4/4
f 3/2/5 5/5/6 4/4/7
f 4/4/8 5/5/8 6/6/9
f 5/5/10 7/7/11 6/6/12
f 6/6/13 7/7/14 8/8/15
f 7/7/16 9/9/17 8/8/18
f 8/8/19 9/9/19 10/10/19
f 11/11/20 13/12/21 12/13/22
f 12/13/23 13/12/24 14/14/25
f 13/12/26 15/15/27 14/14/28
f 14/14/29 15/15/30 16/16/31
f 15/15/32 17/17/33 16/16/34
f 18/18/35 20/19/36 19/20/37
f 19/20/38 20/19/39 21/21/40
f 20/19/41 22/22/41 21/21/41
f 23/23/42 25/24/42 24/25/42
f 26/26/43 28/27/43 27/28/43
f 29/29/44 31/30/44 30/31/44
f 32/32/45 34/33/45 33/34/45
