# Blender v3.6.3 OBJ File: 'untitled.blend'
# www.blender.org
mtllib Mesh_0372.mtl
o Mesh_0372_Mesh.222
v -50.244469 14.732418 38.324989
v -45.164471 17.271952 38.324989
v -50.244469 13.208479 38.324989
v -45.164471 15.748013 38.324989
v -55.324471 12.191953 38.324989
v -50.244469 14.732418 38.324989
v -55.324471 10.668015 38.324989
v -50.244469 13.208479 38.324989
v -40.084473 19.811487 38.324989
v -35.004471 22.351952 38.324989
v -40.084473 18.287548 38.324989
v -35.004471 20.828014 38.325241
v -45.164471 17.271952 38.324989
v -40.084473 19.811487 38.324989
v -45.164471 15.748013 38.324989
v -40.084473 18.287548 38.324989
vt -0.000977 -0.155273
vt -0.000977 -0.942383
vt 1.997070 -0.155273
vt 1.997070 -0.942383
vt -0.000977 -0.155273
vt -0.000977 -0.942383
vt 1.997070 -0.155273
vt 1.997070 -0.942383
vt -0.000977 -0.155273
vt -0.000977 -0.942383
vt 1.997070 -0.155273
vt 1.997070 -0.942383
vt -0.000977 -0.155273
vt -0.000977 -0.942383
vt 1.997070 -0.155273
vt 1.997070 -0.942383
vn 0.0000 0.0000 1.0000
vn -0.0001 0.0002 1.0000
usemtl Tex_0052_0.dds.022
s off
f 1/1/1 3/2/1 2/3/1
f 2/3/1 3/2/1 4/4/1
f 5/5/1 7/6/1 6/7/1
f 6/7/1 7/6/1 8/8/1
f 9/9/1 11/10/1 10/11/1
f 10/11/2 11/10/2 12/12/2
f 13/13/1 15/14/1 14/15/1
f 14/15/1 15/14/1 16/16/1
