# Blender v3.6.3 OBJ File: 'untitled.blend'
# www.blender.org
mtllib Mesh_0135.mtl
o Mesh_0135_Mesh.008
v 69.135422 39.745190 16.478203
v 68.885712 39.412651 16.478203
v 69.135422 39.067219 15.572769
v 68.885712 38.900791 15.817650
v 69.135422 38.447304 14.979370
v 68.885712 38.398987 15.326035
v 69.135422 37.987789 14.740250
v 68.885712 37.887814 14.998070
v 69.135422 37.368183 14.601418
v 68.885712 37.246086 14.868889
v 68.885712 33.497093 14.868889
v 68.885712 33.497097 18.087509
v 68.885712 37.246090 18.087509
v 69.135422 37.368187 18.354980
v 68.885712 37.887817 17.958328
v 69.135422 37.987793 18.216156
v 68.885712 38.398991 17.630363
v 69.135422 38.447308 17.977020
v 68.885712 38.900791 17.138756
v 69.135422 39.067223 17.383644
v 68.885712 39.412651 16.478203
v 69.135422 39.745190 16.478203
v 69.135452 39.745197 3.778198
v 68.885788 39.412663 3.778198
v 69.135468 39.067223 2.872772
v 68.885788 38.900795 3.117653
v 69.135468 38.447308 2.279373
v 68.885788 38.398998 2.626030
v 69.135468 37.987797 2.040253
v 68.885788 37.887821 2.298073
v 69.135468 37.368187 1.901421
v 68.885788 37.246090 2.168884
v 68.885788 33.497101 2.168884
v 68.885788 33.497101 5.387512
v 68.885788 37.246090 5.387512
v 69.135437 37.368187 5.654984
v 68.885788 37.887821 5.258331
v 69.135437 37.987797 5.516159
v 68.885788 38.398998 4.930359
v 69.135437 38.447308 5.277023
v 68.885788 38.900795 4.438759
v 69.135437 39.067223 4.683647
v 68.885788 39.412663 3.778198
v 69.135452 39.745197 3.778198
v 69.135452 39.745193 -8.921799
v 68.885788 39.412659 -8.921799
v 69.135437 39.067219 -9.827232
v 68.885788 38.900791 -9.582348
v 69.135437 38.447308 -10.420628
v 68.885788 38.398994 -10.073971
v 69.135437 37.987797 -10.659744
v 68.885788 37.887821 -10.401932
v 69.135437 37.368187 -10.798580
v 68.885788 37.246090 -10.531113
v 68.885788 33.497101 -10.531116
v 68.885788 33.497101 -7.312489
v 68.885788 37.246090 -7.312489
v 69.135468 37.368187 -7.045021
v 68.885788 37.887821 -7.441669
v 69.135468 37.987797 -7.183838
v 68.885788 38.398998 -7.769638
v 69.135468 38.447308 -7.422981
v 68.885788 38.900791 -8.261242
v 69.135468 39.067219 -8.016350
v 68.885788 39.412659 -8.921799
v 69.135452 39.745193 -8.921799
v 69.135422 39.745197 -21.621796
v 68.885712 39.412659 -21.621796
v 69.135422 39.067223 -22.527233
v 68.885712 38.900795 -22.282349
v 69.135422 38.447308 -23.120628
v 68.885712 38.398994 -22.773968
v 69.135422 37.987793 -23.359745
v 68.885712 37.887821 -23.101933
v 69.135422 37.368187 -23.498577
v 68.885712 37.246090 -23.231113
v 68.885712 33.497097 -23.231117
v 68.885712 33.497097 -20.012489
v 68.885712 37.246090 -20.012486
v 69.135422 37.368187 -19.745014
v 68.885712 37.887821 -20.141666
v 69.135422 37.987793 -19.883839
v 68.885712 38.398994 -20.469639
v 69.135422 38.447308 -20.122978
v 68.885712 38.900795 -20.961239
v 69.135422 39.067223 -20.716351
v 68.885712 39.412659 -21.621796
v 69.135422 39.745197 -21.621796
v 69.962753 38.582935 16.478203
v 69.962753 38.236099 16.033981
v 68.885712 38.398987 15.326035
v 69.962753 37.591042 15.636246
v 68.885712 37.887814 14.998070
v 68.885712 37.246086 14.868889
v 68.885712 39.412651 16.478203
v 68.885712 38.900791 17.138756
v 69.962753 38.582935 16.478203
v 68.885712 38.398991 17.630363
v 69.962753 38.236099 16.922409
v 69.962753 37.591045 17.320160
v 69.962814 38.582947 3.778198
v 69.962814 38.236107 3.333977
v 68.885788 38.398998 2.626030
v 69.962814 37.591045 2.936249
v 68.885788 37.887821 2.298073
v 68.885788 37.246090 2.168884
v 68.885788 39.412663 3.778198
v 68.885788 38.900795 4.438759
v 69.962814 38.582947 3.778198
v 68.885788 38.398998 4.930359
v 69.962814 38.236107 4.222412
v 69.962814 37.591045 4.620163
v 69.962814 38.582943 -8.921799
v 69.962814 38.236103 -9.366020
v 68.885788 38.398994 -10.073971
v 69.962814 37.591042 -9.763756
v 68.885788 37.887821 -10.401932
v 68.885788 37.246090 -10.531113
v 68.885788 39.412659 -8.921799
v 68.885788 38.900791 -8.261242
v 69.962814 38.582943 -8.921799
v 68.885788 38.398998 -7.769638
v 69.962814 38.236103 -8.477589
v 69.962814 37.591042 -8.079830
v 69.962753 38.582947 -21.621796
v 69.962753 38.236107 -22.066021
v 68.885712 38.398994 -22.773968
v 69.962753 37.591045 -22.463757
v 68.885712 37.887821 -23.101933
v 68.885712 37.246090 -23.231113
v 68.885712 39.412659 -21.621796
v 68.885712 38.900795 -20.961239
v 69.962753 38.582947 -21.621796
v 68.885712 38.398994 -20.469639
v 69.962753 38.236107 -21.177586
v 69.962753 37.591045 -20.779831
v 68.885712 38.398991 17.630363
v 68.885712 37.887817 17.958328
v 69.962753 37.591045 17.320160
v 68.885712 37.246090 18.087509
v 69.962753 36.969151 17.436455
v 68.885788 38.398998 4.930359
v 68.885788 37.887821 5.258331
v 69.962814 37.591045 4.620163
v 68.885788 37.246090 5.387512
v 69.962814 36.969154 4.736458
v 68.885788 38.398998 -7.769638
v 68.885788 37.887821 -7.441669
v 69.962814 37.591042 -8.079830
v 68.885788 37.246090 -7.312489
v 69.962814 36.969154 -7.963547
v 68.885712 38.398994 -20.469639
v 68.885712 37.887821 -20.141666
v 69.962753 37.591045 -20.779831
v 68.885712 37.246090 -20.012486
v 69.962753 36.969151 -20.663544
v 68.885712 39.412651 16.478203
v 69.962753 38.582935 16.478203
v 68.885712 38.900791 15.817650
v 68.885712 38.398987 15.326035
v 68.885788 39.412663 3.778198
v 69.962814 38.582947 3.778198
v 68.885788 38.900795 3.117653
v 68.885788 38.398998 2.626030
v 68.885788 39.412659 -8.921799
v 69.962814 38.582943 -8.921799
v 68.885788 38.900791 -9.582348
v 68.885788 38.398994 -10.073971
v 68.885712 39.412659 -21.621796
v 69.962753 38.582947 -21.621796
v 68.885712 38.900795 -22.282349
v 68.885712 38.398994 -22.773968
v 68.885712 37.246086 14.868889
v 69.962753 37.591042 15.636246
v 69.962753 36.969151 15.519958
v 68.885788 37.246090 2.168884
v 69.962814 37.591045 2.936249
v 69.962814 36.969154 2.819962
v 68.885788 37.246090 -10.531113
v 69.962814 37.591042 -9.763756
v 69.962814 36.969151 -9.880035
v 68.885712 37.246090 -23.231113
v 69.962753 37.591045 -22.463757
v 69.962753 36.969154 -22.580036
vt 0.000000 -0.001953
vt 0.000000 -0.105469
vt 0.201172 -0.049805
vt 0.201172 -0.131836
vt 0.000000 -0.205078
vt 0.201172 -0.211914
vt 0.000000 -0.278320
vt 0.201172 -0.293945
vt 0.000000 -0.689453
vt 0.201172 -0.396484
vt 0.201172 -1.000977
vt 0.201172 -1.000977
vt 0.000000 -0.689453
vt 0.201172 -0.396484
vt 0.201172 -0.293945
vt 0.000000 -0.278320
vt 0.201172 -0.211914
vt 0.000000 -0.205078
vt 0.201172 -0.131836
vt 0.000000 -0.105469
vt 0.201172 -0.049805
vt 0.000000 -0.001953
vt 0.000000 -0.001953
vt 0.000000 -0.105469
vt 0.201172 -0.049805
vt 0.201172 -0.131836
vt 0.000000 -0.205078
vt 0.201172 -0.211914
vt 0.000000 -0.278320
vt 0.201172 -0.293945
vt 0.000000 -0.689453
vt 0.201172 -0.396484
vt 0.201172 -1.000977
vt 0.201172 -1.000977
vt 0.000000 -0.689453
vt 0.201172 -0.396484
vt 0.201172 -0.293945
vt 0.000000 -0.278320
vt 0.201172 -0.211914
vt 0.000000 -0.205078
vt 0.201172 -0.131836
vt 0.000000 -0.105469
vt 0.201172 -0.049805
vt 0.000000 -0.001953
vt 0.000000 -0.001953
vt 0.000000 -0.105469
vt 0.201172 -0.049805
vt 0.201172 -0.131836
vt 0.000000 -0.205078
vt 0.201172 -0.211914
vt 0.000000 -0.278320
vt 0.201172 -0.293945
vt 0.000000 -0.689453
vt 0.201172 -0.396484
vt 0.201172 -1.000977
vt 0.201172 -1.000977
vt 0.000000 -0.689453
vt 0.201172 -0.396484
vt 0.201172 -0.293945
vt 0.000000 -0.278320
vt 0.201172 -0.211914
vt 0.000000 -0.205078
vt 0.201172 -0.131836
vt 0.000000 -0.105469
vt 0.201172 -0.049805
vt 0.000000 -0.001953
vt 0.000000 -0.001953
vt 0.000000 -0.105469
vt 0.201172 -0.049805
vt 0.201172 -0.131836
vt 0.000000 -0.205078
vt 0.201172 -0.211914
vt 0.000000 -0.278320
vt 0.201172 -0.293945
vt 0.000000 -0.689453
vt 0.201172 -0.396484
vt 0.201172 -1.000977
vt 0.201172 -1.000977
vt 0.000000 -0.689453
vt 0.201172 -0.396484
vt 0.201172 -0.293945
vt 0.000000 -0.278320
vt 0.201172 -0.211914
vt 0.000000 -0.205078
vt 0.201172 -0.131836
vt 0.000000 -0.105469
vt 0.201172 -0.049805
vt 0.000000 -0.001953
vt 0.999023 -0.182617
vt 0.201172 -0.211914
vt 0.999023 -0.238281
vt 0.999023 -0.341797
vt 0.201172 -0.293945
vt 0.201172 -0.396484
vt 0.201172 -0.049805
vt 0.999023 -0.182617
vt 0.201172 -0.131836
vt 0.201172 -0.211914
vt 0.999023 -0.238281
vt 0.999023 -0.341797
vt 0.999023 -0.182617
vt 0.201172 -0.211914
vt 0.999023 -0.238281
vt 0.999023 -0.341797
vt 0.201172 -0.293945
vt 0.201172 -0.396484
vt 0.201172 -0.049805
vt 0.999023 -0.182617
vt 0.201172 -0.131836
vt 0.201172 -0.211914
vt 0.999023 -0.238281
vt 0.999023 -0.341797
vt 0.999023 -0.182617
vt 0.201172 -0.211914
vt 0.999023 -0.238281
vt 0.999023 -0.341797
vt 0.201172 -0.293945
vt 0.201172 -0.396484
vt 0.201172 -0.049805
vt 0.999023 -0.182617
vt 0.201172 -0.131836
vt 0.201172 -0.211914
vt 0.999023 -0.238281
vt 0.999023 -0.341797
vt 0.999023 -0.182617
vt 0.201172 -0.211914
vt 0.999023 -0.238281
vt 0.999023 -0.341797
vt 0.201172 -0.293945
vt 0.201172 -0.396484
vt 0.201172 -0.049805
vt 0.999023 -0.182617
vt 0.201172 -0.131836
vt 0.201172 -0.211914
vt 0.999023 -0.238281
vt 0.999023 -0.341797
vt 0.201172 -0.211914
vt 0.999023 -0.341797
vt 0.201172 -0.293945
vt 0.201172 -0.396484
vt 0.999023 -0.441406
vt 0.201172 -0.211914
vt 0.999023 -0.341797
vt 0.201172 -0.293945
vt 0.201172 -0.396484
vt 0.999023 -0.441406
vt 0.201172 -0.211914
vt 0.999023 -0.341797
vt 0.201172 -0.293945
vt 0.201172 -0.396484
vt 0.999023 -0.441406
vt 0.201172 -0.211914
vt 0.999023 -0.341797
vt 0.201172 -0.293945
vt 0.201172 -0.396484
vt 0.999023 -0.441406
vt 0.201172 -0.049805
vt 0.201172 -0.131836
vt 0.999023 -0.182617
vt 0.201172 -0.211914
vt 0.201172 -0.049805
vt 0.201172 -0.131836
vt 0.999023 -0.182617
vt 0.201172 -0.211914
vt 0.201172 -0.049805
vt 0.201172 -0.131836
vt 0.999023 -0.182617
vt 0.201172 -0.211914
vt 0.201172 -0.049805
vt 0.201172 -0.131836
vt 0.999023 -0.182617
vt 0.201172 -0.211914
vt 0.201172 -0.396484
vt 0.999023 -0.441406
vt 0.999023 -0.341797
vt 0.201172 -0.396484
vt 0.999023 -0.441406
vt 0.999023 -0.341797
vt 0.201172 -0.396484
vt 0.999023 -0.441406
vt 0.999023 -0.341797
vt 0.201172 -0.396484
vt 0.999023 -0.441406
vt 0.999023 -0.341797
vn -0.7293 0.5477 -0.4101
vn -0.6767 0.5476 -0.4921
vn -0.7481 0.5245 -0.4064
vn -0.7716 0.5028 -0.3896
vn -0.7462 0.4635 -0.4779
vn -0.6773 0.4291 -0.5975
vn -0.7960 0.4006 -0.4538
vn -0.7480 0.4645 -0.4741
vn -0.7876 0.4393 -0.4321
vn -0.7768 0.2888 -0.5596
vn -0.8051 0.1886 -0.5623
vn -0.8563 0.1589 -0.4913
vn -0.7334 0.4345 -0.5228
vn -0.6579 0.4705 -0.5880
vn -0.7952 0.3274 -0.5103
vn -0.6631 0.1465 -0.7341
vn -0.6982 0.0723 -0.7122
vn -0.8123 0.0530 -0.5808
vn -0.7536 0.1297 -0.6444
vn -0.8031 0.1176 -0.5841
vn -0.6969 0.0036 -0.7171
vn -0.7310 0.0000 -0.6824
vn -0.7694 0.0000 -0.6387
vn -0.7310 0.0000 0.6824
vn -0.6709 -0.0031 0.7416
vn -0.7694 0.0000 0.6387
vn -0.8031 0.1176 0.5841
vn -0.7217 0.1606 0.6733
vn -0.7956 0.2224 0.5636
vn -0.7077 0.1047 0.6987
vn -0.6631 0.1465 0.7341
vn -0.8015 0.0734 0.5934
vn -0.8107 0.3126 0.4949
vn -0.6579 0.4705 0.5880
vn -0.7334 0.4345 0.5228
vn -0.8051 0.1886 0.5623
vn -0.7636 0.2981 0.5728
vn -0.8563 0.1589 0.4914
vn -0.7875 0.4394 0.4321
vn -0.6492 0.5711 0.5024
vn -0.7623 0.5003 0.4105
vn -0.7600 0.4494 0.4695
vn -0.7297 0.4750 0.4919
vn -0.7585 0.5169 0.3967
vn -0.7135 0.5642 0.4154
vn -0.7642 0.5098 0.3951
vn -0.6871 0.5534 0.4707
vn -0.7293 0.5477 0.4101
vn -0.7311 0.5490 0.4050
vn -0.7294 0.5476 -0.4101
vn -0.6872 0.5534 -0.4707
vn -0.7312 0.5489 -0.4050
vn -0.7642 0.5098 -0.3951
vn -0.7135 0.5643 -0.4154
vn -0.7757 0.5001 -0.3849
vn -0.7297 0.4750 -0.4918
vn -0.7012 0.4325 -0.5668
vn -0.7920 0.4046 -0.4572
vn -0.7541 0.4924 -0.4347
vn -0.6627 0.5594 -0.4980
vn -0.7517 0.3029 -0.5858
vn -0.8052 0.1887 -0.5623
vn -0.8564 0.1589 -0.4913
vn -0.7335 0.4344 -0.5228
vn -0.6580 0.4704 -0.5880
vn -0.8108 0.3126 -0.4949
vn -0.7078 0.1048 -0.6986
vn -0.8016 0.0734 -0.5934
vn -0.7956 0.2225 -0.5635
vn -0.7217 0.1607 -0.6733
vn -0.8032 0.1176 -0.5841
vn -0.6709 -0.0031 -0.7416
vn -0.7310 0.0000 0.6823
vn -0.6709 -0.0031 0.7415
vn -0.7695 -0.0000 0.6387
vn -0.8032 0.1176 0.5840
vn -0.7217 0.1607 0.6733
vn -0.7956 0.2224 0.5635
vn -0.7078 0.1047 0.6986
vn -0.6743 0.1614 0.7206
vn -0.8016 0.0733 0.5933
vn -0.8108 0.3126 0.4948
vn -0.6421 0.4715 0.6046
vn -0.7529 0.4402 0.4893
vn -0.7973 0.2786 0.5354
vn -0.7518 0.3029 0.5857
vn -0.7631 0.4626 0.4514
vn -0.6627 0.5593 0.4980
vn -0.7541 0.4924 0.4346
vn -0.7013 0.4324 0.5668
vn -0.7298 0.4749 0.4918
vn -0.7920 0.4046 0.4572
vn -0.7757 0.5001 0.3849
vn -0.7643 0.5098 0.3950
vn -0.6872 0.5534 0.4707
vn -0.7294 0.5476 0.4100
vn -0.7312 0.5490 0.4049
vn -0.7294 0.5476 -0.4100
vn -0.7312 0.5490 -0.4050
vn -0.7643 0.5098 -0.3951
vn -0.7135 0.5642 -0.4154
vn -0.7298 0.4749 -0.4918
vn -0.7013 0.4325 -0.5668
vn -0.7541 0.4924 -0.4346
vn -0.6627 0.5593 -0.4980
vn -0.7518 0.3029 -0.5857
vn -0.8052 0.1886 -0.5622
vn -0.8564 0.1588 -0.4912
vn -0.6631 0.1465 -0.7340
vn -0.7078 0.1047 -0.6986
vn -0.7956 0.2224 -0.5635
vn -0.7218 0.1606 -0.6733
vn -0.8032 0.1176 -0.5840
vn -0.6709 -0.0031 -0.7415
vn -0.7310 0.0000 -0.6823
vn -0.7695 -0.0000 -0.6387
vn -0.8032 0.1176 0.5841
vn -0.8016 0.0734 0.5933
vn -0.8108 0.3126 0.4949
vn -0.6580 0.4704 0.5880
vn -0.7335 0.4344 0.5228
vn -0.8051 0.1887 0.5623
vn -0.7517 0.3029 0.5858
vn -0.8564 0.1589 0.4913
vn -0.7876 0.4393 0.4321
vn -0.6626 0.5594 0.4980
vn -0.7541 0.4924 0.4347
vn -0.7012 0.4324 0.5668
vn -0.7297 0.4750 0.4918
vn -0.7294 0.5476 0.4101
vn -0.7312 0.5489 0.4050
vn -0.6871 0.5534 -0.4707
vn -0.7311 0.5490 -0.4050
vn -0.7756 0.5002 -0.3850
vn -0.7297 0.4750 -0.4919
vn -0.7012 0.4325 -0.5669
vn -0.7919 0.4047 -0.4573
vn -0.7540 0.4924 -0.4347
vn -0.6626 0.5594 -0.4980
vn -0.7875 0.4394 -0.4321
vn -0.8564 0.1588 -0.4914
vn -0.8107 0.3127 -0.4949
vn -0.6630 0.1465 -0.7341
vn -0.7077 0.1047 -0.6987
vn -0.8015 0.0734 -0.5934
vn -0.7956 0.2224 -0.5636
vn -0.6708 -0.0031 -0.7416
vn -0.7694 0.0000 0.6388
vn -0.6630 0.1466 0.7341
vn -0.8015 0.0733 0.5934
vn -0.8107 0.3127 0.4949
vn -0.6579 0.4705 0.5881
vn -0.7334 0.4344 0.5228
vn -0.8563 0.1589 0.4913
vn -0.6627 0.5594 0.4980
vn -0.7540 0.4925 0.4346
vn -0.7012 0.4325 0.5669
vn -0.7920 0.4047 0.4572
vn -0.7757 0.5002 0.3850
vn -0.4639 -0.6982 0.5452
vn -0.3053 -0.8569 0.4153
vn -0.5775 -0.6435 0.5024
vn -0.6846 -0.3826 0.6205
vn -0.5226 -0.3987 0.7536
vn -0.5858 -0.3982 0.7059
vn -0.5129 -0.4864 0.7074
vn -0.4089 -0.4928 0.7681
vn -0.5636 -0.5081 0.6513
vn -0.5883 0.0583 0.8066
vn -0.3956 -0.1812 0.9004
vn -0.5362 -0.1666 0.8275
vn -0.5201 -0.6751 -0.5232
vn -0.5043 -0.7008 -0.5046
vn -0.4612 -0.7014 -0.5435
vn -0.4985 -0.6067 -0.6193
vn -0.5680 -0.5044 -0.6503
vn -0.5236 -0.5727 -0.6308
vn -0.4225 -0.7246 -0.5445
vn -0.5775 -0.6435 -0.5024
vn -0.3786 -0.8093 -0.4491
vn -0.5034 -0.3209 -0.8022
vn -0.6846 -0.3826 -0.6205
vn -0.5384 -0.4423 -0.7173
vn -0.5858 -0.3981 0.7059
vn -0.4090 -0.4928 0.7681
vn -0.3956 -0.1813 0.9004
vn -0.5236 -0.5727 -0.6307
vn -0.6845 -0.3826 -0.6205
vn -0.4640 -0.6982 0.5452
vn -0.4612 -0.7013 -0.5435
vn -0.5680 -0.5045 -0.6503
vn -0.5129 -0.4864 0.7073
vn -0.5435 -0.4533 -0.7065
vn -0.6068 -0.6056 -0.5148
vn -0.4089 -0.4928 -0.7681
vn -0.3956 -0.1812 -0.9004
vn -0.5557 -0.1110 -0.8239
vn -0.5332 -0.1669 -0.8293
vn -0.5913 -0.1785 -0.7864
vn -0.5399 -0.1547 -0.8274
vn -0.5390 -0.1462 -0.8295
vn -0.4090 -0.4928 -0.7681
vn -0.5332 -0.1670 -0.8293
vn -0.5332 -0.1670 -0.8294
vn -0.5914 -0.1785 -0.7864
vn -0.5390 -0.1461 -0.8295
vn -0.5201 -0.6751 0.5232
vn -0.4612 -0.7014 0.5435
vn -0.5351 -0.6946 0.4808
vn -0.5749 -0.5313 0.6223
vn -0.4985 -0.6067 0.6193
vn -0.5418 -0.5882 0.6004
vn -0.5749 -0.5313 0.6222
vn -0.4985 -0.6067 0.6192
vn -0.5399 -0.1547 0.8274
usemtl Tex_0035_0.dds
s off
f 1/1/1 3/2/2 2/3/1
f 2/3/3 3/2/3 4/4/4
f 3/2/5 5/5/6 4/4/7
f 4/4/8 5/5/8 6/6/9
f 5/5/10 7/7/11 6/6/12
f 6/6/13 7/7/14 8/8/15
f 7/7/16 9/9/17 8/8/18
f 8/8/19 9/9/19 10/10/20
f 9/9/21 11/11/22 10/10/23
f 12/12/24 14/13/25 13/14/26
f 13/14/27 14/13/28 15/15/29
f 14/13/30 16/16/31 15/15/32
f 15/15/33 16/16/34 17/17/35
f 16/16/36 18/18/37 17/17/38
f 17/17/39 18/18/40 19/19/41
f 18/18/42 20/20/43 19/19/42
f 19/19/44 20/20/45 21/21/46
f 20/20/47 22/22/48 21/21/49
f 23/23/50 25/24/51 24/25/52
f 24/25/53 25/24/54 26/26/55
f 25/24/56 27/27/57 26/26/58
f 26/26/59 27/27/60 28/28/9
f 27/27/61 29/29/62 28/28/63
f 28/28/64 29/29/65 30/30/66
f 29/29/16 31/31/67 30/30/68
f 30/30/69 31/31/70 32/32/71
f 31/31/72 33/33/22 32/32/23
f 34/34/73 36/35/74 35/36/75
f 35/36/76 36/35/77 37/37/78
f 36/35/79 38/38/80 37/37/81
f 37/37/82 38/38/83 39/39/84
f 38/38/85 40/40/86 39/39/85
f 39/39/87 40/40/88 41/41/89
f 40/40/90 42/42/91 41/41/92
f 41/41/93 42/42/45 43/43/94
f 42/42/95 44/44/96 43/43/97
f 45/45/98 47/46/51 46/47/99
f 46/47/100 47/46/101 48/48/55
f 47/46/102 49/49/103 48/48/58
f 48/48/104 49/49/105 50/50/9
f 49/49/106 51/51/107 50/50/108
f 50/50/64 51/51/65 52/52/66
f 51/51/109 53/53/110 52/52/68
f 52/52/111 53/53/112 54/54/113
f 53/53/114 55/55/115 54/54/116
f 56/56/24 58/57/74 57/58/26
f 57/58/117 58/57/77 59/59/29
f 58/57/79 60/60/31 59/59/118
f 59/59/119 60/60/120 61/61/121
f 60/60/122 62/62/123 61/61/124
f 61/61/125 62/62/126 63/63/127
f 62/62/128 64/64/129 63/63/92
f 63/63/93 64/64/45 65/65/46
f 64/64/95 66/66/130 65/65/131
f 67/67/1 69/68/132 68/69/133
f 68/69/53 69/68/101 70/70/134
f 69/68/135 71/71/136 70/70/137
f 70/70/138 71/71/139 72/72/140
f 71/71/61 73/73/11 72/72/141
f 72/72/13 73/73/14 74/74/142
f 73/73/143 75/75/144 74/74/145
f 74/74/146 75/75/70 76/76/20
f 75/75/147 77/77/22 76/76/23
f 78/78/24 80/79/25 79/80/148
f 79/80/27 80/79/28 81/81/29
f 80/79/30 82/82/149 81/81/150
f 81/81/151 82/82/152 83/83/153
f 82/82/122 84/84/123 83/83/154
f 83/83/125 84/84/155 85/85/156
f 84/84/157 86/86/43 85/85/158
f 85/85/159 86/86/45 87/87/46
f 86/86/47 88/88/48 87/87/49
f 89/89/160 91/90/161 90/91/162
f 90/91/163 91/90/164 92/92/165
f 91/90/166 93/93/167 92/92/168
f 92/92/169 93/93/170 94/94/171
f 95/95/172 97/96/173 96/97/174
f 96/97/175 97/96/176 98/98/177
f 97/96/178 99/99/179 98/98/180
f 98/98/181 99/99/182 100/100/183
f 101/101/160 103/102/161 102/103/162
f 102/103/163 103/102/164 104/104/184
f 103/102/166 105/105/185 104/104/168
f 104/104/169 105/105/186 106/106/171
f 107/107/172 109/108/173 108/109/174
f 108/109/175 109/108/176 110/110/187
f 109/108/178 111/111/179 110/110/180
f 110/110/181 111/111/188 112/112/183
f 113/113/189 115/114/161 114/115/162
f 114/115/163 115/114/164 116/116/165
f 115/114/166 117/117/185 116/116/168
f 116/116/169 117/117/186 118/118/171
f 119/119/172 121/120/173 120/121/190
f 120/121/175 121/120/191 122/122/187
f 121/120/178 123/123/179 122/122/180
f 122/122/181 123/123/188 124/124/183
f 125/125/160 127/126/161 126/127/162
f 126/127/163 127/126/164 128/128/184
f 127/126/192 129/129/167 128/128/168
f 128/128/169 129/129/170 130/130/171
f 131/131/172 133/132/173 132/133/174
f 132/133/175 133/132/176 134/134/177
f 133/132/178 135/135/179 134/134/180
f 134/134/181 135/135/188 136/136/183
f 137/137/193 139/138/194 138/139/195
f 138/139/196 139/138/197 140/140/198
f 139/138/199 141/141/200 140/140/201
f 142/142/193 144/143/194 143/144/202
f 143/144/196 144/143/197 145/145/203
f 144/143/199 146/146/200 145/145/201
f 147/147/193 149/148/194 148/149/202
f 148/149/196 149/148/197 150/150/204
f 149/148/205 151/151/200 150/150/206
f 152/152/193 154/153/194 153/154/202
f 153/154/196 154/153/197 155/155/198
f 154/153/205 156/156/200 155/155/206
f 157/157/207 159/158/208 158/159/209
f 158/159/210 159/158/211 160/160/212
f 161/161/207 163/162/208 162/163/209
f 162/163/213 163/162/214 164/164/212
f 165/165/207 167/166/208 166/167/209
f 166/167/213 167/166/211 168/168/212
f 169/169/207 171/170/208 170/171/209
f 170/171/213 171/170/214 172/172/212
f 173/173/215 175/174/215 174/175/215
f 176/176/215 178/177/215 177/178/215
f 179/179/215 181/180/215 180/181/215
f 182/182/215 184/183/215 183/184/215
