# Blender v3.6.3 OBJ File: 'untitled.blend'
# www.blender.org
mtllib Mesh_0103.mtl
o Mesh_0103_Mesh.117
v 15.795412 -0.000010 -15.271805
v 18.335413 -0.000010 -15.271805
v 18.335413 -0.000010 -12.731804
v 20.875410 -0.000010 -15.271805
v 20.875410 -0.000010 -12.731804
v 23.415415 -0.000010 -15.271805
v 23.415415 -0.000010 -12.731804
v 25.955416 -0.000010 -15.271805
v 25.955416 -0.000010 -12.731804
v 28.495417 -0.000010 -15.271805
v 28.495417 -0.000010 -12.731804
v 31.035414 -0.000010 -15.271805
v 31.035414 -0.000010 -12.731804
v 33.575417 -0.000010 -15.271805
v 33.575417 -0.000010 -12.731804
v 36.115417 -0.000010 -15.271805
v 36.115417 -0.000010 -12.731804
v 38.655418 -0.000010 -12.731804
v 36.115417 -0.000010 7.588196
v 36.115417 -0.000010 10.128189
v 33.575417 -0.000010 7.588196
v 33.575417 -0.000010 10.128189
v 31.035414 -0.000010 7.588196
v 31.035414 -0.000010 10.128189
v 28.495417 -0.000010 7.588196
v 28.495417 -0.000010 10.128189
v 25.955416 -0.000010 7.588196
v 25.955416 -0.000010 10.128189
v 23.415415 -0.000010 7.588196
v 23.415415 -0.000010 10.128189
v 20.875410 -0.000010 7.588196
v 20.875410 -0.000010 10.128189
v 18.335413 -0.000010 7.588196
v 18.335413 -0.000010 10.128189
v 15.795412 -0.000010 10.128189
v 48.815422 2.539990 10.128189
v 48.815422 2.539990 7.588196
v 51.355423 2.539990 10.128189
v 51.355423 2.539990 7.588196
v 53.895416 2.539990 10.128189
v 53.895416 2.539990 7.588196
v 56.435417 2.539990 10.128189
v 56.435417 2.539990 7.588196
v 58.975418 2.539990 10.128189
v 58.975418 2.539990 7.588196
v 61.515419 2.539990 10.128189
v 61.515419 2.539990 7.588196
v 64.055420 2.539990 10.128189
v 64.055420 2.539990 7.588196
v 48.815422 2.539990 15.208191
v 48.815422 2.539990 12.668190
v 51.355423 2.539990 15.208191
v 51.355423 2.539990 12.668190
v 53.895416 2.539990 15.208191
v 53.895416 2.539990 12.668190
v 56.435417 2.539990 15.208191
v 56.435417 2.539990 12.668190
v 58.975418 2.539990 15.208191
v 58.975418 2.539990 12.668190
v 61.515419 2.539990 15.208191
v 61.515419 2.539990 12.668190
v 64.055420 2.539990 15.208191
v 64.055420 2.539990 12.668190
v 48.815422 2.539990 17.748192
v 48.815422 2.539990 15.208191
v 51.355423 2.539990 17.748192
v 51.355423 2.539990 15.208191
v 53.895416 2.539990 17.748192
v 53.895416 2.539990 15.208191
v 56.435417 2.539990 17.748192
v 56.435417 2.539990 15.208191
v 58.975418 2.539990 17.748192
v 58.975418 2.539990 15.208191
v 61.515419 2.539990 17.748192
v 61.515419 2.539990 15.208191
v 64.055420 2.539990 17.748192
v 64.055420 2.539990 15.208191
v 48.815422 2.539990 20.288193
v 48.815422 2.539990 17.748192
v 51.355423 2.539990 20.288193
v 51.355423 2.539990 17.748192
v 53.895416 2.539990 20.288193
v 53.895416 2.539990 17.748192
v 56.435417 2.539990 20.288193
v 56.435417 2.539990 17.748192
v 58.975418 2.539990 20.288193
v 58.975418 2.539990 17.748192
v 61.515419 2.539990 20.288193
v 61.515419 2.539990 17.748192
v 64.055420 2.539990 20.288193
v 64.055420 2.539990 17.748192
v 48.815422 2.539990 21.558189
v 48.815422 2.539990 20.288193
v 51.355423 2.539990 21.558189
v 51.355423 2.539990 20.288193
v 53.895416 2.539990 21.558189
v 53.895416 2.539990 20.288193
v 56.435417 2.539990 21.558189
v 56.435417 2.539990 20.288193
v 58.975418 2.539990 21.558189
v 58.975418 2.539990 20.288193
v 61.515419 2.539990 21.558189
v 61.515419 2.539990 20.288193
v 64.055420 2.539990 21.558189
v 64.055420 2.539990 20.288193
v 13.255411 -0.000010 7.588196
v 13.255411 -0.000010 10.128189
v 10.715414 -0.000010 7.588196
v 10.715414 -0.000010 10.128189
v 8.175413 -0.000010 7.588196
v 8.175413 -0.000010 10.128189
v 5.635412 -0.000010 7.588196
v 5.635412 -0.000010 10.128189
v 3.095415 -0.000010 7.588196
v 3.095415 -0.000010 10.128189
v 0.555414 -0.000010 7.588196
v 0.555414 -0.000010 10.128189
v -1.984585 -0.000010 7.588196
v -1.984585 -0.000010 10.128189
v 13.255411 -0.000010 -15.271805
v 10.715414 -0.000010 -12.731804
v 10.715414 -0.000010 -15.271805
v 8.175413 -0.000010 -12.731804
v 8.175413 -0.000010 -15.271805
v 5.635412 -0.000010 -12.731804
v 5.635412 -0.000010 -15.271805
v 3.095415 -0.000010 -12.731804
v 3.095415 -0.000010 -15.271805
v 0.555414 -0.000010 -12.731804
v 0.555414 -0.000010 -15.271805
v -1.984585 -0.000010 -12.731804
v -1.984585 -0.000010 -15.271805
v 48.815422 2.539990 -15.271805
v 51.355423 2.539990 -15.271805
v 48.815422 2.539990 -12.731804
v 51.355423 2.539990 -12.731804
v 48.815422 2.539990 -10.191807
v 51.355423 2.539990 -10.191807
v 48.815422 2.539990 -7.651806
v 51.355423 2.539990 -7.651806
v 48.815422 2.539990 -5.111809
v 51.355423 2.539990 -5.111809
v 48.815422 2.539990 -2.571808
v 51.355423 2.539990 -2.571808
v 51.355423 2.539990 -0.031807
v 48.815422 2.539990 -17.811806
v 51.355423 2.539990 -20.351807
v 51.355423 2.539990 -17.811806
v 53.895416 2.539990 -20.351807
v 53.895416 2.539990 -17.811806
v 56.435417 2.539990 -20.351807
v 56.435417 2.539990 -17.811806
v 58.975418 2.539990 -20.351807
v 58.975418 2.539990 -17.811806
v 61.515419 2.539990 -20.351807
v 61.515419 2.539990 -17.811806
v 64.055420 2.539990 -20.351807
v 64.055420 2.539990 -17.811806
v 48.815422 2.539990 -20.351807
v 51.355423 2.539990 -22.891804
v 51.355423 2.539990 -20.351807
v 53.895416 2.539990 -22.891804
v 53.895416 2.539990 -20.351807
v 56.435417 2.539990 -22.891804
v 56.435417 2.539990 -20.351807
v 58.975418 2.539990 -22.891804
v 58.975418 2.539990 -20.351807
v 61.515419 2.539990 -22.891804
v 61.515419 2.539990 -20.351807
v 64.055420 2.539990 -22.891804
v 64.055420 2.539990 -20.351807
v 48.815422 2.539990 -22.891804
v 51.355423 2.539990 -25.431805
v 51.355423 2.539990 -22.891804
v 53.895416 2.539990 -25.431805
v 53.895416 2.539990 -22.891804
v 56.435417 2.539990 -25.431805
v 56.435417 2.539990 -22.891804
v 58.975418 2.539990 -25.431805
v 58.975418 2.539990 -22.891804
v 61.515419 2.539990 -25.431805
v 61.515419 2.539990 -22.891804
v 64.055420 2.539990 -25.431805
v 64.055420 2.539990 -22.891804
v 48.815422 2.539990 -25.431805
v 51.355423 2.539990 -26.701805
v 51.355423 2.539990 -25.431805
v 53.895416 2.539990 -26.701805
v 53.895416 2.539990 -25.431805
v 56.435417 2.539990 -26.701805
v 56.435417 2.539990 -25.431805
v 58.975418 2.539990 -26.701805
v 58.975418 2.539990 -25.431805
v 61.515419 2.539990 -26.701805
v 61.515419 2.539990 -25.431805
v 64.055420 2.539990 -26.701805
v 64.055420 2.539990 -25.431805
v 51.355423 2.539990 -12.731804
v 53.895416 2.539990 -15.271805
v 53.895416 2.539990 -12.731804
v 56.435417 2.539990 -15.271805
v 56.435417 2.539990 -12.731804
v 58.975418 2.539990 -15.271805
v 58.975418 2.539990 -12.731804
v 61.515419 2.539990 -15.271805
v 61.515419 2.539990 -12.731804
v 64.055420 2.539990 -15.271805
v 64.055420 2.539990 -12.731804
v 48.815422 2.539990 -2.571808
v 51.355423 2.539990 -0.031807
v 48.815422 2.539990 -0.031807
v 51.355423 2.539990 2.508194
v 48.815422 2.539990 2.508194
v 51.355423 2.539990 5.048195
v 48.815422 2.539990 5.048195
v 51.355423 2.539990 7.588196
v 48.815422 2.539990 7.588196
v 15.795412 -0.000010 -5.111809
v 15.795412 -0.000010 -2.571808
v 13.255411 -0.000010 -2.569122
v 15.795412 -0.000010 -0.031815
v 13.255411 -0.000010 -0.031815
v 15.795412 -0.000010 2.508194
v 13.255411 -0.000010 2.508194
v 13.255411 -0.000010 5.048195
v 13.255411 -0.000010 -5.111809
v 13.255411 -0.000010 -7.651806
v 15.795412 -0.000010 -7.651806
v 13.255411 -0.000010 -10.191807
v 15.795412 -0.000010 -10.191807
v 13.255411 -0.000010 -12.731804
v 15.795412 -0.000010 -12.731804
v 66.595421 2.539990 -17.811806
v 64.055420 2.539990 -17.811806
v 66.595421 2.539990 -20.351807
v 64.055420 2.539990 -20.351807
v 66.595421 2.539990 -22.891804
v 64.055420 2.539990 -22.891804
v 67.865417 2.539990 -17.811806
v 66.595421 2.539990 -17.811806
v 67.865417 2.539990 -20.351807
v 66.595421 2.539990 -20.351807
v 67.865417 2.539990 -22.891804
v 66.595421 2.539990 -22.891804
v 66.595421 2.539990 -22.891804
v 64.055420 2.539990 -22.891804
v 66.595421 2.539990 -25.431805
v 64.055420 2.539990 -25.431805
v 66.595421 2.539990 -26.701805
v 64.055420 2.539990 -26.701805
v 67.865417 2.539990 -22.891804
v 66.595421 2.539990 -22.891804
v 67.865417 2.539990 -25.431805
v 66.595421 2.539990 -25.431805
v 67.865417 2.539990 -26.701805
v 66.595421 2.539990 -26.701805
v 64.055420 2.539990 10.128189
v 64.055420 2.539990 7.588196
v 66.595421 2.539990 10.128189
v 66.595421 2.539990 7.588196
v 67.865417 2.539990 10.128189
v 67.865417 2.539990 7.588196
v 64.055420 2.539990 15.208191
v 64.055420 2.539990 12.668190
v 66.595421 2.539990 15.208191
v 66.595421 2.539990 12.668190
v 67.865417 2.539990 15.208191
v 67.865417 2.539990 12.668190
v 64.055420 2.539990 17.748192
v 64.055420 2.539990 15.208191
v 66.595421 2.539990 17.748192
v 66.595421 2.539990 15.208191
v 67.865417 2.539990 17.748192
v 67.865417 2.539990 15.208191
v 64.055420 2.539990 20.288193
v 64.055420 2.539990 17.748192
v 66.595421 2.539990 20.288193
v 66.595421 2.539990 17.748192
v 67.865417 2.539990 20.288193
v 67.865417 2.539990 17.748192
v 64.055420 2.539990 21.558189
v 64.055420 2.539990 20.288193
v 66.595421 2.539990 21.558189
v 66.595421 2.539990 20.288193
v 67.865417 2.539990 21.558189
v 67.865417 2.539990 20.288193
v -5.794584 -0.000010 10.128189
v -5.794584 -0.000010 7.588196
v -4.524584 -0.000010 10.128189
v -4.524584 -0.000010 7.588196
v -1.984585 -0.000010 10.128189
v -1.984585 -0.000010 7.588196
v 38.655418 -0.000010 10.128189
v 38.655418 -0.000010 7.588196
v 41.195419 -0.000010 10.128189
v 41.195419 -0.000010 7.588196
v 42.465424 -0.000010 10.128189
v 42.465424 -0.000010 7.588196
v 18.335413 -0.000010 -5.111809
v 18.335413 -0.000010 -2.569122
v 15.795412 -0.000010 -2.571808
v 18.335413 -0.000010 -0.031815
v 15.795412 -0.000010 -0.031815
v 18.335413 -0.000010 -12.731804
v 15.795412 -0.000010 -12.731804
v 15.795412 -0.000010 -15.271805
v 13.255411 -0.000010 -12.731804
v 13.255411 -0.000010 -15.271805
v -5.794584 -0.000010 -12.731804
v -4.524584 -0.000010 -15.271805
v -4.524584 -0.000010 -12.731804
v -1.984585 -0.000010 -15.271805
v -1.984585 -0.000010 -12.731804
v 38.655418 -0.000010 -12.731804
v 41.195419 -0.000010 -15.271805
v 41.195419 -0.000010 -12.731804
v 42.465424 -0.000010 -15.271805
v 42.465424 -0.000010 -12.731804
v 64.055420 2.539990 -12.731804
v 66.595421 2.539990 -15.271805
v 66.595421 2.539990 -12.731804
v 67.865417 2.539990 -15.271805
v 67.865417 2.539990 -12.731804
v 15.795412 -0.000010 7.588196
v 13.255411 -0.000010 7.588196
v 15.795412 -0.000010 5.048195
v 13.255411 -0.000010 5.048195
v 15.795412 -0.000010 2.508194
v 13.255411 -0.000010 10.128189
v 13.255411 -0.000010 7.588196
v 15.795412 -0.000010 10.128189
v 15.795412 -0.000010 7.588196
v 18.335413 -0.000010 7.588196
v 13.255411 -0.000010 -2.569122
v 13.255411 -0.000010 -5.111809
v 15.795412 -0.000010 -5.111809
v 15.795412 -0.000010 -7.651806
v 15.795412 -0.000010 -5.111809
v 15.795412 -0.000010 -7.651806
v 18.335413 -0.000010 -5.111809
v 18.335413 -0.000010 -7.651806
v 15.795412 -0.000010 -10.191807
v 18.335413 -0.000010 -10.191807
v 15.795412 -0.000010 -7.651806
v 18.335413 -0.000010 -7.651806
v 18.335413 -0.000010 -10.191807
v 15.795412 -0.000010 -10.191807
v 18.335413 -0.000010 -12.731804
v 15.795412 -0.000010 -12.731804
v 15.795412 -0.000010 -0.031815
v 18.335413 -0.000010 -0.031815
v 15.795412 -0.000010 2.508194
v 18.335413 -0.000010 2.508194
v 15.795412 -0.000010 5.048195
v 15.795412 -0.000010 2.508194
v 18.335413 -0.000010 5.048195
v 18.335413 -0.000010 2.508194
v 18.335413 -0.000010 5.048195
v 18.335413 -0.000010 7.588196
v 15.795412 -0.000010 5.048195
v 15.795412 -0.000010 7.588196
v 36.115417 -0.000010 7.588196
v 38.655418 -0.000010 7.588196
v 36.115417 -0.000010 10.128189
v 38.655418 -0.000010 10.128189
v 15.795412 -0.000010 -5.111809
v 18.335413 -0.000010 -5.111809
v 15.795412 -0.000010 -2.571808
v 13.255411 -0.000010 -15.271805
v 13.255411 -0.000010 -12.731804
v 10.715414 -0.000010 -12.731804
v 36.115417 -0.000010 -15.271805
v 38.655418 -0.000010 -15.271805
v 38.655418 -0.000010 -12.731804
v -4.524584 -0.000010 -15.271805
v -5.794584 -0.000010 -12.731804
v -5.794584 -0.000010 -15.271805
v 41.195419 -0.000010 -15.271805
v 38.655418 -0.000010 -12.731804
v 38.655418 -0.000010 -15.271805
v 53.895416 2.539990 -15.271805
v 51.355423 2.539990 -12.731804
v 51.355423 2.539990 -15.271805
v 51.355423 2.539990 -20.351807
v 48.815422 2.539990 -17.811806
v 48.815422 2.539990 -20.351807
v 51.355423 2.539990 -22.891804
v 48.815422 2.539990 -20.351807
v 48.815422 2.539990 -22.891804
v 66.595421 2.539990 -15.271805
v 64.055420 2.539990 -12.731804
v 64.055420 2.539990 -15.271805
v 51.355423 2.539990 -25.431805
v 48.815422 2.539990 -22.891804
v 48.815422 2.539990 -25.431805
v 51.355423 2.539990 -26.701805
v 48.815422 2.539990 -25.431805
v 48.815422 2.539990 -26.701805
vt 2.001953 0.000000
vt 2.501953 -0.499023
vt 2.501953 0.000000
vt 3.000977 0.000000
vt 3.000977 -0.499023
vt 3.500977 0.000000
vt 3.500977 -0.499023
vt 4.000000 0.000000
vt 4.000000 -0.499023
vt 4.499023 0.000000
vt 4.499023 -0.499023
vt 4.999023 0.000000
vt 4.999023 -0.499023
vt 5.498047 0.000000
vt 5.498047 -0.499023
vt 5.998047 0.000000
vt 5.998047 -0.499023
vt 6.497070 -0.499023
vt 5.998047 -0.499023
vt 5.498047 -0.499023
vt 5.998047 0.000000
vt 5.498047 0.000000
vt 4.999023 -0.499023
vt 4.999023 0.000000
vt 4.499023 -0.499023
vt 4.499023 0.000000
vt 4.000000 -0.499023
vt 4.000000 0.000000
vt 3.500977 -0.499023
vt 3.500977 0.000000
vt 3.000977 -0.499023
vt 3.000977 0.000000
vt 2.501953 -0.499023
vt 2.501953 0.000000
vt 2.001953 0.000000
vt -0.495117 1.498047
vt 0.003906 1.498047
vt -0.495117 0.999023
vt 0.003906 0.999023
vt 0.503906 1.498047
vt 0.503906 0.999023
vt 1.002930 1.498047
vt 1.002930 0.999023
vt 1.502930 1.498047
vt 1.502930 0.999023
vt 2.001953 1.498047
vt 2.001953 0.999023
vt 2.501953 1.498047
vt 2.501953 0.999023
vt -4.991211 -1.498047
vt -3.992188 -1.498047
vt -4.991211 -2.497070
vt -3.992188 -2.497070
vt -2.993164 -1.498047
vt -2.993164 -2.497070
vt -1.994141 -1.498047
vt -1.994141 -2.497070
vt -0.995117 -1.498047
vt -0.995117 -2.497070
vt 0.003906 -1.498047
vt 0.003906 -2.497070
vt 1.002930 -1.498047
vt 1.002930 -2.497070
vt -4.991211 -0.499023
vt -3.992188 -0.499023
vt -4.991211 -1.498047
vt -3.992188 -1.498047
vt -2.993164 -0.499023
vt -2.993164 -1.498047
vt -1.994141 -0.499023
vt -1.994141 -1.498047
vt -0.995117 -0.499023
vt -0.995117 -1.498047
vt 0.003906 -0.499023
vt 0.003906 -1.498047
vt 1.002930 -0.499023
vt 1.002930 -1.498047
vt -4.991211 -1.498047
vt -3.992188 -1.498047
vt -4.991211 -2.497070
vt -3.992188 -2.497070
vt -2.993164 -1.498047
vt -2.993164 -2.497070
vt -1.994141 -1.498047
vt -1.994141 -2.497070
vt -0.995117 -1.498047
vt -0.995117 -2.497070
vt 0.003906 -1.498047
vt 0.003906 -2.497070
vt 1.002930 -1.498047
vt 1.002930 -2.497070
vt -4.991211 -0.999023
vt -3.992188 -0.999023
vt -4.991211 -1.498047
vt -3.992188 -1.498047
vt -2.993164 -0.999023
vt -2.993164 -1.498047
vt -1.994141 -0.999023
vt -1.994141 -1.498047
vt -0.995117 -0.999023
vt -0.995117 -1.498047
vt 0.003906 -0.999023
vt 0.003906 -1.498047
vt 1.002930 -0.999023
vt 1.002930 -1.498047
vt 3.000977 0.999023
vt 2.501953 0.999023
vt 3.000977 1.498047
vt 2.501953 1.498047
vt 2.001953 0.999023
vt 2.001953 1.498047
vt 1.502930 0.999023
vt 1.502930 1.498047
vt 1.002930 0.999023
vt 1.002930 1.498047
vt 0.503906 0.999023
vt 0.503906 1.498047
vt 0.003906 0.999023
vt 0.003906 1.498047
vt 3.000977 1.498047
vt 2.501953 1.498047
vt 2.501953 0.999023
vt 2.001953 0.999023
vt 2.001953 1.498047
vt 1.502930 0.999023
vt 1.502930 1.498047
vt 1.002930 0.999023
vt 1.002930 1.498047
vt 0.503906 0.999023
vt 0.503906 1.498047
vt 0.003906 0.999023
vt 0.003906 1.498047
vt -0.495117 1.498047
vt -0.495117 0.999023
vt 0.003906 1.498047
vt 0.003906 0.999023
vt -0.495117 0.499023
vt 0.003906 0.499023
vt -0.495117 0.000000
vt 0.003906 0.000000
vt -0.495117 -0.499023
vt 0.003906 -0.499023
vt -0.495117 -0.999023
vt 0.003906 -0.999023
vt 0.003906 -0.499023
vt -4.991211 -2.497070
vt -3.992188 -2.497070
vt -3.992188 -1.498047
vt -2.993164 -1.498047
vt -2.993164 -2.497070
vt -1.994141 -1.498047
vt -1.994141 -2.497070
vt -0.995117 -1.498047
vt -0.995117 -2.497070
vt 0.003906 -1.498047
vt 0.003906 -2.497070
vt 1.002930 -1.498047
vt 1.002930 -2.497070
vt -4.991211 -1.498047
vt -3.992188 -1.498047
vt -3.992188 -0.499023
vt -2.993164 -0.499023
vt -2.993164 -1.498047
vt -1.994141 -0.499023
vt -1.994141 -1.498047
vt -0.995117 -0.499023
vt -0.995117 -1.498047
vt 0.003906 -0.499023
vt 0.003906 -1.498047
vt 1.002930 -0.499023
vt 1.002930 -1.498047
vt -4.991211 -2.497070
vt -3.992188 -2.497070
vt -3.992188 -1.498047
vt -2.993164 -1.498047
vt -2.993164 -2.497070
vt -1.994141 -1.498047
vt -1.994141 -2.497070
vt -0.995117 -1.498047
vt -0.995117 -2.497070
vt 0.003906 -1.498047
vt 0.003906 -2.497070
vt 1.002930 -1.498047
vt 1.002930 -2.497070
vt -4.991211 -1.498047
vt -3.992188 -1.498047
vt -3.992188 -0.999023
vt -2.993164 -0.999023
vt -2.993164 -1.498047
vt -1.994141 -0.999023
vt -1.994141 -1.498047
vt -0.995117 -0.999023
vt -0.995117 -1.498047
vt 0.003906 -0.999023
vt 0.003906 -1.498047
vt 1.002930 -0.999023
vt 1.002930 -1.498047
vt 0.003906 0.999023
vt 0.503906 0.999023
vt 0.503906 1.498047
vt 1.002930 1.498047
vt 1.002930 0.999023
vt 1.502930 1.498047
vt 1.502930 0.999023
vt 2.001953 1.498047
vt 2.001953 0.999023
vt 2.501953 1.498047
vt 2.501953 0.999023
vt -0.495117 -0.999023
vt -0.495117 -0.499023
vt 0.003906 -0.499023
vt 0.003906 0.000000
vt -0.495117 0.000000
vt 0.003906 0.499023
vt -0.495117 0.499023
vt 0.003906 0.999023
vt -0.495117 0.999023
vt 3.500977 -0.499023
vt 3.000977 -0.999023
vt 3.500977 -0.999023
vt 3.500977 -0.499023
vt 3.000977 -0.499023
vt 3.500977 0.000000
vt 3.000977 0.000000
vt 3.000977 0.499023
vt 3.000977 -0.499023
vt 3.500977 0.000000
vt 3.000977 0.000000
vt 3.000977 0.499023
vt 3.500977 0.499023
vt 3.000977 0.999023
vt 3.500977 0.999023
vt 0.003906 -2.497070
vt 0.003906 -1.498047
vt -0.995117 -2.497070
vt -0.995117 -1.498047
vt 0.003906 -0.499023
vt -0.995117 -0.499023
vt 0.503906 -2.497070
vt 0.503906 -1.498047
vt 0.003906 -2.497070
vt 0.003906 -1.498047
vt 0.503906 -0.499023
vt 0.003906 -0.499023
vt 0.003906 -2.497070
vt 0.003906 -1.498047
vt -0.995117 -2.497070
vt -0.995117 -1.498047
vt 0.003906 -0.999023
vt -0.995117 -0.999023
vt 0.503906 -2.497070
vt 0.503906 -1.498047
vt 0.003906 -2.497070
vt 0.003906 -1.498047
vt 0.503906 -0.999023
vt 0.003906 -0.999023
vt 1.502930 1.498047
vt 2.001953 1.498047
vt 1.502930 0.999023
vt 2.001953 0.999023
vt 2.501953 1.498047
vt 2.501953 0.999023
vt -0.995117 -1.498047
vt 0.003906 -1.498047
vt -0.995117 -2.497070
vt 0.003906 -2.497070
vt 0.503906 -1.498047
vt 0.503906 -2.497070
vt -0.995117 -0.499023
vt 0.003906 -0.499023
vt -0.995117 -1.498047
vt 0.003906 -1.498047
vt 0.503906 -0.499023
vt 0.503906 -1.498047
vt -0.995117 -1.498047
vt 0.003906 -1.498047
vt -0.995117 -2.497070
vt 0.003906 -2.497070
vt 0.503906 -1.498047
vt 0.503906 -2.497070
vt -0.995117 -0.999023
vt 0.003906 -0.999023
vt -0.995117 -1.498047
vt 0.003906 -1.498047
vt 0.503906 -0.999023
vt 0.503906 -1.498047
vt 0.219727 1.498047
vt 0.503906 1.498047
vt 0.219727 0.999023
vt 0.503906 0.999023
vt 1.002930 1.498047
vt 1.002930 0.999023
vt 0.003906 1.498047
vt 0.503906 1.498047
vt 0.003906 0.999023
vt 0.503906 0.999023
vt 0.752930 1.498047
vt 0.752930 0.999023
vt 3.500977 -0.999023
vt 3.000977 -0.499023
vt 3.000977 -0.999023
vt 3.500977 -0.999023
vt 3.500977 -0.499023
vt 2.501953 -0.499023
vt 2.001953 0.000000
vt 2.001953 -0.499023
vt 1.502930 -0.499023
vt 1.502930 0.000000
vt 0.219727 0.999023
vt 0.503906 0.999023
vt 0.503906 1.498047
vt 1.002930 1.498047
vt 1.002930 0.999023
vt 0.003906 0.999023
vt 0.503906 0.999023
vt 0.503906 1.498047
vt 0.752930 1.498047
vt 0.752930 0.999023
vt 1.502930 0.999023
vt 2.001953 0.999023
vt 2.001953 1.498047
vt 2.501953 1.498047
vt 2.501953 0.999023
vt 3.500977 0.999023
vt 3.500977 0.499023
vt 3.000977 0.999023
vt 3.000977 0.499023
vt 3.500977 0.000000
vt 1.502930 0.000000
vt 2.001953 0.000000
vt 1.502930 -0.499023
vt 2.001953 -0.499023
vt 2.501953 -0.499023
vt 3.000977 -0.999023
vt 3.500977 -0.499023
vt 3.000977 -0.499023
vt 3.500977 0.000000
vt 3.000977 0.000000
vt 3.000977 -0.499023
vt 3.500977 0.000000
vt 3.500977 -0.499023
vt 3.500977 0.499023
vt 3.000977 0.499023
vt 3.500977 0.000000
vt 3.000977 0.000000
vt 3.000977 0.499023
vt 3.500977 0.499023
vt 3.000977 0.999023
vt 3.500977 0.999023
vt 3.000977 0.000000
vt 3.500977 0.000000
vt 3.000977 -0.499023
vt 3.500977 -0.499023
vt 3.500977 0.499023
vt 3.500977 0.000000
vt 3.000977 0.499023
vt 3.000977 0.000000
vt 3.000977 0.499023
vt 3.000977 0.999023
vt 3.500977 0.499023
vt 3.500977 0.999023
vt 5.998047 -0.499023
vt 5.998047 0.000000
vt 6.497070 -0.499023
vt 6.497070 0.000000
vt 3.500977 -0.499023
vt 3.000977 -0.499023
vt 3.500977 -0.999023
vt 3.000977 1.498047
vt 2.501953 0.999023
vt 3.000977 0.999023
vt 5.998047 0.000000
vt 6.497070 -0.499023
vt 6.497070 0.000000
vt 0.503906 1.498047
vt 0.219727 1.498047
vt 0.219727 0.999023
vt 0.503906 1.498047
vt 0.003906 1.498047
vt 0.003906 0.999023
vt 0.503906 1.498047
vt 0.003906 1.498047
vt 0.003906 0.999023
vt -3.992188 -1.498047
vt -4.991211 -1.498047
vt -4.991211 -2.497070
vt -3.992188 -0.499023
vt -4.991211 -0.499023
vt -4.991211 -1.498047
vt 2.001953 1.498047
vt 1.502930 1.498047
vt 1.502930 0.999023
vt -3.992188 -1.498047
vt -4.991211 -1.498047
vt -4.991211 -2.497070
vt -3.992188 -0.999023
vt -4.991211 -0.999023
vt -4.991211 -1.498047
vn 0.0000 1.0000 0.0000
usemtl Tex_0007_1.dds
s off
f 1/1/1 3/2/1 2/3/1
f 2/3/1 3/2/1 4/4/1
f 3/2/1 5/5/1 4/4/1
f 4/4/1 5/5/1 6/6/1
f 5/5/1 7/7/1 6/6/1
f 6/6/1 7/7/1 8/8/1
f 7/7/1 9/9/1 8/8/1
f 8/8/1 9/9/1 10/10/1
f 9/9/1 11/11/1 10/10/1
f 10/10/1 11/11/1 12/12/1
f 11/11/1 13/13/1 12/12/1
f 12/12/1 13/13/1 14/14/1
f 13/13/1 15/15/1 14/14/1
f 14/14/1 15/15/1 16/16/1
f 15/15/1 17/17/1 16/16/1
f 16/16/1 17/17/1 18/18/1
f 19/19/1 21/20/1 20/21/1
f 20/21/1 21/20/1 22/22/1
f 21/20/1 23/23/1 22/22/1
f 22/22/1 23/23/1 24/24/1
f 23/23/1 25/25/1 24/24/1
f 24/24/1 25/25/1 26/26/1
f 25/25/1 27/27/1 26/26/1
f 26/26/1 27/27/1 28/28/1
f 27/27/1 29/29/1 28/28/1
f 28/28/1 29/29/1 30/30/1
f 29/29/1 31/31/1 30/30/1
f 30/30/1 31/31/1 32/32/1
f 31/31/1 33/33/1 32/32/1
f 32/32/1 33/33/1 34/34/1
f 33/33/1 35/35/1 34/34/1
f 36/36/1 38/37/1 37/38/1
f 37/38/1 38/37/1 39/39/1
f 38/37/1 40/40/1 39/39/1
f 39/39/1 40/40/1 41/41/1
f 40/40/1 42/42/1 41/41/1
f 41/41/1 42/42/1 43/43/1
f 42/42/1 44/44/1 43/43/1
f 43/43/1 44/44/1 45/45/1
f 44/44/1 46/46/1 45/45/1
f 45/45/1 46/46/1 47/47/1
f 46/46/1 48/48/1 47/47/1
f 47/47/1 48/48/1 49/49/1
f 50/50/1 52/51/1 51/52/1
f 51/52/1 52/51/1 53/53/1
f 52/51/1 54/54/1 53/53/1
f 53/53/1 54/54/1 55/55/1
f 54/54/1 56/56/1 55/55/1
f 55/55/1 56/56/1 57/57/1
f 56/56/1 58/58/1 57/57/1
f 57/57/1 58/58/1 59/59/1
f 58/58/1 60/60/1 59/59/1
f 59/59/1 60/60/1 61/61/1
f 60/60/1 62/62/1 61/61/1
f 61/61/1 62/62/1 63/63/1
f 64/64/1 66/65/1 65/66/1
f 65/66/1 66/65/1 67/67/1
f 66/65/1 68/68/1 67/67/1
f 67/67/1 68/68/1 69/69/1
f 68/68/1 70/70/1 69/69/1
f 69/69/1 70/70/1 71/71/1
f 70/70/1 72/72/1 71/71/1
f 71/71/1 72/72/1 73/73/1
f 72/72/1 74/74/1 73/73/1
f 73/73/1 74/74/1 75/75/1
f 74/74/1 76/76/1 75/75/1
f 75/75/1 76/76/1 77/77/1
f 78/78/1 80/79/1 79/80/1
f 79/80/1 80/79/1 81/81/1
f 80/79/1 82/82/1 81/81/1
f 81/81/1 82/82/1 83/83/1
f 82/82/1 84/84/1 83/83/1
f 83/83/1 84/84/1 85/85/1
f 84/84/1 86/86/1 85/85/1
f 85/85/1 86/86/1 87/87/1
f 86/86/1 88/88/1 87/87/1
f 87/87/1 88/88/1 89/89/1
f 88/88/1 90/90/1 89/89/1
f 89/89/1 90/90/1 91/91/1
f 92/92/1 94/93/1 93/94/1
f 93/94/1 94/93/1 95/95/1
f 94/93/1 96/96/1 95/95/1
f 95/95/1 96/96/1 97/97/1
f 96/96/1 98/98/1 97/97/1
f 97/97/1 98/98/1 99/99/1
f 98/98/1 100/100/1 99/99/1
f 99/99/1 100/100/1 101/101/1
f 100/100/1 102/102/1 101/101/1
f 101/101/1 102/102/1 103/103/1
f 102/102/1 104/104/1 103/103/1
f 103/103/1 104/104/1 105/105/1
f 106/106/1 108/107/1 107/108/1
f 107/108/1 108/107/1 109/109/1
f 108/107/1 110/110/1 109/109/1
f 109/109/1 110/110/1 111/111/1
f 110/110/1 112/112/1 111/111/1
f 111/111/1 112/112/1 113/113/1
f 112/112/1 114/114/1 113/113/1
f 113/113/1 114/114/1 115/115/1
f 114/114/1 116/116/1 115/115/1
f 115/115/1 116/116/1 117/117/1
f 116/116/1 118/118/1 117/117/1
f 117/117/1 118/118/1 119/119/1
f 120/120/1 122/121/1 121/122/1
f 121/122/1 122/121/1 123/123/1
f 122/121/1 124/124/1 123/123/1
f 123/123/1 124/124/1 125/125/1
f 124/124/1 126/126/1 125/125/1
f 125/125/1 126/126/1 127/127/1
f 126/126/1 128/128/1 127/127/1
f 127/127/1 128/128/1 129/129/1
f 128/128/1 130/130/1 129/129/1
f 129/129/1 130/130/1 131/131/1
f 130/130/1 132/132/1 131/131/1
f 133/133/1 135/134/1 134/135/1
f 134/135/1 135/134/1 136/136/1
f 135/134/1 137/137/1 136/136/1
f 136/136/1 137/137/1 138/138/1
f 137/137/1 139/139/1 138/138/1
f 138/138/1 139/139/1 140/140/1
f 139/139/1 141/141/1 140/140/1
f 140/140/1 141/141/1 142/142/1
f 141/141/1 143/143/1 142/142/1
f 142/142/1 143/143/1 144/144/1
f 143/143/1 145/145/1 144/144/1
f 146/146/1 148/147/1 147/148/1
f 147/148/1 148/147/1 149/149/1
f 148/147/1 150/150/1 149/149/1
f 149/149/1 150/150/1 151/151/1
f 150/150/1 152/152/1 151/151/1
f 151/151/1 152/152/1 153/153/1
f 152/152/1 154/154/1 153/153/1
f 153/153/1 154/154/1 155/155/1
f 154/154/1 156/156/1 155/155/1
f 155/155/1 156/156/1 157/157/1
f 156/156/1 158/158/1 157/157/1
f 159/159/1 161/160/1 160/161/1
f 160/161/1 161/160/1 162/162/1
f 161/160/1 163/163/1 162/162/1
f 162/162/1 163/163/1 164/164/1
f 163/163/1 165/165/1 164/164/1
f 164/164/1 165/165/1 166/166/1
f 165/165/1 167/167/1 166/166/1
f 166/166/1 167/167/1 168/168/1
f 167/167/1 169/169/1 168/168/1
f 168/168/1 169/169/1 170/170/1
f 169/169/1 171/171/1 170/170/1
f 172/172/1 174/173/1 173/174/1
f 173/174/1 174/173/1 175/175/1
f 174/173/1 176/176/1 175/175/1
f 175/175/1 176/176/1 177/177/1
f 176/176/1 178/178/1 177/177/1
f 177/177/1 178/178/1 179/179/1
f 178/178/1 180/180/1 179/179/1
f 179/179/1 180/180/1 181/181/1
f 180/180/1 182/182/1 181/181/1
f 181/181/1 182/182/1 183/183/1
f 182/182/1 184/184/1 183/183/1
f 185/185/1 187/186/1 186/187/1
f 186/187/1 187/186/1 188/188/1
f 187/186/1 189/189/1 188/188/1
f 188/188/1 189/189/1 190/190/1
f 189/189/1 191/191/1 190/190/1
f 190/190/1 191/191/1 192/192/1
f 191/191/1 193/193/1 192/192/1
f 192/192/1 193/193/1 194/194/1
f 193/193/1 195/195/1 194/194/1
f 194/194/1 195/195/1 196/196/1
f 195/195/1 197/197/1 196/196/1
f 198/198/1 200/199/1 199/200/1
f 199/200/1 200/199/1 201/201/1
f 200/199/1 202/202/1 201/201/1
f 201/201/1 202/202/1 203/203/1
f 202/202/1 204/204/1 203/203/1
f 203/203/1 204/204/1 205/205/1
f 204/204/1 206/206/1 205/205/1
f 205/205/1 206/206/1 207/207/1
f 206/206/1 208/208/1 207/207/1
f 209/209/1 211/210/1 210/211/1
f 210/211/1 211/210/1 212/212/1
f 211/210/1 213/213/1 212/212/1
f 212/212/1 213/213/1 214/214/1
f 213/213/1 215/215/1 214/214/1
f 214/214/1 215/215/1 216/216/1
f 215/215/1 217/217/1 216/216/1
f 218/218/1 220/219/1 219/220/1
f 219/220/1 220/219/1 221/221/1
f 220/219/1 222/222/1 221/221/1
f 221/221/1 222/222/1 223/223/1
f 222/222/1 224/224/1 223/223/1
f 223/223/1 224/224/1 225/225/1
f 226/226/1 228/227/1 227/228/1
f 227/228/1 228/227/1 229/229/1
f 228/227/1 230/230/1 229/229/1
f 229/229/1 230/230/1 231/231/1
f 230/230/1 232/232/1 231/231/1
f 233/233/1 235/234/1 234/235/1
f 234/235/1 235/234/1 236/236/1
f 235/234/1 237/237/1 236/236/1
f 236/236/1 237/237/1 238/238/1
f 239/239/1 241/240/1 240/241/1
f 240/241/1 241/240/1 242/242/1
f 241/240/1 243/243/1 242/242/1
f 242/242/1 243/243/1 244/244/1
f 245/245/1 247/246/1 246/247/1
f 246/247/1 247/246/1 248/248/1
f 247/246/1 249/249/1 248/248/1
f 248/248/1 249/249/1 250/250/1
f 251/251/1 253/252/1 252/253/1
f 252/253/1 253/252/1 254/254/1
f 253/252/1 255/255/1 254/254/1
f 254/254/1 255/255/1 256/256/1
f 257/257/1 259/258/1 258/259/1
f 258/259/1 259/258/1 260/260/1
f 259/258/1 261/261/1 260/260/1
f 260/260/1 261/261/1 262/262/1
f 263/263/1 265/264/1 264/265/1
f 264/265/1 265/264/1 266/266/1
f 265/264/1 267/267/1 266/266/1
f 266/266/1 267/267/1 268/268/1
f 269/269/1 271/270/1 270/271/1
f 270/271/1 271/270/1 272/272/1
f 271/270/1 273/273/1 272/272/1
f 272/272/1 273/273/1 274/274/1
f 275/275/1 277/276/1 276/277/1
f 276/277/1 277/276/1 278/278/1
f 277/276/1 279/279/1 278/278/1
f 278/278/1 279/279/1 280/280/1
f 281/281/1 283/282/1 282/283/1
f 282/283/1 283/282/1 284/284/1
f 283/282/1 285/285/1 284/284/1
f 284/284/1 285/285/1 286/286/1
f 287/287/1 289/288/1 288/289/1
f 288/289/1 289/288/1 290/290/1
f 289/288/1 291/291/1 290/290/1
f 290/290/1 291/291/1 292/292/1
f 293/293/1 295/294/1 294/295/1
f 294/295/1 295/294/1 296/296/1
f 295/294/1 297/297/1 296/296/1
f 296/296/1 297/297/1 298/298/1
f 299/299/1 301/300/1 300/301/1
f 300/301/1 301/300/1 302/302/1
f 301/300/1 303/303/1 302/302/1
f 304/304/1 306/305/1 305/306/1
f 305/306/1 306/305/1 307/307/1
f 306/305/1 308/308/1 307/307/1
f 309/309/1 311/310/1 310/311/1
f 310/311/1 311/310/1 312/312/1
f 311/310/1 313/313/1 312/312/1
f 314/314/1 316/315/1 315/316/1
f 315/316/1 316/315/1 317/317/1
f 316/315/1 318/318/1 317/317/1
f 319/319/1 321/320/1 320/321/1
f 320/321/1 321/320/1 322/322/1
f 321/320/1 323/323/1 322/322/1
f 324/324/1 326/325/1 325/326/1
f 325/326/1 326/325/1 327/327/1
f 326/325/1 328/328/1 327/327/1
f 329/329/1 331/330/1 330/331/1
f 330/331/1 331/330/1 332/332/1
f 331/330/1 333/333/1 332/332/1
f 334/334/1 336/335/1 335/336/1
f 335/336/1 336/335/1 337/337/1
f 338/338/1 340/339/1 339/340/1
f 339/340/1 340/339/1 341/341/1
f 342/342/1 344/343/1 343/344/1
f 343/344/1 344/343/1 345/345/1
f 346/346/1 348/347/1 347/348/1
f 347/348/1 348/347/1 349/349/1
f 350/350/1 352/351/1 351/352/1
f 351/352/1 352/351/1 353/353/1
f 354/354/1 356/355/1 355/356/1
f 355/356/1 356/355/1 357/357/1
f 358/358/1 360/359/1 359/360/1
f 359/360/1 360/359/1 361/361/1
f 362/362/1 364/363/1 363/364/1
f 363/364/1 364/363/1 365/365/1
f 366/366/1 368/367/1 367/368/1
f 369/369/1 371/370/1 370/371/1
f 372/372/1 374/373/1 373/374/1
f 375/375/1 377/376/1 376/377/1
f 378/378/1 380/379/1 379/380/1
f 381/381/1 383/382/1 382/383/1
f 384/384/1 386/385/1 385/386/1
f 387/387/1 389/388/1 388/389/1
f 390/390/1 392/391/1 391/392/1
f 393/393/1 395/394/1 394/395/1
f 396/396/1 398/397/1 397/398/1
