# Blender v3.6.3 OBJ File: 'untitled.blend'
# www.blender.org
mtllib Mesh_0329.mtl
o Mesh_0329_Mesh.205
v -19.555664 24.891994 -48.080429
v -19.555689 23.367994 -48.080456
v -19.507774 24.891994 -43.209942
v -19.507595 23.367994 -43.209942
v -19.507694 23.367994 -38.131805
v -19.422485 22.859995 -47.947250
v -19.764584 22.859995 -48.290623
v -19.379494 22.859995 -43.209942
v -19.764584 22.859995 -43.209942
v -19.764584 22.859995 -38.131805
v -19.507736 24.891994 -33.053665
v -19.507721 24.891994 -38.131805
v -19.507633 23.367994 -33.053665
v -19.507694 23.367994 -38.131805
v -19.379473 22.859995 -33.053665
v -19.379446 22.859995 -38.131805
v -19.764584 22.859995 -33.053665
v -19.764584 22.859995 -38.131805
v -19.507736 24.891994 -33.053665
v -19.507633 23.367994 -33.053665
v -19.507790 24.891993 -27.971806
v -19.507774 23.367992 -27.971806
v -19.764584 22.859995 -33.053665
v -19.763773 22.859993 -27.972607
v -19.379473 22.859995 -33.053665
v -19.385902 22.859993 -27.971806
v -19.507774 24.891994 -43.209942
v -19.507694 23.367994 -38.131805
v -19.507721 24.891994 -38.131805
v -19.379494 22.859995 -43.209942
v -19.764584 22.859995 -38.131805
v -19.379446 22.859995 -38.131805
vt -0.000977 -0.155273
vt 1.997070 -0.155273
vt -0.000977 -0.942383
vt 1.997070 -0.942383
vt -0.000977 -0.942383
vt 0.030273 -1.087891
vt 1.029297 -1.085938
vt 0.030273 -1.137695
vt 1.029297 -1.135742
vt 0.030273 -1.137695
vt -0.000977 -0.155273
vt -0.000977 -0.942383
vt 1.997070 -0.155273
vt 1.997070 -0.942383
vt 0.030273 -1.087891
vt 0.030273 -1.137695
vt 1.029297 -1.085938
vt 1.029297 -1.135742
vt 1.997070 -0.155273
vt 0.094727 -0.155273
vt 1.997070 -0.942383
vt 0.094727 -0.942383
vt 1.029297 -1.135742
vt 1.029297 -1.085938
vt 0.030273 -1.136719
vt 0.099609 -1.087891
vt 1.997070 -0.155273
vt -0.000977 -0.155273
vt -0.000977 -0.942383
vt 1.029297 -1.085938
vt 0.030273 -1.087891
vt 0.030273 -1.137695
vn 1.0000 -0.0000 -0.0098
vn 1.0000 0.0023 -0.0022
vn 1.0000 0.0001 -0.0099
vn 0.9999 -0.0048 -0.0099
vn 1.0000 0.0019 0.0006
vn 1.0000 0.0001 0.0000
vn 1.0000 -0.0048 0.0000
vn 0.0000 -1.0000 -0.0000
vn 1.0000 0.0000 -0.0000
usemtl Tex_0052_0.dds.018
s off
f 1/1/1 3/2/2 2/3/1
f 2/3/3 3/2/3 4/4/4
f 3/2/5 5/5/6 4/4/7
f 6/6/8 8/7/8 7/8/8
f 7/8/8 8/7/8 9/9/8
f 8/7/8 10/10/8 9/9/8
f 11/11/6 13/12/6 12/13/6
f 12/13/9 13/12/9 14/14/9
f 15/15/8 17/16/8 16/17/8
f 16/17/8 17/16/8 18/18/8
f 19/19/6 21/20/6 20/21/6
f 20/21/9 21/20/9 22/22/9
f 23/23/8 25/24/8 24/25/8
f 24/25/8 25/24/8 26/26/8
f 27/27/9 29/28/9 28/29/9
f 30/30/8 32/31/8 31/32/8
