# Blender v3.6.3 OBJ File: 'untitled.blend'
# www.blender.org
mtllib Mesh_0183.mtl
o Mesh_0183_Mesh.033
v -22.304649 22.859987 -14.783363
v -21.895203 22.859987 -15.027584
v -22.304649 22.297197 -14.982349
v -22.083925 22.297224 -15.195606
v -22.083925 22.297224 -15.271805
v -22.083925 22.297224 -15.195606
v -21.895203 22.859987 -15.271805
v -21.895203 22.859987 -15.027584
v -22.304649 22.859987 9.639748
v -22.304649 22.297146 9.838737
v -21.895203 22.859987 9.883972
v -22.083925 22.297224 10.051994
v -22.083925 22.297224 10.128189
v -21.895203 22.859987 10.128189
v -22.083925 22.297224 10.051994
v -21.895203 22.859987 9.883972
v -22.304649 22.859989 5.536636
v -21.895203 22.859989 5.292412
v -22.304649 22.297226 5.337646
v -22.083925 22.297226 5.124390
v -22.083925 22.297226 4.971992
v -22.083925 22.297226 5.124390
v -21.895203 22.859989 4.803970
v -21.895203 22.859989 5.292412
v -22.304649 22.859989 4.559753
v -22.304649 22.297148 4.758736
v -21.895203 22.859989 4.803970
v -22.083925 22.297226 4.971992
v -22.304649 22.859989 0.456635
v -21.895203 22.859989 0.212418
v -22.304649 22.297226 0.257652
v -22.083925 22.297226 0.044395
v -22.083925 22.297226 -0.108009
v -22.083925 22.297226 0.044395
v -21.895203 22.859989 -0.276024
v -21.895203 22.859989 0.212418
v -22.304649 22.859989 -0.520248
v -22.304649 22.297148 -0.321266
v -21.895203 22.859989 -0.276024
v -22.083925 22.297226 -0.108009
v -22.304649 22.859989 -4.623360
v -21.895203 22.859989 -4.867584
v -22.304649 22.297226 -4.822342
v -22.083925 22.297226 -5.035599
v -22.083925 22.297226 -5.188004
v -22.083925 22.297226 -5.035599
v -21.895203 22.859989 -5.356026
v -21.895203 22.859989 -4.867584
v -22.304649 22.859989 -5.600243
v -22.304649 22.297148 -5.401260
v -21.895203 22.859989 -5.356026
v -22.083925 22.297226 -5.188004
v -22.304649 22.859989 -9.703365
v -21.895203 22.859989 -9.947586
v -22.304649 22.297226 -9.902348
v -22.083925 22.297226 -10.115604
v -22.083925 22.297226 -10.268005
v -22.083925 22.297226 -10.115604
v -21.895203 22.859989 -10.436028
v -21.895203 22.859989 -9.947586
v -22.304649 22.859989 -10.680248
v -22.304649 22.297148 -10.481262
v -21.895203 22.859989 -10.436028
v -22.083925 22.297226 -10.268005
vt 0.000000 -0.007812
vt 0.000000 -1.006836
vt 0.504883 -0.007812
vt 0.567383 -1.006836
vt 1.748047 -1.006836
vt 1.748047 -0.007812
vt 1.826172 -1.006836
vt 1.997070 -0.007812
vt 0.000000 -0.007812
vt 0.504883 -0.007812
vt 0.000000 -1.006836
vt 0.567383 -1.006836
vt 1.748047 -1.006836
vt 1.826172 -1.006836
vt 1.748047 -0.007812
vt 1.997070 -0.007812
vt 0.000000 -0.007812
vt 0.000000 -1.006836
vt 0.504883 -0.007812
vt 0.567383 -1.006836
vt 1.826172 -1.006836
vt 1.997070 -0.007812
vt 1.669922 -1.006836
vt 1.499023 -0.007812
vt 0.000000 -0.007812
vt 0.504883 -0.007812
vt 0.000000 -1.006836
vt 0.567383 -1.006836
vt 0.000000 -0.007812
vt 0.000000 -1.006836
vt 0.504883 -0.007812
vt 0.567383 -1.006836
vt 1.826172 -1.006836
vt 1.997070 -0.007812
vt 1.669922 -1.006836
vt 1.499023 -0.007812
vt 0.000000 -0.007812
vt 0.504883 -0.007812
vt 0.000000 -1.006836
vt 0.567383 -1.006836
vt 0.000000 -0.007812
vt 0.000000 -1.006836
vt 0.504883 -0.007812
vt 0.567383 -1.006836
vt 1.826172 -1.006836
vt 1.997070 -0.007812
vt 1.669922 -1.006836
vt 1.499023 -0.007812
vt 0.000000 -0.007812
vt 0.504883 -0.007812
vt 0.000000 -1.006836
vt 0.567383 -1.006836
vt 0.000000 -0.007812
vt 0.000000 -1.006836
vt 0.504883 -0.007812
vt 0.567383 -1.006836
vt 1.826172 -1.006836
vt 1.997070 -0.007812
vt 1.669922 -1.006836
vt 1.499023 -0.007812
vt 0.000000 -0.007812
vt 0.504883 -0.007812
vt 0.000000 -1.006836
vt 0.567383 -1.006836
vn 0.4902 -0.2906 0.8218
vn 0.6342 -0.4086 0.6564
vn 0.9481 -0.3180 0.0000
vn 0.9481 -0.3179 0.0000
vn 0.4902 -0.2905 -0.8218
vn 0.5003 -0.2153 -0.8387
vn 0.3556 -0.3115 -0.8812
vn 0.6024 -0.4987 -0.6232
vn 0.7465 -0.4074 -0.5262
vn 0.6342 -0.4086 -0.6563
vn 0.3557 -0.3116 0.8811
vn 0.5002 -0.2154 0.8387
vn 0.7463 -0.4074 0.5263
vn 0.6023 -0.4987 0.6234
vn 0.5002 -0.2153 -0.8387
vn 0.6024 -0.4987 -0.6233
vn 0.7464 -0.4074 -0.5262
vn 0.6343 -0.4086 -0.6563
vn 0.3557 -0.3116 0.8812
vn 0.5003 -0.2154 0.8387
vn 0.6023 -0.4986 0.6234
usemtl Tex_0070_0.dds
s off
f 1/1/1 3/2/1 2/3/1
f 2/3/2 3/2/2 4/4/2
f 5/5/3 7/6/3 6/7/3
f 6/7/4 7/6/4 8/8/4
f 9/9/5 11/10/6 10/11/7
f 10/11/8 11/10/9 12/12/10
f 13/13/4 15/14/4 14/15/4
f 14/15/4 15/14/4 16/16/4
f 17/17/1 19/18/11 18/19/12
f 18/19/13 19/18/14 20/20/2
f 21/21/4 23/22/4 22/23/4
f 22/23/4 23/22/4 24/24/4
f 25/25/5 27/26/15 26/27/7
f 26/27/16 27/26/17 28/28/10
f 29/29/1 31/30/1 30/31/1
f 30/31/2 31/30/2 32/32/2
f 33/33/4 35/34/4 34/35/4
f 34/35/4 35/34/4 36/36/4
f 37/37/5 39/38/15 38/39/7
f 38/39/16 39/38/17 40/40/18
f 41/41/1 43/42/19 42/43/20
f 42/43/13 43/42/21 44/44/2
f 45/45/3 47/46/3 46/47/3
f 46/47/4 47/46/4 48/48/4
f 49/49/5 51/50/15 50/51/7
f 50/51/16 51/50/17 52/52/10
f 53/53/1 55/54/19 54/55/12
f 54/55/13 55/54/21 56/56/2
f 57/57/3 59/58/3 58/59/3
f 58/59/4 59/58/4 60/60/4
f 61/61/5 63/62/5 62/63/5
f 62/63/18 63/62/18 64/64/18
