# Blender v3.6.3 OBJ File: 'untitled.blend'
# www.blender.org
mtllib Mesh_0184.mtl
o Mesh_0184_Mesh.153
v -22.304649 24.129988 -9.939075
v -22.304649 22.859989 -9.703365
v -22.304649 24.129988 -5.364532
v -22.304649 22.859989 -5.600243
v -22.304649 22.859989 -5.364532
v -22.304649 24.129988 0.220924
v -22.304649 22.859989 0.456635
v -22.304649 24.129988 4.795464
v -22.304649 22.859989 4.559753
v -22.304649 22.859989 4.795464
v -22.304649 22.859989 0.456635
v -22.304649 24.129988 0.220924
v -22.304649 22.859989 0.220924
v -22.304649 22.859989 -9.939075
v -22.304649 22.859989 -9.703365
v -22.304649 24.129988 -9.939075
vt 1.002930 -0.001953
vt 0.003906 -0.001953
vt 0.949219 -1.000977
vt 0.050781 -1.000977
vt 0.003906 -1.000977
vt 1.002930 -0.001953
vt 0.003906 -0.001953
vt 0.949219 -1.000977
vt 0.050781 -1.000977
vt 0.003906 -1.000977
vt 0.949219 -1.000977
vt 1.002930 -1.000977
vt 1.002930 -0.001953
vt 1.002930 -1.000977
vt 1.002930 -0.001953
vt 0.949219 -1.000977
vn 1.0000 0.0000 0.0000
usemtl Tex_0071_1.dds
s off
f 1/1/1 3/2/1 2/3/1
f 2/3/1 3/2/1 4/4/1
f 3/2/1 5/5/1 4/4/1
f 6/6/1 8/7/1 7/8/1
f 7/8/1 8/7/1 9/9/1
f 8/7/1 10/10/1 9/9/1
f 11/11/1 13/12/1 12/13/1
f 14/14/1 16/15/1 15/16/1
