# Blender v3.6.3 OBJ File: 'untitled.blend'
# www.blender.org
mtllib Mesh_0189.mtl
o Mesh_0189_Mesh.156
v -20.082085 35.558743 12.668190
v -20.717083 35.558743 12.668190
v -20.082085 35.558743 11.080696
v -20.756771 35.558743 11.080696
v -20.717083 35.558743 9.810684
v -22.145834 35.558743 11.239441
v -22.304585 35.558743 9.850380
v -23.574585 35.558743 9.810692
v -22.304585 35.558743 9.175690
v -23.574585 35.558743 9.175690
v -23.574585 35.558743 -14.319305
v -23.574585 35.558743 -14.954304
v -21.987083 35.558743 -14.319305
v -21.987083 35.558743 -14.993992
v -20.717077 35.558743 -14.954304
v -22.145834 35.558743 -16.383057
v -20.756769 35.558743 -16.541805
v -20.717085 35.558743 -17.811806
v -20.082085 35.558743 -16.541805
v -20.082085 35.558743 -17.811806
v -20.796459 35.558743 22.828194
v -22.304585 35.558743 22.828194
v -20.717085 35.558743 21.558189
v -22.304585 35.558743 21.558189
v -22.304585 35.558743 20.923195
v -20.717083 35.558743 13.303192
v -22.304585 35.558743 13.303192
v -20.717083 35.558743 12.668190
v -22.304585 35.558743 12.628502
v -22.145834 35.558743 11.239441
v -22.145834 35.558743 11.239441
v -23.534897 35.558743 11.398193
v -23.574585 35.558743 9.810692
v -24.209583 35.558743 11.398193
v -24.209583 35.558743 9.810692
v -24.209583 35.558743 -14.954304
v -24.209583 35.558743 -16.541805
v -23.574585 35.558743 -14.954304
v -23.534901 35.558743 -16.541805
v -22.145834 35.558743 -16.383057
v -22.145834 35.558743 -16.383057
v -22.304585 35.558743 -17.772118
v -20.717085 35.558743 -17.811806
v -22.304585 35.558743 -18.446804
v -20.717085 35.558743 -18.446804
v -22.304585 35.558743 -27.971806
v -20.796459 35.558743 -27.971806
v -20.717085 35.558743 -26.701801
v -20.082085 35.558743 -27.971806
v -20.082085 35.558743 -26.701801
v -20.717085 35.558743 -26.066803
v -22.304585 35.558743 -26.066803
v -20.717085 35.558743 -26.701801
v -22.304585 35.558743 -26.701801
v -22.304585 35.558743 -27.971806
v -20.717085 13.809998 21.558189
v -22.304585 13.809998 21.558189
v -20.717085 12.699990 21.558189
v -22.304585 12.699990 21.558189
v -20.717085 13.809998 21.558189
v -20.717085 12.699990 21.558189
v -20.717085 13.809998 22.828194
v -20.717085 12.699990 22.828194
v -20.796459 35.558743 22.828194
v -20.717085 35.558743 21.558189
v -20.082085 35.558743 22.828194
v -20.082085 35.558743 21.558189
v -20.717083 13.809998 9.810692
v -22.304585 13.809998 9.810692
v -20.717083 12.699990 9.810692
v -22.304585 12.699990 9.810692
v -22.304585 35.558743 9.850380
v -22.304585 35.558743 9.175690
v -20.717083 35.558743 9.810684
v -20.717083 35.558743 9.175690
v -20.717083 13.809998 9.810692
v -20.717083 12.699990 9.810692
v -20.717083 13.809997 11.080696
v -20.717083 12.699989 11.080696
v -20.717083 13.809997 12.668190
v -20.717083 13.809997 11.080696
v -20.717083 12.699989 12.668190
v -20.717083 12.699989 11.080696
v -20.717083 13.809997 12.668190
v -20.717083 12.699989 12.668190
v -22.304585 13.809997 12.668190
v -22.304585 12.699989 12.668190
v -23.574585 13.809998 9.810692
v -23.574585 12.699990 9.810692
v -22.304585 13.809998 9.810692
v -22.304585 12.699990 9.810692
v -20.717083 13.809998 -14.954304
v -20.717083 13.809998 -16.541805
v -20.717083 12.699990 -14.954304
v -20.717083 12.699990 -16.541805
v -20.756769 35.558743 -16.541805
v -20.082085 35.558743 -16.541805
v -20.717077 35.558743 -14.954304
v -20.082085 35.558743 -14.954304
v -20.717083 13.809998 -14.954304
v -20.717083 12.699990 -14.954304
v -21.987083 13.809998 -14.954304
v -21.987083 12.699990 -14.954304
v -23.574585 13.809998 -14.954304
v -21.987083 13.809998 -14.954304
v -23.574585 12.699990 -14.954304
v -21.987083 12.699990 -14.954304
v -20.717085 13.809997 -17.811806
v -22.304585 13.809997 -17.811806
v -20.717085 12.699989 -17.811806
v -22.304585 12.699989 -17.811806
v -20.717085 13.809997 -17.811806
v -20.717085 12.699989 -17.811806
v -20.717083 13.809998 -16.541805
v -20.717083 12.699990 -16.541805
v -20.717085 13.809999 -26.701801
v -20.717085 12.699990 -26.701801
v -22.304585 13.809999 -26.701801
v -22.304585 12.699990 -26.701801
v -20.717085 13.809999 -26.701801
v -20.717085 13.809999 -27.971806
v -20.717085 12.699990 -26.701801
v -20.717085 12.699990 -27.971806
v -22.304585 35.558743 20.923195
v -20.717085 35.558743 20.923195
v -20.717085 35.558743 21.558189
v -21.352083 14.286248 10.445694
v -20.717083 13.809998 9.810692
v -21.034584 14.286248 10.766205
v -21.352083 14.286248 10.445694
v -21.669582 14.286248 10.128189
v -20.717083 13.809998 9.810692
v -20.082085 35.558743 11.080696
v -20.717083 35.558743 9.810684
v -20.082085 35.558743 9.810684
v -20.756771 35.558743 11.080696
v -20.717083 35.558743 12.668190
v -22.145834 35.558743 11.239441
v -21.987083 35.558743 -14.319305
v -20.717077 35.558743 -14.954304
v -20.717077 35.558743 -14.319305
v -21.987083 35.558743 -14.993992
v -23.574585 35.558743 -14.954304
v -22.145834 35.558743 -16.383057
vt 0.998047 1.098633
vt 1.980469 1.098633
vt 0.998047 0.984375
vt 1.997070 0.984375
vt 0.998047 0.984375
vt 0.998047 0.189453
vt 1.997070 0.984375
vt 0.998047 0.984375
vt 1.980469 1.098633
vt 0.998047 1.098633
vt 0.998047 1.098633
vt 1.980469 1.098633
vt 0.998047 0.984375
vt 1.997070 0.984375
vt 0.998047 0.984375
vt 0.998047 0.189453
vt 1.997070 0.984375
vt 0.998047 0.984375
vt 1.980469 1.098633
vt 0.998047 1.098633
vt 1.997070 0.984375
vt 0.998047 0.984375
vt 0.998047 0.189453
vt 1.997070 0.984375
vt 1.980469 1.098633
vt 0.998047 1.098633
vt 0.998047 0.984375
vt 1.980469 1.098633
vt 1.997070 0.984375
vt 0.998047 0.189453
vt 0.998047 0.189453
vt 0.998047 0.984375
vt 1.997070 0.984375
vt 1.980469 1.098633
vt 0.998047 1.098633
vt 0.998047 1.098633
vt 0.998047 0.984375
vt 1.980469 1.098633
vt 1.997070 0.984375
vt 0.998047 0.189453
vt 0.998047 0.189453
vt 0.998047 0.984375
vt 1.997070 0.984375
vt 1.980469 1.098633
vt 0.998047 1.098633
vt 0.998047 0.189453
vt 0.998047 0.984375
vt 1.997070 0.984375
vt 1.980469 1.098633
vt 0.998047 1.098633
vt 0.998047 1.098633
vt 0.998047 0.984375
vt 1.980469 1.098633
vt 1.997070 0.984375
vt 0.998047 0.189453
vt 0.998047 -2.153320
vt 0.998047 -2.997070
vt 1.997070 -2.153320
vt 1.997070 -2.997070
vt 0.998047 -2.153320
vt -0.000977 -2.153320
vt 0.998047 -2.997070
vt -0.000977 -2.997070
vt 1.997070 0.984375
vt 1.980469 1.098633
vt 0.998047 0.984375
vt 0.998047 1.098633
vt 0.998047 -2.153320
vt 0.998047 -2.997070
vt 1.997070 -2.153320
vt 1.997070 -2.997070
vt 1.997070 0.984375
vt 0.998047 0.984375
vt 1.980469 1.098633
vt 0.998047 1.098633
vt 0.998047 -2.153320
vt -0.000977 -2.153320
vt 0.998047 -2.997070
vt -0.000977 -2.997070
vt 0.998047 -2.153320
vt 0.998047 -2.997070
vt 1.997070 -2.153320
vt 1.997070 -2.997070
vt 0.998047 -2.153320
vt -0.000977 -2.153320
vt 0.998047 -2.997070
vt -0.000977 -2.997070
vt 0.998047 -2.153320
vt -0.000977 -2.153320
vt 0.998047 -2.997070
vt -0.000977 -2.997070
vt 0.998047 -2.153320
vt 0.998047 -2.997070
vt 1.997070 -2.153320
vt 1.997070 -2.997070
vt 1.997070 0.984375
vt 0.998047 0.984375
vt 1.980469 1.098633
vt 0.998047 1.098633
vt 0.998047 -2.153320
vt -0.000977 -2.153320
vt 0.998047 -2.997070
vt -0.000977 -2.997070
vt 0.998047 -2.153320
vt 0.998047 -2.997070
vt 1.997070 -2.153320
vt 1.997070 -2.997070
vt 0.998047 -2.153320
vt 0.998047 -2.997070
vt 1.997070 -2.153320
vt 1.997070 -2.997070
vt 0.998047 -2.153320
vt -0.000977 -2.153320
vt 0.998047 -2.997070
vt -0.000977 -2.997070
vt 0.998047 -2.153320
vt 1.997070 -2.153320
vt 0.998047 -2.997070
vt 1.997070 -2.997070
vt 0.998047 -2.153320
vt 0.998047 -2.997070
vt -0.000977 -2.153320
vt -0.000977 -2.997070
vt 1.980469 1.098633
vt 0.998047 0.984375
vt 0.998047 1.098633
vt 0.654297 -1.529297
vt 0.373047 -1.529297
vt 0.998047 -2.153320
vt 1.481445 -1.513672
vt 0.998047 -2.153320
vt 1.668945 -1.513672
vt 1.980469 1.098633
vt 0.998047 1.098633
vt 0.998047 0.984375
vt 1.997070 0.984375
vt 0.998047 0.189453
vt 0.998047 0.984375
vt 1.980469 1.098633
vt 0.998047 1.098633
vt 0.998047 0.984375
vt 1.997070 0.984375
vt 0.998047 0.189453
vt 0.998047 0.984375
vn 0.0000 1.0000 0.0000
vn 0.0000 0.0000 -1.0000
vn 1.0000 0.0000 0.0000
vn 0.0000 0.0000 1.0000
vn 0.3329 0.8835 -0.3297
vn 0.3313 0.8835 -0.3313
usemtl Tex_0072_1.dds.004
s off
f 1/1/1 3/2/1 2/3/1
f 2/3/1 3/2/1 4/4/1
f 3/2/1 5/5/1 4/4/1
f 4/4/1 5/5/1 6/6/1
f 5/5/1 7/7/1 6/6/1
f 6/6/1 7/7/1 8/8/1
f 7/7/1 9/9/1 8/8/1
f 8/8/1 9/9/1 10/10/1
f 11/11/1 13/12/1 12/13/1
f 12/13/1 13/12/1 14/14/1
f 13/12/1 15/15/1 14/14/1
f 14/14/1 15/15/1 16/16/1
f 15/15/1 17/17/1 16/16/1
f 16/16/1 17/17/1 18/18/1
f 17/17/1 19/19/1 18/18/1
f 18/18/1 19/19/1 20/20/1
f 21/21/1 23/22/1 22/23/1
f 22/23/1 23/22/1 24/24/1
f 23/22/1 25/25/1 24/24/1
f 26/26/1 28/27/1 27/28/1
f 27/28/1 28/27/1 29/29/1
f 28/27/1 30/30/1 29/29/1
f 31/31/1 33/32/1 32/33/1
f 32/33/1 33/32/1 34/34/1
f 33/32/1 35/35/1 34/34/1
f 36/36/1 38/37/1 37/38/1
f 37/38/1 38/37/1 39/39/1
f 38/37/1 40/40/1 39/39/1
f 41/41/1 43/42/1 42/43/1
f 42/43/1 43/42/1 44/44/1
f 43/42/1 45/45/1 44/44/1
f 46/46/1 48/47/1 47/48/1
f 47/48/1 48/47/1 49/49/1
f 48/47/1 50/50/1 49/49/1
f 51/51/1 53/52/1 52/53/1
f 52/53/1 53/52/1 54/54/1
f 53/52/1 55/55/1 54/54/1
f 56/56/2 58/57/2 57/58/2
f 57/58/2 58/57/2 59/59/2
f 60/60/3 62/61/3 61/62/3
f 61/62/3 62/61/3 63/63/3
f 64/64/1 66/65/1 65/66/1
f 65/66/1 66/65/1 67/67/1
f 68/68/2 70/69/2 69/70/2
f 69/70/2 70/69/2 71/71/2
f 72/72/1 74/73/1 73/74/1
f 73/74/1 74/73/1 75/75/1
f 76/76/3 78/77/3 77/78/3
f 77/78/3 78/77/3 79/79/3
f 80/80/3 82/81/3 81/82/3
f 81/82/3 82/81/3 83/83/3
f 84/84/4 86/85/4 85/86/4
f 85/86/4 86/85/4 87/87/4
f 88/88/2 90/89/2 89/90/2
f 89/90/2 90/89/2 91/91/2
f 92/92/3 94/93/3 93/94/3
f 93/94/3 94/93/3 95/95/3
f 96/96/1 98/97/1 97/98/1
f 97/98/1 98/97/1 99/99/1
f 100/100/4 102/101/4 101/102/4
f 101/102/4 102/101/4 103/103/4
f 104/104/4 106/105/4 105/106/4
f 105/106/4 106/105/4 107/107/4
f 108/108/2 110/109/2 109/110/2
f 109/110/2 110/109/2 111/111/2
f 112/112/3 114/113/3 113/114/3
f 113/114/3 114/113/3 115/115/3
f 116/116/4 118/117/4 117/118/4
f 117/118/4 118/117/4 119/119/4
f 120/120/3 122/121/3 121/122/3
f 121/122/3 122/121/3 123/123/3
f 124/124/1 126/125/1 125/126/1
f 127/127/5 129/128/5 128/129/5
f 130/130/6 132/131/6 131/132/6
f 133/133/1 135/134/1 134/135/1
f 136/136/1 138/137/1 137/138/1
f 139/139/1 141/140/1 140/141/1
f 142/142/1 144/143/1 143/144/1
