# Blender v3.6.3 OBJ File: 'untitled.blend'
# www.blender.org
mtllib Mesh_0137.mtl
o Mesh_0137_Mesh.009
v 69.135422 37.368183 14.601418
v 68.885712 33.497093 14.868889
v 69.135422 30.957100 14.601418
v 68.885712 30.957098 14.868889
v 68.885712 25.369095 14.868889
v 69.135422 25.686827 17.828758
v 69.135422 27.211052 17.828758
v 68.885712 25.369095 18.087509
v 69.135422 27.911104 17.828758
v 68.885712 30.957098 18.087509
v 69.135422 25.064016 18.354988
v 68.885712 25.369095 18.087509
v 69.135422 30.957100 18.354980
v 68.885712 30.957098 18.087509
v 68.885712 33.497097 18.087509
v 68.885712 30.957098 14.868889
v 69.135422 27.911104 15.127632
v 68.885712 25.369095 14.868889
v 69.135422 27.222559 15.127632
v 69.135422 25.686827 15.127632
v 69.135468 37.368187 1.901421
v 68.885788 33.497101 2.168884
v 69.135468 30.957100 1.901421
v 68.885788 30.957100 2.168884
v 68.885788 25.369101 2.168884
v 69.135468 25.686829 5.128761
v 69.135468 27.211056 5.128761
v 68.885788 25.369101 5.387512
v 69.135468 27.911106 5.128761
v 68.885788 30.957100 5.387512
v 69.135452 25.064020 5.654991
v 68.885788 25.369101 5.387512
v 69.135437 30.957100 5.654984
v 68.885788 30.957100 5.387512
v 68.885788 33.497101 5.387512
v 68.885788 30.957100 2.168884
v 69.135468 27.911106 2.427628
v 68.885788 25.369101 2.168884
v 69.135468 27.222561 2.427628
v 69.135468 25.686829 2.427628
v 69.135437 37.368187 -10.798580
v 68.885788 33.497101 -10.531116
v 69.135437 30.957100 -10.798584
v 68.885788 30.957100 -10.531116
v 68.885788 25.369101 -10.531116
v 69.135468 25.686829 -7.571239
v 69.135468 27.211056 -7.571239
v 68.885788 25.369101 -7.312492
v 69.135468 27.911106 -7.571239
v 68.885788 30.957100 -7.312492
v 69.135452 25.064020 -7.045013
v 68.885788 25.369101 -7.312492
v 69.135468 30.957100 -7.045021
v 68.885788 30.957100 -7.312492
v 68.885788 33.497101 -7.312489
v 68.885788 30.957100 -10.531116
v 69.135468 27.911106 -10.272373
v 68.885788 25.369101 -10.531116
v 69.135468 27.222561 -10.272373
v 69.135468 25.686829 -10.272373
v 69.135422 37.368187 -23.498577
v 68.885712 33.497097 -23.231117
v 69.135422 30.957100 -23.498581
v 68.885712 30.957098 -23.231117
v 68.885712 25.369099 -23.231117
v 69.135422 25.686827 -20.271240
v 69.135422 27.211056 -20.271240
v 68.885712 25.369099 -20.012489
v 69.135422 27.911104 -20.271240
v 68.885712 30.957098 -20.012489
v 69.135422 25.064016 -19.745014
v 68.885712 25.369099 -20.012489
v 69.135422 30.957100 -19.745018
v 68.885712 30.957098 -20.012489
v 68.885712 33.497097 -20.012489
v 68.885712 30.957098 -23.231117
v 69.135422 27.911104 -22.972370
v 68.885712 25.369099 -23.231117
v 69.135422 27.222561 -22.972370
v 69.135422 25.686827 -22.972370
v 68.885712 25.369095 14.868889
v 69.135422 25.686827 15.127632
v 68.885712 25.369095 18.087509
v 69.135422 25.686827 17.828758
v 69.135422 25.064018 14.601425
v 68.885712 25.369095 14.868889
v 69.135422 25.064016 18.354988
v 68.885712 25.369095 18.087509
v 68.885788 25.369101 2.168884
v 69.135468 25.686829 2.427628
v 68.885788 25.369101 5.387512
v 69.135468 25.686829 5.128761
v 69.135468 25.064020 1.901428
v 68.885788 25.369101 2.168884
v 69.135452 25.064020 5.654991
v 68.885788 25.369101 5.387512
v 68.885788 25.369101 -10.531116
v 69.135468 25.686829 -10.272373
v 68.885788 25.369101 -7.312492
v 69.135468 25.686829 -7.571239
v 69.135437 25.064018 -10.798584
v 68.885788 25.369101 -10.531116
v 69.135452 25.064020 -7.045013
v 68.885788 25.369101 -7.312492
v 68.885712 25.369099 -23.231117
v 69.135422 25.686827 -22.972370
v 68.885712 25.369099 -20.012489
v 69.135422 25.686827 -20.271240
v 69.135422 25.064018 -23.498581
v 68.885712 25.369099 -23.231117
v 69.135422 25.064016 -19.745014
v 68.885712 25.369099 -20.012489
v 69.135422 30.957100 18.354980
v 68.885712 33.497097 18.087509
v 69.135422 37.368187 18.354980
v 69.135422 30.957100 14.601418
v 68.885712 25.369095 14.868889
v 69.135422 25.064018 14.601425
v 69.135437 30.957100 5.654984
v 68.885788 33.497101 5.387512
v 69.135437 37.368187 5.654984
v 69.135468 30.957100 1.901421
v 68.885788 25.369101 2.168884
v 69.135468 25.064020 1.901428
v 69.135468 30.957100 -7.045021
v 68.885788 33.497101 -7.312489
v 69.135468 37.368187 -7.045021
v 69.135437 30.957100 -10.798584
v 68.885788 25.369101 -10.531116
v 69.135437 25.064018 -10.798584
v 69.135422 30.957100 -19.745018
v 68.885712 33.497097 -20.012489
v 69.135422 37.368187 -19.745014
v 69.135422 30.957100 -23.498581
v 68.885712 25.369099 -23.231117
v 69.135422 25.064018 -23.498581
vt 0.998047 -1.000000
vt 0.998047 -1.312500
vt 1.195312 -1.000000
vt 1.195312 -1.314453
vt 1.196289 -1.999023
vt 1.414062 -1.999023
vt 1.196289 -1.999023
vt 1.414062 -1.750000
vt 1.414062 -1.684570
vt 1.195312 -1.314453
vt 0.998047 -1.999023
vt 0.998047 -1.300781
vt 1.196289 -1.999023
vt 1.195312 -1.314453
vt 1.195312 -1.000000
vt 1.195312 -1.314453
vt 1.196289 -1.999023
vt 1.415039 -1.684570
vt 1.415039 -1.748047
vt 1.414062 -1.999023
vt 0.998047 -1.000000
vt 0.998047 -1.312500
vt 1.195312 -1.000000
vt 1.195312 -1.314453
vt 1.196289 -1.999023
vt 1.414062 -1.999023
vt 1.196289 -1.999023
vt 1.414062 -1.750000
vt 1.414062 -1.684570
vt 1.195312 -1.314453
vt 0.998047 -1.999023
vt 0.998047 -1.300781
vt 1.196289 -1.999023
vt 1.195312 -1.314453
vt 1.195312 -1.000000
vt 1.195312 -1.314453
vt 1.196289 -1.999023
vt 1.415039 -1.684570
vt 1.415039 -1.748047
vt 1.414062 -1.999023
vt 0.998047 -1.000000
vt 0.998047 -1.312500
vt 1.195312 -1.000000
vt 1.195312 -1.314453
vt 1.196289 -1.999023
vt 1.414062 -1.999023
vt 1.196289 -1.999023
vt 1.414062 -1.750000
vt 1.414062 -1.684570
vt 1.195312 -1.314453
vt 0.998047 -1.999023
vt 0.998047 -1.300781
vt 1.196289 -1.999023
vt 1.195312 -1.314453
vt 1.195312 -1.000000
vt 1.195312 -1.314453
vt 1.196289 -1.999023
vt 1.415039 -1.684570
vt 1.415039 -1.748047
vt 1.414062 -1.999023
vt 0.998047 -1.000000
vt 0.998047 -1.312500
vt 1.195312 -1.000000
vt 1.195312 -1.314453
vt 1.196289 -1.999023
vt 1.414062 -1.999023
vt 1.196289 -1.999023
vt 1.414062 -1.750000
vt 1.414062 -1.684570
vt 1.195312 -1.314453
vt 0.998047 -1.999023
vt 0.998047 -1.300781
vt 1.196289 -1.999023
vt 1.195312 -1.314453
vt 1.195312 -1.000000
vt 1.195312 -1.314453
vt 1.196289 -1.999023
vt 1.415039 -1.684570
vt 1.415039 -1.748047
vt 1.414062 -1.999023
vt -0.800781 0.079102
vt -0.799805 0.935547
vt -0.596680 0.145508
vt -0.594727 0.864258
vt -0.998047 0.010742
vt -0.995117 1.009766
vt -0.800781 0.079102
vt -0.799805 0.935547
vt -0.800781 0.079102
vt -0.799805 0.935547
vt -0.596680 0.145508
vt -0.594727 0.864258
vt -0.998047 0.010742
vt -0.995117 1.009766
vt -0.800781 0.079102
vt -0.799805 0.935547
vt -0.800781 0.079102
vt -0.799805 0.935547
vt -0.596680 0.145508
vt -0.594727 0.864258
vt -0.998047 0.010742
vt -0.995117 1.009766
vt -0.800781 0.079102
vt -0.799805 0.935547
vt -0.800781 0.079102
vt -0.799805 0.935547
vt -0.596680 0.145508
vt -0.594727 0.864258
vt -0.998047 0.010742
vt -0.995117 1.009766
vt -0.800781 0.079102
vt -0.799805 0.935547
vt 0.998047 -1.300781
vt 0.998047 -1.000000
vt 1.195312 -1.000000
vt 0.998047 -1.312500
vt 0.998047 -1.999023
vt 1.196289 -1.999023
vt 0.998047 -1.300781
vt 0.998047 -1.000000
vt 1.195312 -1.000000
vt 0.998047 -1.312500
vt 0.998047 -1.999023
vt 1.196289 -1.999023
vt 0.998047 -1.300781
vt 0.998047 -1.000000
vt 1.195312 -1.000000
vt 0.998047 -1.312500
vt 0.998047 -1.999023
vt 1.196289 -1.999023
vt 0.998047 -1.300781
vt 0.998047 -1.000000
vt 1.195312 -1.000000
vt 0.998047 -1.312500
vt 0.998047 -1.999023
vt 1.196289 -1.999023
vn -0.7310 0.0000 -0.6824
vn -0.7196 0.0000 -0.6944
vn -0.7195 0.0000 -0.6944
vn -0.7310 0.0000 0.6824
vn -0.7196 0.0000 0.6944
vn -0.7310 0.0000 0.6823
vn -0.7310 0.0000 -0.6823
vn -0.7309 0.0000 -0.6824
vn -0.7862 0.6179 0.0000
vn -0.7738 -0.6334 0.0000
vn -0.7863 0.6179 0.0000
vn -0.7739 -0.6333 -0.0000
usemtl Tex_0036_0.dds
s off
f 1/1/1 3/2/1 2/3/1
f 2/3/1 3/2/1 4/4/1
f 3/2/1 5/5/1 4/4/1
f 6/6/2 8/7/2 7/8/2
f 7/8/3 8/7/3 9/9/3
f 8/7/2 10/10/2 9/9/2
f 11/11/4 13/12/4 12/13/4
f 12/13/4 13/12/4 14/14/4
f 13/12/4 15/15/4 14/14/4
f 16/16/5 18/17/5 17/18/5
f 17/18/5 18/17/5 19/19/5
f 18/17/5 20/20/5 19/19/5
f 21/21/1 23/22/1 22/23/1
f 22/23/1 23/22/1 24/24/1
f 23/22/1 25/25/1 24/24/1
f 26/26/2 28/27/2 27/28/2
f 27/28/2 28/27/2 29/29/2
f 28/27/2 30/30/2 29/29/2
f 31/31/6 33/32/6 32/33/6
f 32/33/6 33/32/6 34/34/6
f 33/32/6 35/35/6 34/34/6
f 36/36/5 38/37/5 37/38/5
f 37/38/5 38/37/5 39/39/5
f 38/37/5 40/40/5 39/39/5
f 41/41/7 43/42/7 42/43/7
f 42/43/7 43/42/7 44/44/7
f 43/42/7 45/45/7 44/44/7
f 46/46/2 48/47/2 47/48/2
f 47/48/2 48/47/2 49/49/2
f 48/47/2 50/50/2 49/49/2
f 51/51/6 53/52/6 52/53/6
f 52/53/4 53/52/4 54/54/4
f 53/52/4 55/55/4 54/54/4
f 56/56/5 58/57/5 57/58/5
f 57/58/5 58/57/5 59/59/5
f 58/57/5 60/60/5 59/59/5
f 61/61/8 63/62/8 62/63/8
f 62/63/1 63/62/1 64/64/1
f 63/62/8 65/65/8 64/64/8
f 66/66/2 68/67/2 67/68/2
f 67/68/2 68/67/2 69/69/2
f 68/67/2 70/70/2 69/69/2
f 71/71/4 73/72/4 72/73/4
f 72/73/4 73/72/4 74/74/4
f 73/72/4 75/75/4 74/74/4
f 76/76/5 78/77/5 77/78/5
f 77/78/5 78/77/5 79/79/5
f 78/77/5 80/80/5 79/79/5
f 81/81/9 83/82/9 82/83/9
f 82/83/9 83/82/9 84/84/9
f 85/85/10 87/86/10 86/87/10
f 86/87/10 87/86/10 88/88/10
f 89/89/11 91/90/11 90/91/11
f 90/91/11 91/90/11 92/92/11
f 93/93/12 95/94/12 94/95/12
f 94/95/12 95/94/12 96/96/12
f 97/97/11 99/98/11 98/99/11
f 98/99/11 99/98/11 100/100/11
f 101/101/12 103/102/12 102/103/12
f 102/103/12 103/102/12 104/104/12
f 105/105/9 107/106/9 106/107/9
f 106/107/9 107/106/9 108/108/9
f 109/109/10 111/110/10 110/111/10
f 110/111/10 111/110/10 112/112/10
f 113/113/4 115/114/4 114/115/4
f 116/116/8 118/117/8 117/118/8
f 119/119/6 121/120/6 120/121/6
f 122/122/1 124/123/1 123/124/1
f 125/125/4 127/126/4 126/127/4
f 128/128/7 130/129/7 129/130/7
f 131/131/4 133/132/4 132/133/4
f 134/134/8 136/135/8 135/136/8
