# Blender v3.6.3 OBJ File: 'untitled.blend'
# www.blender.org
mtllib Mesh_0243.mtl
o Mesh_0243_Mesh.172
v 62.785408 12.191986 -27.714928
v 69.135422 12.191984 -27.714928
v 62.785408 10.667994 -27.714931
v 69.135422 10.667994 -27.714935
v 56.435410 12.191986 -27.714928
v 62.785408 12.191986 -27.714928
v 56.435410 10.667994 -27.714931
v 62.785408 10.667994 -27.714931
v 50.085411 12.191986 -27.714928
v 56.435410 12.191986 -27.714928
v 50.085411 10.667994 -27.714931
v 56.435410 10.667994 -27.714931
v 43.735413 12.191986 -27.714928
v 50.085411 12.191986 -27.714928
v 43.735413 10.667994 -27.714931
v 50.085411 10.667994 -27.714931
v 37.309273 12.191991 -27.715004
v 43.735413 12.191986 -27.714928
v 37.310806 10.667992 -27.715012
v 43.735413 10.667994 -27.714931
v 24.685446 12.191991 -27.714966
v 24.761934 12.191994 -27.715015
v 24.685446 10.667994 -27.714973
v 24.760153 10.667993 -27.715008
v 18.335413 12.191986 -27.714928
v 24.685446 12.191991 -27.714966
v 18.335413 10.667994 -27.714931
v 24.685446 10.667994 -27.714973
v 5.635412 12.191986 -27.714928
v 11.985411 12.191986 -27.714928
v 5.635412 10.667994 -27.714931
v 11.985411 10.667994 -27.714931
v 11.985411 12.191986 -27.714928
v 18.335413 12.191986 -27.714928
v 11.985411 10.667994 -27.714931
v 18.335413 10.667994 -27.714931
v -0.714584 12.191986 -27.714928
v 5.635412 12.191986 -27.714928
v -0.714584 10.667994 -27.714931
v 5.635412 10.667994 -27.714931
v -7.064587 12.191984 -27.714928
v -0.714584 12.191986 -27.714928
v -7.064587 10.667994 -27.714935
v -0.714584 10.667994 -27.714931
vt -0.000977 -0.155273
vt -0.000977 -0.942383
vt 1.997070 -0.155273
vt 1.997070 -0.942383
vt -0.000977 -0.155273
vt -0.000977 -0.942383
vt 1.997070 -0.155273
vt 1.997070 -0.942383
vt -0.000977 -0.155273
vt -0.000977 -0.942383
vt 1.997070 -0.155273
vt 1.997070 -0.942383
vt -0.000977 -0.155273
vt -0.000977 -0.942383
vt 1.997070 -0.155273
vt 1.997070 -0.942383
vt -0.000977 -0.155273
vt -0.000977 -0.942383
vt 1.997070 -0.155273
vt 1.997070 -0.942383
vt -0.339844 0.091797
vt 0.073242 0.090820
vt -0.340820 0.049805
vt 0.072266 0.048828
vt -0.000977 -0.155273
vt -0.000977 -0.942383
vt 1.997070 -0.155273
vt 1.997070 -0.942383
vt -0.000977 -0.155273
vt -0.000977 -0.942383
vt 1.997070 -0.155273
vt 1.997070 -0.942383
vt -0.000977 -0.155273
vt -0.000977 -0.942383
vt 1.997070 -0.155273
vt 1.997070 -0.942383
vt -0.000977 -0.155273
vt -0.000977 -0.942383
vt 1.997070 -0.155273
vt 1.997070 -0.942383
vt -0.000977 -0.155273
vt -0.000977 -0.942383
vt 1.997070 -0.155273
vt 1.997070 -0.942383
vn 0.0000 -0.0000 1.0000
vn 0.0007 -0.0000 1.0000
vn 0.0001 0.0000 1.0000
vn 0.0005 0.0000 1.0000
usemtl Tex_0052_0.dds.015
s off
f 1/1/1 3/2/1 2/3/1
f 2/3/1 3/2/1 4/4/1
f 5/5/1 7/6/1 6/7/1
f 6/7/1 7/6/1 8/8/1
f 9/9/1 11/10/1 10/11/1
f 10/11/1 11/10/1 12/12/1
f 13/13/1 15/14/1 14/15/1
f 14/15/1 15/14/1 16/16/1
f 17/17/1 19/18/1 18/19/1
f 18/19/1 19/18/1 20/20/1
f 21/21/2 23/22/2 22/23/2
f 22/23/3 23/22/4 24/24/4
f 25/25/1 27/26/1 26/27/1
f 26/27/1 27/26/1 28/28/1
f 29/29/1 31/30/1 30/31/1
f 30/31/1 31/30/1 32/32/1
f 33/33/1 35/34/1 34/35/1
f 34/35/1 35/34/1 36/36/1
f 37/37/1 39/38/1 38/39/1
f 38/39/1 39/38/1 40/40/1
f 41/41/1 43/42/1 42/43/1
f 42/43/1 43/42/1 44/44/1
