# Blender v3.6.3 OBJ File: 'untitled.blend'
# www.blender.org
mtllib Mesh_0350.mtl
o Mesh_0350_Mesh.213
v -26.575821 19.837488 38.068192
v -25.896904 19.274775 38.068192
v -28.872259 19.274775 38.068192
v -25.383495 18.500074 38.068192
v -29.385681 18.500074 38.068192
v -25.088270 17.514353 38.068192
v -29.680904 17.514353 38.068192
v -25.088270 12.223734 38.068192
v -29.680904 12.223734 38.068192
v -31.655821 19.837488 38.068192
v -30.976904 19.274775 38.068192
v -33.952259 19.274775 38.068192
v -30.463495 18.500074 38.068192
v -34.465683 18.500074 38.068192
v -30.168270 17.514353 38.068192
v -34.760902 17.514353 38.068192
v -30.168270 12.223734 38.068192
v -34.760902 12.223734 38.068192
v -19.764584 22.377487 29.639435
v -19.764584 21.814775 28.960510
v -19.764584 21.814775 31.935860
v -19.764584 21.040075 28.447105
v -19.764584 21.040073 32.449287
v -19.764584 20.054352 28.151878
v -19.764584 20.054350 32.744507
v -19.764584 14.763735 28.151878
v -19.764584 14.763734 32.744507
v -21.573879 21.443327 36.490616
v -21.573879 13.265066 36.490616
v -22.414869 21.045057 37.171501
v -22.414869 12.919506 37.171501
v -20.577675 13.914330 35.410370
v -20.577675 22.052746 35.410370
v -19.776833 14.763735 33.289574
v -19.776833 22.859983 33.289574
v -22.414869 21.045057 37.171501
v -22.414869 12.919506 37.171501
v -24.731096 20.388042 38.024780
v -24.731096 12.223734 37.981369
v -35.004471 30.479984 38.070671
v -24.844469 30.479984 38.070671
v -35.004471 22.834560 38.070671
v -24.844469 22.834560 38.070671
v -28.872259 19.274775 38.068192
v -28.193335 19.837488 38.068192
v -26.575821 19.837488 38.068192
v -27.384583 20.227324 38.068192
v -33.952259 19.274775 38.068192
v -33.273335 19.837488 38.068192
v -31.655821 19.837488 38.068192
v -32.464584 20.227324 38.068192
v -19.761990 33.019985 32.988190
v -19.761990 33.019985 22.828194
v -19.761990 25.374559 32.988190
v -19.761990 25.374559 22.828194
v -19.764584 21.814775 31.935860
v -19.764584 22.377487 31.256943
v -19.764584 22.377487 29.639435
v -19.764584 22.767324 30.448189
v -19.764584 22.859985 27.590691
v -19.763763 22.859983 22.829018
v -19.764584 14.763735 27.590691
v -19.764584 14.763735 22.828194
vt -0.675781 0.153320
vt -0.134766 0.051758
vt -0.836914 0.051758
vt -0.958008 -0.087891
vt 0.003906 -0.087891
vt -1.028320 -0.265625
vt 0.057617 -0.265625
vt -1.028320 -1.222656
vt 0.046875 -1.222656
vt -0.675781 0.153320
vt -0.134766 0.051758
vt -0.836914 0.051758
vt -0.958008 -0.087891
vt 0.003906 -0.087891
vt -1.028320 -0.265625
vt 0.057617 -0.265625
vt -1.028320 -1.222656
vt 0.046875 -1.222656
vt -0.675781 0.153320
vt -0.134766 0.051758
vt -0.836914 0.051758
vt -0.958008 -0.087891
vt 0.003906 -0.087891
vt -1.028320 -0.265625
vt 0.057617 -0.265625
vt -1.028320 -1.222656
vt 0.046875 -1.222656
vt 1.999023 1.000000
vt 2.220703 1.000000
vt 1.999023 -0.596680
vt 2.220703 -0.596680
vt 2.704102 -0.596680
vt 1.999023 -0.596680
vt 2.704102 1.000000
vt 1.999023 1.000000
vt 2.220703 1.000000
vt 2.872070 1.000000
vt 2.220703 -0.596680
vt 2.872070 -0.596680
vt 3.000000 0.999023
vt 3.000000 -0.596680
vt 1.000000 0.999023
vt 1.000000 -0.596680
vt -0.134766 0.051758
vt -0.675781 0.153320
vt -0.307617 0.153320
vt -0.498047 0.223633
vt -0.134766 0.051758
vt -0.675781 0.153320
vt -0.307617 0.153320
vt -0.498047 0.223633
vt 3.000000 0.999023
vt 3.000000 -0.596680
vt 1.000000 0.999023
vt 1.000000 -0.596680
vt -0.134766 0.051758
vt -0.675781 0.153320
vt -0.307617 0.153320
vt -0.498047 0.223633
vt 2.898438 1.000000
vt 2.898438 -0.596680
vt 2.003906 1.000000
vt 2.003906 -0.596680
vn 0.0000 0.0000 1.0000
vn 1.0000 0.0000 0.0000
vn 0.6292 0.0000 0.7772
vn 0.9355 0.0000 0.3533
vn 0.3457 0.0000 0.9384
vn 0.3450 0.0027 0.9386
vn 0.3581 0.0000 0.9337
vn 0.3321 -0.0076 0.9432
vn 0.3189 -0.0050 0.9478
vn 0.3314 -0.0050 0.9435
vn 1.0000 0.0000 0.0002
vn 1.0000 0.0000 0.0005
vn 1.0000 -0.0001 0.0000
usemtl Tex_0031_1.dds.019
s off
f 1/1/1 3/2/1 2/3/1
f 2/3/1 3/2/1 4/4/1
f 3/2/1 5/5/1 4/4/1
f 4/4/1 5/5/1 6/6/1
f 5/5/1 7/7/1 6/6/1
f 6/6/1 7/7/1 8/8/1
f 7/7/1 9/9/1 8/8/1
f 10/10/1 12/11/1 11/12/1
f 11/12/1 12/11/1 13/13/1
f 12/11/1 14/14/1 13/13/1
f 13/13/1 14/14/1 15/15/1
f 14/14/1 16/16/1 15/15/1
f 15/15/1 16/16/1 17/17/1
f 16/16/1 18/18/1 17/17/1
f 19/19/2 21/20/2 20/21/2
f 20/21/2 21/20/2 22/22/2
f 21/20/2 23/23/2 22/22/2
f 22/22/2 23/23/2 24/24/2
f 23/23/2 25/25/2 24/24/2
f 24/24/2 25/25/2 26/26/2
f 25/25/2 27/27/2 26/26/2
f 28/28/3 30/29/3 29/30/3
f 29/30/3 30/29/3 31/31/3
f 32/32/4 34/33/4 33/34/4
f 33/34/4 34/33/4 35/35/4
f 36/36/5 38/37/6 37/38/7
f 37/38/8 38/37/9 39/39/10
f 40/40/1 42/41/1 41/42/1
f 41/42/1 42/41/1 43/43/1
f 44/44/1 46/45/1 45/46/1
f 45/46/1 46/45/1 47/47/1
f 48/48/1 50/49/1 49/50/1
f 49/50/1 50/49/1 51/51/1
f 52/52/2 54/53/2 53/54/2
f 53/54/2 54/53/2 55/55/2
f 56/56/2 58/57/2 57/58/2
f 57/58/2 58/57/2 59/59/2
f 60/60/11 62/61/12 61/62/11
f 61/62/13 62/61/13 63/63/13
