# Blender v3.6.3 OBJ File: 'untitled.blend'
# www.blender.org
mtllib Mesh_0212.mtl
o Mesh_0212_Mesh.045
v 50.998680 17.661673 22.828194
v 50.085419 15.518294 22.828194
v 50.085419 14.915348 22.583069
v 49.172165 17.661673 22.828194
v 48.965370 17.530251 22.583069
v 47.320419 20.375408 22.828194
v 46.923767 20.477745 22.583069
v 48.815422 21.920641 22.583069
v 48.732811 22.190975 22.828194
v 50.085419 22.859985 22.828194
v 50.400200 12.699986 22.828194
v 50.474007 14.919996 22.828194
v 50.085419 12.573997 22.574196
v 50.085419 14.915348 22.583069
v 49.767921 14.919996 22.828194
v 48.965370 17.530251 22.583069
v 48.725052 17.397791 22.828194
v 46.923767 20.477745 22.583069
v 46.910423 20.002485 22.828194
v 45.095764 17.397791 22.828194
v 50.474007 14.919996 22.828194
v 51.445763 17.397791 22.828194
v 51.205460 17.530251 22.583069
v 53.273773 20.477745 22.583069
v 52.839890 20.374849 22.828194
v 51.355423 21.920641 22.583069
v 51.286224 21.629660 22.828194
v 50.085419 22.548477 22.583069
v 50.085419 22.232960 22.828194
v 48.886200 21.628897 22.828194
v 51.445763 17.397791 22.828194
v 53.260422 20.002485 22.828194
v 53.273773 20.477745 22.583069
v 55.075050 17.397791 22.828194
v 55.315369 17.530251 22.583069
v 56.117920 14.919996 22.828194
v 56.435417 14.915348 22.583069
v 56.435417 12.573997 22.574196
v 56.824005 14.919996 22.828194
v 56.750198 12.699986 22.828194
v 55.236198 21.628897 22.828194
v 56.435417 22.232960 22.828194
v 56.435417 22.548477 22.583069
v 57.636223 21.629660 22.828194
v 57.705421 21.920641 22.583069
v 59.189888 20.374849 22.828194
v 59.623772 20.477745 22.583069
v 57.555458 17.530251 22.583069
v 57.795761 17.397791 22.828194
v 56.824005 14.919996 22.828194
v 56.435417 22.859985 22.828194
v 55.082817 22.190975 22.828194
v 55.165421 21.920641 22.583069
v 53.273773 20.477745 22.583069
v 53.670418 20.375408 22.828194
v 55.315369 17.530251 22.583069
v 55.522163 17.661673 22.828194
v 56.435417 14.915348 22.583069
v 56.435417 15.518294 22.828194
v 57.348679 17.661673 22.828194
v 55.082817 22.190975 22.828194
v 53.260422 20.807360 22.828194
v 53.273773 20.477745 22.583069
v 51.433067 22.194326 22.828194
v 51.355423 21.920641 22.583069
v 50.085419 22.859985 22.828194
v 50.085419 22.548477 22.583069
v 48.815422 21.920641 22.583069
v 48.886200 21.628897 22.828194
v 47.320419 20.375408 22.828194
v 57.795761 17.397791 22.828194
v 59.610420 20.002485 22.828194
v 59.623772 20.477745 22.583069
v 61.425049 17.397791 22.828194
v 61.665367 17.530251 22.583069
v 62.467918 14.919996 22.828194
v 62.785416 14.915348 22.583069
v 62.785416 12.573997 22.574196
v 63.174004 14.919996 22.828194
v 63.100197 12.699986 22.828194
v 60.020416 20.375408 22.828194
v 61.586197 21.628897 22.828194
v 61.515419 21.920641 22.583069
v 62.785416 22.548477 22.583069
v 62.785416 22.859985 22.828194
v 64.055420 21.920641 22.583069
v 64.133064 22.194326 22.828194
v 65.973770 20.477745 22.583069
v 65.960419 20.807360 22.828194
v 67.782814 22.190975 22.828194
v 61.586197 21.628897 22.828194
v 62.785416 22.232960 22.828194
v 62.785416 22.548477 22.583069
v 63.986221 21.629660 22.828194
v 64.055420 21.920641 22.583069
v 65.539886 20.374849 22.828194
v 65.973770 20.477745 22.583069
v 63.905457 17.530251 22.583069
v 64.145767 17.397791 22.828194
v 63.174004 14.919996 22.828194
v 62.785416 22.859985 22.828194
v 61.432816 22.190975 22.828194
v 61.515419 21.920641 22.583069
v 59.623772 20.477745 22.583069
v 60.020416 20.375408 22.828194
v 61.665367 17.530251 22.583069
v 61.872162 17.661673 22.828194
v 62.785416 14.915348 22.583069
v 62.785416 15.518294 22.828194
v 63.698677 17.661673 22.828194
v 38.298668 17.661673 22.828194
v 37.385422 15.518294 22.828194
v 37.385422 14.915348 22.583069
v 36.472160 17.661673 22.828194
v 36.265358 17.530251 22.583069
v 34.620422 20.375408 22.828194
v 34.223778 20.477745 22.583069
v 36.115425 21.920641 22.583069
v 36.032822 22.190975 22.828194
v 37.385422 22.859985 22.828194
v 37.700195 12.699986 22.828194
v 37.774010 14.919996 22.828194
v 37.385422 12.573997 22.574196
v 37.385422 14.915348 22.583069
v 37.067917 14.919996 22.828194
v 36.265358 17.530251 22.583069
v 36.025055 17.397791 22.828194
v 34.223778 20.477745 22.583069
v 34.210419 20.002485 22.828194
v 32.395760 17.397791 22.828194
v 37.774010 14.919996 22.828194
v 38.745766 17.397791 22.828194
v 38.505455 17.530251 22.583069
v 40.573769 20.477745 22.583069
v 40.139893 20.374849 22.828194
v 38.655418 21.920641 22.583069
v 38.586220 21.629660 22.828194
v 37.385422 22.548477 22.583069
v 37.385422 22.232960 22.828194
v 36.186203 21.628897 22.828194
v 42.382812 22.190975 22.828194
v 40.560417 20.807360 22.828194
v 40.573769 20.477745 22.583069
v 38.733063 22.194326 22.828194
v 38.655418 21.920641 22.583069
v 37.385422 22.859985 22.828194
v 37.385422 22.548477 22.583069
v 36.115425 21.920641 22.583069
v 36.186203 21.628897 22.828194
v 34.620422 20.375408 22.828194
v 31.948668 17.661673 22.828194
v 31.035414 15.518294 22.828194
v 31.035414 14.915348 22.583069
v 30.122164 17.661673 22.828194
v 29.915365 17.530251 22.583069
v 28.270418 20.375408 22.828194
v 27.873774 20.477745 22.583069
v 29.765425 21.920641 22.583069
v 29.682817 22.190975 22.828194
v 31.035414 22.859985 22.828194
v 31.350191 12.699986 22.828194
v 31.424006 14.919996 22.828194
v 31.035414 12.573997 22.574196
v 31.035414 14.915348 22.583069
v 30.717916 14.919996 22.828194
v 29.915365 17.530251 22.583069
v 29.675051 17.397791 22.828194
v 27.873774 20.477745 22.583069
v 27.860415 20.002485 22.828194
v 26.045759 17.397791 22.828194
v 31.424006 14.919996 22.828194
v 32.395760 17.397791 22.828194
v 32.155449 17.530251 22.583069
v 34.223778 20.477745 22.583069
v 33.789886 20.374849 22.828194
v 32.305412 21.920641 22.583069
v 32.236221 21.629660 22.828194
v 31.035414 22.548477 22.583069
v 31.035414 22.232960 22.828194
v 29.836199 21.628897 22.828194
v 25.598669 17.661673 22.828194
v 24.685415 15.518294 22.828194
v 24.685415 14.915348 22.583069
v 23.772161 17.661673 22.828194
v 23.565367 17.530251 22.583069
v 21.920420 20.375408 22.828194
v 21.523775 20.477745 22.583069
v 23.415422 21.920641 22.583069
v 23.332819 22.190975 22.828194
v 24.685415 22.859985 22.828194
v 25.000193 12.699986 22.828194
v 25.074007 14.919996 22.828194
v 24.685415 12.573997 22.574196
v 24.685415 14.915348 22.583069
v 24.367914 14.919996 22.828194
v 23.565367 17.530251 22.583069
v 23.325052 17.397791 22.828194
v 21.523775 20.477745 22.583069
v 21.510412 20.002485 22.828194
v 19.695761 17.397791 22.828194
v 25.074007 14.919996 22.828194
v 26.045759 17.397791 22.828194
v 25.805452 17.530251 22.583069
v 27.873774 20.477745 22.583069
v 27.439890 20.374849 22.828194
v 25.955416 21.920641 22.583069
v 25.886225 21.629660 22.828194
v 24.685415 22.548477 22.583069
v 24.685415 22.232960 22.828194
v 23.486197 21.628897 22.828194
v 29.682817 22.190975 22.828194
v 27.860415 20.807360 22.828194
v 27.873774 20.477745 22.583069
v 26.033060 22.194326 22.828194
v 25.955416 21.920641 22.583069
v 24.685415 22.859985 22.828194
v 24.685415 22.548477 22.583069
v 23.415422 21.920641 22.583069
v 23.486197 21.628897 22.828194
v 21.920420 20.375408 22.828194
v 6.548670 17.661673 22.828194
v 5.635412 15.518294 22.828194
v 5.635412 14.915348 22.583069
v 4.722162 17.661673 22.828194
v 4.515364 17.530251 22.583069
v 2.870420 20.375408 22.828194
v 2.473776 20.477745 22.583069
v 4.365423 21.920641 22.583069
v 4.282820 22.190975 22.828194
v 5.635412 22.859985 22.828194
v 5.950193 12.699986 22.828194
v 6.024008 14.919996 22.828194
v 5.635412 12.573997 22.574196
v 5.635412 14.915348 22.583069
v 5.317911 14.919996 22.828194
v 4.515364 17.530251 22.583069
v 4.275053 17.397791 22.828194
v 2.473776 20.477745 22.583069
v 2.460417 20.002485 22.828194
v 0.645761 17.397791 22.828194
v 6.024008 14.919996 22.828194
v 6.995760 17.397791 22.828194
v 6.755453 17.530251 22.583069
v 8.823774 20.477745 22.583069
v 8.389891 20.374849 22.828194
v 6.905413 21.920641 22.583069
v 6.836226 21.629660 22.828194
v 5.635412 22.548477 22.583069
v 5.635412 22.232960 22.828194
v 4.436201 21.628897 22.828194
v 6.995760 17.397791 22.828194
v 8.810411 20.002485 22.828194
v 8.823774 20.477745 22.583069
v 10.625051 17.397791 22.828194
v 10.865362 17.530251 22.583069
v 11.667913 14.919996 22.828194
v 11.985411 14.915348 22.583069
v 11.985411 12.573997 22.574196
v 12.374010 14.919996 22.828194
v 12.300192 12.699986 22.828194
v 9.220419 20.375408 22.828194
v 10.786200 21.628897 22.828194
v 10.715425 21.920641 22.583069
v 11.985411 22.548477 22.583069
v 11.985411 22.859985 22.828194
v 13.255411 21.920641 22.583069
v 13.333059 22.194326 22.828194
v 15.173777 20.477745 22.583069
v 15.160414 20.807360 22.828194
v 16.982813 22.190975 22.828194
v 10.786200 21.628897 22.828194
v 11.985411 22.232960 22.828194
v 11.985411 22.548477 22.583069
v 13.186224 21.629660 22.828194
v 13.255411 21.920641 22.583069
v 14.739893 20.374849 22.828194
v 15.173777 20.477745 22.583069
v 13.105448 17.530251 22.583069
v 13.345762 17.397791 22.828194
v 12.374010 14.919996 22.828194
v 11.985411 22.859985 22.828194
v 10.632818 22.190975 22.828194
v 10.715425 21.920641 22.583069
v 8.823774 20.477745 22.583069
v 9.220419 20.375408 22.828194
v 10.865362 17.530251 22.583069
v 11.072165 17.661673 22.828194
v 11.985411 14.915348 22.583069
v 11.985411 15.518294 22.828194
v 12.898668 17.661673 22.828194
v 0.198669 17.661673 22.828194
v -0.714584 15.518294 22.828194
v -0.714584 14.915348 22.583069
v -1.627836 17.661673 22.828194
v -1.834635 17.530251 22.583069
v -3.479580 20.375408 22.828194
v -3.876225 20.477745 22.583069
v -1.984577 21.920641 22.583069
v -2.067183 22.190975 22.828194
v -0.714584 22.859985 22.828194
v -0.399805 12.699986 22.828194
v -0.325993 14.919996 22.828194
v -0.714584 12.573997 22.574196
v -0.714584 14.915348 22.583069
v -1.032085 14.919996 22.828194
v -1.834635 17.530251 22.583069
v -2.074945 17.397791 22.828194
v -3.876225 20.477745 22.583069
v -3.889585 20.002485 22.828194
v -5.704239 17.397791 22.828194
v -0.325993 14.919996 22.828194
v 0.645761 17.397791 22.828194
v 0.405455 17.530251 22.583069
v 2.473776 20.477745 22.583069
v 2.039892 20.374849 22.828194
v 0.555414 21.920641 22.583069
v 0.486225 21.629660 22.828194
v -0.714584 22.548477 22.583069
v -0.714584 22.232960 22.828194
v -1.913801 21.628897 22.828194
v 4.282820 22.190975 22.828194
v 2.460417 20.807360 22.828194
v 2.473776 20.477745 22.583069
v 0.633062 22.194326 22.828194
v 0.555414 21.920641 22.583069
v -0.714584 22.859985 22.828194
v -0.714584 22.548477 22.583069
v -1.984577 21.920641 22.583069
v -1.913801 21.628897 22.828194
v -3.479580 20.375408 22.828194
v 43.735420 15.518294 22.828194
v 43.735420 14.915348 22.583069
v 44.648674 17.661673 22.828194
v 44.855453 17.530251 22.583069
v 46.489891 20.374849 22.828194
v 46.923767 20.477745 22.583069
v 45.005417 21.920641 22.583069
v 45.083061 22.194326 22.828194
v 43.735420 22.859985 22.828194
v 69.135422 22.232960 22.828194
v 69.135422 22.548477 22.583069
v 67.936195 21.628897 22.828194
v 67.865417 21.920641 22.583069
v 66.370415 20.375408 22.828194
v 65.973770 20.477745 22.583069
v 68.015366 17.530251 22.583069
v 67.775047 17.397791 22.828194
v 68.817917 14.919996 22.828194
v 43.735420 22.232960 22.828194
v 43.735420 22.548477 22.583069
v 42.536201 21.628897 22.828194
v 42.465424 21.920641 22.583069
v 40.970413 20.375408 22.828194
v 40.573769 20.477745 22.583069
v 42.615356 17.530251 22.583069
v 42.375053 17.397791 22.828194
v 43.417923 14.919996 22.828194
v 18.335413 15.518294 22.828194
v 18.335413 14.915348 22.583069
v 19.248671 17.661673 22.828194
v 19.455450 17.530251 22.583069
v 21.089891 20.374849 22.828194
v 21.523775 20.477745 22.583069
v 19.605413 21.920641 22.583069
v 19.683062 22.194326 22.828194
v 18.335413 22.859985 22.828194
v 18.335413 22.232960 22.828194
v 18.335413 22.548477 22.583069
v 17.136198 21.628897 22.828194
v 17.065420 21.920641 22.583069
v 15.570421 20.375408 22.828194
v 15.173777 20.477745 22.583069
v 17.215364 17.530251 22.583069
v 16.975050 17.397791 22.828194
v 18.017912 14.919996 22.828194
v -7.064585 15.518294 22.828194
v -7.064585 14.915348 22.583069
v -6.151327 17.661673 22.828194
v -5.944546 17.530251 22.583069
v -4.310108 20.374849 22.828194
v -3.876225 20.477745 22.583069
v -5.794584 21.920641 22.583069
v -5.716938 22.194326 22.828194
v -7.064585 22.859985 22.828194
v 51.944542 9.129839 22.828194
v 52.586548 8.355139 22.828194
v 52.586548 8.355139 22.578499
v 52.950371 7.369415 22.828194
v 52.950371 7.369415 22.578499
v 52.950371 4.603736 22.828194
v 52.950371 4.603736 22.578499
v 47.051186 10.159986 22.450066
v 46.910423 10.159986 22.450020
v 46.910423 4.402646 22.450020
v 46.767418 10.159986 22.449989
v 46.767418 4.402645 22.449989
v 46.600288 7.369415 22.578506
v 46.600288 4.603736 22.578506
v 45.594437 9.129839 22.828194
v 46.236557 8.355139 22.828194
v 46.236557 8.355139 22.578506
v 46.600288 7.369415 22.828194
v 46.600288 7.369415 22.578506
v 46.600288 4.603736 22.828194
v 46.600288 4.603736 22.578506
v 64.644539 9.129839 22.828194
v 65.286552 8.355139 22.828194
v 65.286552 8.355139 22.578499
v 65.650375 7.369415 22.828194
v 65.650375 7.369415 22.578499
v 65.650375 4.603736 22.828194
v 65.650375 4.603736 22.578499
v 66.103432 10.159986 22.449989
v 65.960419 10.159986 22.450020
v 65.960419 4.402646 22.450020
v 65.817383 10.159986 22.450066
v 65.817390 4.402647 22.450066
v 65.650375 7.369415 22.578499
v 65.650375 4.603736 22.578499
v 66.270554 4.603736 22.578506
v 66.270554 4.603736 22.828194
v 66.270554 7.369415 22.578506
v 66.270554 7.369415 22.828194
v 66.634277 8.355139 22.578506
v 66.634277 8.355139 22.828194
v 67.276390 9.129839 22.828194
v 61.432816 22.190975 22.828194
v 59.610420 20.807360 22.828194
v 59.623772 20.477745 22.583069
v 57.783066 22.194326 22.828194
v 57.705421 21.920641 22.583069
v 56.435417 22.859985 22.828194
v 56.435417 22.548477 22.583069
v 68.817917 12.699986 22.828194
v 69.135422 12.573997 22.574196
v 68.817917 14.919996 22.828194
v 69.135422 14.915348 22.583069
v 68.015366 17.530251 22.583069
v 68.222160 17.661673 22.828194
v 66.370415 20.375408 22.828194
v 23.369539 9.114777 22.828194
v 24.011545 8.340076 22.828194
v 24.011545 8.340076 22.578499
v 24.375376 7.354352 22.828194
v 24.375376 7.354352 22.578499
v 24.375376 2.063736 22.828194
v 24.375368 2.063736 22.578499
v 42.419540 9.114777 22.828194
v 43.061554 8.340076 22.828194
v 43.061554 8.340076 22.578499
v 43.425377 7.354352 22.828194
v 43.425377 7.354352 22.578499
v 43.425377 2.063736 22.828194
v 43.425377 2.063736 22.578499
v 43.417923 12.699986 22.828194
v 43.735420 12.573997 22.574196
v 43.417923 14.919996 22.828194
v 43.735420 14.915348 22.583069
v 42.615356 17.530251 22.583069
v 42.822166 17.661673 22.828194
v 40.970413 20.375408 22.828194
v 36.032822 22.190975 22.828194
v 34.210419 20.807360 22.828194
v 34.223778 20.477745 22.583069
v 32.383057 22.194326 22.828194
v 32.305412 21.920641 22.583069
v 31.035414 22.859985 22.828194
v 31.035414 22.548477 22.583069
v -2.030462 9.114777 22.828194
v -1.388456 8.340076 22.828194
v -1.388456 8.340076 22.578499
v -1.024626 7.354352 22.828194
v -1.024626 7.354352 22.578499
v -1.024626 2.063736 22.828194
v -1.024632 2.063736 22.578499
v 4.319536 9.114777 22.828194
v 4.961542 8.340076 22.828194
v 4.961542 8.340076 22.578499
v 5.325373 7.354352 22.828194
v 5.325373 7.354352 22.578499
v 5.325373 2.063736 22.828194
v 5.325365 2.063736 22.578499
v -0.573820 10.159986 22.450066
v -0.714584 10.159986 22.450066
v -0.714584 1.862647 22.450066
v -0.857609 10.159986 22.450066
v -0.857609 1.862647 22.450066
v -1.024626 7.354352 22.578499
v -1.024632 2.063736 22.578499
v 10.669538 9.114777 22.828194
v 11.311548 8.340076 22.828194
v 11.311548 8.340076 22.578499
v 11.675371 7.354352 22.828194
v 11.675371 7.354352 22.578499
v 11.675371 2.063736 22.828194
v 11.675371 2.063736 22.578499
v 5.776182 10.159986 22.450066
v 5.635412 10.159986 22.450066
v 5.635412 1.862647 22.450066
v 5.492392 10.159986 22.450066
v 5.492392 1.862647 22.450066
v 5.325373 7.354352 22.578499
v 5.325365 2.063736 22.578499
v 17.019537 9.114777 22.828194
v 17.661547 8.340076 22.828194
v 17.661547 8.340076 22.578499
v 18.025370 7.354352 22.828194
v 18.025370 7.354352 22.578499
v 18.025370 2.063736 22.828194
v 18.025366 2.063736 22.578499
v 12.126181 10.159986 22.450066
v 11.985411 10.159986 22.450066
v 11.985411 1.862647 22.450066
v 11.842390 10.159986 22.450066
v 11.842390 1.862647 22.450066
v 11.675371 7.354352 22.578499
v 11.675371 2.063736 22.578499
v 10.632818 22.190975 22.828194
v 8.810411 20.807360 22.828194
v 8.823774 20.477745 22.583069
v 6.983061 22.194326 22.828194
v 6.905413 21.920641 22.583069
v 5.635412 22.859985 22.828194
v 5.635412 22.548477 22.583069
v 18.017912 12.699986 22.828194
v 18.335413 12.573997 22.574196
v 18.017912 14.919996 22.828194
v 18.335413 14.915348 22.583069
v 17.215364 17.530251 22.583069
v 17.422163 17.661673 22.828194
v 15.570421 20.375408 22.828194
v 50.084274 10.082363 22.828194
v 51.095581 9.692550 22.828194
v 51.095581 9.692550 22.578499
v 51.944542 9.129839 22.828194
v 51.944542 9.129839 22.578499
v 52.586548 8.355139 22.578499
v 49.072968 9.692550 22.578499
v 48.224022 9.129839 22.578499
v 48.224022 9.129839 22.828194
v 47.582008 8.355139 22.578499
v 47.582008 8.355139 22.828194
v 47.218178 7.369415 22.828194
v 43.734276 10.082363 22.828194
v 44.745575 9.692550 22.828194
v 44.745575 9.692550 22.578506
v 45.594437 9.129839 22.828194
v 45.594437 9.129839 22.578506
v 46.236557 8.355139 22.578506
v 62.784279 10.082363 22.828194
v 63.795578 9.692550 22.828194
v 63.795578 9.692550 22.578499
v 64.644539 9.129839 22.828194
v 64.644539 9.129839 22.578499
v 65.286552 8.355139 22.578499
v 59.610443 10.159986 22.450027
v 59.610443 4.402646 22.450027
v 59.751183 10.159986 22.450066
v 59.751427 4.402647 22.450066
v 59.918182 7.369415 22.578499
v 59.918182 4.603736 22.578499
v 61.772964 9.692550 22.578499
v 60.924019 9.129839 22.578499
v 60.924019 9.129839 22.828194
v 60.282013 8.355139 22.578499
v 60.282013 8.355139 22.828194
v 59.918182 7.369415 22.828194
v 21.509272 10.067327 22.828194
v 22.520582 9.677487 22.828194
v 22.520582 9.677487 22.578499
v 23.369539 9.114777 22.828194
v 23.369539 9.114777 22.578499
v 24.011545 8.340076 22.578499
v 20.497972 9.677487 22.578499
v 19.649027 9.114777 22.578499
v 19.649027 9.114777 22.828194
v 19.007021 8.340076 22.578499
v 19.007021 8.340076 22.828194
v 18.643190 7.354352 22.828194
v 40.559280 10.067327 22.828194
v 41.570580 9.677487 22.828194
v 41.570580 9.677487 22.578499
v 42.419540 9.114777 22.828194
v 42.419540 9.114777 22.578499
v 43.061554 8.340076 22.578499
v 37.385490 10.159986 22.450027
v 37.385490 1.862645 22.450027
v 37.526184 10.159986 22.450066
v 37.526436 1.862647 22.450066
v 37.693192 7.354352 22.578499
v 37.693192 2.063736 22.578499
v 39.547966 9.677487 22.578499
v 38.699028 9.114777 22.578499
v 38.699028 9.114777 22.828194
v 38.057014 8.340076 22.578499
v 38.057014 8.340076 22.828194
v 37.693192 7.354352 22.828194
v -3.890730 10.067327 22.828194
v -2.879425 9.677487 22.828194
v -2.879425 9.677487 22.578499
v -2.030462 9.114777 22.828194
v -2.030462 9.114777 22.578499
v -1.388456 8.340076 22.578499
v -4.902029 9.677487 22.578499
v -5.750975 9.114777 22.578499
v -5.750975 9.114777 22.828194
v -6.392984 8.340076 22.578499
v -6.392984 8.340076 22.828194
v -6.756813 7.354352 22.828194
v 2.459269 10.067327 22.828194
v 3.470575 9.677487 22.828194
v 3.470575 9.677487 22.578499
v 4.319536 9.114777 22.828194
v 4.319536 9.114777 22.578499
v 4.961542 8.340076 22.578499
v 1.447971 9.677487 22.578499
v 0.599028 9.114777 22.578499
v 0.599028 9.114777 22.828194
v -0.042984 8.340076 22.578499
v -0.042984 8.340076 22.828194
v -0.406813 7.354352 22.828194
v 8.809275 10.067327 22.828194
v 9.820574 9.677487 22.828194
v 9.820574 9.677487 22.578499
v 10.669538 9.114777 22.828194
v 10.669538 9.114777 22.578499
v 11.311548 8.340076 22.578499
v 7.797968 9.677487 22.578499
v 6.949026 9.114777 22.578499
v 6.949026 9.114777 22.828194
v 6.307016 8.340076 22.578499
v 6.307016 8.340076 22.828194
v 5.943190 7.354352 22.828194
v 15.159269 10.067327 22.828194
v 16.170572 9.677487 22.828194
v 16.170572 9.677487 22.578499
v 17.019537 9.114777 22.828194
v 17.019537 9.114777 22.578499
v 17.661547 8.340076 22.578499
v 14.147966 9.677487 22.578499
v 13.299025 9.114777 22.578499
v 13.299025 9.114777 22.828194
v 12.657015 8.340076 22.578499
v 12.657015 8.340076 22.828194
v 12.293188 7.354352 22.828194
v 53.260445 4.402646 22.450027
v 53.117386 10.159986 22.450066
v 53.117393 4.402647 22.450066
v 52.950371 7.369415 22.578499
v 52.950371 4.603736 22.578499
v 46.910423 4.402646 22.450020
v 47.051430 4.402647 22.450066
v 47.051186 10.159986 22.450066
v 47.218178 7.369415 22.578499
v 47.218178 10.159986 22.578499
v 48.224022 9.129839 22.828194
v 49.072968 9.692550 22.828194
v 49.072968 9.692550 22.578499
v 50.084274 10.082363 22.828194
v 50.084274 10.082390 22.578499
v 47.582008 8.355139 22.578499
v 47.218178 7.369415 22.578499
v 47.218178 7.369415 22.828194
v 47.218178 4.603736 22.578499
v 47.218178 4.603736 22.828194
v 60.924019 9.129839 22.828194
v 61.772964 9.692550 22.828194
v 61.772964 9.692550 22.578499
v 62.784279 10.082363 22.828194
v 62.784279 10.082390 22.578499
v 60.282013 8.355139 22.578499
v 59.918182 7.369415 22.578499
v 59.918182 7.369415 22.828194
v 59.918182 4.603736 22.578499
v 59.918182 4.603736 22.828194
v 65.960419 4.402646 22.450020
v 66.103432 4.402645 22.449989
v 66.103432 10.159986 22.449989
v 66.270554 7.369415 22.578506
v 66.270554 10.159986 22.578506
v 67.276390 9.129839 22.578506
v 67.276390 9.129839 22.828194
v 68.125259 9.692550 22.578506
v 68.125259 9.692550 22.828194
v 69.136566 10.082363 22.828194
v 53.260445 4.402646 22.450027
v 53.577972 4.603735 22.578506
v 53.260445 10.159986 22.450027
v 53.544456 5.841985 22.578506
v 53.544456 7.110944 22.578506
v 59.297050 7.110944 22.578506
v 59.297050 5.841985 22.578506
v 59.610443 10.159986 22.450027
v 59.292976 4.603735 22.578506
v 59.610443 4.402646 22.450027
v 52.839890 20.374849 22.828194
v 50.998680 17.661673 22.828194
v 51.205460 17.530251 22.583069
v 50.085419 14.915348 22.583069
v 50.474007 14.919996 22.828194
v 53.670418 20.375408 22.828194
v 55.236198 21.628897 22.828194
v 55.165421 21.920641 22.583069
v 56.435417 22.548477 22.583069
v 56.435417 22.859985 22.828194
v 43.735420 14.915348 22.583069
v 44.124008 14.919996 22.828194
v 44.855453 17.530251 22.583069
v 45.095764 17.397791 22.828194
v 46.923767 20.477745 22.583069
v 46.489891 20.374849 22.828194
v 45.005417 21.920641 22.583069
v 44.936218 21.629660 22.828194
v 43.735420 22.548477 22.583069
v 43.735420 22.232960 22.828194
v 59.189888 20.374849 22.828194
v 57.348679 17.661673 22.828194
v 57.555458 17.530251 22.583069
v 56.435417 14.915348 22.583069
v 56.824005 14.919996 22.828194
v 65.539886 20.374849 22.828194
v 63.698677 17.661673 22.828194
v 63.905457 17.530251 22.583069
v 62.785416 14.915348 22.583069
v 63.174004 14.919996 22.828194
v 69.135422 22.548477 22.583069
v 69.135422 22.859985 22.828194
v 67.865417 21.920641 22.583069
v 67.782814 22.190975 22.828194
v 65.973770 20.477745 22.583069
v 24.685472 1.862646 22.450027
v 24.542395 10.159986 22.450066
v 24.542395 1.862647 22.450066
v 24.375376 7.354352 22.578499
v 24.375368 2.063736 22.578499
v 18.476439 1.862647 22.450066
v 18.476183 10.159986 22.450066
v 18.335417 1.862647 22.450066
v 18.335417 10.159986 22.450066
v 18.192389 10.159986 22.450066
v 19.649027 9.114777 22.828194
v 20.497972 9.677487 22.828194
v 20.497972 9.677487 22.578499
v 21.509272 10.067327 22.828194
v 21.509272 10.067327 22.578499
v 19.007021 8.340076 22.578499
v 18.643190 7.354352 22.578499
v 18.643190 7.354352 22.828194
v 18.643190 2.063736 22.578499
v 18.643190 2.063736 22.828194
v 18.643190 10.159986 22.578499
v 18.476183 10.159986 22.450066
v 18.643190 7.354352 22.578499
v 18.476439 1.862647 22.450066
v 18.643190 2.063736 22.578499
v 43.425377 2.063736 22.578499
v 43.592392 1.862647 22.450066
v 43.425377 7.354352 22.578499
v 43.592392 10.159986 22.450066
v 43.425377 10.159986 22.578499
v 38.699028 9.114777 22.828194
v 39.547966 9.677487 22.828194
v 39.547966 9.677487 22.578499
v 40.559280 10.067327 22.828194
v 40.559280 10.067327 22.578499
v 38.057014 8.340076 22.578499
v 37.693192 7.354352 22.578499
v 37.693192 7.354352 22.828194
v 37.693192 2.063736 22.578499
v 37.693192 2.063736 22.828194
v 40.139893 20.374849 22.828194
v 38.298668 17.661673 22.828194
v 38.505455 17.530251 22.583069
v 37.385422 14.915348 22.583069
v 37.774010 14.919996 22.828194
v 43.735420 22.548477 22.583069
v 43.735420 22.859985 22.828194
v 42.465424 21.920641 22.583069
v 42.382812 22.190975 22.828194
v 40.573769 20.477745 22.583069
v 33.789886 20.374849 22.828194
v 31.948668 17.661673 22.828194
v 32.155449 17.530251 22.583069
v 31.035414 14.915348 22.583069
v 31.424006 14.919996 22.828194
v 27.439890 20.374849 22.828194
v 25.598669 17.661673 22.828194
v 25.805452 17.530251 22.583069
v 24.685415 14.915348 22.583069
v 25.074007 14.919996 22.828194
v 28.270418 20.375408 22.828194
v 29.836199 21.628897 22.828194
v 29.765425 21.920641 22.583069
v 31.035414 22.548477 22.583069
v 31.035414 22.859985 22.828194
v 18.335413 14.915348 22.583069
v 18.724009 14.919996 22.828194
v 19.455450 17.530251 22.583069
v 19.695761 17.397791 22.828194
v 21.523775 20.477745 22.583069
v 21.089891 20.374849 22.828194
v 19.605413 21.920641 22.583069
v 19.536226 21.629660 22.828194
v 18.335413 22.548477 22.583069
v 18.335413 22.232960 22.828194
v -5.750975 9.114777 22.828194
v -4.902029 9.677487 22.828194
v -4.902029 9.677487 22.578499
v -3.890730 10.067327 22.828194
v -3.890730 10.067327 22.578499
v -6.392984 8.340076 22.578499
v -6.756813 7.354352 22.578499
v -6.756813 7.354352 22.828194
v -6.756813 2.063736 22.578499
v -6.756813 2.063736 22.828194
v -6.756813 10.159986 22.578499
v -6.923819 10.159986 22.450066
v -6.756813 7.354352 22.578499
v -6.923565 1.862647 22.450066
v -6.756813 2.063736 22.578499
v -0.714584 1.862647 22.450066
v -0.573565 1.862647 22.450066
v -0.573820 10.159986 22.450066
v -0.406813 7.354352 22.578499
v -0.406813 10.159986 22.578499
v 0.599028 9.114777 22.828194
v 1.447971 9.677487 22.828194
v 1.447971 9.677487 22.578499
v 2.459269 10.067327 22.828194
v 2.459269 10.067327 22.578499
v -0.042984 8.340076 22.578499
v -0.406813 7.354352 22.578499
v -0.406813 7.354352 22.828194
v -0.406813 2.063736 22.578499
v -0.406813 2.063736 22.828194
v 5.635412 1.862647 22.450066
v 5.776434 1.862647 22.450066
v 5.776182 10.159986 22.450066
v 5.943190 7.354352 22.578499
v 5.943190 10.159986 22.578499
v 6.949026 9.114777 22.828194
v 7.797968 9.677487 22.828194
v 7.797968 9.677487 22.578499
v 8.809275 10.067327 22.828194
v 8.809275 10.067327 22.578499
v 6.307016 8.340076 22.578499
v 5.943190 7.354352 22.578499
v 5.943190 7.354352 22.828194
v 5.943190 2.063736 22.578499
v 5.943190 2.063736 22.828194
v 18.025366 2.063736 22.578499
v 18.192389 1.862647 22.450066
v 18.025370 7.354352 22.578499
v 18.192389 10.159986 22.450066
v 18.025370 10.159986 22.578499
v 11.985411 1.862647 22.450066
v 12.126432 1.862647 22.450066
v 12.126181 10.159986 22.450066
v 12.293188 7.354352 22.578499
v 12.293188 10.159986 22.578499
v 13.299025 9.114777 22.828194
v 14.147966 9.677487 22.828194
v 14.147966 9.677487 22.578499
v 15.159269 10.067327 22.828194
v 15.159269 10.067327 22.578499
v 12.657015 8.340076 22.578499
v 12.293188 7.354352 22.578499
v 12.293188 7.354352 22.828194
v 12.293188 2.063736 22.578499
v 12.293188 2.063736 22.828194
v 8.389891 20.374849 22.828194
v 6.548670 17.661673 22.828194
v 6.755453 17.530251 22.583069
v 5.635412 14.915348 22.583069
v 6.024008 14.919996 22.828194
v 14.739893 20.374849 22.828194
v 12.898668 17.661673 22.828194
v 13.105448 17.530251 22.583069
v 11.985411 14.915348 22.583069
v 12.374010 14.919996 22.828194
v 18.335413 22.548477 22.583069
v 18.335413 22.859985 22.828194
v 17.065420 21.920641 22.583069
v 16.982813 22.190975 22.828194
v 15.173777 20.477745 22.583069
v 2.039892 20.374849 22.828194
v 0.198669 17.661673 22.828194
v 0.405455 17.530251 22.583069
v -0.714584 14.915348 22.583069
v -0.325993 14.919996 22.828194
v 2.870420 20.375408 22.828194
v 4.436201 21.628897 22.828194
v 4.365423 21.920641 22.583069
v 5.635412 22.548477 22.583069
v 5.635412 22.859985 22.828194
v -7.064585 14.915348 22.583069
v -6.675991 14.919996 22.828194
v -5.944546 17.530251 22.583069
v -5.704239 17.397791 22.828194
v -3.876225 20.477745 22.583069
v -4.310108 20.374849 22.828194
v -5.794584 21.920641 22.583069
v -5.863773 21.629660 22.828194
v -7.064585 22.548477 22.583069
v -7.064585 22.232960 22.828194
v 43.735420 14.915348 22.583069
v 43.735420 12.573997 22.574196
v 44.124008 14.919996 22.828194
v 44.050201 12.699986 22.828194
v 48.732811 22.190975 22.828194
v 46.910423 20.807360 22.828194
v 46.923767 20.477745 22.583069
v 45.083061 22.194326 22.828194
v 67.775047 17.397791 22.828194
v 65.973770 20.477745 22.583069
v 65.960419 20.002485 22.828194
v 64.145767 17.397791 22.828194
v 43.735420 10.159986 22.450066
v 43.592392 10.159986 22.450066
v 43.735420 1.862647 22.450066
v 43.592392 1.862647 22.450066
v 37.068069 2.063736 22.578506
v 37.068062 10.159986 22.578506
v 37.068062 2.063736 22.828194
v 37.068062 10.159986 22.828194
v 37.385490 1.862645 22.450027
v 37.385490 10.159986 22.450027
v 37.068069 2.063736 22.578506
v 37.068062 10.159986 22.578506
v 25.003027 2.063736 22.578506
v 25.003027 2.063736 22.828194
v 25.003027 10.159986 22.578506
v 25.003027 10.159986 22.828194
v 24.685472 1.862646 22.450027
v 25.003027 2.063736 22.578506
v 24.685469 10.159986 22.450027
v 25.003027 10.159986 22.578506
v 42.375053 17.397791 22.828194
v 40.573769 20.477745 22.583069
v 40.560417 20.002485 22.828194
v 38.745766 17.397791 22.828194
v 18.335413 14.915348 22.583069
v 18.335413 12.573997 22.574196
v 18.724009 14.919996 22.828194
v 18.650194 12.699986 22.828194
v 23.332819 22.190975 22.828194
v 21.510412 20.807360 22.828194
v 21.523775 20.477745 22.583069
v 19.683062 22.194326 22.828194
v -6.923565 1.862647 22.450066
v -6.923819 10.159986 22.450066
v -7.064585 1.862647 22.450066
v -7.064585 10.159986 22.450066
v 16.975050 17.397791 22.828194
v 15.173777 20.477745 22.583069
v 15.160414 20.002485 22.828194
v 13.345762 17.397791 22.828194
v -7.064585 14.915348 22.583069
v -7.064585 12.573997 22.574196
v -6.675991 14.919996 22.828194
v -6.749804 12.699986 22.828194
v -2.067183 22.190975 22.828194
v -3.889585 20.807360 22.828194
v -3.876225 20.477745 22.583069
v -5.716938 22.194326 22.828194
v 53.117386 10.159986 22.450066
v 53.260445 4.402646 22.450027
v 53.260445 10.159986 22.450027
v 50.084274 10.082363 22.828194
v 51.095581 9.692550 22.578499
v 50.084274 10.082390 22.578499
v 53.117386 10.159986 22.450066
v 52.950371 10.159986 22.578499
v 52.950371 7.369415 22.578499
v 47.218178 4.603736 22.578499
v 47.218178 7.369415 22.578499
v 47.051430 4.402647 22.450066
v 43.734276 10.082363 22.828194
v 44.745575 9.692550 22.578506
v 43.734276 10.082390 22.578506
v 46.767418 10.159986 22.449989
v 46.600288 10.159986 22.578506
v 46.600288 7.369415 22.578506
v 62.784279 10.082363 22.828194
v 63.795578 9.692550 22.578499
v 62.784279 10.082390 22.578499
v 65.817383 10.159986 22.450066
v 65.650375 10.159986 22.578499
v 65.650375 7.369415 22.578499
v 59.918182 7.369415 22.578499
v 59.918182 10.159986 22.578499
v 59.751183 10.159986 22.450066
v 68.125259 9.692550 22.578506
v 69.136566 10.082363 22.828194
v 69.136566 10.082390 22.578506
v 66.634277 8.355139 22.578506
v 67.276390 9.129839 22.828194
v 67.276390 9.129839 22.578506
v 66.270554 7.369415 22.578506
v 66.103432 4.402645 22.449989
v 66.270554 4.603736 22.578506
v 53.568329 10.159986 22.578506
v 53.260445 10.159986 22.450027
v 53.544456 7.110944 22.578506
v 59.610443 10.159986 22.450027
v 59.300346 10.159986 22.578506
v 59.297050 7.110944 22.578506
v 56.117920 12.699986 22.828194
v 56.435417 12.573997 22.574196
v 56.117920 14.919996 22.828194
v 49.767921 12.699986 22.828194
v 50.085419 12.573997 22.574196
v 49.767921 14.919996 22.828194
v 45.005417 21.920641 22.583069
v 43.735420 22.859985 22.828194
v 43.735420 22.548477 22.583069
v 62.467918 12.699986 22.828194
v 62.785416 12.573997 22.574196
v 62.467918 14.919996 22.828194
v 68.222160 17.661673 22.828194
v 69.135422 14.915348 22.583069
v 69.135422 15.518294 22.828194
v 24.542395 10.159986 22.450066
v 24.685472 1.862646 22.450027
v 24.685469 10.159986 22.450027
v 21.509272 10.067327 22.828194
v 22.520582 9.677487 22.578499
v 21.509272 10.067327 22.578499
v 24.542395 10.159986 22.450066
v 24.375376 10.159986 22.578499
v 24.375376 7.354352 22.578499
v 40.559280 10.067327 22.828194
v 41.570580 9.677487 22.578499
v 40.559280 10.067327 22.578499
v 37.693192 7.354352 22.578499
v 37.693192 10.159986 22.578499
v 37.526184 10.159986 22.450066
v 42.822166 17.661673 22.828194
v 43.735420 14.915348 22.583069
v 43.735420 15.518294 22.828194
v 37.067917 12.699986 22.828194
v 37.385422 12.573997 22.574196
v 37.067917 14.919996 22.828194
v 30.717916 12.699986 22.828194
v 31.035414 12.573997 22.574196
v 30.717916 14.919996 22.828194
v 24.367914 12.699986 22.828194
v 24.685415 12.573997 22.574196
v 24.367914 14.919996 22.828194
v 19.605413 21.920641 22.583069
v 18.335413 22.859985 22.828194
v 18.335413 22.548477 22.583069
v -3.890730 10.067327 22.828194
v -2.879425 9.677487 22.578499
v -3.890730 10.067327 22.578499
v -0.857609 10.159986 22.450066
v -1.024626 10.159986 22.578499
v -1.024626 7.354352 22.578499
v 2.459269 10.067327 22.828194
v 3.470575 9.677487 22.578499
v 2.459269 10.067327 22.578499
v 5.492392 10.159986 22.450066
v 5.325373 10.159986 22.578499
v 5.325373 7.354352 22.578499
v -0.406813 2.063736 22.578499
v -0.406813 7.354352 22.578499
v -0.573565 1.862647 22.450066
v 8.809275 10.067327 22.828194
v 9.820574 9.677487 22.578499
v 8.809275 10.067327 22.578499
v 11.842390 10.159986 22.450066
v 11.675371 10.159986 22.578499
v 11.675371 7.354352 22.578499
v 5.943190 2.063736 22.578499
v 5.943190 7.354352 22.578499
v 5.776434 1.862647 22.450066
v 18.192389 10.159986 22.450066
v 18.192389 1.862647 22.450066
v 18.335417 1.862647 22.450066
v 15.159269 10.067327 22.828194
v 16.170572 9.677487 22.578499
v 15.159269 10.067327 22.578499
v 12.293188 2.063736 22.578499
v 12.293188 7.354352 22.578499
v 12.126432 1.862647 22.450066
v 11.667913 12.699986 22.828194
v 11.985411 12.573997 22.574196
v 11.667913 14.919996 22.828194
v 17.422163 17.661673 22.828194
v 18.335413 14.915348 22.583069
v 18.335413 15.518294 22.828194
v 5.317911 12.699986 22.828194
v 5.635412 12.573997 22.574196
v 5.317911 14.919996 22.828194
v -1.032085 12.699986 22.828194
v -0.714584 12.573997 22.574196
v -1.032085 14.919996 22.828194
v -5.794584 21.920641 22.583069
v -7.064585 22.859985 22.828194
v -7.064585 22.548477 22.583069
vt 3.997070 -2.110352
vt 4.960938 -3.296875
vt 3.997070 -3.026367
vt 3.997070 -2.110352
vt 4.960938 -2.110352
vt 3.997070 -0.516602
vt 4.960938 -0.358398
vt 4.960938 0.533203
vt 3.997070 0.533203
vt 3.997070 1.226562
vt 3.997070 -4.484375
vt 4.996094 -4.484375
vt 3.997070 -3.296875
vt 4.960938 -3.296875
vt 3.997070 -3.296875
vt 4.960938 -2.110352
vt 3.997070 -2.110352
vt 4.960938 -0.358398
vt 3.997070 -0.516602
vt 3.997070 -2.110352
vt 3.997070 -3.296875
vt 4.960938 -2.110352
vt 3.997070 -2.110352
vt 4.960938 -0.358398
vt 3.997070 -0.516602
vt 4.960938 0.533203
vt 3.997070 0.533203
vt 4.960938 1.276367
vt 3.997070 1.226562
vt 3.997070 0.533203
vt 3.997070 -2.110352
vt 4.960938 -0.358398
vt 3.997070 -0.516602
vt 3.997070 -2.110352
vt 4.960938 -2.110352
vt 3.997070 -3.296875
vt 4.960938 -3.296875
vt 4.996094 -4.484375
vt 3.997070 -3.296875
vt 3.997070 -4.484375
vt 3.997070 0.533203
vt 4.960938 1.276367
vt 3.997070 1.226562
vt 3.997070 0.533203
vt 4.960938 0.533203
vt 3.997070 -0.516602
vt 4.960938 -0.358398
vt 4.960938 -2.110352
vt 3.997070 -2.110352
vt 3.997070 -3.296875
vt 3.997070 1.226562
vt 4.960938 0.533203
vt 3.997070 0.533203
vt 4.960938 -0.358398
vt 3.997070 -0.516602
vt 4.960938 -2.110352
vt 3.997070 -2.110352
vt 4.960938 -3.296875
vt 3.997070 -3.026367
vt 3.997070 -2.110352
vt 3.997070 0.533203
vt 4.960938 -0.358398
vt 3.997070 -0.396484
vt 3.997070 0.533203
vt 4.960938 0.533203
vt 3.997070 1.226562
vt 4.960938 1.276367
vt 4.960938 0.533203
vt 3.997070 0.533203
vt 3.997070 -0.516602
vt 3.997070 -2.110352
vt 4.960938 -0.358398
vt 3.997070 -0.516602
vt 3.997070 -2.110352
vt 4.960938 -2.110352
vt 3.997070 -3.296875
vt 4.960938 -3.296875
vt 4.996094 -4.484375
vt 3.997070 -3.296875
vt 3.997070 -4.484375
vt 3.997070 -0.516602
vt 4.960938 0.533203
vt 3.997070 0.533203
vt 4.960938 1.276367
vt 3.997070 1.226562
vt 4.960938 0.533203
vt 3.997070 0.533203
vt 4.960938 -0.358398
vt 3.997070 -0.396484
vt 3.997070 0.533203
vt 3.997070 0.533203
vt 4.960938 1.276367
vt 3.997070 1.226562
vt 3.997070 0.533203
vt 4.960938 0.533203
vt 3.997070 -0.516602
vt 4.960938 -0.358398
vt 4.960938 -2.110352
vt 3.997070 -2.110352
vt 3.997070 -3.296875
vt 3.997070 1.226562
vt 4.960938 0.533203
vt 3.997070 0.533203
vt 4.960938 -0.358398
vt 3.997070 -0.516602
vt 4.960938 -2.110352
vt 3.997070 -2.110352
vt 4.960938 -3.296875
vt 3.997070 -3.026367
vt 3.997070 -2.110352
vt 3.997070 -2.110352
vt 4.960938 -3.296875
vt 3.997070 -3.026367
vt 3.997070 -2.110352
vt 4.960938 -2.110352
vt 3.997070 -0.516602
vt 4.960938 -0.358398
vt 4.960938 0.533203
vt 3.997070 0.533203
vt 3.997070 1.226562
vt 3.997070 -4.484375
vt 4.996094 -4.484375
vt 3.997070 -3.296875
vt 4.960938 -3.296875
vt 3.997070 -3.296875
vt 4.960938 -2.110352
vt 3.997070 -2.110352
vt 4.960938 -0.358398
vt 3.997070 -0.516602
vt 3.997070 -2.110352
vt 3.997070 -3.296875
vt 4.960938 -2.110352
vt 3.997070 -2.110352
vt 4.960938 -0.358398
vt 3.997070 -0.516602
vt 4.960938 0.533203
vt 3.997070 0.533203
vt 4.960938 1.276367
vt 3.997070 1.226562
vt 3.997070 0.533203
vt 3.997070 0.533203
vt 4.960938 -0.358398
vt 3.997070 -0.396484
vt 3.997070 0.533203
vt 4.960938 0.533203
vt 3.997070 1.226562
vt 4.960938 1.276367
vt 4.960938 0.533203
vt 3.997070 0.533203
vt 3.997070 -0.516602
vt 3.997070 -2.110352
vt 4.960938 -3.296875
vt 3.997070 -3.026367
vt 3.997070 -2.110352
vt 4.960938 -2.110352
vt 3.997070 -0.516602
vt 4.960938 -0.358398
vt 4.960938 0.533203
vt 3.997070 0.533203
vt 3.997070 1.226562
vt 3.997070 -4.484375
vt 4.996094 -4.484375
vt 3.997070 -3.296875
vt 4.960938 -3.296875
vt 3.997070 -3.296875
vt 4.960938 -2.110352
vt 3.997070 -2.110352
vt 4.960938 -0.358398
vt 3.997070 -0.516602
vt 3.997070 -2.110352
vt 3.997070 -3.296875
vt 4.960938 -2.110352
vt 3.997070 -2.110352
vt 4.960938 -0.358398
vt 3.997070 -0.516602
vt 4.960938 0.533203
vt 3.997070 0.533203
vt 4.960938 1.276367
vt 3.997070 1.226562
vt 3.997070 0.533203
vt 3.997070 -2.110352
vt 4.960938 -3.296875
vt 3.997070 -3.026367
vt 3.997070 -2.110352
vt 4.960938 -2.110352
vt 3.997070 -0.516602
vt 4.960938 -0.358398
vt 4.960938 0.533203
vt 3.997070 0.533203
vt 3.997070 1.226562
vt 3.997070 -4.484375
vt 4.996094 -4.484375
vt 3.997070 -3.296875
vt 4.960938 -3.296875
vt 3.997070 -3.296875
vt 4.960938 -2.110352
vt 3.997070 -2.110352
vt 4.960938 -0.358398
vt 3.997070 -0.516602
vt 3.997070 -2.110352
vt 3.997070 -3.296875
vt 4.960938 -2.110352
vt 3.997070 -2.110352
vt 4.960938 -0.358398
vt 3.997070 -0.516602
vt 4.960938 0.533203
vt 3.997070 0.533203
vt 4.960938 1.276367
vt 3.997070 1.226562
vt 3.997070 0.533203
vt 3.997070 0.533203
vt 4.960938 -0.358398
vt 3.997070 -0.396484
vt 3.997070 0.533203
vt 4.960938 0.533203
vt 3.997070 1.226562
vt 4.960938 1.276367
vt 4.960938 0.533203
vt 3.997070 0.533203
vt 3.997070 -0.516602
vt 3.997070 -2.110352
vt 4.960938 -3.296875
vt 3.997070 -3.026367
vt 3.997070 -2.110352
vt 4.960938 -2.110352
vt 3.997070 -0.516602
vt 4.960938 -0.358398
vt 4.960938 0.533203
vt 3.997070 0.533203
vt 3.997070 1.226562
vt 3.997070 -4.484375
vt 4.996094 -4.484375
vt 3.997070 -3.296875
vt 4.960938 -3.296875
vt 3.997070 -3.296875
vt 4.960938 -2.110352
vt 3.997070 -2.110352
vt 4.960938 -0.358398
vt 3.997070 -0.516602
vt 3.997070 -2.110352
vt 3.997070 -3.296875
vt 4.960938 -2.110352
vt 3.997070 -2.110352
vt 4.960938 -0.358398
vt 3.997070 -0.516602
vt 4.960938 0.533203
vt 3.997070 0.533203
vt 4.960938 1.276367
vt 3.997070 1.226562
vt 3.997070 0.533203
vt 3.997070 -2.110352
vt 4.960938 -0.358398
vt 3.997070 -0.516602
vt 3.997070 -2.110352
vt 4.960938 -2.110352
vt 3.997070 -3.296875
vt 4.960938 -3.296875
vt 4.996094 -4.484375
vt 3.997070 -3.296875
vt 3.997070 -4.484375
vt 3.997070 -0.516602
vt 4.960938 0.533203
vt 3.997070 0.533203
vt 4.960938 1.276367
vt 3.997070 1.226562
vt 4.960938 0.533203
vt 3.997070 0.533203
vt 4.960938 -0.358398
vt 3.997070 -0.396484
vt 3.997070 0.533203
vt 3.997070 0.533203
vt 4.960938 1.276367
vt 3.997070 1.226562
vt 3.997070 0.533203
vt 4.960938 0.533203
vt 3.997070 -0.516602
vt 4.960938 -0.358398
vt 4.960938 -2.110352
vt 3.997070 -2.110352
vt 3.997070 -3.296875
vt 3.997070 1.226562
vt 4.960938 0.533203
vt 3.997070 0.533203
vt 4.960938 -0.358398
vt 3.997070 -0.516602
vt 4.960938 -2.110352
vt 3.997070 -2.110352
vt 4.960938 -3.296875
vt 3.997070 -3.026367
vt 3.997070 -2.110352
vt 3.997070 -2.110352
vt 4.960938 -3.296875
vt 3.997070 -3.026367
vt 3.997070 -2.110352
vt 4.960938 -2.110352
vt 3.997070 -0.516602
vt 4.960938 -0.358398
vt 4.960938 0.533203
vt 3.997070 0.533203
vt 3.997070 1.226562
vt 3.997070 -4.484375
vt 4.996094 -4.484375
vt 3.997070 -3.296875
vt 4.960938 -3.296875
vt 3.997070 -3.296875
vt 4.960938 -2.110352
vt 3.997070 -2.110352
vt 4.960938 -0.358398
vt 3.997070 -0.516602
vt 3.997070 -2.110352
vt 3.997070 -3.296875
vt 4.960938 -2.110352
vt 3.997070 -2.110352
vt 4.960938 -0.358398
vt 3.997070 -0.516602
vt 4.960938 0.533203
vt 3.997070 0.533203
vt 4.960938 1.276367
vt 3.997070 1.226562
vt 3.997070 0.533203
vt 3.997070 0.533203
vt 4.960938 -0.358398
vt 3.997070 -0.396484
vt 3.997070 0.533203
vt 4.960938 0.533203
vt 3.997070 1.226562
vt 4.960938 1.276367
vt 4.960938 0.533203
vt 3.997070 0.533203
vt 3.997070 -0.516602
vt 3.997070 -3.026367
vt 3.997070 -2.110352
vt 4.960938 -3.296875
vt 4.960938 -2.110352
vt 3.997070 -0.516602
vt 4.960938 -0.358398
vt 4.960938 0.533203
vt 3.997070 0.533203
vt 3.997070 1.226562
vt 3.997070 1.226562
vt 3.997070 0.533203
vt 4.960938 1.276367
vt 4.960938 0.533203
vt 3.997070 -0.516602
vt 4.960938 -0.358398
vt 4.960938 -2.110352
vt 3.997070 -2.110352
vt 3.997070 -3.296875
vt 3.997070 1.226562
vt 3.997070 0.533203
vt 4.960938 1.276367
vt 4.960938 0.533203
vt 3.997070 -0.516602
vt 4.960938 -0.358398
vt 4.960938 -2.110352
vt 3.997070 -2.110352
vt 3.997070 -3.296875
vt 3.997070 -3.026367
vt 3.997070 -2.110352
vt 4.960938 -3.296875
vt 4.960938 -2.110352
vt 3.997070 -0.516602
vt 4.960938 -0.358398
vt 4.960938 0.533203
vt 3.997070 0.533203
vt 3.997070 1.226562
vt 3.997070 1.226562
vt 3.997070 0.533203
vt 4.960938 1.276367
vt 4.960938 0.533203
vt 3.997070 -0.516602
vt 4.960938 -0.358398
vt 4.960938 -2.110352
vt 3.997070 -2.110352
vt 3.997070 -3.296875
vt 3.997070 -3.026367
vt 3.997070 -2.110352
vt 4.960938 -3.296875
vt 4.960938 -2.110352
vt 3.997070 -0.516602
vt 4.960938 -0.358398
vt 4.960938 0.533203
vt 3.997070 0.533203
vt 3.997070 1.226562
vt -3.995117 1.492188
vt -3.807617 0.958008
vt -3.995117 0.958008
vt -3.995117 0.155273
vt -3.807617 0.155273
vt -3.995117 -1.048828
vt -3.807617 -1.048828
vt -3.357422 1.423828
vt -2.995117 -1.133789
vt -2.995117 1.423828
vt -3.357422 1.423828
vt -3.361328 -1.135742
vt -3.807617 0.164062
vt -3.807617 -1.048828
vt -3.995117 1.492188
vt -3.807617 0.958008
vt -3.995117 0.958008
vt -3.995117 0.155273
vt -3.807617 0.155273
vt -3.995117 -1.048828
vt -3.807617 -1.048828
vt -3.995117 1.492188
vt -3.807617 0.958008
vt -3.995117 0.958008
vt -3.995117 0.155273
vt -3.807617 0.155273
vt -3.995117 -1.048828
vt -3.807617 -1.048828
vt -3.357422 1.423828
vt -2.995117 -1.133789
vt -2.995117 1.423828
vt -3.357422 1.423828
vt -3.361328 -1.135742
vt -3.807617 0.164062
vt -3.807617 -1.048828
vt -3.807617 -1.048828
vt -3.807617 0.155273
vt -3.995117 -1.048828
vt -3.995117 0.155273
vt -3.807617 0.958008
vt -3.995117 0.958008
vt -3.995117 1.492188
vt 3.997070 0.533203
vt 4.960938 -0.358398
vt 3.997070 -0.396484
vt 3.997070 0.533203
vt 4.960938 0.533203
vt 3.997070 1.226562
vt 4.960938 1.276367
vt 3.997070 -4.484375
vt 3.997070 -3.296875
vt 4.996094 -4.484375
vt 4.960938 -3.296875
vt 4.960938 -2.110352
vt 3.997070 -2.110352
vt 3.997070 -0.516602
vt -3.995117 1.964844
vt -3.807617 1.643555
vt -3.995117 1.643555
vt -3.995117 1.160156
vt -3.807617 1.160156
vt -3.995117 -1.178711
vt -3.807617 -1.178711
vt -3.995117 1.964844
vt -3.807617 1.643555
vt -3.995117 1.643555
vt -3.995117 1.160156
vt -3.807617 1.160156
vt -3.995117 -1.178711
vt -3.807617 -1.178711
vt 3.997070 -4.484375
vt 3.997070 -3.296875
vt 4.996094 -4.484375
vt 4.960938 -3.296875
vt 4.960938 -2.110352
vt 3.997070 -2.110352
vt 3.997070 -0.516602
vt 3.997070 0.533203
vt 4.960938 -0.358398
vt 3.997070 -0.396484
vt 3.997070 0.533203
vt 4.960938 0.533203
vt 3.997070 1.226562
vt 4.960938 1.276367
vt -3.995117 1.964844
vt -3.807617 1.643555
vt -3.995117 1.643555
vt -3.995117 1.160156
vt -3.807617 1.160156
vt -3.995117 -1.178711
vt -3.807617 -1.178711
vt -3.995117 1.964844
vt -3.807617 1.643555
vt -3.995117 1.643555
vt -3.995117 1.160156
vt -3.807617 1.160156
vt -3.995117 -1.178711
vt -3.807617 -1.178711
vt -3.357422 2.427734
vt -2.995117 -1.263672
vt -2.995117 2.427734
vt -3.357422 2.427734
vt -3.361328 -1.266602
vt -3.807617 1.167969
vt -3.807617 -1.178711
vt -3.995117 1.964844
vt -3.807617 1.643555
vt -3.995117 1.643555
vt -3.995117 1.160156
vt -3.807617 1.160156
vt -3.995117 -1.178711
vt -3.807617 -1.178711
vt -3.357422 2.427734
vt -2.995117 -1.263672
vt -2.995117 2.427734
vt -3.357422 2.427734
vt -3.361328 -1.266602
vt -3.807617 1.167969
vt -3.807617 -1.178711
vt -3.995117 1.964844
vt -3.807617 1.643555
vt -3.995117 1.643555
vt -3.995117 1.160156
vt -3.807617 1.160156
vt -3.995117 -1.178711
vt -3.807617 -1.178711
vt -3.357422 2.427734
vt -2.995117 -1.263672
vt -2.995117 2.427734
vt -3.357422 2.427734
vt -3.361328 -1.266602
vt -3.807617 1.167969
vt -3.807617 -1.178711
vt 3.997070 0.533203
vt 4.960938 -0.358398
vt 3.997070 -0.396484
vt 3.997070 0.533203
vt 4.960938 0.533203
vt 3.997070 1.226562
vt 4.960938 1.276367
vt 3.997070 -4.484375
vt 3.997070 -3.296875
vt 4.996094 -4.484375
vt 4.960938 -3.296875
vt 4.960938 -2.110352
vt 3.997070 -2.110352
vt 3.997070 -0.516602
vt -3.995117 2.139648
vt -3.807617 1.911133
vt -3.995117 1.911133
vt -3.995117 1.492188
vt -3.807617 1.492188
vt -3.807617 0.958008
vt -3.807617 1.911133
vt -3.995117 1.492188
vt -3.807617 1.492188
vt -3.807617 0.958008
vt -3.995117 0.958008
vt -3.995117 0.155273
vt -3.995117 2.139648
vt -3.807617 1.911133
vt -3.995117 1.911133
vt -3.995117 1.492188
vt -3.807617 1.492188
vt -3.807617 0.958008
vt -3.995117 2.139648
vt -3.807617 1.911133
vt -3.995117 1.911133
vt -3.995117 1.492188
vt -3.807617 1.492188
vt -3.807617 0.958008
vt -2.995117 1.423828
vt -3.357422 1.423828
vt -2.995117 -1.133789
vt -3.361328 -1.135742
vt -3.807617 0.164062
vt -3.807617 -1.048828
vt -3.807617 1.911133
vt -3.995117 1.492188
vt -3.807617 1.492188
vt -3.807617 0.958008
vt -3.995117 0.958008
vt -3.995117 0.155273
vt -3.995117 2.801758
vt -3.807617 2.360352
vt -3.995117 2.360352
vt -3.995117 1.964844
vt -3.807617 1.964844
vt -3.807617 1.643555
vt -3.807617 2.360352
vt -3.995117 1.964844
vt -3.807617 1.964844
vt -3.807617 1.643555
vt -3.995117 1.643555
vt -3.995117 1.160156
vt -3.995117 2.801758
vt -3.807617 2.360352
vt -3.995117 2.360352
vt -3.995117 1.964844
vt -3.807617 1.964844
vt -3.807617 1.643555
vt -2.995117 2.427734
vt -3.357422 2.427734
vt -2.995117 -1.263672
vt -3.361328 -1.266602
vt -3.807617 1.167969
vt -3.807617 -1.178711
vt -3.807617 2.360352
vt -3.995117 1.964844
vt -3.807617 1.964844
vt -3.807617 1.643555
vt -3.995117 1.643555
vt -3.995117 1.160156
vt -3.995117 2.801758
vt -3.807617 2.360352
vt -3.995117 2.360352
vt -3.995117 1.964844
vt -3.807617 1.964844
vt -3.807617 1.643555
vt -3.807617 2.360352
vt -3.995117 1.964844
vt -3.807617 1.964844
vt -3.807617 1.643555
vt -3.995117 1.643555
vt -3.995117 1.160156
vt -3.995117 2.801758
vt -3.807617 2.360352
vt -3.995117 2.360352
vt -3.995117 1.964844
vt -3.807617 1.964844
vt -3.807617 1.643555
vt -3.807617 2.360352
vt -3.995117 1.964844
vt -3.807617 1.964844
vt -3.807617 1.643555
vt -3.995117 1.643555
vt -3.995117 1.160156
vt -3.995117 2.801758
vt -3.807617 2.360352
vt -3.995117 2.360352
vt -3.995117 1.964844
vt -3.807617 1.964844
vt -3.807617 1.643555
vt -3.807617 2.360352
vt -3.995117 1.964844
vt -3.807617 1.964844
vt -3.807617 1.643555
vt -3.995117 1.643555
vt -3.995117 1.160156
vt -3.995117 2.801758
vt -3.807617 2.360352
vt -3.995117 2.360352
vt -3.995117 1.964844
vt -3.807617 1.964844
vt -3.807617 1.643555
vt -3.807617 2.360352
vt -3.995117 1.964844
vt -3.807617 1.964844
vt -3.807617 1.643555
vt -3.995117 1.643555
vt -3.995117 1.160156
vt -2.995117 -1.133789
vt -3.361328 -1.135742
vt -3.357422 1.423828
vt -3.807617 0.164062
vt -3.807617 -1.048828
vt -2.995117 -1.133789
vt -3.357422 1.423828
vt -3.361328 -1.135742
vt -3.807617 0.164062
vt -3.807617 1.426758
vt -3.995117 1.492188
vt -3.807617 1.911133
vt -3.995117 1.911133
vt -3.995117 2.139648
vt -3.807617 2.139648
vt -3.807617 0.958008
vt -3.995117 0.155273
vt -3.807617 0.155273
vt -3.807617 -1.048828
vt -3.995117 -1.048828
vt -3.995117 1.492188
vt -3.807617 1.911133
vt -3.995117 1.911133
vt -3.995117 2.139648
vt -3.807617 2.139648
vt -3.807617 0.958008
vt -3.995117 0.155273
vt -3.807617 0.155273
vt -3.807617 -1.048828
vt -3.995117 -1.048828
vt -2.995117 -1.133789
vt -3.357422 1.423828
vt -3.361328 -1.135742
vt -3.807617 0.164062
vt -3.807617 1.426758
vt -3.807617 1.492188
vt -3.807617 1.911133
vt -3.995117 1.492188
vt -3.995117 1.911133
vt -3.995117 2.139648
vt -2.995117 -0.138672
vt -2.995117 2.427734
vt -3.807617 -0.058594
vt -3.807617 0.500000
vt -3.807617 1.059570
vt -3.807617 1.059570
vt -2.995117 2.427734
vt -3.807617 0.496094
vt -3.807617 -0.049805
vt -2.995117 -0.130859
vt 3.997070 -0.516602
vt 4.960938 -2.110352
vt 3.997070 -2.110352
vt 4.960938 -3.296875
vt 3.997070 -3.296875
vt 3.997070 -0.516602
vt 4.960938 0.533203
vt 3.997070 0.533203
vt 4.960938 1.276367
vt 3.997070 1.226562
vt 4.960938 -3.296875
vt 4.960938 -2.110352
vt 3.997070 -3.296875
vt 3.997070 -2.110352
vt 4.960938 -0.358398
vt 3.997070 -0.516602
vt 3.997070 0.533203
vt 4.960938 0.533203
vt 4.960938 1.276367
vt 3.997070 1.226562
vt 3.997070 -0.516602
vt 4.960938 -2.110352
vt 3.997070 -2.110352
vt 4.960938 -3.296875
vt 3.997070 -3.296875
vt 3.997070 -0.516602
vt 4.960938 -2.110352
vt 3.997070 -2.110352
vt 4.960938 -3.296875
vt 3.997070 -3.296875
vt 4.960938 1.276367
vt 4.960938 0.533203
vt 3.997070 1.226562
vt 3.997070 0.533203
vt 4.960938 -0.358398
vt -2.995117 -1.263672
vt -3.361328 -1.266602
vt -3.357422 2.427734
vt -3.807617 1.167969
vt -3.807617 -1.178711
vt -3.361328 -1.266602
vt -2.995117 -1.263672
vt -3.357422 2.427734
vt -2.995117 2.427734
vt -3.357422 2.427734
vt -3.995117 1.964844
vt -3.807617 2.360352
vt -3.995117 2.360352
vt -3.995117 2.801758
vt -3.807617 2.801758
vt -3.807617 1.643555
vt -3.995117 1.160156
vt -3.807617 1.160156
vt -3.807617 -1.178711
vt -3.995117 -1.178711
vt -3.807617 2.430664
vt -3.807617 1.167969
vt -3.357422 2.427734
vt -3.361328 -1.266602
vt -3.807617 -1.178711
vt -3.807617 -1.178711
vt -3.807617 1.167969
vt -3.361328 -1.266602
vt -3.357422 2.427734
vt -3.807617 2.430664
vt -3.995117 1.964844
vt -3.807617 2.360352
vt -3.995117 2.360352
vt -3.995117 2.801758
vt -3.807617 2.801758
vt -3.807617 1.643555
vt -3.995117 1.160156
vt -3.807617 1.160156
vt -3.807617 -1.178711
vt -3.995117 -1.178711
vt 3.997070 -0.516602
vt 4.960938 -2.110352
vt 3.997070 -2.110352
vt 4.960938 -3.296875
vt 3.997070 -3.296875
vt 4.960938 1.276367
vt 4.960938 0.533203
vt 3.997070 1.226562
vt 3.997070 0.533203
vt 4.960938 -0.358398
vt 3.997070 -0.516602
vt 4.960938 -2.110352
vt 3.997070 -2.110352
vt 4.960938 -3.296875
vt 3.997070 -3.296875
vt 3.997070 -0.516602
vt 4.960938 -2.110352
vt 3.997070 -2.110352
vt 4.960938 -3.296875
vt 3.997070 -3.296875
vt 3.997070 -0.516602
vt 4.960938 0.533203
vt 3.997070 0.533203
vt 4.960938 1.276367
vt 3.997070 1.226562
vt 4.960938 -3.296875
vt 4.960938 -2.110352
vt 3.997070 -3.296875
vt 3.997070 -2.110352
vt 4.960938 -0.358398
vt 3.997070 -0.516602
vt 3.997070 0.533203
vt 4.960938 0.533203
vt 4.960938 1.276367
vt 3.997070 1.226562
vt -3.995117 1.964844
vt -3.807617 2.360352
vt -3.995117 2.360352
vt -3.995117 2.801758
vt -3.807617 2.801758
vt -3.807617 1.643555
vt -3.995117 1.160156
vt -3.807617 1.160156
vt -3.807617 -1.178711
vt -3.995117 -1.178711
vt -3.807617 2.430664
vt -3.807617 1.167969
vt -3.357422 2.427734
vt -3.361328 -1.266602
vt -3.807617 -1.178711
vt -2.995117 -1.263672
vt -3.357422 2.427734
vt -3.361328 -1.266602
vt -3.807617 1.167969
vt -3.807617 2.430664
vt -3.995117 1.964844
vt -3.807617 2.360352
vt -3.995117 2.360352
vt -3.995117 2.801758
vt -3.807617 2.801758
vt -3.807617 1.643555
vt -3.995117 1.160156
vt -3.807617 1.160156
vt -3.807617 -1.178711
vt -3.995117 -1.178711
vt -2.995117 -1.263672
vt -3.357422 2.427734
vt -3.361328 -1.266602
vt -3.807617 1.167969
vt -3.807617 2.430664
vt -3.995117 1.964844
vt -3.807617 2.360352
vt -3.995117 2.360352
vt -3.995117 2.801758
vt -3.807617 2.801758
vt -3.807617 1.643555
vt -3.995117 1.160156
vt -3.807617 1.160156
vt -3.807617 -1.178711
vt -3.995117 -1.178711
vt -3.807617 -1.178711
vt -3.807617 1.167969
vt -3.361328 -1.266602
vt -3.357422 2.427734
vt -3.807617 2.430664
vt -2.995117 -1.263672
vt -3.357422 2.427734
vt -3.361328 -1.266602
vt -3.807617 1.167969
vt -3.807617 2.430664
vt -3.995117 1.964844
vt -3.807617 2.360352
vt -3.995117 2.360352
vt -3.995117 2.801758
vt -3.807617 2.801758
vt -3.807617 1.643555
vt -3.995117 1.160156
vt -3.807617 1.160156
vt -3.807617 -1.178711
vt -3.995117 -1.178711
vt 3.997070 -0.516602
vt 4.960938 -2.110352
vt 3.997070 -2.110352
vt 4.960938 -3.296875
vt 3.997070 -3.296875
vt 3.997070 -0.516602
vt 4.960938 -2.110352
vt 3.997070 -2.110352
vt 4.960938 -3.296875
vt 3.997070 -3.296875
vt 4.960938 1.276367
vt 4.960938 0.533203
vt 3.997070 1.226562
vt 3.997070 0.533203
vt 4.960938 -0.358398
vt 3.997070 -0.516602
vt 4.960938 -2.110352
vt 3.997070 -2.110352
vt 4.960938 -3.296875
vt 3.997070 -3.296875
vt 3.997070 -0.516602
vt 4.960938 0.533203
vt 3.997070 0.533203
vt 4.960938 1.276367
vt 3.997070 1.226562
vt 4.960938 -3.296875
vt 4.960938 -2.110352
vt 3.997070 -3.296875
vt 3.997070 -2.110352
vt 4.960938 -0.358398
vt 3.997070 -0.516602
vt 3.997070 0.533203
vt 4.960938 0.533203
vt 4.960938 1.276367
vt 3.997070 1.226562
vt 4.960938 -3.296875
vt 3.997070 -3.296875
vt 4.996094 -4.484375
vt 3.997070 -4.484375
vt 3.997070 0.533203
vt 4.960938 -0.358398
vt 3.997070 -0.396484
vt 3.997070 0.533203
vt 3.997070 -2.110352
vt 3.997070 -0.516602
vt 4.960938 -0.358398
vt 3.997070 -2.110352
vt -2.995117 2.427734
vt -2.995117 -1.263672
vt -3.357422 2.427734
vt -3.361328 -1.266602
vt 4.235352 -3.171875
vt 4.000000 -3.171875
vt 4.235352 0.434570
vt 4.000000 0.434570
vt 4.992188 -3.258789
vt 4.235352 -3.171875
vt 4.992188 0.434570
vt 4.235352 0.434570
vt 4.235352 -3.171875
vt 4.235352 0.434570
vt 4.000000 -3.171875
vt 4.000000 0.434570
vt 4.992188 -3.258789
vt 4.992188 0.434570
vt 4.235352 -3.171875
vt 4.235352 0.434570
vt 3.997070 -2.110352
vt 3.997070 -0.516602
vt 4.960938 -0.358398
vt 3.997070 -2.110352
vt 4.960938 -3.296875
vt 3.997070 -3.296875
vt 4.996094 -4.484375
vt 3.997070 -4.484375
vt 3.997070 0.533203
vt 4.960938 -0.358398
vt 3.997070 -0.396484
vt 3.997070 0.533203
vt -3.361328 -1.266602
vt -2.995117 -1.263672
vt -3.357422 2.427734
vt -2.995117 2.427734
vt 3.997070 -2.110352
vt 3.997070 -0.516602
vt 4.960938 -0.358398
vt 3.997070 -2.110352
vt 4.960938 -3.296875
vt 3.997070 -3.296875
vt 4.996094 -4.484375
vt 3.997070 -4.484375
vt 3.997070 0.533203
vt 4.960938 -0.358398
vt 3.997070 -0.396484
vt 3.997070 0.533203
vt -3.357422 1.423828
vt -2.995117 1.423828
vt -2.995117 -1.133789
vt -3.995117 2.139648
vt -3.807617 2.139648
vt -3.807617 1.911133
vt -3.357422 1.423828
vt -3.807617 0.164062
vt -3.807617 1.426758
vt -3.807617 -1.048828
vt -3.361328 -1.135742
vt -3.807617 0.164062
vt -3.995117 2.139648
vt -3.807617 2.139648
vt -3.807617 1.911133
vt -3.357422 1.423828
vt -3.807617 0.164062
vt -3.807617 1.426758
vt -3.995117 2.139648
vt -3.807617 2.139648
vt -3.807617 1.911133
vt -3.357422 1.423828
vt -3.807617 0.164062
vt -3.807617 1.426758
vt -3.807617 0.164062
vt -3.357422 1.423828
vt -3.807617 1.426758
vt -3.807617 1.911133
vt -3.807617 2.139648
vt -3.995117 2.139648
vt -3.807617 0.958008
vt -3.807617 1.492188
vt -3.995117 1.492188
vt -3.807617 0.164062
vt -3.807617 -1.048828
vt -3.361328 -1.135742
vt -3.807617 2.430664
vt -3.807617 1.059570
vt -2.995117 2.427734
vt -2.995117 2.427734
vt -3.807617 1.059570
vt -3.807617 2.430664
vt 3.997070 -4.484375
vt 3.997070 -3.296875
vt 4.996094 -4.484375
vt 3.997070 -4.484375
vt 3.997070 -3.296875
vt 4.996094 -4.484375
vt 4.960938 0.533203
vt 4.960938 1.276367
vt 3.997070 1.226562
vt 3.997070 -4.484375
vt 3.997070 -3.296875
vt 4.996094 -4.484375
vt 3.997070 -2.110352
vt 3.997070 -3.026367
vt 4.960938 -3.296875
vt -3.357422 2.427734
vt -2.995117 2.427734
vt -2.995117 -1.263672
vt -3.995117 2.801758
vt -3.807617 2.801758
vt -3.807617 2.360352
vt -3.357422 2.427734
vt -3.807617 1.167969
vt -3.807617 2.430664
vt -3.995117 2.801758
vt -3.807617 2.801758
vt -3.807617 2.360352
vt -3.807617 1.167969
vt -3.357422 2.427734
vt -3.807617 2.430664
vt 3.997070 -2.110352
vt 3.997070 -3.026367
vt 4.960938 -3.296875
vt 3.997070 -4.484375
vt 3.997070 -3.296875
vt 4.996094 -4.484375
vt 3.997070 -4.484375
vt 3.997070 -3.296875
vt 4.996094 -4.484375
vt 3.997070 -4.484375
vt 3.997070 -3.296875
vt 4.996094 -4.484375
vt 4.960938 0.533203
vt 4.960938 1.276367
vt 3.997070 1.226562
vt -3.995117 2.801758
vt -3.807617 2.801758
vt -3.807617 2.360352
vt -3.357422 2.427734
vt -3.807617 1.167969
vt -3.807617 2.430664
vt -3.995117 2.801758
vt -3.807617 2.801758
vt -3.807617 2.360352
vt -3.357422 2.427734
vt -3.807617 1.167969
vt -3.807617 2.430664
vt -3.807617 -1.178711
vt -3.361328 -1.266602
vt -3.807617 1.167969
vt -3.995117 2.801758
vt -3.807617 2.801758
vt -3.807617 2.360352
vt -3.357422 2.427734
vt -3.807617 1.167969
vt -3.807617 2.430664
vt -3.807617 -1.178711
vt -3.361328 -1.266602
vt -3.807617 1.167969
vt -3.357422 2.427734
vt -2.995117 -1.263672
vt -3.361328 -1.266602
vt -3.995117 2.801758
vt -3.807617 2.801758
vt -3.807617 2.360352
vt -3.807617 -1.178711
vt -3.361328 -1.266602
vt -3.807617 1.167969
vt 3.997070 -4.484375
vt 3.997070 -3.296875
vt 4.996094 -4.484375
vt 3.997070 -2.110352
vt 3.997070 -3.026367
vt 4.960938 -3.296875
vt 3.997070 -4.484375
vt 3.997070 -3.296875
vt 4.996094 -4.484375
vt 3.997070 -4.484375
vt 3.997070 -3.296875
vt 4.996094 -4.484375
vt 4.960938 0.533203
vt 4.960938 1.276367
vt 3.997070 1.226562
vn -0.6623 0.2822 -0.6941
vn -0.8136 0.3130 -0.4901
vn 0.6623 0.2822 -0.6941
vn 0.6690 0.2851 -0.6864
vn 0.6377 0.6959 0.3303
vn 0.6476 0.2804 -0.7085
vn 0.6539 0.2812 -0.7024
vn 0.5844 0.3987 -0.7068
vn 0.8748 0.1872 -0.4468
vn 0.5911 0.2531 -0.7659
vn 0.7267 0.5877 -0.3555
vn 0.2344 0.2183 -0.9473
vn 0.0235 -0.1802 -0.9834
vn 0.4856 -0.7511 -0.4473
vn 0.6986 -0.6188 0.3591
vn -0.4021 0.8756 0.2675
vn -0.4118 0.5399 -0.7342
vn -0.3226 0.5798 -0.7482
vn -0.2927 0.5917 -0.7512
vn 0.6329 -0.0210 -0.7739
vn 0.6399 -0.1625 -0.7511
vn 0.7150 -0.0238 -0.6987
vn 0.5333 0.0169 -0.8458
vn 0.5473 -0.0200 -0.8367
vn 0.4363 0.7186 -0.5416
vn -0.9460 -0.1772 0.2713
vn -0.4874 0.0298 -0.8727
vn -0.6208 0.4088 -0.6689
vn -0.4832 -0.6490 -0.5877
vn -0.5075 -0.2352 -0.8290
vn -0.5553 -0.3113 -0.7712
vn -0.6874 -0.1725 -0.7055
vn -0.5668 -0.2392 -0.7884
vn -0.6656 -0.2686 -0.6963
vn -0.5893 -0.4099 -0.6962
vn -0.5021 -0.3557 -0.7883
vn -0.5584 -0.3867 -0.7339
vn -0.5643 -0.3088 -0.7657
vn -0.5376 -0.3745 -0.7554
vn -0.5357 -0.3751 -0.7565
vn 0.5620 -0.3916 -0.7286
vn 0.6231 -0.2444 -0.7429
vn 0.6909 -0.2160 -0.6900
vn 0.5684 -0.2229 -0.7920
vn 0.4905 -0.3545 -0.7961
vn 0.5691 -0.4490 -0.6888
vn 0.6314 -0.7455 0.2136
vn -0.7418 0.4712 0.4771
vn -0.1770 0.1904 -0.9656
vn -0.7340 0.5699 -0.3695
vn -0.4687 -0.6978 -0.5417
vn -0.0418 -0.2019 -0.9785
vn -0.2536 -0.4634 -0.8491
vn -0.8028 -0.3653 -0.4712
vn -0.3934 -0.4854 -0.7808
vn -0.4789 -0.5579 -0.6778
vn -0.2985 -0.6193 -0.7262
vn -0.2352 -0.5271 -0.8166
vn -0.1301 -0.7453 -0.6539
vn -0.3572 -0.5355 -0.7653
vn -0.1815 -0.3613 -0.9146
vn -0.4286 -0.7073 -0.5622
vn 0.4596 -0.7310 -0.5044
vn 0.1821 -0.3614 -0.9145
vn 0.2953 -0.5861 -0.7545
vn 0.8412 -0.5138 -0.1687
vn 0.1452 -0.1012 -0.9842
vn -0.1033 -0.0720 -0.9920
vn -0.8009 -0.4961 -0.3354
vn -0.5445 -0.7508 -0.3739
vn -0.6873 -0.1725 -0.7055
vn -0.9602 -0.1019 -0.2599
vn 0.5335 0.0032 -0.8458
vn 0.8945 -0.1010 -0.4355
vn 0.2953 -0.5862 -0.7545
vn -0.1301 -0.7453 -0.6540
vn -0.2352 -0.5272 -0.8166
vn -0.3935 -0.4853 -0.7808
vn 0.6313 -0.7455 0.2136
vn 0.6909 -0.2160 -0.6899
vn -0.3038 0.5203 -0.7981
vn -0.3100 0.6267 -0.7149
vn -0.4537 0.5763 -0.6797
vn -0.3341 0.5337 -0.7769
vn 0.7271 -0.5743 0.3761
vn 0.0235 -0.1801 -0.9834
vn 0.7267 0.5878 -0.3555
vn 0.5633 0.3046 -0.7680
vn 0.6223 0.4241 -0.6579
vn 0.5386 0.3747 -0.7547
vn 0.6089 0.2625 -0.7486
vn 0.7013 0.2917 -0.6504
vn 0.7754 0.5963 -0.2078
vn 0.6509 0.3524 -0.6724
vn 0.0733 0.0312 -0.9968
vn 0.9342 0.3233 -0.1506
vn -0.9491 0.3097 0.0578
vn -0.0733 0.0312 -0.9968
vn -0.4060 0.5347 -0.7411
vn -0.6084 0.6952 -0.3829
vn -0.1810 0.2384 -0.9542
vn 0.2058 0.2712 -0.9402
vn 0.6005 0.6978 -0.3905
vn 0.3870 0.6191 -0.6833
vn 0.2322 0.8198 -0.5235
vn 0.3828 0.5088 -0.7711
vn 0.4457 0.5771 -0.6843
vn 0.3106 0.6267 -0.7147
vn 0.2529 0.5498 -0.7961
vn 0.1355 0.7638 -0.6310
vn 0.3430 0.5434 -0.7662
vn 0.1338 0.4110 -0.9018
vn 0.4212 0.7150 -0.5580
vn -0.4489 0.7382 -0.5036
vn -0.1183 0.3798 -0.9175
vn -0.5406 0.7014 0.4646
vn 0.8028 -0.5228 0.2865
vn 0.2329 -0.5224 -0.8203
vn 0.2251 -0.6366 -0.7376
vn 0.5319 -0.5094 -0.6764
vn 0.3923 -0.4900 -0.7784
vn 0.4184 -0.5226 -0.7428
vn 0.8411 -0.5138 -0.1687
vn -0.5668 -0.2391 -0.7884
vn -0.5074 -0.2352 -0.8290
vn 0.1355 0.7639 -0.6310
vn 0.3105 0.6267 -0.7147
vn 0.4458 0.5771 -0.6843
vn 0.6006 0.6977 -0.3905
vn -0.6083 0.6953 -0.3829
vn -0.2352 -0.5272 -0.8165
vn 0.5691 -0.4490 -0.6889
vn 0.6231 -0.2444 -0.7430
vn -0.4021 0.8756 0.2676
vn 0.5633 0.3046 -0.7681
vn 0.5386 0.3746 -0.7547
vn 0.7755 0.5962 -0.2078
vn 0.0734 0.0312 -0.9968
vn -0.9491 0.3096 0.0578
vn 0.7754 0.5963 -0.2079
vn 0.6089 0.2625 -0.7485
vn 0.7013 0.2917 -0.6505
vn 0.5385 0.3747 -0.7547
vn -0.3341 0.5336 -0.7769
vn -0.5552 -0.3113 -0.7712
vn -0.5642 -0.3088 -0.7657
vn -0.1034 -0.0720 -0.9920
vn -0.8008 -0.4962 -0.3354
vn -0.7340 0.5699 -0.3694
vn 0.8028 -0.5228 0.2866
vn 0.5319 -0.5095 -0.6764
vn 0.9342 0.3233 -0.1505
vn 0.6908 -0.2160 -0.6900
vn -0.7419 0.4712 0.4771
vn -0.8027 -0.3654 -0.4713
vn -0.2986 -0.6193 -0.7262
vn -0.0734 0.0312 -0.9968
vn 0.6090 0.2625 -0.7485
vn 0.8412 -0.5137 -0.1687
vn 0.5620 -0.3916 -0.7285
vn -0.1810 0.2383 -0.9542
vn 0.2059 0.2712 -0.9402
vn 0.3870 0.6191 -0.6834
vn 0.2322 0.8198 -0.5234
vn -0.5446 -0.7508 -0.3739
vn -0.8028 -0.3654 -0.4712
vn -0.3935 -0.4854 -0.7808
vn 0.3429 0.5434 -0.7662
vn -0.6083 0.6952 -0.3829
vn 0.5634 0.3046 -0.7680
vn -0.0733 0.0313 -0.9968
vn -0.2806 -0.5676 -0.7740
vn -0.2946 -0.5863 -0.7547
vn -0.2979 -0.5856 -0.7538
vn 0.3923 -0.4900 -0.7785
vn -0.6511 0.3516 -0.6726
vn -0.6641 0.2816 -0.6926
vn -0.6485 0.2778 -0.7087
vn -0.7008 0.2916 -0.6511
vn -0.6087 0.2643 -0.7481
vn -0.6229 0.4222 -0.6586
vn -0.8854 0.2068 -0.4163
vn -0.5412 0.3721 -0.7541
vn -0.4970 0.2640 -0.8266
vn -0.2066 0.2037 -0.9570
vn -0.6985 0.5726 -0.4293
vn -0.0193 -0.1776 -0.9839
vn -0.7396 -0.5939 0.3168
vn -0.4703 -0.7376 -0.4845
vn 0.4155 0.8785 0.2358
vn 0.3290 0.5373 -0.7766
vn 0.4485 0.5783 -0.6815
vn 0.3062 0.5199 -0.7974
vn 0.2918 0.5908 -0.7521
vn 0.3085 0.6246 -0.7175
vn 0.3574 -0.5387 -0.7629
vn 0.2992 -0.5854 -0.7535
vn 0.2791 -0.5646 -0.7768
vn 0.2354 -0.5269 -0.8166
vn 0.2997 -0.6167 -0.7280
vn 0.3903 -0.4854 -0.7823
vn 0.8031 -0.3320 -0.4949
vn 0.4715 -0.5580 -0.6829
vn 0.2890 -0.5013 -0.8156
vn 0.0465 -0.2050 -0.9777
vn 0.4869 -0.7127 -0.5049
vn 0.2045 0.2048 -0.9572
vn 0.7028 0.4334 0.5641
vn 0.7590 0.5805 -0.2947
vn -0.6139 -0.7520 0.2399
vn -0.5676 -0.4398 -0.6960
vn -0.5002 -0.3554 -0.7896
vn -0.6762 -0.2333 -0.6988
vn -0.6159 -0.2592 -0.7439
vn -0.5687 -0.2393 -0.7870
vn 0.2991 -0.5854 -0.7535
vn 0.2997 -0.6166 -0.7280
vn 0.8030 -0.3320 -0.4949
vn 0.2045 0.2047 -0.9572
vn -0.5687 -0.2394 -0.7869
vn -0.6086 0.2644 -0.7481
vn -0.8854 0.2068 -0.4162
vn -0.5412 0.3720 -0.7541
vn -0.2066 0.2036 -0.9570
vn -0.6984 0.5726 -0.4293
vn 0.4155 0.8785 0.2359
vn 0.4485 0.5782 -0.6815
vn 0.2791 -0.5645 -0.7768
vn 0.4715 -0.5580 -0.6828
vn 0.7590 0.5806 -0.2947
vn -0.6139 -0.7520 0.2400
vn -0.5676 -0.4397 -0.6960
vn -0.7007 0.2916 -0.6511
vn -0.7395 -0.5939 0.3168
vn 0.4485 0.5782 -0.6816
vn 0.2918 0.5909 -0.7521
vn -0.7700 -0.6381 0.0000
vn -0.7290 -0.6612 0.1772
vn -0.7590 -0.6290 -0.1684
vn -0.9247 -0.3413 -0.1684
vn -0.9393 -0.3086 0.1501
vn -0.9828 -0.1803 -0.0407
vn -0.8750 -0.4829 0.0357
vn -0.9235 -0.3409 0.1759
vn -0.9094 -0.3790 -0.1711
vn -0.9844 0.0000 -0.1759
vn -0.9844 0.0158 0.1752
vn -1.0000 0.0000 0.0000
vn -0.9844 -0.1752 0.0158
vn 0.0003 0.0000 -1.0000
vn 0.0007 -0.0000 -1.0000
vn 0.0002 0.0000 -1.0000
vn -0.0005 0.0282 -0.9996
vn 0.0003 -0.2177 -0.9760
vn 0.0284 0.0007 -0.9996
vn -0.9576 0.0442 -0.2848
vn -0.8867 -0.0299 -0.4615
vn -0.6096 0.0000 -0.7927
vn -0.7659 -0.3257 -0.5543
vn -0.7699 -0.6381 0.0000
vn -0.7289 -0.6613 0.1772
vn -0.7589 -0.6290 -0.1685
vn -0.9248 -0.3412 -0.1685
vn -0.8749 -0.4829 0.0357
vn -0.9236 -0.3408 0.1758
vn -0.9095 -0.3789 -0.1711
vn -0.9844 0.0000 -0.1758
vn -0.9844 0.0158 0.1751
vn -0.9844 -0.1751 0.0158
vn -0.0002 0.0000 -1.0000
vn -0.0003 0.0000 -1.0000
vn -0.0010 0.0281 -0.9996
vn -0.0003 -0.2174 -0.9761
vn 0.0278 0.0007 -0.9996
vn -0.9574 0.0442 -0.2852
vn -0.8865 -0.0299 -0.4617
vn -0.7660 -0.3254 -0.5545
vn 1.0000 0.0000 0.0000
vn 0.9844 -0.1751 0.0158
vn 0.9844 0.0158 0.1751
vn 0.9844 0.0000 -0.1758
vn 0.9236 -0.3408 0.1758
vn 0.8750 -0.4829 0.0357
vn 0.9095 -0.3789 -0.1711
vn 0.9828 -0.1803 -0.0407
vn 0.9393 -0.3085 0.1501
vn 0.9248 -0.3412 -0.1685
vn 0.7289 -0.6613 0.1772
vn 0.7699 -0.6381 0.0000
vn 0.7589 -0.6290 -0.1685
vn 0.6005 0.6977 -0.3905
vn 0.2916 0.5903 -0.7527
vn 0.2924 0.5914 -0.7515
vn -0.6247 0.0000 -0.7809
vn -0.6123 -0.1352 -0.7790
vn -0.6252 -0.0022 -0.7804
vn -0.5990 0.0030 -0.8008
vn -0.4980 0.0274 -0.8667
vn -0.6874 0.0425 -0.7250
vn -0.4975 -0.2324 -0.8357
vn -0.8365 -0.1403 0.5298
vn -0.6807 -0.3348 -0.6516
vn 0.7363 0.3370 0.5868
vn 0.5904 0.3000 -0.7492
vn 0.7034 0.2917 -0.6482
vn 0.5604 0.3390 -0.7557
vn 0.6204 0.4234 -0.6602
vn -0.7290 -0.6612 0.1771
vn -0.9393 -0.3087 0.1501
vn -0.9844 0.0083 0.1757
vn -0.9844 -0.1757 0.0084
vn -0.9844 -0.1757 0.0083
vn -0.5989 0.0030 -0.8008
vn 0.7363 0.3370 0.5867
vn 0.5904 0.3000 -0.7493
vn 0.5603 0.3389 -0.7557
vn 0.5843 0.3987 -0.7068
vn 0.2916 0.5904 -0.7526
vn 0.0000 0.0000 -1.0000
vn -0.0005 0.0280 -0.9996
vn 0.0000 -0.2176 -0.9760
vn 0.0280 0.0005 -0.9996
vn -0.9576 0.0440 -0.2848
vn -0.8872 -0.0162 -0.4611
vn -0.7743 -0.3166 -0.5479
vn 0.0001 -0.2176 -0.9760
vn 0.2917 0.5905 -0.7525
vn 0.6204 0.4233 -0.6602
vn -0.3597 -0.9331 0.0000
vn -0.3327 -0.9361 0.1139
vn -0.3575 -0.9276 -0.1085
vn -0.5492 -0.8286 -0.1085
vn -0.5696 -0.8162 0.0972
vn -0.6559 -0.7542 -0.0319
vn -0.4687 -0.8830 0.0238
vn -0.5465 -0.8246 0.1462
vn -0.5209 -0.8436 -0.1301
vn -0.7846 -0.6007 -0.1538
vn -0.7617 -0.6312 0.1462
vn 0.5525 -0.8335 0.0000
vn 0.5141 -0.8438 -0.1538
vn 0.5466 -0.8246 0.1462
vn 0.7617 -0.6312 0.1462
vn 0.7836 -0.6075 -0.1301
vn 0.8566 -0.5146 0.0373
vn 0.6800 -0.7325 -0.0323
vn 0.7590 -0.6290 -0.1684
vn 0.7369 -0.6591 0.1503
vn 0.9370 -0.3010 0.1770
vn 0.9247 -0.3413 -0.1684
vn 0.9381 -0.3463 0.0000
vn -0.3327 -0.9361 0.1140
vn -0.5493 -0.8286 -0.1086
vn -0.5696 -0.8161 0.0972
vn -0.5466 -0.8246 0.1461
vn -0.5210 -0.8436 -0.1300
vn -0.7845 -0.6007 -0.1537
vn -0.7616 -0.6313 0.1461
vn -0.7699 -0.6382 0.0000
vn 0.0010 0.0281 -0.9996
vn -0.0279 0.0007 -0.9996
vn 0.0003 -0.2176 -0.9760
vn 0.9577 0.0442 -0.2844
vn 0.6099 0.0000 -0.7925
vn 0.8868 -0.0299 -0.4611
vn 0.7667 -0.3257 -0.5532
vn 0.6102 0.0000 -0.7923
vn -0.3576 -0.9276 -0.1085
vn -0.5696 -0.8162 0.0971
vn 0.0008 0.0280 -0.9996
vn -0.0277 0.0005 -0.9996
vn 0.9577 0.0440 -0.2845
vn 0.6098 0.0000 -0.7926
vn 0.8873 -0.0162 -0.4609
vn 0.7750 -0.3167 -0.5469
vn 0.6106 0.0000 -0.7920
vn 0.9371 -0.3010 0.1770
vn -0.0002 -0.2175 -0.9761
vn 0.4767 0.0118 -0.8790
vn -0.7263 0.0118 -0.6872
vn -0.8866 -0.0299 -0.4616
vn -0.7659 -0.3254 -0.5544
vn -0.6015 0.0147 -0.7987
vn 0.0003 -0.0266 -0.9996
vn 0.9583 -0.0416 -0.2828
vn 0.6176 0.0007 -0.7865
vn 0.6091 0.0094 -0.7931
vn 0.6096 0.0000 -0.7927
vn 0.6093 0.0000 -0.7930
vn 0.5720 -0.8123 0.1141
vn 0.5492 -0.8286 -0.1085
vn 0.3575 -0.9276 -0.1085
vn 0.3370 -0.9365 0.0970
vn 0.3597 -0.9331 0.0000
vn 0.4484 -0.8936 0.0221
vn 0.3597 -0.9331 -0.0001
vn 0.9058 -0.3812 -0.1848
vn 0.9235 -0.3409 0.1759
vn 0.9844 0.0000 0.1759
vn 0.9868 0.0145 -0.1611
vn 0.9868 -0.1611 -0.0145
vn 0.4484 -0.8936 0.0222
vn -0.6022 0.0149 -0.7982
vn -0.0002 -0.0266 -0.9996
vn 0.9582 -0.0417 -0.2830
vn 0.6171 0.0007 -0.7869
vn 0.6090 0.0095 -0.7931
vn 0.4687 -0.8830 0.0238
vn 0.5696 -0.8161 0.0972
vn 0.5493 -0.8286 -0.1085
vn 0.3327 -0.9361 0.1140
vn 0.3575 -0.9276 -0.1086
vn 0.3751 0.0000 -0.9270
vn 0.3374 -0.0007 -0.9414
vn 0.3774 -0.0042 -0.9261
vn 0.7966 0.0216 -0.6041
vn 0.7743 0.0314 -0.6320
vn 0.6052 0.0164 -0.7959
vn 0.4119 0.0018 -0.9112
vn 0.4121 0.0000 -0.9111
vn 0.1976 -0.0000 -0.9803
vn -0.3793 0.0000 -0.9253
vn -0.3643 -0.0000 -0.9313
vn -0.3942 0.0013 -0.9190
vn -0.4098 0.0025 -0.9122
vn -0.4134 0.0014 -0.9105
vn -0.3710 -0.0001 -0.9286
vn -0.3751 0.0000 -0.9270
vn -0.3754 -0.0005 -0.9269
vn -0.5854 0.3972 -0.7068
vn -0.5646 0.3331 -0.7552
vn -0.6210 0.4214 -0.6608
vn -0.7028 0.2916 -0.6489
vn -0.5886 0.3051 -0.7487
vn -0.8368 0.2340 0.4950
vn 0.9226 -0.1603 0.3508
vn 0.5219 -0.2236 -0.8232
vn 0.5092 -0.3140 -0.8013
vn 0.6098 -0.6924 0.3857
vn -0.2924 0.5914 -0.7515
vn -0.1697 0.6094 -0.7745
vn 0.4076 -0.2585 -0.8758
vn 0.5209 -0.2326 -0.8213
vn 0.7024 -0.2755 -0.6563
vn 0.6823 -0.2487 -0.6875
vn 0.5891 -0.4216 -0.6894
vn 0.5471 -0.3839 -0.7438
vn -0.4225 -0.5231 -0.7402
vn -0.4755 -0.5637 -0.6754
vn -0.3039 -0.6148 -0.7278
vn -0.2979 -0.5857 -0.7538
vn 0.9226 -0.1604 0.3507
vn -0.2923 0.5914 -0.7515
vn -0.3444 0.5418 -0.7667
vn -0.2529 0.5497 -0.7962
vn -0.3853 0.5053 -0.7722
vn -0.0003 -0.2175 -0.9761
vn 0.5115 0.0088 -0.8593
vn -0.6984 0.0088 -0.7157
vn -0.8871 -0.0162 -0.4613
vn -0.7743 -0.3165 -0.5480
vn 0.3576 -0.9276 -0.1085
vn 0.3371 -0.9365 0.0970
vn 0.4484 -0.8936 0.0223
vn 0.9868 0.0076 -0.1616
vn 0.9868 -0.1616 -0.0076
vn 0.6092 -0.0000 -0.7930
vn 0.6094 0.0000 -0.7928
vn 0.6102 0.0000 -0.7922
vn -0.6210 0.4214 -0.6609
vn -0.6210 0.4215 -0.6608
vn -0.8368 0.2340 0.4951
vn 0.4075 -0.2585 -0.8758
vn 0.5890 -0.4216 -0.6894
vn -0.4755 -0.5637 -0.6753
vn 0.5492 -0.8286 -0.1086
vn 0.4484 -0.8935 0.0223
vn 0.6093 -0.0000 -0.7929
vn -0.6043 0.0103 -0.7967
vn -0.0000 -0.0146 -0.9999
vn 0.9624 -0.0229 -0.2706
vn 0.6152 0.0005 -0.7884
vn 0.6092 0.0065 -0.7930
vn 0.6151 0.0005 -0.7884
vn -0.5886 0.3051 -0.7486
vn 0.5891 -0.4217 -0.6894
vn 0.4409 0.0034 -0.8975
vn 0.6369 -0.0392 -0.7699
vn -0.5963 0.6887 -0.4125
vn 0.6101 0.7057 -0.3603
vn 0.4194 0.5526 -0.7202
vn -0.5376 -0.3745 -0.7555
vn -0.8158 -0.5002 -0.2902
vn 0.8321 -0.5111 -0.2155
vn -0.3752 0.0000 -0.9269
vn -0.3752 -0.0000 -0.9270
vn 0.3750 0.0000 -0.9270
vn -0.8158 -0.5002 -0.2903
vn 0.6370 -0.0393 -0.7699
vn -0.5963 0.6886 -0.4126
vn 0.6101 0.7057 -0.3602
vn 0.8321 -0.5110 -0.2155
vn -0.3597 -0.9331 -0.0001
vn 0.3851 -0.0030 -0.9229
vn -0.3828 0.0004 -0.9238
usemtl Tex_0030_0.dds.003
s off
f 1/1/1 3/2/2 2/3/1
f 2/3/3 3/2/3 4/4/4
f 3/2/5 5/5/6 4/4/7
f 4/4/8 5/5/8 6/6/9
f 5/5/10 7/7/11 6/6/12
f 6/6/13 7/7/14 8/8/15
f 7/7/16 9/9/17 8/8/18
f 8/8/19 9/9/19 10/10/19
f 11/11/20 13/12/21 12/13/22
f 12/13/23 13/12/24 14/14/25
f 13/12/26 15/15/27 14/14/28
f 14/14/29 15/15/30 16/16/31
f 15/15/32 17/17/33 16/16/34
f 16/16/35 17/17/36 18/18/37
f 17/17/38 19/19/39 18/18/40
f 18/18/41 19/19/41 20/20/41
f 21/21/42 23/22/43 22/23/44
f 22/23/45 23/22/46 24/24/47
f 23/22/48 25/25/49 24/24/50
f 24/24/51 25/25/52 26/26/53
f 25/25/54 27/27/55 26/26/56
f 26/26/57 27/27/58 28/28/59
f 27/27/60 29/29/61 28/28/62
f 28/28/63 29/29/64 30/30/65
f 31/31/41 33/32/66 32/33/67
f 32/33/68 33/32/69 34/34/38
f 33/32/70 35/35/35 34/34/36
f 34/34/33 35/35/34 36/36/71
f 35/35/31 37/37/29 36/36/30
f 36/36/27 37/37/28 38/38/72
f 37/37/25 39/39/73 38/38/74
f 38/38/20 39/39/20 40/40/20
f 41/41/75 43/42/63 42/43/64
f 42/43/61 43/42/62 44/44/60
f 43/42/76 45/45/57 44/44/77
f 44/44/78 45/45/56 46/46/54
f 45/45/53 47/47/51 46/46/52
f 46/46/49 47/47/50 48/48/48
f 47/47/79 49/49/45 48/48/46
f 48/48/80 49/49/44 50/50/42
f 51/51/19 53/52/81 52/53/82
f 52/53/83 53/52/84 54/54/16
f 53/52/85 55/55/86 54/54/14
f 54/54/87 55/55/12 56/56/88
f 55/55/9 57/57/89 56/56/90
f 56/56/91 57/57/92 58/58/93
f 57/57/94 59/59/95 58/58/96
f 58/58/97 59/59/98 60/60/1
f 61/61/99 63/62/100 62/63/101
f 62/63/102 63/62/103 64/64/104
f 63/62/105 65/65/106 64/64/107
f 64/64/108 65/65/109 66/66/110
f 65/65/111 67/67/112 66/66/113
f 66/66/114 67/67/115 68/68/116
f 67/67/117 69/69/118 68/68/119
f 68/68/120 69/69/121 70/70/122
f 71/71/41 73/72/123 72/73/67
f 72/73/68 73/72/69 74/74/38
f 73/72/70 75/75/35 74/74/36
f 74/74/124 75/75/34 76/76/71
f 75/75/31 77/77/29 76/76/125
f 76/76/27 77/77/28 78/78/72
f 77/77/25 79/79/73 78/78/74
f 78/78/20 79/79/20 80/80/20
f 81/81/122 83/82/120 82/83/121
f 82/83/118 83/82/119 84/84/117
f 83/82/116 85/85/114 84/84/115
f 84/84/112 85/85/113 86/86/111
f 85/85/126 87/87/127 86/86/109
f 86/86/106 87/87/128 88/88/105
f 87/87/104 89/89/102 88/88/129
f 88/88/130 89/89/101 90/90/99
f 91/91/75 93/92/63 92/93/64
f 92/93/61 93/92/62 94/94/60
f 93/92/76 95/95/57 94/94/131
f 94/94/78 95/95/56 96/96/54
f 95/95/53 97/97/51 96/96/52
f 96/96/49 97/97/50 98/98/48
f 97/97/79 99/99/45 98/98/132
f 98/98/43 99/99/44 100/100/133
f 101/101/19 103/102/81 102/103/82
f 102/103/83 103/102/84 104/104/134
f 103/102/85 105/105/86 104/104/14
f 104/104/87 105/105/12 106/106/135
f 105/105/9 107/107/89 106/106/136
f 106/106/91 107/107/92 108/108/137
f 107/107/94 109/109/138 108/108/96
f 108/108/139 109/109/98 110/110/1
f 111/111/1 113/112/97 112/113/98
f 112/113/95 113/112/96 114/114/94
f 113/112/140 115/115/141 114/114/142
f 114/114/89 115/115/143 116/116/9
f 115/115/135 117/117/87 116/116/12
f 116/116/13 117/117/14 118/118/85
f 117/117/16 119/119/83 118/118/144
f 118/118/81 119/119/82 120/120/19
f 121/121/20 123/122/21 122/123/22
f 122/123/23 123/122/24 124/124/25
f 123/122/26 125/125/27 124/124/28
f 124/124/29 125/125/125 126/126/145
f 125/125/32 127/127/33 126/126/34
f 126/126/35 127/127/36 128/128/70
f 127/127/146 129/129/147 128/128/148
f 128/128/123 129/129/67 130/130/41
f 131/131/133 133/132/43 132/133/44
f 132/133/45 133/132/132 134/134/79
f 133/132/48 135/135/49 134/134/149
f 134/134/51 135/135/52 136/136/53
f 135/135/54 137/137/55 136/136/56
f 136/136/57 137/137/58 138/138/76
f 137/137/60 139/139/61 138/138/62
f 138/138/63 139/139/64 140/140/75
f 141/141/99 143/142/130 142/143/101
f 142/143/102 143/142/103 144/144/104
f 143/142/105 145/145/106 144/144/128
f 144/144/108 145/145/109 146/146/110
f 145/145/111 147/147/112 146/146/113
f 146/146/114 147/147/115 148/148/116
f 147/147/150 149/149/118 148/148/119
f 148/148/151 149/149/121 150/150/122
f 151/151/1 153/152/97 152/153/98
f 152/153/95 153/152/152 154/154/94
f 153/152/140 155/155/141 154/154/92
f 154/154/89 155/155/90 156/156/9
f 155/155/88 157/157/87 156/156/12
f 156/156/13 157/157/14 158/158/15
f 157/157/16 159/159/17 158/158/18
f 158/158/19 159/159/19 160/160/19
f 161/161/20 163/162/21 162/163/22
f 162/163/23 163/162/24 164/164/25
f 163/162/26 165/165/27 164/164/28
f 164/164/29 165/165/30 166/166/31
f 165/165/32 167/167/33 166/166/34
f 166/166/35 167/167/36 168/168/70
f 167/167/146 169/169/147 168/168/148
f 168/168/66 169/169/67 170/170/41
f 171/171/133 173/172/153 172/173/44
f 172/173/45 173/172/132 174/174/79
f 173/172/154 175/175/49 174/174/50
f 174/174/51 175/175/52 176/176/53
f 175/175/155 177/177/78 176/176/56
f 176/176/156 177/177/131 178/178/76
f 177/177/60 179/179/61 178/178/62
f 178/178/63 179/179/64 180/180/75
f 181/181/1 183/182/97 182/183/157
f 182/183/95 183/182/96 184/184/94
f 183/182/140 185/185/158 184/184/92
f 184/184/89 185/185/90 186/186/9
f 185/185/88 187/187/87 186/186/12
f 186/186/13 187/187/14 188/188/85
f 187/187/16 189/189/83 188/188/144
f 188/188/81 189/189/82 190/190/19
f 191/191/20 193/192/21 192/193/22
f 192/193/23 193/192/24 194/194/25
f 193/192/26 195/195/27 194/194/28
f 194/194/29 195/195/125 196/196/31
f 195/195/32 197/197/33 196/196/34
f 196/196/35 197/197/36 198/198/70
f 197/197/146 199/199/68 198/198/148
f 198/198/159 199/199/67 200/200/160
f 201/201/133 203/202/80 202/203/44
f 202/203/45 203/202/46 204/204/79
f 203/202/154 205/205/49 204/204/50
f 204/204/51 205/205/52 206/206/53
f 205/205/155 207/207/78 206/206/56
f 206/206/156 207/207/131 208/208/76
f 207/207/60 209/209/61 208/208/62
f 208/208/63 209/209/64 210/210/75
f 211/211/99 213/212/130 212/213/161
f 212/213/162 213/212/103 214/214/163
f 213/212/164 215/215/106 214/214/128
f 214/214/127 215/215/109 216/216/110
f 215/215/111 217/217/112 216/216/113
f 216/216/114 217/217/115 218/218/116
f 217/217/150 219/219/118 218/218/119
f 218/218/151 219/219/121 220/220/122
f 221/221/1 223/222/97 222/223/98
f 222/223/138 223/222/96 224/224/94
f 223/222/140 225/225/141 224/224/92
f 224/224/89 225/225/143 226/226/9
f 225/225/88 227/227/87 226/226/12
f 226/226/13 227/227/14 228/228/85
f 227/227/16 229/229/83 228/228/144
f 228/228/81 229/229/82 230/230/19
f 231/231/20 233/232/21 232/233/22
f 232/233/23 233/232/24 234/234/25
f 233/232/26 235/235/27 234/234/28
f 234/234/29 235/235/125 236/236/31
f 235/235/32 237/237/33 236/236/34
f 236/236/35 237/237/36 238/238/165
f 237/237/146 239/239/147 238/238/148
f 238/238/159 239/239/67 240/240/41
f 241/241/133 243/242/80 242/243/44
f 242/243/45 243/242/46 244/244/79
f 243/242/154 245/245/49 244/244/50
f 244/244/51 245/245/52 246/246/53
f 245/245/166 247/247/167 246/246/56
f 246/246/156 247/247/131 248/248/76
f 247/247/60 249/249/61 248/248/62
f 248/248/63 249/249/64 250/250/75
f 251/251/160 253/252/159 252/253/67
f 252/253/68 253/252/148 254/254/146
f 253/252/70 255/255/35 254/254/36
f 254/254/33 255/255/34 256/256/32
f 255/255/31 257/257/29 256/256/30
f 256/256/27 257/257/28 258/258/26
f 257/257/25 259/259/23 258/258/24
f 258/258/21 259/259/22 260/260/20
f 261/261/122 263/262/151 262/263/121
f 262/263/118 263/262/119 264/264/117
f 263/262/116 265/265/114 264/264/115
f 264/264/112 265/265/113 266/266/168
f 265/265/110 267/267/127 266/266/109
f 266/266/106 267/267/128 268/268/105
f 267/267/163 269/269/162 268/268/103
f 268/268/169 269/269/161 270/270/99
f 271/271/75 273/272/63 272/273/64
f 272/273/61 273/272/62 274/274/60
f 273/272/76 275/275/57 274/274/77
f 274/274/167 275/275/56 276/276/166
f 275/275/53 277/277/51 276/276/52
f 276/276/49 277/277/50 278/278/48
f 277/277/47 279/279/45 278/278/132
f 278/278/43 279/279/44 280/280/133
f 281/281/19 283/282/81 282/283/82
f 282/283/83 283/282/144 284/284/16
f 283/282/85 285/285/13 284/284/14
f 284/284/87 285/285/12 286/286/170
f 285/285/9 287/287/89 286/286/143
f 286/286/141 287/287/142 288/288/140
f 287/287/94 289/289/95 288/288/96
f 288/288/97 289/289/98 290/290/1
f 291/291/1 293/292/139 292/293/171
f 292/293/95 293/292/96 294/294/94
f 293/292/140 295/295/141 294/294/92
f 294/294/89 295/295/136 296/296/9
f 295/295/88 297/297/87 296/296/12
f 296/296/86 297/297/14 298/298/85
f 297/297/16 299/299/83 298/298/144
f 298/298/81 299/299/82 300/300/19
f 301/301/20 303/302/21 302/303/22
f 302/303/23 303/302/24 304/304/25
f 303/302/26 305/305/27 304/304/28
f 304/304/29 305/305/30 306/306/31
f 305/305/32 307/307/33 306/306/34
f 306/306/35 307/307/36 308/308/165
f 307/307/146 309/309/147 308/308/148
f 308/308/159 309/309/67 310/310/41
f 311/311/133 313/312/43 312/313/44
f 312/313/45 313/312/46 314/314/79
f 313/312/154 315/315/49 314/314/50
f 314/314/51 315/315/52 316/316/53
f 315/315/166 317/317/78 316/316/56
f 316/316/156 317/317/131 318/318/172
f 317/317/60 319/319/173 318/318/174
f 318/318/75 319/319/75 320/320/75
f 321/321/99 323/322/130 322/323/161
f 322/323/162 323/322/103 324/324/163
f 323/322/105 325/325/106 324/324/128
f 324/324/127 325/325/109 326/326/126
f 325/325/168 327/327/112 326/326/113
f 326/326/114 327/327/115 328/328/116
f 327/327/117 329/329/118 328/328/119
f 328/328/151 329/329/175 330/330/122
f 331/331/1 333/332/176 332/333/177
f 332/333/178 333/332/179 334/334/180
f 333/332/181 335/335/182 334/334/183
f 334/334/184 335/335/185 336/336/186
f 335/335/187 337/337/188 336/336/189
f 336/336/190 337/337/191 338/338/192
f 337/337/193 339/339/194 338/338/195
f 340/340/75 342/341/196 341/342/197
f 341/342/198 342/341/199 343/343/200
f 342/341/201 344/344/202 343/343/203
f 343/343/204 344/344/205 345/345/206
f 344/344/207 346/346/208 345/345/209
f 345/345/210 346/346/211 347/347/212
f 346/346/213 348/348/214 347/347/215
f 349/349/75 351/350/196 350/351/216
f 350/351/198 351/350/199 352/352/217
f 351/350/201 353/353/218 352/352/203
f 352/352/204 353/353/205 354/354/206
f 353/353/219 355/355/208 354/354/209
f 354/354/210 355/355/211 356/356/212
f 355/355/213 357/357/214 356/356/220
f 358/358/1 360/359/176 359/360/177
f 359/360/178 360/359/179 361/361/221
f 360/359/181 362/362/222 361/361/223
f 361/361/184 362/362/224 363/363/225
f 362/362/187 364/364/188 363/363/189
f 363/363/226 364/364/191 365/365/227
f 364/364/193 366/366/194 365/365/195
f 367/367/75 369/368/196 368/369/216
f 368/369/228 369/368/199 370/370/200
f 369/368/201 371/371/202 370/370/229
f 370/370/204 371/371/205 372/372/206
f 371/371/219 373/373/208 372/372/230
f 372/372/231 373/373/232 374/374/212
f 373/373/213 375/375/214 374/374/220
f 376/376/1 378/377/176 377/378/177
f 377/378/178 378/377/233 379/379/221
f 378/377/181 380/380/182 379/379/223
f 379/379/184 380/380/185 381/381/225
f 380/380/187 382/382/234 381/381/189
f 381/381/226 382/382/191 383/383/235
f 382/382/193 384/384/236 383/383/195
f 385/385/237 387/386/238 386/387/239
f 386/387/240 387/386/241 388/388/242
f 387/386/243 389/389/244 388/388/245
f 388/388/246 389/389/247 390/390/248
f 389/389/249 391/391/248 390/390/248
f 392/392/250 394/393/251 393/394/250
f 393/394/252 394/393/252 395/395/253
f 394/393/252 396/396/254 395/395/255
f 395/395/256 396/396/257 397/397/258
f 396/396/259 398/398/258 397/397/258
f 399/399/260 401/400/261 400/401/262
f 400/401/263 401/400/241 402/402/242
f 401/400/264 403/403/265 402/402/266
f 402/402/267 403/403/268 404/404/248
f 403/403/269 405/405/248 404/404/248
f 406/406/237 408/407/238 407/408/239
f 407/408/240 408/407/241 409/409/242
f 408/407/243 410/410/244 409/409/245
f 409/409/246 410/410/247 411/411/248
f 410/410/249 412/412/248 411/411/248
f 413/413/270 415/414/270 414/415/270
f 414/415/271 415/414/271 416/416/272
f 415/414/271 417/417/273 416/416/274
f 416/416/275 417/417/276 418/418/258
f 417/417/277 419/419/258 418/418/258
f 420/420/278 422/421/279 421/422/278
f 421/422/278 422/421/280 423/423/281
f 422/421/282 424/424/283 423/423/284
f 423/423/285 424/424/286 425/425/287
f 424/424/288 426/426/289 425/425/290
f 427/427/99 429/428/130 428/429/161
f 428/429/102 429/428/291 430/430/104
f 429/428/105 431/431/106 430/430/128
f 430/430/108 431/431/109 432/432/292
f 431/431/168 433/433/293 432/432/293
f 434/434/294 436/435/295 435/436/296
f 435/436/297 436/435/298 437/437/299
f 436/435/300 438/438/301 437/437/302
f 437/437/303 438/438/304 439/439/305
f 438/438/306 440/440/8 439/439/307
f 441/441/237 443/442/308 442/443/239
f 442/443/240 443/442/309 444/444/242
f 443/442/264 445/445/244 444/444/245
f 444/444/246 445/445/310 446/446/248
f 445/445/311 447/447/248 446/446/248
f 448/448/237 450/449/238 449/450/239
f 449/450/240 450/449/241 451/451/242
f 450/449/243 452/452/244 451/451/245
f 451/451/246 452/452/310 453/453/248
f 452/452/312 454/454/248 453/453/248
f 455/455/294 457/456/295 456/457/296
f 456/457/313 457/456/298 458/458/299
f 457/456/300 459/459/301 458/458/302
f 458/458/314 459/459/315 460/460/305
f 459/459/316 461/461/317 460/460/307
f 462/462/99 464/463/130 463/464/161
f 463/464/162 464/463/103 465/465/163
f 464/463/105 466/466/106 465/465/128
f 465/465/108 466/466/109 467/467/318
f 466/466/168 468/468/293 467/467/293
f 469/469/237 471/470/308 470/471/239
f 470/471/240 471/470/309 472/472/242
f 471/470/264 473/473/244 472/472/245
f 472/472/246 473/473/310 474/474/248
f 473/473/312 475/475/248 474/474/248
f 476/476/237 478/477/308 477/478/239
f 477/478/240 478/477/309 479/479/242
f 478/477/264 480/480/244 479/479/245
f 479/479/246 480/480/310 481/481/248
f 480/480/311 482/482/248 481/481/248
f 483/483/319 485/484/319 484/485/319
f 484/485/319 485/484/319 486/486/320
f 485/484/319 487/487/321 486/486/322
f 486/486/323 487/487/324 488/488/258
f 487/487/325 489/489/258 488/488/258
f 490/490/237 492/491/238 491/492/239
f 491/492/240 492/491/241 493/493/242
f 492/491/243 494/494/244 493/493/245
f 493/493/246 494/494/310 495/495/248
f 494/494/312 496/496/248 495/495/248
f 497/497/319 499/498/319 498/499/319
f 498/499/319 499/498/319 500/500/320
f 499/498/319 501/501/321 500/500/322
f 500/500/323 501/501/324 502/502/258
f 501/501/325 503/503/258 502/502/258
f 504/504/237 506/505/238 505/506/239
f 505/506/240 506/505/241 507/507/242
f 506/505/243 508/508/244 507/507/245
f 507/507/246 508/508/310 509/509/248
f 508/508/312 510/510/248 509/509/248
f 511/511/319 513/512/319 512/513/319
f 512/513/319 513/512/319 514/514/320
f 513/512/319 515/515/326 514/514/322
f 514/514/323 515/515/324 516/516/258
f 515/515/325 517/517/258 516/516/258
f 518/518/99 520/519/100 519/520/161
f 519/520/162 520/519/103 521/521/104
f 520/519/105 522/522/106 521/521/128
f 521/521/108 522/522/109 523/523/327
f 522/522/168 524/524/293 523/523/293
f 525/525/294 527/526/295 526/527/296
f 526/527/313 527/526/298 528/528/299
f 527/526/300 529/529/301 528/528/302
f 528/528/303 529/529/315 530/530/305
f 529/529/306 531/531/8 530/530/328
f 532/532/329 534/533/330 533/534/331
f 533/534/332 534/533/333 535/535/334
f 534/533/335 536/536/336 535/535/337
f 535/535/338 536/536/339 537/537/237
f 538/538/340 540/539/341 539/540/342
f 539/540/343 540/539/344 541/541/345
f 540/539/346 542/542/347 541/541/348
f 541/541/349 542/542/350 543/543/351
f 544/544/329 546/545/352 545/546/331
f 545/546/353 546/545/354 547/547/334
f 546/545/335 548/548/355 547/547/356
f 547/547/357 548/548/358 549/549/359
f 550/550/329 552/551/330 551/552/331
f 551/552/332 552/551/333 553/553/334
f 552/551/335 554/554/336 553/553/337
f 553/553/338 554/554/339 555/555/237
f 556/556/250 558/557/360 557/558/250
f 557/558/250 558/557/361 559/559/362
f 558/557/363 560/560/364 559/559/365
f 559/559/366 560/560/367 561/561/367
f 562/562/340 564/563/341 563/564/342
f 563/564/343 564/563/344 565/565/345
f 564/563/346 566/566/347 565/565/348
f 565/565/349 566/566/350 567/567/351
f 568/568/329 570/569/330 569/570/368
f 569/570/332 570/569/369 571/571/334
f 570/569/335 572/572/336 571/571/337
f 571/571/338 572/572/339 573/573/237
f 574/574/340 576/575/341 575/576/342
f 575/576/343 576/575/344 577/577/345
f 576/575/346 578/578/347 577/577/348
f 577/577/349 578/578/350 579/579/351
f 580/580/329 582/581/330 581/582/368
f 581/582/332 582/581/333 583/583/334
f 582/581/335 584/584/336 583/583/337
f 583/583/338 584/584/339 585/585/237
f 586/586/250 588/587/370 587/588/250
f 587/588/250 588/587/371 589/589/362
f 588/587/372 590/590/373 589/589/374
f 589/589/375 590/590/376 591/591/367
f 592/592/340 594/593/341 593/594/342
f 593/594/343 594/593/344 595/595/345
f 594/593/346 596/596/347 595/595/348
f 595/595/377 596/596/350 597/597/351
f 598/598/329 600/599/330 599/600/368
f 599/600/332 600/599/333 601/601/334
f 600/599/335 602/602/336 601/601/337
f 601/601/338 602/602/339 603/603/237
f 604/604/340 606/605/341 605/606/342
f 605/606/343 606/605/344 607/607/345
f 606/605/346 608/608/347 607/607/348
f 607/607/349 608/608/350 609/609/351
f 610/610/329 612/611/330 611/612/368
f 611/612/332 612/611/333 613/613/334
f 612/611/335 614/614/336 613/613/337
f 613/613/338 614/614/339 615/615/237
f 616/616/340 618/617/341 617/618/342
f 617/618/343 618/617/344 619/619/345
f 618/617/346 620/620/347 619/619/348
f 619/619/349 620/620/350 621/621/351
f 622/622/329 624/623/330 623/624/368
f 623/624/332 624/623/333 625/625/334
f 624/623/335 626/626/336 625/625/337
f 625/625/338 626/626/339 627/627/237
f 628/628/340 630/629/341 629/630/342
f 629/630/343 630/629/344 631/631/345
f 630/629/346 632/632/347 631/631/348
f 631/631/377 632/632/350 633/633/351
f 634/634/329 636/635/330 635/636/368
f 635/636/332 636/635/333 637/637/334
f 636/635/335 638/638/336 637/637/337
f 637/637/338 638/638/339 639/639/237
f 640/640/340 642/641/341 641/642/342
f 641/642/343 642/641/344 643/643/345
f 642/641/346 644/644/347 643/643/348
f 643/643/377 644/644/350 645/645/351
f 646/646/271 648/647/378 647/648/379
f 647/648/380 648/647/381 649/649/258
f 648/647/382 650/650/258 649/649/258
f 651/651/250 653/652/383 652/653/384
f 652/653/385 653/652/386 654/654/364
f 653/652/387 655/655/388 654/654/389
f 656/656/340 658/657/390 657/658/391
f 657/658/392 658/657/393 659/659/394
f 658/657/395 660/660/396 659/659/396
f 661/661/351 663/662/397 662/663/398
f 662/663/399 663/662/400 664/664/278
f 663/662/401 665/665/278 664/664/278
f 666/666/340 668/667/390 667/668/391
f 667/668/392 668/667/393 669/669/394
f 668/667/402 670/670/396 669/669/396
f 671/671/351 673/672/397 672/673/398
f 672/673/399 673/672/400 674/674/278
f 673/672/401 675/675/278 674/674/278
f 676/676/270 678/677/403 677/678/404
f 677/678/405 678/677/406 679/679/388
f 678/677/407 680/680/388 679/679/388
f 681/681/340 683/682/408 682/683/340
f 682/683/340 683/682/409 684/684/410
f 683/682/411 685/685/394 684/684/412
f 686/686/413 688/687/414 687/688/415
f 687/688/416 688/687/417 689/689/418
f 688/687/419 690/690/420 689/689/421
f 691/691/422 693/692/422 692/693/423
f 692/693/424 693/692/425 694/694/426
f 693/692/427 695/695/428 694/694/429
f 696/696/430 698/697/431 697/698/432
f 697/698/433 698/697/434 699/699/435
f 698/697/436 700/700/437 699/699/438
f 701/701/122 703/702/151 702/703/175
f 702/703/118 703/702/119 704/704/439
f 703/702/116 705/705/440 704/704/441
f 706/706/437 708/707/442 707/708/443
f 707/708/444 708/707/445 709/709/44
f 708/707/446 710/710/447 709/709/45
f 711/711/448 713/712/167 712/713/449
f 712/713/450 713/712/58 714/714/172
f 713/712/60 715/715/173 714/714/451
f 716/716/430 718/717/431 717/718/432
f 717/718/433 718/717/434 719/719/435
f 718/717/436 720/720/437 719/719/438
f 721/721/430 723/722/431 722/723/432
f 722/723/433 723/722/434 724/724/435
f 723/722/452 725/725/437 724/724/438
f 726/726/453 728/727/454 727/728/453
f 727/728/19 728/727/455 729/729/82
f 728/727/456 730/730/17 729/729/83
f 731/731/271 733/732/457 732/733/458
f 732/733/459 733/732/460 734/734/258
f 733/732/461 735/735/258 734/734/258
f 736/736/319 738/737/319 737/738/319
f 737/738/319 738/737/319 739/739/319
f 738/737/319 740/740/319 739/739/319
f 741/741/340 743/742/390 742/743/391
f 742/743/462 743/742/463 744/744/394
f 743/742/464 745/745/394 744/744/394
f 746/746/351 748/747/397 747/748/398
f 747/748/399 748/747/465 749/749/278
f 748/747/466 750/750/278 749/749/278
f 751/751/388 753/752/467 752/753/388
f 752/753/373 753/752/373 754/754/468
f 753/752/376 755/755/469 754/754/469
f 756/756/258 758/757/258 757/758/258
f 757/758/258 758/757/258 759/759/258
f 758/757/258 760/760/258 759/759/258
f 761/761/340 763/762/390 762/763/391
f 762/763/462 763/762/463 764/764/394
f 763/762/464 765/765/394 764/764/394
f 766/766/351 768/767/397 767/768/398
f 767/768/399 768/767/465 769/769/278
f 768/767/466 770/770/278 769/769/278
f 771/771/430 773/772/431 772/773/470
f 772/773/433 773/772/434 774/774/435
f 773/772/452 775/775/437 774/774/438
f 776/776/440 778/777/454 777/778/440
f 777/778/19 778/777/455 779/779/82
f 778/777/456 780/780/17 779/779/83
f 781/781/430 783/782/431 782/783/471
f 782/783/433 783/782/434 784/784/435
f 783/782/452 785/785/437 784/784/438
f 786/786/430 788/787/431 787/788/471
f 787/788/433 788/787/434 789/789/472
f 788/787/452 790/790/437 789/789/438
f 791/791/122 793/792/151 792/793/121
f 792/793/118 793/792/119 794/794/439
f 793/792/116 795/795/440 794/794/441
f 796/796/437 798/797/473 797/798/443
f 797/798/444 798/797/445 799/799/44
f 798/797/474 800/800/447 799/799/45
f 801/801/448 803/802/78 802/803/475
f 802/803/450 803/802/131 804/804/172
f 803/802/60 805/805/173 804/804/174
f 806/806/340 808/807/390 807/808/476
f 807/808/462 808/807/463 809/809/394
f 808/807/477 810/810/394 809/809/394
f 811/811/351 813/812/397 812/813/398
f 812/813/399 813/812/465 814/814/278
f 813/812/466 815/815/278 814/814/278
f 816/816/388 818/817/478 817/818/388
f 817/818/373 818/817/373 819/819/468
f 818/817/376 820/820/469 819/819/469
f 821/821/319 823/822/479 822/823/480
f 822/823/481 823/822/482 824/824/373
f 823/822/483 825/825/388 824/824/388
f 826/826/340 828/827/390 827/828/391
f 827/828/462 828/827/463 829/829/394
f 828/827/477 830/830/394 829/829/394
f 831/831/351 833/832/397 832/833/398
f 832/833/399 833/832/465 834/834/278
f 833/832/466 835/835/278 834/834/278
f 836/836/319 838/837/479 837/838/480
f 837/838/481 838/837/484 839/839/373
f 838/837/483 840/840/388 839/839/388
f 841/841/340 843/842/390 842/843/391
f 842/843/462 843/842/463 844/844/394
f 843/842/464 845/845/394 844/844/394
f 846/846/351 848/847/397 847/848/398
f 847/848/399 848/847/465 849/849/278
f 848/847/466 850/850/278 849/849/278
f 851/851/258 853/852/258 852/853/258
f 852/853/258 853/852/258 854/854/258
f 853/852/258 855/855/258 854/854/258
f 856/856/319 858/857/479 857/858/480
f 857/858/481 858/857/484 859/859/373
f 858/857/483 860/860/388 859/859/388
f 861/861/340 863/862/390 862/863/391
f 862/863/462 863/862/463 864/864/394
f 863/862/464 865/865/394 864/864/394
f 866/866/351 868/867/397 867/868/398
f 867/868/399 868/867/465 869/869/278
f 868/867/466 870/870/278 869/869/278
f 871/871/430 873/872/431 872/873/471
f 872/873/433 873/872/434 874/874/435
f 873/872/452 875/875/437 874/874/438
f 876/876/430 878/877/431 877/878/432
f 877/878/433 878/877/485 879/879/435
f 878/877/452 880/880/437 879/879/438
f 881/881/440 883/882/454 882/883/440
f 882/883/19 883/882/455 884/884/82
f 883/882/456 885/885/17 884/884/83
f 886/886/430 888/887/431 887/888/471
f 887/888/433 888/887/434 889/889/435
f 888/887/452 890/890/437 889/889/438
f 891/891/122 893/892/151 892/893/121
f 892/893/118 893/892/119 894/894/439
f 893/892/116 895/895/440 894/894/441
f 896/896/437 898/897/473 897/898/443
f 897/898/444 898/897/445 899/899/44
f 898/897/486 900/900/447 899/899/45
f 901/901/448 903/902/78 902/903/449
f 902/903/450 903/902/131 904/904/172
f 903/902/60 905/905/173 904/904/174
f 906/906/73 908/907/23 907/908/487
f 907/908/488 908/907/22 909/909/20
f 910/910/99 912/911/489 911/912/101
f 911/912/102 912/911/490 913/913/491
f 914/914/492 916/915/68 915/916/493
f 915/916/494 916/915/67 917/917/41
f 918/918/319 920/919/319 919/920/319
f 919/920/319 920/919/319 921/921/319
f 922/922/248 924/923/248 923/924/248
f 923/924/248 924/923/248 925/925/248
f 926/926/495 928/927/495 927/928/495
f 927/928/496 928/927/496 929/929/496
f 930/930/278 932/931/278 931/932/278
f 931/932/278 932/931/278 933/933/278
f 934/934/413 936/935/413 935/936/413
f 935/936/497 936/935/497 937/937/497
f 938/938/39 940/939/68 939/940/498
f 939/940/494 940/939/67 941/941/41
f 942/942/73 944/943/23 943/944/487
f 943/944/499 944/943/22 945/945/20
f 946/946/99 948/947/500 947/948/161
f 947/948/162 948/947/501 949/949/491
f 950/950/319 952/951/319 951/952/319
f 951/952/319 952/951/319 953/953/319
f 954/954/492 956/955/68 955/956/498
f 955/956/502 956/955/67 957/957/160
f 958/958/73 960/959/23 959/960/487
f 959/960/488 960/959/22 961/961/20
f 962/962/99 964/963/500 963/964/161
f 963/964/162 964/963/501 965/965/491
f 966/966/271 968/967/271 967/968/271
f 969/969/503 971/970/503 970/971/503
f 972/972/258 974/973/258 973/974/258
f 975/975/469 977/976/469 976/977/469
f 978/978/503 980/979/503 979/980/503
f 981/981/258 983/982/258 982/983/258
f 984/984/503 986/985/503 985/986/503
f 987/987/258 989/988/258 988/989/258
f 990/990/388 992/991/388 991/992/388
f 993/993/396 995/994/396 994/995/396
f 996/996/289 998/997/289 997/998/289
f 999/999/388 1001/1000/388 1000/1001/388
f 1002/1002/504 1004/1003/504 1003/1004/504
f 1005/1005/505 1007/1006/505 1006/1007/505
f 1008/1008/294 1010/1009/294 1009/1010/294
f 1011/1011/294 1013/1012/294 1012/1013/294
f 1014/1014/293 1016/1015/293 1015/1016/293
f 1017/1017/294 1019/1018/294 1018/1019/294
f 1020/1020/3 1022/1021/3 1021/1022/3
f 1023/1023/271 1025/1024/271 1024/1025/271
f 1026/1026/329 1028/1027/329 1027/1028/329
f 1029/1029/258 1031/1030/258 1030/1031/258
f 1032/1032/329 1034/1033/329 1033/1034/329
f 1035/1035/388 1037/1036/388 1036/1037/388
f 1038/1038/3 1040/1039/3 1039/1040/3
f 1041/1041/294 1043/1042/294 1042/1043/294
f 1044/1044/294 1046/1045/294 1045/1046/294
f 1047/1047/294 1049/1048/294 1048/1049/294
f 1050/1050/293 1052/1051/293 1051/1052/293
f 1053/1053/329 1055/1054/329 1054/1055/329
f 1056/1056/258 1058/1057/258 1057/1058/258
f 1059/1059/329 1061/1060/329 1060/1061/329
f 1062/1062/258 1064/1063/258 1063/1064/258
f 1065/1065/469 1067/1066/469 1066/1067/469
f 1068/1068/329 1070/1069/329 1069/1070/329
f 1071/1071/258 1073/1072/258 1072/1073/258
f 1074/1074/367 1076/1075/367 1075/1076/367
f 1077/1077/319 1079/1078/319 1078/1079/319
f 1080/1080/329 1082/1081/329 1081/1082/329
f 1083/1083/367 1085/1084/367 1084/1085/367
f 1086/1086/294 1088/1087/294 1087/1088/294
f 1089/1089/3 1091/1090/3 1090/1091/3
f 1092/1092/294 1094/1093/294 1093/1094/294
f 1095/1095/294 1097/1096/294 1096/1097/294
f 1098/1098/293 1100/1099/293 1099/1100/293
