# Blender v3.6.3 OBJ File: 'untitled.blend'
# www.blender.org
mtllib Mesh_0101.mtl
o Mesh_0101_Mesh.115
v -7.064585 -0.000010 -5.111809
v -5.794584 -0.000010 -5.111809
v -5.794584 -0.000010 -2.571808
v -4.524584 -0.000010 -5.111809
v -4.524584 -0.000010 -2.571808
v -1.984585 -0.000010 -5.111809
v -1.984585 -0.000010 -2.571808
v 0.555414 -0.000010 -5.111809
v 0.555414 -0.000010 -2.571808
v 3.095415 -0.000010 -5.111809
v 3.095415 -0.000010 -2.571808
v 5.635412 -0.000010 -5.111809
v 5.635412 -0.000010 -2.571808
v 8.175413 -0.000010 -5.111809
v 8.175413 -0.000010 -2.571808
v 10.715414 -0.000010 -5.111809
v 10.715414 -0.000010 -2.571808
v 13.255411 -0.000010 -5.111809
v 13.255411 -0.000010 -2.569122
v -7.064585 -0.000010 -7.651806
v -5.794584 -0.000010 -7.651806
v -5.794584 -0.000010 -5.111809
v -4.524584 -0.000010 -7.651806
v -4.524584 -0.000010 -5.111809
v -1.984585 -0.000010 -7.651806
v -1.984585 -0.000010 -5.111809
v 0.555414 -0.000010 -7.651806
v 0.555414 -0.000010 -5.111809
v 3.095415 -0.000010 -7.651806
v 3.095415 -0.000010 -5.111809
v 5.635412 -0.000010 -7.651806
v 5.635412 -0.000010 -5.111809
v 8.175413 -0.000010 -7.651806
v 8.175413 -0.000010 -5.111809
v 10.715414 -0.000010 -7.651806
v 10.715414 -0.000010 -5.111809
v 13.255411 -0.000010 -7.651806
v 13.255411 -0.000010 -5.111809
v -7.064585 -0.000010 -10.191807
v -5.794584 -0.000010 -10.191807
v -5.794584 -0.000010 -7.651806
v -4.524584 -0.000010 -10.191807
v -4.524584 -0.000010 -7.651806
v -1.984585 -0.000010 -10.191807
v -1.984585 -0.000010 -7.651806
v 0.555414 -0.000010 -10.191807
v 0.555414 -0.000010 -7.651806
v 3.095415 -0.000010 -10.191807
v 3.095415 -0.000010 -7.651806
v 5.635412 -0.000010 -10.191807
v 5.635412 -0.000010 -7.651806
v 8.175413 -0.000010 -10.191807
v 8.175413 -0.000010 -7.651806
v 10.715414 -0.000010 -10.191807
v 10.715414 -0.000010 -7.651806
v 13.255411 -0.000010 -10.191807
v 13.255411 -0.000010 -7.651806
v -7.064585 -0.000010 -12.731804
v -5.794584 -0.000010 -12.731804
v -5.794584 -0.000010 -10.191807
v -4.524584 -0.000010 -12.731804
v -4.524584 -0.000010 -10.191807
v -1.984585 -0.000010 -12.731804
v -1.984585 -0.000010 -10.191807
v 0.555414 -0.000010 -12.731804
v 0.555414 -0.000010 -10.191807
v 3.095415 -0.000010 -12.731804
v 3.095415 -0.000010 -10.191807
v 5.635412 -0.000010 -12.731804
v 5.635412 -0.000010 -10.191807
v 8.175413 -0.000010 -12.731804
v 8.175413 -0.000010 -10.191807
v 10.715414 -0.000010 -12.731804
v 10.715414 -0.000010 -10.191807
v 13.255411 -0.000010 -12.731804
v 13.255411 -0.000010 -10.191807
v 15.795412 -0.000010 -15.271805
v 18.335413 -0.000010 -17.811806
v 18.335413 -0.000010 -15.271805
v 20.875410 -0.000010 -17.811806
v 20.875410 -0.000010 -15.271805
v 23.415415 -0.000010 -17.811806
v 23.415415 -0.000010 -15.271805
v 25.955416 -0.000010 -17.811806
v 25.955416 -0.000010 -15.271805
v 28.495417 -0.000010 -17.811806
v 28.495417 -0.000010 -15.271805
v 31.035414 -0.000010 -17.811806
v 31.035414 -0.000010 -15.271805
v 33.575417 -0.000010 -17.811806
v 33.575417 -0.000010 -15.271805
v 36.115417 -0.000010 -17.811806
v 36.115417 -0.000010 -15.271805
v 38.655418 -0.000010 -17.811806
v 38.655418 -0.000010 -15.271805
v -7.064585 -0.000010 2.508194
v -7.064585 -0.000010 -0.031815
v -5.794584 -0.000010 -0.031815
v -5.794584 -0.000010 -2.571808
v -4.524584 -0.000010 -0.031815
v -4.524584 -0.000010 -2.571808
v -1.984585 -0.000010 -0.031815
v -1.984585 -0.000010 -2.571808
v 0.555414 -0.000010 -0.031815
v 0.555414 -0.000010 -2.571808
v 3.095415 -0.000010 -0.031815
v 3.095415 -0.000010 -2.571808
v 5.635412 -0.000010 -0.031815
v 5.635412 -0.000010 -2.571808
v 8.175413 -0.000010 -0.031815
v 8.175413 -0.000010 -2.571808
v 10.715414 -0.000010 -0.031815
v 10.715414 -0.000010 -2.571808
v 13.255411 -0.000010 -0.031815
v -7.064585 -0.000010 5.048195
v -7.064585 -0.000010 2.508194
v -5.794584 -0.000010 2.508194
v -5.794584 -0.000010 -0.031815
v -4.524584 -0.000010 2.508194
v -4.524584 -0.000010 -0.031815
v -1.984585 -0.000010 2.508194
v -1.984585 -0.000010 -0.031815
v 0.555414 -0.000010 2.508194
v 0.555414 -0.000010 -0.031815
v 3.095415 -0.000010 2.508194
v 3.095415 -0.000010 -0.031815
v 5.635412 -0.000010 2.508194
v 5.635412 -0.000010 -0.031815
v 8.175413 -0.000010 2.508194
v 8.175413 -0.000010 -0.031815
v 10.715414 -0.000010 2.508194
v 10.715414 -0.000010 -0.031815
v 13.255411 -0.000010 2.508194
v -7.064585 -0.000010 7.588196
v -7.064585 -0.000010 5.048195
v -5.794584 -0.000010 5.048195
v -5.794584 -0.000010 2.508194
v -4.524584 -0.000010 5.048195
v -4.524584 -0.000010 2.508194
v -1.984585 -0.000010 5.048195
v -1.984585 -0.000010 2.508194
v 0.555414 -0.000010 5.048195
v 0.555414 -0.000010 2.508194
v 3.095415 -0.000010 5.048195
v 3.095415 -0.000010 2.508194
v 5.635412 -0.000010 5.048195
v 5.635412 -0.000010 2.508194
v 8.175413 -0.000010 5.048195
v 8.175413 -0.000010 2.508194
v 10.715414 -0.000010 5.048195
v 10.715414 -0.000010 2.508194
v 13.255411 -0.000010 5.048195
v 13.255411 -0.000010 5.048195
v 13.255411 -0.000010 7.588196
v 10.715414 -0.000010 5.048195
v 10.715414 -0.000010 7.588196
v 8.175413 -0.000010 5.048195
v 8.175413 -0.000010 7.588196
v 5.635412 -0.000010 5.048195
v 5.635412 -0.000010 7.588196
v 3.095415 -0.000010 5.048195
v 3.095415 -0.000010 7.588196
v 0.555414 -0.000010 5.048195
v 0.555414 -0.000010 7.588196
v -1.984585 -0.000010 5.048195
v -1.984585 -0.000010 7.588196
v -4.524584 -0.000010 5.048195
v -4.524584 -0.000010 7.588196
v -5.794584 -0.000010 5.048195
v -5.794584 -0.000010 7.588196
v -7.064585 -0.000010 7.588196
v 15.795412 -0.000010 12.668190
v 15.795412 -0.000010 10.128189
v 18.335413 -0.000010 12.668190
v 18.335413 -0.000010 10.128189
v 20.875410 -0.000010 12.668190
v 20.875410 -0.000010 10.128189
v 23.415415 -0.000010 12.668190
v 23.415415 -0.000010 10.128189
v 25.955416 -0.000010 12.668190
v 25.955416 -0.000010 10.128189
v 28.495417 -0.000010 12.668190
v 28.495417 -0.000010 10.128189
v 31.035414 -0.000010 12.668190
v 31.035414 -0.000010 10.128189
v 33.575417 -0.000010 12.668190
v 33.575417 -0.000010 10.128189
v 36.115417 -0.000010 12.668190
v 36.115417 -0.000010 10.128189
v 38.655418 -0.000010 12.668190
v 51.355423 2.539990 -12.731804
v 53.895416 2.539990 -12.731804
v 51.355423 2.539990 -10.191807
v 53.895416 2.539990 -10.191807
v 51.355423 2.539990 -7.651806
v 53.895416 2.539990 -7.651806
v 51.355423 2.539990 -5.111809
v 53.895416 2.539990 -5.111809
v 51.355423 2.539990 -2.571808
v 53.895416 2.539990 -2.571808
v 53.895416 2.539990 -0.031807
v 56.435417 2.539990 -0.031807
v 56.435417 2.539990 2.508194
v 58.975418 2.539990 2.508194
v 58.975418 2.539990 5.048195
v 61.515419 2.539990 5.048195
v 61.515419 2.539990 7.588196
v 64.055420 2.539990 7.588196
v 53.895416 2.539990 -12.731804
v 56.435417 2.539990 -12.731804
v 53.895416 2.539990 -10.191807
v 56.435417 2.539990 -10.191807
v 53.895416 2.539990 -7.651806
v 56.435417 2.539990 -7.651806
v 53.895416 2.539990 -5.111809
v 56.435417 2.539990 -5.111809
v 53.895416 2.539990 -2.571808
v 56.435417 2.539990 -2.571808
v 56.435417 2.539990 -0.031807
v 58.975418 2.539990 -0.031807
v 58.975418 2.539990 2.508194
v 61.515419 2.539990 2.508194
v 61.515419 2.539990 5.048195
v 64.055420 2.539990 5.048195
v 64.055420 2.539990 7.588196
v 66.595421 2.539990 7.588196
v 56.435417 2.539990 -12.731804
v 58.975418 2.539990 -12.731804
v 56.435417 2.539990 -10.191807
v 58.975418 2.539990 -10.191807
v 56.435417 2.539990 -7.651806
v 58.975418 2.539990 -7.651806
v 56.435417 2.539990 -5.111809
v 58.975418 2.539990 -5.111809
v 56.435417 2.539990 -2.571808
v 58.975418 2.539990 -2.571808
v 58.975418 2.539990 -0.031807
v 61.515419 2.539990 -0.031807
v 61.515419 2.539990 2.508194
v 64.055420 2.539990 2.508194
v 64.055420 2.539990 5.048195
v 66.595421 2.539990 5.048195
v 66.595421 2.539990 7.588196
v 67.865417 2.539990 7.588196
v 58.975418 2.539990 -12.731804
v 61.515419 2.539990 -12.731804
v 58.975418 2.539990 -10.191807
v 61.515419 2.539990 -10.191807
v 58.975418 2.539990 -7.651806
v 61.515419 2.539990 -7.651806
v 58.975418 2.539990 -5.111809
v 61.515419 2.539990 -5.111809
v 58.975418 2.539990 -2.571808
v 61.515419 2.539990 -2.571808
v 61.515419 2.539990 -0.031807
v 64.055420 2.539990 -0.031807
v 64.055420 2.539990 2.508194
v 66.595421 2.539990 2.508194
v 66.595421 2.539990 5.048195
v 67.865417 2.539990 5.048195
v 67.865417 2.539990 7.588196
v 69.135422 2.539990 7.588196
v 61.515419 2.539990 -12.731804
v 64.055420 2.539990 -12.731804
v 61.515419 2.539990 -10.191807
v 64.055420 2.539990 -10.191807
v 61.515419 2.539990 -7.651806
v 64.055420 2.539990 -7.651806
v 61.515419 2.539990 -5.111809
v 64.055420 2.539990 -5.111809
v 61.515419 2.539990 -2.571808
v 64.055420 2.539990 -2.571808
v 64.055420 2.539990 -0.031807
v 66.595421 2.539990 -0.031807
v 66.595421 2.539990 2.508194
v 67.865417 2.539990 2.508194
v 67.865417 2.539990 5.048195
v 69.135422 2.539990 5.048195
v 69.135422 2.539990 7.588196
v 48.815422 2.539990 -20.351807
v 48.815422 2.539990 -17.811806
v 47.545387 2.539990 -17.811806
v 48.815422 2.539990 -15.271805
v 47.545380 2.539990 -15.271805
v 48.815422 2.539990 -12.731804
v 47.545387 2.539990 -12.731804
v 48.815422 2.539990 -10.191807
v 47.545387 2.539990 -10.191807
v 48.815422 2.539990 -7.651806
v 47.545387 2.539990 -7.651806
v 48.815422 2.539990 -5.111809
v 47.545387 2.539990 -5.111809
v 48.815422 2.539990 -2.571808
v 47.545387 2.539990 -2.571808
v 47.545387 2.539990 -0.031807
v 47.545387 2.539990 17.748192
v 47.545387 2.539990 15.208191
v 48.815422 2.539990 15.208191
v 47.545387 2.539990 12.668190
v 48.815422 2.539990 12.668190
v 48.815422 2.539990 10.128189
v 51.355423 2.539990 12.668190
v 51.355423 2.539990 10.128189
v 53.895416 2.539990 12.668190
v 53.895416 2.539990 10.128189
v 56.435417 2.539990 12.668190
v 56.435417 2.539990 10.128189
v 58.975418 2.539990 12.668190
v 58.975418 2.539990 10.128189
v 61.515419 2.539990 12.668190
v 61.515419 2.539990 10.128189
v 38.655418 -0.000010 -12.731804
v 41.195419 -0.000010 -12.731804
v 38.655418 -0.000010 -10.191807
v 41.195419 -0.000010 -10.191807
v 38.655418 -0.000010 -7.651806
v 41.195419 -0.000010 -7.651806
v 38.655418 -0.000010 -5.111809
v 41.195419 -0.000010 -5.111809
v 38.655418 -0.000010 -2.571808
v 41.195419 -0.000010 -2.571808
v 41.195419 -0.000010 -0.031815
v 42.465424 -0.000010 -0.031815
v 42.465424 -0.000010 2.508194
v 43.735390 -0.000010 2.508194
v 43.735390 -0.000010 5.048195
v 64.055420 2.539990 -12.731804
v 66.595421 2.539990 -12.731804
v 64.055420 2.539990 -10.191807
v 66.595421 2.539990 -10.191807
v 64.055420 2.539990 -7.651806
v 66.595421 2.539990 -7.651806
v 64.055420 2.539990 -5.111809
v 66.595421 2.539990 -5.111809
v 64.055420 2.539990 -2.571808
v 66.595421 2.539990 -2.571808
v 66.595421 2.539990 -0.031807
v 67.865417 2.539990 -0.031807
v 67.865417 2.539990 2.508194
v 69.135422 2.539990 2.508194
v 69.135422 2.539990 5.048195
v 33.412384 -0.000010 -10.897430
v 31.534460 -0.000010 -11.714981
v 31.035414 -0.000010 -12.731804
v 29.523375 -0.000010 -12.132675
v 28.495417 -0.000010 -12.731804
v 27.467497 -0.000010 -12.132675
v 25.955416 -0.000010 -12.731804
v 25.456556 -0.000010 -11.714993
v 23.415415 -0.000010 -12.731804
v 23.578455 -0.000010 -10.897430
v 20.875410 -0.000010 -12.731804
v 20.875410 -0.000010 -10.191807
v 18.335413 -0.000010 -12.731804
v 18.335413 -0.000010 -10.191807
v 41.195419 -0.000010 -12.731804
v 42.465424 -0.000010 -12.731804
v 41.195419 -0.000010 -10.191807
v 42.465424 -0.000010 -10.191807
v 41.195419 -0.000010 -7.651806
v 42.465424 -0.000010 -7.651806
v 41.195419 -0.000010 -5.111809
v 42.465424 -0.000010 -5.111809
v 41.195419 -0.000010 -2.571808
v 42.465424 -0.000010 -2.571808
v 42.465424 -0.000010 -0.031815
v 43.735390 -0.000010 -0.031807
v 43.735390 -0.000010 2.508194
v 66.595421 2.539990 -12.731804
v 67.865417 2.539990 -12.731804
v 66.595421 2.539990 -10.191807
v 67.865417 2.539990 -10.191807
v 66.595421 2.539990 -7.651806
v 67.865417 2.539990 -7.651806
v 66.595421 2.539990 -5.111809
v 67.865417 2.539990 -5.111809
v 66.595421 2.539990 -2.571808
v 67.865417 2.539990 -2.571808
v 67.865417 2.539990 -0.031807
v 69.135422 2.539990 -0.031807
v 69.135422 2.539990 2.508194
v 31.534460 -0.000010 6.571243
v 31.035414 -0.000010 7.588196
v 29.523375 -0.000010 6.989059
v 28.495417 -0.000010 7.588196
v 27.467497 -0.000010 6.989059
v 25.955416 -0.000010 7.588196
v 25.456556 -0.000010 6.571251
v 23.415415 -0.000010 7.588196
v 23.578455 -0.000010 5.753822
v 20.875410 -0.000010 7.588196
v 20.875410 -0.000010 5.048195
v 18.335413 -0.000010 7.588196
v 18.335413 -0.000010 5.048195
v 33.575417 -0.000010 -12.731804
v 36.115417 -0.000010 -12.731804
v 36.115417 -0.000010 -10.191807
v 38.655418 -0.000010 -10.191807
v 36.451263 -0.000010 -8.222546
v 38.655418 -0.000010 -7.651806
v 37.479362 -0.000010 -6.482086
v 38.655418 -0.000010 -5.111809
v 38.114639 -0.000010 -4.570564
v 38.655418 -0.000010 -2.571808
v 38.369179 -0.000010 -2.571823
v 38.114639 -0.000010 -0.573051
v 48.815422 2.539990 21.558189
v 51.355423 2.539990 21.558189
v 51.355423 2.539990 22.828194
v 53.895416 2.539990 21.558189
v 53.895416 2.539990 22.828194
v 56.435417 2.539990 21.558189
v 56.435417 2.539990 22.828194
v 58.975418 2.539990 21.558189
v 58.975418 2.539990 22.828194
v 61.515419 2.539990 21.558189
v 61.515419 2.539990 22.828194
v 64.055420 2.539990 22.828194
v 42.465424 -0.000010 -12.731804
v 43.735390 -0.000010 -12.731804
v 42.465424 -0.000010 -10.191807
v 43.735390 -0.000010 -10.191807
v 42.465424 -0.000010 -7.651806
v 43.735390 -0.000010 -7.651806
v 42.465424 -0.000010 -5.111809
v 43.735390 -0.000010 -5.111809
v 42.465424 -0.000010 -2.571808
v 43.735397 -0.000010 -2.571808
v 43.735390 -0.000010 -0.031807
v 10.715414 -0.000010 -15.271805
v 8.175413 -0.000010 -15.271805
v 8.175413 -0.000010 -17.811806
v 5.635412 -0.000010 -15.271805
v 5.635412 -0.000010 -17.811806
v 3.095415 -0.000010 -15.271805
v 3.095415 -0.000010 -17.811806
v 0.555414 -0.000010 -15.271805
v 0.555414 -0.000010 -17.811806
v -1.984585 -0.000010 -15.271805
v -1.984585 -0.000010 -17.811806
v -1.984585 -0.000009 -26.701805
v -1.984585 -0.000009 -27.971806
v 0.555414 -0.000009 -26.701805
v 0.555414 -0.000009 -27.971806
v 3.095415 -0.000009 -26.701805
v 3.095415 -0.000009 -27.971806
v 5.635412 -0.000009 -26.701805
v 5.635412 -0.000009 -27.971806
v 8.175413 -0.000009 -26.701805
v 8.175413 -0.000009 -27.971806
v 10.715414 -0.000009 -27.971806
v 25.955416 -0.000009 -27.971806
v 28.495417 -0.000009 -27.971806
v 28.495417 -0.000009 -26.701805
v 31.035414 -0.000009 -27.971806
v 31.035414 -0.000009 -26.701805
v 33.575417 -0.000009 -27.971806
v 33.575417 -0.000009 -26.701805
v 36.115417 -0.000009 -27.971806
v 36.115417 -0.000009 -26.701805
v 38.655418 -0.000009 -27.971806
v 38.655418 -0.000009 -26.701805
v 51.355423 2.539990 -26.701805
v 51.355423 2.539990 -27.971806
v 53.895416 2.539990 -26.701805
v 53.895416 2.539990 -27.971806
v 56.435417 2.539990 -26.701805
v 56.435417 2.539990 -27.971806
v 58.975418 2.539990 -26.701805
v 58.975418 2.539990 -27.971806
v 61.515419 2.539990 -26.701805
v 61.515419 2.539990 -27.971806
v 64.055420 2.539990 -27.971806
v 48.815422 2.539990 -15.271805
v 51.355423 2.539990 -17.811806
v 51.355423 2.539990 -15.271805
v 53.895416 2.539990 -17.811806
v 53.895416 2.539990 -15.271805
v 56.435417 2.539990 -17.811806
v 56.435417 2.539990 -15.271805
v 58.975418 2.539990 -17.811806
v 58.975418 2.539990 -15.271805
v 61.515419 2.539990 -17.811806
v 61.515419 2.539990 -15.271805
v 67.865417 2.539990 -12.731804
v 69.135422 2.539990 -12.731804
v 67.865417 2.539990 -10.191807
v 69.135422 2.539990 -10.191807
v 67.865417 2.539990 -7.651806
v 69.135422 2.539990 -7.651806
v 67.865417 2.539990 -5.111809
v 69.135422 2.539990 -5.111809
v 67.865417 2.539990 -2.571808
v 69.135422 2.539990 -2.571808
v 69.135422 2.539990 -0.031807
v 47.545387 2.539990 -0.031807
v 48.815422 2.539990 -0.031807
v 47.545387 2.539990 2.508194
v 48.815422 2.539990 2.508194
v 47.545387 2.539990 5.048195
v 48.815422 2.539990 5.048195
v 47.545387 2.539990 7.588196
v 48.815422 2.539990 7.588196
v 47.545380 2.539990 10.128189
v 48.815422 2.539990 10.128189
v 47.545387 2.539990 12.668190
v -1.984585 -0.000010 12.668190
v -1.984585 -0.000010 10.128189
v 0.555414 -0.000010 12.668190
v 0.555414 -0.000010 10.128189
v 3.095415 -0.000010 12.668190
v 3.095415 -0.000010 10.128189
v 5.635412 -0.000010 12.668190
v 5.635412 -0.000010 10.128189
v 8.175413 -0.000010 12.668190
v 8.175413 -0.000010 10.128189
v 10.715414 -0.000010 10.128189
v 10.715414 -0.000010 22.828194
v 8.175413 -0.000010 22.828194
v 8.175413 -0.000010 21.558189
v 5.635412 -0.000010 22.828194
v 5.635412 -0.000010 21.558189
v 3.095415 -0.000010 22.828194
v 3.095415 -0.000010 21.558189
v 0.555414 -0.000010 22.828194
v 0.555414 -0.000010 21.558189
v -1.984585 -0.000010 22.828194
v -1.984585 -0.000010 21.558189
v 38.655418 -0.000010 21.558189
v 38.655418 -0.000010 22.828194
v 36.115417 -0.000010 21.558189
v 36.115417 -0.000010 22.828194
v 33.575417 -0.000010 21.558189
v 33.575417 -0.000010 22.828194
v 31.035414 -0.000010 21.558189
v 31.035414 -0.000010 22.828194
v 28.495417 -0.000010 21.558189
v 28.495417 -0.000010 22.828194
v 25.955416 -0.000010 22.828194
v 18.876234 -0.000010 -4.570564
v 18.621649 -0.000010 -2.571823
v 18.335413 -0.000010 -2.569122
v 18.876234 -0.000010 -0.573051
v 18.335413 -0.000010 -0.031815
v 19.511633 -0.000010 1.338341
v 18.335413 -0.000010 2.508194
v 20.539560 -0.000010 3.078934
v 18.335413 -0.000010 5.048195
v 20.875410 -0.000010 5.048195
v 8.175413 -0.000010 21.558189
v 10.715414 -0.000010 21.558189
v 10.715414 -0.000010 22.828194
v 13.255411 -0.000010 21.558189
v 13.255411 -0.000010 22.828194
v 15.795412 -0.000010 21.558189
v 15.795412 -0.000010 22.828194
v 18.335413 -0.000010 21.558189
v 18.335413 -0.000010 22.828194
v 20.875410 -0.000010 22.828194
v -8.525076 -0.000010 7.588196
v -7.064585 -0.000010 7.588196
v -8.525076 -0.000010 10.128189
v -7.064585 -0.000010 10.128189
v -8.525076 -0.000010 12.668190
v -7.064585 -0.000010 12.668190
v -8.525076 -0.000010 15.208191
v -7.064585 -0.000010 15.208191
v -8.525076 -0.000010 17.748192
v -7.064585 -0.000010 17.748192
v -7.064585 -0.000010 -12.731804
v -8.525076 -0.000010 -12.731804
v -7.064585 -0.000010 -15.271805
v -8.525076 -0.000010 -15.271805
v -7.064585 -0.000010 -17.811806
v -8.525076 -0.000010 -17.811806
v -7.064585 -0.000010 -20.351807
v -8.525076 -0.000010 -20.351807
v -7.064585 -0.000010 -22.891804
v -8.525076 -0.000010 -22.891804
v 10.715414 -0.000009 -26.701805
v 10.715414 -0.000009 -27.971806
v 13.255411 -0.000009 -26.701805
v 13.255411 -0.000009 -27.971806
v 15.795412 -0.000009 -26.701805
v 15.795412 -0.000009 -27.971806
v 18.335413 -0.000009 -26.701805
v 18.335413 -0.000009 -27.971806
v 20.875410 -0.000009 -27.971806
v 51.355423 2.539990 -2.571808
v 53.895416 2.539990 -0.031807
v 51.355423 2.539990 -0.031807
v 53.895416 2.539990 2.508194
v 51.355423 2.539990 2.508194
v 53.895416 2.539990 5.048195
v 51.355423 2.539990 5.048195
v 53.895416 2.539990 7.588196
v 51.355423 2.539990 7.588196
v 36.115417 -0.000010 7.588196
v 36.115417 -0.000010 5.048195
v 38.655418 -0.000010 5.048195
v 36.451263 -0.000010 3.078934
v 38.655418 -0.000010 2.508194
v 37.479362 -0.000010 1.338341
v 38.655418 -0.000010 -0.031815
v 38.114639 -0.000010 -0.573051
v 38.655418 -0.000010 -2.571808
v 38.655418 -0.000010 -2.571808
v 41.195419 -0.000010 -0.031815
v 38.655418 -0.000010 -0.031815
v 41.195419 -0.000010 2.508194
v 38.655418 -0.000010 2.508194
v 41.195419 -0.000010 5.048195
v 38.655418 -0.000010 5.048195
v 41.195419 -0.000010 7.588196
v 38.655418 -0.000010 7.588196
v 18.876234 -0.000010 -4.570564
v 18.335413 -0.000010 -5.111809
v 19.511633 -0.000010 -6.482086
v 18.335413 -0.000010 -7.651806
v 20.539560 -0.000010 -8.222546
v 18.335413 -0.000010 -10.191807
v 20.875410 -0.000010 -10.191807
v 8.175413 -0.000010 -17.811806
v 10.715414 -0.000010 -17.811806
v 10.715414 -0.000010 -15.271805
v 13.255411 -0.000010 -17.811806
v 13.255411 -0.000010 -15.271805
v 15.795412 -0.000010 -17.811806
v 15.795412 -0.000010 -15.271805
v -5.794584 -0.000010 -20.351807
v -5.794584 -0.000010 -17.811806
v -7.064585 -0.000010 -17.811806
v -5.794584 -0.000010 -15.271805
v -7.064585 -0.000010 -15.271805
v -5.794584 -0.000010 -12.731804
v -7.064585 -0.000010 -12.731804
v 53.895416 2.539990 -0.031807
v 56.435417 2.539990 2.508194
v 53.895416 2.539990 2.508194
v 56.435417 2.539990 5.048195
v 53.895416 2.539990 5.048195
v 56.435417 2.539990 7.588196
v 53.895416 2.539990 7.588196
v 41.195419 -0.000010 -0.031815
v 42.465424 -0.000010 2.508194
v 41.195419 -0.000010 2.508194
v 42.465424 -0.000010 5.048195
v 41.195419 -0.000010 5.048195
v 42.465424 -0.000010 7.588196
v 41.195419 -0.000010 7.588196
v -7.064585 -0.000010 7.588196
v -5.794584 -0.000010 7.588196
v -7.064585 -0.000010 10.128189
v -5.794584 -0.000010 10.128189
v -7.064585 -0.000010 12.668190
v -5.794584 -0.000010 12.668190
v -5.794584 -0.000010 15.208191
v 15.795412 -0.000010 10.128189
v 15.795412 -0.000010 12.668190
v 13.255411 -0.000010 10.128189
v 13.255411 -0.000010 12.668190
v 10.715414 -0.000010 10.128189
v 10.715414 -0.000010 12.668190
v 8.175413 -0.000010 12.668190
v 10.715414 -0.000009 -27.971806
v 8.175413 -0.000009 -27.971806
v 10.715414 -0.000009 -29.432304
v 5.635412 -0.000009 -27.971806
v 5.635141 0.000049 -29.432304
v 3.095415 -0.000009 -27.971806
v 0.555414 -0.000009 -27.971806
v 36.115417 -0.000009 -27.971806
v 33.575417 -0.000009 -27.971806
v 36.115417 -0.000009 -29.824554
v 31.035414 -0.000009 -27.971806
v 25.955416 -0.000009 -29.824554
v 28.495417 -0.000009 -27.971806
v 25.955416 -0.000009 -27.971806
v 69.135422 2.539990 2.508194
v 69.135422 2.539990 -0.031807
v 70.405418 2.539990 2.508194
v 69.135422 2.539990 -2.571808
v 70.405418 2.539990 -7.651806
v 69.135422 2.539990 -5.111809
v 69.135422 2.539990 -7.651806
v 31.035414 -0.000010 -12.731804
v 33.575417 -0.000010 -12.731804
v 33.412384 -0.000010 -10.897430
v 36.115417 -0.000010 -10.191807
v 35.075768 -0.000010 -9.716103
v 36.451263 -0.000010 -8.222546
v 18.335413 -0.000009 -26.701805
v 20.875410 -0.000009 -27.971806
v 20.875410 -0.000009 -26.701805
v 23.415415 -0.000009 -27.971806
v 23.415415 -0.000009 -26.701805
v 25.955416 -0.000009 -26.701805
v 66.595421 2.539990 12.668190
v 66.595421 2.539990 10.128189
v 67.865417 2.539990 12.668190
v 67.865417 2.539990 10.128189
v 69.135422 2.539990 12.668190
v 69.135422 2.539990 10.128189
v -5.794584 -0.000010 12.668190
v -5.794584 -0.000010 10.128189
v -4.524584 -0.000010 12.668190
v -4.524584 -0.000010 10.128189
v -1.984585 -0.000010 12.668190
v -1.984585 -0.000010 10.128189
v 38.655418 -0.000010 12.668190
v 38.655418 -0.000010 10.128189
v 41.195419 -0.000010 12.668190
v 41.195419 -0.000010 10.128189
v 42.465424 -0.000010 12.668190
v 42.465424 -0.000010 10.128189
v 20.875410 -0.000010 21.558189
v 23.415415 -0.000010 21.558189
v 23.415415 -0.000010 22.828194
v 25.955416 -0.000010 21.558189
v 25.955416 -0.000010 22.828194
v 28.495417 -0.000010 21.558189
v 25.955416 -0.000010 23.684174
v 28.495417 -0.000010 22.828194
v 36.115417 -0.000010 23.684174
v 31.035414 -0.000010 22.828194
v 33.575417 -0.000010 22.828194
v 51.355423 2.539990 23.463196
v 53.895416 2.539990 22.828194
v 61.515419 2.539990 23.463196
v 56.435417 2.539990 22.828194
v 58.975418 2.539990 22.828194
v -5.794584 -0.000010 -15.271805
v -4.524584 -0.000010 -17.811806
v -4.524584 -0.000010 -15.271805
v -1.984585 -0.000010 -17.811806
v -1.984585 -0.000010 -15.271805
v 38.655418 -0.000010 -15.271805
v 41.195419 -0.000010 -17.811806
v 41.195419 -0.000010 -15.271805
v 42.465424 -0.000010 -17.811806
v 42.465424 -0.000010 -15.271805
v -7.064585 -0.000010 -17.811806
v -7.064585 -0.000010 -20.351807
v -5.794584 -0.000010 -20.351807
v -7.064585 -0.000010 -22.891804
v -5.794584 -0.000010 -22.891804
v 43.735390 -0.000010 -22.891804
v 43.735390 -0.000010 -20.351807
v 42.465424 -0.000010 -20.351807
v 43.735390 -0.000010 -17.811806
v 42.465424 -0.000010 -17.811806
v -5.794584 -0.000010 -22.891804
v -7.064585 -0.000010 -22.891804
v -5.794584 -0.000009 -25.431805
v -7.064585 -0.000009 -25.431805
v -7.064585 -0.000009 -26.701805
v 43.735420 -0.000009 -26.701805
v 43.735420 -0.000009 -25.431805
v 42.465424 -0.000009 -25.431805
v 43.735390 -0.000010 -22.891804
v 42.465424 -0.000010 -22.891804
v 47.545418 2.539990 -26.701805
v 47.545418 2.539990 -27.971809
v 48.815422 2.539990 -26.701805
v 48.815422 2.539990 -27.971806
v 51.355423 2.539990 -27.971806
v 47.545387 2.539990 -17.811806
v 47.545387 2.539990 -20.351807
v 48.815422 2.539990 -20.351807
v 47.545387 2.539990 -22.891804
v 48.815422 2.539990 -22.891804
v 66.595421 2.539990 -15.271805
v 67.865417 2.539990 -17.811806
v 67.865417 2.539990 -15.271805
v 69.135422 2.539990 -17.811806
v 69.135422 2.539990 -15.271805
v 69.135422 2.539990 -22.891804
v 69.135422 2.539990 -20.351807
v 67.865417 2.539990 -20.351807
v 69.135422 2.539990 -17.811806
v 67.865417 2.539990 -17.811806
v 48.815422 2.539990 -22.891804
v 47.545387 2.539990 -22.891804
v 48.815422 2.539990 -25.431805
v 47.545403 2.539296 -24.796806
v 47.545418 2.539990 -25.431805
v 69.135422 2.539990 -26.701805
v 69.135422 2.539990 -25.431805
v 67.865417 2.539990 -25.431805
v 69.135422 2.539990 -22.891804
v 67.865417 2.539990 -22.891804
v 51.355423 2.539990 22.828194
v 48.815422 2.539990 22.828194
v 48.815422 2.539990 21.558189
v 47.545418 2.539990 22.828194
v 47.545418 2.539990 21.558189
v 56.435417 2.539990 2.508194
v 58.975418 2.539990 5.048195
v 56.435417 2.539990 5.048195
v 58.975418 2.539990 7.588196
v 56.435417 2.539990 7.588196
v 67.865417 2.539990 12.668190
v 69.135422 2.539990 12.668190
v 67.865417 2.539990 15.208191
v 69.135422 2.539990 15.208191
v 69.135422 2.539990 17.748192
v 47.545418 2.539990 21.558189
v 47.545418 2.539990 20.288193
v 48.815422 2.539990 20.288193
v 47.545403 2.539296 19.653191
v 47.545387 2.539990 17.748192
v 67.865417 2.539990 17.748192
v 69.135422 2.539990 17.748192
v 67.865417 2.539990 20.288193
v 69.135422 2.539990 20.288193
v 69.135422 2.539990 21.558189
v 35.075768 -0.000010 4.572495
v 36.115417 -0.000010 5.048195
v 33.412384 -0.000010 5.753822
v 33.575417 -0.000010 7.588196
v 31.035414 -0.000010 7.588196
v 42.465424 -0.000010 2.508194
v 43.735390 -0.000010 5.048195
v 42.465424 -0.000010 5.048195
v 43.735390 -0.000010 7.588196
v 42.465424 -0.000010 7.588196
v -5.794584 -0.000010 17.748192
v -7.064585 -0.000010 17.748192
v -5.794584 -0.000010 15.208191
v -7.064585 -0.000010 15.208191
v -7.064585 -0.000010 12.668190
v 42.465424 -0.000010 12.668190
v 43.735390 -0.000010 12.668190
v 42.465424 -0.000010 15.208191
v 43.735390 -0.000010 15.208191
v 43.735390 -0.000010 17.748192
v -7.064585 -0.000010 21.558189
v -7.064585 -0.000010 20.288193
v -5.794584 -0.000010 20.288193
v -7.064585 -0.000010 17.748192
v -5.794584 -0.000010 17.748192
v 42.465424 -0.000010 17.748192
v 43.735390 -0.000010 17.748192
v 42.465424 -0.000010 20.288193
v 43.735420 -0.000010 20.288193
v 43.735420 -0.000010 21.558189
v -7.064585 -0.000010 -5.111809
v -5.794584 -0.000010 -2.571808
v -7.064585 -0.000010 -2.571808
v -7.064585 -0.000010 -0.031815
v 20.539560 -0.000010 -8.222546
v 20.875410 -0.000010 -10.191807
v 21.915236 -0.000010 -9.716103
v 23.578455 -0.000010 -10.897430
v 42.465424 -0.000010 -15.271805
v 43.735390 -0.000010 -15.271805
v 42.465424 -0.000010 -12.731804
v 43.735390 -0.000010 -12.731804
v 43.735390 -0.000010 -15.271805
v 42.465424 -0.000010 -15.271805
v 43.735390 -0.000010 -17.811806
v 42.465424 -0.000010 -17.811806
v 23.415415 -0.000009 -27.971806
v 25.955416 -0.000009 -27.971806
v 25.955416 -0.000009 -26.701805
v 28.495417 -0.000009 -26.701805
v -7.064585 -0.000009 -26.701805
v -7.064585 -0.000009 -27.971806
v -4.524584 -0.000009 -26.701805
v -4.524584 -0.000009 -27.971806
v -1.984585 -0.000009 -26.701805
v -4.524584 -0.000009 -26.701805
v -1.984585 -0.000009 -27.971806
v -4.524584 -0.000009 -27.971806
v 41.195419 -0.000009 -26.701805
v 38.655418 -0.000009 -26.701805
v 41.195419 -0.000009 -27.971806
v 38.655418 -0.000009 -27.971806
v 43.735420 -0.000009 -26.701805
v 41.195419 -0.000009 -26.701805
v 43.735420 -0.000009 -27.971806
v 41.195419 -0.000009 -27.971806
v 61.515419 2.539990 -17.811806
v 64.055420 2.539990 -17.811806
v 61.515419 2.539990 -15.271805
v 64.055420 2.539990 -15.271805
v 64.055420 2.539990 -17.811806
v 66.595421 2.539990 -17.811806
v 64.055420 2.539990 -15.271805
v 66.595421 2.539990 -15.271805
v 67.865417 2.539990 -15.271805
v 69.135422 2.539990 -15.271805
v 67.865417 2.539990 -12.731804
v 69.135422 2.539990 -12.731804
v 47.545418 2.539990 -25.431805
v 47.545418 2.539990 -26.701805
v 48.815422 2.539990 -25.431805
v 48.815422 2.539990 -26.701805
v 61.515419 2.539990 12.668190
v 61.515419 2.539990 10.128189
v 64.055420 2.539990 12.668190
v 64.055420 2.539990 10.128189
v 64.055420 2.539990 12.668190
v 64.055420 2.539990 10.128189
v 66.595421 2.539990 12.668190
v 66.595421 2.539990 10.128189
v 67.865417 2.539990 10.128189
v 67.865417 2.539990 7.588196
v 69.135422 2.539990 10.128189
v 69.135422 2.539990 7.588196
v 20.539560 -0.000010 3.078934
v 21.915236 -0.000010 4.572495
v 20.875410 -0.000010 5.048195
v 23.578455 -0.000010 5.753822
v 42.465424 -0.000010 10.128189
v 42.465424 -0.000010 7.588196
v 43.735382 -0.000010 10.128189
v 43.735390 -0.000010 7.588196
v 43.735382 -0.000010 10.128189
v 43.735390 -0.000010 12.668190
v 42.465424 -0.000010 10.128189
v 42.465424 -0.000010 12.668190
v 18.335413 -0.000010 21.558189
v 20.875410 -0.000010 21.558189
v 20.875410 -0.000010 22.828194
v 23.415415 -0.000010 22.828194
v -7.064585 -0.000010 21.558189
v -4.524584 -0.000010 21.558189
v -7.064585 -0.000010 22.828194
v -4.524584 -0.000010 22.828194
v -1.984585 -0.000010 21.558189
v -1.984585 -0.000010 22.828194
v -4.524584 -0.000010 21.558189
v -4.524584 -0.000010 22.828194
v 41.195419 -0.000010 21.558189
v 41.195419 -0.000010 22.828194
v 38.655418 -0.000010 21.558189
v 38.655418 -0.000010 22.828194
v 43.735420 -0.000010 21.558189
v 43.735420 -0.000010 22.828194
v 41.195419 -0.000010 21.558189
v 41.195419 -0.000010 22.828194
v 28.495417 -0.000010 22.828194
v 25.955416 -0.000010 23.684174
v 25.955416 -0.000010 22.828194
v 33.575417 -0.000010 22.828194
v 36.115417 -0.000010 22.828194
v 36.115417 -0.000010 23.684174
v 53.895416 2.539990 22.828194
v 51.355423 2.539990 23.463196
v 51.355423 2.539990 22.828194
v 58.975418 2.539990 22.828194
v 61.515419 2.539990 22.828194
v 61.515419 2.539990 23.463196
v -7.064585 -0.000010 -5.111809
v -7.064585 -0.000010 -7.651806
v -5.794584 -0.000010 -5.111809
v -7.064585 -0.000010 -7.651806
v -7.064585 -0.000010 -10.191807
v -5.794584 -0.000010 -7.651806
v -7.064585 -0.000010 -10.191807
v -7.064585 -0.000010 -12.731804
v -5.794584 -0.000010 -10.191807
v 36.115417 -0.000010 -12.731804
v 38.655418 -0.000010 -12.731804
v 38.655418 -0.000010 -10.191807
v 18.876234 -0.000010 -4.570564
v 18.335413 -0.000010 -2.569122
v 18.335413 -0.000010 -5.111809
v 18.335413 -0.000010 -17.811806
v 15.795412 -0.000010 -15.271805
v 15.795412 -0.000010 -17.811806
v -4.524584 -0.000010 -17.811806
v -5.794584 -0.000010 -15.271805
v -5.794584 -0.000010 -17.811806
v 41.195419 -0.000010 -17.811806
v 38.655418 -0.000010 -15.271805
v 38.655418 -0.000010 -17.811806
v 42.465424 -0.000010 -22.891804
v 43.735390 -0.000010 -22.891804
v 42.465424 -0.000010 -20.351807
v -7.064585 -0.000009 -26.701805
v -5.794584 -0.000009 -26.701805
v -5.794584 -0.000009 -25.431805
v 42.465424 -0.000009 -26.701805
v 43.735420 -0.000009 -26.701805
v 42.465424 -0.000009 -25.431805
v 10.715414 -0.000009 -26.701805
v 8.175413 -0.000009 -26.701805
v 10.715414 -0.000009 -27.971806
v 64.055420 2.539990 -27.971806
v 64.055420 2.539990 -26.701805
v 61.515419 2.539990 -26.701805
v 51.355423 2.539990 -27.971806
v 51.355423 2.539990 -26.701805
v 48.815422 2.539990 -26.701805
v 69.135422 2.539990 -27.971806
v 69.135422 2.539990 -26.701805
v 66.595421 2.539990 -26.701805
v 69.135422 2.539990 -27.971806
v 66.595421 2.539990 -26.701805
v 66.595421 2.539990 -27.971806
v 66.595421 2.539990 -27.971806
v 66.595421 2.539990 -26.701805
v 64.055420 2.539990 -26.701805
v 66.595421 2.539990 -27.971806
v 64.055420 2.539990 -26.701805
v 64.055420 2.539990 -27.971806
v 51.355423 2.539990 -17.811806
v 48.815422 2.539990 -15.271805
v 48.815422 2.539990 -17.811806
v 67.865417 2.539990 -17.811806
v 66.595421 2.539990 -15.271805
v 66.595421 2.539990 -17.811806
v 67.865417 2.539990 -22.891804
v 69.135422 2.539990 -22.891804
v 67.865417 2.539990 -20.351807
v 67.865417 2.539990 -26.701805
v 69.135422 2.539990 -26.701805
v 67.865417 2.539990 -25.431805
v 64.055420 2.539990 21.558189
v 64.055420 2.539990 22.828194
v 61.515419 2.539990 21.558189
v 69.135422 2.539990 21.558189
v 69.135422 2.539990 22.828194
v 66.595421 2.539990 21.558189
v 66.595421 2.539990 21.558189
v 69.135422 2.539990 22.828194
v 66.595421 2.539990 22.828194
v 66.595421 2.539990 21.558189
v 66.595421 2.539990 22.828194
v 64.055420 2.539990 21.558189
v 64.055420 2.539990 21.558189
v 66.595421 2.539990 22.828194
v 64.055420 2.539990 22.828194
v 47.545387 2.539990 -0.031807
v 48.815422 2.539990 -2.571808
v 48.815422 2.539990 -0.031807
v 48.815422 2.539990 17.748192
v 47.545387 2.539990 17.748192
v 48.815422 2.539990 15.208191
v 58.975418 2.539990 5.048195
v 61.515419 2.539990 7.588196
v 58.975418 2.539990 7.588196
v 69.135422 2.539990 17.748192
v 67.865417 2.539990 17.748192
v 67.865417 2.539990 15.208191
v 47.545387 2.539990 17.748192
v 48.815422 2.539990 17.748192
v 48.815422 2.539990 20.288193
v 48.815422 2.539990 21.558189
v 47.545418 2.539990 21.558189
v 48.815422 2.539990 20.288193
v 69.135422 2.539990 21.558189
v 67.865417 2.539990 21.558189
v 67.865417 2.539990 20.288193
v 13.255411 -0.000010 -0.031815
v 10.715414 -0.000010 -2.571808
v 13.255411 -0.000010 -2.569122
v 13.255411 -0.000010 -0.031815
v 13.255411 -0.000010 2.508194
v 10.715414 -0.000010 -0.031815
v 13.255411 -0.000010 2.508194
v 13.255411 -0.000010 5.048195
v 10.715414 -0.000010 2.508194
v 36.115417 -0.000010 7.588196
v 33.575417 -0.000010 7.588196
v 36.115417 -0.000010 5.048195
v 33.412384 -0.000010 5.753822
v 31.035414 -0.000010 7.588196
v 31.534460 -0.000010 6.571243
v 38.655418 -0.000010 7.588196
v 36.115417 -0.000010 7.588196
v 38.655418 -0.000010 5.048195
v 36.115417 -0.000010 5.048195
v 35.075768 -0.000010 4.572495
v 36.451263 -0.000010 3.078934
v 38.655418 -0.000010 10.128189
v 38.655418 -0.000010 12.668190
v 36.115417 -0.000010 10.128189
v 43.735390 -0.000010 17.748192
v 42.465424 -0.000010 17.748192
v 42.465424 -0.000010 15.208191
v -5.794584 -0.000010 21.558189
v -7.064585 -0.000010 21.558189
v -5.794584 -0.000010 20.288193
v 43.735420 -0.000010 21.558189
v 42.465424 -0.000010 21.558189
v 42.465424 -0.000010 20.288193
v 5.635141 0.000049 -29.432304
v 0.555414 -0.000009 -27.971806
v 0.555414 -0.000009 -29.432304
vt -1.998047 -2.498047
vt -1.748047 -2.997070
vt -1.748047 -2.498047
vt -1.498047 -2.498047
vt -1.498047 -2.997070
vt -0.999023 -2.498047
vt -0.999023 -2.997070
vt -0.499023 -2.498047
vt -0.499023 -2.997070
vt 0.000000 -2.498047
vt 0.000000 -2.997070
vt 0.499023 -2.498047
vt 0.499023 -2.997070
vt 0.998047 -2.498047
vt 0.998047 -2.997070
vt 1.498047 -2.498047
vt 1.498047 -2.997070
vt 1.998047 -2.498047
vt 1.998047 -2.998047
vt -1.998047 -1.998047
vt -1.748047 -2.498047
vt -1.748047 -1.998047
vt -1.498047 -1.998047
vt -1.498047 -2.498047
vt -0.999023 -1.998047
vt -0.999023 -2.498047
vt -0.499023 -1.998047
vt -0.499023 -2.498047
vt 0.000000 -1.998047
vt 0.000000 -2.498047
vt 0.499023 -1.998047
vt 0.499023 -2.498047
vt 0.998047 -1.998047
vt 0.998047 -2.498047
vt 1.498047 -1.998047
vt 1.498047 -2.498047
vt 1.998047 -1.998047
vt 1.998047 -2.498047
vt -1.998047 -1.499023
vt -1.748047 -1.998047
vt -1.748047 -1.499023
vt -1.498047 -1.499023
vt -1.498047 -1.998047
vt -0.999023 -1.499023
vt -0.999023 -1.998047
vt -0.499023 -1.499023
vt -0.499023 -1.998047
vt 0.000000 -1.499023
vt 0.000000 -1.998047
vt 0.499023 -1.499023
vt 0.499023 -1.998047
vt 0.998047 -1.499023
vt 0.998047 -1.998047
vt 1.498047 -1.499023
vt 1.498047 -1.998047
vt 1.998047 -1.499023
vt 1.998047 -1.998047
vt -1.998047 -1.000000
vt -1.748047 -1.499023
vt -1.748047 -1.000000
vt -1.498047 -1.000000
vt -1.498047 -1.499023
vt -0.999023 -1.000000
vt -0.999023 -1.499023
vt -0.499023 -1.000000
vt -0.499023 -1.499023
vt 0.000000 -1.000000
vt 0.000000 -1.499023
vt 0.499023 -1.000000
vt 0.499023 -1.499023
vt 0.998047 -1.000000
vt 0.998047 -1.499023
vt 1.498047 -1.000000
vt 1.498047 -1.499023
vt 1.998047 -1.000000
vt 1.998047 -1.499023
vt -1.998047 -1.499023
vt -1.527344 -1.499023
vt -1.527344 -1.000000
vt -0.999023 -1.000000
vt -0.999023 -1.499023
vt -0.499023 -1.000000
vt -0.499023 -1.499023
vt 0.000000 -1.000000
vt 0.000000 -1.499023
vt 0.499023 -1.000000
vt 0.499023 -1.499023
vt 0.999023 -1.000000
vt 0.999023 -1.499023
vt 1.498047 -1.000000
vt 1.498047 -1.499023
vt 1.998047 -1.000000
vt 1.998047 -1.499023
vt 2.497070 -1.000000
vt 2.497070 -1.499023
vt -1.998047 -1.998047
vt -1.748047 -2.498047
vt -1.998047 -2.498047
vt -1.748047 -2.997070
vt -1.498047 -2.498047
vt -1.498047 -2.997070
vt -0.999023 -2.498047
vt -0.999023 -2.997070
vt -0.499023 -2.498047
vt -0.499023 -2.997070
vt 0.000000 -2.498047
vt 0.000000 -2.997070
vt 0.499023 -2.498047
vt 0.499023 -2.997070
vt 0.998047 -2.498047
vt 0.998047 -2.997070
vt 1.498047 -2.498047
vt 1.498047 -2.997070
vt 1.998047 -2.498047
vt -1.998047 -1.499023
vt -1.748047 -1.998047
vt -1.998047 -1.998047
vt -1.748047 -2.498047
vt -1.498047 -1.998047
vt -1.498047 -2.498047
vt -0.999023 -1.998047
vt -0.999023 -2.498047
vt -0.499023 -1.998047
vt -0.499023 -2.498047
vt 0.000000 -1.998047
vt 0.000000 -2.498047
vt 0.499023 -1.998047
vt 0.499023 -2.498047
vt 0.998047 -1.998047
vt 0.998047 -2.498047
vt 1.498047 -1.998047
vt 1.498047 -2.498047
vt 1.998047 -1.998047
vt -1.998047 -1.000000
vt -1.748047 -1.499023
vt -1.998047 -1.499023
vt -1.748047 -1.998047
vt -1.498047 -1.499023
vt -1.498047 -1.998047
vt -0.999023 -1.499023
vt -0.999023 -1.998047
vt -0.499023 -1.499023
vt -0.499023 -1.998047
vt 0.000000 -1.499023
vt 0.000000 -1.998047
vt 0.499023 -1.499023
vt 0.499023 -1.998047
vt 0.998047 -1.499023
vt 0.998047 -1.998047
vt 1.498047 -1.499023
vt 1.498047 -1.998047
vt 1.998047 -1.499023
vt 1.998047 -1.499023
vt 1.498047 -1.499023
vt 1.998047 -1.000000
vt 1.498047 -1.000000
vt 0.998047 -1.499023
vt 0.998047 -1.000000
vt 0.499023 -1.499023
vt 0.499023 -1.000000
vt 0.000000 -1.499023
vt 0.000000 -1.000000
vt -0.499023 -1.499023
vt -0.499023 -1.000000
vt -0.999023 -1.499023
vt -0.999023 -1.000000
vt -1.498047 -1.499023
vt -1.498047 -1.000000
vt -1.748047 -1.499023
vt -1.748047 -1.000000
vt -1.998047 -1.000000
vt -1.998047 -1.000000
vt -1.527344 -1.000000
vt -1.998047 -1.499023
vt -1.527344 -1.499023
vt -0.999023 -1.000000
vt -0.999023 -1.499023
vt -0.499023 -1.000000
vt -0.499023 -1.499023
vt 0.000000 -1.000000
vt 0.000000 -1.499023
vt 0.499023 -1.000000
vt 0.499023 -1.499023
vt 0.999023 -1.000000
vt 0.999023 -1.499023
vt 1.498047 -1.000000
vt 1.498047 -1.499023
vt 1.998047 -1.000000
vt 1.998047 -1.499023
vt 2.497070 -1.000000
vt -1.498047 -1.499023
vt -1.498047 -1.999023
vt -0.999023 -1.499023
vt -0.999023 -1.999023
vt -1.498047 -2.498047
vt -0.999023 -2.498047
vt -1.498047 -2.998047
vt -0.999023 -2.998047
vt -1.498047 -3.497070
vt -0.999023 -3.497070
vt -0.999023 -2.998047
vt -0.499023 -2.998047
vt -0.499023 -2.498047
vt 0.000000 -2.498047
vt 0.000000 -1.999023
vt 0.499023 -1.999023
vt 0.499023 -1.499023
vt 0.999023 -1.499023
vt -0.999023 -1.499023
vt -0.999023 -1.999023
vt -0.499023 -1.499023
vt -0.499023 -1.999023
vt -0.999023 -2.498047
vt -0.499023 -2.498047
vt -0.999023 -2.998047
vt -0.499023 -2.998047
vt -0.999023 -3.497070
vt -0.499023 -3.497070
vt -0.499023 -2.998047
vt 0.000000 -2.998047
vt 0.000000 -2.498047
vt 0.499023 -2.498047
vt 0.499023 -1.999023
vt 0.999023 -1.999023
vt 0.999023 -1.499023
vt 1.498047 -1.499023
vt -0.499023 -1.499023
vt -0.499023 -1.999023
vt 0.000000 -1.499023
vt 0.000000 -1.999023
vt -0.499023 -2.498047
vt 0.000000 -2.498047
vt -0.499023 -2.998047
vt 0.000000 -2.998047
vt -0.499023 -3.497070
vt 0.000000 -3.497070
vt 0.000000 -2.998047
vt 0.499023 -2.998047
vt 0.499023 -2.498047
vt 0.999023 -2.498047
vt 0.999023 -1.999023
vt 1.498047 -1.999023
vt 1.498047 -1.499023
vt 1.748047 -1.499023
vt 0.000000 -1.499023
vt 0.000000 -1.999023
vt 0.499023 -1.499023
vt 0.499023 -1.999023
vt 0.000000 -2.498047
vt 0.499023 -2.498047
vt 0.000000 -2.998047
vt 0.499023 -2.998047
vt 0.000000 -3.497070
vt 0.499023 -3.497070
vt 0.499023 -2.998047
vt 0.999023 -2.998047
vt 0.999023 -2.498047
vt 1.498047 -2.498047
vt 1.498047 -1.999023
vt 1.748047 -1.999023
vt 1.748047 -1.499023
vt 1.998047 -1.499023
vt 0.499023 -1.499023
vt 0.499023 -1.999023
vt 0.999023 -1.499023
vt 0.999023 -1.999023
vt 0.499023 -2.498047
vt 0.999023 -2.498047
vt 0.499023 -2.998047
vt 0.999023 -2.998047
vt 0.499023 -3.497070
vt 0.999023 -3.497070
vt 0.999023 -2.998047
vt 1.498047 -2.998047
vt 1.498047 -2.498047
vt 1.748047 -2.498047
vt 1.748047 -1.999023
vt 1.998047 -1.999023
vt 1.998047 -1.499023
vt -4.495117 1.497070
vt -4.995117 0.998047
vt -4.495117 0.998047
vt -4.495117 0.498047
vt -4.995117 0.498047
vt -4.495117 -0.000977
vt -4.995117 -0.000977
vt -4.495117 -0.500977
vt -4.995117 -0.500977
vt -4.495117 -1.000000
vt -4.995117 -1.000000
vt -4.495117 -1.499023
vt -4.995117 -1.499023
vt -4.495117 -1.999023
vt -4.995117 -1.999023
vt -4.995117 -1.499023
vt -4.995117 1.997070
vt -4.495117 1.497070
vt -4.995117 1.497070
vt -4.995117 0.998047
vt -4.495117 0.998047
vt -4.495117 0.498047
vt -3.996094 0.998047
vt -3.996094 0.498047
vt -3.496094 0.998047
vt -3.496094 0.498047
vt -2.997070 0.998047
vt -2.997070 0.498047
vt -2.497070 0.998047
vt -2.497070 0.498047
vt -1.998047 0.998047
vt -1.998047 0.498047
vt 0.000000 -1.000000
vt 0.000000 -1.499023
vt 0.499023 -1.000000
vt 0.499023 -1.499023
vt 0.000000 -1.999023
vt 0.499023 -1.999023
vt 0.000000 -2.498047
vt 0.499023 -2.498047
vt 0.000000 -2.998047
vt 0.499023 -2.998047
vt 0.499023 -2.498047
vt 0.749023 -2.498047
vt 0.749023 -1.999023
vt 0.999023 -1.999023
vt 0.999023 -1.499023
vt 0.999023 -1.499023
vt 0.999023 -1.999023
vt 1.498047 -1.499023
vt 1.498047 -1.999023
vt 0.999023 -2.498047
vt 1.498047 -2.498047
vt 0.999023 -2.998047
vt 1.498047 -2.998047
vt 0.999023 -3.497070
vt 1.498047 -3.497070
vt 1.498047 -2.998047
vt 1.748047 -2.998047
vt 1.748047 -2.498047
vt 1.998047 -2.498047
vt 1.998047 -1.999023
vt 0.966797 -1.360352
vt 0.499023 -1.000000
vt 0.596680 -1.199219
vt 0.202148 -1.117188
vt 0.000000 -1.000000
vt -0.201172 -1.117188
vt -0.499023 -1.000000
vt -0.596680 -1.199219
vt -0.999023 -1.000000
vt -0.966797 -1.360352
vt -1.498047 -1.000000
vt -1.498047 -1.499023
vt -1.998047 -1.000000
vt -1.998047 -1.499023
vt 0.499023 -1.000000
vt 0.499023 -1.499023
vt 0.749023 -1.000000
vt 0.749023 -1.499023
vt 0.499023 -1.999023
vt 0.749023 -1.999023
vt 0.499023 -2.498047
vt 0.749023 -2.498047
vt 0.499023 -2.998047
vt 0.749023 -2.998047
vt 0.749023 -2.498047
vt 0.999023 -2.498047
vt 0.999023 -1.999023
vt 1.498047 -1.499023
vt 1.498047 -1.999023
vt 1.748047 -1.499023
vt 1.748047 -1.999023
vt 1.498047 -2.498047
vt 1.748047 -2.498047
vt 1.498047 -2.998047
vt 1.748047 -2.998047
vt 1.498047 -3.497070
vt 1.748047 -3.497070
vt 1.748047 -2.998047
vt 1.998047 -2.998047
vt 1.998047 -2.498047
vt 0.596680 -1.199219
vt 0.202148 -1.117188
vt 0.499023 -1.000000
vt 0.000000 -1.000000
vt -0.201172 -1.117188
vt -0.499023 -1.000000
vt -0.596680 -1.199219
vt -0.999023 -1.000000
vt -0.966797 -1.360352
vt -1.498047 -1.000000
vt -1.498047 -1.499023
vt -1.998047 -1.000000
vt -1.998047 -1.499023
vt 0.999023 -1.000000
vt 1.498047 -1.499023
vt 1.498047 -1.000000
vt 1.998047 -1.499023
vt 1.564453 -1.885742
vt 1.998047 -1.998047
vt 1.766602 -2.228516
vt 1.998047 -2.498047
vt 1.891602 -2.604492
vt 1.998047 -2.997070
vt 1.941406 -2.997070
vt 1.891602 -2.604492
vt -4.495117 2.496094
vt -3.996094 2.996094
vt -3.996094 2.496094
vt -3.496094 2.496094
vt -3.496094 2.996094
vt -2.997070 2.496094
vt -2.997070 2.996094
vt -2.497070 2.496094
vt -2.497070 2.996094
vt -1.998047 2.496094
vt -1.998047 2.996094
vt -1.498047 2.996094
vt 0.749023 -1.000000
vt 0.749023 -1.499023
vt 0.999023 -1.000000
vt 0.999023 -1.499023
vt 0.749023 -1.999023
vt 0.999023 -1.999023
vt 0.749023 -2.498047
vt 0.999023 -2.498047
vt 0.749023 -2.998047
vt 0.999023 -2.998047
vt 0.999023 -2.498047
vt -1.498047 0.498047
vt -1.998047 0.998047
vt -1.998047 0.498047
vt -2.497070 0.498047
vt -2.497070 0.998047
vt -2.997070 0.498047
vt -2.997070 0.998047
vt -3.496094 0.498047
vt -3.496094 0.998047
vt -3.996094 0.498047
vt -3.996094 0.998047
vt -3.996094 2.496094
vt -3.496094 2.496094
vt -3.996094 2.996094
vt -3.496094 2.996094
vt -2.997070 2.496094
vt -2.997070 2.996094
vt -2.497070 2.496094
vt -2.497070 2.996094
vt -1.998047 2.496094
vt -1.998047 2.996094
vt -1.498047 2.996094
vt 1.498047 2.996094
vt 1.998047 2.496094
vt 1.998047 2.996094
vt 2.497070 2.996094
vt 2.497070 2.496094
vt 2.997070 2.996094
vt 2.997070 2.496094
vt 3.496094 2.996094
vt 3.496094 2.496094
vt 3.996094 2.996094
vt 3.996094 2.496094
vt -3.996094 2.496094
vt -3.496094 2.496094
vt -3.996094 2.996094
vt -3.496094 2.996094
vt -2.997070 2.496094
vt -2.997070 2.996094
vt -2.497070 2.496094
vt -2.497070 2.996094
vt -1.998047 2.496094
vt -1.998047 2.996094
vt -1.498047 2.996094
vt -4.495117 0.498047
vt -3.996094 0.498047
vt -3.996094 0.998047
vt -3.496094 0.998047
vt -3.496094 0.498047
vt -2.997070 0.998047
vt -2.997070 0.498047
vt -2.497070 0.998047
vt -2.497070 0.498047
vt -1.998047 0.998047
vt -1.998047 0.498047
vt 1.748047 -1.499023
vt 1.748047 -1.999023
vt 1.998047 -1.499023
vt 1.998047 -1.999023
vt 1.748047 -2.498047
vt 1.998047 -2.498047
vt 1.748047 -2.998047
vt 1.998047 -2.998047
vt 1.748047 -3.497070
vt 1.998047 -3.497070
vt 1.998047 -2.998047
vt -4.995117 -1.499023
vt -4.995117 -1.000000
vt -4.495117 -1.499023
vt -4.495117 -1.000000
vt -4.995117 -0.500977
vt -4.495117 -0.500977
vt -4.995117 -0.000977
vt -4.495117 -0.000977
vt -4.995117 0.498047
vt -4.495117 0.498047
vt -4.995117 0.998047
vt -3.996094 0.998047
vt -3.496094 0.998047
vt -3.996094 0.498047
vt -3.496094 0.498047
vt -2.997070 0.998047
vt -2.997070 0.498047
vt -2.497070 0.998047
vt -2.497070 0.498047
vt -1.998047 0.998047
vt -1.998047 0.498047
vt -1.498047 0.498047
vt -1.498047 2.996094
vt -1.998047 2.496094
vt -1.998047 2.996094
vt -2.497070 2.996094
vt -2.497070 2.496094
vt -2.997070 2.996094
vt -2.997070 2.496094
vt -3.496094 2.996094
vt -3.496094 2.496094
vt -3.996094 2.996094
vt -3.996094 2.496094
vt 3.996094 2.496094
vt 3.496094 2.496094
vt 3.996094 2.996094
vt 3.496094 2.996094
vt 2.997070 2.496094
vt 2.997070 2.996094
vt 2.497070 2.496094
vt 2.497070 2.996094
vt 1.998047 2.496094
vt 1.998047 2.996094
vt 1.498047 2.996094
vt -1.891602 -2.604492
vt -1.998047 -2.998047
vt -1.941406 -2.997070
vt -1.891602 -2.604492
vt -1.998047 -2.498047
vt -1.766602 -2.228516
vt -1.998047 -1.998047
vt -1.564453 -1.885742
vt -1.998047 -1.499023
vt -1.498047 -1.499023
vt -1.998047 2.496094
vt -1.498047 2.996094
vt -1.498047 2.496094
vt -0.999023 2.496094
vt -0.999023 2.996094
vt -0.499023 2.496094
vt -0.499023 2.996094
vt 0.000000 2.496094
vt 0.000000 2.996094
vt 0.499023 2.996094
vt 1.210938 -2.498047
vt 1.210938 -1.999023
vt 1.498047 -2.498047
vt 1.498047 -1.999023
vt 1.210938 -1.499023
vt 1.498047 -1.499023
vt 1.210938 -1.000000
vt 1.498047 -1.000000
vt 1.210938 -0.500977
vt 1.498047 -0.500977
vt 1.498047 -2.498047
vt 1.498047 -1.999023
vt 1.210938 -2.498047
vt 1.210938 -1.999023
vt 1.498047 -1.499023
vt 1.210938 -1.499023
vt 1.498047 -1.000000
vt 1.210938 -1.000000
vt 1.498047 -0.500977
vt 1.210938 -0.500977
vt -1.498047 2.496094
vt -0.999023 2.496094
vt -1.498047 2.996094
vt -0.999023 2.996094
vt -0.499023 2.496094
vt -0.499023 2.996094
vt 0.000000 2.496094
vt 0.000000 2.996094
vt 0.499023 2.996094
vt -1.498047 -3.497070
vt -1.498047 -2.998047
vt -0.999023 -2.998047
vt -0.999023 -2.498047
vt -1.498047 -2.498047
vt -0.999023 -1.999023
vt -1.498047 -1.999023
vt -0.999023 -1.499023
vt -1.498047 -1.499023
vt 1.498047 -1.000000
vt 1.998047 -1.499023
vt 1.498047 -1.499023
vt 1.564453 -1.885742
vt 1.998047 -1.998047
vt 1.766602 -2.228516
vt 1.998047 -2.498047
vt 1.891602 -2.604492
vt 1.998047 -2.997070
vt 0.000000 -2.998047
vt 0.000000 -2.498047
vt 0.499023 -2.498047
vt 0.499023 -1.999023
vt 0.000000 -1.999023
vt 0.499023 -1.499023
vt 0.000000 -1.499023
vt 0.499023 -1.000000
vt 0.000000 -1.000000
vt -1.891602 -2.604492
vt -1.766602 -2.228516
vt -1.998047 -2.498047
vt -1.998047 -1.998047
vt -1.564453 -1.885742
vt -1.998047 -1.499023
vt -1.498047 -1.499023
vt -1.998047 0.998047
vt -1.498047 0.498047
vt -1.498047 0.998047
vt -0.999023 0.998047
vt -0.999023 0.498047
vt -0.499023 0.998047
vt -0.499023 0.498047
vt -4.495117 1.497070
vt -4.995117 0.998047
vt -4.495117 0.998047
vt -4.495117 0.498047
vt -4.995117 0.498047
vt -4.495117 -0.000977
vt -4.995117 -0.000977
vt -0.999023 -2.998047
vt -0.999023 -2.498047
vt -0.499023 -2.498047
vt -0.499023 -1.999023
vt -0.999023 -1.999023
vt -0.499023 -1.499023
vt -0.999023 -1.499023
vt 0.499023 -2.498047
vt 0.499023 -1.999023
vt 0.749023 -1.999023
vt 0.749023 -1.499023
vt 0.499023 -1.499023
vt 0.749023 -1.000000
vt 0.499023 -1.000000
vt -4.995117 -0.000977
vt -4.995117 0.498047
vt -4.495117 -0.000977
vt -4.495117 0.498047
vt -4.995117 0.998047
vt -4.495117 0.998047
vt -4.495117 1.497070
vt -0.499023 0.498047
vt -0.999023 0.498047
vt -0.499023 0.998047
vt -0.999023 0.998047
vt -1.498047 0.498047
vt -1.498047 0.998047
vt -1.998047 0.998047
vt 0.000000 -1.999023
vt 0.287109 -1.999023
vt 0.000000 -1.499023
vt 0.000000 -1.000000
vt 0.287109 -1.000000
vt 0.000000 -0.500977
vt 0.000000 -0.000977
vt 0.000000 -1.999023
vt 0.499023 -1.999023
vt 0.000000 -1.499023
vt 0.000000 -1.000000
vt 0.499023 -0.000977
vt 0.000000 -0.500977
vt 0.000000 -0.000977
vt 0.000000 -1.999023
vt 0.499023 -1.999023
vt 0.000000 -1.499023
vt 0.000000 -1.000000
vt 0.499023 -0.000977
vt 0.000000 -0.500977
vt 0.000000 -0.000977
vt 0.499023 -1.000000
vt 0.966797 -1.360352
vt 0.999023 -1.000000
vt 1.498047 -1.499023
vt 1.293945 -1.592773
vt 1.564453 -1.885742
vt 0.000000 2.496094
vt 0.499023 2.496094
vt 0.499023 2.996094
vt 0.999023 2.996094
vt 0.999023 2.496094
vt 1.498047 2.496094
vt 1.498047 -0.500977
vt 1.748047 -0.500977
vt 1.498047 -1.000000
vt 1.748047 -1.000000
vt 1.998047 -0.500977
vt 1.998047 -1.000000
vt -3.780273 0.998047
vt -3.496094 0.998047
vt -3.780273 0.498047
vt -3.496094 0.498047
vt -2.997070 0.998047
vt -2.997070 0.498047
vt -3.996094 0.998047
vt -3.496094 0.998047
vt -3.996094 0.498047
vt -3.496094 0.498047
vt -3.247070 0.998047
vt -3.247070 0.498047
vt 0.499023 2.496094
vt 0.999023 2.996094
vt 0.999023 2.496094
vt 1.498047 2.496094
vt 1.498047 2.996094
vt 1.998047 2.496094
vt 0.133789 -1.999023
vt 0.133789 -0.000977
vt 0.000000 -1.499023
vt 0.000000 -1.000000
vt 0.000000 -0.500977
vt 0.166016 -1.999023
vt 0.166016 -0.000977
vt 0.000000 -1.499023
vt 0.000000 -1.000000
vt 0.000000 -0.500977
vt -3.780273 0.498047
vt -3.496094 0.498047
vt -3.496094 0.998047
vt -2.997070 0.998047
vt -2.997070 0.498047
vt -3.996094 0.498047
vt -3.496094 0.498047
vt -3.496094 0.998047
vt -3.247070 0.998047
vt -3.247070 0.498047
vt -4.995117 0.998047
vt -4.495117 1.497070
vt -4.995117 1.497070
vt -4.995117 1.997070
vt -4.495117 1.997070
vt 4.995117 1.997070
vt 4.495117 1.497070
vt 4.995117 1.497070
vt 4.995117 0.998047
vt 4.495117 0.998047
vt -4.495117 0.998047
vt -4.495117 1.497070
vt -4.995117 0.998047
vt -4.995117 1.497070
vt -4.995117 1.997070
vt 4.995117 1.997070
vt 4.495117 1.497070
vt 4.995117 1.497070
vt 4.995117 0.998047
vt 4.495117 0.998047
vt -4.995117 2.496094
vt -4.495117 2.496094
vt -4.995117 2.996094
vt -4.495117 2.996094
vt -3.996094 2.996094
vt -4.995117 0.998047
vt -4.495117 1.497070
vt -4.995117 1.497070
vt -4.995117 1.997070
vt -4.495117 1.997070
vt 1.498047 -1.000000
vt 1.748047 -1.000000
vt 1.748047 -0.500977
vt 1.998047 -0.500977
vt 1.998047 -1.000000
vt 4.995117 1.997070
vt 4.495117 1.497070
vt 4.995117 1.497070
vt 4.995117 0.998047
vt 4.495117 0.998047
vt -4.495117 0.998047
vt -4.495117 1.497070
vt -4.995117 0.998047
vt -4.995117 1.372070
vt -4.995117 1.497070
vt 4.995117 1.997070
vt 4.495117 1.497070
vt 4.995117 1.497070
vt 4.995117 0.998047
vt 4.495117 0.998047
vt -3.996094 2.996094
vt -4.495117 2.496094
vt -4.495117 2.996094
vt -4.995117 2.996094
vt -4.995117 2.496094
vt -0.499023 -2.498047
vt -0.499023 -1.999023
vt 0.000000 -1.999023
vt 0.000000 -1.499023
vt -0.499023 -1.499023
vt 4.495117 0.998047
vt 4.495117 1.497070
vt 4.995117 0.998047
vt 4.995117 1.497070
vt 4.995117 1.997070
vt -4.995117 1.997070
vt -4.495117 1.497070
vt -4.995117 1.497070
vt -4.995117 1.372070
vt -4.995117 0.998047
vt 4.495117 0.998047
vt 4.495117 1.497070
vt 4.995117 0.998047
vt 4.995117 1.497070
vt 4.995117 1.997070
vt 1.293945 -1.592773
vt 0.966797 -1.360352
vt 1.498047 -1.499023
vt 0.999023 -1.000000
vt 0.499023 -1.000000
vt 0.749023 -1.999023
vt 0.749023 -1.499023
vt 0.999023 -1.499023
vt 0.999023 -1.000000
vt 0.749023 -1.000000
vt -4.495117 1.997070
vt -4.495117 1.497070
vt -4.995117 1.997070
vt -4.995117 1.497070
vt -4.995117 0.998047
vt 4.495117 0.998047
vt 4.495117 1.497070
vt 4.995117 0.998047
vt 4.995117 1.497070
vt 4.995117 1.997070
vt -4.995117 1.997070
vt -4.495117 1.497070
vt -4.995117 1.497070
vt -4.995117 0.998047
vt -4.495117 0.998047
vt 4.495117 0.998047
vt 4.495117 1.497070
vt 4.995117 0.998047
vt 4.995117 1.497070
vt 4.995117 1.997070
vt -1.998047 -2.498047
vt -1.998047 -2.997070
vt -1.748047 -2.997070
vt -1.998047 -2.498047
vt -1.564453 -1.885742
vt -1.293945 -1.592773
vt -1.498047 -1.499023
vt -0.966797 -1.360352
vt 2.997070 -1.000000
vt 2.997070 -1.499023
vt 3.496094 -1.000000
vt 3.496094 -1.499023
vt 3.496094 -1.499023
vt 3.496094 -1.000000
vt 2.997070 -1.499023
vt 2.997070 -1.000000
vt 0.999023 2.996094
vt 1.498047 2.496094
vt 1.498047 2.996094
vt 1.998047 2.496094
vt -4.995117 2.496094
vt -4.495117 2.496094
vt -4.995117 2.996094
vt -4.495117 2.996094
vt 4.995117 2.496094
vt 4.995117 2.996094
vt 4.495117 2.496094
vt 4.495117 2.996094
vt 4.995117 2.496094
vt 4.995117 2.996094
vt 4.495117 2.496094
vt 4.495117 2.996094
vt 4.995117 2.496094
vt 4.995117 2.996094
vt 4.495117 2.496094
vt 4.495117 2.996094
vt -2.497070 0.998047
vt -2.497070 0.498047
vt -1.998047 0.998047
vt -1.998047 0.498047
vt -2.497070 0.998047
vt -2.497070 0.498047
vt -1.998047 0.998047
vt -1.998047 0.498047
vt 4.495117 0.498047
vt 4.495117 -0.000977
vt 4.995117 0.498047
vt 4.995117 -0.000977
vt -4.995117 1.497070
vt -4.495117 1.497070
vt -4.995117 1.997070
vt -4.495117 1.997070
vt -2.497070 0.998047
vt -1.998047 0.998047
vt -2.497070 0.498047
vt -1.998047 0.498047
vt -2.497070 0.998047
vt -1.998047 0.998047
vt -2.497070 0.498047
vt -1.998047 0.498047
vt 4.495117 0.498047
vt 4.995117 0.498047
vt 4.495117 -0.000977
vt 4.995117 -0.000977
vt -1.564453 -1.885742
vt -1.498047 -1.499023
vt -1.293945 -1.592773
vt -0.966797 -1.360352
vt 2.997070 -1.000000
vt 3.496094 -1.000000
vt 2.997070 -1.499023
vt 3.496094 -1.499023
vt 3.496094 -1.499023
vt 2.997070 -1.499023
vt 3.496094 -1.000000
vt 2.997070 -1.000000
vt 0.000000 2.496094
vt 0.499023 2.996094
vt 0.499023 2.496094
vt 0.999023 2.996094
vt -4.995117 2.496094
vt -4.995117 2.996094
vt -4.495117 2.496094
vt -4.495117 2.996094
vt 4.995117 2.496094
vt 4.495117 2.496094
vt 4.995117 2.996094
vt 4.495117 2.996094
vt 4.995117 2.496094
vt 4.495117 2.496094
vt 4.995117 2.996094
vt 4.495117 2.996094
vt 4.995117 2.496094
vt 4.495117 2.496094
vt 4.995117 2.996094
vt 4.495117 2.996094
vt 0.000000 -1.499023
vt 0.000000 -1.999023
vt 0.133789 -1.999023
vt 0.000000 -0.500977
vt 0.133789 -0.000977
vt 0.000000 -0.000977
vt 0.000000 -1.499023
vt 0.000000 -1.999023
vt 0.166016 -1.999023
vt 0.000000 -0.500977
vt 0.166016 -0.000977
vt 0.000000 -0.000977
vt -1.998047 -2.498047
vt -1.748047 -2.498047
vt -1.998047 -1.998047
vt -1.998047 -1.998047
vt -1.748047 -1.998047
vt -1.998047 -1.499023
vt -1.998047 -1.499023
vt -1.748047 -1.499023
vt -1.998047 -1.000000
vt 1.498047 -1.000000
vt 1.998047 -1.499023
vt 1.998047 -1.000000
vt -1.891602 -2.604492
vt -1.998047 -2.498047
vt -1.998047 -2.998047
vt -1.527344 -1.000000
vt -1.998047 -1.000000
vt -1.998047 -1.499023
vt -3.496094 0.998047
vt -3.780273 0.998047
vt -3.780273 0.498047
vt -3.496094 0.998047
vt -3.996094 0.998047
vt -3.996094 0.498047
vt 4.495117 1.997070
vt 4.495117 1.497070
vt 4.995117 1.997070
vt -4.995117 1.997070
vt -4.495117 1.497070
vt -4.495117 1.997070
vt 4.495117 1.997070
vt 4.495117 1.497070
vt 4.995117 1.997070
vt -1.498047 2.496094
vt -1.498047 2.996094
vt -1.998047 2.496094
vt -1.498047 2.996094
vt -1.998047 2.496094
vt -1.498047 2.496094
vt -3.996094 2.996094
vt -4.495117 2.496094
vt -3.996094 2.496094
vt 4.995117 2.996094
vt 4.495117 2.496094
vt 4.995117 2.496094
vt -0.499023 2.996094
vt -0.999023 2.996094
vt -0.999023 2.496094
vt 4.995117 2.996094
vt 4.495117 2.496094
vt 4.995117 2.496094
vt -0.499023 2.996094
vt -0.999023 2.996094
vt -0.999023 2.496094
vt -3.996094 0.998047
vt -4.495117 0.998047
vt -4.495117 0.498047
vt 1.748047 -0.500977
vt 1.498047 -0.500977
vt 1.498047 -1.000000
vt 4.495117 1.997070
vt 4.495117 1.497070
vt 4.995117 1.997070
vt 4.495117 1.997070
vt 4.495117 1.497070
vt 4.995117 1.997070
vt -1.498047 2.496094
vt -1.998047 2.496094
vt -1.498047 2.996094
vt 4.995117 2.496094
vt 4.495117 2.496094
vt 4.995117 2.996094
vt -0.999023 2.496094
vt -0.999023 2.996094
vt -0.499023 2.996094
vt 4.995117 2.496094
vt 4.495117 2.496094
vt 4.995117 2.996094
vt -0.999023 2.496094
vt -0.999023 2.996094
vt -0.499023 2.996094
vt -4.995117 -1.499023
vt -4.495117 -1.499023
vt -4.495117 -1.999023
vt -4.495117 1.997070
vt -4.495117 1.497070
vt -4.995117 1.997070
vt 0.000000 -1.999023
vt 0.000000 -1.499023
vt 0.499023 -1.499023
vt 4.995117 1.997070
vt 4.495117 1.497070
vt 4.495117 1.997070
vt -4.995117 0.998047
vt -4.495117 1.497070
vt -4.495117 0.998047
vt -4.495117 1.997070
vt -4.495117 1.497070
vt -4.995117 1.997070
vt 4.995117 1.997070
vt 4.495117 1.497070
vt 4.495117 1.997070
vt 1.998047 -2.498047
vt 1.998047 -2.998047
vt 1.498047 -2.997070
vt 1.998047 -2.498047
vt 1.498047 -2.498047
vt 1.998047 -1.998047
vt 1.998047 -1.998047
vt 1.498047 -1.998047
vt 1.998047 -1.499023
vt 1.498047 -1.000000
vt 1.498047 -1.499023
vt 0.999023 -1.000000
vt 0.966797 -1.360352
vt 0.596680 -1.199219
vt 0.499023 -1.000000
vt 1.998047 -1.000000
vt 1.998047 -1.499023
vt 1.498047 -1.000000
vt 1.498047 -1.499023
vt 1.564453 -1.885742
vt 1.293945 -1.592773
vt 2.497070 -1.499023
vt 1.998047 -1.499023
vt 2.497070 -1.000000
vt 4.995117 1.997070
vt 4.495117 1.497070
vt 4.495117 1.997070
vt -4.495117 1.997070
vt -4.495117 1.497070
vt -4.995117 1.997070
vt 4.995117 1.997070
vt 4.495117 1.497070
vt 4.495117 1.997070
vt 0.287109 -1.000000
vt 0.287109 -0.000977
vt 0.000000 -0.000977
vn 0.0000 1.0000 0.0000
vn 0.0002 1.0000 0.0003
vn -0.0012 1.0000 -0.0004
vn -0.0012 1.0000 -0.0007
vn -0.0002 1.0000 -0.0004
vn 0.0001 1.0000 0.0020
vn 0.0000 1.0000 0.0011
vn 0.0010 1.0000 0.0011
vn -0.0003 1.0000 0.0000
vn 0.0000 1.0000 -0.0011
vn 0.0002 1.0000 -0.0019
vn 0.0010 1.0000 -0.0011
vn -0.0011 1.0000 0.0008
vn -0.0007 1.0000 0.0004
vn -0.0002 1.0000 0.0004
usemtl Tex_0005_1.dds
s off
f 1/1/1 3/2/1 2/3/1
f 2/3/1 3/2/1 4/4/1
f 3/2/1 5/5/1 4/4/1
f 4/4/1 5/5/1 6/6/1
f 5/5/1 7/7/1 6/6/1
f 6/6/1 7/7/1 8/8/1
f 7/7/1 9/9/1 8/8/1
f 8/8/1 9/9/1 10/10/1
f 9/9/1 11/11/1 10/10/1
f 10/10/1 11/11/1 12/12/1
f 11/11/1 13/13/1 12/12/1
f 12/12/1 13/13/1 14/14/1
f 13/13/1 15/15/1 14/14/1
f 14/14/1 15/15/1 16/16/1
f 15/15/1 17/17/1 16/16/1
f 16/16/1 17/17/1 18/18/1
f 17/17/1 19/19/1 18/18/1
f 20/20/1 22/21/1 21/22/1
f 21/22/1 22/21/1 23/23/1
f 22/21/1 24/24/1 23/23/1
f 23/23/1 24/24/1 25/25/1
f 24/24/1 26/26/1 25/25/1
f 25/25/1 26/26/1 27/27/1
f 26/26/1 28/28/1 27/27/1
f 27/27/1 28/28/1 29/29/1
f 28/28/1 30/30/1 29/29/1
f 29/29/1 30/30/1 31/31/1
f 30/30/1 32/32/1 31/31/1
f 31/31/1 32/32/1 33/33/1
f 32/32/1 34/34/1 33/33/1
f 33/33/1 34/34/1 35/35/1
f 34/34/1 36/36/1 35/35/1
f 35/35/1 36/36/1 37/37/1
f 36/36/1 38/38/1 37/37/1
f 39/39/1 41/40/1 40/41/1
f 40/41/1 41/40/1 42/42/1
f 41/40/1 43/43/1 42/42/1
f 42/42/1 43/43/1 44/44/1
f 43/43/1 45/45/1 44/44/1
f 44/44/1 45/45/1 46/46/1
f 45/45/1 47/47/1 46/46/1
f 46/46/1 47/47/1 48/48/1
f 47/47/1 49/49/1 48/48/1
f 48/48/1 49/49/1 50/50/1
f 49/49/1 51/51/1 50/50/1
f 50/50/1 51/51/1 52/52/1
f 51/51/1 53/53/1 52/52/1
f 52/52/1 53/53/1 54/54/1
f 53/53/1 55/55/1 54/54/1
f 54/54/1 55/55/1 56/56/1
f 55/55/1 57/57/1 56/56/1
f 58/58/1 60/59/1 59/60/1
f 59/60/1 60/59/1 61/61/1
f 60/59/1 62/62/1 61/61/1
f 61/61/1 62/62/1 63/63/1
f 62/62/1 64/64/1 63/63/1
f 63/63/1 64/64/1 65/65/1
f 64/64/1 66/66/1 65/65/1
f 65/65/1 66/66/1 67/67/1
f 66/66/1 68/68/1 67/67/1
f 67/67/1 68/68/1 69/69/1
f 68/68/1 70/70/1 69/69/1
f 69/69/1 70/70/1 71/71/1
f 70/70/1 72/72/1 71/71/1
f 71/71/1 72/72/1 73/73/1
f 72/72/1 74/74/1 73/73/1
f 73/73/1 74/74/1 75/75/1
f 74/74/1 76/76/1 75/75/1
f 77/77/1 79/78/1 78/79/1
f 78/79/1 79/78/1 80/80/1
f 79/78/1 81/81/1 80/80/1
f 80/80/1 81/81/1 82/82/1
f 81/81/1 83/83/1 82/82/1
f 82/82/1 83/83/1 84/84/1
f 83/83/1 85/85/1 84/84/1
f 84/84/1 85/85/1 86/86/1
f 85/85/1 87/87/1 86/86/1
f 86/86/1 87/87/1 88/88/1
f 87/87/1 89/89/1 88/88/1
f 88/88/1 89/89/1 90/90/1
f 89/89/1 91/91/1 90/90/1
f 90/90/1 91/91/1 92/92/1
f 91/91/1 93/93/1 92/92/1
f 92/92/1 93/93/1 94/94/1
f 93/93/1 95/95/1 94/94/1
f 96/96/1 98/97/1 97/98/1
f 97/98/1 98/97/1 99/99/1
f 98/97/1 100/100/1 99/99/1
f 99/99/1 100/100/1 101/101/1
f 100/100/1 102/102/1 101/101/1
f 101/101/1 102/102/1 103/103/1
f 102/102/1 104/104/1 103/103/1
f 103/103/1 104/104/1 105/105/1
f 104/104/1 106/106/1 105/105/1
f 105/105/1 106/106/1 107/107/1
f 106/106/1 108/108/1 107/107/1
f 107/107/1 108/108/1 109/109/1
f 108/108/1 110/110/1 109/109/1
f 109/109/1 110/110/1 111/111/1
f 110/110/1 112/112/1 111/111/1
f 111/111/1 112/112/1 113/113/1
f 112/112/1 114/114/1 113/113/1
f 115/115/1 117/116/1 116/117/1
f 116/117/1 117/116/1 118/118/1
f 117/116/1 119/119/1 118/118/1
f 118/118/1 119/119/1 120/120/1
f 119/119/1 121/121/1 120/120/1
f 120/120/1 121/121/1 122/122/1
f 121/121/1 123/123/1 122/122/1
f 122/122/1 123/123/1 124/124/1
f 123/123/1 125/125/1 124/124/1
f 124/124/1 125/125/1 126/126/1
f 125/125/1 127/127/1 126/126/1
f 126/126/1 127/127/1 128/128/1
f 127/127/1 129/129/1 128/128/1
f 128/128/1 129/129/1 130/130/1
f 129/129/1 131/131/1 130/130/1
f 130/130/1 131/131/1 132/132/1
f 131/131/1 133/133/1 132/132/1
f 134/134/1 136/135/1 135/136/1
f 135/136/1 136/135/1 137/137/1
f 136/135/1 138/138/1 137/137/1
f 137/137/1 138/138/1 139/139/1
f 138/138/1 140/140/1 139/139/1
f 139/139/1 140/140/1 141/141/1
f 140/140/1 142/142/1 141/141/1
f 141/141/1 142/142/1 143/143/1
f 142/142/1 144/144/1 143/143/1
f 143/143/1 144/144/1 145/145/1
f 144/144/1 146/146/1 145/145/1
f 145/145/1 146/146/1 147/147/1
f 146/146/1 148/148/1 147/147/1
f 147/147/1 148/148/1 149/149/1
f 148/148/1 150/150/1 149/149/1
f 149/149/1 150/150/1 151/151/1
f 150/150/1 152/152/1 151/151/1
f 153/153/1 155/154/1 154/155/1
f 154/155/1 155/154/1 156/156/1
f 155/154/1 157/157/1 156/156/1
f 156/156/1 157/157/1 158/158/1
f 157/157/1 159/159/1 158/158/1
f 158/158/1 159/159/1 160/160/1
f 159/159/1 161/161/1 160/160/1
f 160/160/1 161/161/1 162/162/1
f 161/161/1 163/163/1 162/162/1
f 162/162/1 163/163/1 164/164/1
f 163/163/1 165/165/1 164/164/1
f 164/164/1 165/165/1 166/166/1
f 165/165/1 167/167/1 166/166/1
f 166/166/1 167/167/1 168/168/1
f 167/167/1 169/169/1 168/168/1
f 168/168/1 169/169/1 170/170/1
f 169/169/1 171/171/1 170/170/1
f 172/172/1 174/173/1 173/174/1
f 173/174/1 174/173/1 175/175/1
f 174/173/1 176/176/1 175/175/1
f 175/175/1 176/176/1 177/177/1
f 176/176/1 178/178/1 177/177/1
f 177/177/1 178/178/1 179/179/1
f 178/178/1 180/180/1 179/179/1
f 179/179/1 180/180/1 181/181/1
f 180/180/1 182/182/1 181/181/1
f 181/181/1 182/182/1 183/183/1
f 182/182/1 184/184/1 183/183/1
f 183/183/1 184/184/1 185/185/1
f 184/184/1 186/186/1 185/185/1
f 185/185/1 186/186/1 187/187/1
f 186/186/1 188/188/1 187/187/1
f 187/187/1 188/188/1 189/189/1
f 188/188/1 190/190/1 189/189/1
f 191/191/1 193/192/1 192/193/1
f 192/193/1 193/192/1 194/194/1
f 193/192/1 195/195/1 194/194/1
f 194/194/1 195/195/1 196/196/1
f 195/195/1 197/197/1 196/196/1
f 196/196/1 197/197/1 198/198/1
f 197/197/1 199/199/1 198/198/1
f 198/198/1 199/199/1 200/200/1
f 199/199/1 201/201/1 200/200/1
f 200/200/1 201/201/1 202/202/1
f 201/201/1 203/203/1 202/202/1
f 202/202/1 203/203/1 204/204/1
f 203/203/1 205/205/1 204/204/1
f 204/204/1 205/205/1 206/206/1
f 205/205/1 207/207/1 206/206/1
f 206/206/1 207/207/1 208/208/1
f 209/209/1 211/210/1 210/211/1
f 210/211/1 211/210/1 212/212/1
f 211/210/1 213/213/1 212/212/1
f 212/212/1 213/213/1 214/214/1
f 213/213/1 215/215/1 214/214/1
f 214/214/1 215/215/1 216/216/1
f 215/215/1 217/217/1 216/216/1
f 216/216/1 217/217/1 218/218/1
f 217/217/1 219/219/1 218/218/1
f 218/218/1 219/219/1 220/220/1
f 219/219/1 221/221/1 220/220/1
f 220/220/1 221/221/1 222/222/1
f 221/221/1 223/223/1 222/222/1
f 222/222/1 223/223/1 224/224/1
f 223/223/1 225/225/1 224/224/1
f 224/224/1 225/225/1 226/226/1
f 227/227/1 229/228/1 228/229/1
f 228/229/1 229/228/1 230/230/1
f 229/228/1 231/231/1 230/230/1
f 230/230/1 231/231/1 232/232/1
f 231/231/1 233/233/1 232/232/1
f 232/232/1 233/233/1 234/234/1
f 233/233/1 235/235/1 234/234/1
f 234/234/1 235/235/1 236/236/1
f 235/235/1 237/237/1 236/236/1
f 236/236/1 237/237/1 238/238/1
f 237/237/1 239/239/1 238/238/1
f 238/238/1 239/239/1 240/240/1
f 239/239/1 241/241/1 240/240/1
f 240/240/1 241/241/1 242/242/1
f 241/241/1 243/243/1 242/242/1
f 242/242/1 243/243/1 244/244/1
f 245/245/1 247/246/1 246/247/1
f 246/247/1 247/246/1 248/248/1
f 247/246/1 249/249/1 248/248/1
f 248/248/1 249/249/1 250/250/1
f 249/249/1 251/251/1 250/250/1
f 250/250/1 251/251/1 252/252/1
f 251/251/1 253/253/1 252/252/1
f 252/252/1 253/253/1 254/254/1
f 253/253/1 255/255/1 254/254/1
f 254/254/1 255/255/1 256/256/1
f 255/255/1 257/257/1 256/256/1
f 256/256/1 257/257/1 258/258/1
f 257/257/1 259/259/1 258/258/1
f 258/258/1 259/259/1 260/260/1
f 259/259/1 261/261/1 260/260/1
f 260/260/1 261/261/1 262/262/1
f 263/263/1 265/264/1 264/265/1
f 264/265/1 265/264/1 266/266/1
f 265/264/1 267/267/1 266/266/1
f 266/266/1 267/267/1 268/268/1
f 267/267/1 269/269/1 268/268/1
f 268/268/1 269/269/1 270/270/1
f 269/269/1 271/271/1 270/270/1
f 270/270/1 271/271/1 272/272/1
f 271/271/1 273/273/1 272/272/1
f 272/272/1 273/273/1 274/274/1
f 273/273/1 275/275/1 274/274/1
f 274/274/1 275/275/1 276/276/1
f 275/275/1 277/277/1 276/276/1
f 276/276/1 277/277/1 278/278/1
f 277/277/1 279/279/1 278/278/1
f 280/280/1 282/281/1 281/282/1
f 281/282/1 282/281/1 283/283/1
f 282/281/1 284/284/1 283/283/1
f 283/283/1 284/284/1 285/285/1
f 284/284/1 286/286/1 285/285/1
f 285/285/1 286/286/1 287/287/1
f 286/286/1 288/288/1 287/287/1
f 287/287/1 288/288/1 289/289/1
f 288/288/1 290/290/1 289/289/1
f 289/289/1 290/290/1 291/291/1
f 290/290/1 292/292/1 291/291/1
f 291/291/1 292/292/1 293/293/1
f 292/292/1 294/294/1 293/293/1
f 293/293/1 294/294/1 295/295/1
f 296/296/1 298/297/1 297/298/1
f 297/298/1 298/297/1 299/299/1
f 298/297/1 300/300/1 299/299/1
f 299/299/1 300/300/1 301/301/1
f 300/300/1 302/302/1 301/301/1
f 301/301/1 302/302/1 303/303/1
f 302/302/1 304/304/1 303/303/1
f 303/303/1 304/304/1 305/305/1
f 304/304/1 306/306/1 305/305/1
f 305/305/1 306/306/1 307/307/1
f 306/306/1 308/308/1 307/307/1
f 307/307/1 308/308/1 309/309/1
f 308/308/1 310/310/1 309/309/1
f 309/309/1 310/310/1 311/311/1
f 312/312/1 314/313/1 313/314/1
f 313/314/1 314/313/1 315/315/1
f 314/313/1 316/316/1 315/315/1
f 315/315/1 316/316/1 317/317/1
f 316/316/1 318/318/1 317/317/1
f 317/317/1 318/318/1 319/319/1
f 318/318/1 320/320/1 319/319/1
f 319/319/1 320/320/1 321/321/1
f 320/320/1 322/322/1 321/321/1
f 321/321/1 322/322/1 323/323/1
f 322/322/1 324/324/1 323/323/1
f 323/323/1 324/324/1 325/325/1
f 324/324/1 326/326/1 325/325/1
f 327/327/1 329/328/1 328/329/1
f 328/329/1 329/328/1 330/330/1
f 329/328/1 331/331/1 330/330/1
f 330/330/1 331/331/1 332/332/1
f 331/331/1 333/333/1 332/332/1
f 332/332/1 333/333/1 334/334/1
f 333/333/1 335/335/1 334/334/1
f 334/334/1 335/335/1 336/336/1
f 335/335/1 337/337/1 336/336/1
f 336/336/1 337/337/1 338/338/1
f 337/337/1 339/339/1 338/338/1
f 338/338/1 339/339/1 340/340/1
f 339/339/1 341/341/1 340/340/1
f 342/342/1 344/343/1 343/344/1
f 343/344/1 344/343/1 345/345/1
f 344/343/1 346/346/1 345/345/1
f 345/345/1 346/346/1 347/347/1
f 346/346/1 348/348/1 347/347/1
f 347/347/1 348/348/1 349/349/1
f 348/348/1 350/350/1 349/349/1
f 349/349/1 350/350/1 351/351/1
f 350/350/1 352/352/1 351/351/1
f 351/351/1 352/352/1 353/353/1
f 352/352/1 354/354/1 353/353/1
f 353/353/1 354/354/1 355/355/1
f 356/356/1 358/357/1 357/358/1
f 357/358/1 358/357/1 359/359/1
f 358/357/1 360/360/1 359/359/1
f 359/359/1 360/360/1 361/361/1
f 360/360/1 362/362/1 361/361/1
f 361/361/1 362/362/1 363/363/1
f 362/362/1 364/364/1 363/363/1
f 363/363/1 364/364/1 365/365/1
f 364/364/1 366/366/1 365/365/1
f 365/365/1 366/366/1 367/367/1
f 366/366/1 368/368/1 367/367/1
f 369/369/1 371/370/1 370/371/1
f 370/371/1 371/370/1 372/372/1
f 371/370/1 373/373/1 372/372/1
f 372/372/1 373/373/1 374/374/1
f 373/373/1 375/375/1 374/374/1
f 374/374/1 375/375/1 376/376/1
f 375/375/1 377/377/1 376/376/1
f 376/376/1 377/377/1 378/378/1
f 377/377/1 379/379/1 378/378/1
f 378/378/1 379/379/1 380/380/1
f 379/379/1 381/381/1 380/380/1
f 382/382/1 384/383/1 383/384/1
f 383/384/1 384/383/1 385/385/1
f 384/383/1 386/386/1 385/385/1
f 385/385/1 386/386/1 387/387/1
f 386/386/1 388/388/1 387/387/1
f 387/387/1 388/388/1 389/389/1
f 388/388/1 390/390/1 389/389/1
f 389/389/1 390/390/1 391/391/1
f 390/390/1 392/392/1 391/391/1
f 391/391/1 392/392/1 393/393/1
f 392/392/1 394/394/1 393/393/1
f 395/395/1 397/396/1 396/397/1
f 396/397/1 397/396/1 398/398/1
f 397/396/1 399/399/1 398/398/1
f 398/398/1 399/399/1 400/400/1
f 399/399/1 401/401/1 400/400/1
f 400/400/1 401/401/1 402/402/1
f 401/401/1 403/403/1 402/402/1
f 402/402/1 403/403/1 404/404/1
f 403/403/1 405/405/1 404/404/1
f 404/404/1 405/405/1 406/406/1
f 407/407/1 409/408/1 408/409/1
f 408/409/1 409/408/1 410/410/1
f 409/408/1 411/411/1 410/410/1
f 410/410/1 411/411/1 412/412/1
f 411/411/1 413/413/1 412/412/1
f 412/412/1 413/413/1 414/414/1
f 413/413/1 415/415/1 414/414/1
f 414/414/1 415/415/1 416/416/1
f 415/415/1 417/417/1 416/416/1
f 416/416/1 417/417/1 418/418/1
f 419/419/1 421/420/1 420/421/1
f 420/421/1 421/420/1 422/422/1
f 421/420/1 423/423/1 422/422/1
f 422/422/1 423/423/1 424/424/1
f 423/423/1 425/425/1 424/424/1
f 424/424/1 425/425/1 426/426/1
f 425/425/1 427/427/1 426/426/1
f 426/426/1 427/427/1 428/428/1
f 427/427/1 429/429/1 428/428/1
f 430/430/1 432/431/1 431/432/1
f 431/432/1 432/431/1 433/433/1
f 432/431/1 434/434/1 433/433/1
f 433/433/1 434/434/1 435/435/1
f 434/434/1 436/436/1 435/435/1
f 435/435/1 436/436/1 437/437/1
f 436/436/1 438/438/1 437/437/1
f 437/437/1 438/438/1 439/439/1
f 438/438/1 440/440/1 439/439/1
f 441/441/1 443/442/1 442/443/1
f 442/443/1 443/442/1 444/444/1
f 443/442/1 445/445/1 444/444/1
f 444/444/1 445/445/1 446/446/1
f 445/445/1 447/447/1 446/446/1
f 446/446/1 447/447/1 448/448/1
f 447/447/1 449/449/1 448/448/1
f 448/448/1 449/449/1 450/450/1
f 449/449/1 451/451/1 450/450/1
f 452/452/1 454/453/1 453/454/1
f 453/454/1 454/453/1 455/455/1
f 454/453/1 456/456/1 455/455/1
f 455/455/1 456/456/1 457/457/1
f 456/456/1 458/458/1 457/457/1
f 457/457/1 458/458/1 459/459/1
f 458/458/1 460/460/1 459/459/1
f 459/459/1 460/460/1 461/461/1
f 460/460/1 462/462/1 461/461/1
f 463/463/1 465/464/1 464/465/1
f 464/465/1 465/464/1 466/466/1
f 465/464/1 467/467/1 466/466/1
f 466/466/1 467/467/1 468/468/1
f 467/467/1 469/469/1 468/468/1
f 468/468/1 469/469/1 470/470/1
f 469/469/1 471/471/1 470/470/1
f 470/470/1 471/471/1 472/472/1
f 471/471/1 473/473/1 472/472/1
f 474/474/1 476/475/1 475/476/1
f 475/476/1 476/475/1 477/477/1
f 476/475/1 478/478/1 477/477/1
f 477/477/1 478/478/1 479/479/1
f 478/478/1 480/480/1 479/479/1
f 479/479/1 480/480/1 481/481/1
f 480/480/1 482/482/1 481/481/1
f 481/481/1 482/482/1 483/483/1
f 482/482/1 484/484/1 483/483/1
f 485/485/1 487/486/1 486/487/1
f 486/487/1 487/486/1 488/488/1
f 487/486/1 489/489/1 488/488/1
f 488/488/1 489/489/1 490/490/1
f 489/489/1 491/491/1 490/490/1
f 490/490/1 491/491/1 492/492/1
f 491/491/1 493/493/1 492/492/1
f 492/492/1 493/493/1 494/494/1
f 493/493/1 495/495/1 494/494/1
f 496/496/1 498/497/1 497/498/1
f 497/498/1 498/497/1 499/499/1
f 498/497/1 500/500/1 499/499/1
f 499/499/1 500/500/1 501/501/1
f 500/500/1 502/502/1 501/501/1
f 501/501/1 502/502/1 503/503/1
f 502/502/1 504/504/1 503/503/1
f 503/503/1 504/504/1 505/505/1
f 504/504/1 506/506/1 505/505/1
f 507/507/1 509/508/1 508/509/1
f 508/509/1 509/508/1 510/510/1
f 509/508/1 511/511/1 510/510/1
f 510/510/1 511/511/1 512/512/1
f 511/511/1 513/513/1 512/512/1
f 512/512/1 513/513/1 514/514/1
f 513/513/1 515/515/1 514/514/1
f 514/514/1 515/515/1 516/516/1
f 515/515/1 517/517/1 516/516/1
f 518/518/1 520/519/1 519/520/1
f 519/520/1 520/519/1 521/521/1
f 520/519/1 522/522/1 521/521/1
f 521/521/1 522/522/1 523/523/1
f 522/522/1 524/524/1 523/523/1
f 523/523/1 524/524/1 525/525/1
f 524/524/1 526/526/1 525/525/1
f 525/525/1 526/526/1 527/527/1
f 526/526/1 528/528/1 527/527/1
f 529/529/1 531/530/1 530/531/1
f 530/531/1 531/530/1 532/532/1
f 531/530/1 533/533/1 532/532/1
f 532/532/1 533/533/1 534/534/1
f 533/533/1 535/535/1 534/534/1
f 534/534/1 535/535/1 536/536/1
f 535/535/1 537/537/1 536/536/1
f 536/536/1 537/537/1 538/538/1
f 537/537/1 539/539/1 538/538/1
f 540/540/1 542/541/1 541/542/1
f 541/542/1 542/541/1 543/543/1
f 542/541/1 544/544/1 543/543/1
f 543/543/1 544/544/1 545/545/1
f 544/544/1 546/546/1 545/545/1
f 545/545/1 546/546/1 547/547/1
f 546/546/1 548/548/1 547/547/1
f 547/547/1 548/548/1 549/549/1
f 550/550/1 552/551/1 551/552/1
f 551/552/1 552/551/1 553/553/1
f 552/551/1 554/554/1 553/553/1
f 553/553/1 554/554/1 555/555/1
f 554/554/1 556/556/1 555/555/1
f 555/555/1 556/556/1 557/557/1
f 556/556/1 558/558/1 557/557/1
f 557/557/1 558/558/1 559/559/1
f 560/560/1 562/561/1 561/562/1
f 561/562/1 562/561/1 563/563/1
f 562/561/1 564/564/1 563/563/1
f 563/563/1 564/564/1 565/565/1
f 564/564/1 566/566/1 565/565/1
f 565/565/1 566/566/1 567/567/1
f 566/566/1 568/568/1 567/567/1
f 567/567/1 568/568/1 569/569/1
f 570/570/1 572/571/1 571/572/1
f 571/572/1 572/571/1 573/573/1
f 572/571/1 574/574/1 573/573/1
f 573/573/1 574/574/1 575/575/1
f 574/574/1 576/576/1 575/575/1
f 575/575/1 576/576/1 577/577/1
f 576/576/1 578/578/1 577/577/1
f 577/577/1 578/578/1 579/579/1
f 580/580/1 582/581/1 581/582/1
f 581/582/1 582/581/1 583/583/1
f 582/581/1 584/584/1 583/583/1
f 583/583/1 584/584/1 585/585/1
f 584/584/1 586/586/1 585/585/1
f 585/585/1 586/586/1 587/587/1
f 586/586/1 588/588/1 587/587/1
f 589/589/1 591/590/1 590/591/1
f 590/591/1 591/590/1 592/592/1
f 591/590/1 593/593/1 592/592/1
f 592/592/1 593/593/1 594/594/1
f 593/593/1 595/595/1 594/594/1
f 594/594/1 595/595/1 596/596/1
f 595/595/1 597/597/1 596/596/1
f 598/598/1 600/599/1 599/600/1
f 599/600/1 600/599/1 601/601/1
f 600/599/1 602/602/1 601/601/1
f 601/601/1 602/602/1 603/603/1
f 602/602/1 604/604/1 603/603/1
f 603/603/1 604/604/1 605/605/1
f 604/604/1 606/606/1 605/605/1
f 607/607/1 609/608/1 608/609/1
f 608/609/1 609/608/1 610/610/1
f 609/608/1 611/611/1 610/610/1
f 610/610/1 611/611/1 612/612/1
f 611/611/1 613/613/1 612/612/1
f 612/612/1 613/613/1 614/614/1
f 613/613/1 615/615/1 614/614/1
f 616/616/1 618/617/1 617/618/1
f 617/618/1 618/617/1 619/619/1
f 618/617/1 620/620/1 619/619/1
f 619/619/1 620/620/1 621/621/1
f 620/620/1 622/622/1 621/621/1
f 623/623/1 625/624/1 624/625/1
f 624/625/1 625/624/1 626/626/1
f 625/624/1 627/627/1 626/626/1
f 626/626/1 627/627/1 628/628/1
f 627/627/1 629/629/1 628/628/1
f 630/630/1 632/631/1 631/632/1
f 631/632/1 632/631/1 633/633/1
f 632/631/1 634/634/1 633/633/1
f 633/633/1 634/634/1 635/635/1
f 634/634/1 636/636/1 635/635/1
f 637/637/1 639/638/1 638/639/1
f 638/639/1 639/638/1 640/640/1
f 639/638/1 641/641/1 640/640/1
f 640/640/1 641/641/1 642/642/1
f 641/641/1 643/643/1 642/642/1
f 644/644/1 646/645/1 645/646/1
f 645/646/1 646/645/1 647/647/1
f 646/645/1 648/648/1 647/647/1
f 647/647/1 648/648/1 649/649/1
f 648/648/1 650/650/1 649/649/1
f 651/651/1 653/652/1 652/653/1
f 652/653/1 653/652/1 654/654/1
f 653/652/1 655/655/1 654/654/1
f 654/654/1 655/655/1 656/656/1
f 655/655/1 657/657/1 656/656/1
f 658/658/1 660/659/1 659/660/1
f 659/660/1 660/659/1 661/661/1
f 660/659/1 662/662/1 661/661/1
f 661/661/1 662/662/1 663/663/1
f 662/662/1 664/664/1 663/663/1
f 665/665/1 667/666/1 666/667/1
f 666/667/1 667/666/1 668/668/1
f 667/666/1 669/669/1 668/668/1
f 668/668/1 669/669/1 670/670/1
f 669/669/1 671/671/1 670/670/1
f 672/672/1 674/673/1 673/674/1
f 673/674/1 674/673/1 675/675/1
f 674/673/1 676/676/1 675/675/1
f 675/675/1 676/676/1 677/677/1
f 676/676/1 678/678/1 677/677/1
f 679/679/1 681/680/1 680/681/1
f 680/681/1 681/680/1 682/682/1
f 681/680/1 683/683/1 682/682/1
f 682/682/1 683/683/1 684/684/1
f 683/683/1 685/685/1 684/684/1
f 686/686/1 688/687/1 687/688/1
f 687/688/1 688/687/1 689/689/1
f 688/687/1 690/690/1 689/689/1
f 689/689/1 690/690/1 691/691/1
f 692/692/1 694/693/1 693/694/1
f 693/694/1 694/693/1 695/695/1
f 694/693/1 696/696/1 695/695/1
f 695/695/1 696/696/1 697/697/1
f 698/698/1 700/699/1 699/700/1
f 699/700/1 700/699/1 701/701/1
f 700/699/1 702/702/1 701/701/1
f 701/701/1 702/702/1 703/703/1
f 704/704/1 706/705/1 705/706/1
f 705/706/1 706/705/1 707/707/1
f 706/705/1 708/708/1 707/707/1
f 707/707/1 708/708/1 709/709/1
f 710/710/1 712/711/1 711/712/1
f 711/712/1 712/711/1 713/713/1
f 712/711/1 714/714/1 713/713/1
f 713/713/1 714/714/1 715/715/1
f 716/716/1 718/717/1 717/718/1
f 717/718/1 718/717/1 719/719/1
f 718/717/1 720/720/1 719/719/1
f 719/719/1 720/720/1 721/721/1
f 722/722/1 724/723/1 723/724/1
f 723/724/1 724/723/1 725/725/1
f 724/723/1 726/726/1 725/725/1
f 727/727/1 729/728/1 728/729/1
f 728/729/1 729/728/1 730/730/1
f 729/728/1 731/731/1 730/730/1
f 732/732/1 734/733/1 733/734/1
f 733/734/1 734/733/1 735/735/1
f 734/733/1 736/736/1 735/735/1
f 737/737/1 739/738/1 738/739/1
f 738/739/1 739/738/1 740/740/1
f 739/738/1 741/741/1 740/740/1
f 742/742/1 744/743/1 743/744/1
f 743/744/1 744/743/1 745/745/1
f 744/743/1 746/746/1 745/745/1
f 747/747/1 749/748/1 748/749/1
f 748/749/1 749/748/1 750/750/1
f 749/748/1 751/751/1 750/750/1
f 752/752/1 754/753/1 753/754/1
f 753/754/1 754/753/1 755/755/1
f 754/753/1 756/756/1 755/755/1
f 757/757/1 759/758/1 758/759/1
f 758/759/1 759/758/1 760/760/1
f 759/758/1 761/761/1 760/760/1
f 762/762/1 764/763/1 763/764/1
f 763/764/1 764/763/1 765/765/1
f 764/763/1 766/766/1 765/765/1
f 767/767/1 769/768/1 768/769/1
f 768/769/1 769/768/1 770/770/1
f 769/768/1 771/771/1 770/770/1
f 772/772/1 774/773/1 773/774/1
f 773/774/1 774/773/1 775/775/1
f 774/773/1 776/776/1 775/775/1
f 777/777/1 779/778/1 778/779/1
f 778/779/1 779/778/1 780/780/1
f 779/778/1 781/781/1 780/780/1
f 782/782/1 784/783/2 783/784/1
f 783/784/3 784/783/4 785/785/5
f 784/783/6 786/786/7 785/785/8
f 787/787/1 789/788/1 788/789/1
f 788/789/1 789/788/1 790/790/1
f 789/788/1 791/791/1 790/790/1
f 792/792/1 794/793/1 793/794/1
f 793/794/1 794/793/1 795/795/1
f 794/793/1 796/796/1 795/795/1
f 797/797/1 799/798/1 798/799/1
f 798/799/1 799/798/1 800/800/1
f 799/798/1 801/801/1 800/800/1
f 802/802/1 804/803/1 803/804/1
f 803/804/1 804/803/1 805/805/1
f 804/803/1 806/806/1 805/805/1
f 807/807/1 809/808/1 808/809/9
f 808/809/10 809/808/11 810/810/12
f 809/808/13 811/811/14 810/810/15
f 812/812/1 814/813/1 813/814/1
f 813/814/1 814/813/1 815/815/1
f 814/813/1 816/816/1 815/815/1
f 817/817/1 819/818/1 818/819/1
f 818/819/1 819/818/1 820/820/1
f 819/818/1 821/821/1 820/820/1
f 822/822/1 824/823/1 823/824/1
f 823/824/1 824/823/1 825/825/1
f 824/823/1 826/826/1 825/825/1
f 827/827/1 829/828/1 828/829/1
f 828/829/1 829/828/1 830/830/1
f 829/828/1 831/831/1 830/830/1
f 832/832/1 834/833/1 833/834/1
f 833/834/1 834/833/1 835/835/1
f 834/833/1 836/836/1 835/835/1
f 837/837/1 839/838/1 838/839/1
f 838/839/1 839/838/1 840/840/1
f 839/838/1 841/841/1 840/840/1
f 842/842/1 844/843/1 843/844/1
f 843/844/1 844/843/1 845/845/1
f 844/843/1 846/846/1 845/845/1
f 847/847/1 849/848/1 848/849/1
f 848/849/1 849/848/1 850/850/1
f 851/851/1 853/852/1 852/853/1
f 852/853/1 853/852/1 854/854/1
f 855/855/1 857/856/1 856/857/1
f 856/857/1 857/856/1 858/858/1
f 859/859/1 861/860/1 860/861/1
f 860/861/1 861/860/1 862/862/1
f 863/863/1 865/864/1 864/865/1
f 864/865/1 865/864/1 866/866/1
f 867/867/1 869/868/1 868/869/1
f 868/869/1 869/868/1 870/870/1
f 871/871/1 873/872/1 872/873/1
f 872/873/1 873/872/1 874/874/1
f 875/875/1 877/876/1 876/877/1
f 876/877/1 877/876/1 878/878/1
f 879/879/1 881/880/1 880/881/1
f 880/881/1 881/880/1 882/882/1
f 883/883/1 885/884/1 884/885/1
f 884/885/1 885/884/1 886/886/1
f 887/887/1 889/888/1 888/889/1
f 888/889/1 889/888/1 890/890/1
f 891/891/1 893/892/1 892/893/1
f 892/893/1 893/892/1 894/894/1
f 895/895/1 897/896/1 896/897/1
f 896/897/1 897/896/1 898/898/1
f 899/899/1 901/900/1 900/901/1
f 900/901/1 901/900/1 902/902/1
f 903/903/1 905/904/1 904/905/1
f 904/905/1 905/904/1 906/906/1
f 907/907/1 909/908/1 908/909/1
f 908/909/1 909/908/1 910/910/1
f 911/911/1 913/912/1 912/913/1
f 912/913/1 913/912/1 914/914/1
f 915/915/1 917/916/1 916/917/1
f 916/917/1 917/916/1 918/918/1
f 919/919/1 921/920/1 920/921/1
f 920/921/1 921/920/1 922/922/1
f 923/923/1 925/924/1 924/925/1
f 924/925/1 925/924/1 926/926/1
f 927/927/1 929/928/1 928/929/1
f 928/929/1 929/928/1 930/930/1
f 931/931/1 933/932/1 932/933/1
f 932/933/1 933/932/1 934/934/1
f 935/935/1 937/936/1 936/937/1
f 936/937/1 937/936/1 938/938/1
f 939/939/1 941/940/1 940/941/1
f 940/941/1 941/940/1 942/942/1
f 943/943/1 945/944/1 944/945/1
f 946/946/1 948/947/1 947/948/1
f 949/949/1 951/950/1 950/951/1
f 952/952/1 954/953/1 953/954/1
f 955/955/1 957/956/1 956/957/1
f 958/958/1 960/959/1 959/960/1
f 961/961/1 963/962/1 962/963/1
f 964/964/1 966/965/1 965/966/1
f 967/967/1 969/968/1 968/969/1
f 970/970/1 972/971/1 971/972/1
f 973/973/1 975/974/1 974/975/1
f 976/976/1 978/977/1 977/978/1
f 979/979/1 981/980/1 980/981/1
f 982/982/1 984/983/1 983/984/1
f 985/985/1 987/986/1 986/987/1
f 988/988/1 990/989/1 989/990/1
f 991/991/1 993/992/1 992/993/1
f 994/994/1 996/995/1 995/996/1
f 997/997/1 999/998/1 998/999/1
f 1000/1000/1 1002/1001/1 1001/1002/1
f 1003/1003/1 1005/1004/1 1004/1005/1
f 1006/1006/1 1008/1007/1 1007/1008/1
f 1009/1009/1 1011/1010/1 1010/1011/1
f 1012/1012/1 1014/1013/1 1013/1014/1
f 1015/1015/1 1017/1016/1 1016/1017/1
f 1018/1018/1 1020/1019/1 1019/1020/1
f 1021/1021/1 1023/1022/1 1022/1023/1
f 1024/1024/1 1026/1025/1 1025/1026/1
f 1027/1027/1 1029/1028/1 1028/1029/1
f 1030/1030/1 1032/1031/1 1031/1032/1
f 1033/1033/1 1035/1034/1 1034/1035/1
f 1036/1036/1 1038/1037/1 1037/1038/1
f 1039/1039/1 1041/1040/1 1040/1041/1
f 1042/1042/1 1044/1043/1 1043/1044/1
f 1045/1045/1 1047/1046/1 1046/1047/1
f 1048/1048/1 1050/1049/1 1049/1050/1
f 1051/1051/1 1053/1052/1 1052/1053/1
f 1054/1054/1 1056/1055/1 1055/1056/1
f 1057/1057/1 1059/1058/1 1058/1059/1
f 1060/1060/1 1062/1061/1 1061/1062/1
f 1063/1063/1 1065/1064/1 1064/1065/1
f 1066/1066/1 1068/1067/1 1067/1068/1
f 1069/1069/1 1071/1070/1 1070/1071/1
f 1072/1072/1 1074/1073/1 1073/1074/1
f 1075/1075/1 1077/1076/1 1076/1077/1
f 1078/1078/1 1080/1079/1 1079/1080/1
f 1081/1081/1 1083/1082/1 1082/1083/1
f 1084/1084/1 1086/1085/1 1085/1086/1
f 1087/1087/1 1089/1088/1 1088/1089/1
f 1090/1090/1 1092/1091/1 1091/1092/1
