# Blender v3.6.3 OBJ File: 'untitled.blend'
# www.blender.org
mtllib Mesh_0192.mtl
o Mesh_0192_Mesh.157
v -21.669582 14.603747 10.128189
v -21.669582 19.366243 10.128189
v -22.304585 14.603747 10.128189
v -22.304585 19.366243 10.128189
v -22.619080 14.603747 10.128189
v -22.619080 19.366243 10.128189
v -21.034584 19.366243 10.766205
v -21.034584 14.603747 10.766205
v -21.034584 19.366245 11.080696
v -21.034584 14.603746 11.080696
v -21.034584 19.366245 11.715691
v -21.034584 14.603746 11.715691
v -21.034584 14.603748 -15.906807
v -21.034584 19.366243 -15.906807
v -21.034584 14.603748 -16.541805
v -21.034584 19.366245 -16.541805
v -21.034584 14.603748 -16.856304
v -21.034584 19.366245 -16.856304
v -21.672588 19.366243 -15.271805
v -21.672588 14.603748 -15.271805
v -21.987083 19.366243 -15.271805
v -21.987083 14.603748 -15.271805
v -22.622084 19.366243 -15.271805
v -22.622084 14.603748 -15.271805
v -21.669582 28.891239 10.128197
v -21.669582 33.653744 10.128197
v -22.304585 28.891239 10.128197
v -22.304585 33.653744 10.128197
v -22.619080 33.653744 10.128197
v -21.034584 28.891241 11.715691
v -21.034584 33.653744 11.715691
v -21.034584 28.891241 11.080696
v -21.034584 33.653744 11.080696
v -21.034584 33.653744 10.766205
v -21.034584 28.891241 -15.906807
v -21.034584 33.653744 -15.906807
v -21.034584 28.891243 -16.541805
v -21.034584 33.653744 -16.541805
v -21.034584 33.653744 -16.856304
v -22.622084 28.891241 -15.271805
v -22.622084 33.653744 -15.271805
v -21.987083 28.891241 -15.271805
v -21.987083 33.653744 -15.271805
v -21.672588 33.653744 -15.271805
v -21.669584 34.288742 21.875694
v -21.352085 34.288742 22.193192
v -20.717085 34.923744 21.558189
v -21.034584 34.288742 22.513695
v -21.669582 28.891239 10.128197
v -22.304585 28.891239 10.128197
v -21.669582 24.128742 10.128189
v -22.304585 24.128742 10.128189
v -21.034584 28.891241 11.080696
v -21.034584 28.891239 10.766205
v -21.034584 24.128744 11.080696
v -21.034584 24.128742 10.766205
v -21.669582 24.128742 10.128189
v -22.304585 24.128742 10.128189
v -21.669582 19.366243 10.128189
v -22.304585 19.366243 10.128189
v -21.034584 24.128744 11.080696
v -21.034584 24.128742 10.766205
v -21.034584 19.366245 11.080696
v -21.034584 19.366243 10.766205
v -21.034584 28.891241 11.715691
v -21.034584 28.891241 11.080696
v -21.034584 24.128744 11.715691
v -21.034584 24.128744 11.080696
v -21.034584 24.128744 11.715691
v -21.034584 24.128744 11.080696
v -21.034584 19.366245 11.715691
v -21.034584 19.366245 11.080696
v -23.257084 34.288742 10.763191
v -22.939583 34.288742 10.445694
v -23.574583 34.923744 9.810692
v -22.619080 34.288742 10.128197
v -22.304585 28.891239 10.128197
v -22.619080 28.891239 10.128197
v -22.304585 24.128742 10.128189
v -22.619080 24.128742 10.128189
v -22.304585 24.128742 10.128189
v -22.619080 24.128742 10.128189
v -22.304585 19.366243 10.128189
v -22.619080 19.366243 10.128189
v -21.034584 28.891241 -15.906807
v -21.034584 28.891243 -16.541805
v -21.034584 24.128742 -15.906807
v -21.034584 24.128744 -16.541805
v -21.987083 28.891241 -15.271805
v -21.672588 28.891241 -15.271805
v -21.987083 24.128742 -15.271805
v -21.672588 24.128742 -15.271805
v -21.034584 24.128742 -15.906807
v -21.034584 24.128744 -16.541805
v -21.034584 19.366243 -15.906807
v -21.034584 19.366245 -16.541805
v -21.987083 24.128742 -15.271805
v -21.672588 24.128742 -15.271805
v -21.987083 19.366243 -15.271805
v -21.672588 19.366243 -15.271805
v -22.622084 28.891241 -15.271805
v -21.987083 28.891241 -15.271805
v -22.622084 24.128742 -15.271805
v -21.987083 24.128742 -15.271805
v -22.622084 24.128742 -15.271805
v -21.987083 24.128742 -15.271805
v -22.622084 19.366243 -15.271805
v -21.987083 19.366243 -15.271805
v -21.034584 28.891243 -16.541805
v -21.034584 28.891243 -16.856304
v -21.034584 24.128744 -16.541805
v -21.034584 24.128744 -16.856304
v -21.034584 24.128744 -16.541805
v -21.034584 24.128744 -16.856304
v -21.034584 19.366245 -16.541805
v -21.034584 19.366245 -16.856304
v -21.669584 34.288742 -27.019306
v -20.717085 34.923744 -26.701805
v -21.352085 34.288742 -27.336803
v -21.034584 34.288742 -27.657310
v -21.034584 33.653744 10.766205
v -21.034584 28.891239 10.766205
v -21.034584 28.891241 11.080696
v -22.619080 33.653744 10.128197
v -22.619080 28.891239 10.128197
v -22.304585 28.891239 10.128197
v -21.672588 33.653744 -15.271805
v -21.672588 28.891241 -15.271805
v -21.987083 28.891241 -15.271805
v -21.034584 33.653744 -16.856304
v -21.034584 28.891243 -16.856304
v -21.034584 28.891243 -16.541805
vt -0.310547 -0.003906
vt -0.498047 -0.003906
vt -0.310547 0.991211
vt -0.498047 0.991211
vt -0.388672 -0.003906
vt -0.388672 0.991211
vt -0.388672 0.991211
vt -0.498047 0.991211
vt -0.388672 -0.003906
vt -0.498047 -0.003906
vt -0.310547 0.991211
vt -0.310547 -0.003906
vt -0.310547 -0.003906
vt -0.498047 -0.003906
vt -0.310547 0.991211
vt -0.498047 0.991211
vt -0.388672 -0.003906
vt -0.388672 0.991211
vt -0.388672 0.991211
vt -0.498047 0.991211
vt -0.388672 -0.003906
vt -0.498047 -0.003906
vt -0.310547 0.991211
vt -0.310547 -0.003906
vt -0.810547 -0.003906
vt -0.998047 -0.003906
vt -0.810547 0.995117
vt -0.998047 0.995117
vt -0.888672 0.995117
vt -0.810547 -0.003906
vt -0.998047 -0.003906
vt -0.810547 0.995117
vt -0.998047 0.995117
vt -0.888672 0.995117
vt -0.810547 -0.003906
vt -0.998047 -0.003906
vt -0.810547 0.995117
vt -0.998047 0.995117
vt -0.888672 0.995117
vt -0.810547 -0.003906
vt -0.998047 -0.003906
vt -0.810547 0.995117
vt -0.998047 0.995117
vt -0.888672 0.995117
vt 2.231445 -1.127930
vt 2.449219 -1.252930
vt 2.231445 -1.377930
vt 2.231445 -1.627930
vt 0.440430 0.999023
vt 0.440430 0.000000
vt 0.253906 0.999023
vt 0.253906 0.000000
vt 0.251953 0.999023
vt 0.251953 0.000000
vt 0.365234 0.999023
vt 0.365234 0.000000
vt 0.939453 0.995117
vt 0.939453 -0.003906
vt 0.753906 0.995117
vt 0.753906 -0.003906
vt 0.752930 0.995117
vt 0.752930 -0.003906
vt 0.863281 0.995117
vt 0.863281 -0.003906
vt 0.440430 0.999023
vt 0.440430 0.000000
vt 0.253906 0.999023
vt 0.253906 0.000000
vt 0.939453 0.995117
vt 0.939453 -0.003906
vt 0.753906 0.995117
vt 0.753906 -0.003906
vt 2.231445 -1.127930
vt 2.449219 -1.252930
vt 2.231445 -1.377930
vt 2.231445 -1.627930
vt 0.251953 0.999023
vt 0.251953 0.000000
vt 0.365234 0.999023
vt 0.365234 0.000000
vt 0.752930 0.995117
vt 0.752930 -0.003906
vt 0.863281 0.995117
vt 0.863281 -0.003906
vt 0.440430 0.999023
vt 0.440430 0.000000
vt 0.253906 0.999023
vt 0.253906 0.000000
vt 0.251953 0.999023
vt 0.251953 0.000000
vt 0.365234 0.999023
vt 0.365234 0.000000
vt 0.939453 0.995117
vt 0.939453 -0.003906
vt 0.753906 0.995117
vt 0.753906 -0.003906
vt 0.752930 0.995117
vt 0.752930 -0.003906
vt 0.863281 0.995117
vt 0.863281 -0.003906
vt 0.440430 0.999023
vt 0.440430 0.000000
vt 0.253906 0.999023
vt 0.253906 0.000000
vt 0.939453 0.995117
vt 0.939453 -0.003906
vt 0.753906 0.995117
vt 0.753906 -0.003906
vt 0.251953 0.999023
vt 0.251953 0.000000
vt 0.365234 0.999023
vt 0.365234 0.000000
vt 0.752930 0.995117
vt 0.752930 -0.003906
vt 0.863281 0.995117
vt 0.863281 -0.003906
vt 2.231445 -1.127930
vt 2.231445 -1.377930
vt 2.449219 -1.252930
vt 2.231445 -1.627930
vt -0.888672 0.995117
vt -0.998047 -0.003906
vt -0.888672 -0.003906
vt -0.888672 0.995117
vt -0.998047 -0.003906
vt -0.888672 -0.003906
vt -0.888672 0.995117
vt -0.998047 -0.003906
vt -0.888672 -0.003906
vt -0.888672 0.995117
vt -0.998047 -0.003906
vt -0.888672 -0.003906
vn 0.0000 0.0000 -1.0000
vn 1.0000 0.0000 0.0000
vn 0.0000 0.0000 1.0000
vn 0.4082 -0.8165 -0.4083
vn 0.4076 -0.8162 -0.4095
vn 0.4075 -0.8172 -0.4075
vn 0.4094 -0.8172 -0.4056
vn 0.4113 -0.8162 -0.4057
vn 0.4102 -0.8165 -0.4063
vn -0.4082 -0.8165 -0.4083
vn -0.4094 -0.8162 -0.4077
vn -0.4075 -0.8172 -0.4075
vn -0.4055 -0.8173 -0.4094
vn -0.4057 -0.8162 -0.4114
vn -0.4063 -0.8165 -0.4102
vn 0.4082 -0.8165 0.4083
vn 0.4075 -0.8173 0.4075
vn 0.4077 -0.8162 0.4094
vn 0.4114 -0.8162 0.4057
vn 0.4094 -0.8173 0.4055
vn 0.4102 -0.8165 0.4063
usemtl Tex_0073_0.dds.004
s off
f 1/1/1 3/2/1 2/3/1
f 2/3/1 3/2/1 4/4/1
f 3/2/1 5/5/1 4/4/1
f 4/4/1 5/5/1 6/6/1
f 7/7/2 9/8/2 8/9/2
f 8/9/2 9/8/2 10/10/2
f 9/8/2 11/11/2 10/10/2
f 10/10/2 11/11/2 12/12/2
f 13/13/2 15/14/2 14/15/2
f 14/15/2 15/14/2 16/16/2
f 15/14/2 17/17/2 16/16/2
f 16/16/2 17/17/2 18/18/2
f 19/19/3 21/20/3 20/21/3
f 20/21/3 21/20/3 22/22/3
f 21/20/3 23/23/3 22/22/3
f 22/22/3 23/23/3 24/24/3
f 25/25/1 27/26/1 26/27/1
f 26/27/1 27/26/1 28/28/1
f 27/26/1 29/29/1 28/28/1
f 30/30/2 32/31/2 31/32/2
f 31/32/2 32/31/2 33/33/2
f 32/31/2 34/34/2 33/33/2
f 35/35/2 37/36/2 36/37/2
f 36/37/2 37/36/2 38/38/2
f 37/36/2 39/39/2 38/38/2
f 40/40/3 42/41/3 41/42/3
f 41/42/3 42/41/3 43/43/3
f 42/41/3 44/44/3 43/43/3
f 45/45/4 47/46/5 46/47/6
f 46/47/7 47/46/8 48/48/9
f 49/49/1 51/50/1 50/51/1
f 50/51/1 51/50/1 52/52/1
f 53/53/2 55/54/2 54/55/2
f 54/55/2 55/54/2 56/56/2
f 57/57/1 59/58/1 58/59/1
f 58/59/1 59/58/1 60/60/1
f 61/61/2 63/62/2 62/63/2
f 62/63/2 63/62/2 64/64/2
f 65/65/2 67/66/2 66/67/2
f 66/67/2 67/66/2 68/68/2
f 69/69/2 71/70/2 70/71/2
f 70/71/2 71/70/2 72/72/2
f 73/73/10 75/74/11 74/75/12
f 74/75/13 75/74/14 76/76/15
f 77/77/1 79/78/1 78/79/1
f 78/79/1 79/78/1 80/80/1
f 81/81/1 83/82/1 82/83/1
f 82/83/1 83/82/1 84/84/1
f 85/85/2 87/86/2 86/87/2
f 86/87/2 87/86/2 88/88/2
f 89/89/3 91/90/3 90/91/3
f 90/91/3 91/90/3 92/92/3
f 93/93/2 95/94/2 94/95/2
f 94/95/2 95/94/2 96/96/2
f 97/97/3 99/98/3 98/99/3
f 98/99/3 99/98/3 100/100/3
f 101/101/3 103/102/3 102/103/3
f 102/103/3 103/102/3 104/104/3
f 105/105/3 107/106/3 106/107/3
f 106/107/3 107/106/3 108/108/3
f 109/109/2 111/110/2 110/111/2
f 110/111/2 111/110/2 112/112/2
f 113/113/2 115/114/2 114/115/2
f 114/115/2 115/114/2 116/116/2
f 117/117/16 119/118/17 118/119/18
f 118/119/19 119/118/20 120/120/21
f 121/121/2 123/122/2 122/123/2
f 124/124/1 126/125/1 125/126/1
f 127/127/3 129/128/3 128/129/3
f 130/130/2 132/131/2 131/132/2
