# Blender v3.6.3 OBJ File: 'untitled.blend'
# www.blender.org
mtllib Mesh_0301.mtl
o Mesh_0301_Mesh.083
v -19.764633 -1.903184 21.524155
v -19.764633 -1.395184 21.558189
v -14.684634 -1.596665 21.558189
v -14.684634 -1.472050 21.558189
v -9.604633 -1.395184 21.558189
v -9.604633 -1.268184 21.558189
v -19.764633 -2.538184 22.828194
v -19.764633 -2.030184 22.828194
v -14.684634 -2.231665 22.828194
v -14.684634 -2.107049 22.828194
v -9.604633 -2.030184 22.828194
v -9.604633 -1.903184 22.828194
v -9.604633 -0.125184 19.018196
v -9.604633 -0.633184 18.984154
v -14.684634 -0.326665 19.018196
v -14.684634 -0.633184 18.984154
v -19.764633 -0.633184 18.984154
v -9.604633 0.001816 19.018196
v -9.604633 -0.125184 19.018196
v -14.684634 -0.199665 19.018196
v -14.684634 -0.326665 19.018196
v -19.764633 -0.125184 19.018196
v -9.604633 -0.760184 20.288193
v -9.604633 -1.268184 20.254158
v -14.684634 -0.961665 20.288193
v -14.684634 -1.268184 20.254158
v -19.764633 -1.268184 20.254158
v -9.604633 -0.633184 20.288193
v -9.604633 -0.760184 20.288193
v -14.684634 -0.837050 20.288193
v -14.684634 -0.961665 20.288193
v -19.764633 -0.760184 20.288193
v -9.604633 -1.395184 21.558189
v -9.604633 -1.903184 21.524155
v -14.684634 -1.596665 21.558189
v -14.684634 -1.903184 21.524155
v -19.764633 -1.903184 21.524155
v -9.604633 -2.030184 22.828194
v -9.604633 -2.538184 22.828194
v -14.684634 -2.231665 22.828194
v -14.684634 -2.538184 22.828194
v -19.764633 -2.538184 22.828194
v -19.764633 0.001816 19.018196
v -14.684634 0.001816 18.383194
v -14.684634 -0.199665 19.018196
v -9.604633 0.001816 19.018196
v -9.604633 -0.633184 18.984154
v -14.684634 -0.676407 19.636177
v -14.684634 -0.633184 18.984154
v -19.764633 -0.633184 18.984154
v -19.764633 -0.633184 20.288193
v -14.684634 -0.676407 19.636177
v -14.684634 -0.837050 20.288193
v -9.604633 -0.633184 20.288193
v -9.604633 -1.268184 20.254158
v -14.684634 -1.311407 20.906174
v -14.684634 -1.268184 20.254158
v -19.764633 -1.268184 20.254158
v -19.764633 -1.268184 21.558189
v -14.684634 -1.311407 20.906174
v -14.684634 -1.472050 21.558189
v -9.604633 -1.268184 21.558189
v -9.604633 -1.903184 21.524155
v -14.684634 -1.946407 22.176170
v -14.684634 -1.903184 21.524155
v -19.764633 -1.903184 21.524155
v -19.764633 -1.903184 22.828194
v -14.684634 -1.946407 22.176170
v -14.684634 -2.107049 22.828194
v -9.604633 -1.903184 22.828194
v -14.684634 -0.326665 19.018196
v -19.764633 -0.633184 18.984154
v -19.764633 -0.125184 19.018196
v -19.764633 -0.125184 19.018196
v -19.764633 0.001816 19.018196
v -14.684634 -0.199665 19.018196
v -14.684634 -0.961665 20.288193
v -19.764633 -1.268184 20.254158
v -19.764633 -0.760184 20.288193
v -19.764633 -0.760184 20.288193
v -19.764633 -0.633184 20.288193
v -14.684634 -0.837050 20.288193
v -19.764633 -1.395184 21.558189
v -19.764633 -1.268184 21.558189
v -14.684634 -1.472050 21.558189
v -19.764633 -2.030184 22.828194
v -19.764633 -1.903184 22.828194
v -14.684634 -2.107049 22.828194
vt 2.966797 -1.999023
vt 0.956055 -1.499023
vt 2.966797 -1.499023
vt 0.981445 -1.000000
vt -1.039062 -1.499023
vt -1.005859 -1.000000
vt 1.973633 -1.999023
vt -0.012695 -1.499023
vt 1.973633 -1.499023
vt -0.012695 -1.000000
vt -1.999023 -1.499023
vt -1.999023 -1.000000
vt -0.939453 -1.499023
vt 0.948242 -1.499023
vt -1.005859 -1.999023
vt 0.981445 -1.999023
vt 2.966797 -1.999023
vt -1.005859 -1.000000
vt 0.981445 -1.000000
vt -0.961914 -1.499023
vt 0.958984 -1.499023
vt 2.977539 -1.499023
vt -1.005859 -1.000000
vt 1.001953 -1.000000
vt -1.049805 -1.499023
vt 0.981445 -1.499023
vt 2.977539 -1.499023
vt -1.005859 -1.000000
vt 0.981445 -1.000000
vt -1.049805 -1.499023
vt 1.001953 -1.499023
vt 2.900391 -1.499023
vt -1.039062 -1.499023
vt 0.956055 -1.499023
vt -1.031250 -1.999023
vt 0.981445 -1.999023
vt 2.966797 -1.999023
vt -1.999023 -1.499023
vt -0.012695 -1.499023
vt -1.999023 -1.999023
vt -0.012695 -1.999023
vt 1.973633 -1.999023
vt 3.976562 -0.992188
vt 1.979492 -1.000000
vt 1.979492 -1.250000
vt -0.005859 -0.995117
vt -1.031250 -1.499023
vt 0.981445 -1.489258
vt 1.056641 -1.240234
vt 2.966797 -1.499023
vt 2.966797 -1.000000
vt 0.981445 -1.000000
vt 1.056641 -1.240234
vt -1.031250 -1.000000
vt -0.030273 0.498047
vt 2.024414 0.498047
vt 1.966797 0.706055
vt 4.002930 0.498047
vt 4.002930 0.998047
vt 2.024414 0.998047
vt 1.966797 0.706055
vt -0.030273 0.998047
vt -2.023438 -1.998047
vt -0.009766 -1.998047
vt 0.016602 -1.764648
vt 1.975586 -1.998047
vt 1.975586 -1.499023
vt -0.009766 -1.499023
vt 0.016602 -1.764648
vt -2.023438 -1.499023
vt 0.948242 -1.499023
vt 2.988281 -1.499023
vt 2.966797 -1.999023
vt 2.977539 -1.499023
vt 0.981445 -1.000000
vt 2.966797 -1.000000
vt 1.001953 -1.000000
vt 2.966797 -1.000000
vt 2.977539 -1.499023
vt 2.900391 -1.499023
vt 0.981445 -1.000000
vt 2.966797 -1.000000
vt 2.966797 -1.499023
vt 0.981445 -1.000000
vt 2.966797 -1.000000
vt 1.973633 -1.499023
vt -0.012695 -1.000000
vt 1.973633 -1.000000
vn -0.0027 -0.0668 0.9978
vn 0.0012 -0.1293 0.9916
vn -0.0000 0.0000 1.0000
vn -0.0041 -0.0003 1.0000
vn 0.0027 -0.0669 0.9978
vn 0.0010 -0.0246 0.9997
vn 0.0043 -0.0669 0.9978
vn 0.0000 -0.1521 0.9884
vn -0.0013 -0.1104 0.9939
vn 0.0000 -0.1104 0.9939
vn 0.0013 -0.1102 0.9939
vn 0.0027 -0.0668 0.9978
vn 0.0010 -0.0259 0.9997
vn 0.0027 -0.1100 0.9939
vn 0.0043 -0.0668 0.9978
vn 0.0378 0.9525 0.3022
vn 0.0378 0.9632 0.2660
vn 0.0422 0.9403 0.3377
vn -0.0422 0.9403 0.3377
vn -0.0382 0.9632 0.2660
vn -0.0378 0.9525 0.3022
vn 0.0000 0.9978 0.0661
vn 0.0389 0.9702 0.2390
vn -0.0389 0.9702 0.2390
vn 0.0389 0.9788 0.2011
vn 0.0436 0.9601 0.2763
vn -0.0436 0.9601 0.2763
vn -0.0393 0.9788 0.2011
vn -0.0027 -0.0669 0.9978
usemtl Tex_0056_1.dds.001
s off
f 1/1/1 3/2/2 2/3/1
f 2/3/3 3/2/3 4/4/3
f 3/2/4 5/5/3 4/4/3
f 4/4/3 5/5/3 6/6/3
f 7/7/3 9/8/3 8/9/3
f 8/9/3 9/8/3 10/10/3
f 9/8/3 11/11/3 10/10/3
f 10/10/3 11/11/3 12/12/3
f 13/13/5 15/14/6 14/15/7
f 14/15/8 15/14/9 16/16/10
f 15/14/11 17/17/10 16/16/10
f 18/18/3 20/19/3 19/20/3
f 19/20/3 20/19/3 21/21/3
f 20/19/3 22/22/3 21/21/3
f 23/23/12 25/24/13 24/25/12
f 24/25/10 25/24/10 26/26/10
f 25/24/14 27/27/10 26/26/10
f 28/28/3 30/29/3 29/30/3
f 29/30/3 30/29/3 31/31/3
f 30/29/3 32/32/3 31/31/3
f 33/33/12 35/34/6 34/35/15
f 34/35/8 35/34/9 36/36/10
f 35/34/11 37/37/10 36/36/10
f 38/38/3 40/39/3 39/40/3
f 39/40/3 40/39/3 41/41/3
f 40/39/3 42/42/3 41/41/3
f 43/43/16 45/44/17 44/45/18
f 44/45/19 45/44/20 46/46/21
f 47/47/22 49/48/22 48/49/22
f 48/49/22 49/48/22 50/50/22
f 51/51/23 53/52/23 52/53/23
f 52/53/24 53/52/24 54/54/24
f 55/55/22 57/56/22 56/57/22
f 56/57/22 57/56/22 58/58/22
f 59/59/23 61/60/25 60/61/26
f 60/61/27 61/60/28 62/62/24
f 63/63/22 65/64/22 64/65/22
f 64/65/22 65/64/22 66/66/22
f 67/67/23 69/68/25 68/69/26
f 68/69/27 69/68/28 70/70/24
f 71/71/29 73/72/29 72/73/29
f 74/74/3 76/75/3 75/76/3
f 77/77/1 79/78/1 78/79/1
f 80/80/3 82/81/3 81/82/3
f 83/83/3 85/84/3 84/85/3
f 86/86/3 88/87/3 87/88/3
