# Blender v3.6.3 OBJ File: 'untitled.blend'
# www.blender.org
mtllib Mesh_0190.mtl
o Mesh_0190_Mesh.036
v -22.304585 35.558743 20.923195
v -22.304585 35.241245 20.923195
v -20.717085 35.558743 20.923195
v -20.717085 35.241245 20.923195
v -22.304585 13.809998 21.558189
v -20.717085 13.809998 21.558189
v -22.304585 14.286247 21.875694
v -21.669584 14.286247 21.875694
v -20.717085 35.558743 21.558189
v -20.717085 35.241245 21.558189
v -20.082085 35.558743 21.558189
v -20.082085 35.241245 21.558189
v -20.717085 35.558743 21.558189
v -20.717085 35.558743 20.923195
v -20.717085 35.241245 21.558189
v -20.717085 35.241245 20.923195
v -21.034584 14.286247 22.828194
v -21.034584 14.286247 22.513695
v -20.717085 13.809998 22.828194
v -20.717085 13.809998 21.558189
v -20.082085 35.558743 21.558189
v -20.082085 35.241245 21.558189
v -20.082085 35.558743 22.828194
v -20.082085 35.241245 22.828194
v -20.717083 35.558743 9.175690
v -22.304585 35.558743 9.175690
v -20.717083 35.241245 9.175690
v -22.304585 35.241245 9.175690
v -22.304585 13.809998 9.810692
v -20.717083 13.809998 9.810692
v -22.304585 14.286248 10.128189
v -21.669582 14.286248 10.128189
v -20.717083 35.558743 9.810684
v -20.717083 35.241245 9.810692
v -20.082085 35.558743 9.810684
v -20.082085 35.241245 9.810692
v -20.717083 35.558743 9.810684
v -20.717083 35.558743 9.175690
v -20.717083 35.241245 9.810692
v -20.717083 35.241245 9.175690
v -21.034584 14.286247 11.080696
v -21.034584 14.286248 10.766205
v -20.717083 13.809997 11.080696
v -20.717083 13.809998 9.810692
v -20.082085 35.558743 11.080696
v -20.082085 35.558743 9.810684
v -20.082085 35.241245 11.080696
v -20.082085 35.241245 9.810692
v -20.082085 35.558743 12.668190
v -20.082085 35.558743 11.080696
v -20.082085 35.241245 12.668190
v -20.082085 35.241245 11.080696
v -20.717083 13.809997 11.080696
v -20.717083 13.809997 12.668190
v -21.034584 14.286247 11.080696
v -21.034584 14.286247 11.715691
v -20.717083 35.558743 12.668190
v -20.717083 35.241245 12.668190
v -20.717083 35.558743 13.303192
v -20.717083 35.241245 13.303192
v -20.717083 35.558743 12.668190
v -20.082085 35.558743 12.668190
v -20.717083 35.241245 12.668190
v -20.082085 35.241245 12.668190
v -22.304585 14.286247 12.350693
v -21.672588 14.286247 12.350693
v -22.304585 13.809997 12.668190
v -20.717083 13.809997 12.668190
v -22.304585 35.558743 13.303192
v -20.717083 35.558743 13.303192
v -22.304585 35.241245 13.303192
v -20.717083 35.241245 13.303192
v -23.574585 13.809998 9.810692
v -23.574583 13.809997 11.398193
v -23.574585 12.699990 9.810692
v -23.574583 12.699989 11.398193
v -24.209583 35.558743 9.810692
v -24.209583 35.558743 11.398193
v -24.209583 35.241245 9.810692
v -24.209583 35.241245 11.398193
v -23.574583 13.809997 11.398193
v -23.574585 13.809998 9.810692
v -23.257084 14.286247 11.398193
v -23.257084 14.286248 10.763191
v -23.574585 35.558743 9.810692
v -23.574585 35.241245 9.810692
v -23.574585 35.558743 9.175690
v -23.574585 35.241245 9.175690
v -23.574585 35.558743 9.810692
v -24.209583 35.558743 9.810692
v -23.574585 35.241245 9.810692
v -24.209583 35.241245 9.810692
v -22.304585 14.286248 10.128189
v -22.619080 14.286248 10.128189
v -22.304585 13.809998 9.810692
v -23.574585 13.809998 9.810692
v -22.304585 35.558743 9.175690
v -23.574585 35.558743 9.175690
v -22.304585 35.241245 9.175690
v -23.574585 35.241245 9.175690
v -20.082085 35.558743 -14.954304
v -20.082085 35.558743 -16.541805
v -20.082085 35.241245 -14.954304
v -20.082085 35.241245 -16.541805
v -20.717083 13.809998 -16.541805
v -20.717083 13.809998 -14.954304
v -21.034584 14.286248 -16.541805
v -21.034584 14.286248 -15.906807
v -20.717077 35.558743 -14.954304
v -20.717083 35.241245 -14.954304
v -20.717077 35.558743 -14.319305
v -20.717083 35.241245 -14.319305
v -20.717077 35.558743 -14.954304
v -20.082085 35.558743 -14.954304
v -20.717083 35.241245 -14.954304
v -20.082085 35.241245 -14.954304
v -21.987083 14.286248 -15.271805
v -21.672588 14.286248 -15.271805
v -21.987083 13.809998 -14.954304
v -20.717083 13.809998 -14.954304
v -21.987083 35.558743 -14.319305
v -20.717077 35.558743 -14.319305
v -21.987083 35.241245 -14.319305
v -20.717083 35.241245 -14.319305
v -23.574585 35.558743 -14.319305
v -21.987083 35.558743 -14.319305
v -23.574585 35.241245 -14.319305
v -21.987083 35.241245 -14.319305
v -21.987083 13.809998 -14.954304
v -23.574585 13.809998 -14.954304
v -21.987083 14.286248 -15.271805
v -22.622084 14.286248 -15.271805
v -23.574585 35.558743 -14.954304
v -23.574585 35.241245 -14.954304
v -24.209583 35.558743 -14.954304
v -24.209583 35.241245 -14.954304
v -23.574585 35.558743 -14.954304
v -23.574585 35.558743 -14.319305
v -23.574585 35.241245 -14.954304
v -23.574585 35.241245 -14.319305
v -23.574585 13.809998 -14.954304
v -23.574585 12.699990 -14.954304
v -23.574587 13.809998 -16.541805
v -23.574587 12.699990 -16.541805
v -23.257084 14.286248 -16.541805
v -23.257084 14.286248 -15.909805
v -23.574587 13.809998 -16.541805
v -23.574585 13.809998 -14.954304
v -24.209583 35.558743 -16.541805
v -24.209583 35.558743 -14.954304
v -24.209583 35.241245 -16.541805
v -24.209583 35.241245 -14.954304
v -20.717085 35.558743 -18.446804
v -22.304585 35.558743 -18.446804
v -20.717085 35.241245 -18.446804
v -22.304585 35.241245 -18.446804
v -22.304585 13.809997 -17.811806
v -20.717085 13.809997 -17.811806
v -22.304585 14.286247 -17.494305
v -21.669584 14.286247 -17.494305
v -20.717085 35.558743 -17.811806
v -20.717085 35.241245 -17.811806
v -20.082085 35.558743 -17.811806
v -20.082085 35.241245 -17.811806
v -20.717085 35.558743 -17.811806
v -20.717085 35.558743 -18.446804
v -20.717085 35.241245 -17.811806
v -20.717085 35.241245 -18.446804
v -21.034584 14.286248 -16.541805
v -21.034584 14.286248 -16.856304
v -20.717083 13.809998 -16.541805
v -20.717085 13.809997 -17.811806
v -20.082085 35.558743 -16.541805
v -20.082085 35.558743 -17.811806
v -20.082085 35.241245 -16.541805
v -20.082085 35.241245 -17.811806
v -22.304585 35.558743 -26.066803
v -20.717085 35.558743 -26.066803
v -22.304585 35.241245 -26.066803
v -20.717085 35.241245 -26.066803
v -22.304585 13.809999 -26.701801
v -22.304585 14.286248 -27.019306
v -20.717085 13.809999 -26.701801
v -21.669584 14.286248 -27.019306
v -20.717085 35.558743 -26.701801
v -20.082085 35.558743 -26.701801
v -20.717085 35.241245 -26.701801
v -20.082085 35.241245 -26.701801
v -20.717085 35.558743 -26.701801
v -20.717085 35.241245 -26.701801
v -20.717085 35.558743 -26.066803
v -20.717085 35.241245 -26.066803
v -21.034584 14.286248 -27.971806
v -20.717085 13.809999 -27.971806
v -21.034584 14.286248 -27.657310
v -20.717085 13.809999 -26.701801
v -20.082085 35.558743 -26.701801
v -20.082085 35.558743 -27.971806
v -20.082085 35.241245 -26.701801
v -20.082085 35.241245 -27.971806
v -21.352085 14.286247 22.193192
v -20.717085 13.809998 21.558189
v -21.034584 14.286247 22.513695
v -21.352085 14.286247 22.193192
v -21.669584 14.286247 21.875694
v -20.717085 13.809998 21.558189
v -21.352083 14.286247 12.033195
v -20.717083 13.809997 12.668190
v -21.672588 14.286247 12.350693
v -21.352083 14.286247 12.033195
v -21.034584 14.286247 11.715691
v -20.717083 13.809997 12.668190
v -22.939583 14.286248 10.445694
v -23.574585 13.809998 9.810692
v -22.619080 14.286248 10.128189
v -22.939583 14.286248 10.445694
v -23.257084 14.286248 10.763191
v -23.574585 13.809998 9.810692
v -21.352085 14.286248 -15.589306
v -20.717083 13.809998 -14.954304
v -21.672588 14.286248 -15.271805
v -21.352085 14.286248 -15.589306
v -21.034584 14.286248 -15.906807
v -20.717083 13.809998 -14.954304
v -22.939583 14.286248 -15.589306
v -23.574585 13.809998 -14.954304
v -23.257084 14.286248 -15.909805
v -22.939583 14.286248 -15.589306
v -22.622084 14.286248 -15.271805
v -23.574585 13.809998 -14.954304
v -21.352085 14.286248 -17.176804
v -20.717085 13.809997 -17.811806
v -21.034584 14.286248 -16.856304
v -21.352085 14.286248 -17.176804
v -21.669584 14.286247 -17.494305
v -20.717085 13.809997 -17.811806
v -20.717085 13.809999 -26.701801
v -21.352085 14.286248 -27.336803
v -21.034584 14.286248 -27.657310
v -21.669584 14.286248 -27.019306
v -21.352085 14.286248 -27.336803
v -20.717085 13.809999 -26.701801
vt 1.997070 0.986328
vt 1.497070 0.986328
vt 1.997070 0.611328
vt 1.497070 0.611328
vt 1.997070 -0.153320
vt 1.997070 0.486328
vt 0.998047 -0.153320
vt 1.668945 0.486328
vt 0.998047 0.986328
vt -0.000977 0.986328
vt 0.998047 0.611328
vt -0.000977 0.611328
vt 0.998047 0.986328
vt 0.998047 0.611328
vt 1.497070 0.986328
vt 1.497070 0.611328
vt -0.000977 0.470703
vt -0.000977 -0.153320
vt 0.373047 0.470703
vt 0.998047 -0.153320
vt -0.000977 0.986328
vt -1.000000 0.986328
vt -0.000977 0.611328
vt -1.000000 0.611328
vt 1.497070 0.986328
vt 1.497070 0.611328
vt 1.997070 0.986328
vt 1.997070 0.611328
vt 1.997070 -0.153320
vt 1.997070 0.486328
vt 0.998047 -0.153320
vt 1.668945 0.486328
vt 0.998047 0.986328
vt -0.000977 0.986328
vt 0.998047 0.611328
vt -0.000977 0.611328
vt 0.998047 0.986328
vt 0.998047 0.611328
vt 1.497070 0.986328
vt 1.497070 0.611328
vt -0.000977 0.470703
vt -0.000977 -0.153320
vt 0.373047 0.470703
vt 0.998047 -0.153320
vt -1.000000 0.986328
vt -1.000000 0.611328
vt -0.000977 0.986328
vt -0.000977 0.611328
vt 1.497070 0.986328
vt 1.497070 0.611328
vt 1.997070 0.986328
vt 1.997070 0.611328
vt 1.997070 -0.153320
vt 1.997070 0.486328
vt 0.998047 -0.153320
vt 1.668945 0.486328
vt 0.998047 0.986328
vt -0.000977 0.986328
vt 0.998047 0.611328
vt -0.000977 0.611328
vt 0.998047 0.986328
vt 0.998047 0.611328
vt 1.497070 0.986328
vt 1.497070 0.611328
vt -0.000977 0.470703
vt -0.000977 -0.153320
vt 0.373047 0.470703
vt 0.998047 -0.153320
vt -1.000000 0.986328
vt -1.000000 0.611328
vt -0.000977 0.986328
vt -0.000977 0.611328
vt 0.998047 -0.153320
vt 0.998047 -0.997070
vt 1.997070 -0.153320
vt 1.997070 -0.997070
vt 1.497070 0.986328
vt 1.497070 0.611328
vt 1.997070 0.986328
vt 1.997070 0.611328
vt 1.997070 -0.153320
vt 1.997070 0.486328
vt 0.998047 -0.153320
vt 1.668945 0.486328
vt 0.998047 0.986328
vt -0.000977 0.986328
vt 0.998047 0.611328
vt -0.000977 0.611328
vt 0.998047 0.986328
vt 0.998047 0.611328
vt 1.497070 0.986328
vt 1.497070 0.611328
vt -0.000977 0.470703
vt -0.000977 -0.153320
vt 0.373047 0.470703
vt 0.998047 -0.153320
vt -1.000000 0.986328
vt -1.000000 0.611328
vt -0.000977 0.986328
vt -0.000977 0.611328
vt 1.497070 0.986328
vt 1.497070 0.611328
vt 1.997070 0.986328
vt 1.997070 0.611328
vt 1.997070 -0.153320
vt 1.997070 0.486328
vt 0.998047 -0.153320
vt 1.668945 0.486328
vt 0.998047 0.986328
vt -0.000977 0.986328
vt 0.998047 0.611328
vt -0.000977 0.611328
vt 0.998047 0.986328
vt 0.998047 0.611328
vt 1.497070 0.986328
vt 1.497070 0.611328
vt -0.000977 0.470703
vt -0.000977 -0.153320
vt 0.373047 0.470703
vt 0.998047 -0.153320
vt -1.000000 0.986328
vt -1.000000 0.611328
vt -0.000977 0.986328
vt -0.000977 0.611328
vt 1.497070 0.986328
vt 1.497070 0.611328
vt 1.997070 0.986328
vt 1.997070 0.611328
vt 1.997070 -0.153320
vt 1.997070 0.486328
vt 0.998047 -0.153320
vt 1.668945 0.486328
vt 0.998047 0.986328
vt -0.000977 0.986328
vt 0.998047 0.611328
vt -0.000977 0.611328
vt 0.998047 0.986328
vt 0.998047 0.611328
vt 1.497070 0.986328
vt 1.497070 0.611328
vt 0.998047 -0.153320
vt -0.000977 -0.153320
vt 0.998047 -0.997070
vt -0.000977 -0.997070
vt -0.000977 0.470703
vt -0.000977 -0.153320
vt 0.373047 0.470703
vt 0.998047 -0.153320
vt -1.000000 0.986328
vt -1.000000 0.611328
vt -0.000977 0.986328
vt -0.000977 0.611328
vt 1.497070 0.986328
vt 1.497070 0.611328
vt 1.997070 0.986328
vt 1.997070 0.611328
vt 1.997070 -0.153320
vt 1.997070 0.486328
vt 0.998047 -0.153320
vt 1.668945 0.486328
vt 0.998047 0.986328
vt -0.000977 0.986328
vt 0.998047 0.611328
vt -0.000977 0.611328
vt 0.998047 0.986328
vt 0.998047 0.611328
vt 1.497070 0.986328
vt 1.497070 0.611328
vt -0.000977 0.470703
vt -0.000977 -0.153320
vt 0.373047 0.470703
vt 0.998047 -0.153320
vt -1.000000 0.986328
vt -1.000000 0.611328
vt -0.000977 0.986328
vt -0.000977 0.611328
vt 1.997070 0.986328
vt 1.997070 0.611328
vt 1.497070 0.986328
vt 1.497070 0.611328
vt 1.997070 -0.153320
vt 0.998047 -0.153320
vt 1.997070 0.486328
vt 1.668945 0.486328
vt 0.998047 0.986328
vt 0.998047 0.611328
vt -0.000977 0.986328
vt -0.000977 0.611328
vt 0.998047 0.986328
vt 1.497070 0.986328
vt 0.998047 0.611328
vt 1.497070 0.611328
vt -0.000977 0.470703
vt 0.373047 0.470703
vt -0.000977 -0.153320
vt 0.998047 -0.153320
vt -0.000977 0.986328
vt -0.000977 0.611328
vt -1.000000 0.986328
vt -1.000000 0.611328
vt 0.654297 0.470703
vt 0.373047 0.470703
vt 0.998047 -0.153320
vt 1.481445 0.486328
vt 0.998047 -0.153320
vt 1.668945 0.486328
vt 0.654297 0.470703
vt 0.373047 0.470703
vt 0.998047 -0.153320
vt 1.481445 0.486328
vt 0.998047 -0.153320
vt 1.668945 0.486328
vt 0.654297 0.470703
vt 0.373047 0.470703
vt 0.998047 -0.153320
vt 1.481445 0.486328
vt 0.998047 -0.153320
vt 1.668945 0.486328
vt 0.654297 0.470703
vt 0.373047 0.470703
vt 0.998047 -0.153320
vt 1.481445 0.486328
vt 0.998047 -0.153320
vt 1.668945 0.486328
vt 0.654297 0.470703
vt 0.373047 0.470703
vt 0.998047 -0.153320
vt 1.481445 0.486328
vt 0.998047 -0.153320
vt 1.668945 0.486328
vt 0.654297 0.470703
vt 0.373047 0.470703
vt 0.998047 -0.153320
vt 1.481445 0.486328
vt 0.998047 -0.153320
vt 1.668945 0.486328
vt 0.998047 -0.153320
vt 0.373047 0.470703
vt 0.654297 0.470703
vt 1.668945 0.486328
vt 0.998047 -0.153320
vt 1.481445 0.486328
vn 0.0000 0.0000 -1.0000
vn 0.0000 0.5547 -0.8320
vn 1.0000 0.0000 0.0000
vn 0.8321 0.5547 0.0000
vn 0.8320 0.5547 0.0000
vn 0.0000 0.5547 -0.8321
vn 0.0000 0.0000 1.0000
vn 0.0000 0.5547 0.8321
vn -1.0000 0.0000 0.0000
vn -0.8320 0.5547 0.0000
vn -0.8321 0.5547 0.0000
vn 0.0000 0.5547 0.8320
vn 0.3329 0.8834 -0.3297
vn 0.3313 0.8835 -0.3313
vn 0.3297 0.8834 0.3329
vn 0.3313 0.8835 0.3313
vn -0.3297 0.8835 -0.3328
vn -0.3313 0.8835 -0.3313
vn 0.3297 0.8835 0.3329
vn -0.3329 0.8835 0.3297
vn -0.3313 0.8835 0.3313
vn 0.3329 0.8834 0.3297
usemtl Tex_0072_1.dds
s off
f 1/1/1 3/2/1 2/3/1
f 2/3/1 3/2/1 4/4/1
f 5/5/2 7/6/2 6/7/2
f 6/7/2 7/6/2 8/8/2
f 9/9/1 11/10/1 10/11/1
f 10/11/1 11/10/1 12/12/1
f 13/13/3 15/14/3 14/15/3
f 14/15/3 15/14/3 16/16/3
f 17/17/4 19/18/4 18/19/4
f 18/19/5 19/18/5 20/20/5
f 21/21/3 23/22/3 22/23/3
f 22/23/3 23/22/3 24/24/3
f 25/25/1 27/26/1 26/27/1
f 26/27/1 27/26/1 28/28/1
f 29/29/6 31/30/6 30/31/6
f 30/31/6 31/30/6 32/32/6
f 33/33/1 35/34/1 34/35/1
f 34/35/1 35/34/1 36/36/1
f 37/37/3 39/38/3 38/39/3
f 38/39/3 39/38/3 40/40/3
f 41/41/4 43/42/4 42/43/4
f 42/43/5 43/42/5 44/44/5
f 45/45/3 47/46/3 46/47/3
f 46/47/3 47/46/3 48/48/3
f 49/49/3 51/50/3 50/51/3
f 50/51/3 51/50/3 52/52/3
f 53/53/4 55/54/4 54/55/4
f 54/55/4 55/54/4 56/56/4
f 57/57/3 59/58/3 58/59/3
f 58/59/3 59/58/3 60/60/3
f 61/61/7 63/62/7 62/63/7
f 62/63/7 63/62/7 64/64/7
f 65/65/8 67/66/8 66/67/8
f 66/67/8 67/66/8 68/68/8
f 69/69/7 71/70/7 70/71/7
f 70/71/7 71/70/7 72/72/7
f 73/73/9 75/74/9 74/75/9
f 74/75/9 75/74/9 76/76/9
f 77/77/9 79/78/9 78/79/9
f 78/79/9 79/78/9 80/80/9
f 81/81/10 83/82/10 82/83/10
f 82/83/11 83/82/11 84/84/11
f 85/85/9 87/86/9 86/87/9
f 86/87/9 87/86/9 88/88/9
f 89/89/1 91/90/1 90/91/1
f 90/91/1 91/90/1 92/92/1
f 93/93/6 95/94/6 94/95/6
f 94/95/6 95/94/6 96/96/6
f 97/97/1 99/98/1 98/99/1
f 98/99/1 99/98/1 100/100/1
f 101/101/3 103/102/3 102/103/3
f 102/103/3 103/102/3 104/104/3
f 105/105/5 107/106/5 106/107/5
f 106/107/4 107/106/4 108/108/4
f 109/109/3 111/110/3 110/111/3
f 110/111/3 111/110/3 112/112/3
f 113/113/7 115/114/7 114/115/7
f 114/115/7 115/114/7 116/116/7
f 117/117/12 119/118/12 118/119/12
f 118/119/12 119/118/12 120/120/12
f 121/121/7 123/122/7 122/123/7
f 122/123/7 123/122/7 124/124/7
f 125/125/7 127/126/7 126/127/7
f 126/127/7 127/126/7 128/128/7
f 129/129/8 131/130/8 130/131/8
f 130/131/12 131/130/12 132/132/12
f 133/133/7 135/134/7 134/135/7
f 134/135/7 135/134/7 136/136/7
f 137/137/9 139/138/9 138/139/9
f 138/139/9 139/138/9 140/140/9
f 141/141/9 143/142/9 142/143/9
f 142/143/9 143/142/9 144/144/9
f 145/145/10 147/146/10 146/147/10
f 146/147/11 147/146/11 148/148/11
f 149/149/9 151/150/9 150/151/9
f 150/151/9 151/150/9 152/152/9
f 153/153/1 155/154/1 154/155/1
f 154/155/1 155/154/1 156/156/1
f 157/157/6 159/158/6 158/159/6
f 158/159/2 159/158/2 160/160/2
f 161/161/1 163/162/1 162/163/1
f 162/163/1 163/162/1 164/164/1
f 165/165/3 167/166/3 166/167/3
f 166/167/3 167/166/3 168/168/3
f 169/169/4 171/170/4 170/171/4
f 170/171/5 171/170/5 172/172/5
f 173/173/3 175/174/3 174/175/3
f 174/175/3 175/174/3 176/176/3
f 177/177/7 179/178/7 178/179/7
f 178/179/7 179/178/7 180/180/7
f 181/181/12 183/182/12 182/183/12
f 182/183/12 183/182/12 184/184/12
f 185/185/7 187/186/7 186/187/7
f 186/187/7 187/186/7 188/188/7
f 189/189/3 191/190/3 190/191/3
f 190/191/3 191/190/3 192/192/3
f 193/193/4 195/194/4 194/195/4
f 194/195/4 195/194/4 196/196/4
f 197/197/3 199/198/3 198/199/3
f 198/199/3 199/198/3 200/200/3
f 201/201/13 203/202/13 202/203/13
f 204/204/14 206/205/14 205/206/14
f 207/207/15 209/208/15 208/209/15
f 210/210/16 212/211/16 211/212/16
f 213/213/17 215/214/17 214/215/17
f 216/216/18 218/217/18 217/218/18
f 219/219/19 221/220/19 220/221/19
f 222/222/16 224/223/16 223/224/16
f 225/225/20 227/226/20 226/227/20
f 228/228/21 230/229/21 229/230/21
f 231/231/13 233/232/13 232/233/13
f 234/234/14 236/235/14 235/236/14
f 237/237/22 239/238/22 238/239/22
f 240/240/16 242/241/16 241/242/16
