# Blender v3.6.3 OBJ File: 'untitled.blend'
# www.blender.org
mtllib Mesh_0168.mtl
o Mesh_0168_Mesh.141
v -22.304649 12.699989 4.758736
v -22.304649 12.699988 0.257652
v -21.034649 12.699988 5.048195
v -22.304649 12.699988 -0.321266
v -21.034649 12.699989 -10.191807
v -22.304649 12.699989 -4.822342
v -22.304649 12.699988 -5.401260
v -21.034649 12.699989 -10.191807
v -19.764648 12.699989 -10.191807
v -21.034649 11.429989 -10.191807
v -19.764648 11.429989 -10.191807
v -19.764648 11.429988 5.048195
v -21.034649 11.429988 5.048195
v -19.764648 11.429989 -10.191807
v -21.034649 11.429989 -10.191807
v -21.034649 12.699989 -10.191807
v -21.034649 11.429989 -10.191807
v -21.034649 12.699988 5.048195
v -21.034649 11.429988 5.048195
v -22.304649 12.699989 -10.191807
v -21.034649 12.699989 -10.191807
v -22.304649 12.699989 -9.902348
v -22.304649 12.699988 -5.401260
v -21.034649 12.699988 5.048195
v -21.034649 11.429988 5.048195
v -19.764648 12.699988 5.048195
v -19.764648 11.429988 5.048195
v -22.304649 12.699989 4.758736
v -21.034649 12.699988 5.048195
v -22.304649 12.699988 5.048195
vt -0.941406 2.000000
vt -0.999023 1.000977
vt -0.056641 2.000000
vt 0.056641 2.000000
vt 1.998047 1.000977
vt 0.941406 2.000000
vt 1.055664 2.000000
vt 0.000000 -3.994141
vt 0.000000 -2.995117
vt -0.974609 -3.994141
vt -0.974609 -2.995117
vt -0.999023 1.000977
vt 1.998047 1.000977
vt -0.999023 2.000000
vt 1.998047 2.000000
vt 1.998047 1.000977
vt -0.999023 1.000977
vt 1.998047 2.000000
vt -0.999023 2.000000
vt 1.998047 2.000000
vt 1.940430 2.000000
vt 1.998047 1.000977
vt 1.055664 2.000000
vt 0.000000 -3.994141
vt -0.974609 -3.994141
vt 0.000000 -2.995117
vt -0.974609 -2.995117
vt -0.941406 2.000000
vt -0.999023 2.000000
vt -0.999023 1.000977
vn 0.0000 1.0000 -0.0000
vn 0.0000 0.0000 1.0000
vn 1.0000 0.0000 0.0000
vn 0.0000 0.0000 -1.0000
usemtl Tex_0059_1.dds
s off
f 1/1/1 3/2/1 2/3/1
f 2/3/1 3/2/1 4/4/1
f 3/2/1 5/5/1 4/4/1
f 4/4/1 5/5/1 6/6/1
f 5/5/1 7/7/1 6/6/1
f 8/8/2 10/9/2 9/10/2
f 9/10/2 10/9/2 11/11/2
f 12/12/1 14/13/1 13/14/1
f 13/14/1 14/13/1 15/15/1
f 16/16/3 18/17/3 17/18/3
f 17/18/3 18/17/3 19/19/3
f 20/20/1 22/21/1 21/22/1
f 21/22/1 22/21/1 23/23/1
f 24/24/4 26/25/4 25/26/4
f 25/26/4 26/25/4 27/27/4
f 28/28/1 30/29/1 29/30/1
