# Blender v3.6.3 OBJ File: 'untitled.blend'
# www.blender.org
mtllib Mesh_0220.mtl
o Mesh_0220_Mesh.051
v 56.434208 10.159986 22.578506
v 56.434841 10.068953 22.578117
v 59.300343 10.159986 22.578506
v 57.437511 9.679113 22.622452
v 56.434208 10.159986 22.578506
v 53.568325 10.159986 22.578506
v 56.434841 10.068953 22.578117
v 55.433445 9.679113 22.622452
vt 0.999939 -0.999451
vt 0.000000 -0.999451
vt 0.999939 -0.966980
vt 0.647766 -0.828064
vt 0.000000 -0.000061
vt 0.000000 -0.032593
vt 0.999939 -0.000061
vt 0.352112 -0.171509
vn -0.0003 0.0043 -1.0000
vn 0.0000 0.0043 -1.0000
vn 0.0034 -0.1042 -0.9945
vn -0.0034 -0.1043 -0.9945
usemtl Tex_0053_1.dds
s off
f 1/1/1 3/2/2 2/3/2
f 2/3/3 3/2/3 4/4/3
f 5/5/2 7/6/2 6/7/2
f 6/7/4 7/6/4 8/8/4
