# Blender v3.6.3 OBJ File: 'untitled.blend'
# www.blender.org
mtllib Mesh_0171.mtl
o Mesh_0171_Mesh.144
v -22.323191 38.933109 -14.740940
v -22.314047 37.977562 -13.708813
v -22.304649 40.004990 -14.583889
v -22.304649 41.547787 -13.814095
v -22.304649 43.667671 -13.987064
v -22.304649 44.049431 -13.532227
v -22.304649 46.425602 -12.700764
v -22.304649 46.425602 7.557167
v -22.304649 44.049431 8.388626
v -22.304649 43.667667 8.843468
v -22.304649 41.547787 8.670494
v -22.304649 40.004990 9.440292
v -22.314047 37.977562 8.565208
v -22.323191 38.933109 9.597343
v -22.304649 28.389313 -9.605259
v -22.304649 31.534849 -7.651798
v -22.304649 30.479988 -9.901707
v -22.304649 32.758114 -9.581253
v -22.304649 33.509701 -10.778336
v -22.304649 34.538403 -11.361366
v -22.304649 31.325298 -15.270245
v -22.304649 33.509701 -14.685261
v -22.304649 35.559990 -15.245331
v -22.284073 36.177719 -12.994209
v -22.309223 37.471848 -13.926357
v -22.309223 37.471848 8.782761
v -22.284073 36.177719 7.850609
v -22.304649 35.559990 10.101738
v -22.304649 33.509701 9.541656
v -22.304649 31.325298 10.126656
v -22.304649 31.534849 -7.651798
v -22.304649 28.389059 -5.698341
v -22.304649 30.587431 -5.073448
v -22.304649 27.179764 -4.525253
v -22.304649 30.305489 -2.571800
v -22.304649 33.509701 5.634743
v -22.304649 32.758114 4.437660
v -22.304649 30.479988 4.758102
v -22.304649 31.534849 2.508202
v -22.304649 28.389059 4.461662
v -22.304649 31.534849 2.508202
v -22.304649 30.587431 -0.070152
v -22.304649 28.389059 0.554741
v -22.304649 27.179764 -0.618340
v -22.304649 25.596331 -0.193573
v -22.304649 41.547787 -13.814095
v -22.314047 37.977562 -13.708813
v -22.304649 39.046139 -13.532227
v -22.304649 36.669971 -12.700760
v -22.304649 41.547787 8.670494
v -22.304649 39.046139 8.388626
v -22.314047 37.977562 8.565208
v -22.304649 36.669971 7.557167
v -22.309223 37.471848 -13.926357
v -22.321922 38.309032 -14.836647
v -22.304649 35.559990 -15.245331
v -22.321922 38.309032 9.693047
v -22.309223 37.471848 8.782761
v -22.304649 35.559990 10.101738
v -22.304649 28.389313 -9.605259
v -22.304649 30.479988 -9.901707
v -22.304649 27.227009 -9.904629
v -22.304649 27.179764 -4.525253
v -22.304649 28.389059 -5.698341
v -22.304649 25.596331 -4.950035
v -22.304649 30.479988 4.758102
v -22.304649 28.389059 4.461662
v -22.304649 27.227009 4.761024
v -22.304649 33.509701 5.634743
v -22.304649 34.538403 6.217766
v -22.304649 32.758114 4.437660
v -22.304649 27.179764 -0.618340
v -22.304649 30.587431 -0.070152
v -22.304649 30.305489 -2.571800
vt 1.113281 2.212891
vt 1.074219 2.384766
vt 1.300781 2.134766
vt 1.152344 2.572266
vt 0.997070 2.861328
vt 1.042969 2.923828
vt 0.997070 2.994141
vt 0.997070 2.994141
vt 0.997070 2.861328
vt 1.042969 2.923828
vt 1.152344 2.572266
vt 1.074219 2.384766
vt 1.300781 2.134766
vt 1.113281 2.212891
vt 0.598633 2.236328
vt 0.387695 2.439453
vt 0.997070 2.791016
vt 0.528320 2.830078
vt 0.106445 2.853516
vt -0.001953 2.994141
vt 2.518555 1.995117
vt 2.331055 2.423828
vt 2.635742 2.259766
vt 2.995117 2.783203
vt 2.549805 2.830078
vt 2.549805 2.830078
vt 2.331055 2.423828
vt 2.995117 2.783203
vt 2.635742 2.259766
vt 2.518555 1.995117
vt -2.000000 -3.000000
vt -1.494141 -3.161133
vt -1.616211 -3.528320
vt -1.385742 -3.732422
vt -1.000977 -3.208984
vt 0.106445 2.853516
vt 0.387695 2.439453
vt 0.528320 2.830078
vt 0.997070 2.791016
vt 0.598633 2.236328
vt -2.000000 -3.000000
vt -1.616211 -3.528320
vt -1.494141 -3.161133
vt -1.385742 -3.732422
vt -1.468750 -3.999023
vt 1.152344 2.572266
vt 1.261719 2.330078
vt 1.300781 2.134766
vt 1.535156 1.995117
vt 1.152344 2.572266
vt 1.300781 2.134766
vt 1.261719 2.330078
vt 1.535156 1.995117
vt 2.549805 2.830078
vt 2.331055 2.423828
vt 1.996094 2.994141
vt 1.996094 2.994141
vt 2.331055 2.423828
vt 2.549805 2.830078
vt 0.598633 2.236328
vt 0.543945 1.995117
vt 0.387695 2.439453
vt -1.385742 -3.732422
vt -1.468750 -3.999023
vt -1.616211 -3.528320
vt 0.387695 2.439453
vt 0.543945 1.995117
vt 0.598633 2.236328
vt 0.106445 2.853516
vt 0.528320 2.830078
vt -0.001953 2.994141
vt -1.385742 -3.732422
vt -1.000977 -3.208984
vt -1.494141 -3.161133
vn 0.9997 -0.0141 -0.0219
vn 0.9995 -0.0113 -0.0307
vn 1.0000 -0.0025 0.0050
vn 1.0000 -0.0023 0.0096
vn 0.9999 -0.0157 0.0062
vn 1.0000 -0.0000 0.0000
vn 1.0000 0.0001 0.0009
vn 1.0000 -0.0017 0.0036
vn 1.0000 -0.0036 0.0023
vn 1.0000 -0.0024 -0.0065
vn 1.0000 -0.0004 0.0002
vn 0.9998 -0.0020 -0.0203
vn 0.9989 -0.0102 0.0453
vn 0.9997 -0.0141 0.0219
vn 0.9992 -0.0243 0.0313
vn 0.9999 0.0097 0.0064
vn 1.0000 -0.0023 -0.0085
vn 1.0000 -0.0068 -0.0014
vn 0.9998 0.0149 -0.0138
vn 0.9999 0.0107 -0.0121
vn 0.9999 0.0137 -0.0079
vn 0.9999 0.0107 0.0121
vn 0.9997 0.0171 0.0196
vn 0.9999 0.0137 0.0080
vn 1.0000 -0.0068 0.0014
vn 0.9999 -0.0042 0.0118
vn 0.9999 0.0012 0.0141
vn 1.0000 0.0037 -0.0079
vn 1.0000 0.0005 0.0020
vn 0.9995 -0.0036 -0.0316
vn 0.9996 -0.0033 -0.0295
vn 0.9990 -0.0040 -0.0452
vn 0.9998 -0.0066 -0.0179
vn 1.0000 -0.0018 -0.0052
vn 0.9998 -0.0060 -0.0171
vn 0.9995 -0.0036 0.0316
vn 0.9990 -0.0040 0.0452
vn 0.9996 -0.0033 0.0295
vn 1.0000 -0.0018 0.0052
vn 0.9998 -0.0067 0.0180
vn 0.9998 -0.0060 0.0171
vn 0.9999 0.0074 -0.0072
vn 0.9999 0.0074 0.0072
usemtl Tex_0060_1.dds.001
s off
f 1/1/1 3/2/2 2/3/1
f 2/3/3 3/2/3 4/4/4
f 3/2/5 5/5/6 4/4/7
f 4/4/6 5/5/6 6/6/6
f 5/5/6 7/7/6 6/6/6
f 8/8/6 10/9/6 9/10/6
f 9/10/6 10/9/6 11/11/8
f 10/9/6 12/12/9 11/11/6
f 11/11/10 12/12/11 13/13/12
f 12/12/13 14/14/14 13/13/15
f 15/15/6 17/16/6 16/17/6
f 16/17/6 17/16/6 18/18/6
f 17/16/6 19/19/6 18/18/6
f 18/18/6 19/19/6 20/20/6
f 21/21/6 23/22/16 22/23/6
f 22/23/17 23/22/17 24/24/18
f 23/22/19 25/25/20 24/24/21
f 26/26/22 28/27/23 27/28/24
f 27/28/25 28/27/26 29/29/27
f 28/27/28 30/30/6 29/29/29
f 31/31/6 33/32/6 32/33/6
f 32/33/6 33/32/6 34/34/6
f 33/32/6 35/35/6 34/34/6
f 36/36/6 38/37/6 37/38/6
f 37/38/6 38/37/6 39/39/6
f 38/37/6 40/40/6 39/39/6
f 41/41/6 43/42/6 42/43/6
f 42/43/6 43/42/6 44/44/6
f 43/42/6 45/45/6 44/44/6
f 46/46/30 48/47/31 47/48/32
f 47/48/33 48/47/34 49/49/35
f 50/50/36 52/51/37 51/52/38
f 51/52/39 52/51/40 53/53/41
f 54/54/42 56/55/42 55/56/42
f 57/57/43 59/58/43 58/59/43
f 60/60/6 62/61/6 61/62/6
f 63/63/6 65/64/6 64/65/6
f 66/66/6 68/67/6 67/68/6
f 69/69/6 71/70/6 70/71/6
f 72/72/6 74/73/6 73/74/6
