# Blender v3.6.3 OBJ File: 'untitled.blend'
# www.blender.org
mtllib Mesh_0108.mtl
o Mesh_0108_Mesh.121
v 47.545414 2.539990 20.288193
v 47.545414 2.539990 21.558189
v 41.830418 2.539989 19.653183
v 47.545414 2.539990 22.828194
v 41.830418 2.539989 20.923187
v 40.560413 2.539989 22.828186
v 40.560413 2.539989 20.923187
v 47.545399 2.539296 -24.796806
v 41.830418 2.539990 -24.796814
v 47.545414 2.539990 -27.971809
v 41.830418 2.539990 -26.066814
v 40.560413 2.539990 -26.066814
v 47.545414 2.539990 -27.971809
v 40.560413 2.539990 -26.066814
v 40.560413 2.539990 -27.971813
v 47.545414 2.539990 20.288193
v 41.830418 2.539989 19.653183
v 47.545399 2.539295 19.653191
vt 0.999939 -0.396057
vt 0.181763 -0.495178
vt 0.999939 -0.197815
vt 0.999939 0.000427
vt 0.181763 -0.296936
vt 0.000000 0.000427
vt 0.000000 -0.296936
vt 0.999939 -0.495178
vt 0.999939 0.000427
vt 0.181763 -0.495178
vt 0.181763 -0.296936
vt 0.000000 -0.296936
vt 0.999939 0.000427
vt 0.000000 0.000427
vt 0.000000 -0.296936
vt 0.999939 -0.396057
vt 0.999939 -0.495178
vt 0.181763 -0.495178
vn -0.0000 1.0000 0.0000
vn 0.0001 1.0000 0.0002
vn 0.0001 1.0000 -0.0011
usemtl Tex_0012_1.dds
s off
f 1/1/1 3/2/1 2/3/1
f 2/3/1 3/2/1 4/4/1
f 3/2/1 5/5/1 4/4/1
f 4/4/1 5/5/1 6/6/1
f 5/5/1 7/7/1 6/6/1
f 8/8/2 10/9/2 9/10/2
f 9/10/1 10/9/1 11/11/1
f 10/9/1 12/12/1 11/11/1
f 13/13/1 15/14/1 14/15/1
f 16/16/3 18/17/3 17/18/3
