# Blender v3.6.3 OBJ File: 'untitled.blend'
# www.blender.org
mtllib Mesh_0172.mtl
o Mesh_0172_Mesh.030
v -22.304649 46.425602 -12.700764
v -22.304649 48.557171 -11.361366
v -22.304649 50.374538 -10.899315
v -22.304649 49.448456 -10.453369
v -22.304649 52.230511 -9.651188
v -22.304649 52.230515 4.507584
v -22.304649 49.448456 5.309769
v -22.304649 50.374538 5.755714
v -22.304649 48.557167 6.217766
v -22.304649 46.425602 7.557167
vt 0.535156 -1.004883
vt 0.823242 -0.454102
vt 0.766602 -0.688477
vt 0.897461 -0.565430
vt 0.996094 -0.241211
vt 0.996094 -0.241211
vt 0.823242 -0.454102
vt 0.897461 -0.565430
vt 0.766602 -0.688477
vt 0.535156 -1.004883
vn 1.0000 -0.0000 0.0000
usemtl Tex_0060_1.dds
s off
f 1/1/1 3/2/1 2/3/1
f 2/3/1 3/2/1 4/4/1
f 3/2/1 5/5/1 4/4/1
f 6/6/1 8/7/1 7/8/1
f 7/8/1 8/7/1 9/9/1
f 8/7/1 10/10/1 9/9/1
