# Blender v3.6.3 OBJ File: 'untitled.blend'
# www.blender.org
mtllib Mesh_0253.mtl
o Mesh_0253_Mesh.065
v 68.103539 22.859991 -26.949474
v 68.202751 9.842493 -27.048698
v 67.428856 22.859991 -26.949474
v 67.428856 9.842493 -27.048698
v 66.912918 22.859991 -27.544788
v 66.912918 9.842493 -27.544788
v 66.912918 22.859991 -27.971806
v 66.912918 9.842493 -27.971806
v 43.298859 27.932297 -25.749306
v 43.298851 33.012371 -25.749306
v 44.171974 27.932299 -25.749306
v 44.171974 33.012371 -25.749306
v 44.668068 27.932299 -26.265244
v 44.568855 33.012367 -26.265236
v 44.668068 27.932297 -27.039143
v 44.568848 33.012371 -27.138363
v 42.802757 27.932297 -27.039154
v 42.703537 22.852299 -26.939934
v 42.028847 27.932297 -27.039154
v 42.028847 22.852299 -26.939938
v 41.512917 27.932295 -27.535252
v 41.512909 22.852297 -27.535252
v 41.512917 27.932295 -27.971806
v 41.512917 22.852295 -27.971806
v 17.898848 27.939993 -25.749306
v 17.898848 33.019989 -25.749306
v 18.771975 27.939993 -25.749306
v 18.771975 33.019989 -25.749306
v 19.268068 27.939993 -26.265255
v 19.168848 33.019989 -26.265232
v 19.268068 27.939991 -27.039139
v 19.168848 33.019989 -27.138355
v 17.402758 27.939991 -27.039139
v 17.303537 22.859993 -26.939930
v 16.628851 27.939991 -27.039139
v 16.628851 22.859993 -26.939930
v 16.112913 27.939991 -27.535255
v 16.112913 22.859991 -27.535255
v 16.112913 27.939991 -27.971806
v 16.112913 22.859991 -27.971806
v -6.231148 2.072303 -27.039146
v -6.131927 7.302494 -27.039139
v -5.358023 2.072303 -27.039146
v -5.358023 7.302494 -27.039139
v -4.842085 2.072303 -27.535255
v -4.842085 7.302494 -27.535255
v -4.842085 2.072303 -27.971806
v -4.842085 7.302494 -27.971806
v -6.131927 7.302494 -27.039139
v -6.032709 22.859993 -26.939930
v -5.358023 7.302494 -27.039139
v -5.358023 22.859993 -26.939930
v -4.842085 7.302494 -27.535255
v -4.842085 22.859991 -27.535255
v -4.842085 7.302494 -27.971806
v -4.842085 22.859991 -27.971806
v 67.984474 4.101017 -26.830414
v 67.309792 4.101017 -26.830414
v 67.428864 4.612304 -27.039146
v 66.714493 4.101017 -27.425724
v 66.912918 4.612304 -27.544788
v 66.714478 4.101017 -27.971806
v 66.912918 4.612304 -27.971806
v 66.912918 4.612304 -27.971806
v 66.912918 9.842493 -27.971806
v 66.912918 4.612304 -27.544788
v 66.912918 9.842493 -27.544788
v 67.428864 4.612304 -27.039146
v 67.428856 9.842493 -27.048698
v 68.202751 9.842493 -27.048698
v 43.298851 22.852299 -25.749306
v 44.171982 22.852297 -25.749306
v 44.171974 9.842493 -25.749306
v 44.767288 22.852299 -26.265247
v 44.668068 9.842493 -26.265247
v 44.767288 22.852299 -26.939926
v 44.668068 9.842493 -27.039146
v 43.298851 4.612303 -25.749306
v 44.171974 9.842493 -25.749306
v 44.171974 4.612303 -25.749306
v 44.668068 9.842493 -26.265247
v 44.568855 4.612303 -26.265251
v 44.668068 9.842493 -27.039146
v 44.568848 4.612304 -27.039146
v 43.179794 4.101016 -25.550877
v 43.298851 4.612303 -25.749306
v 44.291039 4.101016 -25.550877
v 44.171974 4.612303 -25.749306
v 44.886353 4.101016 -26.146175
v 44.568855 4.612303 -26.265251
v 44.568848 4.612304 -27.039146
v 44.668068 27.932297 -27.039143
v 44.767288 22.852299 -26.939926
v 44.668068 27.932299 -26.265244
v 44.767288 22.852299 -26.265247
v 44.171974 27.932299 -25.749306
v 44.171982 22.852297 -25.749306
v 43.298851 22.852299 -25.749306
v 42.901978 33.012371 -27.138371
v 42.802757 27.932297 -27.039154
v 42.028854 33.012367 -27.138359
v 42.028847 27.932297 -27.039154
v 41.512909 33.012371 -27.535248
v 41.512917 27.932295 -27.535252
v 41.512917 27.932295 -27.971806
v 42.802757 9.842493 -27.039154
v 42.028854 4.612304 -27.039146
v 42.028847 9.842493 -27.039154
v 41.512909 4.612304 -27.535248
v 41.512909 9.842493 -27.535248
v 41.512917 4.612304 -27.971806
v 41.512917 9.842493 -27.971806
v 42.703537 22.852299 -26.939934
v 42.028847 9.842493 -27.039154
v 42.028847 22.852299 -26.939938
v 41.512909 9.842493 -27.535248
v 41.512909 22.852297 -27.535252
v 41.512917 9.842493 -27.971806
v 41.512917 22.852295 -27.971806
v 41.314484 4.101017 -27.971806
v 41.512917 4.612304 -27.971806
v 41.314476 4.101017 -27.416183
v 41.512909 4.612304 -27.535248
v 41.909790 4.101017 -26.820869
v 42.028854 4.612304 -27.039146
v 42.901978 4.612304 -27.039146
v 17.898848 22.859993 -25.749306
v 18.771975 22.859993 -25.749306
v 18.771975 7.302493 -25.749306
v 19.367289 22.859993 -26.265255
v 19.268068 7.302493 -26.265255
v 19.367289 22.859993 -26.939930
v 19.268068 7.302494 -27.039139
v 17.898848 2.072303 -25.749306
v 18.771975 7.302493 -25.749306
v 18.771975 2.072303 -25.749306
v 19.268068 7.302493 -26.265255
v 19.168848 2.072303 -26.265255
v 19.268068 7.302494 -27.039139
v 19.168848 2.072303 -27.039146
v 17.779787 1.561017 -25.550880
v 17.898848 2.072303 -25.749306
v 18.891035 1.561017 -25.550880
v 18.771975 2.072303 -25.749306
v 19.486349 1.561017 -26.146179
v 19.168848 2.072303 -26.265255
v 19.168848 2.072303 -27.039146
v 19.268068 27.939991 -27.039139
v 19.367289 22.859993 -26.939930
v 19.268068 27.939993 -26.265255
v 19.367289 22.859993 -26.265255
v 18.771975 27.939993 -25.749306
v 18.771975 22.859993 -25.749306
v 17.898848 22.859993 -25.749306
v 17.501974 33.019989 -27.138378
v 17.402758 27.939991 -27.039139
v 16.628851 33.019989 -27.138355
v 16.628851 27.939991 -27.039139
v 16.112913 33.019989 -27.535255
v 16.112913 27.939991 -27.535255
v 16.112913 27.939991 -27.971806
v 17.402758 7.302494 -27.039139
v 16.628851 2.072303 -27.039146
v 16.628851 7.302494 -27.039139
v 16.112913 2.072303 -27.535255
v 16.112913 7.302494 -27.535255
v 16.112913 2.072303 -27.971806
v 16.112913 7.302494 -27.971806
v 17.303537 22.859993 -26.939930
v 16.628851 7.302494 -27.039139
v 16.628851 22.859993 -26.939930
v 16.112913 7.302494 -27.535255
v 16.112913 22.859991 -27.535255
v 16.112913 7.302494 -27.971806
v 16.112913 22.859991 -27.971806
v 15.914476 1.561017 -27.971806
v 16.112913 2.072303 -27.971806
v 15.914476 1.561017 -27.416180
v 16.112913 2.072303 -27.535255
v 16.509787 1.561017 -26.820881
v 16.628851 2.072303 -27.039146
v 17.501974 2.072303 -27.039146
v -6.628021 22.859993 -25.749306
v -7.501146 22.859993 -25.749306
v -7.501146 27.939993 -25.749306
v -8.096460 22.859993 -26.265255
v -7.997240 27.939993 -26.265255
v -8.096460 22.859993 -26.939930
v -7.997240 27.939991 -27.039139
v -6.628021 33.019989 -25.749306
v -7.501146 27.939993 -25.749306
v -7.501146 33.019989 -25.749306
v -7.997240 27.939993 -26.265255
v -7.898022 33.019989 -26.265232
v -7.997240 27.939991 -27.039139
v -7.898022 33.019989 -27.138355
v -6.032709 22.859993 -26.939930
v -5.358023 27.939991 -27.039139
v -5.358023 22.859993 -26.939930
v -4.842085 27.939991 -27.535255
v -4.842085 22.859991 -27.535255
v -4.842085 27.939991 -27.971806
v -4.842085 22.859991 -27.971806
v -6.231148 2.072303 -27.039146
v -5.358023 2.072303 -27.039146
v -5.238960 1.561017 -26.820881
v -4.842085 2.072303 -27.535255
v -4.643646 1.561017 -27.416180
v -4.842085 2.072303 -27.971806
v -4.643646 1.561017 -27.971806
v -4.842085 27.939991 -27.971806
v -4.842085 27.939991 -27.535255
v -4.842085 33.019989 -27.535255
v -5.358023 27.939991 -27.039139
v -5.358023 33.019989 -27.138355
v -6.131927 27.939991 -27.039139
v -6.231148 33.019989 -27.138378
v 68.063850 33.654991 -26.909786
v 67.389175 33.654991 -26.909786
v 67.998322 34.289989 -26.844269
v 66.714493 34.289989 -26.830414
v 67.547920 34.924992 -26.393848
v 66.277916 34.924992 -26.393848
v 68.202751 27.939991 -27.048698
v 67.428856 27.939991 -27.048698
v 67.428856 33.019989 -27.147911
v 66.912918 27.939991 -27.544788
v 66.912918 33.019989 -27.544788
v 66.912918 33.019989 -27.971806
v 68.103539 22.859991 -26.949474
v 67.428856 22.859991 -26.949474
v 67.428856 27.939991 -27.048698
v 66.912918 22.859991 -27.544788
v 66.912918 27.939991 -27.544788
v 66.912918 27.939991 -27.971806
v 69.135422 33.654991 -25.639786
v 68.659164 33.654991 -25.639786
v 69.135422 34.289989 -25.560413
v 67.984474 34.289989 -25.560413
v 69.135422 34.924992 -25.123852
v 67.547920 34.924992 -25.123852
v 43.298851 22.852299 -25.749306
v 43.298859 9.842493 -25.749306
v 42.703537 22.852299 -26.265251
v 42.802757 9.842493 -26.265247
v 42.703537 22.852299 -26.939934
v 42.802757 9.842493 -27.039154
v 43.298859 9.842493 -25.749306
v 43.298851 4.612303 -25.749306
v 42.802757 9.842493 -26.265247
v 42.901985 4.612303 -26.265251
v 42.802757 9.842493 -27.039154
v 42.901978 4.612304 -27.039146
v 44.806984 33.647369 -26.900234
v 44.806976 33.647369 -26.225563
v 44.872498 34.282372 -26.834709
v 44.886353 34.282372 -25.550877
v 45.322914 34.917370 -26.384304
v 45.322922 34.917370 -25.114304
v 42.663857 33.647369 -26.900249
v 41.989159 33.647369 -26.900246
v 42.596947 34.282372 -26.833332
v 41.314476 34.282372 -26.820869
v 42.147911 34.917370 -26.384304
v 40.877922 34.917370 -26.384304
v 44.568848 4.612304 -27.039146
v 44.668068 9.842493 -27.039146
v 45.441986 4.612304 -27.039146
v 45.441978 9.842493 -27.039146
v 45.957909 4.612304 -27.535240
v 45.957909 9.842493 -27.535233
v 44.668068 9.842493 -27.039146
v 44.767288 22.852299 -26.939926
v 45.441978 9.842493 -27.039146
v 45.441978 22.852299 -26.939926
v 45.957909 9.842493 -27.535233
v 45.957909 22.852297 -27.535233
v 17.898848 22.859993 -25.749306
v 17.898848 7.302493 -25.749306
v 17.303537 22.859993 -26.265255
v 17.402758 7.302493 -26.265255
v 17.303537 22.859993 -26.939930
v 17.402758 7.302494 -27.039139
v 17.898848 7.302493 -25.749306
v 17.898848 2.072303 -25.749306
v 17.402758 7.302493 -26.265255
v 17.501974 2.072303 -26.265255
v 17.402758 7.302494 -27.039139
v 17.501974 2.072303 -27.039146
v 19.406973 33.654991 -26.900230
v 19.406973 33.654991 -26.225555
v 19.472498 34.289989 -26.834721
v 19.486349 34.289989 -25.550880
v 19.922911 34.924992 -26.384304
v 19.922911 34.924992 -25.114304
v 17.263849 33.654991 -26.900253
v 16.589163 33.654991 -26.900253
v 17.196936 34.289989 -26.833324
v 15.914476 34.289989 -26.820881
v 16.747911 34.924992 -26.384304
v 15.477911 34.924992 -26.384304
v 19.168848 2.072303 -27.039146
v 19.268068 7.302494 -27.039139
v 20.041975 2.072303 -27.039146
v 20.041975 7.302494 -27.039139
v 20.557913 2.072303 -27.535229
v 20.557913 7.302494 -27.535229
v 19.268068 7.302494 -27.039139
v 19.367289 22.859993 -26.939930
v 20.041975 7.302494 -27.039139
v 20.041975 22.859993 -26.939930
v 20.557913 7.302494 -27.535229
v 20.557913 22.859991 -27.535229
v -6.628021 27.939993 -25.749306
v -6.628021 33.019989 -25.749306
v -6.131927 27.939993 -26.265255
v -6.231148 33.019989 -26.265255
v -6.131927 27.939991 -27.039139
v -6.231148 33.019989 -27.138378
v -6.628021 22.859993 -25.749306
v -6.628021 27.939993 -25.749306
v -6.032709 22.859993 -26.265255
v -6.131927 27.939993 -26.265255
v -6.032709 22.859993 -26.939930
v -6.131927 27.939991 -27.039139
v -6.588335 33.654991 -25.630253
v -7.540834 33.654991 -25.630253
v -5.913647 34.289989 -25.550880
v -8.215523 34.289989 -25.550880
v -5.477085 34.924992 -25.114304
v -8.652084 34.924992 -25.114304
v -5.993023 33.654991 -26.900253
v -5.993017 33.654991 -26.225555
v -5.926109 34.289989 -26.833324
v -5.913647 34.289989 -25.550880
v -5.477085 34.924992 -26.384304
v -5.477085 34.924992 -25.114304
v -7.997240 27.939991 -27.039139
v -8.096460 22.859993 -26.939930
v -8.771147 27.939991 -27.039139
v -8.771147 22.859993 -26.939930
v -9.287085 27.939991 -27.535229
v -9.287085 22.859991 -27.535229
v -7.898022 33.019989 -27.138355
v -7.997240 27.939991 -27.039139
v -8.771147 33.019989 -27.138355
v -8.771147 27.939991 -27.039139
v -9.287085 33.019989 -27.535229
v -9.287085 27.939991 -27.535229
v -8.136147 33.654991 -26.900230
v -8.810835 33.654991 -26.900230
v -8.201670 34.289989 -26.834721
v -9.485521 34.289989 -26.820854
v -8.652084 34.924992 -26.384304
v -9.922085 34.924992 -26.384304
v 68.063850 33.654991 -26.235100
v 67.998322 34.289989 -26.844269
v 67.984474 34.289989 -25.560413
v 67.547920 34.924992 -26.393848
v 67.547920 34.924992 -25.123852
v 68.202751 9.842493 -27.048698
v 68.103539 22.859991 -26.949474
v 68.202751 9.842493 -26.274788
v 68.103539 22.859993 -26.274788
v 68.698837 22.859993 -25.758850
v 68.202751 9.842493 -27.048698
v 68.202751 9.842493 -26.274788
v 68.301971 4.612303 -26.274788
v 68.698837 9.842493 -25.758850
v 68.698845 4.612303 -25.758850
v 68.579788 4.101016 -25.560413
v 67.984474 4.101016 -26.155724
v 68.301971 4.612303 -26.274788
v 67.984474 4.101017 -26.830414
v 68.301971 4.612304 -27.039146
v 68.698837 22.859993 -25.758850
v 68.103539 22.859993 -26.274788
v 68.202751 27.939993 -26.274788
v 68.103539 22.859991 -26.949474
v 68.202751 27.939991 -27.048698
v 68.698837 27.939993 -25.758850
v 68.202751 27.939993 -26.274788
v 68.301971 33.019989 -26.274788
v 68.202751 27.939991 -27.048698
v 68.301971 33.019989 -27.147911
v 66.277916 34.924992 -27.971806
v 66.714493 34.289989 -26.830414
v 66.714478 34.289989 -27.971806
v 66.793861 33.654991 -27.505100
v 66.793854 33.654991 -27.971806
v 43.298851 33.012371 -25.749306
v 42.802757 27.932299 -26.265247
v 42.901985 33.012367 -26.265251
v 42.802757 27.932297 -27.039154
v 42.901978 33.012371 -27.138371
v 43.298859 27.932297 -25.749306
v 42.703537 22.852299 -26.265251
v 42.802757 27.932299 -26.265247
v 42.703537 22.852299 -26.939934
v 42.802757 27.932297 -27.039154
v 44.211662 33.647369 -25.630249
v 42.584473 34.282372 -25.550873
v 44.886353 34.282372 -25.550877
v 42.147919 34.917370 -25.114304
v 45.322922 34.917370 -25.114304
v 42.663849 33.647369 -26.225559
v 42.596947 34.282372 -26.833332
v 42.584473 34.282372 -25.550873
v 42.147911 34.917370 -26.384304
v 42.147919 34.917370 -25.114304
v 42.901978 4.612304 -27.039146
v 42.901985 4.612303 -26.265251
v 42.584473 4.101016 -26.146183
v 43.298851 4.612303 -25.749306
v 43.179794 4.101016 -25.550877
v 44.568848 4.612304 -27.039146
v 45.441986 4.612304 -27.039146
v 45.561035 4.101017 -26.820862
v 45.957909 4.612304 -27.535240
v 46.156349 4.101017 -27.416176
v 44.767288 22.852299 -26.939926
v 45.441978 27.932297 -27.039143
v 45.441978 22.852299 -26.939926
v 45.957909 27.932297 -27.535233
v 45.957909 22.852297 -27.535233
v 44.668068 27.932297 -27.039143
v 45.441986 33.012367 -27.138359
v 45.441978 27.932297 -27.039143
v 45.957909 33.012371 -27.535236
v 45.957909 27.932297 -27.535233
v 45.481659 33.647369 -26.900238
v 44.872498 34.282372 -26.834709
v 46.156349 34.282372 -26.820862
v 45.322914 34.917370 -26.384304
v 46.592911 34.917370 -26.384304
v 40.877922 34.917366 -27.971806
v 40.877922 34.917370 -26.384304
v 41.314484 34.282372 -27.971806
v 41.314476 34.282372 -26.820869
v 41.393852 33.647369 -27.495560
v 46.076973 33.647369 -27.495552
v 46.156349 34.282372 -26.820862
v 46.156357 34.282372 -27.971806
v 46.592911 34.917370 -26.384304
v 46.592918 34.917366 -27.971806
v 17.898848 33.019989 -25.749306
v 17.402758 27.939993 -26.265255
v 17.501974 33.019989 -26.265255
v 17.402758 27.939991 -27.039139
v 17.501974 33.019989 -27.138378
v 17.898848 27.939993 -25.749306
v 17.303537 22.859993 -26.265255
v 17.402758 27.939993 -26.265255
v 17.303537 22.859993 -26.939930
v 17.402758 27.939991 -27.039139
v 18.811663 33.654991 -25.630253
v 17.184473 34.289989 -25.550880
v 19.486349 34.289989 -25.550880
v 16.747911 34.924992 -25.114304
v 19.922911 34.924992 -25.114304
v 17.263845 33.654991 -26.225555
v 17.196936 34.289989 -26.833324
v 17.184473 34.289989 -25.550880
v 16.747911 34.924992 -26.384304
v 16.747911 34.924992 -25.114304
v 17.501974 2.072303 -27.039146
v 17.501974 2.072303 -26.265255
v 17.184473 1.561017 -26.146179
v 17.898848 2.072303 -25.749306
v 17.779787 1.561017 -25.550880
v 19.168848 2.072303 -27.039146
v 20.041975 2.072303 -27.039146
v 20.161036 1.561017 -26.820854
v 20.557913 2.072303 -27.535229
v 20.756350 1.561017 -27.416180
v 19.367289 22.859993 -26.939930
v 20.041975 27.939991 -27.039139
v 20.041975 22.859993 -26.939930
v 20.557913 27.939991 -27.535229
v 20.557913 22.859991 -27.535229
v 19.268068 27.939991 -27.039139
v 20.041975 33.019989 -27.138355
v 20.041975 27.939991 -27.039139
v 20.557913 33.019989 -27.535229
v 20.557913 27.939991 -27.535229
v 20.081663 33.654991 -26.900230
v 19.472498 34.289989 -26.834721
v 20.756350 34.289989 -26.820854
v 19.922911 34.924992 -26.384304
v 21.192911 34.924992 -26.384304
v 15.477911 34.924992 -27.971806
v 15.477911 34.924992 -26.384304
v 15.914476 34.289989 -27.971806
v 15.914476 34.289989 -26.820881
v 15.993845 33.654991 -27.495556
v 20.676973 33.654991 -27.495556
v 20.756350 34.289989 -26.820854
v 20.756350 34.289989 -27.971806
v 21.192911 34.924992 -26.384304
v 21.192911 34.924992 -27.971806
v -6.628021 7.302493 -25.749306
v -6.032709 22.859993 -26.265255
v -6.131927 7.302493 -26.265255
v -6.032709 22.859993 -26.939930
v -6.131927 7.302494 -27.039139
v -6.628021 2.072303 -25.749306
v -6.131927 7.302493 -26.265255
v -6.231148 2.072303 -26.265255
v -6.131927 7.302494 -27.039139
v -6.231148 2.072303 -27.039146
v -6.508959 1.561017 -25.550880
v -6.628021 2.072303 -25.749306
v -5.913647 1.561017 -26.146179
v -6.231148 2.072303 -26.265255
v -6.231148 2.072303 -27.039146
v -8.136147 33.654991 -26.225555
v -8.201670 34.289989 -26.834721
v -8.215523 34.289989 -25.550880
v -8.652084 34.924992 -26.384304
v -8.652084 34.924992 -25.114304
v -5.318335 33.654991 -26.900253
v -5.926109 34.289989 -26.833324
v -4.643646 34.289989 -26.820881
v -5.477085 34.924992 -26.384304
v -4.207085 34.924992 -26.384304
v -4.723019 33.654991 -27.495556
v -4.643646 34.289989 -26.820881
v -4.643646 34.289989 -27.971806
v -4.207085 34.924992 -26.384304
v -4.207085 34.924992 -27.971806
v -9.922085 34.924992 -27.971806
v -9.922085 34.924992 -26.384304
v -9.485521 34.289989 -27.971806
v -9.485521 34.289989 -26.820854
v -9.406147 33.654991 -27.495556
v 68.579788 4.101016 -25.560413
v 68.698845 4.612303 -25.758850
v 69.135422 4.101016 -25.560413
v 69.135422 4.612303 -25.758850
v 69.135422 4.612303 -25.758850
v 68.698845 4.612303 -25.758850
v 69.135422 9.842493 -25.758850
v 68.698837 9.842493 -25.758850
v 69.135422 9.842493 -25.758850
v 68.698837 9.842493 -25.758850
v 69.135422 22.859993 -25.758850
v 68.698837 22.859993 -25.758850
v 69.135422 22.859993 -25.758850
v 68.698837 22.859993 -25.758850
v 69.135422 27.939993 -25.758850
v 68.698837 27.939993 -25.758850
v 69.135422 27.939993 -25.758850
v 68.698837 27.939993 -25.758850
v 69.135422 33.019989 -25.758850
v 68.698845 33.019989 -25.758850
v 46.156357 4.101017 -27.971806
v 46.156349 4.101017 -27.416176
v 45.957916 4.612304 -27.971806
v 45.957909 4.612304 -27.535240
v 45.957916 9.842493 -27.971806
v 45.957916 4.612304 -27.971806
v 45.957909 9.842493 -27.535233
v 45.957909 4.612304 -27.535240
v 45.957916 22.852295 -27.971806
v 45.957916 9.842493 -27.971806
v 45.957909 22.852297 -27.535233
v 45.957909 9.842493 -27.535233
v 45.957916 22.852295 -27.971806
v 45.957909 22.852297 -27.535233
v 45.957916 27.932295 -27.971806
v 45.957909 27.932297 -27.535233
v 45.957916 27.932295 -27.971806
v 45.957909 27.932297 -27.535233
v 45.957916 33.012367 -27.971806
v 45.957909 33.012371 -27.535236
v 20.756350 1.561017 -27.971806
v 20.756350 1.561017 -27.416180
v 20.557913 2.072303 -27.971806
v 20.557913 2.072303 -27.535229
v 20.557913 7.302494 -27.971806
v 20.557913 2.072303 -27.971806
v 20.557913 7.302494 -27.535229
v 20.557913 2.072303 -27.535229
v 20.557913 22.859991 -27.971806
v 20.557913 7.302494 -27.971806
v 20.557913 22.859991 -27.535229
v 20.557913 7.302494 -27.535229
v 20.557913 22.859991 -27.971806
v 20.557913 22.859991 -27.535229
v 20.557913 27.939991 -27.971806
v 20.557913 27.939991 -27.535229
v 20.557913 27.939991 -27.971806
v 20.557913 27.939991 -27.535229
v 20.557913 33.019989 -27.971806
v 20.557913 33.019989 -27.535229
v -6.628021 7.302493 -25.749306
v -7.501146 7.302493 -25.749306
v -6.628021 22.859993 -25.749306
v -7.501146 22.859993 -25.749306
v -7.997240 7.302493 -26.265255
v -8.096460 22.859993 -26.265255
v -7.501146 7.302493 -25.749306
v -7.501146 22.859993 -25.749306
v -7.501146 2.072303 -25.749306
v -7.501146 7.302493 -25.749306
v -6.628021 2.072303 -25.749306
v -6.628021 7.302493 -25.749306
v -6.508959 1.561017 -25.550880
v -7.620209 1.561017 -25.550880
v -6.628021 2.072303 -25.749306
v -7.501146 2.072303 -25.749306
v -7.997240 7.302494 -27.039139
v -8.096460 22.859993 -26.939930
v -7.997240 7.302493 -26.265255
v -8.096460 22.859993 -26.265255
v -7.997240 7.302494 -27.039139
v -8.771147 7.302494 -27.039139
v -8.096460 22.859993 -26.939930
v -8.771147 22.859993 -26.939930
v -8.771147 7.302494 -27.039139
v -9.287085 7.302494 -27.535229
v -8.771147 22.859993 -26.939930
v -9.287085 22.859991 -27.535229
v -9.287085 22.859991 -27.971806
v -9.287085 22.859991 -27.535229
v -9.287085 7.302494 -27.971806
v -9.287085 7.302494 -27.535229
v -9.287085 22.859991 -27.971806
v -9.287085 27.939991 -27.971806
v -9.287085 22.859991 -27.535229
v -9.287085 27.939991 -27.535229
v -9.287085 27.939991 -27.971806
v -9.287085 33.019989 -27.971806
v -9.287085 27.939991 -27.535229
v -9.287085 33.019989 -27.535229
v 68.063850 33.654991 -26.235100
v 68.063850 33.654991 -26.909786
v 67.998322 34.289989 -26.844269
v 68.301971 4.612303 -26.274788
v 68.301971 4.612304 -27.039146
v 68.202751 9.842493 -27.048698
v 67.984474 4.101017 -26.830414
v 67.428864 4.612304 -27.039146
v 68.301971 4.612304 -27.039146
v 68.698845 4.612303 -25.758850
v 68.579788 4.101016 -25.560413
v 68.301971 4.612303 -26.274788
v 68.698837 22.859993 -25.758850
v 68.698837 9.842493 -25.758850
v 68.202751 9.842493 -26.274788
v 68.202751 27.939993 -26.274788
v 68.698837 27.939993 -25.758850
v 68.698837 22.859993 -25.758850
v 68.301971 33.019989 -26.274788
v 68.698845 33.019989 -25.758850
v 68.698837 27.939993 -25.758850
v 67.428856 33.019989 -27.147911
v 68.301971 33.019989 -27.147911
v 68.202751 27.939991 -27.048698
v 67.428856 27.939991 -27.048698
v 68.202751 27.939991 -27.048698
v 68.103539 22.859991 -26.949474
v 67.428864 4.612304 -27.039146
v 68.202751 9.842493 -27.048698
v 68.301971 4.612304 -27.039146
v 67.984474 34.289989 -25.560413
v 68.659164 33.654991 -25.639786
v 68.063850 33.654991 -26.235100
v 66.793861 33.654991 -27.505100
v 66.714493 34.289989 -26.830414
v 67.389175 33.654991 -26.909786
v 66.714493 34.289989 -26.830414
v 66.277916 34.924992 -27.971806
v 66.277916 34.924992 -26.393848
v 66.912918 33.019989 -27.971806
v 66.912918 27.939991 -27.544788
v 66.912918 27.939991 -27.971806
v 66.912918 27.939991 -27.971806
v 66.912918 22.859991 -27.544788
v 66.912918 22.859991 -27.971806
v 43.298851 22.852299 -25.749306
v 43.298859 27.932297 -25.749306
v 44.171974 27.932299 -25.749306
v 42.802757 27.932299 -26.265247
v 43.298851 33.012371 -25.749306
v 43.298859 27.932297 -25.749306
v 42.703537 22.852299 -26.265251
v 43.298859 27.932297 -25.749306
v 43.298851 22.852299 -25.749306
v 43.298851 22.852299 -25.749306
v 44.171974 9.842493 -25.749306
v 43.298859 9.842493 -25.749306
v 42.584473 34.282372 -25.550873
v 43.259171 33.647369 -25.630245
v 42.663849 33.647369 -26.225559
v 43.298851 4.612303 -25.749306
v 43.298859 9.842493 -25.749306
v 44.171974 9.842493 -25.749306
v 44.211662 33.647369 -25.630249
v 44.886353 34.282372 -25.550877
v 44.806976 33.647369 -26.225563
v 44.211662 33.647369 -25.630249
v 43.259171 33.647369 -25.630245
v 42.584473 34.282372 -25.550873
v 42.663849 33.647369 -26.225559
v 42.663857 33.647369 -26.900249
v 42.596947 34.282372 -26.833332
v 42.584473 4.101016 -26.146183
v 42.584480 4.101017 -26.820877
v 42.901978 4.612304 -27.039146
v 44.886353 4.101016 -26.146175
v 44.568848 4.612304 -27.039146
v 44.886360 4.101017 -26.820858
v 42.901978 4.612304 -27.039146
v 42.028854 4.612304 -27.039146
v 42.802757 9.842493 -27.039154
v 42.703537 22.852299 -26.939934
v 42.802757 9.842493 -27.039154
v 42.028847 9.842493 -27.039154
v 41.909790 4.101017 -26.820869
v 42.901978 4.612304 -27.039146
v 42.584480 4.101017 -26.820877
v 45.561035 4.101017 -26.820862
v 44.886360 4.101017 -26.820858
v 44.568848 4.612304 -27.039146
v 44.767288 22.852299 -26.939926
v 44.668068 27.932297 -27.039143
v 45.441978 27.932297 -27.039143
v 44.568848 33.012371 -27.138363
v 45.441986 33.012367 -27.138359
v 44.668068 27.932297 -27.039143
v 45.481659 33.647369 -26.900238
v 44.806984 33.647369 -26.900234
v 44.872498 34.282372 -26.834709
v 41.314476 34.282372 -26.820869
v 41.989159 33.647369 -26.900246
v 41.393852 33.647369 -27.495560
v 46.156349 34.282372 -26.820862
v 46.076973 33.647369 -27.495552
v 45.481659 33.647369 -26.900238
v 41.393852 33.647369 -27.495560
v 41.393860 33.647369 -27.971806
v 41.314484 34.282372 -27.971806
v 41.512909 33.012371 -27.535248
v 41.512917 27.932295 -27.971806
v 41.512917 33.012367 -27.971806
v 46.076973 33.647369 -27.495552
v 46.156357 34.282372 -27.971806
v 46.076981 33.647369 -27.971806
v 17.898848 22.859993 -25.749306
v 17.898848 27.939993 -25.749306
v 18.771975 27.939993 -25.749306
v 17.402758 27.939993 -26.265255
v 17.898848 33.019989 -25.749306
v 17.898848 27.939993 -25.749306
v 17.303537 22.859993 -26.265255
v 17.898848 27.939993 -25.749306
v 17.898848 22.859993 -25.749306
v 17.898848 22.859993 -25.749306
v 18.771975 7.302493 -25.749306
v 17.898848 7.302493 -25.749306
v 17.184473 34.289989 -25.550880
v 17.859163 33.654991 -25.630253
v 17.263845 33.654991 -26.225555
v 17.898848 2.072303 -25.749306
v 17.898848 7.302493 -25.749306
v 18.771975 7.302493 -25.749306
v 18.811663 33.654991 -25.630253
v 19.486349 34.289989 -25.550880
v 19.406973 33.654991 -26.225555
v 18.811663 33.654991 -25.630253
v 17.859163 33.654991 -25.630253
v 17.184473 34.289989 -25.550880
v 17.263845 33.654991 -26.225555
v 17.263849 33.654991 -26.900253
v 17.196936 34.289989 -26.833324
v 17.184473 1.561017 -26.146179
v 17.184473 1.561017 -26.820881
v 17.501974 2.072303 -27.039146
v 19.486349 1.561017 -26.146179
v 19.168848 2.072303 -27.039146
v 19.486349 1.561017 -26.820854
v 17.501974 2.072303 -27.039146
v 16.628851 2.072303 -27.039146
v 17.402758 7.302494 -27.039139
v 17.303537 22.859993 -26.939930
v 17.402758 7.302494 -27.039139
v 16.628851 7.302494 -27.039139
v 16.509787 1.561017 -26.820881
v 17.501974 2.072303 -27.039146
v 17.184473 1.561017 -26.820881
v 20.161036 1.561017 -26.820854
v 19.486349 1.561017 -26.820854
v 19.168848 2.072303 -27.039146
v 19.367289 22.859993 -26.939930
v 19.268068 27.939991 -27.039139
v 20.041975 27.939991 -27.039139
v 19.168848 33.019989 -27.138355
v 20.041975 33.019989 -27.138355
v 19.268068 27.939991 -27.039139
v 20.081663 33.654991 -26.900230
v 19.406973 33.654991 -26.900230
v 19.472498 34.289989 -26.834721
v 15.914476 34.289989 -26.820881
v 16.589163 33.654991 -26.900253
v 15.993845 33.654991 -27.495556
v 20.756350 34.289989 -26.820854
v 20.676973 33.654991 -27.495556
v 20.081663 33.654991 -26.900230
v 15.993845 33.654991 -27.495556
v 15.993849 33.654991 -27.971806
v 15.914476 34.289989 -27.971806
v 16.112913 33.019989 -27.535255
v 16.112913 27.939991 -27.971806
v 16.112913 33.019989 -27.971806
v 20.676973 33.654991 -27.495556
v 20.756350 34.289989 -27.971806
v 20.676977 33.654991 -27.971806
v -6.628021 27.939993 -25.749306
v -6.628021 22.859993 -25.749306
v -7.501146 27.939993 -25.749306
v -7.501146 27.939993 -25.749306
v -6.628021 33.019989 -25.749306
v -6.628021 27.939993 -25.749306
v -6.032709 22.859993 -26.265255
v -6.628021 7.302493 -25.749306
v -6.628021 22.859993 -25.749306
v -6.131927 7.302493 -26.265255
v -6.628021 2.072303 -25.749306
v -6.628021 7.302493 -25.749306
v -6.588335 33.654991 -25.630253
v -5.913647 34.289989 -25.550880
v -5.993017 33.654991 -26.225555
v -8.215523 34.289989 -25.550880
v -7.540834 33.654991 -25.630253
v -8.136147 33.654991 -26.225555
v -5.913647 1.561017 -26.820881
v -5.913647 1.561017 -26.146179
v -6.231148 2.072303 -27.039146
v -8.136147 33.654991 -26.225555
v -8.136147 33.654991 -26.900230
v -8.201670 34.289989 -26.834721
v -5.993023 33.654991 -26.900253
v -5.926109 34.289989 -26.833324
v -5.318335 33.654991 -26.900253
v -6.131927 27.939991 -27.039139
v -5.358023 27.939991 -27.039139
v -6.032709 22.859993 -26.939930
v -6.231148 2.072303 -27.039146
v -5.238960 1.561017 -26.820881
v -5.913647 1.561017 -26.820881
v -5.318335 33.654991 -26.900253
v -4.643646 34.289989 -26.820881
v -4.723019 33.654991 -27.495556
v -9.406147 33.654991 -27.495556
v -9.485521 34.289989 -26.820854
v -8.810835 33.654991 -26.900230
v -4.723021 33.654991 -27.971806
v -4.723019 33.654991 -27.495556
v -4.643646 34.289989 -27.971806
v -4.842085 27.939991 -27.971806
v -4.842085 33.019989 -27.535255
v -4.842085 33.019989 -27.971806
v -9.485521 34.289989 -27.971806
v -9.406147 33.654991 -27.495556
v -9.406151 33.654991 -27.971806
vt -1.168945 0.000000
vt -1.015625 0.000000
vt -1.168945 -2.997070
vt -1.015625 -2.997070
vt -1.149414 0.000000
vt -1.149414 -2.997070
vt -1.200195 0.000000
vt -1.200195 -2.997070
vt -1.998047 -1.993164
vt -1.899414 -1.993164
vt -1.998047 -1.002930
vt -1.899414 -1.002930
vt -1.769531 -1.993164
vt -1.769531 -1.002930
vt -1.919922 -1.993164
vt -1.919922 -1.002930
vt -1.668945 0.999023
vt -1.516602 0.999023
vt -1.668945 0.000000
vt -1.516602 0.000000
vt -1.650391 0.999023
vt -1.650391 0.000000
vt -1.699219 0.999023
vt -1.699219 0.000000
vt -1.998047 -1.993164
vt -1.899414 -1.993164
vt -1.998047 -1.002930
vt -1.899414 -1.002930
vt -1.769531 -1.993164
vt -1.769531 -1.002930
vt -1.919922 -1.993164
vt -1.919922 -1.002930
vt -1.668945 0.999023
vt -1.516602 0.999023
vt -1.668945 0.000000
vt -1.516602 0.000000
vt -1.650391 0.999023
vt -1.650391 0.000000
vt -1.699219 0.999023
vt -1.699219 0.000000
vt -0.419922 -1.998047
vt -0.262695 -1.998047
vt -0.419922 -1.002930
vt -0.262695 -1.002930
vt -0.396484 -1.998047
vt -0.396484 -1.002930
vt -0.450195 -1.998047
vt -0.450195 -1.002930
vt -1.168945 -2.997070
vt -1.015625 -2.997070
vt -1.168945 0.000000
vt -1.015625 0.000000
vt -1.149414 -2.997070
vt -1.149414 0.000000
vt -1.201172 -2.997070
vt -1.201172 0.000000
vt 3.214844 -0.999023
vt 3.121094 -1.248047
vt 3.214844 -1.248047
vt 3.214844 -1.498047
vt 3.121094 -1.498047
vt 3.214844 -1.375000
vt 3.121094 -1.375977
vt -0.449219 -1.998047
vt -0.396484 -1.998047
vt -0.449219 -1.002930
vt -0.396484 -1.002930
vt -0.262695 -1.998047
vt -0.262695 -1.002930
vt -0.419922 -1.002930
vt -1.252930 0.000000
vt -1.149414 -2.997070
vt -1.149414 0.000000
vt -1.015625 0.000000
vt -1.015625 -2.997070
vt -1.168945 0.000000
vt -1.168945 -2.997070
vt -0.503906 -1.998047
vt -0.396484 -1.998047
vt -0.396484 -1.002930
vt -0.262695 -1.002930
vt -0.262695 -1.998047
vt -0.419922 -1.002930
vt -0.419922 -1.998047
vt 3.214844 -1.248047
vt 3.214844 -1.498047
vt 3.121094 -1.248047
vt 3.121094 -1.498047
vt 3.214844 -1.248047
vt 3.121094 -1.248047
vt 3.121094 -0.999023
vt -1.668945 0.999023
vt -1.516602 0.999023
vt -1.668945 0.000000
vt -1.516602 0.000000
vt -1.650391 0.999023
vt -1.650391 0.000000
vt -1.749023 0.000000
vt -1.919922 -1.002930
vt -1.769531 -1.002930
vt -1.919922 -1.993164
vt -1.769531 -1.993164
vt -1.899414 -1.002930
vt -1.899414 -1.993164
vt -1.948242 -1.993164
vt -0.419922 -1.002930
vt -0.262695 -1.002930
vt -0.262695 -1.998047
vt -0.396484 -1.998047
vt -0.396484 -1.002930
vt -0.450195 -1.998047
vt -0.450195 -1.002930
vt -1.168945 0.000000
vt -1.015625 0.000000
vt -1.015625 -2.997070
vt -1.149414 -2.997070
vt -1.149414 0.000000
vt -1.201172 -2.997070
vt -1.201172 0.000000
vt 3.214844 -1.373047
vt 3.214844 -1.498047
vt 3.121094 -1.373047
vt 3.121094 -1.498047
vt 3.214844 -1.248047
vt 3.121094 -1.248047
vt 3.121094 -0.999023
vt -1.252930 0.000000
vt -1.149414 -2.997070
vt -1.149414 0.000000
vt -1.015625 0.000000
vt -1.015625 -2.997070
vt -1.168945 0.000000
vt -1.168945 -2.997070
vt -0.503906 -1.998047
vt -0.396484 -1.998047
vt -0.396484 -1.002930
vt -0.262695 -1.002930
vt -0.262695 -1.998047
vt -0.419922 -1.002930
vt -0.419922 -1.998047
vt 3.214844 -1.248047
vt 3.214844 -1.498047
vt 3.121094 -1.248047
vt 3.121094 -1.498047
vt 3.214844 -1.248047
vt 3.121094 -1.248047
vt 3.121094 -0.999023
vt -1.668945 0.999023
vt -1.516602 0.999023
vt -1.668945 0.000000
vt -1.516602 0.000000
vt -1.650391 0.999023
vt -1.650391 0.000000
vt -1.749023 0.000000
vt -1.919922 -1.002930
vt -1.769531 -1.002930
vt -1.919922 -1.993164
vt -1.769531 -1.993164
vt -1.899414 -1.002930
vt -1.899414 -1.993164
vt -1.948242 -1.993164
vt -0.419922 -1.002930
vt -0.262695 -1.002930
vt -0.262695 -1.998047
vt -0.396484 -1.998047
vt -0.396484 -1.002930
vt -0.450195 -1.998047
vt -0.450195 -1.002930
vt -1.168945 0.000000
vt -1.015625 0.000000
vt -1.015625 -2.997070
vt -1.149414 -2.997070
vt -1.149414 0.000000
vt -1.201172 -2.997070
vt -1.201172 0.000000
vt 3.214844 -1.373047
vt 3.214844 -1.498047
vt 3.121094 -1.373047
vt 3.121094 -1.498047
vt 3.214844 -1.248047
vt 3.121094 -1.248047
vt 3.121094 -0.999023
vt -1.749023 0.000000
vt -1.650391 0.999023
vt -1.650391 0.000000
vt -1.516602 0.000000
vt -1.516602 0.999023
vt -1.668945 0.000000
vt -1.668945 0.999023
vt -1.998047 -1.002930
vt -1.899414 -1.002930
vt -1.899414 -1.993164
vt -1.769531 -1.993164
vt -1.769531 -1.002930
vt -1.919922 -1.993164
vt -1.919922 -1.002930
vt -1.668945 0.000000
vt -1.516602 0.000000
vt -1.516602 0.999023
vt -1.650391 0.999023
vt -1.650391 0.000000
vt -1.699219 0.999023
vt -1.699219 0.000000
vt 3.121094 -0.999023
vt 3.214844 -1.248047
vt 3.121094 -1.248047
vt 3.121094 -1.498047
vt 3.214844 -1.498047
vt 3.121094 -1.373047
vt 3.214844 -1.373047
vt -1.948242 -1.993164
vt -1.899414 -1.002930
vt -1.899414 -1.993164
vt -1.769531 -1.993164
vt -1.769531 -1.002930
vt -1.919922 -1.993164
vt -1.919922 -1.002930
vt 2.338867 1.998047
vt 2.184570 1.998047
vt 2.338867 2.184570
vt 2.184570 2.225586
vt 2.059570 1.998047
vt 2.059570 2.184570
vt -1.919922 -1.993164
vt -1.769531 -1.002930
vt -1.769531 -1.993164
vt -1.899414 -1.993164
vt -1.899414 -1.002930
vt -1.947266 -1.002930
vt -1.668945 0.000000
vt -1.516602 0.999023
vt -1.516602 0.000000
vt -1.650391 0.000000
vt -1.650391 0.999023
vt -1.698242 0.999023
vt 2.338867 1.529297
vt 2.184570 1.526367
vt 2.338867 1.685547
vt 2.184570 1.803711
vt 2.059570 1.530273
vt 2.059570 1.873047
vt -1.166016 0.000000
vt -1.015625 0.000000
vt -1.166016 -2.997070
vt -1.015625 -2.997070
vt -1.168945 0.000000
vt -1.168945 -2.997070
vt -0.421875 -1.002930
vt -0.262695 -1.002930
vt -0.421875 -1.998047
vt -0.262695 -1.998047
vt -0.419922 -1.002930
vt -0.419922 -1.998047
vt 2.338867 1.998047
vt 2.184570 1.998047
vt 2.338867 2.184570
vt 2.184570 2.225586
vt 2.059570 1.998047
vt 2.059570 2.184570
vt 2.338867 -0.999023
vt 2.184570 -0.999023
vt 2.338867 -0.811523
vt 2.184570 -0.749023
vt 2.059570 -0.999023
vt 2.059570 -0.811523
vt -0.419922 -1.998047
vt -0.262695 -1.998047
vt -0.419922 -1.002930
vt -0.262695 -1.002930
vt -0.421875 -1.998047
vt -0.421875 -1.002930
vt -1.168945 -2.997070
vt -1.015625 -2.997070
vt -1.168945 0.000000
vt -1.015625 0.000000
vt -1.166016 -2.997070
vt -1.166016 0.000000
vt -1.166016 0.000000
vt -1.015625 0.000000
vt -1.166016 -2.997070
vt -1.015625 -2.997070
vt -1.168945 0.000000
vt -1.168945 -2.997070
vt -0.421875 -1.002930
vt -0.262695 -1.002930
vt -0.421875 -1.998047
vt -0.262695 -1.998047
vt -0.419922 -1.002930
vt -0.419922 -1.998047
vt 2.338867 1.998047
vt 2.184570 1.998047
vt 2.338867 2.184570
vt 2.184570 2.225586
vt 2.059570 1.998047
vt 2.059570 2.184570
vt 2.338867 -0.999023
vt 2.184570 -0.999023
vt 2.338867 -0.811523
vt 2.184570 -0.749023
vt 2.059570 -0.999023
vt 2.059570 -0.811523
vt -0.419922 -1.998047
vt -0.262695 -1.998047
vt -0.419922 -1.002930
vt -0.262695 -1.002930
vt -0.421875 -1.998047
vt -0.421875 -1.002930
vt -1.168945 -2.997070
vt -1.015625 -2.997070
vt -1.168945 0.000000
vt -1.015625 0.000000
vt -1.166016 -2.997070
vt -1.166016 0.000000
vt -1.917969 -1.993164
vt -1.769531 -1.993164
vt -1.917969 -1.002930
vt -1.769531 -1.002930
vt -1.919922 -1.993164
vt -1.919922 -1.002930
vt -1.669922 0.000000
vt -1.516602 0.000000
vt -1.669922 0.999023
vt -1.516602 0.999023
vt -1.668945 0.000000
vt -1.668945 0.999023
vt 2.338867 -1.310547
vt 2.184570 -1.185547
vt 2.338867 -1.623047
vt 2.184570 -1.748047
vt 2.059570 -1.123047
vt 2.059570 -1.810547
vt 2.338867 -0.999023
vt 2.184570 -0.999023
vt 2.338867 -1.123047
vt 2.184570 -1.185547
vt 2.059570 -0.999023
vt 2.059570 -1.123047
vt -1.668945 0.999023
vt -1.516602 0.999023
vt -1.668945 0.000000
vt -1.516602 0.000000
vt -1.669922 0.999023
vt -1.669922 0.000000
vt -1.919922 -1.002930
vt -1.769531 -1.002930
vt -1.919922 -1.993164
vt -1.769531 -1.993164
vt -1.917969 -1.002930
vt -1.917969 -1.993164
vt 2.338867 1.998047
vt 2.184570 1.998047
vt 2.338867 1.873047
vt 2.184570 1.803711
vt 2.059570 1.998047
vt 2.059570 1.873047
vt 2.338867 1.873047
vt 2.184570 1.803711
vt 2.184570 1.998047
vt 2.059570 1.998047
vt 2.059570 1.873047
vt -1.168945 -2.997070
vt -1.015625 -2.997070
vt -1.168945 0.000000
vt -1.015625 0.000000
vt -1.166016 0.000000
vt -0.419922 -1.002930
vt -0.262695 -1.998047
vt -0.262695 -1.002930
vt -0.421875 -1.002930
vt -0.421875 -1.998047
vt 3.214844 -0.499023
vt 3.121094 -0.749023
vt 3.214844 -0.749023
vt 3.214844 -0.999023
vt 3.121094 -0.999023
vt -1.669922 0.000000
vt -1.516602 0.999023
vt -1.516602 0.000000
vt -1.668945 0.000000
vt -1.668945 0.999023
vt -1.917969 -1.993164
vt -1.769531 -1.002930
vt -1.769531 -1.993164
vt -1.919922 -1.993164
vt -1.919922 -1.002930
vt 2.059570 -1.468750
vt 2.184570 -1.468750
vt 2.184570 -1.748047
vt 2.338867 -1.623047
vt 2.338867 -1.469727
vt -1.917969 -1.002930
vt -1.769531 -1.002930
vt -1.769531 -1.993164
vt -1.919922 -1.993164
vt -1.919922 -1.002930
vt -1.669922 0.999023
vt -1.516602 0.999023
vt -1.516602 0.000000
vt -1.668945 0.000000
vt -1.668945 0.999023
vt 2.338867 -1.623047
vt 2.184570 -1.748047
vt 2.184570 -1.185547
vt 2.059570 -1.123047
vt 2.059570 -1.810547
vt 2.338867 -1.123047
vt 2.184570 -1.185547
vt 2.184570 -0.999023
vt 2.059570 -0.999023
vt 2.059570 -1.123047
vt 3.121094 -0.999023
vt 3.214844 -0.749023
vt 3.121094 -0.749023
vt 3.121094 -0.499023
vt 3.214844 -0.499023
vt 3.121094 -0.999023
vt 3.214844 -0.749023
vt 3.121094 -0.749023
vt 3.121094 -0.499023
vt 3.214844 -0.499023
vt -1.668945 0.000000
vt -1.516602 0.000000
vt -1.516602 0.999023
vt -1.669922 0.999023
vt -1.669922 0.000000
vt -1.919922 -1.993164
vt -1.769531 -1.993164
vt -1.769531 -1.002930
vt -1.917969 -1.002930
vt -1.917969 -1.993164
vt 2.338867 1.873047
vt 2.184570 1.803711
vt 2.184570 1.998047
vt 2.059570 1.998047
vt 2.059570 1.873047
vt 2.059570 -0.467773
vt 2.184570 -0.462891
vt 2.059570 -0.811523
vt 2.184570 -0.749023
vt 2.338867 -0.624023
vt 2.338867 1.685547
vt 2.184570 1.526367
vt 2.184570 1.803711
vt 2.059570 1.873047
vt 2.059570 1.530273
vt -1.917969 -1.002930
vt -1.769531 -1.002930
vt -1.769531 -1.993164
vt -1.919922 -1.993164
vt -1.919922 -1.002930
vt -1.669922 0.999023
vt -1.516602 0.999023
vt -1.516602 0.000000
vt -1.668945 0.000000
vt -1.668945 0.999023
vt 2.338867 -1.623047
vt 2.184570 -1.748047
vt 2.184570 -1.185547
vt 2.059570 -1.123047
vt 2.059570 -1.810547
vt 2.338867 -1.123047
vt 2.184570 -1.185547
vt 2.184570 -0.999023
vt 2.059570 -0.999023
vt 2.059570 -1.123047
vt 3.121094 -0.999023
vt 3.214844 -0.749023
vt 3.121094 -0.749023
vt 3.121094 -0.499023
vt 3.214844 -0.499023
vt 3.121094 -0.999023
vt 3.214844 -0.749023
vt 3.121094 -0.749023
vt 3.121094 -0.499023
vt 3.214844 -0.499023
vt -1.668945 0.000000
vt -1.516602 0.000000
vt -1.516602 0.999023
vt -1.669922 0.999023
vt -1.669922 0.000000
vt -1.919922 -1.993164
vt -1.769531 -1.993164
vt -1.769531 -1.002930
vt -1.917969 -1.002930
vt -1.917969 -1.993164
vt 2.338867 1.873047
vt 2.184570 1.803711
vt 2.184570 1.998047
vt 2.059570 1.998047
vt 2.059570 1.873047
vt 2.059570 -0.467773
vt 2.184570 -0.462891
vt 2.059570 -0.811523
vt 2.184570 -0.749023
vt 2.338867 -0.624023
vt 2.338867 1.685547
vt 2.184570 1.526367
vt 2.184570 1.803711
vt 2.059570 1.873047
vt 2.059570 1.530273
vt -1.166016 -2.997070
vt -1.015625 -2.997070
vt -1.015625 0.000000
vt -1.168945 0.000000
vt -1.168945 -2.997070
vt -0.421875 -1.998047
vt -0.262695 -1.998047
vt -0.262695 -1.002930
vt -0.419922 -1.002930
vt -0.419922 -1.998047
vt 3.214844 -0.499023
vt 3.214844 -0.749023
vt 3.121094 -0.499023
vt 3.121094 -0.749023
vt 3.121094 -0.999023
vt 2.338867 2.184570
vt 2.184570 2.225586
vt 2.184570 1.998047
vt 2.059570 1.998047
vt 2.059570 2.184570
vt 2.338867 -0.811523
vt 2.184570 -0.749023
vt 2.184570 -0.999023
vt 2.059570 -0.999023
vt 2.059570 -0.811523
vt 2.338867 -0.624023
vt 2.184570 -0.462891
vt 2.184570 -0.749023
vt 2.059570 -0.811523
vt 2.059570 -0.467773
vt 2.059570 1.530273
vt 2.184570 1.526367
vt 2.059570 1.873047
vt 2.184570 1.803711
vt 2.338867 1.685547
vt 3.214844 -1.248047
vt 3.214844 -1.373047
vt 3.121094 -1.248047
vt 3.121094 -1.373047
vt -0.450195 -1.998047
vt -0.450195 -1.002930
vt -0.503906 -1.998047
vt -0.503906 -1.002930
vt -1.201172 -2.997070
vt -1.201172 0.000000
vt -1.252930 -2.997070
vt -1.252930 0.000000
vt -1.699219 0.000000
vt -1.699219 0.999023
vt -1.749023 0.000000
vt -1.749023 0.999023
vt -1.948242 -1.993164
vt -1.948242 -1.002930
vt -1.998047 -1.993164
vt -1.998047 -1.002930
vt 3.214844 -1.373047
vt 3.121094 -1.373047
vt 3.214844 -1.248047
vt 3.121094 -1.248047
vt -0.450195 -1.002930
vt -0.503906 -1.002930
vt -0.450195 -1.998047
vt -0.503906 -1.998047
vt -1.201172 0.000000
vt -1.252930 0.000000
vt -1.201172 -2.997070
vt -1.252930 -2.997070
vt -1.699219 0.000000
vt -1.699219 0.999023
vt -1.749023 0.000000
vt -1.749023 0.999023
vt -1.948242 -1.993164
vt -1.948242 -1.002930
vt -1.998047 -1.993164
vt -1.998047 -1.002930
vt 3.214844 -1.373047
vt 3.121094 -1.373047
vt 3.214844 -1.248047
vt 3.121094 -1.248047
vt -0.450195 -1.002930
vt -0.503906 -1.002930
vt -0.450195 -1.998047
vt -0.503906 -1.998047
vt -1.201172 0.000000
vt -1.252930 0.000000
vt -1.201172 -2.997070
vt -1.252930 -2.997070
vt -1.699219 0.000000
vt -1.699219 0.999023
vt -1.749023 0.000000
vt -1.749023 0.999023
vt -1.948242 -1.993164
vt -1.948242 -1.002930
vt -1.998047 -1.993164
vt -1.998047 -1.002930
vt -1.252930 -2.997070
vt -1.252930 0.000000
vt -1.149414 -2.997070
vt -1.149414 0.000000
vt -1.015625 -2.997070
vt -1.149414 -2.997070
vt -1.015625 0.000000
vt -1.149414 0.000000
vt -0.396484 -1.998047
vt -0.503906 -1.998047
vt -0.396484 -1.002930
vt -0.503906 -1.002930
vt 3.214844 -1.248047
vt 3.121094 -1.248047
vt 3.214844 -1.498047
vt 3.121094 -1.498047
vt -1.168945 -2.997070
vt -1.015625 -2.997070
vt -1.168945 0.000000
vt -1.015625 0.000000
vt -1.168945 -2.997070
vt -1.168945 0.000000
vt -1.015625 -2.997070
vt -1.015625 0.000000
vt -1.015625 -2.997070
vt -1.015625 0.000000
vt -1.166016 -2.997070
vt -1.166016 0.000000
vt -1.201172 0.000000
vt -1.201172 -2.997070
vt -1.252930 0.000000
vt -1.252930 -2.997070
vt -1.699219 0.000000
vt -1.749023 0.000000
vt -1.699219 0.999023
vt -1.749023 0.999023
vt -1.948242 -1.993164
vt -1.998047 -1.993164
vt -1.948242 -1.002930
vt -1.998047 -1.002930
vt 2.338867 1.873047
vt 2.184570 1.998047
vt 2.338867 1.998047
vt -0.262695 -1.998047
vt -0.419922 -1.002930
vt -0.419922 -1.998047
vt 3.214844 -0.999023
vt 3.121094 -0.999023
vt 3.121094 -1.248047
vt 3.121094 -0.499023
vt 3.121094 -0.749023
vt 3.214844 -0.499023
vt -1.166016 0.000000
vt -1.015625 -2.997070
vt -1.166016 -2.997070
vt -1.516602 0.999023
vt -1.669922 0.000000
vt -1.669922 0.999023
vt -1.769531 -1.002930
vt -1.917969 -1.993164
vt -1.917969 -1.002930
vt -1.769531 -1.002930
vt -1.919922 -1.993164
vt -1.919922 -1.002930
vt -1.516602 0.999023
vt -1.668945 0.000000
vt -1.668945 0.999023
vt -0.262695 -1.998047
vt -0.419922 -1.998047
vt -0.419922 -1.002930
vt 2.184570 1.803711
vt 2.338867 1.873047
vt 2.338867 1.685547
vt 2.338867 2.372070
vt 2.338867 2.184570
vt 2.184570 2.225586
vt 2.184570 -1.748047
vt 2.059570 -1.810547
vt 2.059570 -1.468750
vt -1.947266 -1.002930
vt -1.947266 -1.993164
vt -1.899414 -1.993164
vt -1.698242 0.999023
vt -1.698242 0.000000
vt -1.650391 0.000000
vt -1.749023 0.000000
vt -1.650391 0.999023
vt -1.749023 0.999023
vt -1.769531 -1.993164
vt -1.917969 -1.993164
vt -1.917969 -1.002930
vt -1.516602 0.000000
vt -1.669922 0.000000
vt -1.669922 0.999023
vt -1.252930 0.000000
vt -1.252930 -2.997070
vt -1.149414 -2.997070
vt 2.184570 -1.185547
vt 2.338867 -1.123047
vt 2.338867 -1.310547
vt -0.503906 -1.998047
vt -0.396484 -1.002930
vt -0.503906 -1.002930
vt 2.338867 2.372070
vt 2.338867 2.184570
vt 2.184570 2.225586
vt 2.338867 -1.623047
vt 2.184570 -1.185547
vt 2.338867 -1.310547
vt 2.338867 -1.123047
vt 2.184570 -0.999023
vt 2.338867 -0.999023
vt 3.214844 -0.749023
vt 3.121094 -0.999023
vt 3.214844 -0.999023
vt 3.214844 -1.248047
vt 3.214844 -0.999023
vt 3.121094 -0.999023
vt -0.419922 -1.998047
vt -0.419922 -1.002930
vt -0.262695 -1.998047
vt -1.168945 0.000000
vt -1.015625 -2.997070
vt -1.168945 -2.997070
vt 3.214844 -1.248047
vt 3.214844 -0.999023
vt 3.121094 -0.999023
vt 3.214844 -0.749023
vt 3.121094 -0.999023
vt 3.214844 -0.999023
vt -1.668945 0.000000
vt -1.516602 0.999023
vt -1.668945 0.999023
vt -1.919922 -1.002930
vt -1.919922 -1.993164
vt -1.769531 -1.002930
vt 2.338867 1.873047
vt 2.184570 1.998047
vt 2.338867 1.998047
vt 2.184570 -0.749023
vt 2.338867 -0.624023
vt 2.338867 -0.811523
vt 2.184570 1.803711
vt 2.338867 1.873047
vt 2.338867 1.685547
vt 2.338867 -0.624023
vt 2.184570 -0.462891
vt 2.338867 -0.467773
vt -1.899414 -1.002930
vt -1.948242 -1.002930
vt -1.948242 -1.993164
vt 2.338867 1.685547
vt 2.338867 1.529297
vt 2.184570 1.526367
vt -1.749023 0.000000
vt -1.650391 0.999023
vt -1.749023 0.999023
vt -1.769531 -1.993164
vt -1.917969 -1.993164
vt -1.917969 -1.002930
vt -1.516602 0.000000
vt -1.669922 0.000000
vt -1.669922 0.999023
vt -1.252930 0.000000
vt -1.252930 -2.997070
vt -1.149414 -2.997070
vt 2.184570 -1.185547
vt 2.338867 -1.123047
vt 2.338867 -1.310547
vt -0.503906 -1.998047
vt -0.396484 -1.002930
vt -0.503906 -1.002930
vt 2.338867 2.372070
vt 2.338867 2.184570
vt 2.184570 2.225586
vt 2.338867 -1.623047
vt 2.184570 -1.185547
vt 2.338867 -1.310547
vt 2.338867 -1.123047
vt 2.184570 -0.999023
vt 2.338867 -0.999023
vt 3.214844 -0.749023
vt 3.121094 -0.999023
vt 3.214844 -0.999023
vt 3.214844 -1.248047
vt 3.214844 -0.999023
vt 3.121094 -0.999023
vt -0.419922 -1.998047
vt -0.419922 -1.002930
vt -0.262695 -1.998047
vt -1.168945 0.000000
vt -1.015625 -2.997070
vt -1.168945 -2.997070
vt 3.214844 -1.248047
vt 3.214844 -0.999023
vt 3.121094 -0.999023
vt 3.214844 -0.749023
vt 3.121094 -0.999023
vt 3.214844 -0.999023
vt -1.668945 0.000000
vt -1.516602 0.999023
vt -1.668945 0.999023
vt -1.919922 -1.002930
vt -1.919922 -1.993164
vt -1.769531 -1.002930
vt 2.338867 1.873047
vt 2.184570 1.998047
vt 2.338867 1.998047
vt 2.184570 -0.749023
vt 2.338867 -0.624023
vt 2.338867 -0.811523
vt 2.184570 1.803711
vt 2.338867 1.873047
vt 2.338867 1.685547
vt 2.338867 -0.624023
vt 2.184570 -0.462891
vt 2.338867 -0.467773
vt -1.899414 -1.002930
vt -1.948242 -1.002930
vt -1.948242 -1.993164
vt 2.338867 1.685547
vt 2.338867 1.529297
vt 2.184570 1.526367
vt -1.749023 0.999023
vt -1.650391 0.999023
vt -1.749023 0.000000
vt -1.899414 -1.993164
vt -1.998047 -1.993164
vt -1.998047 -1.002930
vt -1.015625 0.000000
vt -1.166016 0.000000
vt -1.166016 -2.997070
vt -0.262695 -1.002930
vt -0.421875 -1.002930
vt -0.421875 -1.998047
vt 2.338867 -1.310547
vt 2.338867 -1.123047
vt 2.184570 -1.185547
vt 2.184570 2.225586
vt 2.338867 2.184570
vt 2.338867 2.372070
vt 3.214844 -0.999023
vt 3.121094 -0.999023
vt 3.214844 -0.749023
vt 2.338867 2.184570
vt 2.184570 1.998047
vt 2.338867 1.998047
vt 2.338867 -0.999023
vt 2.338867 -0.811523
vt 2.184570 -0.999023
vt -1.668945 0.999023
vt -1.668945 0.000000
vt -1.516602 0.999023
vt 3.121094 -0.999023
vt 3.214844 -0.999023
vt 3.214844 -1.248047
vt 2.338867 -0.811523
vt 2.338867 -0.624023
vt 2.184570 -0.749023
vt 2.338867 1.685547
vt 2.338867 1.873047
vt 2.184570 1.803711
vt 2.338867 -0.467773
vt 2.184570 -0.462891
vt 2.338867 -0.624023
vt -1.948242 -1.993164
vt -1.948242 -1.002930
vt -1.899414 -1.002930
vt 2.184570 1.526367
vt 2.338867 1.529297
vt 2.338867 1.685547
vn 0.0000 -0.0076 1.0000
vn -0.0249 0.4149 0.9095
vn 0.0000 -0.0360 0.9994
vn -0.6914 0.4035 0.5992
vn -0.7217 0.3504 0.5970
vn -0.9926 -0.0436 -0.1133
vn -0.6931 0.0000 0.7208
vn -0.6377 -0.3917 0.6632
vn -0.9392 0.3433 -0.0026
vn -1.0000 0.0000 0.0000
vn -0.9201 -0.0129 -0.3915
vn -0.9201 -0.3915 0.0130
vn 0.0000 0.0000 1.0000
vn 0.0703 -0.4080 0.9103
vn 0.0078 0.4373 0.8993
vn 0.6699 -0.3691 0.6441
vn 0.6959 -0.3771 0.6111
vn 0.9126 0.0559 0.4050
vn 0.6697 0.4564 0.5858
vn 0.5968 -0.0302 0.8018
vn 0.7467 0.3354 0.5744
vn 0.9369 -0.3497 0.0069
vn 0.9998 0.0195 0.0000
vn 0.9452 0.0672 -0.3195
vn 0.9399 0.3379 0.0486
vn 0.0000 0.0195 0.9998
vn -0.0494 0.3899 0.9195
vn 0.3719 0.0675 0.9258
vn -0.0000 -0.0383 0.9993
vn -0.6397 0.3850 0.6653
vn -0.6689 0.4205 0.6130
vn -0.9907 -0.0885 0.1032
vn -0.7557 0.0000 0.6549
vn -0.7080 -0.3495 0.6136
vn -0.9284 0.3715 0.0072
vn -0.9369 -0.0299 -0.3482
vn -0.9369 -0.3482 0.0299
vn 0.0664 -0.3860 0.9201
vn -0.3860 -0.0664 0.9201
vn 0.6633 -0.3917 0.6377
vn 0.9369 -0.3496 0.0069
vn 0.9399 0.3379 0.0487
vn -0.0494 0.3900 0.9195
vn -0.0063 -0.3919 0.9200
vn -0.6719 0.4050 0.6201
vn -0.8923 -0.0444 0.4492
vn -0.6506 -0.4177 0.6342
vn -0.5178 0.0544 0.8538
vn -0.9218 0.3876 0.0069
vn 0.0574 -0.3877 0.9200
vn -0.0000 0.3736 0.9276
vn 0.6479 -0.3552 0.6738
vn 0.6760 -0.3881 0.6264
vn 0.9097 0.0507 0.4121
vn 0.6064 0.3701 0.7037
vn 0.3580 -0.0531 0.9322
vn 0.6377 0.3917 0.6632
vn 0.9201 -0.3917 -0.0000
vn 1.0000 0.0000 0.0000
vn 0.9201 0.0326 -0.3904
vn 0.9201 0.3904 0.0324
vn 0.0000 -0.0064 1.0000
vn 0.0162 -0.3797 0.9250
vn -0.3738 -0.0221 0.9273
vn 0.0022 0.4077 0.9131
vn 0.6419 -0.3774 0.6675
vn 0.6491 -0.3969 0.6490
vn 0.8933 0.0146 0.4493
vn 0.6753 0.4169 0.6084
vn 0.5176 -0.0180 0.8554
vn 0.7080 0.3495 0.6136
vn 0.9207 -0.3904 0.0024
vn 0.9369 0.0098 -0.3494
vn 0.9369 0.3494 0.0098
vn 0.0000 0.3780 0.9258
vn 0.3107 0.6249 0.7162
vn 0.0000 0.0146 0.9999
vn -0.7049 0.0793 0.7049
vn -0.6703 0.5911 0.4485
vn -0.8517 0.1913 0.4878
vn -0.4241 0.4948 0.7585
vn -0.4918 0.7115 0.5018
vn -0.5347 0.1198 0.8365
vn -0.9999 -0.0096 -0.0028
vn -0.7971 0.5382 -0.2739
vn -0.9323 0.3618 0.0000
vn -0.7938 0.5467 0.2665
vn -0.9322 0.3618 0.0000
vn -0.9219 -0.3861 0.0315
vn -0.9219 -0.0315 -0.3861
vn -0.9202 0.3914 0.0007
vn -0.6453 -0.3873 0.6585
vn -0.6927 -0.0615 0.7186
vn -0.3754 0.0531 0.9254
vn -0.6755 0.3897 0.6259
vn -0.7296 -0.0070 0.6839
vn -0.6426 0.3747 0.6683
vn 0.6471 -0.0955 0.7564
vn 0.0000 0.0018 1.0000
vn 0.0000 0.3755 0.9268
vn -0.6955 -0.0518 0.7167
vn -0.0000 0.3495 0.9369
vn 0.6136 0.3495 0.7080
vn 0.6102 -0.0016 0.7923
vn 0.6109 0.4170 0.6729
vn 0.7192 -0.0387 0.6938
vn 0.6673 -0.3781 0.6416
vn 0.4492 0.0175 0.8933
vn 0.9138 0.4062 0.0027
vn 0.9272 -0.0265 -0.3737
vn 1.0000 -0.0076 0.0000
vn 0.9245 -0.3808 0.0194
vn 0.0077 -0.4374 0.8992
vn -0.6610 0.1103 0.7423
vn 0.7191 0.0706 0.6914
vn 0.9127 -0.0543 0.4049
vn 0.6951 0.3771 0.6120
vn 0.6709 -0.4561 0.5846
vn 0.7468 -0.3350 0.5745
vn 0.5968 0.0293 0.8019
vn 0.9366 0.3503 0.0068
vn 0.9453 -0.0652 -0.3197
vn 0.9998 -0.0190 0.0000
vn 0.9401 -0.3376 0.0473
vn 0.0000 0.3618 0.9323
vn 0.3903 -0.0090 0.9207
vn 0.0342 0.6764 0.7357
vn 0.6877 0.2326 0.6877
vn 0.7901 0.1280 0.5994
vn 0.6434 0.6518 0.4014
vn 0.2733 0.7453 0.6082
vn 0.6803 0.4032 0.6121
vn 0.5266 0.7474 0.4051
vn 0.9628 0.1999 -0.1817
vn 0.8495 0.5275 -0.0000
vn 0.6754 0.7375 0.0000
vn 0.9195 0.3899 0.0494
vn 0.9258 0.0675 -0.3719
vn 0.9200 -0.3918 0.0063
vn 0.6653 0.3850 0.6397
vn 0.7106 0.0941 0.6973
vn 0.4492 -0.0444 0.8923
vn 0.6342 -0.4177 0.6506
vn 0.6459 0.0101 0.7633
vn 0.6136 -0.3496 0.7080
vn -0.6510 0.1238 0.7489
vn -0.0000 -0.3495 0.9369
vn -0.0488 0.3379 0.9399
vn 0.3195 0.0672 0.9452
vn -0.0069 -0.3497 0.9369
vn -0.5744 0.3354 0.7467
vn -0.6126 0.0665 0.7876
vn -0.8018 -0.0301 0.5968
vn -0.6111 -0.3771 0.6959
vn -0.7352 0.0053 0.6779
vn -0.6495 0.0787 -0.7563
vn -0.9201 -0.3917 -0.0000
vn 0.6411 -0.0949 0.7615
vn -0.6918 -0.0606 0.7195
vn -0.9097 0.0507 0.4121
vn -0.6760 -0.3881 0.6264
vn -0.6064 0.3701 0.7037
vn -0.6377 0.3917 0.6632
vn -0.3580 -0.0531 0.9322
vn -0.9201 -0.3918 -0.0000
vn -0.9201 0.0326 -0.3904
vn -0.9201 0.3904 0.0326
vn -0.0027 0.4062 0.9138
vn 0.6760 -0.0407 0.7358
vn -0.6928 -0.0277 0.7206
vn -0.8933 0.0175 0.4492
vn -0.6512 -0.3978 0.6463
vn -0.6730 0.4170 0.6109
vn -0.7080 0.3495 0.6136
vn -0.5175 -0.0215 0.8554
vn -0.9207 -0.3902 0.0028
vn -0.9369 0.0117 -0.3494
vn -0.9369 0.3493 0.0117
vn -0.9783 0.0488 0.2013
vn -0.9615 0.0919 -0.2588
vn -0.7495 0.6620 0.0051
vn -0.7055 0.0668 0.7055
vn -0.5470 0.2128 0.8096
vn -0.3731 0.6479 0.6641
vn -0.7502 0.5775 0.3220
vn -0.7680 0.2279 0.5985
vn -0.4843 0.7153 0.5038
vn 0.2062 0.0031 0.9785
vn 0.0000 0.3926 0.9197
vn 0.0000 0.6756 0.7372
vn -0.6998 -0.0436 0.7130
vn 0.6060 -0.0011 0.7955
vn 0.6084 0.4169 0.6753
vn 0.7197 -0.0325 0.6936
vn 0.6676 -0.3773 0.6418
vn 0.4494 0.0146 0.8932
vn 0.9131 0.4077 0.0022
vn 0.9273 -0.0221 -0.3738
vn 1.0000 -0.0064 0.0000
vn 0.9250 -0.3797 0.0162
vn 0.7190 0.0706 0.6914
vn 0.6709 -0.4562 0.5846
vn 0.2773 0.1102 0.9544
vn -0.1782 0.0357 0.9833
vn 0.0342 0.6765 0.7357
vn 0.7055 0.0668 0.7055
vn 0.7901 0.1280 0.5995
vn 0.2733 0.7453 0.6081
vn 0.9195 0.3899 0.0492
vn 0.6136 -0.3495 0.7080
vn -0.0486 0.3379 0.9399
vn -0.8019 -0.0302 0.5968
vn 0.6412 -0.0949 0.7615
vn -0.6919 -0.0606 0.7195
vn -0.0022 0.4077 0.9131
vn 0.6789 -0.0342 0.7334
vn -0.6929 -0.0233 0.7206
vn -0.8933 0.0146 0.4493
vn -0.6491 -0.3969 0.6490
vn -0.6753 0.4169 0.6084
vn -0.5176 -0.0180 0.8554
vn -0.9207 -0.3904 0.0024
vn -0.9369 0.0098 -0.3494
vn -0.9369 0.3494 0.0098
vn -0.9783 0.0487 0.2013
vn -0.7495 0.6620 0.0052
vn -0.3730 0.6480 0.6641
vn -0.7502 0.5775 0.3221
vn -0.4844 0.7153 0.5038
vn 0.2063 0.0031 0.9785
vn 0.6510 0.1238 0.7489
vn -0.6136 -0.3495 0.7080
vn -0.6459 0.0101 0.7633
vn -0.6342 -0.4177 0.6506
vn -0.7106 0.0941 0.6973
vn -0.6653 0.3850 0.6397
vn -0.4492 -0.0444 0.8923
vn -0.9200 -0.3918 0.0063
vn -0.9258 0.0675 -0.3719
vn -0.9998 0.0195 0.0000
vn -0.9195 0.3899 0.0494
vn -0.0078 0.4373 0.8993
vn 0.6591 -0.1133 0.7435
vn -0.7189 -0.0725 0.6913
vn -0.9126 0.0559 0.4050
vn -0.6959 -0.3771 0.6111
vn -0.6697 0.4564 0.5858
vn -0.7467 0.3354 0.5744
vn -0.5968 -0.0302 0.8018
vn -0.9369 -0.3497 0.0069
vn -0.9452 0.0672 -0.3195
vn -0.9399 0.3379 0.0487
vn 0.0063 -0.3919 0.9200
vn -0.6471 0.1008 0.7557
vn 0.6915 0.0684 0.7191
vn 0.8923 -0.0444 0.4492
vn 0.6718 0.4050 0.6202
vn 0.6506 -0.4177 0.6342
vn 0.7080 -0.3495 0.6137
vn 0.5178 0.0544 0.8538
vn 0.9218 0.3876 0.0069
vn 0.9369 -0.0299 -0.3482
vn 0.9369 -0.3482 0.0299
vn -0.2063 0.0031 0.9785
vn 0.4844 0.7153 0.5037
vn 0.7680 0.2279 0.5985
vn 0.7502 0.5775 0.3221
vn 0.5470 0.2128 0.8096
vn 0.3730 0.6480 0.6641
vn 0.7495 0.6620 0.0052
vn 0.9615 0.0919 -0.2588
vn 0.9322 0.3618 -0.0000
vn 0.9783 0.0487 0.2013
vn 0.6495 0.0787 -0.7563
vn 0.6377 -0.3917 0.6632
vn 0.7352 0.0053 0.6779
vn 0.6111 -0.3771 0.6959
vn 0.6126 0.0665 0.7876
vn 0.5744 0.3354 0.7467
vn 0.8019 -0.0302 0.5968
vn 0.0069 -0.3497 0.9369
vn -0.3195 0.0672 0.9452
vn 0.0486 0.3379 0.9399
vn 0.0000 -0.1026 0.9947
vn -0.1253 -0.2503 0.9600
vn -0.0000 -0.0929 0.9957
vn 0.0142 -0.1092 0.9939
vn -0.1262 0.0138 0.9919
vn 0.2516 0.1541 0.9555
vn -0.2591 -0.6713 0.6944
vn 0.0129 -0.5724 0.8199
vn 0.0971 -0.6521 0.7519
vn 0.0331 -0.4623 0.8861
vn 0.0000 -0.5596 0.8288
vn 0.0000 -0.5665 0.8240
vn 0.5688 0.0894 0.8176
vn 0.0000 -0.3538 0.9353
vn -0.6461 -0.3621 0.6719
vn -0.7962 0.0204 0.6047
vn -0.6968 -0.0140 0.7172
vn -0.6023 0.0443 0.7971
vn -0.5470 0.4417 0.7111
vn -0.4939 -0.0052 0.8695
vn -0.7133 -0.0462 -0.6993
vn -0.8971 0.4418 -0.0000
vn 0.6550 0.0896 0.7503
vn 0.0000 -0.3955 0.9185
vn -0.6907 -0.4056 0.5986
vn -0.8380 0.0198 0.5453
vn -0.7590 -0.0126 0.6510
vn -0.6858 0.0453 0.7264
vn -0.6376 0.3917 0.6633
vn -0.6041 -0.0052 0.7969
vn -0.7723 -0.0420 -0.6339
vn -0.9201 0.3917 -0.0000
vn 0.0000 -0.1240 0.9923
vn -0.1413 -0.3089 0.9405
vn -0.1899 0.0197 0.9816
vn 0.2374 0.1319 0.9624
vn -0.2367 -0.5504 0.8006
vn 0.0698 -0.6480 0.7585
vn 0.0563 -0.4697 0.8810
vn -0.6549 -0.0000 0.7557
vn -0.6109 0.4170 0.6729
vn -0.5863 0.0000 0.8101
vn -0.7208 -0.0089 0.6931
vn -0.4491 0.0175 0.8933
vn -0.6673 -0.3781 0.6417
vn -0.9138 0.4062 0.0027
vn -1.0000 -0.0076 0.0000
vn -0.9272 -0.0265 -0.3737
vn -0.9245 -0.3808 0.0194
vn -0.7208 0.0000 0.6931
vn -0.6951 0.3771 0.6120
vn -0.6469 0.0000 0.7626
vn -0.7924 -0.0247 0.6095
vn -0.5968 0.0293 0.8018
vn -0.7468 -0.3349 0.5745
vn -0.9366 0.3503 0.0068
vn -0.9998 -0.0190 0.0000
vn -0.9453 -0.0652 -0.3197
vn -0.9401 -0.3375 0.0473
vn 0.9947 -0.1026 0.0000
vn 0.9600 -0.2503 0.1253
vn 0.9957 -0.0929 0.0000
vn 0.9939 -0.1092 -0.0142
vn 0.9919 0.0137 0.1261
vn 0.9555 0.1541 -0.2516
vn 0.6944 -0.6713 0.2591
vn 0.8199 -0.5724 -0.0129
vn 0.7519 -0.6521 -0.0971
vn 0.8861 -0.4623 -0.0331
vn 0.8287 -0.5596 -0.0000
vn 0.8240 -0.5665 -0.0000
vn 0.0000 -0.1048 0.9945
vn -0.1233 -0.2521 0.9598
vn 0.0000 -0.0961 0.9954
vn 0.0128 -0.1107 0.9938
vn -0.1268 0.0125 0.9918
vn 0.2502 0.1519 0.9562
vn -0.2585 -0.6702 0.6957
vn 0.0116 -0.5719 0.8203
vn 0.0959 -0.6507 0.7533
vn 0.0336 -0.4624 0.8860
vn 0.0000 -0.5603 0.8283
vn 0.0547 -0.3696 0.9276
vn -0.3696 -0.0547 0.9276
vn 0.6429 -0.3736 0.6686
vn 0.6931 0.0000 0.7208
vn 0.9098 0.0507 0.4120
vn 0.0194 -0.3808 0.9245
vn -0.3737 -0.0265 0.9272
vn 0.0027 0.4062 0.9138
vn 0.6416 -0.3781 0.6673
vn 0.6931 -0.0090 0.7208
vn 0.8933 0.0175 0.4492
vn 0.6730 0.4171 0.6109
vn 0.8101 0.0000 0.5863
vn 0.7557 0.0000 0.6549
vn -0.6084 0.4169 0.6753
vn -0.5859 0.0000 0.8104
vn -0.7208 -0.0075 0.6931
vn -0.4494 0.0146 0.8932
vn -0.6676 -0.3773 0.6418
vn -0.9131 0.4077 0.0022
vn -1.0000 -0.0064 0.0000
vn -0.9273 -0.0221 -0.3738
vn -0.9250 -0.3797 0.0162
vn -0.7924 -0.0246 0.6095
vn -0.5968 0.0293 0.8019
vn -0.7468 -0.3350 0.5745
vn -0.9401 -0.3376 0.0473
vn 0.9919 0.0138 0.1262
vn 0.8198 -0.5724 -0.0128
vn 0.8288 -0.5596 0.0000
vn 0.0127 -0.1107 0.9938
vn 0.2501 0.1519 0.9562
vn -0.2586 -0.6702 0.6957
vn 0.0336 -0.4625 0.8860
vn 0.0545 -0.3696 0.9276
vn 0.6419 -0.3773 0.6676
vn 0.6931 -0.0076 0.7208
vn 0.8932 0.0146 0.4493
vn 0.8104 0.0000 0.5859
vn 0.7208 0.0000 0.6931
vn 0.6471 -0.0000 0.7624
vn 0.7924 0.0254 0.6095
vn 0.5968 -0.0301 0.8018
vn 0.6549 0.0000 0.7557
vn 0.5901 -0.0000 0.8074
vn 0.7206 0.0231 0.6929
vn -0.3125 0.0284 0.9495
vn -0.1263 0.2021 0.9712
vn -0.1092 -0.5111 0.8526
vn 0.0340 -0.6616 0.7491
vn 0.0883 -0.4886 0.8680
vn 0.9945 -0.1048 -0.0000
vn 0.9598 -0.2521 0.1233
vn 0.9954 -0.0961 -0.0000
vn 0.9938 -0.1106 -0.0128
vn 0.9918 0.0125 0.1268
vn 0.9562 0.1520 -0.2502
vn 0.6957 -0.6702 0.2585
vn 0.8203 -0.5719 -0.0116
vn 0.7533 -0.6507 -0.0959
vn 0.8860 -0.4624 -0.0336
vn 0.8283 -0.5603 0.0000
vn -0.0063 -0.3918 0.9200
vn -0.6929 0.0231 0.7206
vn -0.8074 -0.0000 0.5900
vn -0.0487 0.3379 0.9399
vn -0.6095 0.0254 0.7924
vn -0.7624 -0.0000 0.6471
vn -0.1261 0.0138 0.9919
vn -0.9936 -0.1128 -0.0107
vn -0.9555 0.1541 -0.2516
vn -0.9783 0.0817 0.1904
vn -0.7385 -0.6503 0.1783
vn -0.7519 -0.6521 -0.0971
vn -0.8199 -0.5724 -0.0129
vn -0.8861 -0.4623 -0.0331
vn -0.8240 -0.5665 0.0000
vn -0.8287 -0.5596 -0.0000
vn -0.9994 -0.0360 0.0015
vn -0.9996 -0.0091 -0.0283
vn -0.9131 0.4077 -0.0000
vn 0.1133 -0.0436 0.9926
vn -0.6549 -0.0050 0.7557
vn -0.5969 0.4116 0.6887
vn -0.8170 -0.0869 -0.5700
vn -0.9351 0.3543 -0.0000
vn -0.6718 0.3624 0.6460
vn -0.6057 -0.0196 0.7955
vn -0.7207 -0.0224 0.6929
vn -0.7968 -0.0432 0.6027
vn -0.7926 -0.0000 0.6097
vn -0.8507 0.0000 0.5257
vn -0.6053 0.5169 0.6053
vn -0.2587 0.7351 0.6267
vn -0.6921 0.2047 0.6922
vn -0.9742 0.2257 0.0000
vn -0.7335 0.6545 -0.1832
vn -0.8495 0.5275 0.0000
vn -0.7453 0.6356 0.2014
vn -0.8495 0.5276 0.0000
vn -0.6549 0.0128 0.7556
vn 0.0686 0.1075 0.9918
vn -0.5986 -0.4056 0.6907
vn -0.9185 -0.3955 -0.0000
vn -0.9972 0.0286 -0.0689
vn -0.9960 0.0884 0.0092
vn -0.7208 0.0141 0.6930
vn -0.1000 0.0928 0.9907
vn -0.6719 -0.3621 0.6461
vn -0.9353 -0.3538 -0.0000
vn -0.9980 0.0282 -0.0574
vn -0.9970 0.0768 0.0087
vn -0.8006 -0.5504 0.2367
vn -0.6698 -0.7275 -0.1485
vn -0.9893 0.0282 -0.1429
vn -0.9814 0.0179 0.1913
vn -0.9923 -0.1240 0.0000
vn -0.9404 -0.3103 0.1395
vn -0.7925 0.0155 0.6096
vn -0.7467 0.3353 0.5744
vn -0.3054 -0.0666 0.9499
vn -0.9996 -0.0268 -0.0000
vn -0.1032 -0.0885 0.9907
vn -0.9993 -0.0383 -0.0000
vn -0.2373 0.1319 0.9624
vn 0.1448 0.2515 0.9570
vn 0.0618 -0.5362 0.8418
vn -0.0340 -0.6616 0.7491
vn -0.0883 -0.4886 0.8680
vn -0.9934 -0.1139 -0.0097
vn -0.9562 0.1519 -0.2502
vn -0.9784 0.0795 0.1908
vn -0.7394 -0.6491 0.1785
vn -0.7532 -0.6507 -0.0960
vn -0.8203 -0.5719 -0.0116
vn -0.8860 -0.4624 -0.0336
vn -0.8283 -0.5603 0.0000
vn -0.9628 0.1999 -0.1817
vn -0.6754 0.7375 0.0000
vn -0.5266 0.7474 0.4051
vn -0.6803 0.4032 0.6121
vn -0.6160 0.6293 0.4738
vn -0.7901 0.1280 0.5995
vn -0.6474 0.4020 0.6475
vn -0.5913 0.4077 0.6958
vn -0.0000 0.6757 0.7372
vn 0.6217 0.4420 0.6466
vn 0.6474 0.4021 0.6474
vn 0.6551 0.4031 0.6390
vn 0.6929 0.0231 0.7206
vn 0.8074 -0.0000 0.5900
vn -0.5594 0.1013 0.8226
vn 0.6083 0.0695 0.7907
vn 0.8018 -0.0302 0.5968
vn 0.6095 0.0254 0.7924
vn 0.7624 -0.0000 0.6470
vn -0.0107 -0.1128 0.9936
vn -0.2516 0.1541 0.9555
vn 0.1903 0.0816 0.9783
vn 0.1783 -0.6503 0.7385
vn -0.0971 -0.6521 0.7519
vn -0.0129 -0.5724 0.8199
vn -0.0331 -0.4623 0.8861
vn -0.8547 -0.4944 0.1582
vn -0.8241 -0.5665 -0.0000
vn -0.7216 -0.6880 0.0768
vn -0.8526 -0.5111 -0.1092
vn -0.9696 0.0573 0.2380
vn -0.9624 0.1319 -0.2373
vn 0.9923 -0.1240 0.0000
vn 0.9696 0.0573 0.2380
vn 0.9624 0.1318 -0.2373
vn 0.8526 -0.5111 -0.1092
vn 0.7216 -0.6880 0.0768
vn 0.8547 -0.4944 0.1582
vn -0.2374 0.1319 0.9624
vn -0.9562 0.1520 -0.2502
vn -0.7533 -0.6507 -0.0959
vn 0.0000 0.3927 0.9197
vn -0.2062 0.0031 0.9785
vn 0.4843 0.7153 0.5038
vn 0.7680 0.2280 0.5985
vn 0.6217 0.4421 0.6466
vn 0.5471 0.2128 0.8096
vn 0.6475 0.4020 0.6474
vn 0.0063 -0.3918 0.9200
vn 0.6929 0.0230 0.7206
vn 0.6082 0.0695 0.7907
vn 0.8018 -0.0301 0.5968
vn 0.7624 -0.0000 0.6471
vn 0.1903 0.0817 0.9783
vn 0.1783 -0.6503 0.7384
vn -0.9624 0.1319 -0.2374
vn 0.9624 0.1318 -0.2374
vn 0.7208 -0.0046 0.6931
vn 0.6675 -0.3773 0.6419
vn 0.0598 0.0308 0.9977
vn 0.9999 0.0135 -0.0000
vn 0.7925 -0.0150 0.6096
vn 0.3040 0.0649 0.9505
vn 0.9997 0.0261 -0.0000
vn 0.6474 0.4020 0.6475
vn 0.5913 0.4077 0.6958
vn 0.6160 0.6293 0.4738
vn -0.9783 0.0817 0.1903
vn -0.7384 -0.6503 0.1783
vn -0.8198 -0.5724 -0.0128
vn -0.8288 -0.5596 0.0000
vn -0.0096 -0.1139 0.9934
vn -0.2501 0.1519 0.9562
vn 0.1908 0.0795 0.9784
vn 0.1785 -0.6491 0.7394
vn -0.0959 -0.6507 0.7533
vn -0.0116 -0.5719 0.8203
vn -0.0336 -0.4625 0.8860
vn 0.9624 0.1319 -0.2374
vn 0.0000 0.3618 0.9322
vn 0.9323 0.3618 -0.0000
vn -0.7208 -0.0046 0.6931
vn -0.7792 -0.0050 0.6268
vn -0.6549 0.0027 0.7557
vn -0.6931 -0.0046 0.7208
vn -0.6268 -0.0050 0.7792
vn -0.6931 -0.0076 0.7208
vn -0.8104 0.0000 0.5859
vn -0.7557 0.0027 0.6549
vn -0.9947 -0.1027 0.0000
vn -0.7305 0.3882 0.5619
vn -0.5415 -0.6431 0.5415
vn 0.5415 -0.6431 0.5415
vn -0.9945 -0.1048 -0.0000
vn 0.8495 0.5276 0.0000
vn -0.9947 -0.1026 0.0000
usemtl Tex_0073_0.dds.002
s off
f 1/1/1 3/2/2 2/3/1
f 2/3/1 3/2/1 4/4/3
f 3/2/4 5/5/5 4/4/6
f 4/4/7 5/5/7 6/6/8
f 5/5/9 7/7/10 6/6/11
f 6/6/12 7/7/10 8/8/10
f 9/9/13 11/10/14 10/11/13
f 10/11/13 11/10/13 12/12/15
f 11/10/16 13/13/17 12/12/18
f 12/12/19 13/13/20 14/14/21
f 13/13/22 15/15/23 14/14/24
f 14/14/25 15/15/23 16/16/23
f 17/17/26 19/18/27 18/19/26
f 18/19/26 19/18/28 20/20/29
f 19/18/30 21/21/31 20/20/32
f 20/20/33 21/21/33 22/22/34
f 21/21/35 23/23/10 22/22/36
f 22/22/37 23/23/10 24/24/10
f 25/25/13 27/26/38 26/27/13
f 26/27/13 27/26/39 28/28/15
f 27/26/40 29/29/17 28/28/18
f 28/28/19 29/29/20 30/30/21
f 29/29/41 31/31/23 30/30/24
f 30/30/42 31/31/23 32/32/23
f 33/33/26 35/34/43 34/35/26
f 34/35/26 35/34/28 36/36/44
f 35/34/30 37/37/45 36/36/46
f 36/36/47 37/37/48 38/38/34
f 37/37/49 39/39/10 38/38/36
f 38/38/37 39/39/10 40/40/10
f 41/41/13 43/42/50 42/43/13
f 42/43/13 43/42/13 44/44/51
f 43/42/52 45/45/53 44/44/54
f 44/44/55 45/45/56 46/46/57
f 45/45/58 47/47/59 46/46/60
f 46/46/61 47/47/59 48/48/59
f 49/49/62 51/50/63 50/51/62
f 50/51/62 51/50/64 52/52/65
f 51/50/66 53/53/67 52/52/68
f 52/52/69 53/53/70 54/54/71
f 53/53/72 55/55/59 54/54/73
f 54/54/74 55/55/59 56/56/59
f 57/57/75 59/58/76 58/59/77
f 58/59/78 59/58/79 60/60/80
f 59/58/81 61/61/82 60/60/83
f 60/60/84 61/61/85 62/62/86
f 61/61/87 63/63/88 62/62/88
f 64/64/10 66/65/89 65/66/10
f 65/66/10 66/65/90 67/67/91
f 66/65/92 68/68/93 67/67/94
f 67/67/95 68/68/96 69/69/97
f 68/68/98 70/70/99 69/69/100
f 71/71/13 73/72/101 72/73/102
f 72/73/103 73/72/104 74/74/105
f 73/72/106 75/75/107 74/74/108
f 74/74/109 75/75/110 76/76/111
f 75/75/112 77/77/111 76/76/111
f 78/78/13 80/79/113 79/80/114
f 79/80/115 80/79/116 81/81/117
f 80/79/118 82/82/119 81/81/120
f 81/81/121 82/82/122 83/83/123
f 82/82/124 84/84/123 83/83/123
f 85/85/125 87/86/126 86/87/125
f 86/87/125 87/86/125 88/88/127
f 87/86/128 89/89/129 88/88/130
f 88/88/131 89/89/132 90/90/133
f 89/89/134 91/91/135 90/90/136
f 92/92/23 94/93/137 93/94/23
f 93/94/23 94/93/138 95/95/139
f 94/93/140 96/96/141 95/95/142
f 95/95/143 96/96/144 97/97/145
f 96/96/146 98/98/13 97/97/147
f 99/99/26 101/100/148 100/101/26
f 100/101/26 101/100/149 102/102/150
f 101/100/151 103/103/152 102/102/153
f 102/102/154 103/103/155 104/104/8
f 103/103/156 105/105/10 104/104/157
f 106/106/13 108/107/51 107/108/158
f 107/108/159 108/107/160 109/109/161
f 108/107/162 110/110/163 109/109/164
f 109/109/165 110/110/166 111/111/10
f 110/110/167 112/112/10 111/111/10
f 113/113/1 115/114/168 114/115/169
f 114/115/170 115/114/171 116/116/172
f 115/114/173 117/117/174 116/116/175
f 116/116/176 117/117/177 118/118/10
f 117/117/178 119/119/10 118/118/10
f 120/120/86 122/121/179 121/122/86
f 121/122/86 122/121/180 123/123/181
f 122/121/182 124/124/183 123/123/184
f 123/123/185 124/124/186 125/125/187
f 124/124/188 126/126/189 125/125/190
f 127/127/13 129/128/191 128/129/102
f 128/129/103 129/128/192 130/130/193
f 129/128/194 131/131/195 130/130/196
f 130/130/197 131/131/198 132/132/199
f 131/131/200 133/133/199 132/132/199
f 134/134/13 136/135/113 135/136/114
f 135/136/201 136/135/116 137/137/117
f 136/135/202 138/138/119 137/137/120
f 137/137/121 138/138/122 139/139/123
f 138/138/124 140/140/123 139/139/123
f 141/141/125 143/142/203 142/143/125
f 142/143/125 143/142/204 144/144/205
f 143/142/206 145/145/207 144/144/130
f 144/144/208 145/145/132 146/146/133
f 145/145/134 147/147/135 146/146/136
f 148/148/23 150/149/209 149/150/23
f 149/150/23 150/149/138 151/151/139
f 150/149/140 152/152/141 151/151/142
f 151/151/143 152/152/144 153/153/210
f 152/152/146 154/154/13 153/153/147
f 155/155/26 157/156/211 156/157/26
f 156/157/26 157/156/149 158/158/150
f 157/156/151 159/159/152 158/158/212
f 158/158/154 159/159/155 160/160/8
f 159/159/156 161/161/10 160/160/157
f 162/162/13 164/163/51 163/164/213
f 163/164/214 164/163/160 165/165/161
f 164/163/162 166/166/163 165/165/164
f 165/165/157 166/166/166 167/167/10
f 166/166/167 168/168/10 167/167/10
f 169/169/62 171/170/215 170/171/216
f 170/171/217 171/170/218 172/172/219
f 171/170/220 173/173/174 172/172/221
f 172/172/222 173/173/223 174/174/10
f 173/173/224 175/175/10 174/174/10
f 176/176/88 178/177/225 177/178/88
f 177/178/88 178/177/180 179/179/226
f 178/177/182 180/180/183 179/179/227
f 179/179/228 180/180/186 181/181/229
f 180/180/230 182/182/189 181/181/190
f 183/183/13 185/184/231 184/185/147
f 184/185/232 185/184/233 186/186/234
f 185/184/235 187/187/236 186/186/237
f 186/186/238 187/187/239 188/188/240
f 187/187/241 189/189/240 188/188/240
f 190/190/13 192/191/242 191/192/243
f 191/192/244 192/191/245 193/193/246
f 192/191/247 194/194/248 193/193/249
f 193/193/250 194/194/251 195/195/240
f 194/194/252 196/196/240 195/195/240
f 197/197/26 199/198/253 198/199/254
f 198/199/255 199/198/256 200/200/257
f 199/198/258 201/201/259 200/200/260
f 200/200/261 201/201/262 202/202/59
f 201/201/263 203/203/59 202/202/59
f 204/204/189 206/205/264 205/206/190
f 205/206/265 206/205/266 207/207/267
f 206/205/268 208/208/206 207/207/269
f 207/207/270 208/208/271 209/209/272
f 208/208/273 210/210/272 209/209/272
f 211/211/59 213/212/274 212/213/58
f 212/213/275 213/212/276 214/214/277
f 213/212/278 215/215/279 214/214/280
f 214/214/281 215/215/282 216/216/26
f 215/215/283 217/217/26 216/216/26
f 218/218/284 220/219/285 219/220/286
f 219/220/287 220/219/288 221/221/289
f 220/219/290 222/222/291 221/221/292
f 221/221/293 222/222/294 223/223/295
f 224/224/26 226/225/296 225/226/297
f 225/226/298 226/225/299 227/227/300
f 226/225/301 228/228/302 227/227/303
f 227/227/304 228/228/305 229/229/10
f 230/230/26 232/231/306 231/232/307
f 231/232/308 232/231/309 233/233/310
f 232/231/311 234/234/312 233/233/313
f 233/233/314 234/234/315 235/235/10
f 236/236/316 238/237/317 237/238/316
f 237/238/316 238/237/318 239/239/319
f 238/237/320 240/240/295 239/239/321
f 239/239/322 240/240/295 241/241/295
f 242/242/323 244/243/324 243/244/325
f 243/244/326 244/243/327 245/245/328
f 244/243/329 246/246/330 245/245/331
f 245/245/332 246/246/330 247/247/330
f 248/248/333 250/249/334 249/250/335
f 249/250/336 250/249/337 251/251/338
f 250/249/339 252/252/340 251/251/341
f 251/251/342 252/252/340 253/253/340
f 254/254/343 256/255/344 255/256/345
f 255/256/346 256/255/347 257/257/348
f 256/255/349 258/258/350 257/257/351
f 257/257/352 258/258/353 259/259/354
f 260/260/355 262/261/356 261/262/357
f 261/262/358 262/261/359 263/263/360
f 262/261/361 264/264/362 263/263/363
f 263/263/364 264/264/365 265/265/295
f 266/266/13 268/267/366 267/268/13
f 267/268/13 268/267/367 269/269/51
f 268/267/368 270/270/369 269/269/370
f 269/269/55 270/270/369 271/271/369
f 272/272/1 274/273/371 273/274/1
f 273/274/1 274/273/372 275/275/373
f 274/273/374 276/276/375 275/275/376
f 275/275/377 276/276/378 277/277/379
f 278/278/323 280/279/380 279/280/381
f 279/280/382 280/279/383 281/281/384
f 280/279/385 282/282/386 281/281/387
f 281/281/388 282/282/386 283/283/386
f 284/284/333 286/285/334 285/286/335
f 285/286/389 286/285/390 287/287/391
f 286/285/339 288/288/340 287/287/341
f 287/287/392 288/288/340 289/289/340
f 290/290/343 292/291/344 291/292/345
f 291/292/346 292/291/393 293/293/348
f 292/291/349 294/294/394 293/293/351
f 293/293/352 294/294/395 295/295/354
f 296/296/355 298/297/356 297/298/357
f 297/298/396 298/297/359 299/299/397
f 298/297/398 300/300/362 299/299/363
f 299/299/399 300/300/365 301/301/295
f 302/302/13 304/303/400 303/304/13
f 303/304/13 304/303/367 305/305/51
f 304/303/368 306/306/369 305/305/54
f 305/305/55 306/306/369 307/307/369
f 308/308/62 310/309/63 309/310/62
f 309/310/62 310/309/64 311/311/65
f 310/309/401 312/312/402 311/311/403
f 311/311/69 312/312/404 313/313/379
f 314/314/405 316/315/17 315/316/406
f 315/316/407 316/315/408 317/317/21
f 316/315/41 318/318/23 317/317/24
f 317/317/42 318/318/23 319/319/23
f 320/320/409 322/321/143 321/322/410
f 321/322/411 322/321/142 323/323/140
f 322/321/139 324/324/23 323/323/138
f 323/323/209 324/324/23 325/325/23
f 326/326/316 328/327/412 327/328/316
f 327/328/316 328/327/413 329/329/319
f 328/327/414 330/330/295 329/329/415
f 329/329/416 330/330/295 331/331/295
f 332/332/417 334/333/418 333/334/419
f 333/334/420 334/333/421 335/335/422
f 334/333/423 336/336/424 335/335/425
f 335/335/426 336/336/427 337/337/354
f 338/338/26 340/339/27 339/340/26
f 339/340/26 340/339/28 341/341/428
f 340/339/30 342/342/429 341/341/46
f 341/341/47 342/342/430 343/343/33
f 344/344/26 346/345/431 345/346/26
f 345/346/26 346/345/149 347/347/150
f 346/345/151 348/348/432 347/347/153
f 347/347/154 348/348/433 349/349/7
f 350/350/284 352/351/285 351/352/286
f 351/352/287 352/351/434 353/353/289
f 352/351/290 354/354/291 353/353/292
f 353/353/293 354/354/294 355/355/295
f 356/356/435 358/357/436 357/358/437
f 357/358/438 358/357/439 359/359/440
f 358/357/441 360/360/442 359/359/443
f 361/361/330 363/362/444 362/363/330
f 362/363/330 363/362/445 364/364/446
f 363/362/447 365/365/448 364/364/449
f 366/366/340 368/367/450 367/368/451
f 367/368/452 368/367/453 369/369/454
f 368/367/455 370/370/456 369/369/457
f 371/371/458 373/372/459 372/373/460
f 372/373/461 373/372/462 374/374/463
f 373/372/464 375/375/465 374/374/465
f 376/376/466 378/377/467 377/378/468
f 377/378/469 378/377/470 379/379/240
f 378/377/471 380/380/240 379/379/240
f 381/381/472 383/382/473 382/383/474
f 382/383/475 383/382/476 384/384/240
f 383/382/477 385/385/240 384/384/240
f 386/386/442 388/387/478 387/388/479
f 387/388/480 388/387/481 389/389/482
f 388/387/483 390/390/482 389/389/482
f 391/391/484 393/392/485 392/393/486
f 392/393/487 393/392/251 394/394/240
f 393/392/252 395/395/240 394/394/240
f 396/396/472 398/397/236 397/398/488
f 397/398/489 398/397/239 399/399/240
f 398/397/241 400/400/240 399/399/240
f 401/401/316 403/402/490 402/403/491
f 402/403/492 403/402/493 404/404/295
f 403/402/494 405/405/295 404/404/295
f 406/406/495 408/407/496 407/408/497
f 407/408/498 408/407/499 409/409/500
f 408/407/501 410/410/442 409/409/502
f 411/411/465 413/412/503 412/413/504
f 412/413/505 413/412/506 414/414/507
f 413/412/508 415/415/509 414/414/510
f 416/416/189 418/417/264 417/418/511
f 417/418/265 418/417/266 419/419/512
f 418/417/268 420/420/513 419/419/514
f 421/421/26 423/422/253 422/423/254
f 422/423/255 423/422/256 424/424/515
f 423/422/258 425/425/379 424/424/516
f 426/426/26 428/427/281 427/428/517
f 427/428/518 428/427/519 429/429/520
f 428/427/277 430/430/369 429/429/521
f 431/431/522 433/432/523 432/433/524
f 432/433/525 433/432/526 434/434/527
f 433/432/528 435/435/295 434/434/294
f 436/436/442 438/437/529 437/438/442
f 437/438/530 438/437/531 439/439/532
f 438/437/533 440/440/482 439/439/534
f 441/441/535 443/442/536 442/443/537
f 442/443/538 443/442/539 444/444/354
f 443/442/540 445/445/354 444/444/354
f 446/446/484 448/447/248 447/448/486
f 447/448/487 448/447/251 449/449/240
f 448/447/252 450/450/240 449/449/240
f 451/451/472 453/452/236 452/453/488
f 452/453/489 453/452/239 454/454/240
f 453/452/241 455/455/240 454/454/240
f 456/456/316 458/457/541 457/458/491
f 457/458/492 458/457/493 459/459/295
f 458/457/494 460/460/295 459/459/295
f 461/461/495 463/462/542 462/463/497
f 462/463/498 463/462/543 464/464/500
f 463/462/501 465/465/442 464/464/502
f 466/466/463 468/467/503 467/468/504
f 467/468/505 468/467/506 469/469/507
f 468/467/508 470/470/509 469/469/510
f 471/471/544 473/472/545 472/473/511
f 472/473/546 473/472/547 474/474/548
f 473/472/549 475/475/550 474/474/514
f 476/476/26 478/477/551 477/478/254
f 477/478/255 478/477/256 479/479/552
f 478/477/258 480/480/379 479/479/516
f 481/481/26 483/482/281 482/483/517
f 482/483/553 483/482/554 484/484/520
f 483/482/277 485/485/369 484/484/555
f 486/486/522 488/487/523 487/488/556
f 487/488/557 488/487/526 489/489/527
f 488/487/528 490/490/295 489/489/294
f 491/491/442 493/492/529 492/493/442
f 492/493/442 493/492/531 494/494/532
f 493/492/533 495/495/482 494/494/558
f 496/496/535 498/497/536 497/498/559
f 497/498/538 498/497/539 499/499/354
f 498/497/540 500/500/354 499/499/354
f 501/501/560 503/502/561 502/503/562
f 502/503/563 503/502/198 504/504/199
f 503/502/200 505/505/199 504/504/199
f 506/506/564 508/507/119 507/508/565
f 507/508/566 508/507/122 509/509/123
f 508/507/124 510/510/123 509/509/123
f 511/511/567 513/512/207 512/513/568
f 512/513/569 513/512/132 514/514/133
f 513/512/134 515/515/135 514/514/136
f 516/516/435 518/517/436 517/518/570
f 517/518/571 518/517/439 519/519/572
f 518/517/441 520/520/442 519/519/573
f 521/521/574 523/522/575 522/523/576
f 522/523/577 523/522/578 524/524/579
f 523/522/580 525/525/295 524/524/365
f 526/526/535 528/527/536 527/528/581
f 527/528/538 528/527/539 529/529/354
f 528/527/540 530/530/354 529/529/354
f 531/531/442 533/532/529 532/533/442
f 532/533/442 533/532/531 534/534/532
f 533/532/533 535/535/482 534/534/558
f 536/536/582 538/537/582 537/538/582
f 537/538/582 538/537/582 539/539/582
f 540/540/13 542/541/13 541/542/13
f 541/542/13 542/541/13 543/543/13
f 544/544/13 546/545/13 545/546/13
f 545/546/13 546/545/13 547/547/13
f 548/548/13 550/549/13 549/550/13
f 549/550/13 550/549/13 551/551/13
f 552/552/13 554/553/13 553/554/13
f 553/554/13 554/553/13 555/555/13
f 556/556/272 558/557/272 557/558/272
f 557/558/272 558/557/272 559/559/272
f 560/560/59 562/561/59 561/562/59
f 561/562/59 562/561/59 563/563/59
f 564/564/59 566/565/59 565/566/59
f 565/566/59 566/565/59 567/567/59
f 568/568/59 570/569/59 569/570/59
f 569/570/59 570/569/59 571/571/59
f 572/572/59 574/573/59 573/574/59
f 573/574/59 574/573/59 575/575/59
f 576/576/272 578/577/272 577/578/272
f 577/578/583 578/577/583 579/579/583
f 580/580/59 582/581/59 581/582/59
f 581/582/59 582/581/59 583/583/59
f 584/584/59 586/585/59 585/586/59
f 585/586/59 586/585/59 587/587/59
f 588/588/59 590/589/59 589/590/59
f 589/590/59 590/589/59 591/591/59
f 592/592/59 594/593/59 593/594/59
f 593/594/59 594/593/59 595/595/59
f 596/596/13 598/597/13 597/598/13
f 597/598/13 598/597/13 599/599/13
f 600/600/584 602/601/382 601/602/585
f 601/602/586 602/601/381 603/603/323
f 604/604/13 606/605/13 605/606/13
f 605/606/13 606/605/13 607/607/13
f 608/608/125 610/609/125 609/610/125
f 609/610/125 610/609/125 611/611/125
f 612/612/386 614/613/386 613/614/386
f 613/614/386 614/613/386 615/615/386
f 616/616/62 618/617/62 617/618/62
f 617/618/62 618/617/62 619/619/62
f 620/620/587 622/621/588 621/622/589
f 621/622/590 622/621/591 623/623/33
f 624/624/10 626/625/10 625/626/10
f 625/626/10 626/625/10 627/627/10
f 628/628/10 630/629/10 629/630/10
f 629/630/10 630/629/10 631/631/10
f 632/632/10 634/633/10 633/634/10
f 633/634/10 634/633/10 635/635/10
f 636/636/592 638/637/592 637/638/592
f 639/639/340 641/640/340 640/641/340
f 642/642/75 644/643/75 643/644/75
f 645/645/593 647/646/593 646/647/593
f 648/648/333 650/649/333 649/650/333
f 651/651/333 653/652/333 652/653/333
f 654/654/456 656/655/456 655/656/456
f 657/657/26 659/658/26 658/659/26
f 660/660/26 662/661/26 661/662/26
f 663/663/99 665/664/99 664/665/99
f 666/666/594 668/667/594 667/668/594
f 669/669/594 671/670/594 670/671/594
f 672/672/442 674/673/442 673/674/442
f 675/675/10 677/676/10 676/677/10
f 678/678/10 680/679/10 679/680/10
f 681/681/13 683/682/13 682/683/13
f 684/684/333 686/685/333 685/686/333
f 687/687/323 689/688/323 688/689/323
f 690/690/13 692/691/13 691/692/13
f 693/693/594 695/694/594 694/695/594
f 696/696/13 698/697/13 697/698/13
f 699/699/595 701/700/595 700/701/595
f 702/702/316 704/703/316 703/704/316
f 705/705/596 707/706/596 706/707/596
f 708/708/463 710/709/463 709/710/463
f 711/711/597 713/712/597 712/713/597
f 714/714/13 716/715/13 715/716/13
f 717/717/1 719/718/1 718/719/1
f 720/720/189 722/721/189 721/722/189
f 723/723/544 725/724/544 724/725/544
f 726/726/26 728/727/26 727/728/26
f 729/729/26 731/730/26 730/731/26
f 732/732/284 734/733/284 733/734/284
f 735/735/594 737/736/594 736/737/594
f 738/738/595 740/739/595 739/740/595
f 741/741/482 743/742/482 742/743/482
f 744/744/10 746/745/10 745/746/10
f 747/747/535 749/748/535 748/749/535
f 750/750/13 752/751/13 751/752/13
f 753/753/333 755/754/333 754/755/333
f 756/756/323 758/757/323 757/758/323
f 759/759/13 761/760/13 760/761/13
f 762/762/594 764/763/594 763/764/594
f 765/765/13 767/766/13 766/767/13
f 768/768/595 770/769/595 769/770/595
f 771/771/316 773/772/316 772/773/316
f 774/774/596 776/775/596 775/776/596
f 777/777/463 779/778/463 778/779/463
f 780/780/135 782/781/135 781/782/135
f 783/783/13 785/784/13 784/785/13
f 786/786/62 788/787/62 787/788/62
f 789/789/189 791/790/189 790/791/189
f 792/792/544 794/793/544 793/794/544
f 795/795/26 797/796/26 796/797/26
f 798/798/26 800/799/26 799/800/26
f 801/801/284 803/802/284 802/803/284
f 804/804/594 806/805/594 805/806/594
f 807/807/595 809/808/595 808/809/595
f 810/810/482 812/811/482 811/812/482
f 813/813/10 815/814/10 814/815/10
f 816/816/535 818/817/535 817/818/535
f 819/819/13 821/820/13 820/821/13
f 822/822/13 824/823/13 823/824/13
f 825/825/409 827/826/409 826/827/409
f 828/828/405 830/829/405 829/830/405
f 831/831/595 833/832/595 832/833/595
f 834/834/594 836/835/594 835/836/594
f 837/837/135 839/838/135 838/839/135
f 840/840/598 842/841/598 841/842/598
f 843/843/355 845/844/355 844/845/355
f 846/846/26 848/847/26 847/848/26
f 849/849/189 851/850/189 850/851/189
f 852/852/595 854/853/595 853/854/595
f 855/855/594 857/856/594 856/857/594
f 858/858/535 860/859/535 859/860/535
f 861/861/59 863/862/59 862/863/59
f 864/864/482 866/865/482 865/866/482
