# Blender v3.6.3 OBJ File: 'untitled.blend'
# www.blender.org
mtllib Mesh_0226.mtl
o Mesh_0226_Mesh.053
v 34.591568 7.913203 22.447189
v 34.845566 7.913203 22.193192
v 34.399040 8.065730 22.447189
v 34.619263 8.187193 22.193192
v 34.178062 8.250972 22.447189
v 34.369576 8.402078 22.193192
v 31.035524 8.643149 22.447189
v 31.035524 8.904972 22.193192
v 27.701517 8.402078 22.193192
v 31.035524 8.643149 22.447189
v 27.701517 8.402078 22.193192
v 27.893034 8.250972 22.447189
v 27.451841 8.187193 22.193192
v 27.672056 8.065730 22.447189
v 27.225527 7.913203 22.193192
v 27.479525 7.913203 22.447189
v 34.586739 7.984476 23.684937
v 34.591568 7.913203 22.447189
v 34.399040 8.065730 23.684937
v 34.399040 8.065730 22.447189
v 34.178062 8.250972 23.684937
v 34.178062 8.250972 22.447189
v 27.893034 8.250972 23.684937
v 27.672056 8.065730 22.447189
v 27.672056 8.065730 23.684937
v 27.479525 7.913203 22.447189
v 27.484354 7.984476 23.684937
v 27.484354 6.529056 22.445160
v 27.479525 7.913203 22.447189
v 27.225527 6.529056 22.193192
v 27.225527 7.913203 22.193192
v 34.586739 6.529056 22.445160
v 34.845566 6.529056 22.193192
v 34.591568 7.913203 22.447189
v 34.845566 7.913203 22.193192
v 27.893034 8.250972 22.447189
v 27.672056 8.065730 22.447189
v 27.893034 8.250972 23.684937
vt 1.103516 -0.231445
vt 1.103516 -0.281250
vt 0.900391 -0.223633
vt 0.900391 -0.283203
vt 1.103516 -0.339844
vt 0.900391 -0.348633
vt 1.102539 -0.666016
vt 0.898438 -0.666016
vt 0.900391 -0.348633
vt 1.102539 -0.666016
vt 1.103516 -0.339844
vt 0.900391 -0.348633
vt 0.900391 -0.283203
vt 1.103516 -0.281250
vt 0.900391 -0.223633
vt 1.103516 -0.231445
vt 1.939453 -0.233398
vt 1.939453 -0.283203
vt 1.103516 -0.231445
vt 1.103516 -0.281250
vt 1.939453 -0.340820
vt 1.103516 -0.339844
vt 1.939453 -0.340820
vt 1.939453 -0.283203
vt 1.103516 -0.281250
vt 1.103516 -0.231445
vt 1.939453 -0.233398
vt -0.941406 -0.988281
vt -1.067383 -0.988281
vt -0.941406 0.000000
vt -1.067383 0.000000
vt -0.941406 -0.978516
vt -0.941406 0.000000
vt -1.067383 -0.978516
vt -1.067383 0.000000
vt 1.103516 -0.339844
vt 1.939453 -0.340820
vt 1.103516 -0.281250
vn -0.5275 -0.6659 -0.5275
vn -0.5112 -0.7533 -0.4138
vn -0.5526 -0.4564 -0.6974
vn -0.5706 -0.4713 -0.6725
vn -0.4458 -0.5992 -0.6650
vn -0.1618 -0.5370 -0.8279
vn -0.4500 -0.6425 -0.6202
vn -0.4746 -0.5515 -0.6860
vn -0.5521 -0.6316 -0.5443
vn -0.0906 -0.7457 -0.6601
vn -0.0123 -0.9182 -0.3958
vn -0.0850 -0.9508 -0.2980
vn -0.3360 -0.6238 -0.7057
vn -0.1096 -0.6156 -0.7804
vn -0.1150 -0.7624 -0.6368
vn 0.1095 -0.6110 -0.7840
vn 0.1045 -0.6925 -0.7138
vn 0.1150 -0.7624 -0.6368
vn 0.1022 -0.8191 -0.5644
vn 0.0851 -0.6974 -0.7116
vn 0.0910 -0.9526 -0.2903
vn 0.5445 -0.6326 -0.5508
vn 0.5100 -0.2952 -0.8079
vn 0.5287 -0.5510 -0.6457
vn 0.2274 -0.5493 -0.8041
vn 0.4383 -0.5750 -0.6909
vn 0.4535 -0.6259 -0.6344
vn 0.5831 -0.4792 -0.6560
vn 0.5784 -0.3447 -0.7393
vn 0.4990 -0.4121 -0.7623
vn 0.5318 -0.7548 -0.3840
vn 0.5275 -0.6659 -0.5275
vn 0.4367 -0.7865 -0.4367
vn -0.3968 -0.9165 0.0512
vn -0.3907 -0.8956 0.2127
vn -0.1688 -0.9841 0.0560
vn -0.6207 -0.7835 -0.0279
vn -0.6984 -0.7157 0.0027
vn -0.6210 -0.7838 -0.0035
vn -0.6196 -0.7744 0.1280
vn -0.6424 -0.7664 0.0000
vn -0.6602 -0.7510 -0.0055
vn 0.6424 -0.7664 0.0000
vn 0.6196 -0.7744 0.1280
vn 0.6603 -0.7510 -0.0055
vn 0.6210 -0.7838 -0.0035
vn 0.6984 -0.7157 0.0027
vn 0.6207 -0.7835 -0.0279
vn 0.3907 -0.8956 0.2127
vn 0.3967 -0.9165 0.0512
vn 0.1688 -0.9841 0.0560
vn 0.6975 0.0035 -0.7165
vn 0.6975 0.0057 -0.7165
vn 0.6891 0.0035 -0.7246
vn 0.7071 -0.0023 -0.7071
vn 0.7153 -0.0000 -0.6988
vn 0.7071 0.0000 -0.7071
vn -0.6975 0.0035 -0.7165
vn -0.6892 0.0035 -0.7246
vn -0.6975 0.0057 -0.7165
vn -0.7153 0.0000 -0.6989
vn -0.7071 -0.0022 -0.7071
vn -0.7071 0.0000 -0.7071
usemtl Tex_0085_1.dds
s off
f 1/1/1 3/2/2 2/3/1
f 2/3/3 3/2/3 4/4/4
f 3/2/5 5/5/6 4/4/7
f 4/4/8 5/5/8 6/6/9
f 5/5/10 7/7/11 6/6/12
f 6/6/13 7/7/14 8/8/15
f 7/7/16 9/9/17 8/8/18
f 10/10/19 12/11/20 11/12/21
f 11/12/22 12/11/23 13/13/24
f 12/11/25 14/14/26 13/13/27
f 13/13/28 14/14/29 15/15/30
f 14/14/31 16/16/32 15/15/33
f 17/17/34 19/18/35 18/19/36
f 18/19/37 19/18/38 20/20/39
f 19/18/40 21/21/41 20/20/42
f 20/20/41 21/21/41 22/22/41
f 23/23/43 25/24/44 24/25/45
f 24/25/46 25/24/47 26/26/48
f 25/24/49 27/27/50 26/26/51
f 28/28/52 30/29/53 29/30/54
f 29/30/55 30/29/56 31/31/57
f 32/32/58 34/33/59 33/34/60
f 33/34/61 34/33/62 35/35/63
f 36/36/43 38/37/43 37/38/43
