# Blender v3.6.3 OBJ File: 'untitled.blend'
# www.blender.org
mtllib Mesh_0262.mtl
o Mesh_0262_Mesh.179
v -22.304585 24.891985 22.571495
v -22.304585 23.367985 22.571487
v -19.507786 24.892046 22.571487
v -19.507786 23.368000 22.571480
v -7.064585 24.891985 22.571495
v -9.861368 24.892046 22.571487
v -7.064585 23.367985 22.571487
v -9.861368 23.368000 22.571480
vt -0.000977 -0.155273
vt 0.998047 -0.155273
vt -0.000977 -0.942383
vt 0.998047 -0.942383
vt -0.000977 -0.155273
vt -0.000977 -0.942383
vt 0.998047 -0.155273
vt 0.998047 -0.942383
vn -0.0000 0.0000 -1.0000
usemtl Tex_0052_0.dds.016
s off
f 1/1/1 3/2/1 2/3/1
f 2/3/1 3/2/1 4/4/1
f 5/5/1 7/6/1 6/7/1
f 6/7/1 7/6/1 8/8/1
