# Blender v3.6.3 OBJ File: 'untitled.blend'
# www.blender.org
mtllib Mesh_0266.mtl
o Mesh_0266_Mesh.181
v -22.304585 24.891991 -27.714821
v -19.507790 24.891991 -27.714897
v -22.304585 23.367990 -27.714870
v -19.507790 23.367990 -27.714848
v -7.064585 24.891991 -27.714821
v -7.064585 23.367990 -27.714870
v -9.861378 24.891991 -27.714897
v -9.861378 23.367990 -27.714848
vt -0.000977 -0.155273
vt -0.000977 -0.942383
vt 0.998047 -0.155273
vt 0.998047 -0.942383
vt -0.000977 -0.155273
vt 0.998047 -0.155273
vt -0.000977 -0.942383
vt 0.998047 -0.942383
vn 0.0000 -0.0000 1.0000
usemtl Tex_0052_0.dds.017
s off
f 1/1/1 3/2/1 2/3/1
f 2/3/1 3/2/1 4/4/1
f 5/5/1 7/6/1 6/7/1
f 6/7/1 7/6/1 8/8/1
