# Blender v3.6.3 OBJ File: 'untitled.blend'
# www.blender.org
mtllib Mesh_0379.mtl
o Mesh_0379_Mesh.108
v -35.322083 12.025434 47.978508
v -39.770561 9.842177 47.978508
v -35.004585 12.022640 47.850067
v -40.084583 9.482641 47.850067
v -35.004585 11.853298 47.721626
v -40.084583 9.313299 47.721626
v -35.004585 11.712201 47.850067
v -40.084583 9.172201 47.850067
v -40.084583 8.325544 47.721626
v -35.004585 10.865543 47.721626
v -40.084583 8.466641 47.593193
v -35.004585 11.006641 47.593193
v -40.084583 8.607764 47.593193
v -35.004585 11.147764 47.593193
v -40.084583 8.748859 47.850067
v -35.004585 11.288859 47.850067
v -40.402084 9.485435 47.978508
v -44.850574 7.302168 47.978508
v -40.084583 9.482641 47.850067
v -45.164581 6.942644 47.850067
v -40.084583 9.313299 47.721626
v -45.164581 6.773301 47.721626
v -40.084583 9.172201 47.850067
v -45.164581 6.632198 47.850067
v -45.164581 5.785539 47.721626
v -40.084583 8.325544 47.721626
v -45.164581 5.926643 47.593193
v -40.084583 8.466641 47.593193
v -45.164581 6.067758 47.593193
v -40.084583 8.607764 47.593193
v -45.164581 6.208861 47.850067
v -40.084583 8.748859 47.850067
v -45.482082 6.945435 47.978508
v -49.930561 4.762178 47.978508
v -45.164581 6.942644 47.850067
v -50.244583 4.402641 47.850067
v -45.164581 6.773301 47.721626
v -50.244583 4.233299 47.721626
v -45.164581 6.632198 47.850067
v -50.244583 4.092202 47.850067
v -50.244583 3.245544 47.721626
v -45.164581 5.785539 47.721626
v -50.244583 3.386641 47.593193
v -45.164581 5.926643 47.593193
v -50.244583 3.527764 47.593193
v -45.164581 6.067758 47.593193
v -50.244583 3.668860 47.850067
v -45.164581 6.208861 47.850067
v -50.562080 4.405435 47.978508
v -55.010574 2.222168 47.978508
v -50.244583 4.402641 47.850067
v -55.324581 1.862646 47.850067
v -50.244583 4.233299 47.721626
v -55.324581 1.693304 47.721626
v -50.244583 4.092202 47.850067
v -55.324581 1.552195 47.850067
v -55.324581 0.705534 47.721626
v -50.244583 3.245544 47.721626
v -55.324581 0.846646 47.593193
v -50.244583 3.386641 47.593193
v -55.324581 0.987753 47.593193
v -50.244583 3.527764 47.593193
v -55.324581 1.128863 47.850067
v -50.244583 3.668860 47.850067
v -35.322083 12.025434 47.978508
v -35.322083 12.025434 48.228188
v -39.770561 9.842177 47.978508
v -39.770561 9.842177 48.228188
v -35.004585 10.724422 47.593193
v -40.084583 8.184422 47.593193
v -35.004585 10.159984 47.593193
v -40.084583 7.619983 47.593193
v -35.004585 10.865543 47.721626
v -40.084583 8.325544 47.721626
v -35.004585 10.724422 47.593193
v -40.084583 8.184422 47.593193
v -35.004585 11.712201 47.850067
v -40.084583 9.172201 47.850067
v -35.004585 11.288859 47.850067
v -40.084583 8.748859 47.850067
v -40.402084 9.485435 47.978508
v -40.402084 9.485435 48.228188
v -44.850574 7.302168 47.978508
v -44.850574 7.302168 48.228188
v -40.084583 8.184422 47.593193
v -45.164581 5.644423 47.593193
v -40.084583 7.619983 47.593193
v -45.164581 5.079983 47.593193
v -40.084583 8.325544 47.721626
v -45.164581 5.785539 47.721626
v -40.084583 8.184422 47.593193
v -45.164581 5.644423 47.593193
v -40.084583 9.172201 47.850067
v -45.164581 6.632198 47.850067
v -40.084583 8.748859 47.850067
v -45.164581 6.208861 47.850067
v -45.482082 6.945435 47.978508
v -45.482082 6.945435 48.228188
v -49.930561 4.762178 47.978508
v -49.930561 4.762178 48.228188
v -45.164581 5.644423 47.593193
v -50.244583 3.104422 47.593193
v -45.164581 5.079983 47.593193
v -50.244583 2.539983 47.593193
v -45.164581 5.785539 47.721626
v -50.244583 3.245544 47.721626
v -45.164581 5.644423 47.593193
v -50.244583 3.104422 47.593193
v -45.164581 6.632198 47.850067
v -50.244583 4.092202 47.850067
v -45.164581 6.208861 47.850067
v -50.244583 3.668860 47.850067
v -50.562080 4.405435 47.978508
v -50.562080 4.405435 48.228188
v -55.010574 2.222168 47.978508
v -55.010574 2.222168 48.228188
v -50.244583 3.104422 47.593193
v -55.324581 0.564424 47.593193
v -50.244583 2.539983 47.593193
v -55.324581 -0.000017 47.593193
v -50.244583 3.245544 47.721626
v -55.324581 0.705534 47.721626
v -50.244583 3.104422 47.593193
v -55.324581 0.564424 47.593193
v -50.244583 4.092202 47.850067
v -55.324581 1.552195 47.850067
v -50.244583 3.668860 47.850067
v -55.324581 1.128863 47.850067
vt 1.420898 1.045898
vt 1.496094 0.799805
vt -0.422852 1.047852
vt -0.498047 0.799805
vt 1.502930 0.655273
vt -0.504883 0.655273
vt 1.496094 0.794922
vt -0.498047 0.794922
vt -1.500977 -1.694336
vt -1.500977 -2.070312
vt 0.497070 -1.694336
vt 0.497070 -2.070312
vt -1.500977 -2.196289
vt 0.497070 -2.196289
vt -1.500977 -1.770508
vt 0.497070 -1.770508
vt 1.420898 1.045898
vt 1.496094 0.799805
vt -0.422852 1.047852
vt -0.498047 0.799805
vt 1.502930 0.655273
vt -0.504883 0.655273
vt 1.496094 0.794922
vt -0.498047 0.794922
vt -1.500977 -1.694336
vt -1.500977 -2.070312
vt 0.497070 -1.694336
vt 0.497070 -2.070312
vt -1.500977 -2.196289
vt 0.497070 -2.196289
vt -1.500977 -1.770508
vt 0.497070 -1.770508
vt 1.420898 1.045898
vt 1.496094 0.799805
vt -0.422852 1.047852
vt -0.498047 0.799805
vt 1.502930 0.655273
vt -0.504883 0.655273
vt 1.496094 0.794922
vt -0.498047 0.794922
vt -1.500977 -1.694336
vt -1.500977 -2.070312
vt 0.497070 -1.694336
vt 0.497070 -2.070312
vt -1.500977 -2.196289
vt 0.497070 -2.196289
vt -1.500977 -1.770508
vt 0.497070 -1.770508
vt 1.420898 1.045898
vt 1.496094 0.799805
vt -0.422852 1.047852
vt -0.498047 0.799805
vt 1.502930 0.655273
vt -0.504883 0.655273
vt 1.496094 0.794922
vt -0.498047 0.794922
vt -1.500977 -1.694336
vt -1.500977 -2.070312
vt 0.497070 -1.694336
vt 0.497070 -2.070312
vt -1.500977 -2.196289
vt 0.497070 -2.196289
vt -1.500977 -1.770508
vt 0.497070 -1.770508
vt 1.420898 1.045898
vt -0.422852 1.047852
vt 1.420898 1.397461
vt -0.422852 1.397461
vt 0.497070 -3.003906
vt 0.497070 -2.603516
vt -1.500977 -3.003906
vt -1.500977 -2.603516
vt 0.497070 -3.352539
vt 0.497070 -3.003906
vt -1.500977 -3.352539
vt -1.500977 -3.003906
vt 0.497070 -0.346680
vt 0.497070 -0.653320
vt -1.500977 -0.346680
vt -1.500977 -0.653320
vt 1.420898 1.045898
vt -0.422852 1.047852
vt 1.420898 1.397461
vt -0.422852 1.397461
vt 0.497070 -3.003906
vt 0.497070 -2.603516
vt -1.500977 -3.003906
vt -1.500977 -2.603516
vt 0.497070 -3.352539
vt 0.497070 -3.003906
vt -1.500977 -3.352539
vt -1.500977 -3.003906
vt 0.497070 -0.346680
vt 0.497070 -0.653320
vt -1.500977 -0.346680
vt -1.500977 -0.653320
vt 1.420898 1.045898
vt -0.422852 1.047852
vt 1.420898 1.397461
vt -0.422852 1.397461
vt 0.497070 -3.003906
vt 0.497070 -2.603516
vt -1.500977 -3.003906
vt -1.500977 -2.603516
vt 0.497070 -3.352539
vt 0.497070 -3.003906
vt -1.500977 -3.352539
vt -1.500977 -3.003906
vt 0.497070 -0.346680
vt 0.497070 -0.653320
vt -1.500977 -0.346680
vt -1.500977 -0.653320
vt 1.420898 1.045898
vt -0.422852 1.047852
vt 1.420898 1.397461
vt -0.422852 1.397461
vt 0.497070 -3.003906
vt 0.497070 -2.603516
vt -1.500977 -3.003906
vt -1.500977 -2.603516
vt 0.497070 -3.352539
vt 0.497070 -3.003906
vt -1.500977 -3.352539
vt -1.500977 -3.003906
vt 0.497070 -0.346680
vt 0.497070 -0.653320
vt -1.500977 -0.346680
vt -1.500977 -0.653320
vn -0.2951 0.6013 -0.7425
vn -0.2925 0.6181 -0.7297
vn -0.2587 0.5173 -0.8157
vn -0.2542 0.5146 -0.8189
vn -0.2799 0.5814 -0.7639
vn 0.2570 0.5691 -0.7811
vn -0.3131 0.6326 -0.7084
vn -0.2892 0.5785 -0.7627
vn -0.9485 0.1913 -0.2523
vn 0.9547 -0.2004 -0.2201
vn 0.3190 -0.6380 -0.7009
vn 0.4202 -0.8772 -0.2321
vn -0.2157 -0.6450 -0.7331
vn 0.0353 -0.6659 -0.7452
vn 0.7340 -0.4572 -0.5023
vn -0.4836 -0.0000 -0.8753
vn -0.4191 0.0094 -0.9079
vn -0.1240 0.2626 -0.9569
vn 0.2903 -0.0065 -0.9569
vn 0.1790 -0.3791 -0.9079
vn 0.6461 0.0000 -0.7633
vn -0.8887 0.4018 -0.2207
vn -0.4014 0.8028 -0.4410
vn -0.4284 0.9024 -0.0455
vn -0.0019 0.8665 -0.4992
vn -0.2919 0.6197 -0.7285
vn -0.3309 0.6741 -0.6604
vn -0.2599 0.5181 -0.8149
vn -0.2255 0.4455 -0.8664
vn -0.2821 0.5810 -0.7635
vn 0.2571 0.5690 -0.7811
vn -0.3131 0.6326 -0.7083
vn -0.2158 -0.6449 -0.7331
vn 0.0386 -0.6659 -0.7450
vn 0.3863 -0.7930 -0.4711
vn -0.4864 -0.0000 -0.8737
vn -0.1240 0.2627 -0.9569
vn 0.2904 -0.0065 -0.9569
vn 0.6461 0.0000 -0.7632
vn -0.0018 0.8665 -0.4992
vn -0.4014 0.8028 -0.4409
vn -0.3309 0.6742 -0.6603
vn -0.2073 0.4846 -0.8498
vn 0.2495 0.5704 -0.7825
vn -0.2944 0.5901 -0.7517
vn -0.2732 0.5809 -0.7668
vn -0.4078 0.8566 -0.3163
vn -0.9485 0.1915 -0.2523
vn 0.9569 -0.1955 -0.2147
vn 0.4201 -0.8773 -0.2323
vn 0.0353 -0.6660 -0.7451
vn 0.7339 -0.4573 -0.5024
vn -0.2919 0.6198 -0.7285
vn -0.2599 0.5180 -0.8149
vn -0.2254 0.4455 -0.8664
vn -0.2072 0.4847 -0.8498
vn -0.2731 0.5809 -0.7668
vn -0.4078 0.8566 -0.3162
vn -0.9485 0.1913 -0.2524
vn 0.9570 -0.1953 -0.2146
vn -0.2158 -0.6449 -0.7332
vn 0.3190 -0.6379 -0.7009
vn 0.0386 -0.6659 -0.7451
vn -0.4864 -0.0000 -0.8738
vn 0.1790 -0.3790 -0.9079
vn -0.4406 0.8977 0.0000
vn -0.0000 0.0000 -1.0000
vn -0.3190 0.6379 -0.7009
usemtl Tex_0032_0.dds.017
s off
f 1/1/1 3/2/2 2/3/1
f 2/3/3 3/2/3 4/4/4
f 3/2/5 5/5/6 4/4/7
f 4/4/8 5/5/8 6/6/9
f 5/5/10 7/7/11 6/6/12
f 6/6/13 7/7/11 8/8/11
f 9/9/11 11/10/14 10/11/11
f 10/11/11 11/10/11 12/12/15
f 11/10/16 13/13/17 12/12/18
f 12/12/19 13/13/20 14/14/21
f 13/13/22 15/15/23 14/14/24
f 14/14/25 15/15/23 16/16/23
f 17/17/1 19/18/26 18/19/27
f 18/19/28 19/18/29 20/20/4
f 19/18/30 21/21/31 20/20/32
f 20/20/8 21/21/8 22/22/9
f 21/21/10 23/23/11 22/22/12
f 22/22/33 23/23/11 24/24/11
f 25/25/11 27/26/34 26/27/11
f 26/27/11 27/26/35 28/28/15
f 27/26/36 29/29/17 28/28/37
f 28/28/38 29/29/20 30/30/39
f 29/29/22 31/31/23 30/30/24
f 30/30/40 31/31/41 32/32/41
f 33/33/1 35/34/26 34/35/42
f 34/35/28 35/34/29 36/36/43
f 35/34/30 37/37/44 36/36/45
f 36/36/46 37/37/47 38/38/48
f 37/37/49 39/39/11 38/38/50
f 38/38/33 39/39/11 40/40/11
f 41/41/11 43/42/51 42/43/11
f 42/43/11 43/42/11 44/44/52
f 43/42/16 45/45/17 44/44/18
f 44/44/38 45/45/20 46/46/39
f 45/45/22 47/47/41 46/46/24
f 46/46/40 47/47/23 48/48/23
f 49/49/1 51/50/53 50/51/42
f 50/51/54 51/50/55 52/52/56
f 51/50/30 53/53/44 52/52/45
f 52/52/57 53/53/58 54/54/59
f 53/53/60 55/55/11 54/54/12
f 54/54/61 55/55/11 56/56/11
f 57/57/62 59/58/63 58/59/62
f 58/59/11 59/58/35 60/60/15
f 59/58/64 61/61/17 60/60/37
f 60/60/38 61/61/65 62/62/21
f 61/61/22 63/63/23 62/62/24
f 62/62/40 63/63/23 64/64/23
f 65/65/66 67/66/66 66/67/66
f 66/67/66 67/66/66 68/68/66
f 69/69/67 71/70/67 70/71/67
f 70/71/67 71/70/67 72/72/67
f 73/73/68 75/74/68 74/75/68
f 74/75/68 75/74/68 76/76/68
f 77/77/67 79/78/67 78/79/67
f 78/79/67 79/78/67 80/80/67
f 81/81/66 83/82/66 82/83/66
f 82/83/66 83/82/66 84/84/66
f 85/85/67 87/86/67 86/87/67
f 86/87/67 87/86/67 88/88/67
f 89/89/68 91/90/68 90/91/68
f 90/91/68 91/90/68 92/92/68
f 93/93/67 95/94/67 94/95/67
f 94/95/67 95/94/67 96/96/67
f 97/97/66 99/98/66 98/99/66
f 98/99/66 99/98/66 100/100/66
f 101/101/67 103/102/67 102/103/67
f 102/103/67 103/102/67 104/104/67
f 105/105/68 107/106/68 106/107/68
f 106/107/68 107/106/68 108/108/68
f 109/109/67 111/110/67 110/111/67
f 110/111/67 111/110/67 112/112/67
f 113/113/66 115/114/66 114/115/66
f 114/115/66 115/114/66 116/116/66
f 117/117/67 119/118/67 118/119/67
f 118/119/67 119/118/67 120/120/67
f 121/121/68 123/122/68 122/123/68
f 122/123/68 123/122/68 124/124/68
f 125/125/67 127/126/67 126/127/67
f 126/127/67 127/126/67 128/128/67
