# Blender v3.6.3 OBJ File: 'untitled.blend'
# www.blender.org
mtllib Mesh_0320.mtl
o Mesh_0320_Mesh.201
v -9.604595 12.699995 -49.561806
v -9.604589 12.699996 -48.291801
v -12.144594 12.699995 -49.561806
v -12.144590 12.699996 -48.291801
v -14.684594 12.699995 -49.561806
v -14.684594 12.699996 -48.291801
v -17.224594 12.699995 -49.561806
v -17.224588 12.699996 -48.291801
v -19.764587 12.699996 -48.291801
v -19.764587 12.699996 -48.291801
v -19.764595 12.699995 -49.561806
v -17.224594 12.699995 -49.561806
vt 0.998047 -0.253906
vt 0.498047 -0.253906
vt 0.998047 -0.503906
vt 0.498047 -0.503906
vt -0.000977 -0.253906
vt -0.000977 -0.503906
vt -0.500977 -0.253906
vt -0.500977 -0.503906
vt -0.500977 -0.003906
vt -0.500977 -0.003906
vt -0.500977 -0.253906
vt -0.750977 -0.003906
vn 0.0000 1.0000 0.0000
usemtl Tex_0005_1.dds.003
s off
f 1/1/1 3/2/1 2/3/1
f 2/3/1 3/2/1 4/4/1
f 3/2/1 5/5/1 4/4/1
f 4/4/1 5/5/1 6/6/1
f 5/5/1 7/7/1 6/6/1
f 6/6/1 7/7/1 8/8/1
f 7/7/1 9/9/1 8/8/1
f 10/10/1 12/11/1 11/12/1
