# Blender v3.6.3 OBJ File: 'untitled.blend'
# www.blender.org
mtllib Mesh_0224.mtl
o Mesh_0224_Mesh.052
v 50.085419 12.191978 22.571320
v 56.435417 12.191978 22.571320
v 50.085419 12.445984 22.317322
v 56.435417 12.445984 22.317322
v 50.085419 12.573997 22.574196
v 56.435417 12.573997 22.574196
v 50.400200 12.699986 22.828194
v 56.117920 12.699986 22.828194
v 43.735420 12.191978 22.571320
v 50.085419 12.191978 22.571320
v 43.735420 12.445984 22.317322
v 50.085419 12.445984 22.317322
v 43.735420 12.573997 22.574196
v 50.085419 12.573997 22.574196
v 44.050201 12.699986 22.828194
v 49.767921 12.699986 22.828194
v 56.435417 12.191978 22.571320
v 62.785416 12.191978 22.571320
v 56.435417 12.445984 22.317322
v 62.785416 12.445984 22.317322
v 56.435417 12.573997 22.574196
v 62.785416 12.573997 22.574196
v 56.750198 12.699986 22.828194
v 62.467918 12.699986 22.828194
v 62.785416 12.191978 22.571320
v 69.135422 12.191978 22.571320
v 62.785416 12.445984 22.317322
v 69.135422 12.445984 22.317322
v 62.785416 12.573997 22.574196
v 69.135422 12.573997 22.574196
v 63.100197 12.699986 22.828194
v 68.817917 12.699986 22.828194
v 37.385422 12.191978 22.571320
v 43.735420 12.191978 22.571320
v 37.385422 12.445984 22.317322
v 43.735420 12.445984 22.317322
v 37.385422 12.573997 22.574196
v 43.735420 12.573997 22.574196
v 37.700195 12.699986 22.828194
v 43.417923 12.699986 22.828194
v 31.035414 12.191978 22.571320
v 37.385422 12.191978 22.571320
v 31.035414 12.445984 22.317322
v 37.385422 12.445984 22.317322
v 31.035414 12.573997 22.574196
v 37.385422 12.573997 22.574196
v 31.350191 12.699986 22.828194
v 37.067917 12.699986 22.828194
v 24.685415 12.191978 22.571320
v 31.035414 12.191978 22.571320
v 24.685415 12.445984 22.317322
v 31.035414 12.445984 22.317322
v 24.685415 12.573997 22.574196
v 31.035414 12.573997 22.574196
v 25.000193 12.699986 22.828194
v 30.717916 12.699986 22.828194
v 18.335413 12.191978 22.571320
v 24.685415 12.191978 22.571320
v 18.335413 12.445984 22.317322
v 24.685415 12.445984 22.317322
v 18.335413 12.573997 22.574196
v 24.685415 12.573997 22.574196
v 18.650194 12.699986 22.828194
v 24.367914 12.699986 22.828194
v 5.635412 12.191978 22.571320
v 11.985411 12.191978 22.571320
v 5.635412 12.445984 22.317322
v 11.985411 12.445984 22.317322
v 5.635412 12.573997 22.574196
v 11.985411 12.573997 22.574196
v 5.950193 12.699986 22.828194
v 11.667913 12.699986 22.828194
v 11.985411 12.191978 22.571320
v 18.335413 12.191978 22.571320
v 11.985411 12.445984 22.317322
v 18.335413 12.445984 22.317322
v 11.985411 12.573997 22.574196
v 18.335413 12.573997 22.574196
v 12.300192 12.699986 22.828194
v 18.017912 12.699986 22.828194
v -0.714584 12.191978 22.571320
v 5.635412 12.191978 22.571320
v -0.714584 12.445984 22.317322
v 5.635412 12.445984 22.317322
v -0.714584 12.573997 22.574196
v 5.635412 12.573997 22.574196
v -0.399805 12.699986 22.828194
v 5.317911 12.699986 22.828194
v -7.064585 12.191978 22.571320
v -0.714584 12.191978 22.571320
v -7.064585 12.445984 22.317322
v -0.714584 12.445984 22.317322
v -7.064585 12.573997 22.574196
v -0.714584 12.573997 22.574196
v -6.749804 12.699986 22.828194
v -1.032085 12.699986 22.828194
v 56.435417 10.667986 22.571320
v 50.085419 10.667986 22.571320
v 56.435417 10.413984 22.193192
v 50.085419 10.413984 22.193192
v 56.435417 10.159986 22.443062
v 50.085419 10.159986 22.443062
v 50.085419 10.667986 22.571320
v 43.735420 10.667986 22.571320
v 50.085419 10.413984 22.193192
v 43.735420 10.413984 22.193192
v 50.085419 10.159986 22.443062
v 43.735420 10.159986 22.443062
v 62.785416 10.667986 22.571320
v 56.435417 10.667986 22.571320
v 62.785416 10.413984 22.193192
v 56.435417 10.413984 22.193192
v 62.785416 10.159986 22.443062
v 56.435417 10.159986 22.443062
v 69.135422 10.667986 22.571320
v 62.785416 10.667986 22.571320
v 69.135422 10.413984 22.193192
v 62.785416 10.413984 22.193192
v 69.135422 10.159986 22.443062
v 62.785416 10.159986 22.443062
v 43.735420 10.667986 22.571320
v 37.385422 10.667986 22.571320
v 43.735420 10.413984 22.193192
v 37.385422 10.413984 22.193192
v 43.735420 10.159986 22.443062
v 37.385422 10.159986 22.443062
v 37.385422 10.667986 22.571320
v 31.035414 10.667986 22.571320
v 37.385422 10.413984 22.193192
v 31.035414 10.413984 22.193192
v 37.385422 10.159986 22.443062
v 31.035414 10.159986 22.443062
v 31.035414 10.667986 22.571320
v 24.685415 10.667986 22.571320
v 31.035414 10.413984 22.193192
v 24.685415 10.413984 22.193192
v 31.035414 10.159986 22.443062
v 24.685415 10.159986 22.443062
v 24.685415 10.667986 22.571320
v 18.335413 10.667986 22.571320
v 24.685415 10.413984 22.193192
v 18.335413 10.413984 22.193192
v 24.685415 10.159986 22.443062
v 18.335413 10.159986 22.443062
v 11.985411 10.667986 22.571320
v 5.635412 10.667986 22.571320
v 11.985411 10.413984 22.193192
v 5.635412 10.413984 22.193192
v 11.985411 10.159986 22.443062
v 5.635412 10.159986 22.443062
v 18.335413 10.667986 22.571320
v 11.985411 10.667986 22.571320
v 18.335413 10.413984 22.193192
v 11.985411 10.413984 22.193192
v 18.335413 10.159986 22.443062
v 11.985411 10.159986 22.443062
v 5.635412 10.667986 22.571320
v -0.714584 10.667986 22.571320
v 5.635412 10.413984 22.193192
v -0.714584 10.413984 22.193192
v 5.635412 10.159986 22.443062
v -0.714584 10.159986 22.443062
v -0.714584 10.667986 22.571320
v -7.064585 10.667986 22.571320
v -0.714584 10.413984 22.193192
v -7.064585 10.413984 22.193192
v -0.714584 10.159986 22.443062
v -7.064585 10.159986 22.443062
v 56.435417 10.159986 22.443062
v 50.085419 10.159986 22.443062
v 56.435417 10.159986 22.828194
v 50.085419 10.159986 22.828194
v 50.085419 10.159986 22.443062
v 43.735420 10.159986 22.443062
v 50.085419 10.159986 22.828194
v 43.735420 10.159986 22.828194
v 62.785416 10.159986 22.443062
v 56.435417 10.159986 22.443062
v 62.785416 10.159986 22.828194
v 56.435417 10.159986 22.828194
v 69.135422 10.159986 22.443062
v 62.785416 10.159986 22.443062
v 69.135422 10.159986 22.828194
v 62.785416 10.159986 22.828194
v 43.735420 10.159986 22.443062
v 37.385422 10.159986 22.443062
v 43.735420 10.159986 22.828194
v 37.385422 10.159986 22.828194
v 37.385422 10.159986 22.443062
v 31.035414 10.159986 22.443062
v 37.385422 10.159986 22.828194
v 31.035414 10.159986 22.828194
v 31.035414 10.159986 22.443062
v 24.685415 10.159986 22.443062
v 31.035414 10.159986 22.828194
v 24.685415 10.159986 22.828194
v 24.685415 10.159986 22.443062
v 18.335413 10.159986 22.443062
v 24.685415 10.159986 22.828194
v 18.335413 10.159986 22.828194
v 11.985411 10.159986 22.443062
v 5.635412 10.159986 22.443062
v 11.985411 10.159986 22.828194
v 5.635412 10.159986 22.828194
v 18.335413 10.159986 22.443062
v 11.985411 10.159986 22.443062
v 18.335413 10.159986 22.828194
v 11.985411 10.159986 22.828194
v 5.635412 10.159986 22.443062
v -0.714584 10.159986 22.443062
v 5.635412 10.159986 22.828194
v -0.714584 10.159986 22.828194
v -0.714584 10.159986 22.443062
v -7.064585 10.159986 22.443062
v -0.714584 10.159986 22.828194
v -7.064585 10.159986 22.828194
vt -0.998047 -0.177734
vt -0.998047 -0.081055
vt -2.996094 -0.177734
vt -2.996094 -0.081055
vt -0.998047 -0.028320
vt -2.996094 -0.022461
vt -1.095703 0.032227
vt -2.895508 0.032227
vt -0.998047 -0.177734
vt -0.998047 -0.081055
vt -2.996094 -0.177734
vt -2.996094 -0.081055
vt -0.998047 -0.028320
vt -2.996094 -0.022461
vt -1.095703 0.032227
vt -2.895508 0.032227
vt -0.998047 -0.177734
vt -0.998047 -0.081055
vt -2.996094 -0.177734
vt -2.996094 -0.081055
vt -0.998047 -0.028320
vt -2.996094 -0.022461
vt -1.095703 0.032227
vt -2.895508 0.032227
vt -0.998047 -0.177734
vt -0.998047 -0.081055
vt -2.996094 -0.177734
vt -2.996094 -0.081055
vt -0.998047 -0.028320
vt -2.996094 -0.022461
vt -1.095703 0.032227
vt -2.895508 0.032227
vt -0.998047 -0.177734
vt -0.998047 -0.081055
vt -2.996094 -0.177734
vt -2.996094 -0.081055
vt -0.998047 -0.028320
vt -2.996094 -0.022461
vt -1.095703 0.032227
vt -2.895508 0.032227
vt -0.998047 -0.177734
vt -0.998047 -0.081055
vt -2.996094 -0.177734
vt -2.996094 -0.081055
vt -0.998047 -0.028320
vt -2.996094 -0.022461
vt -1.095703 0.032227
vt -2.895508 0.032227
vt -0.998047 -0.177734
vt -0.998047 -0.081055
vt -2.996094 -0.177734
vt -2.996094 -0.081055
vt -0.998047 -0.028320
vt -2.996094 -0.022461
vt -1.095703 0.032227
vt -2.895508 0.032227
vt -0.998047 -0.177734
vt -0.998047 -0.081055
vt -2.996094 -0.177734
vt -2.996094 -0.081055
vt -0.998047 -0.028320
vt -2.996094 -0.022461
vt -1.095703 0.032227
vt -2.895508 0.032227
vt -0.998047 -0.177734
vt -0.998047 -0.081055
vt -2.996094 -0.177734
vt -2.996094 -0.081055
vt -0.998047 -0.028320
vt -2.996094 -0.022461
vt -1.095703 0.032227
vt -2.895508 0.032227
vt -0.998047 -0.177734
vt -0.998047 -0.081055
vt -2.996094 -0.177734
vt -2.996094 -0.081055
vt -0.998047 -0.028320
vt -2.996094 -0.022461
vt -1.095703 0.032227
vt -2.895508 0.032227
vt -0.998047 -0.177734
vt -0.998047 -0.081055
vt -2.996094 -0.177734
vt -2.996094 -0.081055
vt -0.998047 -0.028320
vt -2.996094 -0.022461
vt -1.095703 0.032227
vt -2.895508 0.032227
vt -0.998047 -0.177734
vt -0.998047 -0.081055
vt -2.996094 -0.177734
vt -2.996094 -0.081055
vt -0.998047 -0.028320
vt -2.996094 -0.022461
vt -1.095703 0.032227
vt -2.895508 0.032227
vt -2.996094 -0.945312
vt -2.996094 -1.071289
vt -0.998047 -0.945312
vt -0.998047 -1.071289
vt -2.996094 -1.184570
vt -0.998047 -1.184570
vt -2.996094 -0.945312
vt -2.996094 -1.071289
vt -0.998047 -0.945312
vt -0.998047 -1.071289
vt -2.996094 -1.184570
vt -0.998047 -1.184570
vt -2.996094 -0.945312
vt -2.996094 -1.071289
vt -0.998047 -0.945312
vt -0.998047 -1.071289
vt -2.996094 -1.184570
vt -0.998047 -1.184570
vt -2.996094 -0.945312
vt -2.996094 -1.071289
vt -0.998047 -0.945312
vt -0.998047 -1.071289
vt -2.996094 -1.184570
vt -0.998047 -1.184570
vt -2.996094 -0.945312
vt -2.996094 -1.071289
vt -0.998047 -0.945312
vt -0.998047 -1.071289
vt -2.996094 -1.184570
vt -0.998047 -1.184570
vt -2.996094 -0.945312
vt -2.996094 -1.071289
vt -0.998047 -0.945312
vt -0.998047 -1.071289
vt -2.996094 -1.184570
vt -0.998047 -1.184570
vt -2.996094 -0.945312
vt -2.996094 -1.071289
vt -0.998047 -0.945312
vt -0.998047 -1.071289
vt -2.996094 -1.184570
vt -0.998047 -1.184570
vt -2.996094 -0.945312
vt -2.996094 -1.071289
vt -0.998047 -0.945312
vt -0.998047 -1.071289
vt -2.996094 -1.184570
vt -0.998047 -1.184570
vt -2.996094 -0.945312
vt -2.996094 -1.071289
vt -0.998047 -0.945312
vt -0.998047 -1.071289
vt -2.996094 -1.184570
vt -0.998047 -1.184570
vt -2.996094 -0.945312
vt -2.996094 -1.071289
vt -0.998047 -0.945312
vt -0.998047 -1.071289
vt -2.996094 -1.184570
vt -0.998047 -1.184570
vt -2.996094 -0.945312
vt -2.996094 -1.071289
vt -0.998047 -0.945312
vt -0.998047 -1.071289
vt -2.996094 -1.184570
vt -0.998047 -1.184570
vt -2.996094 -0.945312
vt -2.996094 -1.071289
vt -0.998047 -0.945312
vt -0.998047 -1.071289
vt -2.996094 -1.184570
vt -0.998047 -1.184570
vt 2.030273 -1.087891
vt 2.030273 -1.137695
vt 3.029297 -1.085938
vt 3.029297 -1.135742
vt 2.030273 -1.087891
vt 2.030273 -1.137695
vt 3.029297 -1.085938
vt 3.029297 -1.135742
vt 2.030273 -1.087891
vt 2.030273 -1.137695
vt 3.029297 -1.085938
vt 3.029297 -1.135742
vt 2.030273 -1.087891
vt 2.030273 -1.137695
vt 3.029297 -1.085938
vt 3.029297 -1.135742
vt 2.030273 -1.087891
vt 2.030273 -1.137695
vt 3.029297 -1.085938
vt 3.029297 -1.135742
vt 2.030273 -1.087891
vt 2.030273 -1.137695
vt 3.029297 -1.085938
vt 3.029297 -1.135742
vt 2.030273 -1.087891
vt 2.030273 -1.137695
vt 3.029297 -1.085938
vt 3.029297 -1.135742
vt 2.030273 -1.087891
vt 2.030273 -1.137695
vt 3.029297 -1.085938
vt 3.029297 -1.135742
vt 2.030273 -1.087891
vt 2.030273 -1.137695
vt 3.029297 -1.085938
vt 3.029297 -1.135742
vt 2.030273 -1.087891
vt 2.030273 -1.137695
vt 3.029297 -1.085938
vt 3.029297 -1.135742
vt 2.030273 -1.087891
vt 2.030273 -1.137695
vt 3.029297 -1.085938
vt 3.029297 -1.135742
vt 2.030273 -1.087891
vt 2.030273 -1.137695
vt 3.029297 -1.085938
vt 3.029297 -1.135742
vn 0.0000 -0.7071 -0.7071
vn -0.8249 -0.3653 -0.4313
vn 0.0275 -0.7068 -0.7069
vn -0.7965 0.5412 -0.2697
vn -0.0007 0.8950 -0.4460
vn 0.0432 0.1656 0.9853
vn 0.0000 0.8950 -0.4460
vn 0.0006 0.8950 -0.4460
vn -0.0009 0.8963 -0.4435
vn 0.0000 0.8958 -0.4444
vn 0.0001 0.8964 -0.4432
vn 0.0008 0.8962 -0.4436
vn 0.8116 -0.4131 -0.4131
vn -0.0006 0.8950 -0.4460
vn 0.0366 0.8845 0.4651
vn 0.8108 0.5065 -0.2934
vn -0.0000 0.8948 -0.4465
vn 0.0009 0.8962 -0.4436
vn -0.8103 -0.3807 -0.4455
vn -0.0458 -0.9861 0.1599
vn -0.8116 0.5229 -0.2605
vn -0.0000 0.8948 -0.4466
vn 0.0000 0.8959 -0.4444
vn -0.7965 0.5412 -0.2696
vn -0.0005 0.8950 -0.4460
vn 0.0366 0.8845 0.4652
vn -0.0008 0.8962 -0.4436
vn 0.0005 0.8950 -0.4460
vn 0.0009 0.8963 -0.4435
vn -0.8104 -0.3806 -0.4455
vn -0.8117 0.5228 -0.2605
vn -0.0000 0.8949 -0.4463
vn 0.0001 0.8964 -0.4433
vn 0.0275 -0.7068 -0.7068
vn 0.0432 0.1656 0.9852
vn -0.0008 0.8963 -0.4435
vn 0.0000 0.8301 -0.5576
vn 0.7677 0.4993 -0.4017
vn 0.0550 0.9581 0.2812
vn -0.7696 0.5301 -0.3560
vn 0.7696 -0.4478 -0.4551
vn 0.0000 -0.7013 -0.7129
vn -0.0430 -0.9956 0.0837
vn -0.7684 -0.4171 -0.4854
vn 0.7696 -0.4478 -0.4552
vn -0.7684 -0.4170 -0.4854
vn 0.7677 0.4995 -0.4014
vn 0.7676 0.4993 -0.4017
vn -0.7696 0.5300 -0.3560
vn 0.0000 -1.0000 0.0000
usemtl Tex_0052_0.dds.002
s off
f 1/1/1 3/2/2 2/3/1
f 2/3/1 3/2/1 4/4/3
f 3/2/4 5/5/5 4/4/6
f 4/4/7 5/5/7 6/6/8
f 5/5/9 7/7/10 6/6/11
f 6/6/12 7/7/10 8/8/10
f 9/9/1 11/10/2 10/11/1
f 10/11/1 11/10/1 12/12/13
f 11/10/4 13/13/14 12/12/15
f 12/12/16 13/13/17 14/14/8
f 13/13/9 15/15/10 14/14/11
f 14/14/18 15/15/10 16/16/10
f 17/17/1 19/18/19 18/19/1
f 18/19/1 19/18/20 20/20/3
f 19/18/21 21/21/5 20/20/6
f 20/20/7 21/21/7 22/22/8
f 21/21/9 23/23/10 22/22/11
f 22/22/18 23/23/10 24/24/10
f 25/25/1 27/26/19 26/27/1
f 26/27/1 27/26/20 28/28/13
f 27/26/21 29/29/14 28/28/15
f 28/28/16 29/29/22 30/30/8
f 29/29/9 31/31/23 30/30/11
f 30/30/12 31/31/10 32/32/10
f 33/33/1 35/34/19 34/35/1
f 34/35/1 35/34/20 36/36/13
f 35/34/21 37/37/14 36/36/15
f 36/36/16 37/37/17 38/38/8
f 37/37/9 39/39/23 38/38/11
f 38/38/12 39/39/10 40/40/10
f 41/41/1 43/42/2 42/43/1
f 42/43/1 43/42/1 44/44/13
f 43/42/24 45/45/25 44/44/26
f 44/44/16 45/45/17 46/46/8
f 45/45/27 47/47/23 46/46/11
f 46/46/18 47/47/10 48/48/10
f 49/49/1 51/50/19 50/51/1
f 50/51/1 51/50/20 52/52/13
f 51/50/21 53/53/14 52/52/15
f 52/52/16 53/53/17 54/54/28
f 53/53/9 55/55/10 54/54/11
f 54/54/29 55/55/10 56/56/10
f 57/57/1 59/58/30 58/59/1
f 58/59/1 59/58/20 60/60/13
f 59/58/31 61/61/25 60/60/26
f 60/60/16 61/61/32 62/62/28
f 61/61/27 63/63/10 62/62/11
f 62/62/29 63/63/10 64/64/10
f 65/65/1 67/66/19 66/67/1
f 66/67/1 67/66/20 68/68/13
f 67/66/21 69/69/14 68/68/15
f 68/68/16 69/69/17 70/70/7
f 69/69/9 71/71/10 70/70/33
f 70/70/29 71/71/10 72/72/10
f 73/73/1 75/74/19 74/75/1
f 74/75/1 75/74/20 76/76/13
f 75/74/21 77/77/14 76/76/15
f 76/76/16 77/77/17 78/78/28
f 77/77/9 79/79/10 78/78/33
f 78/78/29 79/79/10 80/80/10
f 81/81/1 83/82/19 82/83/1
f 82/83/1 83/82/20 84/84/34
f 83/82/21 85/85/25 84/84/35
f 84/84/7 85/85/7 86/86/28
f 85/85/36 87/87/10 86/86/33
f 86/86/29 87/87/10 88/88/10
f 89/89/1 91/90/19 90/91/1
f 90/91/1 91/90/20 92/92/13
f 91/90/21 93/93/14 92/92/15
f 92/92/16 93/93/17 94/94/7
f 93/93/9 95/95/10 94/94/33
f 94/94/29 95/95/10 96/96/10
f 97/97/37 99/98/38 98/99/37
f 98/99/37 99/98/39 100/100/40
f 99/98/41 101/101/42 100/100/43
f 100/100/44 101/101/42 102/102/42
f 103/103/37 105/104/38 104/105/37
f 104/105/37 105/104/39 106/106/40
f 105/104/41 107/107/42 106/106/43
f 106/106/44 107/107/42 108/108/42
f 109/109/37 111/110/38 110/111/37
f 110/111/37 111/110/39 112/112/40
f 111/110/41 113/113/42 112/112/43
f 112/112/44 113/113/42 114/114/42
f 115/115/37 117/116/38 116/117/37
f 116/117/37 117/116/39 118/118/40
f 117/116/41 119/119/42 118/118/43
f 118/118/44 119/119/42 120/120/42
f 121/121/37 123/122/38 122/123/37
f 122/123/37 123/122/39 124/124/40
f 123/122/41 125/125/42 124/124/43
f 124/124/44 125/125/42 126/126/42
f 127/127/37 129/128/38 128/129/37
f 128/129/37 129/128/39 130/130/40
f 129/128/45 131/131/42 130/130/43
f 130/130/46 131/131/42 132/132/42
f 133/133/37 135/134/38 134/135/37
f 134/135/37 135/134/39 136/136/40
f 135/134/41 137/137/42 136/136/43
f 136/136/44 137/137/42 138/138/42
f 139/139/37 141/140/47 140/141/37
f 140/141/37 141/140/39 142/142/40
f 141/140/45 143/143/42 142/142/43
f 142/142/46 143/143/42 144/144/42
f 145/145/37 147/146/47 146/147/37
f 146/147/37 147/146/39 148/148/40
f 147/146/41 149/149/42 148/148/43
f 148/148/44 149/149/42 150/150/42
f 151/151/37 153/152/38 152/153/37
f 152/153/37 153/152/39 154/154/40
f 153/152/41 155/155/42 154/154/43
f 154/154/44 155/155/42 156/156/42
f 157/157/37 159/158/48 158/159/37
f 158/159/37 159/158/39 160/160/49
f 159/158/41 161/161/42 160/160/43
f 160/160/44 161/161/42 162/162/42
f 163/163/37 165/164/38 164/165/37
f 164/165/37 165/164/39 166/166/40
f 165/164/41 167/167/42 166/166/43
f 166/166/44 167/167/42 168/168/42
f 169/169/50 171/170/50 170/171/50
f 170/171/50 171/170/50 172/172/50
f 173/173/50 175/174/50 174/175/50
f 174/175/50 175/174/50 176/176/50
f 177/177/50 179/178/50 178/179/50
f 178/179/50 179/178/50 180/180/50
f 181/181/50 183/182/50 182/183/50
f 182/183/50 183/182/50 184/184/50
f 185/185/50 187/186/50 186/187/50
f 186/187/50 187/186/50 188/188/50
f 189/189/50 191/190/50 190/191/50
f 190/191/50 191/190/50 192/192/50
f 193/193/50 195/194/50 194/195/50
f 194/195/50 195/194/50 196/196/50
f 197/197/50 199/198/50 198/199/50
f 198/199/50 199/198/50 200/200/50
f 201/201/50 203/202/50 202/203/50
f 202/203/50 203/202/50 204/204/50
f 205/205/50 207/206/50 206/207/50
f 206/207/50 207/206/50 208/208/50
f 209/209/50 211/210/50 210/211/50
f 210/211/50 211/210/50 212/212/50
f 213/213/50 215/214/50 214/215/50
f 214/215/50 215/214/50 216/216/50
