# Blender v3.6.3 OBJ File: 'untitled.blend'
# www.blender.org
mtllib Mesh_0299.mtl
o Mesh_0299_Mesh.193
v -8.525076 -0.000012 7.588196
v -8.525076 -0.000012 10.128189
v -9.604584 -0.000012 10.128189
v -9.604584 -0.000012 12.668190
v -12.144585 -0.000012 10.128189
v -12.144585 -0.000012 12.668190
v -14.684585 -0.000012 10.128189
v -14.684585 -0.000012 12.668190
v -17.224585 -0.000012 10.128189
v -17.224585 -0.000012 12.668190
v -19.764584 -0.000012 10.128189
v -19.764584 -0.000012 12.668190
v -8.525076 -0.000012 10.128189
v -8.525076 -0.000012 12.668190
v -9.604584 -0.000012 12.668190
v -9.604584 -0.000012 15.208191
v -12.144585 -0.000012 12.668190
v -12.144585 -0.000012 15.208191
v -14.684585 -0.000012 12.668190
v -14.684585 -0.000012 15.208191
v -17.224585 -0.000012 12.668190
v -17.224585 -0.000012 15.208191
v -19.764584 -0.000012 12.668190
v -19.764584 -0.000012 15.208191
v -8.525076 -0.000012 12.668190
v -8.525076 -0.000012 15.208191
v -9.604584 -0.000012 15.208191
v -9.604610 0.000902 17.748192
v -12.144585 -0.000012 15.208191
v -12.144585 -0.000012 17.748192
v -14.684585 -0.000012 15.208191
v -14.684585 -0.000012 17.748192
v -17.224585 -0.000012 15.208191
v -17.224585 -0.000012 17.748192
v -19.764584 -0.000012 15.208191
v -19.764610 0.000902 17.748192
v -19.764584 -0.000012 10.128189
v -19.764584 -0.000012 7.588196
v -17.224585 -0.000012 10.128189
v -17.224585 -0.000012 7.588196
v -14.684585 -0.000012 10.128189
v -14.684585 -0.000012 7.588196
v -12.144585 -0.000012 10.128189
v -12.144585 -0.000012 7.588196
v -9.604584 -0.000012 10.128189
v -9.604584 -0.000012 7.588196
v -8.525076 -0.000012 7.588196
v -19.764584 -0.000012 7.588196
v -19.764584 -0.000012 5.048195
v -17.224585 -0.000012 7.588196
v -17.224585 -0.000012 5.048195
v -14.684585 -0.000012 7.588196
v -14.684585 -0.000012 5.048195
v -12.144585 -0.000012 7.588196
v -12.144585 -0.000012 5.048195
v -9.604584 -0.000012 5.048195
v -8.525076 -0.000012 15.208191
v -8.525076 -0.000012 17.748192
v -9.604610 0.000902 17.748192
v -12.144585 -0.000012 7.588196
v -9.604584 -0.000012 5.048195
v -9.604584 -0.000012 7.588196
vt 1.210938 -1.498047
vt 0.999023 -0.999023
vt 1.210938 -0.999023
vt 0.999023 -0.499023
vt 0.499023 -0.999023
vt 0.499023 -0.499023
vt 0.000000 -0.999023
vt 0.000000 -0.499023
vt -0.499023 -0.999023
vt -0.499023 -0.499023
vt -0.999023 -0.999023
vt -0.999023 -0.499023
vt 1.210938 -0.999023
vt 0.999023 -0.499023
vt 1.210938 -0.499023
vt 0.999023 0.000000
vt 0.499023 -0.499023
vt 0.499023 0.000000
vt 0.000000 -0.499023
vt 0.000000 0.000000
vt -0.499023 -0.499023
vt -0.499023 0.000000
vt -0.999023 -0.499023
vt -0.999023 0.000000
vt 1.210938 -0.499023
vt 0.999023 0.000000
vt 1.210938 0.000000
vt 0.999023 0.499023
vt 0.499023 0.000000
vt 0.499023 0.499023
vt 0.000000 0.000000
vt 0.000000 0.499023
vt -0.499023 0.000000
vt -0.499023 0.499023
vt -0.999023 0.000000
vt -0.999023 0.499023
vt -0.999023 -0.999023
vt -0.499023 -0.999023
vt -0.999023 -1.498047
vt -0.499023 -1.498047
vt 0.000000 -0.999023
vt 0.000000 -1.498047
vt 0.499023 -0.999023
vt 0.499023 -1.498047
vt 0.999023 -0.999023
vt 0.999023 -1.498047
vt 1.210938 -1.498047
vt -0.999023 -1.498047
vt -0.499023 -1.498047
vt -0.999023 -1.998047
vt -0.499023 -1.998047
vt 0.000000 -1.498047
vt 0.000000 -1.998047
vt 0.499023 -1.498047
vt 0.499023 -1.998047
vt 0.999023 -1.998047
vt 1.210938 0.000000
vt 0.999023 0.499023
vt 1.210938 0.499023
vt 0.499023 -1.498047
vt 0.999023 -1.498047
vt 0.999023 -1.998047
vn 0.0000 1.0000 0.0000
vn -0.0003 1.0000 -0.0005
vn 0.0000 1.0000 -0.0004
vn 0.0001 1.0000 -0.0000
vn -0.0004 1.0000 0.0000
vn 0.0004 1.0000 -0.0004
vn 0.0008 1.0000 0.0000
usemtl Tex_0005_1.dds.002
s off
f 1/1/1 3/2/1 2/3/1
f 2/3/1 3/2/1 4/4/1
f 3/2/1 5/5/1 4/4/1
f 4/4/1 5/5/1 6/6/1
f 5/5/1 7/7/1 6/6/1
f 6/6/1 7/7/1 8/8/1
f 7/7/1 9/9/1 8/8/1
f 8/8/1 9/9/1 10/10/1
f 9/9/1 11/11/1 10/10/1
f 10/10/1 11/11/1 12/12/1
f 13/13/1 15/14/1 14/15/1
f 14/15/1 15/14/1 16/16/1
f 15/14/1 17/17/1 16/16/1
f 16/16/1 17/17/1 18/18/1
f 17/17/1 19/19/1 18/18/1
f 18/18/1 19/19/1 20/20/1
f 19/19/1 21/21/1 20/20/1
f 20/20/1 21/21/1 22/22/1
f 21/21/1 23/23/1 22/22/1
f 22/22/1 23/23/1 24/24/1
f 25/25/1 27/26/1 26/27/1
f 26/27/2 27/26/3 28/28/4
f 27/26/3 29/29/3 28/28/3
f 28/28/5 29/29/5 30/30/5
f 29/29/1 31/31/1 30/30/1
f 30/30/1 31/31/1 32/32/1
f 31/31/1 33/33/1 32/32/1
f 32/32/1 33/33/1 34/34/1
f 33/33/1 35/35/1 34/34/1
f 34/34/6 35/35/6 36/36/6
f 37/37/1 39/38/1 38/39/1
f 38/39/1 39/38/1 40/40/1
f 39/38/1 41/41/1 40/40/1
f 40/40/1 41/41/1 42/42/1
f 41/41/1 43/43/1 42/42/1
f 42/42/1 43/43/1 44/44/1
f 43/43/1 45/45/1 44/44/1
f 44/44/1 45/45/1 46/46/1
f 45/45/1 47/47/1 46/46/1
f 48/48/1 50/49/1 49/50/1
f 49/50/1 50/49/1 51/51/1
f 50/49/1 52/52/1 51/51/1
f 51/51/1 52/52/1 53/53/1
f 52/52/1 54/54/1 53/53/1
f 53/53/1 54/54/1 55/55/1
f 54/54/1 56/56/1 55/55/1
f 57/57/7 59/58/7 58/59/7
f 60/60/1 62/61/1 61/62/1
