# Blender v3.6.3 OBJ File: 'untitled.blend'
# www.blender.org
mtllib Mesh_0227.mtl
o Mesh_0227_Mesh.166
v 25.955526 10.935448 21.878235
v 26.441683 11.018075 21.878235
v 25.955526 11.609056 21.878235
v 31.035524 11.945123 21.878235
v 31.035524 12.699986 21.878235
v 36.115570 11.609056 21.878235
v 27.451841 8.187193 22.193192
v 27.701517 8.402078 22.193192
v 26.678411 10.706238 22.148232
v 31.035524 8.904972 22.193192
v 31.035524 11.517667 22.148232
v 35.392685 10.706238 22.148232
v 25.955526 11.609056 21.878235
v 25.955526 11.609056 22.828194
v 25.955526 10.935448 21.878235
v 25.955526 7.913203 22.828194
v 25.955526 7.913203 22.193192
v 36.115570 7.913203 22.193192
v 36.115570 7.913203 22.828194
v 36.115570 10.935448 21.878235
v 36.115570 11.609056 22.828194
v 36.115570 11.609056 21.878235
v 31.035524 8.904972 22.193192
v 34.369576 8.402078 22.193192
v 35.392685 10.706238 22.148232
v 34.619263 8.187193 22.193192
v 34.845566 7.913203 22.193192
v 25.955526 11.609056 21.878235
v 31.035524 12.699986 21.878235
v 25.955526 11.609056 22.828194
v 31.035524 12.699986 22.828194
v 26.474947 7.913203 22.193192
v 27.225527 7.913203 22.193192
v 26.678411 10.706238 22.148232
v 27.451841 8.187193 22.193192
v 36.115570 10.935448 21.878235
v 36.115570 11.609056 21.878235
v 35.629417 11.018075 21.878235
v 31.035524 11.945123 21.878235
v 36.115570 11.609056 21.878235
v 36.115570 11.609056 22.828194
v 31.035524 12.699986 21.878235
v 31.035524 12.699986 22.828194
v 35.392685 10.706238 22.148232
v 34.845566 7.913203 22.193192
v 35.596138 7.913203 22.193192
vt -2.983398 -2.097656
vt -2.983398 -2.008789
vt -2.935547 -2.118164
vt -2.002930 -2.123047
vt -2.001953 -2.008789
vt -2.983398 -2.008789
vt -2.645508 -2.986328
vt -2.877930 -2.232422
vt -2.585938 -2.969727
vt -2.000000 -2.973633
vt -2.004883 -2.230469
vt -2.877930 -2.232422
vt 3.039062 1.990234
vt 3.183594 1.981445
vt 3.034180 1.893555
vt 3.973633 1.904297
vt 3.988281 1.993164
vt 3.988281 1.993164
vt 3.183594 1.981445
vt 3.973633 1.904297
vt 3.034180 1.893555
vt 3.039062 1.990234
vt -2.000000 -2.973633
vt -2.877930 -2.232422
vt -2.585938 -2.969727
vt -2.645508 -2.986328
vt -2.736328 -2.992188
vt 3.060547 -2.004883
vt 3.060547 -2.098633
vt 3.994141 -2.004883
vt 3.994141 -2.098633
vt -2.930664 -2.992188
vt -2.877930 -2.232422
vt -2.736328 -2.992188
vt -2.645508 -2.986328
vt -2.983398 -2.097656
vt -2.935547 -2.118164
vt -2.983398 -2.008789
vt -2.002930 -2.123047
vt 3.060547 -2.004883
vt 3.994141 -2.004883
vt 3.060547 -2.098633
vt 3.994141 -2.098633
vt -2.877930 -2.232422
vt -2.930664 -2.992188
vt -2.736328 -2.992188
vn 0.0000 0.0000 -1.0000
vn 0.0121 -0.0141 -0.9998
vn 0.0208 -0.0111 -0.9997
vn 0.0088 -0.0103 -0.9999
vn 0.0020 -0.0132 -0.9999
vn 0.0020 -0.0192 -0.9998
vn 0.0029 -0.0190 -0.9998
vn 0.0037 -0.0170 -0.9998
vn 0.0032 -0.0172 -0.9998
vn -0.0032 -0.0172 -0.9998
vn -1.0000 0.0000 0.0000
vn 1.0000 0.0000 0.0000
vn -0.0028 -0.0183 -0.9998
vn -0.0022 -0.0199 -0.9998
vn -0.0121 -0.0141 -0.9998
vn -0.0106 -0.0123 -0.9999
vn -0.0280 -0.0117 -0.9995
vn -0.0157 -0.0130 -0.9998
vn -0.0147 -0.0122 -0.9998
vn -0.2100 0.9777 0.0000
vn 0.0000 -0.0161 -0.9999
vn -0.0045 -0.0158 -0.9999
vn -0.0000 -0.0224 -0.9997
vn 0.0233 -0.0192 -0.9995
vn 0.0268 -0.0096 -0.9996
vn 0.0157 -0.0130 -0.9998
vn 0.2100 0.9777 0.0000
usemtl Tex_0086_1.dds.001
s off
f 1/1/1 3/2/1 2/3/1
f 2/3/1 3/2/1 4/4/1
f 3/2/1 5/5/1 4/4/1
f 4/4/1 5/5/1 6/6/1
f 7/7/2 9/8/3 8/9/4
f 8/9/5 9/8/6 10/10/7
f 9/8/8 11/11/9 10/10/9
f 10/10/10 11/11/10 12/12/10
f 13/13/11 15/14/11 14/15/11
f 14/15/11 15/14/11 16/16/11
f 15/14/11 17/17/11 16/16/11
f 18/18/12 20/19/12 19/20/12
f 19/20/12 20/19/12 21/21/12
f 20/19/12 22/22/12 21/21/12
f 23/23/13 25/24/14 24/25/13
f 24/25/15 25/24/15 26/26/16
f 25/24/17 27/27/18 26/26/19
f 28/28/20 30/29/20 29/30/20
f 29/30/20 30/29/20 31/31/20
f 32/32/21 34/33/22 33/34/23
f 33/34/24 34/33/25 35/35/26
f 36/36/1 38/37/1 37/38/1
f 37/38/1 38/37/1 39/39/1
f 40/40/27 42/41/27 41/42/27
f 41/42/27 42/41/27 43/43/27
f 44/44/21 46/45/21 45/46/21
