# Blender v3.6.3 OBJ File: 'untitled.blend'
# www.blender.org
mtllib Mesh_0334.mtl
o Mesh_0334_Mesh.207
v -19.514893 22.377499 -34.783051
v -19.514893 21.814785 -34.104130
v -19.514893 22.859995 -33.295483
v -19.514893 21.040085 -33.590710
v -19.514893 20.054361 -33.295483
v -19.514893 21.814785 -37.079483
v -19.514893 22.377499 -36.400566
v -19.514893 22.859995 -37.888115
v -19.514893 22.767334 -35.591805
v -19.514893 22.859995 -35.591805
v -19.514893 22.377497 -39.863052
v -19.514893 21.814785 -39.184128
v -19.514893 22.859995 -38.375481
v -19.514893 21.040085 -38.670708
v -19.514893 20.054361 -38.375481
v -19.514893 21.814785 -42.159485
v -19.514893 22.377499 -41.480568
v -19.514893 22.859995 -42.968117
v -19.514893 22.767332 -40.671806
v -19.514893 22.859993 -40.671806
v -19.514893 22.859995 -35.591805
v -19.514893 22.767334 -35.591805
v -19.514893 22.859995 -33.295483
v -19.514893 22.377499 -34.783051
v -19.514893 21.814785 -37.079483
v -19.514893 22.859995 -37.888115
v -19.514893 21.040085 -37.592896
v -19.514893 20.054361 -37.888115
v -19.514893 22.859993 -40.671806
v -19.514893 22.767332 -40.671806
v -19.514893 22.859995 -38.375481
v -19.514893 22.377497 -39.863052
v -19.514893 21.814785 -42.159485
v -19.514893 22.859995 -42.968117
v -19.514893 21.040085 -42.672894
v -19.514893 20.054363 -42.968117
vt 0.647766 -0.828064
vt 0.000000 -0.999451
vt 0.352112 -0.627502
vt 0.128540 -0.351440
vt 0.000000 -0.000061
vt 0.647766 -0.372070
vt 0.999939 -0.000061
vt 0.352112 -0.171509
vt 0.000000 -0.032593
vt 0.000000 -0.000061
vt 0.647766 -0.828064
vt 0.000000 -0.999451
vt 0.352112 -0.627502
vt 0.128540 -0.351440
vt 0.000000 -0.000061
vt 0.647766 -0.372070
vt 0.999939 -0.000061
vt 0.352112 -0.171509
vt 0.000000 -0.032593
vt 0.000000 -0.000061
vt 0.999939 -0.999451
vt 0.000000 -0.999451
vt 0.999939 -0.966980
vt 0.647766 -0.828064
vt 0.647766 -0.372070
vt 0.871338 -0.648193
vt 0.999939 -0.000061
vt 0.999939 -0.999451
vt 0.999939 -0.999451
vt 0.000000 -0.999451
vt 0.999939 -0.966980
vt 0.647766 -0.828064
vt 0.647766 -0.372070
vt 0.871338 -0.648193
vt 0.999939 -0.000061
vt 0.999939 -0.999451
vn 1.0000 0.0000 0.0000
usemtl Tex_0053_1.dds.009
s off
f 1/1/1 3/2/1 2/3/1
f 2/3/1 3/2/1 4/4/1
f 3/2/1 5/5/1 4/4/1
f 6/6/1 8/7/1 7/8/1
f 7/8/1 8/7/1 9/9/1
f 8/7/1 10/10/1 9/9/1
f 11/11/1 13/12/1 12/13/1
f 12/13/1 13/12/1 14/14/1
f 13/12/1 15/15/1 14/14/1
f 16/16/1 18/17/1 17/18/1
f 17/18/1 18/17/1 19/19/1
f 18/17/1 20/20/1 19/19/1
f 21/21/1 23/22/1 22/23/1
f 22/23/1 23/22/1 24/24/1
f 25/25/1 27/26/1 26/27/1
f 26/27/1 27/26/1 28/28/1
f 29/29/1 31/30/1 30/31/1
f 30/31/1 31/30/1 32/32/1
f 33/33/1 35/34/1 34/35/1
f 34/35/1 35/34/1 36/36/1
