# Blender v3.6.3 OBJ File: 'untitled.blend'
# www.blender.org
mtllib Mesh_0332.mtl
o Mesh_0332_Mesh.093
v -19.764584 21.814785 -34.104126
v -19.764584 21.040085 -33.590706
v -19.514893 21.040085 -33.590710
v -19.764584 20.054361 -33.295483
v -19.514893 20.054361 -33.295483
v -19.764584 14.763744 -33.295483
v -19.514893 14.763744 -33.295486
v -19.386454 22.859995 -38.021950
v -19.386457 22.859995 -38.131805
v -19.386457 14.562655 -38.131805
v -19.386457 22.859995 -38.241673
v -19.386457 14.562655 -38.241673
v -19.514893 20.054361 -38.375481
v -19.514893 14.763744 -38.375488
v -19.764584 21.814785 -39.184128
v -19.764584 21.040085 -38.670704
v -19.514893 21.040085 -38.670708
v -19.764584 20.054361 -38.375481
v -19.514893 20.054361 -38.375481
v -19.764584 14.763744 -38.375484
v -19.514893 14.763744 -38.375488
v -19.764584 22.767334 -35.591805
v -19.764584 22.377499 -34.783051
v -19.514893 22.377499 -34.783051
v -19.764584 21.814785 -34.104126
v -19.514893 21.814785 -34.104130
v -19.514893 21.040085 -33.590710
v -19.514893 22.377499 -36.400566
v -19.514893 21.814785 -37.079483
v -19.764584 21.814785 -37.079483
v -19.514893 21.040085 -37.592896
v -19.764584 21.040085 -37.592892
v -19.764584 20.054361 -37.888115
v -19.764584 22.767332 -40.671806
v -19.764584 22.377497 -39.863052
v -19.514893 22.377497 -39.863052
v -19.764584 21.814785 -39.184128
v -19.514893 21.814785 -39.184128
v -19.514893 21.040085 -38.670708
v -19.386417 22.859995 -43.211845
v -19.386417 14.562654 -43.211845
v -19.386454 22.859995 -43.101952
v -19.386454 14.562654 -43.101723
v -19.514893 20.054363 -42.968117
v -19.514893 14.763743 -42.968117
v -19.514893 22.377499 -41.480568
v -19.514893 21.814785 -42.159485
v -19.764584 21.814785 -42.159485
v -19.514893 21.040085 -42.672894
v -19.764584 21.040085 -42.672890
v -19.764584 20.054363 -42.968117
v -19.386417 14.562654 -33.051762
v -19.386457 22.859995 -33.161671
v -19.386457 14.562655 -33.161671
v -19.514893 20.054361 -33.295483
v -19.514893 14.763744 -33.295486
v -19.386457 14.562655 -38.131805
v -19.386454 14.562655 -38.021721
v -19.386454 22.859995 -38.021950
v -19.514893 20.054361 -37.888115
v -19.514893 22.859995 -37.888115
v -19.764584 21.814785 -37.079483
v -19.764584 22.377499 -36.400566
v -19.514893 22.377499 -36.400566
v -19.764584 22.767334 -35.591805
v -19.514893 22.767334 -35.591805
v -19.514893 21.040085 -37.592896
v -19.514893 20.054361 -37.888115
v -19.764584 20.054361 -37.888115
v -19.514893 14.763744 -37.888119
v -19.764584 14.763744 -37.888119
v -19.764584 21.814785 -42.159485
v -19.764584 22.377499 -41.480568
v -19.514893 22.377499 -41.480568
v -19.764584 22.767332 -40.671806
v -19.514893 22.767332 -40.671806
v -19.514893 21.040085 -42.672894
v -19.514893 20.054363 -42.968117
v -19.764584 20.054363 -42.968117
v -19.514893 14.763743 -42.968117
v -19.764584 14.763743 -42.968117
v -19.514902 14.763743 -43.529392
v -19.514902 22.859995 -43.529392
v -19.764584 14.763743 -43.529392
v -19.764584 22.859995 -43.529392
v -19.386417 14.562654 -43.211845
v -19.386417 22.859995 -43.211845
v -19.514902 14.763743 -43.529392
v -19.514902 22.859995 -43.529392
v -19.514902 14.763744 -32.734215
v -19.764584 14.763744 -32.734215
v -19.514902 22.859995 -32.734215
v -19.764584 22.859995 -32.734215
v -19.386417 14.562654 -33.051762
v -19.514902 14.763744 -32.734215
v -19.386417 22.859995 -33.051762
v -19.514902 22.859995 -32.734215
v -19.386457 22.859995 -33.161671
v -19.386417 14.562654 -33.051762
v -19.386417 22.859995 -33.051762
v -19.764584 22.767334 -35.591805
v -19.514893 22.377499 -34.783051
v -19.514893 22.767334 -35.591805
v -19.386457 22.859995 -33.161671
v -19.514893 22.859995 -33.295483
v -19.514893 20.054361 -33.295483
v -19.514893 14.763744 -37.888119
v -19.514893 20.054361 -37.888115
v -19.386454 14.562655 -38.021721
v -19.764584 22.767332 -40.671806
v -19.514893 22.377497 -39.863052
v -19.514893 22.767332 -40.671806
v -19.386457 22.859995 -38.241673
v -19.514893 22.859995 -38.375481
v -19.514893 20.054361 -38.375481
v -19.514893 20.054363 -42.968117
v -19.514893 22.859995 -42.968117
v -19.386454 22.859995 -43.101952
vt -3.995117 1.964844
vt -3.807617 1.643555
vt -3.995117 1.643555
vt -3.995117 1.160156
vt -3.807617 1.160156
vt -3.995117 -1.178711
vt -3.807617 -1.178711
vt -3.357422 2.427734
vt -2.995117 -1.263672
vt -2.995117 2.427734
vt -3.357422 2.427734
vt -3.361328 -1.266602
vt -3.807617 1.167969
vt -3.807617 -1.178711
vt -3.995117 1.964844
vt -3.807617 1.643555
vt -3.995117 1.643555
vt -3.995117 1.160156
vt -3.807617 1.160156
vt -3.995117 -1.178711
vt -3.807617 -1.178711
vt -3.995117 2.801758
vt -3.807617 2.360352
vt -3.995117 2.360352
vt -3.995117 1.964844
vt -3.807617 1.964844
vt -3.807617 1.643555
vt -3.807617 2.360352
vt -3.995117 1.964844
vt -3.807617 1.964844
vt -3.807617 1.643555
vt -3.995117 1.643555
vt -3.995117 1.160156
vt -3.995117 2.801758
vt -3.807617 2.360352
vt -3.995117 2.360352
vt -3.995117 1.964844
vt -3.807617 1.964844
vt -3.807617 1.643555
vt -2.995117 2.427734
vt -3.357422 2.427734
vt -2.995117 -1.263672
vt -3.361328 -1.266602
vt -3.807617 1.167969
vt -3.807617 -1.178711
vt -3.807617 2.360352
vt -3.995117 1.964844
vt -3.807617 1.964844
vt -3.807617 1.643555
vt -3.995117 1.643555
vt -3.995117 1.160156
vt -2.995117 -1.263672
vt -3.361328 -1.266602
vt -3.357422 2.427734
vt -3.807617 1.167969
vt -3.807617 -1.178711
vt -2.995117 -1.263672
vt -3.357422 2.427734
vt -3.361328 -1.266602
vt -3.807617 1.167969
vt -3.807617 2.430664
vt -3.995117 1.964844
vt -3.807617 2.360352
vt -3.995117 2.360352
vt -3.995117 2.801758
vt -3.807617 2.801758
vt -3.807617 1.643555
vt -3.995117 1.160156
vt -3.807617 1.160156
vt -3.807617 -1.178711
vt -3.995117 -1.178711
vt -3.995117 1.964844
vt -3.807617 2.360352
vt -3.995117 2.360352
vt -3.995117 2.801758
vt -3.807617 2.801758
vt -3.807617 1.643555
vt -3.995117 1.160156
vt -3.807617 1.160156
vt -3.807617 -1.178711
vt -3.995117 -1.178711
vt 4.235352 -3.171875
vt 4.000000 -3.171875
vt 4.235352 0.434570
vt 4.000000 0.434570
vt 4.992188 -3.258789
vt 4.235352 -3.171875
vt 4.992188 0.434570
vt 4.235352 0.434570
vt 4.235352 -3.171875
vt 4.235352 0.434570
vt 4.000000 -3.171875
vt 4.000000 0.434570
vt 4.992188 -3.258789
vt 4.992188 0.434570
vt 4.235352 -3.171875
vt 4.235352 0.434570
vt -3.357422 2.427734
vt -2.995117 2.427734
vt -2.995117 -1.263672
vt -3.995117 2.801758
vt -3.807617 2.801758
vt -3.807617 2.360352
vt -3.357422 2.427734
vt -3.807617 1.167969
vt -3.807617 2.430664
vt -3.807617 -1.178711
vt -3.361328 -1.266602
vt -3.807617 1.167969
vt -3.995117 2.801758
vt -3.807617 2.801758
vt -3.807617 2.360352
vt -3.357422 2.427734
vt -3.807617 1.167969
vt -3.807617 2.430664
vt -3.807617 1.167969
vt -3.357422 2.427734
vt -3.807617 2.430664
vn -0.0000 -0.5524 -0.8336
vn -0.0434 -0.5616 -0.8263
vn -0.0000 -0.2869 -0.9580
vn -0.0582 -0.5078 -0.8595
vn -0.0083 -0.2869 -0.9579
vn 0.0000 0.0000 -1.0000
vn -0.0132 -0.2786 -0.9603
vn 1.0000 0.0000 -0.0000
vn 0.9996 0.0285 -0.0004
vn 0.9713 -0.2377 0.0000
vn 0.0704 0.0443 -0.9965
vn 0.2775 -0.0169 -0.9606
vn 0.7214 0.0000 -0.6925
vn 0.3774 -0.3520 -0.8566
vn 0.7215 0.0000 -0.6925
vn -0.1545 -0.5799 -0.7999
vn 0.1466 -0.5465 -0.8246
vn 0.1466 -0.2838 -0.9476
vn -0.1295 -0.2542 -0.9584
vn 0.0342 -0.1489 -0.9883
vn -0.0314 -0.4084 -0.9123
vn -0.1450 -0.2839 -0.9478
vn 0.1409 -0.3166 -0.9380
vn 0.1450 0.0000 -0.9894
vn -0.1448 0.0068 -0.9894
vn -0.0069 -0.1448 -0.9894
vn 0.0000 -0.9008 -0.4342
vn -0.1277 -0.9083 -0.3984
vn 0.1212 -0.8942 -0.4310
vn 0.1211 -0.7643 -0.6334
vn -0.1056 -0.7462 -0.6573
vn 0.0362 -0.6815 -0.7309
vn -0.0299 -0.8326 -0.5530
vn -0.1462 -0.7616 -0.6313
vn 0.1278 -0.7862 -0.6046
vn 0.1541 -0.5109 -0.8457
vn -0.1462 -0.5465 -0.8246
vn 0.0000 -0.7699 0.6381
vn 0.1542 -0.7878 0.5963
vn -0.1462 -0.7616 0.6313
vn -0.1462 -0.5465 0.8246
vn 0.1276 -0.5190 0.8452
vn -0.0349 -0.4391 0.8978
vn 0.0343 -0.6539 0.7558
vn 0.1466 -0.5465 0.8246
vn -0.1300 -0.5765 0.8067
vn -0.1541 -0.2474 0.9566
vn 0.1466 -0.2838 0.9476
vn 0.0000 -0.2869 0.9580
vn 0.1212 -0.7643 -0.6334
vn -0.1055 -0.7462 -0.6573
vn 0.1279 -0.7862 -0.6046
vn 0.1541 -0.5108 -0.8458
vn 1.0000 0.0000 0.0003
vn 0.9996 0.0282 0.0007
vn 0.9996 0.0004 -0.0279
vn 0.9713 -0.2377 0.0003
vn 0.0701 0.0444 0.9966
vn 0.7213 0.0000 0.6926
vn 0.2775 -0.0169 0.9606
vn 0.3762 -0.3521 0.8570
vn 0.7206 -0.0000 0.6934
vn 0.7209 0.0000 0.6930
vn 0.1466 -0.5464 0.8246
vn -0.1542 -0.2474 0.9566
vn 1.0000 0.0000 -0.0004
vn 0.9714 -0.2376 -0.0003
vn 0.8001 0.0080 0.5999
vn 0.6329 0.0080 -0.7742
vn 0.2777 -0.0169 -0.9605
vn 0.3776 -0.3518 -0.8565
vn 0.7215 0.0000 -0.6924
vn 0.7255 0.0091 -0.6882
vn 0.9999 -0.0147 -0.0000
vn 0.0554 -0.0230 0.9982
vn 0.7171 0.0004 0.6970
vn 0.7218 0.0058 0.6921
vn 0.7215 0.0000 0.6924
vn 0.7217 0.0000 0.6922
vn -0.1278 -0.7400 0.6604
vn 0.1212 -0.7642 0.6334
vn 0.1212 -0.8942 0.4310
vn -0.1055 -0.9081 0.4052
vn 0.0000 -0.9008 0.4342
vn -0.0293 -0.8496 0.5266
vn 0.1524 -0.3188 0.9355
vn -0.1450 -0.2839 0.9478
vn -0.1450 -0.0000 0.9894
vn 0.1329 0.0063 0.9911
vn 0.0000 -0.0000 1.0000
vn 0.0063 -0.1329 0.9911
vn 0.0063 -0.1330 0.9911
vn 0.9270 0.0000 -0.3751
vn 0.9270 0.0000 0.3751
usemtl Tex_0030_0.dds.010
s off
f 1/1/1 3/2/2 2/3/1
f 2/3/3 3/2/3 4/4/3
f 3/2/4 5/5/5 4/4/3
f 4/4/6 5/5/6 6/6/6
f 5/5/7 7/7/6 6/6/6
f 8/8/8 10/9/8 9/10/8
f 9/10/8 10/9/8 11/11/9
f 10/9/8 12/12/10 11/11/8
f 11/11/11 12/12/12 13/13/13
f 12/12/14 14/14/15 13/13/15
f 15/15/1 17/16/16 16/17/17
f 16/17/18 17/16/19 18/18/20
f 17/16/21 19/19/22 18/18/23
f 18/18/24 19/19/25 20/20/6
f 19/19/26 21/21/6 20/20/6
f 22/22/27 24/23/28 23/24/29
f 23/24/30 24/23/31 25/25/32
f 24/23/33 26/26/34 25/25/35
f 25/25/36 26/26/37 27/27/1
f 28/28/38 30/29/39 29/30/40
f 29/30/41 30/29/42 31/31/43
f 30/29/44 32/32/45 31/31/46
f 31/31/47 32/32/48 33/33/49
f 34/34/27 36/35/28 35/36/29
f 35/36/50 36/35/51 37/37/32
f 36/35/33 38/38/34 37/37/52
f 37/37/53 38/38/37 39/39/1
f 40/40/54 42/41/55 41/42/54
f 41/42/54 42/41/56 43/43/57
f 42/41/58 44/44/59 43/43/60
f 43/43/61 44/44/62 45/45/63
f 46/46/38 48/47/39 47/48/40
f 47/48/41 48/47/42 49/49/43
f 48/47/44 50/50/64 49/49/46
f 49/49/65 50/50/48 51/51/49
f 52/52/66 54/53/67 53/54/68
f 53/54/69 54/53/70 55/55/15
f 54/53/71 56/56/72 55/55/72
f 57/57/8 59/58/73 58/59/74
f 58/59/75 59/58/76 60/60/59
f 59/58/77 61/61/78 60/60/79
f 62/62/38 64/63/80 63/64/81
f 63/64/82 64/63/83 65/65/84
f 64/63/85 66/66/84 65/65/84
f 67/67/49 69/68/86 68/69/87
f 68/69/88 69/68/89 70/70/90
f 69/68/91 71/71/90 70/70/90
f 72/72/38 74/73/80 73/74/81
f 73/74/82 74/73/83 75/75/84
f 74/73/85 76/76/84 75/75/84
f 77/77/49 79/78/86 78/79/87
f 78/79/88 79/78/89 80/80/90
f 79/78/92 81/81/90 80/80/90
f 82/82/6 84/83/6 83/84/6
f 83/84/6 84/83/6 85/85/6
f 86/86/93 88/87/93 87/88/93
f 87/88/93 88/87/93 89/89/93
f 90/90/90 92/91/90 91/92/90
f 91/92/90 92/91/90 93/93/90
f 94/94/94 96/95/94 95/96/94
f 95/96/94 96/95/94 97/97/94
f 98/98/66 100/99/66 99/100/66
f 101/101/27 103/102/27 102/103/27
f 104/104/15 106/105/15 105/106/15
f 107/107/63 109/108/63 108/109/63
f 110/110/27 112/111/27 111/112/27
f 113/113/13 115/114/13 114/115/13
f 116/116/78 118/117/78 117/118/78
