# Blender v3.6.3 OBJ File: 'untitled.blend'
# www.blender.org
mtllib Mesh_0354.mtl
o Mesh_0354_Mesh.101
v -24.844610 22.859985 38.068192
v -22.447893 23.556065 37.205605
v -24.844610 22.605925 38.579094
v -22.216240 23.301971 37.660774
v -24.844610 22.351969 38.324966
v -22.331310 23.047880 37.434433
v -22.447893 23.556065 37.205605
v -20.532719 24.546392 35.349602
v -22.216240 23.301971 37.660774
v -20.119720 24.292143 35.650360
v -22.331310 23.047880 37.434433
v -20.325214 24.038206 35.500900
v -22.331310 21.523943 37.434433
v -20.324944 22.514112 35.500900
v -22.159849 21.269850 37.771774
v -20.019415 22.260174 35.723526
v -22.254107 21.015911 37.568375
v -20.183979 22.005615 35.615631
v -19.764584 25.399984 27.910049
v -19.764584 25.399982 22.828194
v -19.253773 25.146002 27.910057
v -19.253784 25.146044 22.828201
v -19.507771 24.892046 27.910057
v -19.507782 24.892105 22.828201
v -22.445103 21.016842 37.146698
v -20.183979 22.005615 35.615631
v -20.569580 22.007166 35.337822
v -19.379501 22.859053 32.989738
v -19.764606 22.859983 32.986641
v -20.324944 22.514112 35.500900
v -19.507660 23.367533 32.988190
v -20.019415 22.260174 35.723526
v -19.129604 23.113487 32.988190
v -20.183979 22.005615 35.615631
v -20.532719 24.546392 35.349602
v -19.764606 25.399519 32.988190
v -20.119720 24.292143 35.650360
v -19.253765 25.145536 32.988197
v -20.325214 24.038206 35.500900
v -29.924583 22.859985 38.068192
v -24.844610 22.859985 38.068192
v -29.924583 22.605961 38.579056
v -24.844610 22.605925 38.579094
v -24.844610 22.351969 38.324966
v -35.004581 22.859985 38.068192
v -29.924583 22.859985 38.068192
v -35.004581 22.605961 38.579094
v -29.924583 22.605961 38.579056
v -29.924583 22.351984 38.325058
v -19.385899 22.859983 22.828194
v -19.763763 22.859983 22.829018
v -19.379490 22.859985 27.910049
v -19.764584 22.859985 27.910049
v -19.764606 22.859983 32.986641
v -19.385899 22.859983 22.828194
v -19.379490 22.859985 27.910049
v -19.129585 23.113920 22.828194
v -19.129585 23.113953 27.910049
v -19.507591 23.368000 27.910049
v -24.844610 20.573954 38.703194
v -22.159849 21.269850 37.771774
v -24.846386 20.319984 38.453293
v -22.254107 21.015911 37.568375
v -24.846386 20.319984 38.453293
v -22.254107 21.015911 37.568375
v -24.842831 20.319984 38.068192
v -22.445103 21.016842 37.146698
v -24.844610 20.573954 38.703194
v -24.846386 20.319984 38.453293
v -29.924583 20.573984 38.703194
v -29.924583 20.319984 38.453331
v -29.924583 20.319984 38.453331
v -24.846386 20.319984 38.453293
v -29.924583 20.319984 38.068192
v -24.842831 20.319984 38.068192
v -29.924583 20.573984 38.703194
v -29.924583 20.319984 38.453331
v -35.004581 20.573984 38.703194
v -35.004581 20.319984 38.453339
v -35.004581 20.319984 38.453339
v -29.924583 20.319984 38.453331
v -35.004581 20.319984 38.068192
v -29.924583 20.319984 38.068192
v -19.764606 25.399519 32.988190
v -19.764584 25.399984 27.910049
v -19.253765 25.145536 32.988197
v -19.253773 25.146002 27.910057
v -19.129585 23.113953 27.910049
v -19.129604 23.113487 32.988190
v -19.507591 23.368000 27.910049
v -19.507660 23.367533 32.988190
v -20.183979 22.005615 35.615631
v -22.445103 21.016842 37.146698
v -22.254107 21.015911 37.568375
v -24.844610 22.351969 38.324966
v -29.924583 22.351984 38.325058
v -29.924583 22.605961 38.579056
v -29.924583 22.351984 38.325058
v -35.004581 22.351984 38.325096
v -35.004581 22.605961 38.579094
v -19.379490 22.859985 27.910049
v -19.764606 22.859983 32.986641
v -19.379501 22.859053 32.989738
v -19.507769 23.368015 22.828194
v -19.129585 23.113920 22.828194
v -19.507591 23.368000 27.910049
vt -1.915039 0.032227
vt -1.916016 -0.081055
vt -0.915039 0.032227
vt -0.916992 -0.081055
vt -1.916016 -0.177734
vt -0.916992 -0.177734
vt -2.914062 0.032227
vt -2.915039 -0.081055
vt -1.915039 0.032227
vt -1.916016 -0.081055
vt -2.915039 -0.177734
vt -1.916016 -0.177734
vt -2.996094 -0.945312
vt -2.996094 -1.071289
vt -1.997070 -0.945312
vt -1.997070 -1.071289
vt -2.996094 -1.184570
vt -1.997070 -1.184570
vt -1.997070 0.032227
vt -1.997070 -0.081055
vt -2.996094 0.032227
vt -2.904297 -0.081055
vt -1.997070 -0.177734
vt -2.947266 -0.177734
vt 2.030273 -1.137695
vt 2.530273 -1.136719
vt 2.530273 -1.086914
vt 3.029297 -1.085938
vt 3.029297 -1.135742
vt -1.997070 -0.945312
vt -1.997070 -1.071289
vt -0.998047 -0.945312
vt -0.998047 -1.071289
vt -1.997070 -1.184570
vt -1.915039 0.032227
vt -1.916016 -0.081055
vt -0.915039 0.032227
vt -0.916992 -0.081055
vt -1.916016 -0.177734
vt -2.914062 0.032227
vt -2.915039 -0.081055
vt -0.915039 0.032227
vt -0.916992 -0.081055
vt -0.916992 -0.177734
vt -2.914062 0.032227
vt -2.915039 -0.081055
vt -0.915039 0.032227
vt -0.916992 -0.081055
vt -0.916992 -0.177734
vt 2.099609 -1.087891
vt 3.029297 -1.085938
vt 2.030273 -1.136719
vt 3.029297 -1.135742
vt 2.030273 -1.137695
vt -2.926758 -1.184570
vt -2.884766 -1.071289
vt -1.997070 -1.184570
vt -1.997070 -1.071289
vt -1.997070 -0.945312
vt -1.997070 -1.071289
vt -1.997070 -1.184570
vt -0.998047 -1.071289
vt -0.998047 -1.184570
vt 2.530273 -1.086914
vt 2.530273 -1.136719
vt 3.029297 -1.085938
vt 3.029297 -1.135742
vt -0.998047 -1.071289
vt -2.996094 -1.071289
vt -0.998047 -1.184570
vt -2.996094 -1.184570
vt 2.030273 -1.087891
vt 2.030273 -1.137695
vt 3.029297 -1.085938
vt 3.029297 -1.135742
vt -0.998047 -1.071289
vt -2.996094 -1.071289
vt -0.998047 -1.184570
vt -2.996094 -1.184570
vt 2.030273 -1.087891
vt 2.030273 -1.137695
vt 3.029297 -1.085938
vt 3.029297 -1.135742
vt -2.914062 0.032227
vt -2.915039 -0.081055
vt -0.915039 0.032227
vt -0.916992 -0.081055
vt -0.998047 -1.071289
vt -0.998047 -0.945312
vt -2.996094 -1.071289
vt -2.996094 -0.945312
vt 2.530273 -1.086914
vt 2.030273 -1.087891
vt 2.030273 -1.137695
vt -0.916992 -0.177734
vt -2.915039 -0.081055
vt -2.915039 -0.177734
vt -0.916992 -0.177734
vt -2.915039 -0.081055
vt -2.915039 -0.177734
vt 3.029297 -1.085938
vt 2.030273 -1.087891
vt 2.030273 -1.137695
vt -2.947266 -0.945312
vt -1.997070 -0.945312
vt -2.884766 -1.071289
vn -0.0993 0.8910 0.4431
vn -0.9574 0.1097 0.2672
vn -0.0510 0.8608 0.5065
vn 0.0212 0.8775 0.4790
vn -0.2410 -0.6789 0.6936
vn 0.3983 -0.6488 0.6484
vn -0.0056 -0.5626 -0.8267
vn 0.4023 -0.7038 0.5855
vn 0.0140 0.8761 0.4819
vn -0.7621 0.0654 0.6441
vn -0.0707 0.9085 0.4118
vn 0.1312 0.8386 0.5288
vn -0.6845 0.7234 -0.0898
vn 0.1710 0.8557 0.4885
vn 0.0412 -0.6637 0.7469
vn 0.6671 -0.6407 0.3801
vn -0.3309 -0.5306 -0.7803
vn 0.6429 -0.7014 0.3078
vn 0.1283 0.8224 0.5543
vn -0.6839 0.2317 0.6918
vn 0.0594 0.8621 0.5032
vn 0.2171 0.7780 0.5895
vn -0.5299 0.8467 0.0472
vn 0.6044 0.7929 0.0780
vn 0.1138 -0.6400 0.7599
vn 0.6813 -0.5947 0.4267
vn 0.2371 -0.9133 -0.3313
vn 0.8552 -0.2455 -0.4565
vn 0.6715 -0.6278 0.3937
vn 0.6777 -0.6113 0.4086
vn 0.4452 0.8954 -0.0000
vn 0.3406 0.4826 0.8069
vn -0.4627 0.8819 0.0906
vn 0.4447 0.8946 -0.0432
vn 0.4127 -0.4129 0.8119
vn 0.7070 -0.7072 -0.0000
vn -0.8738 -0.4815 -0.0678
vn 0.2084 -0.9326 -0.2945
vn 0.2334 -0.9314 -0.2792
vn 0.1926 -0.9291 -0.3156
vn 0.1543 -0.9526 -0.2623
vn 0.1978 -0.9513 -0.2363
vn 0.3400 -0.9200 -0.1949
vn -0.1768 -0.8934 -0.4130
vn 0.0005 -0.9401 -0.3408
vn 0.0007 -0.9313 -0.3643
vn 0.3897 0.8260 0.4073
vn -0.2540 0.2745 0.9274
vn 0.2767 0.8789 0.3885
vn 0.5130 0.7634 0.3924
vn -0.3489 0.8860 0.3053
vn 0.5251 0.7814 0.3370
vn 0.5043 -0.5824 0.6376
vn 0.8187 -0.5672 0.0894
vn -0.3786 -0.7887 -0.4845
vn 0.2512 0.8814 0.4001
vn -0.3562 0.1040 0.9286
vn 0.1099 0.9228 0.3692
vn 0.4118 0.8283 0.3799
vn -0.5614 0.7817 0.2717
vn 0.4222 0.8491 0.3174
vn 0.3682 -0.6572 0.6577
vn 0.7643 -0.6434 0.0424
vn -0.6178 -0.5877 -0.5224
vn 0.0000 0.8954 0.4452
vn -0.0429 0.8924 0.4491
vn 0.0000 0.8954 0.4453
vn -0.0048 0.9137 0.4064
vn 0.8120 0.5226 0.2599
vn -0.0678 -0.4811 -0.8740
vn -0.0000 -0.7074 0.7069
vn 0.8120 -0.4129 0.4126
vn -0.0429 0.8925 0.4491
vn 0.8119 0.5227 0.2599
vn -0.0678 -0.4817 -0.8737
vn 0.0000 -0.7071 0.7071
vn 0.8119 -0.4129 0.4128
vn 0.0000 -1.0000 0.0000
vn 0.7038 -0.7104 -0.0009
vn 0.7054 -0.7064 -0.0577
vn 0.6951 -0.7189 -0.0009
vn 0.7128 -0.7014 0.0005
vn 0.6812 -0.7321 -0.0039
vn 0.4551 -0.4479 0.7696
vn -0.8969 0.4330 -0.0893
vn 0.5578 0.8300 -0.0000
vn 0.3562 0.5300 0.7696
vn 0.3942 -0.6460 0.6537
vn 0.3929 -0.6464 0.6541
vn 0.3950 -0.6332 0.6656
vn 0.3968 -0.6590 0.6389
vn 0.3944 -0.6717 0.6271
vn 0.3953 -0.6591 0.6397
vn 0.2600 -0.9656 0.0024
vn 0.2503 -0.9682 0.0023
vn 0.2900 -0.9517 0.1012
vn 0.2473 -0.9622 -0.1141
vn 0.1990 -0.9580 -0.2066
vn 0.2382 -0.9650 -0.1100
vn -0.0000 -0.7014 0.7128
vn 0.0000 -0.7013 0.7129
vn 0.4452 0.8954 0.0001
vn 0.5578 0.8300 0.0001
vn 0.5577 0.8300 0.0001
vn 0.3131 -0.9388 -0.1439
vn -0.0024 -1.0000 -0.0002
vn 0.5577 0.8300 -0.0000
usemtl Tex_0052_0.dds.008
s off
f 1/1/1 3/2/2 2/3/1
f 2/3/3 3/2/3 4/4/4
f 3/2/5 5/5/6 4/4/7
f 4/4/8 5/5/8 6/6/8
f 7/7/9 9/8/10 8/9/11
f 8/9/12 9/8/13 10/10/14
f 9/8/15 11/11/16 10/10/17
f 10/10/18 11/11/18 12/12/18
f 13/13/19 15/14/20 14/15/21
f 14/15/22 15/14/23 16/16/24
f 15/14/25 17/17/26 16/16/27
f 16/16/28 17/17/29 18/18/30
f 19/19/31 21/20/32 20/21/31
f 20/21/31 21/20/33 22/22/34
f 21/20/35 23/23/36 22/22/37
f 22/22/36 23/23/36 24/24/36
f 25/25/38 27/26/39 26/27/40
f 26/27/41 27/26/42 28/28/43
f 27/26/44 29/29/45 28/28/46
f 30/30/47 32/31/48 31/32/49
f 31/32/50 32/31/51 33/33/52
f 32/31/53 34/34/54 33/33/55
f 35/35/56 37/36/57 36/37/58
f 36/37/59 37/36/60 38/38/61
f 37/36/62 39/39/63 38/38/64
f 40/40/65 42/41/66 41/42/65
f 41/42/67 42/41/68 43/43/69
f 42/41/70 44/44/71 43/43/72
f 45/45/65 47/46/73 46/47/65
f 46/47/65 47/46/68 48/48/74
f 47/46/75 49/49/76 48/48/77
f 50/50/78 52/51/78 51/52/78
f 51/52/78 52/51/78 53/53/78
f 52/51/78 54/54/78 53/53/78
f 55/55/79 57/56/80 56/57/81
f 56/57/82 57/56/83 58/58/84
f 57/56/85 59/59/86 58/58/87
f 60/60/88 62/61/89 61/62/90
f 61/62/91 62/61/92 63/63/93
f 64/64/94 66/65/95 65/66/96
f 65/66/97 66/65/98 67/67/99
f 68/68/100 70/69/100 69/70/100
f 69/70/101 70/69/101 71/71/101
f 72/72/78 74/73/78 73/74/78
f 73/74/78 74/73/78 75/75/78
f 76/76/101 78/77/101 77/78/101
f 77/78/101 78/77/101 79/79/101
f 80/80/78 82/81/78 81/82/78
f 81/82/78 82/81/78 83/83/78
f 84/84/102 86/85/102 85/86/102
f 85/86/102 86/85/102 87/87/102
f 88/88/103 90/89/103 89/90/103
f 89/90/104 90/89/104 91/91/104
f 92/92/105 94/93/105 93/94/105
f 95/95/76 97/96/76 96/97/76
f 98/98/76 100/99/76 99/100/76
f 101/101/106 103/102/106 102/103/106
f 104/104/107 106/105/107 105/106/107
