# Blender v3.6.3 OBJ File: 'untitled.blend'
# www.blender.org
mtllib Mesh_0138.mtl
o Mesh_0138_Mesh.131
v 68.885712 33.497093 14.868889
v 69.962753 33.497093 15.519958
v 68.885712 30.957098 14.868889
v 69.962769 30.957098 15.519958
v 69.962753 28.417097 15.519958
v 69.962753 28.417097 17.436455
v 69.962753 30.957098 17.436455
v 68.885712 30.957098 18.087509
v 69.962753 33.497097 17.436455
v 68.885712 33.497097 18.087509
v 68.885788 33.497101 2.168884
v 69.962814 33.497101 2.819962
v 68.885788 30.957100 2.168884
v 69.962830 30.957100 2.819962
v 69.962814 28.417099 2.819962
v 69.962814 28.417099 4.736458
v 69.962814 30.957100 4.736450
v 68.885788 30.957100 5.387512
v 69.962814 33.497101 4.736458
v 68.885788 33.497101 5.387512
v 68.885788 33.497101 -10.531116
v 69.962814 33.497097 -9.880039
v 68.885788 30.957100 -10.531116
v 69.962830 30.957100 -9.880039
v 69.962814 28.417099 -9.880039
v 69.962814 28.417099 -7.963551
v 69.962814 30.957100 -7.963551
v 68.885788 30.957100 -7.312492
v 69.962814 33.497101 -7.963543
v 68.885788 33.497101 -7.312489
v 68.885712 33.497097 -23.231117
v 69.962753 33.497097 -22.580040
v 68.885712 30.957098 -23.231117
v 69.962769 30.957098 -22.580040
v 69.962753 28.417097 -22.580040
v 69.962753 28.417097 -20.663548
v 69.962753 30.957098 -20.663551
v 68.885712 30.957098 -20.012489
v 69.962753 33.497097 -20.663544
v 68.885712 33.497097 -20.012489
v 69.962753 28.417097 17.436455
v 68.885712 30.957098 18.087509
v 69.135422 27.911104 17.828758
v 68.885712 30.957098 14.868889
v 69.962753 28.417097 15.519958
v 69.135422 27.911104 15.127632
v 69.962814 28.417099 4.736458
v 68.885788 30.957100 5.387512
v 69.135468 27.911106 5.128761
v 68.885788 30.957100 2.168884
v 69.962814 28.417099 2.819962
v 69.135468 27.911106 2.427628
v 69.962814 28.417099 -7.963551
v 68.885788 30.957100 -7.312492
v 69.135468 27.911106 -7.571239
v 68.885788 30.957100 -10.531116
v 69.962814 28.417099 -9.880039
v 69.135468 27.911106 -10.272373
v 69.962753 28.417097 -20.663548
v 68.885712 30.957098 -20.012489
v 69.135422 27.911104 -20.271240
v 68.885712 30.957098 -23.231117
v 69.962753 28.417097 -22.580040
v 69.135422 27.911104 -22.972370
vt 0.195312 0.000000
vt 0.195312 -0.314453
vt 0.997070 0.000000
vt 0.997070 -0.306641
vt 0.997070 -0.644531
vt 0.997070 -0.644531
vt 0.195312 -0.314453
vt 0.997070 -0.306641
vt 0.997070 0.000000
vt 0.195312 0.000000
vt 0.195312 0.000000
vt 0.195312 -0.314453
vt 0.997070 0.000000
vt 0.997070 -0.306641
vt 0.997070 -0.644531
vt 0.997070 -0.644531
vt 0.195312 -0.314453
vt 0.997070 -0.306641
vt 0.997070 0.000000
vt 0.195312 0.000000
vt 0.195312 0.000000
vt 0.195312 -0.314453
vt 0.997070 0.000000
vt 0.997070 -0.306641
vt 0.997070 -0.644531
vt 0.997070 -0.644531
vt 0.195312 -0.314453
vt 0.997070 -0.306641
vt 0.997070 0.000000
vt 0.195312 0.000000
vt 0.195312 0.000000
vt 0.195312 -0.314453
vt 0.997070 0.000000
vt 0.997070 -0.306641
vt 0.997070 -0.644531
vt 0.997070 -0.644531
vt 0.195312 -0.314453
vt 0.997070 -0.306641
vt 0.997070 0.000000
vt 0.195312 0.000000
vt 0.997070 -0.644531
vt 0.414062 -0.684570
vt 0.195312 -0.314453
vt 0.195312 -0.314453
vt 0.415039 -0.684570
vt 0.997070 -0.644531
vt 0.997070 -0.644531
vt 0.414062 -0.684570
vt 0.195312 -0.314453
vt 0.195312 -0.314453
vt 0.415039 -0.684570
vt 0.997070 -0.644531
vt 0.997070 -0.644531
vt 0.414062 -0.684570
vt 0.195312 -0.314453
vt 0.195312 -0.314453
vt 0.415039 -0.684570
vt 0.997070 -0.644531
vt 0.997070 -0.644531
vt 0.414062 -0.684570
vt 0.195312 -0.314453
vt 0.195312 -0.314453
vt 0.415039 -0.684570
vt 0.997070 -0.644531
vn -0.5173 0.0000 0.8558
vn -0.5173 0.0000 -0.8558
vn -0.4476 0.0392 -0.8934
vn -0.4476 0.0392 0.8934
usemtl Tex_0036_0.dds.002
s off
f 1/1/1 3/2/1 2/3/1
f 2/3/1 3/2/1 4/4/1
f 3/2/1 5/5/1 4/4/1
f 6/6/2 8/7/2 7/8/2
f 7/8/2 8/7/2 9/9/2
f 8/7/2 10/10/2 9/9/2
f 11/11/1 13/12/1 12/13/1
f 12/13/1 13/12/1 14/14/1
f 13/12/1 15/15/1 14/14/1
f 16/16/2 18/17/2 17/18/2
f 17/18/2 18/17/2 19/19/2
f 18/17/2 20/20/2 19/19/2
f 21/21/1 23/22/1 22/23/1
f 22/23/1 23/22/1 24/24/1
f 23/22/1 25/25/1 24/24/1
f 26/26/2 28/27/2 27/28/2
f 27/28/2 28/27/2 29/29/2
f 28/27/2 30/30/2 29/29/2
f 31/31/1 33/32/1 32/33/1
f 32/33/1 33/32/1 34/34/1
f 33/32/1 35/35/1 34/34/1
f 36/36/2 38/37/2 37/38/2
f 37/38/2 38/37/2 39/39/2
f 38/37/2 40/40/2 39/39/2
f 41/41/3 43/42/3 42/43/3
f 44/44/4 46/45/4 45/46/4
f 47/47/3 49/48/3 48/49/3
f 50/50/4 52/51/4 51/52/4
f 53/53/3 55/54/3 54/55/3
f 56/56/4 58/57/4 57/58/4
f 59/59/3 61/60/3 60/61/3
f 62/62/4 64/63/4 63/64/4
