# Blender v3.6.3 OBJ File: 'untitled.blend'
# www.blender.org
mtllib Mesh_0349.mtl
o Mesh_0349_Mesh.212
v -19.129604 13.264436 32.986336
v -19.129604 12.699906 32.986336
v -20.072247 12.415039 35.794846
v -19.129627 12.029636 32.984467
v -20.072247 11.180231 35.794846
v -20.884518 11.899412 36.675407
v -20.884518 10.664604 36.675407
v -22.214458 11.420217 37.774254
v -22.214458 10.159984 37.774254
v -20.072247 12.415039 35.794846
v -20.072247 11.180231 35.794846
v -20.884518 11.899412 36.675407
v -20.884518 10.664604 36.675407
v -22.214458 11.420217 37.774254
v -22.214458 10.159984 37.774254
v -24.844610 10.724435 38.703194
v -24.844610 10.159984 38.703194
vt -0.500977 -1.003906
vt 0.498047 -1.003906
vt -0.500977 -0.820312
vt -0.500977 -0.603516
vt 0.498047 -0.603516
vt -0.500977 -1.003906
vt 0.498047 -1.003906
vt -0.500977 -0.603516
vt 0.498047 -0.603516
vt 0.498047 -1.003906
vt 1.497070 -1.003906
vt 0.498047 -0.603516
vt 1.497070 -0.603516
vt 0.498047 -1.003906
vt 1.497070 -1.003906
vt 0.498047 -0.603516
vt 1.497070 -0.603516
vn 0.9480 0.0000 0.3182
vn 0.9481 -0.0009 0.3181
vn 0.9481 0.0000 0.3180
vn 0.9480 0.0006 0.3182
vn 0.6369 0.0000 0.7709
vn 0.6370 0.0000 0.7709
vn 0.7350 0.0000 0.6780
vn 0.3330 0.0000 0.9429
usemtl Tex_0032_0.dds.020
s off
f 1/1/1 3/2/1 2/3/1
f 2/3/2 3/2/2 4/4/2
f 3/2/3 5/5/3 4/4/4
f 6/6/5 8/7/5 7/8/5
f 7/8/6 8/7/6 9/9/6
f 10/10/7 12/11/7 11/12/7
f 11/12/7 12/11/7 13/13/7
f 14/14/8 16/15/8 15/16/8
f 15/16/8 16/15/8 17/17/8
