# Blender v3.6.3 OBJ File: 'untitled.blend'
# www.blender.org
mtllib Mesh_0397.mtl
o Mesh_0397_Mesh.112
v 69.962753 36.037094 15.519958
v 69.962753 36.037094 17.436455
v 69.962753 33.497093 15.519958
v 69.962753 33.497097 17.436455
v 69.962814 36.037098 2.819962
v 69.962814 36.037106 4.736458
v 69.962814 33.497101 2.819962
v 69.962814 33.497101 4.736458
v 69.962814 36.037094 -9.880039
v 69.962814 36.037106 -7.963551
v 69.962814 33.497097 -9.880039
v 69.962814 33.497101 -7.963543
v 69.962753 36.037098 -22.580040
v 69.962753 36.037102 -20.663544
v 69.962753 33.497097 -22.580040
v 69.962753 33.497097 -20.663544
vt 0.001953 0.000000
vt 0.001953 -0.999023
vt 1.000977 0.000000
vt 1.000977 -0.999023
vt 0.001953 0.000000
vt 0.001953 -0.999023
vt 1.000977 0.000000
vt 1.000977 -0.999023
vt 0.001953 0.000000
vt 0.001953 -0.999023
vt 1.000977 0.000000
vt 1.000977 -0.999023
vt 0.001953 0.000000
vt 0.001953 -0.999023
vt 1.000977 0.000000
vt 1.000977 -0.999023
vn -1.0000 0.0000 0.0000
usemtl Tex_0110_0.dds
s off
f 1/1/1 3/2/1 2/3/1
f 2/3/1 3/2/1 4/4/1
f 5/5/1 7/6/1 6/7/1
f 6/7/1 7/6/1 8/8/1
f 9/9/1 11/10/1 10/11/1
f 10/11/1 11/10/1 12/12/1
f 13/13/1 15/14/1 14/15/1
f 14/15/1 15/14/1 16/16/1
