# Blender v3.6.3 OBJ File: 'untitled.blend'
# www.blender.org
mtllib Mesh_0230.mtl
o Mesh_0230_Mesh.055
v 26.441683 11.018075 21.878235
v 26.678411 10.706238 22.148232
v 31.035524 11.945123 21.878235
v 31.035524 11.517667 22.148232
v 35.392685 10.706238 22.148232
v 26.441683 11.018075 21.878235
v 25.955526 10.935448 21.878235
v 26.487909 10.671339 21.968147
v 25.955526 7.913203 22.193192
v 26.474947 7.913203 22.193192
v 35.596138 7.913203 22.193192
v 36.115570 7.913203 22.193192
v 35.583183 10.671339 21.968147
v 36.115570 10.935448 21.878235
v 35.629417 11.018075 21.878235
v 26.441683 11.018075 21.878235
v 26.487909 10.671339 21.968147
v 26.678411 10.706238 22.148232
v 26.474947 7.913203 22.193192
v 35.629417 11.018075 21.878235
v 35.392685 10.706238 22.148232
v 35.583183 10.671339 21.968147
v 35.596138 7.913203 22.193192
v 31.035524 11.945123 21.878235
v 35.392685 10.706238 22.148232
v 35.629417 11.018075 21.878235
vt 0.064453 -0.118164
vt 0.997070 -0.123047
vt 0.122070 -0.232422
vt 0.995117 -0.230469
vt 0.122070 -0.232422
vt 0.064453 -0.118164
vt 0.072266 -0.231445
vt 0.016602 -0.097656
vt 0.016602 -0.992188
vt 0.069336 -0.992188
vt 0.069336 -0.992188
vt 0.072266 -0.231445
vt 0.016602 -0.992188
vt 0.016602 -0.097656
vt 0.064453 -0.118164
vt 0.064453 -0.118164
vt 0.122070 -0.232422
vt 0.072266 -0.231445
vt 0.069336 -0.992188
vt 0.064453 -0.118164
vt 0.072266 -0.231445
vt 0.122070 -0.232422
vt 0.069336 -0.992188
vt 0.997070 -0.123047
vt 0.064453 -0.118164
vt 0.122070 -0.232422
vn 0.1203 -0.5961 -0.7939
vn -0.0367 -0.7133 -0.6999
vn 0.0990 -0.5314 -0.8413
vn 0.0832 -0.4469 -0.8907
vn -0.0975 -0.5451 -0.8327
vn -0.0990 -0.5314 -0.8413
vn -0.0832 -0.4469 -0.8907
vn 0.0417 -0.2456 -0.9685
vn -0.0663 -0.2519 -0.9655
vn 0.0581 -0.3418 -0.9380
vn 0.1749 -0.1020 -0.9793
vn 0.0617 -0.1001 -0.9931
vn 0.2181 -0.1012 -0.9707
vn -0.0965 -0.1302 -0.9868
vn 0.0000 -0.0813 -0.9967
vn 0.0000 -0.0670 -0.9978
vn 0.0614 -0.2101 -0.9758
vn -0.1158 -0.1030 -0.9879
vn -0.1749 -0.1021 -0.9793
vn -0.0188 -0.2306 -0.9729
vn -0.0417 -0.2456 -0.9685
vn -0.0581 -0.3418 -0.9380
vn 0.6929 -0.0930 -0.7150
vn 0.6826 -0.1076 -0.7228
vn 0.7038 -0.0889 -0.7048
vn 0.7031 -0.0611 -0.7085
vn 0.6830 -0.0615 -0.7278
vn 0.6916 -0.0620 -0.7196
vn -0.6929 -0.0930 -0.7150
vn -0.7038 -0.0889 -0.7048
vn -0.6826 -0.1076 -0.7228
vn -0.6830 -0.0615 -0.7278
vn -0.7031 -0.0611 -0.7085
vn -0.6916 -0.0620 -0.7196
vn -0.1203 -0.5961 -0.7939
usemtl Tex_0086_1.dds
s off
f 1/1/1 3/2/2 2/3/1
f 2/3/3 3/2/3 4/4/4
f 3/2/5 5/5/6 4/4/7
f 6/6/8 8/7/9 7/8/10
f 7/8/11 8/7/12 9/9/13
f 8/7/14 10/10/15 9/9/16
f 11/11/15 13/12/17 12/13/15
f 12/13/18 13/12/18 14/14/19
f 13/12/20 15/15/21 14/14/22
f 16/16/23 18/17/24 17/18/25
f 17/18/26 18/17/27 19/19/28
f 20/20/29 22/21/30 21/22/31
f 21/22/32 22/21/33 23/23/34
f 24/24/35 26/25/35 25/26/35
