# Blender v3.6.3 OBJ File: 'untitled.blend'
# www.blender.org
mtllib Mesh_0309.mtl
o Mesh_0309_Mesh.197
v -19.764584 7.619987 22.828194
v -17.224585 7.619987 22.828194
v -19.764584 8.889986 20.288193
v -17.224585 8.889986 20.288193
v -17.224585 7.619987 22.828194
v -14.684585 7.619987 22.828194
v -17.224585 8.889986 20.288193
v -14.684585 8.889986 20.288193
v -14.684585 7.619987 22.828194
v -12.144585 7.619987 22.828194
v -14.684585 8.889986 20.288193
v -12.144585 8.889986 20.288193
v -12.144585 7.619987 22.828194
v -9.604584 7.619987 22.828194
v -12.144585 8.889986 20.288193
v -9.604584 8.889986 20.288193
v -19.764584 8.889986 20.288193
v -17.224585 8.889986 20.288193
v -19.764584 10.159986 17.748192
v -17.224585 10.159986 17.748192
v -17.224585 8.889986 20.288193
v -14.684585 8.889986 20.288193
v -17.224585 10.159986 17.748192
v -14.684585 10.159986 17.748192
v -14.684585 8.889986 20.288193
v -12.144585 8.889986 20.288193
v -14.684585 10.159986 17.748192
v -12.144585 10.159986 17.748192
v -12.144585 8.889986 20.288193
v -9.604584 8.889986 20.288193
v -12.144585 10.159986 17.748192
v -9.604584 10.159986 17.748192
v -19.764584 10.159986 17.748192
v -17.224585 10.159986 17.748192
v -19.764584 10.159987 15.208191
v -17.224585 10.159987 15.208191
v -17.224585 10.159986 17.748192
v -14.684585 10.159986 17.748192
v -17.224585 10.159987 15.208191
v -14.684585 10.159987 15.208191
v -14.684585 10.159986 17.748192
v -12.144585 10.159986 17.748192
v -14.684585 10.159987 15.208191
v -12.144585 10.159987 15.208191
v -12.144585 10.159986 17.748192
v -9.604584 10.159986 17.748192
v -12.144585 10.159987 15.208191
v -9.604584 10.159987 15.208191
v -19.764584 10.159987 15.208191
v -17.224585 10.159987 15.208191
v -19.764584 10.159986 12.668190
v -17.224585 10.159986 12.668190
v -17.224585 10.159987 15.208191
v -14.684585 10.159987 15.208191
v -17.224585 10.159986 12.668190
v -14.684585 10.159986 12.668190
v -14.684585 10.159987 15.208191
v -12.144585 10.159987 15.208191
v -14.684585 10.159986 12.668190
v -12.144585 10.159986 12.668190
v -12.144585 10.159987 15.208191
v -9.604584 10.159987 15.208191
v -12.144585 10.159986 12.668190
v -9.604584 10.159986 12.668190
v -19.764584 10.159986 12.668190
v -17.224585 10.159986 12.668190
v -19.764584 10.159987 10.128189
v -17.224585 10.159987 10.128189
v -17.224585 10.159986 12.668190
v -14.684585 10.159986 12.668190
v -17.224585 10.159987 10.128189
v -14.684585 10.159987 10.128189
v -14.684585 10.159986 12.668190
v -12.144585 10.159986 12.668190
v -14.684585 10.159987 10.128189
v -12.144585 10.159987 10.128189
v -12.144585 10.159986 12.668190
v -9.604584 10.159986 12.668190
v -12.144585 10.159987 10.128189
v -9.604584 10.159987 10.128189
v -19.764584 10.159987 10.128189
v -17.224585 10.159987 10.128189
v -19.764584 10.159986 7.588196
v -17.224585 10.159986 7.588196
v -17.224585 10.159987 10.128189
v -14.684585 10.159987 10.128189
v -17.224585 10.159986 7.588196
v -14.684585 10.159986 7.588196
v -14.684585 10.159987 10.128189
v -12.144585 10.159987 10.128189
v -14.684585 10.159986 7.588196
v -12.144585 10.159986 7.588196
v -12.144585 10.159987 10.128189
v -9.604584 10.159987 10.128189
v -12.144585 10.159986 7.588196
v -9.604584 10.159986 7.588196
v -19.764584 10.159986 7.588196
v -17.224585 10.159986 7.588196
v -19.764584 10.159986 5.048195
v -17.224585 10.159986 5.048195
v -17.224585 10.159986 7.588196
v -14.684585 10.159986 7.588196
v -17.224585 10.159986 5.048195
v -14.684585 10.159986 5.048195
v -14.684585 10.159986 7.588196
v -12.144585 10.159986 7.588196
v -14.684585 10.159986 5.048195
v -12.144585 10.159986 5.048195
v -12.144585 10.159986 7.588196
v -9.604584 10.159986 7.588196
v -12.144585 10.159986 5.048195
v -9.604584 10.159986 5.048195
vt 0.000000 -0.999939
vt 0.000000 0.000000
vt 0.999939 -0.999939
vt 0.999939 0.000000
vt 0.000000 -0.999939
vt 0.000000 0.000000
vt 0.999939 -0.999939
vt 0.999939 0.000000
vt 0.000000 -0.999939
vt 0.000000 0.000000
vt 0.999939 -0.999939
vt 0.999939 0.000000
vt 0.000000 -0.999939
vt 0.000000 0.000000
vt 0.999939 -0.999939
vt 0.999939 0.000000
vt 0.000000 -0.999939
vt 0.000000 0.000000
vt 0.999939 -0.999939
vt 0.999939 0.000000
vt 0.000000 -0.999939
vt 0.000000 0.000000
vt 0.999939 -0.999939
vt 0.999939 0.000000
vt 0.000000 -0.999939
vt 0.000000 0.000000
vt 0.999939 -0.999939
vt 0.999939 0.000000
vt 0.000000 -0.999939
vt 0.000000 0.000000
vt 0.999939 -0.999939
vt 0.999939 0.000000
vt 0.000000 -0.999939
vt 0.000000 0.000000
vt 0.999939 -0.999939
vt 0.999939 0.000000
vt 0.000000 -0.999939
vt 0.000000 0.000000
vt 0.999939 -0.999939
vt 0.999939 0.000000
vt 0.000000 -0.999939
vt 0.000000 0.000000
vt 0.999939 -0.999939
vt 0.999939 0.000000
vt 0.000000 -0.999939
vt 0.000000 0.000000
vt 0.999939 -0.999939
vt 0.999939 0.000000
vt 0.000000 -0.999939
vt 0.000000 0.000000
vt 0.999939 -0.999939
vt 0.999939 0.000000
vt 0.000000 -0.999939
vt 0.000000 0.000000
vt 0.999939 -0.999939
vt 0.999939 0.000000
vt 0.000000 -0.999939
vt 0.000000 0.000000
vt 0.999939 -0.999939
vt 0.999939 0.000000
vt 0.000000 -0.999939
vt 0.000000 0.000000
vt 0.999939 -0.999939
vt 0.999939 0.000000
vt 0.000000 -0.999939
vt 0.000000 0.000000
vt 0.999939 -0.999939
vt 0.999939 0.000000
vt 0.000000 -0.999939
vt 0.000000 0.000000
vt 0.999939 -0.999939
vt 0.999939 0.000000
vt 0.000000 -0.999939
vt 0.000000 0.000000
vt 0.999939 -0.999939
vt 0.999939 0.000000
vt 0.000000 -0.999939
vt 0.000000 0.000000
vt 0.999939 -0.999939
vt 0.999939 0.000000
vt 0.000000 -0.999939
vt 0.000000 0.000000
vt 0.999939 -0.999939
vt 0.999939 0.000000
vt 0.000000 -0.999939
vt 0.000000 0.000000
vt 0.999939 -0.999939
vt 0.999939 0.000000
vt 0.000000 -0.999939
vt 0.000000 0.000000
vt 0.999939 -0.999939
vt 0.999939 0.000000
vt 0.000000 -0.999939
vt 0.000000 0.000000
vt 0.999939 -0.999939
vt 0.999939 0.000000
vt 0.000000 -0.999939
vt 0.000000 0.000000
vt 0.999939 -0.999939
vt 0.999939 0.000000
vt 0.000000 -0.999939
vt 0.000000 0.000000
vt 0.999939 -0.999939
vt 0.999939 0.000000
vt 0.000000 -0.999939
vt 0.000000 0.000000
vt 0.999939 -0.999939
vt 0.999939 0.000000
vt 0.000000 -0.999939
vt 0.000000 0.000000
vt 0.999939 -0.999939
vt 0.999939 0.000000
vn 0.0000 -0.8944 -0.4472
vn 0.0000 -1.0000 0.0000
usemtl Tex_0092_1.dds.001
s off
f 1/1/1 3/2/1 2/3/1
f 2/3/1 3/2/1 4/4/1
f 5/5/1 7/6/1 6/7/1
f 6/7/1 7/6/1 8/8/1
f 9/9/1 11/10/1 10/11/1
f 10/11/1 11/10/1 12/12/1
f 13/13/1 15/14/1 14/15/1
f 14/15/1 15/14/1 16/16/1
f 17/17/1 19/18/1 18/19/1
f 18/19/1 19/18/1 20/20/1
f 21/21/1 23/22/1 22/23/1
f 22/23/1 23/22/1 24/24/1
f 25/25/1 27/26/1 26/27/1
f 26/27/1 27/26/1 28/28/1
f 29/29/1 31/30/1 30/31/1
f 30/31/1 31/30/1 32/32/1
f 33/33/2 35/34/2 34/35/2
f 34/35/2 35/34/2 36/36/2
f 37/37/2 39/38/2 38/39/2
f 38/39/2 39/38/2 40/40/2
f 41/41/2 43/42/2 42/43/2
f 42/43/2 43/42/2 44/44/2
f 45/45/2 47/46/2 46/47/2
f 46/47/2 47/46/2 48/48/2
f 49/49/2 51/50/2 50/51/2
f 50/51/2 51/50/2 52/52/2
f 53/53/2 55/54/2 54/55/2
f 54/55/2 55/54/2 56/56/2
f 57/57/2 59/58/2 58/59/2
f 58/59/2 59/58/2 60/60/2
f 61/61/2 63/62/2 62/63/2
f 62/63/2 63/62/2 64/64/2
f 65/65/2 67/66/2 66/67/2
f 66/67/2 67/66/2 68/68/2
f 69/69/2 71/70/2 70/71/2
f 70/71/2 71/70/2 72/72/2
f 73/73/2 75/74/2 74/75/2
f 74/75/2 75/74/2 76/76/2
f 77/77/2 79/78/2 78/79/2
f 78/79/2 79/78/2 80/80/2
f 81/81/2 83/82/2 82/83/2
f 82/83/2 83/82/2 84/84/2
f 85/85/2 87/86/2 86/87/2
f 86/87/2 87/86/2 88/88/2
f 89/89/2 91/90/2 90/91/2
f 90/91/2 91/90/2 92/92/2
f 93/93/2 95/94/2 94/95/2
f 94/95/2 95/94/2 96/96/2
f 97/97/2 99/98/2 98/99/2
f 98/99/2 99/98/2 100/100/2
f 101/101/2 103/102/2 102/103/2
f 102/103/2 103/102/2 104/104/2
f 105/105/2 107/106/2 106/107/2
f 106/107/2 107/106/2 108/108/2
f 109/109/2 111/110/2 110/111/2
f 110/111/2 111/110/2 112/112/2
