# Blender v3.6.3 OBJ File: 'untitled.blend'
# www.blender.org
mtllib Mesh_0158.mtl
o Mesh_0158_Mesh.135
v -6.807751 12.191990 10.128189
v -6.807714 12.191990 8.994415
v -6.807751 10.667991 10.128189
v -6.807714 10.891713 6.318192
v -6.807714 10.667990 6.318192
v -6.807714 10.667990 5.872467
v -6.807714 10.667990 -11.461807
v -6.807714 10.891713 -11.461807
v -6.807751 10.667991 -15.271805
v -6.807714 12.191990 -14.138020
v -6.807751 12.191990 -15.271801
v -6.807789 12.191990 22.828186
v -6.807789 12.191990 16.478188
v -6.807789 10.667990 22.828186
v -6.807789 10.667991 16.478188
v -6.807789 12.191990 16.478188
v -6.807751 12.191990 10.128189
v -6.807789 10.667991 16.478188
v -6.807751 10.667991 10.128189
v -6.807751 12.191990 -15.271801
v -6.807789 12.191990 -21.621811
v -6.807751 10.667991 -15.271805
v -6.807789 10.667991 -21.621815
v -6.807789 12.191990 -21.621811
v -6.807789 12.191991 -27.971809
v -6.807789 10.667991 -21.621815
v -6.807789 10.667991 -27.971813
v -6.807714 10.891713 -11.461807
v -6.807714 10.667990 -11.461807
v -6.807714 10.667991 -11.016083
vt -1.000000 -0.156250
vt -1.000000 -0.945312
vt -0.734375 -0.156250
vt -0.106445 -0.830078
vt -0.106445 -0.945312
vt -0.000977 -0.945312
vt -0.106445 -0.945312
vt -1.000000 -0.945312
vt -0.106445 -0.830078
vt -0.734375 -0.156250
vt -1.000000 -0.156250
vt -0.000977 -0.155273
vt -0.000977 -0.942383
vt 1.997070 -0.155273
vt 1.997070 -0.942383
vt -0.000977 -0.155273
vt -0.000977 -0.942383
vt 1.997070 -0.155273
vt 1.997070 -0.942383
vt -0.000977 -0.155273
vt -0.000977 -0.942383
vt 1.997070 -0.155273
vt 1.997070 -0.942383
vt -0.000977 -0.155273
vt -0.000977 -0.942383
vt 1.997070 -0.155273
vt 1.997070 -0.942383
vt -0.106445 -0.830078
vt -0.000977 -0.945312
vt -0.106445 -0.945312
vn 1.0000 0.0000 0.0000
usemtl Tex_0052_0.dds.012
s off
f 1/1/1 3/2/1 2/3/1
f 2/3/1 3/2/1 4/4/1
f 3/2/1 5/5/1 4/4/1
f 4/4/1 5/5/1 6/6/1
f 7/7/1 9/8/1 8/9/1
f 8/9/1 9/8/1 10/10/1
f 9/8/1 11/11/1 10/10/1
f 12/12/1 14/13/1 13/14/1
f 13/14/1 14/13/1 15/15/1
f 16/16/1 18/17/1 17/18/1
f 17/18/1 18/17/1 19/19/1
f 20/20/1 22/21/1 21/22/1
f 21/22/1 22/21/1 23/23/1
f 24/24/1 26/25/1 25/26/1
f 25/26/1 26/25/1 27/27/1
f 28/28/1 30/29/1 29/30/1
