# Blender v3.6.3 OBJ File: 'untitled.blend'
# www.blender.org
mtllib Mesh_0268.mtl
o Mesh_0268_Mesh.182
v -8.525076 -0.000008 -22.891804
v -8.525076 -0.000008 -20.351807
v -9.604584 -0.000008 -22.891804
v -9.604584 -0.000008 -20.351807
v -12.144585 -0.000008 -20.351807
v -12.144585 -0.000008 -17.811806
v -14.684585 -0.000008 -17.811806
v -14.684585 -0.000008 -15.271805
v -17.224585 -0.000008 -15.271805
v -17.224585 -0.000008 -12.731804
v -19.764584 -0.000008 -12.731804
v -19.764584 -0.000008 -10.191807
v -8.525076 -0.000008 -20.351807
v -8.525076 -0.000008 -17.811806
v -9.604584 -0.000008 -20.351807
v -9.604584 -0.000008 -17.811806
v -12.144585 -0.000008 -17.811806
v -12.144585 -0.000008 -15.271805
v -14.684585 -0.000008 -15.271805
v -14.684585 -0.000008 -12.731804
v -17.224585 -0.000008 -12.731804
v -17.224585 -0.000008 -10.191807
v -19.764584 -0.000008 -10.191807
v -8.525076 -0.000008 -17.811806
v -8.525076 -0.000008 -15.271805
v -9.604584 -0.000008 -17.811806
v -9.604584 -0.000008 -15.271805
v -12.144585 -0.000008 -15.271805
v -12.144585 -0.000008 -12.731804
v -14.684585 -0.000008 -12.731804
v -14.684585 -0.000008 -10.191807
v -17.224585 -0.000008 -10.191807
v -9.604584 -0.000008 -22.891804
v -12.144585 -0.000008 -20.351807
v -12.144585 -0.000008 -22.891804
v -14.684585 -0.000008 -20.351807
v -14.684585 -0.000008 -22.891804
v -17.224585 -0.000008 -20.351807
v -17.224585 -0.000008 -22.891804
v -19.764584 -0.000008 -20.351807
v -19.764584 -0.000008 -22.891804
v -8.525076 -0.000008 -15.271805
v -8.525076 -0.000008 -12.731804
v -9.604584 -0.000008 -15.271805
v -9.604584 -0.000008 -12.731804
v -12.144585 -0.000008 -12.731804
v -9.604584 -0.000008 -10.191807
v -12.144585 -0.000008 -10.191807
v -12.144585 -0.000008 -20.351807
v -14.684585 -0.000008 -17.811806
v -14.684585 -0.000008 -20.351807
v -17.224585 -0.000008 -17.811806
v -17.224585 -0.000008 -20.351807
v -19.764584 -0.000008 -17.811806
v -19.764584 -0.000008 -20.351807
v -14.684585 -0.000008 -17.811806
v -17.224585 -0.000008 -15.271805
v -17.224585 -0.000008 -17.811806
v -19.764584 -0.000008 -15.271805
v -19.764584 -0.000008 -17.811806
v -14.684585 -0.000008 -10.191807
v -12.144585 -0.000008 -12.731804
v -12.144585 -0.000008 -10.191807
v -19.764584 -0.000008 -12.731804
v -19.764584 -0.000008 -15.271805
v -17.224585 -0.000008 -15.271805
vt 1.210938 0.499023
vt 0.999023 0.499023
vt 1.210938 0.000000
vt 0.999023 0.000000
vt 0.499023 0.000000
vt 0.499023 -0.499023
vt 0.000000 -0.499023
vt 0.000000 -0.999023
vt -0.499023 -0.999023
vt -0.499023 -1.498047
vt -0.999023 -1.498047
vt -0.999023 -1.998047
vt 1.210938 0.000000
vt 0.999023 0.000000
vt 1.210938 -0.499023
vt 0.999023 -0.499023
vt 0.499023 -0.499023
vt 0.499023 -0.999023
vt 0.000000 -0.999023
vt 0.000000 -1.498047
vt -0.499023 -1.498047
vt -0.499023 -1.998047
vt -0.999023 -1.998047
vt 1.210938 -0.499023
vt 0.999023 -0.499023
vt 1.210938 -0.999023
vt 0.999023 -0.999023
vt 0.499023 -0.999023
vt 0.499023 -1.498047
vt 0.000000 -1.498047
vt 0.000000 -1.998047
vt -0.499023 -1.998047
vt 0.999023 0.499023
vt 0.499023 0.499023
vt 0.499023 0.000000
vt 0.000000 0.000000
vt 0.000000 0.499023
vt -0.499023 0.000000
vt -0.499023 0.499023
vt -0.999023 0.000000
vt -0.999023 0.499023
vt 1.210938 -0.999023
vt 0.999023 -0.999023
vt 1.210938 -1.498047
vt 0.999023 -1.498047
vt 0.499023 -1.498047
vt 0.999023 -1.998047
vt 0.499023 -1.998047
vt 0.499023 0.000000
vt 0.000000 0.000000
vt 0.000000 -0.499023
vt -0.499023 -0.499023
vt -0.499023 0.000000
vt -0.999023 -0.499023
vt -0.999023 0.000000
vt 0.000000 -0.499023
vt -0.499023 -0.499023
vt -0.499023 -0.999023
vt -0.999023 -0.999023
vt -0.999023 -0.499023
vt 0.000000 -1.998047
vt 0.499023 -1.998047
vt 0.499023 -1.498047
vt -0.999023 -1.498047
vt -0.499023 -0.999023
vt -0.999023 -0.999023
vn 0.0000 1.0000 0.0000
usemtl Tex_0005_1.dds.001
s off
f 1/1/1 3/2/1 2/3/1
f 2/3/1 3/2/1 4/4/1
f 3/2/1 5/5/1 4/4/1
f 4/4/1 5/5/1 6/6/1
f 5/5/1 7/7/1 6/6/1
f 6/6/1 7/7/1 8/8/1
f 7/7/1 9/9/1 8/8/1
f 8/8/1 9/9/1 10/10/1
f 9/9/1 11/11/1 10/10/1
f 10/10/1 11/11/1 12/12/1
f 13/13/1 15/14/1 14/15/1
f 14/15/1 15/14/1 16/16/1
f 15/14/1 17/17/1 16/16/1
f 16/16/1 17/17/1 18/18/1
f 17/17/1 19/19/1 18/18/1
f 18/18/1 19/19/1 20/20/1
f 19/19/1 21/21/1 20/20/1
f 20/20/1 21/21/1 22/22/1
f 21/21/1 23/23/1 22/22/1
f 24/24/1 26/25/1 25/26/1
f 25/26/1 26/25/1 27/27/1
f 26/25/1 28/28/1 27/27/1
f 27/27/1 28/28/1 29/29/1
f 28/28/1 30/30/1 29/29/1
f 29/29/1 30/30/1 31/31/1
f 30/30/1 32/32/1 31/31/1
f 33/33/1 35/34/1 34/35/1
f 34/35/1 35/34/1 36/36/1
f 35/34/1 37/37/1 36/36/1
f 36/36/1 37/37/1 38/38/1
f 37/37/1 39/39/1 38/38/1
f 38/38/1 39/39/1 40/40/1
f 39/39/1 41/41/1 40/40/1
f 42/42/1 44/43/1 43/44/1
f 43/44/1 44/43/1 45/45/1
f 44/43/1 46/46/1 45/45/1
f 45/45/1 46/46/1 47/47/1
f 46/46/1 48/48/1 47/47/1
f 49/49/1 51/50/1 50/51/1
f 50/51/1 51/50/1 52/52/1
f 51/50/1 53/53/1 52/52/1
f 52/52/1 53/53/1 54/54/1
f 53/53/1 55/55/1 54/54/1
f 56/56/1 58/57/1 57/58/1
f 57/58/1 58/57/1 59/59/1
f 58/57/1 60/60/1 59/59/1
f 61/61/1 63/62/1 62/63/1
f 64/64/1 66/65/1 65/66/1
