# Blender v3.6.3 OBJ File: 'untitled.blend'
# www.blender.org
mtllib Mesh_0105.mtl
o Mesh_0105_Mesh
v 43.735394 -0.000010 -2.571808
v 43.735386 -0.000010 -5.111809
v 43.735363 0.634990 -2.571808
v 43.735386 -0.000010 -7.651806
v 43.735363 0.634990 -15.271805
v 43.735386 -0.000010 -10.191807
v 43.735386 -0.000010 -12.731804
v 47.545376 2.539990 -15.271805
v 47.545383 2.539990 -12.731804
v 47.545361 1.904990 -15.271805
v 47.545383 2.539990 -10.191807
v 47.545361 1.904990 -2.571808
v 47.545383 2.539990 -7.651806
v 47.545383 2.539990 -5.111809
v 47.545399 2.539296 -24.796806
v 47.545383 2.539990 -22.891804
v 47.545361 1.904990 -24.796806
v 47.545383 2.539990 -20.351807
v 47.545361 1.904990 -15.271805
v 47.545383 2.539990 -17.811806
v 47.545376 2.539990 -15.271805
v 43.735378 -0.000010 10.128189
v 43.735386 -0.000010 7.588196
v 43.735363 0.634990 10.128189
v 43.735386 -0.000010 5.048195
v 43.735363 0.634990 -2.571808
v 43.735386 -0.000010 2.508194
v 43.735386 -0.000010 -0.031807
v 47.545383 2.539990 -2.571808
v 47.545383 2.539990 -0.031807
v 47.545361 1.904990 -2.571808
v 47.545383 2.539990 2.508194
v 47.545361 1.904990 10.128189
v 47.545383 2.539990 5.048195
v 47.545383 2.539990 7.588196
v 47.545376 2.539990 10.128189
v 47.545383 2.539990 12.668190
v 47.545361 1.904990 10.128189
v 47.545383 2.539990 15.208191
v 47.545361 1.904990 19.653191
v 47.545383 2.539990 17.748192
v 47.545399 2.539295 19.653191
v 45.005360 1.269990 -2.571808
v 45.005360 0.634990 -2.571808
v 45.005360 1.269990 -15.271805
v 45.005360 0.634990 -15.271805
v 45.005360 1.269990 -24.796806
v 45.005360 0.634990 -24.796806
v 43.735386 -0.000010 -17.811806
v 43.735386 -0.000010 -20.351807
v 43.735363 0.634990 -15.271805
v 43.735386 -0.000010 -22.891804
v 43.735363 0.634990 -24.796806
v 43.735363 -0.000010 -24.796806
v 43.735386 -0.000010 17.748192
v 43.735386 -0.000010 15.208191
v 43.735363 0.634990 10.128189
v 43.735386 -0.000010 12.668190
v 43.735378 -0.000010 10.128189
v 46.275364 1.904990 -2.571808
v 46.275364 1.269990 -2.571808
v 46.275364 1.904990 -15.271805
v 46.275364 1.269990 -15.271805
v 46.275364 1.269990 -24.796806
v 46.275364 1.904990 -24.796806
v 46.275364 1.269990 -15.271805
v 46.275364 1.904990 -15.271805
v 45.005360 1.269990 10.128189
v 45.005360 0.634990 10.128189
v 45.005360 1.269990 -2.571808
v 45.005360 0.634990 -2.571808
v 46.275364 1.904990 10.128189
v 46.275364 1.269990 10.128189
v 46.275364 1.904990 -2.571808
v 46.275364 1.269990 -2.571808
v 46.275364 1.269990 19.653191
v 46.275364 1.269990 10.128189
v 46.275364 1.904990 19.653191
v 46.275364 1.904990 10.128189
v 45.005360 0.634990 19.653191
v 45.005360 0.634990 10.128189
v 45.005360 1.269990 19.653191
v 45.005360 1.269990 10.128189
v 43.735363 -0.000010 19.653191
v 43.735386 -0.000010 17.748192
v 43.735363 0.634990 19.653191
v 43.735363 0.634990 10.128189
v 43.735386 -0.000010 -12.731804
v 43.735386 -0.000010 -15.271805
v 43.735363 0.634990 -15.271805
v 47.545361 1.904990 -2.571808
v 47.545383 2.539990 -5.111809
v 47.545383 2.539990 -2.571808
v 43.735386 -0.000010 -15.271805
v 43.735386 -0.000010 -17.811806
v 43.735363 0.634990 -15.271805
v 43.735386 -0.000010 -0.031807
v 43.735394 -0.000010 -2.571808
v 43.735363 0.634990 -2.571808
v 47.545361 1.904990 10.128189
v 47.545383 2.539990 7.588196
v 47.545376 2.539990 10.128189
vt 4.993164 -0.999023
vt 4.993164 0.000000
vt 4.583008 -0.999023
vt 4.184570 -0.999023
vt 2.995117 0.000000
vt 3.787109 -0.999023
vt 3.388672 -0.999023
vt -0.501953 0.000000
vt -0.501953 -0.999023
vt -0.111328 0.000000
vt 0.287109 0.000000
vt 1.496094 -0.999023
vt 0.684570 0.000000
vt 1.083008 0.000000
vt -2.902344 -0.002930
vt -2.751953 -0.999023
vt -2.300781 0.000000
vt -1.702148 0.000000
vt -0.501953 -0.999023
vt -1.102539 0.000000
vt -0.501953 0.000000
vt 4.993164 -0.999023
vt 4.993164 0.000000
vt 4.583008 -0.999023
vt 4.184570 -0.999023
vt 2.995117 0.000000
vt 3.787109 -0.999023
vt 3.388672 -0.999023
vt -0.501953 0.000000
vt -0.501953 -0.999023
vt -0.111328 0.000000
vt 0.287109 0.000000
vt 1.496094 -0.999023
vt 0.684570 0.000000
vt 1.083008 0.000000
vt -2.244141 0.000000
vt -2.244141 -0.999023
vt -1.645508 0.000000
vt -1.045898 0.000000
vt -0.001953 -0.999023
vt -0.446289 0.000000
vt 0.154297 -0.002930
vt 1.496094 0.000000
vt -0.501953 0.000000
vt 1.496094 -0.999023
vt -0.501953 -0.999023
vt -2.749023 0.000000
vt -2.753906 -0.999023
vt -1.602539 -0.999023
vt -1.002930 0.000000
vt -2.201172 -0.999023
vt -2.799805 -0.999023
vt -3.246094 0.000000
vt -3.248047 -0.999023
vt -0.001953 -0.999023
vt -1.745117 0.000000
vt -0.546875 -0.999023
vt -1.145508 -0.999023
vt -1.745117 -0.999023
vt 4.993164 0.000000
vt 2.995117 0.000000
vt 4.993164 -0.999023
vt 2.995117 -0.999023
vt -3.251953 -0.999023
vt -1.002930 -0.999023
vt -3.250977 0.000000
vt -1.002930 0.000000
vt 1.496094 0.000000
vt -0.501953 0.000000
vt 1.496094 -0.999023
vt -0.501953 -0.999023
vt 4.993164 0.000000
vt 2.995117 0.000000
vt 4.993164 -0.999023
vt 2.995117 -0.999023
vt 0.497070 -0.999023
vt 0.497070 0.000000
vt -1.745117 -0.999023
vt -1.745117 0.000000
vt -0.001953 -0.999023
vt -0.001953 0.000000
vt -2.244141 -0.999023
vt -2.244141 0.000000
vt 0.497070 -0.999023
vt 0.497070 0.000000
vt -0.001953 -0.999023
vt -1.745117 0.000000
vt 3.388672 -0.999023
vt 2.995117 0.000000
vt 2.995117 -0.999023
vt 1.496094 -0.999023
vt 1.496094 0.000000
vt 1.083008 0.000000
vt -1.002930 -0.999023
vt -1.002930 0.000000
vt -1.602539 -0.999023
vt 3.388672 -0.999023
vt 2.995117 0.000000
vt 2.995117 -0.999023
vt 1.496094 -0.999023
vt 1.496094 0.000000
vt 1.083008 0.000000
vn -1.0000 -0.0000 0.0000
vn -1.0000 0.0001 -0.0000
usemtl Tex_0009_0.dds
s off
f 1/1/1 3/2/1 2/3/1
f 2/3/1 3/2/1 4/4/1
f 3/2/1 5/5/1 4/4/1
f 4/4/1 5/5/1 6/6/1
f 5/5/1 7/7/1 6/6/1
f 8/8/1 10/9/1 9/10/1
f 9/10/1 10/9/1 11/11/1
f 10/9/1 12/12/1 11/11/1
f 11/11/1 12/12/1 13/13/1
f 12/12/1 14/14/1 13/13/1
f 15/15/2 17/16/2 16/17/2
f 16/17/2 17/16/2 18/18/2
f 17/16/1 19/19/1 18/18/1
f 18/18/1 19/19/1 20/20/1
f 19/19/1 21/21/1 20/20/1
f 22/22/1 24/23/1 23/24/1
f 23/24/1 24/23/1 25/25/1
f 24/23/1 26/26/1 25/25/1
f 25/25/1 26/26/1 27/27/1
f 26/26/1 28/28/1 27/27/1
f 29/29/1 31/30/1 30/31/1
f 30/31/1 31/30/1 32/32/1
f 31/30/1 33/33/1 32/32/1
f 32/32/1 33/33/1 34/34/1
f 33/33/1 35/35/1 34/34/1
f 36/36/1 38/37/1 37/38/1
f 37/38/1 38/37/1 39/39/1
f 38/37/1 40/40/1 39/39/1
f 39/39/1 40/40/1 41/41/1
f 40/40/2 42/42/2 41/41/2
f 43/43/1 45/44/1 44/45/1
f 44/45/1 45/44/1 46/46/1
f 45/44/1 47/47/1 46/46/1
f 46/46/1 47/47/1 48/48/1
f 49/49/1 51/50/1 50/51/1
f 50/51/1 51/50/1 52/52/1
f 51/50/1 53/53/1 52/52/1
f 52/52/1 53/53/1 54/54/1
f 55/55/1 57/56/1 56/57/1
f 56/57/1 57/56/1 58/58/1
f 57/56/1 59/59/1 58/58/1
f 60/60/1 62/61/1 61/62/1
f 61/62/1 62/61/1 63/63/1
f 64/64/1 66/65/1 65/66/1
f 65/66/1 66/65/1 67/67/1
f 68/68/1 70/69/1 69/70/1
f 69/70/1 70/69/1 71/71/1
f 72/72/1 74/73/1 73/74/1
f 73/74/1 74/73/1 75/75/1
f 76/76/1 78/77/1 77/78/1
f 77/78/1 78/77/1 79/79/1
f 80/80/1 82/81/1 81/82/1
f 81/82/1 82/81/1 83/83/1
f 84/84/1 86/85/1 85/86/1
f 85/86/1 86/85/1 87/87/1
f 88/88/1 90/89/1 89/90/1
f 91/91/1 93/92/1 92/93/1
f 94/94/1 96/95/1 95/96/1
f 97/97/1 99/98/1 98/99/1
f 100/100/1 102/101/1 101/102/1
