# Blender v3.6.3 OBJ File: 'untitled.blend'
# www.blender.org
mtllib Mesh_0199.mtl
o Mesh_0199_Mesh.158
v -22.314047 42.031910 7.450813
v -22.579985 41.735744 5.791512
v -22.288902 41.547787 7.522797
v -22.579985 41.359825 5.791512
v -22.314047 41.063660 7.450813
v -22.314047 51.570370 -3.055901
v -22.579985 49.910988 -2.759834
v -22.288902 51.642506 -2.571800
v -22.579985 49.910988 -2.383759
v -22.314047 51.570370 -2.087700
v -22.314047 41.063660 -12.594410
v -22.579985 41.359825 -10.935108
v -22.288902 41.547787 -12.666393
v -22.579985 41.735744 -10.935108
v -22.314047 42.031910 -12.594410
v -22.314047 31.525196 -2.087700
v -22.579985 33.184582 -2.383759
v -22.288902 31.453312 -2.571800
v -22.579985 33.184582 -2.759834
v -22.314047 31.525196 -3.055901
vt 0.484375 0.000000
vt 0.243164 0.000000
vt 0.339844 -0.468750
vt 0.147461 -0.468750
vt 0.002930 0.000000
vt 0.484375 0.000000
vt 0.243164 0.000000
vt 0.339844 -0.468750
vt 0.147461 -0.468750
vt 0.002930 0.000000
vt 0.484375 0.000000
vt 0.243164 0.000000
vt 0.339844 -0.468750
vt 0.147461 -0.468750
vt 0.002930 0.000000
vt 0.484375 0.000000
vt 0.243164 0.000000
vt 0.339844 -0.468750
vt 0.147461 -0.468750
vt 0.002930 0.000000
vn 0.9863 0.0270 -0.1629
vn 0.9903 0.0283 -0.1362
vn 0.9862 0.0000 -0.1658
vn 0.9854 -0.0000 -0.1702
vn 0.9903 -0.0283 -0.1362
vn 0.9863 -0.0270 -0.1629
vn 0.9848 -0.0494 -0.1666
vn 0.9863 -0.1629 -0.0270
vn 0.9903 -0.1363 -0.0284
vn 0.9848 -0.1666 -0.0493
vn 0.9854 -0.1701 -0.0000
vn 0.9866 -0.1631 0.0000
vn 0.9903 -0.1363 0.0284
vn 0.9863 -0.1629 0.0270
vn 0.9848 -0.1666 0.0493
vn 0.9863 -0.0270 0.1629
vn 0.9903 -0.0283 0.1362
vn 0.9862 0.0000 0.1658
vn 0.9854 -0.0000 0.1701
vn 0.9903 0.0283 0.1362
vn 0.9863 0.0270 0.1629
vn 0.9848 0.0494 0.1667
vn 0.9863 0.1629 0.0270
vn 0.9903 0.1362 0.0285
vn 0.9848 0.1667 0.0495
vn 0.9854 0.1702 0.0000
vn 0.9866 0.1632 0.0000
vn 0.9903 0.1362 -0.0285
vn 0.9863 0.1629 -0.0270
vn 0.9848 0.1667 -0.0495
usemtl Tex_0078_0.dds.001
s off
f 1/1/1 3/2/2 2/3/1
f 2/3/3 3/2/3 4/4/4
f 3/2/5 5/5/6 4/4/7
f 6/6/8 8/7/9 7/8/10
f 7/8/11 8/7/12 9/9/11
f 8/7/13 10/10/14 9/9/15
f 11/11/16 13/12/17 12/13/16
f 12/13/18 13/12/18 14/14/19
f 13/12/20 15/15/21 14/14/22
f 16/16/23 18/17/24 17/18/25
f 17/18/26 18/17/27 19/19/26
f 18/17/28 20/20/29 19/19/30
