# Blender v3.6.3 OBJ File: 'untitled.blend'
# www.blender.org
mtllib Mesh_0359.mtl
o Mesh_0359_Mesh.103
v -10.111090 13.405529 27.908195
v -10.111031 13.405523 22.828194
v -10.239567 13.546623 27.908195
v -10.239548 13.546599 22.828194
v -10.239567 13.687794 27.908195
v -10.239548 13.687831 22.828194
v -9.982763 13.828886 27.908195
v -9.982821 13.828907 22.828194
v -9.857168 14.764355 33.281509
v -10.499767 14.076488 37.329010
v -9.982805 14.562653 32.988190
v -10.709829 13.834488 37.569618
v -10.111128 14.393337 32.988190
v -10.831991 13.672017 37.529930
v -9.982805 14.252167 32.988190
v -10.709208 13.524274 37.567757
v -10.831530 12.684481 37.528069
v -10.111128 13.405528 32.988190
v -10.953693 12.832378 37.488380
v -10.239607 13.546621 32.988190
v -10.954155 12.973145 37.489616
v -10.239607 13.687793 32.988190
v -10.708746 13.101354 37.566521
v -9.982805 13.828885 32.988190
v -24.844610 10.865528 47.721596
v -20.271614 11.083959 46.945793
v -24.844610 11.006623 47.593193
v -20.310991 11.245964 46.823006
v -24.844610 11.147793 47.593193
v -20.310991 11.387041 46.823006
v -24.844610 11.288885 47.849991
v -20.232235 11.486569 47.067947
v -16.261196 12.731609 45.242943
v -19.915779 12.416436 47.097717
v -16.098648 12.576890 44.970093
v -20.232235 12.220323 47.067947
v -16.173840 12.425117 44.865913
v -20.271614 12.071806 46.945793
v -16.098648 12.266367 44.970093
v -20.232235 11.909955 47.067947
v -20.271614 11.083959 46.945793
v -16.173840 11.437425 44.865913
v -20.310991 11.245964 46.823006
v -16.249258 11.596174 44.762352
v -20.310991 11.387041 46.823006
v -16.249258 11.737252 44.762352
v -20.232235 11.486569 47.067947
v -16.098648 11.843136 44.970093
v -12.887060 13.281653 42.005936
v -15.788510 12.789745 44.900642
v -12.816988 13.133135 41.696495
v -16.098648 12.576890 44.970093
v -12.920858 12.976710 41.620842
v -16.173840 12.425117 44.865913
v -12.816988 12.822766 41.696495
v -16.098648 12.266367 44.970093
v -16.173840 11.437425 44.865913
v -12.920858 11.988864 41.620842
v -16.249258 11.596174 44.762352
v -13.024725 12.142809 41.545189
v -16.249258 11.737252 44.762352
v -13.024725 12.284039 41.545189
v -16.098648 11.843136 44.970093
v -12.816988 12.399382 41.696495
v -10.680374 13.982076 37.884018
v -12.543674 13.361803 41.534027
v -10.709829 13.834488 37.569618
v -12.816988 13.133135 41.696495
v -10.831991 13.672017 37.529930
v -12.920858 12.976710 41.620842
v -10.709208 13.524274 37.567757
v -12.816988 12.822766 41.696495
v -12.920858 11.988864 41.620842
v -10.831530 12.684481 37.528069
v -13.024725 12.142809 41.545189
v -10.953693 12.832378 37.488380
v -13.024725 12.284039 41.545189
v -10.954155 12.973145 37.489616
v -12.816988 12.399382 41.696495
v -10.708746 13.101354 37.566521
v -9.854303 14.763734 22.828194
v -9.854303 14.763734 27.590691
v -9.982821 14.562661 22.828194
v -9.982767 14.562654 27.908195
v -10.111031 14.393370 22.828194
v -10.111090 14.393338 27.908195
v -9.982763 14.252168 27.908195
v -9.854275 14.763733 32.744499
v -9.982714 14.562645 32.878105
v -9.982714 14.562646 28.018051
v -10.111128 14.393337 32.988190
v -10.111090 14.393338 27.908195
v -9.982805 14.252167 32.988190
v -9.982763 14.252168 27.908195
v -10.111128 13.405528 32.988190
v -10.239567 13.546623 27.908195
v -10.239607 13.546621 32.988190
v -10.239567 13.687794 27.908195
v -10.239607 13.687793 32.988190
v -9.982763 13.828886 27.908195
v -9.982805 13.828885 32.988190
v -34.760895 12.223733 47.978508
v -34.894501 12.022644 47.850067
v -30.034451 12.022644 47.850067
v -35.004585 11.853305 47.721626
v -29.924583 11.853305 47.721626
v -35.004585 11.712195 47.850067
v -29.924583 11.712195 47.850067
v -35.004585 10.865534 47.721626
v -29.924583 11.006644 47.593193
v -35.004585 11.006644 47.593193
v -29.924583 11.147755 47.593193
v -35.004585 11.147755 47.593193
v -29.924583 11.288863 47.850067
v -35.004585 11.288863 47.850067
v -29.680897 12.223733 47.978508
v -29.814501 12.022644 47.850067
v -24.954451 12.022644 47.850067
v -29.924583 11.853305 47.721626
v -24.844610 11.853336 47.721596
v -29.924583 11.712195 47.850067
v -24.844610 11.712167 47.849991
v -29.924583 10.865534 47.721626
v -24.844610 11.006623 47.593193
v -29.924583 11.006644 47.593193
v -24.844610 11.147793 47.593193
v -29.924583 11.147755 47.593193
v -24.844610 11.288885 47.849991
v -29.924583 11.288863 47.850067
v -24.844610 11.712167 47.849991
v -20.232235 11.909955 47.067947
v -24.844610 11.853336 47.721596
v -20.271614 12.071806 46.945793
v -24.844610 12.022653 47.849991
v -20.232235 12.220323 47.067947
v -20.471252 12.385896 47.276932
v -10.239567 13.264437 27.908195
v -10.111090 13.405529 27.908195
v -10.239607 13.264436 32.988190
v -10.111128 13.405528 32.988190
v -10.831530 12.684481 37.528069
v -9.982763 13.828886 27.908195
v -9.982763 14.252168 27.908195
v -9.982805 13.828885 32.988190
v -9.982805 14.252167 32.988190
v -10.709208 13.524274 37.567757
v -29.924583 10.159985 47.593193
v -24.844610 10.159985 47.593193
v -24.844610 10.724436 47.593193
v -20.310991 10.159985 46.823006
v -20.310991 10.963656 46.823006
v -29.924583 10.724426 47.593193
v -24.844610 10.724436 47.593193
v -24.844610 10.865528 47.721596
v -20.310991 10.963656 46.823006
v -20.271614 11.083959 46.945793
v -29.924583 11.288863 47.850067
v -24.844610 11.288885 47.849991
v -24.844610 11.712167 47.849991
v -20.232235 11.486569 47.067947
v -20.232235 11.909955 47.067947
v -9.604549 14.763734 22.828194
v -9.604549 14.763734 27.590691
v -9.854303 14.763734 22.828194
v -9.854303 14.763734 27.590691
v -9.982763 13.828886 27.908195
v -9.982821 13.828907 22.828194
v -9.982763 14.252168 27.908195
v -9.982821 14.252137 22.828194
v -10.239548 13.264445 22.828194
v -10.239567 13.264437 27.908195
v -10.239548 12.699985 22.828194
v -10.239567 12.699985 27.908195
v -10.111031 13.405523 22.828194
v -10.111090 13.405529 27.908195
v -10.239548 13.264445 22.828194
v -10.239567 13.264437 27.908195
v -9.604584 14.763734 28.151871
v -9.604584 14.763733 32.744499
v -9.854275 14.763734 28.151871
v -9.854275 14.763733 32.744499
v -10.239567 12.699985 27.908195
v -10.239567 13.264437 27.908195
v -10.239607 12.699984 32.988190
v -10.239607 13.264436 32.988190
v -30.168262 12.223733 48.228188
v -34.760895 12.223733 48.228188
v -30.168264 12.223733 47.978508
v -34.760895 12.223733 47.978508
v -29.924583 10.159985 47.593193
v -29.924583 10.724426 47.593193
v -35.004585 10.159985 47.593193
v -35.004585 10.724426 47.593193
v -29.924583 10.724426 47.593193
v -29.924583 10.865534 47.721626
v -35.004585 10.724426 47.593193
v -35.004585 10.865534 47.721626
v -29.924583 11.288863 47.850067
v -29.924583 11.712195 47.850067
v -35.004585 11.288863 47.850067
v -35.004585 11.712195 47.850067
v -25.088263 12.223733 48.228188
v -29.680897 12.223733 48.228188
v -25.088264 12.223733 47.978508
v -29.680897 12.223733 47.978508
v -10.260712 14.064086 37.402184
v -10.499767 14.076488 37.329010
v -9.607729 14.763425 33.286469
v -9.857168 14.764355 33.281509
v -24.601303 12.170712 48.130829
v -24.601303 12.212881 47.983246
v -20.399120 12.345277 47.515671
v -20.471252 12.385896 47.276932
v -19.834465 12.376283 47.333366
v -19.915779 12.416436 47.097717
v -16.118725 12.696728 45.448212
v -16.261196 12.731609 45.242943
v -16.249258 11.314021 44.762352
v -20.310991 10.963656 46.823006
v -16.249258 10.497018 44.762352
v -20.310991 10.159985 46.823006
v -16.173840 11.437425 44.865913
v -20.271614 11.083959 46.945793
v -16.249258 11.314021 44.762352
v -20.310991 10.963656 46.823006
v -16.098648 12.266367 44.970093
v -20.232235 11.909955 47.067947
v -16.098648 11.843136 44.970093
v -20.232235 11.486569 47.067947
v -15.638133 12.755794 45.099693
v -15.788510 12.789745 44.900642
v -12.688160 13.255918 42.157242
v -12.887060 13.281653 42.005936
v -13.024725 11.860654 41.545189
v -16.249258 11.314021 44.762352
v -13.024725 11.043651 41.545189
v -16.249258 10.497018 44.762352
v -12.920858 11.988864 41.620842
v -16.173840 11.437425 44.865913
v -13.024725 11.860654 41.545189
v -16.249258 11.314021 44.762352
v -12.816988 12.822766 41.696495
v -16.098648 12.266367 44.970093
v -12.816988 12.399382 41.696495
v -16.098648 11.843136 44.970093
v -12.338953 13.337463 41.677277
v -12.543674 13.361803 41.534027
v -10.444420 13.968278 37.965866
v -10.680374 13.982076 37.884018
v -10.953693 12.550070 37.488380
v -13.024725 11.860654 41.545189
v -10.953693 11.733066 37.488380
v -13.024725 11.043651 41.545189
v -10.831530 12.684481 37.528069
v -12.920858 11.988864 41.620842
v -10.953693 12.550070 37.488380
v -13.024725 11.860654 41.545189
v -10.709208 13.524274 37.567757
v -12.816988 12.822766 41.696495
v -10.708746 13.101354 37.566521
v -12.816988 12.399382 41.696495
v -9.982763 14.252168 27.908195
v -9.982821 14.252137 22.828194
v -10.111031 14.393370 22.828194
v -9.982714 14.562646 28.018051
v -9.854275 14.763734 28.151871
v -9.854275 14.763733 32.744499
v -9.982714 14.562646 28.018051
v -10.111090 14.393338 27.908195
v -9.982767 14.562654 27.908195
v -10.111128 14.393337 32.988190
v -9.982714 14.562645 32.878105
v -9.982805 14.562653 32.988190
v -10.239567 13.546623 27.908195
v -10.111128 13.405528 32.988190
v -10.111090 13.405529 27.908195
v -30.034451 12.022644 47.850067
v -30.168264 12.223733 47.978508
v -34.760895 12.223733 47.978508
v -30.034451 12.022644 47.850067
v -29.924583 11.853305 47.721626
v -29.924583 12.022644 47.850067
v -35.004585 11.853305 47.721626
v -34.894501 12.022644 47.850067
v -35.004585 12.022644 47.850067
v -29.924583 11.006644 47.593193
v -35.004585 10.865534 47.721626
v -29.924583 10.865534 47.721626
v -24.954451 12.022644 47.850067
v -25.088264 12.223733 47.978508
v -29.680897 12.223733 47.978508
v -24.954451 12.022644 47.850067
v -24.844610 11.853336 47.721596
v -24.844610 12.022653 47.849991
v -29.924583 11.853305 47.721626
v -29.814501 12.022644 47.850067
v -29.924583 12.022644 47.850067
v -24.844610 10.724436 47.593193
v -29.924583 10.724426 47.593193
v -29.924583 10.159985 47.593193
v -24.844610 10.865528 47.721596
v -29.924583 10.865534 47.721626
v -29.924583 10.724426 47.593193
v -24.844610 11.006623 47.593193
v -29.924583 10.865534 47.721626
v -24.844610 10.865528 47.721596
v -24.844610 11.712167 47.849991
v -29.924583 11.712195 47.850067
v -29.924583 11.288863 47.850067
v -10.953693 12.550070 37.488380
v -10.239607 13.264436 32.988190
v -10.831530 12.684481 37.528069
v -10.708746 13.101354 37.566521
v -9.982805 13.828885 32.988190
v -10.709208 13.524274 37.567757
v -24.844610 12.022653 47.849991
v -20.471252 12.385896 47.276932
v -24.601303 12.212881 47.983246
vt 0.497070 -1.694336
vt 0.497070 -2.070312
vt -1.307617 -1.694336
vt -1.266602 -2.070312
vt 0.497070 -2.196289
vt -1.266602 -2.196289
vt 0.497070 -1.770508
vt -1.349609 -1.770508
vt 1.420898 1.045898
vt 1.496094 0.799805
vt -0.422852 1.047852
vt -0.498047 0.799805
vt 1.502930 0.655273
vt -0.504883 0.655273
vt 1.496094 0.794922
vt -0.498047 0.794922
vt -1.500977 -1.694336
vt -1.500977 -2.070312
vt 0.497070 -1.694336
vt 0.497070 -2.070312
vt -1.500977 -2.196289
vt 0.497070 -2.196289
vt -1.500977 -1.770508
vt 0.497070 -1.770508
vt -1.500977 -1.694336
vt -1.500977 -2.070312
vt 0.497070 -1.694336
vt 0.497070 -2.070312
vt -1.500977 -2.196289
vt 0.497070 -2.196289
vt -1.500977 -1.770508
vt 0.497070 -1.770508
vt 1.420898 1.045898
vt 1.496094 0.799805
vt -0.422852 1.047852
vt -0.498047 0.799805
vt 1.502930 0.655273
vt -0.504883 0.655273
vt 1.496094 0.794922
vt -0.498047 0.794922
vt -1.500977 -1.694336
vt -1.500977 -2.070312
vt 0.497070 -1.694336
vt 0.497070 -2.070312
vt -1.500977 -2.196289
vt 0.497070 -2.196289
vt -1.500977 -1.770508
vt 0.497070 -1.770508
vt 1.420898 1.045898
vt 1.496094 0.799805
vt -0.422852 1.047852
vt -0.498047 0.799805
vt 1.502930 0.655273
vt -0.504883 0.655273
vt 1.496094 0.794922
vt -0.498047 0.794922
vt -1.500977 -1.694336
vt -1.500977 -2.070312
vt 0.497070 -1.694336
vt 0.497070 -2.070312
vt -1.500977 -2.196289
vt 0.497070 -2.196289
vt -1.500977 -1.770508
vt 0.497070 -1.770508
vt 1.420898 1.045898
vt 1.496094 0.799805
vt -0.422852 1.047852
vt -0.498047 0.799805
vt 1.502930 0.655273
vt -0.504883 0.655273
vt 1.496094 0.794922
vt -0.498047 0.794922
vt -1.500977 -1.694336
vt -1.500977 -2.070312
vt 0.497070 -1.694336
vt 0.497070 -2.070312
vt -1.500977 -2.196289
vt 0.497070 -2.196289
vt -1.500977 -1.770508
vt 0.497070 -1.770508
vt -0.382812 1.046875
vt -0.342773 0.799805
vt 1.476562 1.041992
vt 1.496094 0.799805
vt -0.300781 0.655273
vt 1.496094 0.655273
vt 1.496094 0.794922
vt 1.416992 1.045898
vt -0.443359 0.830078
vt 1.453125 0.828125
vt 1.502930 0.655273
vt -0.504883 0.655273
vt 1.496094 0.794922
vt -0.498047 0.794922
vt 0.497070 -1.694336
vt 0.497070 -2.070312
vt -1.500977 -2.070312
vt -1.500977 -2.196289
vt 0.497070 -2.196289
vt -1.500977 -1.770508
vt 0.497070 -1.770508
vt 1.416992 1.045898
vt -0.443359 0.830078
vt 1.453125 0.828125
vt 1.502930 0.655273
vt -0.504883 0.655273
vt 1.496094 0.794922
vt -0.498047 0.794922
vt 0.497070 -1.694336
vt 0.497070 -2.070312
vt -1.500977 -2.070312
vt -1.500977 -2.196289
vt 0.497070 -2.196289
vt -1.500977 -1.770508
vt 0.497070 -1.770508
vt 1.416992 1.045898
vt -0.443359 0.830078
vt 1.453125 0.828125
vt 1.502930 0.655273
vt -0.504883 0.655273
vt 1.496094 0.794922
vt -0.498047 0.794922
vt 0.497070 -1.694336
vt 0.497070 -2.070312
vt -1.500977 -2.070312
vt -1.500977 -2.196289
vt 0.497070 -2.196289
vt -1.500977 -1.770508
vt 0.497070 -1.770508
vt -0.498047 0.794922
vt -0.504883 0.655273
vt 1.496094 0.794922
vt 1.502930 0.655273
vt -0.498047 0.799805
vt 1.496094 0.799805
vt 1.420898 1.045898
vt -1.500977 -3.003906
vt 0.497070 -3.003906
vt -1.500977 -3.352539
vt 0.497070 -3.352539
vt -1.500977 -3.352539
vt -1.500977 -0.653320
vt 0.497070 -0.653320
vt -1.500977 -0.346680
vt 0.497070 -0.346680
vt -1.500977 -0.346680
vt 0.497070 -2.603516
vt -1.500977 -3.003906
vt -1.500977 -2.603516
vt 0.497070 -2.603516
vt 0.497070 -3.003906
vt 0.497070 -3.003906
vt -1.500977 -3.352539
vt -1.500977 -3.003906
vt 0.497070 -3.003906
vt 0.497070 -3.352539
vt 0.497070 -0.653320
vt -1.500977 -0.346680
vt -1.500977 -0.653320
vt 0.497070 -0.653320
vt 0.497070 -0.346680
vt -0.304688 1.397461
vt -0.382812 1.046875
vt 1.500000 1.397461
vt 1.476562 1.041992
vt 0.497070 -0.653320
vt 0.497070 -0.346680
vt -1.344727 -0.653320
vt -1.344727 -0.346680
vt -1.266602 -3.003906
vt -1.266602 -2.603516
vt 0.497070 -3.003906
vt 0.497070 -2.603516
vt -1.306641 -3.352539
vt -1.266602 -3.003906
vt 0.497070 -3.352539
vt 0.497070 -3.003906
vt -1.500977 -1.000000
vt -1.500977 -1.249023
vt 0.497070 -1.000000
vt 0.497070 -1.249023
vt -1.500977 -2.603516
vt 0.497070 -2.603516
vt -1.500977 -3.003906
vt 0.497070 -3.003906
vt -1.500977 -1.000000
vt -1.500977 -1.249023
vt 0.497070 -1.000000
vt 0.497070 -1.249023
vt -1.500977 -2.603516
vt 0.497070 -2.603516
vt -1.500977 -3.003906
vt 0.497070 -3.003906
vt -1.500977 -3.003906
vt 0.497070 -3.003906
vt -1.500977 -3.352539
vt 0.497070 -3.352539
vt -1.500977 -0.653320
vt 0.497070 -0.653320
vt -1.500977 -0.346680
vt 0.497070 -0.346680
vt -1.500977 -1.000000
vt -1.500977 -1.249023
vt 0.497070 -1.000000
vt 0.497070 -1.249023
vt -0.422852 1.397461
vt 1.420898 1.397461
vt -0.422852 1.047852
vt 1.420898 1.045898
vt -0.422852 1.397461
vt 1.420898 1.397461
vt -0.422852 1.047852
vt 1.420898 1.045898
vt -0.422852 1.397461
vt 1.420898 1.397461
vt -0.422852 1.047852
vt 1.420898 1.045898
vt 0.497070 -3.003906
vt 0.497070 -2.603516
vt -1.500977 -3.003906
vt -1.500977 -2.603516
vt 0.497070 -3.352539
vt 0.497070 -3.003906
vt -1.500977 -3.352539
vt -1.500977 -3.003906
vt 0.497070 -0.346680
vt 0.497070 -0.653320
vt -1.500977 -0.346680
vt -1.500977 -0.653320
vt -0.422852 1.397461
vt 1.420898 1.397461
vt -0.422852 1.047852
vt 1.420898 1.045898
vt 0.497070 -3.003906
vt 0.497070 -2.603516
vt -1.500977 -3.003906
vt -1.500977 -2.603516
vt 0.497070 -3.352539
vt 0.497070 -3.003906
vt -1.500977 -3.352539
vt -1.500977 -3.003906
vt 0.497070 -0.346680
vt 0.497070 -0.653320
vt -1.500977 -0.346680
vt -1.500977 -0.653320
vt -0.422852 1.397461
vt 1.420898 1.397461
vt -0.422852 1.047852
vt 1.420898 1.045898
vt 0.497070 -3.003906
vt 0.497070 -2.603516
vt -1.500977 -3.003906
vt -1.500977 -2.603516
vt 0.497070 -3.352539
vt 0.497070 -3.003906
vt -1.500977 -3.352539
vt -1.500977 -3.003906
vt 0.497070 -0.346680
vt 0.497070 -0.653320
vt -1.500977 -0.346680
vt -1.500977 -0.653320
vt 1.496094 0.794922
vt -0.300781 0.655273
vt -0.342773 0.794922
vt -0.443359 0.830078
vt 1.416992 1.045898
vt -0.422852 1.047852
vt -0.443359 0.830078
vt -0.498047 0.831055
vt -0.504883 0.655273
vt 1.502930 0.655273
vt 1.496094 0.827148
vt 1.453125 0.828125
vt -1.500977 -2.070312
vt -1.500977 -1.694336
vt 0.497070 -1.694336
vt -0.443359 0.830078
vt 1.416992 1.045898
vt -0.422852 1.047852
vt -0.443359 0.830078
vt -0.498047 0.831055
vt -0.504883 0.655273
vt 1.502930 0.655273
vt 1.496094 0.827148
vt 1.453125 0.828125
vt -1.500977 -2.070312
vt -1.500977 -1.694336
vt 0.497070 -1.694336
vt -0.443359 0.830078
vt 1.416992 1.045898
vt -0.422852 1.047852
vt -0.443359 0.830078
vt -0.498047 0.831055
vt -0.504883 0.655273
vt 1.502930 0.655273
vt 1.496094 0.827148
vt 1.453125 0.828125
vt -1.500977 -3.003906
vt 0.497070 -2.603516
vt 0.497070 -3.003906
vt -1.500977 -3.352539
vt 0.497070 -3.003906
vt 0.497070 -3.352539
vt -1.500977 -2.070312
vt -1.500977 -1.694336
vt 0.497070 -1.694336
vt -1.500977 -0.346680
vt 0.497070 -0.653320
vt 0.497070 -0.346680
vt -1.500977 -3.003906
vt -1.500977 -3.352539
vt 0.497070 -3.003906
vt -1.500977 -0.653320
vt -1.500977 -0.346680
vt 0.497070 -0.653320
vt -0.498047 0.799805
vt -0.422852 1.047852
vt 1.420898 1.045898
vn -0.7394 -0.6733 -0.0000
vn -0.6975 -0.6166 0.3651
vn -0.7392 -0.6734 0.0000
vn -0.7392 -0.6734 -0.0117
vn -0.9343 0.0000 0.3566
vn -0.8580 0.0142 0.5135
vn -0.7471 0.6644 -0.0185
vn -1.0000 0.0000 -0.0000
vn -0.8607 -0.0000 -0.5091
vn -0.4157 0.7567 0.5046
vn -0.4815 0.8764 0.0000
vn 0.0311 0.9991 -0.0294
vn -0.4402 0.7402 -0.5083
vn -0.4816 0.8764 0.0000
vn -0.8247 0.5645 -0.0350
vn -0.8386 0.5445 -0.0178
vn -0.7642 0.6447 -0.0188
vn -0.7503 0.6610 0.0097
vn -0.7983 0.6021 -0.0121
vn -0.6427 0.4540 -0.6171
vn -0.8070 0.5896 -0.0336
vn -0.7970 0.6038 -0.0145
vn -0.2867 0.9548 0.0790
vn -0.6763 0.3503 0.6480
vn -0.4186 -0.3807 -0.8245
vn -0.7220 -0.6563 -0.2188
vn -0.1860 -0.9696 -0.1587
vn -0.7698 -0.5089 0.3853
vn -0.7222 -0.6562 -0.2188
vn -0.7227 -0.6556 -0.2188
vn -0.7877 -0.6097 0.0885
vn -0.7238 -0.6544 -0.2188
vn -0.7215 -0.6570 -0.2188
vn -0.4742 -0.8578 -0.1981
vn -0.7194 -0.6551 -0.2311
vn -0.9696 -0.0053 0.2448
vn -0.9293 0.0092 0.3693
vn -0.7611 0.6475 -0.0383
vn -0.9876 0.0000 -0.1568
vn -0.7176 -0.0001 -0.6965
vn -0.5145 0.6479 0.5617
vn -0.4776 0.8763 0.0630
vn -0.0230 0.9919 0.1248
vn -0.4661 0.7896 -0.3991
vn -0.4834 0.8732 0.0621
vn -0.4806 0.8747 0.0628
vn -0.0929 -0.6701 -0.7364
vn -0.4235 -0.5994 -0.6793
vn -0.0827 -0.7193 -0.6898
vn -0.0983 -0.6162 -0.7815
vn -0.0712 -0.8065 -0.5869
vn 0.2247 -0.5533 -0.8021
vn -0.5305 -0.0018 -0.8477
vn -0.6506 0.0158 -0.7593
vn -0.1652 0.3259 -0.9309
vn 0.1629 -0.0100 -0.9866
vn -0.1328 -0.5144 -0.8472
vn 0.4563 0.0057 -0.8898
vn -0.5997 0.7013 -0.3853
vn -0.1330 0.8686 -0.4773
vn -0.0375 0.9946 -0.0964
vn 0.4144 0.7721 -0.4817
vn -0.0779 0.9739 -0.2132
vn -0.0988 0.9326 -0.3472
vn -0.3723 0.6945 -0.6156
vn -0.3355 0.7178 -0.6101
vn -0.3724 0.6944 -0.6157
vn -0.3582 0.7252 -0.5880
vn -0.3894 0.7163 -0.5790
vn -0.3695 0.6433 -0.6705
vn 0.1945 0.4631 -0.8647
vn -0.3953 0.6281 -0.6702
vn -0.4086 0.6426 -0.6481
vn -0.1386 0.9765 -0.1648
vn -0.8832 0.4145 -0.2192
vn 0.3404 -0.3979 -0.8520
vn -0.3119 -0.6201 -0.7198
vn -0.0655 -0.9701 -0.2338
vn -0.8212 -0.4398 -0.3637
vn -0.3123 -0.6192 -0.7205
vn -0.3121 -0.6195 -0.7202
vn -0.3115 -0.6209 -0.7193
vn -0.5870 -0.5647 -0.5801
vn -0.3124 -0.6187 -0.7209
vn -0.0039 -0.5477 -0.8367
vn -0.7357 -0.0001 -0.6774
vn -0.8779 0.0175 -0.4785
vn -0.4412 0.3244 -0.8367
vn -0.1384 -0.0100 -0.9903
vn -0.3496 -0.5661 -0.7465
vn 0.1752 -0.0000 -0.9845
vn -0.7074 0.7043 -0.0587
vn -0.2325 0.9248 -0.3010
vn 0.0312 0.9864 0.1611
vn 0.1984 0.7861 -0.5854
vn -0.2336 0.9238 -0.3032
vn -0.2331 0.9243 -0.3021
vn -0.5712 0.6820 -0.4567
vn -0.5376 0.7049 -0.4627
vn -0.5717 0.6812 -0.4573
vn -0.5708 0.6828 -0.4561
vn -0.5507 0.7128 -0.4343
vn -0.5761 0.7037 -0.4158
vn -0.5828 0.6332 -0.5093
vn -0.1212 0.4700 -0.8743
vn -0.6054 0.6189 -0.5005
vn -0.6118 0.6313 -0.4765
vn -0.2294 0.9680 -0.1020
vn -0.9172 0.3855 0.1005
vn 0.1020 -0.3825 -0.9183
vn -0.4934 -0.6284 -0.6014
vn -0.1056 -0.9667 -0.2331
vn -0.8768 -0.4642 -0.1255
vn -0.4941 -0.6274 -0.6019
vn -0.7139 -0.5790 -0.3938
vn -0.4947 -0.6265 -0.6023
vn -0.4934 -0.6284 -0.6013
vn -0.3236 -0.8338 -0.4472
vn -0.2199 -0.5457 -0.8086
vn -0.9170 0.0000 -0.3989
vn -0.9779 0.0167 -0.2085
vn -0.6884 0.3233 -0.6493
vn -0.4384 -0.0099 -0.8987
vn -0.5579 -0.5431 -0.6276
vn -0.1389 0.0001 -0.9903
vn -0.7183 0.6726 0.1780
vn -0.3584 0.9109 -0.2044
vn 0.0122 0.9903 0.1383
vn -0.0494 0.8005 -0.5973
vn -0.3570 0.9118 -0.2030
vn -0.3577 0.9114 -0.2037
vn -0.7044 0.6656 -0.2465
vn -0.6772 0.6876 -0.2618
vn -0.7049 0.6649 -0.2469
vn -0.7038 0.6664 -0.2461
vn -0.6808 0.6948 -0.2320
vn -0.6975 0.6857 -0.2082
vn -0.7288 0.6193 -0.2921
vn -0.4106 0.4670 -0.7831
vn -0.7463 0.6051 -0.2773
vn -0.7442 0.6179 -0.2536
vn -0.2800 0.9599 -0.0093
vn -0.8396 0.3612 0.4058
vn -0.1630 -0.3697 -0.9148
vn -0.6356 -0.6391 -0.4331
vn -0.1540 -0.9646 -0.2142
vn -0.8636 -0.4882 0.1263
vn -0.6331 -0.6421 -0.4323
vn -0.6343 -0.6406 -0.4327
vn -0.7859 -0.5954 -0.1670
vn -0.6346 -0.6403 -0.4328
vn -0.4185 -0.8414 -0.3419
vn -0.4267 -0.5459 -0.7211
vn -0.9970 -0.0000 -0.0776
vn -0.9967 0.0159 0.0790
vn -0.8591 0.3260 -0.3945
vn -0.6913 -0.0059 -0.7225
vn -0.7313 -0.5183 -0.4433
vn -0.4488 0.0063 -0.8936
vn -0.6493 0.6488 0.3968
vn -0.4424 0.8938 -0.0740
vn -0.0089 0.9913 0.1313
vn -0.2863 0.8000 -0.5273
vn -0.4442 0.8928 -0.0750
vn -0.4433 0.8933 -0.0745
vn -0.8426 0.5385 0.0000
vn -0.8409 0.5398 0.0397
vn -0.8427 0.5384 0.0000
vn -0.8635 0.5044 0.0020
vn -0.8448 0.5351 -0.0029
vn -0.7966 0.6033 0.0397
vn -0.7976 0.6028 -0.0240
vn -0.7499 0.6616 -0.0031
vn -0.7970 0.6040 -0.0000
vn -0.6130 0.4646 0.6390
vn 0.5041 -0.8628 -0.0367
vn -0.7400 -0.6726 -0.0000
vn -0.5692 -0.5175 0.6389
vn -0.8428 0.5383 0.0000
vn -0.8823 0.4707 0.0039
vn -0.8555 0.5157 -0.0463
vn -0.8041 0.5940 -0.0244
vn -0.7955 0.6059 0.0001
vn -0.3410 0.6532 0.6760
vn -0.7974 0.6035 0.0016
vn -0.3245 0.6756 -0.6620
vn -0.0811 0.9962 0.0319
vn -0.6326 -0.5751 0.5187
vn -0.2838 -0.9587 -0.0195
vn -0.6457 -0.5606 -0.5185
vn -0.6895 -0.6279 0.3610
vn -0.1094 -0.9937 -0.0248
vn -0.9999 0.0000 -0.0158
vn -0.9326 0.3608 0.0100
vn -0.8607 0.0141 -0.5090
vn -0.9326 -0.0100 0.3608
vn -0.8607 -0.0000 0.5091
vn -0.8607 -0.5090 -0.0141
vn -0.4144 0.7543 -0.5091
vn 0.0311 0.9991 0.0294
vn -0.4401 0.7402 0.5083
vn 0.0000 0.5383 -0.8428
vn -0.0040 0.4707 -0.8823
vn 0.0462 0.5157 -0.8555
vn 0.0243 0.5940 -0.8041
vn -0.0001 0.6058 -0.7956
vn -0.6763 0.6531 -0.3408
vn -0.0016 0.6036 -0.7973
vn 0.6623 0.6755 -0.3240
vn -0.0319 0.9962 -0.0805
vn -0.5190 -0.5754 -0.6321
vn 0.0195 -0.9590 -0.2827
vn 0.0000 -0.6731 -0.7395
vn 0.5188 -0.5609 -0.6452
vn -0.3609 -0.6278 -0.6897
vn 0.0248 -0.9936 -0.1099
vn 0.0158 0.0000 -0.9999
vn -0.0100 0.3608 -0.9326
vn 0.5090 0.0141 -0.8607
vn -0.3608 -0.0100 -0.9326
vn -0.5092 -0.0000 -0.8607
vn 0.0141 -0.5090 -0.8607
vn 0.5092 0.7544 -0.4144
vn -0.0294 0.9991 0.0311
vn 0.0000 0.8765 -0.4815
vn -0.5084 0.7402 -0.4401
vn -0.0040 0.4705 -0.8824
vn -0.0001 0.6057 -0.7957
vn -0.0016 0.6038 -0.7972
vn 0.6623 0.6756 -0.3240
vn -0.0319 0.9963 -0.0801
vn -0.5189 -0.5754 -0.6322
vn 0.0195 -0.9591 -0.2825
vn 0.5188 -0.5606 -0.6454
vn -0.0000 -0.6728 -0.7398
vn -0.0000 -0.6725 -0.7401
vn 0.5089 0.0141 -0.8607
vn 0.5091 0.7543 -0.4144
vn -0.0294 0.9991 0.0310
vn -0.0000 0.8764 -0.4815
vn -0.0961 -0.6697 -0.7364
vn -0.6911 -0.4661 -0.5524
vn -0.0860 -0.7195 -0.6891
vn -0.1014 -0.6149 -0.7821
vn -0.0336 -0.9517 -0.3053
vn 0.5537 -0.4098 -0.7249
vn -0.7640 0.3882 -0.5154
vn -0.1677 0.5957 -0.7855
vn -0.0713 0.9447 -0.3201
vn 0.4730 0.4574 -0.7530
vn -0.1486 0.6995 -0.6990
vn -0.1395 0.6508 -0.7463
vn -0.1490 0.7582 -0.6348
vn -0.1503 0.6840 -0.7139
vn -0.1294 0.6999 -0.7025
vn -0.7394 0.6733 -0.0000
vn -0.7392 0.6734 -0.0055
vn -0.7357 0.6773 0.0002
vn -0.7426 0.6697 -0.0000
vn -0.7361 0.6768 -0.0095
vn -0.7393 0.6732 -0.0104
vn -0.7430 0.6692 -0.0116
vn -0.9968 0.0067 -0.0799
vn -0.9968 0.0799 0.0066
vn -0.9972 -0.0745 -0.0000
vn -0.9855 0.0768 -0.1512
vn -0.9877 0.0000 -0.1567
vn -0.9823 -0.0816 -0.1688
vn 0.0000 0.0000 -1.0000
vn 0.0098 -0.0879 -0.9961
vn 0.0000 0.0840 -0.9965
vn -0.1669 0.0840 -0.9824
vn -0.1765 -0.0790 -0.9811
vn -0.1675 0.0000 -0.9859
vn -0.0887 -0.0056 -0.9960
vn -0.0000 0.6731 -0.7396
vn 0.0041 0.6129 -0.7901
vn 0.0000 0.7312 -0.6822
vn -0.1529 0.7206 -0.6763
vn -0.1689 0.6018 -0.7806
vn -0.1650 0.5956 -0.7861
vn -0.0608 0.7836 -0.6183
vn -0.1481 0.7298 -0.6675
vn -0.1459 0.7296 -0.6681
vn 0.0072 -0.0870 -0.9962
vn -0.0000 0.0827 -0.9966
vn -0.1701 0.0850 -0.9818
vn -0.1705 -0.0804 -0.9821
vn -0.1672 0.0000 -0.9859
vn -0.0873 -0.0005 -0.9962
vn 0.0000 1.0000 0.0000
vn -0.7392 0.6734 -0.0000
vn -0.7397 0.6729 -0.0000
vn 0.0000 0.6731 -0.7395
vn -0.0001 0.9859 0.1675
vn -0.0005 0.9859 0.1674
vn 0.0008 0.9858 0.1677
vn 0.0003 0.9859 0.1676
vn 0.0003 0.9615 0.2747
vn 0.0159 0.9280 0.3722
vn -0.0034 0.9615 0.2747
vn -0.0298 0.9971 0.0702
vn -0.0095 0.9853 0.1705
vn -0.0120 0.9852 0.1712
vn 0.0002 0.9858 0.1679
vn 0.0000 0.9859 0.1675
vn -0.4524 0.0000 -0.8918
vn -0.3628 0.7191 -0.5926
vn -0.3637 0.7171 -0.5946
vn -0.3619 0.7213 -0.5906
vn -0.3610 0.7233 -0.5886
vn -0.4526 0.0000 -0.8917
vn 0.0003 0.9858 0.1679
vn 0.0006 0.9858 0.1681
vn 0.0001 0.9859 0.1676
vn -0.7063 0.0000 -0.7079
vn -0.5555 0.7077 -0.4366
vn -0.5550 0.7085 -0.4359
vn -0.5561 0.7068 -0.4373
vn -0.5566 0.7060 -0.4379
vn -0.7062 0.0000 -0.7080
vn -0.0000 0.9859 0.1676
vn -0.0008 0.9859 0.1671
vn -0.0004 0.9859 0.1673
vn -0.8907 0.0000 -0.4547
vn -0.6847 0.6909 -0.2321
vn -0.6850 0.6905 -0.2323
vn -0.6844 0.6913 -0.2319
vn -0.6840 0.6917 -0.2316
vn -0.8907 0.0004 -0.4546
vn -0.8907 0.0007 -0.4546
vn -0.8906 -0.0005 -0.4547
vn -0.7404 -0.6721 0.0000
vn -0.7970 0.6040 0.0004
vn -0.7970 0.6040 -0.0007
vn 0.0000 0.6043 -0.7967
vn -0.0006 0.6042 -0.7968
vn -0.0000 -0.6731 -0.7396
vn -0.7385 0.6742 -0.0102
vn -0.9876 -0.0006 -0.1567
vn -0.1501 0.6888 -0.7092
usemtl Tex_0032_0.dds.015
s off
f 1/1/1 3/2/2 2/3/1
f 2/3/3 3/2/3 4/4/4
f 3/2/5 5/5/6 4/4/7
f 4/4/8 5/5/8 6/6/9
f 5/5/10 7/7/11 6/6/12
f 6/6/13 7/7/14 8/8/14
f 9/9/15 11/10/16 10/11/15
f 10/11/17 11/10/17 12/12/18
f 11/10/19 13/13/20 12/12/21
f 12/12/22 13/13/23 14/14/24
f 13/13/25 15/15/26 14/14/27
f 14/14/28 15/15/29 16/16/29
f 17/17/30 19/18/31 18/19/32
f 18/19/33 19/18/34 20/20/35
f 19/18/36 21/21/37 20/20/38
f 20/20/39 21/21/39 22/22/40
f 21/21/41 23/23/42 22/22/43
f 22/22/44 23/23/45 24/24/46
f 25/25/47 27/26/48 26/27/49
f 26/27/50 27/26/51 28/28/52
f 27/26/53 29/29/54 28/28/55
f 28/28/56 29/29/57 30/30/58
f 29/29/59 31/31/60 30/30/61
f 30/30/62 31/31/63 32/32/64
f 33/33/65 35/34/66 34/35/65
f 34/35/67 35/34/68 36/36/69
f 35/34/70 37/37/71 36/36/72
f 36/36/73 37/37/74 38/38/75
f 37/37/76 39/39/77 38/38/78
f 38/38/79 39/39/80 40/40/81
f 41/41/82 43/42/83 42/43/82
f 42/43/84 43/42/84 44/44/85
f 43/42/86 45/45/87 44/44/88
f 44/44/89 45/45/90 46/46/91
f 45/45/92 47/47/93 46/46/94
f 46/46/95 47/47/96 48/48/97
f 49/49/98 51/50/99 50/51/100
f 50/51/101 51/50/102 52/52/103
f 51/50/104 53/53/105 52/52/106
f 52/52/107 53/53/108 54/54/109
f 53/53/110 55/55/111 54/54/112
f 54/54/113 55/55/111 56/56/111
f 57/57/114 59/58/115 58/59/116
f 58/59/117 59/58/118 60/60/119
f 59/58/120 61/61/121 60/60/122
f 60/60/123 61/61/124 62/62/125
f 61/61/126 63/63/127 62/62/128
f 62/62/129 63/63/130 64/64/131
f 65/65/132 67/66/133 66/67/134
f 66/67/135 67/66/136 68/68/137
f 67/66/138 69/69/139 68/68/140
f 68/68/141 69/69/142 70/70/143
f 69/69/144 71/71/145 70/70/146
f 70/70/147 71/71/148 72/72/149
f 73/73/149 75/74/150 74/75/149
f 74/75/151 75/74/152 76/76/153
f 75/74/154 77/77/155 76/76/156
f 76/76/157 77/77/158 78/78/159
f 77/77/160 79/79/161 78/78/162
f 78/78/163 79/79/164 80/80/165
f 81/81/166 83/82/167 82/83/166
f 82/83/168 83/82/169 84/84/170
f 83/82/171 85/85/172 84/84/173
f 84/84/174 85/85/174 86/86/175
f 85/85/176 87/87/177 86/86/178
f 88/88/179 90/89/180 89/90/181
f 89/90/182 90/89/183 91/91/184
f 90/89/185 92/92/186 91/91/187
f 91/91/188 92/92/189 93/93/177
f 92/92/190 94/94/177 93/93/177
f 95/95/1 97/96/191 96/97/192
f 96/97/193 97/96/194 98/98/195
f 97/96/196 99/99/197 98/98/198
f 98/98/199 99/99/200 100/100/11
f 99/99/201 101/101/11 100/100/11
f 102/102/202 104/103/203 103/104/204
f 103/104/205 104/103/206 105/105/207
f 104/103/208 106/106/209 105/105/210
f 105/105/211 106/106/212 107/107/213
f 106/106/214 108/108/213 107/107/213
f 109/109/213 111/110/215 110/111/216
f 110/111/217 111/110/218 112/112/219
f 111/110/220 113/113/221 112/112/222
f 112/112/223 113/113/224 114/114/225
f 113/113/226 115/115/225 114/114/225
f 116/116/202 118/117/227 117/118/204
f 117/118/205 118/117/228 119/119/207
f 118/117/229 120/120/230 119/119/231
f 119/119/232 120/120/233 121/121/213
f 120/120/234 122/122/235 121/121/236
f 123/123/213 125/124/215 124/125/216
f 124/125/217 125/124/218 126/126/237
f 125/124/220 127/127/221 126/126/222
f 126/126/238 127/127/239 128/128/240
f 127/127/226 129/129/225 128/128/225
f 130/130/241 132/131/242 131/132/243
f 131/132/244 132/131/245 133/133/246
f 132/131/247 134/134/248 133/133/249
f 133/133/250 134/134/251 135/135/252
f 134/134/253 136/136/254 135/135/255
f 137/137/256 139/138/257 138/139/256
f 138/139/256 139/138/258 140/140/259
f 139/138/260 141/141/261 140/140/262
f 142/142/8 144/143/263 143/144/8
f 143/144/8 144/143/264 145/145/265
f 144/143/266 146/146/267 145/145/268
f 147/147/269 149/148/270 148/149/271
f 148/149/272 149/148/273 150/150/274
f 149/148/275 151/151/274 150/150/274
f 152/152/276 154/153/277 153/154/278
f 153/154/279 154/153/280 155/155/281
f 154/153/282 156/156/283 155/155/284
f 157/157/269 159/158/285 158/159/286
f 158/159/287 159/158/288 160/160/289
f 159/158/290 161/161/289 160/160/289
f 162/162/291 164/163/291 163/164/291
f 163/164/291 164/163/291 165/165/291
f 166/166/8 168/167/8 167/168/8
f 167/168/8 168/167/8 169/169/8
f 170/170/8 172/171/8 171/172/8
f 171/172/8 172/171/8 173/173/8
f 174/174/292 176/175/292 175/176/292
f 175/176/256 176/175/293 177/177/256
f 178/178/291 180/179/291 179/180/291
f 179/180/291 180/179/291 181/181/291
f 182/182/8 184/183/8 183/184/8
f 183/184/8 184/183/8 185/185/8
f 186/186/291 188/187/291 187/188/291
f 187/188/291 188/187/291 189/189/291
f 190/190/269 192/191/269 191/192/269
f 191/192/269 192/191/269 193/193/269
f 194/194/294 196/195/294 195/196/294
f 195/196/294 196/195/294 197/197/294
f 198/198/269 200/199/269 199/200/269
f 199/200/269 200/199/269 201/201/269
f 202/202/291 204/203/291 203/204/291
f 203/204/291 204/203/291 205/205/291
f 206/206/295 208/207/296 207/208/295
f 207/208/297 208/207/298 209/209/298
f 210/210/299 212/211/300 211/212/301
f 211/212/302 212/211/303 213/213/304
f 214/214/305 216/215/305 215/216/305
f 215/216/306 216/215/306 217/217/306
f 218/218/307 220/219/307 219/220/307
f 219/220/307 220/219/307 221/221/307
f 222/222/308 224/223/308 223/224/309
f 223/224/310 224/223/311 225/225/310
f 226/226/312 228/227/312 227/228/312
f 227/228/312 228/227/312 229/229/312
f 230/230/313 232/231/314 231/232/313
f 231/232/315 232/231/315 233/233/315
f 234/234/316 236/235/316 235/236/316
f 235/236/316 236/235/316 237/237/316
f 238/238/317 240/239/317 239/240/318
f 239/240/319 240/239/320 241/241/319
f 242/242/321 244/243/321 243/244/321
f 243/244/321 244/243/321 245/245/321
f 246/246/322 248/247/322 247/248/322
f 247/248/323 248/247/324 249/249/324
f 250/250/325 252/251/325 251/252/325
f 251/252/325 252/251/325 253/253/325
f 254/254/326 256/255/326 255/256/327
f 255/256/328 256/255/329 257/257/328
f 258/258/330 260/259/330 259/260/331
f 259/260/325 260/259/332 261/261/325
f 262/262/333 264/263/333 263/264/333
f 265/265/179 267/266/179 266/267/179
f 268/268/334 270/269/334 269/270/334
f 271/271/335 273/272/335 272/273/335
f 274/274/1 276/275/1 275/276/1
f 277/277/202 279/278/202 278/279/202
f 280/280/336 282/281/336 281/282/336
f 283/283/336 285/284/336 284/285/336
f 286/286/213 288/287/213 287/288/213
f 289/289/202 291/290/202 290/291/202
f 292/292/337 294/293/337 293/294/337
f 295/295/336 297/296/336 296/297/336
f 298/298/269 300/299/269 299/300/269
f 301/301/294 303/302/294 302/303/294
f 304/304/338 306/305/338 305/306/338
f 307/307/269 309/308/269 308/309/269
f 310/310/339 312/311/339 311/312/339
f 313/313/340 315/314/340 314/315/340
f 316/316/341 318/317/341 317/318/341
