# Blender v3.6.3 OBJ File: 'untitled.blend'
# www.blender.org
mtllib Mesh_0305.mtl
o Mesh_0305_Mesh.085
v -10.111143 0.705545 17.748192
v -10.111147 0.705541 16.935463
v -10.239578 0.846648 17.748192
v -10.239584 0.846651 16.935463
v -10.239584 0.987765 17.748192
v -10.239584 0.987761 16.935463
v -9.982718 1.128868 17.748192
v -9.982710 1.128870 16.935463
v -9.604586 2.063739 16.676964
v -9.854284 2.063740 16.935463
v -9.604589 1.862651 16.548538
v -9.982716 1.862651 16.935463
v -9.604584 1.693312 16.420097
v -10.111147 1.693309 16.935463
v -9.604584 1.552199 16.548523
v -9.982710 1.552199 16.935463
v -9.604588 1.128870 16.548515
v -9.982710 1.128870 16.935463
v -9.604584 0.987761 16.294106
v -10.239584 0.987761 16.935463
v -9.604584 0.846651 16.294106
v -10.239584 0.846651 16.935463
v -9.604589 0.705541 16.420097
v -10.111147 0.705541 16.935463
v -9.854267 1.865440 18.065689
v -9.854267 -0.317827 22.514252
v -9.982710 1.862647 17.748192
v -9.982714 -0.677349 22.828194
v -10.111143 1.693307 17.748192
v -10.111137 -0.846691 22.828194
v -9.982712 1.552204 17.748192
v -9.982714 -0.987800 22.828194
v -10.111137 -1.834461 22.828194
v -10.111143 0.705545 17.748192
v -10.239584 -1.693349 22.828194
v -10.239578 0.846648 17.748192
v -10.239584 -1.552242 22.828194
v -10.239584 0.987765 17.748192
v -9.982714 -1.411132 22.828194
v -9.982718 1.128868 17.748192
v -10.111147 0.705541 8.400925
v -10.239578 0.846648 7.588234
v -10.239584 0.846651 8.400925
v -10.239584 0.987765 7.588234
v -10.239584 0.987761 8.400925
v -9.982756 1.128868 7.588234
v -9.982710 1.128870 8.400925
v -9.854284 2.063740 8.400925
v -9.604589 1.862651 8.787849
v -9.982716 1.862651 8.400925
v -9.604584 1.693312 8.916290
v -10.111147 1.693309 8.400925
v -9.604584 1.552199 8.787857
v -9.982710 1.552199 8.400925
v -9.982710 1.128870 8.400925
v -9.604584 0.987761 9.042282
v -10.239584 0.987761 8.400925
v -9.604584 0.846651 9.042282
v -10.239584 0.846651 8.400925
v -9.604589 0.705541 8.916290
v -10.111147 0.705541 8.400925
v -9.854267 2.063738 5.297966
v -9.854267 2.063738 7.272812
v -9.985584 1.862646 5.429283
v -9.982735 1.862648 7.588226
v -10.112585 1.693304 5.556282
v -10.111101 1.693307 7.588234
v -9.982750 1.552205 7.588234
v -9.985584 1.128865 5.429283
v -9.982756 1.128868 7.588234
v -10.239584 0.987769 5.683281
v -10.239584 0.987765 7.588234
v -10.239584 0.846646 5.683281
v -10.239578 0.846648 7.588234
v -10.111103 0.705545 7.588234
v -9.854277 2.063739 17.504509
v -9.982706 1.862648 17.638329
v -9.982716 1.862651 16.935463
v -10.111143 1.693307 17.748192
v -10.111147 1.693309 16.935463
v -9.982710 1.552199 16.935463
v -9.854277 2.063739 7.831871
v -9.982716 1.862651 8.400925
v -9.982706 1.862648 7.698059
v -10.111101 1.693307 7.588234
v -9.982735 1.862648 7.588226
v -9.982716 1.862651 8.400925
v -10.111147 1.693309 8.400925
v -10.111101 1.693307 7.588234
v -9.982710 1.552199 8.400925
v -9.982750 1.552205 7.588234
v -10.239584 -0.000011 7.588242
v -10.239586 0.564429 7.588234
v -10.239588 -0.000010 8.400932
v -10.239584 0.564432 8.400925
v -10.239586 0.564429 7.588234
v -10.111103 0.705545 7.588234
v -10.239584 0.564432 8.400925
v -10.111147 0.705541 8.400925
v -9.982710 1.552199 8.400925
v -9.982710 1.128870 8.400925
v -9.982750 1.552205 7.588234
v -9.982756 1.128868 7.588234
v -9.982710 1.128870 8.400925
v -9.982710 1.552199 8.400925
v -9.604588 1.128870 8.787865
v -9.604584 1.552199 8.787857
v -10.239584 0.564432 8.400925
v -10.111147 0.705541 8.400925
v -9.604584 0.564430 9.042282
v -9.604589 0.705541 8.916290
v -10.239588 -0.000010 8.400932
v -10.239584 0.564432 8.400925
v -9.604580 -0.000011 9.042282
v -9.604584 0.564430 9.042282
v -9.604586 2.063739 8.659424
v -9.854284 2.063740 8.400925
v -9.604586 2.063739 7.831871
v -9.854277 2.063739 7.831871
v -9.854267 2.063738 7.272812
v -9.854267 2.063738 5.297966
v -9.604584 2.063738 7.272812
v -9.604584 2.063738 5.297966
v -10.239584 0.564427 5.683281
v -10.239586 0.564429 7.588234
v -10.239584 -0.000012 5.683281
v -10.239584 -0.000011 7.588242
v -10.112585 0.705549 5.556282
v -10.111103 0.705545 7.588234
v -10.239584 0.564427 5.683281
v -10.239586 0.564429 7.588234
v -9.985584 1.552207 5.429283
v -9.982750 1.552205 7.588234
v -9.985584 1.128865 5.429283
v -9.982756 1.128868 7.588234
v -10.239584 -0.000011 17.748192
v -10.239588 -0.000010 16.935455
v -10.239586 0.564429 17.748192
v -10.239584 0.564432 16.935463
v -10.239586 0.564429 17.748192
v -10.239584 0.564432 16.935463
v -10.111143 0.705545 17.748192
v -10.111147 0.705541 16.935463
v -9.982710 1.552199 16.935463
v -9.982712 1.552204 17.748192
v -9.982710 1.128870 16.935463
v -9.982718 1.128868 17.748192
v -9.982710 1.128870 16.935463
v -9.604588 1.128870 16.548515
v -9.982710 1.552199 16.935463
v -9.604584 1.552199 16.548523
v -10.239584 0.564432 16.935463
v -9.604584 0.564430 16.294106
v -10.111147 0.705541 16.935463
v -9.604589 0.705541 16.420097
v -10.239588 -0.000010 16.935455
v -9.604580 -0.000011 16.294106
v -10.239584 0.564432 16.935463
v -9.604584 0.564430 16.294106
v -9.604586 2.063739 16.676964
v -9.604586 2.063739 17.504509
v -9.854284 2.063740 16.935463
v -9.854277 2.063739 17.504509
v -9.854267 1.865440 18.065689
v -9.604584 1.865440 18.065689
v -9.854267 -0.317827 22.514252
v -9.604584 -0.317827 22.514252
v -10.239586 0.564429 17.748192
v -10.239584 -1.975571 22.828194
v -10.239584 -0.000011 17.748192
v -10.239584 -2.540012 22.828194
v -10.111143 0.705545 17.748192
v -10.111137 -1.834461 22.828194
v -10.239586 0.564429 17.748192
v -10.239584 -1.975571 22.828194
v -9.982712 1.552204 17.748192
v -9.982714 -0.987800 22.828194
v -9.982718 1.128868 17.748192
v -9.982714 -1.411132 22.828194
v -9.982716 1.862651 8.400925
v -9.854277 2.063739 7.831871
v -9.854284 2.063740 8.400925
v -10.111103 0.705545 7.588234
v -10.239578 0.846648 7.588234
v -10.111147 0.705541 8.400925
v -9.854284 2.063740 8.400925
v -9.604586 2.063739 8.659424
v -9.604589 1.862651 8.787849
v -9.604588 1.128870 8.787865
v -9.604584 0.987761 9.042282
v -9.982710 1.128870 8.400925
v -10.239584 0.846646 5.683281
v -10.111103 0.705545 7.588234
v -10.112585 0.705549 5.556282
v -10.112585 1.693304 5.556282
v -9.982750 1.552205 7.588234
v -9.985584 1.552207 5.429283
v -9.854277 2.063739 17.504509
v -9.982716 1.862651 16.935463
v -9.854284 2.063740 16.935463
v -9.982706 1.862648 17.638329
v -9.982710 1.862647 17.748192
v -10.111143 1.693307 17.748192
v -9.982710 1.552199 16.935463
v -10.111143 1.693307 17.748192
v -9.982712 1.552204 17.748192
vt 3.501953 -0.679688
vt 3.501953 -1.043945
vt 2.943359 -0.679688
vt 2.943359 -1.043945
vt 3.501953 -1.194336
vt 2.943359 -1.194336
vt 3.501953 -0.774414
vt 2.943359 -0.774414
vt 2.690430 2.042969
vt 2.593750 1.803711
vt 2.884766 2.042969
vt 2.884766 1.803711
vt 2.497070 1.652344
vt 2.884766 1.652344
vt 2.593750 1.796875
vt 2.884766 1.796875
vt 2.677734 -0.774414
vt 2.502930 -1.194336
vt 2.943359 -0.774414
vt 2.943359 -1.194336
vt 2.502930 -1.043945
vt 2.943359 -1.043945
vt 2.589844 -0.679688
vt 2.943359 -0.679688
vt 1.420898 2.045898
vt 1.496094 1.799805
vt -0.422852 2.047852
vt -0.498047 1.799805
vt 1.502930 1.655273
vt -0.504883 1.655273
vt 1.496094 1.794922
vt -0.498047 1.794922
vt -1.500977 -0.694336
vt -1.500977 -1.070312
vt 0.497070 -0.694336
vt 0.497070 -1.070312
vt -1.500977 -1.196289
vt 0.497070 -1.196289
vt -1.500977 -0.770508
vt 0.497070 -0.770508
vt 2.943359 -0.679688
vt 2.943359 -1.043945
vt 3.501953 -1.043945
vt 3.501953 -1.194336
vt 2.943359 -1.194336
vt 3.501953 -0.774414
vt 2.943359 -0.774414
vt 2.884766 2.042969
vt 2.884766 1.803711
vt 2.593750 1.803711
vt 2.497070 1.652344
vt 2.884766 1.652344
vt 2.593750 1.796875
vt 2.884766 1.796875
vt 2.943359 -0.774414
vt 2.943359 -1.194336
vt 2.502930 -1.194336
vt 2.502930 -1.043945
vt 2.943359 -1.043945
vt 2.589844 -0.679688
vt 2.943359 -0.679688
vt 0.589844 2.047852
vt 0.619141 1.799805
vt 1.438477 2.045898
vt 1.473633 1.799805
vt 0.632812 1.655273
vt 1.471680 1.655273
vt 1.467773 1.794922
vt 0.160156 -0.770508
vt 0.205078 -1.196289
vt 1.009766 -0.770508
vt 1.009766 -1.196289
vt 0.207031 -1.070312
vt 1.009766 -1.070312
vt 1.009766 -0.694336
vt 3.312500 2.042969
vt 2.884766 1.803711
vt 3.414062 1.802734
vt 3.496094 1.652344
vt 2.884766 1.652344
vt 2.884766 1.796875
vt 3.312500 2.042969
vt 3.414062 1.802734
vt 2.884766 1.803711
vt 3.496094 1.652344
vt 3.496094 1.803711
vt 2.884766 1.803711
vt 3.496094 1.652344
vt 2.884766 1.652344
vt 2.884766 1.796875
vt 3.496094 1.796875
vt -1.482422 -2.602539
vt -2.040039 -2.602539
vt -1.482422 -2.986328
vt -2.040039 -2.986328
vt -1.482422 -2.002930
vt -2.040039 -2.002930
vt -1.482422 -2.347656
vt -2.040039 -2.347656
vt -1.799805 -1.347656
vt -1.503906 -1.347656
vt -1.799805 -1.618164
vt -1.503906 -1.618164
vt -1.799805 -1.618164
vt -2.000977 -1.618164
vt -1.799805 -1.347656
vt -2.000977 -1.347656
vt -2.040039 -2.002930
vt -2.480469 -2.002930
vt -2.040039 -2.347656
vt -2.394531 -2.347656
vt -2.040039 -2.602539
vt -2.480469 -2.602539
vt -2.040039 -2.986328
vt -2.480469 -2.986328
vt 2.488281 2.826172
vt 3.487305 2.826172
vt 2.800781 2.708984
vt 3.487305 2.708984
vt 1.438477 2.045898
vt 1.433594 2.397461
vt 0.589844 2.047852
vt 0.586914 2.397461
vt 0.205078 -2.003906
vt 0.206055 -1.603516
vt 1.009766 -2.003906
vt 1.009766 -1.603516
vt 0.183594 -2.352539
vt 0.205078 -2.003906
vt 1.009766 -2.352539
vt 1.009766 -2.003906
vt 0.158203 0.653320
vt 0.160156 0.346680
vt 1.009766 0.653320
vt 1.009766 0.346680
vt -1.482422 -2.602539
vt -1.482422 -2.986328
vt -2.040039 -2.602539
vt -2.040039 -2.986328
vt -1.482422 -2.002930
vt -1.482422 -2.347656
vt -2.040039 -2.002930
vt -2.040039 -2.347656
vt -1.799805 -1.347656
vt -1.799805 -1.618164
vt -1.503906 -1.347656
vt -1.503906 -1.618164
vt -1.799805 -1.618164
vt -1.799805 -1.347656
vt -2.000977 -1.618164
vt -2.000977 -1.347656
vt -2.040039 -2.002930
vt -2.040039 -2.347656
vt -2.480469 -2.002930
vt -2.394531 -2.347656
vt -2.040039 -2.602539
vt -2.040039 -2.986328
vt -2.480469 -2.602539
vt -2.480469 -2.986328
vt 2.488281 2.826172
vt 2.800781 2.708984
vt 3.487305 2.826172
vt 3.487305 2.708984
vt 1.420898 2.045898
vt -0.422852 2.047852
vt 1.420898 2.397461
vt -0.422852 2.397461
vt 0.497070 -2.003906
vt 0.497070 -1.603516
vt -1.500977 -2.003906
vt -1.500977 -1.603516
vt 0.497070 -2.352539
vt 0.497070 -2.003906
vt -1.500977 -2.352539
vt -1.500977 -2.003906
vt 0.497070 0.653320
vt 0.497070 0.346680
vt -1.500977 0.653320
vt -1.500977 0.346680
vt 2.884766 1.803711
vt 2.884766 2.042969
vt 3.312500 2.042969
vt 3.501953 -0.679688
vt 2.943359 -0.679688
vt 3.501953 -1.043945
vt 2.884766 2.042969
vt 2.593750 1.803711
vt 2.690430 2.042969
vt 2.677734 -0.774414
vt 2.943359 -0.774414
vt 2.502930 -1.194336
vt 0.207031 -1.070312
vt 0.183594 -0.694336
vt 1.009766 -0.694336
vt 0.632812 1.655273
vt 0.618164 1.794922
vt 1.467773 1.794922
vt 3.312500 2.042969
vt 2.884766 2.042969
vt 2.884766 1.803711
vt 3.414062 1.802734
vt 3.496094 1.652344
vt 3.496094 1.803711
vt 2.884766 1.796875
vt 3.496094 1.796875
vt 3.496094 1.652344
vn -0.7395 -0.6731 0.0000
vn -0.7411 -0.5542 0.3790
vn -0.7378 -0.6716 -0.0680
vn -0.9432 -0.0000 0.3321
vn -0.8427 0.0921 0.5304
vn -0.7836 0.6121 -0.1062
vn -1.0000 0.0000 0.0000
vn -0.8607 -0.0000 -0.5092
vn -0.4225 0.7692 0.4794
vn -0.4815 0.8765 -0.0000
vn 0.0054 0.9850 -0.1727
vn -0.5659 0.6711 -0.4789
vn -0.6574 0.4056 -0.6350
vn -0.6927 0.4042 -0.5973
vn -0.6505 0.4155 -0.6357
vn -0.6270 0.4021 -0.6673
vn -0.6460 0.4602 -0.6090
vn -0.1879 0.4727 -0.8610
vn -0.6219 0.4827 -0.6167
vn -0.6186 0.4612 -0.6361
vn -0.2821 0.8314 -0.4787
vn -0.7892 0.5972 -0.1429
vn -0.1014 -0.6704 -0.7350
vn -0.6004 -0.5383 -0.5915
vn -0.4169 -0.8813 -0.2227
vn -0.8199 -0.5658 -0.0878
vn -0.5961 -0.5525 -0.5826
vn -0.5994 -0.5456 -0.5857
vn -0.4446 0.7833 -0.4345
vn 0.0940 0.7762 -0.6235
vn -0.4510 0.7761 -0.4408
vn -0.4342 0.7905 -0.4320
vn 0.0568 0.9818 -0.1812
vn -0.4566 0.8312 -0.3173
vn -0.4523 -0.0011 -0.8919
vn -0.5238 -0.0369 -0.8510
vn -0.5770 -0.7023 -0.4168
vn -0.7106 0.0000 -0.7036
vn -0.8532 -0.0010 -0.5216
vn -0.3205 -0.6309 -0.7066
vn -0.6006 -0.5325 -0.5964
vn -0.4962 -0.7714 -0.3984
vn -0.7514 -0.5947 -0.2859
vn -0.5928 -0.5559 -0.5827
vn -0.5982 -0.5445 -0.5880
vn -0.7425 0.6013 0.2951
vn -0.7285 0.6198 0.2919
vn -0.6603 0.6742 0.3309
vn -0.8149 0.5181 0.2599
vn -0.8664 0.4455 0.2255
vn -0.8498 0.4846 0.2073
vn -0.7635 0.5810 0.2821
vn -0.7826 0.5704 -0.2495
vn -0.7517 0.5901 0.2944
vn -0.7669 0.5808 0.2731
vn -0.3164 0.8565 0.4077
vn -0.2524 0.1915 0.9485
vn -0.2147 -0.1954 -0.9569
vn -0.7009 -0.6380 -0.3190
vn -0.2322 -0.8773 -0.4201
vn -0.7332 -0.6449 0.2158
vn -0.7009 -0.6379 -0.3190
vn -0.7450 -0.6659 -0.0386
vn -0.4712 -0.7929 -0.3863
vn -0.5023 -0.4572 -0.7339
vn -0.8737 -0.0000 0.4864
vn -0.9079 0.0094 0.4191
vn -0.9569 0.2627 0.1240
vn -0.9569 -0.0066 -0.2904
vn -0.9079 -0.3791 -0.1790
vn -0.7632 -0.0000 -0.6461
vn -0.2207 0.4018 0.8887
vn -0.4410 0.8028 0.4014
vn -0.0455 0.9024 0.4284
vn -0.4992 0.8665 0.0019
vn -0.6955 -0.6331 0.3399
vn -0.8607 0.0870 -0.5017
vn -0.9243 -0.0653 0.3761
vn -0.8607 -0.0000 0.5092
vn -0.8607 -0.5016 -0.0871
vn -0.4144 0.7543 -0.5092
vn 0.0053 0.9850 0.1727
vn -0.4815 0.8764 0.0000
vn -0.5658 0.6712 0.4790
vn -0.6505 0.4155 0.6357
vn -0.6270 0.4021 0.6673
vn -0.6774 0.3757 0.6324
vn -0.6403 0.4642 0.6120
vn -0.6219 0.4826 0.6167
vn -0.1880 0.4727 0.8610
vn -0.6186 0.4612 0.6361
vn -0.7892 0.5972 0.1430
vn -0.2821 0.8314 0.4788
vn -0.1014 -0.6704 0.7350
vn -0.4169 -0.8812 0.2227
vn -0.6003 -0.5383 0.5914
vn -0.8199 -0.5658 0.0877
vn -0.5994 -0.5456 0.5857
vn -0.5961 -0.5525 0.5826
vn -0.4346 0.7912 0.4303
vn -0.4766 0.8676 -0.1420
vn 0.2137 0.9729 0.0881
vn -0.6069 -0.0000 0.7948
vn -0.7081 -0.3159 0.6316
vn -0.5360 -0.0347 0.8435
vn -0.8956 0.0494 0.4422
vn -0.8532 -0.0010 0.5216
vn -0.6680 0.2223 0.7102
vn -0.3066 -0.6339 0.7100
vn -0.4962 -0.7714 0.3984
vn -0.6006 -0.5325 0.5964
vn -0.7514 -0.5947 0.2858
vn -0.5982 -0.5445 0.5880
vn -0.5928 -0.5559 0.5827
vn -0.8373 0.5468 0.0000
vn -0.8300 0.5575 0.0171
vn -0.8328 0.5536 -0.0000
vn -0.8419 0.5396 0.0011
vn -0.8576 0.5142 0.0043
vn -0.8644 0.5017 -0.0326
vn -0.7848 0.6185 0.0385
vn -0.8144 0.5793 -0.0333
vn -0.7884 0.6152 -0.0012
vn -0.7982 0.6020 -0.0225
vn -0.7675 0.6411 -0.0039
vn -0.6126 0.4644 0.6396
vn 0.4823 -0.8713 -0.0908
vn -0.7397 -0.6729 0.0005
vn -0.5687 -0.5173 0.6395
vn -0.4851 0.8744 0.0006
vn -0.7171 0.6453 -0.2636
vn -0.4884 0.8726 0.0006
vn -0.0795 0.9949 -0.0625
vn -0.4144 0.7543 0.5092
vn -0.8012 -0.0004 -0.5984
vn -0.9992 -0.0030 -0.0407
vn -0.8607 -0.5077 0.0376
vn -0.8607 0.0376 0.5078
vn -0.9992 0.0406 -0.0030
vn -0.9326 -0.0000 0.3609
vn -0.1362 -0.9886 -0.0640
vn -0.7394 -0.6732 0.0000
vn -0.6896 -0.6279 0.3609
vn -0.8428 0.5383 0.0000
vn -0.8729 0.4873 0.0248
vn -0.8556 0.5156 -0.0463
vn -0.8041 0.5940 -0.0244
vn -0.7871 0.6168 0.0041
vn -0.7553 0.6269 0.1910
vn -0.7991 0.6009 0.0157
vn -0.6127 0.4647 -0.6393
vn -0.6669 0.7435 0.0495
vn 0.3337 -0.9185 0.2122
vn -0.5686 -0.5176 -0.6394
vn -0.8570 0.5126 0.0524
vn -0.8580 0.5136 -0.0122
vn -0.7673 0.6411 -0.0124
vn -0.8023 0.5966 0.0180
vn -0.7968 0.6042 -0.0000
vn -0.7913 0.6112 -0.0178
vn -0.7969 0.6041 0.0002
vn -0.7968 0.6043 -0.0000
vn 0.2635 0.9352 -0.2364
vn -0.7553 -0.6319 -0.1737
vn -0.7397 -0.6729 0.0000
vn -0.7394 0.6732 -0.0000
vn -0.7395 0.6731 -0.0000
vn -1.0000 0.0000 0.0001
vn -0.7152 0.0000 0.6989
vn -0.5967 0.5431 0.5908
vn -0.5919 0.5534 0.5860
vn -0.5960 0.5425 0.5920
vn -0.6097 0.5188 0.5993
vn -0.6068 0.5294 0.5929
vn -0.6045 0.5305 0.5942
vn -0.7106 0.0000 0.7036
vn 0.0000 1.0000 0.0000
vn -0.7431 0.6692 0.0005
vn -0.7465 0.6654 0.0005
vn -0.7359 0.6771 -0.0000
vn -1.0000 0.0000 0.0013
vn -0.7152 0.0000 -0.6989
vn -0.5967 0.5431 -0.5908
vn -0.5960 0.5425 -0.5920
vn -0.5919 0.5534 -0.5860
vn -0.6068 0.5294 -0.5930
vn -0.6096 0.5189 -0.5992
vn -0.6045 0.5305 -0.5942
vn 0.0000 0.8977 0.4406
vn -0.7009 0.6380 0.3190
vn -0.6574 0.4056 0.6350
vn -0.4446 0.7833 0.4345
vn -0.7430 -0.6693 0.0005
vn -0.7428 -0.6695 0.0010
usemtl Tex_0032_0.dds.010
s off
f 1/1/1 3/2/2 2/3/1
f 2/3/1 3/2/1 4/4/3
f 3/2/4 5/5/5 4/4/6
f 4/4/7 5/5/7 6/6/8
f 5/5/9 7/7/10 6/6/11
f 6/6/12 7/7/10 8/8/10
f 9/9/13 11/10/14 10/11/13
f 10/11/15 11/10/15 12/12/16
f 11/10/17 13/13/18 12/12/19
f 12/12/20 13/13/21 14/14/22
f 13/13/23 15/15/24 14/14/25
f 14/14/26 15/15/27 16/16/28
f 17/17/29 19/18/30 18/19/31
f 18/19/32 19/18/33 20/20/34
f 19/18/35 21/21/36 20/20/37
f 20/20/38 21/21/38 22/22/39
f 21/21/40 23/23/41 22/22/42
f 22/22/43 23/23/44 24/24/45
f 25/25/46 27/26/47 26/27/48
f 26/27/49 27/26/50 28/28/51
f 27/26/52 29/29/53 28/28/54
f 28/28/55 29/29/56 30/30/57
f 29/29/58 31/31/59 30/30/60
f 30/30/61 31/31/62 32/32/62
f 33/33/59 35/34/63 34/35/59
f 34/35/59 35/34/64 36/36/65
f 35/34/66 37/37/67 36/36/68
f 36/36/69 37/37/70 38/38/71
f 37/37/72 39/39/73 38/38/74
f 38/38/75 39/39/73 40/40/73
f 41/41/1 43/42/76 42/43/1
f 42/43/7 43/42/7 44/44/77
f 43/42/78 45/45/79 44/44/80
f 44/44/81 45/45/82 46/46/83
f 45/45/84 47/47/10 46/46/10
f 48/48/85 50/49/86 49/50/87
f 49/50/88 50/49/89 51/51/90
f 50/49/91 52/52/92 51/51/93
f 51/51/94 52/52/95 53/53/96
f 52/52/97 54/54/98 53/53/99
f 55/55/100 57/56/101 56/57/102
f 56/57/103 57/56/104 58/58/105
f 57/56/106 59/59/107 58/58/108
f 58/58/109 59/59/110 60/60/111
f 59/59/112 61/61/113 60/60/114
f 62/62/115 64/63/116 63/64/117
f 63/64/118 64/63/119 65/65/120
f 64/63/121 66/66/122 65/65/123
f 65/65/124 66/66/125 67/67/126
f 66/66/127 68/68/128 67/67/129
f 69/69/130 71/70/131 70/71/132
f 70/71/83 71/70/133 72/72/134
f 71/70/135 73/73/136 72/72/137
f 72/72/138 73/73/139 74/74/140
f 73/73/141 75/75/142 74/74/143
f 76/76/144 78/77/145 77/78/146
f 77/78/147 78/77/148 79/79/149
f 78/77/150 80/80/151 79/79/152
f 79/79/153 80/80/154 81/81/1
f 82/82/144 84/83/155 83/84/156
f 83/84/157 84/83/158 85/85/159
f 84/83/160 86/86/161 85/85/161
f 87/87/162 89/88/163 88/89/162
f 88/89/1 89/88/1 90/90/1
f 89/88/164 91/91/165 90/90/165
f 92/92/7 94/93/7 93/94/7
f 93/94/7 94/93/7 95/95/7
f 96/96/166 98/97/166 97/98/166
f 97/98/167 98/97/167 99/99/167
f 100/100/7 102/101/7 101/102/7
f 101/102/168 102/101/168 103/103/168
f 104/104/169 106/105/169 105/106/169
f 105/106/169 106/105/169 107/107/169
f 108/108/170 110/109/171 109/110/172
f 109/110/173 110/109/174 111/111/175
f 112/112/176 114/113/176 113/114/176
f 113/114/176 114/113/176 115/115/176
f 116/116/177 118/117/177 117/118/177
f 117/118/177 118/117/177 119/119/177
f 120/120/177 122/121/177 121/122/177
f 121/122/177 122/121/177 123/123/177
f 124/124/7 126/125/7 125/126/7
f 125/126/7 126/125/7 127/127/7
f 128/128/178 130/129/178 129/130/179
f 129/130/166 130/129/180 131/131/166
f 132/132/181 134/133/181 133/134/181
f 133/134/181 134/133/181 135/135/181
f 136/136/7 138/137/7 137/138/7
f 137/138/7 138/137/7 139/139/7
f 140/140/167 142/141/167 141/142/167
f 141/142/167 142/141/167 143/143/167
f 144/144/7 146/145/7 145/146/7
f 145/146/7 146/145/7 147/147/7
f 148/148/182 150/149/182 149/150/182
f 149/150/182 150/149/182 151/151/182
f 152/152/183 154/153/184 153/154/185
f 153/154/186 154/153/187 155/155/188
f 156/156/38 158/157/38 157/158/38
f 157/158/38 158/157/38 159/159/38
f 160/160/177 162/161/177 161/162/177
f 161/162/177 162/161/177 163/163/177
f 164/164/189 166/165/189 165/166/189
f 165/166/189 166/165/189 167/167/189
f 168/168/7 170/169/7 169/170/7
f 169/170/7 170/169/7 171/171/7
f 172/172/190 174/173/190 173/174/190
f 173/174/190 174/173/190 175/175/190
f 176/176/7 178/177/7 177/178/7
f 177/178/7 178/177/7 179/179/7
f 180/180/144 182/181/144 181/182/144
f 183/183/142 185/184/142 184/185/142
f 186/186/191 188/187/191 187/188/191
f 189/189/192 191/190/192 190/191/192
f 192/192/193 194/193/193 193/194/193
f 195/195/194 197/196/194 196/197/194
f 198/198/144 200/199/144 199/200/144
f 201/201/162 203/202/162 202/203/162
f 204/204/1 206/205/1 205/206/1
