# Blender v3.6.3 OBJ File: 'untitled.blend'
# www.blender.org
mtllib Mesh_0239.mtl
o Mesh_0239_Mesh.169
v 25.598097 17.661678 -27.971806
v 24.685446 15.518302 -27.971806
v 24.685446 22.232965 -27.971806
v 23.772150 17.661678 -27.971806
v 23.484602 21.629665 -27.971806
v 21.930937 20.374855 -27.971806
v 62.785416 15.518302 -27.971806
v 62.785408 22.232965 -27.971806
v 63.698662 17.661678 -27.971806
v 63.984634 21.628904 -27.971806
v 65.550415 20.375414 -27.971806
v 66.380928 20.374855 -27.971806
v 67.934608 21.629665 -27.971806
v 68.222153 17.661678 -27.971806
v 69.135422 22.232965 -27.971806
v 69.135422 15.518302 -27.971806
v 56.435417 15.518302 -27.971806
v 56.435410 22.232965 -27.971806
v 57.348663 17.661678 -27.971806
v 57.634636 21.628904 -27.971806
v 59.200417 20.375414 -27.971806
v 60.030930 20.374855 -27.971806
v 61.584610 21.629665 -27.971806
v 61.872154 17.661678 -27.971806
v 62.785408 22.232965 -27.971806
v 62.785416 15.518302 -27.971806
v 50.085419 15.518302 -27.971806
v 50.085411 22.232965 -27.971806
v 50.998657 17.661678 -27.971806
v 51.284630 21.628904 -27.971806
v 52.850410 20.375414 -27.971806
v 53.680931 20.374855 -27.971806
v 55.234612 21.629665 -27.971806
v 55.522156 17.661678 -27.971806
v 56.435410 22.232965 -27.971806
v 56.435417 15.518302 -27.971806
v 43.735420 15.518302 -27.971806
v 43.735413 22.232965 -27.971806
v 44.648659 17.661678 -27.971806
v 44.934631 21.628904 -27.971806
v 46.500412 20.375414 -27.971806
v 47.330933 20.374855 -27.971806
v 48.884613 21.629665 -27.971806
v 49.172157 17.661678 -27.971806
v 50.085411 22.232965 -27.971806
v 50.085419 15.518302 -27.971806
v 37.385445 15.518302 -27.971806
v 37.385445 22.232965 -27.971806
v 38.298660 17.661678 -27.971806
v 38.584633 21.628904 -27.971806
v 40.150406 20.375414 -27.971806
v 40.980934 20.374855 -27.971806
v 42.534615 21.629665 -27.971806
v 42.822159 17.661678 -27.971806
v 43.735413 22.232965 -27.971806
v 43.735420 15.518302 -27.971806
v 34.631615 20.374855 -27.971806
v 36.185066 21.629665 -27.971806
v 36.472855 17.661678 -27.971806
v 37.385445 22.232965 -27.971806
v 37.385445 15.518302 -27.971806
v 18.335413 15.518302 -27.971806
v 18.335413 22.232965 -27.971806
v 19.248659 17.661678 -27.971806
v 19.534628 21.628904 -27.971806
v 21.100409 20.375414 -27.971806
v 5.635412 15.518302 -27.971806
v 5.635412 22.232965 -27.971806
v 6.548662 17.661678 -27.971806
v 6.834631 21.628904 -27.971806
v 8.400408 20.375414 -27.971806
v 9.230936 20.374855 -27.971806
v 10.784605 21.629665 -27.971806
v 11.072161 17.661678 -27.971806
v 11.985411 22.232965 -27.971806
v 11.985411 15.518302 -27.971806
v 11.985411 15.518302 -27.971806
v 11.985411 22.232965 -27.971806
v 12.898661 17.661678 -27.971806
v 13.184629 21.628904 -27.971806
v 14.750410 20.375414 -27.971806
v 15.580938 20.374855 -27.971806
v 17.134604 21.629665 -27.971806
v 17.422155 17.661678 -27.971806
v 18.335413 22.232965 -27.971806
v 18.335413 15.518302 -27.971806
v -0.714584 15.518302 -27.971806
v -0.714584 22.232965 -27.971806
v 0.198664 17.661678 -27.971806
v 0.484631 21.628904 -27.971806
v 2.050409 20.375414 -27.971806
v 2.880938 20.374855 -27.971806
v 4.434603 21.629665 -27.971806
v 4.722158 17.661678 -27.971806
v 5.635412 22.232965 -27.971806
v 5.635412 15.518302 -27.971806
v -7.064585 15.518302 -27.971806
v -7.064587 22.232965 -27.971806
v -6.151335 17.661678 -27.971806
v -5.865370 21.628904 -27.971806
v -4.299591 20.375414 -27.971806
v -3.469063 20.374855 -27.971806
v -1.915396 21.629665 -27.971806
v -1.627842 17.661678 -27.971806
v -0.714584 22.232965 -27.971806
v -0.714584 15.518302 -27.971806
v 24.685446 22.232965 -27.971806
v 25.885881 21.629665 -27.971806
v 25.598097 17.661678 -27.971806
v 27.439344 20.374855 -27.971806
vt 0.667969 -0.679688
vt 0.503906 0.000000
vt 0.503906 -0.999023
vt 0.338867 -0.679688
vt 0.287109 -0.088867
vt 0.003906 -0.276367
vt -0.495117 -0.999023
vt -0.327148 -0.679688
vt -0.495117 0.000000
vt -0.275391 -0.089844
vt 0.003906 -0.276367
vt 0.003906 -0.276367
vt 0.338867 -0.679688
vt 0.287109 -0.088867
vt 0.503906 0.000000
vt 0.503906 -0.999023
vt -0.495117 -0.999023
vt -0.327148 -0.679688
vt -0.495117 0.000000
vt -0.275391 -0.089844
vt 0.003906 -0.276367
vt 0.003906 -0.276367
vt 0.338867 -0.679688
vt 0.287109 -0.088867
vt 0.503906 0.000000
vt 0.503906 -0.999023
vt -0.495117 -0.999023
vt -0.327148 -0.679688
vt -0.495117 0.000000
vt -0.275391 -0.089844
vt 0.003906 -0.276367
vt 0.003906 -0.276367
vt 0.338867 -0.679688
vt 0.287109 -0.088867
vt 0.503906 0.000000
vt 0.503906 -0.999023
vt -0.495117 -0.999023
vt -0.327148 -0.679688
vt -0.495117 0.000000
vt -0.275391 -0.089844
vt 0.003906 -0.276367
vt 0.003906 -0.276367
vt 0.338867 -0.679688
vt 0.287109 -0.088867
vt 0.503906 0.000000
vt 0.503906 -0.999023
vt -0.495117 -0.999023
vt -0.327148 -0.679688
vt -0.495117 0.000000
vt -0.275391 -0.089844
vt 0.003906 -0.276367
vt 0.003906 -0.276367
vt 0.338867 -0.679688
vt 0.287109 -0.088867
vt 0.503906 0.000000
vt 0.503906 -0.999023
vt 0.003906 -0.276367
vt 0.338867 -0.679688
vt 0.287109 -0.088867
vt 0.503906 0.000000
vt 0.503906 -0.999023
vt -0.495117 -0.999023
vt -0.327148 -0.679688
vt -0.495117 0.000000
vt -0.275391 -0.089844
vt 0.003906 -0.276367
vt -0.495117 -0.999023
vt -0.327148 -0.679688
vt -0.495117 0.000000
vt -0.275391 -0.089844
vt 0.003906 -0.276367
vt 0.003906 -0.276367
vt 0.338867 -0.679688
vt 0.287109 -0.088867
vt 0.503906 0.000000
vt 0.503906 -0.999023
vt -0.495117 -0.999023
vt -0.327148 -0.679688
vt -0.495117 0.000000
vt -0.275391 -0.089844
vt 0.003906 -0.276367
vt 0.003906 -0.276367
vt 0.338867 -0.679688
vt 0.287109 -0.088867
vt 0.503906 0.000000
vt 0.503906 -0.999023
vt -0.495117 -0.999023
vt -0.327148 -0.679688
vt -0.495117 0.000000
vt -0.275391 -0.089844
vt 0.003906 -0.276367
vt 0.003906 -0.276367
vt 0.338867 -0.679688
vt 0.287109 -0.088867
vt 0.503906 0.000000
vt 0.503906 -0.999023
vt -0.495117 -0.999023
vt -0.327148 -0.679688
vt -0.495117 0.000000
vt -0.275391 -0.089844
vt 0.003906 -0.276367
vt 0.003906 -0.276367
vt 0.338867 -0.679688
vt 0.287109 -0.088867
vt 0.503906 0.000000
vt 0.503906 -0.999023
vt 0.503906 0.000000
vt 0.667969 -0.679688
vt 0.720703 -0.088867
vt 1.002930 -0.276367
vn 0.0000 0.0000 1.0000
usemtl Tex_0062_1.dds.002
s off
f 1/1/1 3/2/1 2/3/1
f 2/3/1 3/2/1 4/4/1
f 3/2/1 5/5/1 4/4/1
f 4/4/1 5/5/1 6/6/1
f 7/7/1 9/8/1 8/9/1
f 8/9/1 9/8/1 10/10/1
f 9/8/1 11/11/1 10/10/1
f 12/12/1 14/13/1 13/14/1
f 13/14/1 14/13/1 15/15/1
f 14/13/1 16/16/1 15/15/1
f 17/17/1 19/18/1 18/19/1
f 18/19/1 19/18/1 20/20/1
f 19/18/1 21/21/1 20/20/1
f 22/22/1 24/23/1 23/24/1
f 23/24/1 24/23/1 25/25/1
f 24/23/1 26/26/1 25/25/1
f 27/27/1 29/28/1 28/29/1
f 28/29/1 29/28/1 30/30/1
f 29/28/1 31/31/1 30/30/1
f 32/32/1 34/33/1 33/34/1
f 33/34/1 34/33/1 35/35/1
f 34/33/1 36/36/1 35/35/1
f 37/37/1 39/38/1 38/39/1
f 38/39/1 39/38/1 40/40/1
f 39/38/1 41/41/1 40/40/1
f 42/42/1 44/43/1 43/44/1
f 43/44/1 44/43/1 45/45/1
f 44/43/1 46/46/1 45/45/1
f 47/47/1 49/48/1 48/49/1
f 48/49/1 49/48/1 50/50/1
f 49/48/1 51/51/1 50/50/1
f 52/52/1 54/53/1 53/54/1
f 53/54/1 54/53/1 55/55/1
f 54/53/1 56/56/1 55/55/1
f 57/57/1 59/58/1 58/59/1
f 58/59/1 59/58/1 60/60/1
f 59/58/1 61/61/1 60/60/1
f 62/62/1 64/63/1 63/64/1
f 63/64/1 64/63/1 65/65/1
f 64/63/1 66/66/1 65/65/1
f 67/67/1 69/68/1 68/69/1
f 68/69/1 69/68/1 70/70/1
f 69/68/1 71/71/1 70/70/1
f 72/72/1 74/73/1 73/74/1
f 73/74/1 74/73/1 75/75/1
f 74/73/1 76/76/1 75/75/1
f 77/77/1 79/78/1 78/79/1
f 78/79/1 79/78/1 80/80/1
f 79/78/1 81/81/1 80/80/1
f 82/82/1 84/83/1 83/84/1
f 83/84/1 84/83/1 85/85/1
f 84/83/1 86/86/1 85/85/1
f 87/87/1 89/88/1 88/89/1
f 88/89/1 89/88/1 90/90/1
f 89/88/1 91/91/1 90/90/1
f 92/92/1 94/93/1 93/94/1
f 93/94/1 94/93/1 95/95/1
f 94/93/1 96/96/1 95/95/1
f 97/97/1 99/98/1 98/99/1
f 98/99/1 99/98/1 100/100/1
f 99/98/1 101/101/1 100/100/1
f 102/102/1 104/103/1 103/104/1
f 103/104/1 104/103/1 105/105/1
f 104/103/1 106/106/1 105/105/1
f 107/107/1 109/108/1 108/109/1
f 108/109/1 109/108/1 110/110/1
