# Blender v3.6.3 OBJ File: 'untitled.blend'
# www.blender.org
mtllib Mesh_0175.mtl
o Mesh_0175_Mesh.146
v -22.304649 55.317627 -3.485054
v -22.304649 53.335922 -2.571800
v -22.304649 60.324989 -2.571800
v -22.304649 55.317627 -1.658539
v -22.304649 58.098167 0.182671
v -22.304649 60.324989 -2.571800
v -22.304649 58.098167 -5.326279
v -22.304649 55.317627 -3.485054
vt 0.647461 -0.697266
vt 0.499023 0.028320
vt 0.499023 -0.970703
vt 0.350586 -0.697266
vt 0.000000 -0.284180
vt 0.499023 0.028320
vt 0.647461 -0.697266
vt 0.999023 -0.284180
vn 1.0000 0.0000 0.0000
usemtl Tex_0062_1.dds
s off
f 1/1/1 3/2/1 2/3/1
f 2/3/1 3/2/1 4/4/1
f 3/2/1 5/5/1 4/4/1
f 6/6/1 8/7/1 7/8/1
