# Blender v3.6.3 OBJ File: 'untitled.blend'
# www.blender.org
mtllib Mesh_0128.mtl
o Mesh_0128_Mesh.128
v -21.034584 50.799988 6.265366
v -8.334585 50.799988 6.265366
v -21.034584 57.784988 1.185371
v -8.334585 57.784988 1.185371
v -21.034584 57.784988 1.185371
v -8.334585 57.784988 1.185371
v -21.034584 60.324989 -2.571800
v -8.334585 60.324989 -2.571800
v -21.034584 50.799988 -11.408966
v -21.034584 57.784988 -6.328964
v -8.334585 50.799988 -11.408966
v -8.334585 57.784988 -6.328964
v -21.034584 57.784988 -6.328964
v -21.034584 60.324989 -2.571800
v -8.334585 57.784988 -6.328964
v -8.334585 60.324989 -2.571800
vt -0.319336 -0.979492
vt -0.319336 -0.259766
vt 0.792969 -0.979492
vt 0.792969 -0.259766
vt -0.319336 -0.259766
vt -0.319336 0.001953
vt 0.792969 -0.259766
vt 0.792969 0.001953
vt -0.319336 -0.979492
vt 0.792969 -0.979492
vt -0.319336 -0.259766
vt 0.792969 -0.259766
vt -0.319336 -0.259766
vt 0.792969 -0.259766
vt -0.319336 0.001953
vt 0.792969 0.001953
vn 0.0000 -0.5882 -0.8087
vn 0.0000 -0.8284 -0.5601
vn 0.0000 -0.5882 0.8087
vn 0.0000 -0.8284 0.5601
usemtl Tex_0029_1.dds
s off
f 1/1/1 3/2/1 2/3/1
f 2/3/1 3/2/1 4/4/1
f 5/5/2 7/6/2 6/7/2
f 6/7/2 7/6/2 8/8/2
f 9/9/3 11/10/3 10/11/3
f 10/11/3 11/10/3 12/12/3
f 13/13/4 15/14/4 14/15/4
f 14/15/4 15/14/4 16/16/4
