# Blender v3.6.3 OBJ File: 'untitled.blend'
# www.blender.org
mtllib Mesh_0102.mtl
o Mesh_0102_Mesh.116
v 30.466459 -0.000010 -3.431595
v 30.653399 -0.000010 -2.571808
v 28.490839 -0.000010 -2.571808
v 30.466459 -0.000010 -1.712013
v 29.937880 -0.000010 -1.000816
v 26.375532 -0.000010 -3.011482
v 26.741293 -0.000010 -3.814377
v 28.490839 -0.000010 -2.571808
v 27.409567 -0.000010 -4.402641
v 28.264784 -0.000010 -4.674416
v 27.409567 -0.000010 -0.740974
v 26.741293 -0.000010 -1.329239
v 28.490839 -0.000010 -2.571808
v 26.375532 -0.000010 -2.132385
v 26.375532 -0.000010 -3.011482
v 29.937880 -0.000010 -1.000816
v 29.159113 -0.000010 -0.561142
v 28.490839 -0.000010 -2.571808
v 28.264784 -0.000010 -0.469452
v 27.409567 -0.000010 -0.740974
v 29.159113 -0.000010 -4.582466
v 29.937880 -0.000010 -4.142799
v 28.490839 -0.000010 -2.571808
v 30.466459 -0.000010 -3.431595
v 36.912216 -0.000010 -4.320847
v 37.479362 -0.000010 -6.482086
v 38.114639 -0.000010 -4.570564
v 36.912216 -0.000010 -4.320847
v 36.356209 -0.000010 -5.993187
v 37.479362 -0.000010 -6.482086
v 35.457054 -0.000010 -7.516167
v 37.479362 -0.000010 -6.482086
v 36.356209 -0.000010 -5.993187
v 35.457054 -0.000010 -7.516167
v 36.451263 -0.000010 -8.222546
v 37.479362 -0.000010 -6.482086
v 35.457054 -0.000010 -7.516167
v 35.075768 -0.000010 -9.716103
v 36.451263 -0.000010 -8.222546
v 35.457054 -0.000010 -7.516167
v 34.253090 -0.000010 -8.823006
v 35.075768 -0.000010 -9.716103
v 32.797928 -0.000010 -9.856781
v 35.075768 -0.000010 -9.716103
v 34.253090 -0.000010 -8.823006
v 32.797928 -0.000010 -9.856781
v 33.412384 -0.000010 -10.897430
v 35.075768 -0.000010 -9.716103
v 32.797928 -0.000010 -9.856781
v 31.534460 -0.000010 -11.714981
v 33.412384 -0.000010 -10.897430
v 32.797928 -0.000010 -9.856781
v 31.154543 -0.000010 -10.572044
v 31.534460 -0.000010 -11.714981
v 29.394835 -0.000010 -10.937553
v 31.534460 -0.000010 -11.714981
v 31.154543 -0.000010 -10.572044
v 29.394835 -0.000010 -10.937553
v 29.523375 -0.000010 -12.132675
v 31.534460 -0.000010 -11.714981
v 29.394835 -0.000010 -10.937553
v 27.467497 -0.000010 -12.132675
v 29.523375 -0.000010 -12.132675
v 29.394835 -0.000010 -10.937553
v 27.595999 -0.000010 -10.937553
v 27.467497 -0.000010 -12.132675
v 25.836294 -0.000010 -10.572044
v 27.467497 -0.000010 -12.132675
v 27.595999 -0.000010 -10.937553
v 25.836294 -0.000010 -10.572044
v 25.456556 -0.000010 -11.714993
v 27.467497 -0.000010 -12.132675
v 25.836294 -0.000010 -10.572044
v 23.578455 -0.000010 -10.897430
v 25.456556 -0.000010 -11.714993
v 25.836294 -0.000010 -10.572044
v 24.193167 -0.000010 -9.856781
v 23.578455 -0.000010 -10.897430
v 22.737741 -0.000010 -8.823006
v 23.578455 -0.000010 -10.897430
v 24.193167 -0.000010 -9.856781
v 22.737741 -0.000010 -8.823006
v 21.915236 -0.000010 -9.716103
v 23.578455 -0.000010 -10.897430
v 22.737741 -0.000010 -8.823006
v 20.539560 -0.000010 -8.222546
v 21.915236 -0.000010 -9.716103
v 22.737741 -0.000010 -8.823006
v 21.534037 -0.000010 -7.516167
v 20.539560 -0.000010 -8.222546
v 20.634619 -0.000010 -5.993187
v 20.539560 -0.000010 -8.222546
v 21.534037 -0.000010 -7.516167
v 20.634619 -0.000010 -5.993187
v 19.511633 -0.000010 -6.482086
v 20.539560 -0.000010 -8.222546
v 20.634619 -0.000010 -5.993187
v 18.876234 -0.000010 -4.570564
v 19.511633 -0.000010 -6.482086
v 20.634619 -0.000010 -5.993187
v 20.078615 -0.000010 -4.320847
v 18.876234 -0.000010 -4.570564
v 19.890654 -0.000010 -2.571808
v 18.876234 -0.000010 -4.570564
v 20.078615 -0.000010 -4.320847
v 19.890654 -0.000010 -2.571808
v 18.621649 -0.000010 -2.571823
v 18.876234 -0.000010 -4.570564
v 19.890654 -0.000010 -2.571808
v 18.876234 -0.000010 -0.573051
v 18.621649 -0.000010 -2.571823
v 19.890654 -0.000010 -2.571808
v 20.078615 -0.000010 -0.823013
v 18.876234 -0.000010 -0.573051
v 20.634619 -0.000010 0.849571
v 18.876234 -0.000010 -0.573051
v 20.078615 -0.000010 -0.823013
v 20.634619 -0.000010 0.849571
v 19.511633 -0.000010 1.338341
v 18.876234 -0.000010 -0.573051
v 20.634619 -0.000010 0.849571
v 20.539560 -0.000010 3.078934
v 19.511633 -0.000010 1.338341
v 20.634619 -0.000010 0.849571
v 21.534037 -0.000010 2.372559
v 20.539560 -0.000010 3.078934
v 22.737741 -0.000010 3.679390
v 20.539560 -0.000010 3.078934
v 21.534037 -0.000010 2.372559
v 22.737741 -0.000010 3.679390
v 21.915236 -0.000010 4.572495
v 20.539560 -0.000010 3.078934
v 22.737741 -0.000010 3.679390
v 23.578455 -0.000010 5.753822
v 21.915236 -0.000010 4.572495
v 22.737741 -0.000010 3.679390
v 24.193167 -0.000010 4.712914
v 23.578455 -0.000010 5.753822
v 25.836294 -0.000010 5.428429
v 23.578455 -0.000010 5.753822
v 24.193167 -0.000010 4.712914
v 25.836294 -0.000010 5.428429
v 25.456556 -0.000010 6.571251
v 23.578455 -0.000010 5.753822
v 25.836294 -0.000010 5.428429
v 27.467497 -0.000010 6.989059
v 25.456556 -0.000010 6.571251
v 25.836294 -0.000010 5.428429
v 27.595999 -0.000010 5.793938
v 27.467497 -0.000010 6.989059
v 29.394835 -0.000010 5.793938
v 27.467497 -0.000010 6.989059
v 27.595999 -0.000010 5.793938
v 29.394835 -0.000010 5.793938
v 29.523375 -0.000010 6.989059
v 27.467497 -0.000010 6.989059
v 29.394835 -0.000010 5.793938
v 31.534460 -0.000010 6.571243
v 29.523375 -0.000010 6.989059
v 29.394835 -0.000010 5.793938
v 31.154543 -0.000010 5.428429
v 31.534460 -0.000010 6.571243
v 32.797928 -0.000010 4.712914
v 31.534460 -0.000010 6.571243
v 31.154543 -0.000010 5.428429
v 32.797928 -0.000010 4.712914
v 33.412384 -0.000010 5.753822
v 31.534460 -0.000010 6.571243
v 32.797928 -0.000010 4.712914
v 35.075768 -0.000010 4.572495
v 33.412384 -0.000010 5.753822
v 32.797928 -0.000010 4.712914
v 34.253090 -0.000010 3.679390
v 35.075768 -0.000010 4.572495
v 35.457054 -0.000010 2.372559
v 35.075768 -0.000010 4.572495
v 34.253090 -0.000010 3.679390
v 35.457054 -0.000010 2.372559
v 36.451263 -0.000010 3.078934
v 35.075768 -0.000010 4.572495
v 35.457054 -0.000010 2.372559
v 37.479362 -0.000010 1.338341
v 36.451263 -0.000010 3.078934
v 35.457054 -0.000010 2.372559
v 36.356209 -0.000010 0.849571
v 37.479362 -0.000010 1.338341
v 36.912216 -0.000010 -0.823013
v 37.479362 -0.000010 1.338341
v 36.356209 -0.000010 0.849571
v 36.912216 -0.000010 -0.823013
v 38.114639 -0.000010 -0.573051
v 37.479362 -0.000010 1.338341
v 36.912216 -0.000010 -0.823013
v 38.369179 -0.000010 -2.571823
v 38.114639 -0.000010 -0.573051
v 36.912216 -0.000010 -0.823013
v 37.100182 -0.000010 -2.571808
v 38.369179 -0.000010 -2.571823
v 36.912216 -0.000010 -4.320847
v 38.369179 -0.000010 -2.571823
v 37.100182 -0.000010 -2.571808
v 36.912216 -0.000010 -4.320847
v 38.114639 -0.000010 -4.570564
v 38.369179 -0.000010 -2.571823
v 35.709778 -0.000010 -4.070915
v 36.356209 -0.000010 -5.993187
v 36.912216 -0.000010 -4.320847
v 35.709778 -0.000010 -4.070915
v 35.233276 -0.000010 -5.504494
v 36.356209 -0.000010 -5.993187
v 35.233276 -0.000010 -5.504494
v 35.457054 -0.000010 -7.516167
v 36.356209 -0.000010 -5.993187
v 35.233276 -0.000010 -5.504494
v 34.462387 -0.000010 -6.809799
v 35.457054 -0.000010 -7.516167
v 34.462387 -0.000010 -6.809799
v 34.253090 -0.000010 -8.823006
v 35.457054 -0.000010 -7.516167
v 34.462387 -0.000010 -6.809799
v 33.430634 -0.000010 -7.929935
v 34.253090 -0.000010 -8.823006
v 33.430634 -0.000010 -7.929935
v 32.797928 -0.000010 -9.856781
v 34.253090 -0.000010 -8.823006
v 33.430634 -0.000010 -7.929935
v 32.183243 -0.000010 -8.816147
v 32.797928 -0.000010 -9.856781
v 32.183243 -0.000010 -8.816147
v 31.154543 -0.000010 -10.572044
v 32.797928 -0.000010 -9.856781
v 32.183243 -0.000010 -8.816147
v 30.774557 -0.000010 -9.429043
v 31.154543 -0.000010 -10.572044
v 30.774557 -0.000010 -9.429043
v 29.394835 -0.000010 -10.937553
v 31.154543 -0.000010 -10.572044
v 30.774557 -0.000010 -9.429043
v 29.266310 -0.000010 -9.742481
v 29.394835 -0.000010 -10.937553
v 29.266310 -0.000010 -9.742481
v 27.595999 -0.000010 -10.937553
v 29.394835 -0.000010 -10.937553
v 29.266310 -0.000010 -9.742481
v 27.724520 -0.000010 -9.742481
v 27.595999 -0.000010 -10.937553
v 27.724520 -0.000010 -9.742481
v 25.836294 -0.000010 -10.572044
v 27.595999 -0.000010 -10.937553
v 27.724520 -0.000010 -9.742481
v 26.216272 -0.000010 -9.429043
v 25.836294 -0.000010 -10.572044
v 26.216272 -0.000010 -9.429043
v 24.193167 -0.000010 -9.856781
v 25.836294 -0.000010 -10.572044
v 26.216272 -0.000010 -9.429043
v 24.807592 -0.000010 -8.816147
v 24.193167 -0.000010 -9.856781
v 24.807592 -0.000010 -8.816147
v 22.737741 -0.000010 -8.823006
v 24.193167 -0.000010 -9.856781
v 24.807592 -0.000010 -8.816147
v 23.560198 -0.000010 -7.929935
v 22.737741 -0.000010 -8.823006
v 23.560198 -0.000010 -7.929935
v 21.534037 -0.000010 -7.516167
v 22.737741 -0.000010 -8.823006
v 23.560198 -0.000010 -7.929935
v 22.528452 -0.000010 -6.809799
v 21.534037 -0.000010 -7.516167
v 22.528452 -0.000010 -6.809799
v 20.634619 -0.000010 -5.993187
v 21.534037 -0.000010 -7.516167
v 22.528452 -0.000010 -6.809799
v 21.757555 -0.000010 -5.504494
v 20.634619 -0.000010 -5.993187
v 21.757555 -0.000010 -5.504494
v 20.078615 -0.000010 -4.320847
v 20.634619 -0.000010 -5.993187
v 21.757555 -0.000010 -5.504494
v 21.281057 -0.000010 -4.070915
v 20.078615 -0.000010 -4.320847
v 21.281057 -0.000010 -4.070915
v 19.890654 -0.000010 -2.571808
v 20.078615 -0.000010 -4.320847
v 21.281057 -0.000010 -4.070915
v 21.120012 -0.000010 -2.571808
v 19.890654 -0.000010 -2.571808
v 21.120012 -0.000010 -2.571808
v 20.078615 -0.000010 -0.823013
v 19.890654 -0.000010 -2.571808
v 21.120012 -0.000010 -2.571808
v 21.281057 -0.000010 -1.072701
v 20.078615 -0.000010 -0.823013
v 21.281057 -0.000010 -1.072701
v 20.634619 -0.000010 0.849571
v 20.078615 -0.000010 -0.823013
v 21.281057 -0.000010 -1.072701
v 21.757555 -0.000010 0.360878
v 20.634619 -0.000010 0.849571
v 21.757555 -0.000010 0.360878
v 21.534037 -0.000010 2.372559
v 20.634619 -0.000010 0.849571
v 21.757555 -0.000010 0.360878
v 22.528452 -0.000010 1.666183
v 21.534037 -0.000010 2.372559
v 22.528452 -0.000010 1.666183
v 22.737741 -0.000010 3.679390
v 21.534037 -0.000010 2.372559
v 22.528452 -0.000010 1.666183
v 23.560198 -0.000010 2.786324
v 22.737741 -0.000010 3.679390
v 23.560198 -0.000010 2.786324
v 24.193167 -0.000010 4.712914
v 22.737741 -0.000010 3.679390
v 23.560198 -0.000010 2.786324
v 24.807592 -0.000010 3.672272
v 24.193167 -0.000010 4.712914
v 24.807592 -0.000010 3.672272
v 25.836294 -0.000010 5.428429
v 24.193167 -0.000010 4.712914
v 24.807592 -0.000010 3.672272
v 26.216272 -0.000010 4.285431
v 25.836294 -0.000010 5.428429
v 26.216272 -0.000010 4.285431
v 27.595999 -0.000010 5.793938
v 25.836294 -0.000010 5.428429
v 26.216272 -0.000010 4.285431
v 27.724520 -0.000010 4.598869
v 27.595999 -0.000010 5.793938
v 27.724520 -0.000010 4.598869
v 29.394835 -0.000010 5.793938
v 27.595999 -0.000010 5.793938
v 27.724520 -0.000010 4.598869
v 29.266310 -0.000010 4.598869
v 29.394835 -0.000010 5.793938
v 29.266310 -0.000010 4.598869
v 31.154543 -0.000010 5.428429
v 29.394835 -0.000010 5.793938
v 29.266310 -0.000010 4.598869
v 30.774557 -0.000010 4.285431
v 31.154543 -0.000010 5.428429
v 30.774557 -0.000010 4.285431
v 32.797928 -0.000010 4.712914
v 31.154543 -0.000010 5.428429
v 30.774557 -0.000010 4.285431
v 32.183243 -0.000010 3.672272
v 32.797928 -0.000010 4.712914
v 32.183243 -0.000010 3.672272
v 34.253090 -0.000010 3.679390
v 32.797928 -0.000010 4.712914
v 32.183243 -0.000010 3.672272
v 33.430634 -0.000010 2.786324
v 34.253090 -0.000010 3.679390
v 33.430634 -0.000010 2.786324
v 35.457054 -0.000010 2.372559
v 34.253090 -0.000010 3.679390
v 33.430634 -0.000010 2.786324
v 34.462387 -0.000010 1.666183
v 35.457054 -0.000010 2.372559
v 34.462387 -0.000010 1.666183
v 36.356209 -0.000010 0.849571
v 35.457054 -0.000010 2.372559
v 34.462387 -0.000010 1.666183
v 35.233276 -0.000010 0.360878
v 36.356209 -0.000010 0.849571
v 35.233276 -0.000010 0.360878
v 36.912216 -0.000010 -0.823013
v 36.356209 -0.000010 0.849571
v 35.233276 -0.000010 0.360878
v 35.709778 -0.000010 -1.072701
v 36.912216 -0.000010 -0.823013
v 35.709778 -0.000010 -1.072701
v 37.100182 -0.000010 -2.571808
v 36.912216 -0.000010 -0.823013
v 35.709778 -0.000010 -1.072701
v 35.871063 -0.000010 -2.571808
v 37.100182 -0.000010 -2.571808
v 35.871063 -0.000010 -2.571808
v 36.912216 -0.000010 -4.320847
v 37.100182 -0.000010 -2.571808
v 35.871063 -0.000010 -2.571808
v 35.709778 -0.000010 -4.070915
v 36.912216 -0.000010 -4.320847
v 34.507339 -0.000010 -3.820976
v 35.233276 -0.000010 -5.504494
v 35.709778 -0.000010 -4.070915
v 34.507339 -0.000010 -3.820976
v 34.110344 -0.000010 -5.015793
v 35.233276 -0.000010 -5.504494
v 34.110344 -0.000010 -5.015793
v 34.462387 -0.000010 -6.809799
v 35.233276 -0.000010 -5.504494
v 34.110344 -0.000010 -5.015793
v 33.467972 -0.000010 -6.103424
v 34.462387 -0.000010 -6.809799
v 33.467972 -0.000010 -6.103424
v 33.430634 -0.000010 -7.929935
v 34.462387 -0.000010 -6.809799
v 33.467972 -0.000010 -6.103424
v 32.608185 -0.000010 -7.036873
v 33.430634 -0.000010 -7.929935
v 32.608185 -0.000010 -7.036873
v 32.183243 -0.000010 -8.816147
v 33.430634 -0.000010 -7.929935
v 32.608185 -0.000010 -7.036873
v 31.568567 -0.000010 -7.775253
v 32.183243 -0.000010 -8.816147
v 31.568567 -0.000010 -7.775253
v 30.774557 -0.000010 -9.429043
v 32.183243 -0.000010 -8.816147
v 31.568567 -0.000010 -7.775253
v 30.394823 -0.000010 -8.286297
v 30.774557 -0.000010 -9.429043
v 30.394823 -0.000010 -8.286297
v 29.266310 -0.000010 -9.742481
v 30.774557 -0.000010 -9.429043
v 30.394823 -0.000010 -8.286297
v 29.137781 -0.000010 -8.547409
v 29.266310 -0.000010 -9.742481
v 29.137781 -0.000010 -8.547409
v 27.724520 -0.000010 -9.742481
v 29.266310 -0.000010 -9.742481
v 29.137781 -0.000010 -8.547409
v 27.853048 -0.000010 -8.547409
v 27.724520 -0.000010 -9.742481
v 27.853048 -0.000010 -8.547409
v 26.216272 -0.000010 -9.429043
v 27.724520 -0.000010 -9.742481
v 27.853048 -0.000010 -8.547409
v 26.596258 -0.000010 -8.286297
v 26.216272 -0.000010 -9.429043
v 26.596258 -0.000010 -8.286297
v 24.807592 -0.000010 -8.816147
v 26.216272 -0.000010 -9.429043
v 26.596258 -0.000010 -8.286297
v 25.422266 -0.000010 -7.775253
v 24.807592 -0.000010 -8.816147
v 25.422266 -0.000010 -7.775253
v 23.560198 -0.000010 -7.929935
v 24.807592 -0.000010 -8.816147
v 25.422266 -0.000010 -7.775253
v 24.382898 -0.000010 -7.036873
v 23.560198 -0.000010 -7.929935
v 24.382898 -0.000010 -7.036873
v 22.528452 -0.000010 -6.809799
v 23.560198 -0.000010 -7.929935
v 24.382898 -0.000010 -7.036873
v 23.523119 -0.000010 -6.103424
v 22.528452 -0.000010 -6.809799
v 23.523119 -0.000010 -6.103424
v 21.757555 -0.000010 -5.504494
v 22.528452 -0.000010 -6.809799
v 23.523119 -0.000010 -6.103424
v 22.880491 -0.000010 -5.015793
v 21.757555 -0.000010 -5.504494
v 22.880491 -0.000010 -5.015793
v 21.281057 -0.000010 -4.070915
v 21.757555 -0.000010 -5.504494
v 22.880491 -0.000010 -5.015793
v 22.483492 -0.000010 -3.820976
v 21.281057 -0.000010 -4.070915
v 22.483492 -0.000010 -3.820976
v 21.120012 -0.000010 -2.571808
v 21.281057 -0.000010 -4.070915
v 22.483492 -0.000010 -3.820976
v 22.349123 -0.000010 -2.571808
v 21.120012 -0.000010 -2.571808
v 22.349123 -0.000010 -2.571808
v 21.281057 -0.000010 -1.072701
v 21.120012 -0.000010 -2.571808
v 22.349123 -0.000010 -2.571808
v 22.483492 -0.000010 -1.322632
v 21.281057 -0.000010 -1.072701
v 22.483492 -0.000010 -1.322632
v 21.757555 -0.000010 0.360878
v 21.281057 -0.000010 -1.072701
v 22.483492 -0.000010 -1.322632
v 22.880491 -0.000010 -0.128075
v 21.757555 -0.000010 0.360878
v 22.880491 -0.000010 -0.128075
v 22.528452 -0.000010 1.666183
v 21.757555 -0.000010 0.360878
v 22.880491 -0.000010 -0.128075
v 23.523119 -0.000010 0.959808
v 22.528452 -0.000010 1.666183
v 23.523119 -0.000010 0.959808
v 23.560198 -0.000010 2.786324
v 22.528452 -0.000010 1.666183
v 23.523119 -0.000010 0.959808
v 24.382898 -0.000010 1.893257
v 23.560198 -0.000010 2.786324
v 24.382898 -0.000010 1.893257
v 24.807592 -0.000010 3.672272
v 23.560198 -0.000010 2.786324
v 24.382898 -0.000010 1.893257
v 25.422266 -0.000010 2.631638
v 24.807592 -0.000010 3.672272
v 25.422266 -0.000010 2.631638
v 26.216272 -0.000010 4.285431
v 24.807592 -0.000010 3.672272
v 25.422266 -0.000010 2.631638
v 26.596258 -0.000010 3.142685
v 26.216272 -0.000010 4.285431
v 26.596258 -0.000010 3.142685
v 27.724520 -0.000010 4.598869
v 26.216272 -0.000010 4.285431
v 26.596258 -0.000010 3.142685
v 27.853048 -0.000010 3.403801
v 27.724520 -0.000010 4.598869
v 27.853048 -0.000010 3.403801
v 29.266310 -0.000010 4.598869
v 27.724520 -0.000010 4.598869
v 27.853048 -0.000010 3.403801
v 29.137781 -0.000010 3.403801
v 29.266310 -0.000010 4.598869
v 29.137781 -0.000010 3.403801
v 30.774557 -0.000010 4.285431
v 29.266310 -0.000010 4.598869
v 29.137781 -0.000010 3.403801
v 30.394823 -0.000010 3.142685
v 30.774557 -0.000010 4.285431
v 30.394823 -0.000010 3.142685
v 32.183243 -0.000010 3.672272
v 30.774557 -0.000010 4.285431
v 30.394823 -0.000010 3.142685
v 31.568567 -0.000010 2.631638
v 32.183243 -0.000010 3.672272
v 31.568567 -0.000010 2.631638
v 33.430634 -0.000010 2.786324
v 32.183243 -0.000010 3.672272
v 31.568567 -0.000010 2.631638
v 32.608185 -0.000010 1.893257
v 33.430634 -0.000010 2.786324
v 32.608185 -0.000010 1.893257
v 34.462387 -0.000010 1.666183
v 33.430634 -0.000010 2.786324
v 32.608185 -0.000010 1.893257
v 33.467972 -0.000010 0.959808
v 34.462387 -0.000010 1.666183
v 33.467972 -0.000010 0.959808
v 35.233276 -0.000010 0.360878
v 34.462387 -0.000010 1.666183
v 33.467972 -0.000010 0.959808
v 34.110344 -0.000010 -0.128075
v 35.233276 -0.000010 0.360878
v 34.110344 -0.000010 -0.128075
v 35.709778 -0.000010 -1.072701
v 35.233276 -0.000010 0.360878
v 34.110344 -0.000010 -0.128075
v 34.507339 -0.000010 -1.322632
v 35.709778 -0.000010 -1.072701
v 34.507339 -0.000010 -1.322632
v 35.871063 -0.000010 -2.571808
v 35.709778 -0.000010 -1.072701
v 34.507339 -0.000010 -1.322632
v 34.641708 -0.000010 -2.571808
v 35.871063 -0.000010 -2.571808
v 34.641708 -0.000010 -2.571808
v 35.709778 -0.000010 -4.070915
v 35.871063 -0.000010 -2.571808
v 34.641708 -0.000010 -2.571808
v 34.507339 -0.000010 -3.820976
v 35.709778 -0.000010 -4.070915
v 33.304909 -0.000010 -3.571297
v 34.110344 -0.000010 -5.015793
v 34.507339 -0.000010 -3.820976
v 33.304909 -0.000010 -3.571297
v 32.987411 -0.000010 -4.526848
v 34.110344 -0.000010 -5.015793
v 32.987411 -0.000010 -4.526848
v 33.467972 -0.000010 -6.103424
v 34.110344 -0.000010 -5.015793
v 32.987411 -0.000010 -4.526848
v 32.473305 -0.000010 -5.397301
v 33.467972 -0.000010 -6.103424
v 32.473305 -0.000010 -5.397301
v 32.608185 -0.000010 -7.036873
v 33.467972 -0.000010 -6.103424
v 32.473305 -0.000010 -5.397301
v 31.785475 -0.000010 -6.144058
v 32.608185 -0.000010 -7.036873
v 31.785475 -0.000010 -6.144058
v 31.568567 -0.000010 -7.775253
v 32.608185 -0.000010 -7.036873
v 31.785475 -0.000010 -6.144058
v 30.953882 -0.000010 -6.734612
v 31.568567 -0.000010 -7.775253
v 30.953882 -0.000010 -6.734612
v 30.394823 -0.000010 -8.286297
v 31.568567 -0.000010 -7.775253
v 30.953882 -0.000010 -6.734612
v 30.014841 -0.000010 -7.143295
v 30.394823 -0.000010 -8.286297
v 30.014841 -0.000010 -7.143295
v 29.137781 -0.000010 -8.547409
v 30.394823 -0.000010 -8.286297
v 30.014841 -0.000010 -7.143295
v 29.009520 -0.000010 -7.352341
v 29.137781 -0.000010 -8.547409
v 29.009520 -0.000010 -7.352341
v 27.853048 -0.000010 -8.547409
v 29.137781 -0.000010 -8.547409
v 29.009520 -0.000010 -7.352341
v 27.981573 -0.000010 -7.352341
v 27.853048 -0.000010 -8.547409
v 27.981573 -0.000010 -7.352341
v 26.596258 -0.000010 -8.286297
v 27.853048 -0.000010 -8.547409
v 27.981573 -0.000010 -7.352341
v 26.975992 -0.000010 -7.143295
v 26.596258 -0.000010 -8.286297
v 26.975992 -0.000010 -7.143295
v 25.422266 -0.000010 -7.775253
v 26.596258 -0.000010 -8.286297
v 26.975992 -0.000010 -7.143295
v 26.036951 -0.000010 -6.734612
v 25.422266 -0.000010 -7.775253
v 26.036951 -0.000010 -6.734612
v 24.382898 -0.000010 -7.036873
v 25.422266 -0.000010 -7.775253
v 26.036951 -0.000010 -6.734612
v 25.205359 -0.000010 -6.144058
v 24.382898 -0.000010 -7.036873
v 25.205359 -0.000010 -6.144058
v 23.523119 -0.000010 -6.103424
v 24.382898 -0.000010 -7.036873
v 25.205359 -0.000010 -6.144058
v 24.517527 -0.000010 -5.397301
v 23.523119 -0.000010 -6.103424
v 24.517527 -0.000010 -5.397301
v 22.880491 -0.000010 -5.015793
v 23.523119 -0.000010 -6.103424
v 24.517527 -0.000010 -5.397301
v 24.003420 -0.000010 -4.526848
v 22.880491 -0.000010 -5.015793
v 24.003420 -0.000010 -4.526848
v 22.483492 -0.000010 -3.820976
v 22.880491 -0.000010 -5.015793
v 24.003420 -0.000010 -4.526848
v 23.685923 -0.000010 -3.571297
v 22.483492 -0.000010 -3.820976
v 23.685923 -0.000010 -3.571297
v 22.349123 -0.000010 -2.571808
v 22.483492 -0.000010 -3.820976
v 23.685923 -0.000010 -3.571297
v 23.578485 -0.000010 -2.571808
v 22.349123 -0.000010 -2.571808
v 23.578485 -0.000010 -2.571808
v 22.483492 -0.000010 -1.322632
v 22.349123 -0.000010 -2.571808
v 23.578485 -0.000010 -2.571808
v 23.685923 -0.000010 -1.572571
v 22.483492 -0.000010 -1.322632
v 23.685923 -0.000010 -1.572571
v 22.880491 -0.000010 -0.128075
v 22.483492 -0.000010 -1.322632
v 23.685923 -0.000010 -1.572571
v 24.003420 -0.000010 -0.616768
v 22.880491 -0.000010 -0.128075
v 24.003420 -0.000010 -0.616768
v 23.523119 -0.000010 0.959808
v 22.880491 -0.000010 -0.128075
v 24.003420 -0.000010 -0.616768
v 24.517527 -0.000010 0.253433
v 23.523119 -0.000010 0.959808
v 24.517527 -0.000010 0.253433
v 24.382898 -0.000010 1.893257
v 23.523119 -0.000010 0.959808
v 24.517527 -0.000010 0.253433
v 25.205359 -0.000010 1.000198
v 24.382898 -0.000010 1.893257
v 25.205359 -0.000010 1.000198
v 25.422266 -0.000010 2.631638
v 24.382898 -0.000010 1.893257
v 25.205359 -0.000010 1.000198
v 26.036951 -0.000010 1.590996
v 25.422266 -0.000010 2.631638
v 26.036951 -0.000010 1.590996
v 26.596258 -0.000010 3.142685
v 25.422266 -0.000010 2.631638
v 26.036951 -0.000010 1.590996
v 26.975992 -0.000010 1.999687
v 26.596258 -0.000010 3.142685
v 26.975992 -0.000010 1.999687
v 27.853048 -0.000010 3.403801
v 26.596258 -0.000010 3.142685
v 26.975992 -0.000010 1.999687
v 27.981573 -0.000010 2.208725
v 27.853048 -0.000010 3.403801
v 27.981573 -0.000010 2.208725
v 29.137781 -0.000010 3.403801
v 27.853048 -0.000010 3.403801
v 27.981573 -0.000010 2.208725
v 29.009520 -0.000010 2.208725
v 29.137781 -0.000010 3.403801
v 29.009520 -0.000010 2.208725
v 30.394823 -0.000010 3.142685
v 29.137781 -0.000010 3.403801
v 29.009520 -0.000010 2.208725
v 30.014841 -0.000010 1.999687
v 30.394823 -0.000010 3.142685
v 30.014841 -0.000010 1.999687
v 31.568567 -0.000010 2.631638
v 30.394823 -0.000010 3.142685
v 30.014841 -0.000010 1.999687
v 30.953882 -0.000010 1.590996
v 31.568567 -0.000010 2.631638
v 30.953882 -0.000010 1.590996
v 32.608185 -0.000010 1.893257
v 31.568567 -0.000010 2.631638
v 30.953882 -0.000010 1.590996
v 31.785475 -0.000010 1.000198
v 32.608185 -0.000010 1.893257
v 31.785475 -0.000010 1.000198
v 33.467972 -0.000010 0.959808
v 32.608185 -0.000010 1.893257
v 31.785475 -0.000010 1.000198
v 32.473305 -0.000010 0.253433
v 33.467972 -0.000010 0.959808
v 32.473305 -0.000010 0.253433
v 34.110344 -0.000010 -0.128075
v 33.467972 -0.000010 0.959808
v 32.473305 -0.000010 0.253433
v 32.987411 -0.000010 -0.616768
v 34.110344 -0.000010 -0.128075
v 32.987411 -0.000010 -0.616768
v 34.507339 -0.000010 -1.322632
v 34.110344 -0.000010 -0.128075
v 32.987411 -0.000010 -0.616768
v 33.304909 -0.000010 -1.572571
v 34.507339 -0.000010 -1.322632
v 33.304909 -0.000010 -1.572571
v 34.641708 -0.000010 -2.571808
v 34.507339 -0.000010 -1.322632
v 33.304909 -0.000010 -1.572571
v 33.412354 -0.000010 -2.571808
v 34.641708 -0.000010 -2.571808
v 33.412354 -0.000010 -2.571808
v 34.507339 -0.000010 -3.820976
v 34.641708 -0.000010 -2.571808
v 33.412354 -0.000010 -2.571808
v 33.304909 -0.000010 -3.571297
v 34.507339 -0.000010 -3.820976
v 32.102722 -0.000010 -3.321358
v 32.987411 -0.000010 -4.526848
v 33.304909 -0.000010 -3.571297
v 32.102722 -0.000010 -3.321358
v 31.864473 -0.000010 -4.038147
v 32.987411 -0.000010 -4.526848
v 31.478899 -0.000010 -4.690926
v 32.987411 -0.000010 -4.526848
v 31.864473 -0.000010 -4.038147
v 31.478899 -0.000010 -4.690926
v 32.473305 -0.000010 -5.397301
v 32.987411 -0.000010 -4.526848
v 31.478899 -0.000010 -4.690926
v 31.785475 -0.000010 -6.144058
v 32.473305 -0.000010 -5.397301
v 31.478899 -0.000010 -4.690926
v 30.963022 -0.000010 -5.250999
v 31.785475 -0.000010 -6.144058
v 30.339460 -0.000010 -5.693977
v 31.785475 -0.000010 -6.144058
v 30.963022 -0.000010 -5.250999
v 30.339460 -0.000010 -5.693977
v 30.953882 -0.000010 -6.734612
v 31.785475 -0.000010 -6.144058
v 30.339460 -0.000010 -5.693977
v 30.014841 -0.000010 -7.143295
v 30.953882 -0.000010 -6.734612
v 30.339460 -0.000010 -5.693977
v 29.635118 -0.000010 -6.000549
v 30.014841 -0.000010 -7.143295
v 30.014841 -0.000010 -7.143295
v 28.880991 -0.000010 -6.157265
v 29.009520 -0.000010 -7.352341
v 30.014841 -0.000010 -7.143295
v 29.635118 -0.000010 -6.000549
v 28.880991 -0.000010 -6.157265
v 28.880991 -0.000010 -6.157265
v 27.981573 -0.000010 -7.352341
v 29.009520 -0.000010 -7.352341
v 28.880991 -0.000010 -6.157265
v 28.110102 -0.000010 -6.157265
v 27.981573 -0.000010 -7.352341
v 27.355974 -0.000010 -6.000549
v 27.981573 -0.000010 -7.352341
v 28.110102 -0.000010 -6.157265
v 27.355974 -0.000010 -6.000549
v 26.975992 -0.000010 -7.143295
v 27.981573 -0.000010 -7.352341
v 27.355974 -0.000010 -6.000549
v 26.036951 -0.000010 -6.734612
v 26.975992 -0.000010 -7.143295
v 27.355974 -0.000010 -6.000549
v 26.651632 -0.000010 -5.693977
v 26.036951 -0.000010 -6.734612
v 26.027811 -0.000010 -5.250999
v 26.036951 -0.000010 -6.734612
v 26.651632 -0.000010 -5.693977
v 26.027811 -0.000010 -5.250999
v 25.205359 -0.000010 -6.144058
v 26.036951 -0.000010 -6.734612
v 26.027811 -0.000010 -5.250999
v 24.517527 -0.000010 -5.397301
v 25.205359 -0.000010 -6.144058
v 26.027811 -0.000010 -5.250999
v 25.511930 -0.000010 -4.690926
v 24.517527 -0.000010 -5.397301
v 25.126619 -0.000010 -4.038147
v 24.517527 -0.000010 -5.397301
v 25.511930 -0.000010 -4.690926
v 25.126619 -0.000010 -4.038147
v 24.003420 -0.000010 -4.526848
v 24.517527 -0.000010 -5.397301
v 25.126619 -0.000010 -4.038147
v 23.685923 -0.000010 -3.571297
v 24.003420 -0.000010 -4.526848
v 25.126619 -0.000010 -4.038147
v 24.888109 -0.000010 -3.321358
v 23.685923 -0.000010 -3.571297
v 24.807592 -0.000010 -2.571808
v 23.685923 -0.000010 -3.571297
v 24.888109 -0.000010 -3.321358
v 24.807592 -0.000010 -2.571808
v 23.578485 -0.000010 -2.571808
v 23.685923 -0.000010 -3.571297
v 24.807592 -0.000010 -2.571808
v 23.685923 -0.000010 -1.572571
v 23.578485 -0.000010 -2.571808
v 24.807592 -0.000010 -2.571808
v 24.888109 -0.000010 -1.822250
v 23.685923 -0.000010 -1.572571
v 25.126619 -0.000010 -1.105461
v 23.685923 -0.000010 -1.572571
v 24.888109 -0.000010 -1.822250
v 25.126619 -0.000010 -1.105461
v 24.003420 -0.000010 -0.616768
v 23.685923 -0.000010 -1.572571
v 25.126619 -0.000010 -1.105461
v 24.517527 -0.000010 0.253433
v 24.003420 -0.000010 -0.616768
v 25.126619 -0.000010 -1.105461
v 25.511930 -0.000010 -0.452682
v 24.517527 -0.000010 0.253433
v 26.027811 -0.000010 0.107384
v 24.517527 -0.000010 0.253433
v 25.511930 -0.000010 -0.452682
v 26.027811 -0.000010 0.107384
v 25.205359 -0.000010 1.000198
v 24.517527 -0.000010 0.253433
v 26.027811 -0.000010 0.107384
v 26.036951 -0.000010 1.590996
v 25.205359 -0.000010 1.000198
v 26.027811 -0.000010 0.107384
v 26.651632 -0.000010 0.550362
v 26.036951 -0.000010 1.590996
v 27.355974 -0.000010 0.856941
v 26.036951 -0.000010 1.590996
v 26.651632 -0.000010 0.550362
v 27.355974 -0.000010 0.856941
v 26.975992 -0.000010 1.999687
v 26.036951 -0.000010 1.590996
v 27.355974 -0.000010 0.856941
v 27.981573 -0.000010 2.208725
v 26.975992 -0.000010 1.999687
v 27.355974 -0.000010 0.856941
v 28.110102 -0.000010 1.013405
v 27.981573 -0.000010 2.208725
v 28.880991 -0.000010 1.013405
v 27.981573 -0.000010 2.208725
v 28.110102 -0.000010 1.013405
v 28.880991 -0.000010 1.013405
v 29.009520 -0.000010 2.208725
v 27.981573 -0.000010 2.208725
v 28.880991 -0.000010 1.013405
v 30.014841 -0.000010 1.999687
v 29.009520 -0.000010 2.208725
v 28.880991 -0.000010 1.013405
v 29.635118 -0.000010 0.856941
v 30.014841 -0.000010 1.999687
v 30.339460 -0.000010 0.550362
v 30.014841 -0.000010 1.999687
v 29.635118 -0.000010 0.856941
v 30.339460 -0.000010 0.550362
v 30.953882 -0.000010 1.590996
v 30.014841 -0.000010 1.999687
v 30.339460 -0.000010 0.550362
v 31.785475 -0.000010 1.000198
v 30.953882 -0.000010 1.590996
v 30.339460 -0.000010 0.550362
v 30.963022 -0.000010 0.107384
v 31.785475 -0.000010 1.000198
v 31.478899 -0.000010 -0.452682
v 31.785475 -0.000010 1.000198
v 30.963022 -0.000010 0.107384
v 31.478899 -0.000010 -0.452682
v 32.473305 -0.000010 0.253433
v 31.785475 -0.000010 1.000198
v 31.478899 -0.000010 -0.452682
v 32.987411 -0.000010 -0.616768
v 32.473305 -0.000010 0.253433
v 31.478899 -0.000010 -0.452682
v 31.864473 -0.000010 -1.105461
v 32.987411 -0.000010 -0.616768
v 32.102722 -0.000010 -1.822250
v 32.987411 -0.000010 -0.616768
v 31.864473 -0.000010 -1.105461
v 32.102722 -0.000010 -1.822250
v 33.304909 -0.000010 -1.572571
v 32.987411 -0.000010 -0.616768
v 32.102722 -0.000010 -1.822250
v 33.412354 -0.000010 -2.571808
v 33.304909 -0.000010 -1.572571
v 32.102722 -0.000010 -1.822250
v 32.183243 -0.000010 -2.571808
v 33.412354 -0.000010 -2.571808
v 32.102722 -0.000010 -3.321358
v 33.412354 -0.000010 -2.571808
v 32.183243 -0.000010 -2.571808
v 32.102722 -0.000010 -3.321358
v 33.304909 -0.000010 -3.571297
v 33.412354 -0.000010 -2.571808
v 30.466459 -0.000010 -3.431595
v 32.102722 -0.000010 -3.321358
v 30.653399 -0.000010 -2.571808
v 30.466459 -0.000010 -3.431595
v 31.864473 -0.000010 -4.038147
v 32.102722 -0.000010 -3.321358
v 30.466459 -0.000010 -3.431595
v 31.478899 -0.000010 -4.690926
v 31.864473 -0.000010 -4.038147
v 29.937880 -0.000010 -4.142799
v 31.478899 -0.000010 -4.690926
v 30.466459 -0.000010 -3.431595
v 29.937880 -0.000010 -4.142799
v 30.963022 -0.000010 -5.250999
v 31.478899 -0.000010 -4.690926
v 29.937880 -0.000010 -4.142799
v 30.339460 -0.000010 -5.693977
v 30.963022 -0.000010 -5.250999
v 29.159113 -0.000010 -4.582466
v 30.339460 -0.000010 -5.693977
v 29.937880 -0.000010 -4.142799
v 29.159113 -0.000010 -4.582466
v 29.635118 -0.000010 -6.000549
v 30.339460 -0.000010 -5.693977
v 29.159113 -0.000010 -4.582466
v 28.880991 -0.000010 -6.157265
v 29.635118 -0.000010 -6.000549
v 28.264784 -0.000010 -4.674416
v 28.880991 -0.000010 -6.157265
v 29.159113 -0.000010 -4.582466
v 28.264784 -0.000010 -4.674416
v 28.110102 -0.000010 -6.157265
v 28.880991 -0.000010 -6.157265
v 28.264784 -0.000010 -4.674416
v 27.355974 -0.000010 -6.000549
v 28.110102 -0.000010 -6.157265
v 27.409567 -0.000010 -4.402641
v 27.355974 -0.000010 -6.000549
v 28.264784 -0.000010 -4.674416
v 27.409567 -0.000010 -4.402641
v 26.651632 -0.000010 -5.693977
v 27.355974 -0.000010 -6.000549
v 27.409567 -0.000010 -4.402641
v 26.027811 -0.000010 -5.250999
v 26.651632 -0.000010 -5.693977
v 26.741293 -0.000010 -3.814377
v 26.027811 -0.000010 -5.250999
v 27.409567 -0.000010 -4.402641
v 26.741293 -0.000010 -3.814377
v 25.511930 -0.000010 -4.690926
v 26.027811 -0.000010 -5.250999
v 26.741293 -0.000010 -3.814377
v 25.126619 -0.000010 -4.038147
v 25.511930 -0.000010 -4.690926
v 26.375532 -0.000010 -3.011482
v 25.126619 -0.000010 -4.038147
v 26.741293 -0.000010 -3.814377
v 26.375532 -0.000010 -3.011482
v 24.888109 -0.000010 -3.321358
v 25.126619 -0.000010 -4.038147
v 26.375532 -0.000010 -3.011482
v 24.807592 -0.000010 -2.571808
v 24.888109 -0.000010 -3.321358
v 26.375532 -0.000010 -2.132385
v 24.807592 -0.000010 -2.571808
v 26.375532 -0.000010 -3.011482
v 26.375532 -0.000010 -2.132385
v 24.888109 -0.000010 -1.822250
v 24.807592 -0.000010 -2.571808
v 26.375532 -0.000010 -2.132385
v 25.126619 -0.000010 -1.105461
v 24.888109 -0.000010 -1.822250
v 26.741293 -0.000010 -1.329239
v 25.126619 -0.000010 -1.105461
v 26.375532 -0.000010 -2.132385
v 26.741293 -0.000010 -1.329239
v 25.511930 -0.000010 -0.452682
v 25.126619 -0.000010 -1.105461
v 26.741293 -0.000010 -1.329239
v 26.027811 -0.000010 0.107384
v 25.511930 -0.000010 -0.452682
v 27.409567 -0.000010 -0.740974
v 26.027811 -0.000010 0.107384
v 26.741293 -0.000010 -1.329239
v 27.409567 -0.000010 -0.740974
v 26.651632 -0.000010 0.550362
v 26.027811 -0.000010 0.107384
v 27.409567 -0.000010 -0.740974
v 27.355974 -0.000010 0.856941
v 26.651632 -0.000010 0.550362
v 28.264784 -0.000010 -0.469452
v 27.355974 -0.000010 0.856941
v 27.409567 -0.000010 -0.740974
v 28.264784 -0.000010 -0.469452
v 28.110102 -0.000010 1.013405
v 27.355974 -0.000010 0.856941
v 28.264784 -0.000010 -0.469452
v 28.880991 -0.000010 1.013405
v 28.110102 -0.000010 1.013405
v 29.159113 -0.000010 -0.561142
v 28.880991 -0.000010 1.013405
v 28.264784 -0.000010 -0.469452
v 29.159113 -0.000010 -0.561142
v 29.635118 -0.000010 0.856941
v 28.880991 -0.000010 1.013405
v 29.159113 -0.000010 -0.561142
v 30.339460 -0.000010 0.550362
v 29.635118 -0.000010 0.856941
v 29.937880 -0.000010 -1.000816
v 30.339460 -0.000010 0.550362
v 29.159113 -0.000010 -0.561142
v 29.937880 -0.000010 -1.000816
v 30.963022 -0.000010 0.107384
v 30.339460 -0.000010 0.550362
v 29.937880 -0.000010 -1.000816
v 31.478899 -0.000010 -0.452682
v 30.963022 -0.000010 0.107384
v 30.466459 -0.000010 -1.712013
v 31.478899 -0.000010 -0.452682
v 29.937880 -0.000010 -1.000816
v 30.466459 -0.000010 -1.712013
v 31.864473 -0.000010 -1.105461
v 31.478899 -0.000010 -0.452682
v 30.466459 -0.000010 -1.712013
v 32.102722 -0.000010 -1.822250
v 31.864473 -0.000010 -1.105461
v 30.653399 -0.000010 -2.571808
v 32.102722 -0.000010 -1.822250
v 30.466459 -0.000010 -1.712013
v 30.653399 -0.000010 -2.571808
v 32.183243 -0.000010 -2.571808
v 32.102722 -0.000010 -1.822250
v 30.653399 -0.000010 -2.571808
v 32.102722 -0.000010 -3.321358
v 32.183243 -0.000010 -2.571808
v 28.490839 -0.000010 -2.571808
v 28.264784 -0.000010 -4.674416
v 29.159113 -0.000010 -4.582466
vt -1.874023 -4.526367
vt -2.146484 -5.147461
vt -1.522461 -4.891602
vt -1.874023 -4.526367
vt -1.522461 -4.891602
vt -1.522461 -4.891602
vt -2.146484 -5.147461
vt -1.874023 -4.526367
vt -1.522461 -4.891602
vt -1.874023 -4.526367
vt -1.874023 -4.526367
vt -2.146484 -5.147461
vt -1.522461 -4.891602
vt -1.874023 -4.526367
vt -1.522461 -4.891602
vt -1.522461 -4.891602
vt -2.146484 -5.147461
vt -1.874023 -4.526367
vt -1.522461 -4.891602
vt -1.874023 -4.526367
vt -1.874023 -4.526367
vt -2.146484 -5.147461
vt -1.522461 -4.891602
vt -1.874023 -4.526367
vt 0.997070 -3.498047
vt 0.997070 -3.998047
vt 1.496094 -3.998047
vt 0.497070 -1.500977
vt 0.497070 -2.000000
vt -0.001953 -1.500977
vt 2.995117 -1.500977
vt 2.995117 -2.000000
vt 3.494141 -2.000000
vt 4.493164 -3.998047
vt 3.994141 -3.498047
vt 3.994141 -3.998047
vt 0.997070 -3.498047
vt 0.997070 -3.998047
vt 1.496094 -3.998047
vt 0.497070 -1.500977
vt 0.497070 -2.000000
vt -0.001953 -1.500977
vt 2.995117 -1.500977
vt 2.995117 -2.000000
vt 3.494141 -2.000000
vt 4.493164 -3.998047
vt 3.994141 -3.498047
vt 3.994141 -3.998047
vt 0.997070 -3.498047
vt 0.997070 -3.998047
vt 1.496094 -3.998047
vt 0.497070 -1.500977
vt 0.497070 -2.000000
vt -0.001953 -1.500977
vt 2.995117 -1.500977
vt 2.995117 -2.000000
vt 3.494141 -2.000000
vt 4.493164 -3.998047
vt 3.994141 -3.498047
vt 3.994141 -3.998047
vt 0.997070 -3.498047
vt 0.997070 -3.998047
vt 1.496094 -3.998047
vt 0.497070 -1.500977
vt 0.497070 -2.000000
vt -0.001953 -1.500977
vt 2.995117 -1.500977
vt 2.995117 -2.000000
vt 3.494141 -2.000000
vt 4.493164 -3.998047
vt 3.994141 -3.498047
vt 3.994141 -3.998047
vt 0.997070 -3.498047
vt 0.997070 -3.998047
vt 1.496094 -3.998047
vt 0.497070 -1.500977
vt 0.497070 -2.000000
vt -0.001953 -1.500977
vt 2.995117 -1.500977
vt 2.995117 -2.000000
vt 3.494141 -2.000000
vt 4.493164 -3.998047
vt 3.994141 -3.498047
vt 3.994141 -3.998047
vt 0.997070 -3.498047
vt 0.997070 -3.998047
vt 1.496094 -3.998047
vt 0.497070 -1.500977
vt 0.497070 -2.000000
vt -0.001953 -1.500977
vt 2.995117 -1.500977
vt 2.995117 -2.000000
vt 3.494141 -2.000000
vt 4.493164 -3.998047
vt 3.994141 -3.498047
vt 3.994141 -3.998047
vt 0.997070 -3.498047
vt 0.997070 -3.998047
vt 1.496094 -3.998047
vt 0.497070 -1.500977
vt 0.497070 -2.000000
vt -0.001953 -1.500977
vt 2.995117 -1.500977
vt 2.995117 -2.000000
vt 3.494141 -2.000000
vt 4.493164 -3.998047
vt 3.994141 -3.498047
vt 3.994141 -3.998047
vt 0.997070 -3.498047
vt 0.997070 -3.998047
vt 1.496094 -3.998047
vt 0.497070 -1.500977
vt 0.497070 -2.000000
vt -0.001953 -1.500977
vt 2.995117 -1.500977
vt 2.995117 -2.000000
vt 3.494141 -2.000000
vt 4.493164 -3.998047
vt 3.994141 -3.498047
vt 3.994141 -3.998047
vt 0.997070 -3.498047
vt 0.997070 -3.998047
vt 1.496094 -3.998047
vt 0.497070 -1.500977
vt 0.497070 -2.000000
vt -0.001953 -1.500977
vt 2.995117 -1.500977
vt 2.995117 -2.000000
vt 3.494141 -2.000000
vt 4.493164 -3.998047
vt 3.994141 -3.498047
vt 3.994141 -3.998047
vt 0.997070 -3.498047
vt 0.997070 -3.998047
vt 1.496094 -3.998047
vt 0.497070 -1.500977
vt 0.497070 -2.000000
vt -0.001953 -1.500977
vt 2.995117 -1.500977
vt 2.995117 -2.000000
vt 3.494141 -2.000000
vt 4.493164 -3.998047
vt 3.994141 -3.498047
vt 3.994141 -3.998047
vt 0.997070 -3.498047
vt 0.997070 -3.998047
vt 1.496094 -3.998047
vt 0.497070 -1.500977
vt 0.497070 -2.000000
vt -0.001953 -1.500977
vt 2.995117 -1.500977
vt 2.995117 -2.000000
vt 3.494141 -2.000000
vt 4.493164 -3.998047
vt 3.994141 -3.498047
vt 3.994141 -3.998047
vt 0.997070 -3.498047
vt 0.997070 -3.998047
vt 1.496094 -3.998047
vt 0.497070 -1.500977
vt 0.497070 -2.000000
vt -0.001953 -1.500977
vt 2.995117 -1.500977
vt 2.995117 -2.000000
vt 3.494141 -2.000000
vt 4.493164 -3.998047
vt 3.994141 -3.498047
vt 3.994141 -3.998047
vt 0.997070 -3.498047
vt 0.997070 -3.998047
vt 1.496094 -3.998047
vt 0.497070 -1.500977
vt 0.497070 -2.000000
vt -0.001953 -1.500977
vt 2.995117 -1.500977
vt 2.995117 -2.000000
vt 3.494141 -2.000000
vt 4.493164 -3.998047
vt 3.994141 -3.498047
vt 3.994141 -3.998047
vt 0.997070 -3.498047
vt 0.997070 -3.998047
vt 1.496094 -3.998047
vt 0.497070 -1.500977
vt 0.497070 -2.000000
vt -0.001953 -1.500977
vt 2.995117 -1.500977
vt 2.995117 -2.000000
vt 3.494141 -2.000000
vt 4.493164 -3.998047
vt 3.994141 -3.498047
vt 3.994141 -3.998047
vt 0.997070 -3.498047
vt 0.997070 -3.998047
vt 1.496094 -3.998047
vt 0.497070 -1.500977
vt 0.497070 -2.000000
vt -0.001953 -1.500977
vt 2.995117 -1.500977
vt 2.995117 -2.000000
vt 3.494141 -2.000000
vt 4.493164 -3.998047
vt 3.994141 -3.498047
vt 3.994141 -3.998047
vt -0.001953 0.497070
vt 0.497070 -0.001953
vt 0.497070 0.497070
vt 3.494141 -0.501953
vt 2.995117 -0.001953
vt 2.995117 -0.501953
vt 2.995117 -0.001953
vt 2.995117 -0.501953
vt 3.494141 -0.501953
vt -0.001953 0.497070
vt 0.497070 0.497070
vt 0.497070 -0.001953
vt -0.001953 0.497070
vt 0.497070 -0.001953
vt 0.497070 0.497070
vt 3.494141 -0.501953
vt 2.995117 -0.001953
vt 2.995117 -0.501953
vt 2.995117 -0.001953
vt 2.995117 -0.501953
vt 3.494141 -0.501953
vt -0.001953 0.497070
vt 0.497070 0.497070
vt 0.497070 -0.001953
vt -0.001953 0.497070
vt 0.497070 -0.001953
vt 0.497070 0.497070
vt 3.494141 -0.501953
vt 2.995117 -0.001953
vt 2.995117 -0.501953
vt 2.995117 -0.001953
vt 2.995117 -0.501953
vt 3.494141 -0.501953
vt -0.001953 0.497070
vt 0.497070 0.497070
vt 0.497070 -0.001953
vt -0.001953 0.497070
vt 0.497070 -0.001953
vt 0.497070 0.497070
vt 3.494141 -0.501953
vt 2.995117 -0.001953
vt 2.995117 -0.501953
vt 2.995117 -0.001953
vt 2.995117 -0.501953
vt 3.494141 -0.501953
vt -0.001953 0.497070
vt 0.497070 0.497070
vt 0.497070 -0.001953
vt -0.001953 0.497070
vt 0.497070 -0.001953
vt 0.497070 0.497070
vt 3.494141 -0.501953
vt 2.995117 -0.001953
vt 2.995117 -0.501953
vt 2.995117 -0.001953
vt 2.995117 -0.501953
vt 3.494141 -0.501953
vt -0.001953 0.497070
vt 0.497070 0.497070
vt 0.497070 -0.001953
vt -0.001953 0.497070
vt 0.497070 -0.001953
vt 0.497070 0.497070
vt 3.494141 -0.501953
vt 2.995117 -0.001953
vt 2.995117 -0.501953
vt 2.995117 -0.001953
vt 2.995117 -0.501953
vt 3.494141 -0.501953
vt -0.001953 0.497070
vt 0.497070 0.497070
vt 0.497070 -0.001953
vt -0.001953 0.497070
vt 0.497070 -0.001953
vt 0.497070 0.497070
vt 3.494141 -0.501953
vt 2.995117 -0.001953
vt 2.995117 -0.501953
vt 2.995117 -0.001953
vt 2.995117 -0.501953
vt 3.494141 -0.501953
vt -0.001953 0.497070
vt 0.497070 0.497070
vt 0.497070 -0.001953
vt -0.001953 0.497070
vt 0.497070 -0.001953
vt 0.497070 0.497070
vt 3.494141 -0.501953
vt 2.995117 -0.001953
vt 2.995117 -0.501953
vt 2.995117 -0.001953
vt 2.995117 -0.501953
vt 3.494141 -0.501953
vt -0.001953 0.497070
vt 0.497070 0.497070
vt 0.497070 -0.001953
vt -0.001953 0.497070
vt 0.497070 -0.001953
vt 0.497070 0.497070
vt 3.494141 -0.501953
vt 2.995117 -0.001953
vt 2.995117 -0.501953
vt 2.995117 -0.001953
vt 2.995117 -0.501953
vt 3.494141 -0.501953
vt -0.001953 0.497070
vt 0.497070 0.497070
vt 0.497070 -0.001953
vt -0.001953 0.497070
vt 0.497070 -0.001953
vt 0.497070 0.497070
vt 3.494141 -0.501953
vt 2.995117 -0.001953
vt 2.995117 -0.501953
vt 2.995117 -0.001953
vt 2.995117 -0.501953
vt 3.494141 -0.501953
vt -0.001953 0.497070
vt 0.497070 0.497070
vt 0.497070 -0.001953
vt -0.001953 0.497070
vt 0.497070 -0.001953
vt 0.497070 0.497070
vt 3.494141 -0.501953
vt 2.995117 -0.001953
vt 2.995117 -0.501953
vt 2.995117 -0.001953
vt 2.995117 -0.501953
vt 3.494141 -0.501953
vt -0.001953 0.497070
vt 0.497070 0.497070
vt 0.497070 -0.001953
vt -0.001953 0.497070
vt 0.497070 -0.001953
vt 0.497070 0.497070
vt 3.494141 -0.501953
vt 2.995117 -0.001953
vt 2.995117 -0.501953
vt 2.995117 -0.001953
vt 2.995117 -0.501953
vt 3.494141 -0.501953
vt -0.001953 0.497070
vt 0.497070 0.497070
vt 0.497070 -0.001953
vt -0.001953 0.497070
vt 0.497070 -0.001953
vt 0.497070 0.497070
vt 3.494141 -0.501953
vt 2.995117 -0.001953
vt 2.995117 -0.501953
vt 2.995117 -0.001953
vt 2.995117 -0.501953
vt 3.494141 -0.501953
vt -0.001953 0.497070
vt 0.497070 0.497070
vt 0.497070 -0.001953
vt -0.001953 0.497070
vt 0.497070 -0.001953
vt 0.497070 0.497070
vt 3.494141 -0.501953
vt 2.995117 -0.001953
vt 2.995117 -0.501953
vt 2.995117 -0.001953
vt 2.995117 -0.501953
vt 3.494141 -0.501953
vt -0.001953 0.497070
vt 0.497070 0.497070
vt 0.497070 -0.001953
vt -0.001953 0.497070
vt 0.497070 -0.001953
vt 0.497070 0.497070
vt 3.494141 -0.501953
vt 2.995117 -0.001953
vt 2.995117 -0.501953
vt 2.995117 -0.001953
vt 2.995117 -0.501953
vt 3.494141 -0.501953
vt -0.001953 0.497070
vt 0.497070 0.497070
vt 0.497070 -0.001953
vt 2.995117 -0.001953
vt 2.995117 -0.501953
vt 3.494141 -0.501953
vt -0.001953 0.497070
vt 0.497070 0.497070
vt 0.497070 -0.001953
vt -0.001953 0.497070
vt 0.497070 -0.001953
vt 0.497070 0.497070
vt 4.493164 -0.501953
vt 3.994141 -0.001953
vt 4.493164 -0.001953
vt 2.995117 -0.001953
vt 2.995117 -0.501953
vt 3.494141 -0.501953
vt -0.001953 0.497070
vt 0.497070 0.497070
vt 0.497070 -0.001953
vt -0.001953 0.497070
vt 0.497070 -0.001953
vt 0.497070 0.497070
vt 4.493164 -0.501953
vt 3.994141 -0.001953
vt 4.493164 -0.001953
vt 2.995117 -0.001953
vt 2.995117 -0.501953
vt 3.494141 -0.501953
vt -0.001953 0.497070
vt 0.497070 0.497070
vt 0.497070 -0.001953
vt -0.001953 0.497070
vt 0.497070 -0.001953
vt 0.497070 0.497070
vt 4.493164 -0.501953
vt 3.994141 -0.001953
vt 4.493164 -0.001953
vt 2.995117 -0.001953
vt 2.995117 -0.501953
vt 3.494141 -0.501953
vt -0.001953 0.497070
vt 0.497070 0.497070
vt 0.497070 -0.001953
vt -0.001953 0.497070
vt 0.497070 -0.001953
vt 0.497070 0.497070
vt 4.493164 -0.501953
vt 3.994141 -0.001953
vt 4.493164 -0.001953
vt 2.995117 -0.001953
vt 2.995117 -0.501953
vt 3.494141 -0.501953
vt -0.001953 0.497070
vt 0.497070 0.497070
vt 0.497070 -0.001953
vt -0.001953 0.497070
vt 0.497070 -0.001953
vt 0.497070 0.497070
vt 4.493164 -0.501953
vt 3.994141 -0.001953
vt 4.493164 -0.001953
vt 2.995117 -0.001953
vt 2.995117 -0.501953
vt 3.494141 -0.501953
vt -0.001953 0.497070
vt 0.497070 0.497070
vt 0.497070 -0.001953
vt -0.001953 0.497070
vt 0.497070 -0.001953
vt 0.497070 0.497070
vt 4.493164 -0.501953
vt 3.994141 -0.001953
vt 4.493164 -0.001953
vt 2.995117 -0.001953
vt 2.995117 -0.501953
vt 3.494141 -0.501953
vt -0.001953 0.497070
vt 0.497070 0.497070
vt 0.497070 -0.001953
vt -0.001953 0.497070
vt 0.497070 -0.001953
vt 0.497070 0.497070
vt 4.493164 -0.501953
vt 3.994141 -0.001953
vt 4.493164 -0.001953
vt 2.995117 -0.001953
vt 2.995117 -0.501953
vt 3.494141 -0.501953
vt -0.001953 0.497070
vt 0.497070 0.497070
vt 0.497070 -0.001953
vt -0.001953 0.497070
vt 0.497070 -0.001953
vt 0.497070 0.497070
vt 4.493164 -0.501953
vt 3.994141 -0.001953
vt 4.493164 -0.001953
vt 2.995117 -0.001953
vt 2.995117 -0.501953
vt 3.494141 -0.501953
vt -0.001953 0.497070
vt 0.497070 0.497070
vt 0.497070 -0.001953
vt -0.001953 0.497070
vt 0.497070 -0.001953
vt 0.497070 0.497070
vt 4.493164 -0.501953
vt 3.994141 -0.001953
vt 4.493164 -0.001953
vt 2.995117 -0.001953
vt 2.995117 -0.501953
vt 3.494141 -0.501953
vt -0.001953 0.497070
vt 0.497070 0.497070
vt 0.497070 -0.001953
vt -0.001953 0.497070
vt 0.497070 -0.001953
vt 0.497070 0.497070
vt 4.493164 -0.501953
vt 3.994141 -0.001953
vt 4.493164 -0.001953
vt 2.995117 -0.001953
vt 2.995117 -0.501953
vt 3.494141 -0.501953
vt -0.001953 0.497070
vt 0.497070 0.497070
vt 0.497070 -0.001953
vt -0.001953 0.497070
vt 0.497070 -0.001953
vt 0.497070 0.497070
vt 4.493164 -0.501953
vt 3.994141 -0.001953
vt 4.493164 -0.001953
vt 2.995117 -0.001953
vt 2.995117 -0.501953
vt 3.494141 -0.501953
vt -0.001953 0.497070
vt 0.497070 0.497070
vt 0.497070 -0.001953
vt -0.001953 0.497070
vt 0.497070 -0.001953
vt 0.497070 0.497070
vt 4.493164 -0.501953
vt 3.994141 -0.001953
vt 4.493164 -0.001953
vt 2.995117 -0.001953
vt 2.995117 -0.501953
vt 3.494141 -0.501953
vt -0.001953 0.497070
vt 0.497070 0.497070
vt 0.497070 -0.001953
vt -0.001953 0.497070
vt 0.497070 -0.001953
vt 0.497070 0.497070
vt 4.493164 -0.501953
vt 3.994141 -0.001953
vt 4.493164 -0.001953
vt 2.995117 -0.001953
vt 2.995117 -0.501953
vt 3.494141 -0.501953
vt -0.001953 0.497070
vt 0.497070 0.497070
vt 0.497070 -0.001953
vt -0.001953 0.497070
vt 0.497070 -0.001953
vt 0.497070 0.497070
vt 4.493164 -0.501953
vt 3.994141 -0.001953
vt 4.493164 -0.001953
vt 2.995117 -0.001953
vt 2.995117 -0.501953
vt 3.494141 -0.501953
vt -0.001953 0.497070
vt 0.497070 0.497070
vt 0.497070 -0.001953
vt -0.001953 0.497070
vt 0.497070 -0.001953
vt 0.497070 0.497070
vt 4.493164 -0.501953
vt 3.994141 -0.001953
vt 4.493164 -0.001953
vt -0.001953 0.497070
vt 0.497070 -0.001953
vt 0.497070 0.497070
vt 4.493164 -0.501953
vt 3.994141 -0.001953
vt 4.493164 -0.001953
vt 2.995117 -0.001953
vt 2.995117 -0.501953
vt 3.494141 -0.501953
vt -0.001953 0.497070
vt 0.497070 0.497070
vt 0.497070 -0.001953
vt -0.001953 0.497070
vt 0.497070 -0.001953
vt 0.497070 0.497070
vt 4.493164 -0.501953
vt 3.994141 -0.001953
vt 4.493164 -0.001953
vt 2.995117 -0.001953
vt 2.995117 -0.501953
vt 3.494141 -0.501953
vt -0.001953 0.497070
vt 0.497070 0.497070
vt 0.497070 -0.001953
vt -0.001953 0.497070
vt 0.497070 -0.001953
vt 0.497070 0.497070
vt 4.493164 -0.501953
vt 3.994141 -0.001953
vt 4.493164 -0.001953
vt 2.995117 -0.001953
vt 2.995117 -0.501953
vt 3.494141 -0.501953
vt -0.001953 0.497070
vt 0.497070 0.497070
vt 0.497070 -0.001953
vt -0.001953 0.497070
vt 0.497070 -0.001953
vt 0.497070 0.497070
vt 4.493164 -0.501953
vt 3.994141 -0.001953
vt 4.493164 -0.001953
vt 2.995117 -0.001953
vt 2.995117 -0.501953
vt 3.494141 -0.501953
vt -0.001953 0.497070
vt 0.497070 0.497070
vt 0.497070 -0.001953
vt -0.001953 0.497070
vt 0.497070 -0.001953
vt 0.497070 0.497070
vt 4.493164 -0.501953
vt 3.994141 -0.001953
vt 4.493164 -0.001953
vt 2.995117 -0.001953
vt 2.995117 -0.501953
vt 3.494141 -0.501953
vt -0.001953 0.497070
vt 0.497070 0.497070
vt 0.497070 -0.001953
vt -0.001953 0.497070
vt 0.497070 -0.001953
vt 0.497070 0.497070
vt 4.493164 -0.501953
vt 3.994141 -0.001953
vt 4.493164 -0.001953
vt 2.995117 -0.001953
vt 2.995117 -0.501953
vt 3.494141 -0.501953
vt -0.001953 0.497070
vt 0.497070 0.497070
vt 0.497070 -0.001953
vt -0.001953 0.497070
vt 0.497070 -0.001953
vt 0.497070 0.497070
vt 4.493164 -0.501953
vt 3.994141 -0.001953
vt 4.493164 -0.001953
vt 2.995117 -0.001953
vt 2.995117 -0.501953
vt 3.494141 -0.501953
vt -0.001953 0.497070
vt 0.497070 0.497070
vt 0.497070 -0.001953
vt -0.001953 0.497070
vt 0.497070 -0.001953
vt 0.497070 0.497070
vt 4.493164 -0.501953
vt 3.994141 -0.001953
vt 4.493164 -0.001953
vt 2.995117 -0.001953
vt 2.995117 -0.501953
vt 3.494141 -0.501953
vt -0.001953 0.497070
vt 0.497070 0.497070
vt 0.497070 -0.001953
vt -0.001953 0.497070
vt 0.497070 -0.001953
vt 0.497070 0.497070
vt 4.493164 -0.501953
vt 3.994141 -0.001953
vt 4.493164 -0.001953
vt 2.995117 -0.001953
vt 2.995117 -0.501953
vt 3.494141 -0.501953
vt -0.001953 0.497070
vt 0.497070 0.497070
vt 0.497070 -0.001953
vt -0.001953 0.497070
vt 0.497070 -0.001953
vt 0.497070 0.497070
vt 4.493164 -0.501953
vt 3.994141 -0.001953
vt 4.493164 -0.001953
vt 2.995117 -0.001953
vt 2.995117 -0.501953
vt 3.494141 -0.501953
vt -0.001953 0.497070
vt 0.497070 0.497070
vt 0.497070 -0.001953
vt -0.001953 0.497070
vt 0.497070 -0.001953
vt 0.497070 0.497070
vt 4.493164 -0.501953
vt 3.994141 -0.001953
vt 4.493164 -0.001953
vt 2.995117 -0.001953
vt 2.995117 -0.501953
vt 3.494141 -0.501953
vt -0.001953 0.497070
vt 0.497070 0.497070
vt 0.497070 -0.001953
vt -0.001953 0.497070
vt 0.497070 -0.001953
vt 0.497070 0.497070
vt 4.493164 -0.501953
vt 3.994141 -0.001953
vt 4.493164 -0.001953
vt 2.995117 -0.001953
vt 2.995117 -0.501953
vt 3.494141 -0.501953
vt -0.001953 0.497070
vt 0.497070 0.497070
vt 0.497070 -0.001953
vt -0.001953 0.497070
vt 0.497070 -0.001953
vt 0.497070 0.497070
vt 4.493164 -0.501953
vt 3.994141 -0.001953
vt 4.493164 -0.001953
vt 2.995117 -0.001953
vt 2.995117 -0.501953
vt 3.494141 -0.501953
vt -0.001953 0.497070
vt 0.497070 0.497070
vt 0.497070 -0.001953
vt -0.001953 0.497070
vt 0.497070 -0.001953
vt 0.497070 0.497070
vt 4.493164 -0.501953
vt 3.994141 -0.001953
vt 4.493164 -0.001953
vt 2.995117 -0.001953
vt 2.995117 -0.501953
vt 3.494141 -0.501953
vt -0.001953 0.497070
vt 0.497070 0.497070
vt 0.497070 -0.001953
vt -0.001953 0.497070
vt 0.497070 -0.001953
vt 0.497070 0.497070
vt 4.493164 -0.501953
vt 3.994141 -0.001953
vt 4.493164 -0.001953
vt 2.995117 -0.001953
vt 2.995117 -0.501953
vt 3.494141 -0.501953
vt -0.001953 0.497070
vt 0.497070 0.497070
vt 0.497070 -0.001953
vt -2.999023 -0.001953
vt -2.499023 -0.001953
vt -2.499023 -0.501953
vt -1.500977 -0.001953
vt -2.000000 -0.501953
vt -1.377930 -0.644531
vt 1.996094 3.494141
vt 2.673828 3.370117
vt 2.495117 3.994141
vt -0.501953 -1.000977
vt -0.501953 -0.001953
vt -0.001953 -0.501953
vt -2.999023 -0.001953
vt -2.499023 -0.001953
vt -2.499023 -0.501953
vt -1.500977 -0.001953
vt -2.000000 -0.501953
vt -1.377930 -0.644531
vt 1.996094 3.494141
vt 2.673828 3.370117
vt 2.495117 3.994141
vt -0.501953 -1.000977
vt -0.501953 -0.001953
vt -0.001953 -0.501953
vt -2.999023 -0.001953
vt -2.499023 -0.001953
vt -2.499023 -0.501953
vt -1.500977 -0.001953
vt -2.000000 -0.501953
vt -1.377930 -0.644531
vt -0.501953 -0.001953
vt -0.001953 -0.501953
vt -0.501953 -1.000977
vt 2.495117 3.994141
vt 1.996094 3.494141
vt 2.673828 3.370117
vt -2.999023 -0.001953
vt -2.499023 -0.001953
vt -2.499023 -0.501953
vt -1.500977 -0.001953
vt -2.000000 -0.501953
vt -1.377930 -0.644531
vt 1.996094 3.494141
vt 2.673828 3.370117
vt 2.495117 3.994141
vt -0.501953 -1.000977
vt -0.501953 -0.001953
vt -0.001953 -0.501953
vt -2.999023 -0.001953
vt -2.499023 -0.001953
vt -2.499023 -0.501953
vt -1.500977 -0.001953
vt -2.000000 -0.501953
vt -1.377930 -0.644531
vt 1.996094 3.494141
vt 2.673828 3.370117
vt 2.495117 3.994141
vt -0.501953 -1.000977
vt -0.501953 -0.001953
vt -0.001953 -0.501953
vt -2.999023 -0.001953
vt -2.499023 -0.001953
vt -2.499023 -0.501953
vt -1.500977 -0.001953
vt -2.000000 -0.501953
vt -1.377930 -0.644531
vt 1.996094 3.494141
vt 2.673828 3.370117
vt 2.495117 3.994141
vt -0.501953 -1.000977
vt -0.501953 -0.001953
vt -0.001953 -0.501953
vt -2.999023 -0.001953
vt -2.499023 -0.001953
vt -2.499023 -0.501953
vt -1.500977 -0.001953
vt -2.000000 -0.501953
vt -1.377930 -0.644531
vt 1.996094 3.494141
vt 2.673828 3.370117
vt 2.495117 3.994141
vt -0.501953 -1.000977
vt -0.501953 -0.001953
vt -0.001953 -0.501953
vt -2.999023 -0.001953
vt -2.499023 -0.001953
vt -2.499023 -0.501953
vt -1.500977 -0.001953
vt -2.000000 -0.501953
vt -1.377930 -0.644531
vt 1.996094 3.494141
vt 2.673828 3.370117
vt 2.495117 3.994141
vt -0.501953 -1.000977
vt -0.501953 -0.001953
vt -0.001953 -0.501953
vt -2.999023 -0.001953
vt -2.499023 -0.001953
vt -2.499023 -0.501953
vt -1.500977 -0.001953
vt -2.000000 -0.501953
vt -1.377930 -0.644531
vt 1.996094 3.494141
vt 2.673828 3.370117
vt 2.495117 3.994141
vt -0.501953 -1.000977
vt -0.501953 -0.001953
vt -0.001953 -0.501953
vt -2.999023 -0.001953
vt -2.499023 -0.001953
vt -2.499023 -0.501953
vt -1.500977 -0.001953
vt -2.000000 -0.501953
vt -1.377930 -0.644531
vt 1.996094 3.494141
vt 2.673828 3.370117
vt 2.495117 3.994141
vt -0.501953 -1.000977
vt -0.501953 -0.001953
vt -0.001953 -0.501953
vt -2.999023 -0.001953
vt -2.499023 -0.001953
vt -2.499023 -0.501953
vt -1.500977 -0.001953
vt -2.000000 -0.501953
vt -1.377930 -0.644531
vt 1.996094 3.494141
vt 2.673828 3.370117
vt 2.495117 3.994141
vt -0.501953 -1.000977
vt -0.501953 -0.001953
vt -0.001953 -0.501953
vt -2.999023 -0.001953
vt -2.499023 -0.001953
vt -2.499023 -0.501953
vt -1.500977 -0.001953
vt -2.000000 -0.501953
vt -1.377930 -0.644531
vt 1.996094 3.494141
vt 2.673828 3.370117
vt 2.495117 3.994141
vt -0.501953 -1.000977
vt -0.501953 -0.001953
vt -0.001953 -0.501953
vt -2.999023 -0.001953
vt -2.499023 -0.001953
vt -2.499023 -0.501953
vt -1.500977 -0.001953
vt -2.000000 -0.501953
vt -1.377930 -0.644531
vt 1.996094 3.494141
vt 2.673828 3.370117
vt 2.495117 3.994141
vt -0.501953 -1.000977
vt -0.501953 -0.001953
vt -0.001953 -0.501953
vt -2.999023 -0.001953
vt -2.499023 -0.001953
vt -2.499023 -0.501953
vt -1.500977 -0.001953
vt -2.000000 -0.501953
vt -1.377930 -0.644531
vt 1.996094 3.494141
vt 2.673828 3.370117
vt 2.495117 3.994141
vt -0.501953 -1.000977
vt -0.501953 -0.001953
vt -0.001953 -0.501953
vt -2.999023 -0.001953
vt -2.499023 -0.001953
vt -2.499023 -0.501953
vt -1.500977 -0.001953
vt -2.000000 -0.501953
vt -1.377930 -0.644531
vt 1.996094 3.494141
vt 2.673828 3.370117
vt 2.495117 3.994141
vt -0.501953 -1.000977
vt -0.501953 -0.001953
vt -0.001953 -0.501953
vt -2.499023 -3.498047
vt -2.499023 -3.998047
vt -2.999023 -3.498047
vt -1.500977 4.993164
vt -2.000000 4.493164
vt -1.355469 4.386719
vt -0.501953 3.994141
vt -0.324219 3.387695
vt -1.000977 3.494141
vt -2.499023 -3.998047
vt -2.499023 -3.498047
vt -2.999023 -3.498047
vt -1.500977 4.993164
vt -2.000000 4.493164
vt -1.355469 4.386719
vt -0.501953 3.994141
vt -0.324219 3.387695
vt -1.000977 3.494141
vt -2.499023 -3.498047
vt -2.499023 -3.998047
vt -2.999023 -3.498047
vt -1.500977 4.993164
vt -2.000000 4.493164
vt -1.355469 4.386719
vt -0.501953 3.994141
vt -0.324219 3.387695
vt -1.000977 3.494141
vt -2.499023 -3.998047
vt -2.499023 -3.498047
vt -2.999023 -3.498047
vt -1.500977 4.993164
vt -2.000000 4.493164
vt -1.355469 4.386719
vt -0.501953 3.994141
vt -0.324219 3.387695
vt -1.000977 3.494141
vt -2.499023 -3.998047
vt -2.499023 -3.498047
vt -2.999023 -3.498047
vt -1.500977 4.993164
vt -2.000000 4.493164
vt -1.355469 4.386719
vt -0.501953 3.994141
vt -0.324219 3.387695
vt -1.000977 3.494141
vt -2.499023 -3.498047
vt -2.499023 -3.998047
vt -2.999023 -3.498047
vt -1.500977 4.993164
vt -2.000000 4.493164
vt -1.355469 4.386719
vt -0.501953 3.994141
vt -0.324219 3.387695
vt -1.000977 3.494141
vt -2.499023 -3.998047
vt -2.499023 -3.498047
vt -2.999023 -3.498047
vt -1.500977 4.993164
vt -2.000000 4.493164
vt -1.355469 4.386719
vt -0.501953 3.994141
vt -0.324219 3.387695
vt -1.000977 3.494141
vt -2.499023 -3.498047
vt -2.499023 -3.998047
vt -2.999023 -3.498047
vt -1.500977 4.993164
vt -2.000000 4.493164
vt -1.355469 4.386719
vt -0.501953 3.994141
vt -0.324219 3.387695
vt -1.000977 3.494141
vt -2.499023 -3.998047
vt -2.499023 -3.498047
vt -2.999023 -3.498047
vt -1.500977 4.993164
vt -2.000000 4.493164
vt -1.355469 4.386719
vt -0.501953 3.994141
vt -0.324219 3.387695
vt -1.000977 3.494141
vt -2.499023 -3.498047
vt -2.499023 -3.998047
vt -2.999023 -3.498047
vt -1.500977 4.993164
vt -2.000000 4.493164
vt -1.355469 4.386719
vt -0.501953 3.994141
vt -0.324219 3.387695
vt -1.000977 3.494141
vt -2.499023 -3.998047
vt -2.499023 -3.498047
vt -2.999023 -3.498047
vt -1.500977 4.993164
vt -2.000000 4.493164
vt -1.355469 4.386719
vt -0.501953 3.994141
vt -0.324219 3.387695
vt -1.000977 3.494141
vt -2.499023 -3.498047
vt -2.499023 -3.998047
vt -2.999023 -3.498047
vt -1.500977 4.993164
vt -2.000000 4.493164
vt -1.355469 4.386719
vt -0.501953 3.994141
vt -0.324219 3.387695
vt -1.000977 3.494141
vt -2.499023 -3.998047
vt -2.499023 -3.498047
vt -2.999023 -3.498047
vt -1.500977 4.993164
vt -2.000000 4.493164
vt -1.355469 4.386719
vt -0.501953 3.994141
vt -0.324219 3.387695
vt -1.000977 3.494141
vt -2.499023 -3.498047
vt -2.499023 -3.998047
vt -2.999023 -3.498047
vt -1.500977 4.993164
vt -2.000000 4.493164
vt -1.355469 4.386719
vt -0.501953 3.994141
vt -0.324219 3.387695
vt -1.000977 3.494141
vt -2.499023 -3.998047
vt -2.499023 -3.498047
vt -2.999023 -3.498047
vt -1.500977 4.993164
vt -2.000000 4.493164
vt -1.355469 4.386719
vt -0.501953 3.994141
vt -0.324219 3.387695
vt -1.000977 3.494141
vt -2.146484 -5.147461
vt -1.522461 -4.891602
vt -1.874023 -4.526367
vn 0.0000 1.0000 0.0000
usemtl Tex_0006_1.dds
s off
f 1/1/1 3/2/1 2/3/1
f 2/3/1 3/2/1 4/4/1
f 3/2/1 5/5/1 4/4/1
f 6/6/1 8/7/1 7/8/1
f 7/8/1 8/7/1 9/9/1
f 8/7/1 10/10/1 9/9/1
f 11/11/1 13/12/1 12/13/1
f 12/13/1 13/12/1 14/14/1
f 13/12/1 15/15/1 14/14/1
f 16/16/1 18/17/1 17/18/1
f 17/18/1 18/17/1 19/19/1
f 18/17/1 20/20/1 19/19/1
f 21/21/1 23/22/1 22/23/1
f 22/23/1 23/22/1 24/24/1
f 25/25/1 27/26/1 26/27/1
f 28/28/1 30/29/1 29/30/1
f 31/31/1 33/32/1 32/33/1
f 34/34/1 36/35/1 35/36/1
f 37/37/1 39/38/1 38/39/1
f 40/40/1 42/41/1 41/42/1
f 43/43/1 45/44/1 44/45/1
f 46/46/1 48/47/1 47/48/1
f 49/49/1 51/50/1 50/51/1
f 52/52/1 54/53/1 53/54/1
f 55/55/1 57/56/1 56/57/1
f 58/58/1 60/59/1 59/60/1
f 61/61/1 63/62/1 62/63/1
f 64/64/1 66/65/1 65/66/1
f 67/67/1 69/68/1 68/69/1
f 70/70/1 72/71/1 71/72/1
f 73/73/1 75/74/1 74/75/1
f 76/76/1 78/77/1 77/78/1
f 79/79/1 81/80/1 80/81/1
f 82/82/1 84/83/1 83/84/1
f 85/85/1 87/86/1 86/87/1
f 88/88/1 90/89/1 89/90/1
f 91/91/1 93/92/1 92/93/1
f 94/94/1 96/95/1 95/96/1
f 97/97/1 99/98/1 98/99/1
f 100/100/1 102/101/1 101/102/1
f 103/103/1 105/104/1 104/105/1
f 106/106/1 108/107/1 107/108/1
f 109/109/1 111/110/1 110/111/1
f 112/112/1 114/113/1 113/114/1
f 115/115/1 117/116/1 116/117/1
f 118/118/1 120/119/1 119/120/1
f 121/121/1 123/122/1 122/123/1
f 124/124/1 126/125/1 125/126/1
f 127/127/1 129/128/1 128/129/1
f 130/130/1 132/131/1 131/132/1
f 133/133/1 135/134/1 134/135/1
f 136/136/1 138/137/1 137/138/1
f 139/139/1 141/140/1 140/141/1
f 142/142/1 144/143/1 143/144/1
f 145/145/1 147/146/1 146/147/1
f 148/148/1 150/149/1 149/150/1
f 151/151/1 153/152/1 152/153/1
f 154/154/1 156/155/1 155/156/1
f 157/157/1 159/158/1 158/159/1
f 160/160/1 162/161/1 161/162/1
f 163/163/1 165/164/1 164/165/1
f 166/166/1 168/167/1 167/168/1
f 169/169/1 171/170/1 170/171/1
f 172/172/1 174/173/1 173/174/1
f 175/175/1 177/176/1 176/177/1
f 178/178/1 180/179/1 179/180/1
f 181/181/1 183/182/1 182/183/1
f 184/184/1 186/185/1 185/186/1
f 187/187/1 189/188/1 188/189/1
f 190/190/1 192/191/1 191/192/1
f 193/193/1 195/194/1 194/195/1
f 196/196/1 198/197/1 197/198/1
f 199/199/1 201/200/1 200/201/1
f 202/202/1 204/203/1 203/204/1
f 205/205/1 207/206/1 206/207/1
f 208/208/1 210/209/1 209/210/1
f 211/211/1 213/212/1 212/213/1
f 214/214/1 216/215/1 215/216/1
f 217/217/1 219/218/1 218/219/1
f 220/220/1 222/221/1 221/222/1
f 223/223/1 225/224/1 224/225/1
f 226/226/1 228/227/1 227/228/1
f 229/229/1 231/230/1 230/231/1
f 232/232/1 234/233/1 233/234/1
f 235/235/1 237/236/1 236/237/1
f 238/238/1 240/239/1 239/240/1
f 241/241/1 243/242/1 242/243/1
f 244/244/1 246/245/1 245/246/1
f 247/247/1 249/248/1 248/249/1
f 250/250/1 252/251/1 251/252/1
f 253/253/1 255/254/1 254/255/1
f 256/256/1 258/257/1 257/258/1
f 259/259/1 261/260/1 260/261/1
f 262/262/1 264/263/1 263/264/1
f 265/265/1 267/266/1 266/267/1
f 268/268/1 270/269/1 269/270/1
f 271/271/1 273/272/1 272/273/1
f 274/274/1 276/275/1 275/276/1
f 277/277/1 279/278/1 278/279/1
f 280/280/1 282/281/1 281/282/1
f 283/283/1 285/284/1 284/285/1
f 286/286/1 288/287/1 287/288/1
f 289/289/1 291/290/1 290/291/1
f 292/292/1 294/293/1 293/294/1
f 295/295/1 297/296/1 296/297/1
f 298/298/1 300/299/1 299/300/1
f 301/301/1 303/302/1 302/303/1
f 304/304/1 306/305/1 305/306/1
f 307/307/1 309/308/1 308/309/1
f 310/310/1 312/311/1 311/312/1
f 313/313/1 315/314/1 314/315/1
f 316/316/1 318/317/1 317/318/1
f 319/319/1 321/320/1 320/321/1
f 322/322/1 324/323/1 323/324/1
f 325/325/1 327/326/1 326/327/1
f 328/328/1 330/329/1 329/330/1
f 331/331/1 333/332/1 332/333/1
f 334/334/1 336/335/1 335/336/1
f 337/337/1 339/338/1 338/339/1
f 340/340/1 342/341/1 341/342/1
f 343/343/1 345/344/1 344/345/1
f 346/346/1 348/347/1 347/348/1
f 349/349/1 351/350/1 350/351/1
f 352/352/1 354/353/1 353/354/1
f 355/355/1 357/356/1 356/357/1
f 358/358/1 360/359/1 359/360/1
f 361/361/1 363/362/1 362/363/1
f 364/364/1 366/365/1 365/366/1
f 367/367/1 369/368/1 368/369/1
f 370/370/1 372/371/1 371/372/1
f 373/373/1 375/374/1 374/375/1
f 376/376/1 378/377/1 377/378/1
f 379/379/1 381/380/1 380/381/1
f 382/382/1 384/383/1 383/384/1
f 385/385/1 387/386/1 386/387/1
f 388/388/1 390/389/1 389/390/1
f 391/391/1 393/392/1 392/393/1
f 394/394/1 396/395/1 395/396/1
f 397/397/1 399/398/1 398/399/1
f 400/400/1 402/401/1 401/402/1
f 403/403/1 405/404/1 404/405/1
f 406/406/1 408/407/1 407/408/1
f 409/409/1 411/410/1 410/411/1
f 412/412/1 414/413/1 413/414/1
f 415/415/1 417/416/1 416/417/1
f 418/418/1 420/419/1 419/420/1
f 421/421/1 423/422/1 422/423/1
f 424/424/1 426/425/1 425/426/1
f 427/427/1 429/428/1 428/429/1
f 430/430/1 432/431/1 431/432/1
f 433/433/1 435/434/1 434/435/1
f 436/436/1 438/437/1 437/438/1
f 439/439/1 441/440/1 440/441/1
f 442/442/1 444/443/1 443/444/1
f 445/445/1 447/446/1 446/447/1
f 448/448/1 450/449/1 449/450/1
f 451/451/1 453/452/1 452/453/1
f 454/454/1 456/455/1 455/456/1
f 457/457/1 459/458/1 458/459/1
f 460/460/1 462/461/1 461/462/1
f 463/463/1 465/464/1 464/465/1
f 466/466/1 468/467/1 467/468/1
f 469/469/1 471/470/1 470/471/1
f 472/472/1 474/473/1 473/474/1
f 475/475/1 477/476/1 476/477/1
f 478/478/1 480/479/1 479/480/1
f 481/481/1 483/482/1 482/483/1
f 484/484/1 486/485/1 485/486/1
f 487/487/1 489/488/1 488/489/1
f 490/490/1 492/491/1 491/492/1
f 493/493/1 495/494/1 494/495/1
f 496/496/1 498/497/1 497/498/1
f 499/499/1 501/500/1 500/501/1
f 502/502/1 504/503/1 503/504/1
f 505/505/1 507/506/1 506/507/1
f 508/508/1 510/509/1 509/510/1
f 511/511/1 513/512/1 512/513/1
f 514/514/1 516/515/1 515/516/1
f 517/517/1 519/518/1 518/519/1
f 520/520/1 522/521/1 521/522/1
f 523/523/1 525/524/1 524/525/1
f 526/526/1 528/527/1 527/528/1
f 529/529/1 531/530/1 530/531/1
f 532/532/1 534/533/1 533/534/1
f 535/535/1 537/536/1 536/537/1
f 538/538/1 540/539/1 539/540/1
f 541/541/1 543/542/1 542/543/1
f 544/544/1 546/545/1 545/546/1
f 547/547/1 549/548/1 548/549/1
f 550/550/1 552/551/1 551/552/1
f 553/553/1 555/554/1 554/555/1
f 556/556/1 558/557/1 557/558/1
f 559/559/1 561/560/1 560/561/1
f 562/562/1 564/563/1 563/564/1
f 565/565/1 567/566/1 566/567/1
f 568/568/1 570/569/1 569/570/1
f 571/571/1 573/572/1 572/573/1
f 574/574/1 576/575/1 575/576/1
f 577/577/1 579/578/1 578/579/1
f 580/580/1 582/581/1 581/582/1
f 583/583/1 585/584/1 584/585/1
f 586/586/1 588/587/1 587/588/1
f 589/589/1 591/590/1 590/591/1
f 592/592/1 594/593/1 593/594/1
f 595/595/1 597/596/1 596/597/1
f 598/598/1 600/599/1 599/600/1
f 601/601/1 603/602/1 602/603/1
f 604/604/1 606/605/1 605/606/1
f 607/607/1 609/608/1 608/609/1
f 610/610/1 612/611/1 611/612/1
f 613/613/1 615/614/1 614/615/1
f 616/616/1 618/617/1 617/618/1
f 619/619/1 621/620/1 620/621/1
f 622/622/1 624/623/1 623/624/1
f 625/625/1 627/626/1 626/627/1
f 628/628/1 630/629/1 629/630/1
f 631/631/1 633/632/1 632/633/1
f 634/634/1 636/635/1 635/636/1
f 637/637/1 639/638/1 638/639/1
f 640/640/1 642/641/1 641/642/1
f 643/643/1 645/644/1 644/645/1
f 646/646/1 648/647/1 647/648/1
f 649/649/1 651/650/1 650/651/1
f 652/652/1 654/653/1 653/654/1
f 655/655/1 657/656/1 656/657/1
f 658/658/1 660/659/1 659/660/1
f 661/661/1 663/662/1 662/663/1
f 664/664/1 666/665/1 665/666/1
f 667/667/1 669/668/1 668/669/1
f 670/670/1 672/671/1 671/672/1
f 673/673/1 675/674/1 674/675/1
f 676/676/1 678/677/1 677/678/1
f 679/679/1 681/680/1 680/681/1
f 682/682/1 684/683/1 683/684/1
f 685/685/1 687/686/1 686/687/1
f 688/688/1 690/689/1 689/690/1
f 691/691/1 693/692/1 692/693/1
f 694/694/1 696/695/1 695/696/1
f 697/697/1 699/698/1 698/699/1
f 700/700/1 702/701/1 701/702/1
f 703/703/1 705/704/1 704/705/1
f 706/706/1 708/707/1 707/708/1
f 709/709/1 711/710/1 710/711/1
f 712/712/1 714/713/1 713/714/1
f 715/715/1 717/716/1 716/717/1
f 718/718/1 720/719/1 719/720/1
f 721/721/1 723/722/1 722/723/1
f 724/724/1 726/725/1 725/726/1
f 727/727/1 729/728/1 728/729/1
f 730/730/1 732/731/1 731/732/1
f 733/733/1 735/734/1 734/735/1
f 736/736/1 738/737/1 737/738/1
f 739/739/1 741/740/1 740/741/1
f 742/742/1 744/743/1 743/744/1
f 745/745/1 747/746/1 746/747/1
f 748/748/1 750/749/1 749/750/1
f 751/751/1 753/752/1 752/753/1
f 754/754/1 756/755/1 755/756/1
f 757/757/1 759/758/1 758/759/1
f 760/760/1 762/761/1 761/762/1
f 763/763/1 765/764/1 764/765/1
f 766/766/1 768/767/1 767/768/1
f 769/769/1 771/770/1 770/771/1
f 772/772/1 774/773/1 773/774/1
f 775/775/1 777/776/1 776/777/1
f 778/778/1 780/779/1 779/780/1
f 781/781/1 783/782/1 782/783/1
f 784/784/1 786/785/1 785/786/1
f 787/787/1 789/788/1 788/789/1
f 790/790/1 792/791/1 791/792/1
f 793/793/1 795/794/1 794/795/1
f 796/796/1 798/797/1 797/798/1
f 799/799/1 801/800/1 800/801/1
f 802/802/1 804/803/1 803/804/1
f 805/805/1 807/806/1 806/807/1
f 808/808/1 810/809/1 809/810/1
f 811/811/1 813/812/1 812/813/1
f 814/814/1 816/815/1 815/816/1
f 817/817/1 819/818/1 818/819/1
f 820/820/1 822/821/1 821/822/1
f 823/823/1 825/824/1 824/825/1
f 826/826/1 828/827/1 827/828/1
f 829/829/1 831/830/1 830/831/1
f 832/832/1 834/833/1 833/834/1
f 835/835/1 837/836/1 836/837/1
f 838/838/1 840/839/1 839/840/1
f 841/841/1 843/842/1 842/843/1
f 844/844/1 846/845/1 845/846/1
f 847/847/1 849/848/1 848/849/1
f 850/850/1 852/851/1 851/852/1
f 853/853/1 855/854/1 854/855/1
f 856/856/1 858/857/1 857/858/1
f 859/859/1 861/860/1 860/861/1
f 862/862/1 864/863/1 863/864/1
f 865/865/1 867/866/1 866/867/1
f 868/868/1 870/869/1 869/870/1
f 871/871/1 873/872/1 872/873/1
f 874/874/1 876/875/1 875/876/1
f 877/877/1 879/878/1 878/879/1
f 880/880/1 882/881/1 881/882/1
f 883/883/1 885/884/1 884/885/1
f 886/886/1 888/887/1 887/888/1
f 889/889/1 891/890/1 890/891/1
f 892/892/1 894/893/1 893/894/1
f 895/895/1 897/896/1 896/897/1
f 898/898/1 900/899/1 899/900/1
f 901/901/1 903/902/1 902/903/1
f 904/904/1 906/905/1 905/906/1
f 907/907/1 909/908/1 908/909/1
f 910/910/1 912/911/1 911/912/1
f 913/913/1 915/914/1 914/915/1
f 916/916/1 918/917/1 917/918/1
f 919/919/1 921/920/1 920/921/1
f 922/922/1 924/923/1 923/924/1
f 925/925/1 927/926/1 926/927/1
f 928/928/1 930/929/1 929/930/1
f 931/931/1 933/932/1 932/933/1
f 934/934/1 936/935/1 935/936/1
f 937/937/1 939/938/1 938/939/1
f 940/940/1 942/941/1 941/942/1
f 943/943/1 945/944/1 944/945/1
f 946/946/1 948/947/1 947/948/1
f 949/949/1 951/950/1 950/951/1
f 952/952/1 954/953/1 953/954/1
f 955/955/1 957/956/1 956/957/1
f 958/958/1 960/959/1 959/960/1
f 961/961/1 963/962/1 962/963/1
f 964/964/1 966/965/1 965/966/1
f 967/967/1 969/968/1 968/969/1
f 970/970/1 972/971/1 971/972/1
f 973/973/1 975/974/1 974/975/1
f 976/976/1 978/977/1 977/978/1
f 979/979/1 981/980/1 980/981/1
f 982/982/1 984/983/1 983/984/1
f 985/985/1 987/986/1 986/987/1
f 988/988/1 990/989/1 989/990/1
f 991/991/1 993/992/1 992/993/1
f 994/994/1 996/995/1 995/996/1
f 997/997/1 999/998/1 998/999/1
f 1000/1000/1 1002/1001/1 1001/1002/1
f 1003/1003/1 1005/1004/1 1004/1005/1
f 1006/1006/1 1008/1007/1 1007/1008/1
f 1009/1009/1 1011/1010/1 1010/1011/1
f 1012/1012/1 1014/1013/1 1013/1014/1
f 1015/1015/1 1017/1016/1 1016/1017/1
f 1018/1018/1 1020/1019/1 1019/1020/1
f 1021/1021/1 1023/1022/1 1022/1023/1
f 1024/1024/1 1026/1025/1 1025/1026/1
f 1027/1027/1 1029/1028/1 1028/1029/1
f 1030/1030/1 1032/1031/1 1031/1032/1
f 1033/1033/1 1035/1034/1 1034/1035/1
f 1036/1036/1 1038/1037/1 1037/1038/1
f 1039/1039/1 1041/1040/1 1040/1041/1
f 1042/1042/1 1044/1043/1 1043/1044/1
f 1045/1045/1 1047/1046/1 1046/1047/1
f 1048/1048/1 1050/1049/1 1049/1050/1
f 1051/1051/1 1053/1052/1 1052/1053/1
f 1054/1054/1 1056/1055/1 1055/1056/1
f 1057/1057/1 1059/1058/1 1058/1059/1
f 1060/1060/1 1062/1061/1 1061/1062/1
