# Blender v3.6.3 OBJ File: 'untitled.blend'
# www.blender.org
mtllib Mesh_0242.mtl
o Mesh_0242_Mesh.171
v 69.136566 10.082371 -27.971806
v 69.136566 9.692557 -27.971806
v 68.125267 9.692557 -27.971806
v 69.136566 9.129846 -27.971806
v 67.276390 9.129846 -27.971806
v 69.136566 8.355145 -27.971806
v 66.634277 8.355145 -27.971806
v 69.136566 7.369422 -27.971806
v 66.270546 7.369422 -27.971806
v 66.270546 4.603744 -27.971806
v 51.097862 9.692557 -27.971806
v 51.946800 9.129846 -27.971806
v 48.226288 9.129846 -27.971806
v 52.588821 8.355145 -27.971806
v 47.584282 8.355145 -27.971806
v 52.952644 7.369422 -27.971806
v 47.220459 7.369422 -27.971806
v 52.952644 4.603744 -27.971806
v 47.220459 4.603744 -27.971806
v 57.447861 9.692557 -27.971806
v 58.296806 9.129846 -27.971806
v 54.576294 9.129846 -27.971806
v 58.938812 8.355145 -27.971806
v 53.934280 8.355145 -27.971806
v 59.302643 7.369422 -27.971806
v 53.570457 7.369422 -27.971806
v 59.302643 4.603744 -27.971806
v 53.570457 4.603744 -27.971806
v 43.734276 9.692557 -27.971806
v 44.745575 9.692557 -27.971806
v 43.734283 9.129846 -27.971806
v 45.594437 9.129846 -27.971806
v 43.734283 8.355145 -27.971806
v 46.236557 8.355145 -27.971806
v 43.734276 7.369422 -27.971806
v 46.600288 7.369422 -27.971806
v 46.600288 4.603744 -27.971806
v 63.797859 9.692557 -27.971806
v 64.646805 9.129846 -27.971806
v 60.926292 9.129846 -27.971806
v 65.288811 8.355145 -27.971806
v 60.284279 8.355145 -27.971806
v 65.652641 7.369422 -27.971806
v 59.920456 7.369422 -27.971806
v 65.652641 4.603744 -27.971806
v 59.920456 4.603744 -27.971806
v 22.522856 9.677495 -27.971806
v 23.371801 9.114783 -27.971806
v 19.651289 9.114784 -27.971806
v 24.013811 8.340083 -27.971806
v 19.009283 8.340083 -27.971806
v 24.377634 7.354360 -27.971806
v 18.645460 7.354360 -27.971806
v 24.377638 2.063744 -27.971806
v 18.645456 2.063744 -27.971806
v 41.572861 9.677495 -27.971806
v 42.421806 9.114783 -27.971806
v 38.701294 9.114784 -27.971806
v 43.063820 8.340083 -27.971806
v 38.059280 8.340083 -27.971806
v 43.427643 7.354360 -27.971806
v 37.695457 7.354360 -27.971806
v 43.427643 2.063744 -27.971806
v 37.695457 2.063744 -27.971806
v 14.902857 9.677495 -27.971806
v 15.751799 9.114783 -27.971806
v 12.031290 9.114783 -27.971806
v 16.393812 8.340083 -27.971806
v 11.389284 8.340083 -27.971806
v 16.757639 7.354360 -27.971806
v 11.025454 7.354360 -27.971806
v 16.757639 2.063744 -27.971806
v 11.025454 2.063744 -27.971806
v -1.607143 9.677495 -27.971806
v -0.758198 9.114783 -27.971806
v -4.478710 9.114783 -27.971806
v -0.116188 8.340083 -27.971806
v -5.120716 8.340083 -27.971806
v 0.247641 7.354360 -27.971806
v -5.484541 7.354360 -27.971806
v 0.247641 2.063744 -27.971806
v -5.484541 2.063744 -27.971806
v 35.589188 15.006440 -28.988567
v 35.757088 14.260188 -28.988567
v 34.547623 13.054905 -28.988571
v 35.862495 13.435272 -28.988564
v 35.066757 12.202486 -28.988567
v 35.894249 12.699993 -28.988571
v 35.093880 11.835292 -28.988567
v 35.175278 10.733714 -28.988571
v 36.508911 14.368392 -28.484627
v 35.757080 14.260188 -28.484627
v 36.328835 15.167933 -28.484375
v 35.589195 15.006440 -28.484627
v 36.071793 15.951393 -28.484627
v 35.349159 15.737656 -28.484371
v 35.750229 16.716646 -28.484627
v 35.048935 16.451904 -28.484627
v 35.894249 12.699993 -28.988571
v 35.894249 2.063744 -28.988567
v 35.175278 10.733714 -28.988571
v 35.613075 2.063744 -28.988567
v 35.175285 2.063744 -28.988575
v 35.356026 1.693310 -28.988571
v 35.175285 0.987774 -28.988575
v 35.484550 1.128871 -28.988567
v 2.699434 5.977680 -27.971813
v 2.393068 5.101482 -27.971806
v 0.799093 7.354360 -27.971806
v 2.161024 3.942963 -27.971813
v 1.626646 2.063745 -27.971806
v 2.161028 2.063745 -27.971806
v 1.755077 1.862657 -27.971798
v 1.883509 1.693318 -27.971806
v 0.799093 7.354360 -27.971806
v 1.094316 8.340083 -27.971806
v 3.310705 6.835515 -27.971806
v 1.607740 9.114783 -27.971806
v 4.284365 7.675569 -27.971806
v 2.286665 9.677495 -27.971806
v 4.583090 9.114783 -27.971806
v 3.893301 9.677495 -27.971806
v 26.313868 14.260188 -28.988567
v 27.523214 13.054904 -28.988571
v 26.208460 13.435272 -28.988571
v 27.004091 12.202485 -28.988567
v 26.176710 12.699992 -28.988571
v 26.976954 11.835292 -28.988567
v 26.895555 10.733714 -28.988571
v 26.313868 14.260188 -28.988567
v 26.481768 15.006440 -28.988567
v 27.523214 13.054904 -28.988571
v 26.721792 15.737656 -28.988571
v 28.431711 13.801928 -28.988571
v 27.022024 16.451904 -28.988564
v 27.390577 17.141464 -28.988567
v 26.313871 14.260188 -28.484627
v 25.742128 15.167935 -28.484375
v 26.481768 15.006440 -28.484627
v 25.999166 15.951397 -28.484627
v 26.721792 15.737656 -28.484375
v 26.320726 16.716646 -28.484627
v 27.022024 16.451900 -28.484627
v 28.303705 18.437014 -28.988567
v 28.872923 19.035643 -28.988567
v 29.733561 14.450399 -28.988571
v 29.438829 19.592434 -28.988571
v 31.035410 14.799484 -28.988556
v 30.079168 20.110342 -28.988564
v 31.035479 20.676077 -28.988571
v 33.227753 19.035643 -28.988564
v 33.767242 18.437016 -28.988567
v 32.337257 14.450399 -28.988571
v 34.255440 17.806082 -28.988571
v 33.639122 13.801928 -28.988571
v 34.680382 17.141462 -28.988567
v 35.048927 16.451904 -28.988567
v 26.176710 2.063744 -28.988567
v 26.895555 10.733714 -28.988571
v 26.457891 2.063744 -28.988567
v 26.895555 2.063744 -28.988567
v 26.714930 1.693310 -28.988571
v 26.895555 0.987774 -28.988571
v 26.586412 1.128871 -28.988567
v 8.877764 5.101482 -27.971806
v 10.471735 7.354360 -27.971806
v 9.109804 3.942963 -27.971813
v 9.644182 2.063745 -27.971806
v 9.109800 2.063745 -27.971806
v 9.515749 1.862657 -27.971798
v 9.387320 1.693318 -27.971806
v 10.176512 8.340083 -27.971806
v 7.960123 6.835515 -27.971806
v 9.663088 9.114783 -27.971806
v 6.986467 7.675569 -27.971806
v 8.984163 9.677495 -27.971806
v 6.687738 9.114783 -27.971806
v 7.377523 9.677495 -27.971806
v 33.227753 19.035643 -28.988564
v 32.337257 14.450399 -28.988571
v 32.632126 19.592440 -28.988571
v 31.035410 14.799484 -28.988556
v 31.991793 20.110346 -28.988567
v 31.035479 20.676077 -28.988571
v 62.785408 22.859991 -27.971806
v 69.135422 22.859991 -27.971806
v 64.138008 22.190983 -27.971806
v 67.787766 22.194332 -27.971806
v 65.960419 20.807365 -27.971806
v 56.435410 22.859991 -27.971806
v 62.785408 22.859991 -27.971806
v 57.788010 22.190983 -27.971806
v 61.437767 22.194332 -27.971806
v 59.610420 20.807365 -27.971806
v 50.085411 22.859991 -27.971806
v 56.435410 22.859991 -27.971806
v 51.438011 22.190983 -27.971806
v 55.087769 22.194332 -27.971806
v 53.260422 20.807365 -27.971806
v 43.735413 22.859991 -27.971806
v 50.085411 22.859991 -27.971806
v 45.088013 22.190983 -27.971806
v 48.737770 22.194332 -27.971806
v 46.910423 20.807365 -27.971806
v 37.385445 22.859991 -27.971806
v 43.735413 22.859991 -27.971806
v 38.738007 22.190983 -27.971806
v 42.387764 22.194332 -27.971806
v 40.560417 20.807365 -27.971806
v 28.303705 18.437014 -28.988567
v 29.733561 14.450399 -28.988571
v 27.815512 17.806080 -28.988571
v 28.431711 13.801928 -28.988571
v 27.390577 17.141464 -28.988567
v 24.685480 12.699993 -27.971806
v 25.415213 12.699993 -27.971806
v 25.177221 10.159992 -27.972054
v 25.415213 2.063744 -27.971806
v 24.980879 2.063744 -27.971806
v 27.859972 20.807365 -27.971806
v 26.032694 22.194334 -27.971806
v 29.682421 22.190981 -27.971806
v 24.685446 22.859991 -27.971806
v 31.035471 22.859991 -27.971806
v 35.589188 15.006440 -28.988567
v 34.547623 13.054905 -28.988571
v 35.349159 15.737656 -28.988571
v 33.639122 13.801928 -28.988571
v 35.048927 16.451904 -28.988567
v 32.236641 21.629284 -27.971806
v 31.744894 21.138773 -27.971798
v 31.035479 22.232965 -27.971806
v 31.035479 21.478151 -27.971806
v 30.326044 21.138784 -27.971806
v 36.655739 12.699993 -27.971806
v 37.385475 12.699993 -27.971806
v 36.893730 10.159993 -27.972054
v 37.090080 10.159993 -27.971806
v 37.090080 2.063744 -27.971806
v 34.210991 20.807365 -27.971806
v 32.388535 22.190981 -27.971806
v 36.038261 22.194336 -27.971806
v 31.035471 22.859991 -27.971806
v 37.385445 22.859991 -27.971806
v 18.335413 22.859991 -27.971806
v 24.685446 22.859991 -27.971806
v 19.688013 22.190983 -27.971806
v 23.337767 22.194332 -27.971806
v 21.510412 20.807365 -27.971806
v 5.635412 22.859991 -27.971806
v 11.985411 22.859991 -27.971806
v 6.988016 22.190983 -27.971806
v 10.637770 22.194332 -27.971806
v 8.810411 20.807365 -27.971806
v 11.985411 22.859991 -27.971806
v 18.335413 22.859991 -27.971806
v 13.338015 22.190983 -27.971806
v 16.987768 22.194332 -27.971806
v 15.160414 20.807365 -27.971806
v 8.877764 5.101482 -27.971806
v 8.571394 5.977680 -27.971813
v 10.471735 7.354360 -27.971806
v 7.960123 6.835515 -27.971806
v 10.176512 8.340083 -27.971806
v 9.387320 1.693318 -27.971806
v 9.515745 1.552206 -27.971806
v 9.261324 1.693318 -27.971813
v 9.515741 1.128876 -27.971802
v 9.261324 0.987767 -27.971806
v 2.009506 0.987767 -27.971806
v 1.755083 1.128876 -27.971802
v 2.009506 1.693318 -27.971813
v 1.755081 1.552206 -27.971806
v 1.883509 1.693318 -27.971806
v -0.714584 22.859991 -27.971806
v 5.635412 22.859991 -27.971806
v 0.638014 22.190983 -27.971806
v 4.287767 22.194332 -27.971806
v 2.460417 20.807365 -27.971806
v -7.064587 22.859991 -27.971806
v -0.714584 22.859991 -27.971806
v -5.711987 22.190983 -27.971806
v -2.062233 22.194332 -27.971806
v -3.889585 20.807365 -27.971806
v 48.226288 9.129846 -27.971806
v 49.075256 9.692557 -27.971806
v 51.097862 9.692557 -27.971806
v 50.086555 10.082371 -27.971806
v 54.576294 9.129846 -27.971806
v 55.425255 9.692557 -27.971806
v 57.447861 9.692557 -27.971806
v 56.436554 10.082371 -27.971806
v 60.926292 9.129846 -27.971806
v 61.775253 9.692557 -27.971806
v 63.797859 9.692557 -27.971806
v 62.786552 10.082371 -27.971806
v 24.685480 13.613888 -27.971806
v 24.810198 14.476573 -27.971806
v 25.448999 13.559606 -27.971806
v 25.562033 14.368394 -27.971806
v 25.448999 13.559606 -28.484627
v 25.562033 14.368392 -28.484627
v 26.208460 13.435272 -28.484627
v 26.313871 14.260188 -28.484627
v 25.448999 13.559606 -27.971806
v 25.415213 12.699993 -27.971806
v 24.685480 13.613888 -27.971806
v 24.685480 12.699993 -27.971806
v 26.208460 13.435272 -28.484627
v 26.176710 12.699993 -28.484627
v 25.448999 13.559606 -28.484627
v 25.415213 12.699992 -28.484627
v 25.002218 15.329453 -27.971806
v 25.276537 16.165138 -27.971806
v 25.742128 15.167933 -27.971806
v 25.999166 15.951397 -27.971806
v 24.810198 14.476573 -27.971806
v 25.002218 15.329453 -27.971806
v 25.562033 14.368394 -27.971806
v 25.742128 15.167933 -27.971806
v 25.619692 16.981392 -27.971806
v 26.040819 17.769476 -27.971806
v 26.320726 16.716646 -27.971806
v 26.715696 17.455456 -27.971806
v 26.320726 16.716646 -28.484627
v 26.715696 17.455454 -28.484627
v 27.022024 16.451900 -28.484627
v 27.390577 17.141460 -28.484627
v 25.276537 16.165138 -27.971806
v 25.619692 16.981392 -27.971806
v 25.999166 15.951397 -27.971806
v 26.320726 16.716646 -27.971806
v 26.526472 18.529036 -27.971806
v 27.084505 19.250116 -27.971806
v 27.171122 18.167543 -27.971806
v 27.694105 18.843565 -27.971806
v 27.171122 18.167543 -28.484627
v 27.694105 18.843567 -28.484375
v 27.815512 17.806080 -28.484627
v 28.303705 18.437014 -28.484627
v 26.040819 17.769476 -27.971806
v 26.526472 18.529036 -27.971806
v 26.715696 17.455456 -27.971806
v 27.171122 18.167543 -27.971806
v 26.715696 17.455454 -28.484627
v 27.171122 18.167543 -28.484627
v 27.390577 17.141460 -28.484627
v 27.815512 17.806080 -28.484627
v 27.700708 19.934240 -27.971806
v 28.381685 20.570562 -27.971806
v 28.271955 19.484941 -27.971806
v 28.910261 20.081488 -27.971806
v 28.271955 19.484941 -28.484371
v 28.910261 20.081482 -28.484371
v 28.843210 19.035641 -28.484371
v 29.438829 19.592434 -28.484627
v 27.084505 19.250116 -27.971806
v 27.700708 19.934240 -27.971806
v 27.694105 18.843565 -27.971806
v 28.271955 19.484941 -27.971806
v 27.694105 18.843567 -28.484375
v 28.271955 19.484941 -28.484371
v 28.303705 18.437014 -28.484627
v 28.843210 19.035641 -28.484371
v 29.113462 21.162458 -27.971806
v 29.834311 21.629284 -27.971806
v 29.596312 20.636400 -27.971806
v 30.326044 21.138784 -27.971806
v 31.035479 20.676075 -28.484623
v 30.079176 20.110342 -28.484627
v 30.326044 21.138811 -28.484627
v 29.596312 20.636400 -28.484627
v 28.381685 20.570562 -27.971806
v 29.113462 21.162458 -27.971806
v 28.910261 20.081488 -27.971806
v 29.596312 20.636400 -27.971806
v 28.910261 20.081482 -28.484371
v 29.596312 20.636400 -28.484627
v 29.438829 19.592434 -28.484627
v 30.079176 20.110342 -28.484627
v 30.326044 21.138811 -28.484627
v 31.035479 21.478153 -28.484631
v 31.035479 20.676075 -28.484623
v 31.744898 21.138807 -28.484638
v 25.415213 12.699992 -28.484627
v 26.176710 12.699993 -28.484627
v 25.415220 2.063744 -28.484631
v 26.176710 2.063744 -28.484623
v 24.980879 2.063744 -27.971806
v 24.980879 10.159992 -27.971806
v 25.177221 10.159992 -27.972054
v 24.685480 12.699993 -27.971806
v 37.385475 13.613886 -27.971806
v 36.621964 13.559606 -27.971806
v 37.260765 14.476571 -27.971806
v 36.508911 14.368392 -27.971806
v 35.757080 14.260188 -28.484627
v 36.508911 14.368392 -28.484627
v 35.862495 13.435272 -28.484627
v 36.621964 13.559606 -28.484627
v 37.385475 12.699993 -27.971806
v 36.655739 12.699993 -27.971806
v 37.385475 13.613886 -27.971806
v 36.621964 13.559606 -27.971806
v 36.655739 12.699993 -28.484627
v 35.894249 12.699992 -28.484627
v 36.621964 13.559606 -28.484627
v 35.862495 13.435272 -28.484627
v 37.068741 15.329453 -27.971806
v 36.328835 15.167935 -27.971806
v 36.794418 16.165138 -27.971806
v 36.071793 15.951396 -27.971806
v 37.260765 14.476571 -27.971806
v 36.508911 14.368392 -27.971806
v 37.068741 15.329453 -27.971806
v 36.328835 15.167935 -27.971806
v 36.451271 16.981392 -27.971806
v 35.750229 16.716646 -27.971806
v 36.030144 17.769474 -27.971806
v 35.355247 17.455454 -27.971806
v 35.750229 16.716646 -28.484627
v 35.048935 16.451904 -28.484627
v 35.355247 17.455454 -28.484627
v 34.680382 17.141462 -28.484627
v 36.794418 16.165138 -27.971806
v 36.071793 15.951396 -27.971806
v 36.451271 16.981392 -27.971806
v 35.750229 16.716646 -27.971806
v 35.544487 18.529037 -27.971806
v 34.899834 18.167542 -27.971806
v 34.986443 19.250116 -27.971806
v 34.376846 18.843563 -27.971802
v 34.899834 18.167543 -28.484627
v 34.255440 17.806078 -28.484627
v 34.376846 18.843565 -28.484375
v 33.767242 18.437014 -28.484627
v 36.030144 17.769474 -27.971806
v 35.355247 17.455454 -27.971806
v 35.544487 18.529037 -27.971806
v 34.899834 18.167542 -27.971806
v 35.355247 17.455454 -28.484627
v 34.680382 17.141462 -28.484627
v 34.899834 18.167543 -28.484627
v 34.255440 17.806078 -28.484627
v 34.370247 19.934240 -27.971806
v 33.798996 19.484941 -27.971806
v 33.689270 20.570560 -27.971806
v 33.160690 20.081482 -27.971806
v 33.798996 19.484941 -28.484375
v 33.227745 19.035643 -28.484371
v 33.160690 20.081480 -28.484375
v 32.632126 19.592438 -28.484627
v 34.986443 19.250116 -27.971806
v 34.376846 18.843563 -27.971802
v 34.370247 19.934240 -27.971806
v 33.798996 19.484941 -27.971806
v 34.376846 18.843565 -28.484375
v 33.767242 18.437014 -28.484627
v 33.798996 19.484941 -28.484375
v 33.227745 19.035643 -28.484371
v 32.957489 21.162458 -27.971806
v 32.474625 20.636387 -27.971798
v 32.236641 21.629284 -27.971806
v 31.744894 21.138773 -27.971798
v 31.035479 20.676075 -28.484623
v 31.744898 21.138807 -28.484638
v 31.991793 20.110344 -28.484627
v 32.474625 20.636385 -28.484619
v 33.689270 20.570560 -27.971806
v 33.160690 20.081482 -27.971806
v 32.957489 21.162458 -27.971806
v 32.474625 20.636387 -27.971798
v 33.160690 20.081480 -28.484375
v 32.632126 19.592438 -28.484627
v 32.474625 20.636385 -28.484619
v 31.991793 20.110344 -28.484627
v 36.655739 12.699993 -28.484627
v 36.655739 2.063744 -28.484631
v 35.894249 12.699992 -28.484627
v 35.894249 2.063744 -28.484627
v 36.655739 12.699993 -27.971806
v 36.893730 10.159993 -27.972054
v 36.655739 2.063744 -27.971806
v 37.090080 2.063744 -27.971806
v 19.651289 9.114784 -27.971806
v 20.500250 9.677495 -27.971806
v 22.522856 9.677495 -27.971806
v 21.511557 10.067334 -27.971806
v 38.701294 9.114784 -27.971806
v 39.550255 9.677495 -27.971806
v 41.572861 9.677495 -27.971806
v 40.561554 10.067334 -27.971806
v 6.687738 9.114783 -27.971806
v 6.986467 7.675569 -27.971806
v 6.174326 8.340083 -27.971806
v 6.136633 8.188903 -27.971813
v 12.031290 9.114783 -27.971806
v 12.880251 9.677495 -27.971806
v 14.902857 9.677495 -27.971806
v 13.891558 10.067334 -27.971806
v 4.583090 9.114783 -27.971806
v 5.096498 8.340083 -27.971806
v 4.284365 7.675569 -27.971806
v 5.134195 8.188903 -27.971813
v -4.478710 9.114783 -27.971806
v -3.629747 9.677495 -27.971806
v -1.607143 9.677495 -27.971806
v -2.618443 10.067334 -27.971806
v 43.734283 10.082371 -27.971806
v 44.745575 9.692557 -27.971806
v 43.734276 9.692557 -27.971806
v 43.734283 4.603744 -27.971806
v 43.734276 7.369422 -27.971806
v 46.600288 4.603744 -27.971806
v 69.136566 7.369422 -27.971806
v 69.136566 4.603744 -27.971806
v 66.270546 4.603744 -27.971806
v 25.742128 15.167935 -28.484375
v 26.313871 14.260188 -28.484627
v 25.562033 14.368392 -28.484627
v 29.834311 21.629284 -27.971806
v 31.035479 22.232965 -27.971806
v 30.326044 21.138784 -27.971806
v 26.176710 2.063744 -28.988567
v 26.176710 12.699992 -28.988571
v 26.895555 10.733714 -28.988571
v 26.586412 1.128871 -28.988567
v 26.586412 1.552213 -28.988564
v 26.714930 1.693310 -28.988571
v 35.484550 1.552213 -28.988564
v 35.484550 1.128871 -28.988567
v 35.356026 1.693310 -28.988571
v 9.644182 2.063745 -27.971806
v 10.471735 7.354360 -27.971806
v 10.471735 2.063745 -27.971806
v 8.175413 10.067334 -27.971806
v 8.984163 9.677495 -27.971806
v 7.377523 9.677495 -27.971806
v 9.109800 2.063745 -27.971806
v 9.387320 1.693318 -27.971806
v 9.261324 1.693318 -27.971813
v 0.799093 7.354360 -27.971806
v 1.626646 2.063745 -27.971806
v 0.799093 2.063745 -27.971806
v 0.799093 7.354360 -27.971806
v 3.310705 6.835515 -27.971806
v 2.699434 5.977680 -27.971813
v 2.286665 9.677495 -27.971806
v 3.095415 10.067334 -27.971806
v 3.893301 9.677495 -27.971806
v 1.883509 1.693318 -27.971806
v 2.161028 2.063745 -27.971806
v 2.009506 1.693318 -27.971813
vt 1.501953 0.772461
vt 1.692383 0.702148
vt 1.507812 0.702148
vt 1.514648 0.599609
vt 1.865234 0.599609
vt 1.522461 0.459961
vt 2.003906 0.459961
vt 1.514648 0.281250
vt 2.057617 0.281250
vt 2.046875 -0.222656
vt 1.324219 0.702148
vt 1.865234 0.599609
vt 1.163086 0.599609
vt 1.041992 0.459961
vt 2.003906 0.459961
vt 0.971680 0.281250
vt 2.057617 0.281250
vt 0.971680 -0.222656
vt 2.046875 -0.222656
vt 1.324219 0.702148
vt 1.865234 0.599609
vt 1.163086 0.599609
vt 1.041992 0.459961
vt 2.003906 0.459961
vt 0.971680 0.281250
vt 2.057617 0.281250
vt 0.971680 -0.222656
vt 2.046875 -0.222656
vt 1.507812 0.702148
vt 1.514648 0.599609
vt 1.692383 0.702148
vt 1.865234 0.599609
vt 1.522461 0.459961
vt 2.003906 0.459961
vt 1.514648 0.281250
vt 2.057617 0.281250
vt 2.046875 -0.222656
vt 1.324219 0.702148
vt 1.865234 0.599609
vt 1.163086 0.599609
vt 1.041992 0.459961
vt 2.003906 0.459961
vt 0.971680 0.281250
vt 2.057617 0.281250
vt 0.971680 -0.222656
vt 2.046875 -0.222656
vt 1.324219 1.153320
vt 1.865234 1.051758
vt 1.163086 1.051758
vt 1.041992 0.912109
vt 2.003906 0.912109
vt 0.971680 0.734375
vt 2.057617 0.734375
vt 0.971680 -0.222656
vt 2.046875 -0.222656
vt 1.324219 1.153320
vt 1.865234 1.051758
vt 1.163086 1.051758
vt 1.041992 0.912109
vt 2.003906 0.912109
vt 0.971680 0.734375
vt 2.057617 0.734375
vt 0.971680 -0.222656
vt 2.046875 -0.222656
vt 1.324219 1.153320
vt 1.865234 1.051758
vt 1.163086 1.051758
vt 1.041992 0.912109
vt 2.003906 0.912109
vt 0.971680 0.734375
vt 2.057617 0.734375
vt 0.971680 -0.222656
vt 2.046875 -0.222656
vt 1.324219 1.153320
vt 1.865234 1.051758
vt 1.163086 1.051758
vt 1.041992 0.912109
vt 2.003906 0.912109
vt 0.971680 0.734375
vt 2.057617 0.734375
vt 0.971680 -0.222656
vt 2.046875 -0.222656
vt -2.056641 1.740234
vt -2.271484 1.362305
vt -2.021484 1.595703
vt -2.000000 1.435547
vt -2.164062 1.197266
vt -1.993164 1.292969
vt -2.158203 1.125977
vt -2.158203 0.910156
vt 4.065430 0.995117
vt 3.725586 1.000000
vt 4.069336 0.769531
vt 3.729492 0.767578
vt 3.292969 0.997070
vt 3.291016 0.771484
vt 3.071289 0.998047
vt 3.070312 0.773438
vt -1.993164 1.292969
vt -2.158203 0.910156
vt -1.993164 -0.768555
vt -2.051758 -0.768555
vt -2.158203 -0.768555
vt -2.104492 -0.839844
vt -2.158203 -0.976562
vt -2.078125 -0.949219
vt -0.213867 0.462891
vt -0.632812 0.708008
vt -0.287109 0.304688
vt -0.341797 0.095703
vt -0.469727 -0.243164
vt -0.341797 -0.243164
vt -0.438477 -0.279297
vt -0.408203 -0.309570
vt -0.632812 0.708008
vt -0.068359 0.617188
vt -0.561523 0.888672
vt -0.457031 1.027344
vt 0.164062 0.768555
vt -0.312500 1.128906
vt 0.215820 1.027344
vt 0.071289 1.128906
vt -3.970703 1.595703
vt -3.993164 1.435547
vt -3.721680 1.362305
vt -3.828125 1.197266
vt -3.999023 1.292969
vt -3.833984 1.125977
vt -3.833984 0.914062
vt -3.970703 1.595703
vt -3.721680 1.362305
vt -3.936523 1.740234
vt -3.886719 1.882812
vt -3.534180 1.506836
vt -3.825195 2.020508
vt -3.749023 2.154297
vt 4.069336 0.769531
vt 3.729492 0.767578
vt 3.725586 1.000000
vt 3.292969 0.997070
vt 3.291016 0.771484
vt 3.071289 0.998047
vt 3.070312 0.773438
vt -3.560547 2.406250
vt -3.264648 1.632812
vt -3.442383 2.522461
vt -3.326172 2.629883
vt -2.996094 1.700195
vt -3.193359 2.730469
vt -2.996094 2.839844
vt -2.543945 2.522461
vt -2.727539 1.632812
vt -2.432617 2.406250
vt -2.332031 2.283203
vt -2.458984 1.506836
vt -2.244141 2.154297
vt -2.167969 2.020508
vt -3.999023 -0.768555
vt -3.941406 -0.768555
vt -3.833984 0.914062
vt -3.833984 -0.768555
vt -3.887695 -0.839844
vt -3.833984 -0.976562
vt -3.915039 -0.949219
vt -0.287109 0.304688
vt -0.341797 0.095703
vt -0.632812 0.708008
vt -0.469727 -0.243164
vt -0.341797 -0.243164
vt -0.438477 -0.279297
vt -0.408203 -0.309570
vt -0.561523 0.888672
vt -0.457031 1.027344
vt -0.068359 0.617188
vt 0.164062 0.768555
vt -0.312500 1.128906
vt 0.215820 1.027344
vt 0.071289 1.128906
vt -2.543945 2.522461
vt -2.666992 2.629883
vt -2.727539 1.632812
vt -2.996094 1.700195
vt -2.798828 2.730469
vt -2.996094 2.839844
vt 0.502930 1.000000
vt 0.716797 0.865234
vt 1.500977 1.000000
vt 1.291992 0.867188
vt 1.003906 0.583008
vt 0.502930 1.000000
vt 0.716797 0.865234
vt 1.500977 1.000000
vt 1.291992 0.867188
vt 1.003906 0.583008
vt 0.502930 1.000000
vt 0.716797 0.865234
vt 1.500977 1.000000
vt 1.291992 0.867188
vt 1.003906 0.583008
vt 0.502930 1.000000
vt 0.716797 0.865234
vt 1.500977 1.000000
vt 1.291992 0.867188
vt 1.003906 0.583008
vt 0.502930 1.000000
vt 0.716797 0.865234
vt 1.500977 1.000000
vt 1.291992 0.867188
vt 1.003906 0.583008
vt -3.560547 2.406250
vt -3.661133 2.283203
vt -3.264648 1.632812
vt -3.534180 1.506836
vt -3.749023 2.154297
vt 3.963867 -1.997070
vt 3.933594 -2.604492
vt 3.836914 -1.997070
vt 3.836914 -4.494141
vt 3.963867 -4.494141
vt 1.003906 0.583008
vt 0.716797 0.865234
vt 1.291992 0.867188
vt 1.500977 1.000000
vt 0.502930 1.000000
vt -2.056641 1.740234
vt -2.105469 1.882812
vt -2.271484 1.362305
vt -2.458984 1.506836
vt -2.167969 2.020508
vt 3.070312 1.000000
vt 2.743164 1.000000
vt 3.070312 0.770508
vt 2.741211 0.772461
vt 3.070312 0.770508
vt 3.836914 -1.997070
vt 3.933594 -2.604492
vt 3.963867 -1.997070
vt 3.963867 -2.606445
vt 3.963867 -4.494141
vt 1.003906 0.583008
vt 1.291992 0.867188
vt 0.716797 0.865234
vt 0.502930 1.000000
vt 1.500977 1.000000
vt 0.502930 1.000000
vt 0.716797 0.865234
vt 1.500977 1.000000
vt 1.291992 0.867188
vt 1.003906 0.583008
vt 0.502930 1.000000
vt 0.716797 0.865234
vt 1.500977 1.000000
vt 1.291992 0.867188
vt 1.003906 0.583008
vt 0.502930 1.000000
vt 0.716797 0.865234
vt 1.500977 1.000000
vt 1.291992 0.867188
vt 1.003906 0.583008
vt -0.287109 0.304688
vt -0.632812 0.708008
vt -0.213867 0.462891
vt -0.068359 0.617188
vt -0.561523 0.888672
vt -0.408203 -0.309570
vt -0.377930 -0.309570
vt -0.438477 -0.335938
vt -0.438477 -0.412109
vt -0.377930 -0.437500
vt -0.377930 -0.437500
vt -0.377930 -0.309570
vt -0.438477 -0.412109
vt -0.438477 -0.335938
vt -0.408203 -0.309570
vt 0.502930 1.000000
vt 0.716797 0.865234
vt 1.500977 1.000000
vt 1.291992 0.867188
vt 1.003906 0.583008
vt 0.502930 1.000000
vt 0.716797 0.865234
vt 1.500977 1.000000
vt 1.291992 0.867188
vt 1.003906 0.583008
vt 1.865234 0.599609
vt 1.324219 0.702148
vt 1.692383 0.702148
vt 1.501953 0.772461
vt 1.865234 0.599609
vt 1.324219 0.702148
vt 1.692383 0.702148
vt 1.501953 0.772461
vt 1.865234 0.599609
vt 1.324219 0.702148
vt 1.692383 0.702148
vt 1.501953 0.772461
vt 3.070312 0.771484
vt 2.736328 0.768555
vt 3.057617 0.995117
vt 2.725586 0.998047
vt 3.288086 0.996094
vt 3.280273 0.770508
vt 3.063477 0.998047
vt 3.070312 0.767578
vt 2.733398 1.002930
vt 3.071289 0.998047
vt 2.741211 0.771484
vt 3.061523 0.768555
vt 3.147461 1.205078
vt 3.542969 1.206055
vt 3.147461 1.002930
vt 3.551758 1.013672
vt 3.075195 -0.237305
vt 2.739258 -0.234375
vt 3.075195 0.004883
vt 2.731445 -0.000977
vt 3.742188 0.773438
vt 3.289062 0.776367
vt 3.731445 1.001953
vt 3.291992 1.000977
vt 3.075195 -0.234375
vt 2.733398 -0.232422
vt 3.070312 0.002930
vt 2.736328 -0.002930
vt 3.630859 1.580078
vt 3.636719 1.403320
vt 3.408203 1.579102
vt 3.405273 1.408203
vt 3.636719 -0.596680
vt 3.397461 -0.593750
vt 3.631836 -0.413086
vt 3.402344 -0.416016
vt 3.072266 0.768555
vt 2.739258 0.768555
vt 3.070312 0.995117
vt 2.728516 1.000000
vt 3.554688 0.208984
vt 3.553711 0.009766
vt 3.159180 0.203125
vt 3.147461 0.002930
vt 3.734375 0.768555
vt 3.296875 0.768555
vt 3.726562 1.001953
vt 3.291992 0.997070
vt 3.735352 0.007812
vt 3.735352 -0.227539
vt 3.292969 0.001953
vt 3.291992 -0.231445
vt 3.726562 0.997070
vt 3.737305 0.773438
vt 3.299805 1.001953
vt 3.289062 0.773438
vt 3.148438 0.208984
vt 3.150391 0.003906
vt 2.801758 0.201172
vt 2.792969 0.008789
vt 4.157227 1.000000
vt 3.783203 1.008789
vt 4.146484 1.202148
vt 3.796875 1.201172
vt 3.551758 1.205078
vt 3.550781 1.013672
vt 3.158203 1.205078
vt 3.151367 1.003906
vt 3.731445 1.002930
vt 3.739258 0.770508
vt 3.284180 1.001953
vt 3.289062 0.774414
vt 2.960938 0.590820
vt 2.969727 0.769531
vt 3.196289 0.585938
vt 3.192383 0.768555
vt 4.155273 0.207031
vt 4.149414 0.006836
vt 3.796875 0.205078
vt 3.794922 -0.000977
vt 3.736328 0.001953
vt 3.738281 -0.227539
vt 3.293945 0.001953
vt 3.293945 -0.227539
vt 3.209961 0.997070
vt 3.073242 0.774414
vt 3.076172 0.995117
vt 3.209961 0.997070
vt 3.836914 -1.997070
vt 3.836914 -4.494141
vt 3.717773 -1.997070
vt 3.717773 -4.494141
vt 3.963867 -4.494141
vt 3.933594 -2.604492
vt 3.963867 -2.606445
vt 3.963867 -1.997070
vt 3.070312 0.771484
vt 3.057617 0.995117
vt 2.736328 0.768555
vt 2.725586 0.998047
vt 3.070312 0.767578
vt 3.280273 0.770508
vt 3.063477 0.998047
vt 3.288086 0.996094
vt 3.061523 0.768555
vt 3.071289 0.998047
vt 2.741211 0.771484
vt 2.733398 1.002930
vt 3.551758 1.013672
vt 3.542969 1.206055
vt 3.147461 1.002930
vt 3.147461 1.205078
vt 3.075195 -0.237305
vt 3.075195 0.004883
vt 2.739258 -0.234375
vt 2.731445 -0.000977
vt 3.742188 0.773438
vt 3.731445 1.001953
vt 3.289062 0.776367
vt 3.291992 1.000977
vt 3.075195 -0.234375
vt 3.070312 0.002930
vt 2.733398 -0.232422
vt 2.736328 -0.002930
vt 3.630859 1.580078
vt 3.408203 1.579102
vt 3.636719 1.403320
vt 3.405273 1.408203
vt 3.636719 -0.596680
vt 3.631836 -0.413086
vt 3.397461 -0.593750
vt 3.402344 -0.416016
vt 3.072266 0.768555
vt 3.070312 0.995117
vt 2.739258 0.768555
vt 2.728516 1.000000
vt 3.554688 0.208984
vt 3.159180 0.203125
vt 3.553711 0.009766
vt 3.147461 0.002930
vt 3.734375 0.768555
vt 3.726562 1.001953
vt 3.296875 0.768555
vt 3.291992 0.997070
vt 3.735352 0.007812
vt 3.292969 0.001953
vt 3.735352 -0.227539
vt 3.291992 -0.231445
vt 3.726562 0.997070
vt 3.299805 1.001953
vt 3.737305 0.773438
vt 3.289062 0.773438
vt 3.148438 0.208984
vt 2.801758 0.201172
vt 3.150391 0.003906
vt 2.792969 0.008789
vt 4.157227 1.000000
vt 4.146484 1.202148
vt 3.783203 1.008789
vt 3.796875 1.201172
vt 3.551758 1.205078
vt 3.158203 1.205078
vt 3.550781 1.013672
vt 3.151367 1.003906
vt 3.731445 1.002930
vt 3.284180 1.001953
vt 3.739258 0.770508
vt 3.289062 0.774414
vt 2.960938 0.590820
vt 3.196289 0.585938
vt 2.969727 0.769531
vt 3.192383 0.768555
vt 4.155273 0.207031
vt 3.796875 0.205078
vt 4.149414 0.006836
vt 3.794922 -0.000977
vt 3.736328 0.001953
vt 3.293945 0.001953
vt 3.738281 -0.227539
vt 3.293945 -0.227539
vt 3.836914 -1.997070
vt 3.717773 -1.997070
vt 3.836914 -4.494141
vt 3.717773 -4.494141
vt 3.836914 -1.997070
vt 3.836914 -4.494141
vt 3.933594 -2.604492
vt 3.963867 -4.494141
vt 1.865234 1.051758
vt 1.324219 1.153320
vt 1.692383 1.153320
vt 1.501953 1.223633
vt 1.865234 1.051758
vt 1.324219 1.153320
vt 1.692383 1.153320
vt 1.501953 1.223633
vt 0.215820 1.027344
vt 0.315430 0.888672
vt 0.164062 0.768555
vt 0.332031 0.845703
vt 1.865234 1.051758
vt 1.324219 1.153320
vt 1.692383 1.153320
vt 1.501953 1.223633
vt 0.215820 1.027344
vt 0.164062 0.768555
vt 0.315430 0.888672
vt 0.332031 0.845703
vt 1.865234 1.051758
vt 1.324219 1.153320
vt 1.692383 1.153320
vt 1.501953 1.223633
vt 1.501953 0.772461
vt 1.507812 0.702148
vt 1.692383 0.702148
vt 1.508789 -0.222656
vt 2.046875 -0.222656
vt 1.514648 0.281250
vt 1.514648 0.281250
vt 2.046875 -0.222656
vt 1.508789 -0.222656
vt 3.725586 1.000000
vt 4.065430 0.995117
vt 4.069336 0.769531
vt 3.070312 1.000000
vt 3.070312 0.770508
vt 2.743164 1.000000
vt -3.999023 -0.768555
vt -3.833984 0.914062
vt -3.999023 1.292969
vt -3.915039 -0.949219
vt -3.887695 -0.839844
vt -3.915039 -0.867188
vt -2.078125 -0.867188
vt -2.104492 -0.839844
vt -2.078125 -0.949219
vt -0.469727 -0.243164
vt -0.666992 -0.243164
vt -0.632812 0.708008
vt -0.119141 1.199219
vt 0.071289 1.128906
vt -0.312500 1.128906
vt -0.341797 -0.243164
vt -0.377930 -0.309570
vt -0.408203 -0.309570
vt -0.632812 0.708008
vt -0.666992 -0.243164
vt -0.469727 -0.243164
vt -0.632812 0.708008
vt -0.213867 0.462891
vt -0.068359 0.617188
vt -0.312500 1.128906
vt 0.071289 1.128906
vt -0.119141 1.199219
vt -0.408203 -0.309570
vt -0.377930 -0.309570
vt -0.341797 -0.243164
vn 0.0000 0.0000 1.0000
vn 0.0000 -0.0003 1.0000
vn -0.0003 -0.0001 1.0000
vn -0.0004 0.0002 1.0000
vn -0.0009 0.0002 1.0000
vn 0.0010 -0.0001 1.0000
vn 0.0006 -0.0005 1.0000
vn 0.0004 -0.0002 1.0000
vn 0.0003 0.0001 1.0000
vn -0.0005 0.0000 1.0000
vn -0.0002 0.0006 1.0000
vn -0.0001 0.0003 1.0000
vn 0.0003 -0.0001 1.0000
vn 0.0004 0.0002 1.0000
vn 0.0009 0.0002 1.0000
vn -0.0010 -0.0001 1.0000
vn -0.0004 -0.0002 1.0000
vn -0.0006 -0.0005 1.0000
vn -0.0003 0.0001 1.0000
vn 0.0001 0.0003 1.0000
vn 0.0000 -0.0001 1.0000
vn 0.0009 0.0001 1.0000
vn -0.0021 0.0000 1.0000
vn -0.0010 0.0000 1.0000
vn -0.0022 0.0000 1.0000
vn 0.0009 -0.0000 1.0000
vn 0.0011 -0.0001 1.0000
vn -0.0024 0.0003 1.0000
vn -0.0013 0.0001 1.0000
vn -0.0013 0.0000 1.0000
vn -0.0001 -0.0001 1.0000
vn 0.0001 -0.0001 1.0000
vn -0.0001 -0.0003 1.0000
vn 0.0003 -0.0002 1.0000
vn 0.0005 -0.0000 1.0000
vn 0.0002 -0.0002 1.0000
vn 0.0004 0.0000 1.0000
vn 0.0005 -0.0005 1.0000
vn -0.0004 -0.0005 1.0000
vn -0.0004 -0.0000 1.0000
vn -0.0002 -0.0002 1.0000
vn 0.0004 -0.0001 1.0000
vn 0.0006 -0.0003 1.0000
vn 0.0013 0.0000 1.0000
vn 0.0013 0.0001 1.0000
vn 0.0001 -0.0003 1.0000
vn -0.0003 -0.0002 1.0000
vn -0.0007 -0.0003 1.0000
vn -0.0005 -0.0005 1.0000
vn -0.0004 -0.0001 1.0000
vn -0.0006 -0.0003 1.0000
vn 0.0010 0.0000 1.0000
vn 0.0022 0.0000 1.0000
vn 0.0001 -0.0000 1.0000
vn -0.0001 -0.0000 1.0000
usemtl Tex_0031_1.dds.009
s off
f 1/1/1 3/2/1 2/3/1
f 2/3/1 3/2/1 4/4/1
f 3/2/1 5/5/1 4/4/1
f 4/4/1 5/5/1 6/6/1
f 5/5/1 7/7/1 6/6/1
f 6/6/1 7/7/1 8/8/1
f 7/7/1 9/9/1 8/8/1
f 8/8/1 9/9/1 10/10/1
f 11/11/1 13/12/1 12/13/1
f 12/13/1 13/12/1 14/14/1
f 13/12/1 15/15/1 14/14/1
f 14/14/1 15/15/1 16/16/1
f 15/15/1 17/17/1 16/16/1
f 16/16/1 17/17/1 18/18/1
f 17/17/1 19/19/1 18/18/1
f 20/20/1 22/21/1 21/22/1
f 21/22/1 22/21/1 23/23/1
f 22/21/1 24/24/1 23/23/1
f 23/23/1 24/24/1 25/25/1
f 24/24/1 26/26/1 25/25/1
f 25/25/1 26/26/1 27/27/1
f 26/26/1 28/28/1 27/27/1
f 29/29/1 31/30/1 30/31/1
f 30/31/1 31/30/1 32/32/1
f 31/30/1 33/33/1 32/32/1
f 32/32/1 33/33/1 34/34/1
f 33/33/1 35/35/1 34/34/1
f 34/34/1 35/35/1 36/36/1
f 35/35/1 37/37/1 36/36/1
f 38/38/1 40/39/1 39/40/1
f 39/40/1 40/39/1 41/41/1
f 40/39/1 42/42/1 41/41/1
f 41/41/1 42/42/1 43/43/1
f 42/42/1 44/44/1 43/43/1
f 43/43/1 44/44/1 45/45/1
f 44/44/1 46/46/1 45/45/1
f 47/47/1 49/48/1 48/49/1
f 48/49/1 49/48/1 50/50/1
f 49/48/1 51/51/1 50/50/1
f 50/50/1 51/51/1 52/52/1
f 51/51/1 53/53/1 52/52/1
f 52/52/1 53/53/1 54/54/1
f 53/53/1 55/55/1 54/54/1
f 56/56/1 58/57/1 57/58/1
f 57/58/1 58/57/1 59/59/1
f 58/57/1 60/60/1 59/59/1
f 59/59/1 60/60/1 61/61/1
f 60/60/1 62/62/1 61/61/1
f 61/61/1 62/62/1 63/63/1
f 62/62/1 64/64/1 63/63/1
f 65/65/1 67/66/1 66/67/1
f 66/67/1 67/66/1 68/68/1
f 67/66/1 69/69/1 68/68/1
f 68/68/1 69/69/1 70/70/1
f 69/69/1 71/71/1 70/70/1
f 70/70/1 71/71/1 72/72/1
f 71/71/1 73/73/1 72/72/1
f 74/74/1 76/75/1 75/76/1
f 75/76/1 76/75/1 77/77/1
f 76/75/1 78/78/1 77/77/1
f 77/77/1 78/78/1 79/79/1
f 78/78/1 80/80/1 79/79/1
f 79/79/1 80/80/1 81/81/1
f 80/80/1 82/82/1 81/81/1
f 83/83/1 85/84/1 84/85/1
f 84/85/1 85/84/1 86/86/1
f 85/84/1 87/87/1 86/86/1
f 86/86/1 87/87/1 88/88/1
f 87/87/1 89/89/1 88/88/1
f 88/88/1 89/89/1 90/90/1
f 91/91/2 93/92/2 92/93/2
f 92/93/3 93/92/3 94/94/3
f 93/92/4 95/95/5 94/94/4
f 94/94/6 95/95/7 96/96/8
f 95/95/9 97/97/9 96/96/9
f 96/96/10 97/97/11 98/98/12
f 99/99/1 101/100/1 100/101/1
f 100/101/1 101/100/1 102/102/1
f 101/100/1 103/103/1 102/102/1
f 102/102/1 103/103/1 104/104/1
f 103/103/1 105/105/1 104/104/1
f 104/104/1 105/105/1 106/106/1
f 107/107/1 109/108/1 108/109/1
f 108/109/1 109/108/1 110/110/1
f 109/108/1 111/111/1 110/110/1
f 110/110/1 111/111/1 112/112/1
f 111/111/1 113/113/1 112/112/1
f 112/112/1 113/113/1 114/114/1
f 115/115/1 117/116/1 116/117/1
f 116/117/1 117/116/1 118/118/1
f 117/116/1 119/119/1 118/118/1
f 118/118/1 119/119/1 120/120/1
f 119/119/1 121/121/1 120/120/1
f 120/120/1 121/121/1 122/122/1
f 123/123/1 125/124/1 124/125/1
f 124/125/1 125/124/1 126/126/1
f 125/124/1 127/127/1 126/126/1
f 126/126/1 127/127/1 128/128/1
f 127/127/1 129/129/1 128/128/1
f 130/130/1 132/131/1 131/132/1
f 131/132/1 132/131/1 133/133/1
f 132/131/1 134/134/1 133/133/1
f 133/133/1 134/134/1 135/135/1
f 134/134/1 136/136/1 135/135/1
f 137/137/13 139/138/13 138/139/13
f 138/139/14 139/138/14 140/140/15
f 139/138/16 141/141/17 140/140/18
f 140/140/19 141/141/19 142/142/19
f 141/141/20 143/143/20 142/142/20
f 144/144/1 146/145/1 145/146/1
f 145/146/1 146/145/1 147/147/1
f 146/145/1 148/148/1 147/147/1
f 147/147/1 148/148/1 149/149/1
f 148/148/1 150/150/1 149/149/1
f 151/151/1 153/152/1 152/153/1
f 152/153/1 153/152/1 154/154/1
f 153/152/1 155/155/1 154/154/1
f 154/154/1 155/155/1 156/156/1
f 155/155/1 157/157/1 156/156/1
f 158/158/1 160/159/1 159/160/1
f 159/160/1 160/159/1 161/161/1
f 160/159/1 162/162/1 161/161/1
f 161/161/1 162/162/1 163/163/1
f 162/162/1 164/164/1 163/163/1
f 165/165/1 167/166/1 166/167/1
f 166/167/1 167/166/1 168/168/1
f 167/166/1 169/169/1 168/168/1
f 168/168/1 169/169/1 170/170/1
f 169/169/1 171/171/1 170/170/1
f 172/172/1 174/173/1 173/174/1
f 173/174/1 174/173/1 175/175/1
f 174/173/1 176/176/1 175/175/1
f 175/175/1 176/176/1 177/177/1
f 176/176/1 178/178/1 177/177/1
f 179/179/1 181/180/1 180/181/1
f 180/181/1 181/180/1 182/182/1
f 181/180/1 183/183/1 182/182/1
f 182/182/1 183/183/1 184/184/1
f 185/185/1 187/186/1 186/187/1
f 186/187/1 187/186/1 188/188/1
f 187/186/1 189/189/1 188/188/1
f 190/190/1 192/191/1 191/192/1
f 191/192/1 192/191/1 193/193/1
f 192/191/1 194/194/1 193/193/1
f 195/195/1 197/196/1 196/197/1
f 196/197/1 197/196/1 198/198/1
f 197/196/1 199/199/1 198/198/1
f 200/200/1 202/201/1 201/202/1
f 201/202/1 202/201/1 203/203/1
f 202/201/1 204/204/1 203/203/1
f 205/205/1 207/206/1 206/207/1
f 206/207/1 207/206/1 208/208/1
f 207/206/1 209/209/1 208/208/1
f 210/210/1 212/211/1 211/212/1
f 211/212/1 212/211/1 213/213/1
f 212/211/1 214/214/1 213/213/1
f 215/215/21 217/216/22 216/217/21
f 216/217/23 217/216/24 218/218/25
f 217/216/26 219/219/1 218/218/1
f 220/220/1 222/221/1 221/222/1
f 221/222/1 222/221/1 223/223/1
f 222/221/1 224/224/1 223/223/1
f 225/225/1 227/226/1 226/227/1
f 226/227/1 227/226/1 228/228/1
f 227/226/1 229/229/1 228/228/1
f 230/230/1 232/231/1 231/232/1
f 231/232/1 232/231/1 233/233/1
f 232/231/1 234/234/1 233/233/1
f 235/235/21 237/236/27 236/237/21
f 236/237/28 237/236/29 238/238/29
f 237/236/30 239/239/30 238/238/30
f 240/240/1 242/241/1 241/242/1
f 241/242/1 242/241/1 243/243/1
f 242/241/1 244/244/1 243/243/1
f 245/245/1 247/246/1 246/247/1
f 246/247/1 247/246/1 248/248/1
f 247/246/1 249/249/1 248/248/1
f 250/250/1 252/251/1 251/252/1
f 251/252/1 252/251/1 253/253/1
f 252/251/1 254/254/1 253/253/1
f 255/255/1 257/256/1 256/257/1
f 256/257/1 257/256/1 258/258/1
f 257/256/1 259/259/1 258/258/1
f 260/260/1 262/261/1 261/262/1
f 261/262/1 262/261/1 263/263/1
f 262/261/1 264/264/1 263/263/1
f 265/265/31 267/266/31 266/267/31
f 266/267/1 267/266/1 268/268/1
f 267/266/1 269/269/1 268/268/1
f 270/270/1 272/271/1 271/272/1
f 271/272/1 272/271/1 273/273/1
f 272/271/32 274/274/32 273/273/32
f 275/275/1 277/276/1 276/277/1
f 276/277/1 277/276/1 278/278/1
f 277/276/1 279/279/1 278/278/1
f 280/280/1 282/281/1 281/282/1
f 281/282/1 282/281/1 283/283/1
f 282/281/1 284/284/1 283/283/1
f 285/285/1 287/286/1 286/287/1
f 286/287/1 287/286/1 288/288/1
f 289/289/1 291/290/1 290/291/1
f 290/291/1 291/290/1 292/292/1
f 293/293/1 295/294/1 294/295/1
f 294/295/1 295/294/1 296/296/1
f 297/297/1 299/298/1 298/299/1
f 298/299/1 299/298/1 300/300/1
f 301/301/1 303/302/1 302/303/1
f 302/303/1 303/302/1 304/304/1
f 305/305/1 307/306/1 306/307/1
f 306/307/1 307/306/1 308/308/1
f 309/309/1 311/310/1 310/311/1
f 310/311/1 311/310/1 312/312/1
f 313/313/1 315/314/1 314/315/1
f 314/315/1 315/314/1 316/316/1
f 317/317/1 319/318/1 318/319/1
f 318/319/1 319/318/1 320/320/1
f 321/321/1 323/322/1 322/323/1
f 322/323/1 323/322/1 324/324/1
f 325/325/1 327/326/1 326/327/1
f 326/327/1 327/326/1 328/328/1
f 329/329/1 331/330/1 330/331/1
f 330/331/1 331/330/1 332/332/1
f 333/333/1 335/334/1 334/335/1
f 334/335/1 335/334/1 336/336/1
f 337/337/33 339/338/33 338/339/33
f 338/339/34 339/338/34 340/340/34
f 341/341/1 343/342/1 342/343/1
f 342/343/1 343/342/1 344/344/1
f 345/345/1 347/346/1 346/347/1
f 346/347/1 347/346/1 348/348/1
f 349/349/1 351/350/1 350/351/1
f 350/351/1 351/350/1 352/352/1
f 353/353/1 355/354/1 354/355/1
f 354/355/35 355/354/35 356/356/35
f 357/357/1 359/358/1 358/359/1
f 358/359/1 359/358/1 360/360/1
f 361/361/36 363/362/37 362/363/38
f 362/363/39 363/362/40 364/364/41
f 365/365/1 367/366/1 366/367/1
f 366/367/1 367/366/1 368/368/1
f 369/369/1 371/370/1 370/371/1
f 370/371/1 371/370/1 372/372/1
f 373/373/1 375/374/1 374/375/1
f 374/375/1 375/374/1 376/376/1
f 377/377/42 379/378/42 378/379/43
f 378/379/1 379/378/1 380/380/1
f 381/381/1 383/382/1 382/383/1
f 382/383/1 383/382/1 384/384/1
f 385/385/1 387/386/1 386/387/1
f 386/387/1 387/386/1 388/388/1
f 389/389/44 391/390/44 390/391/44
f 390/391/45 391/390/45 392/392/45
f 393/393/1 395/394/1 394/395/1
f 394/395/1 395/394/1 396/396/1
f 397/397/1 399/398/1 398/399/1
f 398/399/1 399/398/1 400/400/1
f 401/401/1 403/402/1 402/403/1
f 402/403/1 403/402/1 404/404/1
f 405/405/1 407/406/1 406/407/1
f 406/407/1 407/406/1 408/408/1
f 409/409/1 411/410/1 410/411/1
f 410/411/1 411/410/1 412/412/1
f 413/413/1 415/414/1 414/415/1
f 414/415/1 415/414/1 416/416/1
f 417/417/1 419/418/1 418/419/1
f 418/419/1 419/418/1 420/420/1
f 421/421/1 423/422/1 422/423/1
f 422/423/1 423/422/1 424/424/1
f 425/425/1 427/426/1 426/427/1
f 426/427/1 427/426/1 428/428/1
f 429/429/1 431/430/1 430/431/1
f 430/431/1 431/430/1 432/432/1
f 433/433/46 435/434/46 434/435/46
f 434/435/47 435/434/47 436/436/47
f 437/437/1 439/438/1 438/439/1
f 438/439/1 439/438/1 440/440/1
f 441/441/1 443/442/1 442/443/1
f 442/443/1 443/442/1 444/444/1
f 445/445/1 447/446/1 446/447/1
f 446/447/1 447/446/1 448/448/1
f 449/449/1 451/450/1 450/451/1
f 450/451/48 451/450/10 452/452/10
f 453/453/1 455/454/1 454/455/1
f 454/455/1 455/454/1 456/456/1
f 457/457/47 459/458/49 458/459/10
f 458/459/36 459/458/36 460/460/36
f 461/461/1 463/462/1 462/463/1
f 462/463/1 463/462/1 464/464/1
f 465/465/1 467/466/1 466/467/1
f 466/467/1 467/466/1 468/468/1
f 469/469/1 471/470/1 470/471/1
f 470/471/1 471/470/1 472/472/1
f 473/473/50 475/474/51 474/475/50
f 474/475/1 475/474/1 476/476/1
f 477/477/1 479/478/1 478/479/1
f 478/479/1 479/478/1 480/480/1
f 481/481/52 483/482/53 482/483/52
f 482/483/24 483/482/1 484/484/1
f 485/485/1 487/486/1 486/487/1
f 486/487/1 487/486/1 488/488/1
f 489/489/1 491/490/1 490/491/1
f 490/491/1 491/490/1 492/492/1
f 493/493/1 495/494/1 494/495/1
f 494/495/1 495/494/1 496/496/1
f 497/497/1 499/498/1 498/499/1
f 498/499/1 499/498/1 500/500/1
f 501/501/1 503/502/1 502/503/1
f 502/503/1 503/502/1 504/504/1
f 505/505/1 507/506/1 506/507/1
f 506/507/1 507/506/1 508/508/1
f 509/509/1 511/510/1 510/511/1
f 512/512/1 514/513/1 513/514/1
f 515/515/1 517/516/1 516/517/1
f 518/518/2 520/519/2 519/520/2
f 521/521/1 523/522/1 522/523/1
f 524/524/1 526/525/1 525/526/1
f 527/527/54 529/528/54 528/529/54
f 530/530/55 532/531/55 531/532/55
f 533/533/1 535/534/1 534/535/1
f 536/536/1 538/537/1 537/538/1
f 539/539/55 541/540/55 540/541/55
f 542/542/1 544/543/1 543/544/1
f 545/545/1 547/546/1 546/547/1
f 548/548/1 550/549/1 549/550/1
f 551/551/54 553/552/54 552/553/54
