# Blender v3.6.3 OBJ File: 'untitled.blend'
# www.blender.org
mtllib Mesh_0343.mtl
o Mesh_0343_Mesh.209
v -9.604584 22.377499 -34.783039
v -9.604584 21.814785 -34.104126
v -9.604584 21.814785 -37.079483
v -9.604584 21.040085 -33.590717
v -9.604584 21.040085 -37.592903
v -9.604584 20.054361 -33.295494
v -9.604584 20.054361 -37.888126
v -9.604584 14.763744 -33.295494
v -9.604584 14.763744 -37.888130
v -9.604584 22.377497 -39.863041
v -9.604584 21.814785 -39.184124
v -9.604584 21.814785 -42.159477
v -9.604584 21.040085 -38.670715
v -9.604584 21.040085 -42.672905
v -9.604584 20.054361 -38.375492
v -9.604584 20.054363 -42.968124
v -9.604584 14.763744 -38.375492
v -9.604584 14.763743 -42.968124
v -9.604584 21.814785 -37.079483
v -9.604584 22.377499 -36.400555
v -9.604584 22.377499 -34.783039
v -9.604584 22.767334 -35.591805
v -9.604584 21.814785 -42.159477
v -9.604584 22.377499 -41.480553
v -9.604584 22.377497 -39.863041
v -9.604584 22.767332 -40.671806
v -9.604584 22.859995 -43.529392
v -9.604584 14.763743 -43.529392
v -9.604584 22.859995 -48.290623
v -9.604584 14.763744 -48.291893
v -9.604584 14.763744 -27.971760
v -9.604584 14.763744 -32.734215
v -9.605396 22.859993 -27.972607
v -9.604584 22.859995 -32.734215
v -9.604584 33.019989 -38.131802
v -9.604584 33.019989 -27.971806
v -9.604584 25.374590 -38.131805
v -9.604584 25.374588 -27.971806
v -9.604584 33.019989 -48.291801
v -9.604584 33.019989 -38.131802
v -9.604584 25.374590 -48.291801
v -9.604584 25.374590 -38.131805
vt -0.675781 0.153320
vt -0.134766 0.051758
vt -0.836914 0.051758
vt -0.958008 -0.087891
vt 0.003906 -0.087891
vt -1.028320 -0.265625
vt 0.057617 -0.265625
vt -1.028320 -1.222656
vt 0.046875 -1.222656
vt -0.675781 0.153320
vt -0.134766 0.051758
vt -0.836914 0.051758
vt -0.958008 -0.087891
vt 0.003906 -0.087891
vt -1.028320 -0.265625
vt 0.057617 -0.265625
vt -1.028320 -1.222656
vt 0.046875 -1.222656
vt -0.134766 0.051758
vt -0.675781 0.153320
vt -0.307617 0.153320
vt -0.498047 0.223633
vt -0.134766 0.051758
vt -0.675781 0.153320
vt -0.307617 0.153320
vt -0.498047 0.223633
vt 2.898438 1.000000
vt 2.003906 1.000000
vt 2.898438 -0.596680
vt 2.003906 -0.596680
vt 2.003906 -0.596680
vt 2.003906 1.000000
vt 2.898438 -0.596680
vt 2.898438 1.000000
vt 3.000000 0.999023
vt 3.000000 -0.596680
vt 1.000000 0.999023
vt 1.000000 -0.596680
vt 3.000000 0.999023
vt 3.000000 -0.596680
vt 1.000000 0.999023
vt 1.000000 -0.596680
vn -1.0000 0.0000 0.0000
vn -1.0000 -0.0001 0.0000
vn -1.0000 0.0000 -0.0002
usemtl Tex_0031_1.dds.018
s off
f 1/1/1 3/2/1 2/3/1
f 2/3/1 3/2/1 4/4/1
f 3/2/1 5/5/1 4/4/1
f 4/4/1 5/5/1 6/6/1
f 5/5/1 7/7/1 6/6/1
f 6/6/1 7/7/1 8/8/1
f 7/7/1 9/9/1 8/8/1
f 10/10/1 12/11/1 11/12/1
f 11/12/1 12/11/1 13/13/1
f 12/11/1 14/14/1 13/13/1
f 13/13/1 14/14/1 15/15/1
f 14/14/1 16/16/1 15/15/1
f 15/15/1 16/16/1 17/17/1
f 16/16/1 18/18/1 17/17/1
f 19/19/1 21/20/1 20/21/1
f 20/21/1 21/20/1 22/22/1
f 23/23/1 25/24/1 24/25/1
f 24/25/1 25/24/1 26/26/1
f 27/27/1 29/28/1 28/29/1
f 28/29/1 29/28/1 30/30/1
f 31/31/2 33/32/2 32/33/2
f 32/33/3 33/32/3 34/34/3
f 35/35/1 37/36/1 36/37/1
f 36/37/1 37/36/1 38/38/1
f 39/39/1 41/40/1 40/41/1
f 40/41/1 41/40/1 42/42/1
