# Blender v3.6.3 OBJ File: 'untitled.blend'
# www.blender.org
mtllib Mesh_0229.mtl
o Mesh_0229_Mesh.054
v 27.484354 6.529056 22.445160
v 27.225527 6.529056 22.193192
v 27.484354 -0.000014 22.445160
v 27.225527 -0.000014 22.193192
v 34.586739 6.529056 22.445160
v 34.586739 -0.000014 22.445160
v 34.845566 6.529056 22.193192
v 34.845566 -0.000014 22.193192
vt 0.051758 -0.007812
vt 0.045898 -0.993164
vt -0.049805 -0.010742
vt -0.049805 -0.993164
vt 0.051758 -0.007812
vt -0.049805 -0.010742
vt 0.045898 -0.993164
vt -0.049805 -0.993164
vn 0.6975 0.0000 -0.7165
vn -0.6975 0.0000 -0.7165
usemtl Tex_0087_1.dds
s off
f 1/1/1 3/2/1 2/3/1
f 2/3/1 3/2/1 4/4/1
f 5/5/2 7/6/2 6/7/2
f 6/7/2 7/6/2 8/8/2
