# Blender v3.6.3 OBJ File: 'untitled.blend'
# www.blender.org
mtllib Mesh_0271.mtl
o Mesh_0271_Mesh.074
v -9.854275 9.114782 -13.784130
v -9.854275 8.340081 -13.270706
v -9.604584 8.340081 -13.270706
v -9.854275 7.354358 -12.975487
v -9.604584 7.354358 -12.975487
v -9.854277 2.063743 -12.975487
v -9.604586 2.063743 -12.975487
v -9.854275 8.338736 -18.066338
v -9.854275 10.159991 -18.066338
v -9.982704 8.411531 -17.939083
v -9.982706 10.159991 -17.939083
v -9.982700 8.484327 -17.811806
v -9.982706 10.159991 -17.811806
v -9.982706 10.159991 -17.684528
v -9.604586 2.063743 -22.648129
v -9.854277 2.063743 -22.648125
v -9.604584 7.354358 -22.648129
v -9.854275 7.354358 -22.648129
v -9.604584 8.340082 -22.352905
v -9.854275 8.340082 -22.352905
v -9.854275 9.114782 -21.839478
v -9.604584 9.677494 -16.069698
v -9.604584 9.114782 -16.759483
v -9.854275 9.114782 -16.759483
v -9.604584 8.340082 -17.272892
v -9.854279 8.340082 -17.272892
v -9.854271 8.188902 -17.310154
v -9.854275 10.067333 -15.271805
v -9.854275 9.677494 -14.463055
v -9.604584 9.677494 -14.463055
v -9.854275 9.114782 -13.784130
v -9.604584 9.114782 -13.784130
v -9.604584 8.340081 -13.270706
v -9.982704 1.862653 -22.891804
v -9.982706 10.159992 -22.891804
v -9.982706 1.862653 -22.781944
v -9.982706 10.159992 -22.781940
v -9.854275 7.354358 -22.648129
v -9.854275 10.159992 -22.648129
v -9.854275 10.067333 -20.351807
v -9.854275 9.677494 -19.553917
v -9.604584 9.677494 -19.553917
v -9.854275 9.114781 -18.864128
v -9.604584 9.114781 -18.864128
v -9.604584 8.340081 -18.350719
v -9.982748 10.159991 -12.731762
v -9.982706 1.862653 -12.841663
v -9.982706 10.159991 -12.841671
v -9.854275 7.354358 -12.975487
v -9.854275 10.159991 -12.975487
v -9.854275 9.114782 -16.759483
v -9.854275 9.677494 -16.069698
v -9.604584 9.677494 -16.069698
v -9.854275 10.067333 -15.271805
v -9.604584 10.067333 -15.271805
v -9.982700 8.484327 -17.811806
v -9.982706 10.159991 -17.684528
v -9.982704 8.411531 -17.684528
v -9.854275 10.159991 -17.557274
v -9.854275 8.338736 -17.557274
v -9.854275 9.114781 -18.864128
v -9.854279 8.340081 -18.350719
v -9.604584 8.340081 -18.350719
v -9.854271 8.188901 -18.313454
v -9.604580 8.188901 -18.313023
v -9.604584 9.114782 -21.839478
v -9.854275 9.114782 -21.839478
v -9.604584 9.677494 -21.160557
v -9.854275 9.677494 -21.160557
v -9.854275 10.067333 -20.351807
v -9.604584 2.063742 -12.416199
v -9.854267 2.063742 -12.416199
v -9.604584 10.159991 -12.416199
v -9.854267 10.159991 -12.416199
v -9.982735 1.862652 -12.731773
v -9.982748 10.159991 -12.731762
v -9.854267 2.063742 -12.416199
v -9.854267 10.159991 -12.416199
v -9.604584 10.159992 -10.441395
v -9.854267 10.159992 -10.441395
v -9.604584 2.063742 -10.441395
v -9.854267 2.063742 -10.441395
v -9.982706 1.862653 -12.841663
v -9.982748 10.159991 -12.731762
v -9.982735 1.862652 -12.731773
v -9.604584 10.067333 -15.271805
v -9.854275 10.067333 -15.271805
v -9.604584 9.677494 -14.463055
v -9.854275 7.354358 -12.975487
v -9.982706 1.862653 -12.841663
v -9.854277 2.063743 -12.975487
v -9.854271 8.188902 -17.310154
v -9.604584 8.340082 -17.272892
v -9.604580 8.188902 -17.310589
v -9.604584 9.677494 -19.553917
v -9.604584 10.067333 -20.351807
v -9.854275 10.067333 -20.351807
v -9.854275 10.067333 -20.351807
v -9.604584 10.067333 -20.351807
v -9.604584 9.677494 -21.160557
v -9.854275 9.114782 -21.839478
v -9.604584 9.114782 -21.839478
v -9.604584 8.340082 -22.352905
v -9.982706 1.862653 -22.781944
v -9.854275 7.354358 -22.648129
v -9.854277 2.063743 -22.648125
vt -3.807617 1.964844
vt -3.995117 1.643555
vt -3.807617 1.643555
vt -3.807617 1.160156
vt -3.995117 1.160156
vt -3.807617 -1.178711
vt -3.995117 -1.178711
vt 4.235352 -0.375000
vt 4.613281 -0.342773
vt 4.235352 0.434570
vt 4.613281 0.434570
vt 4.992188 -0.310547
vt 4.992188 0.434570
vt 4.613281 0.434570
vt -3.995117 -1.178711
vt -3.995117 1.160156
vt -3.807617 -1.178711
vt -3.807617 1.160156
vt -3.995117 1.643555
vt -3.807617 1.643555
vt -3.807617 1.964844
vt -0.998047 1.450195
vt -0.807617 1.054688
vt -0.998047 1.054688
vt -0.998047 0.511719
vt -0.807617 0.511719
vt -0.807617 0.405273
vt -3.807617 2.801758
vt -3.995117 2.360352
vt -3.807617 2.360352
vt -3.807617 1.964844
vt -3.995117 1.964844
vt -3.995117 1.643555
vt -2.995117 -1.275391
vt -3.361328 -1.274414
vt -2.995117 2.439453
vt -3.357422 2.439453
vt -3.807617 1.167969
vt -3.807617 2.436523
vt -0.807617 1.723633
vt -0.998047 1.450195
vt -0.807617 1.450195
vt -0.807617 1.054688
vt -0.998047 1.054688
vt -0.998047 0.511719
vt -2.995117 2.439453
vt -3.357422 2.439453
vt -3.361328 -1.274414
vt -3.807617 1.167969
vt -3.807617 2.436523
vt -0.807617 1.054688
vt -0.998047 1.450195
vt -0.807617 1.450195
vt -0.807617 1.723633
vt -0.998047 1.723633
vt 4.992188 -0.310547
vt 4.613281 -0.342773
vt 4.613281 0.434570
vt 4.235352 0.434570
vt 4.235352 -0.375000
vt -0.807617 1.054688
vt -0.998047 0.511719
vt -0.807617 0.511719
vt -0.807617 0.405273
vt -0.998047 0.405273
vt -3.995117 1.964844
vt -3.995117 2.360352
vt -3.807617 1.964844
vt -3.807617 2.360352
vt -3.807617 2.801758
vt 4.000000 -3.171875
vt 4.000000 0.434570
vt 4.235352 -3.171875
vt 4.235352 0.434570
vt 4.992188 -3.258789
vt 4.235352 -3.171875
vt 4.992188 0.434570
vt 4.235352 0.434570
vt 4.000000 0.434570
vt 4.000000 -3.171875
vt 4.235352 0.434570
vt 4.235352 -3.171875
vt -3.361328 -1.274414
vt -2.995117 -1.275391
vt -2.995117 2.439453
vt -3.995117 2.801758
vt -3.995117 2.360352
vt -3.807617 2.801758
vt -3.807617 1.167969
vt -3.807617 -1.178711
vt -3.361328 -1.274414
vt -0.807617 0.405273
vt -0.998047 0.405273
vt -0.998047 0.511719
vt -0.998047 1.450195
vt -0.807617 1.723633
vt -0.998047 1.723633
vt -3.807617 2.801758
vt -3.995117 2.360352
vt -3.995117 2.801758
vt -3.807617 1.964844
vt -3.995117 1.643555
vt -3.995117 1.964844
vt -3.361328 -1.274414
vt -3.807617 -1.178711
vt -3.807617 1.167969
vn 0.0000 -0.5524 -0.8336
vn -0.0434 -0.5616 -0.8263
vn 0.0000 -0.2869 -0.9580
vn -0.0582 -0.5078 -0.8595
vn -0.0083 -0.2869 -0.9579
vn 0.0000 0.0000 -1.0000
vn -0.0131 -0.2785 -0.9603
vn -0.7038 0.0000 -0.7103
vn -0.7038 -0.0000 -0.7104
vn -0.6524 0.3752 -0.6585
vn -1.0000 -0.0000 0.0000
vn -0.9190 0.3932 -0.0299
vn 0.0000 -0.0000 1.0000
vn -0.0068 -0.1448 0.9894
vn -0.1448 0.0068 0.9894
vn 0.1450 0.0000 0.9894
vn -0.1450 -0.2839 0.9478
vn -0.0314 -0.4084 0.9123
vn 0.1409 -0.3166 0.9380
vn 0.0342 -0.1489 0.9883
vn -0.1295 -0.2542 0.9584
vn 0.1466 -0.2838 0.9476
vn -0.1545 -0.5799 0.7999
vn 0.0000 -0.5524 0.8336
vn 0.1466 -0.5465 0.8245
vn 0.0000 -0.7749 0.6321
vn 0.1582 -0.7924 0.5891
vn -0.1501 -0.7661 0.6250
vn -0.1501 -0.5462 0.8241
vn 0.1311 -0.5180 0.8453
vn -0.0232 -0.4783 0.8779
vn 0.0352 -0.6566 0.7534
vn 0.1710 -0.5443 0.8213
vn -0.0862 -0.5695 0.8174
vn -0.1331 -0.0245 0.9908
vn 0.1709 -0.2358 0.9567
vn 0.0000 -0.2393 0.9709
vn 0.0000 -0.9008 -0.4342
vn -0.1277 -0.9083 -0.3984
vn 0.1212 -0.8942 -0.4310
vn 0.1211 -0.7643 -0.6334
vn -0.1055 -0.7462 -0.6573
vn 0.0362 -0.6815 -0.7309
vn -0.0299 -0.8326 -0.5530
vn -0.1462 -0.7617 -0.6313
vn 0.1278 -0.7862 -0.6046
vn 0.1541 -0.5109 -0.8458
vn -0.1462 -0.5465 -0.8246
vn -0.9999 -0.0147 0.0002
vn -0.9999 -0.0002 -0.0146
vn -0.9278 0.3732 -0.0000
vn -0.0559 -0.0230 0.9982
vn -0.7215 -0.0000 0.6924
vn -0.4115 0.0246 0.9111
vn -0.6864 0.3724 0.6247
vn -0.7215 0.0000 0.6925
vn 0.0000 -0.8985 -0.4390
vn -0.1209 -0.9063 -0.4050
vn 0.1147 -0.8926 -0.4361
vn 0.1147 -0.7698 -0.6280
vn -0.0998 -0.7530 -0.6504
vn 0.0368 -0.6847 -0.7279
vn -0.0280 -0.8338 -0.5513
vn -0.1501 -0.7661 -0.6250
vn 0.1313 -0.7909 -0.5977
vn 0.1581 -0.5095 -0.8458
vn -0.1501 -0.5462 -0.8241
vn -1.0000 -0.0000 -0.0004
vn -0.9278 0.3730 -0.0003
vn -0.8497 -0.0070 0.5273
vn -0.5625 -0.0070 -0.8268
vn -0.4117 0.0246 -0.9110
vn -0.7215 -0.0000 -0.6924
vn -0.6864 0.3722 -0.6247
vn -0.1209 -0.7473 0.6534
vn 0.1147 -0.7698 0.6280
vn 0.1147 -0.8926 0.4361
vn -0.0998 -0.9060 0.4114
vn 0.0000 -0.8985 0.4390
vn -0.0281 -0.8498 0.5264
vn -0.8681 -0.4310 -0.2465
vn -0.7270 0.0520 -0.6847
vn -0.7035 0.0331 0.7100
vn -0.4895 -0.0275 0.8716
vn -0.7038 -0.0000 0.7104
vn -0.7669 -0.2363 0.5967
vn -0.7039 0.0000 0.7103
vn -0.1791 -0.5834 -0.7922
vn 0.1710 -0.5443 -0.8213
vn 0.1710 -0.2358 -0.9566
vn -0.0822 -0.1074 -0.9908
vn -0.0010 -0.2393 -0.9709
vn -0.1282 -0.3189 -0.9391
vn 0.0017 -0.2419 -0.9703
vn 0.0017 -0.2438 -0.9698
vn 0.0000 -0.7699 0.6381
vn -0.0299 -0.8326 0.5530
vn -0.1055 -0.7462 0.6573
vn 0.1211 -0.7643 0.6334
vn -0.1277 -0.9083 0.3984
vn 0.0000 -0.9008 0.4342
vn 0.1212 -0.8942 0.4310
vn -0.9262 -0.0000 0.3770
vn -0.9262 0.0000 0.3771
vn -1.0000 -0.0000 -0.0003
vn 0.0017 -0.2419 0.9703
usemtl Tex_0030_0.dds.005
s off
f 1/1/1 3/2/2 2/3/1
f 2/3/3 3/2/3 4/4/3
f 3/2/4 5/5/5 4/4/3
f 4/4/6 5/5/6 6/6/6
f 5/5/7 7/7/6 6/6/6
f 8/8/8 10/9/8 9/10/8
f 9/10/9 10/9/9 11/11/10
f 10/9/11 12/12/11 11/11/11
f 11/11/12 12/12/11 13/13/11
f 12/12/11 14/14/11 13/13/11
f 15/15/13 17/16/14 16/17/13
f 16/17/13 17/16/15 18/18/16
f 17/16/17 19/19/18 18/18/19
f 18/18/20 19/19/21 20/20/22
f 19/19/23 21/21/24 20/20/25
f 22/22/26 24/23/27 23/24/28
f 23/24/29 24/23/30 25/25/31
f 24/23/32 26/26/33 25/25/34
f 25/25/35 26/26/36 27/27/37
f 28/28/38 30/29/39 29/30/40
f 29/30/41 30/29/42 31/31/43
f 30/29/44 32/32/45 31/31/46
f 31/31/47 32/32/48 33/33/1
f 34/34/11 36/35/49 35/36/11
f 35/36/11 36/35/50 37/37/51
f 36/35/52 38/38/53 37/37/54
f 37/37/55 38/38/56 39/39/56
f 40/40/57 42/41/58 41/42/59
f 41/42/60 42/41/61 43/43/62
f 42/41/63 44/44/64 43/43/65
f 43/43/66 44/44/67 45/45/1
f 46/46/68 48/47/69 47/48/70
f 47/48/71 48/47/72 49/49/73
f 48/47/74 50/50/73 49/49/73
f 51/51/26 53/52/75 52/53/76
f 52/53/77 53/52/78 54/54/79
f 53/52/80 55/55/79 54/54/79
f 56/56/11 58/57/81 57/58/82
f 57/58/83 58/57/84 59/59/85
f 58/57/86 60/60/87 59/59/87
f 61/61/1 63/62/88 62/63/89
f 62/63/90 63/62/91 64/64/92
f 63/62/93 65/65/94 64/64/95
f 66/66/96 68/67/97 67/68/96
f 67/68/96 68/67/98 69/69/99
f 68/67/100 70/70/101 69/69/102
f 71/71/13 73/72/13 72/73/13
f 72/73/13 73/72/13 74/74/13
f 75/75/103 77/76/103 76/77/103
f 76/77/104 77/76/104 78/78/104
f 79/79/6 81/80/6 80/81/6
f 80/81/6 81/80/6 82/82/6
f 83/83/105 85/84/105 84/85/105
f 86/86/38 88/87/38 87/88/38
f 89/89/73 91/90/73 90/91/73
f 92/92/106 94/93/106 93/94/106
f 95/95/57 97/96/57 96/97/57
f 98/98/101 100/99/101 99/100/101
f 101/101/24 103/102/24 102/103/24
f 104/104/53 106/105/53 105/106/53
