# Blender v3.6.3 OBJ File: 'untitled.blend'
# www.blender.org
mtllib Mesh_0180.mtl
o Mesh_0180_Mesh.151
v -22.304649 24.129988 4.795464
v -22.304649 25.399988 4.795464
v -22.304649 25.399988 0.220924
v -22.304049 28.083858 4.052269
v -22.303291 28.110809 0.976517
v -22.304649 24.129988 -5.364532
v -22.304649 25.399988 -5.364540
v -22.304649 25.399988 -9.939075
v -22.304649 28.125406 -6.107689
v -22.304649 28.125406 -9.195923
v -22.304649 25.399988 0.220924
v -22.304649 24.129988 0.220924
v -22.304649 24.129988 4.795464
v -22.304649 25.399988 -9.939075
v -22.304649 24.129988 -9.939075
v -22.304649 24.129988 -5.364532
vt 0.003906 -0.995117
vt 1.002930 -0.713867
vt 0.003906 -0.713867
vt 0.167969 -0.112305
vt 0.839844 -0.112305
vt 0.003906 -0.995117
vt 1.002930 -0.713867
vt 0.003906 -0.713867
vt 0.167969 -0.112305
vt 0.839844 -0.112305
vt 1.002930 -0.713867
vt 0.003906 -0.995117
vt 1.002930 -0.995117
vt 1.002930 -0.713867
vt 0.003906 -0.995117
vt 1.002930 -0.995117
vn 1.0000 0.0000 0.0000
vn 1.0000 0.0003 0.0002
vn 1.0000 -0.0002 0.0000
vn 1.0000 -0.0006 0.0002
vn 1.0000 -0.0010 0.0002
usemtl Tex_0067_1.dds
s off
f 1/1/1 3/2/2 2/3/1
f 2/3/3 3/2/3 4/4/3
f 3/2/4 5/5/4 4/4/5
f 6/6/1 8/7/1 7/8/1
f 7/8/1 8/7/1 9/9/1
f 8/7/1 10/10/1 9/9/1
f 11/11/1 13/12/1 12/13/1
f 14/14/1 16/15/1 15/16/1
