# Blender v3.6.3 OBJ File: 'untitled.blend'
# www.blender.org
mtllib Mesh_0136.mtl
o Mesh_0136_Mesh.130
v 69.962753 36.969151 15.519958
v 69.962753 36.037094 15.519958
v 68.885712 37.246086 14.868889
v 69.962753 33.497093 15.519958
v 68.885712 33.497093 14.868889
v 68.885712 33.497097 18.087509
v 69.962753 33.497097 17.436455
v 68.885712 37.246090 18.087509
v 69.962753 36.037094 17.436455
v 69.962753 36.969151 17.436455
v 69.962814 36.969154 2.819962
v 69.962814 36.037098 2.819962
v 68.885788 37.246090 2.168884
v 69.962814 33.497101 2.819962
v 68.885788 33.497101 2.168884
v 68.885788 33.497101 5.387512
v 69.962814 33.497101 4.736458
v 68.885788 37.246090 5.387512
v 69.962814 36.037106 4.736458
v 69.962814 36.969154 4.736458
v 69.962814 36.969151 -9.880035
v 69.962814 36.037094 -9.880039
v 68.885788 37.246090 -10.531113
v 69.962814 33.497097 -9.880039
v 68.885788 33.497101 -10.531116
v 68.885788 33.497101 -7.312489
v 69.962814 33.497101 -7.963543
v 68.885788 37.246090 -7.312489
v 69.962814 36.037106 -7.963551
v 69.962814 36.969154 -7.963547
v 69.962753 36.969154 -22.580036
v 69.962753 36.037098 -22.580040
v 68.885712 37.246090 -23.231113
v 69.962753 33.497097 -22.580040
v 68.885712 33.497097 -23.231117
v 68.885712 33.497097 -20.012489
v 69.962753 33.497097 -20.663544
v 68.885712 37.246090 -20.012486
v 69.962753 36.037102 -20.663544
v 69.962753 36.969151 -20.663544
vt 0.999023 -0.441406
vt 0.201172 -0.396484
vt 0.999023 -0.589844
vt 0.999023 -1.000977
vt 0.201172 -1.000977
vt 0.201172 -1.000977
vt 0.201172 -0.396484
vt 0.999023 -1.000977
vt 0.999023 -0.589844
vt 0.999023 -0.441406
vt 0.999023 -0.441406
vt 0.201172 -0.396484
vt 0.999023 -0.589844
vt 0.999023 -1.000977
vt 0.201172 -1.000977
vt 0.201172 -1.000977
vt 0.201172 -0.396484
vt 0.999023 -1.000977
vt 0.999023 -0.589844
vt 0.999023 -0.441406
vt 0.999023 -0.441406
vt 0.201172 -0.396484
vt 0.999023 -0.589844
vt 0.999023 -1.000977
vt 0.201172 -1.000977
vt 0.201172 -1.000977
vt 0.201172 -0.396484
vt 0.999023 -1.000977
vt 0.999023 -0.589844
vt 0.999023 -0.441406
vt 0.999023 -0.441406
vt 0.201172 -0.396484
vt 0.999023 -0.589844
vt 0.999023 -1.000977
vt 0.201172 -1.000977
vt 0.201172 -1.000977
vt 0.201172 -0.396484
vt 0.999023 -1.000977
vt 0.999023 -0.589844
vt 0.999023 -0.441406
vn -0.5173 0.0000 0.8558
vn -0.5173 0.0000 -0.8558
usemtl Tex_0035_0.dds.002
s off
f 1/1/1 3/2/1 2/3/1
f 2/3/1 3/2/1 4/4/1
f 3/2/1 5/5/1 4/4/1
f 6/6/2 8/7/2 7/8/2
f 7/8/2 8/7/2 9/9/2
f 8/7/2 10/10/2 9/9/2
f 11/11/1 13/12/1 12/13/1
f 12/13/1 13/12/1 14/14/1
f 13/12/1 15/15/1 14/14/1
f 16/16/2 18/17/2 17/18/2
f 17/18/2 18/17/2 19/19/2
f 18/17/2 20/20/2 19/19/2
f 21/21/1 23/22/1 22/23/1
f 22/23/1 23/22/1 24/24/1
f 23/22/1 25/25/1 24/24/1
f 26/26/2 28/27/2 27/28/2
f 27/28/2 28/27/2 29/29/2
f 28/27/2 30/30/2 29/29/2
f 31/31/1 33/32/1 32/33/1
f 32/33/1 33/32/1 34/34/1
f 33/32/1 35/35/1 34/34/1
f 36/36/2 38/37/2 37/38/2
f 37/38/2 38/37/2 39/39/2
f 38/37/2 40/40/2 39/39/2
