# Blender v3.6.3 OBJ File: 'untitled.blend'
# www.blender.org
mtllib Mesh_0244.mtl
o Mesh_0244_Mesh.059
v 69.135422 12.191984 -27.714928
v 62.785408 12.191986 -27.714928
v 69.135422 12.445992 -27.460926
v 62.785408 12.445992 -27.460926
v 69.135422 12.574004 -27.717800
v 62.785416 12.574005 -27.717800
v 68.820633 12.699993 -27.971806
v 63.102921 12.699993 -27.971806
v 62.785408 12.191986 -27.714928
v 56.435410 12.191986 -27.714928
v 62.785408 12.445992 -27.460926
v 56.435410 12.445992 -27.460926
v 62.785416 12.574005 -27.717800
v 56.435417 12.574005 -27.717800
v 62.470634 12.699993 -27.971806
v 56.752922 12.699993 -27.971806
v 56.435410 12.191986 -27.714928
v 50.085411 12.191986 -27.714928
v 56.435410 12.445992 -27.460926
v 50.085411 12.445992 -27.460926
v 56.435417 12.574005 -27.717800
v 50.085411 12.574005 -27.717800
v 56.120636 12.699993 -27.971806
v 50.402924 12.699993 -27.971806
v 50.085411 12.191986 -27.714928
v 43.735413 12.191986 -27.714928
v 50.085411 12.445992 -27.460926
v 43.735413 12.445992 -27.460926
v 50.085411 12.574005 -27.717800
v 43.735413 12.574005 -27.717800
v 49.770638 12.699993 -27.971806
v 44.052917 12.699993 -27.971806
v 43.735413 12.191986 -27.714928
v 37.309273 12.191991 -27.715004
v 43.735413 12.445992 -27.460926
v 37.385445 12.445992 -27.460972
v 43.735413 12.574005 -27.717800
v 37.385475 12.578514 -27.717800
v 43.420631 12.699993 -27.971806
v 37.702919 12.699993 -27.971806
v 24.685446 12.191991 -27.714966
v 18.335413 12.191986 -27.714928
v 24.685446 12.445992 -27.460972
v 18.335413 12.445992 -27.460926
v 24.685446 12.574008 -27.717800
v 18.335413 12.574005 -27.717800
v 24.370634 12.699993 -27.971806
v 18.652910 12.699993 -27.971806
v 11.985411 12.191986 -27.714928
v 5.635412 12.191986 -27.714928
v 11.985411 12.445992 -27.460926
v 5.635412 12.445992 -27.460926
v 11.985411 12.574005 -27.717800
v 5.635412 12.574005 -27.717800
v 11.670633 12.699993 -27.971806
v 5.952913 12.699993 -27.971806
v 18.335413 12.191986 -27.714928
v 11.985411 12.191986 -27.714928
v 18.335413 12.445992 -27.460926
v 11.985411 12.445992 -27.460926
v 18.335413 12.574005 -27.717800
v 11.985411 12.574005 -27.717800
v 18.020636 12.699993 -27.971806
v 12.302912 12.699993 -27.971806
v 5.635412 12.191986 -27.714928
v -0.714584 12.191986 -27.714928
v 5.635412 12.445992 -27.460926
v -0.714584 12.445992 -27.460926
v 5.635412 12.574005 -27.717800
v -0.714588 12.574005 -27.717800
v 5.320635 12.699993 -27.971806
v -0.397085 12.699993 -27.971806
v -0.714584 12.191986 -27.714928
v -7.064587 12.191984 -27.714928
v -0.714584 12.445992 -27.460926
v -7.064587 12.445992 -27.460926
v -0.714588 12.574005 -27.717800
v -7.064585 12.574004 -27.717800
v -1.029366 12.699993 -27.971806
v -6.747084 12.699993 -27.971806
v 62.785408 10.667994 -27.714931
v 69.135422 10.667994 -27.714935
v 62.785408 10.413991 -27.336803
v 69.135422 10.413991 -27.336803
v 62.785408 10.159993 -27.586674
v 69.135422 10.159993 -27.586674
v 56.435410 10.667994 -27.714931
v 62.785408 10.667994 -27.714931
v 56.435410 10.413991 -27.336803
v 62.785408 10.413991 -27.336803
v 56.435410 10.159993 -27.586674
v 62.785408 10.159993 -27.586674
v 50.085411 10.667994 -27.714931
v 56.435410 10.667994 -27.714931
v 50.085411 10.413991 -27.336803
v 56.435410 10.413991 -27.336803
v 50.085411 10.159993 -27.586674
v 56.435410 10.159993 -27.586674
v 43.735413 10.667994 -27.714931
v 50.085411 10.667994 -27.714931
v 43.735413 10.413991 -27.336803
v 50.085411 10.413991 -27.336803
v 43.735413 10.159993 -27.586674
v 50.085411 10.159993 -27.586674
v 37.310806 10.667992 -27.715012
v 43.735413 10.667994 -27.714931
v 37.385445 10.413992 -27.336803
v 43.735413 10.413991 -27.336803
v 37.385460 10.159992 -27.593632
v 43.735413 10.159993 -27.586674
v 18.335413 10.667994 -27.714931
v 24.685446 10.667994 -27.714973
v 18.335413 10.413991 -27.336803
v 24.685446 10.413992 -27.336803
v 18.335413 10.159993 -27.586674
v 24.685415 10.159993 -27.586674
v 5.635412 10.667994 -27.714931
v 11.985411 10.667994 -27.714931
v 5.635412 10.413991 -27.336803
v 11.985411 10.413991 -27.336803
v 5.635412 10.159993 -27.586674
v 11.985411 10.159993 -27.586674
v 11.985411 10.667994 -27.714931
v 18.335413 10.667994 -27.714931
v 11.985411 10.413991 -27.336803
v 18.335413 10.413991 -27.336803
v 11.985411 10.159993 -27.586674
v 18.335413 10.159993 -27.586674
v -0.714584 10.667994 -27.714931
v 5.635412 10.667994 -27.714931
v -0.714584 10.413991 -27.336803
v 5.635412 10.413991 -27.336803
v -0.714584 10.159993 -27.586674
v 5.635412 10.159993 -27.586674
v -7.064587 10.667994 -27.714935
v -0.714584 10.667994 -27.714931
v -7.064587 10.413991 -27.336803
v -0.714584 10.413991 -27.336803
v -7.064587 10.159993 -27.586674
v -0.714584 10.159993 -27.586674
v 24.980631 10.653617 -27.546860
v 25.201094 10.413991 -27.336796
v 24.685446 10.413992 -27.336803
v 25.201094 10.159991 -27.586483
v 24.685461 10.159993 -27.593624
v 24.685480 12.699993 -27.971806
v 25.201094 12.699992 -27.972561
v 24.685446 12.445992 -27.460972
v 25.201094 12.445993 -27.461002
v 24.981382 12.206370 -27.546856
v 25.201094 12.699992 -27.972561
v 25.337248 12.445993 -27.972565
v 25.201094 12.445993 -27.461002
v 25.201094 12.191994 -27.972557
v 24.981382 12.206370 -27.546856
v 24.980631 10.653617 -27.546860
v 25.201097 10.667994 -27.972569
v 25.201094 10.413991 -27.336796
v 25.337248 10.413993 -27.972565
v 25.201094 10.159991 -27.586483
v 36.869865 10.159991 -27.586483
v 36.733711 10.413990 -27.972565
v 36.869865 10.413991 -27.336803
v 36.869865 10.667994 -27.972569
v 37.090324 10.653617 -27.546860
v 37.385460 10.159992 -27.593632
v 36.869865 10.159991 -27.586483
v 37.385445 10.413992 -27.336803
v 36.869865 10.413991 -27.336803
v 37.090324 10.653617 -27.546860
v 37.089569 12.206370 -27.546856
v 36.869858 12.191991 -27.972557
v 36.869865 12.445995 -27.461002
v 36.733711 12.445992 -27.972557
v 36.869865 12.699994 -27.972561
v 37.089569 12.206370 -27.546856
v 36.869865 12.445995 -27.461002
v 37.385445 12.445992 -27.460972
v 36.869865 12.699994 -27.972561
v 37.385475 12.699993 -27.971806
v 62.785408 10.159993 -27.586674
v 69.135422 10.159993 -27.586674
v 62.785416 10.159993 -27.971806
v 69.135422 10.159993 -27.971806
v 56.435410 10.159993 -27.586674
v 62.785408 10.159993 -27.586674
v 56.435417 10.159993 -27.971806
v 62.785416 10.159993 -27.971806
v 50.085411 10.159993 -27.586674
v 56.435410 10.159993 -27.586674
v 50.085419 10.159993 -27.971806
v 56.435417 10.159993 -27.971806
v 43.735413 10.159993 -27.586674
v 50.085411 10.159993 -27.586674
v 43.735420 10.159993 -27.971806
v 50.085419 10.159993 -27.971806
v 37.385460 10.159992 -27.593632
v 43.735413 10.159993 -27.586674
v 37.385445 10.159994 -27.972439
v 43.735420 10.159993 -27.971806
v 24.685446 10.667994 -27.714973
v 24.760153 10.667993 -27.715008
v 24.685446 10.413992 -27.336803
v 24.980631 10.653617 -27.546860
v 25.201094 10.159991 -27.586483
v 25.177221 10.159992 -27.972054
v 24.685461 10.159993 -27.593624
v 24.685446 10.159993 -27.972435
v 24.760153 10.667993 -27.715008
v 24.761934 12.191994 -27.715015
v 24.980631 10.653617 -27.546860
v 24.981382 12.206370 -27.546856
v 24.980631 10.653617 -27.546860
v 24.981382 12.206370 -27.546856
v 25.201097 10.667994 -27.972569
v 25.201094 12.191994 -27.972557
v 24.685446 12.191991 -27.714966
v 24.685446 12.445992 -27.460972
v 24.761934 12.191994 -27.715015
v 24.981382 12.206370 -27.546856
v 36.869865 10.159991 -27.586483
v 37.385460 10.159992 -27.593632
v 36.893730 10.159993 -27.972054
v 37.385445 10.159994 -27.972439
v 37.310806 10.667992 -27.715012
v 37.090324 10.653617 -27.546860
v 37.309273 12.191991 -27.715004
v 37.089569 12.206370 -27.546856
v 37.090324 10.653617 -27.546860
v 36.869865 10.667994 -27.972569
v 37.089569 12.206370 -27.546856
v 36.869858 12.191991 -27.972557
v 18.335413 10.159993 -27.586674
v 24.685415 10.159993 -27.586674
v 18.335413 10.159993 -27.971806
v 24.685446 10.159993 -27.972435
v 5.635412 10.159993 -27.586674
v 11.985411 10.159993 -27.586674
v 5.635412 10.159993 -27.971806
v 11.985411 10.159993 -27.971806
v 11.985411 10.159993 -27.586674
v 18.335413 10.159993 -27.586674
v 11.985411 10.159993 -27.971806
v 18.335413 10.159993 -27.971806
v -0.714584 10.159993 -27.586674
v 5.635412 10.159993 -27.586674
v -0.714584 10.159993 -27.971806
v 5.635412 10.159993 -27.971806
v -7.064587 10.159993 -27.586674
v -0.714584 10.159993 -27.586674
v -7.064585 10.159993 -27.971806
v -0.714584 10.159993 -27.971806
v 25.177221 10.159992 -27.972054
v 25.201094 10.159991 -27.586483
v 25.337248 10.413993 -27.972565
v 37.385445 10.413992 -27.336803
v 37.090324 10.653617 -27.546860
v 37.310806 10.667992 -27.715012
v 36.869865 10.159991 -27.586483
v 36.893730 10.159993 -27.972054
v 36.733711 10.413990 -27.972565
v 37.385445 12.445992 -27.460972
v 37.309273 12.191991 -27.715004
v 37.089569 12.206370 -27.546856
vt -0.998047 -0.177734
vt -0.998047 -0.081055
vt -2.996094 -0.177734
vt -2.996094 -0.081055
vt -0.998047 -0.028320
vt -2.996094 -0.022461
vt -1.095703 0.032227
vt -2.895508 0.032227
vt -0.998047 -0.177734
vt -0.998047 -0.081055
vt -2.996094 -0.177734
vt -2.996094 -0.081055
vt -0.998047 -0.028320
vt -2.996094 -0.022461
vt -1.095703 0.032227
vt -2.895508 0.032227
vt -0.998047 -0.177734
vt -0.998047 -0.081055
vt -2.996094 -0.177734
vt -2.996094 -0.081055
vt -0.998047 -0.028320
vt -2.996094 -0.022461
vt -1.095703 0.032227
vt -2.895508 0.032227
vt -0.998047 -0.177734
vt -0.998047 -0.081055
vt -2.996094 -0.177734
vt -2.996094 -0.081055
vt -0.998047 -0.028320
vt -2.996094 -0.022461
vt -1.095703 0.032227
vt -2.895508 0.032227
vt -0.998047 -0.177734
vt -0.998047 -0.081055
vt -2.996094 -0.177734
vt -2.996094 -0.081055
vt -0.998047 -0.028320
vt -2.996094 -0.022461
vt -1.095703 0.032227
vt -2.895508 0.032227
vt -0.998047 -0.177734
vt -0.998047 -0.081055
vt -2.996094 -0.177734
vt -2.996094 -0.081055
vt -0.998047 -0.028320
vt -2.996094 -0.022461
vt -1.095703 0.032227
vt -2.895508 0.032227
vt -0.998047 -0.177734
vt -0.998047 -0.081055
vt -2.996094 -0.177734
vt -2.996094 -0.081055
vt -0.998047 -0.028320
vt -2.996094 -0.022461
vt -1.095703 0.032227
vt -2.895508 0.032227
vt -0.998047 -0.177734
vt -0.998047 -0.081055
vt -2.996094 -0.177734
vt -2.996094 -0.081055
vt -0.998047 -0.028320
vt -2.996094 -0.022461
vt -1.095703 0.032227
vt -2.895508 0.032227
vt -0.998047 -0.177734
vt -0.998047 -0.081055
vt -2.996094 -0.177734
vt -2.996094 -0.081055
vt -0.998047 -0.028320
vt -2.996094 -0.022461
vt -1.095703 0.032227
vt -2.895508 0.032227
vt -0.998047 -0.177734
vt -0.998047 -0.081055
vt -2.996094 -0.177734
vt -2.996094 -0.081055
vt -0.998047 -0.028320
vt -2.996094 -0.022461
vt -1.095703 0.032227
vt -2.895508 0.032227
vt -2.996094 -0.945312
vt -2.996094 -1.071289
vt -0.998047 -0.945312
vt -0.998047 -1.071289
vt -2.996094 -1.184570
vt -0.998047 -1.184570
vt -2.996094 -0.945312
vt -2.996094 -1.071289
vt -0.998047 -0.945312
vt -0.998047 -1.071289
vt -2.996094 -1.184570
vt -0.998047 -1.184570
vt -2.996094 -0.945312
vt -2.996094 -1.071289
vt -0.998047 -0.945312
vt -0.998047 -1.071289
vt -2.996094 -1.184570
vt -0.998047 -1.184570
vt -2.996094 -0.945312
vt -2.996094 -1.071289
vt -0.998047 -0.945312
vt -0.998047 -1.071289
vt -2.996094 -1.184570
vt -0.998047 -1.184570
vt -2.996094 -0.945312
vt -2.996094 -1.071289
vt -0.998047 -0.945312
vt -0.998047 -1.071289
vt -2.996094 -1.184570
vt -0.998047 -1.184570
vt -2.996094 -0.945312
vt -2.996094 -1.071289
vt -0.998047 -0.945312
vt -0.998047 -1.071289
vt -2.996094 -1.184570
vt -0.998047 -1.184570
vt -2.996094 -0.945312
vt -2.996094 -1.071289
vt -0.998047 -0.945312
vt -0.998047 -1.071289
vt -2.996094 -1.184570
vt -0.998047 -1.184570
vt -2.996094 -0.945312
vt -2.996094 -1.071289
vt -0.998047 -0.945312
vt -0.998047 -1.071289
vt -2.996094 -1.184570
vt -0.998047 -1.184570
vt -2.996094 -0.945312
vt -2.996094 -1.071289
vt -0.998047 -0.945312
vt -0.998047 -1.071289
vt -2.996094 -1.184570
vt -0.998047 -1.184570
vt -2.996094 -0.945312
vt -2.996094 -1.071289
vt -0.998047 -0.945312
vt -0.998047 -1.071289
vt -2.996094 -1.184570
vt -0.998047 -1.184570
vt -2.353516 -0.947266
vt -2.551758 -1.071289
vt -2.669922 -1.071289
vt -2.696289 -1.184570
vt -2.551758 -1.184570
vt -2.475586 0.032227
vt -2.475586 -0.081055
vt -2.600586 0.032227
vt -2.638672 -0.081055
vt -2.280273 -0.177734
vt -2.600586 0.032227
vt -2.638672 -0.081055
vt -2.996094 -0.081055
vt -2.592773 -0.177734
vt -2.280273 -0.177734
vt -2.353516 -0.947266
vt -2.669922 -1.071289
vt -2.651367 -0.947266
vt -2.996094 -1.071289
vt -2.696289 -1.184570
vt -2.696289 -1.184570
vt -2.669922 -1.071289
vt -2.996094 -1.071289
vt -2.651367 -0.947266
vt -2.353516 -0.947266
vt -2.551758 -1.184570
vt -2.551758 -1.071289
vt -2.696289 -1.184570
vt -2.669922 -1.071289
vt -2.353516 -0.947266
vt -2.280273 -0.177734
vt -2.638672 -0.081055
vt -2.592773 -0.177734
vt -2.996094 -0.081055
vt -2.600586 0.032227
vt -2.280273 -0.177734
vt -2.475586 -0.081055
vt -2.638672 -0.081055
vt -2.600586 0.032227
vt -2.475586 0.032227
vt 2.030273 -1.087891
vt 2.030273 -1.137695
vt 3.029297 -1.085938
vt 3.029297 -1.135742
vt 2.030273 -1.087891
vt 2.030273 -1.137695
vt 3.029297 -1.085938
vt 3.029297 -1.135742
vt 2.030273 -1.087891
vt 2.030273 -1.137695
vt 3.029297 -1.085938
vt 3.029297 -1.135742
vt 2.030273 -1.087891
vt 2.030273 -1.137695
vt 3.029297 -1.085938
vt 3.029297 -1.135742
vt 2.030273 -1.087891
vt 2.030273 -1.137695
vt 3.029297 -1.085938
vt 3.029297 -1.135742
vt -2.551758 -0.947266
vt -2.551758 -1.071289
vt -2.250977 -0.947266
vt -2.353516 -0.947266
vt -1.804688 -1.175781
vt -1.737305 -1.175781
vt -1.804688 -1.298828
vt -1.737305 -1.298828
vt 0.000977 -0.116211
vt 0.000977 -0.013672
vt 0.603516 -0.116211
vt 0.603516 -0.013672
vt 0.000977 -0.013672
vt 0.000977 -0.102539
vt 0.603516 -0.013672
vt 0.603516 -0.102539
vt -2.475586 -0.177734
vt -1.995117 -0.177734
vt -2.475586 -0.081055
vt -2.280273 -0.177734
vt -1.804688 -1.175781
vt -1.804688 -1.298828
vt -1.737305 -1.175781
vt -1.737305 -1.298828
vt 0.000977 -0.116211
vt 0.603516 -0.116211
vt 0.000977 -0.013672
vt 0.603516 -0.013672
vt 0.000977 -0.013672
vt 0.603516 -0.013672
vt 0.000977 -0.102539
vt 0.603516 -0.102539
vt 2.030273 -1.087891
vt 2.030273 -1.137695
vt 3.029297 -1.085938
vt 3.029297 -1.135742
vt 2.030273 -1.087891
vt 2.030273 -1.137695
vt 3.029297 -1.085938
vt 3.029297 -1.135742
vt 2.030273 -1.087891
vt 2.030273 -1.137695
vt 3.029297 -1.085938
vt 3.029297 -1.135742
vt 2.030273 -1.087891
vt 2.030273 -1.137695
vt 3.029297 -1.085938
vt 3.029297 -1.135742
vt 2.030273 -1.087891
vt 2.030273 -1.137695
vt 3.029297 -1.085938
vt 3.029297 -1.135742
vt -2.800781 -1.181641
vt -2.996094 -1.068359
vt -2.697266 -1.183594
vt -2.551758 -1.071289
vt -2.250977 -0.947266
vt -2.353516 -0.947266
vt -2.697266 -1.183594
vt -2.996094 -1.068359
vt -2.800781 -1.181641
vt -2.475586 -0.081055
vt -2.280273 -0.177734
vt -1.995117 -0.177734
vn -0.0000 -0.7071 0.7071
vn 0.8249 -0.3654 0.4313
vn -0.0275 -0.7068 0.7068
vn 0.7965 0.5412 0.2697
vn 0.0007 0.8950 0.4460
vn -0.0432 0.1656 -0.9853
vn -0.0000 0.8950 0.4460
vn -0.0005 0.8950 0.4460
vn 0.0008 0.8963 0.4435
vn 0.0000 0.8959 0.4444
vn -0.0001 0.8964 0.4433
vn -0.0008 0.8962 0.4436
vn 0.0000 0.8959 0.4443
vn -0.8116 -0.4131 0.4131
vn 0.0006 0.8950 0.4460
vn -0.0366 0.8845 -0.4651
vn -0.8108 0.5065 0.2934
vn 0.0000 0.8948 0.4465
vn -0.0006 0.8950 0.4460
vn 0.0009 0.8963 0.4435
vn 0.8103 -0.3807 0.4455
vn 0.0458 -0.9861 -0.1599
vn 0.8116 0.5229 0.2605
vn -0.0007 0.8950 0.4460
vn 0.0008 0.8962 0.4436
vn -0.0009 0.8963 0.4435
vn -0.0001 0.8964 0.4432
vn 0.8104 -0.3811 0.4451
vn 0.0453 -0.9861 -0.1600
vn -0.7382 -0.3538 0.5744
vn 0.0003 0.8951 0.4459
vn -0.0384 0.8379 -0.5445
vn -0.8535 0.4441 0.2725
vn 0.0009 0.8819 0.4714
vn -0.0087 0.8887 0.4584
vn 0.0017 0.8970 0.4421
vn 0.0006 0.8962 0.4437
vn 0.0001 0.8994 0.4371
vn -0.0143 0.9085 0.4175
vn 0.0000 0.9078 0.4193
vn 0.0000 0.9021 0.4314
vn 0.0008 0.8950 0.4461
vn -0.0366 0.8846 -0.4650
vn 0.0009 0.8963 0.4434
vn -0.0001 0.8965 0.4431
vn -0.0008 0.8950 0.4460
vn 0.0003 0.8950 0.4460
vn 0.0000 0.8948 0.4466
vn 0.0005 0.8950 0.4460
vn -0.0010 0.8963 0.4435
vn -0.8108 0.5067 0.2931
vn 0.0000 0.8301 0.5576
vn -0.7676 0.4993 0.4017
vn -0.0550 0.9581 -0.2812
vn 0.0353 0.8296 0.5573
vn -0.7696 -0.4478 0.4552
vn 0.0000 -0.7013 0.7129
vn 0.0553 -0.5986 -0.7991
vn 0.7696 0.5300 0.3560
vn -0.7696 -0.4478 0.4551
vn 0.0430 -0.9956 -0.0837
vn 0.7684 -0.4171 0.4854
vn -0.0000 0.8302 0.5575
vn -0.7146 0.4682 0.5197
vn -0.0525 0.9718 -0.2298
vn 0.7698 0.5302 0.3554
vn -0.8106 -0.4164 0.4118
vn 0.0006 -0.7110 0.7032
vn 0.0437 -0.9929 -0.1107
vn 0.7677 -0.4172 0.4864
vn -0.0008 -0.6918 0.7221
vn -0.0008 -0.7013 0.7129
vn -0.0550 0.9580 -0.2813
vn 0.7696 0.5301 0.3560
vn 0.0430 -0.9956 -0.0838
vn 0.7684 -0.4170 0.4854
vn 0.7684 -0.4173 0.4852
vn -0.0000 0.6592 0.7520
vn -0.6351 0.7724 -0.0005
vn 0.6766 0.7267 0.1188
vn 0.5057 -0.6048 0.6152
vn -0.2564 -0.8865 0.3853
vn 0.0067 -0.7010 0.7131
vn -0.3860 -0.4498 0.8054
vn -0.0097 -0.7110 0.7032
vn -0.0096 -0.7183 0.6957
vn 0.0007 0.8954 0.4452
vn -0.2619 0.6942 0.6704
vn 0.0007 0.8953 0.4455
vn -0.0005 0.8957 0.4447
vn -0.2913 0.9408 0.1732
vn 0.4546 0.7978 0.3961
vn -0.5656 -0.7871 0.2460
vn 0.0001 -0.3373 0.9414
vn 0.6296 -0.6988 0.3394
vn 0.8581 0.4600 0.2284
vn 0.1479 0.8381 0.5251
vn 0.8545 0.4581 -0.2450
vn 0.8545 -0.4581 -0.2450
vn 0.8141 -0.4693 0.3420
vn 0.8763 -0.4697 0.1066
vn 0.5062 -0.5362 0.6754
vn 0.6262 -0.6984 0.3467
vn 0.4649 -0.8437 0.2685
vn 0.5484 0.7765 0.3102
vn 0.2220 0.6452 0.7310
vn 0.3018 0.9347 0.1878
vn 0.8807 0.4721 0.0386
vn 0.7967 0.5263 0.2971
vn 0.8814 0.4724 0.0004
vn 0.6530 -0.4705 0.5935
vn 0.9577 -0.2016 0.2051
vn 0.8150 -0.5725 -0.0892
vn -0.9577 -0.2016 0.2051
vn -0.6530 -0.4705 0.5935
vn -0.8150 -0.5725 -0.0892
vn -0.8814 0.4724 0.0005
vn -0.7968 0.5262 0.2971
vn -0.8807 0.4721 0.0386
vn -0.2221 0.6452 0.7310
vn -0.5484 0.7765 0.3102
vn -0.3018 0.9347 0.1878
vn 0.0097 -0.7110 0.7031
vn 0.3860 -0.4497 0.8054
vn 0.0097 -0.7183 0.6956
vn -0.0067 -0.7010 0.7131
vn 0.2564 -0.8865 0.3853
vn -0.5057 -0.6048 0.6152
vn 0.6351 0.7724 -0.0004
vn -0.6766 0.7267 0.1188
vn -0.6262 -0.6983 0.3468
vn -0.5063 -0.5362 0.6754
vn -0.4649 -0.8437 0.2685
vn -0.8763 -0.4697 0.1066
vn -0.8141 -0.4693 0.3420
vn -0.8545 -0.4580 -0.2450
vn -0.1479 0.8381 0.5251
vn -0.8581 0.4600 0.2284
vn -0.8545 0.4580 -0.2450
vn -0.0001 -0.3373 0.9414
vn 0.5656 -0.7871 0.2461
vn -0.6296 -0.6988 0.3394
vn -0.4546 0.7978 0.3961
vn 0.2913 0.9408 0.1732
vn 0.0005 0.8957 0.4447
vn 0.2619 0.6941 0.6705
vn -0.0006 0.8954 0.4452
vn -0.0006 0.8952 0.4457
vn 0.0000 -1.0000 0.0000
vn 0.0003 0.8301 0.5576
vn 0.2575 0.8021 0.5388
vn 0.0003 0.7390 0.6737
vn -0.4041 0.6994 0.5896
vn -0.3601 0.8252 0.4353
vn -0.3167 0.8152 0.4849
vn -0.6064 0.0007 0.7952
vn -0.6047 0.0007 0.7964
vn -0.6082 0.0003 0.7937
vn -0.6099 0.0003 0.7925
vn 0.8880 -0.0004 0.4599
vn 0.8874 -0.0004 0.4609
vn 0.8886 0.0003 0.4586
vn 0.8891 0.0000 0.4577
vn 0.8886 -0.0000 0.4586
vn 0.0005 -0.7071 0.7071
vn 0.0006 -0.5485 0.8361
vn 0.3261 -0.6684 0.6684
vn -0.4469 -0.7348 0.5102
vn -0.4915 -0.5351 0.6871
vn -0.4015 -0.7053 0.5843
vn 0.6064 0.0006 0.7952
vn 0.6051 0.0006 0.7961
vn 0.6090 0.0003 0.7932
vn 0.6078 0.0003 0.7941
vn -0.8880 -0.0004 0.4598
vn -0.8875 -0.0004 0.4609
vn -0.8891 -0.0000 0.4577
vn -0.8886 -0.0000 0.4586
vn 0.8449 -0.5324 -0.0523
vn 0.3167 0.8152 0.4850
vn -0.8449 -0.5324 -0.0523
vn 0.4013 -0.7051 0.5847
usemtl Tex_0052_0.dds.003
s off
f 1/1/1 3/2/2 2/3/1
f 2/3/1 3/2/1 4/4/3
f 3/2/4 5/5/5 4/4/6
f 4/4/7 5/5/7 6/6/8
f 5/5/9 7/7/10 6/6/11
f 6/6/12 7/7/13 8/8/13
f 9/9/1 11/10/2 10/11/1
f 10/11/1 11/10/1 12/12/14
f 11/10/4 13/13/15 12/12/16
f 12/12/17 13/13/18 14/14/19
f 13/13/20 15/15/10 14/14/11
f 14/14/12 15/15/13 16/16/13
f 17/17/1 19/18/21 18/19/1
f 18/19/1 19/18/22 20/20/3
f 19/18/23 21/21/15 20/20/6
f 20/20/7 21/21/7 22/22/24
f 21/21/25 23/23/10 22/22/11
f 22/22/26 23/23/13 24/24/13
f 25/25/1 27/26/21 26/27/1
f 26/27/1 27/26/22 28/28/14
f 27/26/23 29/29/15 28/28/16
f 28/28/17 29/29/18 30/30/24
f 29/29/25 31/31/10 30/30/27
f 30/30/26 31/31/13 32/32/13
f 33/33/1 35/34/28 34/35/1
f 34/35/1 35/34/29 36/36/30
f 35/34/23 37/37/31 36/36/32
f 36/36/33 37/37/34 38/38/35
f 37/37/36 39/39/37 38/38/38
f 38/38/39 39/39/40 40/40/41
f 41/41/1 43/42/2 42/43/1
f 42/43/1 43/42/1 44/44/14
f 43/42/4 45/45/42 44/44/43
f 44/44/17 45/45/18 46/46/24
f 45/45/44 47/47/13 46/46/45
f 46/46/26 47/47/13 48/48/13
f 49/49/1 51/50/21 50/51/1
f 50/51/1 51/50/22 52/52/14
f 51/50/23 53/53/15 52/52/16
f 52/52/17 53/53/18 54/54/46
f 53/53/25 55/55/10 54/54/27
f 54/54/26 55/55/13 56/56/13
f 57/57/1 59/58/21 58/59/1
f 58/59/1 59/58/22 60/60/14
f 59/58/23 61/61/47 60/60/16
f 60/60/17 61/61/48 62/62/46
f 61/61/25 63/63/10 62/62/27
f 62/62/26 63/63/13 64/64/13
f 65/65/1 67/66/21 66/67/1
f 66/67/1 67/66/22 68/68/14
f 67/66/23 69/69/49 68/68/16
f 68/68/17 69/69/48 70/70/24
f 69/69/20 71/71/13 70/70/45
f 70/70/50 71/71/13 72/72/13
f 73/73/1 75/74/21 74/75/1
f 74/75/1 75/74/22 76/76/14
f 75/74/23 77/77/49 76/76/16
f 76/76/51 77/77/18 78/78/7
f 77/77/9 79/79/10 78/78/11
f 78/78/12 79/79/10 80/80/10
f 81/81/52 83/82/53 82/83/52
f 82/83/52 83/82/54 84/84/55
f 83/82/56 85/85/57 84/84/58
f 84/84/57 85/85/57 86/86/57
f 87/87/52 89/88/53 88/89/52
f 88/89/52 89/88/54 90/90/59
f 89/88/60 91/91/57 90/90/61
f 90/90/62 91/91/57 92/92/57
f 93/93/52 95/94/53 94/95/52
f 94/95/52 95/94/54 96/96/59
f 95/94/60 97/97/57 96/96/61
f 96/96/62 97/97/57 98/98/57
f 99/99/52 101/100/53 100/101/52
f 100/101/52 101/100/54 102/102/59
f 101/100/60 103/103/57 102/102/61
f 102/102/62 103/103/57 104/104/57
f 105/105/63 107/106/64 106/107/63
f 106/107/52 107/106/65 108/108/66
f 107/106/67 109/109/68 108/108/69
f 108/108/70 109/109/71 110/110/72
f 111/111/52 113/112/53 112/113/52
f 112/113/52 113/112/73 114/114/74
f 113/112/60 115/115/57 114/114/75
f 114/114/76 115/115/57 116/116/57
f 117/117/52 119/118/53 118/119/52
f 118/119/52 119/118/54 120/120/59
f 119/118/60 121/121/57 120/120/61
f 120/120/62 121/121/57 122/122/57
f 123/123/52 125/124/53 124/125/52
f 124/125/52 125/124/54 126/126/59
f 125/124/60 127/127/57 126/126/61
f 126/126/62 127/127/57 128/128/57
f 129/129/52 131/130/53 130/131/52
f 130/131/52 131/130/54 132/132/74
f 131/130/56 133/133/57 132/132/61
f 132/132/62 133/133/57 134/134/57
f 135/135/52 137/136/53 136/137/52
f 136/137/52 137/136/54 138/138/74
f 137/136/56 139/139/57 138/138/61
f 138/138/77 139/139/57 140/140/57
f 141/141/78 143/142/79 142/143/80
f 142/143/81 143/142/82 144/144/83
f 143/142/84 145/145/85 144/144/86
f 146/146/87 148/147/88 147/148/89
f 147/148/90 148/147/91 149/149/92
f 148/147/93 150/150/94 149/149/95
f 151/151/96 153/152/97 152/153/98
f 152/153/99 153/152/100 154/154/101
f 153/152/102 155/155/103 154/154/104
f 156/156/105 158/157/106 157/158/107
f 157/158/108 158/157/109 159/159/110
f 158/157/111 160/160/112 159/159/113
f 161/161/114 163/162/115 162/163/116
f 162/163/117 163/162/118 164/164/119
f 163/162/120 165/165/121 164/164/122
f 166/166/123 168/167/124 167/168/125
f 167/168/126 168/167/127 169/169/128
f 168/167/129 170/170/78 169/169/130
f 171/171/131 173/172/132 172/173/133
f 172/173/134 173/172/135 174/174/136
f 173/172/137 175/175/138 174/174/139
f 176/176/140 178/177/141 177/178/142
f 177/178/143 178/177/144 179/179/145
f 178/177/146 180/180/147 179/179/148
f 181/181/149 183/182/149 182/183/149
f 182/183/149 183/182/149 184/184/149
f 185/185/149 187/186/149 186/187/149
f 186/187/149 187/186/149 188/188/149
f 189/189/149 191/190/149 190/191/149
f 190/191/149 191/190/149 192/192/149
f 193/193/149 195/194/149 194/195/149
f 194/195/149 195/194/149 196/196/149
f 197/197/149 199/198/149 198/199/149
f 198/199/149 199/198/149 200/200/149
f 201/201/150 203/202/151 202/203/152
f 202/203/153 203/202/154 204/204/155
f 205/205/149 207/206/149 206/207/149
f 206/207/149 207/206/149 208/208/149
f 209/209/156 211/210/156 210/211/157
f 210/211/158 211/210/159 212/212/158
f 213/213/160 215/214/160 214/215/161
f 214/215/162 215/214/163 216/216/164
f 217/217/165 219/218/166 218/219/167
f 218/219/168 219/218/169 220/220/170
f 221/221/149 223/222/149 222/223/149
f 222/223/149 223/222/149 224/224/149
f 225/225/171 227/226/172 226/227/171
f 226/227/173 227/226/174 228/228/174
f 229/229/175 231/230/176 230/231/175
f 230/231/177 231/230/178 232/232/178
f 233/233/149 235/234/149 234/235/149
f 234/235/149 235/234/149 236/236/149
f 237/237/149 239/238/149 238/239/149
f 238/239/149 239/238/149 240/240/149
f 241/241/149 243/242/149 242/243/149
f 242/243/149 243/242/149 244/244/149
f 245/245/149 247/246/149 246/247/149
f 246/247/149 247/246/149 248/248/149
f 249/249/149 251/250/149 250/251/149
f 250/251/149 251/250/149 252/252/149
f 253/253/179 255/254/179 254/255/179
f 256/256/180 258/257/180 257/258/180
f 259/259/181 261/260/181 260/261/181
f 262/262/182 264/263/182 263/264/182
