# Blender v3.6.3 OBJ File: 'untitled.blend'
# www.blender.org
mtllib Mesh_0274.mtl
o Mesh_0274_Mesh.076
v -9.604576 -0.000006 -14.834316
v -8.525074 -0.000006 -15.523315
v -9.604576 1.693316 -14.834316
v -9.604576 2.063745 -14.834305
v -9.982704 2.063745 -14.672874
v -9.604576 3.809992 -14.834297
v -9.982706 3.807656 -14.672874
v -9.604576 4.803894 -15.022766
v -9.982698 4.925916 -14.888504
v -9.982698 4.925915 -20.735104
v -9.604576 4.803894 -20.600842
v -9.982706 3.807656 -20.950737
v -9.604576 3.809992 -20.789307
v -9.982704 2.063745 -20.950737
v -9.604576 2.063745 -20.789303
v -9.604576 1.693316 -20.789299
v -8.525074 -0.000006 -20.100292
v -9.604576 -0.000006 -20.789295
v -9.604578 1.693316 -14.185894
v -9.604584 0.987765 -14.185894
v -10.239580 1.693316 -14.337410
v -9.604584 0.846655 -14.185894
v -10.239584 -0.000006 -14.337410
v -9.604584 0.564435 -14.185894
v -9.604580 -0.000006 -14.185894
v -9.604580 -0.000006 -21.437714
v -9.604584 0.564435 -21.437717
v -10.239584 -0.000006 -21.286198
v -9.604584 0.846656 -21.437717
v -10.239580 1.693316 -21.286198
v -9.604584 0.987765 -21.437714
v -9.604578 1.693316 -21.437717
v -8.525074 -0.000006 -20.100292
v -9.604576 2.063745 -20.789303
v -8.525072 3.333742 -20.100292
v -9.604576 3.809992 -20.789307
v -8.525070 4.321167 -19.955463
v -9.604576 4.803894 -20.600842
v -9.604584 5.101480 -21.054150
v -9.982704 5.101480 -21.054153
v -9.604580 3.942961 -21.286190
v -9.982698 3.942961 -21.286198
v -9.604586 2.063744 -21.286186
v -9.982704 2.063745 -21.286186
v -9.982704 5.101480 -21.054153
v -9.982698 4.925915 -20.735104
v -9.982698 3.942961 -21.286198
v -9.982706 3.807656 -20.950737
v -9.982704 2.063745 -21.286186
v -9.982704 2.063745 -20.950737
v -9.604576 2.063745 -14.834305
v -8.525072 3.333742 -15.523315
v -9.604576 3.809992 -14.834297
v -8.525070 4.321167 -15.668148
v -9.604576 4.803894 -15.022766
v -9.982704 5.101480 -14.569454
v -9.604580 3.942961 -14.337418
v -9.982698 3.942961 -14.337410
v -9.604586 2.063744 -14.337418
v -9.982704 2.063745 -14.337425
v -9.982704 2.063745 -14.672874
v -10.239580 1.693316 -14.672878
v -9.604576 1.693316 -14.834316
v -10.239582 -0.000006 -14.672886
v -9.604576 -0.000006 -14.834316
v -9.982698 4.925916 -14.888504
v -9.982698 3.942961 -14.337410
v -9.982706 3.807656 -14.672874
v -9.982704 2.063745 -14.337425
v -9.982704 2.063745 -14.672874
v -9.604576 -0.000006 -20.789295
v -10.239582 -0.000006 -20.950726
v -9.604576 1.693316 -20.789299
v -10.239580 1.693316 -20.950733
v -9.982704 2.063745 -20.950737
v -10.239580 1.693316 -14.337410
v -9.982704 2.063745 -14.337425
v -9.604578 1.693316 -14.185894
v -9.604586 2.063744 -14.337418
v -10.239580 1.693316 -14.672878
v -9.982704 2.063745 -14.672874
v -10.239580 1.693316 -14.337410
v -9.982704 2.063745 -14.337425
v -10.239582 -0.000006 -14.672886
v -10.239580 1.693316 -14.672878
v -10.239584 -0.000006 -14.337410
v -10.239580 1.693316 -14.337410
v -10.239580 1.693316 -21.286198
v -9.604578 1.693316 -21.437717
v -9.982704 2.063745 -21.286186
v -9.604586 2.063744 -21.286186
v -10.239580 1.693316 -20.950733
v -10.239580 1.693316 -21.286198
v -9.982704 2.063745 -20.950737
v -9.982704 2.063745 -21.286186
v -10.239582 -0.000006 -20.950726
v -10.239584 -0.000006 -21.286198
v -10.239580 1.693316 -20.950733
v -10.239580 1.693316 -21.286198
v -9.604576 2.063745 -14.834305
v -8.525074 -0.000006 -15.523315
v -8.525072 3.333742 -15.523315
v -9.604580 3.942961 -14.337418
v -9.982704 5.101480 -14.569454
v -9.604584 5.101480 -14.569458
v -9.982698 3.942961 -14.337410
v -9.982698 4.925916 -14.888504
v -9.982704 5.101480 -14.569454
vt 2.392578 0.000977
vt 2.391602 0.334961
vt 2.997070 0.000977
vt 2.391602 0.382812
vt 2.204102 0.360352
vt 2.392578 0.774414
vt 2.201172 0.774414
vt 2.390625 0.988281
vt 2.199219 0.988281
vt 2.199219 0.988281
vt 2.201172 0.774414
vt 2.390625 0.988281
vt 2.392578 0.774414
vt 2.204102 0.360352
vt 2.391602 0.382812
vt 2.391602 0.334961
vt 2.997070 0.000977
vt 2.392578 0.000977
vt -0.999023 -0.540039
vt -0.911133 -0.517578
vt -0.999023 -0.717773
vt -0.999023 -0.778320
vt -0.911133 -0.991211
vt -0.999023 -0.831055
vt -0.999023 -0.991211
vt -0.999023 -0.991211
vt -0.911133 -0.991211
vt -0.999023 -0.831055
vt -0.999023 -0.778320
vt -0.911133 -0.517578
vt -0.999023 -0.717773
vt -0.999023 -0.540039
vt 2.997070 0.000977
vt 2.997070 0.677734
vt 2.391602 0.382812
vt 2.392578 0.774414
vt 2.997070 0.988281
vt 2.390625 0.988281
vt 1.998047 0.988281
vt 1.998047 0.773438
vt 2.098633 0.988281
vt 2.098633 0.774414
vt 1.998047 0.348633
vt 2.098633 0.342773
vt 2.098633 0.988281
vt 2.098633 0.774414
vt 2.199219 0.988281
vt 2.201172 0.774414
vt 2.098633 0.342773
vt 2.204102 0.360352
vt 2.391602 0.382812
vt 2.392578 0.774414
vt 2.997070 0.677734
vt 2.997070 0.988281
vt 2.390625 0.988281
vt 2.098633 0.988281
vt 2.098633 0.774414
vt 1.998047 0.773438
vt 1.998047 0.348633
vt 2.098633 0.342773
vt -0.805664 -0.437500
vt -0.911133 -0.544922
vt -0.805664 -0.500977
vt -0.805664 -0.991211
vt -0.911133 -0.991211
vt 2.199219 0.988281
vt 2.201172 0.774414
vt 2.098633 0.774414
vt 2.098633 0.342773
vt 2.204102 0.360352
vt -0.911133 -0.991211
vt -0.911133 -0.544922
vt -0.805664 -0.991211
vt -0.805664 -0.500977
vt -0.805664 -0.437500
vt -0.911133 -0.517578
vt -0.999023 -0.540039
vt -0.893555 -0.456055
vt -0.999023 -0.449219
vt -0.805664 -0.500977
vt -0.911133 -0.517578
vt -0.805664 -0.437500
vt -0.893555 -0.456055
vt -0.805664 -0.991211
vt -0.911133 -0.991211
vt -0.805664 -0.500977
vt -0.911133 -0.517578
vt -0.911133 -0.517578
vt -0.893555 -0.456055
vt -0.999023 -0.540039
vt -0.999023 -0.449219
vt -0.805664 -0.500977
vt -0.805664 -0.437500
vt -0.911133 -0.517578
vt -0.893555 -0.456055
vt -0.805664 -0.991211
vt -0.805664 -0.500977
vt -0.911133 -0.991211
vt -0.911133 -0.517578
vt 2.391602 0.382812
vt 2.997070 0.677734
vt 2.997070 0.000977
vt 1.998047 0.773438
vt 1.998047 0.988281
vt 2.098633 0.988281
vt 2.098633 0.774414
vt 2.098633 0.988281
vt 2.199219 0.988281
vn -0.5380 0.0000 -0.8429
vn -0.5980 -0.0559 -0.7995
vn -0.5380 0.0000 -0.8430
vn -0.6209 -0.0640 -0.7813
vn -0.3475 0.0533 -0.9362
vn -0.3926 0.0000 -0.9197
vn -0.3923 -0.0429 -0.9188
vn -0.4102 -0.0860 -0.9079
vn -0.3137 -0.0009 -0.9495
vn -0.4703 0.0203 -0.8823
vn -0.4620 -0.1652 -0.8714
vn -0.3083 -0.2081 -0.9283
vn -0.3916 -0.1714 -0.9040
vn -0.3353 -0.0994 -0.9368
vn -0.3792 -0.1752 -0.9086
vn -0.3795 -0.1768 -0.9081
vn -0.3792 -0.1752 0.9086
vn -0.3353 -0.0995 0.9368
vn -0.3795 -0.1766 0.9082
vn -0.3916 -0.1714 0.9040
vn -0.3083 -0.2080 0.9283
vn -0.4620 -0.1652 0.8714
vn -0.3137 -0.0009 0.9495
vn -0.3926 -0.0000 0.9197
vn -0.4703 0.0203 0.8823
vn -0.4098 -0.0862 0.9081
vn -0.3925 0.0246 0.9194
vn -0.3095 0.0963 0.9460
vn -0.3925 -0.0246 0.9194
vn -0.6326 -0.0736 0.7710
vn -0.5145 0.0209 0.8573
vn -0.5380 0.0000 0.8429
vn -0.5609 -0.0208 0.8276
vn -0.2321 0.0000 0.9727
vn -0.2321 -0.0000 -0.9727
vn -0.5554 -0.0465 0.8303
vn -0.5677 0.0364 0.8224
vn -0.4628 -0.0092 0.8864
vn -0.6319 -0.1125 0.7669
vn -0.5834 -0.1179 0.8036
vn -0.5494 -0.1534 0.8214
vn -0.5035 -0.1278 0.8545
vn -0.5619 -0.1761 0.8082
vn -0.5570 -0.1547 0.8160
vn 0.0000 0.1964 -0.9805
vn 0.0301 0.1033 -0.9942
vn 0.0940 0.2249 -0.9698
vn -0.0920 0.1956 -0.9764
vn 0.0987 -0.0000 -0.9951
vn 0.0000 -0.0000 -1.0000
vn -0.1032 -0.0208 -0.9944
vn -1.0000 -0.0000 0.0000
vn -0.4628 -0.0092 -0.8864
vn -0.5770 0.0482 -0.8153
vn -0.6189 -0.1140 -0.7772
vn -0.5494 -0.1534 -0.8214
vn -0.5834 -0.1179 -0.8036
vn -0.5035 -0.1278 -0.8545
vn -0.5570 -0.1547 -0.8160
vn -0.5619 -0.1761 -0.8082
vn 0.0000 0.1964 0.9805
vn -0.0987 0.1954 0.9757
vn 0.1043 0.2279 0.9681
vn 0.0879 -0.0000 0.9961
vn -0.0967 -0.0195 0.9951
vn 0.0000 -0.0000 1.0000
vn -0.0195 0.0967 0.9951
vn -0.2429 0.1684 -0.9553
vn -0.1624 0.2502 -0.9545
vn -0.3231 0.2241 -0.9195
vn -0.3090 0.0000 -0.9511
vn -0.1968 -0.0196 -0.9802
vn -0.2464 0.0000 -0.9692
vn -0.2270 0.0508 -0.9726
vn -0.2464 0.0000 0.9692
vn -0.2270 0.0508 0.9726
vn -0.1968 -0.0196 0.9802
vn -0.3090 0.0000 0.9511
vn -0.1624 0.2502 0.9545
vn -0.2429 0.1684 0.9553
vn -0.3231 0.2240 0.9195
vn -0.2291 0.1589 0.9603
vn -0.2321 -0.0015 0.9727
vn -0.3198 0.2218 0.9212
vn -0.0000 0.5579 0.8299
vn 0.1589 0.3738 0.9138
vn -0.0000 0.3786 0.9256
vn -0.8218 0.5698 0.0000
vn -0.2291 0.1589 -0.9603
vn -0.3198 0.2218 -0.9212
vn -0.2321 -0.0016 -0.9727
vn 0.1589 0.3738 -0.9138
vn 0.0000 0.5580 -0.8299
vn 0.0000 0.3786 -0.9256
vn -0.8217 0.5698 0.0000
usemtl Tex_0054_0.dds.003
s off
f 1/1/1 3/2/2 2/3/1
f 2/3/3 3/2/3 4/4/4
f 3/2/5 5/5/6 4/4/7
f 4/4/6 5/5/6 6/6/8
f 5/5/6 7/7/9 6/6/10
f 6/6/11 7/7/12 8/8/13
f 7/7/14 9/9/15 8/8/16
f 10/10/17 12/11/18 11/12/19
f 11/12/20 12/11/21 13/13/22
f 12/11/23 14/14/24 13/13/25
f 13/13/26 14/14/24 15/15/27
f 14/14/24 16/16/28 15/15/29
f 15/15/30 16/16/31 17/17/32
f 16/16/33 18/18/32 17/17/32
f 19/19/34 21/20/34 20/21/34
f 20/21/34 21/20/34 22/22/34
f 21/20/34 23/23/34 22/22/34
f 22/22/34 23/23/34 24/24/34
f 23/23/34 25/25/34 24/24/34
f 26/26/35 28/27/35 27/28/35
f 27/28/35 28/27/35 29/29/35
f 28/27/35 30/30/35 29/29/35
f 29/29/35 30/30/35 31/31/35
f 30/30/35 32/32/35 31/31/35
f 33/33/32 35/34/36 34/35/32
f 34/35/32 35/34/37 36/36/38
f 35/34/39 37/37/40 36/36/41
f 36/36/42 37/37/43 38/38/44
f 39/39/45 41/40/46 40/41/45
f 40/41/45 41/40/47 42/42/48
f 41/40/49 43/43/50 42/42/51
f 42/42/50 43/43/50 44/44/50
f 45/45/52 47/46/52 46/47/52
f 46/47/52 47/46/52 48/48/52
f 47/46/52 49/49/52 48/48/52
f 48/48/52 49/49/52 50/50/52
f 51/51/1 53/52/53 52/53/54
f 52/53/55 53/52/56 54/54/57
f 53/52/58 55/55/59 54/54/60
f 56/56/61 58/57/62 57/58/63
f 57/58/64 58/57/65 59/59/66
f 58/57/67 60/60/66 59/59/66
f 61/61/68 63/62/69 62/63/70
f 62/63/71 63/62/72 64/64/73
f 63/62/74 65/65/73 64/64/73
f 66/66/52 68/67/52 67/68/52
f 67/68/52 68/67/52 69/69/52
f 68/67/52 70/70/52 69/69/52
f 71/71/75 73/72/76 72/73/75
f 72/73/75 73/72/77 74/74/78
f 73/72/79 75/75/80 74/74/81
f 76/76/82 78/77/83 77/78/84
f 77/78/85 78/77/86 79/79/87
f 80/80/88 82/81/88 81/82/88
f 81/82/88 82/81/88 83/83/88
f 84/84/52 86/85/52 85/86/52
f 85/86/52 86/85/52 87/87/52
f 88/88/89 90/89/90 89/90/91
f 89/90/92 90/89/93 91/91/94
f 92/92/88 94/93/88 93/94/88
f 93/94/95 94/93/95 95/95/95
f 96/96/52 98/97/52 97/98/52
f 97/98/52 98/97/52 99/99/52
f 100/100/1 102/101/1 101/102/1
f 103/103/61 105/104/61 104/105/61
f 106/106/52 108/107/52 107/108/52
