# Blender v3.6.3 OBJ File: 'untitled.blend'
# www.blender.org
mtllib Mesh_0273.mtl
o Mesh_0273_Mesh.075
v -9.604589 0.705546 -14.059898
v -9.604584 0.564435 -14.185894
v -9.604584 0.846655 -14.185894
v -9.604584 0.564435 -21.437717
v -9.604589 0.705546 -21.563709
v -9.604584 0.846656 -21.437717
vt 0.589844 -0.519531
vt 0.621094 -0.487305
vt 0.622070 -0.553711
vt 0.622070 -0.553711
vt 0.621094 -0.487305
vt 0.589844 -0.519531
vn -1.0000 0.0000 -0.0000
usemtl Tex_0031_1.dds.002
s off
f 1/1/1 3/2/1 2/3/1
f 4/4/1 6/5/1 5/6/1
